<?xml version="1.0" standalone="no"?>
<!DOCTYPE svg PUBLIC "-//W3C//DTD SVG 1.1//EN" "http://www.w3.org/Graphics/SVG/1.1/DTD/svg11.dtd" >
<svg xmlns="http://www.w3.org/2000/svg" xmlns:xlink="http://www.w3.org/1999/xlink" version="1.1">
<metadata>
Created by FontForge 20170731 at Fri Apr 21 21:41:37 2023
 By Aleksey,,,
(c) 2014-2020. Copyright by TYPE.WELTKERN :. All rights reserved.
</metadata>
<defs>
<font id="TWKEverett-Super" horiz-adv-x="1536" >
  <font-face 
    font-family="TWK Everett"
    font-weight="900"
    font-stretch="normal"
    units-per-em="2048"
    panose-1="2 11 2 4 0 0 0 0 0 0"
    ascent="1638"
    descent="-410"
    x-height="1137"
    cap-height="1556"
    bbox="-1927 -707 6873 2312"
    underline-thickness="352"
    underline-position="-884"
    unicode-range="U+000D-FEFF"
  />
<missing-glyph horiz-adv-x="1570" 
d="M1466 0h-1362v1556h1362v-1556zM623 1147v-737h325v737h-325z" />
    <glyph glyph-name="fi" unicode="fi" horiz-adv-x="1611" 
d="M1528 1137l-2 -1137h-508v774h-313v-774h-508v774h-156v363h156v37q0 120 59 206q60 88 162 133q104 46 237 46h246v-347h-92q-52 0 -76 -18q-23 -17 -26 -57h821zM1018 1217v339h508v-339h-508z" />
    <glyph glyph-name="fl" unicode="fl" horiz-adv-x="1609" 
d="M1528 0h-510v1210h-211q-52 0 -76 -18q-23 -17 -26 -57h194v-363h-194v-774h-508v774h-156v363h156v36q0 121 59 207q60 88 162 133t237 45h873v-1556z" />
    <glyph glyph-name="W_W_W" unicode="WWW" horiz-adv-x="6909" 
d="M6255 186l139 1370h479l-180 -1556h-854l-117 1409l-117 -1409h-854l-161 1407l-164 -1407h-854l-117 1409l-117 -1409h-854l-162 1407l-163 -1407h-854l-117 1409l-117 -1409h-854l-180 1556h479l139 -1370l133 1370h799l133 -1370l140 1370h923l139 -1370l134 1370h798
l133 -1370l140 1370h923l140 -1370l133 1370h798z" />
    <glyph glyph-name="f_f" unicode="ff" horiz-adv-x="1871" 
d="M1745 1210h-4q-52 0 -76 -18t-27 -57h195v-363h-195v-774h-508v774h-428v-774h-507v774h-156v363h156v36q0 121 59 207q60 88 162 133t237 45h246v-346h-92q-52 0 -76 -18q-23 -17 -26 -57h428v36q0 121 59 207q60 88 162 133t237 45h246v-346h-92z" />
    <glyph glyph-name="f_f_i" unicode="ffi" horiz-adv-x="2547" 
d="M2464 1137l-4 -1137h-508v774h-314v-774h-508v774h-428v-774h-507v774h-156v363h156v37q0 120 59 206q60 88 162 133q104 46 237 46h246v-347h-92q-52 0 -76 -18q-23 -17 -26 -57h428v37q0 120 59 206q60 88 162 133q104 46 237 46h246v-347h-92q-52 0 -76 -18t-27 -57
h822zM1952 1217v339h508v-339h-508z" />
    <glyph glyph-name="f_f_l" unicode="ffl" horiz-adv-x="2545" 
d="M1956 1556h504v-1556h-508v774h-314v-774h-508v774h-428v-774h-507v774h-156v363h156v37q0 120 59 206q60 88 162 133q104 46 237 46h246v-347h-92q-52 0 -76 -18q-23 -17 -26 -57h428v37q0 120 59 206q60 88 162 133q104 46 237 46h246v-347h-92q-52 0 -76 -18t-27 -57
h314v419z" />
    <glyph glyph-name="f_j" unicode="fj" horiz-adv-x="1611" 
d="M1528 1137l-4 -1157q0 -120 -58 -205q-59 -86 -161 -131t-236 -45h-205v362h51q59 0 80 21q23 23 23 69v723h-313v-774h-508v774h-156v363h156v37q0 120 59 206q60 88 162 133q104 46 237 46h246v-347h-92q-52 0 -76 -18q-23 -17 -26 -57h821zM1016 1214v340h508v-340
h-508z" />
    <glyph glyph-name="f_t" unicode="ft" horiz-adv-x="1886" 
d="M1638 774l-6 -325v-5q0 -46 25 -65t80 -19h84v-362h-238q-133 0 -235 45q-104 46 -162 131t-58 205v4v391h-423v-774h-508v774h-156v363h156v37q0 120 59 206q60 88 162 133q104 46 237 46h246v-347h-92q-52 0 -76 -18q-23 -17 -26 -57h423v268h508v-268h187v-363h-187z
" />
    <glyph glyph-name="t_f" unicode="tf" horiz-adv-x="1886" 
d="M1759 1210l-6 -4q-52 0 -76 -18q-23 -17 -26 -58h194v-362h-194v-774h-508v774h-447v-322v-4q0 -46 25 -65t80 -19h84v-362h-238q-133 0 -235 45q-104 46 -162 131q-57 83 -57 205v4v391h-162v363h162v268h507v-268h447v36q0 121 59 207q60 88 162 133t238 45h245v-346
h-92z" />
    <glyph glyph-name="t_t" unicode="tt" horiz-adv-x="1900" 
d="M1653 774l-8 -330v-4q0 -47 24 -65q25 -19 80 -19h84v-362h-238q-133 0 -235 45q-104 46 -162 131q-57 83 -57 205v4v391h-443v-321v-5q0 -46 25 -65t80 -19h84v-362h-238q-133 0 -235 45q-104 46 -162 131q-57 83 -57 205v4v391h-162v363h162v268h507v-268h443v268h508
v-268h186v-363h-186z" />
    <glyph glyph-name="w_w_w" unicode="www" horiz-adv-x="5617" 
d="M5075 176l84 961h418l-113 -1137h-752l-67 977l-70 -977h-751l-97 981l-98 -981h-752l-67 977l-70 -977h-751l-97 981l-98 -981h-752l-67 977l-70 -977h-751l-113 1137h418l84 -961l84 961h694l84 -961l84 961h805l84 -961l84 961h694l84 -961l84 961h805l84 -961l84 961
h694z" />
    <glyph glyph-name=".notdef" horiz-adv-x="1570" 
d="M1466 0h-1362v1556h1362v-1556zM623 1147v-737h325v737h-325z" />
    <glyph glyph-name=".null" horiz-adv-x="0" 
 />
    <glyph glyph-name="nonmarkingreturn" unicode="&#xd;" horiz-adv-x="409" 
 />
    <glyph glyph-name="space" unicode=" " horiz-adv-x="409" 
 />
    <glyph glyph-name="exclam" unicode="!" horiz-adv-x="720" 
d="M569 551h-417l-95 1005h607zM614 0h-508v430h508v-430z" />
    <glyph glyph-name="quotedbl" unicode="&#x22;" horiz-adv-x="1161" 
d="M485 813h-368l-64 743h496zM1044 813h-368l-64 743h496z" />
    <glyph glyph-name="numbersign" unicode="#" horiz-adv-x="1691" 
d="M1624 1137v-297h-317l-43 -201h258v-297h-320l-69 -342h-359l70 342h-223l-70 -342h-358l69 342h-194v297h256l43 201h-197v297h258l86 419h358l-86 -419h224l86 419h358l-86 -419h256zM682 639h223l43 201h-223z" />
    <glyph glyph-name="dollar" unicode="$" horiz-adv-x="1480" 
d="M1364 268l-8 -6q-54 -97 -148 -164t-227 -102v-268h-516v278q-171 58 -279 187t-129 303h527q9 -74 55 -117t121 -43q65 0 104 22q37 21 37 62t-39 61q-46 24 -131 49l-233 66q-205 58 -316 172q-110 113 -110 311q0 115 49 209q50 96 137 162q88 67 209 102v260h516
v-264q166 -52 264 -162t133 -264h-526q-15 46 -49 70q-36 25 -96 25q-59 0 -93 -21q-32 -19 -32 -55q0 -20 22 -39q21 -18 64 -33q56 -19 123 -37l233 -65q188 -53 289 -174q100 -121 100 -316q0 -117 -51 -209z" />
    <glyph glyph-name="percent" unicode="%" horiz-adv-x="2101" 
d="M240 743v-4q-93 50 -142 152q-49 101 -49 246q0 144 49 245q49 102 142 152q91 49 219 49t219 -49q92 -50 141 -150q49 -101 49 -245q0 -145 -49 -246q-49 -100 -141 -150q-91 -49 -219 -49t-219 49zM811 -6h-426l901 1556h426zM500 958v-4q14 16 20 60q6 40 6 116
t-6 117q-6 44 -20 60q-15 18 -43 18t-43 -18t-21 -58q-6 -41 -6 -116q0 -77 6 -117t21 -58t43 -18t43 18zM1417 8v-4q-91 49 -141 152q-49 101 -49 245q0 145 49 246q50 103 141 152t219 49t219 -49q94 -51 142 -150q49 -101 49 -246q0 -144 -49 -245q-48 -99 -142 -150
q-91 -49 -219 -49t-219 49zM1677 225v-4q15 18 21 60q6 40 6 116q0 77 -6 117q-6 41 -21 59q-16 19 -43 19t-43 -19q-14 -17 -20 -57t-6 -117q0 -75 6 -116t20 -58q15 -18 43 -18t43 18z" />
    <glyph glyph-name="ampersand" unicode="&#x26;" horiz-adv-x="1677" 
d="M1700 0h-578l-67 76q-195 -107 -404 -107q-191 0 -336 54q-142 53 -215 151t-73 238q0 147 90 260q87 110 245 196q-64 76 -102 129q-37 52 -55 101q-19 52 -19 102q0 107 72 197q70 88 203 141t311 53q177 0 305 -55q131 -56 201 -147t70 -197q0 -72 -41 -137
q-40 -63 -121 -123q-76 -56 -207 -123l151 -170l130 225h415l-233 -405q-31 -52 -62 -99zM705 1237l2 -2q-25 -22 -25 -55q0 -27 16 -56q13 -24 50 -67q46 27 71 55t25 68q0 33 -25 55t-57 22q-34 0 -57 -20zM836 322l-230 266q-61 -67 -61 -146q0 -68 43 -108
q44 -41 121 -41q61 0 127 29z" />
    <glyph glyph-name="quotesingle" unicode="'" horiz-adv-x="602" 
d="M485 813h-368l-64 743h496z" />
    <glyph glyph-name="parenleft" unicode="(" horiz-adv-x="851" 
d="M371 -401l-4 -2q-147 216 -234 458q-90 250 -90 531q0 277 90 518q86 230 238 455h516q-148 -219 -236 -455t-88 -518t90 -529q87 -239 234 -458h-516z" />
    <glyph glyph-name="parenright" unicode=")" horiz-adv-x="851" 
d="M-35 -401h-4q147 219 234 458q90 247 90 529t-88 518t-236 455h516q152 -225 238 -455q90 -241 90 -518q0 -281 -90 -531q-86 -238 -234 -456h-516z" />
    <glyph glyph-name="asterisk" unicode="*" horiz-adv-x="954" 
d="M801 1671l92 -260l-180 -59l125 -160l-232 -170l-129 166l-131 -166l-231 170l125 160l-181 59l95 260l176 -57v172h293v-172z" />
    <glyph glyph-name="plus" unicode="+" horiz-adv-x="1280" 
d="M836 760h372v-377h-372v-383h-392v383h-372v377h372v377h392v-377z" />
    <glyph glyph-name="comma" unicode="," horiz-adv-x="692" 
d="M92 0v430h508v-487l-176 -254h-322l154 311h-164z" />
    <glyph glyph-name="hyphen" unicode="-" horiz-adv-x="901" 
d="M815 387h-729v416h729v-416z" />
    <glyph glyph-name="period" unicode="." horiz-adv-x="692" 
d="M600 0h-508v430h508v-430z" />
    <glyph glyph-name="slash" unicode="/" horiz-adv-x="1290" 
d="M569 0h-540l692 1556h541z" />
    <glyph glyph-name="zero" unicode="0" horiz-adv-x="1548" 
d="M385 59q-159 89 -242 271q-84 185 -84 448q0 264 84 449q81 178 244 272q160 92 387 92t387 -92q163 -94 244 -272q84 -185 84 -449q0 -263 -84 -448q-83 -182 -242 -271q-162 -90 -389 -90t-389 90zM881 401h-4q38 41 57 136q18 91 18 241t-18 242q-18 94 -57 135
q-40 43 -107 43q-66 0 -106 -43t-58 -135t-18 -242t18 -241q18 -93 58 -136t108 -43q69 0 109 43z" />
    <glyph glyph-name="one" unicode="1" horiz-adv-x="991" 
d="M432 1556l451 -2v-1556h-518v924h-342v409h12q107 0 184 25q73 24 123 71t84 117z" />
    <glyph glyph-name="two" unicode="2" horiz-adv-x="1474" 
d="M692 410h719v-410h-1343v508l702 477q53 37 68 57q18 24 18 62q0 44 -33 67q-36 25 -88 25q-67 0 -104 -37t-37 -100h-526q6 149 86 270t231 189q149 67 352 67q198 0 344 -61q151 -63 228 -168q80 -109 80 -236q0 -145 -70 -252t-221 -202z" />
    <glyph glyph-name="three" unicode="3" horiz-adv-x="1476" 
d="M1190 743h4q104 -43 168 -122q65 -80 65 -197q0 -149 -79 -250t-236 -154q-152 -51 -381 -51q-333 0 -504 142q-170 141 -194 397h526q0 -71 43 -111q42 -39 127 -39q69 0 117 31q47 30 47 76q0 78 -70 102q-73 25 -196 25h-119v409h119q116 0 172 29q53 27 53 74
q0 46 -35 67q-38 23 -90 23q-68 0 -104 -33q-38 -35 -41 -92h-527q9 143 97 264q85 117 237 185q149 67 338 67q188 0 334 -51q151 -53 237 -148t86 -215q0 -173 -110 -258q-108 -83 -309 -118q121 -9 225 -52z" />
    <glyph glyph-name="four" unicode="4" horiz-adv-x="1538" 
d="M1284 739h201v-409h-201v-330h-518v330h-723v508l336 718h905v-817zM766 1360l-289 -621h289v621z" />
    <glyph glyph-name="five" unicode="5" horiz-adv-x="1515" 
d="M1223 1008h2q113 -61 178 -185q63 -120 63 -295q0 -182 -88 -307t-248 -190q-158 -64 -364 -64q-197 0 -354 68q-159 69 -252 190q-96 125 -105 289h527q9 -72 55 -115t127 -43q74 0 121 50t47 124q0 77 -49 123q-50 47 -125 47q-64 0 -111 -30q-46 -29 -67 -86l-512 41
l77 931h1201v-409h-715l-25 -309q20 56 68 110q44 50 121 86q75 35 163 35q152 0 265 -61z" />
    <glyph glyph-name="six" unicode="6" horiz-adv-x="1546" 
d="M1229 983l2 10q124 -65 194 -184q72 -123 72 -283q0 -153 -88 -278t-252 -199q-165 -74 -377 -74q-213 0 -377 86q-161 84 -253 267q-93 184 -93 456q0 277 93 461q91 181 256 264q166 84 374 84q202 0 348 -67q150 -69 230 -174q83 -109 104 -234h-526q-16 45 -51 62
q-38 18 -92 18q-120 0 -172 -113q-53 -115 -50 -282q20 60 72 119q49 55 127 90t176 35q161 0 283 -64zM913 412q50 44 50 114q0 71 -50 115q-49 43 -133 43q-83 0 -135 -43q-51 -42 -51 -115q0 -72 51 -114q52 -43 135 -43q84 0 133 43z" />
    <glyph glyph-name="seven" unicode="7" horiz-adv-x="1253" 
d="M37 1147v409h1173v-507l-508 -1049h-639l631 1147h-657z" />
    <glyph glyph-name="eight" unicode="8" horiz-adv-x="1576" 
d="M1407 680l-12 -4q118 -87 118 -256q0 -130 -86 -236q-83 -102 -251 -161q-165 -58 -398 -58q-226 0 -397 60q-169 60 -252 161q-86 106 -86 236q0 168 119 256q125 92 303 121q-168 39 -272 133q-101 91 -101 242q0 127 86 219q84 90 244 141q154 49 362 49
q209 0 363 -49q160 -51 244 -141q86 -92 86 -217q0 -151 -101 -242q-104 -94 -272 -133q178 -29 303 -121zM643 1159l-4 -4q-49 -34 -49 -86t49 -86q47 -33 133 -33q83 0 133 35q49 34 49 86t-49 86q-50 35 -131 35q-84 0 -131 -33zM920 383q55 34 55 90q0 38 -25 66t-71 43
q-50 16 -109 16q-58 0 -108 -16q-47 -15 -72 -43t-25 -66q0 -55 56 -90t149 -35q94 0 150 35z" />
    <glyph glyph-name="nine" unicode="9" horiz-adv-x="1546" 
d="M1145 1501l-10 -10q163 -85 254 -266q92 -182 92 -457q0 -279 -92 -461t-254 -264q-166 -84 -375 -84q-198 0 -346 68q-150 69 -230 174q-83 109 -104 233h526q15 -44 51 -61q40 -19 93 -19q120 0 172 113t49 283q-20 -60 -72 -119q-49 -55 -127 -90t-176 -35
q-163 0 -283 63q-123 65 -194 185q-70 119 -70 282q0 154 88 279q87 124 252 198t379 74q213 0 377 -86zM893 911q51 42 51 115t-51 115q-52 43 -135 43q-84 0 -133 -43q-50 -44 -50 -115t50 -115q49 -43 133 -43q83 0 135 43z" />
    <glyph glyph-name="colon" unicode=":" horiz-adv-x="692" 
d="M600 0h-508v430h508v-430zM600 707h-508v430h508v-430z" />
    <glyph glyph-name="semicolon" unicode=";" horiz-adv-x="692" 
d="M92 0v430h508v-487l-176 -254h-322l154 311h-164zM600 707h-508v430h508v-430z" />
    <glyph glyph-name="less" unicode="&#x3c;" horiz-adv-x="1230" 
d="M88 887l1049 219v-393l-775 -142l775 -141v-393l-1049 219v631z" />
    <glyph glyph-name="equal" unicode="=" horiz-adv-x="1302" 
d="M1200 623h-1098v376h1098v-376zM1200 150h-1098v376h1098v-376z" />
    <glyph glyph-name="greater" unicode="&#x3e;" horiz-adv-x="1230" 
d="M94 713v393l1049 -219v-631l-1049 -219v393l774 141z" />
    <glyph glyph-name="question" unicode="?" horiz-adv-x="1345" 
d="M389 551l-12 -2q0 106 31 188q31 83 100 146l135 125q66 63 84 86q23 30 23 55q0 29 -25 41q-24 12 -68 12q-40 0 -67 -18q-28 -19 -31 -49h-526q12 135 90 239q77 102 215 158q137 55 326 55q203 0 340 -51q139 -52 210 -147q72 -97 72 -222q0 -99 -37 -166
q-38 -69 -112 -137l-136 -125q-53 -47 -73 -88q-23 -48 -23 -100h-516zM893 -2h-508v430h508v-430z" />
    <glyph glyph-name="at" unicode="@" horiz-adv-x="1900" 
d="M1401 1264l-12 -7q208 -123 331 -331t123 -455q0 -169 -65 -272q-65 -102 -162 -142q-95 -39 -205 -39q-115 0 -199 41q-81 40 -141 121q-89 -160 -301 -160q-93 0 -166 37q-74 37 -117 105q-43 67 -43 157q0 140 101 201t266 76l225 20v7v4q0 50 -24 80t-70 30
q-47 0 -70 -26q-25 -28 -28 -62h-361q12 103 76 170q66 69 164 103t221 34q157 0 258 -49q102 -50 148 -131q47 -83 47 -186v-4v-189v-4q0 -53 18 -88q17 -33 62 -33q60 0 84 50q24 49 24 147q0 176 -86 324q-86 147 -233 233q-148 86 -322 86q-175 0 -323 -86
q-149 -87 -234 -233q-86 -148 -86 -322q0 -173 86 -321t234 -234t325 -86q90 0 172 18q81 18 144 56l133 -219q-105 -57 -215 -86q-118 -31 -234 -31q-246 0 -454 123q-209 123 -332 332t-123 454q0 247 123 455q123 209 332 332q207 122 454 122q248 0 455 -122zM993 276
l-4 -2q34 52 37 136l-100 -11q-57 -6 -92 -24q-33 -17 -33 -62q0 -42 26 -65q28 -25 74 -25q57 0 92 53z" />
    <glyph glyph-name="A" unicode="A" horiz-adv-x="1736" 
d="M1753 0h-545l-82 330h-516l-82 -330h-544l442 1556h885zM868 1360l-151 -610h305z" />
    <glyph glyph-name="B" unicode="B" horiz-adv-x="1581" 
d="M1313 741l-2 4q106 -41 166 -118q61 -79 61 -193q0 -127 -74 -227q-73 -98 -227 -154q-152 -55 -379 -55h-756v1556h738q217 0 360 -55q145 -56 215 -147q72 -93 72 -211q0 -163 -111 -246q-115 -86 -295 -109q132 -6 232 -45zM920 1133v-5q-32 29 -89 29h-206v-199h206
q59 0 89 27t30 74t-30 74zM864 397q62 0 101 31q36 29 36 80t-36 80q-37 30 -101 30h-239v-221h239z" />
    <glyph glyph-name="C" unicode="C" horiz-adv-x="1695" 
d="M451 63l-7 -10q-185 93 -294 279t-109 436t109 436t294 279q190 96 418 96q198 0 369 -68q168 -67 285 -202q113 -131 155 -336h-547q-30 94 -90 151q-59 56 -170 56q-87 0 -149 -45q-65 -47 -99 -138q-34 -90 -34 -225q0 -137 36 -225q36 -89 103 -137q62 -45 153 -45
q96 0 164 53q71 55 97 157h546q-47 -212 -163 -346q-115 -132 -281 -198q-162 -64 -363 -64q-233 0 -423 96z" />
    <glyph glyph-name="D" unicode="D" horiz-adv-x="1630" 
d="M754 1556l-2 5q385 0 606 -191t221 -590t-221 -590q-220 -190 -604 -190h-650v1556h650zM762 424l-4 -4q136 0 207 92t71 268q0 179 -69 269q-71 92 -205 92h-135v-717h135z" />
    <glyph glyph-name="E" unicode="E" horiz-adv-x="1374" 
d="M629 580v-160h667v-420h-1192v1556h1174v-419h-649v-138h635v-419h-635z" />
    <glyph glyph-name="F" unicode="F" horiz-adv-x="1325" 
d="M1245 1556v-419h-616v-160h602v-420h-602v-557h-525v1556h1141z" />
    <glyph glyph-name="G" unicode="G" horiz-adv-x="1787" 
d="M819 954l883 -8v-954h-420v332q-43 -109 -94 -179q-56 -78 -156 -129q-103 -53 -254 -53q-172 0 -344 90q-164 86 -278 275q-111 184 -111 444q0 252 105 436q107 188 294 281q194 96 443 96q635 0 794 -530h-546q-34 63 -93 98q-56 33 -153 33q-145 0 -225 -105
q-80 -106 -80 -305q0 -197 86 -303q85 -104 243 -104q85 0 146 24q60 23 96 72q35 47 41 104h-377v385z" />
    <glyph glyph-name="H" unicode="H" horiz-adv-x="1644" 
d="M1016 1024v532h524v-1556h-524v549h-387v-549h-525v1556h525v-532h387z" />
    <glyph glyph-name="I" unicode="I" horiz-adv-x="733" 
d="M629 0h-525v1556h525v-1556z" />
    <glyph glyph-name="J" unicode="J" horiz-adv-x="935" 
d="M31 0v418h157q53 0 80 12q28 13 37 39q10 30 10 80v1007h525v-1116q0 -219 -119 -329q-120 -111 -375 -111h-315z" />
    <glyph glyph-name="K" unicode="K" horiz-adv-x="1615" 
d="M1165 813l506 -813h-635l-407 707v-707h-525v1556h525v-645l375 645h614z" />
    <glyph glyph-name="L" unicode="L" horiz-adv-x="1267" 
d="M629 1556v-1136h608v-420h-1133v1556h525z" />
    <glyph glyph-name="M" unicode="M" horiz-adv-x="2330" 
d="M2226 1556v-1556h-471v1380l-209 -1380h-762l-209 1380v-1380h-471v1556h883l178 -1341l178 1341h883z" />
    <glyph glyph-name="N" unicode="N" horiz-adv-x="1843" 
d="M1268 207v1349h471v-1556h-883l-281 1350v-1350h-471v1556h883z" />
    <glyph glyph-name="O" unicode="O" horiz-adv-x="1777" 
d="M451 66q-188 93 -297 276q-107 180 -107 434t107 434q109 184 297 277q194 96 438 96t438 -96q188 -93 297 -277q107 -180 107 -434t-107 -434q-109 -183 -297 -276q-196 -97 -438 -97t-438 97zM1112 473q80 106 80 305t-80 305q-80 105 -223 105t-223 -105
q-80 -106 -80 -305t80 -305q79 -104 223 -104t223 104z" />
    <glyph glyph-name="P" unicode="P" horiz-adv-x="1517" 
d="M791 1556l-3 5q231 0 388 -68q159 -69 237 -190q80 -124 80 -287t-80 -287q-79 -123 -235 -190q-157 -68 -387 -68h-162v-471h-525v1556h687zM788 885q80 0 123 37t43 96t-43 96t-123 37h-161v-266h161z" />
    <glyph glyph-name="Q" unicode="Q" horiz-adv-x="1800" 
d="M1946 0l-572 4l-55 64q-188 -95 -430 -95t-438 97q-188 93 -297 276q-107 180 -107 434t107 434q109 184 297 277q194 96 438 96t438 -96q188 -93 297 -277q107 -180 107 -434q0 -232 -97 -418zM1028 406l-235 272h391q6 50 6 104q0 199 -80 305q-79 105 -223 105
q-143 0 -223 -105q-80 -106 -80 -305t80 -305q79 -104 223 -104q85 0 141 33z" />
    <glyph glyph-name="R" unicode="R" horiz-adv-x="1607" 
d="M1038 0l-286 494h-125v-496h-525v1556h695q211 0 368 -65q160 -66 244 -184q86 -121 86 -281q0 -138 -61 -248q-60 -107 -183 -180l375 -596h-588zM913 1116q-43 37 -122 37h-166v-266h166q79 0 122 37t43 96t-43 96z" />
    <glyph glyph-name="S" unicode="S" horiz-adv-x="1544" 
d="M395 31h2q-158 62 -252 182q-95 121 -110 285h547q12 -84 63 -123t143 -39q98 0 150 24q51 23 51 70q0 42 -43 66q-47 26 -153 49l-269 59q-223 49 -340 166q-116 116 -116 311q0 151 88 267q88 117 241 178q152 61 346 61q340 0 514 -125t209 -338h-546q-6 43 -54 68
t-121 25q-65 0 -116 -23q-47 -21 -47 -61q0 -31 20 -48q21 -18 68 -30q102 -26 143 -35l268 -59q195 -43 310 -164q112 -118 112 -305q0 -173 -92 -291q-90 -115 -260 -174q-168 -58 -399 -58q-200 0 -357 62z" />
    <glyph glyph-name="T" unicode="T" horiz-adv-x="1433" 
d="M31 1556h1372v-419h-424v-1137h-524v1137h-424v419z" />
    <glyph glyph-name="U" unicode="U" horiz-adv-x="1601" 
d="M264 137l-2 -6q-174 168 -174 485v5v929h524v-991v-4q0 -88 50 -141q49 -52 137 -52t139 54q49 52 49 145v991h524v-929q0 -318 -174 -486q-176 -170 -536 -170q-361 0 -537 170z" />
    <glyph glyph-name="V" unicode="V" horiz-adv-x="1638" 
d="M819 207l268 1349h560l-369 -1556h-918l-368 1556h559z" />
    <glyph glyph-name="W" unicode="W" horiz-adv-x="2375" 
d="M1720 186l140 1370h479l-180 -1556h-854l-117 1409l-117 -1409h-854l-180 1556h479l139 -1370l133 1370h799z" />
    <glyph glyph-name="X" unicode="X" horiz-adv-x="1708" 
d="M1210 817l537 -817h-631l-262 436l-262 -436h-631l537 817l-502 739h625l233 -385l233 385h625z" />
    <glyph glyph-name="Y" unicode="Y" horiz-adv-x="1552" 
d="M1012 1556h590l-564 -989v-567h-524v567l-563 989h590l235 -491z" />
    <glyph glyph-name="Z" unicode="Z" horiz-adv-x="1490" 
d="M1397 1024l-697 -604h734v-420h-1362v532l696 605h-684v419h1313v-532z" />
    <glyph glyph-name="bracketleft" unicode="[" horiz-adv-x="876" 
d="M821 1556v-362h-215v-1233h215v-362h-723v1957h723z" />
    <glyph glyph-name="backslash" unicode="\" horiz-adv-x="1290" 
d="M1262 0h-541l-692 1556h540z" />
    <glyph glyph-name="bracketright" unicode="]" horiz-adv-x="876" 
d="M55 1194v362h723v-1957h-723v362h215v1233h-215z" />
    <glyph glyph-name="asciicircum" unicode="^" horiz-adv-x="1265" 
d="M995 1556l219 -827h-481l-100 561l-101 -561h-481l219 827h725z" />
    <glyph glyph-name="underscore" unicode="_" horiz-adv-x="1226" 
d="M1169 -362h-1112v362h1112v-362z" />
    <glyph glyph-name="grave" unicode="`" horiz-adv-x="942" 
d="M918 1217h-474l-419 339h677z" />
    <glyph glyph-name="a" unicode="a" horiz-adv-x="1378" 
d="M1047 1104v-4q135 -61 196 -166q62 -106 62 -242v-4v-690h-498v176q-44 -89 -131 -147q-91 -60 -221 -60q-115 0 -211 47q-94 46 -150 133q-55 85 -55 203q0 176 129 258q132 84 346 105l289 26v6v5q0 50 -25 86q-24 34 -76 34t-79 -30q-28 -31 -31 -70h-506
q15 130 98 219q84 90 215 133q130 43 299 43q215 0 349 -61zM758 307l-4 -2q38 59 41 150l-109 -11q-63 -6 -98 -30t-35 -70q0 -39 29 -68q26 -26 77 -26q62 0 99 57z" />
    <glyph glyph-name="b" unicode="b" horiz-adv-x="1411" 
d="M1161 1087l-4 -2q102 -79 154 -217q53 -139 53 -303q0 -170 -51 -301q-53 -136 -154 -215q-103 -80 -241 -80q-125 0 -211 62q-83 60 -125 157v-186h-498v1557h498v-648q38 115 123 185q86 71 215 71q138 0 241 -80zM809 362h-8q35 68 35 201q0 136 -33 203
q-34 70 -107 70q-72 0 -106 -70q-33 -67 -33 -203q0 -133 35 -201q34 -67 108 -67q75 0 109 67z" />
    <glyph glyph-name="c" unicode="c" horiz-adv-x="1339" 
d="M352 43l-10 -2q-146 73 -229 209q-82 134 -82 313q0 178 86 314q85 134 233 208t330 74q169 0 303 -55q139 -57 219 -162q84 -110 105 -258h-506q-12 69 -43 111q-30 41 -76 41q-64 0 -94 -70q-31 -73 -31 -199q0 -272 129 -272q54 0 80 39q29 43 43 110h506
q-21 -149 -107 -258q-82 -104 -221 -161q-136 -56 -301 -56q-186 0 -334 74z" />
    <glyph glyph-name="d" unicode="d" horiz-adv-x="1411" 
d="M829 1556h494v-1556h-498v186q-40 -94 -125 -155q-86 -62 -211 -62q-138 0 -241 80q-101 79 -154 215q-51 131 -51 301q0 164 53 303q52 138 154 217q103 80 242 80q129 0 215 -71q84 -69 122 -185v647zM807 365h-8q35 68 35 200q0 136 -33 203q-34 70 -107 70
q-72 0 -106 -70q-33 -67 -33 -203q0 -132 35 -200t108 -68q74 0 109 68z" />
    <glyph glyph-name="e" unicode="e" horiz-adv-x="1357" 
d="M1311 434l-758 4q9 -85 41 -129q29 -39 80 -39q41 0 65 21q28 25 47 61h506q-67 -180 -229 -278q-163 -99 -387 -99q-183 0 -328 74q-144 74 -227 209q-82 134 -82 313q0 175 84 312q83 135 227 209q143 73 326 73q182 0 323 -69q147 -72 232 -215q86 -145 86 -357
q0 -40 -6 -90zM598 836v-2q-30 -38 -45 -123h246q-9 79 -39 120t-80 41q-53 0 -82 -36z" />
    <glyph glyph-name="f" unicode="f" horiz-adv-x="935" 
d="M809 1210h-2q-52 0 -76 -18q-23 -17 -26 -57h194v-363h-194v-774h-508v774h-156v363h156v36q0 121 59 207q60 88 162 133t237 45h246v-346h-92z" />
    <glyph glyph-name="g" unicode="g" horiz-adv-x="1413" 
d="M836 1137l491 14v-1071q0 -193 -94 -303q-93 -110 -234 -154q-136 -43 -292 -43q-145 0 -275 37q-131 37 -227 121t-117 215h506q20 -25 47 -39q24 -12 66 -12q58 0 92 37q32 35 32 116v185q-41 -97 -124 -156q-85 -61 -211 -61q-141 0 -242 73t-154 203q-51 125 -51 295
q0 165 53 295t154 203t242 73q129 0 215 -71q85 -70 123 -185v228zM846 606q0 248 -141 248q-142 0 -142 -248q0 -246 142 -246q141 0 141 246z" />
    <glyph glyph-name="h" unicode="h" horiz-adv-x="1382" 
d="M1229 1055l-2 -4q78 -113 78 -316v-4v-735h-508v604v4q0 106 -23 160q-21 49 -80 49t-80 -49q-22 -52 -22 -164v-604h-508v1556h498v-659q50 130 139 201t233 71q199 0 275 -110z" />
    <glyph glyph-name="i" unicode="i" horiz-adv-x="675" 
d="M592 0h-508v1137h508v-1137zM592 1217h-508v339h508v-339z" />
    <glyph glyph-name="j" unicode="j" horiz-adv-x="675" 
d="M-70 -401l-2 360h52q58 0 79 21q23 23 23 69v1086h508v-1155q0 -120 -58 -205q-59 -86 -161 -131t-236 -45h-205zM590 1214h-508v340h508v-340z" />
    <glyph glyph-name="k" unicode="k" horiz-adv-x="1394" 
d="M1073 629l348 -629h-590l-243 479v-479h-508v1556h508v-802l233 383h580z" />
    <glyph glyph-name="l" unicode="l" horiz-adv-x="673" 
d="M592 0h-508v1556h508v-1556z" />
    <glyph glyph-name="m" unicode="m" horiz-adv-x="2052" 
d="M1898 1055l-8 -2q78 -116 78 -316v-4v-735h-508v604v4q0 112 -18 162q-18 49 -72 49q-36 0 -55 -22q-18 -21 -27 -68q-8 -41 -8 -123v-604h-508v604v4q0 112 -18 162q-18 49 -72 49q-36 0 -55 -22q-18 -21 -27 -68q-8 -41 -8 -123v-604h-508v1137h498v-240
q50 127 135 197q86 71 231 71q140 0 215 -69q78 -72 115 -191q47 118 133 189t219 71q193 0 268 -112z" />
    <glyph glyph-name="n" unicode="n" horiz-adv-x="1382" 
d="M1229 1055l-2 -4q78 -113 78 -316v-4v-735h-508v604v4q0 106 -23 160q-21 49 -80 49t-80 -49q-22 -52 -22 -164v-604h-508v1137h498v-240q50 130 139 201t233 71q199 0 275 -110z" />
    <glyph glyph-name="o" unicode="o" horiz-adv-x="1396" 
d="M348 45v-2q-148 75 -229 213q-80 136 -80 307t80 307q81 138 229 213q153 78 350 78q198 0 351 -78q148 -75 229 -213q80 -136 80 -307t-80 -307q-81 -138 -229 -213q-149 -76 -351 -76q-197 0 -350 78zM805 362h-8q34 67 34 201q0 138 -32 203q-34 70 -107 70
q-72 0 -106 -70q-33 -67 -33 -203q0 -133 35 -201q34 -67 108 -67q75 0 109 67z" />
    <glyph glyph-name="p" unicode="p" horiz-adv-x="1411" 
d="M1161 1087l-4 -2q102 -79 154 -217q53 -139 53 -303q0 -170 -51 -301q-53 -136 -154 -215q-103 -80 -241 -80q-125 0 -211 62q-83 60 -125 157v-587h-498v1538h498v-228q38 115 123 185q86 71 215 71q138 0 241 -80zM809 362h-8q35 68 35 201q0 136 -33 203
q-34 70 -107 70q-72 0 -106 -70q-33 -67 -33 -203q0 -133 35 -201q34 -67 108 -67q75 0 109 67z" />
    <glyph glyph-name="q" unicode="q" horiz-adv-x="1411" 
d="M829 1137h494v-1538h-498v587q-40 -94 -125 -155q-86 -62 -211 -62q-138 0 -241 80q-101 79 -154 215q-51 131 -51 301q0 164 53 303q52 138 154 217q103 80 242 80q129 0 215 -71q84 -69 122 -185v228zM807 365h-8q35 68 35 200q0 136 -33 203q-34 70 -107 70
q-72 0 -106 -70q-33 -67 -33 -203q0 -132 35 -200t108 -68q74 0 109 68z" />
    <glyph glyph-name="r" unicode="r" horiz-adv-x="999" 
d="M582 750q15 110 61 204q47 96 129 154q83 59 201 59v-497h-115q-139 0 -203 -58q-63 -57 -63 -186v-426h-508v1137h498v-387z" />
    <glyph glyph-name="s" unicode="s" horiz-adv-x="1314" 
d="M231 63l-2 -6q-156 95 -194 295h506q9 -55 43 -82q33 -26 94 -26q58 0 92 18q35 18 35 43q0 16 -12 25q-16 12 -45 22q-34 12 -99 27l-270 61q-175 40 -252 123q-76 82 -76 213q0 118 76 203q77 86 207 133t287 47q167 0 294 -39q136 -42 220 -123q88 -85 108 -198h-506
q-15 80 -116 80q-51 0 -80 -19q-27 -18 -27 -43q0 -20 29 -33q26 -11 84 -24l270 -62q189 -41 283 -123t94 -227q0 -122 -84 -209q-82 -85 -227 -129q-142 -43 -320 -43q-254 0 -412 96z" />
    <glyph glyph-name="t" unicode="t" horiz-adv-x="950" 
d="M702 774l-4 -325v-5q0 -46 25 -65t80 -19h84v-362h-238q-133 0 -235 45q-104 46 -162 131q-57 83 -57 205v4v391h-162v363h162v268h507v-268h187v-363h-187z" />
    <glyph glyph-name="u" unicode="u" horiz-adv-x="1376" 
d="M784 1137l504 -4v-1137h-497v213q-40 -113 -129 -178q-88 -64 -240 -64q-194 0 -270 113q-78 116 -78 315v4v736h508v-605v-4q0 -106 24 -159q24 -52 78 -52q58 0 80 54q20 50 20 163v605z" />
    <glyph glyph-name="v" unicode="v" horiz-adv-x="1368" 
d="M684 197l176 940h496l-230 -1137h-884l-230 1137h496z" />
    <glyph glyph-name="w" unicode="w" horiz-adv-x="1947" 
d="M1405 176l84 961h418l-113 -1137h-752l-67 977l-70 -977h-751l-113 1137h418l84 -961l84 961h694z" />
    <glyph glyph-name="x" unicode="x" horiz-adv-x="1333" 
d="M995 594l367 -594h-539l-157 293l-158 -293h-539l369 594l-348 543h532l144 -265l143 265h532z" />
    <glyph glyph-name="y" unicode="y" horiz-adv-x="1376" 
d="M664 299l165 838h539l-328 -1538h-516l101 505h-387l-234 1033h500z" />
    <glyph glyph-name="z" unicode="z" horiz-adv-x="1271" 
d="M1182 678l-502 -316h532v-362h-1140v459l501 315h-491v363h1100v-459z" />
    <glyph glyph-name="braceleft" unicode="{" horiz-adv-x="972" 
d="M750 922l4 2q0 -160 -113 -236q-115 -77 -326 -92q211 -15 326 -92t115 -234v-4v-213v-4q0 -46 30 -67t93 -21h41v-362h-189q-240 0 -362 104q-123 105 -123 289v4v182v4q0 69 -25 111q-25 41 -67 59q-46 19 -115 25v432q69 6 115 25q44 18 65 61q23 48 23 117v147
q0 188 123 293q122 104 362 104h188v-362h-41q-65 0 -94 -20q-30 -21 -30 -74v-178z" />
    <glyph glyph-name="bar" unicode="|" horiz-adv-x="684" 
d="M586 -463h-488v2142h488v-2142z" />
    <glyph glyph-name="braceright" unicode="}" horiz-adv-x="972" 
d="M754 895l-6 -8q25 -43 67 -60q43 -18 115 -24v-432q-69 -6 -115 -25q-44 -18 -65 -61q-23 -48 -23 -117v-182q0 -186 -123 -291t-362 -105h-189v363h41q63 0 94 22t31 74v213q0 159 115 236t325 92q-210 15 -325 92t-115 233v5v178v4q0 45 -31 67q-33 23 -92 23h-41v362
h189q240 0 362 -104q123 -105 123 -289v-4v-147v-4q0 -69 25 -111z" />
    <glyph glyph-name="asciitilde" unicode="~" horiz-adv-x="1423" 
d="M61 569l-2 -2q80 138 185 209q107 72 217 72q61 0 119 -10q54 -9 129 -43q71 -30 120 -45q50 -15 103 -15q61 0 112 31q49 30 91 84l227 -236q-79 -138 -184 -208q-107 -72 -217 -72q-61 0 -119 10q-54 9 -129 43q-68 29 -121 45q-46 14 -100 14q-63 0 -113 -30t-90 -82z
" />
    <glyph glyph-name="uni00A0" unicode="&#xa0;" horiz-adv-x="409" 
 />
    <glyph glyph-name="exclamdown" unicode="&#xa1;" horiz-adv-x="700" 
d="M604 707h-508v430h508v-430zM651 -401h-602l92 987h418z" />
    <glyph glyph-name="cent" unicode="&#xa2;" horiz-adv-x="1423" 
d="M1362 446l-8 -8q-21 -164 -123 -278q-101 -113 -258 -166v-273h-508v281q-118 44 -203 123q-87 81 -133 190q-47 112 -47 244q0 134 49 244t135 190q85 79 203 123v275h508v-265q161 -54 256 -161q100 -113 121 -279h-506q-12 69 -43 111q-30 41 -76 41q-64 0 -94 -70
q-31 -73 -31 -199q0 -272 129 -272q54 0 80 39q29 43 43 110h506z" />
    <glyph glyph-name="sterling" unicode="&#xa3;" horiz-adv-x="1384" 
d="M795 604l-4 -2q-86 -112 -316 -194h848v-410h-1235v483q149 49 221 121h-237v336h194l-24 23q-62 53 -99 108t-37 131q0 116 78 203q77 86 213 133t305 47q191 0 328 -55t211 -158q73 -101 82 -235h-526q-9 82 -82 82q-40 0 -58 -21t-18 -55q0 -32 18 -62q13 -23 60 -69
q43 -43 61 -70h369v-336h-352z" />
    <glyph glyph-name="currency" unicode="&#xa4;" horiz-adv-x="1392" 
d="M1174 567l149 -149l-295 -291l-149 147q-85 -32 -183 -32q-97 0 -182 32l-149 -147l-295 291l147 145q-39 95 -39 197q0 105 39 196l-147 146l295 291l149 -148q88 33 182 33q95 0 183 -33l149 148l295 -291l-147 -148q36 -91 36 -190q0 -108 -38 -197zM774 623l-4 -5
q36 20 57 58q23 41 23 80q0 42 -21 80q-20 37 -57 57q-39 22 -80 22q-44 0 -80 -20q-37 -20 -57 -57q-20 -36 -20 -80q0 -41 22 -80q20 -37 57 -57q38 -21 80 -21q39 0 80 23z" />
    <glyph glyph-name="yen" unicode="&#xa5;" horiz-adv-x="1689" 
d="M1063 1556h579l-372 -608h219v-336h-385v-90h385v-336h-385v-186h-518v186h-385v336h385v90h-385v336h219l-373 608h580l219 -501z" />
    <glyph glyph-name="brokenbar" unicode="&#xa6;" horiz-adv-x="704" 
d="M596 788h-487v891h487v-891zM596 -463h-487v891h487v-891z" />
    <glyph glyph-name="section" unicode="&#xa7;" horiz-adv-x="1437" 
d="M1296 154h-6q0 -112 -71 -195q-70 -82 -197 -129t-287 -47q-184 0 -315 51q-134 52 -211 141q-76 88 -88 197h526q3 -41 25 -66q21 -24 59 -24q29 0 47 12q19 13 19 35q0 23 -25 45t-84 49l-334 152q-157 71 -221 147q-65 77 -65 178q0 90 49 154q49 63 145 123
q-121 95 -121 240q0 110 72 194q70 82 197 129t286 47q185 0 316 -51q137 -53 213 -141q78 -90 90 -197h-527q-3 42 -24 66t-57 24q-30 0 -48 -12t-18 -35t25 -45t84 -49l333 -152q158 -72 222 -147q65 -77 65 -178q0 -90 -49 -154q-49 -63 -145 -123q120 -95 120 -239z
M846 559v-2q20 17 20 53q0 42 -24 66q-26 26 -90 53l-172 78q-21 -18 -21 -53q0 -39 25 -64q26 -26 90 -53z" />
    <glyph glyph-name="dieresis" unicode="&#xa8;" horiz-adv-x="1128" 
d="M532 1217h-507v339h507v-339zM1104 1217h-508v339h508v-339z" />
    <glyph glyph-name="copyright" unicode="&#xa9;" horiz-adv-x="1843" 
d="M500 49l-4 -8q-195 115 -308 307q-112 190 -112 422q0 228 114 422q113 192 308 307t424 115q232 0 424 -113q193 -114 307 -307t114 -420q0 -230 -112 -420q-114 -193 -307 -307q-192 -113 -424 -113q-229 0 -424 115zM1225 236l-4 -5q138 81 223 226q84 144 84 307
q0 167 -82 307q-84 144 -223 225q-144 84 -310 84q-169 0 -309 -82q-139 -81 -223 -225q-82 -140 -82 -307q0 -163 84 -307q85 -145 223 -226t309 -81q166 0 310 84zM682 362l-2 -10q-106 52 -168 154q-61 101 -61 246q0 142 59 245q58 101 164 154t235 53q116 0 209 -37
q99 -39 164 -116q67 -79 88 -203h-401q-5 34 -17 53q-10 17 -41 17q-27 0 -39 -15t-18 -49q-6 -35 -6 -94q0 -58 6 -92q6 -33 23 -50q16 -16 47 -16q14 0 30 16q15 15 21 56h399q-35 -191 -155 -277q-122 -88 -295 -88q-133 0 -242 53z" />
    <glyph glyph-name="ordfeminine" unicode="&#xaa;" horiz-adv-x="718" 
d="M600 1505l6 -4q74 -65 74 -172v-4v-342h-272v70q-24 -41 -68 -62q-46 -22 -104 -22q-52 0 -101 24q-51 25 -80 70q-30 47 -30 104q0 161 231 179l143 12v2v4q0 49 -32 49t-35 -43h-281q15 95 101 148t215 53q158 0 233 -66zM387 1139l4 -2q14 25 17 59l-46 -4
q-23 -3 -36 -14q-15 -12 -15 -27q0 -14 11 -25q10 -10 28 -10q24 0 37 23z" />
    <glyph glyph-name="guillemotleft" unicode="&#xab;" horiz-adv-x="1730" 
d="M326 1022h602l-279 -449l279 -471h-602l-263 471zM1069 1022h602l-278 -449l278 -471h-602l-262 471z" />
    <glyph glyph-name="logicalnot" unicode="&#xac;" horiz-adv-x="1193" 
d="M1096 186h-391v408h-652v377h1043v-785z" />
    <glyph glyph-name="uni00AD" unicode="&#xad;" horiz-adv-x="901" 
d="M815 387h-729v416h729v-416z" />
    <glyph glyph-name="registered" unicode="&#xae;" horiz-adv-x="1843" 
d="M1343 1505l-4 -8q195 -115 308 -307q114 -193 114 -420q0 -230 -112 -420q-113 -192 -308 -307q-192 -113 -423 -113q-229 0 -424 115t-308 307q-112 190 -112 422q0 229 114 422q113 192 308 307t424 115q231 0 423 -113zM1356 338l-4 -4q82 82 129 194t47 234
q0 167 -82 307q-84 144 -223 225q-144 84 -310 84q-169 0 -309 -82q-139 -81 -223 -225q-82 -140 -82 -307q0 -163 84 -307q85 -145 223 -226t309 -81q122 0 234 47t194 129h-356l-113 256v-256h-329v872h393q125 0 215 -37q93 -38 141 -106q49 -70 49 -162q0 -81 -36 -143
q-38 -65 -107 -105zM874 932v-86h56q65 0 65 43t-65 43h-56z" />
    <glyph glyph-name="macron" unicode="&#xaf;" horiz-adv-x="952" 
d="M928 1217h-903v339h903v-339z" />
    <glyph glyph-name="degree" unicode="&#xb0;" horiz-adv-x="931" 
d="M246 766l-2 -2q-102 58 -160 160q-59 103 -59 221t59 221q58 102 160 160q103 59 221 59t221 -59q102 -58 160 -160q59 -103 59 -221q0 -122 -57 -221q-58 -102 -160 -160q-99 -57 -221 -57q-118 0 -221 59zM543 1067l2 -2q30 30 30 78t-30 78t-76 30q-45 0 -80 -30
q-33 -29 -33 -78q0 -45 31 -76t78 -31t78 31z" />
    <glyph glyph-name="plusminus" unicode="&#xb1;" horiz-adv-x="1325" 
d="M858 1137v-166h373v-357h-373v-172h-391v172h-373v357h373v166h391zM1231 0h-1137v356h1137v-356z" />
    <glyph glyph-name="uni00B2" unicode="&#xb2;" horiz-adv-x="755" 
d="M362 1206l355 -8v-221h-678v280l358 230q15 9 21 18t6 21q0 15 -12 24q-15 11 -33 11q-22 0 -39 -17q-14 -14 -14 -37h-287q0 80 47 142q44 58 123 94q78 35 166 35q155 0 246 -64q92 -65 92 -180q0 -66 -37 -115q-38 -51 -107 -90z" />
    <glyph glyph-name="uni00B3" unicode="&#xb3;" horiz-adv-x="739" 
d="M647 1327l-2 -4q62 -47 62 -129q0 -71 -43 -123q-44 -54 -119 -80q-74 -26 -185 -26q-164 0 -251 75q-90 78 -99 203h287q0 -65 61 -65q28 0 43 12q17 14 17 31q0 26 -29 36q-33 11 -86 11h-67v213h67q98 0 98 45q0 14 -10 24q-9 9 -31 9q-21 0 -36 -15t-15 -37h-286
q6 81 53 140q45 56 121 92q70 33 161 33q93 0 170 -25q73 -24 117 -74q43 -49 43 -112q0 -83 -49 -123q-50 -41 -145 -56q92 -9 153 -55z" />
    <glyph glyph-name="acute" unicode="&#xb4;" horiz-adv-x="942" 
d="M498 1217h-473l215 339h678z" />
    <glyph glyph-name="uni00B5" unicode="&#xb5;" horiz-adv-x="1531" 
d="M1479 362l2 -366h-125q-155 0 -254 12q-100 12 -168 51q-70 41 -105 117q-9 25 -12 43q-61 -168 -213 -221v-397h-508v1538h508v-604v-5q0 -103 23 -157q21 -49 78 -49q58 0 79 49t21 159v605h508v-670v-4q0 -48 14 -68t45 -26q35 -7 88 -7h19z" />
    <glyph glyph-name="paragraph" unicode="&#xb6;" horiz-adv-x="1742" 
d="M508 629q-127 0 -234 61t-168 168t-61 236q0 126 61 233t168 168t234 61h1100v-1746h-461v1366h-178v-1366h-461v819z" />
    <glyph glyph-name="periodcentered" unicode="&#xb7;" horiz-adv-x="557" 
d="M451 389h-369v430h369v-430z" />
    <glyph glyph-name="cedilla" unicode="&#xb8;" horiz-adv-x="487" 
d="M285 -55l4 2q76 -12 127 -60q49 -46 49 -123q0 -88 -68 -141q-66 -51 -172 -51h-200v186h88q47 0 47 31t-47 31h-50v180h222v-55z" />
    <glyph glyph-name="uni00B9" unicode="&#xb9;" horiz-adv-x="518" 
d="M236 1763h223v-778h-281v438h-168v222h13q81 0 135 28q52 27 73 80z" />
    <glyph glyph-name="ordmasculine" unicode="&#xba;" horiz-adv-x="714" 
d="M180 1010l-2 -6q-78 41 -117 106q-38 63 -38 154q0 90 38 153q41 69 117 109q74 39 178 39q105 0 176 -39q76 -42 115 -107t39 -153q0 -89 -39 -154q-41 -68 -112 -104q-73 -37 -177 -37t-178 39zM395 1176l-2 -7q10 30 10 88q0 61 -10 91q-9 28 -37 28q-27 0 -39 -26
q-12 -27 -12 -88q0 -59 12 -86t41 -27q28 0 37 27z" />
    <glyph glyph-name="guillemotright" unicode="&#xbb;" horiz-adv-x="1730" 
d="M59 1022h603l262 -449l-262 -471h-603l279 471zM803 1022h602l262 -449l-262 -471h-602l278 471z" />
    <glyph glyph-name="onequarter" unicode="&#xbc;" horiz-adv-x="1810" 
d="M1665 377h98v-221h-98v-156h-281v156h-348v280l127 342h502v-401zM1384 657l-114 -280h114v280zM268 1556h224v-778h-281v439h-168v221h12q81 0 135 28q53 27 74 80zM530 0h-376l954 1556h377z" />
    <glyph glyph-name="onehalf" unicode="&#xbd;" horiz-adv-x="1804" 
d="M1395 221l354 -8v-221h-678v280l359 230q13 8 20 18q6 9 6 21q0 15 -12 24q-13 10 -33 10q-23 0 -39 -16q-14 -14 -14 -37h-287q0 80 47 142q44 58 123 94q78 35 166 35q155 0 246 -64q92 -65 92 -180q0 -66 -37 -115q-39 -52 -106 -90zM268 1548h224v-778h-281v438h-168
v222h12q81 0 135 28q53 27 74 80zM530 -8h-376l954 1556h377z" />
    <glyph glyph-name="threequarters" unicode="&#xbe;" horiz-adv-x="1939" 
d="M676 1120l-2 -4q61 -46 61 -129q0 -71 -43 -123q-44 -54 -119 -80q-74 -26 -184 -26q-164 0 -252 76q-89 77 -98 202h287q0 -65 61 -65q28 0 43 12q16 13 16 31q0 28 -28 37q-30 10 -86 10h-68v213h68q98 0 98 45q0 14 -10 24q-9 9 -31 9t-37 -15q-14 -14 -14 -37h-287
q6 81 53 140q45 56 121 92q70 33 162 33q93 0 170 -25q73 -24 117 -74q43 -49 43 -112q0 -83 -49 -123q-48 -39 -146 -55q92 -9 154 -56zM659 -4h-376l954 1556h377zM1790 373h98v-221h-98v-156h-281v156h-348v280l127 342h502v-401zM1509 653l-114 -280h114v280z" />
    <glyph glyph-name="questiondown" unicode="&#xbf;" horiz-adv-x="1335" 
d="M940 707h-508v430h508v-430zM332 -379l-10 8q-138 52 -209 148q-72 97 -72 215q0 96 37 160q36 63 115 135l135 123q53 47 73 86q23 44 23 92h516q0 -103 -31 -185q-30 -79 -98 -141l-135 -123q-9 -8 -22.5 -20.5t-23 -21t-16.5 -15.5q-22 -22 -32 -39q-9 -15 -9 -31
q0 -27 25 -43q26 -16 72 -16q40 0 67 18q28 19 37 58h526q-12 -135 -90 -242q-75 -103 -215 -162q-134 -57 -325 -57q-199 0 -338 53z" />
    <glyph glyph-name="Agrave" unicode="&#xc0;" horiz-adv-x="1736" 
d="M1753 0h-545l-82 330h-516l-82 -330h-544l442 1556h885zM868 1360l-151 -610h305zM1163 1653h-499l-443 340h705z" />
    <glyph glyph-name="Aacute" unicode="&#xc1;" horiz-adv-x="1736" 
d="M1753 0h-545l-82 330h-516l-82 -330h-544l442 1556h885zM868 1360l-151 -610h305zM1118 1653h-500l238 340h705z" />
    <glyph glyph-name="Acircumflex" unicode="&#xc2;" horiz-adv-x="1736" 
d="M1753 0h-545l-82 330h-516l-82 -330h-544l442 1556h885zM868 1360l-151 -610h305zM1188 1993l272 -340h-456l-136 127l-137 -127h-457l273 340h641z" />
    <glyph glyph-name="Atilde" unicode="&#xc3;" horiz-adv-x="1736" 
d="M1753 0h-545l-82 330h-516l-82 -330h-544l442 1556h885zM868 1360l-151 -610h305zM444 1653h-6q0 197 68 303q67 104 194 104q51 0 97 -14q35 -11 86 -31q38 -14 71 -24q30 -9 66 -9q47 0 78 25q32 26 41 59h151q0 -199 -67 -303t-193 -104q-74 0 -184 45q-46 18 -68 25
q-27 8 -65 8q-45 0 -76 -25q-32 -26 -41 -59h-152z" />
    <glyph glyph-name="Adieresis" unicode="&#xc4;" horiz-adv-x="1736" 
d="M1753 0h-545l-82 330h-516l-82 -330h-544l442 1556h885zM868 1360l-151 -610h305zM840 1653h-525v340h525v-340zM1421 1653h-524v340h524v-340z" />
    <glyph glyph-name="Aring" unicode="&#xc5;" horiz-adv-x="1736" 
d="M1753 0h-545l-82 330h-516l-82 -330h-544l442 1556h885zM868 1360l-151 -610h305zM698 1690q-77 47 -123 122q-45 74 -45 166t45 166q47 76 123 123q74 45 166 45t166 -45q76 -47 123 -123q45 -74 45 -166t-45 -166q-46 -75 -123 -122q-74 -45 -166 -45t-166 45z
M918 1925q22 22 22 53q0 32 -22 54t-54 22q-31 0 -53 -22q-23 -23 -23 -54q0 -30 23 -53q22 -22 53 -22q32 0 54 22z" />
    <glyph glyph-name="AE" unicode="&#xc6;" horiz-adv-x="2267" 
d="M1589 580l45 -160h555v-420h-981l-82 330h-516l-82 -330h-544l442 1556h1745v-419h-741l38 -138h689v-419h-568zM868 1360l-151 -610h305z" />
    <glyph glyph-name="Ccedilla" unicode="&#xc7;" horiz-adv-x="1695" 
d="M1681 580l-4 -7q-65 -290 -254 -436q-191 -147 -462 -168v-26q78 -12 129 -60q49 -46 49 -123q0 -57 -31 -102q-30 -44 -86 -68q-55 -24 -125 -24h-211v196h90q41 0 41 25q0 27 -43 27h-49v161q-201 27 -354 129q-154 103 -242 271q-88 169 -88 397q0 250 109 436
t294 279q190 96 418 96q201 0 369 -67q167 -66 285 -203q113 -131 155 -336h-547q-30 94 -90 151q-59 56 -170 56q-87 0 -149 -45q-65 -47 -99 -138q-34 -90 -34 -225q0 -137 36 -225q36 -89 103 -137q62 -45 153 -45q96 0 164 53q70 55 97 158h546z" />
    <glyph glyph-name="Egrave" unicode="&#xc8;" horiz-adv-x="1374" 
d="M629 580v-160h667v-420h-1192v1556h1174v-419h-649v-138h635v-419h-635zM977 1653h-500l-442 340h704z" />
    <glyph glyph-name="Eacute" unicode="&#xc9;" horiz-adv-x="1374" 
d="M629 580v-160h667v-420h-1192v1556h1174v-419h-649v-138h635v-419h-635zM903 1653h-500l238 340h705z" />
    <glyph glyph-name="Ecircumflex" unicode="&#xca;" horiz-adv-x="1374" 
d="M629 580v-160h667v-420h-1192v1556h1174v-419h-649v-138h635v-419h-635zM1010 1993l272 -340h-457l-135 127l-137 -127h-457l273 340h641z" />
    <glyph glyph-name="Edieresis" unicode="&#xcb;" horiz-adv-x="1374" 
d="M629 580v-160h667v-420h-1192v1556h1174v-419h-649v-138h635v-419h-635zM662 1653h-525v340h525v-340zM1243 1653h-524v340h524v-340z" />
    <glyph glyph-name="Igrave" unicode="&#xcc;" horiz-adv-x="733" 
d="M629 0h-525v1556h525v-1556zM612 1653h-499l-443 340h705z" />
    <glyph glyph-name="Iacute" unicode="&#xcd;" horiz-adv-x="733" 
d="M629 0h-525v1556h525v-1556zM621 1653h-500l237 340h705z" />
    <glyph glyph-name="Icircumflex" unicode="&#xce;" horiz-adv-x="733" 
d="M629 0h-525v1556h525v-1556zM686 1993l272 -340h-456l-135 127l-138 -127h-456l272 340h641z" />
    <glyph glyph-name="Idieresis" unicode="&#xcf;" horiz-adv-x="733" 
d="M629 0h-525v1556h525v-1556zM338 1653h-524v340h524v-340zM920 1653h-525v340h525v-340z" />
    <glyph glyph-name="Eth" unicode="&#xd0;" horiz-adv-x="1691" 
d="M815 1556l-2 5q385 0 606 -191t221 -590t-221 -590q-220 -190 -604 -190h-649v623h-143v340h143v593h649zM823 424l-4 -4q136 0 207 92q72 93 72 268q0 178 -70 269q-71 92 -205 92h-135v-174h275v-340h-275v-203h135z" />
    <glyph glyph-name="Ntilde" unicode="&#xd1;" horiz-adv-x="1843" 
d="M1268 207v1349h471v-1556h-883l-281 1350v-1350h-471v1556h883zM528 1653h-6q0 197 68 303q67 104 194 104q51 0 97 -14q35 -11 86 -31q38 -14 71 -24q30 -9 66 -9q47 0 78 25q32 26 41 59h151q0 -199 -67 -303t-193 -104q-74 0 -184 45q-46 18 -68 25q-27 8 -65 8
q-45 0 -76 -25q-32 -26 -41 -59h-152z" />
    <glyph glyph-name="Ograve" unicode="&#xd2;" horiz-adv-x="1777" 
d="M451 66q-188 93 -297 276q-107 180 -107 434t107 434q109 184 297 277q194 96 438 96t438 -96q188 -93 297 -277q107 -180 107 -434t-107 -434q-109 -183 -297 -276q-196 -97 -438 -97t-438 97zM1112 473q80 106 80 305t-80 305q-80 105 -223 105t-223 -105
q-80 -106 -80 -305t80 -305q79 -104 223 -104t223 104zM1176 1653h-500l-443 340h705z" />
    <glyph glyph-name="Oacute" unicode="&#xd3;" horiz-adv-x="1777" 
d="M451 66q-188 93 -297 276q-107 180 -107 434t107 434q109 184 297 277q194 96 438 96t438 -96q188 -93 297 -277q107 -180 107 -434t-107 -434q-109 -183 -297 -276q-196 -97 -438 -97t-438 97zM1112 473q80 106 80 305t-80 305q-80 105 -223 105t-223 -105
q-80 -106 -80 -305t80 -305q79 -104 223 -104t223 104zM1102 1653h-500l238 340h704z" />
    <glyph glyph-name="Ocircumflex" unicode="&#xd4;" horiz-adv-x="1777" 
d="M451 66q-188 93 -297 276q-107 180 -107 434t107 434q109 184 297 277q194 96 438 96t438 -96q188 -93 297 -277q107 -180 107 -434t-107 -434q-109 -183 -297 -276q-196 -97 -438 -97t-438 97zM1112 473q80 106 80 305t-80 305q-80 105 -223 105t-223 -105
q-80 -106 -80 -305t80 -305q79 -104 223 -104t223 104zM1208 1993l273 -340h-457l-135 127l-137 -127h-457l272 340h641z" />
    <glyph glyph-name="Otilde" unicode="&#xd5;" horiz-adv-x="1777" 
d="M451 66q-188 93 -297 276q-107 180 -107 434t107 434q109 184 297 277q194 96 438 96t438 -96q188 -93 297 -277q107 -180 107 -434t-107 -434q-109 -183 -297 -276q-196 -97 -438 -97t-438 97zM1112 473q80 106 80 305t-80 305q-80 105 -223 105t-223 -105
q-80 -106 -80 -305t80 -305q79 -104 223 -104t223 104zM465 1653h-6q0 199 67 303t195 104q50 0 96 -14q35 -11 86 -31q34 -13 72 -24q30 -9 65 -9q47 0 78 25q32 26 41 59h152q0 -197 -68 -303q-67 -104 -192 -104q-75 0 -185 45q-49 20 -67 25q-27 8 -66 8q-45 0 -76 -25
q-32 -26 -41 -59h-151z" />
    <glyph glyph-name="Odieresis" unicode="&#xd6;" horiz-adv-x="1777" 
d="M451 66q-188 93 -297 276q-107 180 -107 434t107 434q109 184 297 277q194 96 438 96t438 -96q188 -93 297 -277q107 -180 107 -434t-107 -434q-109 -183 -297 -276q-196 -97 -438 -97t-438 97zM1112 473q80 106 80 305t-80 305q-80 105 -223 105t-223 -105
q-80 -106 -80 -305t80 -305q79 -104 223 -104t223 104zM860 1653h-524v340h524v-340zM1442 1653h-524v340h524v-340z" />
    <glyph glyph-name="multiply" unicode="&#xd7;" horiz-adv-x="1245" 
d="M938 1145l258 -258l-313 -316l313 -313l-258 -260l-315 315l-314 -315l-260 260l316 313l-316 316l260 258l314 -314z" />
    <glyph glyph-name="Oslash" unicode="&#xd8;" horiz-adv-x="1777" 
d="M1839 1556l-256 -280q74 -100 111 -223q37 -124 37 -277q0 -254 -107 -434q-109 -183 -297 -276q-196 -97 -438 -97q-247 0 -434 94l-60 -63h-458l260 281q-74 100 -111 223q-37 124 -37 276q0 254 107 434q109 184 297 277q194 96 438 96q243 0 430 -94l59 63h459z
M592 700l424 461q-58 25 -125 25q-143 0 -223 -105q-80 -106 -80 -305q0 -10 4 -76zM1190 854l-426 -461q51 -26 127 -26q144 0 223 104q80 106 80 305q0 12 -4 78z" />
    <glyph glyph-name="Ugrave" unicode="&#xd9;" horiz-adv-x="1601" 
d="M264 137l-2 -6q-174 168 -174 485v5v929h524v-991v-4q0 -88 50 -141q49 -52 137 -52t139 54q49 52 49 145v991h524v-929q0 -318 -174 -486q-176 -170 -536 -170q-361 0 -537 170zM1085 1645h-499l-443 340h705z" />
    <glyph glyph-name="Uacute" unicode="&#xda;" horiz-adv-x="1601" 
d="M264 137l-2 -6q-174 168 -174 485v5v929h524v-991v-4q0 -88 50 -141q49 -52 137 -52t139 54q49 52 49 145v991h524v-929q0 -318 -174 -486q-176 -170 -536 -170q-361 0 -537 170zM1012 1645h-500l238 340h704z" />
    <glyph glyph-name="Ucircumflex" unicode="&#xdb;" horiz-adv-x="1601" 
d="M264 137l-2 -6q-174 168 -174 485v5v929h524v-991v-4q0 -88 50 -141q49 -52 137 -52t139 54q49 52 49 145v991h524v-929q0 -318 -174 -486q-176 -170 -536 -170q-361 0 -537 170zM1118 1985l273 -340h-457l-135 127l-137 -127h-457l272 340h641z" />
    <glyph glyph-name="Udieresis" unicode="&#xdc;" horiz-adv-x="1601" 
d="M264 137l-2 -6q-174 168 -174 485v5v929h524v-991v-4q0 -88 50 -141q49 -52 137 -52t139 54q49 52 49 145v991h524v-929q0 -318 -174 -486q-176 -170 -536 -170q-361 0 -537 170zM770 1645h-524v340h524v-340zM1352 1645h-525v340h525v-340z" />
    <glyph glyph-name="Yacute" unicode="&#xdd;" horiz-adv-x="1552" 
d="M1012 1556h590l-564 -989v-567h-524v567l-563 989h590l235 -491zM989 1653h-500l238 340h705z" />
    <glyph glyph-name="Thorn" unicode="&#xde;" horiz-adv-x="1527" 
d="M791 1346l-3 4q231 0 388 -68q159 -69 237 -190q80 -124 80 -287t-80 -287q-79 -123 -235 -190q-157 -68 -387 -68h-162v-260h-525v1556h525v-210h162zM788 674q80 0 123 37t43 96t-43 96t-123 37h-161v-266h161z" />
    <glyph glyph-name="germandbls" unicode="&#xdf;" horiz-adv-x="1429" 
d="M1186 727l-8 -14q92 -43 147 -123q55 -79 55 -191q0 -225 -123 -333q-122 -107 -335 -107q-72 0 -142 12q-67 11 -121 31v311q17 -10 37 -16q21 -6 39 -6q55 0 92 43t37 115q0 74 -41 118q-40 43 -123 43h-38v328h22q58 0 92 49q35 50 35 123q0 59 -25 104q-24 43 -75 43
q-121 0 -121 -170v-1089h-508v1020q0 280 164 424q162 143 465 143q194 0 331 -55q140 -56 213 -158q74 -103 74 -237q0 -145 -92 -234q-91 -88 -256 -123q117 -9 205 -51z" />
    <glyph glyph-name="agrave" unicode="&#xe0;" horiz-adv-x="1378" 
d="M1047 1104v-4q135 -61 196 -166q62 -106 62 -242v-4v-690h-498v176q-44 -89 -131 -147q-91 -60 -221 -60q-115 0 -211 47q-94 46 -150 133q-55 85 -55 203q0 176 129 258q132 84 346 105l289 26v6v5q0 50 -25 86q-24 34 -76 34t-79 -30q-28 -31 -31 -70h-506
q15 130 98 219q84 90 215 133q130 43 299 43q215 0 349 -61zM758 307l-4 -2q38 59 41 150l-109 -11q-63 -6 -98 -30t-35 -70q0 -39 29 -68q26 -26 77 -26q62 0 99 57zM950 1208h-473l-420 340h678z" />
    <glyph glyph-name="aacute" unicode="&#xe1;" horiz-adv-x="1378" 
d="M1047 1104v-4q135 -61 196 -166q62 -106 62 -242v-4v-690h-498v176q-44 -89 -131 -147q-91 -60 -221 -60q-115 0 -211 47q-94 46 -150 133q-55 85 -55 203q0 176 129 258q132 84 346 105l289 26v6v5q0 50 -25 86q-24 34 -76 34t-79 -30q-28 -31 -31 -70h-506
q15 130 98 219q84 90 215 133q130 43 299 43q215 0 349 -61zM758 307l-4 -2q38 59 41 150l-109 -11q-63 -6 -98 -30t-35 -70q0 -39 29 -68q26 -26 77 -26q62 0 99 57zM899 1208h-473l215 340h678z" />
    <glyph glyph-name="acircumflex" unicode="&#xe2;" horiz-adv-x="1378" 
d="M1047 1104v-4q135 -61 196 -166q62 -106 62 -242v-4v-690h-498v176q-44 -89 -131 -147q-91 -60 -221 -60q-115 0 -211 47q-94 46 -150 133q-55 85 -55 203q0 176 129 258q132 84 346 105l289 26v6v5q0 50 -25 86q-24 34 -76 34t-79 -30q-28 -31 -31 -70h-506
q15 130 98 219q84 90 215 133q130 43 299 43q215 0 349 -61zM758 307l-4 -2q38 59 41 150l-109 -11q-63 -6 -98 -30t-35 -70q0 -39 29 -68q26 -26 77 -26q62 0 99 57zM995 1548l260 -340h-438l-129 133l-131 -133h-438l260 340h616z" />
    <glyph glyph-name="atilde" unicode="&#xe3;" horiz-adv-x="1378" 
d="M1047 1104v-4q135 -61 196 -166q62 -106 62 -242v-4v-690h-498v176q-44 -89 -131 -147q-91 -60 -221 -60q-115 0 -211 47q-94 46 -150 133q-55 85 -55 203q0 176 129 258q132 84 346 105l289 26v6v5q0 50 -25 86q-24 34 -76 34t-79 -30q-28 -31 -31 -70h-506
q15 130 98 219q84 90 215 133q130 43 299 43q215 0 349 -61zM758 307l-4 -2q38 59 41 150l-109 -11q-63 -6 -98 -30t-35 -70q0 -39 29 -68q26 -26 77 -26q62 0 99 57zM289 1208v-4q0 198 61 299q62 103 182 103q44 0 91 -15q39 -12 79 -30q70 -33 125 -33q45 0 72 24
q28 25 37 60h147q0 -196 -61 -297t-182 -101q-44 0 -90 15q-34 11 -80 31q-68 32 -125 32q-45 0 -72 -24q-28 -25 -37 -60h-147z" />
    <glyph glyph-name="adieresis" unicode="&#xe4;" horiz-adv-x="1378" 
d="M1047 1104v-4q135 -61 196 -166q62 -106 62 -242v-4v-690h-498v176q-44 -89 -131 -147q-91 -60 -221 -60q-115 0 -211 47q-94 46 -150 133q-55 85 -55 203q0 176 129 258q132 84 346 105l289 26v6v5q0 50 -25 86q-24 34 -76 34t-79 -30q-28 -31 -31 -70h-506
q15 130 98 219q84 90 215 133q130 43 299 43q215 0 349 -61zM758 307l-4 -2q38 59 41 150l-109 -11q-63 -6 -98 -30t-35 -70q0 -39 29 -68q26 -26 77 -26q62 0 99 57zM655 1208h-508v340h508v-340zM1227 1208h-508v340h508v-340z" />
    <glyph glyph-name="aring" unicode="&#xe5;" horiz-adv-x="1378" 
d="M1047 1104v-4q135 -61 196 -166q62 -106 62 -242v-4v-690h-498v176q-44 -89 -131 -147q-91 -60 -221 -60q-115 0 -211 47q-94 46 -150 133q-55 85 -55 203q0 176 129 258q132 84 346 105l289 26v6v5q0 50 -25 86q-24 34 -76 34t-79 -30q-28 -31 -31 -70h-506
q15 130 98 219q84 90 215 133q130 43 299 43q215 0 349 -61zM758 307l-4 -2q38 59 41 150l-109 -11q-63 -6 -98 -30t-35 -70q0 -39 29 -68q26 -26 77 -26q62 0 99 57zM543 1237l-4 -4q-67 37 -107 104q-39 65 -39 146q0 80 39 145q40 67 107 107q65 39 145 39t145 -39
q68 -41 105 -107q37 -67 37 -143q0 -77 -37 -144q-37 -66 -105 -104q-67 -37 -143 -37t-143 37zM725 1440q18 18 18 43q0 27 -18 45t-43 18q-27 0 -45 -18q-19 -19 -19 -45q0 -24 19 -43t45 -19q24 0 43 19z" />
    <glyph glyph-name="ae" unicode="&#xe6;" horiz-adv-x="2115" 
d="M2068 434l-755 -12q9 -85 41 -129q29 -39 80 -39q42 0 65 20q27 24 47 62h506q-67 -181 -229 -279t-387 -98q-146 0 -258 59t-177 154q-71 -96 -182 -154q-108 -57 -284 -57q-136 0 -246 45q-111 45 -180 133q-68 86 -68 207q0 204 145 281q147 78 394 78h223v32v6
q0 61 -29 93q-27 30 -78 30q-47 0 -73 -26q-28 -28 -31 -70h-506q15 130 98 219q84 90 203 133t256 43q147 0 248 -43q102 -44 162 -112q64 73 164 114t227 41q179 0 317 -69q143 -71 228 -215q86 -145 86 -357q0 -32 -7 -90zM1358 819v-2q-30 -37 -45 -123h246
q-9 81 -39 121q-30 41 -80 41q-52 0 -82 -37zM756 295l-6 -2q37 46 43 123h-115q-58 0 -92 -21q-33 -20 -33 -61q0 -39 29 -62q28 -22 71 -22q67 0 103 45z" />
    <glyph glyph-name="ccedilla" unicode="&#xe7;" horiz-adv-x="1339" 
d="M1315 446l-2 -6q-18 -136 -94 -241q-75 -102 -197 -162q-119 -58 -270 -70v-26q76 -12 127 -60q49 -46 49 -123q0 -88 -68 -141q-66 -51 -172 -51h-201v186h88q48 0 48 31t-48 31h-49v163q-141 26 -260 109q-111 78 -174 203q-61 122 -61 276q0 178 86 314
q85 134 233 208t330 74q169 0 303 -55q139 -57 219 -162q84 -110 105 -258h-506q-12 69 -43 111q-30 41 -76 41q-64 0 -94 -70q-31 -73 -31 -199q0 -272 129 -272q54 0 80 39q29 43 43 110h506z" />
    <glyph glyph-name="egrave" unicode="&#xe8;" horiz-adv-x="1357" 
d="M1311 434l-758 4q9 -85 41 -129q29 -39 80 -39q41 0 65 21q28 25 47 61h506q-67 -180 -229 -278q-163 -99 -387 -99q-183 0 -328 74q-144 74 -227 209q-82 134 -82 313q0 175 84 312q83 135 227 209q143 73 326 73q182 0 323 -69q147 -72 232 -215q86 -145 86 -357
q0 -40 -6 -90zM598 836v-2q-30 -38 -45 -123h246q-9 79 -39 120t-80 41q-53 0 -82 -36zM938 1217h-473l-420 339h678z" />
    <glyph glyph-name="eacute" unicode="&#xe9;" horiz-adv-x="1357" 
d="M1311 434l-758 4q9 -85 41 -129q29 -39 80 -39q41 0 65 21q28 25 47 61h506q-67 -180 -229 -278q-163 -99 -387 -99q-183 0 -328 74q-144 74 -227 209q-82 134 -82 313q0 175 84 312q83 135 227 209q143 73 326 73q182 0 323 -69q147 -72 232 -215q86 -145 86 -357
q0 -40 -6 -90zM598 836v-2q-30 -38 -45 -123h246q-9 79 -39 120t-80 41q-53 0 -82 -36zM887 1217h-473l215 339h678z" />
    <glyph glyph-name="ecircumflex" unicode="&#xea;" horiz-adv-x="1357" 
d="M1311 434l-758 4q9 -85 41 -129q29 -39 80 -39q41 0 65 21q28 25 47 61h506q-67 -180 -229 -278q-163 -99 -387 -99q-183 0 -328 74q-144 74 -227 209q-82 134 -82 313q0 175 84 312q83 135 227 209q143 73 326 73q182 0 323 -69q147 -72 232 -215q86 -145 86 -357
q0 -40 -6 -90zM598 836v-2q-30 -38 -45 -123h246q-9 79 -39 120t-80 41q-53 0 -82 -36zM983 1556l260 -339h-438l-129 133l-131 -133h-439l261 339h616z" />
    <glyph glyph-name="edieresis" unicode="&#xeb;" horiz-adv-x="1357" 
d="M1311 434l-758 4q9 -85 41 -129q29 -39 80 -39q41 0 65 21q28 25 47 61h506q-67 -180 -229 -278q-163 -99 -387 -99q-183 0 -328 74q-144 74 -227 209q-82 134 -82 313q0 175 84 312q83 135 227 209q143 73 326 73q182 0 323 -69q147 -72 232 -215q86 -145 86 -357
q0 -40 -6 -90zM598 836v-2q-30 -38 -45 -123h246q-9 79 -39 120t-80 41q-53 0 -82 -36zM643 1217h-508v339h508v-339zM1214 1217h-507v339h507v-339z" />
    <glyph glyph-name="igrave" unicode="&#xec;" horiz-adv-x="675" 
d="M592 0h-508v1137h508v-1137zM571 1217h-473l-420 339h678z" />
    <glyph glyph-name="iacute" unicode="&#xed;" horiz-adv-x="675" 
d="M592 0h-508v1137h508v-1137zM578 1217h-474l215 339h678z" />
    <glyph glyph-name="icircumflex" unicode="&#xee;" horiz-adv-x="675" 
d="M592 0h-508v1137h508v-1137zM645 1556l260 -339h-438l-129 133l-131 -133h-438l260 339h616z" />
    <glyph glyph-name="idieresis" unicode="&#xef;" horiz-adv-x="675" 
d="M592 0h-508v1137h508v-1137zM305 1217h-508v339h508v-339zM877 1217h-508v339h508v-339z" />
    <glyph glyph-name="eth" unicode="&#xf0;" horiz-adv-x="1413" 
d="M1108 1327v-4q124 -135 190 -299q64 -158 64 -385q0 -216 -80 -367q-80 -150 -227 -227q-150 -78 -353 -78q-197 0 -350 78q-148 75 -229 213q-80 136 -80 307q0 163 66 289q65 123 170 188q107 66 225 66q115 0 190 -66t115 -163q-15 75 -59 159q-48 90 -113 164
l-260 -67l-55 202l137 37q-120 95 -287 180h688q20 -17 37 -28q18 -12 33 -27l229 60l55 -203zM809 352v-2q35 62 35 182q0 121 -35 183q-34 61 -104 61q-71 0 -105 -61q-35 -62 -35 -183q0 -118 35 -180q34 -61 105 -61q70 0 104 61z" />
    <glyph glyph-name="ntilde" unicode="&#xf1;" horiz-adv-x="1382" 
d="M1229 1055l-2 -4q78 -113 78 -316v-4v-735h-508v604v4q0 106 -23 160q-21 49 -80 49t-80 -49q-22 -52 -22 -164v-604h-508v1137h498v-240q50 130 139 201t233 71q199 0 275 -110zM324 1210v-4q0 198 61 299q62 103 182 103q43 0 90 -15q43 -14 80 -30q70 -33 125 -33
q45 0 72 24q28 25 37 60h147q0 -196 -61 -297q-60 -100 -183 -100q-47 0 -90 14q-30 10 -79 31q-68 32 -125 32q-45 0 -72 -24q-28 -25 -37 -60h-147z" />
    <glyph glyph-name="ograve" unicode="&#xf2;" horiz-adv-x="1396" 
d="M348 45v-2q-148 75 -229 213q-80 136 -80 307t80 307q81 138 229 213q153 78 350 78q198 0 351 -78q148 -75 229 -213q80 -136 80 -307t-80 -307q-81 -138 -229 -213q-149 -76 -351 -76q-197 0 -350 78zM805 362h-8q34 67 34 201q0 138 -32 203q-34 70 -107 70
q-72 0 -106 -70q-33 -67 -33 -203q0 -133 35 -201q34 -67 108 -67q75 0 109 67zM950 1212h-473l-420 340h678z" />
    <glyph glyph-name="oacute" unicode="&#xf3;" horiz-adv-x="1396" 
d="M348 45v-2q-148 75 -229 213q-80 136 -80 307t80 307q81 138 229 213q153 78 350 78q198 0 351 -78q148 -75 229 -213q80 -136 80 -307t-80 -307q-81 -138 -229 -213q-149 -76 -351 -76q-197 0 -350 78zM805 362h-8q34 67 34 201q0 138 -32 203q-34 70 -107 70
q-72 0 -106 -70q-33 -67 -33 -203q0 -133 35 -201q34 -67 108 -67q75 0 109 67zM899 1212h-473l215 340h678z" />
    <glyph glyph-name="ocircumflex" unicode="&#xf4;" horiz-adv-x="1396" 
d="M348 45v-2q-148 75 -229 213q-80 136 -80 307t80 307q81 138 229 213q153 78 350 78q198 0 351 -78q148 -75 229 -213q80 -136 80 -307t-80 -307q-81 -138 -229 -213q-149 -76 -351 -76q-197 0 -350 78zM805 362h-8q34 67 34 201q0 138 -32 203q-34 70 -107 70
q-72 0 -106 -70q-33 -67 -33 -203q0 -133 35 -201q34 -67 108 -67q75 0 109 67zM995 1552l260 -340h-438l-129 134l-131 -134h-438l260 340h616z" />
    <glyph glyph-name="otilde" unicode="&#xf5;" horiz-adv-x="1396" 
d="M348 45v-2q-148 75 -229 213q-80 136 -80 307t80 307q81 138 229 213q153 78 350 78q198 0 351 -78q148 -75 229 -213q80 -136 80 -307t-80 -307q-81 -138 -229 -213q-149 -76 -351 -76q-197 0 -350 78zM805 362h-8q34 67 34 201q0 138 -32 203q-34 70 -107 70
q-72 0 -106 -70q-33 -67 -33 -203q0 -133 35 -201q34 -67 108 -67q75 0 109 67zM289 1212v-4q0 198 61 299q62 103 182 103q44 0 91 -15q39 -13 79 -30q70 -33 125 -33q45 0 72 24q28 25 37 60h147q0 -196 -61 -297q-60 -100 -182 -100q-47 0 -90 14q-34 11 -80 31
q-68 32 -125 32q-45 0 -72 -24q-28 -25 -37 -60h-147z" />
    <glyph glyph-name="odieresis" unicode="&#xf6;" horiz-adv-x="1396" 
d="M348 45v-2q-148 75 -229 213q-80 136 -80 307t80 307q81 138 229 213q153 78 350 78q198 0 351 -78q148 -75 229 -213q80 -136 80 -307t-80 -307q-81 -138 -229 -213q-149 -76 -351 -76q-197 0 -350 78zM805 362h-8q34 67 34 201q0 138 -32 203q-34 70 -107 70
q-72 0 -106 -70q-33 -67 -33 -203q0 -133 35 -201q34 -67 108 -67q75 0 109 67zM655 1212h-508v340h508v-340zM1227 1212h-508v340h508v-340z" />
    <glyph glyph-name="divide" unicode="&#xf7;" horiz-adv-x="1288" 
d="M852 821h-416v316h416v-316zM1212 383h-1136v377h1136v-377zM852 0h-416v317h416v-317z" />
    <glyph glyph-name="oslash" unicode="&#xf8;" horiz-adv-x="1396" 
d="M1411 1137l-186 -187q64 -76 98 -174q35 -100 35 -209q0 -171 -80 -307q-81 -138 -229 -213q-149 -76 -351 -76q-193 0 -352 78l-45 -47h-315l184 188q-62 74 -98 172q-33 90 -33 207q0 172 80 308q81 138 229 213q151 77 350 77q200 0 351 -77l47 47h315zM590 776h2
q-34 -63 -37 -188l219 225q-37 29 -80 29q-69 0 -104 -66zM803 365q34 63 37 188l-222 -225q37 -29 80 -29q70 0 105 66z" />
    <glyph glyph-name="ugrave" unicode="&#xf9;" horiz-adv-x="1376" 
d="M784 1137l504 -4v-1137h-497v213q-40 -113 -129 -178q-88 -64 -240 -64q-194 0 -270 113q-78 116 -78 315v4v736h508v-605v-4q0 -106 24 -159q24 -52 78 -52q58 0 80 54q20 50 20 163v605zM942 1212h-473l-420 340h678z" />
    <glyph glyph-name="uacute" unicode="&#xfa;" horiz-adv-x="1376" 
d="M784 1137l504 -4v-1137h-497v213q-40 -113 -129 -178q-88 -64 -240 -64q-194 0 -270 113q-78 116 -78 315v4v736h508v-605v-4q0 -106 24 -159q24 -52 78 -52q58 0 80 54q20 50 20 163v605zM891 1212h-473l215 340h678z" />
    <glyph glyph-name="ucircumflex" unicode="&#xfb;" horiz-adv-x="1376" 
d="M784 1137l504 -4v-1137h-497v213q-40 -113 -129 -178q-88 -64 -240 -64q-194 0 -270 113q-78 116 -78 315v4v736h508v-605v-4q0 -106 24 -159q24 -52 78 -52q58 0 80 54q20 50 20 163v605zM987 1552l260 -340h-438l-129 134l-131 -134h-438l260 340h616z" />
    <glyph glyph-name="udieresis" unicode="&#xfc;" horiz-adv-x="1376" 
d="M784 1137l504 -4v-1137h-497v213q-40 -113 -129 -178q-88 -64 -240 -64q-194 0 -270 113q-78 116 -78 315v4v736h508v-605v-4q0 -106 24 -159q24 -52 78 -52q58 0 80 54q20 50 20 163v605zM647 1212h-508v340h508v-340zM1219 1212h-508v340h508v-340z" />
    <glyph glyph-name="yacute" unicode="&#xfd;" horiz-adv-x="1376" 
d="M664 299l165 838h539l-328 -1538h-516l101 505h-387l-234 1033h500zM877 1217h-474l215 339h678z" />
    <glyph glyph-name="thorn" unicode="&#xfe;" horiz-adv-x="1411" 
d="M1161 1087l-4 -2q102 -79 154 -217q53 -139 53 -303q0 -170 -51 -301q-53 -136 -154 -215q-103 -80 -241 -80q-125 0 -211 62q-83 60 -125 157v-587h-498v1958h498v-648q38 115 123 185q86 71 215 71q138 0 241 -80zM809 362h-8q35 68 35 201q0 136 -33 203
q-34 70 -107 70q-72 0 -106 -70q-33 -67 -33 -203q0 -133 35 -201q34 -67 108 -67q75 0 109 67z" />
    <glyph glyph-name="ydieresis" unicode="&#xff;" horiz-adv-x="1376" 
d="M664 299l165 838h539l-328 -1538h-516l101 505h-387l-234 1033h500zM633 1217h-508v339h508v-339zM1204 1217h-508v339h508v-339z" />
    <glyph glyph-name="Amacron" unicode="&#x100;" horiz-adv-x="1736" 
d="M1753 0h-545l-82 330h-516l-82 -330h-544l442 1556h885zM868 1360l-151 -610h305zM1360 1653h-983v340h983v-340z" />
    <glyph glyph-name="amacron" unicode="&#x101;" horiz-adv-x="1378" 
d="M1047 1104v-4q135 -61 196 -166q62 -106 62 -242v-4v-690h-498v176q-44 -89 -131 -147q-91 -60 -221 -60q-115 0 -211 47q-94 46 -150 133q-55 85 -55 203q0 176 129 258q132 84 346 105l289 26v6v5q0 50 -25 86q-24 34 -76 34t-79 -30q-28 -31 -31 -70h-506
q15 130 98 219q84 90 215 133q130 43 299 43q215 0 349 -61zM758 307l-4 -2q38 59 41 150l-109 -11q-63 -6 -98 -30t-35 -70q0 -39 29 -68q26 -26 77 -26q62 0 99 57zM1139 1208h-903v340h903v-340z" />
    <glyph glyph-name="Abreve" unicode="&#x102;" horiz-adv-x="1736" 
d="M1753 0h-545l-82 330h-516l-82 -330h-544l442 1556h885zM868 1360l-151 -610h305zM618 1696h-4q-107 43 -165 119q-60 78 -60 178h330q10 -29 47 -47q40 -19 96 -19t99 19q39 17 49 47h329q0 -101 -59 -178q-58 -75 -166 -119q-107 -43 -248 -43t-248 43z" />
    <glyph glyph-name="abreve" unicode="&#x103;" horiz-adv-x="1378" 
d="M1047 1104v-4q135 -61 196 -166q62 -106 62 -242v-4v-690h-498v176q-44 -89 -131 -147q-91 -60 -221 -60q-115 0 -211 47q-94 46 -150 133q-55 85 -55 203q0 176 129 258q132 84 346 105l289 26v6v5q0 50 -25 86q-24 34 -76 34t-79 -30q-28 -31 -31 -70h-506
q15 130 98 219q84 90 215 133q130 43 299 43q215 0 349 -61zM758 307l-4 -2q38 59 41 150l-109 -11q-63 -6 -98 -30t-35 -70q0 -39 29 -68q26 -26 77 -26q62 0 99 57zM446 1245l-8 -4q-107 47 -164 125q-57 77 -57 178h338q0 -40 35 -61q34 -21 92 -21q54 0 92 23
q35 21 35 61h338q0 -101 -57 -178q-57 -78 -164 -125q-102 -45 -240 -45q-134 0 -240 47z" />
    <glyph glyph-name="Aogonek" unicode="&#x104;" horiz-adv-x="1736" 
d="M1665 -111l88 -4v-317h-166q-226 0 -336 55t-110 182q0 53 18 99q18 47 51 94l-82 330h-516l-82 -330h-544l442 1556h885l442 -1556q-87 -14 -135 -35q-39 -17 -39 -41q0 -33 84 -33zM868 1356l-151 -611h305z" />
    <glyph glyph-name="aogonek" unicode="&#x105;" horiz-adv-x="1378" 
d="M1047 1104l-3 -6q136 -62 197 -166q62 -106 62 -242v-4v-690q-185 -38 -185 -86q0 -17 23 -27q19 -8 73 -8h91v-307h-168q-224 0 -334 55q-111 55 -111 174q0 52 29 105q27 49 86 96v176q-44 -89 -131 -147q-91 -60 -221 -60q-115 0 -211 47q-94 46 -150 133
q-55 85 -55 203q0 176 129 258q132 84 346 105l289 26v6v5q0 50 -25 86q-24 34 -76 34t-79 -30q-28 -31 -31 -70h-506q15 130 98 219q84 90 215 133q130 43 299 43q215 0 349 -61zM756 305l-4 -2q38 59 41 150l-109 -11q-63 -6 -98 -30t-35 -70q0 -39 29 -68q26 -26 77 -26
q62 0 99 57z" />
    <glyph glyph-name="Cacute" unicode="&#x106;" horiz-adv-x="1695" 
d="M451 63l-7 -10q-185 93 -294 279t-109 436t109 436t294 279q190 96 418 96q198 0 369 -68q168 -67 285 -202q113 -131 155 -336h-547q-30 94 -90 151q-59 56 -170 56q-87 0 -149 -45q-65 -47 -99 -138q-34 -90 -34 -225q0 -137 36 -225q36 -89 103 -137q62 -45 153 -45
q96 0 164 53q71 55 97 157h546q-47 -212 -163 -346q-115 -132 -281 -198q-162 -64 -363 -64q-233 0 -423 96zM1073 1640h-500l238 340h705z" />
    <glyph glyph-name="cacute" unicode="&#x107;" horiz-adv-x="1339" 
d="M352 43l-10 -2q-146 73 -229 209q-82 134 -82 313q0 178 86 314q85 134 233 208t330 74q169 0 303 -55q139 -57 219 -162q84 -110 105 -258h-506q-12 69 -43 111q-30 41 -76 41q-64 0 -94 -70q-31 -73 -31 -199q0 -272 129 -272q54 0 80 39q29 43 43 110h506
q-21 -149 -107 -258q-82 -104 -221 -161q-136 -56 -301 -56q-186 0 -334 74zM885 1212h-473l215 340h678z" />
    <glyph glyph-name="Ccircumflex" unicode="&#x108;" horiz-adv-x="1695" 
d="M451 63l-7 -10q-185 93 -294 279t-109 436t109 436t294 279q190 96 418 96q198 0 369 -68q168 -67 285 -202q113 -131 155 -336h-547q-30 94 -90 151q-59 56 -170 56q-87 0 -149 -45q-65 -47 -99 -138q-34 -90 -34 -225q0 -137 36 -225q36 -89 103 -137q62 -45 153 -45
q96 0 164 53q71 55 97 157h546q-47 -212 -163 -346q-115 -132 -281 -198q-162 -64 -363 -64q-233 0 -423 96zM1180 1980l272 -340h-457l-135 127l-137 -127h-457l273 340h641z" />
    <glyph glyph-name="ccircumflex" unicode="&#x109;" horiz-adv-x="1339" 
d="M352 43l-10 -2q-146 73 -229 209q-82 134 -82 313q0 178 86 314q85 134 233 208t330 74q169 0 303 -55q139 -57 219 -162q84 -110 105 -258h-506q-12 69 -43 111q-30 41 -76 41q-64 0 -94 -70q-31 -73 -31 -199q0 -272 129 -272q54 0 80 39q29 43 43 110h506
q-21 -149 -107 -258q-82 -104 -221 -161q-136 -56 -301 -56q-186 0 -334 74zM981 1552l260 -340h-438l-129 134l-131 -134h-439l261 340h616z" />
    <glyph glyph-name="Cdotaccent" unicode="&#x10a;" horiz-adv-x="1695" 
d="M451 63l-7 -10q-185 93 -294 279t-109 436t109 436t294 279q190 96 418 96q198 0 369 -68q168 -67 285 -202q113 -131 155 -336h-547q-30 94 -90 151q-59 56 -170 56q-87 0 -149 -45q-65 -47 -99 -138q-34 -90 -34 -225q0 -137 36 -225q36 -89 103 -137q62 -45 153 -45
q96 0 164 53q71 55 97 157h546q-47 -212 -163 -346q-115 -132 -281 -198q-162 -64 -363 -64q-233 0 -423 96zM1122 1640h-524v340h524v-340z" />
    <glyph glyph-name="cdotaccent" unicode="&#x10b;" horiz-adv-x="1339" 
d="M352 43l-10 -2q-146 73 -229 209q-82 134 -82 313q0 178 86 314q85 134 233 208t330 74q169 0 303 -55q139 -57 219 -162q84 -110 105 -258h-506q-12 69 -43 111q-30 41 -76 41q-64 0 -94 -70q-31 -73 -31 -199q0 -272 129 -272q54 0 80 39q29 43 43 110h506
q-21 -149 -107 -258q-82 -104 -221 -161q-136 -56 -301 -56q-186 0 -334 74zM928 1212h-508v340h508v-340z" />
    <glyph glyph-name="Ccaron" unicode="&#x10c;" horiz-adv-x="1695" 
d="M451 63l-7 -10q-185 93 -294 279t-109 436t109 436t294 279q190 96 418 96q198 0 369 -68q168 -67 285 -202q113 -131 155 -336h-547q-30 94 -90 151q-59 56 -170 56q-87 0 -149 -45q-65 -47 -99 -138q-34 -90 -34 -225q0 -137 36 -225q36 -89 103 -137q62 -45 153 -45
q96 0 164 53q71 55 97 157h546q-47 -212 -163 -346q-115 -132 -281 -198q-162 -64 -363 -64q-233 0 -423 96zM860 1853l135 127h457l-272 -340h-641l-273 340h457z" />
    <glyph glyph-name="ccaron" unicode="&#x10d;" horiz-adv-x="1339" 
d="M352 43l-10 -2q-146 73 -229 209q-82 134 -82 313q0 178 86 314q85 134 233 208t330 74q169 0 303 -55q139 -57 219 -162q84 -110 105 -258h-506q-12 69 -43 111q-30 41 -76 41q-64 0 -94 -70q-31 -73 -31 -199q0 -272 129 -272q54 0 80 39q29 43 43 110h506
q-21 -149 -107 -258q-82 -104 -221 -161q-136 -56 -301 -56q-186 0 -334 74zM674 1419l129 133h438l-260 -340h-616l-261 340h439z" />
    <glyph glyph-name="Dcaron" unicode="&#x10e;" horiz-adv-x="1630" 
d="M754 1556l-2 5q385 0 606 -191t221 -590t-221 -590q-220 -190 -604 -190h-650v1556h650zM762 424l-4 -4q136 0 207 92t71 268q0 179 -69 269q-71 92 -205 92h-135v-717h135zM737 1866l135 127h457l-272 -340h-641l-273 340h457z" />
    <glyph glyph-name="dcaron" unicode="&#x10f;" horiz-adv-x="1411" 
d="M829 1556h494v-1556h-498v186q-40 -94 -125 -155q-86 -62 -211 -62q-138 0 -241 80q-101 79 -154 215q-51 131 -51 301q0 164 53 303q52 138 154 217q103 80 242 80q129 0 215 -71q84 -69 122 -185v647zM807 365h-8q35 68 35 200q0 136 -33 203q-34 70 -107 70
q-72 0 -106 -70q-33 -67 -33 -203q0 -132 35 -200t108 -68q74 0 109 68zM1737 1161h-348l28 393h438z" />
    <glyph glyph-name="Dcroat" unicode="&#x110;" horiz-adv-x="1691" 
d="M815 1556l-2 5q385 0 606 -191t221 -590t-221 -590q-220 -190 -604 -190h-649v623h-143v340h143v593h649zM823 424l-4 -4q136 0 207 92q72 93 72 268q0 178 -70 269q-71 92 -205 92h-135v-174h275v-340h-275v-203h135z" />
    <glyph glyph-name="dcroat" unicode="&#x111;" horiz-adv-x="1411" 
d="M1421 1470l-4 -288h-94v-1182h-498v186q-40 -94 -125 -155q-86 -62 -211 -62q-138 0 -241 80q-101 79 -154 215q-51 131 -51 301q0 164 53 303q52 138 154 217q103 80 242 80q129 0 215 -71q84 -69 122 -185v273h-196v288h196v86h498v-86h94zM807 365h-8q35 68 35 200
q0 136 -33 203q-34 70 -107 70q-72 0 -106 -70q-33 -67 -33 -203q0 -132 35 -200t108 -68q74 0 109 68z" />
    <glyph glyph-name="Emacron" unicode="&#x112;" horiz-adv-x="1374" 
d="M629 580v-160h667v-420h-1192v1556h1174v-419h-649v-138h635v-419h-635zM1182 1653h-983v340h983v-340z" />
    <glyph glyph-name="emacron" unicode="&#x113;" horiz-adv-x="1357" 
d="M1311 434l-758 4q9 -85 41 -129q29 -39 80 -39q41 0 65 21q28 25 47 61h506q-67 -180 -229 -278q-163 -99 -387 -99q-183 0 -328 74q-144 74 -227 209q-82 134 -82 313q0 175 84 312q83 135 227 209q143 73 326 73q182 0 323 -69q147 -72 232 -215q86 -145 86 -357
q0 -40 -6 -90zM598 836v-2q-30 -38 -45 -123h246q-9 79 -39 120t-80 41q-53 0 -82 -36zM1126 1217h-903v339h903v-339z" />
    <glyph glyph-name="Ebreve" unicode="&#x114;" horiz-adv-x="1374" 
d="M629 580v-160h667v-420h-1192v1556h1174v-419h-649v-138h635v-419h-635zM440 1696h-4q-108 44 -166 119q-59 77 -59 178h330q10 -29 47 -47q40 -19 96 -19q55 0 98 19q39 17 49 47h330q0 -101 -59 -178q-58 -75 -166 -119q-107 -43 -248 -43t-248 43z" />
    <glyph glyph-name="ebreve" unicode="&#x115;" horiz-adv-x="1357" 
d="M1311 434l-758 4q9 -85 41 -129q29 -39 80 -39q41 0 65 21q28 25 47 61h506q-67 -180 -229 -278q-163 -99 -387 -99q-183 0 -328 74q-144 74 -227 209q-82 134 -82 313q0 175 84 312q83 135 227 209q143 73 326 73q182 0 323 -69q147 -72 232 -215q86 -145 86 -357
q0 -40 -6 -90zM598 836v-2q-30 -38 -45 -123h246q-9 79 -39 120t-80 41q-53 0 -82 -36zM434 1255l-8 -4q-107 47 -164 125q-57 77 -57 178h338q0 -40 35 -61q33 -20 92 -20q56 0 92 22q35 21 35 61h338q0 -99 -58 -178q-57 -78 -164 -125q-102 -45 -239 -45q-134 0 -240 47z
" />
    <glyph glyph-name="Edotaccent" unicode="&#x116;" horiz-adv-x="1374" 
d="M629 580v-160h667v-420h-1192v1556h1174v-419h-649v-138h635v-419h-635zM952 1653h-524v340h524v-340z" />
    <glyph glyph-name="edotaccent" unicode="&#x117;" horiz-adv-x="1357" 
d="M1311 434l-758 4q9 -85 41 -129q29 -39 80 -39q41 0 65 21q28 25 47 61h506q-67 -180 -229 -278q-163 -99 -387 -99q-183 0 -328 74q-144 74 -227 209q-82 134 -82 313q0 175 84 312q83 135 227 209q143 73 326 73q182 0 323 -69q147 -72 232 -215q86 -145 86 -357
q0 -40 -6 -90zM598 836v-2q-30 -38 -45 -123h246q-9 79 -39 120t-80 41q-53 0 -82 -36zM930 1217h-508v339h508v-339z" />
    <glyph glyph-name="Eogonek" unicode="&#x118;" horiz-adv-x="1374" 
d="M1296 0l2 -6q-87 -14 -135 -35q-39 -17 -39 -41q0 -33 84 -33h88v-317h-166q-223 0 -333 55q-111 55 -111 174q0 37 19 80q18 40 61 74t106 49h-768v1556h1174v-419h-649v-138h635v-419h-635v-160h667v-420z" />
    <glyph glyph-name="eogonek" unicode="&#x119;" horiz-adv-x="1357" 
d="M1311 434l-760 -6q9 -85 41 -129q29 -39 80 -39q41 0 65 21q28 25 47 61h506q-57 -163 -207 -264q-65 -53 -94 -92q-31 -42 -31 -68q0 -22 21 -31q23 -10 74 -10h90v-307h-168q-224 0 -334 55q-111 55 -111 174q0 47 31 92q29 42 84 78q-172 6 -313 84q-139 77 -215 211
q-78 138 -78 307q0 175 84 312q83 135 227 209q143 73 326 73q182 0 323 -69q147 -72 232 -215q86 -145 86 -357q0 -40 -6 -90zM596 825v-2q-30 -37 -45 -123h246q-9 81 -39 121q-30 41 -80 41q-52 0 -82 -37z" />
    <glyph glyph-name="Ecaron" unicode="&#x11a;" horiz-adv-x="1374" 
d="M629 580v-160h667v-420h-1192v1556h1174v-419h-649v-138h635v-419h-635zM690 1866l135 127h457l-272 -340h-641l-273 340h457z" />
    <glyph glyph-name="ecaron" unicode="&#x11b;" horiz-adv-x="1357" 
d="M1311 434l-758 4q9 -85 41 -129q29 -39 80 -39q41 0 65 21q28 25 47 61h506q-67 -180 -229 -278q-163 -99 -387 -99q-183 0 -328 74q-144 74 -227 209q-82 134 -82 313q0 175 84 312q83 135 227 209q143 73 326 73q182 0 323 -69q147 -72 232 -215q86 -145 86 -357
q0 -40 -6 -90zM598 836v-2q-30 -38 -45 -123h246q-9 79 -39 120t-80 41q-53 0 -82 -36zM676 1423l129 133h438l-260 -339h-616l-261 339h439z" />
    <glyph glyph-name="Gcircumflex" unicode="&#x11c;" horiz-adv-x="1787" 
d="M819 954l883 -8v-954h-420v332q-43 -109 -94 -179q-56 -78 -156 -129q-103 -53 -254 -53q-172 0 -344 90q-164 86 -278 275q-111 184 -111 444q0 252 105 436q107 188 294 281q194 96 443 96q635 0 794 -530h-546q-34 63 -93 98q-56 33 -153 33q-145 0 -225 -105
q-80 -106 -80 -305q0 -197 86 -303q85 -104 243 -104q85 0 146 24q60 23 96 72q35 47 41 104h-377v385zM1204 1985l273 -340h-457l-135 127l-137 -127h-457l272 340h641z" />
    <glyph glyph-name="gcircumflex" unicode="&#x11d;" horiz-adv-x="1413" 
d="M836 1137l491 14v-1071q0 -193 -94 -303q-93 -110 -234 -154q-136 -43 -292 -43q-145 0 -275 37q-131 37 -227 121t-117 215h506q20 -25 47 -39q24 -12 66 -12q58 0 92 37q32 35 32 116v185q-41 -97 -124 -156q-85 -61 -211 -61q-141 0 -242 73t-154 203q-51 125 -51 295
q0 165 53 295t154 203t242 73q129 0 215 -71q85 -70 123 -185v228zM846 606q0 248 -141 248q-142 0 -142 -248q0 -246 142 -246q141 0 141 246zM1040 1571l260 -340h-438l-129 133l-131 -133h-438l260 340h616z" />
    <glyph glyph-name="Gbreve" unicode="&#x11e;" horiz-adv-x="1787" 
d="M819 954l883 -8v-954h-420v332q-43 -109 -94 -179q-56 -78 -156 -129q-103 -53 -254 -53q-172 0 -344 90q-164 86 -278 275q-111 184 -111 444q0 252 105 436q107 188 294 281q194 96 443 96q635 0 794 -530h-546q-34 63 -93 98q-56 33 -153 33q-145 0 -225 -105
q-80 -106 -80 -305q0 -197 86 -303q85 -104 243 -104q85 0 146 24q60 23 96 72q35 47 41 104h-377v385zM635 1688h-4q-109 44 -166 118q-59 77 -59 179h329q10 -30 47 -48q38 -18 97 -18q57 0 98 18q39 17 49 48h330q0 -101 -60 -179q-57 -74 -166 -118q-107 -43 -247 -43
q-141 0 -248 43z" />
    <glyph glyph-name="gbreve" unicode="&#x11f;" horiz-adv-x="1413" 
d="M836 1137l491 14v-1071q0 -193 -94 -303q-93 -110 -234 -154q-136 -43 -292 -43q-145 0 -275 37q-131 37 -227 121t-117 215h506q20 -25 47 -39q24 -12 66 -12q58 0 92 37q32 35 32 116v185q-41 -97 -124 -156q-85 -61 -211 -61q-141 0 -242 73t-154 203q-51 125 -51 295
q0 165 53 295t154 203t242 73q129 0 215 -71q85 -70 123 -185v228zM846 606q0 248 -141 248q-142 0 -142 -248q0 -246 142 -246q141 0 141 246zM492 1268l-9 -4q-107 47 -164 125q-57 77 -57 178h338q0 -41 35 -62q33 -20 92 -20q56 0 92 22q35 21 35 62h338
q0 -101 -57 -178q-57 -78 -164 -125q-102 -45 -240 -45q-133 0 -239 47z" />
    <glyph glyph-name="Gdotaccent" unicode="&#x120;" horiz-adv-x="1787" 
d="M819 954l883 -8v-954h-420v332q-43 -109 -94 -179q-56 -78 -156 -129q-103 -53 -254 -53q-172 0 -344 90q-164 86 -278 275q-111 184 -111 444q0 252 105 436q107 188 294 281q194 96 443 96q635 0 794 -530h-546q-34 63 -93 98q-56 33 -153 33q-145 0 -225 -105
q-80 -106 -80 -305q0 -197 86 -303q85 -104 243 -104q85 0 146 24q60 23 96 72q35 47 41 104h-377v385zM1147 1645h-524v340h524v-340z" />
    <glyph glyph-name="gdotaccent" unicode="&#x121;" horiz-adv-x="1413" 
d="M836 1137l491 14v-1071q0 -193 -94 -303q-93 -110 -234 -154q-136 -43 -292 -43q-145 0 -275 37q-131 37 -227 121t-117 215h506q20 -25 47 -39q24 -12 66 -12q58 0 92 37q32 35 32 116v185q-41 -97 -124 -156q-85 -61 -211 -61q-141 0 -242 73t-154 203q-51 125 -51 295
q0 165 53 295t154 203t242 73q129 0 215 -71q85 -70 123 -185v228zM846 606q0 248 -141 248q-142 0 -142 -248q0 -246 142 -246q141 0 141 246zM987 1231h-508v340h508v-340z" />
    <glyph glyph-name="uni0122" unicode="&#x122;" horiz-adv-x="1787" 
d="M819 954l883 -8v-954h-420v332q-43 -109 -94 -179q-56 -78 -156 -129q-103 -53 -254 -53q-172 0 -344 90q-164 86 -278 275q-111 184 -111 444q0 252 105 436q107 188 294 281q194 96 443 96q635 0 794 -530h-546q-34 63 -93 98q-56 33 -153 33q-145 0 -225 -105
q-80 -106 -80 -305q0 -197 86 -303q85 -104 243 -104q85 0 146 24q60 23 96 72q35 47 41 104h-377v385zM612 -444v340h525v-385l-181 -218h-323l147 263h-168z" />
    <glyph glyph-name="uni0123" unicode="&#x123;" horiz-adv-x="1413" 
d="M836 1137l491 14v-1071q0 -193 -94 -303q-93 -110 -234 -154q-136 -43 -292 -43q-145 0 -275 37q-131 37 -227 121t-117 215h506q20 -25 47 -39q24 -12 66 -12q58 0 92 37q32 35 32 116v185q-41 -97 -124 -156q-85 -61 -211 -61q-141 0 -242 73t-154 203q-51 125 -51 295
q0 165 53 295t154 203t242 73q129 0 215 -71q85 -70 123 -185v228zM846 606q0 248 -141 248q-142 0 -142 -248q0 -246 142 -246q141 0 141 246zM967 1849l-148 -262h168v-340h-508v385l180 217h308z" />
    <glyph glyph-name="Hcircumflex" unicode="&#x124;" horiz-adv-x="1644" 
d="M1016 1024v532h524v-1556h-524v549h-387v-549h-525v1556h525v-532h387zM1143 1993l272 -340h-457l-135 127l-137 -127h-457l273 340h641z" />
    <glyph glyph-name="hcircumflex" unicode="&#x125;" horiz-adv-x="1382" 
d="M1229 1055l-2 -4q78 -113 78 -316v-4v-735h-508v604v4q0 106 -23 160q-21 49 -80 49t-80 -49q-22 -52 -22 -164v-604h-508v1556h498v-659q50 130 139 201t233 71q199 0 275 -110zM649 1987l273 -340h-457l-135 127l-137 -127h-457l272 340h641z" />
    <glyph glyph-name="Hbar" unicode="&#x126;" horiz-adv-x="1644" 
d="M1540 1425h119v-313h-119v-1112h-524v549h-387v-549h-525v1112h-118v313h118v131h525v-131h387v131h524v-131zM629 1024h387v88h-387v-88z" />
    <glyph glyph-name="hbar" unicode="&#x127;" horiz-adv-x="1382" 
d="M1229 1055l-2 -4q78 -113 78 -316v-4v-735h-508v604v4q0 106 -23 160q-21 49 -80 49t-80 -49q-22 -52 -22 -164v-604h-508v1182h-94v288h94v86h498v-86h196v-288h-196v-285q50 130 139 201t233 71q199 0 275 -110z" />
    <glyph glyph-name="Itilde" unicode="&#x128;" horiz-adv-x="733" 
d="M629 0h-525v1556h525v-1556zM-57 1653h-6q0 199 67 303t195 104q50 0 96 -14q35 -11 86 -31q34 -13 72 -24q30 -9 65 -9q47 0 78 25q32 26 41 59h151q0 -199 -67 -303t-193 -104q-74 0 -184 45q-46 18 -68 25q-27 8 -65 8q-45 0 -76 -25q-32 -26 -41 -59h-151z" />
    <glyph glyph-name="itilde" unicode="&#x129;" horiz-adv-x="675" 
d="M592 0h-508v1137h508v-1137zM-61 1217v-5q0 198 61 299q62 103 182 103q44 0 90 -15q43 -14 80 -30q70 -33 125 -33q44 0 72 25t37 59h147q0 -196 -61 -297q-60 -100 -183 -100q-47 0 -90 14q-34 11 -80 31q-68 32 -124 32q-45 0 -72 -24q-28 -25 -37 -59h-147z" />
    <glyph glyph-name="Imacron" unicode="&#x12a;" horiz-adv-x="733" 
d="M629 0h-525v1556h525v-1556zM858 1653h-983v340h983v-340z" />
    <glyph glyph-name="imacron" unicode="&#x12b;" horiz-adv-x="675" 
d="M592 0h-508v1137h508v-1137zM788 1217h-903v339h903v-339z" />
    <glyph glyph-name="Ibreve" unicode="&#x12c;" horiz-adv-x="733" 
d="M629 0h-525v1556h525v-1556zM117 1696h-4q-108 44 -166 119q-60 78 -60 178h330q10 -29 47 -47q40 -19 96 -19t99 19q39 17 49 47h330q0 -100 -60 -178q-58 -75 -166 -119q-107 -43 -247 -43q-141 0 -248 43z" />
    <glyph glyph-name="ibreve" unicode="&#x12d;" horiz-adv-x="675" 
d="M592 0h-508v1137h508v-1137zM96 1253l-8 -4q-107 47 -164 125q-57 77 -57 178h338q0 -40 35 -61q34 -21 92 -21q54 0 92 23q35 21 35 61h338q0 -99 -58 -178q-57 -78 -164 -125q-102 -45 -239 -45q-134 0 -240 47z" />
    <glyph glyph-name="Iogonek" unicode="&#x12e;" horiz-adv-x="733" 
d="M629 0h-525v1556h525v-1556zM463 -428v-4q-224 0 -334 55q-111 55 -111 174q0 110 88 201h525q-87 -14 -135 -35q-39 -17 -39 -41q0 -33 84 -33h88v-317h-166z" />
    <glyph glyph-name="iogonek" unicode="&#x12f;" horiz-adv-x="675" 
d="M84 1217v339h508v-339h-508zM84 1137l504 -2v-1137q-185 -38 -185 -86q0 -17 23 -27q19 -8 74 -8h90v-307h-166q-226 0 -336 55q-111 55 -111 174q0 53 27 103q25 46 80 98v1137z" />
    <glyph glyph-name="Idotaccent" unicode="&#x130;" horiz-adv-x="733" 
d="M629 0h-525v1556h525v-1556zM629 1653h-525v340h525v-340z" />
    <glyph glyph-name="dotlessi" unicode="&#x131;" horiz-adv-x="675" 
d="M592 0h-508v1137h508v-1137z" />
    <glyph glyph-name="Jcircumflex" unicode="&#x134;" horiz-adv-x="935" 
d="M31 0v418h157q53 0 80 12q28 13 37 39q10 30 10 80v1007h525v-1116q0 -219 -119 -329q-120 -111 -375 -111h-315zM899 1991l272 -340h-456l-135 127l-138 -127h-456l272 340h641z" />
    <glyph glyph-name="jcircumflex" unicode="&#x135;" horiz-adv-x="675" 
d="M-70 -401l-2 360h52q58 0 79 21q23 23 23 69v1086h508v-1155q0 -120 -58 -205q-59 -86 -161 -131t-236 -45h-205zM643 1554l260 -340h-438l-129 134l-131 -134h-438l260 340h616z" />
    <glyph glyph-name="uni0136" unicode="&#x136;" horiz-adv-x="1615" 
d="M1165 813l506 -813h-635l-407 707v-707h-525v1556h525v-645l375 645h614zM582 -436v340h524v-385l-180 -217h-324l148 262h-168z" />
    <glyph glyph-name="uni0137" unicode="&#x137;" horiz-adv-x="1394" 
d="M1073 629l348 -629h-590l-243 479v-479h-508v1556h508v-802l233 383h580zM446 -436v340h508v-385l-180 -217h-307l147 262h-168z" />
    <glyph glyph-name="kgreenlandic" unicode="&#x138;" horiz-adv-x="1396" 
d="M1079 616l344 -616h-592l-239 469v-469h-508v1137h508v-400l233 400h580z" />
    <glyph glyph-name="Lacute" unicode="&#x139;" horiz-adv-x="1267" 
d="M629 1556v-1136h608v-420h-1133v1556h525zM621 1653h-500l237 340h705z" />
    <glyph glyph-name="lacute" unicode="&#x13a;" horiz-adv-x="673" 
d="M592 0h-508v1556h508v-1556zM604 1653h-500l238 340h705z" />
    <glyph glyph-name="uni013B" unicode="&#x13b;" horiz-adv-x="1267" 
d="M629 1556v-1136h608v-420h-1133v1556h525zM410 -436v340h524v-385l-180 -217h-324l148 262h-168z" />
    <glyph glyph-name="uni013C" unicode="&#x13c;" horiz-adv-x="673" 
d="M592 0h-508v1556h508v-1556zM84 -436v340h508v-385l-180 -217h-308l148 262h-168z" />
    <glyph glyph-name="Lcaron" unicode="&#x13d;" horiz-adv-x="1267" 
d="M629 1556v-1136h608v-420h-1133v1556h525zM1073 1040h-348l25 516h438z" />
    <glyph glyph-name="lcaron" unicode="&#x13e;" horiz-adv-x="673" 
d="M592 0h-508v1556h508v-1556zM1016 1163h-348l28 393h439z" />
    <glyph glyph-name="Ldot" unicode="&#x13f;" horiz-adv-x="1288" 
d="M629 1556v-1136h608v-420h-1133v1556h525zM1264 739h-508v430h508v-430z" />
    <glyph glyph-name="ldot" unicode="&#x140;" horiz-adv-x="1042" 
d="M592 0h-508v1556h508v-1556zM1042 590h-368v430h368v-430z" />
    <glyph glyph-name="Lslash" unicode="&#x141;" horiz-adv-x="1361" 
d="M723 698v-278h608v-420h-1132v446l-150 -71v387l150 72v722h524v-471l283 136v-387z" />
    <glyph glyph-name="lslash" unicode="&#x142;" horiz-adv-x="849" 
d="M678 1141l129 76v-406l-129 -76v-735h-508v432l-119 -70v406l119 70v718h508v-415z" />
    <glyph glyph-name="Nacute" unicode="&#x143;" horiz-adv-x="1843" 
d="M1268 207v1349h471v-1556h-883l-281 1350v-1350h-471v1556h883zM1165 1653h-499l237 340h705z" />
    <glyph glyph-name="nacute" unicode="&#x144;" horiz-adv-x="1382" 
d="M1229 1055l-2 -4q78 -113 78 -316v-4v-735h-508v604v4q0 106 -23 160q-21 49 -80 49t-80 -49q-22 -52 -22 -164v-604h-508v1137h498v-240q50 130 139 201t233 71q199 0 275 -110zM934 1210h-473l215 340h678z" />
    <glyph glyph-name="uni0145" unicode="&#x145;" horiz-adv-x="1843" 
d="M1268 207v1349h471v-1556h-883l-281 1350v-1350h-471v1556h883zM647 -436v340h524v-385l-180 -217h-323l147 262h-168z" />
    <glyph glyph-name="uni0146" unicode="&#x146;" horiz-adv-x="1382" 
d="M1229 1055l-2 -4q78 -113 78 -316v-4v-735h-508v604v4q0 106 -23 160q-21 49 -80 49t-80 -49q-22 -52 -22 -164v-604h-508v1137h498v-240q50 130 139 201t233 71q199 0 275 -110zM440 -442v340h508v-385l-180 -218h-307l147 263h-168z" />
    <glyph glyph-name="Ncaron" unicode="&#x147;" horiz-adv-x="1843" 
d="M1268 207v1349h471v-1556h-883l-281 1350v-1350h-471v1556h883zM952 1866l135 127h457l-272 -340h-641l-273 340h457z" />
    <glyph glyph-name="ncaron" unicode="&#x148;" horiz-adv-x="1382" 
d="M1229 1055l-2 -4q78 -113 78 -316v-4v-735h-508v604v4q0 106 -23 160q-21 49 -80 49t-80 -49q-22 -52 -22 -164v-604h-508v1137h498v-240q50 130 139 201t233 71q199 0 275 -110zM723 1417l129 133h438l-260 -340h-616l-260 340h438z" />
    <glyph glyph-name="Eng" unicode="&#x14a;" horiz-adv-x="1843" 
d="M1268 1556l467 -4v-1556q0 -190 -123 -295q-122 -104 -375 -104h-258v321h158q63 0 92 19q28 19 37 63h-410l-281 1350v-1350h-471v1556h883l281 -1349v1349z" />
    <glyph glyph-name="eng" unicode="&#x14b;" horiz-adv-x="1382" 
d="M1229 1055v-4q78 -113 78 -316v-4v-735q0 -133 -58 -221q-59 -89 -162 -135q-104 -46 -239 -46h-205v363h51q60 0 80 20q23 23 23 70v553v4q0 106 -23 160q-21 49 -80 49t-80 -49q-22 -52 -22 -164v-604h-508v1137h498v-240q50 130 139 201t233 71q199 0 275 -110z" />
    <glyph glyph-name="Omacron" unicode="&#x14c;" horiz-adv-x="1777" 
d="M451 66q-188 93 -297 276q-107 180 -107 434t107 434q109 184 297 277q194 96 438 96t438 -96q188 -93 297 -277q107 -180 107 -434t-107 -434q-109 -183 -297 -276q-196 -97 -438 -97t-438 97zM1112 473q80 106 80 305t-80 305q-80 105 -223 105t-223 -105
q-80 -106 -80 -305t80 -305q79 -104 223 -104t223 104zM1380 1653h-983v340h983v-340z" />
    <glyph glyph-name="omacron" unicode="&#x14d;" horiz-adv-x="1396" 
d="M348 45v-2q-148 75 -229 213q-80 136 -80 307t80 307q81 138 229 213q153 78 350 78q198 0 351 -78q148 -75 229 -213q80 -136 80 -307t-80 -307q-81 -138 -229 -213q-149 -76 -351 -76q-197 0 -350 78zM805 362h-8q34 67 34 201q0 138 -32 203q-34 70 -107 70
q-72 0 -106 -70q-33 -67 -33 -203q0 -133 35 -201q34 -67 108 -67q75 0 109 67zM1139 1212h-903v340h903v-340z" />
    <glyph glyph-name="Obreve" unicode="&#x14e;" horiz-adv-x="1777" 
d="M451 66q-188 93 -297 276q-107 180 -107 434t107 434q109 184 297 277q194 96 438 96t438 -96q188 -93 297 -277q107 -180 107 -434t-107 -434q-109 -183 -297 -276q-196 -97 -438 -97t-438 97zM1112 473q80 106 80 305t-80 305q-80 105 -223 105t-223 -105
q-80 -106 -80 -305t80 -305q79 -104 223 -104t223 104zM639 1696h-4q-108 44 -166 119q-59 77 -59 178h329q10 -29 47 -47q40 -19 97 -19q55 0 98 19q39 17 49 47h330q0 -100 -60 -178q-58 -76 -165 -119t-248 -43t-248 43z" />
    <glyph glyph-name="obreve" unicode="&#x14f;" horiz-adv-x="1396" 
d="M348 45v-2q-148 75 -229 213q-80 136 -80 307t80 307q81 138 229 213q153 78 350 78q198 0 351 -78q148 -75 229 -213q80 -136 80 -307t-80 -307q-81 -138 -229 -213q-149 -76 -351 -76q-197 0 -350 78zM805 362h-8q34 67 34 201q0 138 -32 203q-34 70 -107 70
q-72 0 -106 -70q-33 -67 -33 -203q0 -133 35 -201q34 -67 108 -67q75 0 109 67zM449 1251l-9 -4q-107 47 -164 125q-57 77 -57 178h338q0 -40 35 -61q34 -21 92 -21q54 0 92 23q35 21 35 61h338q0 -101 -57 -178q-57 -78 -164 -125q-102 -45 -240 -45q-133 0 -239 47z" />
    <glyph glyph-name="Ohungarumlaut" unicode="&#x150;" horiz-adv-x="1777" 
d="M451 66q-188 93 -297 276q-107 180 -107 434t107 434q109 184 297 277q194 96 438 96t438 -96q188 -93 297 -277q107 -180 107 -434t-107 -434q-109 -183 -297 -276q-196 -97 -438 -97t-438 97zM1112 473q80 106 80 305t-80 305q-80 105 -223 105t-223 -105
q-80 -106 -80 -305t80 -305q79 -104 223 -104t223 104zM807 1653h-449l260 340h588zM1427 1653h-448l260 340h588z" />
    <glyph glyph-name="ohungarumlaut" unicode="&#x151;" horiz-adv-x="1396" 
d="M348 45v-2q-148 75 -229 213q-80 136 -80 307t80 307q81 138 229 213q153 78 350 78q198 0 351 -78q148 -75 229 -213q80 -136 80 -307t-80 -307q-81 -138 -229 -213q-149 -76 -351 -76q-197 0 -350 78zM805 362h-8q34 67 34 201q0 138 -32 203q-34 70 -107 70
q-72 0 -106 -70q-33 -67 -33 -203q0 -133 35 -201q34 -67 108 -67q75 0 109 67zM625 1212h-410l182 340h547zM1202 1212h-409l182 340h547z" />
    <glyph glyph-name="OE" unicode="&#x152;" horiz-adv-x="2330" 
d="M1585 420l668 -4v-420h-1340q-257 0 -452 98q-198 100 -305 277q-109 180 -109 405q0 226 109 406q106 176 305 276q195 98 452 98h1321v-419h-649v-138h635v-419h-635v-160zM1061 416l-2 712h-148q-102 0 -176 -47q-70 -44 -112 -127q-39 -77 -39 -182t39 -182
q41 -81 114 -127q74 -47 176 -47h148z" />
    <glyph glyph-name="oe" unicode="&#x153;" horiz-adv-x="2168" 
d="M2122 434l-760 -4q9 -85 41 -129q29 -39 80 -39q41 0 65 21q28 25 47 61h506q-67 -180 -229 -278q-163 -99 -387 -99q-116 0 -211 39q-96 39 -174 111q-77 -71 -178 -111q-98 -39 -226 -39q-197 0 -350 78q-148 75 -229 213q-80 136 -80 307t80 307q81 138 229 213
q153 78 350 78q130 0 228 -39q103 -41 178 -110q74 68 176 110q100 41 209 41q182 0 323 -69q147 -72 232 -215q86 -145 86 -357q0 -40 -6 -90zM1407 827v-2q-30 -37 -45 -123h246q-9 81 -39 121q-30 41 -80 41q-52 0 -82 -37zM801 358h-8q34 67 34 201q0 138 -32 203
q-34 69 -107 69q-72 0 -106 -69q-33 -67 -33 -203q0 -133 35 -201q34 -67 108 -67q75 0 109 67z" />
    <glyph glyph-name="Racute" unicode="&#x154;" horiz-adv-x="1607" 
d="M1038 0l-286 494h-125v-496h-525v1556h695q211 0 368 -65q160 -66 244 -184q86 -121 86 -281q0 -138 -61 -248q-60 -107 -183 -180l375 -596h-588zM913 1116q-43 37 -122 37h-166v-266h166q79 0 122 37t43 96t-43 96zM954 1649h-499l237 340h705z" />
    <glyph glyph-name="racute" unicode="&#x155;" horiz-adv-x="999" 
d="M582 750q15 110 61 204q47 96 129 154q83 59 201 59v-497h-115q-139 0 -203 -58q-63 -57 -63 -186v-426h-508v1137h498v-387zM782 1217h-473l215 339h678z" />
    <glyph glyph-name="uni0156" unicode="&#x156;" horiz-adv-x="1607" 
d="M1038 0l-286 494h-125v-496h-525v1556h695q211 0 368 -65q160 -66 244 -184q86 -121 86 -281q0 -138 -61 -248q-60 -107 -183 -180l375 -596h-588zM913 1116q-43 37 -122 37h-166v-266h166q79 0 122 37t43 96t-43 96zM557 -440v340h524v-385l-180 -217h-323l147 262h-168
z" />
    <glyph glyph-name="uni0157" unicode="&#x157;" horiz-adv-x="999" 
d="M582 750q15 110 61 204q47 96 129 154q83 59 201 59v-497h-115q-139 0 -203 -58q-63 -57 -63 -186v-426h-508v1137h498v-387zM84 -436v340h508v-385l-180 -217h-308l148 262h-168z" />
    <glyph glyph-name="Rcaron" unicode="&#x158;" horiz-adv-x="1607" 
d="M1038 0l-286 494h-125v-496h-525v1556h695q211 0 368 -65q160 -66 244 -184q86 -121 86 -281q0 -138 -61 -248q-60 -107 -183 -180l375 -596h-588zM913 1116q-43 37 -122 37h-166v-266h166q79 0 122 37t43 96t-43 96zM741 1862l136 127h456l-272 -340h-641l-273 340h457z
" />
    <glyph glyph-name="rcaron" unicode="&#x159;" horiz-adv-x="999" 
d="M582 750q15 110 61 204q47 96 129 154q83 59 201 59v-497h-115q-139 0 -203 -58q-63 -57 -63 -186v-426h-508v1137h498v-387zM571 1423l129 133h439l-260 -339h-617l-260 339h438z" />
    <glyph glyph-name="Sacute" unicode="&#x15a;" horiz-adv-x="1544" 
d="M395 31h2q-158 62 -252 182q-95 121 -110 285h547q12 -84 63 -123t143 -39q98 0 150 24q51 23 51 70q0 42 -43 66q-47 26 -153 49l-269 59q-223 49 -340 166q-116 116 -116 311q0 151 88 267q88 117 241 178q152 61 346 61q340 0 514 -125t209 -338h-546q-6 43 -54 68
t-121 25q-65 0 -116 -23q-47 -21 -47 -61q0 -31 20 -48q21 -18 68 -30q102 -26 143 -35l268 -59q195 -43 310 -164q112 -118 112 -305q0 -173 -92 -291q-90 -115 -260 -174q-168 -58 -399 -58q-200 0 -357 62zM958 1651h-499l237 340h705z" />
    <glyph glyph-name="sacute" unicode="&#x15b;" horiz-adv-x="1314" 
d="M231 63l-2 -6q-156 95 -194 295h506q9 -55 43 -82q33 -26 94 -26q58 0 92 18q35 18 35 43q0 16 -12 25q-16 12 -45 22q-34 12 -99 27l-270 61q-175 40 -252 123q-76 82 -76 213q0 118 76 203q77 86 207 133t287 47q167 0 294 -39q136 -42 220 -123q88 -85 108 -198h-506
q-15 80 -116 80q-51 0 -80 -19q-27 -18 -27 -43q0 -20 29 -33q26 -11 84 -24l270 -62q189 -41 283 -123t94 -227q0 -122 -84 -209q-82 -85 -227 -129q-142 -43 -320 -43q-254 0 -412 96zM829 1208h-473l215 340h678z" />
    <glyph glyph-name="Scircumflex" unicode="&#x15c;" horiz-adv-x="1544" 
d="M395 31h2q-158 62 -252 182q-95 121 -110 285h547q12 -84 63 -123t143 -39q98 0 150 24q51 23 51 70q0 42 -43 66q-47 26 -153 49l-269 59q-223 49 -340 166q-116 116 -116 311q0 151 88 267q88 117 241 178q152 61 346 61q340 0 514 -125t209 -338h-546q-6 43 -54 68
t-121 25q-65 0 -116 -23q-47 -21 -47 -61q0 -31 20 -48q21 -18 68 -30q102 -26 143 -35l268 -59q195 -43 310 -164q112 -118 112 -305q0 -173 -92 -291q-90 -115 -260 -174q-168 -58 -399 -58q-200 0 -357 62zM1065 1991l272 -340h-456l-136 127l-137 -127h-456l272 340h641
z" />
    <glyph glyph-name="scircumflex" unicode="&#x15d;" horiz-adv-x="1314" 
d="M231 63l-2 -6q-156 95 -194 295h506q9 -55 43 -82q33 -26 94 -26q58 0 92 18q35 18 35 43q0 16 -12 25q-16 12 -45 22q-34 12 -99 27l-270 61q-175 40 -252 123q-76 82 -76 213q0 118 76 203q77 86 207 133t287 47q167 0 294 -39q136 -42 220 -123q88 -85 108 -198h-506
q-15 80 -116 80q-51 0 -80 -19q-27 -18 -27 -43q0 -20 29 -33q26 -11 84 -24l270 -62q189 -41 283 -123t94 -227q0 -122 -84 -209q-82 -85 -227 -129q-142 -43 -320 -43q-254 0 -412 96zM926 1548l260 -340h-438l-130 133l-131 -133h-438l260 340h617z" />
    <glyph glyph-name="Scedilla" unicode="&#x15e;" horiz-adv-x="1544" 
d="M1337 127h-2q-165 -130 -454 -154v-26q78 -12 129 -60q49 -46 49 -123q0 -57 -31 -102q-30 -44 -86 -68t-125 -24h-211v197h90q41 0 41 24q0 27 -43 27h-49v155q-172 15 -305 80q-135 66 -213 178q-79 113 -94 265h547q12 -84 63 -123t143 -39q98 0 150 24q51 23 51 70
q0 42 -43 66q-47 26 -153 49l-269 59q-223 49 -340 166q-116 116 -116 311q0 151 88 267q88 117 241 178q152 61 346 61q340 0 514 -125t209 -338h-546q-6 43 -54 68q-46 24 -121 24q-67 0 -116 -22q-47 -21 -47 -62q0 -30 20 -47q21 -18 68 -30q102 -26 143 -35l268 -60
q196 -43 310 -163q112 -118 112 -306q0 -233 -164 -362z" />
    <glyph glyph-name="scedilla" unicode="&#x15f;" horiz-adv-x="1314" 
d="M1204 158l2 -2q-70 -82 -194 -129t-281 -56v-26q76 -12 127 -60q49 -46 49 -123q0 -89 -67 -141q-66 -51 -172 -51h-201v186h88q47 0 47 31t-47 31h-49v157q-191 21 -316 117q-123 95 -153 266h506q9 -55 43 -82q33 -26 94 -26q58 0 92 18q35 18 35 43q0 16 -12 25
q-16 12 -45 22q-34 12 -99 27l-270 61q-175 40 -252 123q-76 82 -76 213q0 118 76 203q77 86 207 133t287 47q168 0 295 -39q136 -42 219 -122q87 -84 108 -199h-506q-15 80 -116 80q-51 0 -80 -19q-27 -18 -27 -43q0 -19 29 -32q30 -13 84 -25l270 -61q189 -41 283 -123
t94 -228q0 -112 -72 -196z" />
    <glyph glyph-name="Scaron" unicode="&#x160;" horiz-adv-x="1544" 
d="M395 31h2q-158 62 -252 182q-95 121 -110 285h547q12 -84 63 -123t143 -39q98 0 150 24q51 23 51 70q0 42 -43 66q-47 26 -153 49l-269 59q-223 49 -340 166q-116 116 -116 311q0 151 88 267q88 117 241 178q152 61 346 61q340 0 514 -125t209 -338h-546q-6 43 -54 68
t-121 25q-65 0 -116 -23q-47 -21 -47 -61q0 -31 20 -48q21 -18 68 -30q102 -26 143 -35l268 -59q195 -43 310 -164q112 -118 112 -305q0 -173 -92 -291q-90 -115 -260 -174q-168 -58 -399 -58q-200 0 -357 62zM745 1864l136 127h456l-272 -340h-641l-272 340h456z" />
    <glyph glyph-name="scaron" unicode="&#x161;" horiz-adv-x="1314" 
d="M231 63l-2 -6q-156 95 -194 295h506q9 -55 43 -82q33 -26 94 -26q58 0 92 18q35 18 35 43q0 16 -12 25q-16 12 -45 22q-34 12 -99 27l-270 61q-175 40 -252 123q-76 82 -76 213q0 118 76 203q77 86 207 133t287 47q167 0 294 -39q136 -42 220 -123q88 -85 108 -198h-506
q-15 80 -116 80q-51 0 -80 -19q-27 -18 -27 -43q0 -20 29 -33q26 -11 84 -24l270 -62q189 -41 283 -123t94 -227q0 -122 -84 -209q-82 -85 -227 -129q-142 -43 -320 -43q-254 0 -412 96zM618 1415l130 133h438l-260 -340h-617l-260 340h438z" />
    <glyph glyph-name="uni0162" unicode="&#x162;" horiz-adv-x="1433" 
d="M31 1556h1372v-419h-424v-1137h-524v1137h-424v419zM455 -436v340h524v-385l-180 -217h-324l148 262h-168z" />
    <glyph glyph-name="uni0163" unicode="&#x163;" horiz-adv-x="950" 
d="M702 774l-4 -325v-5q0 -46 25 -65t80 -19h84v-362h-238q-133 0 -235 45q-104 46 -162 131q-57 83 -57 205v4v391h-162v363h162v268h507v-268h187v-363h-187zM274 -440v340h508v-385l-180 -217h-307l147 262h-168z" />
    <glyph glyph-name="Tcaron" unicode="&#x164;" horiz-adv-x="1433" 
d="M31 1556h1372v-419h-424v-1137h-524v1137h-424v419zM717 1866l135 127h457l-273 -340h-641l-272 340h457z" />
    <glyph glyph-name="tcaron" unicode="&#x165;" horiz-adv-x="950" 
d="M780 1202l29 354h438l-119 -354h-348zM702 1405l-4 -272h187v-363h-187v-321v-5q0 -46 25 -65t80 -19h84v-362h-238q-133 0 -235 45q-104 46 -162 131q-57 83 -57 205v4v391h-162v363h162v268h507z" />
    <glyph glyph-name="Tbar" unicode="&#x166;" horiz-adv-x="1482" 
d="M1427 1556v-419h-423v-199h333v-365h-333v-573h-525v573h-332v365h332v199h-424v419h1372z" />
    <glyph glyph-name="tbar" unicode="&#x167;" horiz-adv-x="950" 
d="M889 774l-189 -4v-55h136v-289h-136q3 -33 29 -49q27 -17 74 -17h84v-362h-238q-133 0 -235 45q-104 46 -162 131q-57 83 -57 205v4v47h-146v289h146v55h-162v363h162v268h507v-268h187v-363z" />
    <glyph glyph-name="Utilde" unicode="&#x168;" horiz-adv-x="1601" 
d="M264 137l-2 -6q-174 168 -174 485v5v929h524v-991v-4q0 -88 50 -141q49 -52 137 -52t139 54q49 52 49 145v991h524v-929q0 -318 -174 -486q-176 -170 -536 -170q-361 0 -537 170zM375 1645h-6q0 199 67 303t195 104q50 0 96 -14q35 -11 86 -31q48 -18 72 -25q27 -8 65 -8
q47 0 78 25q32 26 41 59h152q0 -197 -68 -303q-67 -104 -192 -104q-75 0 -185 45q-39 16 -67 24q-30 9 -66 9q-45 0 -76 -25q-32 -26 -41 -59h-151z" />
    <glyph glyph-name="utilde" unicode="&#x169;" horiz-adv-x="1376" 
d="M784 1137l504 -4v-1137h-497v213q-40 -113 -129 -178q-88 -64 -240 -64q-194 0 -270 113q-78 116 -78 315v4v736h508v-605v-4q0 -106 24 -159q24 -52 78 -52q58 0 80 54q20 50 20 163v605zM281 1212v-4q0 198 61 299q62 103 182 103q44 0 90 -15q43 -14 80 -30
q70 -33 125 -33q45 0 72 24q28 25 37 60h147q0 -196 -61 -297q-60 -100 -183 -100q-47 0 -90 14q-30 10 -79 31q-68 32 -125 32q-45 0 -72 -24q-28 -25 -37 -60h-147z" />
    <glyph glyph-name="Umacron" unicode="&#x16a;" horiz-adv-x="1601" 
d="M264 137l-2 -6q-174 168 -174 485v5v929h524v-991v-4q0 -88 50 -141q49 -52 137 -52t139 54q49 52 49 145v991h524v-929q0 -318 -174 -486q-176 -170 -536 -170q-361 0 -537 170zM1290 1645h-983v340h983v-340z" />
    <glyph glyph-name="umacron" unicode="&#x16b;" horiz-adv-x="1376" 
d="M784 1137l504 -4v-1137h-497v213q-40 -113 -129 -178q-88 -64 -240 -64q-194 0 -270 113q-78 116 -78 315v4v736h508v-605v-4q0 -106 24 -159q24 -52 78 -52q58 0 80 54q20 50 20 163v605zM1130 1212h-903v340h903v-340z" />
    <glyph glyph-name="Ubreve" unicode="&#x16c;" horiz-adv-x="1601" 
d="M264 137l-2 -6q-174 168 -174 485v5v929h524v-991v-4q0 -88 50 -141q49 -52 137 -52t139 54q49 52 49 145v991h524v-929q0 -318 -174 -486q-176 -170 -536 -170q-361 0 -537 170zM549 1690h-4q-109 44 -166 118q-60 78 -60 179h330q10 -30 47 -48t97 -18q57 0 98 18
q39 17 49 48h330q0 -101 -60 -179q-57 -74 -166 -118q-107 -43 -247 -43q-141 0 -248 43z" />
    <glyph glyph-name="ubreve" unicode="&#x16d;" horiz-adv-x="1376" 
d="M784 1137l504 -4v-1137h-497v213q-40 -113 -129 -178q-88 -64 -240 -64q-194 0 -270 113q-78 116 -78 315v4v736h508v-605v-4q0 -106 24 -159q24 -52 78 -52q58 0 80 54q20 50 20 163v605zM438 1249l-8 -4q-107 47 -164 125q-57 77 -57 178h338q0 -40 35 -61t92 -21
q54 0 92 23q35 21 35 61h338q0 -99 -58 -178q-58 -78 -163 -125q-102 -45 -240 -45q-134 0 -240 47z" />
    <glyph glyph-name="Uring" unicode="&#x16e;" horiz-adv-x="1601" 
d="M264 137l-2 -6q-174 168 -174 485v5v929h524v-991v-4q0 -88 50 -141q49 -52 137 -52t139 54q49 52 49 145v991h524v-929q0 -318 -174 -486q-176 -170 -536 -170q-361 0 -537 170zM629 1681q-77 47 -123 123q-45 74 -45 166t45 166q46 76 123 123q74 45 166 45t166 -45
q75 -46 122 -123q45 -74 45 -166t-45 -166q-47 -77 -122 -123q-74 -45 -166 -45t-166 45zM848 1917q22 22 22 53t-22 53q-23 23 -53 23q-31 0 -54 -23q-22 -22 -22 -53t22 -53q23 -23 54 -23q30 0 53 23z" />
    <glyph glyph-name="uring" unicode="&#x16f;" horiz-adv-x="1376" 
d="M784 1137l504 -4v-1137h-497v213q-40 -113 -129 -178q-88 -64 -240 -64q-194 0 -270 113q-78 116 -78 315v4v736h508v-605v-4q0 -106 24 -159q24 -52 78 -52q58 0 80 54q20 50 20 163v605zM535 1241l-5 -4q-65 36 -106 104q-39 65 -39 146q0 80 39 145q41 68 106 107
t146 39q80 0 145 -39q68 -41 105 -107q37 -67 37 -143t-37 -143q-38 -68 -105 -105t-143 -37t-143 37zM717 1444q18 18 18 43q0 27 -18 45t-43 18q-27 0 -45 -18q-19 -19 -19 -45q0 -24 19 -43t45 -19q24 0 43 19z" />
    <glyph glyph-name="Uhungarumlaut" unicode="&#x170;" horiz-adv-x="1601" 
d="M264 137l-2 -6q-174 168 -174 485v5v929h524v-991v-4q0 -88 50 -141q49 -52 137 -52t139 54q49 52 49 145v991h524v-929q0 -318 -174 -486q-176 -170 -536 -170q-361 0 -537 170zM717 1645h-449l260 340h588zM1337 1645h-448l260 340h588z" />
    <glyph glyph-name="uhungarumlaut" unicode="&#x171;" horiz-adv-x="1376" 
d="M784 1137l504 -4v-1137h-497v213q-40 -113 -129 -178q-88 -64 -240 -64q-194 0 -270 113q-78 116 -78 315v4v736h508v-605v-4q0 -106 24 -159q24 -52 78 -52q58 0 80 54q20 50 20 163v605zM616 1212h-409l182 340h547zM1194 1212h-410l183 340h546z" />
    <glyph glyph-name="Uogonek" unicode="&#x172;" horiz-adv-x="1601" 
d="M987 1556l522 -6v-929q0 -359 -219 -527q-68 -55 -92 -86q-27 -34 -27 -65q0 -25 19 -41q20 -17 61 -17h92v-317h-169q-443 0 -443 213q0 104 123 186q-12 -2 -55 -2q-361 0 -537 170q-174 168 -174 486v4v929h524v-991v-4q0 -88 50 -141q48 -51 137 -51t139 53
q49 52 49 145v991z" />
    <glyph glyph-name="uogonek" unicode="&#x173;" horiz-adv-x="1376" 
d="M1292 0l-6 -6q-184 -37 -184 -86q0 -18 22 -27q19 -8 74 -8h90v-307h-168q-224 0 -334 55t-110 174q0 52 29 105q27 49 86 96v213q-40 -113 -129 -178q-88 -64 -240 -64q-194 0 -270 113q-78 116 -78 315v4v736h508v-605v-4q0 -106 24 -159q24 -52 78 -52q58 0 80 54
q20 50 20 163v605h508v-1137z" />
    <glyph glyph-name="Wcircumflex" unicode="&#x174;" horiz-adv-x="2375" 
d="M1720 186l140 1370h479l-180 -1556h-854l-117 1409l-117 -1409h-854l-180 1556h479l139 -1370l133 1370h799zM1507 1993l273 -340h-457l-135 127l-137 -127h-457l272 340h641z" />
    <glyph glyph-name="wcircumflex" unicode="&#x175;" horiz-adv-x="1947" 
d="M1405 176l84 961h418l-113 -1137h-752l-67 977l-70 -977h-751l-113 1137h418l84 -961l84 961h694zM1280 1556l260 -339h-438l-129 133l-131 -133h-439l261 339h616z" />
    <glyph glyph-name="Ycircumflex" unicode="&#x176;" horiz-adv-x="1552" 
d="M1012 1556h590l-564 -989v-567h-524v567l-563 989h590l235 -491zM1096 1993l272 -340h-457l-135 127l-137 -127h-457l273 340h641z" />
    <glyph glyph-name="ycircumflex" unicode="&#x177;" horiz-adv-x="1376" 
d="M664 299l165 838h539l-328 -1538h-516l101 505h-387l-234 1033h500zM973 1556l260 -339h-438l-129 133l-131 -133h-439l260 339h617z" />
    <glyph glyph-name="Ydieresis" unicode="&#x178;" horiz-adv-x="1552" 
d="M1012 1556h590l-564 -989v-567h-524v567l-563 989h590l235 -491zM748 1653h-525v340h525v-340zM1329 1653h-524v340h524v-340z" />
    <glyph glyph-name="Zacute" unicode="&#x179;" horiz-adv-x="1490" 
d="M1397 1024l-697 -604h734v-420h-1362v532l696 605h-684v419h1313v-532zM952 1653h-499l237 340h705z" />
    <glyph glyph-name="zacute" unicode="&#x17a;" horiz-adv-x="1271" 
d="M1182 678l-502 -316h532v-362h-1140v459l501 315h-491v363h1100v-459zM842 1217h-473l215 339h678z" />
    <glyph glyph-name="Zdotaccent" unicode="&#x17b;" horiz-adv-x="1490" 
d="M1397 1024l-697 -604h734v-420h-1362v532l696 605h-684v419h1313v-532zM1001 1653h-524v340h524v-340z" />
    <glyph glyph-name="zdotaccent" unicode="&#x17c;" horiz-adv-x="1271" 
d="M1182 678l-502 -316h532v-362h-1140v459l501 315h-491v363h1100v-459zM885 1217h-508v339h508v-339z" />
    <glyph glyph-name="Zcaron" unicode="&#x17d;" horiz-adv-x="1490" 
d="M1397 1024l-697 -604h734v-420h-1362v532l696 605h-684v419h1313v-532zM739 1866l135 127h457l-272 -340h-641l-273 340h457z" />
    <glyph glyph-name="zcaron" unicode="&#x17e;" horiz-adv-x="1271" 
d="M1182 678l-502 -316h532v-362h-1140v459l501 315h-491v363h1100v-459zM631 1423l129 133h438l-260 -339h-616l-261 339h439z" />
    <glyph glyph-name="uni018F" unicode="&#x18f;" horiz-adv-x="1744" 
d="M1303 1487h-7q189 -103 293 -285q105 -185 105 -426q0 -242 -105 -426q-104 -182 -291 -284q-186 -101 -430 -101q-260 0 -448 117q-189 118 -283 319q-96 206 -96 457q0 62 6 123h1104q-37 113 -111 160t-170 47q-78 0 -139 -27t-96 -80h-555q47 158 160 271
q112 112 276 174q162 61 356 61q247 0 431 -100zM1034 416h2q74 47 111 153h-559q29 -95 104 -149q71 -51 172 -51q96 0 170 47z" />
    <glyph glyph-name="florin" unicode="&#x192;" horiz-adv-x="1267" 
d="M1059 1147l-2 -4q-54 0 -84 -27q-31 -28 -43 -86h196v-409h-260l-24 -152q-27 -175 -94 -279q-65 -101 -177 -149q-105 -45 -264 -45h-248v410h142q62 0 90 32q32 37 41 105l12 80h-151v409h215l8 49q26 170 96 279q65 101 176 149q109 47 264 47h248v-409h-141z" />
    <glyph glyph-name="uni019D" unicode="&#x19d;" horiz-adv-x="1843" 
d="M1268 1556l471 -4v-1556h-883l-281 1350v-1350q0 -191 -122 -295t-375 -104h-258v321h157q53 0 80 12q28 13 37 39q10 30 10 80v1507h883l281 -1349v1349z" />
    <glyph glyph-name="uni01B5" unicode="&#x1b5;" horiz-adv-x="1505" 
d="M1440 799v-213h-541l-192 -166h733v-420h-1362v532l278 242h-266v213h512l172 150h-684v419h1313v-532l-260 -225h297z" />
    <glyph glyph-name="uni01B6" unicode="&#x1b6;" horiz-adv-x="1277" 
d="M1214 573v-145h-428l-104 -66h532v-362h-1140v459l186 116h-176v146h408l83 53h-491v363h1100v-459l-166 -105h196z" />
    <glyph glyph-name="uni01E2" unicode="&#x1e2;" horiz-adv-x="2267" 
d="M1589 580l45 -160h555v-420h-981l-82 330h-516l-82 -330h-544l442 1556h1745v-419h-741l38 -138h689v-419h-568zM868 1360l-151 -610h305zM1640 1653h-983v340h983v-340z" />
    <glyph glyph-name="uni01E3" unicode="&#x1e3;" horiz-adv-x="2115" 
d="M2068 434l-755 -12q9 -85 41 -129q29 -39 80 -39q42 0 65 20q27 24 47 62h506q-67 -181 -229 -279t-387 -98q-146 0 -258 59t-177 154q-71 -96 -182 -154q-108 -57 -284 -57q-136 0 -246 45q-111 45 -180 133q-68 86 -68 207q0 204 145 281q147 78 394 78h223v32v6
q0 61 -29 93q-27 30 -78 30q-47 0 -73 -26q-28 -28 -31 -70h-506q15 130 98 219q84 90 203 133t256 43q147 0 248 -43q102 -44 162 -112q64 73 164 114t227 41q179 0 317 -69q143 -71 228 -215q86 -145 86 -357q0 -32 -7 -90zM1358 819v-2q-30 -37 -45 -123h246
q-9 81 -39 121q-30 41 -80 41q-52 0 -82 -37zM756 295l-6 -2q37 46 43 123h-115q-58 0 -92 -21q-33 -20 -33 -61q0 -39 29 -62q28 -22 71 -22q67 0 103 45zM1466 1198h-903v340h903v-340z" />
    <glyph glyph-name="Gcaron" unicode="&#x1e6;" horiz-adv-x="1787" 
d="M819 954l883 -8v-954h-420v332q-43 -109 -94 -179q-56 -78 -156 -129q-103 -53 -254 -53q-172 0 -344 90q-164 86 -278 275q-111 184 -111 444q0 252 105 436q107 188 294 281q194 96 443 96q635 0 794 -530h-546q-34 63 -93 98q-56 33 -153 33q-145 0 -225 -105
q-80 -106 -80 -305q0 -197 86 -303q85 -104 243 -104q85 0 146 24q60 23 96 72q35 47 41 104h-377v385zM885 1858l135 127h457l-273 -340h-641l-272 340h457z" />
    <glyph glyph-name="gcaron" unicode="&#x1e7;" horiz-adv-x="1413" 
d="M836 1137l491 14v-1071q0 -193 -94 -303q-93 -110 -234 -154q-136 -43 -292 -43q-145 0 -275 37q-131 37 -227 121t-117 215h506q20 -25 47 -39q24 -12 66 -12q58 0 92 37q32 35 32 116v185q-41 -97 -124 -156q-85 -61 -211 -61q-141 0 -242 73t-154 203q-51 125 -51 295
q0 165 53 295t154 203t242 73q129 0 215 -71q85 -70 123 -185v228zM846 606q0 248 -141 248q-142 0 -142 -248q0 -246 142 -246q141 0 141 246zM733 1438l129 133h438l-260 -340h-616l-260 340h438z" />
    <glyph glyph-name="uni01EA" unicode="&#x1ea;" horiz-adv-x="1777" 
d="M1300 14l3 -2q-29 -37 -29 -67q0 -26 18 -41q20 -17 62 -17h92v-317h-170q-442 0 -442 213q0 104 122 186q-14 -2 -67 -2q-244 0 -438 96q-188 93 -297 277q-107 180 -107 434t107 434q109 184 297 277q194 96 438 96t438 -96q188 -93 297 -277q107 -180 107 -434
q0 -221 -86 -395q-84 -170 -242 -273q-82 -65 -103 -92zM668 471q79 -104 223 -104t223 104q80 106 80 305t-80 305q-79 105 -223 105q-143 0 -223 -105q-80 -106 -80 -305t80 -305z" />
    <glyph glyph-name="uni01EB" unicode="&#x1eb;" horiz-adv-x="1396" 
d="M1018 -4l2 -4q-37 -46 -37 -74q0 -22 21 -31q23 -10 73 -10h90v-307h-168q-223 0 -333 55q-111 55 -111 174q0 94 113 170q-190 6 -334 84q-139 75 -217 213q-76 134 -76 303q0 172 80 308q81 138 229 213q151 77 350 77q200 0 351 -77q148 -75 229 -213q80 -136 80 -308
q0 -146 -62 -270t-174 -205q-68 -50 -106 -98zM592 360h-8q34 -67 108 -67q75 0 109 67q35 68 35 201q0 136 -33 203q-34 70 -107 70q-72 0 -106 -70q-33 -67 -33 -203q0 -133 35 -201z" />
    <glyph glyph-name="AEacute" unicode="&#x1fc;" horiz-adv-x="2267" 
d="M1589 580l45 -160h555v-420h-981l-82 330h-516l-82 -330h-544l442 1556h1745v-419h-741l38 -138h689v-419h-568zM868 1360l-151 -610h305zM1362 1653h-500l238 340h704z" />
    <glyph glyph-name="aeacute" unicode="&#x1fd;" horiz-adv-x="2115" 
d="M2068 434l-755 -12q9 -85 41 -129q29 -39 80 -39q42 0 65 20q27 24 47 62h506q-67 -181 -229 -279t-387 -98q-146 0 -258 59t-177 154q-71 -96 -182 -154q-108 -57 -284 -57q-136 0 -246 45q-111 45 -180 133q-68 86 -68 207q0 204 145 281q147 78 394 78h223v32v6
q0 61 -29 93q-27 30 -78 30q-47 0 -73 -26q-28 -28 -31 -70h-506q15 130 98 219q84 90 203 133t256 43q147 0 248 -43q102 -44 162 -112q64 73 164 114t227 41q179 0 317 -69q143 -71 228 -215q86 -145 86 -357q0 -32 -7 -90zM1358 819v-2q-30 -37 -45 -123h246
q-9 81 -39 121q-30 41 -80 41q-52 0 -82 -37zM756 295l-6 -2q37 46 43 123h-115q-58 0 -92 -21q-33 -20 -33 -61q0 -39 29 -62q28 -22 71 -22q67 0 103 45zM1227 1198h-473l215 340h678z" />
    <glyph glyph-name="Oslashacute" unicode="&#x1fe;" horiz-adv-x="1777" 
d="M1839 1556l-256 -280q74 -100 111 -223q37 -124 37 -277q0 -254 -107 -434q-109 -183 -297 -276q-196 -97 -438 -97q-247 0 -434 94l-60 -63h-458l260 281q-74 100 -111 223q-37 124 -37 276q0 254 107 434q109 184 297 277q194 96 438 96q243 0 430 -94l59 63h459z
M592 700l424 461q-58 25 -125 25q-143 0 -223 -105q-80 -106 -80 -305q0 -10 4 -76zM1190 854l-426 -461q51 -26 127 -26q144 0 223 104q80 106 80 305q0 12 -4 78zM1104 1651h-500l238 340h704z" />
    <glyph glyph-name="oslashacute" unicode="&#x1ff;" horiz-adv-x="1396" 
d="M1411 1137l-186 -187q64 -76 98 -174q35 -100 35 -209q0 -171 -80 -307q-81 -138 -229 -213q-149 -76 -351 -76q-193 0 -352 78l-45 -47h-315l184 188q-62 74 -98 172q-33 90 -33 207q0 172 80 308q81 138 229 213q151 77 350 77q200 0 351 -77l47 47h315zM590 776h2
q-34 -63 -37 -188l219 225q-37 29 -80 29q-69 0 -104 -66zM803 365q34 63 37 188l-222 -225q37 -29 80 -29q70 0 105 66zM907 1219h-473l215 340h678z" />
    <glyph glyph-name="uni0218" unicode="&#x218;" horiz-adv-x="1544" 
d="M395 31h2q-158 62 -252 182q-95 121 -110 285h547q12 -84 63 -123t143 -39q98 0 150 24q51 23 51 70q0 42 -43 66q-47 26 -153 49l-269 59q-223 49 -340 166q-116 116 -116 311q0 151 88 267q88 117 241 178q152 61 346 61q340 0 514 -125t209 -338h-546q-6 43 -54 68
t-121 25q-65 0 -116 -23q-47 -21 -47 -61q0 -31 20 -48q21 -18 68 -30q102 -26 143 -35l268 -59q195 -43 310 -164q112 -118 112 -305q0 -173 -92 -291q-90 -115 -260 -174q-168 -58 -399 -58q-200 0 -357 62zM541 -438v340h524v-385l-180 -217h-324l148 262h-168z" />
    <glyph glyph-name="uni0219" unicode="&#x219;" horiz-adv-x="1314" 
d="M231 63l-2 -6q-156 95 -194 295h506q9 -55 43 -82q33 -26 94 -26q58 0 92 18q35 18 35 43q0 16 -12 25q-16 12 -45 22q-34 12 -99 27l-270 61q-175 40 -252 123q-76 82 -76 213q0 118 76 203q77 86 207 133t287 47q167 0 294 -39q136 -42 220 -123q88 -85 108 -198h-506
q-15 80 -116 80q-51 0 -80 -19q-27 -18 -27 -43q0 -20 29 -33q26 -11 84 -24l270 -62q189 -41 283 -123t94 -227q0 -122 -84 -209q-82 -85 -227 -129q-142 -43 -320 -43q-254 0 -412 96zM414 -444v340h508v-385l-181 -218h-307l148 263h-168z" />
    <glyph glyph-name="uni021A" unicode="&#x21a;" horiz-adv-x="1433" 
d="M31 1556h1372v-419h-424v-1137h-524v1137h-424v419zM455 -436v340h524v-385l-180 -217h-324l148 262h-168z" />
    <glyph glyph-name="uni021B" unicode="&#x21b;" horiz-adv-x="950" 
d="M702 774l-4 -325v-5q0 -46 25 -65t80 -19h84v-362h-238q-133 0 -235 45q-104 46 -162 131q-57 83 -57 205v4v391h-162v363h162v268h507v-268h187v-363h-187zM274 -440v340h508v-385l-180 -217h-307l147 262h-168z" />
    <glyph glyph-name="uni022E" unicode="&#x22e;" horiz-adv-x="1777" 
d="M451 66q-188 93 -297 276q-107 180 -107 434t107 434q109 184 297 277q194 96 438 96t438 -96q188 -93 297 -277q107 -180 107 -434t-107 -434q-109 -183 -297 -276q-196 -97 -438 -97t-438 97zM1112 473q80 106 80 305t-80 305q-80 105 -223 105t-223 -105
q-80 -106 -80 -305t80 -305q79 -104 223 -104t223 104zM1151 1653h-524v340h524v-340z" />
    <glyph glyph-name="uni022F" unicode="&#x22f;" horiz-adv-x="1396" 
d="M348 45v-2q-148 75 -229 213q-80 136 -80 307t80 307q81 138 229 213q153 78 350 78q198 0 351 -78q148 -75 229 -213q80 -136 80 -307t-80 -307q-81 -138 -229 -213q-149 -76 -351 -76q-197 0 -350 78zM805 362h-8q34 67 34 201q0 138 -32 203q-34 70 -107 70
q-72 0 -106 -70q-33 -67 -33 -203q0 -133 35 -201q34 -67 108 -67q75 0 109 67zM942 1212h-508v340h508v-340z" />
    <glyph glyph-name="uni0232" unicode="&#x232;" horiz-adv-x="1552" 
d="M1012 1556h590l-564 -989v-567h-524v567l-563 989h590l235 -491zM1268 1653h-983v340h983v-340z" />
    <glyph glyph-name="uni0233" unicode="&#x233;" horiz-adv-x="1376" 
d="M664 299l165 838h539l-328 -1538h-516l101 505h-387l-234 1033h500zM1116 1217h-903v339h903v-339z" />
    <glyph glyph-name="uni0237" unicode="&#x237;" horiz-adv-x="675" 
d="M-70 -401l-2 360h52q58 0 79 21q23 23 23 69v1086h508v-1155q0 -120 -58 -205q-59 -86 -161 -131t-236 -45h-205z" />
    <glyph glyph-name="uni0259" unicode="&#x259;" horiz-adv-x="1357" 
d="M1010 1092l-9 -9q146 -74 228 -209q82 -134 82 -313q0 -174 -84 -311q-82 -135 -228 -209q-145 -74 -325 -74q-175 0 -322 72q-143 70 -229 215t-86 356q0 40 6 90h756q-9 85 -41 129q-30 41 -80 41q-41 0 -64 -20q-24 -21 -45 -62h-506q67 180 230 279q162 98 387 98
q187 0 330 -73zM748 295v2q30 37 45 123h-246q9 -81 39 -121q30 -41 80 -41q52 0 82 37z" />
    <glyph glyph-name="uni0272" unicode="&#x272;" horiz-adv-x="1382" 
d="M1229 1055v-4q78 -113 78 -316v-4v-735h-508v604v4q0 106 -23 160q-21 49 -80 49t-80 -49q-22 -52 -22 -164v-604q0 -135 -57 -221q-59 -89 -162 -135q-104 -46 -240 -46h-205v363h52q59 0 79 20q23 23 23 70v1086h498v-240q50 130 139 201t233 71q199 0 275 -110z" />
    <glyph glyph-name="circumflex" unicode="&#x2c6;" horiz-adv-x="1185" 
d="M901 1556l260 -339h-438l-129 133l-131 -133h-438l260 339h616z" />
    <glyph glyph-name="caron" unicode="&#x2c7;" horiz-adv-x="1185" 
d="M594 1423l129 133h438l-260 -339h-616l-260 339h438z" />
    <glyph glyph-name="breve" unicode="&#x2d8;" horiz-adv-x="974" 
d="M246 1253l-8 -4q-107 47 -164 125q-58 79 -58 178h338q0 -40 35 -61t92 -21q54 0 92 23q35 21 35 61h338q0 -101 -57 -178q-57 -78 -164 -125q-102 -45 -240 -45q-133 0 -239 47z" />
    <glyph glyph-name="dotaccent" unicode="&#x2d9;" horiz-adv-x="557" 
d="M532 1217h-507v339h507v-339z" />
    <glyph glyph-name="ring" unicode="&#x2da;" horiz-adv-x="624" 
d="M168 1245l-4 -4q-66 37 -107 105q-39 65 -39 145t39 145q40 67 107 107q65 39 145 39q81 0 146 -39q67 -40 104 -107t37 -143t-37 -143q-38 -68 -104 -105q-67 -37 -144 -37q-76 0 -143 37zM350 1448q19 19 19 43q0 26 -19 45q-18 18 -43 18q-27 0 -45 -18t-18 -45
q0 -25 18 -43t45 -18q25 0 43 18z" />
    <glyph glyph-name="ogonek" unicode="&#x2db;" horiz-adv-x="661" 
d="M469 -428l-2 -2q-224 0 -334 55t-110 174q0 54 28 105q27 49 86 96h498q-184 -37 -184 -86q0 -18 22 -27q19 -8 74 -8h90v-307h-168z" />
    <glyph glyph-name="tilde" unicode="&#x2dc;" horiz-adv-x="847" 
d="M25 1217v-5q0 198 61 299q62 103 182 103q44 0 90 -15q43 -14 80 -30q70 -33 125 -33q44 0 72 25t37 59h147q0 -196 -61 -297q-60 -100 -183 -100q-47 0 -90 14q-30 10 -79 31q-68 32 -125 32q-45 0 -72 -24q-28 -25 -37 -59h-147z" />
    <glyph glyph-name="hungarumlaut" unicode="&#x2dd;" horiz-adv-x="1355" 
d="M434 1217h-409l182 339h547zM1012 1217h-410l182 339h547z" />
    <glyph glyph-name="gravecomb" unicode="&#x300;" horiz-adv-x="0" 
d="M-25 1217h-473l-420 339h678z" />
    <glyph glyph-name="acutecomb" unicode="&#x301;" horiz-adv-x="0" 
d="M-444 1217h-474l216 339h677z" />
    <glyph glyph-name="uni0302" unicode="&#x302;" horiz-adv-x="0" 
d="M-285 1556l260 -339h-438l-129 133l-131 -133h-438l260 339h616z" />
    <glyph glyph-name="tildecomb" unicode="&#x303;" horiz-adv-x="0" 
d="M-823 1217v-5q0 198 61 299q62 103 182 103q44 0 91 -15q39 -12 79 -30q70 -33 125 -33q44 0 72 25t37 59h147q0 -196 -61 -297q-60 -100 -182 -100q-47 0 -90 14q-34 11 -80 31q-68 32 -125 32q-45 0 -72 -24q-28 -25 -37 -59h-147z" />
    <glyph glyph-name="uni0304" unicode="&#x304;" horiz-adv-x="0" 
d="M-25 1217h-903v339h903v-339z" />
    <glyph glyph-name="uni0306" unicode="&#x306;" horiz-adv-x="0" 
d="M-729 1253l-8 -4q-107 47 -164 125q-57 77 -57 178h337q0 -40 35 -61t92 -21q55 0 93 23q34 21 34 61h338q0 -101 -57 -178q-57 -78 -164 -125q-102 -45 -239 -45q-134 0 -240 47z" />
    <glyph glyph-name="uni0307" unicode="&#x307;" horiz-adv-x="0" 
d="M-25 1217h-507v339h507v-339z" />
    <glyph glyph-name="uni0308" unicode="&#x308;" horiz-adv-x="0" 
d="M-596 1217h-508v339h508v-339zM-25 1217h-507v339h507v-339z" />
    <glyph glyph-name="uni030A" unicode="&#x30a;" horiz-adv-x="0" 
d="M-457 1245l-4 -4q-65 36 -106 105q-39 65 -39 145t39 145q41 68 106 107t146 39q80 0 145 -39q67 -40 104 -107t37 -143t-37 -143q-38 -68 -104 -105q-67 -37 -143 -37q-77 0 -144 37zM-274 1448q18 18 18 43q0 27 -18 45t-43 18q-27 0 -45 -18q-19 -19 -19 -45
q0 -24 19 -43q18 -18 45 -18q25 0 43 18z" />
    <glyph glyph-name="uni030B" unicode="&#x30b;" horiz-adv-x="0" 
d="M-922 1217h-409l182 339h547zM-344 1217h-410l183 339h546z" />
    <glyph glyph-name="uni030C" unicode="&#x30c;" horiz-adv-x="0" 
d="M-592 1423l129 133h438l-260 -339h-616l-260 339h438z" />
    <glyph glyph-name="uni0312" unicode="&#x312;" horiz-adv-x="0" 
d="M-45 1835l-148 -262h168v-340h-507v385l180 217h307z" />
    <glyph glyph-name="dotbelowcomb" unicode="&#x323;" horiz-adv-x="0" 
d="M-25 -436h-507v340h507v-340z" />
    <glyph glyph-name="uni0326" unicode="&#x326;" horiz-adv-x="0" 
d="M-532 -436v340h507v-385l-180 -217h-307l147 262h-167z" />
    <glyph glyph-name="uni0327" unicode="&#x327;" horiz-adv-x="0" 
d="M-203 -55l4 2q76 -12 127 -60q49 -46 49 -123q0 -89 -67 -141q-66 -51 -172 -51h-201v186h88q47 0 47 31t-47 31h-49v180h221v-55z" />
    <glyph glyph-name="uni0328" unicode="&#x328;" horiz-adv-x="0" 
d="M-193 -428l-2 -2q-223 0 -333 55q-111 55 -111 174q0 52 29 105q27 49 86 96h497q-184 -37 -184 -86q0 -17 23 -27q19 -8 73 -8h90v-307h-168z" />
    <glyph glyph-name="uni0335" unicode="&#x335;" horiz-adv-x="0" 
d="M-621 1182h-788v288h788v-288z" />
    <glyph glyph-name="uni0336" unicode="&#x336;" horiz-adv-x="0" 
d="M-25 1116h-1673v314h1673v-314z" />
    <glyph glyph-name="uni0337" unicode="&#x337;" horiz-adv-x="0" 
d="M-25 811l-755 -449v406l755 449v-406z" />
    <glyph glyph-name="uni0338" unicode="&#x338;" horiz-adv-x="0" 
d="M-1135 0h-315l1110 1137h315z" />
    <glyph glyph-name="uni0394" unicode="&#x394;" horiz-adv-x="1716" 
d="M1300 1556l443 -1556h-1770l443 1556h884zM1094 420l-236 940l-235 -940h471z" />
    <glyph glyph-name="uni03A9" unicode="&#x3a9;" horiz-adv-x="1712" 
d="M1544 631v-6q-120 -138 -332 -209h381v-420h-698v532q116 52 172 158q55 104 55 221q0 75 -26 137q-27 65 -88 105q-59 39 -154 39t-154 -39q-61 -40 -88 -105q-26 -62 -26 -137q0 -117 55 -221q55 -103 172 -156v-532h-698v420h381q-212 71 -332 209q-119 137 -119 331
q0 187 102 328q104 144 285 219q188 78 422 78q239 0 422 -76t285 -217t102 -327q0 -195 -119 -332z" />
    <glyph glyph-name="uni03BC" unicode="&#x3bc;" horiz-adv-x="1507" 
d="M1464 362v-366h-125q-155 0 -254 12t-167 51q-70 41 -105 117q-9 25 -12 43q-61 -174 -213 -227v-395h-508v1538h508v-605v-4q0 -106 24 -159q24 -52 78 -52q58 0 80 54q21 53 21 163v605h507v-670v-4q0 -47 15 -68q14 -20 45 -26q35 -7 88 -7h18z" />
    <glyph glyph-name="pi" unicode="&#x3c0;" horiz-adv-x="1585" 
d="M1341 774l-2 -338v-4q0 -33 19 -49q18 -15 43 -18q24 -3 65 -3h50v-362h-207q-137 0 -246 41q-106 40 -168 123q-61 82 -61 201v4v405h-115v-774h-508v774h-172v363h1474v-363h-172z" />
    <glyph glyph-name="uni0E3F" unicode="&#xe3f;" horiz-adv-x="1509" 
d="M1323 168l-2 -4q-107 -107 -320 -148v-288h-516v268h-360v1556h360v258h516v-280q197 -41 299 -146q103 -106 103 -245q0 -147 -105 -236t-270 -123q113 -12 203 -53q89 -41 145 -115t56 -180q0 -155 -109 -264zM641 1151v-199h135q45 0 74 29q27 27 27 68t-27 71
q-28 31 -74 31h-135zM641 614l-2 -217h133q57 0 96 31q37 30 37 78t-37 78t-94 30h-133z" />
    <glyph glyph-name="Wgrave" unicode="&#x1e80;" horiz-adv-x="2375" 
d="M1720 186l140 1370h479l-180 -1556h-854l-117 1409l-117 -1409h-854l-180 1556h479l139 -1370l133 1370h799zM1442 1653h-500l-442 340h704z" />
    <glyph glyph-name="wgrave" unicode="&#x1e81;" horiz-adv-x="1947" 
d="M1405 176l84 961h418l-113 -1137h-752l-67 977l-70 -977h-751l-113 1137h418l84 -961l84 961h694zM1212 1217h-473l-420 339h678z" />
    <glyph glyph-name="Wacute" unicode="&#x1e82;" horiz-adv-x="2375" 
d="M1720 186l140 1370h479l-180 -1556h-854l-117 1409l-117 -1409h-854l-180 1556h479l139 -1370l133 1370h799zM1434 1653h-500l237 340h705z" />
    <glyph glyph-name="wacute" unicode="&#x1e83;" horiz-adv-x="1947" 
d="M1405 176l84 961h418l-113 -1137h-752l-67 977l-70 -977h-751l-113 1137h418l84 -961l84 961h694zM1208 1217h-473l215 339h678z" />
    <glyph glyph-name="Wdieresis" unicode="&#x1e84;" horiz-adv-x="2375" 
d="M1720 186l140 1370h479l-180 -1556h-854l-117 1409l-117 -1409h-854l-180 1556h479l139 -1370l133 1370h799zM1159 1653h-524v340h524v-340zM1741 1653h-524v340h524v-340z" />
    <glyph glyph-name="wdieresis" unicode="&#x1e85;" horiz-adv-x="1947" 
d="M1405 176l84 961h418l-113 -1137h-752l-67 977l-70 -977h-751l-113 1137h418l84 -961l84 961h694zM940 1217h-508v339h508v-339zM1511 1217h-507v339h507v-339z" />
    <glyph glyph-name="uni1E9E" unicode="&#x1e9e;" horiz-adv-x="1638" 
d="M1247 848l-2 10q105 -27 182 -86q78 -60 121 -141q43 -82 43 -180q0 -154 -67 -258t-191 -160t-295 -56q-80 0 -153 13q-60 11 -131 37v344q55 -28 80 -37q34 -12 75 -12q65 0 105 30q39 29 39 92q0 60 -60 91q-59 30 -159 30h-50v375l234 197h-389v-1137h-525v1556h1401
v-491z" />
    <glyph glyph-name="uni1EA0" unicode="&#x1ea0;" horiz-adv-x="1736" 
d="M1753 0h-545l-82 330h-516l-82 -330h-544l442 1556h885zM868 1360l-151 -610h305zM1130 -436h-524v340h524v-340z" />
    <glyph glyph-name="uni1EA1" unicode="&#x1ea1;" horiz-adv-x="1378" 
d="M1047 1104v-4q135 -61 196 -166q62 -106 62 -242v-4v-690h-498v176q-44 -89 -131 -147q-91 -60 -221 -60q-115 0 -211 47q-94 46 -150 133q-55 85 -55 203q0 176 129 258q132 84 346 105l289 26v6v5q0 50 -25 86q-24 34 -76 34t-79 -30q-28 -31 -31 -70h-506
q15 130 98 219q84 90 215 133q130 43 299 43q215 0 349 -61zM758 307l-4 -2q38 59 41 150l-109 -11q-63 -6 -98 -30t-35 -70q0 -39 29 -68q26 -26 77 -26q62 0 99 57zM977 -444h-508v340h508v-340z" />
    <glyph glyph-name="uni1EB8" unicode="&#x1eb8;" horiz-adv-x="1374" 
d="M629 580v-160h667v-420h-1192v1556h1174v-419h-649v-138h635v-419h-635zM973 -436h-524v340h524v-340z" />
    <glyph glyph-name="uni1EB9" unicode="&#x1eb9;" horiz-adv-x="1357" 
d="M1311 434l-758 4q9 -85 41 -129q29 -39 80 -39q41 0 65 21q28 25 47 61h506q-67 -180 -229 -278q-163 -99 -387 -99q-183 0 -328 74q-144 74 -227 209q-82 134 -82 313q0 175 84 312q83 135 227 209q143 73 326 73q182 0 323 -69q147 -72 232 -215q86 -145 86 -357
q0 -40 -6 -90zM598 836v-2q-30 -38 -45 -123h246q-9 79 -39 120t-80 41q-53 0 -82 -36zM942 -436h-508v340h508v-340z" />
    <glyph glyph-name="uni1EBC" unicode="&#x1ebc;" horiz-adv-x="1374" 
d="M629 580v-160h667v-420h-1192v1556h1174v-419h-649v-138h635v-419h-635zM266 1653h-6q0 197 68 303q67 104 194 104q50 0 96 -14q39 -12 87 -31q38 -14 71 -24q30 -9 66 -9q47 0 78 25q32 26 41 59h151q0 -197 -68 -303q-67 -104 -192 -104q-74 0 -184 45q-46 18 -68 25
q-27 8 -65 8q-45 0 -76 -25q-32 -26 -41 -59h-152z" />
    <glyph glyph-name="uni1EBD" unicode="&#x1ebd;" horiz-adv-x="1357" 
d="M1311 434l-758 4q9 -85 41 -129q29 -39 80 -39q41 0 65 21q28 25 47 61h506q-67 -180 -229 -278q-163 -99 -387 -99q-183 0 -328 74q-144 74 -227 209q-82 134 -82 313q0 175 84 312q83 135 227 209q143 73 326 73q182 0 323 -69q147 -72 232 -215q86 -145 86 -357
q0 -40 -6 -90zM598 836v-2q-30 -38 -45 -123h246q-9 79 -39 120t-80 41q-53 0 -82 -36zM276 1217v-5q0 196 62 299t182 103q44 0 90 -15q43 -14 80 -30q70 -33 125 -33q44 0 72 25t37 59h147q0 -196 -61 -297q-60 -100 -183 -100q-47 0 -90 14q-34 11 -80 31q-68 32 -125 32
q-44 0 -71 -24q-28 -25 -37 -59h-148z" />
    <glyph glyph-name="uni1ECA" unicode="&#x1eca;" horiz-adv-x="733" 
d="M629 0h-525v1556h525v-1556zM629 -436h-525v340h525v-340z" />
    <glyph glyph-name="uni1ECB" unicode="&#x1ecb;" horiz-adv-x="675" 
d="M592 0h-508v1137h508v-1137zM592 1217h-508v339h508v-339zM594 -436h-508v340h508v-340z" />
    <glyph glyph-name="uni1ECC" unicode="&#x1ecc;" horiz-adv-x="1777" 
d="M451 66q-188 93 -297 276q-107 180 -107 434t107 434q109 184 297 277q194 96 438 96t438 -96q188 -93 297 -277q107 -180 107 -434t-107 -434q-109 -183 -297 -276q-196 -97 -438 -97t-438 97zM1112 473q80 106 80 305t-80 305q-80 105 -223 105t-223 -105
q-80 -106 -80 -305t80 -305q79 -104 223 -104t223 104zM1151 -436h-524v340h524v-340z" />
    <glyph glyph-name="uni1ECD" unicode="&#x1ecd;" horiz-adv-x="1396" 
d="M348 45v-2q-148 75 -229 213q-80 136 -80 307t80 307q81 138 229 213q153 78 350 78q198 0 351 -78q148 -75 229 -213q80 -136 80 -307t-80 -307q-81 -138 -229 -213q-149 -76 -351 -76q-197 0 -350 78zM805 362h-8q34 67 34 201q0 138 -32 203q-34 70 -107 70
q-72 0 -106 -70q-33 -67 -33 -203q0 -133 35 -201q34 -67 108 -67q75 0 109 67zM942 -440h-508v340h508v-340z" />
    <glyph glyph-name="uni1EE4" unicode="&#x1ee4;" horiz-adv-x="1601" 
d="M264 137l-2 -6q-174 168 -174 485v5v929h524v-991v-4q0 -88 50 -141q49 -52 137 -52t139 54q49 52 49 145v991h524v-929q0 -318 -174 -486q-176 -170 -536 -170q-361 0 -537 170zM1061 -444h-524v340h524v-340z" />
    <glyph glyph-name="uni1EE5" unicode="&#x1ee5;" horiz-adv-x="1376" 
d="M784 1137l504 -4v-1137h-497v213q-40 -113 -129 -178q-88 -64 -240 -64q-194 0 -270 113q-78 116 -78 315v4v736h508v-605v-4q0 -106 24 -159q24 -52 78 -52q58 0 80 54q20 50 20 163v605zM940 -440h-508v340h508v-340z" />
    <glyph glyph-name="Ygrave" unicode="&#x1ef2;" horiz-adv-x="1552" 
d="M1012 1556h590l-564 -989v-567h-524v567l-563 989h590l235 -491zM1063 1653h-500l-442 340h704z" />
    <glyph glyph-name="ygrave" unicode="&#x1ef3;" horiz-adv-x="1376" 
d="M664 299l165 838h539l-328 -1538h-516l101 505h-387l-234 1033h500zM928 1217h-473l-420 339h678z" />
    <glyph glyph-name="uni1EF8" unicode="&#x1ef8;" horiz-adv-x="1552" 
d="M1012 1556h590l-564 -989v-567h-524v567l-563 989h590l235 -491zM352 1653h-6q0 197 68 303q67 104 194 104q51 0 97 -14q35 -11 86 -31q38 -14 71 -24q30 -9 66 -9q47 0 78 25q32 26 41 59h151q0 -197 -68 -303q-67 -104 -192 -104q-74 0 -184 45q-46 18 -68 25
q-27 8 -65 8q-45 0 -76 -25q-32 -26 -41 -59h-152z" />
    <glyph glyph-name="uni1EF9" unicode="&#x1ef9;" horiz-adv-x="1376" 
d="M664 299l165 838h539l-328 -1538h-516l101 505h-387l-234 1033h500zM266 1217v-5q0 196 62 299t182 103q44 0 90 -15q43 -14 80 -30q70 -33 125 -33q44 0 72 25q27 24 36 59h148q0 -194 -62 -297q-60 -100 -182 -100q-47 0 -90 14q-34 11 -80 31q-68 32 -125 32
q-44 0 -71 -24q-28 -25 -37 -59h-148z" />
    <glyph glyph-name="uni2009" unicode="&#x2009;" horiz-adv-x="256" 
 />
    <glyph glyph-name="uni2011" unicode="&#x2011;" horiz-adv-x="901" 
d="M815 387h-729v416h729v-416z" />
    <glyph glyph-name="endash" unicode="&#x2013;" horiz-adv-x="1130" 
d="M1044 387h-958v416h958v-416z" />
    <glyph glyph-name="emdash" unicode="&#x2014;" horiz-adv-x="1755" 
d="M1669 387h-1583v416h1583v-416z" />
    <glyph glyph-name="quoteleft" unicode="&#x2018;" horiz-adv-x="653" 
d="M569 1556l-153 -311h164v-430h-508v488l176 253h321z" />
    <glyph glyph-name="quoteright" unicode="&#x2019;" horiz-adv-x="641" 
d="M76 1126v430h508v-487l-176 -254h-322l154 311h-164z" />
    <glyph glyph-name="quotesinglbase" unicode="&#x201a;" horiz-adv-x="692" 
d="M92 0v430h508v-487l-176 -254h-322l154 311h-164z" />
    <glyph glyph-name="quotedblleft" unicode="&#x201c;" horiz-adv-x="1249" 
d="M238 1556h321l-153 -311h163v-430h-508v488zM1155 1556l-154 -311h164v-430h-508v488l177 253h321z" />
    <glyph glyph-name="quotedblright" unicode="&#x201d;" horiz-adv-x="1236" 
d="M682 1126v430h508v-487l-176 -254h-322l154 311h-164zM86 1126v430h508v-487l-176 -254h-322l154 311h-164z" />
    <glyph glyph-name="quotedblbase" unicode="&#x201e;" horiz-adv-x="1288" 
d="M688 0v430h508v-487l-176 -254h-322l154 311h-164zM92 0v430h508v-487l-176 -254h-322l154 311h-164z" />
    <glyph glyph-name="dagger" unicode="&#x2020;" horiz-adv-x="1275" 
d="M891 1227h289v-412h-289v-815h-508v815h-287v412h287v329h508v-329z" />
    <glyph glyph-name="daggerdbl" unicode="&#x2021;" horiz-adv-x="1275" 
d="M1180 1227v-412h-289v-90h289v-412h-289v-313h-508v313h-289v412h289v90h-287v412h287v329h508v-329h289z" />
    <glyph glyph-name="bullet" unicode="&#x2022;" horiz-adv-x="1138" 
d="M342 197l-2 -2q-106 62 -166 165q-61 104 -61 226q0 121 61 225q61 105 166 166q104 61 225 61q122 0 226 -61q103 -60 165 -166t62 -227q0 -123 -62 -226q-61 -100 -161 -161q-103 -62 -226 -62q-121 0 -227 62z" />
    <glyph glyph-name="ellipsis" unicode="&#x2026;" horiz-adv-x="2076" 
d="M600 0h-508v430h508v-430zM1292 0h-508v430h508v-430zM1985 0h-508v430h508v-430z" />
    <glyph glyph-name="perthousand" unicode="&#x2030;" horiz-adv-x="2582" 
d="M823 895v-4q-49 -100 -141 -150q-91 -49 -219 -49t-219 49q-93 50 -142 152q-49 101 -49 246q0 144 49 245q49 102 142 152q91 49 219 49t219 -49q92 -50 141 -150q49 -101 49 -245q0 -145 -49 -246zM385 -4l901 1556h426l-901 -1556h-426zM397 1020v-4q6 -40 21 -58
t43 -18t43 18q14 16 20 60q6 40 6 117q0 75 -6 116q-6 44 -20 60q-15 18 -43 18t-43 -18t-21 -58q-6 -41 -6 -116q0 -77 6 -117zM2339 803v-4q92 -50 141 -150q49 -101 49 -246q0 -144 -49 -245q-49 -100 -141 -150q-91 -49 -219 -49q-153 0 -240 100q-93 -100 -242 -100
q-128 0 -219 49t-141 152q-49 101 -49 246q0 144 49 245q50 103 141 152t219 49q149 0 242 -100q87 100 240 100q128 0 219 -49zM1677 227v-4q15 18 21 60q6 40 6 116q0 77 -6 117q-6 41 -21 59q-16 19 -43 19t-43 -19q-14 -17 -20 -57t-6 -117q0 -75 6 -116t20 -58
q15 -18 43 -18t43 18zM2159 223v-4q14 16 20 60q6 41 6 116q0 77 -6 117q-6 43 -20 59q-16 19 -43 19t-43 -19q-15 -18 -21 -57q-6 -40 -6 -117q0 -75 6 -116q6 -40 21 -58t43 -18t43 18z" />
    <glyph glyph-name="minute" unicode="&#x2032;" horiz-adv-x="661" 
d="M451 877h-400l88 679h529z" />
    <glyph glyph-name="second" unicode="&#x2033;" horiz-adv-x="1249" 
d="M451 877h-400l88 679h529zM1038 877h-399l88 679h528z" />
    <glyph glyph-name="guilsinglleft" unicode="&#x2039;" horiz-adv-x="987" 
d="M326 1022h602l-279 -449l279 -471h-602l-263 471z" />
    <glyph glyph-name="guilsinglright" unicode="&#x203a;" horiz-adv-x="987" 
d="M59 1022h603l262 -449l-262 -471h-603l279 471z" />
    <glyph glyph-name="uni2042" unicode="&#x2042;" horiz-adv-x="1732" 
d="M1190 1442l92 -260l-180 -60l125 -159l-232 -170l-129 165l-131 -165l-231 170l125 159l-180 60l94 260l176 -58v172h293v-172zM709 621l92 -261l-180 -59l124 -160l-231 -170l-129 166l-131 -166l-231 170l124 160l-180 59l94 261l177 -58v172h292v-172zM1671 621
l92 -261l-180 -59l125 -160l-231 -170l-129 166l-131 -166l-232 170l125 160l-180 59l94 261l176 -58v172h293v-172z" />
    <glyph glyph-name="fraction" unicode="&#x2044;" horiz-adv-x="532" 
d="M-23 0h-376l954 1556h377z" />
    <glyph glyph-name="uni2070" unicode="&#x2070;" horiz-adv-x="786" 
d="M123 1073q-92 103 -92 301t92 301t268 103t268 -103q93 -104 93 -301t-93 -301q-91 -102 -268 -102t-268 102zM453 1227h-4q16 46 16 145q0 105 -14 146q-15 43 -62 43q-46 0 -61 -43q-15 -44 -15 -146q0 -96 17 -145q15 -43 61 -43q47 0 62 43z" />
    <glyph glyph-name="uni2074" unicode="&#x2074;" horiz-adv-x="788" 
d="M662 1362h98v-221h-98v-156h-281v156h-348v280l127 342h502v-401zM381 1642l-115 -280h115v280z" />
    <glyph glyph-name="uni2075" unicode="&#x2075;" horiz-adv-x="763" 
d="M606 1487l-8 -10q54 -26 92 -86q37 -58 37 -148q0 -95 -49 -156q-50 -62 -129 -92t-174 -30q-106 0 -180 32q-79 34 -125 95q-47 62 -50 149h291q0 -26 19 -45q18 -18 47 -18t47 18t18 47t-18 47q-19 19 -49 19q-22 0 -37 -9q-16 -10 -19 -24l-282 24l37 461h600v-221
h-338l-10 -133q21 54 61 80q43 29 98 29q61 0 121 -29z" />
    <glyph glyph-name="uni2076" unicode="&#x2076;" horiz-adv-x="788" 
d="M625 1475l-13 -7q62 -30 99 -88t37 -141q0 -78 -46 -139q-48 -63 -124 -99t-187 -36q-110 0 -192 43q-83 44 -129 135q-47 92 -47 227q0 132 47 221q46 89 129 135q82 46 194 46q98 0 174 -31q73 -30 117 -86q42 -53 51 -121h-286q-3 14 -17 25q-11 8 -29 8
q-46 0 -69 -45q-24 -46 -27 -111q16 39 62 66q48 28 110 28q85 0 146 -30zM438 1194v-2q21 15 21 43t-21 43q-22 16 -57 16q-37 0 -57 -14q-21 -15 -21 -43t21 -43q22 -16 57 -16t57 16z" />
    <glyph glyph-name="uni2077" unicode="&#x2077;" horiz-adv-x="651" 
d="M23 1542v221h598v-280l-250 -498h-338l311 557h-321z" />
    <glyph glyph-name="uni2078" unicode="&#x2078;" horiz-adv-x="796" 
d="M715 1325h-6q53 -50 53 -121t-43 -123q-44 -53 -127 -80q-86 -28 -199 -28q-112 0 -198 28q-81 26 -125 80q-43 52 -43 123t53 121q52 49 153 61q-186 49 -186 177q0 70 45 118q48 51 125 74q83 25 180 25q98 0 181 -25q76 -23 124 -74q46 -49 46 -118q0 -128 -187 -177
q102 -12 154 -61zM342 1552q-18 -12 -18 -30q0 -19 18 -31t49 -12t49 12q19 13 19 31q0 17 -19 30q-20 13 -49 13t-49 -13zM453 1198h-2q22 16 22 37t-22 37q-20 14 -62 14q-41 0 -61 -14q-21 -15 -21 -37q0 -21 23 -37q20 -14 61 -14q42 0 62 14z" />
    <glyph glyph-name="uni2079" unicode="&#x2079;" horiz-adv-x="788" 
d="M580 1735l-2 2q82 -43 129 -135t47 -228q0 -132 -47 -221t-129 -135q-80 -45 -193 -45q-98 0 -174 31q-73 30 -117 86q-42 53 -51 120h287q3 -14 16 -24q11 -8 29 -8q47 0 71 47q26 51 29 110q-15 -39 -61 -65q-50 -29 -111 -29q-79 0 -143 31q-60 29 -99 90
q-36 56 -36 141q0 79 45 139q46 61 127 99q78 37 188 37q113 0 195 -43zM446 1464v-2q21 15 21 43t-21 43q-24 17 -57 17t-57 -17q-21 -15 -21 -43t21 -43q20 -14 57 -14q35 0 57 16z" />
    <glyph glyph-name="uni207A" unicode="&#x207a;" horiz-adv-x="671" 
d="M440 1466h183v-204h-183v-185h-209v185h-182v204h182v185h209v-185z" />
    <glyph glyph-name="uni207B" unicode="&#x207b;" horiz-adv-x="616" 
d="M563 1262h-510v204h510v-204z" />
    <glyph glyph-name="uni207C" unicode="&#x207c;" horiz-adv-x="696" 
d="M635 1384h-574v205h574v-205zM635 1141h-574v205h574v-205z" />
    <glyph glyph-name="uni207D" unicode="&#x207d;" horiz-adv-x="512" 
d="M209 879l4 -5q-160 248 -160 494q0 142 43 258q40 108 115 229h276q-67 -109 -112 -229q-43 -116 -43 -256q0 -145 43 -264q44 -121 110 -227h-276z" />
    <glyph glyph-name="uni207E" unicode="&#x207e;" horiz-adv-x="512" 
d="M27 879l4 4q66 106 110 227q43 119 43 264q0 140 -43 256q-46 123 -112 230h276q74 -120 115 -230q43 -116 43 -258q0 -245 -160 -493h-276z" />
    <glyph glyph-name="uni2080" unicode="&#x2080;" horiz-adv-x="786" 
d="M123 -145q-92 103 -92 301t92 301q92 102 268 102q177 0 268 -102q93 -104 93 -301t-93 -301q-92 -103 -268 -103t-268 103zM453 8h-4q16 46 16 146q0 104 -14 145q-15 43 -62 43q-46 0 -61 -43t-15 -145q0 -97 17 -146q15 -43 61 -43q47 0 62 43z" />
    <glyph glyph-name="uni2081" unicode="&#x2081;" horiz-adv-x="518" 
d="M236 545h223v-778h-281v438h-168v221h13q79 0 135 29q52 27 73 80z" />
    <glyph glyph-name="uni2082" unicode="&#x2082;" horiz-adv-x="755" 
d="M362 -12l355 -8v-222h-678v281l358 229q14 8 21 19q6 9 6 20q0 16 -12 25q-13 10 -33 10q-23 0 -39 -16q-14 -14 -14 -37h-287q0 79 47 141q44 58 123 94q78 35 166 35q157 0 246 -63q92 -65 92 -181q0 -65 -37 -114q-38 -51 -107 -90z" />
    <glyph glyph-name="uni2083" unicode="&#x2083;" horiz-adv-x="739" 
d="M647 109l-2 -5q62 -47 62 -129q0 -70 -43 -122q-44 -54 -119 -80q-77 -27 -185 -27q-163 0 -251 76q-90 78 -99 203h287q0 -66 61 -66q28 0 43 12q17 14 17 31q0 27 -29 37q-30 10 -86 10h-67v213h67q98 0 98 45q0 15 -10 25q-8 8 -31 8q-22 0 -36 -14q-15 -15 -15 -37
h-286q6 80 53 139q45 56 121 92q70 33 161 33q93 0 170 -25q74 -24 117 -73t43 -113q0 -83 -49 -123t-145 -55q92 -9 153 -55z" />
    <glyph glyph-name="uni2084" unicode="&#x2084;" horiz-adv-x="788" 
d="M662 143h98v-221h-98v-155h-281v155h-348v281l127 342h502v-402zM381 424l-115 -281h115v281z" />
    <glyph glyph-name="uni2085" unicode="&#x2085;" horiz-adv-x="763" 
d="M606 268l-8 -10q54 -26 92 -86q37 -58 37 -147q0 -95 -49 -156q-50 -62 -129 -92q-82 -31 -174 -31q-104 0 -180 33q-80 35 -125 94q-47 62 -50 150h291q0 -27 19 -46q18 -18 47 -18t47 18t18 48q0 29 -18 47t-49 18q-24 0 -37 -8q-16 -10 -19 -25l-282 25l37 461h600
v-221h-338l-10 -134q21 54 61 80q43 29 98 29q61 0 121 -29z" />
    <glyph glyph-name="uni2086" unicode="&#x2086;" horiz-adv-x="788" 
d="M625 256l-13 -6q62 -30 99 -88t37 -142q0 -78 -46 -139t-124 -98t-187 -37q-110 0 -192 43q-83 43 -129 135q-47 92 -47 228q0 132 47 221q46 89 129 135q80 45 194 45q98 0 174 -31q73 -30 117 -86q42 -53 51 -121h-286q-3 14 -17 25q-11 8 -29 8q-46 0 -69 -45
q-24 -47 -27 -110q15 38 62 65q50 29 110 29q82 0 146 -31zM438 -25v-2q21 15 21 43t-21 43q-24 17 -57 17q-36 0 -57 -15t-21 -43t21 -43q22 -16 57 -16t57 16z" />
    <glyph glyph-name="uni2087" unicode="&#x2087;" horiz-adv-x="651" 
d="M23 324v221h598v-281l-250 -497h-338l311 557h-321z" />
    <glyph glyph-name="uni2088" unicode="&#x2088;" horiz-adv-x="796" 
d="M715 106h-6q53 -50 53 -120q0 -71 -43 -123q-44 -53 -127 -80q-89 -29 -199 -29q-109 0 -198 29q-81 26 -125 80q-43 52 -43 123q0 70 53 120t153 62q-186 49 -186 176q0 71 45 119q48 51 125 74q79 24 180 24t181 -24q76 -23 124 -74q46 -49 46 -119q0 -127 -187 -176
q101 -12 154 -62zM342 334q-18 -12 -18 -31t18 -31t49 -12t49 12q19 13 19 31t-19 31q-18 12 -49 12t-49 -12zM453 -20h-2q22 16 22 36q0 21 -22 37q-21 15 -62 15q-40 0 -61 -15t-21 -37q0 -20 23 -36q21 -15 61 -15q41 0 62 15z" />
    <glyph glyph-name="uni2089" unicode="&#x2089;" horiz-adv-x="788" 
d="M580 516l-2 2q82 -44 129 -135q47 -92 47 -227q0 -133 -47 -222q-47 -88 -129 -135q-80 -45 -193 -45q-98 0 -174 31q-73 30 -117 86q-42 53 -51 121h287q3 -15 16 -25q11 -8 29 -8q47 0 71 47q26 51 29 111q-16 -40 -61 -66q-48 -28 -111 -28q-81 0 -143 30
q-60 29 -99 90q-36 56 -36 142q0 79 45 139q45 59 127 98q78 37 188 37q113 0 195 -43zM446 246v-2q21 15 21 43t-21 43q-22 16 -57 16t-57 -16q-21 -15 -21 -43t21 -43t57 -15q33 0 57 17z" />
    <glyph glyph-name="uni208A" unicode="&#x208a;" horiz-adv-x="671" 
d="M440 250h183v-205h-183v-184h-209v184h-182v205h182v184h209v-184z" />
    <glyph glyph-name="uni208B" unicode="&#x208b;" horiz-adv-x="616" 
d="M563 45h-510v205h510v-205z" />
    <glyph glyph-name="uni208C" unicode="&#x208c;" horiz-adv-x="696" 
d="M635 168h-574v205h574v-205zM635 -76h-574v205h574v-205z" />
    <glyph glyph-name="uni208D" unicode="&#x208d;" horiz-adv-x="512" 
d="M207 -338l4 -4q-160 248 -160 494q0 142 43 258q40 108 115 229h276q-67 -109 -112 -229q-43 -116 -43 -256q0 -146 43 -265q44 -121 110 -227h-276z" />
    <glyph glyph-name="uni208E" unicode="&#x208e;" horiz-adv-x="512" 
d="M29 -338l4 4q65 104 110 228q43 119 43 264q0 140 -43 256q-45 120 -112 229h276q75 -121 115 -229q43 -116 43 -258q0 -246 -160 -494h-276z" />
    <glyph glyph-name="uni20A9" unicode="&#x20a9;" horiz-adv-x="2152" 
d="M2073 1145v-336h-238l-6 -90h196v-336h-215l-20 -383h-662l-51 1417l-53 -1417h-662l-20 383h-215v336h197l-7 90h-237v336h219l-23 411h373l62 -1378l65 1378h600l66 -1378l61 1378h373l-23 -411h220z" />
    <glyph glyph-name="Euro" unicode="&#x20ac;" horiz-adv-x="1755" 
d="M1683 451l-4 -7q-82 -245 -258 -362q-175 -117 -417 -117q-169 0 -314 62q-144 62 -248 180q-102 116 -149 289h-236l86 241h113v39v33h-176l86 242h125q47 170 147 288q103 122 244 183q140 61 307 61q157 0 293 -53q134 -52 236 -160q100 -106 153 -260h-526
q-20 33 -37 53q-20 23 -45 37q-31 17 -72 17q-126 0 -172 -166h484l-86 -242h-429v-33v-39h404l-86 -241h-283q53 -160 185 -160q48 0 84 31q34 29 65 84h526z" />
    <glyph glyph-name="uni20B8" unicode="&#x20b8;" horiz-adv-x="1374" 
d="M57 1221v335h1260v-335h-1260zM428 795h-371v335h1260v-335h-371v-795h-518v795z" />
    <glyph glyph-name="uni20B9" unicode="&#x20b9;" horiz-adv-x="1509" 
d="M1442 1221h-301q15 -43 18 -91h283v-335h-363q-66 -85 -166 -136q-98 -50 -237 -69l737 -592h-741l-574 491v498h416q53 0 86 23q31 22 31 59q0 35 -31 57q-30 21 -86 21h-416v409h1344v-335z" />
    <glyph glyph-name="uni20BA" unicode="&#x20ba;" horiz-adv-x="1605" 
d="M1561 645h-2q0 -335 -173 -491q-172 -156 -518 -156h-632v459l-134 -41v336l134 41v90l-134 -41v336l134 41v335h518v-174l333 103v-336l-333 -103v-90l333 103v-336l-333 -103v-210h71q89 0 136 24t65 74t18 139h517z" />
    <glyph glyph-name="uni20BD" unicode="&#x20bd;" horiz-adv-x="1638" 
d="M774 588v-92h328v-336h-328v-162h-518v162h-158v336h158v90h-158v336h158v632h623q229 0 381 -57q157 -59 235 -168q80 -112 80 -266q0 -234 -178 -354q-180 -121 -518 -121h-105zM774 1145v-225h129q71 0 105 30t34 82t-34 82q-36 31 -105 31h-129z" />
    <glyph glyph-name="uni20BF" unicode="&#x20bf;" horiz-adv-x="1495" 
d="M1362 217l2 -8q-65 -93 -197 -148v-337h-436v268h-45v-268h-436v268h-127v1556h127v258h436v-258h45v258h436v-336q113 -55 172 -141q60 -88 60 -192q0 -147 -105 -236t-270 -123q113 -12 203 -53q89 -41 145 -115q55 -73 55 -180q0 -121 -65 -213zM850 1118
q-28 31 -74 31h-135v-199h135q45 0 74 29q27 27 27 68t-27 71zM641 610l-2 -217h133q57 0 96 31q37 30 37 78t-37 78t-94 30h-133z" />
    <glyph glyph-name="uni2113" unicode="&#x2113;" horiz-adv-x="1427" 
d="M807 604l-6 -186v-4q0 -117 155 -117q119 0 234 59v-309q-114 -43 -186 -59q-84 -19 -193 -19q-230 0 -358 94q-131 96 -152 271l-100 -53l-154 278l248 133v445q0 130 67 231t197 160t305 59q182 0 301 -55q118 -55 178 -148q58 -91 58 -192q0 -108 -49 -193
q-50 -85 -138 -153q-90 -68 -223 -141zM823 1233l2 -6q-24 -24 -24 -78v-182q78 54 117 104q40 52 40 105q0 38 -18 59q-19 22 -53 22q-40 0 -64 -24z" />
    <glyph glyph-name="uni2116" unicode="&#x2116;" horiz-adv-x="2850" 
d="M2593 1534l-4 -6q103 -51 159 -144q56 -92 56 -208q0 -117 -56 -209q-56 -93 -159 -144q-102 -51 -242 -51q-136 0 -242 53q-103 51 -159 144q-56 92 -56 209q0 116 56 208q58 95 159 146q106 53 244 53q142 0 244 -51zM1010 1548l280 -1349v1349h471v-1556h-882
l-281 1349v-1349h-471v1556h883zM2390 1059h-4q12 38 12 115q0 76 -12 114q-12 37 -45 37t-45 -37q-12 -38 -12 -114q0 -78 12 -115t47 -37t47 37z" />
    <glyph glyph-name="uni2117" unicode="&#x2117;" horiz-adv-x="1843" 
d="M1343 1505l-4 -8q195 -115 308 -307q114 -193 114 -420q0 -230 -112 -420q-113 -192 -308 -307q-192 -113 -423 -113q-229 0 -424 115t-308 307q-112 190 -112 422q0 229 114 422q113 192 308 307t424 115q231 0 423 -113zM1225 236l-4 -5q138 81 223 226q84 144 84 307
q0 167 -82 307q-84 144 -223 225q-144 84 -310 84q-169 0 -309 -82q-139 -81 -223 -225q-82 -140 -82 -307q0 -163 84 -307q85 -145 223 -226t309 -81q166 0 310 84zM997 1196l-4 4q128 0 207 -39q83 -41 123 -110q41 -71 41 -166q0 -98 -39 -166q-41 -71 -123 -111
q-79 -39 -205 -39h-88v-245h-329v872h417zM973 842v4q19 0 31 12t12 31t-12 31t-31 12h-68v-90h68z" />
    <glyph glyph-name="uni2120" unicode="&#x2120;" horiz-adv-x="2148" 
d="M647 1260l-2 -13q102 -21 160 -88q59 -68 59 -172q0 -136 -104 -203t-287 -67q-104 0 -192 31q-86 30 -142 92q-55 61 -67 147h321q15 -31 37 -43q21 -12 62 -12q71 0 71 22q0 14 -20 23q-21 9 -68 18l-143 29q-118 24 -180 92t-62 170q0 85 49 146t133 96t189 35
q176 0 268 -68q93 -69 123 -176h-324q-9 16 -26 24q-22 11 -43 11q-27 0 -45 -6q-19 -6 -19 -17t8 -16t35 -12q12 -3 66 -15zM2034 1544v-809h-291v635l-60 -635h-436l-59 635v-635h-291v809h535l34 -477l33 477h535z" />
    <glyph glyph-name="trademark" unicode="&#x2122;" horiz-adv-x="2056" 
d="M248 1284h-197v272h725v-272h-196v-536h-332v536zM1950 1556v-808h-291v634l-60 -634h-436l-59 634v-634h-291v808h535l34 -477l33 477h535z" />
    <glyph glyph-name="uni2150" unicode="&#x2150;" horiz-adv-x="1767" 
d="M1118 557v221h598v-280l-250 -498h-338l312 557h-322zM268 1556h224v-778h-281v439h-168v221h12q81 0 135 28q53 27 74 80zM530 0h-376l954 1556h377z" />
    <glyph glyph-name="uni2151" unicode="&#x2151;" horiz-adv-x="1804" 
d="M1581 750l-2 2q82 -43 129 -136q47 -92 47 -227q0 -132 -47 -221q-46 -88 -129 -135q-80 -45 -193 -45q-100 0 -174 30q-71 29 -116 86q-43 55 -52 121h287q3 -13 17 -24q11 -8 28 -8q48 0 72 47q26 51 29 110q-15 -38 -62 -65q-50 -29 -110 -29q-80 0 -144 31
q-59 29 -98 90q-37 58 -37 141q0 79 45 139q46 61 127 99q78 37 188 37q113 0 195 -43zM1448 479v-2q20 14 20 43t-20 43q-24 17 -57 17q-34 0 -58 -17q-20 -14 -20 -43t20 -43t58 -14q35 0 57 16zM264 1554h223v-778h-280v438h-168v222h12q81 0 135 28q53 27 74 80zM526 -2
h-376l954 1556h377z" />
    <glyph glyph-name="uni2152" unicode="&#x2152;" horiz-adv-x="2379" 
d="M1309 778h223v-778h-281v438h-168v221h13q79 0 135 29q53 27 74 80zM1700 88q-92 103 -92 301t92 301t268 103t268 -103q93 -104 93 -301t-93 -301q-92 -102 -268 -102t-268 102zM2030 242h-5q17 49 17 145q0 104 -14 145q-15 43 -62 43q-46 0 -61 -43t-15 -145
q0 -96 17 -145q15 -43 61 -43q47 0 62 43zM258 1554h223v-778h-280v438h-168v222h12q81 0 135 28q53 27 74 80zM520 -2h-377l955 1556h377z" />
    <glyph glyph-name="uni2153" unicode="&#x2153;" horiz-adv-x="1759" 
d="M266 1556h223v-778h-280v439h-168v221h12q81 0 135 28q53 27 74 80zM528 0h-376l954 1556h377zM1642 342l-2 -4q62 -47 62 -129q0 -71 -43 -123q-44 -54 -119 -80q-74 -26 -184 -26q-165 0 -252 75q-89 77 -98 203h286q0 -65 62 -65q28 0 43 12q16 13 16 31q0 26 -29 36
q-33 11 -86 11h-67v213h67q99 0 99 45q0 13 -11 24q-8 8 -30 8q-23 0 -37 -14t-14 -37h-287q6 81 53 140q45 56 121 92q68 32 162 32q96 0 170 -24q71 -23 116 -74q43 -49 43 -113q0 -82 -49 -122q-50 -41 -145 -56q92 -9 153 -55z" />
    <glyph glyph-name="uni2154" unicode="&#x2154;" horiz-adv-x="1972" 
d="M381 999l354 -8v-221h-678v281l359 229q13 8 20 18q6 9 6 21q0 15 -12 24q-15 11 -33 11q-22 0 -39 -17q-14 -14 -14 -37h-287q0 80 47 142q44 58 123 94q78 35 166 35q155 0 246 -64q92 -65 92 -180q0 -66 -37 -115q-39 -52 -106 -90zM750 -8h-377l954 1556h377z
M1864 334l-2 -4q61 -46 61 -129q0 -71 -43 -123q-44 -54 -119 -80q-76 -27 -184 -27q-164 0 -252 76q-89 77 -98 203h286q0 -66 62 -66q27 0 43 13t16 30q0 28 -28 37q-30 10 -86 10h-68v213h68q98 0 98 45q0 15 -10 25q-8 8 -31 8t-37 -14t-14 -37h-287q6 80 53 139
q45 56 121 92q70 33 162 33q97 0 170 -24t117 -74q43 -49 43 -113q0 -82 -50 -123q-49 -40 -145 -55q93 -9 154 -55z" />
    <glyph glyph-name="uni2155" unicode="&#x2155;" horiz-adv-x="1830" 
d="M1653 502l-8 -10q54 -26 92 -86q37 -58 37 -148q0 -94 -50 -156t-129 -92t-174 -30q-106 0 -180 32q-80 35 -125 94q-46 61 -49 150h291q0 -27 18 -45t47 -18t47 18q19 19 19 47t-19 47t-49 19q-22 0 -37 -9t-18 -24l-283 24l37 461h600v-221h-338l-10 -133q21 53 62 80
q42 28 98 28q63 0 121 -28zM256 1546h223v-778h-280v438h-168v221h12q79 0 135 29q53 27 74 80zM518 -10h-377l955 1556h377z" />
    <glyph glyph-name="uni2156" unicode="&#x2156;" horiz-adv-x="2048" 
d="M383 999l354 -8v-221h-678v281l359 229q13 8 20 18q6 9 6 21q0 15 -12 24q-15 11 -33 11q-22 0 -39 -17q-14 -14 -14 -37h-287q0 80 47 142q44 58 123 94q78 35 166 35q155 0 246 -64q92 -65 92 -180q0 -66 -37 -115q-39 -52 -106 -90zM752 -8h-377l954 1556h377z
M1872 494l-8 -11q54 -26 92 -86q37 -58 37 -147q0 -95 -49 -156q-50 -62 -129 -92q-82 -31 -175 -31q-104 0 -180 33q-80 35 -125 94q-46 61 -49 150h291q0 -27 18 -45q19 -19 47 -19q29 0 48 19q18 18 18 47t-18 47t-50 18q-23 0 -36 -8q-16 -10 -19 -24l-282 24l36 461
h600v-221h-337l-11 -133q21 53 62 80q42 28 98 28q63 0 121 -28z" />
    <glyph glyph-name="uni2157" unicode="&#x2157;" horiz-adv-x="1961" 
d="M676 1120l-2 -4q61 -46 61 -129q0 -71 -43 -123q-44 -54 -119 -80q-74 -26 -184 -26q-164 0 -252 76q-89 77 -98 202h287q0 -65 61 -65q28 0 43 12q16 13 16 31q0 28 -28 37q-30 10 -86 10h-68v213h68q98 0 98 45q0 14 -10 24q-9 9 -31 9t-37 -15q-14 -14 -14 -37h-287
q6 81 53 140q45 56 121 92q70 33 162 33q93 0 170 -25q73 -24 117 -74q43 -49 43 -112q0 -83 -49 -123q-48 -39 -146 -55q92 -9 154 -56zM659 -4h-376l954 1556h377zM1780 498l-8 -11q54 -26 92 -86q37 -58 37 -147q0 -94 -50 -156t-129 -92q-82 -31 -174 -31
q-104 0 -180 33q-80 35 -125 94q-46 61 -49 150h291q0 -27 18 -45q19 -19 47 -19t47 19t19 47t-19 47q-18 18 -49 18q-24 0 -37 -8q-15 -9 -18 -24l-283 24l37 461h600v-221h-338l-10 -133q21 53 62 80q42 28 98 28q63 0 121 -28z" />
    <glyph glyph-name="uni2158" unicode="&#x2158;" horiz-adv-x="2033" 
d="M676 1155h98v-221h-98v-156h-281v156h-348v280l127 342h502v-401zM395 1436l-114 -281h114v281zM737 0h-377l955 1556h377zM1858 502l-9 -10q55 -27 93 -86q36 -56 36 -148q0 -95 -49 -156q-50 -62 -129 -92q-80 -30 -174 -30q-106 0 -180 32q-80 35 -125 94
q-46 61 -49 150h291q0 -27 18 -45t47 -18t47 18q19 19 19 47t-19 47t-49 19q-22 0 -37 -9t-18 -24l-283 24l37 461h600v-221h-338l-10 -133q21 54 61 80q42 28 99 28q63 0 121 -28z" />
    <glyph glyph-name="uni2159" unicode="&#x2159;" horiz-adv-x="1773" 
d="M1591 489l-12 -6q61 -30 98 -88t37 -141q0 -79 -45 -139q-47 -62 -125 -99q-76 -36 -186 -36q-111 0 -193 43q-83 43 -129 135q-47 92 -47 227q0 132 47 221q46 88 129 135q80 45 195 45q100 0 174 -30q73 -30 117 -86q42 -53 51 -121h-287q-3 14 -16 24q-12 9 -29 9
q-47 0 -70 -45q-23 -44 -26 -111q16 40 61 66q48 28 111 28q81 0 145 -31zM1405 209v-2q20 14 20 43t-20 43q-22 16 -57 16q-38 0 -58 -14t-20 -43t20 -43q22 -16 58 -16q35 0 57 16zM252 1548h223v-778h-280v438h-168v222h12q81 0 135 28q53 27 74 80zM514 -8h-377
l955 1556h376z" />
    <glyph glyph-name="uni215A" unicode="&#x215a;" horiz-adv-x="1906" 
d="M625 1280l-9 -10q55 -27 93 -86q36 -56 36 -148q0 -94 -49 -155q-51 -64 -129 -93q-79 -30 -174 -30q-104 0 -180 33q-80 35 -125 94q-46 61 -49 149h291q0 -27 18 -45t47 -18t47 18q19 19 19 47t-19 47t-49 19q-24 0 -37 -8q-15 -9 -18 -25l-283 25l37 460h600v-221
h-338l-10 -133q21 53 62 80q43 29 98 29q61 0 121 -29zM657 -10h-376l954 1556h377zM1716 479l-12 -6q61 -30 98 -88t37 -141q0 -80 -45 -140q-46 -61 -125 -98q-78 -37 -186 -37q-111 0 -193 43q-82 44 -129 135q-47 92 -47 228q0 132 47 221q47 88 129 135q80 45 195 45
q98 0 174 -31q73 -30 117 -86q42 -53 51 -120h-287q-3 14 -16 24q-11 8 -29 8q-47 0 -70 -45q-23 -44 -26 -110q15 39 61 65q50 29 111 29q81 0 145 -31zM1530 199v-2q20 14 20 43t-20 43q-22 16 -57 16q-38 0 -58 -14t-20 -43t20 -43q24 -17 58 -17q33 0 57 17z" />
    <glyph glyph-name="oneeighth" unicode="&#x215b;" horiz-adv-x="1816" 
d="M1716 340h-6q53 -50 53 -121t-43 -123q-44 -53 -127 -80q-86 -28 -198 -28q-113 0 -199 28q-81 26 -125 80q-43 52 -43 123t53 121q52 49 154 61q-186 49 -186 177q0 70 45 118q48 51 125 74q83 25 180 25t180 -25q77 -23 125 -74q45 -48 45 -118q0 -128 -186 -177
q101 -12 153 -61zM1343 567q-18 -12 -18 -30q0 -19 18 -31t50 -12q31 0 49 12t18 31q0 18 -18 30q-20 13 -49 13q-31 0 -50 -13zM1454 213h-2q23 16 23 37t-23 37q-20 14 -61 14q-42 0 -62 -14t-20 -37q0 -21 22 -37q20 -14 62 -14q41 0 61 14zM258 1556h223v-778h-280v439
h-168v221h12q81 0 135 28q53 27 74 80zM520 0h-377l955 1556h377z" />
    <glyph glyph-name="threeeighths" unicode="&#x215c;" horiz-adv-x="1947" 
d="M676 1120l-2 -4q61 -46 61 -129q0 -71 -43 -123q-44 -54 -119 -80q-74 -26 -184 -26q-164 0 -252 76q-89 77 -98 202h287q0 -65 61 -65q28 0 43 12q16 13 16 31q0 28 -28 37q-30 10 -86 10h-68v213h68q98 0 98 45q0 14 -10 24q-9 9 -31 9t-37 -15q-14 -14 -14 -37h-287
q6 81 53 140q45 56 121 92q70 33 162 33q93 0 170 -25q73 -24 117 -74q43 -49 43 -112q0 -83 -49 -123q-48 -39 -146 -55q92 -9 154 -56zM659 -4h-376l954 1556h377zM1843 336h-6q53 -50 53 -121t-43 -123q-44 -53 -127 -80q-86 -28 -198 -28q-113 0 -199 28q-81 26 -125 80
q-43 52 -43 123t53 121q52 49 154 61q-186 49 -186 176q0 71 45 119q48 51 125 74q83 25 180 25t180 -25q77 -23 125 -74q45 -48 45 -119q0 -127 -186 -176q101 -12 153 -61zM1470 563q-18 -12 -18 -31q0 -18 18 -30q20 -13 50 -13t49 13q18 12 18 30q0 19 -18 31t-49 12
q-32 0 -50 -12zM1581 209h-2q23 16 23 37t-23 37q-20 14 -61 14q-42 0 -62 -14t-20 -37q0 -21 22 -37q20 -14 62 -14q41 0 61 14z" />
    <glyph glyph-name="fiveeighths" unicode="&#x215d;" horiz-adv-x="1951" 
d="M625 1280l-9 -10q55 -27 93 -86q36 -56 36 -148q0 -94 -49 -155q-51 -64 -129 -93q-79 -30 -174 -30q-104 0 -180 33q-80 35 -125 94q-46 61 -49 149h291q0 -27 18 -45t47 -18t47 18q19 19 19 47t-19 47t-49 19q-24 0 -37 -8q-15 -9 -18 -25l-283 25l37 460h600v-221
h-338l-10 -133q21 53 62 80q43 29 98 29q61 0 121 -29zM657 -10h-376l954 1556h377zM1841 330h-6q53 -50 53 -121t-43 -123q-44 -53 -127 -80q-89 -29 -198 -29q-110 0 -199 29q-81 26 -125 80q-43 52 -43 123t53 121q52 49 154 61q-186 49 -186 176q0 71 45 119
q48 51 124 74q79 24 181 24q101 0 180 -24q77 -23 125 -74q45 -48 45 -119q0 -127 -186 -176q101 -12 153 -61zM1468 557q-18 -12 -18 -31q0 -18 18 -30q19 -13 50 -13q29 0 49 13q18 12 18 30q0 19 -18 31t-49 12q-32 0 -50 -12zM1579 203h-2q22 16 22 37q0 20 -22 36
q-21 15 -61 15q-41 0 -62 -15q-20 -14 -20 -36q0 -21 22 -37q21 -15 62 -15q40 0 61 15z" />
    <glyph glyph-name="seveneighths" unicode="&#x215e;" horiz-adv-x="1869" 
d="M61 1335v221h598v-280l-249 -498h-338l311 557h-322zM586 0h-377l954 1556h377zM1769 340h-6q54 -51 54 -121q0 -71 -43 -123q-44 -53 -127 -80q-86 -28 -199 -28t-199 28q-81 26 -125 80q-43 52 -43 123q0 70 54 121q52 49 153 61q-186 49 -186 177q0 70 45 118
q48 51 125 74q83 25 180 25t180 -25q77 -23 125 -74q45 -48 45 -118q0 -128 -186 -177q101 -12 153 -61zM1397 567q-19 -13 -19 -30q0 -18 19 -31q18 -12 49 -12t49 12t18 31q0 18 -18 30q-20 13 -49 13q-30 0 -49 -13zM1507 213h-2q23 16 23 37t-23 37q-20 14 -61 14
q-42 0 -62 -14t-20 -37q0 -21 22 -37q20 -14 62 -14q41 0 61 14z" />
    <glyph glyph-name="uni215F" unicode="&#x215f;" horiz-adv-x="1552" 
d="M303 1556h223v-778h-280v439h-168v221h12q81 0 135 28q53 27 74 80zM565 0h-377l955 1556h377z" />
    <glyph glyph-name="uni2189" unicode="&#x2189;" horiz-adv-x="1908" 
d="M139 866q-92 103 -92 301t92 301t269 103q176 0 268 -103t92 -301t-92 -301q-92 -102 -268 -102q-177 0 -269 102zM469 1020h-4q16 46 16 145q0 105 -14 146q-15 43 -61 43q-47 0 -62 -43q-14 -41 -14 -146q0 -99 16 -145q15 -43 62 -43q46 0 61 43zM676 -2h-377
l954 1556h377zM1790 340l-2 -4q61 -46 61 -129q0 -71 -43 -123q-45 -54 -118 -80q-77 -27 -185 -27q-164 0 -252 76q-89 77 -98 203h287q0 -66 61 -66q27 0 43 13q17 14 17 30q0 27 -29 37q-33 11 -86 11h-68v213h68q98 0 98 45q0 14 -10 24q-8 8 -31 8t-37 -14t-14 -37
h-287q6 79 54 139q47 59 120 93q68 32 162 32q97 0 170 -24t117 -74q43 -49 43 -113q0 -82 -49 -122q-50 -41 -146 -56q93 -9 154 -55z" />
    <glyph glyph-name="arrowleft" unicode="&#x2190;" horiz-adv-x="1576" 
d="M727 1004h778v-447h-778l305 -367h-551l-395 590l395 590h551z" />
    <glyph glyph-name="arrowup" unicode="&#x2191;" horiz-adv-x="1576" 
d="M788 1489l590 -395v-551l-366 305v-778h-447v778l-366 -305v551z" />
    <glyph glyph-name="arrowright" unicode="&#x2192;" horiz-adv-x="1576" 
d="M545 1370h551l395 -590l-395 -590h-551l305 367h-778v447h778z" />
    <glyph glyph-name="arrowdown" unicode="&#x2193;" horiz-adv-x="1576" 
d="M1012 1487v-778l366 305v-551l-590 -395l-589 395v551l366 -305v778h447z" />
    <glyph glyph-name="uni2196" unicode="&#x2196;" horiz-adv-x="1576" 
d="M948 948l539 -536l-309 -312l-539 537v-528l-395 370v864h864l371 -395h-531z" />
    <glyph glyph-name="uni2197" unicode="&#x2197;" horiz-adv-x="1576" 
d="M98 948l371 395h864v-864l-395 -370v528l-539 -537l-309 312l539 536h-531z" />
    <glyph glyph-name="uni2198" unicode="&#x2198;" horiz-adv-x="1576" 
d="M938 920v528l395 -371v-864h-864l-371 395h531l-539 537l309 311z" />
    <glyph glyph-name="uni2199" unicode="&#x2199;" horiz-adv-x="1576" 
d="M1178 1456l309 -311l-539 -537h531l-371 -395h-864v864l395 371v-528z" />
    <glyph glyph-name="uni21A4" unicode="&#x21a4;" horiz-adv-x="1576" 
d="M1051 1001v367h446v-1180h-446v367h-437l306 -367h-551l-396 590l396 590h551l-306 -367h437z" />
    <glyph glyph-name="uni21A5" unicode="&#x21a5;" horiz-adv-x="1576" 
d="M1378 1264v-551l-366 305v-498h366v-448h-1179v448h366v498l-366 -305v551l589 395z" />
    <glyph glyph-name="uni21A6" unicode="&#x21a6;" horiz-adv-x="1576" 
d="M657 1368h551l396 -590l-396 -590h-551l306 367h-437v-367h-446v1180h446v-367h437z" />
    <glyph glyph-name="uni21A7" unicode="&#x21a7;" horiz-adv-x="1576" 
d="M1378 1485v-449h-366v-497l366 305v-551l-590 -395l-589 395v551l366 -305v497h-366v449h1179z" />
    <glyph glyph-name="uni21B0" unicode="&#x21b0;" horiz-adv-x="1576" 
d="M621 1001h829v-1001h-449v555h-380l305 -367h-551l-395 590l395 590h551z" />
    <glyph glyph-name="uni21B1" unicode="&#x21b1;" horiz-adv-x="1576" 
d="M651 1368h551l395 -590l-395 -590h-551l305 367h-381v-555h-448v1001h829z" />
    <glyph glyph-name="uni21B2" unicode="&#x21b2;" horiz-adv-x="1576" 
d="M1001 1001v555h449v-1001h-829l305 -367h-551l-395 590l395 590h551l-305 -367h380z" />
    <glyph glyph-name="uni21B3" unicode="&#x21b3;" horiz-adv-x="1576" 
d="M651 1368h551l395 -590l-395 -590h-551l305 367h-829v1001h448v-555h381z" />
    <glyph glyph-name="partialdiff" unicode="&#x2202;" horiz-adv-x="1269" 
d="M272 1589v-6q293 -35 504 -153q214 -120 332 -318q117 -196 117 -453q0 -338 -154 -518q-153 -178 -457 -178q-159 0 -301 60q-139 59 -221 178q-84 122 -84 295q0 172 66 286q65 111 170 164q102 51 231 51q139 0 227 -61q89 -62 144 -166q-18 114 -88 207
q-71 95 -193 162t-293 88v362zM678 342q18 52 18 154q0 86 -18 129t-66 43q-47 0 -65 -43q-19 -46 -19 -129q0 -99 19 -154q17 -51 65 -51q49 0 66 51z" />
    <glyph glyph-name="product" unicode="&#x220f;" horiz-adv-x="1970" 
d="M1925 1556v-419h-256v-1413h-524v1413h-320v-1413h-524v1413h-256v419h1880z" />
    <glyph glyph-name="summation" unicode="&#x2211;" horiz-adv-x="1406" 
d="M84 1556h1264v-419h-701l578 -482l-578 -512h692v-419h-1255v532l465 399l-465 369v532z" />
    <glyph glyph-name="minus" unicode="&#x2212;" horiz-adv-x="1189" 
d="M1102 383h-1014v377h1014v-377z" />
    <glyph glyph-name="radical" unicode="&#x221a;" horiz-adv-x="1605" 
d="M768 133l317 1423h525l-420 -1832h-834l-157 624h-199v420h616z" />
    <glyph glyph-name="infinity" unicode="&#x221e;" horiz-adv-x="2387" 
d="M1999 1067h4q141 -72 225 -199q86 -130 86 -299t-86 -299q-84 -127 -225 -196q-139 -68 -289 -68q-172 0 -295 57q-129 60 -221 168q-92 -108 -221 -168q-123 -57 -295 -57q-150 0 -289 68q-141 69 -225 196q-86 130 -86 299t86 299q84 127 225 199q137 70 289 70
q167 0 293 -60q122 -58 221 -178q99 120 221 178q126 60 293 60q152 0 289 -70zM950 541l17 26l-21 33q-105 156 -239 156q-51 0 -95 -21t-67 -63q-25 -45 -25 -101q0 -55 25 -100q23 -42 67 -63t95 -21q137 0 243 154zM1784 410v-4q44 21 67 63q25 45 25 100q0 56 -25 101
q-23 42 -67 63q-48 23 -94 23q-135 0 -240 -156l-20 -33l16 -24q106 -154 244 -154q50 0 94 21z" />
    <glyph glyph-name="integral" unicode="&#x222b;" horiz-adv-x="966" 
d="M-10 -401l-2 358h73q81 0 125 35q43 34 43 114v977q0 172 66 279q62 102 194 149q125 45 336 45h152v-362h-74q-83 0 -125 -33q-43 -34 -43 -112v-977q0 -173 -65 -279q-62 -101 -195 -149q-125 -45 -334 -45h-151z" />
    <glyph glyph-name="approxequal" unicode="&#x2248;" horiz-adv-x="1419" 
d="M59 809l-2 -2q80 138 185 209q106 71 217 71q61 0 119 -10q54 -9 129 -43q71 -30 120 -45q46 -14 103 -14q61 0 112 31q49 30 91 84l227 -236q-80 -139 -184 -209q-107 -72 -218 -72q-54 0 -118 11q-54 9 -129 43q-68 29 -121 45q-46 14 -101 14q-61 0 -112 -31
q-50 -30 -90 -82zM57 289l-2 -2q80 138 185 209q106 71 217 71q60 0 118 -10q56 -10 130 -43q71 -30 120 -45q46 -14 103 -14q63 0 112 30q47 29 90 84l228 -235q-80 -139 -184 -209q-107 -72 -218 -72q-60 0 -118 10q-54 9 -129 43q-76 32 -121 46q-46 14 -101 14
q-61 0 -112 -31q-50 -30 -90 -82z" />
    <glyph glyph-name="notequal" unicode="&#x2260;" horiz-adv-x="1302" 
d="M1200 999v-376h-282l-54 -97h336v-376h-543l-82 -150h-466l81 150h-88v376h295l54 97h-349v376h553l76 138h467l-76 -138h78z" />
    <glyph glyph-name="lessequal" unicode="&#x2264;" horiz-adv-x="1214" 
d="M90 1049l1034 100v-338l-727 -43l727 -43v-338l-1034 100v562zM1124 0h-1034v356h1034v-356z" />
    <glyph glyph-name="greaterequal" unicode="&#x2265;" horiz-adv-x="1214" 
d="M90 811v338l1034 -100v-562l-1034 -100v338l727 43zM1124 0h-1034v356h1034v-356z" />
    <glyph glyph-name="uni2300" unicode="&#x2300;" horiz-adv-x="1341" 
d="M1317 1014l-133 -135q88 -143 88 -314q0 -162 -80 -301q-78 -136 -219 -217q-139 -80 -301 -80q-75 0 -162 23q-83 22 -148 61l-131 -133l-206 201l135 135q-88 143 -88 313q0 162 80 301q78 136 219 217q139 80 301 80q86 0 159 -20q77 -21 148 -62l131 131zM440 541
l252 250q-6 2 -24 2q-56 0 -113 -31q-55 -30 -86 -84t-31 -111q0 -20 2 -26zM899 590l-258 -256q6 -2 25 -2q58 0 114 30q51 28 88 87q33 53 33 114q0 21 -2 27z" />
    <glyph glyph-name="uni2460" unicode="&#x2460;" horiz-adv-x="1912" 
d="M1386 1522q197 -115 312 -312q114 -197 114 -430q0 -234 -114 -430t-312 -311t-430 -115t-430 115q-197 114 -311 311q-115 198 -115 430t115 430t311 312q197 114 430 114q234 0 430 -114zM1290 199q155 90 244 243q90 156 90 336t-90 336q-89 155 -244 244
q-156 90 -336 90t-336 -90q-153 -89 -243 -244q-90 -156 -90 -336t90 -336q89 -154 243 -243q156 -90 336 -90t336 90zM877 1245h264v-934h-328v535h-201v260h9q104 0 161 31q52 28 88 96z" />
    <glyph glyph-name="uni2461" unicode="&#x2461;" horiz-adv-x="1912" 
d="M1386 1522q197 -115 312 -312q114 -197 114 -430q0 -234 -114 -430t-312 -311t-430 -115t-430 115q-197 114 -311 311q-115 198 -115 430t115 430t311 312q197 114 430 114q234 0 430 -114zM1290 199q155 90 244 243q90 156 90 336t-90 336q-89 155 -244 244
q-156 90 -336 90t-336 -90q-153 -89 -243 -244q-90 -156 -90 -336t90 -336q89 -154 243 -243q156 -90 336 -90t336 90zM942 571l414 -8v-260h-809v326l422 280q18 13 30 29q11 15 11 29q0 18 -17 32q-16 13 -43 13q-28 0 -47 -19q-18 -18 -18 -45h-336q3 90 55 160
q52 69 146 111q93 41 204 41q117 0 207 -35t139 -99q50 -65 50 -153q0 -83 -41 -142q-39 -57 -135 -116z" />
    <glyph glyph-name="uni2462" unicode="&#x2462;" horiz-adv-x="1912" 
d="M1386 1522q197 -115 312 -312q114 -197 114 -430q0 -234 -114 -430t-312 -311t-430 -115t-430 115q-197 114 -311 311q-115 198 -115 430t115 430t311 312q197 114 430 114q234 0 430 -114zM1290 199q155 90 244 243q90 156 90 336t-90 336q-89 155 -244 244
q-156 90 -336 90t-336 -90q-153 -89 -243 -244q-90 -156 -90 -336t90 -336q89 -154 243 -243q156 -90 336 -90t336 90zM1282 723l-2 -6q76 -55 76 -156q0 -86 -49 -147q-50 -62 -142 -92q-95 -31 -221 -31q-204 0 -307 86t-109 235h336q6 -75 82 -75q35 0 55 14q23 16 23 43
q0 37 -37 49t-104 12h-64v260h64q72 0 96 15q25 16 25 39q0 18 -17 32q-16 13 -43 13q-28 0 -47 -19q-18 -18 -18 -43h-336q6 90 61 160q56 71 146 109q85 36 196 36q108 0 197 -30t141 -88q53 -59 53 -131q0 -103 -61 -152t-178 -70q110 -9 184 -63z" />
    <glyph glyph-name="uni2463" unicode="&#x2463;" horiz-adv-x="1912" 
d="M1386 1522q197 -115 312 -312q114 -197 114 -430q0 -234 -114 -430t-312 -311t-430 -115t-430 115q-197 114 -311 311q-115 198 -115 430t115 430t311 312q197 114 430 114q234 0 430 -114zM1290 199q155 90 244 243q90 156 90 336t-90 336q-89 155 -244 244
q-156 90 -336 90t-336 -90q-153 -89 -243 -244q-90 -156 -90 -336t90 -336q89 -154 243 -243q156 -90 336 -90t336 90zM1266 1245v-483h116v-260h-116v-191h-328v191h-424v325l174 418h578zM938 1106l-150 -344h150v344z" />
    <glyph glyph-name="uni2464" unicode="&#x2464;" horiz-adv-x="1912" 
d="M1386 1522q197 -115 312 -312q114 -197 114 -430q0 -234 -114 -430t-312 -311t-430 -115t-430 115q-197 114 -311 311q-115 198 -115 430t115 430t311 312q197 114 430 114q234 0 430 -114zM1290 199q155 90 244 243q90 156 90 336t-90 336q-89 155 -244 244
q-156 90 -336 90t-336 -90q-153 -89 -243 -244q-90 -156 -90 -336t90 -336q89 -154 243 -243q156 -90 336 -90t336 90zM1227 907l4 -8q65 -35 102 -104q37 -70 37 -179q0 -110 -53 -184q-52 -72 -146 -108q-93 -35 -210 -35q-121 0 -209 39q-95 42 -148 112q-55 73 -61 174
h336q0 -31 18 -55t59 -24q34 0 56 22t22 61q0 42 -20 62t-58 20q-28 0 -49 -12t-30 -33l-326 27l43 559h704v-260h-403l-12 -164q23 48 80 86q55 37 122 37q80 0 142 -33z" />
    <glyph glyph-name="uni2465" unicode="&#x2465;" horiz-adv-x="1912" 
d="M1386 1522q197 -115 312 -312q114 -197 114 -430q0 -234 -114 -430t-312 -311t-430 -115t-430 115q-197 114 -311 311q-115 198 -115 430t115 430t311 312q197 114 430 114q234 0 430 -114zM1290 199q155 90 244 243q90 156 90 336t-90 336q-89 155 -244 244
q-156 90 -336 90t-336 -90q-153 -89 -243 -244q-90 -156 -90 -336t90 -336q89 -154 243 -243q156 -90 336 -90t336 90zM1219 895l2 2q71 -36 116 -109q43 -70 43 -167q0 -92 -53 -166q-54 -75 -149 -117q-98 -43 -224 -43q-133 0 -229 51q-99 52 -154 160q-55 107 -55 270
q0 164 55 271q55 106 154 159q102 54 227 54q120 0 207 -37q89 -38 139 -103q50 -66 62 -143h-336q-14 39 -68 39q-65 0 -92 -55t-30 -144q20 45 77 80q56 35 136 35q99 0 172 -37zM1016 561q26 20 26 57q0 38 -26 58t-74 20t-74 -20t-26 -58q0 -37 26 -57t74 -20t74 20z
" />
    <glyph glyph-name="uni2466" unicode="&#x2466;" horiz-adv-x="1912" 
d="M1386 1522q197 -115 312 -312q114 -197 114 -430q0 -234 -114 -430t-312 -311t-430 -115t-430 115q-197 114 -311 311q-115 198 -115 430t115 430t311 312q197 114 430 114q234 0 430 -114zM1290 199q155 90 244 243q90 156 90 336t-90 336q-89 155 -244 244
q-156 90 -336 90t-336 -90q-153 -89 -243 -244q-90 -156 -90 -336t90 -336q89 -154 243 -243q156 -90 336 -90t336 90zM981 985h-387v260h713v-325l-301 -609h-398z" />
    <glyph glyph-name="uni2467" unicode="&#x2467;" horiz-adv-x="1912" 
d="M1386 1522q197 -115 312 -312q114 -197 114 -430q0 -234 -114 -430t-312 -311t-430 -115t-430 115q-197 114 -311 311q-115 198 -115 430t115 430t311 312q197 114 430 114q234 0 430 -114zM1290 199q155 90 244 243q90 156 90 336t-90 336q-89 155 -244 244
q-156 90 -336 90t-336 -90q-153 -89 -243 -244q-90 -156 -90 -336t90 -336q89 -154 243 -243q156 -90 336 -90t336 90zM1325 721l-4 -2q68 -53 68 -148q0 -82 -52 -143q-54 -63 -149 -96q-100 -35 -238 -35q-137 0 -237 35q-97 34 -150 96q-51 60 -51 145q0 95 68 148
q70 55 180 72q-109 27 -164 79t-55 138q0 78 53 137t145 86q98 29 213 29t213 -29q94 -28 146 -86q53 -59 53 -137q0 -86 -55 -138t-164 -79q110 -17 180 -72zM885 997h-4q-25 -16 -25 -43q0 -25 25 -41q26 -16 65 -16q40 0 66 16q24 15 24 41q0 28 -24 43q-27 17 -64 17
q-36 0 -63 -17zM1020 555q27 18 27 49t-27 49q-28 19 -76 19t-76 -19q-26 -17 -26 -49t26 -49q27 -18 76 -18t76 18z" />
    <glyph glyph-name="uni2468" unicode="&#x2468;" horiz-adv-x="1912" 
d="M1386 1522q197 -115 312 -312q114 -197 114 -430q0 -234 -114 -430t-312 -311t-430 -115t-430 115q-197 114 -311 311q-115 198 -115 430t115 430t311 312q197 114 430 114q234 0 430 -114zM1290 199q155 90 244 243q90 156 90 336t-90 336q-89 155 -244 244
q-156 90 -336 90t-336 -90q-153 -89 -243 -244q-90 -156 -90 -336t90 -336q89 -154 243 -243q156 -90 336 -90t336 90zM1188 1210l-10 -8q97 -52 153 -160q55 -107 55 -270t-55 -270q-56 -108 -153 -160q-96 -51 -228 -51q-118 0 -205 37q-90 38 -139 102q-49 63 -61 145
h336q14 -38 67 -38q65 0 92 55q28 58 31 143q-21 -46 -76 -80t-135 -34q-101 0 -172 36q-73 37 -117 109q-43 70 -43 170q0 90 54 166q53 74 151 117t225 43q132 0 230 -52zM1026 872q27 21 27 58q0 36 -27 57t-74 21q-46 0 -73 -21t-27 -57q0 -37 27 -58q26 -20 73 -20
q48 0 74 20z" />
    <glyph glyph-name="uni24EA" unicode="&#x24ea;" horiz-adv-x="1912" 
d="M524 35q-197 114 -311 311q-115 198 -115 430t115 430t311 312t430 114t430 -114q197 -115 312 -312q114 -196 114 -430t-114 -430t-312 -311t-430 -115t-430 115zM1290 199q155 90 244 243q90 156 90 336t-90 336q-89 155 -244 244q-156 90 -336 90t-336 -90
q-153 -89 -243 -244q-90 -156 -90 -336t90 -336q89 -154 243 -243q156 -90 336 -90t336 90zM633 418q-111 123 -111 360q0 238 111 361t319 123q209 0 320 -123q110 -122 110 -361q0 -238 -110 -360q-111 -123 -320 -123q-208 0 -319 123zM1012 565h-4q21 24 30 76t9 137
q0 84 -9 137q-9 52 -30 76q-22 25 -58 25q-35 0 -57 -25q-22 -26 -31 -76q-8 -47 -8 -137t8 -137q9 -50 31 -76q21 -24 59 -24q39 0 60 24z" />
    <glyph glyph-name="uni24FF" unicode="&#x24ff;" horiz-adv-x="1912" 
d="M524 35q-197 114 -311 311q-115 198 -115 430t115 430t311 312t430 114t430 -114q197 -115 312 -312q114 -196 114 -430t-114 -430t-312 -311t-430 -115t-430 115zM1276 418q110 122 110 360q0 239 -110 361q-111 123 -320 123q-208 0 -319 -123t-111 -361
q0 -237 111 -360t319 -123q209 0 320 123zM897 565h-4q-22 26 -31 76q-8 47 -8 137t8 137q9 50 31 76q22 25 59 25q38 0 60 -25q21 -24 30 -76t9 -137q0 -84 -9 -137q-9 -52 -30 -76t-58 -24q-36 0 -57 24z" />
    <glyph glyph-name="filledbox" unicode="&#x25a0;" horiz-adv-x="1325" 
d="M1231 0h-1137v1137h1137v-1137z" />
    <glyph glyph-name="uni25A1" unicode="&#x25a1;" horiz-adv-x="1325" 
d="M1231 0h-1137v1137h1137v-1137zM475 756v-375h375v375h-375z" />
    <glyph glyph-name="lozenge" unicode="&#x25ca;" horiz-adv-x="1544" 
d="M463 1556h618l396 -778l-396 -778h-618l-395 778zM774 256l264 522l-264 522l-266 -522z" />
    <glyph glyph-name="circle" unicode="&#x25cb;" horiz-adv-x="1366" 
d="M379 43q-138 83 -221 221q-82 137 -82 305q0 166 80 305q81 141 221 220q142 80 307 80q166 0 305 -80q138 -80 219 -220q80 -139 80 -305q0 -165 -80 -307q-79 -140 -219 -221q-139 -80 -305 -80q-168 0 -305 82zM786 387h-6q50 28 78 78q29 53 29 106q0 55 -29 105
q-27 47 -74 74q-48 28 -104 28t-107 -28q-48 -26 -75 -76q-29 -53 -29 -105q0 -53 29 -106q26 -48 77 -76q53 -29 107 -29q51 0 104 29z" />
    <glyph glyph-name="uni25CF" unicode="&#x25cf;" horiz-adv-x="1366" 
d="M379 43q-138 83 -221 221q-82 137 -82 305q0 166 80 305q81 141 221 220q142 80 307 80q166 0 305 -80q138 -80 219 -220q80 -139 80 -305q0 -165 -80 -307q-79 -140 -219 -221q-139 -80 -305 -80q-168 0 -305 82z" />
    <glyph glyph-name="uni2776" unicode="&#x2776;" horiz-adv-x="1912" 
d="M524 35q-197 114 -311 311q-115 198 -115 430t115 430t311 312t430 114t430 -114q197 -115 312 -312q114 -196 114 -430t-114 -430t-312 -311t-430 -115t-430 115zM815 311l330 -2v934h-266l-7 -12q-35 -65 -88 -94q-57 -31 -161 -31h-9v-260h201v-535z" />
    <glyph glyph-name="uni2777" unicode="&#x2777;" horiz-adv-x="1912" 
d="M524 35q-197 114 -311 311q-115 198 -115 430t115 430t311 312t430 114t430 -114q197 -115 312 -312q114 -196 114 -430t-114 -430t-312 -311t-430 -115t-430 115zM553 311l809 2v260h-420l232 144q94 59 135 117q41 59 41 141q0 88 -50 153q-49 64 -139 99t-205 35
q-116 0 -204 -39q-92 -41 -144 -111t-55 -160h336q0 27 18 45q19 19 47 19t43 -12q17 -14 17 -33q0 -16 -8 -27q-6 -8 -31 -26l-422 -281v-326z" />
    <glyph glyph-name="uni2778" unicode="&#x2778;" horiz-adv-x="1912" 
d="M524 35q-197 114 -311 311q-115 198 -115 430t115 430t311 312t430 114t430 -114q197 -115 312 -312q114 -196 114 -430t-114 -430t-312 -311t-430 -115t-430 115zM1167 326l-2 -2q92 30 142 92q49 61 49 147q0 103 -76 158q-77 56 -184 65q117 21 178 70t61 152
q0 72 -53 131q-54 61 -141 90q-91 31 -197 31q-109 0 -196 -37q-90 -38 -144 -107q-55 -70 -61 -160h336q0 25 18 43q19 19 47 19t43 -12q17 -14 17 -33q0 -23 -25 -39q-22 -14 -96 -14h-64v-261h64q67 0 104 -12t37 -49q0 -29 -20 -43t-56 -14q-76 0 -82 75h-336
q6 -149 109 -235t307 -86q126 0 221 31z" />
    <glyph glyph-name="uni2779" unicode="&#x2779;" horiz-adv-x="1912" 
d="M524 35q-197 114 -311 311q-115 198 -115 430t115 430t311 312t430 114t430 -114q197 -115 312 -312q114 -196 114 -430t-114 -430t-312 -311t-430 -115t-430 115zM514 827v-325h424v-191h328v191h116v260h-116v483h-578zM938 762h-150l150 344v-344z" />
    <glyph glyph-name="uni277A" unicode="&#x277a;" horiz-adv-x="1912" 
d="M524 35q-197 114 -311 311q-115 198 -115 430t115 430t311 312t430 114t430 -114q197 -115 312 -312q114 -196 114 -430t-114 -430t-312 -311t-430 -115t-430 115zM1169 330l-12 4q94 36 146 108q53 74 53 185q0 108 -37 178q-37 69 -102 104t-142 35q-68 0 -123 -37
q-57 -38 -80 -86l13 164h403v260h-704l-43 -559l325 -27q9 20 31 33q23 13 49 13q39 0 60 -21q22 -22 22 -61q0 -40 -22 -62q-20 -20 -56 -20q-39 0 -57 24q-19 25 -19 56h-335q6 -102 61 -175q53 -70 148 -112q88 -39 208 -39t213 35z" />
    <glyph glyph-name="uni277B" unicode="&#x277b;" horiz-adv-x="1912" 
d="M524 35q-197 114 -311 311q-115 198 -115 430t115 430t311 312t430 114t430 -114q197 -115 312 -312q114 -196 114 -430t-114 -430t-312 -311t-430 -115t-430 115zM1176 336l-11 -8q101 44 152 116q53 74 53 166q0 100 -43 170q-44 72 -117 109t-172 37q-79 0 -135 -35
q-55 -34 -76 -80q3 85 31 143q27 56 92 56q54 0 68 -39h336q-12 80 -62 145t-139 103q-85 36 -205 36q-131 0 -227 -51q-99 -52 -154 -160q-55 -107 -55 -270t55 -270q55 -108 154 -160q96 -51 229 -51q128 0 226 43zM862 551q-26 20 -26 57q0 38 26 58t74 20t74 -20t26 -58
q0 -37 -26 -57q-27 -21 -74 -21t-74 21z" />
    <glyph glyph-name="uni277C" unicode="&#x277c;" horiz-adv-x="1912" 
d="M524 35q-197 114 -311 311q-115 198 -115 430t115 430t311 312t430 114t430 -114q197 -115 312 -312q114 -196 114 -430t-114 -430t-312 -311t-430 -115t-430 115zM981 985l-373 -674h398l301 609v325h-713v-260h387z" />
    <glyph glyph-name="uni277D" unicode="&#x277d;" horiz-adv-x="1912" 
d="M524 35q-197 114 -311 311q-115 198 -115 430t115 430t311 312t430 114t430 -114q197 -115 312 -312q114 -196 114 -430t-114 -430t-312 -311t-430 -115t-430 115zM1192 330v-2q95 33 149 96q52 61 52 145q0 95 -68 148q-69 53 -180 71q108 27 164 80q55 52 55 138
q0 80 -51 137q-52 58 -146 86q-95 28 -213 28t-213 -28q-92 -27 -145 -86q-51 -57 -51 -137q0 -86 55 -138q56 -53 164 -80q-111 -18 -180 -71q-68 -53 -68 -148q0 -83 51 -143q53 -62 150 -96q100 -35 237 -35q138 0 238 35zM889 913h-4q-25 16 -25 41q0 27 25 43
q27 17 65 17q39 0 66 -17q24 -15 24 -43q0 -26 -24 -41q-26 -16 -64 -16q-37 0 -63 16zM872 555q-26 17 -26 49t26 49q28 19 76 19t76 -19q27 -18 27 -49t-27 -49t-76 -18t-76 18z" />
    <glyph glyph-name="uni277E" unicode="&#x277e;" horiz-adv-x="1912" 
d="M524 35q-197 114 -311 311q-115 198 -115 430t115 430t311 312t430 114t430 -114q197 -115 312 -312q114 -196 114 -430t-114 -430t-312 -311t-430 -115t-430 115zM735 1219l2 2q-95 -42 -149 -117q-53 -74 -53 -166q0 -98 43 -168q44 -71 116 -108q73 -37 172 -37
q80 0 135 34q58 36 78 80q-3 -87 -30 -143q-27 -55 -93 -55q-53 0 -67 39h-336q12 -80 61 -144q49 -63 140 -102q87 -37 207 -37q127 0 227 53q97 52 153 160q56 109 56 270q0 162 -56 271q-55 107 -153 159t-230 52q-125 0 -223 -43zM1038 995q27 -21 27 -57t-27 -57
t-73 -21q-47 0 -74 21t-27 57t27 57t74 21q46 0 73 -21z" />
    <glyph glyph-name="uniF8FF" unicode="&#xf8ff;" horiz-adv-x="1691" 
d="M1358 881h297v-203h-309l286 -119l-80 -182l-286 119l221 -222l-141 -139l-216 217l117 -284l-188 -74l-113 274v-299h-203v301l-114 -278l-185 78l119 286l-221 -221l-139 141l219 220l-287 -119l-74 184l283 117h-307v203h303l-281 116l78 183l289 -119l-221 221
l139 137l219 -219l-119 289l187 76l112 -275v297h203v-305l117 283l182 -78l-119 -287l222 221l139 -141l-221 -221l290 121l74 -187z" />
    <glyph glyph-name="uniFEFF" unicode="&#xfeff;" horiz-adv-x="0" 
 />
    <glyph glyph-name="NULL" horiz-adv-x="0" 
 />
    <glyph glyph-name="uni004A0301" horiz-adv-x="935" 
d="M31 0v418h157q53 0 80 12q28 13 37 39q10 30 10 80v1007h525v-1116q0 -219 -119 -329q-120 -111 -375 -111h-315zM831 1651h-499l237 340h705z" />
    <glyph glyph-name="G.ss03" horiz-adv-x="1761" 
d="M819 954l879 -8v-229q0 -236 -99 -406q-100 -170 -282 -258q-188 -90 -434 -90q-249 0 -443 96q-189 94 -295 277q-104 180 -104 434q0 253 104 436q107 188 295 281q194 96 443 96q635 0 794 -530h-547q-34 64 -92 98q-56 33 -153 33q-147 0 -226 -105
q-79 -104 -79 -305q0 -196 84 -303q82 -104 231 -104q87 0 154 28q63 26 98 74q34 46 37 100h-365v385z" />
    <glyph glyph-name="Gbreve.ss03" horiz-adv-x="1761" 
d="M819 954l879 -8v-229q0 -236 -99 -406q-100 -170 -282 -258q-188 -90 -434 -90q-249 0 -443 96q-189 94 -295 277q-104 180 -104 434q0 253 104 436q107 188 295 281q194 96 443 96q635 0 794 -530h-547q-34 64 -92 98q-56 33 -153 33q-147 0 -226 -105
q-79 -104 -79 -305q0 -196 84 -303q82 -104 231 -104q87 0 154 28q63 26 98 74q34 46 37 100h-365v385zM631 1688h-4q-109 44 -166 118q-60 78 -60 179h330q10 -30 47 -48q38 -18 96 -18t99 18q39 17 49 48h330q0 -101 -60 -179q-57 -74 -166 -118q-107 -43 -247 -43
q-141 0 -248 43z" />
    <glyph glyph-name="Gcaron.ss03" horiz-adv-x="1761" 
d="M819 954l879 -8v-229q0 -236 -99 -406q-100 -170 -282 -258q-188 -90 -434 -90q-249 0 -443 96q-189 94 -295 277q-104 180 -104 434q0 253 104 436q107 188 295 281q194 96 443 96q635 0 794 -530h-547q-34 64 -92 98q-56 33 -153 33q-147 0 -226 -105
q-79 -104 -79 -305q0 -196 84 -303q82 -104 231 -104q87 0 154 28q63 26 98 74q34 46 37 100h-365v385zM881 1858l135 127h457l-273 -340h-641l-272 340h456z" />
    <glyph glyph-name="Gcircumflex.ss03" horiz-adv-x="1761" 
d="M819 954l879 -8v-229q0 -236 -99 -406q-100 -170 -282 -258q-188 -90 -434 -90q-249 0 -443 96q-189 94 -295 277q-104 180 -104 434q0 253 104 436q107 188 295 281q194 96 443 96q635 0 794 -530h-547q-34 64 -92 98q-56 33 -153 33q-147 0 -226 -105
q-79 -104 -79 -305q0 -196 84 -303q82 -104 231 -104q87 0 154 28q63 26 98 74q34 46 37 100h-365v385zM1200 1985l273 -340h-457l-135 127l-138 -127h-456l272 340h641z" />
    <glyph glyph-name="uni0122.ss03" horiz-adv-x="1761" 
d="M819 954l879 -8v-229q0 -236 -99 -406q-100 -170 -282 -258q-188 -90 -434 -90q-249 0 -443 96q-189 94 -295 277q-104 180 -104 434q0 253 104 436q107 188 295 281q194 96 443 96q635 0 794 -530h-547q-34 64 -92 98q-56 33 -153 33q-147 0 -226 -105
q-79 -104 -79 -305q0 -196 84 -303q82 -104 231 -104q87 0 154 28q63 26 98 74q34 46 37 100h-365v385zM637 -444v340h524v-385l-180 -218h-324l148 263h-168z" />
    <glyph glyph-name="Gdotaccent.ss03" horiz-adv-x="1761" 
d="M819 954l879 -8v-229q0 -236 -99 -406q-100 -170 -282 -258q-188 -90 -434 -90q-249 0 -443 96q-189 94 -295 277q-104 180 -104 434q0 253 104 436q107 188 295 281q194 96 443 96q635 0 794 -530h-547q-34 64 -92 98q-56 33 -153 33q-147 0 -226 -105
q-79 -104 -79 -305q0 -196 84 -303q82 -104 231 -104q87 0 154 28q63 26 98 74q34 46 37 100h-365v385zM1143 1645h-525v340h525v-340z" />
    <glyph glyph-name="Adieresis.titl" horiz-adv-x="1736" 
d="M1753 0h-545l-82 330h-516l-82 -330h-544l442 1556h885zM868 1360l-151 -610h305zM299 1217h-410v339h410v-339zM1847 1217h-409v339h409v-339z" />
    <glyph glyph-name="Odieresis.titl" horiz-adv-x="1777" 
d="M1833 1556l-4 -339h-211q108 -187 108 -437q0 -256 -106 -434q-109 -183 -297 -276q-196 -97 -438 -97q-243 0 -439 97q-187 93 -296 276q-107 180 -107 434q0 248 109 437h-211v339h409v-122q105 74 244 116q130 39 293 39t293 -39q137 -41 243 -116v122h410zM1108 473
q80 106 80 305t-80 305q-80 105 -223 105t-223 -105q-80 -106 -80 -305t80 -305q79 -104 223 -104t223 104z" />
    <glyph glyph-name="Udieresis.titl" horiz-adv-x="1601" 
d="M264 137l-2 -6q-174 168 -174 485v5v929h524v-991v-4q0 -88 50 -141q49 -52 137 -52t139 54q49 52 49 145v991h524v-929q0 -318 -174 -486q-176 -170 -536 -170q-361 0 -537 170zM946 1208h-295v340h295v-340zM946 829h-295v340h295v-340z" />
    <glyph glyph-name="I_J.loclNLD" horiz-adv-x="1460" 
d="M104 0v418h609q53 0 80 12t36 39q11 33 11 80v1007h524v-1116q0 -219 -119 -329q-120 -111 -375 -111h-766zM629 567h-525v987h525v-987z" />
    <glyph glyph-name="A.inferior" horiz-adv-x="919" 
d="M907 -233h-297l-37 159h-227l-37 -159h-297l201 778h494zM461 424l-64 -272h125z" />
    <glyph glyph-name="B.inferior" horiz-adv-x="833" 
d="M741 113h-2q62 -44 62 -125q0 -107 -86 -166q-85 -58 -248 -58h-404v779h398q111 0 184 -31t103 -80q30 -50 30 -106q0 -72 -55 -115q-56 -44 -145 -53q104 -3 163 -45zM467 317h-2q-18 11 -43 11h-78v-78h78q59 0 59 39q0 20 -14 28zM434 -20v4q31 0 51 10q19 10 19 31
t-19 30q-22 11 -51 11h-92v-86h92z" />
    <glyph glyph-name="C.inferior" horiz-adv-x="874" 
d="M236 -201l2 -8q-94 49 -150 141q-55 91 -55 218q0 125 53 217q52 91 145 141q91 49 213 49q107 0 189 -33q88 -36 145 -104q61 -73 78 -172h-295q-15 40 -43 65t-74 25q-61 0 -88 -49q-26 -48 -26 -137q0 -87 28 -138q27 -49 93 -49q38 0 69 25t43 71h295
q-34 -159 -145 -235q-110 -76 -262 -76q-121 0 -215 49z" />
    <glyph glyph-name="D.inferior" horiz-adv-x="851" 
d="M387 545h-2q201 0 317 -94q117 -95 117 -295q0 -201 -117 -295q-116 -94 -315 -94h-324v778h324zM393 -8h-4q61 0 96 41t35 123q0 84 -33 123q-34 40 -94 40h-47v-327h47z" />
    <glyph glyph-name="E.inferior" horiz-adv-x="720" 
d="M348 49v-57h322v-225h-607v778h599v-226h-314v-45h305v-225h-305z" />
    <glyph glyph-name="F.inferior" horiz-adv-x="694" 
d="M645 545v-226h-297v-53h289v-225h-289v-274h-285v778h582z" />
    <glyph glyph-name="G.inferior" horiz-adv-x="915" 
d="M416 242l446 -6v-476h-231v142q-24 -67 -80 -111q-55 -43 -145 -43q-103 0 -189 47q-85 46 -137 137q-51 89 -51 222q0 123 53 215q52 91 147 141q94 49 226 49q158 0 262 -67t139 -201h-299q-12 25 -37 37q-24 12 -61 12q-65 0 -99 -49t-34 -137q0 -97 32 -140
q35 -47 107 -47q57 0 90 23q32 23 35 55h-174v197z" />
    <glyph glyph-name="H.inferior" horiz-adv-x="851" 
d="M504 287v258h284v-778h-284v264h-156v-264h-285v778h285v-258h156z" />
    <glyph glyph-name="I.inferior" horiz-adv-x="411" 
d="M348 -233h-285v778h285v-778z" />
    <glyph glyph-name="J.inferior" horiz-adv-x="503" 
d="M25 -233v225h67q38 0 53 12q17 14 17 43v498h284v-537q0 -119 -61 -180t-203 -61h-157z" />
    <glyph glyph-name="K.inferior" horiz-adv-x="833" 
d="M625 172l219 -405h-332l-164 335v-335h-285v778h285v-307l148 307h319z" />
    <glyph glyph-name="L.inferior" horiz-adv-x="679" 
d="M348 545v-553h305v-225h-590v778h285z" />
    <glyph glyph-name="M.inferior" horiz-adv-x="1202" 
d="M1139 545v-778h-244v661l-82 -661h-426l-80 659v-659h-244v778h463l74 -668l76 668h463z" />
    <glyph glyph-name="N.inferior" horiz-adv-x="942" 
d="M635 -115v660h244v-778h-457l-115 659v-659h-244v778h457z" />
    <glyph glyph-name="O.inferior" horiz-adv-x="903" 
d="M229 -201l-2 -4q-94 49 -147 142q-51 89 -51 217q0 125 53 217q52 91 147 141q94 49 222 49q127 0 221 -49q94 -50 147 -141q53 -92 53 -215t-53 -215q-53 -93 -147 -142t-221 -49q-128 0 -222 49zM543 12l-2 -4q30 50 30 139q0 91 -30 140t-95 49q-64 0 -94 -49
t-30 -137t30 -138q30 -49 94 -49q67 0 97 49z" />
    <glyph glyph-name="P.inferior" horiz-adv-x="804" 
d="M444 545l-2 -2q166 0 252 -74t86 -199q0 -82 -37 -143q-38 -63 -112 -96q-78 -35 -187 -35h-94v-229h-287v778h381zM414 215q33 0 51 12t18 41t-18 41q-19 13 -51 13h-66v-107h66z" />
    <glyph glyph-name="Q.inferior" horiz-adv-x="921" 
d="M954 -233l-295 -5l-18 23q-81 -37 -192 -37q-128 0 -222 49t-147 142q-51 89 -51 217q0 125 53 217q52 91 147 141q94 49 222 49q127 0 221 -49q94 -50 147 -141q53 -92 53 -215q0 -127 -55 -221zM489 -29l-104 123h184q4 46 4 56q0 90 -30 139t-94 49q-65 0 -95 -49
t-30 -137t30 -138q30 -49 95 -49q22 0 40 6z" />
    <glyph glyph-name="R.inferior" horiz-adv-x="839" 
d="M514 -233l-125 237h-39v-240h-287v779h365q109 0 193 -35t127 -96t43 -142q0 -61 -31 -118q-29 -54 -88 -89l168 -296h-326zM471 313q-18 15 -49 15h-72v-115h72q32 0 49 14q18 15 18 43t-18 43z" />
    <glyph glyph-name="S.inferior" horiz-adv-x="802" 
d="M139 -182l-4 -4q-95 65 -110 196h294q6 -28 25 -47q18 -18 59 -18q86 0 86 37q0 15 -18 24q-22 11 -63 19l-140 30q-227 49 -227 236q0 77 47 139q45 59 125 94q76 33 172 33q166 0 252 -63q91 -66 111 -168h-295q-20 36 -68 36q-25 0 -45 -10q-18 -9 -18 -24
q0 -16 18 -25q15 -7 70 -20l139 -31q221 -47 221 -246q0 -126 -102 -190q-101 -64 -283 -64q-149 0 -246 66z" />
    <glyph glyph-name="T.inferior" horiz-adv-x="765" 
d="M29 545h706v-226h-211v-552h-284v552h-211v226z" />
    <glyph glyph-name="U.inferior" horiz-adv-x="827" 
d="M55 76l2 4v465h285v-500v-4q0 -72 74 -72q40 0 55 21q16 22 16 55v500h285v-465q0 -161 -86 -244q-87 -84 -272 -84q-359 0 -359 324z" />
    <glyph glyph-name="V.inferior" horiz-adv-x="872" 
d="M436 -115l115 660h307l-162 -778h-520l-162 778h308z" />
    <glyph glyph-name="W.inferior" horiz-adv-x="1214" 
d="M877 -115l59 660h248l-78 -778h-453l-45 673l-47 -673h-452l-78 778h248l59 -660l53 660h432z" />
    <glyph glyph-name="X.inferior" horiz-adv-x="868" 
d="M629 172l245 -405h-339l-101 190l-100 -190h-340l244 405l-234 373h342l88 -166l88 166h340z" />
    <glyph glyph-name="Y.inferior" horiz-adv-x="839" 
d="M518 545h324l-281 -494v-284h-285v288l-278 490h324l98 -211z" />
    <glyph glyph-name="Z.inferior" horiz-adv-x="772" 
d="M715 244l-334 -252h352v-225h-688v301l334 251h-326v226h662v-301z" />
    <glyph glyph-name="G.ss03.inferior" horiz-adv-x="901" 
d="M414 242l446 -2v-131q0 -102 -43 -181t-133 -129q-88 -49 -221 -49q-127 0 -227 47q-98 46 -154 135q-55 88 -55 222q0 123 53 215q52 91 147 141q94 49 226 49q158 0 262 -67t139 -201h-299q-12 25 -37 37q-24 12 -61 12q-65 0 -99 -49t-34 -137q0 -97 32 -140
q35 -47 107 -47q56 0 86 23q28 22 31 55h-166v197z" />
    <glyph glyph-name="A.superior" horiz-adv-x="919" 
d="M907 778h-297l-37 160h-227l-37 -160h-297l201 778h494zM461 1436l-64 -273h125z" />
    <glyph glyph-name="B.superior" horiz-adv-x="833" 
d="M741 1124h-2q62 -44 62 -125q0 -106 -86 -165q-85 -58 -248 -58h-404v778h398q113 0 184 -30q73 -31 103 -80q30 -50 30 -107q0 -71 -55 -114q-58 -45 -145 -54q104 -3 163 -45zM467 1329h-2q-17 10 -43 10h-78v-77h78q59 0 59 38q0 21 -14 29zM434 991v4q29 0 51 11
q19 10 19 30q0 22 -19 31q-20 10 -51 10h-92v-86h92z" />
    <glyph glyph-name="C.superior" horiz-adv-x="874" 
d="M233 811l3 -8q-94 49 -150 141q-55 91 -55 217q0 125 53 217t145 142q91 49 213 49q107 0 189 -33q88 -36 145 -104q61 -73 78 -172h-295q-15 40 -43 65t-74 25q-61 0 -88 -50q-26 -48 -26 -137q0 -86 28 -137q27 -49 93 -49q39 0 69 24q31 25 43 72h295
q-34 -159 -145 -235q-110 -76 -262 -76q-122 0 -216 49z" />
    <glyph glyph-name="D.superior" horiz-adv-x="851" 
d="M387 1556h-2q201 0 317 -94q117 -94 117 -295t-117 -295q-116 -94 -315 -94h-324v778h324zM393 1004h-4q62 0 96 40q35 41 35 123q0 84 -33 123q-35 41 -94 41h-47v-327h47z" />
    <glyph glyph-name="E.superior" horiz-adv-x="720" 
d="M348 1061v-57h322v-226h-607v778h599v-225h-314v-45h305v-225h-305z" />
    <glyph glyph-name="F.superior" horiz-adv-x="694" 
d="M645 1556v-225h-297v-53h289v-225h-289v-275h-285v778h582z" />
    <glyph glyph-name="G.superior" horiz-adv-x="915" 
d="M416 1253l446 -6v-475h-231v141q-23 -66 -80 -110q-55 -43 -145 -43q-103 0 -189 47q-85 46 -137 137q-51 89 -51 221q0 123 53 215q53 93 147 142t226 49q156 0 262 -68q104 -67 139 -200h-299q-12 23 -37 36q-26 13 -61 13q-65 0 -99 -49t-34 -138q0 -96 32 -139
q35 -47 107 -47q59 0 90 22q32 22 35 56h-174v196z" />
    <glyph glyph-name="H.superior" horiz-adv-x="851" 
d="M504 1298v258h284v-778h-284v264h-156v-264h-285v778h285v-258h156z" />
    <glyph glyph-name="I.superior" horiz-adv-x="411" 
d="M348 778h-285v778h285v-778z" />
    <glyph glyph-name="J.superior" horiz-adv-x="503" 
d="M25 778v226h67q38 0 53 12q17 14 17 43v497h284v-536q0 -119 -61 -180q-62 -62 -203 -62h-157z" />
    <glyph glyph-name="K.superior" horiz-adv-x="833" 
d="M625 1184l219 -406h-332l-164 336v-336h-285v778h285v-307l148 307h319z" />
    <glyph glyph-name="L.superior" horiz-adv-x="679" 
d="M348 1556v-552h305v-226h-590v778h285z" />
    <glyph glyph-name="M.superior" horiz-adv-x="1202" 
d="M1139 1556v-778h-244v662l-82 -662h-426l-80 660v-660h-244v778h463l74 -667l76 667h463z" />
    <glyph glyph-name="N.superior" horiz-adv-x="942" 
d="M635 897v659h244v-778h-457l-115 660v-660h-244v778h457z" />
    <glyph glyph-name="O.superior" horiz-adv-x="903" 
d="M229 811l-2 -4q-95 49 -147 141q-51 89 -51 217q0 125 53 217q53 93 147 142t222 49q127 0 221 -49t147 -142q53 -92 53 -215t-53 -215t-147 -141t-221 -49q-128 0 -222 49zM543 1024l-2 -4q30 50 30 139t-30 139t-95 50q-64 0 -94 -50t-30 -137t30 -137q30 -49 94 -49
q67 0 97 49z" />
    <glyph glyph-name="P.superior" horiz-adv-x="804" 
d="M444 1556l-2 -2q167 0 252 -73q86 -74 86 -199q0 -82 -37 -143q-39 -64 -112 -97q-75 -34 -187 -34h-94v-230h-287v778h381zM414 1227q33 0 51 12t18 41t-18 41t-51 12h-66v-106h66z" />
    <glyph glyph-name="Q.superior" horiz-adv-x="921" 
d="M954 778l-295 -4l-18 23q-81 -37 -192 -37q-128 0 -222 49q-95 49 -147 141q-51 89 -51 217q0 125 53 217q53 93 147 142t222 49q127 0 221 -49t147 -142q53 -92 53 -215q0 -127 -55 -221zM489 983l-104 123h184q4 46 4 55q0 89 -30 139t-94 50q-65 0 -95 -50t-30 -137
t30 -137q30 -49 95 -49q22 0 40 6z" />
    <glyph glyph-name="R.superior" horiz-adv-x="839" 
d="M514 778l-125 238h-39v-240h-287v778h365q112 0 193 -34q83 -35 127 -97q43 -61 43 -141q0 -62 -31 -119q-29 -53 -88 -88l168 -297h-326zM471 1325q-17 14 -49 14h-72v-114h72q32 0 49 14q18 15 18 43t-18 43z" />
    <glyph glyph-name="S.superior" horiz-adv-x="802" 
d="M139 829l-4 -4q-95 65 -110 197h294q6 -28 25 -47t59 -19q86 0 86 37q0 16 -18 25q-19 9 -63 18l-140 31q-227 49 -227 236q0 77 47 139q45 59 125 94q76 33 172 33q164 0 252 -64q91 -66 111 -168h-295q-21 37 -68 37q-25 0 -45 -10q-18 -9 -18 -25q0 -15 18 -24t70 -21
l139 -30q221 -47 221 -246q0 -126 -102 -191q-100 -63 -283 -63q-151 0 -246 65z" />
    <glyph glyph-name="T.superior" horiz-adv-x="765" 
d="M31 1556h706v-225h-211v-553h-284v553h-211v225z" />
    <glyph glyph-name="U.superior" horiz-adv-x="827" 
d="M55 1087l2 5v464h285v-499v-4q0 -72 74 -72q41 0 55 20q16 22 16 56v499h285v-464q0 -161 -86 -244q-87 -84 -272 -84q-359 0 -359 323z" />
    <glyph glyph-name="V.superior" horiz-adv-x="872" 
d="M436 897l115 659h307l-162 -778h-520l-162 778h308z" />
    <glyph glyph-name="W.superior" horiz-adv-x="1214" 
d="M877 897l59 659h248l-78 -778h-453l-45 674l-47 -674h-452l-78 778h248l59 -659l53 659h432z" />
    <glyph glyph-name="X.superior" horiz-adv-x="868" 
d="M629 1184l245 -406h-339l-101 191l-100 -191h-340l244 406l-234 372h342l88 -165l88 165h340z" />
    <glyph glyph-name="Y.superior" horiz-adv-x="839" 
d="M518 1556h324l-281 -493v-285h-285v289l-278 489h324l98 -210z" />
    <glyph glyph-name="Z.superior" horiz-adv-x="772" 
d="M715 1255l-334 -251h352v-226h-688v301l334 252h-326v225h662v-301z" />
    <glyph glyph-name="G.ss03.superior" horiz-adv-x="903" 
d="M416 1253l446 -2v-131q0 -101 -43 -180t-133 -129q-88 -49 -221 -49q-127 0 -227 47q-98 46 -154 135q-55 88 -55 221q0 123 53 215q53 93 147 142t226 49q156 0 262 -68q104 -67 139 -200h-299q-12 23 -37 36q-26 13 -61 13q-65 0 -99 -49t-34 -138q0 -96 32 -139
q35 -47 107 -47q58 0 86 22t31 56h-166v196z" />
    <glyph glyph-name="i.loclTRK" horiz-adv-x="675" 
d="M592 0h-508v1137h508v-1137zM592 1217h-508v339h508v-339z" />
    <glyph glyph-name="uni006A0301" horiz-adv-x="675" 
d="M-70 -401l-2 360h52q58 0 79 21q23 23 23 69v1086h508v-1155q0 -120 -58 -205q-59 -86 -161 -131t-236 -45h-205zM575 1214h-473l215 340h678z" />
    <glyph glyph-name="germandbls.calt" horiz-adv-x="1638" 
d="M1247 848l-2 10q105 -27 182 -86q78 -60 121 -141q43 -82 43 -180q0 -154 -67 -258t-191 -160t-295 -56q-80 0 -153 13q-60 11 -131 37v344q55 -28 80 -37q34 -12 75 -12q65 0 105 30q39 29 39 92q0 60 -60 91q-59 30 -159 30h-50v375l234 197h-389v-1137h-525v1556h1401
v-491z" />
    <glyph glyph-name="a.ss04" horiz-adv-x="1411" 
d="M829 1137h494v-1137h-498v186q-40 -94 -125 -155q-86 -62 -211 -62q-138 0 -241 80q-101 79 -154 215q-51 131 -51 301q0 164 53 303q52 138 154 217q103 80 242 80q129 0 215 -71q84 -69 122 -185v228zM807 365h-8q35 68 35 200q0 136 -33 203q-34 70 -107 70
q-72 0 -106 -70q-33 -67 -33 -203q0 -132 35 -200t108 -68q74 0 109 68z" />
    <glyph glyph-name="aacute.ss04" horiz-adv-x="1411" 
d="M829 1137h494v-1137h-498v186q-40 -94 -125 -155q-86 -62 -211 -62q-138 0 -241 80q-101 79 -154 215q-51 131 -51 301q0 164 53 303q52 138 154 217q103 80 242 80q129 0 215 -71q84 -69 122 -185v228zM807 365h-8q35 68 35 200q0 136 -33 203q-34 70 -107 70
q-72 0 -106 -70q-33 -67 -33 -203q0 -132 35 -200t108 -68q74 0 109 68zM918 1214h-474l215 340h678z" />
    <glyph glyph-name="abreve.ss04" horiz-adv-x="1411" 
d="M829 1137h494v-1137h-498v186q-40 -94 -125 -155q-86 -62 -211 -62q-138 0 -241 80q-101 79 -154 215q-51 131 -51 301q0 164 53 303q52 138 154 217q103 80 242 80q129 0 215 -71q84 -69 122 -185v228zM807 365h-8q35 68 35 200q0 136 -33 203q-34 70 -107 70
q-72 0 -106 -70q-33 -67 -33 -203q0 -132 35 -200t108 -68q74 0 109 68zM467 1253l-8 -4q-107 47 -164 125q-57 77 -57 178h337q0 -40 35 -61q34 -21 92 -21q55 0 93 23q34 21 34 61h338q0 -101 -57 -178q-57 -78 -164 -125q-102 -45 -239 -45q-134 0 -240 47z" />
    <glyph glyph-name="acircumflex.ss04" horiz-adv-x="1411" 
d="M829 1137h494v-1137h-498v186q-40 -94 -125 -155q-86 -62 -211 -62q-138 0 -241 80q-101 79 -154 215q-51 131 -51 301q0 164 53 303q52 138 154 217q103 80 242 80q129 0 215 -71q84 -69 122 -185v228zM807 365h-8q35 68 35 200q0 136 -33 203q-34 70 -107 70
q-72 0 -106 -70q-33 -67 -33 -203q0 -132 35 -200t108 -68q74 0 109 68zM1014 1554l260 -340h-438l-129 134l-132 -134h-438l260 340h617z" />
    <glyph glyph-name="adieresis.ss04" horiz-adv-x="1411" 
d="M829 1137h494v-1137h-498v186q-40 -94 -125 -155q-86 -62 -211 -62q-138 0 -241 80q-101 79 -154 215q-51 131 -51 301q0 164 53 303q52 138 154 217q103 80 242 80q129 0 215 -71q84 -69 122 -185v228zM807 365h-8q35 68 35 200q0 136 -33 203q-34 70 -107 70
q-72 0 -106 -70q-33 -67 -33 -203q0 -132 35 -200t108 -68q74 0 109 68zM674 1214h-508v340h508v-340zM1245 1214h-508v340h508v-340z" />
    <glyph glyph-name="uni1EA1.ss04" horiz-adv-x="1411" 
d="M829 1137h494v-1137h-498v186q-40 -94 -125 -155q-86 -62 -211 -62q-138 0 -241 80q-101 79 -154 215q-51 131 -51 301q0 164 53 303q52 138 154 217q103 80 242 80q129 0 215 -71q84 -69 122 -185v228zM807 365h-8q35 68 35 200q0 136 -33 203q-34 70 -107 70
q-72 0 -106 -70q-33 -67 -33 -203q0 -132 35 -200t108 -68q74 0 109 68zM1016 -438h-508v340h508v-340z" />
    <glyph glyph-name="agrave.ss04" horiz-adv-x="1411" 
d="M829 1137h494v-1137h-498v186q-40 -94 -125 -155q-86 -62 -211 -62q-138 0 -241 80q-101 79 -154 215q-51 131 -51 301q0 164 53 303q52 138 154 217q103 80 242 80q129 0 215 -71q84 -69 122 -185v228zM807 365h-8q35 68 35 200q0 136 -33 203q-34 70 -107 70
q-72 0 -106 -70q-33 -67 -33 -203q0 -132 35 -200t108 -68q74 0 109 68zM969 1214h-473l-420 340h678z" />
    <glyph glyph-name="amacron.ss04" horiz-adv-x="1411" 
d="M829 1137h494v-1137h-498v186q-40 -94 -125 -155q-86 -62 -211 -62q-138 0 -241 80q-101 79 -154 215q-51 131 -51 301q0 164 53 303q52 138 154 217q103 80 242 80q129 0 215 -71q84 -69 122 -185v228zM807 365h-8q35 68 35 200q0 136 -33 203q-34 70 -107 70
q-72 0 -106 -70q-33 -67 -33 -203q0 -132 35 -200t108 -68q74 0 109 68zM1157 1214h-903v340h903v-340z" />
    <glyph glyph-name="aogonek.ss04" horiz-adv-x="1411" 
d="M1327 0l-6 -2q-184 -37 -184 -86q0 -18 22 -27q19 -8 74 -8h90v-307h-168q-224 0 -334 55t-110 174q0 54 28 105q27 49 86 96v186q-40 -94 -125 -155q-86 -62 -211 -62q-138 0 -241 80q-101 79 -154 215q-51 131 -51 301q0 164 53 303q52 138 154 217q103 80 242 80
q129 0 215 -71q84 -69 122 -185v228h498v-1137zM805 362h-8q34 67 34 201q0 138 -32 203q-34 70 -107 70q-72 0 -106 -70q-33 -67 -33 -203q0 -133 35 -201q34 -67 108 -67q75 0 109 67z" />
    <glyph glyph-name="aring.ss04" horiz-adv-x="1411" 
d="M829 1137h494v-1137h-498v186q-40 -94 -125 -155q-86 -62 -211 -62q-138 0 -241 80q-101 79 -154 215q-51 131 -51 301q0 164 53 303q52 138 154 217q103 80 242 80q129 0 215 -71q84 -69 122 -185v228zM807 365h-8q35 68 35 200q0 136 -33 203q-34 70 -107 70
q-72 0 -106 -70q-33 -67 -33 -203q0 -132 35 -200t108 -68q74 0 109 68zM563 1245l-4 -4q-65 36 -106 105q-39 65 -39 145t39 145q41 68 106 107t146 39q80 0 145 -39q67 -40 104 -107t37 -143t-37 -143q-38 -68 -104 -105q-67 -37 -143 -37q-77 0 -144 37zM745 1448
q19 19 19 43q0 26 -19 45q-18 18 -43 18q-27 0 -45 -18t-18 -45q0 -25 18 -43t45 -18q25 0 43 18z" />
    <glyph glyph-name="atilde.ss04" horiz-adv-x="1411" 
d="M829 1137h494v-1137h-498v186q-40 -94 -125 -155q-86 -62 -211 -62q-138 0 -241 80q-101 79 -154 215q-51 131 -51 301q0 164 53 303q52 138 154 217q103 80 242 80q129 0 215 -71q84 -69 122 -185v228zM807 365h-8q35 68 35 200q0 136 -33 203q-34 70 -107 70
q-72 0 -106 -70q-33 -67 -33 -203q0 -132 35 -200t108 -68q74 0 109 68zM307 1214v-4q0 196 62 299t182 103q43 0 90 -15q43 -14 80 -30q70 -33 125 -33q44 0 72 25q27 24 36 59h148q0 -194 -62 -297q-60 -100 -182 -100q-47 0 -90 14q-34 11 -80 31q-68 32 -125 32
q-44 0 -71 -24q-28 -25 -37 -60h-148z" />
    <glyph glyph-name="y.ss05" horiz-adv-x="1288" 
d="M629 498l137 639h551l-475 -1538h-551l96 315l-424 1223h520z" />
    <glyph glyph-name="yacute.ss05" horiz-adv-x="1288" 
d="M629 498l137 639h551l-475 -1538h-551l96 315l-424 1223h520zM836 1217h-474l216 339h677z" />
    <glyph glyph-name="ycircumflex.ss05" horiz-adv-x="1288" 
d="M629 498l137 639h551l-475 -1538h-551l96 315l-424 1223h520zM932 1556l260 -339h-438l-129 133l-131 -133h-439l260 339h617z" />
    <glyph glyph-name="ydieresis.ss05" horiz-adv-x="1288" 
d="M629 498l137 639h551l-475 -1538h-551l96 315l-424 1223h520zM592 1217h-508v339h508v-339zM1163 1217h-508v339h508v-339z" />
    <glyph glyph-name="ygrave.ss05" horiz-adv-x="1288" 
d="M629 498l137 639h551l-475 -1538h-551l96 315l-424 1223h520zM887 1217h-473l-420 339h678z" />
    <glyph glyph-name="uni0233.ss05" horiz-adv-x="1288" 
d="M629 498l137 639h551l-475 -1538h-551l96 315l-424 1223h520zM1075 1217h-903v339h903v-339z" />
    <glyph glyph-name="uni1EF9.ss05" horiz-adv-x="1288" 
d="M629 498l137 639h551l-475 -1538h-551l96 315l-424 1223h520zM225 1217v-5q0 196 62 299t182 103q43 0 90 -15q43 -14 80 -30q70 -33 125 -33q44 0 72 25q27 24 36 59h148q0 -194 -62 -297q-60 -100 -182 -100q-47 0 -90 14q-34 11 -80 31q-68 32 -125 32q-44 0 -71 -24
q-28 -25 -37 -59h-148z" />
    <glyph glyph-name="i_j.loclNLD" horiz-adv-x="1351" 
d="M592 1217h-508v339h508v-339zM1268 1217h-508v339h508v-339zM84 -401l-2 282h565q111 0 111 101v1153h508v-1155q0 -120 -58 -205q-59 -86 -161 -131t-236 -45h-727zM590 -2h-508v1137h508v-1137z" />
    <glyph glyph-name="a.inferior" horiz-adv-x="718" 
d="M600 287l6 -4q74 -65 74 -172v-5v-342h-272v70q-23 -39 -68 -61q-48 -23 -104 -23q-49 0 -101 25t-80 69q-30 46 -30 105q0 160 231 178l143 12v2v4q0 50 -32 50t-35 -43h-281q15 94 101 147t215 53q159 0 233 -65zM387 -80l4 -2q14 25 17 59l-46 -4q-23 -3 -36 -14
q-15 -12 -15 -27q0 -13 11 -24q10 -10 28 -10q24 0 37 22z" />
    <glyph glyph-name="b.inferior" horiz-adv-x="724" 
d="M594 311l-4 -6q50 -41 74 -108t24 -152q0 -83 -24 -151q-23 -66 -74 -107q-48 -39 -121 -39q-44 0 -86 25q-41 24 -61 63v-72h-273v779h273v-307q11 43 53 79q41 35 98 35q73 0 121 -39zM397 -45l-2 -6q11 33 11 88q0 57 -11 90q-10 29 -37 29t-39 -27t-12 -88
q0 -59 12 -86t41 -27q28 0 37 27z" />
    <glyph glyph-name="c.inferior" horiz-adv-x="696" 
d="M182 -211l-4 -6q-76 39 -115 104q-40 67 -40 158t40 158q39 65 115 104q73 37 168 37q84 0 160 -29q73 -28 115 -79q43 -52 49 -123h-281q0 17 -10 34t-31 17t-31 -29q-10 -30 -10 -86q0 -61 12 -88t35 -27q21 0 31 13q9 12 12 35h281q-9 -77 -55 -129t-117 -76
q-73 -25 -154 -25q-97 0 -170 37z" />
    <glyph glyph-name="d.inferior" horiz-adv-x="724" 
d="M401 545l269 -2v-779h-273v72q-20 -39 -61 -63q-42 -25 -86 -25q-71 0 -121 41t-74 109t-24 151q0 85 24 152t74 108t121 41q59 0 98 -33q42 -36 53 -79v307zM395 -39l-2 -4q13 29 13 86q0 61 -13 90t-39 29q-28 0 -37 -27q-10 -30 -10 -88t10 -88q9 -27 37 -27t41 29z
" />
    <glyph glyph-name="e.inferior" horiz-adv-x="694" 
d="M664 -16h-367q9 -74 43 -74q25 0 31 29h280q-30 -89 -112 -138t-199 -49q-95 0 -166 41q-70 40 -108 109q-37 67 -37 151q0 89 39 154q40 66 112 106q71 39 170 39q96 0 166 -37q72 -38 111 -106q41 -71 41 -172q0 -3 -4 -53zM315 178v-2q-12 -15 -18 -49h98
q-6 68 -47 68q-19 0 -33 -17z" />
    <glyph glyph-name="f.inferior" horiz-adv-x="499" 
d="M428 373l-2 -2q-25 0 -37 -9t-12 -26h92v-199h-92v-373h-277v373h-71v199h71v2q0 100 72 154q71 53 184 53h115v-172h-43z" />
    <glyph glyph-name="g.inferior" horiz-adv-x="724" 
d="M406 338h266v-531q0 -142 -92 -198q-91 -55 -215 -55q-69 0 -134 18t-114 61q-50 44 -62 113h281q10 -16 29 -16q36 0 36 73v60q-22 -42 -61 -62t-86 -20q-72 0 -121 37q-50 38 -74 102q-24 65 -24 148q0 82 24 147q24 64 74 102q49 37 121 37q58 0 96 -32q42 -35 56 -80
v96zM397 -16q13 26 13 79q0 52 -13 78q-13 25 -39 25t-39 -25q-12 -24 -12 -78q0 -55 12 -79q13 -25 39 -25t39 25z" />
    <glyph glyph-name="h.inferior" horiz-adv-x="716" 
d="M637 293l-2 -4q35 -59 35 -160v-4v-363h-277v310v4q0 45 -6 63q-6 19 -27 19q-20 0 -26 -19q-6 -18 -6 -65v-310h-277v779h273v-322q46 129 178 129q101 0 135 -57z" />
    <glyph glyph-name="i.inferior" horiz-adv-x="378" 
d="M328 373h-277v172h277v-172zM328 -233h-277v571h277v-571z" />
    <glyph glyph-name="j.inferior" horiz-adv-x="378" 
d="M328 373h-277v172h277v-172zM-23 -434v188h25q26 0 37 8q12 9 12 31v545h277v-567q0 -102 -70 -154q-68 -51 -184 -51h-97z" />
    <glyph glyph-name="k.inferior" horiz-adv-x="751" 
d="M588 82l160 -315h-308l-112 247v-247h-277v778h277v-408l112 201h299z" />
    <glyph glyph-name="l.inferior" horiz-adv-x="378" 
d="M328 -233h-277v778h277v-778z" />
    <glyph glyph-name="m.inferior" horiz-adv-x="1046" 
d="M936 322l-4 -3q37 -30 49 -75q12 -46 12 -113v-4v-363h-276v310v4q0 45 -6 63q-6 19 -23 19q-16 0 -22 -19q-7 -21 -7 -65v-309h-276v309v4q0 45 -6 63q-6 19 -23 19q-16 0 -22 -19q-6 -18 -6 -65v-309h-277v571h273v-115q21 58 61 92q41 35 113 35q66 0 106 -37
q41 -38 55 -94q46 131 170 131q71 0 109 -30z" />
    <glyph glyph-name="n.inferior" horiz-adv-x="716" 
d="M637 293l-2 -4q35 -59 35 -160v-4v-363h-277v310v4q0 45 -6 63q-6 19 -27 19q-20 0 -26 -19q-6 -18 -6 -65v-310h-277v572h273v-115q46 129 178 129q101 0 135 -57z" />
    <glyph glyph-name="o.inferior" horiz-adv-x="714" 
d="M180 -209l-2 -6q-78 41 -117 106q-38 63 -38 154t38 154q41 67 117 108q74 39 178 39q105 0 176 -39q77 -42 115 -106q39 -65 39 -154q0 -88 -39 -153q-41 -69 -112 -105q-73 -37 -177 -37t-178 39zM395 -43l-2 -6q10 30 10 88q0 60 -10 90q-10 29 -37 29t-39 -27
t-12 -88q0 -59 12 -86t41 -27q28 0 37 27z" />
    <glyph glyph-name="p.inferior" horiz-adv-x="724" 
d="M594 311l-4 -6q50 -41 74 -108t24 -152q0 -83 -24 -151q-23 -66 -74 -107q-48 -39 -121 -39q-44 0 -86 25q-41 24 -61 63v-272h-273v772h273v-100q11 43 53 79q41 35 98 35q73 0 121 -39zM397 -45l-2 -6q11 33 11 88q0 57 -11 90q-10 29 -37 29t-39 -27t-12 -88
q0 -59 12 -86t41 -27q28 0 37 27z" />
    <glyph glyph-name="q.inferior" horiz-adv-x="724" 
d="M401 338l269 -2v-772h-273v272q-20 -39 -61 -63q-42 -25 -86 -25q-71 0 -121 41t-74 109t-24 151q0 85 24 152t74 108t121 41q59 0 98 -33q42 -36 53 -79v100zM395 -39l-2 -4q13 29 13 86q0 61 -13 90t-39 29q-28 0 -37 -27q-10 -30 -10 -88t10 -88q9 -27 37 -27t41 29z
" />
    <glyph glyph-name="r.inferior" horiz-adv-x="518" 
d="M324 172v-2q12 79 57 129q45 51 117 51v-266h-70q-50 0 -76 -23q-24 -21 -24 -67v-227h-277v571h273v-166z" />
    <glyph glyph-name="s.inferior" horiz-adv-x="675" 
d="M121 -203h-10q-83 47 -95 142h281q6 -45 43 -45q16 0 25 6q10 7 10 18q0 14 -8 19t-31 12l-146 33q-82 18 -122 55q-39 36 -39 104q0 64 39 109q43 50 106 72q68 24 148 24q123 0 208 -43q86 -44 107 -127h-281q0 13 -8 21t-24 8q-15 0 -21 -6t-6 -15q0 -17 35 -26
l145 -33q89 -21 129 -64q41 -44 41 -116q0 -96 -86 -146q-85 -49 -225 -49q-132 0 -215 47z" />
    <glyph glyph-name="t.inferior" horiz-adv-x="509" 
d="M377 139v-139v-4q0 -19 12 -25t37 -6h37v-198h-109q-114 0 -182 51q-72 54 -72 149v4v168h-77v199h77v135h277v-135h86v-199h-86z" />
    <glyph glyph-name="u.inferior" horiz-adv-x="714" 
d="M387 338l281 4v-571h-273v104q-40 -119 -174 -119q-95 0 -135 49q-39 48 -39 166v4v365h277v-309v-4q0 -46 6 -64t26 -18q19 0 25 18t6 66v309z" />
    <glyph glyph-name="v.inferior" horiz-adv-x="700" 
d="M350 -129l64 467h272l-88 -571h-496l-88 571h273z" />
    <glyph glyph-name="w.inferior" horiz-adv-x="985" 
d="M709 -129l41 467h206l-55 -571h-385l-22 469l-25 -469h-385l-55 571h207l40 -467l33 467h367z" />
    <glyph glyph-name="x.inferior" horiz-adv-x="702" 
d="M528 63l174 -296h-290l-60 137l-61 -137h-291l174 296l-166 275h289l55 -121l54 121h288z" />
    <glyph glyph-name="y.inferior" horiz-adv-x="718" 
d="M350 -53l64 391h295l-138 -772h-284l43 260h-228l-88 512h279z" />
    <glyph glyph-name="z.inferior" horiz-adv-x="645" 
d="M590 86l-215 -121h231v-198h-559v251l215 121h-213v199h541v-252z" />
    <glyph glyph-name="a.ss04.inferior" horiz-adv-x="724" 
d="M401 338l269 -2v-572h-273v72q-20 -39 -61 -63q-42 -25 -86 -25q-71 0 -121 41t-74 109t-24 151q0 85 24 152t74 108t121 41q59 0 98 -33q42 -36 53 -79v100zM395 -39l-2 -4q13 29 13 86q0 61 -13 90t-39 29q-28 0 -37 -27q-10 -30 -10 -88t10 -88q9 -27 37 -27t41 29z
" />
    <glyph glyph-name="y.ss05.inferior" horiz-adv-x="665" 
d="M322 39l61 299h283l-222 -772h-284l45 164l-219 608h276z" />
    <glyph glyph-name="a.superior" horiz-adv-x="718" 
d="M600 1505l6 -4q74 -65 74 -172v-4v-342h-272v70q-24 -41 -68 -62q-46 -22 -104 -22q-52 0 -101 24q-51 25 -80 70q-30 47 -30 104q0 161 231 179l143 12v2v4q0 49 -32 49t-35 -43h-281q15 95 101 148t215 53q158 0 233 -66zM387 1139l4 -2q14 25 17 59l-46 -4
q-23 -3 -36 -14q-15 -12 -15 -27q0 -14 11 -25q10 -10 28 -10q24 0 37 23z" />
    <glyph glyph-name="b.superior" horiz-adv-x="724" 
d="M594 1530l-4 -6q50 -41 74 -109t24 -151q0 -84 -24 -152q-23 -64 -74 -106q-48 -39 -121 -39q-45 0 -86 24q-40 24 -61 64v-72h-273v778h273v-307q12 45 53 80t98 35q73 0 121 -39zM397 1174l-2 -7q11 33 11 88q0 58 -11 91q-9 28 -37 28q-27 0 -39 -26q-12 -27 -12 -88
q0 -59 12 -86t41 -27q28 0 37 27z" />
    <glyph glyph-name="c.superior" horiz-adv-x="696" 
d="M182 1008l-4 -7q-75 38 -115 105t-40 158q0 90 40 157t115 105q73 37 168 37q84 0 160 -29q71 -27 115 -80q43 -52 49 -123h-281q0 18 -10 35q-10 16 -31 16q-22 0 -31 -28q-10 -30 -10 -86q0 -61 12 -88t35 -27q22 0 31 12t12 35h281q-9 -77 -55 -129t-117 -76
q-70 -24 -154 -24q-97 0 -170 37z" />
    </font>
</defs>
</svg>
