<?xml version="1.0" standalone="no"?>
<!DOCTYPE svg PUBLIC "-//W3C//DTD SVG 1.1//EN" "http://www.w3.org/Graphics/SVG/1.1/DTD/svg11.dtd" >
<svg xmlns="http://www.w3.org/2000/svg" xmlns:xlink="http://www.w3.org/1999/xlink" version="1.1">
<metadata>
Created by FontForge 20170731 at Fri Apr 21 21:41:33 2023
 By Aleksey,,,
(c) 2014-2020. Copyright by TYPE.WELTKERN :. All rights reserved.
</metadata>
<defs>
<font id="TWKEverett-Medium" horiz-adv-x="1536" >
  <font-face 
    font-family="TWK Everett"
    font-weight="500"
    font-stretch="normal"
    units-per-em="2048"
    panose-1="2 11 2 4 0 0 0 0 0 0"
    ascent="1638"
    descent="-410"
    x-height="1104"
    cap-height="1556"
    bbox="-1843 -625 6777 2216"
    underline-thickness="184"
    underline-position="-649"
    unicode-range="U+000D-FEFF"
  />
<missing-glyph horiz-adv-x="1515" 
d="M1329 0h-1143v1556h1143v-1556zM449 1346v-1135h618v1135h-618z" />
    <glyph glyph-name="fi" unicode="fi" horiz-adv-x="1347" 
d="M1202 0l-258 -4v915h-440v-915h-256v915h-215v189h215v133q0 104 47 178t127 109q78 34 188 34h162v-186h-117q-73 0 -112 -31q-37 -30 -37 -110v-123h696v-1104zM936 1270v282h270v-282h-270z" />
    <glyph glyph-name="fl" unicode="fl" horiz-adv-x="1347" 
d="M1202 0l-258 -4v1370h-291q-73 0 -112 -31q-37 -30 -37 -110v-123h266v-189h-266v-915h-256v915h-215v189h215v133q0 104 47 178t127 109q78 34 188 34h592v-1556z" />
    <glyph glyph-name="W_W_W" unicode="WWW" horiz-adv-x="6811" 
d="M6175 31l338 1525h264l-346 -1556h-512l-269 1522l-268 -1522h-512l-340 1524l-342 -1524h-512l-268 1522l-268 -1522h-512l-340 1530l-342 -1530h-512l-267 1528l-268 -1528h-512l-348 1556h266l336 -1519l272 1519h506l271 -1525l338 1525h518l338 -1525l270 1525h508
l270 -1525l338 1525h518l338 -1525l270 1525h508z" />
    <glyph glyph-name="f_f" unicode="ff" horiz-adv-x="1599" 
d="M1454 1370l-4 -8q-74 0 -113 -31q-37 -30 -37 -110v-123h267v-189h-267v-915h-256v915h-542v-915h-256v915h-215v189h215v133q0 104 47 178t127 109q78 34 188 34h162v-186h-117q-73 0 -112 -31q-37 -30 -37 -110v-123h543v133q0 105 47 176q47 72 129 109q79 36 186 36
h162v-186h-117z" />
    <glyph glyph-name="f_f_i" unicode="ffi" horiz-adv-x="2148" 
d="M2003 1104l-4 -1112h-256v915h-443v-915h-256v915h-542v-915h-256v915h-215v189h215v133q0 104 47 178t127 109q78 34 188 34h162v-186h-117q-73 0 -112 -31q-37 -30 -37 -110v-123h543v133q0 105 47 176q47 72 129 109q79 36 186 36h162v-186h-117q-74 0 -113 -31
q-36 -29 -36 -110v-123h698zM1735 1266v282h268v-282h-268z" />
    <glyph glyph-name="f_f_l" unicode="ffl" horiz-adv-x="2148" 
d="M1747 1556l252 -8v-1556h-256v915h-443v-915h-256v915h-542v-915h-256v915h-215v189h215v133q0 104 47 178t127 109q78 34 188 34h162v-186h-117q-73 0 -112 -31q-37 -30 -37 -110v-123h543v133q0 105 47 176q47 72 129 109q79 36 186 36h162v-186h-117q-74 0 -113 -31
q-36 -29 -36 -110v-123h442v452z" />
    <glyph glyph-name="f_j" unicode="fj" horiz-adv-x="1347" 
d="M1202 1104l-2 -1190q0 -108 -45 -176q-46 -69 -129 -107q-81 -37 -186 -37h-101v191h56q73 0 112 31q37 30 37 110v985h-440v-915h-256v915h-215v189h215v133q0 104 47 178t127 109q78 34 188 34h162v-186h-117q-73 0 -112 -31q-37 -30 -37 -110v-123h696zM936 1270v282
h270v-282h-270z" />
    <glyph glyph-name="f_t" unicode="ft" horiz-adv-x="1622" 
d="M1569 190l-4 -194h-162q-103 0 -184 35q-82 36 -127 104q-48 73 -48 176v4v596h-540v-915h-256v915h-215v189h215v133q0 104 47 178t127 109q78 34 188 34h162v-186h-117q-73 0 -112 -31q-37 -30 -37 -110v-123h541v262h256v-262h262v-189h-262v-583v-4q0 -78 36 -107
q39 -31 113 -31h117z" />
    <glyph glyph-name="t_f" unicode="tf" horiz-adv-x="1622" 
d="M1477 1370l-4 -4q-74 0 -113 -31q-37 -30 -37 -110v-123h268v-189h-268v-915h-256v915h-569v-583v-4q0 -77 37 -107q39 -31 112 -31h117v-190h-160q-102 0 -186 35q-83 35 -129 104q-47 71 -47 176v4v596h-217v189h217v262h256v-262h569v133q0 104 47 178q47 75 129 109
q81 34 191 34h161v-186h-118z" />
    <glyph glyph-name="t_t" unicode="tt" horiz-adv-x="1644" 
d="M1591 190l-2 -190h-162q-103 0 -184 35q-82 36 -127 104q-47 71 -47 176v4v596h-567v-583v-4q0 -77 37 -107q39 -31 112 -31h117v-190h-160q-102 0 -186 35q-83 35 -129 104q-47 71 -47 176v4v596h-217v189h217v262h256v-262h567v262h256v-262h264v-189h-264v-583v-4
q0 -77 37 -107q39 -31 113 -31h116z" />
    <glyph glyph-name="w_w_w" unicode="www" horiz-adv-x="5337" 
d="M4829 27l232 1077h237l-237 -1104h-463l-180 1079l-181 -1079h-463l-229 1065l-231 -1065h-461l-180 1073l-183 -1073h-460l-232 1065l-229 -1065h-463l-180 1079l-181 -1079h-462l-238 1104h240l229 -1077l184 1077h455l184 -1077l230 1077h463l231 -1071l182 1071h457
l184 -1077l230 1077h463l229 -1077l184 1077h455z" />
    <glyph glyph-name=".notdef" horiz-adv-x="1515" 
d="M1329 0h-1143v1556h1143v-1556zM449 1346v-1135h618v1135h-618z" />
    <glyph glyph-name=".null" horiz-adv-x="0" 
 />
    <glyph glyph-name="nonmarkingreturn" unicode="&#xd;" horiz-adv-x="493" 
 />
    <glyph glyph-name="space" unicode=" " horiz-adv-x="493" 
 />
    <glyph glyph-name="exclam" unicode="!" horiz-adv-x="600" 
d="M410 522h-220l-34 1034h288zM444 0h-288v279h288v-279z" />
    <glyph glyph-name="quotedbl" unicode="&#x22;" horiz-adv-x="845" 
d="M336 958h-191l-36 598h264zM700 958h-190l-37 598h264z" />
    <glyph glyph-name="numbersign" unicode="#" horiz-adv-x="1646" 
d="M1565 1104v-176h-338l-72 -340h303v-178h-340l-84 -410h-209l84 410h-348l-84 -410h-207l84 410h-272v178h309l72 340h-275v176h310l94 452h207l-94 -452h348l94 452h209l-94 -452h303zM598 588h348l72 340h-348z" />
    <glyph glyph-name="dollar" unicode="$" horiz-adv-x="1378" 
d="M1225 229l2 -6q-55 -102 -160 -166q-104 -64 -248 -82v-251h-248v253q-130 21 -233 89q-101 67 -166 170t-80 233h266q9 -94 56 -162t118 -104q73 -37 166 -37q98 0 174 31q72 29 111 90q37 58 37 135q0 62 -31 110q-29 45 -94 80q-67 36 -172 62l-193 49
q-193 52 -301 147q-106 93 -106 265q0 113 55 204q56 93 158 154q105 63 233 78v241h248v-243q189 -30 307 -142t142 -280h-267q-26 112 -110 174q-82 61 -213 61q-84 0 -154 -28q-64 -26 -104 -78q-37 -49 -37 -111q0 -60 35 -98q34 -37 92 -61q53 -22 176 -58l193 -53
q201 -55 303 -160q100 -103 100 -278q0 -127 -55 -228z" />
    <glyph glyph-name="percent" unicode="%" horiz-adv-x="1929" 
d="M158 811l-4 -2q-95 115 -95 326q0 208 97 325q95 115 268 115q171 0 266 -115q94 -113 94 -325q0 -213 -94 -326t-266 -113q-171 0 -266 115zM637 -4h-240l883 1556h240zM580 1135q0 292 -160 292t-160 -292q0 -289 160 -289t160 289zM1231 84l-6 -2q-95 115 -95 326
q0 208 97 325q95 115 268 115q118 0 195 -51q79 -52 122 -150t43 -239q0 -213 -94 -326t-264 -113q-171 0 -266 115zM1651 408q0 290 -160 290q-80 0 -121 -71t-41 -219q0 -149 41 -220t121 -71q160 0 160 291z" />
    <glyph glyph-name="ampersand" unicode="&#x26;" horiz-adv-x="1581" 
d="M1565 0l-305 -4l-152 172q-105 -97 -221 -148q-117 -51 -254 -51q-159 0 -289 54q-128 53 -197 153t-69 246q0 170 98 283t275 202q-63 72 -97 121q-35 51 -55 100q-20 50 -20 107q0 91 55 170q58 83 155 127q103 47 228 47q134 0 225 -45q96 -47 148 -123
q53 -77 53 -166q0 -117 -84 -201q-82 -82 -250 -165l-12 -7l317 -360l186 313h234l-260 -438l-8 -12q-6 -9 -15 -21zM592 1354h2q-51 -42 -51 -123q0 -47 28 -92q22 -35 91 -111l12 -14q112 57 164 104q55 49 55 117q0 76 -49 119t-123 43q-77 0 -129 -43zM985 309l-405 449
q-127 -71 -185 -144q-59 -74 -59 -178q0 -88 41 -153t110 -99q65 -32 160 -32q193 0 338 157z" />
    <glyph glyph-name="quotesingle" unicode="'" horiz-adv-x="481" 
d="M336 958h-191l-36 598h264z" />
    <glyph glyph-name="parenleft" unicode="(" horiz-adv-x="679" 
d="M414 -401l-4 -2q-147 216 -234 458q-90 250 -90 531q0 277 90 518q86 230 238 455h258q-148 -219 -236 -455t-88 -518t90 -529q87 -239 234 -458h-258z" />
    <glyph glyph-name="parenright" unicode=")" horiz-adv-x="679" 
d="M8 -401h-4q147 219 234 458q90 247 90 529t-88 518t-236 455h258q152 -225 238 -455q90 -241 90 -518q0 -281 -90 -531q-86 -238 -234 -456h-258z" />
    <glyph glyph-name="asterisk" unicode="*" horiz-adv-x="919" 
d="M797 1616l51 -158l-250 -82l160 -217l-133 -98l-166 223l-164 -223l-135 98l162 217l-250 82l49 158l254 -82v252h168v-252z" />
    <glyph glyph-name="plus" unicode="+" horiz-adv-x="1288" 
d="M745 653h451v-194h-451v-459h-202v459h-451v194h451v451h202v-451z" />
    <glyph glyph-name="comma" unicode="," horiz-adv-x="577" 
d="M143 0v279h291v-310l-151 -248h-172l127 279h-95z" />
    <glyph glyph-name="hyphen" unicode="-" horiz-adv-x="917" 
d="M791 475h-662v213h662v-213z" />
    <glyph glyph-name="period" unicode="." horiz-adv-x="577" 
d="M434 0h-291v279h291v-279z" />
    <glyph glyph-name="slash" unicode="/" horiz-adv-x="1050" 
d="M319 0h-276l688 1556h275z" />
    <glyph glyph-name="zero" unicode="0" horiz-adv-x="1468" 
d="M395 68q-142 92 -215 272q-74 183 -74 438q0 256 74 439q73 180 215 272t338 92q198 0 340 -92t215 -272q74 -183 74 -439q0 -255 -74 -438q-73 -180 -215 -272q-143 -93 -340 -93q-195 0 -338 93zM999 328v-4q93 152 93 448q0 297 -93 449q-92 151 -268 151
q-177 0 -268 -149q-92 -151 -92 -449q0 -297 92 -448q91 -150 268 -150q175 0 268 152z" />
    <glyph glyph-name="one" unicode="1" horiz-adv-x="819" 
d="M432 1556h203v-1556h-260v1118h-332v211h59q102 0 166 21q65 21 99 61t55 105z" />
    <glyph glyph-name="two" unicode="2" horiz-adv-x="1368" 
d="M397 211l881 -10v-211h-1184v276l684 561q98 82 146 148q49 67 49 141q0 71 -37 129q-37 57 -105 92q-65 33 -159 33q-140 0 -219 -67q-82 -70 -91 -199h-266q9 147 88 254q78 105 209 162q128 55 285 55q163 0 291 -55t202 -158t74 -234q0 -125 -67 -229
q-65 -102 -205 -217z" />
    <glyph glyph-name="three" unicode="3" horiz-adv-x="1363" 
d="M1038 766l-2 -6q96 -41 160 -123q66 -84 66 -205q0 -146 -80 -252q-77 -102 -217 -155q-137 -52 -310 -52q-170 0 -297 56q-126 55 -196 157q-71 103 -86 240h266q9 -113 90 -182q80 -68 223 -68q78 0 160 29q75 26 129 90q51 60 51 154q0 89 -49 147q-50 59 -135 86
q-92 29 -193 29h-100v211h100q104 0 177 30q72 29 114 84q41 53 41 117q0 66 -37 115q-40 52 -104 78q-70 28 -156 28q-125 0 -198 -61t-82 -166h-267q12 127 89 227t196 152q121 53 264 53q155 0 283 -49t205 -141q76 -91 76 -209q0 -162 -109 -248t-268 -113
q100 -12 196 -53z" />
    <glyph glyph-name="four" unicode="4" horiz-adv-x="1400" 
d="M1118 643h225v-211h-225v-432h-262v432h-801v277l559 847h504v-913zM856 1522l-575 -879h575v879z" />
    <glyph glyph-name="five" unicode="5" horiz-adv-x="1357" 
d="M1020 999l-12 -14q114 -61 184 -184q70 -122 70 -293q0 -173 -80 -297q-79 -123 -211 -184q-133 -62 -295 -62q-158 0 -283 55t-205 158q-79 101 -94 244h266q9 -71 50 -131q40 -58 108 -88q70 -31 158 -31q93 0 164 39q72 40 116 117q43 76 43 188q0 115 -45 189
q-46 76 -116 116q-68 39 -154 39q-115 0 -197 -55q-81 -55 -122 -154l-252 25l77 876h986v-211h-748l-47 -528q26 65 84 123q55 56 135 90q81 35 174 35q131 0 246 -62z" />
    <glyph glyph-name="six" unicode="6" horiz-adv-x="1437" 
d="M1092 967l-5 -6q123 -65 191 -185q68 -121 68 -282q0 -155 -78 -277q-75 -117 -215 -186q-139 -68 -310 -68q-194 0 -337 88q-144 89 -224 271q-80 183 -80 448q0 255 80 438q79 179 226 273q145 92 335 92q155 0 271 -49q115 -49 190 -142q76 -95 103 -219h-267
q-27 94 -102 154q-72 57 -195 57q-137 0 -223 -86q-85 -85 -123 -231q-37 -142 -28 -326q27 86 92 154q61 64 153 106q85 39 191 39q167 0 287 -63zM909 211h-2q77 41 121 115q43 73 43 170q0 101 -39 172q-40 74 -117 114q-77 41 -180 41q-104 0 -184 -41t-123 -110
q-43 -70 -43 -160q0 -101 41 -178q42 -79 119 -121q79 -43 192 -43q95 0 172 41z" />
    <glyph glyph-name="seven" unicode="7" horiz-adv-x="1142" 
d="M47 1346v210h1049v-276l-666 -1280h-307l721 1346h-797z" />
    <glyph glyph-name="eight" unicode="8" horiz-adv-x="1431" 
d="M1128 762l5 -2q87 -46 147 -127q57 -77 57 -197q0 -142 -80 -248q-78 -103 -221 -159q-142 -56 -319 -56q-178 0 -320 56q-143 56 -221 159q-80 106 -80 248q0 118 58 197q60 81 147 127t191 61q-156 41 -252 121q-95 80 -95 232q0 122 72 215q70 91 201 141
q128 49 297 49t297 -49q130 -50 200 -141q72 -93 72 -215q0 -153 -94 -232q-92 -77 -252 -119q103 -15 190 -61zM487 985v-2q76 -61 234 -61t231 61q74 62 74 164q0 103 -78 166q-76 61 -227 61q-150 0 -229 -61q-80 -62 -80 -166q0 -102 75 -162zM889 203h-2q79 30 129 92
q49 61 49 156q0 83 -45 143q-47 63 -125 92q-82 31 -178 31q-98 0 -180 -31q-78 -29 -125 -92q-45 -60 -45 -143q0 -95 49 -156q50 -62 129 -92q82 -31 172 -31t172 31z" />
    <glyph glyph-name="nine" unicode="9" horiz-adv-x="1437" 
d="M1030 1493l-4 4q143 -88 223 -270q80 -183 80 -449q0 -255 -80 -438q-79 -181 -223 -272q-146 -93 -334 -93q-152 0 -270 50t-191 141q-75 94 -102 219h266q27 -93 103 -154q72 -57 194 -57q140 0 226 86q83 83 122 232q38 146 29 325q-27 -85 -92 -153
q-62 -65 -154 -107q-85 -39 -190 -39q-159 0 -285 66q-123 64 -190 184q-68 121 -68 283q0 154 78 276q75 117 215 186q139 68 309 68q195 0 338 -88zM874 770h-4q80 40 123 111q43 70 43 159q0 105 -39 179q-41 78 -118 120q-79 43 -193 43q-95 0 -172 -41
q-78 -41 -121 -114t-43 -170q0 -98 41 -172q41 -75 117 -115q77 -41 182 -41q104 0 184 41z" />
    <glyph glyph-name="colon" unicode=":" horiz-adv-x="577" 
d="M434 0h-291v279h291v-279zM434 692h-291v279h291v-279z" />
    <glyph glyph-name="semicolon" unicode=";" horiz-adv-x="577" 
d="M143 0v279h291v-310l-151 -248h-172l127 279h-95zM434 692h-291v279h291v-279z" />
    <glyph glyph-name="less" unicode="&#x3c;" horiz-adv-x="1206" 
d="M102 717l981 346v-209l-858 -299l858 -299v-207l-981 344v324z" />
    <glyph glyph-name="equal" unicode="=" horiz-adv-x="1316" 
d="M1178 678h-1041v196h1041v-196zM1178 246h-1041v194h1041v-194z" />
    <glyph glyph-name="greater" unicode="&#x3e;" horiz-adv-x="1206" 
d="M123 854v209l979 -346v-324l-979 -344v207l858 299z" />
    <glyph glyph-name="question" unicode="?" horiz-adv-x="1175" 
d="M422 522l-2 -2q0 116 41 203t127 164l98 86q61 51 86 80q36 41 47 67q17 39 17 74q0 47 -29 94q-27 44 -86 68q-58 24 -137 24t-135 -26q-58 -27 -93 -80q-34 -52 -37 -119h-262q6 130 78 227t191 146t264 49q156 0 274 -47q117 -47 178 -131q62 -86 62 -197
q0 -67 -25 -125q-24 -55 -61 -98t-94 -94l-101 -88q-61 -52 -88 -88q-32 -43 -43 -84q-12 -44 -12 -103h-258zM700 -2h-290v278h290v-278z" />
    <glyph glyph-name="at" unicode="@" horiz-adv-x="1974" 
d="M1434 1257l-9 -4q209 -125 330 -327q123 -206 123 -453q0 -171 -55 -278t-142 -154q-83 -45 -186 -45q-129 0 -209 57q-86 61 -115 150q-42 -92 -118 -148q-80 -59 -199 -59q-91 0 -166 37q-78 38 -123 104q-45 65 -45 158q0 138 105 203q106 65 299 86l241 26v33v4
q0 85 -51 127q-52 43 -135 43q-79 0 -127 -39q-50 -41 -59 -106h-234q12 96 70 166q57 68 149 106q90 37 205 37q127 0 223 -41q98 -42 146 -119q49 -79 49 -186v-4v-297v-4q0 -73 37 -113q36 -39 98 -39q75 0 123 66q45 62 45 231q0 196 -98 361t-265 264q-165 98 -360 98
q-198 0 -363 -98q-166 -98 -264 -264q-98 -165 -98 -361q0 -195 98 -360q99 -167 264 -265t363 -98q90 0 182 25t166 67l96 -155q-101 -58 -215 -88q-118 -31 -233 -31q-243 0 -451 123q-205 121 -327 330q-121 207 -121 452q0 246 121 453q120 206 329 329q208 123 453 123
q247 0 453 -123zM1047 184l-5 2q55 30 86 90t31 132v61l-158 -16q-122 -15 -188 -50q-65 -35 -65 -110q0 -66 49 -103q48 -36 127 -36q68 0 123 30z" />
    <glyph glyph-name="A" unicode="A" horiz-adv-x="1587" 
d="M1585 0h-278l-150 446h-727l-149 -446h-279l539 1556h506zM795 1524l-289 -852h575z" />
    <glyph glyph-name="B" unicode="B" horiz-adv-x="1480" 
d="M1276 698l-2 7q115 -92 115 -267q0 -135 -68 -235q-66 -97 -203 -150q-131 -51 -325 -51h-617v1557h612q188 0 312 -56q121 -55 180 -147q57 -89 57 -205q0 -102 -49 -178t-137 -119q-87 -43 -205 -55q215 -9 330 -101zM440 1333v-418h355q268 0 268 207q0 106 -70 158
q-71 53 -198 53h-355zM805 229v-4q155 0 233 60t78 172t-78 172q-77 59 -233 59h-365v-459h365z" />
    <glyph glyph-name="C" unicode="C" horiz-adv-x="1615" 
d="M455 74h2q-168 98 -267 282q-98 183 -98 422q0 238 96 422q94 181 265 281q168 98 381 98q177 0 325 -68t246 -190t139 -287h-276q-53 153 -160 240q-110 90 -277 90q-138 0 -247 -74q-106 -72 -166 -207q-58 -131 -58 -307q0 -174 62 -307q63 -136 168 -207
q109 -74 241 -74q168 0 283 86q111 83 168 246h274q-76 -269 -264 -407t-461 -138q-207 0 -376 99z" />
    <glyph glyph-name="D" unicode="D" horiz-adv-x="1607" 
d="M731 1556q237 0 412 -88t270 -264q96 -178 96 -426t-96 -426q-95 -176 -270 -264t-412 -88h-553v1556h553zM737 227q158 0 271 64t172 188t59 299t-59 299q-60 125 -172 189q-111 63 -271 63h-295v-1102h295z" />
    <glyph glyph-name="E" unicode="E" horiz-adv-x="1349" 
d="M442 686v-459h797v-227h-1061v1556h1043v-227h-779v-416h764v-227h-764z" />
    <glyph glyph-name="F" unicode="F" horiz-adv-x="1286" 
d="M1198 1556v-227h-756v-440h744v-225h-744v-664h-264v1556h1020z" />
    <glyph glyph-name="G" unicode="G" horiz-adv-x="1708" 
d="M782 858l787 4v-858h-223v383q-35 -114 -101 -203q-67 -90 -178 -149q-110 -58 -260 -58q-197 0 -361 99q-160 97 -260 280q-98 180 -98 422q0 234 96 418q94 181 267 283q169 100 391 100q184 0 327 -61q147 -63 240 -175q97 -116 139 -276h-276q-49 137 -158 217
t-270 80q-143 0 -252 -74q-106 -72 -166 -207q-59 -133 -59 -307q0 -176 61 -307q63 -135 172 -207q112 -74 256 -74q129 0 234 54q101 52 159 153q59 103 62 244h-529v219z" />
    <glyph glyph-name="H" unicode="H" horiz-adv-x="1622" 
d="M1180 918v638h264v-1556h-264v682h-738v-682h-264v1556h264v-638h738z" />
    <glyph glyph-name="I" unicode="I" horiz-adv-x="620" 
d="M442 0h-264v1556h264v-1556z" />
    <glyph glyph-name="J" unicode="J" horiz-adv-x="798" 
d="M39 0v225h164q85 0 125 37q39 36 39 117v1177h264v-1222q0 -161 -96 -248q-95 -86 -281 -86h-215z" />
    <glyph glyph-name="K" unicode="K" horiz-adv-x="1458" 
d="M748 819l741 -819h-338l-709 786v-786h-264v1556h264v-712l643 712h332z" />
    <glyph glyph-name="L" unicode="L" horiz-adv-x="1171" 
d="M442 1556v-1329h695v-227h-959v1556h264z" />
    <glyph glyph-name="M" unicode="M" horiz-adv-x="2189" 
d="M2011 1556v-1556h-264v1526l-401 -1526h-502l-402 1526v-1526h-264v1556h522l396 -1527l393 1527h522z" />
    <glyph glyph-name="N" unicode="N" horiz-adv-x="1755" 
d="M1313 31v1525h264v-1556h-526l-609 1526v-1526h-264v1556h527z" />
    <glyph glyph-name="O" unicode="O" horiz-adv-x="1703" 
d="M457 76q-177 104 -269 282q-96 184 -96 418t96 418q93 179 269 283q169 100 395 100t395 -100q176 -104 269 -283q96 -184 96 -418t-96 -418q-92 -178 -269 -282q-171 -101 -395 -101t-395 101zM1106 264q109 72 172 207q61 131 61 307t-61 307q-63 135 -172 207
q-112 74 -254 74t-254 -74q-109 -72 -172 -207q-61 -131 -61 -307t61 -307q63 -135 172 -207q112 -74 254 -74t254 74z" />
    <glyph glyph-name="P" unicode="P" horiz-adv-x="1441" 
d="M772 1556v-4q198 0 332 -57q137 -58 211 -170t74 -268q0 -157 -74 -269t-211 -170q-134 -57 -332 -57h-330v-561h-264v1556h594zM778 782v2q162 0 248 68t86 203q0 134 -86 202t-248 68h-336v-543h336z" />
    <glyph glyph-name="Q" unicode="Q" horiz-adv-x="1714" 
d="M1774 0l-342 4l-127 113q-97 -69 -209 -103t-246 -34q-226 0 -395 100q-177 104 -269 282q-96 184 -96 418t96 418q93 179 269 283q169 100 395 100t395 -100q174 -103 268 -283q97 -186 97 -418q0 -149 -37 -276q-36 -125 -109 -230zM1122 279l-315 284h342l121 -106
q69 135 69 325q0 177 -61 308q-62 133 -172 206q-112 74 -254 74t-254 -74q-110 -73 -172 -206q-61 -131 -61 -308q0 -176 61 -307q63 -135 172 -207q110 -73 254 -73q148 0 270 84z" />
    <glyph glyph-name="R" unicode="R" horiz-adv-x="1482" 
d="M1128 0l-356 606h-330v-608h-264v1556h596q180 0 309 -57q133 -59 203 -166q72 -110 72 -252q0 -156 -82 -266q-82 -111 -234 -164l392 -649h-306zM442 1327l-2 -496h338q145 0 226 66q79 64 79 182q0 119 -79 183q-80 65 -224 65h-338z" />
    <glyph glyph-name="S" unicode="S" horiz-adv-x="1439" 
d="M397 35l-2 -8q-137 63 -221 174q-85 113 -106 266h274q18 -137 117 -211q100 -74 246 -74q118 0 206 31q86 30 133 86q46 55 46 127t-37 115t-107 67q-96 33 -198 54l-209 45q-202 44 -314 147t-112 276q0 125 77 228q76 101 209 160t295 59q176 0 307 -55
q132 -55 211 -154q83 -103 103 -227h-275q-35 114 -122 166q-89 53 -222 53q-84 0 -161 -25q-73 -24 -117 -71q-43 -46 -43 -109q0 -62 31 -104q30 -41 98 -68q74 -29 190 -55l207 -45q160 -35 254 -88q98 -55 148 -138q49 -82 49 -202q0 -142 -80 -254q-77 -108 -228 -168
t-342 -60q-169 0 -305 62z" />
    <glyph glyph-name="T" unicode="T" horiz-adv-x="1337" 
d="M35 1556h1268v-227h-502v-1329h-264v1329h-502v227z" />
    <glyph glyph-name="U" unicode="U" horiz-adv-x="1583" 
d="M162 621v2v931h264v-952v-4q0 -410 367 -410q364 0 364 414v952h264v-931q0 -314 -151 -482q-150 -166 -477 -166q-631 0 -631 646z" />
    <glyph glyph-name="V" unicode="V" horiz-adv-x="1540" 
d="M770 33l475 1523h287l-502 -1556h-520l-504 1556h289z" />
    <glyph glyph-name="W" unicode="W" horiz-adv-x="2332" 
d="M1690 31l338 1525h266l-348 -1556h-512l-267 1528l-268 -1528h-512l-348 1556h266l336 -1519l272 1519h506z" />
    <glyph glyph-name="X" unicode="X" horiz-adv-x="1544" 
d="M942 829l610 -829h-315l-465 635l-465 -635h-315l610 829l-539 727h314l395 -538l395 538h314z" />
    <glyph glyph-name="Y" unicode="Y" horiz-adv-x="1413" 
d="M1124 1556h301l-587 -907v-649h-263v649l-587 907h299l420 -655z" />
    <glyph glyph-name="Z" unicode="Z" horiz-adv-x="1425" 
d="M1323 1260l-950 -1033h989v-227h-1280v297l950 1032h-936v227h1227v-296z" />
    <glyph glyph-name="bracketleft" unicode="[" horiz-adv-x="712" 
d="M657 1556v-190h-231v-1577h231v-190h-487v1957h487z" />
    <glyph glyph-name="backslash" unicode="\" horiz-adv-x="1050" 
d="M1006 0h-275l-688 1556h276z" />
    <glyph glyph-name="bracketright" unicode="]" horiz-adv-x="712" 
d="M55 1366v190h488v-1957h-488v190h232v1577h-232z" />
    <glyph glyph-name="asciicircum" unicode="^" horiz-adv-x="1153" 
d="M760 1556l321 -804h-243l-260 698l-263 -698h-243l323 804h365z" />
    <glyph glyph-name="underscore" unicode="_" horiz-adv-x="1177" 
d="M1090 -190h-1002v190h1002v-190z" />
    <glyph glyph-name="grave" unicode="`" horiz-adv-x="675" 
d="M629 1241h-238l-344 315h348z" />
    <glyph glyph-name="a" unicode="a" horiz-adv-x="1226" 
d="M883 1071l-9 -4q106 -58 160 -154q51 -92 51 -213v-4v-700h-254v219q-38 -80 -83 -131q-46 -52 -117 -82q-73 -31 -172 -31q-105 0 -191 47q-86 46 -135 129q-49 82 -49 185q0 119 68 190q69 72 165 101q103 31 226 43l293 30v15v4q0 61 -25 116t-76 84q-54 31 -125 31
q-97 0 -155 -49t-70 -123h-258q12 108 78 189q63 78 170 122q104 43 237 43q166 0 271 -57zM705 176l-3 2q64 45 93 117q30 74 30 170v65l-198 -20q-85 -8 -150 -25q-59 -15 -98 -51q-41 -38 -41 -104q0 -58 29 -105q26 -42 77 -67q52 -25 109 -25q91 0 152 43z" />
    <glyph glyph-name="b" unicode="b" horiz-adv-x="1325" 
d="M1016 1055l-2 -2q106 -74 164 -205q59 -133 59 -297t-59 -297q-58 -131 -164 -205t-238 -74q-85 0 -155 33q-75 35 -132 92q-56 56 -92 136v-236h-254v1556h254v-712q27 75 80 141q53 65 129 105q72 38 172 38q134 0 238 -73zM844 201l-4 -4q65 48 100 137q35 90 35 213
q0 124 -33 209q-35 89 -100 137q-67 49 -162 49q-93 0 -160 -49q-65 -48 -100 -137q-35 -90 -35 -209t35 -209q34 -87 102 -137q67 -49 160 -49q95 0 162 49z" />
    <glyph glyph-name="c" unicode="c" horiz-adv-x="1224" 
d="M344 47l-2 -2q-124 72 -192 205t-68 301t68 301q68 132 194 203q127 71 289 71q142 0 250 -51q111 -53 178 -143q68 -92 92 -215h-260q-21 102 -88 166q-66 63 -172 63q-94 0 -158 -49t-98 -137q-35 -90 -35 -209q0 -121 35 -211q34 -88 98 -137t158 -49q207 0 272 225
h258q-27 -131 -100 -221q-74 -92 -184 -138q-112 -47 -244 -47q-164 0 -291 74z" />
    <glyph glyph-name="d" unicode="d" horiz-adv-x="1325" 
d="M926 1556l252 -2v-1556h-254v235q-34 -77 -93 -135q-57 -58 -131 -92q-70 -33 -155 -33q-132 0 -238 74q-105 73 -164 207q-59 133 -59 299q0 164 59 297q58 131 164 205q104 73 238 73q100 0 172 -38q77 -40 129 -105q53 -66 80 -141v712zM797 201l-4 -2q65 48 100 137
q35 90 35 213q0 124 -33 209q-35 89 -100 137q-67 49 -162 49t-162 -49q-65 -48 -100 -137q-33 -85 -33 -209q0 -121 35 -211q35 -89 100 -137q67 -49 162 -49t162 49z" />
    <glyph glyph-name="e" unicode="e" horiz-adv-x="1243" 
d="M1157 477l-823 -6q15 -157 92 -240q75 -81 197 -81q101 0 159 43q61 45 90 126h261q-52 -175 -185 -264q-131 -88 -330 -88q-164 0 -288 74q-125 75 -189 205q-65 133 -65 301q0 170 67 301t191 205q122 73 287 73q164 0 284 -69q124 -71 191 -199t67 -299q0 -39 -6 -82z
M428 868h2q-73 -73 -94 -219h557q-6 91 -43 154q-38 65 -98 102q-61 37 -138 37q-112 0 -186 -74z" />
    <glyph glyph-name="f" unicode="f" horiz-adv-x="800" 
d="M655 1370l-2 -4q-73 0 -112 -31q-37 -30 -37 -110v-123h266v-189h-266v-915h-256v915h-215v189h215v133q0 104 47 178t127 109q78 34 188 34h162v-186h-117z" />
    <glyph glyph-name="g" unicode="g" horiz-adv-x="1325" 
d="M930 1104l266 -4v-1096q0 -148 -74 -248q-72 -96 -192 -143q-116 -45 -258 -45q-133 0 -248 41q-112 40 -186 123q-73 82 -88 202h258q15 -87 86 -137q70 -49 172 -49q71 0 137 29q60 26 96 84q35 56 35 137v258q-30 -73 -88 -131t-135 -88q-79 -31 -160 -31
q-136 0 -240 70q-107 72 -164 198q-59 130 -59 295q0 166 59 293q59 126 164 197q103 69 238 69q99 0 172 -36q78 -38 129 -101q53 -66 80 -141v254zM874 285v-2q78 104 78 282q0 175 -78 279q-75 100 -219 100q-141 0 -217 -98t-76 -279t76 -282t217 -101q143 0 219 101z
" />
    <glyph glyph-name="h" unicode="h" horiz-adv-x="1259" 
d="M956 1071l2 -2q84 -57 127 -154q43 -98 43 -223v-4v-690h-256v641v4q0 154 -61 227q-62 74 -174 74q-111 0 -172 -76q-62 -77 -62 -229v-641h-256v1556h254v-677q43 109 129 180q84 69 220 69q124 0 206 -55z" />
    <glyph glyph-name="i" unicode="i" horiz-adv-x="548" 
d="M401 0h-256v1104h256v-1104zM408 1274h-269v282h269v-282z" />
    <glyph glyph-name="j" unicode="j" horiz-adv-x="548" 
d="M-57 -401l-2 190h53q73 0 112 31q37 30 37 110v1174h256v-1186q0 -107 -45 -178q-45 -72 -127 -107q-78 -34 -186 -34h-98zM406 1274h-269v282h269v-282z" />
    <glyph glyph-name="k" unicode="k" horiz-adv-x="1175" 
d="M682 614l502 -614h-312l-471 580v-580h-256v1556h256v-913l453 461h309z" />
    <glyph glyph-name="l" unicode="l" horiz-adv-x="548" 
d="M401 0h-256v1556h256v-1556z" />
    <glyph glyph-name="m" unicode="m" horiz-adv-x="1921" 
d="M1624 1073l4 -4q81 -57 121 -154q41 -100 41 -227v-4v-690h-256v641v4q0 154 -55 227q-56 74 -162 74q-110 0 -166 -74q-55 -73 -55 -229v-641h-256v641v4q0 153 -56 227t-161 74q-110 0 -166 -74t-56 -229v-641h-256v1104h254v-228q41 115 123 185q81 69 213 69
q133 0 219 -77t121 -195q41 118 127 195t221 77q122 0 201 -55z" />
    <glyph glyph-name="n" unicode="n" horiz-adv-x="1259" 
d="M956 1071l2 -2q84 -57 127 -154q43 -98 43 -223v-4v-690h-256v641v4q0 154 -61 227q-62 74 -174 74q-111 0 -172 -76q-62 -77 -62 -229v-641h-256v1104h254v-225q43 109 129 180q84 69 220 69q124 0 206 -55z" />
    <glyph glyph-name="o" unicode="o" horiz-adv-x="1273" 
d="M342 47h-2q-126 73 -193 205q-67 131 -67 301q0 171 67 299t195 203q125 73 295 73t295 -73q126 -74 194 -203q68 -130 68 -299q0 -168 -68 -301q-67 -131 -194 -205t-295 -74t-295 74zM795 203l-4 -4q65 48 100 137q35 90 35 213q0 124 -33 209q-35 89 -100 137
q-67 49 -162 49q-93 0 -160 -49q-65 -48 -100 -137q-35 -90 -35 -209t35 -209q34 -87 102 -137q67 -49 160 -49q95 0 162 49z" />
    <glyph glyph-name="p" unicode="p" horiz-adv-x="1325" 
d="M1016 1055l-2 -2q106 -74 164 -205q59 -133 59 -297t-59 -297q-58 -131 -164 -205t-238 -74q-85 0 -155 33q-75 35 -132 92q-56 56 -92 136v-637h-254v1505h254v-260q27 75 80 141q53 65 129 105q72 38 172 38q134 0 238 -73zM844 201l-4 -4q65 48 100 137q35 90 35 213
q0 124 -33 209q-35 89 -100 137q-67 49 -162 49q-93 0 -160 -49q-65 -48 -100 -137q-35 -90 -35 -209t35 -209q34 -87 102 -137q67 -49 160 -49q95 0 162 49z" />
    <glyph glyph-name="q" unicode="q" horiz-adv-x="1325" 
d="M926 1104l252 -2v-1505h-254v636q-34 -77 -93 -135q-57 -58 -131 -92q-70 -33 -155 -33q-132 0 -238 74q-105 73 -164 207q-59 133 -59 299q0 164 59 297q58 131 164 205q104 73 238 73q100 0 172 -38q77 -40 129 -105q53 -66 80 -141v260zM797 201l-4 -2q65 48 100 137
q35 90 35 213q0 124 -33 209q-35 89 -100 137q-67 49 -162 49t-162 -49q-65 -48 -100 -137q-33 -85 -33 -209q0 -121 35 -211q35 -89 100 -137q67 -49 162 -49t162 49z" />
    <glyph glyph-name="r" unicode="r" horiz-adv-x="806" 
d="M399 836l2 -2q35 134 123 213t240 79v-252h-70q-102 0 -166 -24q-66 -25 -96 -80q-31 -57 -31 -152v-618h-256v1104h254v-268z" />
    <glyph glyph-name="s" unicode="s" horiz-adv-x="1126" 
d="M324 14l-9 -4q-106 41 -172 119q-67 79 -82 195h258q18 -89 84 -131q62 -39 154 -39q117 0 176 36q62 38 62 103q0 43 -19 72q-19 28 -65 49q-51 23 -125 37l-174 38q-157 35 -240 109q-82 73 -82 195q0 97 62 174q61 76 165 116q106 41 232 41q121 0 219 -34
q97 -34 166 -103q70 -70 90 -168h-258q-21 58 -82 92q-62 35 -137 35q-89 0 -150 -37t-61 -94q0 -36 22 -61q21 -24 64 -39q51 -17 117 -31l174 -37q173 -37 252 -117q79 -79 79 -211q0 -107 -61 -186q-61 -78 -172 -119q-112 -41 -252 -41q-129 0 -235 41z" />
    <glyph glyph-name="t" unicode="t" horiz-adv-x="823" 
d="M768 190v-190h-160q-102 0 -186 35q-83 35 -129 104q-47 71 -47 176v4v596h-217v189h217v262h256v-262h262v-189h-262v-583v-4q0 -77 37 -107q39 -31 112 -31h117z" />
    <glyph glyph-name="u" unicode="u" horiz-adv-x="1251" 
d="M848 1104l250 4v-1104h-254v219q-41 -110 -125 -176q-85 -67 -217 -67q-123 0 -205 55q-83 56 -123 153q-41 100 -41 226v4v688h256v-641v-4q0 -150 60 -225q59 -74 169 -74q111 0 170 74q60 75 60 227v641z" />
    <glyph glyph-name="v" unicode="v" horiz-adv-x="1212" 
d="M606 31l324 1073h258l-342 -1104h-479l-342 1104h256z" />
    <glyph glyph-name="w" unicode="w" horiz-adv-x="1851" 
d="M1337 27l230 1077h239l-237 -1104h-463l-180 1079l-181 -1079h-462l-238 1104h240l229 -1077l184 1077h455z" />
    <glyph glyph-name="x" unicode="x" horiz-adv-x="1163" 
d="M739 590l420 -590h-274l-303 430l-303 -430h-275l420 590l-381 514h274l265 -363l264 363h274z" />
    <glyph glyph-name="y" unicode="y" horiz-adv-x="1187" 
d="M602 156l295 948h268l-473 -1505h-264l162 520h-228l-354 985h258z" />
    <glyph glyph-name="z" unicode="z" horiz-adv-x="1093" 
d="M991 856l-629 -666h668v-190h-946v250l629 665h-617v189h895v-248z" />
    <glyph glyph-name="braceleft" unicode="{" horiz-adv-x="751" 
d="M514 952l-8 -2q0 -125 -33 -192q-34 -69 -96 -107q-59 -36 -162 -57q101 -21 162 -55q61 -35 96 -105q35 -72 35 -190v-4v-281v-4q0 -164 139 -164h25v-190h-72q-174 0 -260 86t-86 233v4v273v4q0 109 -21 164q-22 57 -63 77q-47 22 -119 31v244q75 9 121 31q43 21 64 77
q22 58 22 166v238q0 150 86 239q85 88 262 88h72v-190h-25q-70 0 -104 -43q-35 -44 -35 -125v-246z" />
    <glyph glyph-name="bar" unicode="|" horiz-adv-x="585" 
d="M416 -463h-246v2142h246v-2142z" />
    <glyph glyph-name="braceright" unicode="}" horiz-adv-x="751" 
d="M514 825l-4 -4q22 -58 63 -78q43 -21 121 -30v-244q-77 -9 -123 -31q-41 -20 -63 -78q-21 -55 -21 -165v-273q0 -150 -86 -239t-262 -89h-71v191h24q71 0 105 43t34 127v281q0 122 35 194q34 69 96 107q64 39 162 59q-98 21 -159 55q-63 35 -97 105q-32 65 -32 190v4v246
v4q0 164 -140 164h-24v190h71q177 0 263 -86t86 -233v-4v-238v-4q0 -106 22 -164z" />
    <glyph glyph-name="asciitilde" unicode="~" horiz-adv-x="1374" 
d="M96 547l-2 -4q70 95 160 153q86 56 182 56q52 0 109 -13q49 -11 141 -47q73 -33 129 -49q49 -14 105 -14q70 0 120 33q55 36 111 98l125 -125q-68 -96 -158 -154q-85 -55 -180 -55q-58 0 -111 12q-55 13 -141 49q-103 41 -131 48q-59 16 -106 16q-67 0 -117 -33
q-55 -36 -111 -98z" />
    <glyph glyph-name="uni00A0" unicode="&#xa0;" horiz-adv-x="493" 
 />
    <glyph glyph-name="exclamdown" unicode="&#xa1;" horiz-adv-x="563" 
d="M426 825h-289v279h289v-279zM426 -401h-289l35 983h219z" />
    <glyph glyph-name="cent" unicode="&#xa2;" horiz-adv-x="1294" 
d="M1202 381l-4 -8q-34 -163 -141 -264q-108 -102 -269 -129v-254h-241v256q-128 23 -230 102q-95 73 -149 197q-51 117 -51 268q0 145 53 266q54 124 149 197q102 79 230 102v248h242v-246q159 -26 266 -133q105 -105 135 -264h-260q-21 102 -88 166q-66 63 -172 63
q-94 0 -158 -49t-98 -137q-35 -90 -35 -209q0 -121 35 -211q34 -88 98 -137t158 -49q207 0 272 225h258z" />
    <glyph glyph-name="sterling" unicode="&#xa3;" horiz-adv-x="1290" 
d="M1210 211l-4 -207h-1083v272q106 57 170 109q63 51 96 104t33 127q0 12 -4 48h-318v198h201q-68 68 -111 146q-38 69 -38 170q0 123 69 213q70 91 191 141q119 49 264 49t258 -49t180 -137t82 -205h-266q-15 96 -82 145t-170 49q-68 0 -129 -28q-55 -25 -94 -80
q-37 -52 -37 -119q0 -69 33 -125q38 -64 100 -129l39 -43h457v-198h-369q2 -6 2 -31q0 -89 -43 -162t-123 -135t-205 -123h901z" />
    <glyph glyph-name="currency" unicode="&#xa4;" horiz-adv-x="1355" 
d="M1161 618h2q-21 -72 -61 -129l139 -139l-156 -155l-139 139q-121 -80 -268 -80q-142 0 -270 78l-138 -137l-155 155l137 137q-80 127 -80 277q0 149 82 274l-139 138l155 153l140 -137q125 78 268 78t268 -78l139 137l156 -153l-139 -138q80 -127 80 -276q0 -74 -21 -144
zM426 610l-2 -4q41 -68 106 -104q67 -37 148 -37q80 0 147 37t107 104q39 65 39 152q0 86 -39 151q-41 68 -107 105q-67 37 -147 37q-81 0 -148 -37q-64 -36 -106 -105q-39 -65 -39 -149q0 -82 41 -150z" />
    <glyph glyph-name="yen" unicode="&#xa5;" 
d="M1188 1556h293l-477 -722h327v-199h-432v-135h432v-197h-432v-303h-262v303h-434v197h434v135h-434v199h332l-480 722h295l418 -665z" />
    <glyph glyph-name="brokenbar" unicode="&#xa6;" horiz-adv-x="600" 
d="M424 838h-246v841h246v-841zM424 -463h-246v842h246v-842z" />
    <glyph glyph-name="section" unicode="&#xa7;" horiz-adv-x="1255" 
d="M1067 236l-8 -5q24 -49 24 -110q0 -96 -55 -172q-56 -77 -160 -123q-102 -45 -245 -45t-250 43t-172 123q-66 82 -84 182h266q15 -74 84 -119q67 -43 156 -43q94 0 147 39q55 40 55 98q0 40 -22 68q-23 30 -62 53q-40 24 -110 58l-305 143q-134 64 -193 141
q-57 75 -57 178q0 86 45 154q47 72 137 135q-98 85 -98 205q0 96 55 172q56 77 160 123q102 45 246 45q138 0 245 -43q109 -44 176 -123q68 -81 86 -180h-266q-15 74 -84 119q-67 43 -157 43q-95 0 -146 -39q-53 -41 -53 -99q0 -39 22 -67q21 -26 62 -51q40 -24 110 -58
l306 -143q136 -65 194 -141q60 -78 60 -179q0 -83 -46 -153q-47 -72 -137 -135q52 -49 74 -94zM821 428q86 77 86 154q0 61 -37 104t-125 86l-327 156q-88 -73 -88 -154q0 -61 37 -104t125 -86z" />
    <glyph glyph-name="dieresis" unicode="&#xa8;" horiz-adv-x="815" 
d="M315 1274h-268v282h268v-282zM768 1274h-268v282h268v-282z" />
    <glyph glyph-name="copyright" unicode="&#xa9;" horiz-adv-x="1904" 
d="M530 49l-4 -8q-193 114 -307 307q-113 192 -113 422q0 227 115 422q114 193 307 307q195 115 424 115q232 0 424 -113q193 -114 307 -307q115 -195 115 -420q0 -230 -112 -420q-113 -192 -308 -307q-192 -113 -424 -113q-229 0 -424 115zM1284 188h-2q155 89 244 244
q90 156 90 336t-90 336q-89 155 -244 244q-156 90 -336 90t-336 -90q-153 -89 -243 -244q-88 -152 -88 -336q0 -180 90 -336q90 -155 243 -244q156 -90 336 -90t336 90zM717 348h-2q-105 59 -164 170q-59 112 -59 252t59 252q59 111 164 170q106 59 235 59q109 0 197 -39
q93 -41 153 -116q64 -79 84 -178h-215q-23 80 -79 124q-55 43 -138 43q-72 0 -125 -36q-57 -38 -86 -107q-30 -70 -30 -172t30 -172q29 -67 86 -106q55 -37 125 -37q84 0 142 43q59 44 77 129h218q-21 -105 -82 -181q-60 -74 -154 -116q-93 -41 -199 -41q-131 0 -237 59z
" />
    <glyph glyph-name="ordfeminine" unicode="&#xaa;" horiz-adv-x="694" 
d="M500 1540h-6q63 -31 90 -80q28 -51 28 -110v-4v-349h-180v93q-21 -46 -67 -76q-48 -31 -117 -31q-53 0 -101 25q-46 24 -73 67t-27 96q0 82 66 123q64 40 172 49l145 15v4v4q0 43 -24 64q-23 20 -62 20q-38 0 -59 -18q-22 -19 -25 -46h-188q9 85 84 136q73 49 188 49
q92 0 156 -31zM399 1130l-2 3q29 40 29 102v6l-78 -8q-117 -9 -117 -72q0 -30 25 -49q24 -18 63 -18q54 0 80 36z" />
    <glyph glyph-name="guillemotleft" unicode="&#xab;" horiz-adv-x="1341" 
d="M424 1014h303l-334 -449l334 -471h-303l-334 471zM950 1014h303l-333 -449l333 -471h-303l-334 471z" />
    <glyph glyph-name="logicalnot" unicode="&#xac;" horiz-adv-x="1247" 
d="M1104 219h-201v469h-811v195h1012v-664z" />
    <glyph glyph-name="uni00AD" unicode="&#xad;" horiz-adv-x="917" 
d="M791 475h-662v213h662v-213z" />
    <glyph glyph-name="registered" unicode="&#xae;" horiz-adv-x="1904" 
d="M1374 1505l-4 -8q193 -114 307 -307q115 -195 115 -420q0 -228 -113 -420q-114 -193 -307 -307q-192 -113 -424 -113q-229 0 -424 115q-193 114 -307 307q-113 192 -113 422q0 227 115 422q114 193 307 307q195 115 424 115q232 0 424 -113zM1284 188h-2q155 89 244 244
q90 156 90 336t-90 336q-89 155 -244 244q-156 90 -336 90t-336 -90q-153 -89 -243 -244q-88 -152 -88 -336q0 -180 90 -336q90 -155 243 -244q156 -90 336 -90t336 90zM1296 776v2q-52 -68 -147 -102l215 -379h-225l-189 352h-153v-352h-201v940h375q116 0 200 -37
q86 -38 132 -104q45 -65 45 -156q0 -97 -52 -164zM799 1073v-262h172q78 0 125 35q45 33 45 96t-45 96q-47 35 -125 35h-172z" />
    <glyph glyph-name="macron" unicode="&#xaf;" horiz-adv-x="837" 
d="M793 1300h-746v187h746v-187z" />
    <glyph glyph-name="degree" unicode="&#xb0;" horiz-adv-x="851" 
d="M250 926l-2 -2q-80 47 -127 127t-47 176t47 176t127 127t176 47t176 -47t127 -127t47 -176q0 -94 -47 -174t-127 -127t-176 -47q-94 0 -174 47zM506 1083l-4 -4q37 21 59 60q23 41 23 84t-23 84q-21 38 -59 59q-41 23 -82 23t-82 -23q-38 -21 -59 -59q-23 -41 -23 -82
t23 -82q22 -39 59 -60q39 -22 84 -22t84 22z" />
    <glyph glyph-name="plusminus" unicode="&#xb1;" horiz-adv-x="1337" 
d="M770 1104v-307h451v-193h-451v-319h-203v319h-450v193h450v307h203zM1221 0h-1104v193h1104v-193z" />
    <glyph glyph-name="uni00B2" unicode="&#xb2;" horiz-adv-x="722" 
d="M279 1147h397v-150h-629v189l344 260q48 41 60 57q18 24 18 58q0 37 -29 63q-28 25 -80 25q-54 0 -84 -27q-29 -26 -32 -74h-193q3 70 43 125q41 56 109 86q70 31 157 31q90 0 160 -31q68 -30 105 -82t37 -116q0 -72 -33 -125q-33 -54 -105 -107z" />
    <glyph glyph-name="uni00B3" unicode="&#xb3;" horiz-adv-x="727" 
d="M616 1346l5 -3q65 -47 65 -135q0 -111 -86 -170t-238 -59q-144 0 -227 65t-92 179h193q3 -46 34 -74q30 -27 90 -27q52 0 95 29q39 26 39 74q0 54 -50 78t-118 24h-52v148h52q66 0 106 24q39 23 39 64q0 37 -31 59q-33 23 -80 23q-48 0 -79 -25q-30 -24 -33 -64h-195
q3 65 43 117q42 54 109 84q70 31 151 31q84 0 154 -25q67 -24 108 -71t41 -105q0 -86 -55 -129q-53 -42 -147 -57q95 -9 159 -55z" />
    <glyph glyph-name="acute" unicode="&#xb4;" horiz-adv-x="675" 
d="M285 1241h-238l234 315h348z" />
    <glyph glyph-name="uni00B5" unicode="&#xb5;" horiz-adv-x="1384" 
d="M1321 190v-186h-109q-144 0 -221 41t-104 139q-3 10 -6 41q-41 -110 -125 -176q-85 -67 -219 -67q-56 0 -117 22v-401h-256v1505h256v-641v-4q0 -151 59 -225t170 -74t170 74q60 75 60 227v641h256v-801v-4q0 -61 28 -86t97 -25h61z" />
    <glyph glyph-name="paragraph" unicode="&#xb6;" horiz-adv-x="1429" 
d="M492 688l-3 -6q-117 0 -217 59q-96 57 -155 160q-58 101 -58 221q0 121 58 219q60 102 155 158q96 57 220 57h743v-1746h-238v1548h-268v-1548h-237v878z" />
    <glyph glyph-name="periodcentered" unicode="&#xb7;" horiz-adv-x="524" 
d="M391 465h-264v278h264v-278z" />
    <glyph glyph-name="cedilla" unicode="&#xb8;" horiz-adv-x="428" 
d="M219 -70v2q73 -9 119 -55q45 -45 45 -117q0 -77 -57 -125q-58 -49 -154 -49h-127v129h90q41 0 62 15q20 14 20 45q0 29 -20 43q-22 16 -52 16h-67v166h141v-70z" />
    <glyph glyph-name="uni00B9" unicode="&#xb9;" horiz-adv-x="468" 
d="M229 1776h146v-779h-189v519h-170v149h27q77 0 121 23q41 21 59 73z" />
    <glyph glyph-name="ordmasculine" unicode="&#xba;" horiz-adv-x="700" 
d="M188 1020q-67 37 -104 104t-37 154t37 154t104 104t160 37t160 -37t104 -104t37 -154t-37 -154t-104 -104t-160 -37t-160 37zM436 1153q31 45 31 123q0 76 -31 121q-30 43 -88 43t-88 -43q-31 -45 -31 -121q0 -78 31 -123q30 -43 88 -43t88 43z" />
    <glyph glyph-name="guillemotright" unicode="&#xbb;" horiz-adv-x="1341" 
d="M86 1014h303l334 -449l-334 -471h-303l336 471zM612 1014h303l336 -449l-336 -471h-303l336 471z" />
    <glyph glyph-name="onequarter" unicode="&#xbc;" horiz-adv-x="1564" 
d="M1397 344h106v-149h-106v-195h-189v195h-385v188l217 395h357v-434zM1208 743l-217 -399h217v399zM279 1556h145v-778h-188v518h-170v150h26q79 0 121 22q41 21 59 74zM328 0h-232l975 1556h234z" />
    <glyph glyph-name="onehalf" unicode="&#xbd;" horiz-adv-x="1591" 
d="M1124 150h398v-150h-629v188l344 261q45 38 59 57q19 25 19 57q0 38 -29 64q-27 24 -80 24q-55 0 -84 -26t-32 -74h-193q3 70 43 125q41 56 109 86q70 31 157 31q90 0 160 -31q67 -30 104 -82t37 -117q0 -74 -32 -125q-32 -52 -105 -106zM274 1556h146v-778h-189v518
h-170v150h27q79 0 121 22q41 21 59 74zM324 0h-232l975 1556h233z" />
    <glyph glyph-name="threequarters" unicode="&#xbe;" horiz-adv-x="1759" 
d="M645 1126l4 -2q66 -48 66 -135q0 -111 -86 -170t-238 -59q-144 0 -227 65t-92 179h192q3 -45 35 -74q30 -27 90 -27q51 0 94 29q39 26 39 74q0 53 -49 77q-52 25 -119 25h-51v147h51q65 0 107 25q39 23 39 63q0 38 -31 60t-80 22q-50 0 -80 -24t-33 -64h-194q3 65 43 117
q42 55 108 84q70 31 152 31q84 0 154 -25q67 -24 108 -71t41 -105q0 -86 -55 -129q-53 -41 -148 -57q95 -9 160 -56zM528 -4h-231l975 1556h233zM1595 340h107v-150h-107v-194h-188v194h-385v189l217 395h356v-434zM1407 739l-217 -399h217v399z" />
    <glyph glyph-name="questiondown" unicode="&#xbf;" horiz-adv-x="1163" 
d="M758 825h-291v279h291v-279zM305 -381h-10q-116 46 -178 129t-62 191q0 67 25 122q24 54 61 93q37 40 95 86l102 86q57 48 88 84q32 37 43 73q12 41 12 97h258q0 -111 -41 -191q-39 -76 -127 -149l-102 -84q-62 -52 -86 -76q-28 -28 -45 -62q-14 -28 -14 -71
q0 -50 28 -92q26 -39 84 -64q56 -24 135 -24q74 0 138 28q60 26 98 80q38 53 41 117h262q-6 -130 -80 -225q-76 -98 -190 -146q-116 -49 -260 -49q-157 0 -275 47z" />
    <glyph glyph-name="Agrave" unicode="&#xc0;" horiz-adv-x="1587" 
d="M1585 0h-278l-150 446h-727l-149 -446h-279l539 1556h506zM795 1524l-289 -852h575zM928 1679h-254l-359 283h363z" />
    <glyph glyph-name="Aacute" unicode="&#xc1;" horiz-adv-x="1587" 
d="M1585 0h-278l-150 446h-727l-149 -446h-279l539 1556h506zM795 1524l-289 -852h575zM920 1679h-252l247 283h365z" />
    <glyph glyph-name="Acircumflex" unicode="&#xc2;" horiz-adv-x="1587" 
d="M1585 0h-278l-150 446h-727l-149 -446h-279l539 1556h506zM795 1524l-289 -852h575zM965 1962l258 -283h-240l-190 168l-191 -168h-240l259 283h344z" />
    <glyph glyph-name="Atilde" unicode="&#xc3;" horiz-adv-x="1587" 
d="M1585 0h-278l-150 446h-727l-149 -446h-279l539 1556h506zM795 1524l-289 -852h575zM434 1700v-6q3 80 31 141q26 57 74 88t104 31q79 0 166 -41q31 -17 61 -25q31 -8 62 -8q45 0 80 21q33 20 45 55h92q-3 -76 -31 -137q-26 -57 -74 -88t-104 -31q-79 0 -166 43
q-27 15 -61 24q-42 11 -62 11q-45 0 -80 -21q-33 -20 -45 -57h-92z" />
    <glyph glyph-name="Adieresis" unicode="&#xc4;" horiz-adv-x="1587" 
d="M1585 0h-278l-150 446h-727l-149 -446h-279l539 1556h506zM795 1524l-289 -852h575zM705 1679h-277v283h277v-283zM1157 1679h-276v283h276v-283z" />
    <glyph glyph-name="Aring" unicode="&#xc5;" horiz-adv-x="1587" 
d="M1585 0h-278l-150 446h-727l-149 -446h-279l539 1556h506zM795 1524l-289 -852h575zM655 1704v-2q-61 36 -100 102q-37 64 -37 142q0 74 37 135q38 62 100 98q64 37 138 37t135 -37t98 -98t37 -135q0 -78 -37 -142q-36 -62 -98 -100q-61 -37 -135 -37t-138 37zM870 1862
l-2 -2q33 33 33 79q0 47 -33 80t-80 33q-46 0 -79 -33t-33 -80q0 -44 35 -79q33 -33 80 -33q44 0 79 35z" />
    <glyph glyph-name="AE" unicode="&#xc6;" horiz-adv-x="2113" 
d="M1348 686l159 -459h496v-227h-696l-150 446h-727l-149 -446h-279l539 1556h1444v-227h-861l146 -416h700v-227h-622zM795 1524l-289 -852h575z" />
    <glyph glyph-name="Ccedilla" unicode="&#xc7;" horiz-adv-x="1615" 
d="M1559 520h-3q-71 -251 -235 -387q-166 -138 -410 -156v-45q78 -9 121 -55t43 -117q0 -77 -57 -125q-58 -49 -156 -49h-131v138h90q35 0 56 12q20 11 20 41q0 29 -20 43t-52 14h-63v148q-194 18 -344 120q-154 105 -238 277q-86 177 -86 399q0 238 96 422q94 181 265 281
q168 98 381 98q177 0 325 -68t246 -190t139 -287h-276q-53 153 -160 240q-110 90 -276 90q-139 0 -248 -74q-106 -72 -166 -207q-58 -131 -58 -307q0 -174 62 -307q63 -136 168 -207q109 -74 242 -74q167 0 282 86q111 83 168 246h275z" />
    <glyph glyph-name="Egrave" unicode="&#xc8;" horiz-adv-x="1349" 
d="M442 686v-459h797v-227h-1061v1556h1043v-227h-779v-416h764v-227h-764zM864 1679h-254l-358 283h362z" />
    <glyph glyph-name="Eacute" unicode="&#xc9;" horiz-adv-x="1349" 
d="M442 686v-459h797v-227h-1061v1556h1043v-227h-779v-416h764v-227h-764zM788 1679h-251l247 283h365z" />
    <glyph glyph-name="Ecircumflex" unicode="&#xca;" horiz-adv-x="1349" 
d="M442 686v-459h797v-227h-1061v1556h1043v-227h-779v-416h764v-227h-764zM872 1962l258 -283h-239l-191 168l-190 -168h-240l258 283h344z" />
    <glyph glyph-name="Edieresis" unicode="&#xcb;" horiz-adv-x="1349" 
d="M442 686v-459h797v-227h-1061v1556h1043v-227h-779v-416h764v-227h-764zM612 1679h-276v283h276v-283zM1065 1679h-277v283h277v-283z" />
    <glyph glyph-name="Igrave" unicode="&#xcc;" horiz-adv-x="620" 
d="M442 0h-264v1556h264v-1556zM424 1679h-254l-358 283h362z" />
    <glyph glyph-name="Iacute" unicode="&#xcd;" horiz-adv-x="620" 
d="M442 0h-264v1556h264v-1556zM444 1679h-251l247 283h365z" />
    <glyph glyph-name="Icircumflex" unicode="&#xce;" horiz-adv-x="620" 
d="M442 0h-264v1556h264v-1556zM483 1962l258 -283h-239l-191 168l-190 -168h-240l258 283h344z" />
    <glyph glyph-name="Idieresis" unicode="&#xcf;" horiz-adv-x="620" 
d="M442 0h-264v1556h264v-1556zM223 1679h-276v283h276v-283zM676 1679h-277v283h277v-283z" />
    <glyph glyph-name="Eth" unicode="&#xd0;" horiz-adv-x="1617" 
d="M741 1556q237 0 412 -88t270 -264q97 -180 97 -426t-97 -426q-95 -176 -270 -264t-412 -88h-553v698h-174v209h174v649h553zM748 227q157 0 270 64t172 188t59 299t-59 299q-60 125 -172 189q-111 63 -270 63h-295v-422h381v-209h-381v-471h295z" />
    <glyph glyph-name="Ntilde" unicode="&#xd1;" horiz-adv-x="1755" 
d="M1313 31v1525h264v-1556h-526l-609 1526v-1526h-264v1556h527zM561 1700v-6q3 80 31 141q26 57 74 88t104 31q79 0 166 -41q31 -17 61 -25q31 -8 62 -8q45 0 80 21q33 20 45 55h92q-3 -76 -31 -137q-26 -57 -74 -88t-104 -31q-79 0 -166 43q-27 15 -61 24q-42 11 -62 11
q-46 0 -80 -21q-33 -20 -45 -57h-92z" />
    <glyph glyph-name="Ograve" unicode="&#xd2;" horiz-adv-x="1703" 
d="M457 76q-177 104 -269 282q-96 184 -96 418t96 418q93 179 269 283q169 100 395 100t395 -100q176 -104 269 -283q96 -184 96 -418t-96 -418q-92 -178 -269 -282q-171 -101 -395 -101t-395 101zM1106 264q109 72 172 207q61 131 61 307t-61 307q-63 135 -172 207
q-112 74 -254 74t-254 -74q-109 -72 -172 -207q-61 -131 -61 -307t61 -307q63 -135 172 -207q112 -74 254 -74t254 74zM1016 1679h-254l-359 283h363z" />
    <glyph glyph-name="Oacute" unicode="&#xd3;" horiz-adv-x="1703" 
d="M457 76q-177 104 -269 282q-96 184 -96 418t96 418q93 179 269 283q169 100 395 100t395 -100q176 -104 269 -283q96 -184 96 -418t-96 -418q-92 -178 -269 -282q-171 -101 -395 -101t-395 101zM1106 264q109 72 172 207q61 131 61 307t-61 307q-63 135 -172 207
q-112 74 -254 74t-254 -74q-109 -72 -172 -207q-61 -131 -61 -307t61 -307q63 -135 172 -207q112 -74 254 -74t254 74zM940 1679h-252l248 283h364z" />
    <glyph glyph-name="Ocircumflex" unicode="&#xd4;" horiz-adv-x="1703" 
d="M457 76q-177 104 -269 282q-96 184 -96 418t96 418q93 179 269 283q169 100 395 100t395 -100q176 -104 269 -283q96 -184 96 -418t-96 -418q-92 -178 -269 -282q-171 -101 -395 -101t-395 101zM1106 264q109 72 172 207q61 131 61 307t-61 307q-63 135 -172 207
q-112 74 -254 74t-254 -74q-109 -72 -172 -207q-61 -131 -61 -307t61 -307q63 -135 172 -207q112 -74 254 -74t254 74zM1024 1962l258 -283h-240l-190 168l-190 -168h-240l258 283h344z" />
    <glyph glyph-name="Otilde" unicode="&#xd5;" horiz-adv-x="1703" 
d="M457 76q-177 104 -269 282q-96 184 -96 418t96 418q93 179 269 283q169 100 395 100t395 -100q176 -104 269 -283q96 -184 96 -418t-96 -418q-92 -178 -269 -282q-171 -101 -395 -101t-395 101zM1106 264q109 72 172 207q61 131 61 307t-61 307q-63 135 -172 207
q-112 74 -254 74t-254 -74q-109 -72 -172 -207q-61 -131 -61 -307t61 -307q63 -135 172 -207q112 -74 254 -74t254 74zM492 1700v-6q3 82 30 141q26 57 74 88t104 31q79 0 166 -41q30 -17 62 -25q31 -8 61 -8q45 0 80 21q33 20 45 55h92q-3 -78 -30 -137q-26 -57 -74 -88
t-105 -31q-79 0 -166 43q-27 15 -61 24q-42 11 -61 11q-45 0 -80 -21q-33 -20 -45 -57h-92z" />
    <glyph glyph-name="Odieresis" unicode="&#xd6;" horiz-adv-x="1703" 
d="M457 76q-177 104 -269 282q-96 184 -96 418t96 418q93 179 269 283q169 100 395 100t395 -100q176 -104 269 -283q96 -184 96 -418t-96 -418q-92 -178 -269 -282q-171 -101 -395 -101t-395 101zM1106 264q109 72 172 207q61 131 61 307t-61 307q-63 135 -172 207
q-112 74 -254 74t-254 -74q-109 -72 -172 -207q-61 -131 -61 -307t61 -307q63 -135 172 -207q112 -74 254 -74t254 74zM764 1679h-277v283h277v-283zM1217 1679h-277v283h277v-283z" />
    <glyph glyph-name="multiply" unicode="&#xd7;" horiz-adv-x="1183" 
d="M958 1055l136 -135l-365 -365l365 -367l-136 -135l-364 367l-367 -367l-135 135l367 367l-367 365l135 135l367 -365z" />
    <glyph glyph-name="Oslash" unicode="&#xd8;" horiz-adv-x="1703" 
d="M1755 1556l-278 -292q63 -96 98 -222q35 -125 35 -264q0 -232 -97 -418q-93 -178 -268 -282q-171 -101 -395 -101q-137 0 -252 37q-114 36 -211 109l-115 -121h-325l278 293q-64 101 -98 223q-35 125 -35 262q0 234 96 418q93 179 269 283q169 100 395 100q137 0 252 -37
q116 -37 211 -108l115 120h325zM418 494l729 766q-57 51 -133 79q-74 27 -160 27q-142 0 -254 -74q-109 -72 -172 -207q-61 -131 -61 -307q0 -159 51 -284zM1286 1061l-733 -764q125 -107 297 -107q142 0 254 74q109 72 172 207q61 131 61 307q0 161 -51 283z" />
    <glyph glyph-name="Ugrave" unicode="&#xd9;" horiz-adv-x="1583" 
d="M162 621v2v931h264v-952v-4q0 -410 367 -410q364 0 364 414v952h264v-931q0 -314 -151 -482q-150 -166 -477 -166q-631 0 -631 646zM956 1677h-254l-358 283h363z" />
    <glyph glyph-name="Uacute" unicode="&#xda;" horiz-adv-x="1583" 
d="M162 621v2v931h264v-952v-4q0 -410 367 -410q364 0 364 414v952h264v-931q0 -314 -151 -482q-150 -166 -477 -166q-631 0 -631 646zM881 1677h-252l248 283h364z" />
    <glyph glyph-name="Ucircumflex" unicode="&#xdb;" horiz-adv-x="1583" 
d="M162 621v2v931h264v-952v-4q0 -410 367 -410q364 0 364 414v952h264v-931q0 -314 -151 -482q-150 -166 -477 -166q-631 0 -631 646zM965 1960l258 -283h-240l-190 168l-191 -168h-240l259 283h344z" />
    <glyph glyph-name="Udieresis" unicode="&#xdc;" horiz-adv-x="1583" 
d="M162 621v2v931h264v-952v-4q0 -410 367 -410q364 0 364 414v952h264v-931q0 -314 -151 -482q-150 -166 -477 -166q-631 0 -631 646zM705 1677h-277v283h277v-283zM1157 1677h-276v283h276v-283z" />
    <glyph glyph-name="Yacute" unicode="&#xdd;" horiz-adv-x="1413" 
d="M1124 1556h301l-587 -907v-649h-263v649l-587 907h299l420 -655zM795 1679h-252l248 283h364z" />
    <glyph glyph-name="Thorn" unicode="&#xde;" horiz-adv-x="1464" 
d="M772 1300v-4q198 0 332 -57q137 -58 211 -170t74 -268q0 -157 -74 -269t-211 -170q-134 -57 -332 -57h-330v-305h-264v1556h264v-256h330zM778 528v2q162 0 248 68t86 203t-86 203q-85 67 -248 67h-336v-543h336z" />
    <glyph glyph-name="germandbls" unicode="&#xdf;" horiz-adv-x="1304" 
d="M1016 793l-6 2q93 -50 151 -138t58 -215q0 -143 -52 -247q-53 -105 -153 -160q-101 -55 -240 -55q-133 0 -246 43v180q50 -22 88 -33q44 -12 89 -12q126 0 190 82q66 84 66 223q0 93 -39 158q-40 67 -113 104t-180 37h-25v178h23q130 0 196 66t66 178q0 68 -31 119
q-30 49 -82 73q-55 25 -117 25q-136 0 -198 -86t-62 -234v-1083h-256v1057q0 168 62 286t178 179t276 61q146 0 256 -49q111 -50 172 -137q62 -89 62 -203q0 -143 -86 -223t-248 -117q109 -9 201 -59z" />
    <glyph glyph-name="agrave" unicode="&#xe0;" horiz-adv-x="1226" 
d="M883 1071l-9 -4q106 -58 160 -154q51 -92 51 -213v-4v-700h-254v219q-38 -80 -83 -131q-46 -52 -117 -82q-73 -31 -172 -31q-105 0 -191 47q-86 46 -135 129q-49 82 -49 185q0 119 68 190q69 72 165 101q103 31 226 43l293 30v15v4q0 61 -25 116t-76 84q-54 31 -125 31
q-97 0 -155 -49t-70 -123h-258q12 108 78 189q63 78 170 122q104 43 237 43q166 0 271 -57zM705 176l-3 2q64 45 93 117q30 74 30 170v65l-198 -20q-85 -8 -150 -25q-59 -15 -98 -51q-41 -38 -41 -104q0 -58 29 -105q26 -42 77 -67q52 -25 109 -25q91 0 152 43zM737 1237
h-237l-344 315h348z" />
    <glyph glyph-name="aacute" unicode="&#xe1;" horiz-adv-x="1226" 
d="M883 1071l-9 -4q106 -58 160 -154q51 -92 51 -213v-4v-700h-254v219q-38 -80 -83 -131q-46 -52 -117 -82q-73 -31 -172 -31q-105 0 -191 47q-86 46 -135 129q-49 82 -49 185q0 119 68 190q69 72 165 101q103 31 226 43l293 30v15v4q0 61 -25 116t-76 84q-54 31 -125 31
q-97 0 -155 -49t-70 -123h-258q12 108 78 189q63 78 170 122q104 43 237 43q166 0 271 -57zM705 176l-3 2q64 45 93 117q30 74 30 170v65l-198 -20q-85 -8 -150 -25q-59 -15 -98 -51q-41 -38 -41 -104q0 -58 29 -105q26 -42 77 -67q52 -25 109 -25q91 0 152 43zM696 1237
h-237l233 315h348z" />
    <glyph glyph-name="acircumflex" unicode="&#xe2;" horiz-adv-x="1226" 
d="M883 1071l-9 -4q106 -58 160 -154q51 -92 51 -213v-4v-700h-254v219q-38 -80 -83 -131q-46 -52 -117 -82q-73 -31 -172 -31q-105 0 -191 47q-86 46 -135 129q-49 82 -49 185q0 119 68 190q69 72 165 101q103 31 226 43l293 30v15v4q0 61 -25 116t-76 84q-54 31 -125 31
q-97 0 -155 -49t-70 -123h-258q12 108 78 189q63 78 170 122q104 43 237 43q166 0 271 -57zM705 176l-3 2q64 45 93 117q30 74 30 170v65l-198 -20q-85 -8 -150 -25q-59 -15 -98 -51q-41 -38 -41 -104q0 -58 29 -105q26 -42 77 -67q52 -25 109 -25q91 0 152 43zM762 1552
l262 -315h-229l-197 203l-197 -203h-229l260 315h330z" />
    <glyph glyph-name="atilde" unicode="&#xe3;" horiz-adv-x="1226" 
d="M883 1071l-9 -4q106 -58 160 -154q51 -92 51 -213v-4v-700h-254v219q-38 -80 -83 -131q-46 -52 -117 -82q-73 -31 -172 -31q-105 0 -191 47q-86 46 -135 129q-49 82 -49 185q0 119 68 190q69 72 165 101q103 31 226 43l293 30v15v4q0 61 -25 116t-76 84q-54 31 -125 31
q-97 0 -155 -49t-70 -123h-258q12 108 78 189q63 78 170 122q104 43 237 43q166 0 271 -57zM705 176l-3 2q64 45 93 117q30 74 30 170v65l-198 -20q-85 -8 -150 -25q-59 -15 -98 -51q-41 -38 -41 -104q0 -58 29 -105q26 -42 77 -67q52 -25 109 -25q91 0 152 43zM256 1274h-4
q3 125 57 188q57 66 144 66q39 0 77 -12q29 -9 78 -31q62 -33 121 -33q49 0 82 23t41 61h86q-3 -125 -57 -188q-57 -66 -144 -66q-72 0 -155 45q-70 33 -119 33t-80 -25q-32 -25 -43 -61h-84z" />
    <glyph glyph-name="adieresis" unicode="&#xe4;" horiz-adv-x="1226" 
d="M883 1071l-9 -4q106 -58 160 -154q51 -92 51 -213v-4v-700h-254v219q-38 -80 -83 -131q-46 -52 -117 -82q-73 -31 -172 -31q-105 0 -191 47q-86 46 -135 129q-49 82 -49 185q0 119 68 190q69 72 165 101q103 31 226 43l293 30v15v4q0 61 -25 116t-76 84q-54 31 -125 31
q-97 0 -155 -49t-70 -123h-258q12 108 78 189q63 78 170 122q104 43 237 43q166 0 271 -57zM705 176l-3 2q64 45 93 117q30 74 30 170v65l-198 -20q-85 -8 -150 -25q-59 -15 -98 -51q-41 -38 -41 -104q0 -58 29 -105q26 -42 77 -67q52 -25 109 -25q91 0 152 43zM504 1270
h-268v282h268v-282zM956 1270h-268v282h268v-282z" />
    <glyph glyph-name="aring" unicode="&#xe5;" horiz-adv-x="1226" 
d="M883 1071l-9 -4q106 -58 160 -154q51 -92 51 -213v-4v-700h-254v219q-38 -80 -83 -131q-46 -52 -117 -82q-73 -31 -172 -31q-105 0 -191 47q-86 46 -135 129q-49 82 -49 185q0 119 68 190q69 72 165 101q103 31 226 43l293 30v15v4q0 61 -25 116t-76 84q-54 31 -125 31
q-97 0 -155 -49t-70 -123h-258q12 108 78 189q63 78 170 122q104 43 237 43q166 0 271 -57zM705 176l-3 2q64 45 93 117q30 74 30 170v65l-198 -20q-85 -8 -150 -25q-59 -15 -98 -51q-41 -38 -41 -104q0 -58 29 -105q26 -42 77 -67q52 -25 109 -25q91 0 152 43zM477 1262v-5
q-55 34 -86 91t-31 120q0 64 31 121q30 56 86 86q57 31 121 31t121 -31q52 -28 88 -86q33 -53 33 -119q0 -67 -33 -120q-34 -54 -88 -88q-53 -33 -121 -33t-121 33zM664 1401h-5q29 29 29 67q0 42 -26 68q-27 27 -68 27t-68 -27q-26 -26 -26 -68q0 -39 28 -67q29 -29 68 -29
t68 29z" />
    <glyph glyph-name="ae" unicode="&#xe6;" horiz-adv-x="1996" 
d="M1911 477l-828 -2q15 -153 91 -239q73 -82 194 -82q102 0 160 43q56 42 92 127h258q-50 -176 -182 -265q-131 -88 -330 -88q-155 0 -270 68q-114 67 -172 184q-53 -115 -168 -184q-116 -70 -273 -70q-119 0 -211 47q-90 46 -143 123q-51 74 -51 172q0 181 135 260
q136 80 379 80h235v58v4q0 63 -24 116q-25 55 -76 84q-54 31 -125 31q-66 0 -115 -24q-51 -25 -77 -64q-30 -44 -35 -86h-258q12 106 78 188q66 81 167 123q104 43 234 43q145 0 240 -53q94 -53 141 -135q138 190 395 190q165 0 285 -69q123 -70 190 -199q68 -130 68 -299
q0 -4 -4 -82zM1178 872q-74 -74 -95 -219h555q-6 91 -43 154q-37 65 -96 102q-58 37 -135 37q-112 0 -186 -74zM748 236l2 -5q70 82 73 240h-192q-146 0 -221 -37q-76 -37 -76 -121q0 -75 55 -118t152 -43q135 0 207 84z" />
    <glyph glyph-name="ccedilla" unicode="&#xe7;" horiz-adv-x="1224" 
d="M1165 381v-2q-27 -123 -94 -211q-66 -87 -170 -137q-103 -50 -223 -56v-47q73 -9 119 -55q45 -45 45 -117q0 -76 -58 -125t-153 -49h-127v129h90q40 0 61 15t21 45q0 28 -21 43q-22 16 -51 16h-67v150q-137 21 -240 98q-104 78 -158 198q-55 122 -55 277q0 168 68 301
q68 132 194 203q127 71 289 71q142 0 250 -51q111 -53 178 -143q68 -92 92 -215h-260q-21 102 -88 166q-66 63 -172 63q-94 0 -158 -49t-98 -137q-35 -90 -35 -209q0 -121 35 -211q34 -88 98 -137t158 -49q207 0 272 225h258z" />
    <glyph glyph-name="egrave" unicode="&#xe8;" horiz-adv-x="1243" 
d="M1157 477l-823 -6q15 -157 92 -240q75 -81 197 -81q101 0 159 43q61 45 90 126h261q-52 -175 -185 -264q-131 -88 -330 -88q-164 0 -288 74q-125 75 -189 205q-65 133 -65 301q0 170 67 301t191 205q122 73 287 73q164 0 284 -69q124 -71 191 -199t67 -299q0 -39 -6 -82z
M428 868h2q-73 -73 -94 -219h557q-6 91 -43 154q-38 65 -98 102q-61 37 -138 37q-112 0 -186 -74zM756 1235h-238l-344 315h348z" />
    <glyph glyph-name="eacute" unicode="&#xe9;" horiz-adv-x="1243" 
d="M1157 477l-823 -6q15 -157 92 -240q75 -81 197 -81q101 0 159 43q61 45 90 126h261q-52 -175 -185 -264q-131 -88 -330 -88q-164 0 -288 74q-125 75 -189 205q-65 133 -65 301q0 170 67 301t191 205q122 73 287 73q164 0 284 -69q124 -71 191 -199t67 -299q0 -39 -6 -82z
M428 868h2q-73 -73 -94 -219h557q-6 91 -43 154q-38 65 -98 102q-61 37 -138 37q-112 0 -186 -74zM715 1235h-238l234 315h348z" />
    <glyph glyph-name="ecircumflex" unicode="&#xea;" horiz-adv-x="1243" 
d="M1157 477l-823 -6q15 -157 92 -240q75 -81 197 -81q101 0 159 43q61 45 90 126h261q-52 -175 -185 -264q-131 -88 -330 -88q-164 0 -288 74q-125 75 -189 205q-65 133 -65 301q0 170 67 301t191 205q122 73 287 73q164 0 284 -69q124 -71 191 -199t67 -299q0 -39 -6 -82z
M428 868h2q-73 -73 -94 -219h557q-6 91 -43 154q-38 65 -98 102q-61 37 -138 37q-112 0 -186 -74zM780 1550l262 -315h-229l-197 203l-196 -203h-230l261 315h329z" />
    <glyph glyph-name="edieresis" unicode="&#xeb;" horiz-adv-x="1243" 
d="M1157 477l-823 -6q15 -157 92 -240q75 -81 197 -81q101 0 159 43q61 45 90 126h261q-52 -175 -185 -264q-131 -88 -330 -88q-164 0 -288 74q-125 75 -189 205q-65 133 -65 301q0 170 67 301t191 205q122 73 287 73q164 0 284 -69q124 -71 191 -199t67 -299q0 -39 -6 -82z
M428 868h2q-73 -73 -94 -219h557q-6 91 -43 154q-38 65 -98 102q-61 37 -138 37q-112 0 -186 -74zM522 1268h-268v282h268v-282zM975 1268h-268v282h268v-282z" />
    <glyph glyph-name="igrave" unicode="&#xec;" horiz-adv-x="548" 
d="M401 0h-256v1104h256v-1104zM385 1241h-238l-344 315h349z" />
    <glyph glyph-name="iacute" unicode="&#xed;" horiz-adv-x="548" 
d="M401 0h-256v1104h256v-1104zM401 1241h-237l233 315h348z" />
    <glyph glyph-name="icircumflex" unicode="&#xee;" horiz-adv-x="548" 
d="M401 0h-256v1104h256v-1104zM438 1556l262 -315h-229l-197 203l-196 -203h-230l261 315h329z" />
    <glyph glyph-name="idieresis" unicode="&#xef;" horiz-adv-x="548" 
d="M401 0h-256v1104h256v-1104zM180 1274h-268v282h268v-282zM633 1274h-268v282h268v-282z" />
    <glyph glyph-name="eth" unicode="&#xf0;" horiz-adv-x="1284" 
d="M913 1337l-4 -6q140 -149 211 -332q70 -180 70 -417q0 -189 -68 -328t-192 -211q-127 -74 -295 -74t-295 74q-129 75 -195 205q-67 131 -67 301q0 169 61 297q60 126 170 198t246 72q123 0 215 -74t135 -180q-16 101 -69 201q-54 103 -150 203l-248 -78l-45 135l170 53
q-120 94 -291 180h379q65 -44 144 -108l247 78l43 -135zM793 197h-2q65 45 100 135t35 209q0 124 -33 209q-35 90 -100 135q-68 47 -160 47t-160 -47q-67 -47 -102 -135q-35 -90 -35 -209t35 -209q35 -88 102 -135q68 -47 160 -47t160 47z" />
    <glyph glyph-name="ntilde" unicode="&#xf1;" horiz-adv-x="1259" 
d="M956 1071l2 -2q84 -57 127 -154q43 -98 43 -223v-4v-690h-256v641v4q0 154 -61 227q-62 74 -174 74q-111 0 -172 -76q-62 -77 -62 -229v-641h-256v1104h254v-225q43 109 129 180q84 69 220 69q124 0 206 -55zM315 1274h-4q3 124 58 188q57 66 143 66q40 0 78 -12
q29 -9 78 -31q62 -33 120 -33q49 0 82 23q32 23 41 61h86q-3 -125 -57 -188q-57 -66 -143 -66q-73 0 -156 45q-70 33 -119 33t-80 -25q-32 -25 -43 -61h-84z" />
    <glyph glyph-name="ograve" unicode="&#xf2;" horiz-adv-x="1273" 
d="M342 47h-2q-126 73 -193 205q-67 131 -67 301q0 171 67 299t195 203q125 73 295 73t295 -73q126 -74 194 -203q68 -130 68 -299q0 -168 -68 -301q-67 -131 -194 -205t-295 -74t-295 74zM795 203l-4 -4q65 48 100 137q35 90 35 213q0 124 -33 209q-35 89 -100 137
q-67 49 -162 49q-93 0 -160 -49q-65 -48 -100 -137q-35 -90 -35 -209t35 -209q34 -87 102 -137q67 -49 160 -49q95 0 162 49zM770 1235h-238l-344 315h349z" />
    <glyph glyph-name="oacute" unicode="&#xf3;" horiz-adv-x="1273" 
d="M342 47h-2q-126 73 -193 205q-67 131 -67 301q0 171 67 299t195 203q125 73 295 73t295 -73q126 -74 194 -203q68 -130 68 -299q0 -168 -68 -301q-67 -131 -194 -205t-295 -74t-295 74zM795 203l-4 -4q65 48 100 137q35 90 35 213q0 124 -33 209q-35 89 -100 137
q-67 49 -162 49q-93 0 -160 -49q-65 -48 -100 -137q-35 -90 -35 -209t35 -209q34 -87 102 -137q67 -49 160 -49q95 0 162 49zM729 1235h-237l233 315h348z" />
    <glyph glyph-name="ocircumflex" unicode="&#xf4;" horiz-adv-x="1273" 
d="M342 47h-2q-126 73 -193 205q-67 131 -67 301q0 171 67 299t195 203q125 73 295 73t295 -73q126 -74 194 -203q68 -130 68 -299q0 -168 -68 -301q-67 -131 -194 -205t-295 -74t-295 74zM795 203l-4 -4q65 48 100 137q35 90 35 213q0 124 -33 209q-35 89 -100 137
q-67 49 -162 49q-93 0 -160 -49q-65 -48 -100 -137q-35 -90 -35 -209t35 -209q34 -87 102 -137q67 -49 160 -49q95 0 162 49zM795 1550l262 -315h-230l-196 203l-197 -203h-229l260 315h330z" />
    <glyph glyph-name="otilde" unicode="&#xf5;" horiz-adv-x="1273" 
d="M342 47h-2q-126 73 -193 205q-67 131 -67 301q0 171 67 299t195 203q125 73 295 73t295 -73q126 -74 194 -203q68 -130 68 -299q0 -168 -68 -301q-67 -131 -194 -205t-295 -74t-295 74zM795 203l-4 -4q65 48 100 137q35 90 35 213q0 124 -33 209q-35 89 -100 137
q-67 49 -162 49q-93 0 -160 -49q-65 -48 -100 -137q-35 -90 -35 -209t35 -209q34 -87 102 -137q67 -49 160 -49q95 0 162 49zM289 1272h-4q3 125 57 188q57 66 143 66q37 0 78 -13q37 -12 78 -30q62 -33 121 -33q49 0 82 23q32 23 41 61h86q-3 -124 -58 -188
q-57 -66 -143 -66q-73 0 -156 45q-70 33 -118 33q-49 0 -80 -25q-32 -25 -43 -61h-84z" />
    <glyph glyph-name="odieresis" unicode="&#xf6;" horiz-adv-x="1273" 
d="M342 47h-2q-126 73 -193 205q-67 131 -67 301q0 171 67 299t195 203q125 73 295 73t295 -73q126 -74 194 -203q68 -130 68 -299q0 -168 -68 -301q-67 -131 -194 -205t-295 -74t-295 74zM795 203l-4 -4q65 48 100 137q35 90 35 213q0 124 -33 209q-35 89 -100 137
q-67 49 -162 49q-93 0 -160 -49q-65 -48 -100 -137q-35 -90 -35 -209t35 -209q34 -87 102 -137q67 -49 160 -49q95 0 162 49zM537 1268h-269v282h269v-282zM989 1268h-268v282h268v-282z" />
    <glyph glyph-name="divide" unicode="&#xf7;" horiz-adv-x="1331" 
d="M791 836h-252v268h252v-268zM1217 459h-1104v194h1104v-194zM791 0h-252v270h252v-270z" />
    <glyph glyph-name="oslash" unicode="&#xf8;" horiz-adv-x="1273" 
d="M1298 1104l-200 -205q94 -143 94 -344q0 -168 -68 -301q-67 -131 -194 -205t-295 -74q-186 0 -326 93l-65 -68h-269l199 207q-45 68 -70 158q-24 86 -24 188q0 171 67 299t195 203q125 73 295 73q194 0 328 -94l65 70h268zM356 401l461 484q-71 65 -182 65
q-93 0 -160 -49q-65 -48 -100 -137q-35 -90 -35 -209q0 -72 16 -154zM913 705l-458 -482q71 -65 178 -65q95 0 162 49q65 48 100 137q35 90 35 213q0 68 -17 148z" />
    <glyph glyph-name="ugrave" unicode="&#xf9;" horiz-adv-x="1251" 
d="M848 1104l250 4v-1104h-254v219q-41 -110 -125 -176q-85 -67 -217 -67q-123 0 -205 55q-83 56 -123 153q-41 100 -41 226v4v688h256v-641v-4q0 -150 60 -225q59 -74 169 -74q111 0 170 74q60 75 60 227v641zM752 1245h-238l-344 316h348z" />
    <glyph glyph-name="uacute" unicode="&#xfa;" horiz-adv-x="1251" 
d="M848 1104l250 4v-1104h-254v219q-41 -110 -125 -176q-85 -67 -217 -67q-123 0 -205 55q-83 56 -123 153q-41 100 -41 226v4v688h256v-641v-4q0 -150 60 -225q59 -74 169 -74q111 0 170 74q60 75 60 227v641zM711 1245h-238l234 316h348z" />
    <glyph glyph-name="ucircumflex" unicode="&#xfb;" horiz-adv-x="1251" 
d="M848 1104l250 4v-1104h-254v219q-41 -110 -125 -176q-85 -67 -217 -67q-123 0 -205 55q-83 56 -123 153q-41 100 -41 226v4v688h256v-641v-4q0 -150 60 -225q59 -74 169 -74q111 0 170 74q60 75 60 227v641zM776 1561l262 -316h-229l-197 203l-196 -203h-230l260 316h330
z" />
    <glyph glyph-name="udieresis" unicode="&#xfc;" horiz-adv-x="1251" 
d="M848 1104l250 4v-1104h-254v219q-41 -110 -125 -176q-85 -67 -217 -67q-123 0 -205 55q-83 56 -123 153q-41 100 -41 226v4v688h256v-641v-4q0 -150 60 -225q59 -74 169 -74q111 0 170 74q60 75 60 227v641zM518 1278h-268v283h268v-283zM971 1278h-269v283h269v-283z
" />
    <glyph glyph-name="yacute" unicode="&#xfd;" horiz-adv-x="1187" 
d="M602 156l295 948h268l-473 -1505h-264l162 520h-228l-354 985h258zM680 1241h-238l234 315h348z" />
    <glyph glyph-name="thorn" unicode="&#xfe;" horiz-adv-x="1325" 
d="M1016 1055l-2 -2q106 -74 164 -205q59 -133 59 -297t-59 -297q-58 -131 -164 -205t-238 -74q-85 0 -155 33q-75 35 -132 92q-56 56 -92 136v-637h-254v1957h254v-712q27 75 80 141q53 65 129 105q72 38 172 38q134 0 238 -73zM844 201l-4 -4q65 48 100 137q35 90 35 213
q0 124 -33 209q-35 89 -100 137q-67 49 -162 49q-93 0 -160 -49q-65 -48 -100 -137q-35 -90 -35 -209t35 -209q34 -87 102 -137q67 -49 160 -49q95 0 162 49z" />
    <glyph glyph-name="ydieresis" unicode="&#xff;" horiz-adv-x="1187" 
d="M602 156l295 948h268l-473 -1505h-264l162 520h-228l-354 985h258zM487 1274h-268v282h268v-282zM940 1274h-268v282h268v-282z" />
    <glyph glyph-name="Amacron" unicode="&#x100;" horiz-adv-x="1587" 
d="M1585 0h-278l-150 446h-727l-149 -446h-279l539 1556h506zM795 1524l-289 -852h575zM1198 1722h-813v199h813v-199z" />
    <glyph glyph-name="amacron" unicode="&#x101;" horiz-adv-x="1226" 
d="M883 1071l-9 -4q106 -58 160 -154q51 -92 51 -213v-4v-700h-254v219q-38 -80 -83 -131q-46 -52 -117 -82q-73 -31 -172 -31q-105 0 -191 47q-86 46 -135 129q-49 82 -49 185q0 119 68 190q69 72 165 101q103 31 226 43l293 30v15v4q0 61 -25 116t-76 84q-54 31 -125 31
q-97 0 -155 -49t-70 -123h-258q12 108 78 189q63 78 170 122q104 43 237 43q166 0 271 -57zM705 176l-3 2q64 45 93 117q30 74 30 170v65l-198 -20q-85 -8 -150 -25q-59 -15 -98 -51q-41 -38 -41 -104q0 -58 29 -105q26 -42 77 -67q52 -25 109 -25q91 0 152 43zM971 1296
h-746v187h746v-187z" />
    <glyph glyph-name="Abreve" unicode="&#x102;" horiz-adv-x="1587" 
d="M1585 0h-278l-150 446h-727l-149 -446h-279l539 1556h506zM795 1524l-289 -852h575zM602 1712h-4q-81 40 -125 105q-43 64 -43 145h195q3 -60 49 -100q45 -39 117 -39q71 0 116 39q46 40 49 100h195q0 -81 -43 -145q-44 -65 -125 -105q-79 -39 -190 -39q-112 0 -191 39z
" />
    <glyph glyph-name="abreve" unicode="&#x103;" horiz-adv-x="1226" 
d="M883 1071l-9 -4q106 -58 160 -154q51 -92 51 -213v-4v-700h-254v219q-38 -80 -83 -131q-46 -52 -117 -82q-73 -31 -172 -31q-105 0 -191 47q-86 46 -135 129q-49 82 -49 185q0 119 68 190q69 72 165 101q103 31 226 43l293 30v15v4q0 61 -25 116t-76 84q-54 31 -125 31
q-97 0 -155 -49t-70 -123h-258q12 108 78 189q63 78 170 122q104 43 237 43q166 0 271 -57zM705 176l-3 2q64 45 93 117q30 74 30 170v65l-198 -20q-85 -8 -150 -25q-59 -15 -98 -51q-41 -38 -41 -104q0 -58 29 -105q26 -42 77 -67q52 -25 109 -25q91 0 152 43zM414 1272h4
q-80 44 -123 117t-43 163h192q0 -77 41 -118q39 -39 117 -39q74 0 115 41t41 116h194q0 -90 -43 -163t-123 -117q-79 -43 -186 -43t-186 43z" />
    <glyph glyph-name="Aogonek" unicode="&#x104;" horiz-adv-x="1587" 
d="M1524 -238h57v-174h-90q-146 0 -229 50q-82 49 -82 145q0 65 34 117q33 50 93 98l-150 446h-727l-149 -446h-279l539 1556h506l538 -1556q-174 -64 -174 -160q0 -76 113 -76zM791 1524l-289 -852h575z" />
    <glyph glyph-name="aogonek" unicode="&#x105;" horiz-adv-x="1226" 
d="M883 1071l-9 -4q106 -58 160 -154q51 -92 51 -213v-4v-700q-178 -70 -178 -166q0 -38 31 -57q32 -19 86 -19h59v-170h-88q-145 0 -227 49t-82 144q0 69 37 121q36 51 108 98v219q-38 -80 -83 -131q-46 -52 -117 -82q-73 -31 -172 -31q-105 0 -191 47q-86 46 -135 129
q-49 82 -49 185q0 119 68 190q69 72 165 101q103 31 226 43l293 30v15v4q0 61 -25 116t-76 84q-54 31 -125 31q-97 0 -155 -49t-70 -123h-258q12 108 78 189q63 78 170 122q104 43 237 43q166 0 271 -57zM705 176l-3 2q64 45 93 117q30 74 30 170v65l-198 -20
q-85 -8 -150 -25q-59 -15 -98 -51q-41 -38 -41 -104q0 -58 29 -105q26 -42 77 -67q52 -25 109 -25q91 0 152 43z" />
    <glyph glyph-name="Cacute" unicode="&#x106;" horiz-adv-x="1615" 
d="M455 74h2q-168 98 -267 282q-98 183 -98 422q0 238 96 422q94 181 265 281q168 98 381 98q177 0 325 -68t246 -190t139 -287h-276q-53 153 -160 240q-110 90 -277 90q-138 0 -247 -74q-106 -72 -166 -207q-58 -131 -58 -307q0 -174 62 -307q63 -136 168 -207
q109 -74 241 -74q168 0 283 86q111 83 168 246h274q-76 -269 -264 -407t-461 -138q-207 0 -376 99zM924 1677h-252l248 283h364z" />
    <glyph glyph-name="cacute" unicode="&#x107;" horiz-adv-x="1224" 
d="M344 47l-2 -2q-124 72 -192 205t-68 301t68 301q68 132 194 203q127 71 289 71q142 0 250 -51q111 -53 178 -143q68 -92 92 -215h-260q-21 102 -88 166q-66 63 -172 63q-94 0 -158 -49t-98 -137q-35 -90 -35 -209q0 -121 35 -211q34 -88 98 -137t158 -49q207 0 272 225
h258q-27 -131 -100 -221q-74 -92 -184 -138q-112 -47 -244 -47q-164 0 -291 74zM731 1237h-237l233 315h348z" />
    <glyph glyph-name="Ccircumflex" unicode="&#x108;" horiz-adv-x="1615" 
d="M455 74h2q-168 98 -267 282q-98 183 -98 422q0 238 96 422q94 181 265 281q168 98 381 98q177 0 325 -68t246 -190t139 -287h-276q-53 153 -160 240q-110 90 -277 90q-138 0 -247 -74q-106 -72 -166 -207q-58 -131 -58 -307q0 -174 62 -307q63 -136 168 -207
q109 -74 241 -74q168 0 283 86q111 83 168 246h274q-76 -269 -264 -407t-461 -138q-207 0 -376 99zM1008 1960l258 -283h-240l-190 168l-191 -168h-239l258 283h344z" />
    <glyph glyph-name="ccircumflex" unicode="&#x109;" horiz-adv-x="1224" 
d="M344 47l-2 -2q-124 72 -192 205t-68 301t68 301q68 132 194 203q127 71 289 71q142 0 250 -51q111 -53 178 -143q68 -92 92 -215h-260q-21 102 -88 166q-66 63 -172 63q-94 0 -158 -49t-98 -137q-35 -90 -35 -209q0 -121 35 -211q34 -88 98 -137t158 -49q207 0 272 225
h258q-27 -131 -100 -221q-74 -92 -184 -138q-112 -47 -244 -47q-164 0 -291 74zM797 1552l262 -315h-230l-196 203l-197 -203h-229l260 315h330z" />
    <glyph glyph-name="Cdotaccent" unicode="&#x10a;" horiz-adv-x="1615" 
d="M455 74h2q-168 98 -267 282q-98 183 -98 422q0 238 96 422q94 181 265 281q168 98 381 98q177 0 325 -68t246 -190t139 -287h-276q-53 153 -160 240q-110 90 -277 90q-138 0 -247 -74q-106 -72 -166 -207q-58 -131 -58 -307q0 -174 62 -307q63 -136 168 -207
q109 -74 241 -74q168 0 283 86q111 83 168 246h274q-76 -269 -264 -407t-461 -138q-207 0 -376 99zM973 1677h-277v283h277v-283z" />
    <glyph glyph-name="cdotaccent" unicode="&#x10b;" horiz-adv-x="1224" 
d="M344 47l-2 -2q-124 72 -192 205t-68 301t68 301q68 132 194 203q127 71 289 71q142 0 250 -51q111 -53 178 -143q68 -92 92 -215h-260q-21 102 -88 166q-66 63 -172 63q-94 0 -158 -49t-98 -137q-35 -90 -35 -209q0 -121 35 -211q34 -88 98 -137t158 -49q207 0 272 225
h258q-27 -131 -100 -221q-74 -92 -184 -138q-112 -47 -244 -47q-164 0 -291 74zM768 1270h-268v282h268v-282z" />
    <glyph glyph-name="Ccaron" unicode="&#x10c;" horiz-adv-x="1615" 
d="M455 74h2q-168 98 -267 282q-98 183 -98 422q0 238 96 422q94 181 265 281q168 98 381 98q177 0 325 -68t246 -190t139 -287h-276q-53 153 -160 240q-110 90 -277 90q-138 0 -247 -74q-106 -72 -166 -207q-58 -131 -58 -307q0 -174 62 -307q63 -136 168 -207
q109 -74 241 -74q168 0 283 86q111 83 168 246h274q-76 -269 -264 -407t-461 -138q-207 0 -376 99zM836 1794l190 166h240l-258 -283h-344l-258 283h239z" />
    <glyph glyph-name="ccaron" unicode="&#x10d;" horiz-adv-x="1224" 
d="M344 47l-2 -2q-124 72 -192 205t-68 301t68 301q68 132 194 203q127 71 289 71q142 0 250 -51q111 -53 178 -143q68 -92 92 -215h-260q-21 102 -88 166q-66 63 -172 63q-94 0 -158 -49t-98 -137q-35 -90 -35 -209q0 -121 35 -211q34 -88 98 -137t158 -49q207 0 272 225
h258q-27 -131 -100 -221q-74 -92 -184 -138q-112 -47 -244 -47q-164 0 -291 74zM633 1352l196 200h230l-262 -315h-330l-260 315h229z" />
    <glyph glyph-name="Dcaron" unicode="&#x10e;" horiz-adv-x="1607" 
d="M731 1556q237 0 412 -88t270 -264q96 -178 96 -426t-96 -426q-95 -176 -270 -264t-412 -88h-553v1556h553zM737 227q158 0 271 64t172 188t59 299t-59 299q-60 125 -172 189q-111 63 -271 63h-295v-1102h295zM739 1796l191 166h239l-258 -283h-344l-258 283h240z" />
    <glyph glyph-name="dcaron" unicode="&#x10f;" horiz-adv-x="1325" 
d="M926 1556l252 -2v-1556h-254v235q-34 -77 -93 -135q-57 -58 -131 -92q-70 -33 -155 -33q-132 0 -238 74q-105 73 -164 207q-59 133 -59 299q0 164 59 297q58 131 164 205q104 73 238 73q100 0 172 -38q77 -40 129 -105q53 -66 80 -141v712zM797 201l-4 -2q65 48 100 137
q35 90 35 213q0 124 -33 209q-35 89 -100 137q-67 49 -162 49t-162 -49q-65 -48 -100 -137q-33 -85 -33 -209q0 -121 35 -211q35 -89 100 -137q67 -49 162 -49t162 49zM1466 1178h-184l29 372h233z" />
    <glyph glyph-name="Dcroat" unicode="&#x110;" horiz-adv-x="1617" 
d="M741 1556q237 0 412 -88t270 -264q97 -180 97 -426t-97 -426q-95 -176 -270 -264t-412 -88h-553v698h-174v209h174v649h553zM748 227q157 0 270 64t172 188t59 299t-59 299q-60 125 -172 189q-111 63 -270 63h-295v-422h381v-209h-381v-471h295z" />
    <glyph glyph-name="dcroat" unicode="&#x111;" horiz-adv-x="1325" 
d="M1305 1415l-2 -178h-125v-1239h-254v235q-34 -77 -93 -135q-57 -58 -131 -92q-70 -33 -155 -33q-132 0 -238 74q-105 73 -164 207q-59 133 -59 299q0 164 59 297q58 131 164 205q104 73 238 73q100 0 172 -38q77 -40 129 -105q53 -66 80 -141v395h-195v176h195v141h254
v-141h125zM797 201l-4 -2q65 48 100 137q35 90 35 213q0 124 -33 209q-35 89 -100 137q-67 49 -162 49t-162 -49q-65 -48 -100 -137q-33 -85 -33 -209q0 -121 35 -211q35 -89 100 -137q67 -49 162 -49t162 49z" />
    <glyph glyph-name="Emacron" unicode="&#x112;" horiz-adv-x="1349" 
d="M442 686v-459h797v-227h-1061v1556h1043v-227h-779v-416h764v-227h-764zM1106 1722h-813v199h813v-199z" />
    <glyph glyph-name="emacron" unicode="&#x113;" horiz-adv-x="1243" 
d="M1157 477l-823 -6q15 -157 92 -240q75 -81 197 -81q101 0 159 43q61 45 90 126h261q-52 -175 -185 -264q-131 -88 -330 -88q-164 0 -288 74q-125 75 -189 205q-65 133 -65 301q0 170 67 301t191 205q122 73 287 73q164 0 284 -69q124 -71 191 -199t67 -299q0 -39 -6 -82z
M428 868h2q-73 -73 -94 -219h557q-6 91 -43 154q-38 65 -98 102q-61 37 -138 37q-112 0 -186 -74zM989 1294h-745v187h745v-187z" />
    <glyph glyph-name="Ebreve" unicode="&#x114;" horiz-adv-x="1349" 
d="M442 686v-459h797v-227h-1061v1556h1043v-227h-779v-416h764v-227h-764zM510 1712h-4q-81 40 -125 105q-43 64 -43 145h194q3 -59 50 -100q45 -39 116 -39q72 0 117 39q46 40 49 100h195q0 -81 -43 -145q-44 -65 -125 -105q-79 -39 -191 -39q-111 0 -190 39z" />
    <glyph glyph-name="ebreve" unicode="&#x115;" horiz-adv-x="1243" 
d="M1157 477l-823 -6q15 -157 92 -240q75 -81 197 -81q101 0 159 43q61 45 90 126h261q-52 -175 -185 -264q-131 -88 -330 -88q-164 0 -288 74q-125 75 -189 205q-65 133 -65 301q0 170 67 301t191 205q122 73 287 73q164 0 284 -69q124 -71 191 -199t67 -299q0 -39 -6 -82z
M428 868h2q-73 -73 -94 -219h557q-6 91 -43 154q-38 65 -98 102q-61 37 -138 37q-112 0 -186 -74zM432 1270h4q-80 44 -123 116q-43 73 -43 164h193q0 -77 41 -118q39 -39 117 -39q73 0 114 41t41 116h195q0 -91 -43 -164q-43 -72 -123 -116q-79 -43 -187 -43
q-107 0 -186 43z" />
    <glyph glyph-name="Edotaccent" unicode="&#x116;" horiz-adv-x="1349" 
d="M442 686v-459h797v-227h-1061v1556h1043v-227h-779v-416h764v-227h-764zM838 1679h-277v283h277v-283z" />
    <glyph glyph-name="edotaccent" unicode="&#x117;" horiz-adv-x="1243" 
d="M1157 477l-823 -6q15 -157 92 -240q75 -81 197 -81q101 0 159 43q61 45 90 126h261q-52 -175 -185 -264q-131 -88 -330 -88q-164 0 -288 74q-125 75 -189 205q-65 133 -65 301q0 170 67 301t191 205q122 73 287 73q164 0 284 -69q124 -71 191 -199t67 -299q0 -39 -6 -82z
M428 868h2q-73 -73 -94 -219h557q-6 91 -43 154q-38 65 -98 102q-61 37 -138 37q-112 0 -186 -74zM750 1268h-269v282h269v-282z" />
    <glyph glyph-name="Eogonek" unicode="&#x118;" horiz-adv-x="1349" 
d="M1239 0l-2 -2q-174 -64 -174 -160q0 -76 113 -76h61v-174h-90q-146 0 -229 50q-82 49 -82 143q0 72 43 127q42 54 114 92h-815v1556h1043v-227h-779v-416h764v-227h-764v-459h797v-227z" />
    <glyph glyph-name="eogonek" unicode="&#x119;" horiz-adv-x="1243" 
d="M1157 477l-819 -14q15 -157 92 -240q76 -82 197 -82q101 0 159 43q61 46 91 127h260q-47 -157 -166 -245q-84 -70 -125 -127q-37 -52 -37 -105q0 -86 119 -86h61v-170h-90q-145 0 -227 49t-82 144q0 55 24 104q23 47 78 96q-66 -4 -74 -4q-164 0 -288 74
q-125 75 -189 205q-65 133 -65 301q0 170 67 301t191 205q122 73 287 73q164 0 284 -69q124 -71 191 -199t67 -299q0 -39 -6 -82zM432 860h2q-73 -73 -94 -219h557q-6 91 -43 154q-38 65 -98 102q-61 37 -138 37q-112 0 -186 -74z" />
    <glyph glyph-name="Ecaron" unicode="&#x11a;" horiz-adv-x="1349" 
d="M442 686v-459h797v-227h-1061v1556h1043v-227h-779v-416h764v-227h-764zM700 1796l191 166h239l-258 -283h-344l-258 283h240z" />
    <glyph glyph-name="ecaron" unicode="&#x11b;" horiz-adv-x="1243" 
d="M1157 477l-823 -6q15 -157 92 -240q75 -81 197 -81q101 0 159 43q61 45 90 126h261q-52 -175 -185 -264q-131 -88 -330 -88q-164 0 -288 74q-125 75 -189 205q-65 133 -65 301q0 170 67 301t191 205q122 73 287 73q164 0 284 -69q124 -71 191 -199t67 -299q0 -39 -6 -82z
M428 868h2q-73 -73 -94 -219h557q-6 91 -43 154q-38 65 -98 102q-61 37 -138 37q-112 0 -186 -74zM616 1350l197 200h229l-262 -315h-329l-261 315h230z" />
    <glyph glyph-name="Gcircumflex" unicode="&#x11c;" horiz-adv-x="1708" 
d="M782 858l787 4v-858h-223v383q-35 -114 -101 -203q-67 -90 -178 -149q-110 -58 -260 -58q-197 0 -361 99q-160 97 -260 280q-98 180 -98 422q0 234 96 418q94 181 267 283q169 100 391 100q184 0 327 -61q147 -63 240 -175q97 -116 139 -276h-276q-49 137 -158 217
t-270 80q-143 0 -252 -74q-106 -72 -166 -207q-59 -133 -59 -307q0 -176 61 -307q63 -135 172 -207q112 -74 256 -74q129 0 234 54q101 52 159 153q59 103 62 244h-529v219zM1012 1966l258 -283h-240l-190 168l-191 -168h-239l258 283h344z" />
    <glyph glyph-name="gcircumflex" unicode="&#x11d;" horiz-adv-x="1325" 
d="M930 1104l266 -4v-1096q0 -148 -74 -248q-72 -96 -192 -143q-116 -45 -258 -45q-133 0 -248 41q-112 40 -186 123q-73 82 -88 202h258q15 -87 86 -137q70 -49 172 -49q71 0 137 29q60 26 96 84q35 56 35 137v258q-30 -73 -88 -131t-135 -88q-79 -31 -160 -31
q-136 0 -240 70q-107 72 -164 198q-59 130 -59 295q0 166 59 293q59 126 164 197q103 69 238 69q99 0 172 -36q78 -38 129 -101q53 -66 80 -141v254zM874 285v-2q78 104 78 282q0 175 -78 279q-75 100 -219 100q-141 0 -217 -98t-76 -279t76 -282t217 -101q143 0 219 101z
M823 1550l262 -315h-229l-197 203l-196 -203h-230l261 315h329z" />
    <glyph glyph-name="Gbreve" unicode="&#x11e;" horiz-adv-x="1708" 
d="M782 858l787 4v-858h-223v383q-35 -114 -101 -203q-67 -90 -178 -149q-110 -58 -260 -58q-197 0 -361 99q-160 97 -260 280q-98 180 -98 422q0 234 96 418q94 181 267 283q169 100 391 100q184 0 327 -61q147 -63 240 -175q97 -116 139 -276h-276q-49 137 -158 217
t-270 80q-143 0 -252 -74q-106 -72 -166 -207q-59 -133 -59 -307q0 -176 61 -307q63 -135 172 -207q112 -74 256 -74q129 0 234 54q101 52 159 153q59 103 62 244h-529v219zM649 1716h-4q-81 40 -125 105q-43 64 -43 145h195q3 -60 49 -100q45 -39 117 -39q71 0 116 39
q47 41 50 100h194q0 -81 -43 -145q-44 -65 -125 -105q-79 -39 -190 -39q-112 0 -191 39z" />
    <glyph glyph-name="gbreve" unicode="&#x11f;" horiz-adv-x="1325" 
d="M930 1104l266 -4v-1096q0 -148 -74 -248q-72 -96 -192 -143q-116 -45 -258 -45q-133 0 -248 41q-112 40 -186 123q-73 82 -88 202h258q15 -87 86 -137q70 -49 172 -49q71 0 137 29q60 26 96 84q35 56 35 137v258q-30 -73 -88 -131t-135 -88q-79 -31 -160 -31
q-136 0 -240 70q-107 72 -164 198q-59 130 -59 295q0 166 59 293q59 126 164 197q103 69 238 69q99 0 172 -36q78 -38 129 -101q53 -66 80 -141v254zM874 285v-2q78 104 78 282q0 175 -78 279q-75 100 -219 100q-141 0 -217 -98t-76 -279t76 -282t217 -101q143 0 219 101z
M473 1270h4q-80 44 -123 116q-43 73 -43 164h193q0 -77 41 -118q39 -39 117 -39q73 0 114 41t41 116h195q0 -91 -43 -164q-43 -72 -123 -116q-79 -43 -187 -43q-107 0 -186 43z" />
    <glyph glyph-name="Gdotaccent" unicode="&#x120;" horiz-adv-x="1708" 
d="M782 858l787 4v-858h-223v383q-35 -114 -101 -203q-67 -90 -178 -149q-110 -58 -260 -58q-197 0 -361 99q-160 97 -260 280q-98 180 -98 422q0 234 96 418q94 181 267 283q169 100 391 100q184 0 327 -61q147 -63 240 -175q97 -116 139 -276h-276q-49 137 -158 217
t-270 80q-143 0 -252 -74q-106 -72 -166 -207q-59 -133 -59 -307q0 -176 61 -307q63 -135 172 -207q112 -74 256 -74q129 0 234 54q101 52 159 153q59 103 62 244h-529v219zM977 1683h-277v283h277v-283z" />
    <glyph glyph-name="gdotaccent" unicode="&#x121;" horiz-adv-x="1325" 
d="M930 1104l266 -4v-1096q0 -148 -74 -248q-72 -96 -192 -143q-116 -45 -258 -45q-133 0 -248 41q-112 40 -186 123q-73 82 -88 202h258q15 -87 86 -137q70 -49 172 -49q71 0 137 29q60 26 96 84q35 56 35 137v258q-30 -73 -88 -131t-135 -88q-79 -31 -160 -31
q-136 0 -240 70q-107 72 -164 198q-59 130 -59 295q0 166 59 293q59 126 164 197q103 69 238 69q99 0 172 -36q78 -38 129 -101q53 -66 80 -141v254zM874 285v-2q78 104 78 282q0 175 -78 279q-75 100 -219 100q-141 0 -217 -98t-76 -279t76 -282t217 -101q143 0 219 101z
M793 1268h-269v282h269v-282z" />
    <glyph glyph-name="uni0122" unicode="&#x122;" horiz-adv-x="1708" 
d="M782 858l787 4v-858h-223v383q-35 -114 -101 -203q-67 -90 -178 -149q-110 -58 -260 -58q-197 0 -361 99q-160 97 -260 280q-98 180 -98 422q0 234 96 418q94 181 267 283q169 100 391 100q184 0 327 -61q147 -63 240 -175q97 -116 139 -276h-276q-49 137 -158 217
t-270 80q-143 0 -252 -74q-106 -72 -166 -207q-59 -133 -59 -307q0 -176 61 -307q63 -135 172 -207q112 -74 256 -74q129 0 234 54q101 52 159 153q59 103 62 244h-529v219zM700 -403v282h277v-305l-127 -184h-168l104 207h-86z" />
    <glyph glyph-name="uni0123" unicode="&#x123;" horiz-adv-x="1325" 
d="M930 1104l266 -4v-1096q0 -148 -74 -248q-72 -96 -192 -143q-116 -45 -258 -45q-133 0 -248 41q-112 40 -186 123q-73 82 -88 202h258q15 -87 86 -137q70 -49 172 -49q71 0 137 29q60 26 96 84q35 56 35 137v258q-30 -73 -88 -131t-135 -88q-79 -31 -160 -31
q-136 0 -240 70q-107 72 -164 198q-59 130 -59 295q0 166 59 293q59 126 164 197q103 69 238 69q99 0 172 -36q78 -38 129 -101q53 -66 80 -141v254zM874 285v-2q78 104 78 282q0 175 -78 279q-75 100 -219 100q-141 0 -217 -98t-76 -279t76 -282t217 -101q143 0 219 101z
M649 1759h162l-104 -207h86v-282h-269v305z" />
    <glyph glyph-name="Hcircumflex" unicode="&#x124;" horiz-adv-x="1622" 
d="M1180 918v638h264v-1556h-264v682h-738v-682h-264v1556h264v-638h738zM983 1962l258 -283h-240l-190 168l-190 -168h-240l258 283h344z" />
    <glyph glyph-name="hcircumflex" unicode="&#x125;" horiz-adv-x="1259" 
d="M956 1071l2 -2q84 -57 127 -154q43 -98 43 -223v-4v-690h-256v641v4q0 154 -61 227q-62 74 -174 74q-111 0 -172 -76q-62 -77 -62 -229v-641h-256v1556h254v-677q43 109 129 180q84 69 220 69q124 0 206 -55zM446 1958l259 -283h-240l-191 168l-190 -168h-240l258 283
h344z" />
    <glyph glyph-name="Hbar" unicode="&#x126;" horiz-adv-x="1622" 
d="M1444 1305h182v-205h-182v-1100h-264v682h-738v-682h-264v1100h-182v205h182v251h264v-251h738v251h264v-251zM442 918h738v182h-738v-182z" />
    <glyph glyph-name="hbar" unicode="&#x127;" horiz-adv-x="1259" 
d="M956 1071l2 -2q84 -57 127 -154q43 -98 43 -223v-4v-690h-256v641v4q0 154 -61 227q-62 74 -174 74q-111 0 -172 -76q-62 -77 -62 -229v-641h-256v1239h-122v176h122v141h254v-141h195v-176h-195v-360q43 109 129 180q84 69 220 69q124 0 206 -55z" />
    <glyph glyph-name="Itilde" unicode="&#x128;" horiz-adv-x="620" 
d="M442 0h-264v1556h264v-1556zM-49 1700v-6q3 80 31 141q27 58 73 88q48 31 105 31q79 0 166 -41q31 -17 61 -25q31 -8 62 -8q45 0 79 21q33 20 45 55h93q-3 -76 -31 -137q-26 -57 -74 -88t-104 -31q-79 0 -166 43q-27 15 -62 24q-42 11 -61 11q-46 0 -80 -21
q-33 -20 -45 -57h-92z" />
    <glyph glyph-name="itilde" unicode="&#x129;" horiz-adv-x="548" 
d="M401 0h-256v1104h256v-1104zM-68 1278h-4q3 124 58 188q57 66 143 66q41 0 78 -12q29 -9 78 -31q62 -33 121 -33q48 0 81 23t41 61h86q-3 -125 -57 -188q-57 -66 -143 -66q-73 0 -156 45q-70 33 -119 33t-80 -25q-32 -25 -43 -61h-84z" />
    <glyph glyph-name="Imacron" unicode="&#x12a;" horiz-adv-x="620" 
d="M442 0h-264v1556h264v-1556zM717 1722h-813v199h813v-199z" />
    <glyph glyph-name="imacron" unicode="&#x12b;" horiz-adv-x="548" 
d="M401 0h-256v1104h256v-1104zM647 1300h-745v187h745v-187z" />
    <glyph glyph-name="Ibreve" unicode="&#x12c;" horiz-adv-x="620" 
d="M442 0h-264v1556h264v-1556zM121 1712h-4q-81 40 -125 105q-43 64 -43 145h194q3 -59 50 -100q45 -39 116 -39q72 0 117 39q46 40 49 100h195q0 -81 -43 -145q-44 -65 -125 -105q-79 -39 -191 -39q-111 0 -190 39z" />
    <glyph glyph-name="ibreve" unicode="&#x12d;" horiz-adv-x="548" 
d="M401 0h-256v1104h256v-1104zM88 1276h4q-80 44 -123 117t-43 163h193q0 -77 41 -118q39 -39 116 -39q74 0 115 41t41 116h195q0 -90 -43 -163q-44 -73 -123 -117q-79 -43 -187 -43q-107 0 -186 43z" />
    <glyph glyph-name="Iogonek" unicode="&#x12e;" horiz-adv-x="620" 
d="M442 0h-264v1556h264v-1556zM352 -412l-2 -2q-147 0 -229 49t-82 144q0 124 139 219h264q-174 -64 -174 -160q0 -76 113 -76h61v-174h-90z" />
    <glyph glyph-name="iogonek" unicode="&#x12f;" horiz-adv-x="548" 
d="M139 1274v282h269v-282h-269zM145 1104h258v-1104q-178 -70 -178 -166q0 -38 31 -57q32 -19 86 -19h59v-170h-88q-144 0 -227 50q-82 49 -82 143q0 69 37 121t104 98v1104z" />
    <glyph glyph-name="Idotaccent" unicode="&#x130;" horiz-adv-x="620" 
d="M442 0h-264v1556h264v-1556zM449 1679h-277v283h277v-283z" />
    <glyph glyph-name="dotlessi" unicode="&#x131;" horiz-adv-x="548" 
d="M401 0h-256v1104h256v-1104z" />
    <glyph glyph-name="Jcircumflex" unicode="&#x134;" horiz-adv-x="798" 
d="M39 0v225h164q85 0 125 37q39 36 39 117v1177h264v-1222q0 -161 -96 -248q-95 -86 -281 -86h-215zM672 1960l258 -283h-240l-190 168l-191 -168h-239l258 283h344z" />
    <glyph glyph-name="jcircumflex" unicode="&#x135;" horiz-adv-x="548" 
d="M-57 -401l-2 190h53q73 0 112 31q37 30 37 110v1174h256v-1186q0 -107 -45 -178q-45 -72 -127 -107q-78 -34 -186 -34h-98zM436 1556l262 -315h-229l-197 203l-196 -203h-230l260 315h330z" />
    <glyph glyph-name="uni0136" unicode="&#x136;" horiz-adv-x="1458" 
d="M748 819l741 -819h-338l-709 786v-786h-264v1556h264v-712l643 712h332zM641 -408v283h277v-305l-127 -184h-168l104 206h-86z" />
    <glyph glyph-name="uni0137" unicode="&#x137;" horiz-adv-x="1175" 
d="M682 614l502 -614h-312l-471 580v-580h-256v1556h256v-913l453 461h309zM485 -408v283h269v-305l-127 -184h-160l104 206h-86z" />
    <glyph glyph-name="kgreenlandic" unicode="&#x138;" horiz-adv-x="1187" 
d="M670 592l524 -592h-309l-484 551v-551h-256v1104h256v-473l461 473h309z" />
    <glyph glyph-name="Lacute" unicode="&#x139;" horiz-adv-x="1171" 
d="M442 1556v-1329h695v-227h-959v1556h264zM444 1679h-251l247 283h365z" />
    <glyph glyph-name="lacute" unicode="&#x13a;" horiz-adv-x="548" 
d="M401 0h-256v1556h256v-1556zM416 1679h-252l248 283h364z" />
    <glyph glyph-name="uni013B" unicode="&#x13b;" horiz-adv-x="1171" 
d="M442 1556v-1329h695v-227h-959v1556h264zM520 -408v283h277v-305l-127 -184h-168l104 206h-86z" />
    <glyph glyph-name="uni013C" unicode="&#x13c;" horiz-adv-x="548" 
d="M401 0h-256v1556h256v-1556zM139 -408v283h269v-305l-127 -184h-160l104 206h-86z" />
    <glyph glyph-name="Lcaron" unicode="&#x13d;" horiz-adv-x="1171" 
d="M442 1556v-1329h695v-227h-959v1556h264zM825 1044h-190l39 512h254z" />
    <glyph glyph-name="lcaron" unicode="&#x13e;" horiz-adv-x="548" 
d="M401 0h-256v1556h256v-1556zM696 1184h-184l29 372h233z" />
    <glyph glyph-name="Ldot" unicode="&#x13f;" horiz-adv-x="1191" 
d="M442 1556v-1329h695v-227h-959v1556h264zM1053 733h-291v279h291v-279z" />
    <glyph glyph-name="ldot" unicode="&#x140;" horiz-adv-x="778" 
d="M401 0h-256v1556h256v-1556zM795 670h-265v278h265v-278z" />
    <glyph glyph-name="Lslash" unicode="&#x141;" horiz-adv-x="1189" 
d="M459 715v-488h694v-227h-958v565l-175 -98v221l175 98v770h264v-620l338 190v-221z" />
    <glyph glyph-name="lslash" unicode="&#x142;" horiz-adv-x="698" 
d="M477 979l158 100v-225l-158 -100v-754h-256v592l-147 -94v225l147 94v739h256v-577z" />
    <glyph glyph-name="Nacute" unicode="&#x143;" horiz-adv-x="1755" 
d="M1313 31v1525h264v-1556h-526l-609 1526v-1526h-264v1556h527zM1010 1679h-252l248 283h364z" />
    <glyph glyph-name="nacute" unicode="&#x144;" horiz-adv-x="1259" 
d="M956 1071l2 -2q84 -57 127 -154q43 -98 43 -223v-4v-690h-256v641v4q0 154 -61 227q-62 74 -174 74q-111 0 -172 -76q-62 -77 -62 -229v-641h-256v1104h254v-225q43 109 129 180q84 69 220 69q124 0 206 -55zM756 1237h-238l234 315h348z" />
    <glyph glyph-name="uni0145" unicode="&#x145;" horiz-adv-x="1755" 
d="M1313 31v1525h264v-1556h-526l-609 1526v-1526h-264v1556h527zM719 -408v283h276v-305l-127 -184h-168l105 206h-86z" />
    <glyph glyph-name="uni0146" unicode="&#x146;" horiz-adv-x="1259" 
d="M956 1071l2 -2q84 -57 127 -154q43 -98 43 -223v-4v-690h-256v641v4q0 154 -61 227q-62 74 -174 74q-111 0 -172 -76q-62 -77 -62 -229v-641h-256v1104h254v-225q43 109 129 180q84 69 220 69q124 0 206 -55zM504 -412v283h268v-305l-127 -184h-160l105 206h-86z" />
    <glyph glyph-name="Ncaron" unicode="&#x147;" horiz-adv-x="1755" 
d="M1313 31v1525h264v-1556h-526l-609 1526v-1526h-264v1556h527zM922 1796l190 166h240l-258 -283h-344l-258 283h239z" />
    <glyph glyph-name="ncaron" unicode="&#x148;" horiz-adv-x="1259" 
d="M956 1071l2 -2q84 -57 127 -154q43 -98 43 -223v-4v-690h-256v641v4q0 154 -61 227q-62 74 -174 74q-111 0 -172 -76q-62 -77 -62 -229v-641h-256v1104h254v-225q43 109 129 180q84 69 220 69q124 0 206 -55zM657 1352l197 200h229l-262 -315h-329l-261 315h230z" />
    <glyph glyph-name="Eng" unicode="&#x14a;" horiz-adv-x="1746" 
d="M1577 1556l2 -1556h-8v-74q0 -161 -98 -243q-101 -84 -279 -84h-205v208h166q86 0 123 37t37 117v39h-264l-609 1526v-1526h-264v1556h527l608 -1525v1525h264z" />
    <glyph glyph-name="eng" unicode="&#x14b;" horiz-adv-x="1259" 
d="M956 1071l2 -4q84 -57 127 -154q43 -98 43 -223v-4v-770q0 -161 -98 -240t-262 -79h-98v190h53q74 0 113 31q36 29 36 110v711v4q0 154 -61 227q-62 74 -174 74q-111 0 -172 -76q-62 -77 -62 -229v-641h-256v1104h254v-225q43 109 129 180q84 69 220 69q124 0 206 -55z
" />
    <glyph glyph-name="Omacron" unicode="&#x14c;" horiz-adv-x="1703" 
d="M457 76q-177 104 -269 282q-96 184 -96 418t96 418q93 179 269 283q169 100 395 100t395 -100q176 -104 269 -283q96 -184 96 -418t-96 -418q-92 -178 -269 -282q-171 -101 -395 -101t-395 101zM1106 264q109 72 172 207q61 131 61 307t-61 307q-63 135 -172 207
q-112 74 -254 74t-254 -74q-109 -72 -172 -207q-61 -131 -61 -307t61 -307q63 -135 172 -207q112 -74 254 -74t254 74zM1257 1722h-813v199h813v-199z" />
    <glyph glyph-name="omacron" unicode="&#x14d;" horiz-adv-x="1273" 
d="M342 47h-2q-126 73 -193 205q-67 131 -67 301q0 171 67 299t195 203q125 73 295 73t295 -73q126 -74 194 -203q68 -130 68 -299q0 -168 -68 -301q-67 -131 -194 -205t-295 -74t-295 74zM795 203l-4 -4q65 48 100 137q35 90 35 213q0 124 -33 209q-35 89 -100 137
q-67 49 -162 49q-93 0 -160 -49q-65 -48 -100 -137q-35 -90 -35 -209t35 -209q34 -87 102 -137q67 -49 160 -49q95 0 162 49zM1001 1294h-745v187h745v-187z" />
    <glyph glyph-name="Obreve" unicode="&#x14e;" horiz-adv-x="1703" 
d="M457 76q-177 104 -269 282q-96 184 -96 418t96 418q93 179 269 283q169 100 395 100t395 -100q176 -104 269 -283q96 -184 96 -418t-96 -418q-92 -178 -269 -282q-171 -101 -395 -101t-395 101zM1106 264q109 72 172 207q61 131 61 307t-61 307q-63 135 -172 207
q-112 74 -254 74t-254 -74q-109 -72 -172 -207q-61 -131 -61 -307t61 -307q63 -135 172 -207q112 -74 254 -74t254 74zM662 1712h-5q-81 40 -125 105q-43 64 -43 145h195q3 -60 49 -100q45 -39 117 -39t117 39q46 40 49 100h194q0 -81 -43 -145q-44 -65 -125 -105
q-79 -39 -190 -39t-190 39z" />
    <glyph glyph-name="obreve" unicode="&#x14f;" horiz-adv-x="1273" 
d="M342 47h-2q-126 73 -193 205q-67 131 -67 301q0 171 67 299t195 203q125 73 295 73t295 -73q126 -74 194 -203q68 -130 68 -299q0 -168 -68 -301q-67 -131 -194 -205t-295 -74t-295 74zM795 203l-4 -4q65 48 100 137q35 90 35 213q0 124 -33 209q-35 89 -100 137
q-67 49 -162 49q-93 0 -160 -49q-65 -48 -100 -137q-35 -90 -35 -209t35 -209q34 -87 102 -137q67 -49 160 -49q95 0 162 49zM446 1270h5q-80 44 -123 116q-43 73 -43 164h192q0 -77 41 -118q39 -39 117 -39q74 0 115 41t41 116h194q0 -91 -43 -164q-43 -72 -123 -116
q-79 -43 -186 -43q-108 0 -187 43z" />
    <glyph glyph-name="Ohungarumlaut" unicode="&#x150;" horiz-adv-x="1703" 
d="M457 76q-177 104 -269 282q-96 184 -96 418t96 418q93 179 269 283q169 100 395 100t395 -100q176 -104 269 -283q96 -184 96 -418t-96 -418q-92 -178 -269 -282q-171 -101 -395 -101t-395 101zM1106 264q109 72 172 207q61 131 61 307t-61 307q-63 135 -172 207
q-112 74 -254 74t-254 -74q-109 -72 -172 -207q-61 -131 -61 -307t61 -307q63 -135 172 -207q112 -74 254 -74t254 74zM733 1679h-244l271 283h336zM1159 1679h-244l273 283h336z" />
    <glyph glyph-name="ohungarumlaut" unicode="&#x151;" horiz-adv-x="1273" 
d="M342 47h-2q-126 73 -193 205q-67 131 -67 301q0 171 67 299t195 203q125 73 295 73t295 -73q126 -74 194 -203q68 -130 68 -299q0 -168 -68 -301q-67 -131 -194 -205t-295 -74t-295 74zM795 203l-4 -4q65 48 100 137q35 90 35 213q0 124 -33 209q-35 89 -100 137
q-67 49 -162 49q-93 0 -160 -49q-65 -48 -100 -137q-35 -90 -35 -209t35 -209q34 -87 102 -137q67 -49 160 -49q95 0 162 49zM539 1235h-226l240 315h319zM956 1235h-225l240 315h319z" />
    <glyph glyph-name="OE" unicode="&#x152;" horiz-adv-x="2344" 
d="M1438 227l796 -4v-227h-1327q-226 0 -413 94q-188 95 -295 272q-109 180 -109 414t109 414q107 177 295 272q187 94 413 94h1309v-227h-778v-416h764v-227h-764v-459zM1174 223l-3 1104h-266q-152 0 -272 -63q-123 -65 -197 -191q-74 -127 -74 -301q0 -175 74 -299
q72 -120 197 -186q122 -64 274 -64h267z" />
    <glyph glyph-name="oe" unicode="&#x153;" horiz-adv-x="2082" 
d="M1997 477l-828 -2q15 -155 93 -239q76 -82 196 -82q102 0 160 43q60 45 90 127h260q-53 -177 -184 -265t-330 -88q-131 0 -235 58q-106 59 -172 159q-69 -99 -179 -159q-107 -58 -241 -58q-168 0 -295 74q-126 73 -193 205q-67 131 -67 301q0 171 67 299t195 203
q125 73 295 73q138 0 243 -57q111 -60 179 -156q72 104 174 158q104 55 235 55q165 0 285 -69q123 -70 190 -199q68 -130 68 -299q0 -39 -6 -82zM784 201l-4 -4q67 49 101 137q34 87 34 213q0 127 -32 209q-34 88 -101 137t-161 49q-93 0 -160 -49t-101 -137
q-34 -87 -34 -209t34 -209q34 -86 103 -137q67 -49 160 -49q94 0 161 49zM1260 866h2q-74 -74 -95 -219h557q-6 91 -43 154q-38 65 -98 102q-61 37 -137 37q-112 0 -186 -74z" />
    <glyph glyph-name="Racute" unicode="&#x154;" horiz-adv-x="1482" 
d="M1128 0l-356 606h-330v-608h-264v1556h596q180 0 309 -57q133 -59 203 -166q72 -110 72 -252q0 -156 -82 -266q-82 -111 -234 -164l392 -649h-306zM442 1327l-2 -496h338q145 0 226 66q79 64 79 182q0 119 -79 183q-80 65 -224 65h-338zM786 1677h-251l247 283h365z" />
    <glyph glyph-name="racute" unicode="&#x155;" horiz-adv-x="806" 
d="M399 836l2 -2q35 134 123 213t240 79v-252h-70q-102 0 -166 -24q-66 -25 -96 -80q-31 -57 -31 -152v-618h-256v1104h254v-268zM588 1239h-238l234 315h348z" />
    <glyph glyph-name="uni0156" unicode="&#x156;" horiz-adv-x="1482" 
d="M1128 0l-356 606h-330v-608h-264v1556h596q180 0 309 -57q133 -59 203 -166q72 -110 72 -252q0 -156 -82 -266q-82 -111 -234 -164l392 -649h-306zM442 1327l-2 -496h338q145 0 226 66q79 64 79 182q0 119 -79 183q-80 65 -224 65h-338zM618 -410v283h277v-305l-127 -184
h-168l105 206h-87z" />
    <glyph glyph-name="uni0157" unicode="&#x157;" horiz-adv-x="806" 
d="M399 836l2 -2q35 134 123 213t240 79v-252h-70q-102 0 -166 -24q-66 -25 -96 -80q-31 -57 -31 -152v-618h-256v1104h254v-268zM141 -410v283h269v-305l-127 -184h-160l104 206h-86z" />
    <glyph glyph-name="Rcaron" unicode="&#x158;" horiz-adv-x="1482" 
d="M1128 0l-356 606h-330v-608h-264v1556h596q180 0 309 -57q133 -59 203 -166q72 -110 72 -252q0 -156 -82 -266q-82 -111 -234 -164l392 -649h-306zM442 1327l-2 -496h338q145 0 226 66q79 64 79 182q0 119 -79 183q-80 65 -224 65h-338zM698 1794l191 166h239l-258 -283
h-344l-258 283h240z" />
    <glyph glyph-name="rcaron" unicode="&#x159;" horiz-adv-x="806" 
d="M399 836l2 -2q35 134 123 213t240 79v-252h-70q-102 0 -166 -24q-66 -25 -96 -80q-31 -57 -31 -152v-618h-256v1104h254v-268zM489 1354l197 200h229l-262 -315h-329l-261 315h230z" />
    <glyph glyph-name="Sacute" unicode="&#x15a;" horiz-adv-x="1439" 
d="M397 35l-2 -8q-137 63 -221 174q-85 113 -106 266h274q18 -137 117 -211q100 -74 246 -74q118 0 206 31q86 30 133 86q46 55 46 127t-37 115t-107 67q-96 33 -198 54l-209 45q-202 44 -314 147t-112 276q0 125 77 228q76 101 209 160t295 59q176 0 307 -55
q132 -55 211 -154q83 -103 103 -227h-275q-35 114 -122 166q-89 53 -222 53q-84 0 -161 -25q-73 -24 -117 -71q-43 -46 -43 -109q0 -62 31 -104q30 -41 98 -68q74 -29 190 -55l207 -45q160 -35 254 -88q98 -55 148 -138q49 -82 49 -202q0 -142 -80 -254q-77 -108 -228 -168
t-342 -60q-169 0 -305 62zM784 1669h-252l248 283h365z" />
    <glyph glyph-name="sacute" unicode="&#x15b;" horiz-adv-x="1126" 
d="M324 14l-9 -4q-106 41 -172 119q-67 79 -82 195h258q18 -89 84 -131q62 -39 154 -39q117 0 176 36q62 38 62 103q0 43 -19 72q-19 28 -65 49q-51 23 -125 37l-174 38q-157 35 -240 109q-82 73 -82 195q0 97 62 174q61 76 165 116q106 41 232 41q121 0 219 -34
q97 -34 166 -103q70 -70 90 -168h-258q-21 58 -82 92q-62 35 -137 35q-89 0 -150 -37t-61 -94q0 -36 22 -61q21 -24 64 -39q51 -17 117 -31l174 -37q173 -37 252 -117q79 -79 79 -211q0 -107 -61 -186q-61 -78 -172 -119q-112 -41 -252 -41q-129 0 -235 41zM637 1235h-238
l234 315h348z" />
    <glyph glyph-name="Scircumflex" unicode="&#x15c;" horiz-adv-x="1439" 
d="M397 35l-2 -8q-137 63 -221 174q-85 113 -106 266h274q18 -137 117 -211q100 -74 246 -74q118 0 206 31q86 30 133 86q46 55 46 127t-37 115t-107 67q-96 33 -198 54l-209 45q-202 44 -314 147t-112 276q0 125 77 228q76 101 209 160t295 59q176 0 307 -55
q132 -55 211 -154q83 -103 103 -227h-275q-35 114 -122 166q-89 53 -222 53q-84 0 -161 -25q-73 -24 -117 -71q-43 -46 -43 -109q0 -62 31 -104q30 -41 98 -68q74 -29 190 -55l207 -45q160 -35 254 -88q98 -55 148 -138q49 -82 49 -202q0 -142 -80 -254q-77 -108 -228 -168
t-342 -60q-169 0 -305 62zM868 1952l258 -283h-239l-191 168l-190 -168h-240l258 283h344z" />
    <glyph glyph-name="scircumflex" unicode="&#x15d;" horiz-adv-x="1126" 
d="M324 14l-9 -4q-106 41 -172 119q-67 79 -82 195h258q18 -89 84 -131q62 -39 154 -39q117 0 176 36q62 38 62 103q0 43 -19 72q-19 28 -65 49q-51 23 -125 37l-174 38q-157 35 -240 109q-82 73 -82 195q0 97 62 174q61 76 165 116q106 41 232 41q121 0 219 -34
q97 -34 166 -103q70 -70 90 -168h-258q-21 58 -82 92q-62 35 -137 35q-89 0 -150 -37t-61 -94q0 -36 22 -61q21 -24 64 -39q51 -17 117 -31l174 -37q173 -37 252 -117q79 -79 79 -211q0 -107 -61 -186q-61 -78 -172 -119q-112 -41 -252 -41q-129 0 -235 41zM702 1550
l263 -315h-230l-196 203l-197 -203h-229l260 315h329z" />
    <glyph glyph-name="Scedilla" unicode="&#x15e;" horiz-adv-x="1439" 
d="M1286 221v-8q-70 -105 -196 -166q-127 -62 -299 -74v-47q77 -9 120 -55t43 -117q0 -77 -57 -125q-58 -49 -156 -49h-131v137h90q33 0 56 13q20 11 20 41q0 29 -20 43t-51 14h-64v145q-153 9 -274 74t-197 172q-77 109 -98 252h274q18 -137 117 -211q100 -74 246 -74
q118 0 206 31t134 86q45 54 45 127q0 72 -37 115t-107 67q-96 33 -198 54l-209 45q-202 44 -314 147t-112 277q0 123 78 227q76 102 208 160q133 59 295 59q177 0 308 -55q132 -55 211 -154q82 -102 102 -227h-275q-35 114 -122 166q-89 53 -222 53q-84 0 -161 -25
q-73 -24 -117 -71q-43 -46 -43 -109q0 -62 31 -104q30 -41 98 -68q74 -29 190 -55l207 -45q160 -35 254 -88q99 -56 148 -137q49 -82 49 -203q0 -134 -70 -238z" />
    <glyph glyph-name="scedilla" unicode="&#x15f;" horiz-adv-x="1126" 
d="M993 145l-6 -4q-55 -73 -153 -116t-228 -52v-47q73 -9 119 -55q45 -45 45 -117q0 -77 -57 -125q-58 -49 -154 -49h-127v129h90q41 0 62 15q20 14 20 45q0 29 -20 43q-22 16 -52 16h-67v147q-158 17 -270 109q-108 88 -129 240h258q18 -89 84 -131q62 -39 153 -39
q117 0 176 36q62 38 62 103q0 43 -19 72q-19 28 -65 49q-51 23 -125 37l-174 38q-157 35 -240 109q-82 73 -82 195q0 97 62 174q61 75 166 116q106 41 231 41q121 0 219 -34q97 -34 166 -103q70 -70 90 -168h-258q-21 58 -82 92q-62 35 -137 35q-89 0 -150 -37t-61 -94
q0 -36 22 -61q21 -24 64 -39q51 -17 117 -31l174 -37q173 -37 252 -117q80 -80 80 -211q0 -100 -56 -174z" />
    <glyph glyph-name="Scaron" unicode="&#x160;" horiz-adv-x="1439" 
d="M397 35l-2 -8q-137 63 -221 174q-85 113 -106 266h274q18 -137 117 -211q100 -74 246 -74q118 0 206 31q86 30 133 86q46 55 46 127t-37 115t-107 67q-96 33 -198 54l-209 45q-202 44 -314 147t-112 276q0 125 77 228q76 101 209 160t295 59q176 0 307 -55
q132 -55 211 -154q83 -103 103 -227h-275q-35 114 -122 166q-89 53 -222 53q-84 0 -161 -25q-73 -24 -117 -71q-43 -46 -43 -109q0 -62 31 -104q30 -41 98 -68q74 -29 190 -55l207 -45q160 -35 254 -88q98 -55 148 -138q49 -82 49 -202q0 -142 -80 -254q-77 -108 -228 -168
t-342 -60q-169 0 -305 62zM696 1786l191 166h239l-258 -283h-344l-258 283h240z" />
    <glyph glyph-name="scaron" unicode="&#x161;" horiz-adv-x="1126" 
d="M324 14l-9 -4q-106 41 -172 119q-67 79 -82 195h258q18 -89 84 -131q62 -39 154 -39q117 0 176 36q62 38 62 103q0 43 -19 72q-19 28 -65 49q-51 23 -125 37l-174 38q-157 35 -240 109q-82 73 -82 195q0 97 62 174q61 76 165 116q106 41 232 41q121 0 219 -34
q97 -34 166 -103q70 -70 90 -168h-258q-21 58 -82 92q-62 35 -137 35q-89 0 -150 -37t-61 -94q0 -36 22 -61q21 -24 64 -39q51 -17 117 -31l174 -37q173 -37 252 -117q79 -79 79 -211q0 -107 -61 -186q-61 -78 -172 -119q-112 -41 -252 -41q-129 0 -235 41zM539 1350
l196 200h230l-263 -315h-329l-260 315h229z" />
    <glyph glyph-name="uni0162" unicode="&#x162;" horiz-adv-x="1337" 
d="M35 1556h1268v-227h-502v-1329h-264v1329h-502v227zM530 -408v283h277v-305l-127 -184h-168l104 206h-86z" />
    <glyph glyph-name="uni0163" unicode="&#x163;" horiz-adv-x="823" 
d="M768 190v-190h-160q-102 0 -186 35q-83 35 -129 104q-47 71 -47 176v4v596h-217v189h217v262h256v-262h262v-189h-262v-583v-4q0 -77 37 -107q39 -31 112 -31h117zM338 -408v283h268v-305l-127 -184h-160l105 206h-86z" />
    <glyph glyph-name="Tcaron" unicode="&#x164;" horiz-adv-x="1337" 
d="M35 1556h1268v-227h-502v-1329h-264v1329h-502v227zM668 1796l190 166h240l-258 -283h-344l-258 283h239z" />
    <glyph glyph-name="tcaron" unicode="&#x165;" horiz-adv-x="823" 
d="M612 1190l29 366h233l-77 -366h-185zM539 221q39 -31 112 -31h117v-190h-160q-102 0 -186 35q-83 35 -129 104q-47 71 -47 176v4v596h-217v189h217v262h256v-262h262v-189h-262v-583v-4q0 -77 37 -107z" />
    <glyph glyph-name="Tbar" unicode="&#x166;" horiz-adv-x="1400" 
d="M1333 1556v-227h-502v-444h383v-213h-383v-672h-264v672h-381v213h381v444h-499v227h1265z" />
    <glyph glyph-name="tbar" unicode="&#x167;" horiz-adv-x="823" 
d="M768 190v-190h-160q-102 0 -186 35q-83 35 -129 104q-47 71 -47 176v4v234h-154v176h154v186h-217v189h217v262h256v-262h262v-189h-262v-186h162v-176h-162v-221v-4q0 -77 37 -107q39 -31 112 -31h117z" />
    <glyph glyph-name="Utilde" unicode="&#x168;" horiz-adv-x="1583" 
d="M162 621v2v931h264v-952v-4q0 -410 367 -410q364 0 364 414v952h264v-931q0 -314 -151 -482q-150 -166 -477 -166q-631 0 -631 646zM432 1698v-6q3 80 31 141q26 57 74 88t104 31q79 0 166 -41q31 -17 61 -25q31 -8 62 -8q47 0 80 20q32 20 45 56h92q-3 -76 -31 -137
q-26 -57 -74 -88t-104 -31q-79 0 -166 43q-27 15 -61 24q-42 11 -62 11q-45 0 -80 -21q-33 -20 -45 -57h-92z" />
    <glyph glyph-name="utilde" unicode="&#x169;" horiz-adv-x="1251" 
d="M848 1104l250 4v-1104h-254v219q-41 -110 -125 -176q-85 -67 -217 -67q-123 0 -205 55q-83 56 -123 153q-41 100 -41 226v4v688h256v-641v-4q0 -150 60 -225q59 -74 169 -74q111 0 170 74q60 75 60 227v641zM270 1282h-4q3 124 58 188q57 66 143 66q41 0 78 -12
q29 -9 78 -31q62 -33 120 -33q49 0 82 23t41 61h86q-3 -125 -57 -188q-57 -66 -143 -66q-73 0 -156 45q-70 33 -119 33t-80 -25q-32 -25 -43 -61h-84z" />
    <glyph glyph-name="Umacron" unicode="&#x16a;" horiz-adv-x="1583" 
d="M162 621v2v931h264v-952v-4q0 -410 367 -410q364 0 364 414v952h264v-931q0 -314 -151 -482q-150 -166 -477 -166q-631 0 -631 646zM1198 1720h-813v199h813v-199z" />
    <glyph glyph-name="umacron" unicode="&#x16b;" horiz-adv-x="1251" 
d="M848 1104l250 4v-1104h-254v219q-41 -110 -125 -176q-85 -67 -217 -67q-123 0 -205 55q-83 56 -123 153q-41 100 -41 226v4v688h256v-641v-4q0 -150 60 -225q59 -74 169 -74q111 0 170 74q60 75 60 227v641zM985 1305h-745v186h745v-186z" />
    <glyph glyph-name="Ubreve" unicode="&#x16c;" horiz-adv-x="1583" 
d="M162 621v2v931h264v-952v-4q0 -410 367 -410q364 0 364 414v952h264v-931q0 -314 -151 -482q-150 -166 -477 -166q-631 0 -631 646zM602 1710h-4q-81 40 -125 105q-43 64 -43 145h195q3 -60 49 -100q45 -39 117 -39q71 0 116 39q46 40 49 100h195q0 -81 -43 -145
q-44 -65 -125 -105q-79 -39 -190 -39q-112 0 -191 39z" />
    <glyph glyph-name="ubreve" unicode="&#x16d;" horiz-adv-x="1251" 
d="M848 1104l250 4v-1104h-254v219q-41 -110 -125 -176q-85 -67 -217 -67q-123 0 -205 55q-83 56 -123 153q-41 100 -41 226v4v688h256v-641v-4q0 -150 60 -225q59 -74 169 -74q111 0 170 74q60 75 60 227v641zM426 1280h4q-80 44 -123 117t-43 164h193q0 -78 41 -119
q39 -39 116 -39q74 0 115 41t41 117h195q0 -91 -43 -164q-44 -73 -123 -117q-79 -43 -187 -43q-107 0 -186 43z" />
    <glyph glyph-name="Uring" unicode="&#x16e;" horiz-adv-x="1583" 
d="M162 621v2v931h264v-952v-4q0 -410 367 -410q364 0 364 414v952h264v-931q0 -314 -151 -482q-150 -166 -477 -166q-631 0 -631 646zM655 1702v-2q-61 36 -100 102q-37 64 -37 142q0 74 37 135q38 62 100 98q64 37 138 37t135 -37t98 -98t37 -135q0 -78 -37 -142
q-36 -62 -98 -100q-61 -37 -135 -37t-138 37zM870 1860l-2 -2q33 33 33 79q0 47 -33 80t-80 33q-46 0 -79 -33t-33 -80q0 -44 35 -79q33 -33 80 -33q44 0 79 35z" />
    <glyph glyph-name="uring" unicode="&#x16f;" horiz-adv-x="1251" 
d="M848 1104l250 4v-1104h-254v219q-41 -110 -125 -176q-85 -67 -217 -67q-123 0 -205 55q-83 56 -123 153q-41 100 -41 226v4v688h256v-641v-4q0 -150 60 -225q59 -74 169 -74q111 0 170 74q60 75 60 227v641zM492 1270v-4q-56 35 -86 90q-31 57 -31 121q0 63 31 120
q30 56 86 86q57 31 120 31q64 0 121 -31q52 -28 88 -86q33 -53 33 -118q0 -68 -33 -121q-34 -54 -88 -88q-53 -33 -121 -33q-67 0 -120 33zM678 1409h-4q28 28 28 68q0 41 -26 67q-27 27 -68 27q-40 0 -67 -27t-27 -67q0 -39 29 -68t67 -29q39 0 68 29z" />
    <glyph glyph-name="Uhungarumlaut" unicode="&#x170;" horiz-adv-x="1583" 
d="M162 621v2v931h264v-952v-4q0 -410 367 -410q364 0 364 414v952h264v-931q0 -314 -151 -482q-150 -166 -477 -166q-631 0 -631 646zM674 1677h-244l270 283h336zM1100 1677h-244l272 283h336z" />
    <glyph glyph-name="uhungarumlaut" unicode="&#x171;" horiz-adv-x="1251" 
d="M848 1104l250 4v-1104h-254v219q-41 -110 -125 -176q-85 -67 -217 -67q-123 0 -205 55q-83 56 -123 153q-41 100 -41 226v4v688h256v-641v-4q0 -150 60 -225q59 -74 169 -74q111 0 170 74q60 75 60 227v641zM522 1245h-225l240 316h319zM940 1245h-225l239 316h320z" />
    <glyph glyph-name="Uogonek" unicode="&#x172;" horiz-adv-x="1583" 
d="M1157 1556l260 -2v-931q0 -403 -239 -555q-84 -63 -113 -113q-31 -54 -31 -105q0 -45 31 -67q33 -23 84 -23h61v-174h-90q-145 0 -227 49q-84 50 -84 144q0 110 106 203q-68 -7 -122 -7q-631 0 -631 646v4v931h264v-952v-4q0 -410 367 -410q364 0 364 414v952z" />
    <glyph glyph-name="uogonek" unicode="&#x173;" horiz-adv-x="1251" 
d="M1104 0l-6 4q-178 -70 -178 -166q0 -39 30 -57q32 -19 86 -19h60v-170h-88q-145 0 -228 50q-82 49 -82 143q0 69 37 121q35 49 109 98v219q-41 -110 -125 -176q-85 -67 -217 -67q-123 0 -205 55q-83 56 -123 153q-41 100 -41 226v4v688h256v-641v-4q0 -150 60 -225
q59 -74 169 -74q111 0 170 74q60 75 60 227v641h256v-1104z" />
    <glyph glyph-name="Wcircumflex" unicode="&#x174;" horiz-adv-x="2332" 
d="M1690 31l338 1525h266l-348 -1556h-512l-267 1528l-268 -1528h-512l-348 1556h266l336 -1519l272 1519h506zM1337 1962l258 -283h-239l-191 168l-190 -168h-240l258 283h344z" />
    <glyph glyph-name="wcircumflex" unicode="&#x175;" horiz-adv-x="1851" 
d="M1337 27l230 1077h239l-237 -1104h-463l-180 1079l-181 -1079h-462l-238 1104h240l229 -1077l184 1077h455zM1090 1556l262 -315h-230l-196 203l-197 -203h-229l260 315h330z" />
    <glyph glyph-name="Ycircumflex" unicode="&#x176;" horiz-adv-x="1413" 
d="M1124 1556h301l-587 -907v-649h-263v649l-587 907h299l420 -655zM877 1962l258 -283h-240l-190 168l-191 -168h-240l258 283h345z" />
    <glyph glyph-name="ycircumflex" unicode="&#x177;" horiz-adv-x="1187" 
d="M602 156l295 948h268l-473 -1505h-264l162 520h-228l-354 985h258zM745 1556l263 -315h-230l-196 203l-197 -203h-229l260 315h329z" />
    <glyph glyph-name="Ydieresis" unicode="&#x178;" horiz-adv-x="1413" 
d="M1124 1556h301l-587 -907v-649h-263v649l-587 907h299l420 -655zM618 1679h-276v283h276v-283zM1071 1679h-276v283h276v-283z" />
    <glyph glyph-name="Zacute" unicode="&#x179;" horiz-adv-x="1425" 
d="M1323 1260l-950 -1033h989v-227h-1280v297l950 1032h-936v227h1227v-296zM797 1679h-252l248 283h364z" />
    <glyph glyph-name="zacute" unicode="&#x17a;" horiz-adv-x="1093" 
d="M991 856l-629 -666h668v-190h-946v250l629 665h-617v189h895v-248zM641 1241h-238l234 315h348z" />
    <glyph glyph-name="Zdotaccent" unicode="&#x17b;" horiz-adv-x="1425" 
d="M1323 1260l-950 -1033h989v-227h-1280v297l950 1032h-936v227h1227v-296zM846 1679h-277v283h277v-283z" />
    <glyph glyph-name="zdotaccent" unicode="&#x17c;" horiz-adv-x="1093" 
d="M991 856l-629 -666h668v-190h-946v250l629 665h-617v189h895v-248zM676 1274h-268v282h268v-282z" />
    <glyph glyph-name="Zcaron" unicode="&#x17d;" horiz-adv-x="1425" 
d="M1323 1260l-950 -1033h989v-227h-1280v297l950 1032h-936v227h1227v-296zM709 1796l190 166h240l-258 -283h-344l-258 283h239z" />
    <glyph glyph-name="zcaron" unicode="&#x17e;" horiz-adv-x="1093" 
d="M991 856l-629 -666h668v-190h-946v250l629 665h-617v189h895v-248zM543 1356l196 200h230l-262 -315h-330l-260 315h229z" />
    <glyph glyph-name="uni018F" unicode="&#x18f;" horiz-adv-x="1685" 
d="M1221 1483l2 -2q176 -99 274 -279t98 -426t-100 -424q-102 -182 -276 -280q-175 -99 -388 -99q-223 0 -393 111q-169 111 -258 305q-90 197 -90 442v58h1231q-18 159 -88 266q-71 108 -174 160q-102 51 -228 51q-152 0 -264 -74q-108 -71 -161 -205h-277q48 160 145 269
t240 168q137 57 317 57q216 0 390 -98zM1057 238l-4 -2q107 54 176 159q72 111 90 267h-954q15 -131 77 -240q61 -107 164 -172q101 -64 228 -64q119 0 223 52z" />
    <glyph glyph-name="florin" unicode="&#x192;" horiz-adv-x="1193" 
d="M999 1346h-2q-96 0 -149 -50q-54 -50 -68 -149l-30 -197h307v-211h-338l-57 -372q-27 -185 -136 -277t-301 -92h-164v211h127q100 0 152 49q53 50 68 150l49 333h-277v211h309l35 236q55 368 441 368h161v-210h-127z" />
    <glyph glyph-name="uni019D" unicode="&#x19d;" horiz-adv-x="1746" 
d="M1313 1556h266v-1556h-526l-609 1526v-1526h-10v-74q0 -159 -96 -243t-281 -84h-202v208h163q86 0 123 37t37 117v1595h527l608 -1525v1525z" />
    <glyph glyph-name="uni01B5" unicode="&#x1b5;" horiz-adv-x="1458" 
d="M801 676l-414 -449h989v-227h-1280v297l381 414h-344v209h537l377 409h-936v227h1226v-296l-342 -373h344v-211h-538z" />
    <glyph glyph-name="uni01B6" unicode="&#x1b6;" horiz-adv-x="1116" 
d="M633 469l-264 -279h669v-190h-948v250l232 246h-195v174h358l234 245h-617v189h895v-248l-200 -213h227v-174h-391z" />
    <glyph glyph-name="uni01E2" unicode="&#x1e2;" horiz-adv-x="2113" 
d="M1348 686l159 -459h496v-227h-696l-150 446h-727l-149 -446h-279l539 1556h1444v-227h-861l146 -416h700v-227h-622zM795 1524l-289 -852h575zM1544 1722h-813v199h813v-199z" />
    <glyph glyph-name="uni01E3" unicode="&#x1e3;" horiz-adv-x="1996" 
d="M1911 477l-828 -2q15 -153 91 -239q73 -82 194 -82q102 0 160 43q56 42 92 127h258q-50 -176 -182 -265q-131 -88 -330 -88q-155 0 -270 68q-114 67 -172 184q-53 -115 -168 -184q-116 -70 -273 -70q-119 0 -211 47q-90 46 -143 123q-51 74 -51 172q0 181 135 260
q136 80 379 80h235v58v4q0 63 -24 116q-25 55 -76 84q-54 31 -125 31q-66 0 -115 -24q-51 -25 -77 -64q-30 -44 -35 -86h-258q12 106 78 188q66 81 167 123q104 43 234 43q145 0 240 -53q94 -53 141 -135q138 190 395 190q165 0 285 -69q123 -70 190 -199q68 -130 68 -299
q0 -4 -4 -82zM1178 872q-74 -74 -95 -219h555q-6 91 -43 154q-37 65 -96 102q-58 37 -135 37q-112 0 -186 -74zM748 236l2 -5q70 82 73 240h-192q-146 0 -221 -37q-76 -37 -76 -121q0 -75 55 -118t152 -43q135 0 207 84zM1354 1292h-746v187h746v-187z" />
    <glyph glyph-name="Gcaron" unicode="&#x1e6;" horiz-adv-x="1708" 
d="M782 858l787 4v-858h-223v383q-35 -114 -101 -203q-67 -90 -178 -149q-110 -58 -260 -58q-197 0 -361 99q-160 97 -260 280q-98 180 -98 422q0 234 96 418q94 181 267 283q169 100 391 100q184 0 327 -61q147 -63 240 -175q97 -116 139 -276h-276q-49 137 -158 217
t-270 80q-143 0 -252 -74q-106 -72 -166 -207q-59 -133 -59 -307q0 -176 61 -307q63 -135 172 -207q112 -74 256 -74q129 0 234 54q101 52 159 153q59 103 62 244h-529v219zM840 1800l190 166h240l-258 -283h-344l-258 283h239z" />
    <glyph glyph-name="gcaron" unicode="&#x1e7;" horiz-adv-x="1325" 
d="M930 1104l266 -4v-1096q0 -148 -74 -248q-72 -96 -192 -143q-116 -45 -258 -45q-133 0 -248 41q-112 40 -186 123q-73 82 -88 202h258q15 -87 86 -137q70 -49 172 -49q71 0 137 29q60 26 96 84q35 56 35 137v258q-30 -73 -88 -131t-135 -88q-79 -31 -160 -31
q-136 0 -240 70q-107 72 -164 198q-59 130 -59 295q0 166 59 293q59 126 164 197q103 69 238 69q99 0 172 -36q78 -38 129 -101q53 -66 80 -141v254zM874 285v-2q78 104 78 282q0 175 -78 279q-75 100 -219 100q-141 0 -217 -98t-76 -279t76 -282t217 -101q143 0 219 101z
M659 1350l197 200h229l-262 -315h-329l-261 315h230z" />
    <glyph glyph-name="uni01EA" unicode="&#x1ea;" horiz-adv-x="1703" 
d="M1133 -37l-5 2q-36 -53 -36 -110q0 -47 30 -68q33 -23 84 -23h62v-174h-90q-145 0 -228 50q-84 50 -84 143q0 113 109 205q-49 -8 -125 -8q-226 0 -395 100q-177 104 -269 282q-96 184 -96 418t96 418q93 179 269 283q169 100 395 100t395 -100q174 -103 268 -283
q97 -186 97 -418q0 -229 -92 -411t-254 -283q-93 -66 -131 -123zM422 471q63 -135 172 -207q112 -74 254 -74t254 74q109 72 172 207q61 131 61 307t-61 307q-63 135 -172 207q-112 74 -254 74t-254 -74q-109 -72 -172 -207q-62 -133 -62 -307t62 -307z" />
    <glyph glyph-name="uni01EB" unicode="&#x1eb;" horiz-adv-x="1273" 
d="M850 -53l-2 -4q-35 -53 -35 -105q0 -86 119 -86h61v-170h-90q-145 0 -227 49t-82 144q0 108 104 196q-14 -2 -63 -2q-168 0 -295 74q-126 73 -193 205q-67 131 -67 301q0 171 67 299t195 203q125 73 295 73t295 -73q126 -74 194 -203q68 -130 68 -299q0 -161 -57 -281
q-58 -121 -166 -198q-88 -72 -121 -123zM375 336l-4 -4q34 -87 102 -137t160 -50q94 0 162 50q65 48 100 137q35 90 35 213q0 124 -33 209q-35 89 -100 137q-67 49 -162 49q-93 0 -160 -49q-65 -48 -100 -137q-35 -90 -35 -209t35 -209z" />
    <glyph glyph-name="AEacute" unicode="&#x1fc;" horiz-adv-x="2113" 
d="M1348 686l159 -459h496v-227h-696l-150 446h-727l-149 -446h-279l539 1556h1444v-227h-861l146 -416h700v-227h-622zM795 1524l-289 -852h575zM1225 1679h-252l248 283h364z" />
    <glyph glyph-name="aeacute" unicode="&#x1fd;" horiz-adv-x="1996" 
d="M1911 477l-828 -2q15 -153 91 -239q73 -82 194 -82q102 0 160 43q56 42 92 127h258q-50 -176 -182 -265q-131 -88 -330 -88q-155 0 -270 68q-114 67 -172 184q-53 -115 -168 -184q-116 -70 -273 -70q-119 0 -211 47q-90 46 -143 123q-51 74 -51 172q0 181 135 260
q136 80 379 80h235v58v4q0 63 -24 116q-25 55 -76 84q-54 31 -125 31q-66 0 -115 -24q-51 -25 -77 -64q-30 -44 -35 -86h-258q12 106 78 188q66 81 167 123q104 43 234 43q145 0 240 -53q94 -53 141 -135q138 190 395 190q165 0 285 -69q123 -70 190 -199q68 -130 68 -299
q0 -4 -4 -82zM1178 872q-74 -74 -95 -219h555q-6 91 -43 154q-37 65 -96 102q-58 37 -135 37q-112 0 -186 -74zM748 236l2 -5q70 82 73 240h-192q-146 0 -221 -37q-76 -37 -76 -121q0 -75 55 -118t152 -43q135 0 207 84zM1079 1233h-237l233 315h348z" />
    <glyph glyph-name="Oslashacute" unicode="&#x1fe;" horiz-adv-x="1703" 
d="M1755 1556l-278 -292q63 -96 98 -222q35 -125 35 -264q0 -232 -97 -418q-93 -178 -268 -282q-171 -101 -395 -101q-137 0 -252 37q-114 36 -211 109l-115 -121h-325l278 293q-64 101 -98 223q-35 125 -35 262q0 234 96 418q93 179 269 283q169 100 395 100q137 0 252 -37
q116 -37 211 -108l115 120h325zM418 494l729 766q-57 51 -133 79q-74 27 -160 27q-142 0 -254 -74q-109 -72 -172 -207q-61 -131 -61 -307q0 -159 51 -284zM1286 1061l-733 -764q125 -107 297 -107q142 0 254 74q109 72 172 207q61 131 61 307q0 161 -51 283zM938 1679h-252
l248 283h364z" />
    <glyph glyph-name="oslashacute" unicode="&#x1ff;" horiz-adv-x="1273" 
d="M1298 1104l-200 -205q94 -143 94 -344q0 -168 -68 -301q-67 -131 -194 -205t-295 -74q-186 0 -326 93l-65 -68h-269l199 207q-45 68 -70 158q-24 86 -24 188q0 171 67 299t195 203q125 73 295 73q194 0 328 -94l65 70h268zM356 401l461 484q-71 65 -182 65
q-93 0 -160 -49q-65 -48 -100 -137q-35 -90 -35 -209q0 -72 16 -154zM913 705l-458 -482q71 -65 178 -65q95 0 162 49q65 48 100 137q35 90 35 213q0 68 -17 148zM735 1243h-237l233 316h348z" />
    <glyph glyph-name="uni0218" unicode="&#x218;" horiz-adv-x="1439" 
d="M397 35l-2 -8q-137 63 -221 174q-85 113 -106 266h274q18 -137 117 -211q100 -74 246 -74q118 0 206 31q86 30 133 86q46 55 46 127t-37 115t-107 67q-96 33 -198 54l-209 45q-202 44 -314 147t-112 276q0 125 77 228q76 101 209 160t295 59q176 0 307 -55
q132 -55 211 -154q83 -103 103 -227h-275q-35 114 -122 166q-89 53 -222 53q-84 0 -161 -25q-73 -24 -117 -71q-43 -46 -43 -109q0 -62 31 -104q30 -41 98 -68q74 -29 190 -55l207 -45q160 -35 254 -88q98 -55 148 -138q49 -82 49 -202q0 -142 -80 -254q-77 -108 -228 -168
t-342 -60q-169 0 -305 62zM612 -418v283h277v-305l-127 -185h-168l104 207h-86z" />
    <glyph glyph-name="uni0219" unicode="&#x219;" horiz-adv-x="1126" 
d="M324 14l-9 -4q-106 41 -172 119q-67 79 -82 195h258q18 -89 84 -131q62 -39 154 -39q117 0 176 36q62 38 62 103q0 43 -19 72q-19 28 -65 49q-51 23 -125 37l-174 38q-157 35 -240 109q-82 73 -82 195q0 97 62 174q61 76 165 116q106 41 232 41q121 0 219 -34
q97 -34 166 -103q70 -70 90 -168h-258q-21 58 -82 92q-62 35 -137 35q-89 0 -150 -37t-61 -94q0 -36 22 -61q21 -24 64 -39q51 -17 117 -31l174 -37q173 -37 252 -117q79 -79 79 -211q0 -107 -61 -186q-61 -78 -172 -119q-112 -41 -252 -41q-129 0 -235 41zM438 -414v283
h269v-305l-127 -185h-160l104 207h-86z" />
    <glyph glyph-name="uni021A" unicode="&#x21a;" horiz-adv-x="1337" 
d="M35 1556h1268v-227h-502v-1329h-264v1329h-502v227zM530 -408v283h277v-305l-127 -184h-168l104 206h-86z" />
    <glyph glyph-name="uni021B" unicode="&#x21b;" horiz-adv-x="823" 
d="M768 190v-190h-160q-102 0 -186 35q-83 35 -129 104q-47 71 -47 176v4v596h-217v189h217v262h256v-262h262v-189h-262v-583v-4q0 -77 37 -107q39 -31 112 -31h117zM338 -408v283h268v-305l-127 -184h-160l105 206h-86z" />
    <glyph glyph-name="uni022E" unicode="&#x22e;" horiz-adv-x="1703" 
d="M457 76q-177 104 -269 282q-96 184 -96 418t96 418q93 179 269 283q169 100 395 100t395 -100q176 -104 269 -283q96 -184 96 -418t-96 -418q-92 -178 -269 -282q-171 -101 -395 -101t-395 101zM1106 264q109 72 172 207q61 131 61 307t-61 307q-63 135 -172 207
q-112 74 -254 74t-254 -74q-109 -72 -172 -207q-61 -131 -61 -307t61 -307q63 -135 172 -207q112 -74 254 -74t254 74zM989 1679h-276v283h276v-283z" />
    <glyph glyph-name="uni022F" unicode="&#x22f;" horiz-adv-x="1273" 
d="M342 47h-2q-126 73 -193 205q-67 131 -67 301q0 171 67 299t195 203q125 73 295 73t295 -73q126 -74 194 -203q68 -130 68 -299q0 -168 -68 -301q-67 -131 -194 -205t-295 -74t-295 74zM795 203l-4 -4q65 48 100 137q35 90 35 213q0 124 -33 209q-35 89 -100 137
q-67 49 -162 49q-93 0 -160 -49q-65 -48 -100 -137q-35 -90 -35 -209t35 -209q34 -87 102 -137q67 -49 160 -49q95 0 162 49zM764 1268h-268v282h268v-282z" />
    <glyph glyph-name="uni0232" unicode="&#x232;" horiz-adv-x="1413" 
d="M1124 1556h301l-587 -907v-649h-263v649l-587 907h299l420 -655zM1112 1722h-813v199h813v-199z" />
    <glyph glyph-name="uni0233" unicode="&#x233;" horiz-adv-x="1187" 
d="M602 156l295 948h268l-473 -1505h-264l162 520h-228l-354 985h258zM954 1300h-745v187h745v-187z" />
    <glyph glyph-name="uni0237" unicode="&#x237;" horiz-adv-x="548" 
d="M-57 -401l-2 190h53q73 0 112 31q37 30 37 110v1174h256v-1186q0 -107 -45 -178q-45 -72 -127 -107q-78 -34 -186 -34h-98z" />
    <glyph glyph-name="uni0259" unicode="&#x259;" horiz-adv-x="1243" 
d="M907 1055l8 2q125 -75 189 -205q65 -133 65 -301q0 -170 -67 -301t-191 -205t-286 -74q-159 0 -285 72q-121 69 -190 201q-68 130 -68 299q0 39 6 82h815q-15 156 -92 239q-76 82 -197 82q-101 0 -159 -43q-60 -45 -90 -127h-261q52 175 185 264q131 88 329 88
q167 0 289 -73zM813 231h-6q72 72 94 220h-557q6 -91 43 -154q38 -65 98 -102q61 -37 140 -37q115 0 188 73z" />
    <glyph glyph-name="uni0272" unicode="&#x272;" horiz-adv-x="1259" 
d="M956 1071l2 -4q84 -57 127 -154q43 -98 43 -223v-4v-690h-256v641v4q0 154 -61 227q-62 74 -174 74q-111 0 -172 -76q-62 -77 -62 -229v-721q0 -161 -98 -240t-262 -79h-98v190h53q74 0 113 31q36 29 36 110v1174h254v-225q43 109 129 180q84 69 220 69q124 0 206 -55z
" />
    <glyph glyph-name="circumflex" unicode="&#x2c6;" horiz-adv-x="946" 
d="M637 1556l262 -315h-229l-197 203l-197 -203h-229l260 315h330z" />
    <glyph glyph-name="caron" unicode="&#x2c7;" horiz-adv-x="946" 
d="M473 1356l197 200h229l-262 -315h-330l-260 315h229z" />
    <glyph glyph-name="breve" unicode="&#x2d8;" horiz-adv-x="792" 
d="M211 1276h4q-79 44 -123 117q-43 73 -43 163h193q0 -77 41 -118q39 -39 116 -39q74 0 115 41t41 116h195q0 -90 -43 -163t-123 -117q-79 -43 -187 -43q-107 0 -186 43z" />
    <glyph glyph-name="dotaccent" unicode="&#x2d9;" horiz-adv-x="362" 
d="M315 1274h-268v282h268v-282z" />
    <glyph glyph-name="ring" unicode="&#x2da;" horiz-adv-x="573" 
d="M166 1266v-4q-56 35 -86 90q-31 57 -31 121q0 63 31 120q30 56 86 86q57 31 121 31t121 -31q52 -28 88 -86q32 -51 32 -118q0 -70 -32 -121q-34 -54 -88 -88q-53 -33 -121 -33t-121 33zM352 1405h-4q29 29 29 68q0 40 -27 67t-67 27q-41 0 -68 -27t-27 -67q0 -39 29 -68
t68 -29q38 0 67 29z" />
    <glyph glyph-name="ogonek" unicode="&#x2db;" horiz-adv-x="493" 
d="M358 -412q-144 0 -227 50q-82 49 -82 143q0 69 37 121q35 49 109 98h254q-179 -71 -179 -166q0 -38 31 -57q32 -19 86 -19h59v-170h-88z" />
    <glyph glyph-name="tilde" unicode="&#x2dc;" horiz-adv-x="776" 
d="M47 1278h-4q3 125 57 188q57 66 144 66q40 0 78 -12q26 -8 77 -31q62 -33 121 -33q49 0 82 23q32 23 41 61h86q-3 -125 -57 -188q-57 -66 -144 -66q-72 0 -155 45q-70 33 -119 33t-80 -25q-32 -25 -43 -61h-84z" />
    <glyph glyph-name="hungarumlaut" unicode="&#x2dd;" horiz-adv-x="1071" 
d="M272 1241h-225l240 315h319zM690 1241h-225l240 315h319z" />
    <glyph glyph-name="gravecomb" unicode="&#x300;" horiz-adv-x="0" 
d="M-47 1241h-238l-344 315h348z" />
    <glyph glyph-name="acutecomb" unicode="&#x301;" horiz-adv-x="0" 
d="M-391 1241h-238l234 315h348z" />
    <glyph glyph-name="uni0302" unicode="&#x302;" horiz-adv-x="0" 
d="M-309 1556l262 -315h-229l-197 203l-197 -203h-229l260 315h330z" />
    <glyph glyph-name="tildecomb" unicode="&#x303;" horiz-adv-x="0" 
d="M-729 1278h-4q3 125 57 188q57 66 144 66q40 0 77 -12q29 -9 78 -31q62 -33 121 -33q49 0 82 23q32 23 41 61h86q-3 -125 -57 -188q-57 -66 -144 -66q-72 0 -155 45q-70 33 -119 33t-80 -25q-32 -25 -43 -61h-84z" />
    <glyph glyph-name="uni0304" unicode="&#x304;" horiz-adv-x="0" 
d="M-45 1300h-746v187h746v-187z" />
    <glyph glyph-name="uni0306" unicode="&#x306;" horiz-adv-x="0" 
d="M-582 1276h4q-78 43 -122 117q-43 73 -43 163h192q0 -77 41 -118q39 -39 117 -39q73 0 114 41t41 116h195q0 -90 -43 -163q-44 -73 -123 -117q-79 -43 -186 -43q-108 0 -187 43z" />
    <glyph glyph-name="uni0307" unicode="&#x307;" horiz-adv-x="0" 
d="M-47 1274h-268v282h268v-282z" />
    <glyph glyph-name="uni0308" unicode="&#x308;" horiz-adv-x="0" 
d="M-500 1274h-268v282h268v-282zM-47 1274h-268v282h268v-282z" />
    <glyph glyph-name="uni030A" unicode="&#x30a;" horiz-adv-x="0" 
d="M-408 1266v-4q-56 35 -86 90q-30 56 -30 121t30 120q30 56 86 86q57 31 121 31t121 -31q52 -28 88 -86q33 -53 33 -118q0 -68 -33 -121q-34 -54 -88 -88q-53 -33 -121 -33t-121 33zM-221 1405h-4q28 28 28 68q0 41 -26 67q-27 27 -68 27q-40 0 -67 -27t-27 -67
q0 -39 29 -68t67 -29q39 0 68 29z" />
    <glyph glyph-name="uni030B" unicode="&#x30b;" horiz-adv-x="0" 
d="M-799 1241h-225l240 315h319zM-381 1241h-225l239 315h320z" />
    <glyph glyph-name="uni030C" unicode="&#x30c;" horiz-adv-x="0" 
d="M-473 1356l197 200h229l-262 -315h-330l-260 315h229z" />
    <glyph glyph-name="uni0312" unicode="&#x312;" horiz-adv-x="0" 
d="M-190 1765h161l-104 -206h86v-283h-268v305z" />
    <glyph glyph-name="dotbelowcomb" unicode="&#x323;" horiz-adv-x="0" 
d="M-47 -408h-268v283h268v-283z" />
    <glyph glyph-name="uni0326" unicode="&#x326;" horiz-adv-x="0" 
d="M-315 -408v283h268v-305l-127 -184h-160l105 206h-86z" />
    <glyph glyph-name="uni0327" unicode="&#x327;" horiz-adv-x="0" 
d="M-209 -70v2q73 -9 119 -55q45 -45 45 -117q0 -77 -57 -125q-58 -49 -154 -49h-127v129h90q41 0 62 15q20 14 20 45q0 29 -20 43q-22 16 -52 16h-67v166h141v-70z" />
    <glyph glyph-name="uni0328" unicode="&#x328;" horiz-adv-x="0" 
d="M-135 -412q-144 0 -227 50q-82 49 -82 143q0 71 36 121q35 49 109 98h254q-178 -70 -178 -166q0 -39 30 -57q32 -19 87 -19h59v-170h-88z" />
    <glyph glyph-name="uni0335" unicode="&#x335;" horiz-adv-x="0" 
d="M-686 1239h-571v176h571v-176z" />
    <glyph glyph-name="uni0336" unicode="&#x336;" horiz-adv-x="0" 
d="M-47 1106h-1630v205h1630v-205z" />
    <glyph glyph-name="uni0337" unicode="&#x337;" horiz-adv-x="0" 
d="M-45 854l-559 -356v225l559 356v-225z" />
    <glyph glyph-name="uni0338" unicode="&#x338;" horiz-adv-x="0" 
d="M-1087 0h-269l1053 1104h268z" />
    <glyph glyph-name="uni0394" unicode="&#x394;" horiz-adv-x="1583" 
d="M1044 1556l539 -1556h-1583l539 1556h505zM1229 227l-436 1297l-439 -1297h875z" />
    <glyph glyph-name="uni03A9" unicode="&#x3a9;" horiz-adv-x="1728" 
d="M1565 627l-9 -9q-58 -115 -172 -210q-126 -105 -288 -189h508v-227h-656v297q199 132 299 274q99 141 99 305q0 159 -64 269q-65 111 -174 166q-110 55 -250 55q-138 0 -248 -55q-109 -55 -174 -166q-63 -108 -63 -267q0 -165 98 -305q102 -145 297 -274v-297h-653v227
h506q-164 86 -289 189q-112 93 -172 213t-60 260q0 214 103 372q104 159 274 240q176 84 385 84q214 0 385 -82q172 -82 275 -240q102 -156 102 -370q0 -142 -59 -260z" />
    <glyph glyph-name="uni03BC" unicode="&#x3bc;" horiz-adv-x="1341" 
d="M1300 190l-4 -188h-106q-144 0 -221 41q-78 42 -105 139l-6 43q-41 -111 -125 -178q-85 -67 -217 -67q-56 0 -117 22v-399h-256v1505h256v-641v-4q0 -150 60 -225q59 -74 170 -74q113 0 172 74t59 227v641h256v-801v-4q0 -60 29 -86q28 -25 96 -25h59z" />
    <glyph glyph-name="pi" unicode="&#x3c0;" horiz-adv-x="1392" 
d="M1112 915v-585v-4q0 -77 37 -107q39 -31 115 -31h47v-190h-92q-103 0 -187 35q-83 35 -129 104q-47 71 -47 176v4v598h-364v-915h-256v915h-199v189h1274v-189h-199z" />
    <glyph glyph-name="uni0E3F" unicode="&#xe3f;" horiz-adv-x="1429" 
d="M1194 137l-4 -6q-129 -108 -365 -129v-274h-247v268h-392v1556h392v258h247v-264q153 -15 252 -69t150 -142q49 -85 49 -186q0 -110 -51 -184q-51 -75 -138 -119q-84 -43 -194 -55q116 -6 217 -50q97 -43 156 -123q57 -77 57 -192q0 -181 -129 -289zM973 1235v-4
q-38 54 -101 80q-62 26 -149 26h-274v-450h274q132 0 209 59q78 60 78 166q0 71 -37 123zM713 197l-4 2q160 0 249 65q91 66 91 178q0 115 -88 179q-89 65 -248 65h-267v-489h267z" />
    <glyph glyph-name="Wgrave" unicode="&#x1e80;" horiz-adv-x="2332" 
d="M1690 31l338 1525h266l-348 -1556h-512l-267 1528l-268 -1528h-512l-348 1556h266l336 -1519l272 1519h506zM1298 1679h-254l-358 283h363z" />
    <glyph glyph-name="wgrave" unicode="&#x1e81;" horiz-adv-x="1851" 
d="M1337 27l230 1077h239l-237 -1104h-463l-180 1079l-181 -1079h-462l-238 1104h240l229 -1077l184 1077h455zM1036 1241h-237l-344 315h348z" />
    <glyph glyph-name="Wacute" unicode="&#x1e82;" horiz-adv-x="2332" 
d="M1690 31l338 1525h266l-348 -1556h-512l-267 1528l-268 -1528h-512l-348 1556h266l336 -1519l272 1519h506zM1280 1679h-252l248 283h364z" />
    <glyph glyph-name="wacute" unicode="&#x1e83;" horiz-adv-x="1851" 
d="M1337 27l230 1077h239l-237 -1104h-463l-180 1079l-181 -1079h-462l-238 1104h240l229 -1077l184 1077h455zM1044 1241h-237l233 315h349z" />
    <glyph glyph-name="Wdieresis" unicode="&#x1e84;" horiz-adv-x="2332" 
d="M1690 31l338 1525h266l-348 -1556h-512l-267 1528l-268 -1528h-512l-348 1556h266l336 -1519l272 1519h506zM1079 1679h-276v283h276v-283zM1532 1679h-277v283h277v-283z" />
    <glyph glyph-name="wdieresis" unicode="&#x1e85;" horiz-adv-x="1851" 
d="M1337 27l230 1077h239l-237 -1104h-463l-180 1079l-181 -1079h-462l-238 1104h240l229 -1077l184 1077h455zM831 1274h-268v282h268v-282zM1284 1274h-268v282h268v-282z" />
    <glyph glyph-name="uni1E9E" unicode="&#x1e9e;" horiz-adv-x="1587" 
d="M1022 926l-8 -11q138 -12 248 -67q109 -55 174 -154q65 -100 65 -235q0 -153 -69 -262t-193 -168q-122 -58 -281 -58q-78 0 -145 13q-61 12 -129 36v207q62 -23 111 -34q60 -13 127 -13q91 0 163 35q71 35 111 98q39 62 39 150q0 95 -53 160q-53 66 -146 96
q-95 31 -207 31h-59v231l332 348h-660v-1329h-264v1556h1182v-276z" />
    <glyph glyph-name="uni1EA0" unicode="&#x1ea0;" horiz-adv-x="1587" 
d="M1585 0h-278l-150 446h-727l-149 -446h-279l539 1556h506zM795 1524l-289 -852h575zM930 -408h-277v283h277v-283z" />
    <glyph glyph-name="uni1EA1" unicode="&#x1ea1;" horiz-adv-x="1226" 
d="M883 1071l-9 -4q106 -58 160 -154q51 -92 51 -213v-4v-700h-254v219q-38 -80 -83 -131q-46 -52 -117 -82q-73 -31 -172 -31q-105 0 -191 47q-86 46 -135 129q-49 82 -49 185q0 119 68 190q69 72 165 101q103 31 226 43l293 30v15v4q0 61 -25 116t-76 84q-54 31 -125 31
q-97 0 -155 -49t-70 -123h-258q12 108 78 189q63 78 170 122q104 43 237 43q166 0 271 -57zM705 176l-3 2q64 45 93 117q30 74 30 170v65l-198 -20q-85 -8 -150 -25q-59 -15 -98 -51q-41 -38 -41 -104q0 -58 29 -105q26 -42 77 -67q52 -25 109 -25q91 0 152 43zM756 -412
h-269v283h269v-283z" />
    <glyph glyph-name="uni1EB8" unicode="&#x1eb8;" horiz-adv-x="1349" 
d="M442 686v-459h797v-227h-1061v1556h1043v-227h-779v-416h764v-227h-764zM848 -408h-277v283h277v-283z" />
    <glyph glyph-name="uni1EB9" unicode="&#x1eb9;" horiz-adv-x="1243" 
d="M1157 477l-823 -6q15 -157 92 -240q75 -81 197 -81q101 0 159 43q61 45 90 126h261q-52 -175 -185 -264q-131 -88 -330 -88q-164 0 -288 74q-125 75 -189 205q-65 133 -65 301q0 170 67 301t191 205q122 73 287 73q164 0 284 -69q124 -71 191 -199t67 -299q0 -39 -6 -82z
M428 868h2q-73 -73 -94 -219h557q-6 91 -43 154q-38 65 -98 102q-61 37 -138 37q-112 0 -186 -74zM754 -414h-269v283h269v-283z" />
    <glyph glyph-name="uni1EBC" unicode="&#x1ebc;" horiz-adv-x="1349" 
d="M442 686v-459h797v-227h-1061v1556h1043v-227h-779v-416h764v-227h-764zM340 1700v-6q3 80 31 141q27 58 73 88q48 31 105 31q79 0 166 -41q31 -17 61 -25q31 -8 62 -8q46 0 80 21q33 20 45 55h92q-3 -76 -31 -137q-26 -57 -74 -88t-104 -31q-79 0 -166 43q-27 15 -62 24
q-42 11 -61 11q-45 0 -80 -21q-33 -20 -45 -57h-92z" />
    <glyph glyph-name="uni1EBD" unicode="&#x1ebd;" horiz-adv-x="1243" 
d="M1157 477l-823 -6q15 -157 92 -240q75 -81 197 -81q101 0 159 43q61 45 90 126h261q-52 -175 -185 -264q-131 -88 -330 -88q-164 0 -288 74q-125 75 -189 205q-65 133 -65 301q0 170 67 301t191 205q122 73 287 73q164 0 284 -69q124 -71 191 -199t67 -299q0 -39 -6 -82z
M428 868h2q-73 -73 -94 -219h557q-6 91 -43 154q-38 65 -98 102q-61 37 -138 37q-112 0 -186 -74zM274 1272h-4q3 124 58 188q57 66 143 66q37 0 78 -13q37 -12 78 -30q62 -33 121 -33q48 0 81 23t41 61h86q-3 -125 -57 -188q-57 -66 -143 -66q-73 0 -156 45q-70 33 -119 33
t-80 -25q-32 -25 -43 -61h-84z" />
    <glyph glyph-name="uni1ECA" unicode="&#x1eca;" horiz-adv-x="620" 
d="M442 0h-264v1556h264v-1556zM449 -408h-277v283h277v-283z" />
    <glyph glyph-name="uni1ECB" unicode="&#x1ecb;" horiz-adv-x="548" 
d="M401 0h-256v1104h256v-1104zM408 1274h-269v282h269v-282zM408 -408h-269v283h269v-283z" />
    <glyph glyph-name="uni1ECC" unicode="&#x1ecc;" horiz-adv-x="1703" 
d="M457 76q-177 104 -269 282q-96 184 -96 418t96 418q93 179 269 283q169 100 395 100t395 -100q176 -104 269 -283q96 -184 96 -418t-96 -418q-92 -178 -269 -282q-171 -101 -395 -101t-395 101zM1106 264q109 72 172 207q61 131 61 307t-61 307q-63 135 -172 207
q-112 74 -254 74t-254 -74q-109 -72 -172 -207q-61 -131 -61 -307t61 -307q63 -135 172 -207q112 -74 254 -74t254 74zM989 -408h-276v283h276v-283z" />
    <glyph glyph-name="uni1ECD" unicode="&#x1ecd;" horiz-adv-x="1273" 
d="M342 47h-2q-126 73 -193 205q-67 131 -67 301q0 171 67 299t195 203q125 73 295 73t295 -73q126 -74 194 -203q68 -130 68 -299q0 -168 -68 -301q-67 -131 -194 -205t-295 -74t-295 74zM795 203l-4 -4q65 48 100 137q35 90 35 213q0 124 -33 209q-35 89 -100 137
q-67 49 -162 49q-93 0 -160 -49q-65 -48 -100 -137q-35 -90 -35 -209t35 -209q34 -87 102 -137q67 -49 160 -49q95 0 162 49zM764 -414h-268v283h268v-283z" />
    <glyph glyph-name="uni1EE4" unicode="&#x1ee4;" horiz-adv-x="1583" 
d="M162 621v2v931h264v-952v-4q0 -410 367 -410q364 0 364 414v952h264v-931q0 -314 -151 -482q-150 -166 -477 -166q-631 0 -631 646zM930 -410h-277v283h277v-283z" />
    <glyph glyph-name="uni1EE5" unicode="&#x1ee5;" horiz-adv-x="1251" 
d="M848 1104l250 4v-1104h-254v219q-41 -110 -125 -176q-85 -67 -217 -67q-123 0 -205 55q-83 56 -123 153q-41 100 -41 226v4v688h256v-641v-4q0 -150 60 -225q59 -74 169 -74q111 0 170 74q60 75 60 227v641zM758 -403h-269v282h269v-282z" />
    <glyph glyph-name="Ygrave" unicode="&#x1ef2;" horiz-adv-x="1413" 
d="M1124 1556h301l-587 -907v-649h-263v649l-587 907h299l420 -655zM870 1679h-254l-358 283h363z" />
    <glyph glyph-name="ygrave" unicode="&#x1ef3;" horiz-adv-x="1187" 
d="M602 156l295 948h268l-473 -1505h-264l162 520h-228l-354 985h258zM721 1241h-238l-344 315h348z" />
    <glyph glyph-name="uni1EF8" unicode="&#x1ef8;" horiz-adv-x="1413" 
d="M1124 1556h301l-587 -907v-649h-263v649l-587 907h299l420 -655zM346 1700v-6q3 80 31 141q26 57 74 88t104 31q79 0 166 -41q31 -17 61 -25q31 -8 62 -8q46 0 80 21q33 20 45 55h92q-3 -76 -31 -137q-26 -57 -74 -88t-104 -31q-79 0 -166 43q-27 15 -61 24
q-42 11 -62 11q-45 0 -80 -21q-33 -20 -45 -57h-92z" />
    <glyph glyph-name="uni1EF9" unicode="&#x1ef9;" horiz-adv-x="1187" 
d="M602 156l295 948h268l-473 -1505h-264l162 520h-228l-354 985h258zM240 1278h-4q3 125 57 188q57 66 143 66q40 0 78 -12q29 -9 78 -31q62 -33 121 -33q49 0 82 23t41 61h86q-3 -124 -58 -188q-57 -66 -143 -66q-73 0 -156 45q-70 33 -119 33q-48 0 -79 -25
q-32 -25 -43 -61h-84z" />
    <glyph glyph-name="uni2009" unicode="&#x2009;" horiz-adv-x="256" 
 />
    <glyph glyph-name="uni2011" unicode="&#x2011;" horiz-adv-x="917" 
d="M791 475h-662v213h662v-213z" />
    <glyph glyph-name="endash" unicode="&#x2013;" horiz-adv-x="1148" 
d="M1022 475h-893v213h893v-213z" />
    <glyph glyph-name="emdash" unicode="&#x2014;" horiz-adv-x="1755" 
d="M1628 475h-1499v213h1499v-213z" />
    <glyph glyph-name="quoteleft" unicode="&#x2018;" horiz-adv-x="528" 
d="M262 1556h172l-127 -278h92v-281h-288v310z" />
    <glyph glyph-name="quoteright" unicode="&#x2019;" horiz-adv-x="516" 
d="M135 1278v278h291v-309l-152 -248h-172l127 279h-94z" />
    <glyph glyph-name="quotesinglbase" unicode="&#x201a;" horiz-adv-x="577" 
d="M143 0v279h291v-310l-151 -248h-172l127 279h-95z" />
    <glyph glyph-name="quotedblleft" unicode="&#x201c;" horiz-adv-x="946" 
d="M92 1307l150 249h172l-125 -278h92v-281h-289v310zM662 1556h172l-127 -278h94v-281h-289v310z" />
    <glyph glyph-name="quotedblright" unicode="&#x201d;" horiz-adv-x="935" 
d="M573 1278v278h291v-309l-151 -248h-172l127 279h-95zM154 1278v278h290v-309l-151 -248h-172l127 279h-94z" />
    <glyph glyph-name="quotedblbase" unicode="&#x201e;" horiz-adv-x="997" 
d="M563 0v279h291v-310l-152 -248h-172l127 279h-94zM143 0v279h291v-310l-151 -248h-172l127 279h-95z" />
    <glyph glyph-name="dagger" unicode="&#x2020;" horiz-adv-x="1241" 
d="M748 1139h378v-207h-378v-932h-256v932h-377v207h377v417h256v-417z" />
    <glyph glyph-name="daggerdbl" unicode="&#x2021;" horiz-adv-x="1241" 
d="M1126 1139v-207h-378v-262h378v-209h-378v-461h-256v461h-377v209h377v262h-377v207h377v417h256v-417h378z" />
    <glyph glyph-name="bullet" unicode="&#x2022;" horiz-adv-x="909" 
d="M307 334l-2 -2q-68 41 -104 106q-37 67 -37 146q0 78 37 145t104 107q63 38 146 38q84 0 147 -38q67 -40 107 -107q38 -63 38 -143q0 -83 -38 -146q-39 -65 -107 -106q-65 -39 -147 -39q-79 0 -144 39z" />
    <glyph glyph-name="ellipsis" unicode="&#x2026;" horiz-adv-x="1734" 
d="M434 0h-291v279h291v-279zM1012 0h-291v279h291v-279zM1589 0h-291v279h291v-279z" />
    <glyph glyph-name="perthousand" unicode="&#x2030;" horiz-adv-x="2451" 
d="M692 811l-4 -2q-94 -113 -266 -113q-171 0 -266 115t-95 326q0 208 97 325q95 115 268 115q171 0 266 -115q94 -113 94 -325q0 -213 -94 -326zM399 -4l883 1556h240l-883 -1556h-240zM422 846q160 0 160 289q0 292 -160 292t-160 -292q0 -289 160 -289zM2288 739l-13 -4
q97 -117 97 -325q0 -211 -95 -326q-94 -113 -266 -113q-79 0 -147 35q-67 34 -113 98q-48 -63 -117 -98q-65 -33 -143 -33q-171 0 -266 115t-95 326q0 208 97 325q95 115 268 115q77 0 145 -35q69 -35 117 -98q45 62 115 98q68 35 147 35q174 0 269 -115zM1647 408
q0 290 -160 290q-80 0 -121 -71t-41 -219q0 -149 41 -220t121 -71q160 0 160 291zM2126 188h-4q41 71 41 220q0 151 -39 219q-41 71 -119 71q-160 0 -160 -290q0 -291 160 -291q80 0 121 71z" />
    <glyph glyph-name="minute" unicode="&#x2032;" horiz-adv-x="501" 
d="M297 983h-195l72 573h270z" />
    <glyph glyph-name="second" unicode="&#x2033;" horiz-adv-x="872" 
d="M297 983h-195l72 573h270zM666 983h-195l72 573h270z" />
    <glyph glyph-name="guilsinglleft" unicode="&#x2039;" horiz-adv-x="815" 
d="M424 1014h303l-334 -449l334 -471h-303l-334 471z" />
    <glyph glyph-name="guilsinglright" unicode="&#x203a;" horiz-adv-x="815" 
d="M86 1014h303l334 -449l-334 -471h-303l336 471z" />
    <glyph glyph-name="uni2042" unicode="&#x2042;" horiz-adv-x="1757" 
d="M1217 1386l51 -157l-250 -82l160 -217l-134 -99l-165 224l-164 -224l-135 99l161 217l-249 82l49 157l254 -81v251h168v-251zM735 551l51 -158l-249 -82l159 -217l-133 -98l-166 223l-164 -223l-135 98l162 217l-250 82l49 158l254 -82v252h168v-252zM1698 551l51 -158
l-250 -82l160 -217l-133 -98l-166 223l-164 -223l-135 98l162 217l-250 82l49 158l254 -82v252h168v-252z" />
    <glyph glyph-name="fraction" unicode="&#x2044;" horiz-adv-x="380" 
d="M-182 0h-232l975 1556h234z" />
    <glyph glyph-name="uni2070" unicode="&#x2070;" horiz-adv-x="765" 
d="M135 1085q-86 106 -86 301q0 196 86 302q85 104 246 104t246 -104q86 -106 86 -302q0 -195 -86 -301q-85 -104 -246 -104t-246 104zM522 1384q0 261 -141 261t-141 -261q0 -260 141 -260t141 260z" />
    <glyph glyph-name="uni2074" unicode="&#x2074;" horiz-adv-x="751" 
d="M606 1341h107v-149h-107v-195h-188v195h-385v188l217 396h356v-435zM418 1741l-217 -400h217v400z" />
    <glyph glyph-name="uni2075" unicode="&#x2075;" horiz-adv-x="749" 
d="M582 1499l2 -10q57 -29 92 -92q33 -59 33 -146q0 -86 -43 -147q-41 -59 -117 -94q-70 -33 -168 -33q-84 0 -160 31q-71 29 -119 86q-46 55 -55 133h195q9 -48 43 -74q37 -29 90 -29q59 0 96 37t37 96q0 63 -37 97q-38 35 -98 35q-42 0 -80 -23q-34 -20 -49 -59l-187 16
l39 451h555v-150h-379l-18 -215q20 51 74 86q53 35 123 35q71 0 131 -31z" />
    <glyph glyph-name="uni2076" unicode="&#x2076;" horiz-adv-x="765" 
d="M588 1485l-2 -2q61 -30 96 -92t35 -142q0 -78 -43 -139q-44 -62 -117 -96q-75 -35 -172 -35q-154 0 -246 102q-92 103 -92 301q0 139 43 226q45 91 119 133q76 43 174 43q133 0 213 -62q82 -63 102 -155h-194q-12 34 -39 55q-30 23 -74 23q-82 0 -123 -78
q-38 -72 -32 -195q21 62 77 103t133 41q78 0 142 -31zM483 1157l2 -4q37 34 37 90q0 58 -37 92q-38 35 -100 35q-40 0 -72 -16q-31 -15 -49 -43q-18 -27 -18 -62q0 -53 37 -90t102 -37q60 0 98 35z" />
    <glyph glyph-name="uni2077" unicode="&#x2077;" horiz-adv-x="610" 
d="M29 1626v150h553v-189l-295 -590h-232l340 629h-366z" />
    <glyph glyph-name="uni2078" unicode="&#x2078;" horiz-adv-x="772" 
d="M666 1343l-11 -10q62 -47 62 -131q0 -67 -43 -119t-119 -79q-82 -29 -178 -29t-178 29q-76 27 -119 79t-43 121q0 87 61 133q63 48 146 60q-76 18 -129 65q-52 46 -52 123q0 58 41 105q42 48 113 71q77 25 166 25q93 0 166 -25q71 -24 110 -69q41 -47 41 -105
q0 -78 -51 -123t-131 -63q88 -12 148 -58zM281 1610v-4q-33 -23 -33 -64q0 -38 31 -63t92 -25q58 0 94 25q33 23 33 65q0 43 -33 66q-34 24 -92 24q-57 0 -92 -24zM479 1139l4 -2q41 27 41 73q0 50 -43 74q-45 25 -106 25q-62 0 -107 -25q-43 -24 -43 -74q0 -46 43 -73
q44 -27 107 -27q61 0 104 29z" />
    <glyph glyph-name="uni2079" unicode="&#x2079;" horiz-adv-x="765" 
d="M623 1688l-7 -7q93 -104 93 -301q0 -138 -43 -225q-45 -91 -119 -133q-76 -43 -174 -43q-87 0 -154 31q-62 29 -104 80q-40 49 -52 108h193q11 -33 41 -57q27 -21 72 -21q82 0 123 78q38 72 32 195q-21 -62 -75 -101q-53 -39 -132 -39q-77 0 -141 31q-58 28 -94 92
q-33 59 -33 142q0 77 41 139q40 61 115 96t172 35q156 0 246 -100zM471 1423l-4 2q39 33 39 86q0 54 -37 91q-36 36 -102 36q-62 0 -99 -34t-37 -91q0 -58 37 -92q35 -32 103 -32q60 0 100 34z" />
    <glyph glyph-name="uni207A" unicode="&#x207a;" horiz-adv-x="671" 
d="M408 1446h208v-137h-208v-215h-144v215h-209v137h209v207h144v-207z" />
    <glyph glyph-name="uni207B" unicode="&#x207b;" horiz-adv-x="647" 
d="M573 1309h-499v137h499v-137z" />
    <glyph glyph-name="uni207C" unicode="&#x207c;" horiz-adv-x="675" 
d="M602 1421h-528v138h528v-138zM602 1196h-528v137h528v-137z" />
    <glyph glyph-name="uni207D" unicode="&#x207d;" horiz-adv-x="462" 
d="M231 893v2q-161 236 -161 494q0 142 43 258q45 120 116 225h191q-74 -108 -117 -225q-43 -116 -43 -261q0 -264 162 -493h-191z" />
    <glyph glyph-name="uni207E" unicode="&#x207e;" horiz-adv-x="464" 
d="M43 893l-2 -2q162 235 162 493q0 144 -43 263q-44 120 -117 225h188q73 -104 119 -223q45 -116 45 -265q0 -253 -164 -491h-188z" />
    <glyph glyph-name="uni2080" unicode="&#x2080;" horiz-adv-x="765" 
d="M135 -145q-86 106 -86 301t86 301q85 104 246 104t246 -104q86 -106 86 -301t-86 -301q-85 -105 -246 -105t-246 105zM522 154q0 260 -141 260t-141 -260t141 -260t141 260z" />
    <glyph glyph-name="uni2081" unicode="&#x2081;" horiz-adv-x="468" 
d="M229 545h146v-778h-189v518h-170v149h27q77 0 121 23q41 21 59 73z" />
    <glyph glyph-name="uni2082" unicode="&#x2082;" horiz-adv-x="722" 
d="M279 -84h397v-149h-629v188l344 260q48 41 60 57q18 24 18 58q0 37 -29 63q-28 25 -80 25q-54 0 -84 -27q-29 -26 -32 -74h-193q3 70 43 125q41 56 109 86q70 31 157 31q90 0 160 -31q68 -30 105 -82t37 -116q0 -72 -33 -125q-33 -54 -105 -107z" />
    <glyph glyph-name="uni2083" unicode="&#x2083;" horiz-adv-x="727" 
d="M616 115l5 -2q65 -47 65 -136q0 -111 -86 -170t-238 -59q-143 0 -227 66q-83 65 -92 178h193q3 -46 34 -74q30 -27 90 -27q52 0 95 29q39 26 39 74q0 54 -50 78t-118 24h-52v148h52q66 0 106 24q39 23 39 64q0 37 -31 59q-33 23 -80 23q-48 0 -79 -25q-30 -24 -33 -63
h-195q3 64 43 116q42 54 109 84q70 31 151 31q84 0 154 -25q67 -24 108 -71t41 -105q0 -86 -55 -129q-53 -42 -147 -57q95 -9 159 -55z" />
    <glyph glyph-name="uni2084" unicode="&#x2084;" horiz-adv-x="751" 
d="M606 111h107v-150h-107v-194h-188v194h-385v189l217 395h356v-434zM418 510l-217 -399h217v399z" />
    <glyph glyph-name="uni2085" unicode="&#x2085;" horiz-adv-x="749" 
d="M582 268l2 -10q57 -29 92 -92q33 -59 33 -146q0 -86 -43 -147q-41 -59 -117 -94q-70 -33 -168 -33q-84 0 -160 31q-71 29 -119 86q-46 55 -55 133h195q9 -48 43 -74q36 -28 90 -28q60 0 96 36q37 37 37 97q0 62 -37 96q-38 35 -98 35q-42 0 -80 -23q-34 -20 -49 -59
l-187 16l39 451h555v-150h-379l-18 -215q20 51 74 86q53 35 123 35q71 0 131 -31z" />
    <glyph glyph-name="uni2086" unicode="&#x2086;" horiz-adv-x="765" 
d="M588 254l-2 -2q61 -30 96 -92t35 -142q0 -78 -43 -139q-44 -61 -117 -96q-75 -35 -172 -35q-154 0 -246 102q-92 103 -92 302q0 138 43 225q45 91 119 133q76 43 174 43q134 0 213 -61q81 -63 102 -156h-194q-12 34 -39 55q-30 23 -74 23q-82 0 -123 -78
q-38 -72 -32 -195q21 62 77 103t133 41q78 0 142 -31zM483 -74l2 -4q37 34 37 90q0 58 -37 92q-38 35 -100 35q-40 0 -72 -16q-31 -15 -49 -43q-18 -27 -18 -62q0 -53 37 -90t102 -37q60 0 98 35z" />
    <glyph glyph-name="uni2087" unicode="&#x2087;" horiz-adv-x="610" 
d="M29 395v150h553v-189l-295 -589h-232l340 628h-366z" />
    <glyph glyph-name="uni2088" unicode="&#x2088;" horiz-adv-x="772" 
d="M666 113l-11 -11q62 -47 62 -131q0 -66 -43 -118q-44 -54 -119 -80q-82 -29 -178 -29t-178 29q-75 26 -119 80q-43 52 -43 120q0 87 61 133q63 48 146 60q-76 18 -129 65q-52 46 -52 123q0 58 41 105q42 48 113 71q77 25 166 25q93 0 166 -25q71 -24 110 -69
q41 -47 41 -105q0 -78 -51 -123t-131 -63q89 -13 148 -57zM281 379v-4q-33 -23 -33 -64q0 -38 31 -63t92 -25q58 0 94 25q33 23 33 65q0 43 -33 66q-34 24 -92 24q-57 0 -92 -24zM479 -92l4 -2q41 27 41 74q0 49 -43 73q-45 25 -106 25q-62 0 -107 -25q-43 -24 -43 -73
q0 -47 43 -74q44 -27 107 -27q61 0 104 29z" />
    <glyph glyph-name="uni2089" unicode="&#x2089;" horiz-adv-x="765" 
d="M623 457l-7 -6q93 -104 93 -301q0 -139 -43 -226q-45 -91 -119 -133q-76 -43 -174 -43q-87 0 -154 31q-62 29 -104 80q-40 49 -52 108h193q11 -33 41 -57q27 -21 72 -21q82 0 123 78q38 72 32 195q-21 -62 -75 -101q-52 -38 -132 -38q-79 0 -141 30q-58 28 -94 92
q-33 59 -33 142q0 77 41 139q40 61 115 96t172 35q156 0 246 -100zM471 193l-4 2q39 33 39 86t-37 90t-102 37q-61 0 -99 -35q-37 -34 -37 -90q0 -59 37 -93q35 -32 103 -32q59 0 100 35z" />
    <glyph glyph-name="uni208A" unicode="&#x208a;" horiz-adv-x="671" 
d="M408 215h208v-137h-208v-215h-144v215h-209v137h209v207h144v-207z" />
    <glyph glyph-name="uni208B" unicode="&#x208b;" horiz-adv-x="647" 
d="M573 78h-499v137h499v-137z" />
    <glyph glyph-name="uni208C" unicode="&#x208c;" horiz-adv-x="675" 
d="M602 190h-528v138h528v-138zM602 -35h-528v137h528v-137z" />
    <glyph glyph-name="uni208D" unicode="&#x208d;" horiz-adv-x="462" 
d="M229 -338v2q-161 236 -161 494q0 142 43 258q45 120 116 225h191q-74 -108 -117 -225q-43 -116 -43 -260q0 -265 162 -494h-191z" />
    <glyph glyph-name="uni208E" unicode="&#x208e;" horiz-adv-x="464" 
d="M43 -338l-2 -2q162 235 162 494q0 143 -43 262q-44 120 -117 225h188q73 -104 119 -223q45 -116 45 -264q0 -254 -164 -492h-188z" />
    <glyph glyph-name="uni20A9" unicode="&#x20a9;" horiz-adv-x="2045" 
d="M1960 1065v-199h-229l-21 -188h205v-197h-227l-54 -481h-438l-170 1538l-170 -1538h-438l-53 481h-234v197h211l-20 188h-238v199h215l-55 491h229l168 -1538l172 1538h426l172 -1538l168 1538h227l-55 -491h209z" />
    <glyph glyph-name="Euro" unicode="&#x20ac;" horiz-adv-x="1683" 
d="M1581 436l-4 -2q-48 -142 -131 -244q-84 -103 -205 -159t-264 -56q-156 0 -289 68q-129 66 -223 195q-91 125 -131 294h-258l65 183h166q-2 14 -2 65q0 52 2 66h-205l64 182h168q40 169 129 295q89 127 219 195q128 67 285 67q147 0 264 -57q125 -61 207 -162
q88 -108 133 -242h-266q-46 121 -136 193q-87 69 -198 69q-136 0 -230 -94q-95 -94 -135 -264h621l-64 -182h-581q-2 -14 -2 -68q0 -53 2 -67h534l-63 -183h-447q41 -171 139 -262q100 -92 236 -92q111 0 199 70q89 71 135 192h266z" />
    <glyph glyph-name="uni20B8" unicode="&#x20b8;" horiz-adv-x="1308" 
d="M66 1358v198h1177v-198h-1177zM524 1024h-458v199h1177v-199h-459v-1024h-260v1024z" />
    <glyph glyph-name="uni20B9" unicode="&#x20b9;" horiz-adv-x="1404" 
d="M1331 1358l-315 -2q54 -69 76 -158h241v-199h-241q-23 -109 -103 -192q-78 -81 -196 -121q-121 -41 -265 -41h-94l760 -645h-381l-682 588v268h397q106 0 179 37q74 38 104 108h-680v199h680q-27 71 -102 109q-73 37 -181 37h-397v210h1200v-198z" />
    <glyph glyph-name="uni20BA" unicode="&#x20ba;" horiz-adv-x="1423" 
d="M1341 649l-2 2q0 -338 -165 -493q-166 -156 -490 -156h-389v555l-172 -53v201l172 51v141l-172 -53v203l172 51v461h260v-381l424 127v-201l-424 -129v-139l424 127v-199l-424 -129v-422h113q212 0 313 104q100 103 100 332h260z" />
    <glyph glyph-name="uni20BD" unicode="&#x20bd;" horiz-adv-x="1509" 
d="M571 637v-133h392v-199h-392v-303h-262v303h-190v199h190v135h-190v199h190v721h473q304 0 471 -117q166 -117 166 -346q0 -230 -166 -344q-168 -115 -471 -115h-211zM571 1348v-510h222q360 0 360 254q0 256 -360 256h-222z" />
    <glyph glyph-name="uni20BF" unicode="&#x20bf;" horiz-adv-x="1427" 
d="M1231 172l-6 -4q-87 -100 -258 -141v-297h-224v268h-34h-91v-268h-223v268h-209v1556h209v258h223v-258h99h26v258h224v-290q158 -47 233 -144q78 -101 78 -227q0 -110 -51 -184q-52 -76 -137 -119q-84 -43 -195 -55q116 -6 217 -50q99 -44 154 -122q55 -79 55 -193
q0 -152 -90 -256zM446 1343l-2 -454h273q131 0 211 59t80 166q0 71 -37 123q-38 54 -101 80q-62 26 -151 26h-273zM711 201l-4 -2q105 0 182 30q76 30 117 86t41 131q0 114 -89 179t-247 65h-267v-489h267z" />
    <glyph glyph-name="uni2113" unicode="&#x2113;" horiz-adv-x="1089" 
d="M676 156v-4q114 0 235 86v-181q-72 -47 -141 -65q-74 -19 -147 -19q-175 0 -261 86t-86 250v4v47l-112 -73l-107 164l219 143v553q0 121 46 219q45 97 135 156q86 57 215 57q189 0 280 -98q92 -100 92 -271q0 -340 -415 -620l-97 -62v-227v-4q0 -141 144 -141zM604 1368
v-2q-35 -28 -53 -82q-19 -59 -19 -133v-387q265 212 265 442q0 96 -31 144q-29 45 -88 45q-40 0 -74 -27z" />
    <glyph glyph-name="uni2116" unicode="&#x2116;" horiz-adv-x="2615" 
d="M2367 1532l-2 -4q92 -52 140 -137q49 -88 49 -209q0 -117 -49 -205q-49 -87 -138 -137q-88 -49 -208 -49t-211 49q-92 50 -142 139q-49 88 -49 207t49 207q50 89 142 139q91 49 211 49t208 -49zM713 1552l610 -1529v1529h262v-1556h-524l-610 1530v-1530h-263v1556h525z
M2281 1006l-2 -2q43 61 43 176t-43 176t-125 61q-83 0 -129 -61q-45 -60 -45 -176q0 -114 45 -174q47 -62 129 -62q83 0 127 62z" />
    <glyph glyph-name="uni2117" unicode="&#x2117;" horiz-adv-x="1904" 
d="M1374 1505l-4 -8q193 -114 307 -307q115 -195 115 -420q0 -228 -113 -420q-114 -193 -307 -307q-192 -113 -424 -113q-229 0 -424 115q-193 114 -307 307q-113 192 -113 422q0 227 115 422q114 193 307 307q195 115 424 115q232 0 424 -113zM1284 188h-2q155 89 244 244
q90 156 90 336t-90 336q-89 155 -244 244q-156 90 -336 90t-336 -90q-153 -89 -243 -244q-88 -152 -88 -336q0 -180 90 -336q90 -155 243 -244q156 -90 336 -90t336 90zM999 1235q124 0 209 -39q88 -40 135 -111q48 -73 48 -159q0 -87 -48 -160q-47 -70 -135 -111
q-85 -39 -209 -39h-170v-321h-200v940h370zM989 780q95 0 144 37t49 109q0 71 -49 108t-144 37h-160v-291h160z" />
    <glyph glyph-name="uni2120" unicode="&#x2120;" horiz-adv-x="1826" 
d="M535 1255l10 -8q106 -23 157 -78q50 -53 50 -141q0 -76 -39 -127q-41 -53 -111 -80q-68 -26 -166 -26q-90 0 -160 30q-67 28 -112 86q-42 53 -51 127h176q9 -56 49 -86q41 -30 104 -30q67 0 103 26q37 27 37 68q0 40 -35 61q-37 22 -103 37l-106 23q-104 21 -160 71
q-55 49 -55 138q0 65 37 114q40 52 104 78q72 29 152 29q140 0 219 -58t94 -153h-176q-12 42 -51 65q-42 25 -92 25q-49 0 -88 -25q-37 -24 -37 -61q0 -32 30 -47q36 -18 111 -35zM1688 1548v-749h-162v706l-135 -706h-277l-135 706v-706h-162v749h305l129 -700l129 700h308
z" />
    <glyph glyph-name="trademark" unicode="&#x2122;" horiz-adv-x="1771" 
d="M295 1417h-234v139h635v-139h-233v-610h-168v610zM1616 1556v-749h-162v717l-137 -717h-277l-135 706v-706h-162v749h306l131 -700l129 700h307z" />
    <glyph glyph-name="uni2150" unicode="&#x2150;" horiz-adv-x="1566" 
d="M948 629v149h553v-188l-295 -590h-231l340 629h-367zM281 1556h145v-778h-188v518h-170v150h26q79 0 121 22q41 21 59 74zM330 0h-232l975 1556h234z" />
    <glyph glyph-name="uni2151" unicode="&#x2151;" horiz-adv-x="1603" 
d="M1452 690l-6 -6q92 -103 92 -301q0 -138 -43 -225q-45 -91 -119 -133q-76 -43 -174 -43q-88 0 -153 30q-64 30 -105 80q-38 47 -51 109h192q11 -35 41 -58q26 -20 72 -20q82 0 123 78q39 74 33 194q-20 -59 -76 -100q-53 -39 -131 -39q-77 0 -141 31q-60 29 -95 92
q-32 57 -32 141q0 77 41 139q41 63 114 97q75 35 172 35q155 0 246 -101zM1300 426l-4 2q39 33 39 86t-37 90t-102 37q-60 0 -98 -35q-37 -34 -37 -90q0 -58 37 -92q36 -33 102 -33q59 0 100 35zM266 1550h146v-778h-189v518h-170v150h27q79 0 121 22q41 21 59 74zM315 -6
h-231l975 1556h233z" />
    <glyph glyph-name="uni2152" unicode="&#x2152;" horiz-adv-x="2095" 
d="M1133 778h145v-778h-188v518h-170v150h26q79 0 121 22q41 21 59 74zM1450 88q-86 106 -86 301t86 301q86 105 246 105t246 -105q86 -106 86 -301t-86 -301q-85 -104 -246 -104t-246 104zM1837 387q0 260 -141 260q-142 0 -142 -260t142 -260q141 0 141 260zM279 1554h145
v-778h-188v518h-170v150h26q79 0 121 22q41 21 59 74zM328 -2h-232l975 1556h234z" />
    <glyph glyph-name="uni2153" unicode="&#x2153;" horiz-adv-x="1566" 
d="M276 1556h146v-778h-189v518h-170v150h27q79 0 121 22q41 21 59 74zM326 0h-232l975 1556h234zM1432 348l4 -2q65 -47 65 -135q0 -111 -86 -170t-237 -59q-145 0 -228 65t-92 178h193q3 -45 34 -73q30 -27 91 -27q50 0 94 29q39 26 39 73q0 54 -49 78q-52 25 -119 25h-51
v147h51q64 0 106 25q39 23 39 63q0 38 -31 60t-79 22q-50 0 -80 -24t-33 -64h-195q3 65 43 117q42 54 109 84q70 31 151 31q84 0 154 -25q67 -24 109 -72q41 -47 41 -104q0 -85 -56 -129q-55 -43 -147 -58q96 -9 160 -55z" />
    <glyph glyph-name="uni2154" unicode="&#x2154;" horiz-adv-x="1808" 
d="M309 928h398v-150h-629v189l344 260q45 38 59 57q19 25 19 57q0 38 -29 64q-28 25 -80 25q-54 0 -84 -27t-33 -74h-192q3 70 43 125q41 56 108 86q70 31 158 31q90 0 160 -31q67 -30 104 -82t37 -117q0 -71 -33 -124q-34 -55 -104 -107zM567 0h-231l975 1556h233z
M1675 348l4 -2q66 -48 66 -135q0 -111 -86 -170t-238 -59q-144 0 -227 65t-92 178h192q3 -44 35 -73q30 -27 90 -27q51 0 94 29q39 26 39 73q0 54 -49 78q-52 25 -119 25h-51v147h51q65 0 107 25q39 23 39 63q0 38 -31 60t-80 22q-50 0 -80 -24q-29 -23 -32 -64h-195
q3 65 43 117q42 54 109 84q70 31 151 31q84 0 154 -25q66 -23 108 -72q41 -47 41 -104q0 -86 -55 -129t-147 -58q95 -9 159 -55z" />
    <glyph glyph-name="uni2155" unicode="&#x2155;" horiz-adv-x="1638" 
d="M1448 502l2 -10q56 -29 92 -93q33 -59 33 -145q0 -87 -43 -148q-41 -59 -117 -94q-68 -32 -168 -32q-87 0 -160 30q-70 28 -118 86q-47 56 -56 133h195q9 -46 43 -73q37 -29 90 -29q59 0 96 37t37 96q0 62 -37 96q-38 35 -98 35q-44 0 -80 -22q-33 -20 -49 -60l-186 17
l39 450h555v-149h-379l-19 -215q20 51 74 86q52 34 123 34q73 0 131 -30zM279 1544h145v-778h-188v518h-170v150h26q79 0 121 22q41 21 59 74zM328 -12h-232l975 1556h234z" />
    <glyph glyph-name="uni2156" unicode="&#x2156;" horiz-adv-x="1880" 
d="M309 928h398v-150h-629v189l344 260q45 38 59 57q19 25 19 57q0 38 -29 64q-28 25 -80 25q-54 0 -84 -27t-33 -74h-192q3 70 43 125q41 56 108 86q70 31 158 31q90 0 160 -31q67 -30 104 -82t37 -117q0 -71 -33 -124q-34 -55 -104 -107zM567 0h-231l975 1556h233z
M1690 502l2 -10q56 -29 92 -93q33 -59 33 -145q0 -87 -43 -148q-41 -59 -117 -94q-68 -32 -168 -32q-87 0 -160 30q-71 29 -119 86q-46 55 -55 133h195q9 -46 43 -73q37 -29 90 -29q59 0 96 37t37 96q0 62 -37 96q-38 35 -98 35q-44 0 -80 -22q-33 -20 -49 -60l-187 17
l39 450h555v-149h-379l-18 -215q20 51 74 86q52 34 123 34q73 0 131 -30z" />
    <glyph glyph-name="uni2157" unicode="&#x2157;" horiz-adv-x="1832" 
d="M643 1126l4 -2q66 -48 66 -135q0 -111 -86 -170t-238 -59q-144 0 -227 65t-92 179h192q3 -45 35 -74q30 -27 90 -27q50 0 94 29q39 26 39 74q0 53 -49 77q-52 25 -119 25h-51v147h51q65 0 107 25q39 23 39 63q0 38 -31 60t-80 22q-50 0 -80 -24t-33 -64h-194q3 65 43 117
q42 55 108 84q70 31 152 31q84 0 154 -25q67 -24 108 -71t41 -105q0 -86 -55 -129q-53 -41 -148 -57q95 -9 160 -56zM526 -4h-231l975 1556h233zM1647 498l2 -11q57 -29 92 -92q33 -59 33 -145q0 -87 -43 -148q-41 -59 -117 -94q-70 -33 -168 -33q-84 0 -160 31
q-71 29 -119 86q-46 55 -55 133h195q9 -46 43 -73q37 -29 90 -29q59 0 96 37t37 96q0 62 -37 96q-38 35 -98 35q-44 0 -80 -22q-33 -20 -49 -60l-187 17l39 450h555v-149h-379l-18 -215q20 51 74 86q52 34 123 34q72 0 131 -30z" />
    <glyph glyph-name="uni2158" unicode="&#x2158;" horiz-adv-x="1871" 
d="M635 1122h106v-149h-106v-195h-189v195h-385v188l218 395h356v-434zM446 1522l-217 -400h217v400zM555 0h-231l974 1556h234zM1677 502l2 -10q57 -29 93 -93q32 -57 32 -145q0 -87 -43 -148q-42 -59 -116 -94q-68 -32 -168 -32q-87 0 -160 30q-71 29 -119 86
q-46 55 -55 133h194q9 -46 43 -73q37 -29 90 -29q60 0 97 37t37 96q0 62 -37 96q-38 35 -99 35q-43 0 -79 -22q-34 -21 -50 -60l-186 17l39 450h555v-149h-379l-18 -215q21 52 73 86t123 34q72 0 131 -30z" />
    <glyph glyph-name="uni2159" unicode="&#x2159;" horiz-adv-x="1607" 
d="M1411 487l-2 -2q61 -30 96 -92t35 -141q0 -78 -43 -139q-45 -63 -117 -97t-172 -34q-154 0 -245 102q-93 104 -93 301q0 138 43 225q45 91 119 133q76 43 174 43q134 0 213 -61q83 -64 103 -156h-195q-12 35 -39 56q-28 22 -74 22q-81 0 -122 -78q-39 -74 -33 -194
q21 60 78 102q56 41 133 41t141 -31zM1307 160l2 -4q37 34 37 90q0 58 -37 92q-38 35 -101 35q-37 0 -71 -17q-32 -16 -50 -43t-18 -61q0 -53 37 -90t102 -37q61 0 99 35zM276 1548h146v-778h-189v518h-170v150h27q79 0 121 22q41 21 59 74zM326 -8h-232l975 1556h234z" />
    <glyph glyph-name="uni215A" unicode="&#x215a;" horiz-adv-x="1789" 
d="M596 1280l2 -10q57 -29 92 -92q33 -59 33 -146q0 -86 -43 -147q-41 -59 -117 -94q-70 -33 -168 -33q-85 0 -159 30q-71 29 -119 86q-47 56 -56 134h195q9 -48 43 -74q37 -29 90 -29q59 0 96 37t37 96q0 63 -37 97t-98 34q-44 0 -80 -22q-33 -20 -49 -60l-186 17l39 450
h555v-149h-379l-19 -215q20 51 74 86q53 35 123 35q71 0 131 -31zM514 -12h-231l974 1556h234zM1597 475l-2 -2q62 -30 97 -92q34 -61 34 -141q0 -79 -43 -140q-44 -62 -116 -96q-75 -35 -172 -35q-154 0 -246 103t-92 301q0 138 43 225q45 91 119 133q76 43 174 43
q134 0 213 -61q81 -63 102 -156h-195q-12 35 -38 55q-30 23 -74 23q-82 0 -123 -78q-39 -74 -33 -195q21 61 78 103q56 41 133 41t141 -31zM1493 147l2 -4q37 34 37 90q0 59 -37 93t-100 34q-40 0 -72 -16q-31 -15 -49 -43q-19 -28 -19 -61q0 -53 37 -90t103 -37q61 0 98 34
z" />
    <glyph glyph-name="oneeighth" unicode="&#x215b;" horiz-adv-x="1617" 
d="M1495 346l-10 -10q61 -46 61 -131q0 -67 -43 -119q-44 -54 -119 -80q-82 -29 -178 -29t-178 29q-75 26 -119 80q-43 52 -43 121q0 86 62 133t145 59q-74 17 -129 66q-51 45 -51 123q0 57 41 104q43 49 113 72q73 24 165 24q96 0 166 -24q71 -24 111 -70q41 -47 41 -104
q0 -78 -51 -123q-52 -46 -131 -64q88 -12 147 -57zM1110 612v-4q-33 -23 -33 -63q0 -39 31 -64q30 -24 92 -24q60 0 94 24q33 23 33 66q0 42 -33 65q-36 25 -92 25t-92 -25zM1309 141l4 -2q41 27 41 74q0 50 -43 74t-107 24q-62 0 -106 -24q-43 -24 -43 -74q0 -47 43 -74
q42 -26 106 -26q63 0 105 28zM268 1538h146v-778h-189v518h-170v149h27q77 0 121 23q41 21 59 74zM317 -18h-231l975 1556h233z" />
    <glyph glyph-name="threeeighths" unicode="&#x215c;" horiz-adv-x="1814" 
d="M643 1126l4 -2q66 -48 66 -135q0 -111 -86 -170t-238 -59q-144 0 -227 65t-92 179h192q3 -45 35 -74q30 -27 90 -27q50 0 94 29q39 26 39 74q0 53 -49 77q-52 25 -119 25h-51v147h51q65 0 107 25q39 23 39 63q0 38 -31 60t-80 22q-50 0 -80 -24t-33 -64h-194q3 65 43 117
q42 55 108 84q70 31 152 31q84 0 154 -25q67 -24 108 -71t41 -105q0 -86 -55 -129q-53 -41 -148 -57q95 -9 160 -56zM526 -4h-231l975 1556h233zM1694 342l-11 -10q62 -47 62 -131q0 -67 -43 -119q-44 -54 -119 -80q-82 -29 -178 -29t-178 29q-75 26 -119 80q-43 52 -43 121
q0 87 61 133q62 47 146 59q-74 17 -129 66q-51 45 -51 123q0 57 41 104q43 50 112 72q73 24 166 24q95 0 166 -24t111 -70q41 -47 41 -104q0 -77 -52 -123t-131 -64q89 -13 148 -57zM1309 608v-4q-33 -23 -33 -63q0 -39 31 -64q30 -24 92 -24q60 0 94 24q33 23 33 66
q0 42 -33 65q-36 25 -92 25t-92 -25zM1507 137l4 -2q41 27 41 74q0 50 -43 74t-106 24t-107 -24q-43 -24 -43 -74q0 -47 43 -74q42 -26 107 -26q62 0 104 28z" />
    <glyph glyph-name="fiveeighths" unicode="&#x215d;" horiz-adv-x="1804" 
d="M596 1280l2 -10q57 -29 92 -92q33 -59 33 -146q0 -86 -43 -147q-41 -59 -117 -94q-70 -33 -168 -33q-85 0 -159 30q-71 29 -119 86q-47 56 -56 134h195q9 -48 43 -74q37 -29 90 -29q59 0 96 37t37 96q0 63 -37 97t-98 34q-44 0 -80 -22q-33 -20 -49 -60l-186 17l39 450
h555v-149h-379l-19 -215q20 51 74 86q53 35 123 35q71 0 131 -31zM514 -12h-231l974 1556h234zM1681 334l-10 -10q62 -47 62 -131q0 -67 -43 -119q-44 -54 -119 -80q-82 -29 -178 -29q-97 0 -179 29q-73 26 -118 80q-43 52 -43 121q0 87 61 133q62 47 146 59q-76 18 -130 66
q-51 45 -51 122q0 58 41 105q43 49 113 72q73 24 166 24q95 0 166 -24q70 -24 110 -70q41 -47 41 -104q0 -78 -51 -123q-52 -46 -131 -64q88 -12 147 -57zM1296 600v-4q-32 -22 -32 -64q0 -39 30 -63q31 -25 92 -25q59 0 95 25q32 22 32 66q0 43 -32 65q-36 25 -92 25
q-57 0 -93 -25zM1495 129l4 -2q41 27 41 74q0 49 -43 73q-45 25 -106 25q-62 0 -107 -25q-43 -24 -43 -73q0 -47 43 -74q44 -27 107 -27q61 0 104 29z" />
    <glyph glyph-name="seveneighths" unicode="&#x215e;" horiz-adv-x="1656" 
d="M82 1407v149h553v-188l-295 -590h-231l340 629h-367zM365 0h-232l975 1556h233zM1532 346l-10 -10q61 -46 61 -131q0 -67 -43 -119q-44 -54 -119 -80q-82 -29 -178 -29t-178 29q-75 26 -119 80q-43 52 -43 121q0 86 62 133t145 59q-74 17 -129 66q-51 45 -51 123
q0 57 41 104q43 50 112 72q73 24 166 24q95 0 166 -24t111 -70q41 -47 41 -104q0 -78 -51 -123q-52 -46 -132 -64q89 -13 148 -57zM1147 612v-4q-33 -23 -33 -63q0 -39 31 -64q30 -24 92 -24q59 0 94 24q33 23 33 66q0 42 -33 65q-36 25 -92 25t-92 -25zM1346 141l4 -2
q41 27 41 74q0 50 -43 74q-44 24 -107 24t-106 -24t-43 -74q0 -47 43 -74q42 -26 106 -26q63 0 105 28z" />
    <glyph glyph-name="uni215F" unicode="&#x215f;" horiz-adv-x="1380" 
d="M315 1556h146v-778h-189v518h-170v150h27q79 0 121 22q41 21 59 74zM365 0h-232l975 1556h233z" />
    <glyph glyph-name="uni2189" unicode="&#x2189;" horiz-adv-x="1744" 
d="M152 866q-86 106 -86 301t86 301q86 105 245 105q161 0 246 -105q86 -106 86 -301t-86 -301q-85 -104 -246 -104q-160 0 -245 104zM539 1165q0 260 -142 260q-141 0 -141 -260t141 -260q142 0 142 260zM502 -2h-232l975 1556h234zM1610 346l4 -2q65 -47 65 -135
q0 -111 -86 -170t-237 -59q-145 0 -228 65t-92 178h193q3 -44 35 -73q30 -27 90 -27q50 0 94 29q39 26 39 73q0 54 -49 78q-52 25 -119 25h-51v147h51q64 0 106 25q39 23 39 63q0 39 -30 60q-31 22 -80 22q-50 0 -80 -24t-33 -64h-194q3 65 43 117q42 55 108 84
q68 30 152 30q86 0 153 -24t109 -72q41 -47 41 -104q0 -85 -56 -129q-55 -43 -147 -58q96 -9 160 -55z" />
    <glyph glyph-name="arrowleft" unicode="&#x2190;" horiz-adv-x="1576" 
d="M487 893h1008v-229h-1008l439 -459h-303l-494 573l494 574h303z" />
    <glyph glyph-name="arrowup" unicode="&#x2191;" horiz-adv-x="1576" 
d="M788 1462l574 -493v-303l-457 436v-1008h-231v1010l-459 -438v303z" />
    <glyph glyph-name="arrowright" unicode="&#x2192;" horiz-adv-x="1576" 
d="M651 1352h303l496 -574l-496 -573h-303l439 459h-1008v229h1008z" />
    <glyph glyph-name="arrowdown" unicode="&#x2193;" horiz-adv-x="1576" 
d="M905 1462v-1007l457 436v-303l-574 -494l-573 494v303l459 -438v1009h231z" />
    <glyph glyph-name="uni2196" unicode="&#x2196;" horiz-adv-x="1576" 
d="M651 1094l764 -764l-160 -160l-761 762v-656l-213 207v822h823l205 -211h-658z" />
    <glyph glyph-name="uni2197" unicode="&#x2197;" horiz-adv-x="1576" 
d="M268 1094l205 211h823v-822l-213 -207v654l-761 -760l-160 160l764 764h-658z" />
    <glyph glyph-name="uni2198" unicode="&#x2198;" horiz-adv-x="1576" 
d="M1083 627v653l213 -207v-821h-823l-205 211h658l-764 764l160 159z" />
    <glyph glyph-name="uni2199" unicode="&#x2199;" horiz-adv-x="1576" 
d="M1255 1386l160 -159l-764 -764h658l-205 -211h-823v821l213 207v-655z" />
    <glyph glyph-name="uni21A4" unicode="&#x21a4;" horiz-adv-x="1576" 
d="M1196 893v459h229v-1147h-229v457h-797l437 -457h-304l-493 573l493 574h304l-439 -459h799z" />
    <glyph glyph-name="uni21A5" unicode="&#x21a5;" horiz-adv-x="1576" 
d="M1362 1065v-301l-457 434v-842h457v-229h-1147v229h459v844l-459 -436v301l573 496z" />
    <glyph glyph-name="uni21A6" unicode="&#x21a6;" horiz-adv-x="1576" 
d="M741 1352h303l494 -574l-494 -573h-303l437 457h-797v-457h-229v1147h229v-459h799z" />
    <glyph glyph-name="uni21A7" unicode="&#x21a7;" horiz-adv-x="1576" 
d="M1362 1430v-230h-457v-842l457 435v-301l-574 -496l-573 496v301l459 -437v844h-459v230h1147z" />
    <glyph glyph-name="uni21B0" unicode="&#x21b0;" horiz-adv-x="1576" 
d="M387 893h1018v-893h-227v662h-789l436 -457h-303l-493 573l493 574h303z" />
    <glyph glyph-name="uni21B1" unicode="&#x21b1;" horiz-adv-x="1576" 
d="M752 1352h303l493 -574l-493 -573h-303l436 457h-789v-662h-227v893h1018z" />
    <glyph glyph-name="uni21B2" unicode="&#x21b2;" horiz-adv-x="1576" 
d="M1178 895v661h227v-892h-1018l438 -459h-303l-493 573l493 574h303l-436 -457h789z" />
    <glyph glyph-name="uni21B3" unicode="&#x21b3;" horiz-adv-x="1576" 
d="M752 1352h303l493 -574l-493 -573h-303l438 459h-1018v892h227v-661h789z" />
    <glyph glyph-name="partialdiff" unicode="&#x2202;" horiz-adv-x="1265" 
d="M279 1575h-5q312 -35 508 -156q203 -125 293 -315q92 -195 92 -442q0 -338 -143 -512q-144 -175 -430 -175q-146 0 -270 62t-197 178q-74 118 -74 277t68 274q68 114 180 172q111 57 252 57q111 0 190 -39q84 -41 138 -98q58 -61 84 -123q-3 171 -78 312
q-73 137 -228 227q-154 89 -380 110v191zM754 199l2 6q65 42 104 121q37 75 37 178q0 100 -37 170q-38 70 -102 108q-64 37 -152 37q-84 0 -149 -39q-69 -41 -105 -112q-37 -73 -37 -172q0 -104 37 -179q36 -73 103 -118q64 -43 147 -43q85 0 152 43z" />
    <glyph glyph-name="product" unicode="&#x220f;" horiz-adv-x="1908" 
d="M1855 1556v-227h-292v-1605h-265v1605h-690v-1605h-264v1605h-291v227h1802z" />
    <glyph glyph-name="summation" unicode="&#x2211;" horiz-adv-x="1398" 
d="M1067 662l-678 -711h942v-227h-1243v296l610 639l-610 601v296h1227v-227h-924z" />
    <glyph glyph-name="minus" unicode="&#x2212;" horiz-adv-x="1198" 
d="M1094 459h-990v194h990v-194z" />
    <glyph glyph-name="radical" unicode="&#x221a;" horiz-adv-x="1417" 
d="M690 -94l465 1650h268l-518 -1832h-422l-221 686h-248v225h447z" />
    <glyph glyph-name="infinity" unicode="&#x221e;" horiz-adv-x="2310" 
d="M1946 1008h-4q117 -67 184 -187q67 -119 67 -264t-67 -264q-67 -120 -184 -187q-116 -67 -261 -67q-169 0 -297 88q-125 86 -233 240q-108 -154 -233 -240q-128 -88 -295 -88q-146 0 -265 67q-118 66 -186 187t-68 264t68 264q67 119 188 187q119 67 265 67
q167 0 297 -92q128 -91 231 -242q103 151 231 242q130 92 299 92q147 0 263 -67zM815 313v-2q83 69 162 183l43 61l-43 63q-76 110 -162 181q-84 69 -186 69q-83 0 -150 -37q-66 -37 -104 -108q-37 -70 -37 -166t37 -166t104 -110q65 -39 150 -39q100 0 186 71zM1817 279
l2 -3q64 39 106 111q39 68 39 166t-39 166q-41 72 -106 108q-67 37 -150 37q-102 0 -186 -69q-86 -71 -162 -181l-43 -63l41 -62q74 -108 162 -180q84 -69 186 -69q85 0 150 39z" />
    <glyph glyph-name="integral" unicode="&#x222b;" horiz-adv-x="837" 
d="M-6 -401l2 186h113q97 0 141 47q43 46 43 158v1194q0 194 102 282q101 88 301 88h146v-190h-115q-95 0 -137 -45q-43 -46 -43 -156v-1194q0 -193 -105 -282q-104 -88 -305 -88h-143z" />
    <glyph glyph-name="approxequal" unicode="&#x2248;" horiz-adv-x="1423" 
d="M121 737l-2 -4q72 97 160 154q85 55 182 55q55 0 108 -12q52 -12 142 -47q73 -33 129 -49q52 -15 104 -15q71 0 121 33q55 36 111 98l124 -125q-68 -95 -157 -153q-86 -56 -180 -56q-54 0 -111 13q-55 13 -141 49q-95 37 -131 47q-59 16 -107 16q-68 0 -117 -32
q-50 -33 -110 -99zM119 293l-2 -4q71 96 159 153q86 56 183 56q51 0 108 -13q52 -12 142 -47q73 -33 129 -49q49 -14 104 -14q71 0 121 33q55 36 111 98l124 -125q-69 -97 -157 -154q-85 -55 -180 -55q-59 0 -111 12q-55 13 -141 49q-103 41 -131 48q-59 16 -107 16
q-67 0 -117 -33q-52 -34 -110 -98z" />
    <glyph glyph-name="notequal" unicode="&#x2260;" horiz-adv-x="1316" 
d="M1178 874v-196h-326l-137 -238h463v-194h-576l-141 -246h-244l141 246h-221v194h334l137 238h-471v196h584l133 230h244l-133 -230h213z" />
    <glyph glyph-name="lessequal" unicode="&#x2264;" horiz-adv-x="1222" 
d="M121 848l973 256v-195l-838 -213l838 -215v-192l-973 258v301zM1094 0h-973v193h973v-193z" />
    <glyph glyph-name="greaterequal" unicode="&#x2265;" horiz-adv-x="1222" 
d="M129 909v195l973 -256v-301l-973 -258v192l838 215zM1102 0h-973v193h973v-193z" />
    <glyph glyph-name="uni2300" unicode="&#x2300;" horiz-adv-x="1361" 
d="M1280 1020l-131 -135q52 -70 80 -158q28 -89 28 -178q0 -156 -77 -289q-77 -132 -209 -209q-135 -78 -289 -78q-86 0 -178 29q-88 28 -158 80l-131 -133l-133 133l131 133q-52 70 -80 158q-29 92 -29 180q0 154 78 289q77 132 209 209q133 77 289 77q96 0 178 -26
q88 -28 158 -80l129 131zM362 360l504 508q-82 52 -184 52q-100 0 -186 -50q-87 -50 -136 -135t-49 -186q0 -106 51 -189zM1001 735l-505 -508q88 -49 186 -49q101 0 186 49q87 50 136 135t49 187q0 101 -52 186z" />
    <glyph glyph-name="uni2460" unicode="&#x2460;" horiz-adv-x="1912" 
d="M1386 1522q197 -115 312 -312q114 -197 114 -430q0 -234 -114 -430t-312 -311t-430 -115t-430 115q-197 114 -311 311q-115 198 -115 430t115 430t311 312q197 114 430 114q234 0 430 -114zM1305 174q158 91 251 252q93 162 93 348t-93 348q-93 161 -251 252
q-160 92 -349 92q-188 0 -348 -92t-252 -252t-92 -348t92 -348t252 -252t348 -92q189 0 349 92zM899 1243h186v-934h-219v623h-200v176h32q86 0 136 29q45 26 61 90z" />
    <glyph glyph-name="uni2461" unicode="&#x2461;" horiz-adv-x="1912" 
d="M1386 1522q197 -115 312 -312q114 -197 114 -430q0 -234 -114 -430t-312 -311t-430 -115t-430 115q-197 114 -311 311q-115 198 -115 430t115 430t311 312q197 114 430 114q234 0 430 -114zM1305 174q158 91 251 252q93 162 93 348t-93 348q-93 161 -251 252
q-160 92 -349 92q-188 0 -348 -92t-252 -252t-92 -348t92 -348t252 -252t348 -92q189 0 349 92zM831 483l496 -6v-174h-747v221l415 316q48 39 68 67q22 31 22 68q0 51 -36 80q-37 30 -99 30q-66 0 -104 -32q-40 -34 -43 -95h-223q3 88 53 156t131 105q79 36 184 36
q106 0 187 -34t129 -97q45 -60 45 -141q0 -84 -43 -145q-41 -58 -127 -125z" />
    <glyph glyph-name="uni2462" unicode="&#x2462;" horiz-adv-x="1912" 
d="M1386 1522q197 -115 312 -312q114 -197 114 -430q0 -234 -114 -430t-312 -311t-430 -115t-430 115q-197 114 -311 311q-115 198 -115 430t115 430t311 312q197 114 430 114q234 0 430 -114zM1305 174q158 91 251 252q93 162 93 348t-93 348q-93 161 -251 252
q-160 92 -349 92q-188 0 -348 -92t-252 -252t-92 -348t92 -348t252 -252t348 -92q189 0 349 92zM1253 729l-10 -8q78 -57 78 -160q0 -88 -49 -149q-51 -64 -135 -93q-85 -30 -201 -30q-174 0 -270 78q-95 77 -107 213h223q3 -59 43 -93q38 -32 111 -32q69 0 115 32
q49 34 49 93q0 122 -201 122h-61v177h61q89 0 133 30q43 30 43 80q0 47 -37 74q-40 29 -96 29q-62 0 -98 -31q-34 -29 -37 -78h-223q6 80 55 141q49 62 129 99q78 37 176 37q95 0 180 -31q80 -29 131 -86q50 -56 50 -127q0 -180 -234 -221q103 -9 182 -66z" />
    <glyph glyph-name="uni2463" unicode="&#x2463;" horiz-adv-x="1912" 
d="M1386 1522q197 -115 312 -312q114 -197 114 -430q0 -234 -114 -430t-312 -311t-430 -115t-430 115q-197 114 -311 311q-115 198 -115 430t115 430t311 312q197 114 430 114q234 0 430 -114zM1305 174q158 91 251 252q93 162 93 348t-93 348q-93 161 -251 252
q-160 92 -349 92q-188 0 -348 -92t-252 -252t-92 -348t92 -348t252 -252t348 -92q189 0 349 92zM1192 1243v-524h129v-176h-129v-234h-219v234h-463v219l283 481h399zM973 1190l-277 -471h277v471z" />
    <glyph glyph-name="uni2464" unicode="&#x2464;" horiz-adv-x="1912" 
d="M1386 1522q197 -115 312 -312q114 -197 114 -430q0 -234 -114 -430t-312 -311t-430 -115t-430 115q-197 114 -311 311q-115 198 -115 430t115 430t311 312q197 114 430 114q234 0 430 -114zM1305 174q158 91 251 252q93 162 93 348t-93 348q-93 161 -251 252
q-160 92 -349 92q-188 0 -348 -92t-252 -252t-92 -348t92 -348t252 -252t348 -92q189 0 349 92zM1188 913l-4 -10q68 -38 108 -110q41 -74 41 -177q0 -107 -49 -180q-49 -72 -135 -110q-84 -37 -193 -37q-102 0 -186 35q-82 34 -135 102t-62 158h224q6 -58 49 -92
q44 -35 110 -35q68 0 111 43t43 121q0 76 -45 118q-46 43 -111 43q-56 0 -96 -24q-39 -23 -61 -72l-215 19l47 538h643v-174h-443l-22 -268q20 56 84 104q60 45 145 45t152 -37z" />
    <glyph glyph-name="uni2465" unicode="&#x2465;" horiz-adv-x="1912" 
d="M1386 1522q197 -115 312 -312q114 -197 114 -430q0 -234 -114 -430t-312 -311t-430 -115t-430 115q-197 114 -311 311q-115 198 -115 430t115 430t311 312q197 114 430 114q234 0 430 -114zM1305 174q158 91 251 252q93 162 93 348t-93 348q-93 161 -251 252
q-160 92 -349 92q-188 0 -348 -92t-252 -252t-92 -348t92 -348t252 -252t348 -92q189 0 349 92zM1184 895l4 -2q76 -42 115 -113q40 -73 40 -168q0 -93 -49 -166q-50 -74 -137 -114q-90 -41 -203 -41q-119 0 -211 53t-141 160t-49 270q0 159 53 268q52 107 144 160t211 53
q107 0 178 -32q77 -35 123 -93t61 -135h-223q-16 50 -51 72q-39 25 -93 25q-100 0 -147 -93q-46 -91 -43 -235q15 47 49 84t86 61q55 25 113 25q99 0 170 -39zM1073 500v4q47 44 47 112q0 72 -45 111q-47 41 -123 41q-77 0 -123 -43q-47 -44 -47 -111q0 -39 19 -79
q18 -36 59 -58q39 -20 92 -20q75 0 121 43z" />
    <glyph glyph-name="uni2466" unicode="&#x2466;" horiz-adv-x="1912" 
d="M1386 1522q197 -115 312 -312q114 -197 114 -430q0 -234 -114 -430t-312 -311t-430 -115t-430 115q-197 114 -311 311q-115 198 -115 430t115 430t311 312q197 114 430 114q234 0 430 -114zM1305 174q158 91 251 252q93 162 93 348t-93 348q-93 161 -251 252
q-160 92 -349 92q-188 0 -348 -92t-252 -252t-92 -348t92 -348t252 -252t348 -92q189 0 349 92zM1069 1069h-442v174h657v-221l-360 -713h-265z" />
    <glyph glyph-name="uni2467" unicode="&#x2467;" horiz-adv-x="1912" 
d="M1386 1522q197 -115 312 -312q114 -197 114 -430q0 -234 -114 -430t-312 -311t-430 -115t-430 115q-197 114 -311 311q-115 198 -115 430t115 430t311 312q197 114 430 114q234 0 430 -114zM1305 174q158 91 251 252q93 162 93 348t-93 348q-93 161 -251 252
q-160 92 -349 92q-188 0 -348 -92t-252 -252t-92 -348t92 -348t252 -252t348 -92q189 0 349 92zM1280 727l6 -4q72 -57 72 -156q0 -84 -49 -145q-49 -60 -140 -96q-85 -33 -208 -33q-119 0 -209 35q-91 36 -140 96q-49 61 -49 145q0 101 72 158q73 57 170 72
q-213 53 -213 215q0 73 47 129t129 86q85 31 190 31q106 0 191 -31q82 -30 129 -86t47 -129q0 -162 -215 -215q97 -15 170 -72zM850 1059h4q-39 -29 -39 -78q0 -46 37 -76q39 -31 111 -31q71 0 110 31q37 30 37 76q0 49 -39 78q-42 31 -110 31q-69 0 -111 -31zM1087 489h5
q49 34 49 97q0 58 -49 92q-47 33 -125 33t-125 -33q-49 -34 -49 -92q0 -63 49 -97t123 -34q73 0 122 34z" />
    <glyph glyph-name="uni2468" unicode="&#x2468;" horiz-adv-x="1912" 
d="M1386 1522q197 -115 312 -312q114 -197 114 -430q0 -234 -114 -430t-312 -311t-430 -115t-430 115q-197 114 -311 311q-115 198 -115 430t115 430t311 312q197 114 430 114q234 0 430 -114zM1305 174q158 91 251 252q93 162 93 348t-93 348q-93 161 -251 252
q-160 92 -349 92q-188 0 -348 -92t-252 -252t-92 -348t92 -348t252 -252t348 -92q189 0 349 92zM1171 1208l-10 -8q93 -53 142 -160t49 -270q0 -161 -52 -268q-53 -108 -143 -160q-92 -53 -211 -53q-100 0 -178 35t-123 92q-46 58 -61 135h223q15 -47 51 -70q37 -24 92 -24
q101 0 148 92q46 91 43 237q-15 -47 -49 -84t-86 -61q-55 -25 -113 -25q-99 0 -170 39q-76 42 -115 113q-41 74 -41 170q0 93 49 166q50 74 140 115t202 41q122 0 213 -52zM1073 819l-2 -4q47 44 47 111q0 42 -18 80q-17 36 -58 57q-42 22 -92 22q-75 0 -121 -43
q-47 -44 -47 -110q0 -71 45 -113q46 -43 123 -43t123 43z" />
    <glyph glyph-name="uni24EA" unicode="&#x24ea;" horiz-adv-x="1912" 
d="M524 35q-197 114 -311 311q-115 198 -115 430t115 430t311 312t430 114t430 -114q197 -115 312 -312q114 -196 114 -430t-114 -430t-312 -311t-430 -115t-430 115zM1305 174q158 91 251 252q93 162 93 348t-93 348q-93 161 -251 252q-160 92 -349 92q-188 0 -348 -92
t-252 -252t-92 -348t92 -348t252 -252t348 -92q189 0 349 92zM662 418q-105 126 -105 358q0 233 105 359q104 125 292 125q189 0 293 -125q105 -126 105 -359q0 -232 -105 -358q-104 -125 -293 -125q-188 0 -292 125zM1085 537q43 79 43 239q0 161 -43 240q-44 80 -131 80
t-131 -80q-43 -79 -43 -240q0 -160 43 -239q44 -80 131 -80t131 80z" />
    <glyph glyph-name="uni24FF" unicode="&#x24ff;" horiz-adv-x="1912" 
d="M524 35q-197 114 -311 311q-115 198 -115 430t115 430t311 312t430 114t430 -114q197 -115 312 -312q114 -196 114 -430t-114 -430t-312 -311t-430 -115t-430 115zM1247 420q105 126 105 358q0 233 -105 359q-104 125 -293 125q-188 0 -292 -125q-105 -126 -105 -359
q0 -232 105 -358q104 -125 292 -125q189 0 293 125zM823 539q-43 79 -43 239q0 161 43 240q44 80 131 80t131 -80q43 -79 43 -240q0 -160 -43 -239q-44 -80 -131 -80t-131 80z" />
    <glyph glyph-name="filledbox" unicode="&#x25a0;" horiz-adv-x="1433" 
d="M1270 0h-1106v1104h1106v-1104z" />
    <glyph glyph-name="uni25A1" unicode="&#x25a1;" horiz-adv-x="1433" 
d="M1270 0h-1106v1104h1106v-1104zM371 899v-692h692v692h-692z" />
    <glyph glyph-name="lozenge" unicode="&#x25ca;" horiz-adv-x="1404" 
d="M539 1556h327l445 -778l-445 -778h-327l-445 778zM334 778l368 -643l369 643l-369 645z" />
    <glyph glyph-name="circle" unicode="&#x25cb;" horiz-adv-x="1392" 
d="M399 41q-135 80 -215 215q-80 136 -80 295t80 295q80 135 215 215q136 80 297 80q159 0 295 -80q135 -80 215 -215q80 -136 80 -295t-80 -295q-80 -135 -215 -215q-136 -80 -295 -80q-161 0 -297 80zM885 225q86 53 135 137q49 85 49 189q0 103 -49 188q-50 85 -135 135
q-86 50 -189 50q-102 0 -188 -50t-135 -135t-49 -188q0 -104 49 -189q49 -84 135 -137q83 -51 188 -51q106 0 189 51z" />
    <glyph glyph-name="uni25CF" unicode="&#x25cf;" horiz-adv-x="1392" 
d="M399 41q-135 80 -215 215q-80 136 -80 295t80 295q80 135 215 215q136 80 297 80q159 0 295 -80q135 -80 215 -215q80 -136 80 -295t-80 -295q-80 -135 -215 -215q-136 -80 -295 -80q-161 0 -297 80z" />
    <glyph glyph-name="uni2776" unicode="&#x2776;" horiz-adv-x="1912" 
d="M524 35q-197 114 -311 311q-115 198 -115 430t115 430t311 312t430 114t430 -114q197 -115 312 -312q114 -196 114 -430t-114 -430t-312 -311t-430 -115t-430 115zM862 311h215v934h-182l-4 -16q-15 -63 -62 -90q-50 -29 -135 -29h-32v-176h200v-623z" />
    <glyph glyph-name="uni2777" unicode="&#x2777;" horiz-adv-x="1912" 
d="M524 35q-197 114 -311 311q-115 198 -115 430t115 430t311 312t430 114t430 -114q197 -115 312 -312q114 -196 114 -430t-114 -430t-312 -311t-430 -115t-430 115zM582 311l747 4v174h-498l308 230q83 65 127 127q43 61 43 145q0 82 -45 142q-46 61 -129 96
q-84 35 -187 35t-184 -37t-131 -105q-48 -65 -51 -155h223q3 60 43 94q39 33 104 33q60 0 99 -31q36 -29 36 -80q0 -37 -22 -68q-20 -28 -68 -67l-415 -316v-221z" />
    <glyph glyph-name="uni2778" unicode="&#x2778;" horiz-adv-x="1912" 
d="M524 35q-197 114 -311 311q-115 198 -115 430t115 430t311 312t430 114t430 -114q197 -115 312 -312q114 -196 114 -430t-114 -430t-312 -311t-430 -115t-430 115zM1149 326l2 2q85 30 135 92q49 61 49 151q0 73 -39 121q-42 51 -98 74q-62 25 -123 31q106 21 172 71
q64 49 64 152q0 72 -49 127q-50 56 -132 86q-85 31 -180 31q-98 0 -176 -37q-80 -37 -129 -99q-49 -61 -55 -141h223q3 49 37 78q36 31 98 31q56 0 96 -29q37 -27 37 -74q0 -50 -43 -80q-44 -30 -131 -30h-61v-176h61q201 0 201 -123q0 -58 -49 -92q-47 -33 -113 -33
q-69 0 -110 35q-40 34 -43 92h-224q12 -134 109 -213q96 -78 270 -78q113 0 201 31z" />
    <glyph glyph-name="uni2779" unicode="&#x2779;" horiz-adv-x="1912" 
d="M524 35q-197 114 -311 311q-115 198 -115 430t115 430t311 312t430 114t430 -114q197 -115 312 -312q114 -196 114 -430t-114 -430t-312 -311t-430 -115t-430 115zM510 764v-219h463v-234h219v234h129v176h-129v524h-401zM973 721h-277l277 469v-469z" />
    <glyph glyph-name="uni277A" unicode="&#x277a;" horiz-adv-x="1912" 
d="M524 35q-197 114 -311 311q-115 198 -115 430t115 430t311 312t430 114t430 -114q197 -115 312 -312q114 -196 114 -430t-114 -430t-312 -311t-430 -115t-430 115zM1151 332l-8 2q86 38 135 110q49 73 49 183q0 105 -39 176q-40 72 -108 110q-67 37 -150 37t-141 -43
q-61 -45 -84 -102l22 266h443v174h-643l-47 -538l215 -19q22 49 61 72q40 24 96 24q65 0 111 -43q45 -42 45 -118q0 -78 -43 -121t-111 -43q-66 0 -110 35q-43 34 -49 92h-224q9 -88 62 -156q50 -65 135 -100q84 -35 188 -35q111 0 195 37z" />
    <glyph glyph-name="uni277B" unicode="&#x277b;" horiz-adv-x="1912" 
d="M524 35q-197 114 -311 311q-115 198 -115 430t115 430t311 312t430 114t430 -114q197 -115 312 -312q114 -196 114 -430t-114 -430t-312 -311t-430 -115t-430 115zM1153 336l-10 -4q90 41 139 114t49 166q0 96 -41 170q-40 72 -114 113q-71 39 -170 39q-93 0 -160 -49
t-88 -119q-3 142 43 233q47 93 147 93q53 0 92 -25q37 -24 52 -70h223q-15 77 -62 136q-45 57 -123 92t-178 35q-117 0 -211 -54q-91 -52 -143 -159q-51 -105 -51 -271q0 -163 49 -270t141 -160q89 -51 213 -51q113 0 203 41zM846 477l-2 -6q-41 21 -58 57q-18 38 -18 80
q0 67 47 111q46 43 123 43q76 0 123 -41q45 -39 45 -111q0 -68 -47 -112q-46 -43 -121 -43q-50 0 -92 22z" />
    <glyph glyph-name="uni277C" unicode="&#x277c;" horiz-adv-x="1912" 
d="M524 35q-197 114 -311 311q-115 198 -115 430t115 430t311 312t430 114t430 -114q197 -115 312 -312q114 -196 114 -430t-114 -430t-312 -311t-430 -115t-430 115zM1069 1071l-410 -760h265l360 713v221h-657v-174h442z" />
    <glyph glyph-name="uni277D" unicode="&#x277d;" horiz-adv-x="1912" 
d="M524 35q-197 114 -311 311q-115 198 -115 430t115 430t311 312t430 114t430 -114q197 -115 312 -312q114 -196 114 -430t-114 -430t-312 -311t-430 -115t-430 115zM1163 328l-8 -2q90 35 139 96t49 145q0 104 -69 158q-73 57 -172 72q215 53 215 215q0 73 -47 129
t-129 86t-191 30q-108 0 -190 -30t-129 -86q-45 -54 -45 -129q0 -162 213 -215q-99 -15 -172 -72q-70 -55 -70 -158q0 -84 49 -145t139 -96q85 -33 209 -33q119 0 209 35zM834 905h-5q-36 29 -36 76q0 50 38 78q42 31 111 31t111 -31q39 -29 39 -78q0 -46 -37 -76
q-39 -31 -111 -31q-71 0 -110 31zM817 492h-4q-49 34 -49 96q0 58 49 92q47 33 125 33t125 -33q49 -34 49 -92q0 -62 -49 -96q-50 -35 -123 -35t-123 35z" />
    <glyph glyph-name="uni277E" unicode="&#x277e;" horiz-adv-x="1912" 
d="M524 35q-197 114 -311 311q-115 198 -115 430t115 430t311 312t430 114t430 -114q197 -115 312 -312q114 -196 114 -430t-114 -430t-312 -311t-430 -115t-430 115zM758 1221l2 -4q-86 -39 -137 -115q-50 -74 -50 -166q0 -94 41 -168q39 -71 115 -113q71 -39 170 -39
q92 0 160 50q69 51 90 120q3 -142 -43 -233q-47 -92 -148 -92q-54 0 -92 24q-35 22 -51 72h-223q15 -77 61 -135q45 -57 123 -92q73 -33 178 -33q119 0 211 53t144 160q53 109 53 268q0 164 -49 271q-48 105 -142 159t-210 54q-113 0 -203 -41zM1055 1069v2q42 -22 59 -57
q19 -40 19 -80q0 -66 -48 -111q-46 -43 -122 -43q-77 0 -123 43q-45 42 -45 113q0 67 47 111q46 43 121 43q51 0 92 -21z" />
    <glyph glyph-name="uniF8FF" unicode="&#xf8ff;" horiz-adv-x="1710" 
d="M1145 838h514v-119h-510l469 -195l-43 -106l-475 196l362 -364l-80 -80l-364 365l196 -478l-106 -43l-195 471v-510h-118v514l-197 -475l-104 43l198 480l-368 -367l-78 80l364 366l-479 -198l-41 106l467 195h-506v119h510l-471 194l45 109l473 -197l-362 363l84 82
l358 -361l-194 471l108 43l193 -467v506h118v-506l193 467l106 -43l-196 -475l362 365l84 -82l-362 -363l471 197l45 -109z" />
    <glyph glyph-name="uniFEFF" unicode="&#xfeff;" horiz-adv-x="0" 
 />
    <glyph glyph-name="NULL" horiz-adv-x="0" 
 />
    <glyph glyph-name="uni004A0301" horiz-adv-x="798" 
d="M39 0v225h164q85 0 125 37q39 36 39 117v1177h264v-1222q0 -161 -96 -248q-95 -86 -281 -86h-215zM635 1677h-252l248 283h364z" />
    <glyph glyph-name="G.ss03" horiz-adv-x="1667" 
d="M782 858l785 -4v-149q0 -221 -90 -390q-88 -166 -254 -254t-383 -88q-226 0 -394 101q-171 103 -264 282q-94 181 -94 422q0 234 96 418q94 181 267 283q169 100 391 100q184 0 327 -61q147 -63 240 -175q97 -116 139 -276h-276q-49 137 -158 217t-270 80
q-143 0 -252 -74q-106 -72 -166 -207q-59 -133 -59 -307t59 -307q60 -135 166 -207q109 -74 252 -74q133 0 239 56t164 157q59 103 62 238h-527v219z" />
    <glyph glyph-name="Gbreve.ss03" horiz-adv-x="1667" 
d="M782 858l785 -4v-149q0 -221 -90 -390q-88 -166 -254 -254t-383 -88q-226 0 -394 101q-171 103 -264 282q-94 181 -94 422q0 234 96 418q94 181 267 283q169 100 391 100q184 0 327 -61q147 -63 240 -175q97 -116 139 -276h-276q-49 137 -158 217t-270 80
q-143 0 -252 -74q-106 -72 -166 -207q-59 -133 -59 -307t59 -307q60 -135 166 -207q109 -74 252 -74q133 0 239 56t164 157q59 103 62 238h-527v219zM647 1708h-4q-82 40 -125 104t-43 146h195q3 -60 49 -100q45 -39 117 -39q71 0 116 39q46 40 49 100h195q0 -82 -43 -146
t-125 -104q-79 -39 -190 -39q-112 0 -191 39z" />
    <glyph glyph-name="Gcaron.ss03" horiz-adv-x="1667" 
d="M782 858l785 -4v-149q0 -221 -90 -390q-88 -166 -254 -254t-383 -88q-226 0 -394 101q-171 103 -264 282q-94 181 -94 422q0 234 96 418q94 181 267 283q169 100 391 100q184 0 327 -61q147 -63 240 -175q97 -116 139 -276h-276q-49 137 -158 217t-270 80
q-143 0 -252 -74q-106 -72 -166 -207q-59 -133 -59 -307t59 -307q60 -135 166 -207q109 -74 252 -74q133 0 239 56t164 157q59 103 62 238h-527v219zM838 1792l190 166h240l-258 -283h-344l-258 283h239z" />
    <glyph glyph-name="Gcircumflex.ss03" horiz-adv-x="1667" 
d="M782 858l785 -4v-149q0 -221 -90 -390q-88 -166 -254 -254t-383 -88q-226 0 -394 101q-171 103 -264 282q-94 181 -94 422q0 234 96 418q94 181 267 283q169 100 391 100q184 0 327 -61q147 -63 240 -175q97 -116 139 -276h-276q-49 137 -158 217t-270 80
q-143 0 -252 -74q-106 -72 -166 -207q-59 -133 -59 -307t59 -307q60 -135 166 -207q109 -74 252 -74q133 0 239 56t164 157q59 103 62 238h-527v219zM1010 1958l258 -283h-240l-190 168l-191 -168h-239l258 283h344z" />
    <glyph glyph-name="uni0122.ss03" horiz-adv-x="1667" 
d="M782 858l785 -4v-149q0 -221 -90 -390q-88 -166 -254 -254t-383 -88q-226 0 -394 101q-171 103 -264 282q-94 181 -94 422q0 234 96 418q94 181 267 283q169 100 391 100q184 0 327 -61q147 -63 240 -175q97 -116 139 -276h-276q-49 137 -158 217t-270 80
q-143 0 -252 -74q-106 -72 -166 -207q-59 -133 -59 -307t59 -307q60 -135 166 -207q109 -74 252 -74q133 0 239 56t164 157q59 103 62 238h-527v219zM709 -412v283h276v-305l-127 -184h-168l105 206h-86z" />
    <glyph glyph-name="Gdotaccent.ss03" horiz-adv-x="1667" 
d="M782 858l785 -4v-149q0 -221 -90 -390q-88 -166 -254 -254t-383 -88q-226 0 -394 101q-171 103 -264 282q-94 181 -94 422q0 234 96 418q94 181 267 283q169 100 391 100q184 0 327 -61q147 -63 240 -175q97 -116 139 -276h-276q-49 137 -158 217t-270 80
q-143 0 -252 -74q-106 -72 -166 -207q-59 -133 -59 -307t59 -307q60 -135 166 -207q109 -74 252 -74q133 0 239 56t164 157q59 103 62 238h-527v219zM975 1675h-277v283h277v-283z" />
    <glyph glyph-name="Adieresis.titl" horiz-adv-x="1587" 
d="M1585 0h-278l-150 446h-727l-149 -446h-279l539 1556h506zM795 1524l-289 -852h575zM362 1274h-256v282h256v-282zM1497 1274h-256v282h256v-282z" />
    <glyph glyph-name="Odieresis.titl" horiz-adv-x="1703" 
d="M457 76q-177 104 -269 282q-96 184 -96 418t96 418q93 179 269 283q169 100 395 100t395 -100q176 -104 269 -283q96 -184 96 -418t-96 -418q-92 -178 -269 -282q-171 -101 -395 -101t-395 101zM1106 264q109 72 172 207q61 131 61 307t-61 307q-63 135 -172 207
q-112 74 -254 74t-254 -74q-109 -72 -172 -207q-61 -131 -61 -307t61 -307q63 -135 172 -207q112 -74 254 -74t254 74zM207 1274h-256v282h256v-282zM1751 1274h-256v282h256v-282z" />
    <glyph glyph-name="Udieresis.titl" horiz-adv-x="1581" 
d="M754 1274h-256v282h256v-282zM1083 1274h-256v282h256v-282zM162 621v2v931h264v-952v-4q0 -410 367 -410q364 0 364 414v952h264v-931q0 -314 -151 -482q-150 -166 -477 -166q-631 0 -631 646z" />
    <glyph glyph-name="I_J.loclNLD" horiz-adv-x="1245" 
d="M178 0l2 225h473q86 0 123 37t37 117v1177h264v-1222q0 -161 -96 -248q-95 -86 -281 -86h-522zM444 496h-264v1058h264v-1058z" />
    <glyph glyph-name="A.inferior" horiz-adv-x="854" 
d="M844 -233h-199l-57 198h-322l-57 -198h-199l238 778h358zM428 514l-117 -395h232z" />
    <glyph glyph-name="B.inferior" horiz-adv-x="808" 
d="M696 113v-2q66 -48 66 -134q0 -97 -82 -155t-242 -58h-340v779h334q98 0 166 -27q67 -27 102 -74t35 -104q0 -78 -55 -121t-148 -55q100 -3 164 -49zM506 371v-2q-29 20 -86 20h-135v-156h135q117 0 117 76q0 40 -31 62zM432 -86q60 0 98 23q33 20 33 67q0 82 -131 82
h-147v-172h147z" />
    <glyph glyph-name="C.inferior" horiz-adv-x="860" 
d="M244 -199l-8 -8q-90 50 -142 141q-51 89 -51 216q0 123 53 215q52 91 142 141q88 49 196 49q98 0 174 -33q81 -35 135 -98t76 -154h-194q-21 61 -68 99q-46 37 -123 37q-55 0 -100 -31q-44 -31 -68 -88q-24 -59 -24 -135q0 -78 24 -136q24 -57 68 -88q44 -30 102 -30
q144 0 191 141h194q-35 -146 -135 -215q-104 -72 -246 -72q-108 0 -196 49z" />
    <glyph glyph-name="D.inferior" horiz-adv-x="854" 
d="M395 545h-2q188 0 299 -99t111 -290q0 -192 -111 -291q-110 -98 -297 -98h-299v778h299zM397 -80v-4q97 0 152 61t55 177q0 115 -55 176t-152 61h-112v-471h112z" />
    <glyph glyph-name="E.inferior" horiz-adv-x="716" 
d="M287 88v-168h368v-153h-559v778h551v-154h-360v-149h352v-154h-352z" />
    <glyph glyph-name="F.inferior" horiz-adv-x="686" 
d="M631 545v-154h-344v-162h338v-153h-338v-309h-191v778h535z" />
    <glyph glyph-name="G.inferior" horiz-adv-x="911" 
d="M420 219h414v-452h-154v182q-27 -83 -92 -142q-63 -57 -178 -57q-94 0 -177 47q-81 46 -135 140q-51 89 -51 217q0 124 51 213q52 91 142 141q88 49 206 49q142 0 242 -68q96 -66 137 -192h-196q-25 57 -68 84q-47 29 -112 29q-57 0 -105 -31t-74 -88q-26 -56 -26 -135
q0 -121 57 -187q58 -67 156 -67q81 0 137 47q54 45 57 123h-231v147z" />
    <glyph glyph-name="H.inferior" horiz-adv-x="864" 
d="M578 250v295h190v-778h-190v311h-291v-311h-191v778h191v-295h291z" />
    <glyph glyph-name="I.inferior" horiz-adv-x="380" 
d="M287 -233h-191v778h191v-778z" />
    <glyph glyph-name="J.inferior" horiz-adv-x="462" 
d="M29 -233l-2 151h67q48 0 68 14q22 16 22 64v547h191v-582q0 -97 -51 -145q-52 -49 -172 -49h-123z" />
    <glyph glyph-name="K.inferior" horiz-adv-x="811" 
d="M492 178l329 -411h-235l-299 380v-380h-191v778h191v-344l274 344h223z" />
    <glyph glyph-name="L.inferior" horiz-adv-x="638" 
d="M287 545v-625h325v-153h-516v778h191z" />
    <glyph glyph-name="M.inferior" horiz-adv-x="1173" 
d="M1077 545v-778h-178v747l-145 -747h-334l-146 747v-747h-178v778h346l146 -752l143 752h346z" />
    <glyph glyph-name="N.inferior" horiz-adv-x="937" 
d="M664 -205v750h178v-778h-350l-218 743v-743h-178v778h350z" />
    <glyph glyph-name="O.inferior" horiz-adv-x="903" 
d="M244 -199q-91 49 -144 142q-51 89 -51 215t51 215q52 91 144 141q91 49 209 49t209 -49q90 -49 143 -141q51 -89 51 -215t-51 -215q-54 -94 -143 -142q-91 -49 -209 -49t-209 49zM602 -33l-2 -4q55 67 55 189q0 121 -55 188q-56 68 -149 68q-94 0 -150 -68
q-55 -67 -55 -186q0 -120 55 -187t152 -67q94 0 149 67z" />
    <glyph glyph-name="P.inferior" horiz-adv-x="774" 
d="M408 545v-4q159 0 245 -68t86 -190q0 -121 -86 -189q-85 -67 -245 -67h-121v-260h-191v778h312zM401 174v-2q63 0 107 29q39 26 39 80q0 53 -39 79q-44 29 -107 29h-114v-215h114z" />
    <glyph glyph-name="Q.inferior" horiz-adv-x="909" 
d="M930 -233l-215 -5l-43 43q-92 -57 -221 -57q-118 0 -209 49t-144 142q-51 89 -51 215t51 215q52 91 144 141q91 49 209 49q117 0 208 -49q91 -50 144 -141q51 -89 51 -215q0 -72 -18 -134q-18 -63 -52 -108zM553 -78l-152 146h213l25 -25q14 41 14 104q0 122 -55 189
t-149 67q-95 0 -150 -67t-55 -186q0 -120 55 -187t152 -67q57 0 102 26z" />
    <glyph glyph-name="R.inferior" horiz-adv-x="815" 
d="M578 -233l-172 278h-123v-278h-191v778h322q94 0 170 -31q71 -29 112 -88t41 -131q0 -74 -37 -129q-38 -57 -104 -86l199 -313h-217zM283 393l-2 -194h129q58 0 92 24q35 24 35 74q0 49 -33 72q-35 24 -92 24h-129z" />
    <glyph glyph-name="S.inferior" horiz-adv-x="776" 
d="M213 -217l-4 -14q-73 30 -119 88t-55 137h196q9 -59 52 -86t104 -27q70 0 109 25q36 23 36 67q0 35 -30 56q-32 22 -107 37l-116 24q-105 23 -166 78q-58 52 -58 145q0 67 41 123t111 86q73 31 160 31q150 0 235 -61t100 -162h-194q-9 41 -45 61q-38 21 -92 21
q-52 0 -88 -19q-33 -17 -33 -53q0 -32 31 -51q30 -18 106 -33l119 -27q109 -21 164 -79t55 -148q0 -119 -92 -184q-94 -66 -254 -66q-90 0 -166 31z" />
    <glyph glyph-name="T.inferior" horiz-adv-x="712" 
d="M29 545h655v-154h-231v-624h-191v624h-233v154z" />
    <glyph glyph-name="U.inferior" horiz-adv-x="847" 
d="M170 -164l-2 -2q-82 82 -82 240v4v465h190v-488v-4q0 -72 37 -112q36 -39 109 -39q70 0 108 41q37 40 37 116v488h191v-465q0 -157 -82 -242q-83 -86 -254 -86q-168 0 -252 84z" />
    <glyph glyph-name="V.inferior" horiz-adv-x="827" 
d="M414 -203l196 748h203l-215 -778h-369l-215 778h203z" />
    <glyph glyph-name="W.inferior" horiz-adv-x="1222" 
d="M883 -205l123 750h186l-129 -778h-358l-93 753l-94 -753h-358l-129 778h186l123 -750l94 750h354z" />
    <glyph glyph-name="X.inferior" horiz-adv-x="851" 
d="M557 178l293 -411h-232l-192 274l-195 -274h-229l291 411l-262 367h227l168 -238l166 238h229z" />
    <glyph glyph-name="Y.inferior" horiz-adv-x="778" 
d="M559 545h215l-291 -477v-301h-190v301l-291 477h215l172 -297z" />
    <glyph glyph-name="Z.inferior" horiz-adv-x="753" 
d="M692 348l-409 -428h428v-153h-660v196l410 428h-404v154h635v-197z" />
    <glyph glyph-name="G.ss03.inferior" horiz-adv-x="886" 
d="M418 219l416 -6v-90q0 -114 -46 -199q-45 -83 -133 -131q-86 -47 -204 -47t-209 49t-144 142q-51 89 -51 215q0 124 51 213q52 91 142 141q88 49 206 49q142 0 242 -68q96 -66 137 -192h-196q-25 57 -68 84q-47 29 -112 29q-57 0 -105 -31q-49 -31 -72 -88
q-24 -59 -24 -135q0 -78 24 -136q24 -57 74 -88q50 -30 111 -30q86 0 135 49q50 50 53 123h-227v147z" />
    <glyph glyph-name="A.superior" horiz-adv-x="854" 
d="M844 778h-199l-57 199h-322l-57 -199h-199l238 778h358zM428 1526l-117 -396h232z" />
    <glyph glyph-name="B.superior" horiz-adv-x="808" 
d="M696 1124v-2q66 -48 66 -133q0 -97 -82 -155t-242 -58h-340v778h334q101 0 166 -26q67 -27 102 -74t35 -104q0 -78 -55 -121t-148 -55q99 -3 164 -50zM506 1382v-2q-30 21 -86 21h-135v-156h135q117 0 117 76q0 39 -31 61zM432 926q62 0 98 22q33 20 33 68q0 82 -131 82
h-147v-172h147z" />
    <glyph glyph-name="C.superior" horiz-adv-x="860" 
d="M244 813l-8 -8q-90 50 -142 141q-51 89 -51 215q0 123 53 215t142 142q88 49 196 49q98 0 174 -33q81 -35 135 -98t76 -154h-194q-20 60 -68 98q-46 37 -123 37q-55 0 -100 -31q-44 -31 -68 -88q-24 -58 -24 -135t24 -135q24 -57 68 -88q45 -31 102 -31q144 0 191 142
h194q-35 -146 -135 -215q-104 -72 -246 -72q-108 0 -196 49z" />
    <glyph glyph-name="D.superior" horiz-adv-x="854" 
d="M395 1556h-2q189 0 299 -98q111 -99 111 -291q0 -191 -111 -290t-297 -99h-299v778h299zM397 932v-4q97 0 152 61t55 176t-55 176q-56 62 -152 62h-112v-471h112z" />
    <glyph glyph-name="E.superior" horiz-adv-x="716" 
d="M287 1100v-168h368v-154h-559v778h551v-153h-360v-150h352v-153h-352z" />
    <glyph glyph-name="F.superior" horiz-adv-x="686" 
d="M631 1556v-153h-344v-162h338v-154h-338v-309h-191v778h535z" />
    <glyph glyph-name="G.superior" horiz-adv-x="911" 
d="M420 1231h414v-453h-154v183q-27 -83 -92 -142q-63 -57 -178 -57q-94 0 -177 47q-82 46 -135 139q-51 89 -51 217q0 124 51 213q53 92 142 142q88 49 206 49q142 0 242 -68q96 -66 137 -192h-196q-25 57 -68 84q-45 28 -112 28q-59 0 -105 -30q-48 -31 -74 -88
q-26 -56 -26 -136q0 -120 57 -186q59 -68 156 -68q80 0 137 48q54 45 57 122h-231v148z" />
    <glyph glyph-name="H.superior" horiz-adv-x="864" 
d="M578 1262v294h190v-778h-190v312h-291v-312h-191v778h191v-294h291z" />
    <glyph glyph-name="I.superior" horiz-adv-x="380" 
d="M287 778h-191v778h191v-778z" />
    <glyph glyph-name="J.superior" horiz-adv-x="462" 
d="M29 778l-2 152h67q48 0 68 14q22 16 22 64v546h191v-581q0 -98 -51 -146q-52 -49 -172 -49h-123z" />
    <glyph glyph-name="K.superior" horiz-adv-x="811" 
d="M489 1190l330 -412h-235l-299 381v-381h-191v778h191v-344l274 344h223z" />
    <glyph glyph-name="L.superior" horiz-adv-x="638" 
d="M287 1556v-624h325v-154h-516v778h191z" />
    <glyph glyph-name="M.superior" horiz-adv-x="1173" 
d="M1077 1556v-778h-178v748l-145 -748h-334l-146 748v-748h-178v778h346l146 -751l143 751h346z" />
    <glyph glyph-name="N.superior" horiz-adv-x="937" 
d="M664 807v749h178v-778h-350l-218 744v-744h-178v778h350z" />
    <glyph glyph-name="O.superior" horiz-adv-x="903" 
d="M244 813q-92 49 -144 141q-51 89 -51 215t51 215q53 93 144 142t209 49t209 -49q89 -48 143 -142q51 -89 51 -215t-51 -215q-53 -92 -143 -141q-91 -49 -209 -49t-209 49zM602 979l-2 -4q55 67 55 188q0 122 -55 189t-149 67q-95 0 -150 -67t-55 -187q0 -119 55 -186
q56 -68 152 -68q93 0 149 68z" />
    <glyph glyph-name="P.superior" horiz-adv-x="774" 
d="M408 1556v-4q160 0 245 -67q86 -68 86 -191q0 -120 -86 -188t-245 -68h-121v-260h-191v778h312zM401 1186v-2q65 0 107 28q39 26 39 80t-39 80q-44 29 -107 29h-114v-215h114z" />
    <glyph glyph-name="Q.superior" horiz-adv-x="909" 
d="M930 778l-215 -4l-43 43q-92 -57 -221 -57q-118 0 -209 49q-92 49 -144 141q-51 89 -51 215t51 215q53 93 144 142t209 49q117 0 208 -49t144 -142q51 -89 51 -215q0 -71 -18 -133q-18 -63 -52 -108zM553 934l-152 145h213l25 -24q14 41 14 104q0 122 -55 189t-149 67
q-95 0 -150 -67t-55 -187q0 -119 55 -186q56 -68 152 -68q55 0 102 27z" />
    <glyph glyph-name="R.superior" horiz-adv-x="815" 
d="M578 778l-172 279h-123v-279h-191v778h322q96 0 170 -30q71 -29 112 -88t41 -131q0 -74 -37 -129q-38 -57 -104 -86l199 -314h-217zM283 1405l-2 -195h129q56 0 92 25q35 24 35 74q0 48 -33 71q-36 25 -92 25h-129z" />
    <glyph glyph-name="S.superior" horiz-adv-x="776" 
d="M213 795l-4 -15q-73 30 -119 88t-55 138h196q9 -59 52 -86t104 -27q70 0 109 25q36 23 36 67q0 34 -30 55q-32 22 -107 37l-116 25q-105 23 -166 78q-58 52 -58 145q0 67 41 123t111 86q73 31 160 31q149 0 235 -62q85 -61 100 -162h-194q-9 42 -45 62t-92 20
q-53 0 -88 -18q-33 -17 -33 -53q0 -33 31 -52q28 -17 106 -32l119 -27q108 -21 164 -80q55 -58 55 -147q0 -120 -92 -185t-254 -65q-90 0 -166 31z" />
    <glyph glyph-name="T.superior" horiz-adv-x="712" 
d="M29 1556h655v-153h-231v-625h-191v625h-233v153z" />
    <glyph glyph-name="U.superior" horiz-adv-x="847" 
d="M170 848l-2 -2q-82 82 -82 239v5v464h190v-487v-4q0 -73 37 -113q36 -39 109 -39q70 0 108 41q37 40 37 117v487h191v-464q0 -157 -82 -242q-83 -86 -254 -86q-168 0 -252 84z" />
    <glyph glyph-name="V.superior" horiz-adv-x="827" 
d="M414 809l196 747h203l-215 -778h-369l-215 778h203z" />
    <glyph glyph-name="W.superior" horiz-adv-x="1222" 
d="M883 807l123 749h186l-129 -778h-358l-93 754l-94 -754h-358l-129 778h186l123 -749l94 749h354z" />
    <glyph glyph-name="X.superior" horiz-adv-x="851" 
d="M557 1190l293 -412h-232l-192 275l-195 -275h-229l291 412l-262 366h227l168 -237l166 237h229z" />
    <glyph glyph-name="Y.superior" horiz-adv-x="778" 
d="M559 1556h215l-291 -477v-301h-190v301l-291 477h215l172 -296z" />
    <glyph glyph-name="Z.superior" horiz-adv-x="753" 
d="M692 1360l-409 -428h428v-154h-660v197l410 428h-404v153h635v-196z" />
    <glyph glyph-name="G.ss03.superior" horiz-adv-x="888" 
d="M418 1231l416 -6v-90q0 -114 -46 -199q-45 -83 -133 -131q-86 -47 -204 -47t-209 49q-92 49 -144 141q-51 89 -51 215q0 124 51 213q53 92 142 142q88 49 206 49q142 0 242 -68q96 -66 137 -192h-196q-25 57 -68 84q-45 28 -112 28q-59 0 -105 -30q-48 -31 -72 -89
t-24 -135t24 -135q24 -57 74 -88q51 -31 111 -31q85 0 135 50t53 122h-227v148z" />
    <glyph glyph-name="i.loclTRK" horiz-adv-x="548" 
d="M401 0h-256v1104h256v-1104zM408 1274h-269v282h269v-282z" />
    <glyph glyph-name="uni006A0301" horiz-adv-x="548" 
d="M-57 -401l-2 190h53q73 0 112 31q37 30 37 110v1174h256v-1186q0 -107 -45 -178q-45 -72 -127 -107q-78 -34 -186 -34h-98zM399 1241h-237l233 315h348z" />
    <glyph glyph-name="germandbls.calt" horiz-adv-x="1587" 
d="M1022 926l-8 -11q138 -12 248 -67q109 -55 174 -154q65 -100 65 -235q0 -153 -69 -262t-193 -168q-122 -58 -281 -58q-78 0 -145 13q-61 12 -129 36v207q62 -23 111 -34q60 -13 127 -13q91 0 163 35q71 35 111 98q39 62 39 150q0 95 -53 160q-53 66 -146 96
q-95 31 -207 31h-59v231l332 348h-660v-1329h-264v1556h1182v-276z" />
    <glyph glyph-name="a.ss04" horiz-adv-x="1325" 
d="M926 1104l252 -2v-1104h-254v235q-34 -77 -93 -135q-57 -58 -131 -92q-70 -33 -155 -33q-132 0 -238 74q-105 73 -164 207q-59 133 -59 299q0 164 59 297q58 131 164 205q104 73 238 73q100 0 172 -38q77 -40 129 -105q53 -66 80 -141v260zM797 201l-4 -2q65 48 100 137
q35 90 35 213q0 124 -33 209q-35 89 -100 137q-67 49 -162 49t-162 -49q-65 -48 -100 -137q-33 -85 -33 -209q0 -121 35 -211q35 -89 100 -137q67 -49 162 -49t162 49z" />
    <glyph glyph-name="aacute.ss04" horiz-adv-x="1325" 
d="M926 1104l252 -2v-1104h-254v235q-34 -77 -93 -135q-57 -58 -131 -92q-70 -33 -155 -33q-132 0 -238 74q-105 73 -164 207q-59 133 -59 299q0 164 59 297q58 131 164 205q104 73 238 73q100 0 172 -38q77 -40 129 -105q53 -66 80 -141v260zM797 201l-4 -2q65 48 100 137
q35 90 35 213q0 124 -33 209q-35 89 -100 137q-67 49 -162 49t-162 -49q-65 -48 -100 -137q-33 -85 -33 -209q0 -121 35 -211q35 -89 100 -137q67 -49 162 -49t162 49zM715 1235h-238l234 315h348z" />
    <glyph glyph-name="abreve.ss04" horiz-adv-x="1325" 
d="M926 1104l252 -2v-1104h-254v235q-34 -77 -93 -135q-57 -58 -131 -92q-70 -33 -155 -33q-132 0 -238 74q-105 73 -164 207q-59 133 -59 299q0 164 59 297q58 131 164 205q104 73 238 73q100 0 172 -38q77 -40 129 -105q53 -66 80 -141v260zM797 201l-4 -2q65 48 100 137
q35 90 35 213q0 124 -33 209q-35 89 -100 137q-67 49 -162 49t-162 -49q-65 -48 -100 -137q-33 -85 -33 -209q0 -121 35 -211q35 -89 100 -137q67 -49 162 -49t162 49zM434 1270h4q-80 44 -123 116q-43 73 -43 164h193q0 -77 41 -118q39 -39 117 -39q73 0 114 41t41 116h195
q0 -91 -43 -164q-43 -72 -123 -116q-79 -43 -186 -43q-108 0 -187 43z" />
    <glyph glyph-name="acircumflex.ss04" horiz-adv-x="1325" 
d="M926 1104l252 -2v-1104h-254v235q-34 -77 -93 -135q-57 -58 -131 -92q-70 -33 -155 -33q-132 0 -238 74q-105 73 -164 207q-59 133 -59 299q0 164 59 297q58 131 164 205q104 73 238 73q100 0 172 -38q77 -40 129 -105q53 -66 80 -141v260zM797 201l-4 -2q65 48 100 137
q35 90 35 213q0 124 -33 209q-35 89 -100 137q-67 49 -162 49t-162 -49q-65 -48 -100 -137q-33 -85 -33 -209q0 -121 35 -211q35 -89 100 -137q67 -49 162 -49t162 49zM780 1550l262 -315h-229l-197 203l-196 -203h-230l261 315h329z" />
    <glyph glyph-name="adieresis.ss04" horiz-adv-x="1325" 
d="M926 1104l252 -2v-1104h-254v235q-34 -77 -93 -135q-57 -58 -131 -92q-70 -33 -155 -33q-132 0 -238 74q-105 73 -164 207q-59 133 -59 299q0 164 59 297q58 131 164 205q104 73 238 73q100 0 172 -38q77 -40 129 -105q53 -66 80 -141v260zM797 201l-4 -2q65 48 100 137
q35 90 35 213q0 124 -33 209q-35 89 -100 137q-67 49 -162 49t-162 -49q-65 -48 -100 -137q-33 -85 -33 -209q0 -121 35 -211q35 -89 100 -137q67 -49 162 -49t162 49zM524 1268h-268v282h268v-282zM977 1268h-268v282h268v-282z" />
    <glyph glyph-name="uni1EA1.ss04" horiz-adv-x="1325" 
d="M926 1104l252 -2v-1104h-254v235q-34 -77 -93 -135q-57 -58 -131 -92q-70 -33 -155 -33q-132 0 -238 74q-105 73 -164 207q-59 133 -59 299q0 164 59 297q58 131 164 205q104 73 238 73q100 0 172 -38q77 -40 129 -105q53 -66 80 -141v260zM797 201l-4 -2q65 48 100 137
q35 90 35 213q0 124 -33 209q-35 89 -100 137q-67 49 -162 49t-162 -49q-65 -48 -100 -137q-33 -85 -33 -209q0 -121 35 -211q35 -89 100 -137q67 -49 162 -49t162 49zM797 -414h-269v283h269v-283z" />
    <glyph glyph-name="agrave.ss04" horiz-adv-x="1325" 
d="M926 1104l252 -2v-1104h-254v235q-34 -77 -93 -135q-57 -58 -131 -92q-70 -33 -155 -33q-132 0 -238 74q-105 73 -164 207q-59 133 -59 299q0 164 59 297q58 131 164 205q104 73 238 73q100 0 172 -38q77 -40 129 -105q53 -66 80 -141v260zM797 201l-4 -2q65 48 100 137
q35 90 35 213q0 124 -33 209q-35 89 -100 137q-67 49 -162 49t-162 -49q-65 -48 -100 -137q-33 -85 -33 -209q0 -121 35 -211q35 -89 100 -137q67 -49 162 -49t162 49zM756 1235h-238l-344 315h348z" />
    <glyph glyph-name="amacron.ss04" horiz-adv-x="1325" 
d="M926 1104l252 -2v-1104h-254v235q-34 -77 -93 -135q-57 -58 -131 -92q-70 -33 -155 -33q-132 0 -238 74q-105 73 -164 207q-59 133 -59 299q0 164 59 297q58 131 164 205q104 73 238 73q100 0 172 -38q77 -40 129 -105q53 -66 80 -141v260zM797 201l-4 -2q65 48 100 137
q35 90 35 213q0 124 -33 209q-35 89 -100 137q-67 49 -162 49t-162 -49q-65 -48 -100 -137q-33 -85 -33 -209q0 -121 35 -211q35 -89 100 -137q67 -49 162 -49t162 49zM989 1294h-745v187h745v-187z" />
    <glyph glyph-name="aogonek.ss04" horiz-adv-x="1325" 
d="M1180 0l-2 -2q-179 -71 -179 -166q0 -38 31 -57q32 -19 86 -19h60v-170h-89q-145 0 -227 49t-82 144q0 69 37 121q35 49 109 98v235q-34 -77 -93 -135q-57 -58 -131 -92q-70 -33 -155 -33q-132 0 -238 74q-105 73 -164 207q-59 133 -59 299q0 164 59 297q58 131 164 205
q104 73 238 73q100 0 172 -38q77 -40 129 -105q53 -66 80 -141v260h254v-1104zM797 201l-4 -2q65 48 100 137q35 90 35 213q0 124 -33 209q-35 89 -100 137q-67 49 -162 49t-162 -49q-65 -48 -100 -137q-33 -85 -33 -209q0 -121 35 -211q35 -89 100 -137q67 -49 162 -49
t162 49z" />
    <glyph glyph-name="aring.ss04" horiz-adv-x="1325" 
d="M926 1104l252 -2v-1104h-254v235q-34 -77 -93 -135q-57 -58 -131 -92q-70 -33 -155 -33q-132 0 -238 74q-105 73 -164 207q-59 133 -59 299q0 164 59 297q58 131 164 205q104 73 238 73q100 0 172 -38q77 -40 129 -105q53 -66 80 -141v260zM797 201l-4 -2q65 48 100 137
q35 90 35 213q0 124 -33 209q-35 89 -100 137q-67 49 -162 49t-162 -49q-65 -48 -100 -137q-33 -85 -33 -209q0 -121 35 -211q35 -89 100 -137q67 -49 162 -49t162 49zM496 1260v-5q-55 34 -86 91t-31 120q0 64 31 121q30 56 86 86q57 31 120 31q64 0 121 -31q52 -28 88 -86
q33 -53 33 -119q0 -67 -33 -120q-34 -54 -88 -88q-53 -33 -121 -33q-67 0 -120 33zM682 1399h-4q29 29 29 67q0 41 -27 68t-68 27q-40 0 -67 -27t-27 -68q0 -38 29 -67t67 -29q39 0 68 29z" />
    <glyph glyph-name="atilde.ss04" horiz-adv-x="1325" 
d="M926 1104l252 -2v-1104h-254v235q-34 -77 -93 -135q-57 -58 -131 -92q-70 -33 -155 -33q-132 0 -238 74q-105 73 -164 207q-59 133 -59 299q0 164 59 297q58 131 164 205q104 73 238 73q100 0 172 -38q77 -40 129 -105q53 -66 80 -141v260zM797 201l-4 -2q65 48 100 137
q35 90 35 213q0 124 -33 209q-35 89 -100 137q-67 49 -162 49t-162 -49q-65 -48 -100 -137q-33 -85 -33 -209q0 -121 35 -211q35 -89 100 -137q67 -49 162 -49t162 49zM274 1272h-4q3 124 58 188q57 66 143 66q37 0 78 -13q37 -12 78 -30q62 -33 121 -33q48 0 81 23t41 61
h86q-3 -125 -57 -188q-57 -66 -143 -66q-73 0 -156 45q-70 33 -119 33t-80 -25q-32 -25 -43 -61h-84z" />
    <glyph glyph-name="y.ss05" horiz-adv-x="1171" 
d="M604 287l295 817h266l-561 -1505h-268l147 395l-491 1110h274z" />
    <glyph glyph-name="yacute.ss05" horiz-adv-x="1171" 
d="M604 287l295 817h266l-561 -1505h-268l147 395l-491 1110h274zM682 1241h-238l234 315h348z" />
    <glyph glyph-name="ycircumflex.ss05" horiz-adv-x="1171" 
d="M604 287l295 817h266l-561 -1505h-268l147 395l-491 1110h274zM748 1556l262 -315h-230l-196 203l-197 -203h-229l260 315h330z" />
    </font>
</defs>
</svg>
