<?xml version="1.0" standalone="no"?>
<!DOCTYPE svg PUBLIC "-//W3C//DTD SVG 1.1//EN" "http://www.w3.org/Graphics/SVG/1.1/DTD/svg11.dtd" >
<svg xmlns="http://www.w3.org/2000/svg" xmlns:xlink="http://www.w3.org/1999/xlink" version="1.1">
<metadata>
Created by FontForge 20170731 at Fri Apr 21 21:41:40 2023
 By Aleksey,,,
(c) 2014-2020. Copyright by TYPE.WELTKERN :. All rights reserved.
</metadata>
<defs>
<font id="TWKEverett-SuperItalic" horiz-adv-x="1536" >
  <font-face 
    font-family="TWK Everett"
    font-weight="900"
    font-style="italic"
    font-stretch="normal"
    units-per-em="2048"
    panose-1="2 11 2 4 0 0 0 0 0 0"
    ascent="1638"
    descent="-410"
    x-height="1137"
    cap-height="1556"
    bbox="-2066 -707 7145 2308"
    underline-thickness="352"
    underline-position="-884"
    slope="-12"
    unicode-range="U+000D-FEFF"
  />
<missing-glyph horiz-adv-x="1570" 
d="M1346 0h-1362l331 1556h1362zM745 1147l-155 -737h325l156 737h-326z" />
    <glyph glyph-name="fi" unicode="fi" horiz-adv-x="1622" 
d="M1661 1137l-244 -1135h-518l164 774h-309l-164 -774h-518l164 774h-154l78 363h153l9 41q40 190 172 284q133 95 380 95h244l-74 -347h-92q-53 0 -80 -18q-26 -18 -38 -57h827zM1157 1219l72 340h518l-72 -340h-518z" />
    <glyph glyph-name="fl" unicode="fl" horiz-adv-x="1622" 
d="M1419 0l-520 2l256 1210h-205q-53 0 -80 -18q-28 -18 -39 -57h195l-78 -363h-194l-164 -774h-518l164 774h-154l78 363h153l9 41q40 190 172 284q131 94 380 94h875z" />
    <glyph glyph-name="W_W_W" unicode="WWW" horiz-adv-x="6973" 
d="M6222 186l430 1370h493l-509 -1556h-863l176 1409l-409 -1409h-858l127 1411l-463 -1411h-862l176 1409l-410 -1409h-858l127 1411l-463 -1411h-862l176 1409l-409 -1409h-859l140 1556h475l-144 -1370l416 1370h811l-158 -1370l431 1370h933l-143 -1370l416 1370h811
l-158 -1370l430 1370h934l-143 -1370l416 1370h811z" />
    <glyph glyph-name="f_f" unicode="ff" horiz-adv-x="1880" 
d="M1892 1210l-4 4q-53 0 -80 -18q-28 -18 -39 -57h195l-78 -363h-194l-164 -774h-518l164 774h-422l-164 -774h-518l163 774h-153l78 363h153l8 41q40 189 173 284t380 95h244l-74 -347h-92q-53 0 -80 -18q-28 -18 -39 -57h422l9 41q40 190 172 284q131 94 381 94h243
l-73 -346h-93z" />
    <glyph glyph-name="f_f_i" unicode="ffi" horiz-adv-x="2562" 
d="M2359 0l-522 4l164 774h-309l-164 -774h-518l164 774h-422l-164 -774h-518l163 774h-153l78 363h153l8 41q40 189 173 284t380 95h244l-74 -347h-92q-53 0 -80 -18q-28 -18 -39 -57h422l9 41q40 190 172 284q133 95 381 95h243l-73 -347h-93q-53 0 -80 -18
q-26 -18 -38 -57h827zM2095 1221l72 340h518l-72 -340h-518z" />
    <glyph glyph-name="f_f_l" unicode="ffl" horiz-adv-x="2562" 
d="M2171 1556l514 5l-330 -1557h-518l164 774h-309l-164 -774h-518l164 774h-422l-164 -774h-518l163 774h-153l78 363h153l8 41q40 189 173 284t380 95h244l-74 -347h-92q-53 0 -80 -18q-28 -18 -39 -57h422l9 41q40 190 172 284q133 95 381 95h243l-73 -347h-93
q-53 0 -80 -18q-26 -18 -38 -57h309z" />
    <glyph glyph-name="f_j" unicode="fj" horiz-adv-x="1622" 
d="M1661 1137l-250 -1160q-40 -190 -170 -282t-377 -92h-192l78 362h38q56 0 86 23q28 22 37 73l152 715h-309l-164 -774h-518l164 774h-154l78 363h153l9 41q40 190 172 284q133 95 380 95h244l-74 -347h-92q-53 0 -80 -18q-26 -18 -38 -57h827zM1157 1223l72 340h518
l-72 -340h-518z" />
    <glyph glyph-name="f_t" unicode="ft" horiz-adv-x="1892" 
d="M1690 774l-74 -325q-4 -28 -4 -33q0 -32 20 -43q23 -13 68 -13h84l-78 -362h-248q-114 0 -196 33q-88 36 -136 98q-49 64 -49 158q0 40 10 98l84 391h-417l-164 -774h-518l164 774h-154l78 363h153l9 41q40 190 172 284q133 95 380 95h244l-74 -347h-92q-53 0 -80 -18
q-26 -18 -38 -57h415l58 268h518l-58 -268h187l-78 -363h-186z" />
    <glyph glyph-name="t_f" unicode="tf" horiz-adv-x="1892" 
d="M1905 1210l-7 -4q-52 0 -79 -18t-39 -58h194l-78 -362h-194l-164 -774h-518l164 774h-441l-67 -322q-4 -28 -4 -32q0 -32 20 -43q23 -13 68 -13h84l-78 -362h-248q-114 0 -196 33q-88 36 -136 98q-49 64 -49 158q0 40 10 98l84 391h-163l77 363h162l58 268h518l-58 -268
h441l8 41q40 190 172 284q131 94 381 94h244l-74 -346h-92z" />
    <glyph glyph-name="t_t" unicode="tt" horiz-adv-x="1904" 
d="M1702 774l-76 -334q-4 -28 -4 -32q0 -32 20 -43q23 -13 68 -13h84l-78 -362h-248q-114 0 -196 33q-87 35 -135 98q-50 65 -50 158q0 34 11 98l84 391h-437l-67 -322q-4 -28 -4 -32q0 -32 20 -43q23 -13 68 -13h84l-78 -362h-248q-114 0 -196 33q-88 36 -136 98
q-49 64 -49 158q0 34 11 98l83 391h-163l77 363h162l58 268h518l-58 -268h435l57 268h518l-57 -268h186l-78 -363h-186z" />
    <glyph glyph-name="w_w_w" unicode="www" horiz-adv-x="5605" 
d="M4977 176l286 961h426l-356 -1137h-743l139 977l-277 -977h-753l106 975l-305 -975h-743l139 977l-277 -977h-753l106 975l-305 -975h-743l139 977l-277 -977h-753l125 1137h420l-119 -961l286 961h685l-119 -961l286 961h813l-118 -961l286 961h684l-118 -961l286 961
h813l-118 -961l286 961h684z" />
    <glyph glyph-name=".notdef" horiz-adv-x="1570" 
d="M1346 0h-1362l331 1556h1362zM745 1147l-155 -737h325l156 737h-326z" />
    <glyph glyph-name=".null" horiz-adv-x="0" 
 />
    <glyph glyph-name="nonmarkingreturn" unicode="&#xd;" horiz-adv-x="409" 
 />
    <glyph glyph-name="space" unicode=" " horiz-adv-x="409" 
 />
    <glyph glyph-name="exclam" unicode="!" horiz-adv-x="720" 
d="M565 551h-418l121 1005h606zM504 0h-518l92 430h518z" />
    <glyph glyph-name="quotedbl" unicode="&#x22;" horiz-adv-x="1167" 
d="M541 813h-379l96 743h506zM1100 813h-379l96 743h506z" />
    <glyph glyph-name="numbersign" unicode="#" horiz-adv-x="1695" 
d="M1747 1137l-64 -297h-315l-84 -201h254l-63 -297h-316l-143 -342h-365l144 342h-217l-144 -342h-364l143 342h-193l64 297h254l84 201h-193l64 297h254l176 419h364l-176 -419h217l177 419h364l-176 -419h254zM702 639h218l84 201h-218z" />
    <glyph glyph-name="dollar" unicode="$" horiz-adv-x="1476" 
d="M1098 967l-17 -11q106 -36 170 -100q69 -69 99 -154q30 -86 30 -167q0 -147 -61 -263q-62 -118 -178 -194q-120 -79 -283 -105l-53 -249h-526l65 303q-138 64 -217 184q-79 119 -88 283h532q12 -85 56 -123q43 -37 118 -37q67 0 103 26q37 27 37 68t-33 61
q-38 23 -107 43l-241 76q-152 47 -234 154q-84 110 -84 276q0 123 60 234q59 109 168 184q112 77 260 111l53 250h526l-59 -281q238 -101 303 -412h-532q-9 41 -50 68t-92 27q-57 0 -94 -21t-37 -61q0 -29 37 -47q53 -25 127 -48z" />
    <glyph glyph-name="percent" unicode="%" horiz-adv-x="2164" 
d="M248 782l-2 -2q-88 88 -88 240t55 280q57 133 168 207q116 78 276 78q117 0 191 -39q78 -41 117 -112q41 -74 41 -174q0 -151 -56 -281q-57 -133 -168 -207q-116 -78 -276 -78q-170 0 -258 88zM731 -2h-452l1234 1556h453zM606 1006l-4 2q33 65 47 135q17 87 17 123
q0 63 -48 63q-41 0 -71 -59q-30 -58 -45 -135t-15 -125q0 -64 45 -64q43 0 74 60zM1327 57l-2 -2q-88 88 -88 240t55 280q57 133 168 207q116 78 277 78q116 0 190 -39q78 -41 117 -112q41 -74 41 -174q0 -153 -55 -281q-57 -133 -168 -207q-116 -78 -277 -78
q-170 0 -258 88zM1688 281l-5 2q35 68 48 135q16 82 16 123q0 63 -47 63q-42 0 -72 -59t-45 -135q-14 -71 -14 -125q0 -64 45 -64q43 0 74 60z" />
    <glyph glyph-name="ampersand" unicode="&#x26;" horiz-adv-x="1656" 
d="M1409 449l10 -17q-25 -35 -86 -102l236 -346h-535l-49 71q-200 -102 -422 -102q-168 0 -295 53q-123 51 -192 148q-68 95 -68 217q0 157 109 278q107 119 319 221q-59 89 -86 154q-26 62 -26 129q0 123 82 221q82 99 229 154q146 55 332 55q170 0 286 -49
q118 -50 177 -133t59 -184q0 -96 -55 -166q-56 -71 -148 -127q-87 -53 -235 -119l-33 -14l108 -156l181 229h430zM856 1210v-4q-27 -30 -27 -78q0 -38 19 -84l8 5q79 35 107 61q30 27 30 68q0 27 -18 45t-49 18q-42 0 -70 -31zM813 305l-180 268q-62 -46 -80 -81
q-21 -40 -21 -86q0 -58 37 -95t101 -37t143 31z" />
    <glyph glyph-name="quotesingle" unicode="'" horiz-adv-x="608" 
d="M541 813h-379l96 743h506z" />
    <glyph glyph-name="parenleft" unicode="(" horiz-adv-x="860" 
d="M166 -401l2 -2q-70 156 -109 313q-41 166 -41 344q0 359 142 684q139 319 405 616h551q-279 -318 -428 -628q-153 -320 -153 -670q0 -191 38 -344q40 -162 105 -313h-512z" />
    <glyph glyph-name="parenright" unicode=")" horiz-adv-x="858" 
d="M-254 -401h-2q277 315 428 630q154 322 154 670q0 187 -39 344q-40 162 -105 313h512q70 -156 109 -313q41 -166 41 -344q0 -359 -142 -684q-139 -319 -405 -616h-551z" />
    <glyph glyph-name="asterisk" unicode="*" horiz-adv-x="983" 
d="M1034 1597l35 -272l-186 -22l88 -181l-262 -118l-93 188l-161 -135l-193 215l154 129l-162 96l147 236l160 -95l35 170l287 -61l-35 -172z" />
    <glyph glyph-name="plus" unicode="+" horiz-adv-x="1329" 
d="M860 760h373v-377h-373v-383h-391v383h-373v377h373v377h391v-377z" />
    <glyph glyph-name="comma" unicode="," horiz-adv-x="702" 
d="M-29 0l92 430h519l-105 -489l-229 -252h-332l219 311h-164z" />
    <glyph glyph-name="hyphen" unicode="-" horiz-adv-x="901" 
d="M776 387h-729l88 416h729z" />
    <glyph glyph-name="period" unicode="." horiz-adv-x="702" 
d="M489 0h-518l92 430h519z" />
    <glyph glyph-name="slash" unicode="/" horiz-adv-x="1337" 
d="M492 0h-570l1014 1556h569z" />
    <glyph glyph-name="zero" unicode="0" horiz-adv-x="1576" 
d="M371 39l-2 -2q-140 71 -213 203q-74 133 -74 313q0 280 98 512q99 233 299 375q199 141 492 141q188 0 325 -70q140 -72 213 -202q74 -133 74 -314q0 -280 -98 -512q-99 -234 -297 -374q-201 -142 -492 -142q-184 0 -325 72zM913 469l-2 -2q73 114 111 270q37 154 37 277
q0 89 -33 133q-35 47 -104 47q-101 0 -174 -113q-74 -114 -111 -270q-37 -154 -37 -276q0 -90 33 -134q35 -47 104 -47q102 0 176 115z" />
    <glyph glyph-name="one" unicode="1" horiz-adv-x="995" 
d="M637 1556l461 -2l-330 -1556h-528l196 924h-344l88 409h10q117 0 203 25q87 25 139 69q54 46 99 121z" />
    <glyph glyph-name="two" unicode="2" horiz-adv-x="1482" 
d="M709 410l669 -4l-88 -410h-1347l108 510l801 473q74 43 102 72q29 29 29 61q0 36 -29 59q-30 23 -73 23q-65 0 -111 -37q-45 -36 -57 -100h-533q35 157 135 274q101 118 256 187q152 67 334 67q190 0 326 -53q139 -54 207 -150q71 -100 71 -227q0 -175 -86 -287
q-87 -112 -235 -194z" />
    <glyph glyph-name="three" unicode="3" horiz-adv-x="1474" 
d="M1434 975l2 -2q-67 -73 -176 -117q-106 -43 -234 -61q103 -21 184 -70q85 -51 133 -119q50 -71 50 -153q0 -130 -72 -240q-71 -109 -229 -176q-160 -68 -408 -68q-190 0 -340 66q-148 65 -233 184q-86 121 -101 289h533q9 -76 49 -113t121 -37q72 0 114 31q41 30 41 86
q0 115 -231 115h-131l82 409h137q141 0 199 27q57 26 57 80q0 41 -37 65q-39 25 -94 25q-139 0 -166 -123h-532q21 147 122 262q103 118 258 185t349 67q171 0 311 -55q145 -57 225 -156q84 -104 84 -227q0 -101 -67 -174z" />
    <glyph glyph-name="four" unicode="4" horiz-adv-x="1542" 
d="M1333 739h193l-86 -409h-193l-69 -330h-529l70 330h-725l108 510l469 716h936zM938 1362l-408 -623h275z" />
    <glyph glyph-name="five" unicode="5" horiz-adv-x="1511" 
d="M1468 1147l-694 2l-94 -315q58 106 160 174q101 67 227 67q114 0 203 -53t141 -154q51 -99 51 -233q0 -194 -86 -342q-87 -150 -260 -234q-177 -86 -430 -86q-189 0 -334 68t-227 190t-88 287h532q3 -65 47 -112q43 -46 115 -46q61 0 109 25q47 24 71 74q25 52 25 112
q0 61 -39 97q-40 37 -106 37q-63 0 -117 -31q-51 -29 -82 -86l-516 41l278 927h1200z" />
    <glyph glyph-name="six" unicode="6" horiz-adv-x="1529" 
d="M1251 985l-4 -2q108 -62 164 -170q55 -107 55 -246q0 -160 -100 -295q-103 -140 -279 -221q-177 -82 -395 -82q-175 0 -315 70q-141 71 -221 209q-80 139 -80 336q0 262 110 491t314 371q203 141 471 141q172 0 295 -57q127 -59 200 -166q77 -113 97 -252h-533
q-6 40 -37 62t-80 22q-106 0 -184 -90q-76 -88 -117 -277q59 100 160 158q105 60 221 60q149 0 258 -62zM834 381v-2q48 23 79 65t31 93q0 65 -43 102t-110 37q-58 0 -113 -25q-51 -23 -82 -65t-31 -92q0 -65 45 -101q46 -37 113 -37q59 0 111 25z" />
    <glyph glyph-name="seven" unicode="7" horiz-adv-x="1273" 
d="M158 1147l86 409h1183l-108 -509l-707 -1047h-663l839 1147h-630z" />
    <glyph glyph-name="eight" unicode="8" horiz-adv-x="1564" 
d="M1329 717h-2q77 -53 117 -123q41 -71 41 -148q0 -134 -96 -247q-93 -109 -275 -172q-180 -62 -418 -62q-198 0 -350 55q-157 57 -240 156q-86 103 -86 227q0 162 136 265q133 100 360 135q-149 53 -225 129q-78 78 -78 201q0 127 96 231q93 101 262 160q168 59 371 59
q201 0 344 -55q144 -55 219 -152q74 -95 74 -219q0 -96 -55 -172q-55 -75 -154 -125q-98 -49 -223 -67q107 -24 182 -76zM1020 993q55 37 55 94q0 50 -43 80q-45 31 -121 31q-90 0 -145 -37t-55 -94q0 -50 43 -80q45 -31 120 -31q91 0 146 37zM901 393h-2q64 37 64 99
q0 51 -50 86q-46 32 -131 32q-114 0 -178 -37q-63 -37 -63 -98q0 -52 49 -86q47 -33 133 -33q114 0 178 37z" />
    <glyph glyph-name="nine" unicode="9" horiz-adv-x="1529" 
d="M1235 1518h-2q141 -71 221 -209q80 -139 80 -336q0 -261 -111 -492q-110 -229 -313 -370q-204 -142 -471 -142q-170 0 -295 58q-126 58 -199 166q-76 111 -96 251h533q6 -40 36 -61t80 -21q106 0 185 91q75 87 116 276q-60 -101 -159 -158q-103 -59 -222 -59
q-151 0 -258 61t-163 170t-56 246q0 158 101 295q104 141 278 221q177 82 398 82q179 0 317 -69zM934 903v-2q50 23 82 66q31 42 31 92q0 65 -46 102t-112 37q-61 0 -111 -24q-49 -24 -80 -66q-30 -40 -30 -92q0 -64 43 -101q42 -36 110 -36q60 0 113 24z" />
    <glyph glyph-name="colon" unicode=":" horiz-adv-x="702" 
d="M489 0h-518l92 430h519zM639 707h-518l92 430h518z" />
    <glyph glyph-name="semicolon" unicode=";" horiz-adv-x="704" 
d="M-29 0l92 430h519l-105 -489l-229 -252h-332l219 311h-164zM641 707h-518l92 430h518z" />
    <glyph glyph-name="less" unicode="&#x3c;" horiz-adv-x="1331" 
d="M127 887l1049 219v-393l-775 -142l775 -141v-393l-1049 219v631z" />
    <glyph glyph-name="equal" unicode="=" horiz-adv-x="1376" 
d="M1239 623h-1098v376h1098v-376zM1239 150h-1098v376h1098v-376z" />
    <glyph glyph-name="greater" unicode="&#x3e;" horiz-adv-x="1333" 
d="M158 713v393l1048 -219v-631l-1048 -219v393l774 141z" />
    <glyph glyph-name="question" unicode="?" horiz-adv-x="1353" 
d="M389 551h-2q20 105 72 188q51 82 133 146l162 125q49 37 80 65t43 43t12 35q0 49 -86 49q-40 0 -70 -18q-29 -18 -39 -47h-532q47 215 223 331q179 117 483 117q178 0 306 -41q125 -40 190 -117q66 -78 66 -178q0 -125 -58 -213q-60 -91 -166 -172l-162 -125
q-65 -52 -90 -88q-32 -46 -43 -100h-522zM795 0h-519l93 430h518z" />
    <glyph glyph-name="at" unicode="@" horiz-adv-x="1906" 
d="M1501 1292l-12 -4q176 -95 270 -260q94 -166 94 -379q0 -178 -63 -319q-66 -148 -186 -228q-125 -84 -299 -84q-116 0 -189 43q-70 42 -106 121q-45 -68 -136 -116q-88 -46 -202 -46q-75 0 -142 31q-60 28 -100 90q-37 58 -37 135q0 158 111 232q113 75 305 90l238 20
l2 7q6 27 6 43q0 34 -19 53q-18 18 -57 18q-96 0 -123 -88h-360q30 102 104 170q76 69 172 103q98 34 213 34q199 0 315 -73q117 -73 117 -219q0 -39 -10 -91l-33 -151q-8 -36 -8 -66q0 -41 14 -61q15 -21 50 -21q52 0 86 52q34 51 49 129q16 82 16 153q0 146 -57 260
q-59 118 -178 185t-302 67q-213 0 -385 -106q-173 -106 -276 -287q-102 -179 -102 -387q0 -257 135 -383q134 -125 389 -125q85 0 172 19q84 18 153 55l93 -227q-117 -59 -230 -84q-129 -29 -235 -29q-229 0 -400 98q-174 100 -264 264q-92 167 -92 367q0 308 150 557
q151 251 401 391q252 141 541 141q232 0 407 -94zM934 276q44 50 65 138l-106 -11q-137 -9 -137 -102q0 -36 22 -55t53 -19q60 0 103 49z" />
    <glyph glyph-name="A" unicode="A" horiz-adv-x="1734" 
d="M1632 0h-530l-12 330h-515l-153 -330h-563l774 1556h891zM1053 1356l-283 -606h305z" />
    <glyph glyph-name="B" unicode="B" horiz-adv-x="1601" 
d="M1434 678v-4q104 -82 104 -225q0 -145 -92 -248q-90 -101 -262 -154q-165 -51 -404 -51h-796l329 1556h758q274 0 406 -100q135 -102 135 -285q0 -111 -64 -190t-168 -125t-227 -64q175 -27 281 -110zM1038 1130q-33 23 -84 23h-192l-43 -199h190q72 0 117 31
q43 30 43 84q0 39 -31 61zM827 395h-2q79 0 123 33q45 33 45 88q0 47 -30 74q-29 26 -84 26h-232l-47 -221h227z" />
    <glyph glyph-name="C" unicode="C" horiz-adv-x="1685" 
d="M420 41l2 -2q-162 70 -254 215t-92 356q0 234 121 461q120 224 338 369q216 143 497 143q217 0 379 -78q161 -77 246 -215q87 -141 96 -313h-553q-15 207 -211 207q-105 0 -192 -78q-85 -76 -135 -209t-50 -289q0 -114 58 -178q57 -63 159 -63q96 0 172 55q78 56 121 158
h553q-88 -292 -313 -451q-226 -160 -574 -160q-201 0 -368 72z" />
    <glyph glyph-name="D" unicode="D" horiz-adv-x="1644" 
d="M891 1556l-4 -2q201 0 375 -71q170 -69 276 -215q104 -143 104 -350q0 -331 -137 -535q-139 -207 -362 -295q-224 -88 -498 -88h-661l329 1556h578zM686 418l-4 -2q129 0 221 59q91 58 141 164t50 246q0 76 -31 133q-30 56 -86 86q-57 31 -127 31h-94l-154 -717h84z" />
    <glyph glyph-name="E" unicode="E" horiz-adv-x="1372" 
d="M1489 1556l-90 -419h-639l-31 -138h627l-90 -419h-625l-35 -160h660l-90 -420h-1192l329 1556h1176z" />
    <glyph glyph-name="F" unicode="F" horiz-adv-x="1325" 
d="M1454 1556l-90 -419h-604l-35 -160h592l-90 -420h-590l-119 -557h-534l329 1556h1141z" />
    <glyph glyph-name="G" unicode="G" horiz-adv-x="1789" 
d="M905 954l881 4l-203 -954h-430l70 326q-79 -155 -209 -258q-128 -101 -340 -101q-154 0 -295 72q-139 71 -225 219t-86 359q0 237 122 460q124 227 347 367q225 141 510 141q230 0 385 -73q159 -75 243 -193q89 -124 109 -264h-553q-21 64 -70 98q-47 33 -137 33
q-128 0 -219 -76q-92 -77 -141 -205q-50 -130 -50 -286q0 -118 72 -187q70 -67 195 -67q81 0 145 24t109 72q43 46 61 104h-373z" />
    <glyph glyph-name="H" unicode="H" horiz-adv-x="1650" 
d="M1110 1024l113 532h534l-330 -1556h-534l117 549h-375l-117 -549h-534l329 1556h535l-113 -532h375z" />
    <glyph glyph-name="I" unicode="I" horiz-adv-x="741" 
d="M518 0h-534l329 1556h535z" />
    <glyph glyph-name="J" unicode="J" horiz-adv-x="948" 
d="M-88 0l86 420h158q52 0 82 12q32 13 47 37q15 23 24 72l215 1013h535l-238 -1120q-36 -156 -100 -246q-67 -94 -189 -141q-121 -47 -307 -47h-313z" />
    <glyph glyph-name="K" unicode="K" horiz-adv-x="1585" 
d="M1171 1556h641l-616 -780l313 -776h-583l-254 721l-154 -721h-534l329 1556h535l-131 -622z" />
    <glyph glyph-name="L" unicode="L" horiz-adv-x="1265" 
d="M848 1556l-242 -1136h600l-90 -420h-1132l329 1556h535z" />
    <glyph glyph-name="M" unicode="M" horiz-adv-x="2334" 
d="M2441 1556l-330 -1556h-481l293 1382l-487 -1382h-772l94 1384l-293 -1384h-481l329 1556h887l-115 -1339l443 1339h913z" />
    <glyph glyph-name="N" unicode="N" horiz-adv-x="1845" 
d="M1186 209l284 1347h482l-330 -1556h-881l9 1348l-285 -1348h-481l329 1556h881z" />
    <glyph glyph-name="O" unicode="O" horiz-adv-x="1763" 
d="M426 41v-4q-164 69 -260 219q-94 146 -94 362q0 232 121 459q120 225 342 367q220 141 507 141q213 0 383 -72q167 -71 261 -217t94 -362q0 -230 -121 -457q-119 -224 -342 -366q-222 -142 -508 -142q-213 0 -383 72zM1051 440l-4 -4q90 78 139 209t49 291q0 119 -57 182
q-60 66 -166 66q-121 0 -209 -76q-87 -75 -137 -209q-50 -133 -50 -291q0 -114 60 -180q57 -63 166 -63q122 0 209 75z" />
    <glyph glyph-name="P" unicode="P" horiz-adv-x="1511" 
d="M954 1556l4 3q179 0 324 -60q142 -59 221 -172q80 -115 80 -270q0 -162 -82 -293q-84 -134 -258 -213q-177 -80 -430 -80h-195l-100 -471h-534l329 1556h641zM872 883q53 0 95 22q41 22 59 58q18 37 18 75q0 52 -32 80q-36 31 -86 31h-160l-57 -266h163z" />
    <glyph glyph-name="Q" unicode="Q" horiz-adv-x="1781" 
d="M1812 0l-565 -2l-35 55q-186 -86 -403 -86q-213 0 -383 72q-164 69 -260 219q-94 146 -94 363q0 231 121 458q120 225 342 367q220 141 507 141q215 0 383 -71q166 -70 261 -218q94 -146 94 -362q0 -155 -51 -301q-52 -147 -148 -279zM985 399l-182 271h387
q41 125 41 268q0 119 -57 182q-60 66 -166 66q-121 0 -209 -76q-87 -75 -137 -209q-50 -133 -50 -291q0 -114 60 -180q57 -63 166 -63q82 0 147 32z" />
    <glyph glyph-name="R" unicode="R" horiz-adv-x="1622" 
d="M1520 782h-4q-85 -128 -252 -202l247 -582h-587l-179 496h-127l-104 -496h-534l329 1556h690q171 0 308 -55q141 -57 219 -166q80 -112 80 -260q0 -161 -86 -291zM1026 1124q-36 31 -86 31h-182l-58 -266h187q52 0 94 22q41 22 59 58q19 40 19 75q0 51 -33 80z" />
    <glyph glyph-name="S" unicode="S" horiz-adv-x="1523" 
d="M342 29l-10 -2q-161 59 -246 176q-86 118 -86 293h553q0 -160 209 -160q92 0 139 24t47 70q0 42 -35 66q-38 26 -116 49l-260 76q-180 53 -277 159q-98 107 -98 273q0 144 92 268q93 125 262 195q171 71 387 71q313 0 477 -123t185 -340h-553q-3 44 -47 68
q-45 25 -119 25q-73 0 -121 -23q-43 -21 -43 -61q0 -25 18 -43t56 -33q45 -18 114 -37l260 -76q108 -30 185 -92q76 -61 117 -145q38 -77 38 -177q0 -166 -84 -294q-83 -127 -251 -197t-414 -70q-216 0 -379 60z" />
    <glyph glyph-name="T" unicode="T" horiz-adv-x="1435" 
d="M240 1556h1372l-88 -419h-418l-242 -1137h-534l241 1137h-421z" />
    <glyph glyph-name="U" unicode="U" horiz-adv-x="1617" 
d="M381 31h-4q-147 61 -223 172q-76 110 -76 256q0 77 22 190l193 907h534l-215 -1013q-4 -28 -4 -43q0 -62 43 -99q42 -36 111 -36q98 0 156 61t79 162l205 966h535l-201 -942q-48 -225 -143 -360q-101 -143 -258 -213q-158 -70 -398 -70q-208 0 -356 62z" />
    <glyph glyph-name="V" unicode="V" horiz-adv-x="1656" 
d="M735 207l551 1349h588l-698 -1556h-936l-39 1556h549z" />
    <glyph glyph-name="W" unicode="W" horiz-adv-x="2394" 
d="M1642 186l431 1370h493l-510 -1556h-862l176 1409l-409 -1409h-859l140 1556h475l-144 -1370l416 1370h811z" />
    <glyph glyph-name="X" unicode="X" horiz-adv-x="1693" 
d="M1249 1556h664l-662 -745l367 -811h-600l-178 440l-346 -440h-654l688 823l-323 733h588l153 -382z" />
    <glyph glyph-name="Y" unicode="Y" horiz-adv-x="1554" 
d="M1178 1556h632l-768 -989l-120 -567h-535l129 610l-362 946h553l161 -483z" />
    <glyph glyph-name="Z" unicode="Z" horiz-adv-x="1482" 
d="M293 1556h1306l-112 -532l-772 -604h680l-90 -420h-1354l112 532l773 605h-631z" />
    <glyph glyph-name="bracketleft" unicode="[" horiz-adv-x="874" 
d="M1028 1556l-78 -362h-205l-262 -1233h205l-76 -362h-723l416 1957h723z" />
    <glyph glyph-name="backslash" unicode="\" horiz-adv-x="1265" 
d="M1116 0h-516l-360 1556h516z" />
    <glyph glyph-name="bracketright" unicode="]" horiz-adv-x="874" 
d="M190 1194l76 362h723l-416 -1957h-723l78 362h205l262 1233h-205z" />
    <glyph glyph-name="asciicircum" unicode="^" horiz-adv-x="1308" 
d="M1079 1556l219 -827h-481l-100 561l-101 -561h-481l219 827h725z" />
    <glyph glyph-name="underscore" unicode="_" horiz-adv-x="1220" 
d="M971 -362h-1112l78 362h1112z" />
    <glyph glyph-name="grave" unicode="`" horiz-adv-x="937" 
d="M1051 1217h-478l-337 339h671z" />
    <glyph glyph-name="a" unicode="a" horiz-adv-x="1384" 
d="M1196 1069l-4 -6q154 -100 154 -291q0 -46 -13 -113l-141 -665h-508l37 170q-61 -88 -156 -144q-94 -55 -221 -55q-102 0 -184 43q-83 44 -129 119q-47 77 -47 172q0 366 536 412l311 26v2q7 28 7 45q0 41 -21 62q-22 22 -61 22q-50 0 -80 -24q-32 -26 -47 -72h-512
q42 127 131 213q91 88 227 135t297 47q273 0 424 -98zM700 303h-6q51 57 72 152l-121 -11q-68 -6 -106 -36q-37 -30 -37 -76q0 -41 24 -62q25 -22 64 -22q61 0 110 55z" />
    <glyph glyph-name="b" unicode="b" horiz-adv-x="1427" 
d="M1233 1112v2q80 -56 123 -153q43 -98 43 -228q0 -198 -74 -375q-72 -173 -209 -282q-134 -107 -309 -107q-220 0 -297 221l-41 -190h-508l330 1556h508l-137 -647q53 112 151 185t225 73q116 0 195 -55zM774 358q49 58 74 152q24 91 24 188q0 142 -102 142
q-62 0 -113 -60q-48 -57 -73 -151q-25 -95 -25 -189q0 -141 103 -141q62 0 112 59z" />
    <glyph glyph-name="c" unicode="c" horiz-adv-x="1343" 
d="M291 29l4 4q-129 62 -197 170q-67 107 -67 252q0 188 90 354q88 162 262 262q171 98 403 98q168 0 293 -55q126 -56 197 -164q72 -110 72 -258h-512q0 71 -19 111q-18 37 -67 37q-57 0 -101 -62q-43 -61 -67 -155q-25 -98 -25 -191q0 -137 84 -137q47 0 88 41
q40 40 64 108h512q-45 -135 -142 -245q-95 -108 -239 -170q-145 -62 -332 -62q-171 0 -301 62z" />
    <glyph glyph-name="d" unicode="d" horiz-adv-x="1431" 
d="M1051 1556l510 -8l-330 -1556h-508l37 174q-53 -92 -142 -148q-88 -55 -208 -55q-114 0 -199 49q-87 50 -133 148q-47 100 -47 241q0 201 73 375t209 283q132 106 310 106q120 0 192 -69q73 -70 100 -174zM770 348q49 58 74 152q24 92 24 188q0 141 -102 141
q-63 0 -113 -59q-48 -57 -73 -152t-25 -188q0 -141 102 -141q63 0 113 59z" />
    <glyph glyph-name="e" unicode="e" horiz-adv-x="1359" 
d="M528 434v-16q0 -77 19 -117q18 -37 63 -37q38 0 70 19q29 18 57 59h512q-95 -189 -264 -283t-393 -94q-174 0 -301 62q-129 63 -195 172q-67 110 -67 254q0 184 90 350q87 160 262 264q169 100 403 100q263 0 406 -116q145 -118 145 -357q0 -64 -12 -125
q-11 -54 -37 -135h-758zM653 821l2 -2q-46 -43 -73 -117h245q13 37 13 62q0 47 -21 74q-20 26 -61 26q-59 0 -105 -43z" />
    <glyph glyph-name="f" unicode="f" horiz-adv-x="940" 
d="M952 1210l-2 2q-53 0 -80 -18q-28 -18 -39 -57h195l-78 -363h-194l-164 -774h-518l164 774h-154l78 363h153l9 41q40 190 172 284q131 94 380 94h244l-74 -346h-92z" />
    <glyph glyph-name="g" unicode="g" horiz-adv-x="1429" 
d="M965 1137h510l-240 -1127q-36 -155 -131 -250q-98 -98 -240 -145q-136 -45 -307 -45q-267 0 -424 92q-156 92 -174 285h512q9 -25 31 -37q21 -12 61 -12q66 0 111 39t57 100l39 188q-52 -89 -141 -147q-88 -58 -209 -58q-102 0 -193 54q-89 52 -141 147q-51 92 -51 221
q0 180 71 351q68 164 207 272q134 104 312 104q84 0 143 -36q60 -36 98 -93q40 -60 54 -116zM778 399v-2q49 55 74 140q25 86 25 172q0 129 -103 129q-61 0 -112 -54t-74 -137q-25 -89 -25 -174q0 -129 103 -129q63 0 112 55z" />
    <glyph glyph-name="h" unicode="h" horiz-adv-x="1396" 
d="M1233 1128l-4 -4q72 -40 106 -106q35 -68 35 -152q0 -74 -18 -157l-152 -713h-518l131 616q16 91 16 119q0 84 -65 84q-58 0 -98 -55q-41 -56 -68 -176l-125 -588h-518l330 1556h508l-140 -655q42 76 101 135q61 60 137 98q75 37 160 37q111 0 182 -39z" />
    <glyph glyph-name="i" unicode="i" horiz-adv-x="681" 
d="M479 0h-518l242 1137h518zM737 1217h-518l72 339h518z" />
    <glyph glyph-name="j" unicode="j" horiz-adv-x="681" 
d="M-268 -401l78 366h38q56 0 86 23q28 22 37 73l230 1078h518l-248 -1166q-40 -190 -170 -282t-377 -92h-192zM737 1221h-518l72 340h518z" />
    <glyph glyph-name="k" unicode="k" horiz-adv-x="1400" 
d="M922 1137h591l-423 -543l204 -594h-563l-149 485l-103 -485h-518l330 1556h518l-170 -804z" />
    <glyph glyph-name="l" unicode="l" horiz-adv-x="681" 
d="M479 0h-518l330 1556h518z" />
    <glyph glyph-name="m" unicode="m" horiz-adv-x="2076" 
d="M1919 1126l-6 4q71 -41 104 -106t33 -150q0 -30 -6 -73q-8 -55 -14 -84l-152 -713h-518l131 617q16 82 16 116q0 41 -12 62q-13 22 -45 22q-52 0 -86 -55t-61 -178l-125 -588h-519l132 616q16 82 16 117q0 41 -12 62q-13 22 -45 22q-52 0 -86 -55q-35 -57 -62 -178
l-125 -588h-518l242 1137h508l-50 -232q43 78 101 133q59 57 135 92q75 35 152 35q96 0 163 -37q70 -39 103 -100q34 -64 37 -143q39 79 98 141q59 61 139 104q74 39 154 39q110 0 178 -39z" />
    <glyph glyph-name="n" unicode="n" horiz-adv-x="1396" 
d="M1233 1128l-2 -2q72 -40 106 -106q35 -68 35 -152q0 -74 -18 -157l-152 -713h-518l131 616q16 91 16 119q0 84 -65 84q-58 0 -98 -55q-41 -56 -68 -176l-125 -588h-518l242 1137h508l-50 -234q43 78 101 133q62 58 135 96q73 37 158 37q111 0 182 -39z" />
    <glyph glyph-name="o" unicode="o" horiz-adv-x="1417" 
d="M303 27h-2q-134 59 -203 168q-71 112 -71 264q0 184 90 350q88 163 264 262q174 98 418 98q182 0 311 -57q134 -59 203 -168q71 -112 71 -264q0 -184 -90 -350q-88 -163 -264 -262t-418 -99q-178 0 -309 58zM764 356q49 58 74 152q24 92 24 188q0 142 -102 142
q-62 0 -113 -60q-50 -59 -74 -151q-24 -91 -24 -189q0 -141 102 -141q63 0 113 59z" />
    <glyph glyph-name="p" unicode="p" horiz-adv-x="1427" 
d="M1233 1112h-2q80 -56 123 -154t43 -227q0 -198 -74 -375q-72 -173 -209 -282q-134 -107 -309 -107q-218 0 -295 219l-125 -589h-508l326 1538h508l-47 -226q53 112 151 185t223 73q116 0 195 -55zM772 356q49 58 74 152q24 92 24 188q0 142 -102 142q-62 0 -113 -60
q-48 -57 -73 -151q-25 -95 -25 -189q0 -141 102 -141q63 0 113 59z" />
    <glyph glyph-name="q" unicode="q" horiz-adv-x="1427" 
d="M961 1137l503 -9l-325 -1538h-506l121 574q-53 -90 -140 -146q-85 -55 -204 -55q-114 0 -199 49q-87 50 -133 148q-47 100 -47 241q0 201 73 375t209 283q132 106 310 106q118 0 190 -69q76 -73 102 -172zM766 348q49 58 74 152q24 92 24 188q0 141 -102 141
q-63 0 -113 -59q-49 -58 -74 -152q-24 -92 -24 -188q0 -141 102 -141q63 0 113 59z" />
    <glyph glyph-name="r" unicode="r" horiz-adv-x="1009" 
d="M629 750l-2 -5q41 109 108 203t162 156q94 61 215 61l-106 -497h-115q-138 0 -215 -56q-78 -57 -105 -178l-92 -434h-518l242 1137h508z" />
    <glyph glyph-name="s" unicode="s" horiz-adv-x="1302" 
d="M293 16l-4 -8q-139 47 -221 135q-84 90 -93 209h512q34 -110 160 -110q49 0 76 12t27 37q0 22 -27 37q-30 17 -98 37l-217 65q-98 29 -170 72q-66 40 -107 102q-39 59 -39 152q0 110 74 202q74 93 215 148q140 55 330 55q160 0 288 -43q131 -44 207 -123q78 -81 90 -190
h-512q-9 38 -39 59q-33 23 -77 23q-45 0 -74 -13q-27 -12 -27 -36q0 -22 33 -39q39 -21 111 -43l217 -66q150 -47 223 -131q74 -86 74 -201q0 -111 -66 -202q-64 -88 -203 -138q-137 -49 -344 -49q-180 0 -319 47z" />
    <glyph glyph-name="t" unicode="t" horiz-adv-x="952" 
d="M750 774l-72 -328q-4 -28 -4 -32q0 -32 20 -43q23 -13 68 -13h84l-78 -362h-248q-114 0 -196 33q-88 36 -136 98q-49 64 -49 158q0 34 11 98l83 391h-163l77 363h162l58 268h518l-58 -268h187l-78 -363h-186z" />
    <glyph glyph-name="u" unicode="u" horiz-adv-x="1390" 
d="M911 1137l514 -2l-241 -1137h-508l49 231q-39 -72 -98 -129q-57 -54 -135 -94q-73 -37 -154 -37q-110 0 -178 39q-71 41 -105 107q-35 68 -35 151q0 23 7 74q8 55 14 84l152 713h518l-131 -617q-17 -87 -17 -117q0 -34 17 -61q16 -25 49 -25q56 0 94 56q35 52 63 176z
" />
    <glyph glyph-name="v" unicode="v" horiz-adv-x="1380" 
d="M606 199l359 938h520l-453 -1137h-913l6 1137h500z" />
    <glyph glyph-name="w" unicode="w" horiz-adv-x="1939" 
d="M1311 176l286 961h426l-356 -1137h-743l139 977l-277 -977h-753l125 1137h420l-119 -961l286 961h685z" />
    <glyph glyph-name="x" unicode="x" horiz-adv-x="1339" 
d="M922 1137h546l-452 -551l233 -586h-547l-81 293l-205 -293h-561l479 612l-217 525h545l75 -267z" />
    <glyph glyph-name="y" unicode="y" horiz-adv-x="1366" 
d="M600 311l336 826h545l-650 -1538h-522l207 505h-385l-8 1033h500z" />
    <glyph glyph-name="z" unicode="z" horiz-adv-x="1269" 
d="M201 1137h1102l-99 -463l-551 -312h514l-77 -362h-1141l98 463l551 311h-475z" />
    <glyph glyph-name="braceleft" unicode="{" horiz-adv-x="968" 
d="M1120 1556l-82 -364h-41q-62 0 -92 -21q-32 -23 -41 -73l-39 -183q-23 -111 -92 -180t-168 -98q-110 -32 -256 -41q117 -9 201 -43q88 -36 135 -88q49 -55 49 -125q0 -43 -8 -74l-45 -213q-4 -28 -4 -30q0 -36 22 -52q20 -14 74 -14h41l-78 -363h-188q-192 0 -301 74
q-107 73 -107 221q0 43 13 103l39 182q8 31 8 68q0 46 -15 73q-17 30 -51 41q-42 14 -104 19l92 432q75 3 121 20q50 18 80 62q33 48 47 117l32 153q40 199 183 299q140 98 387 98h188z" />
    <glyph glyph-name="bar" unicode="|" horiz-adv-x="690" 
d="M375 -463h-498l455 2142h497z" />
    <glyph glyph-name="braceright" unicode="}" horiz-adv-x="968" 
d="M829 866l-4 -8q15 -25 54 -37q38 -12 106 -18l-92 -432q-71 -3 -121 -19q-49 -16 -78 -55q-32 -44 -47 -115l-41 -192q-40 -197 -182 -297q-141 -99 -387 -99h-189l78 363h41q59 0 92 23q32 23 41 73l47 221q24 113 93 179q70 67 168 96q110 32 258 41q-107 8 -203 41
q-86 29 -137 86q-50 56 -50 125q0 38 9 73l39 183q4 28 4 30q0 36 -23 52q-20 14 -74 14h-41l78 362h189q194 0 301 -73q108 -73 108 -221q0 -48 -12 -103l-33 -153q-8 -31 -8 -68q0 -46 16 -72z" />
    <glyph glyph-name="asciitilde" unicode="~" horiz-adv-x="1417" 
d="M63 569l-2 -2q80 138 185 209q107 72 217 72q61 0 119 -10q54 -9 129 -43q71 -30 120 -45t103 -15q62 0 113 31q47 29 90 84l227 -236q-79 -138 -184 -208q-107 -72 -217 -72q-61 0 -119 10q-54 9 -129 43q-68 29 -121 45q-46 14 -100 14q-64 0 -113 -30q-50 -30 -90 -82
z" />
    <glyph glyph-name="uni00A0" unicode="&#xa0;" horiz-adv-x="409" 
 />
    <glyph glyph-name="exclamdown" unicode="&#xa1;" horiz-adv-x="702" 
d="M643 707h-518l92 430h518zM446 -399h-602l303 985h418z" />
    <glyph glyph-name="cent" unicode="&#xa2;" horiz-adv-x="1417" 
d="M768 338v2q38 38 63 109h512q-55 -162 -176 -283q-119 -120 -301 -166l-57 -266h-514l61 289q-135 59 -209 170q-73 110 -73 262q0 157 61 297q62 142 178 243t281 148l55 260h514l-59 -279q136 -56 209 -166t73 -264h-512q0 74 -18 111t-68 37q-56 0 -100 -62
q-43 -61 -67 -155q-25 -98 -25 -191q0 -137 84 -137q47 0 88 41z" />
    <glyph glyph-name="sterling" unicode="&#xa3;" horiz-adv-x="1388" 
d="M805 604l-6 -8q-110 -120 -332 -195h823l-86 -409h-1235l103 483q162 52 245 123h-235l70 336h194l-14 18q-42 54 -62 105q-22 55 -22 129q0 113 69 200q71 90 209 142q139 53 338 53q183 0 314 -55q132 -56 200 -158q68 -103 68 -235h-533q0 81 -69 81q-36 0 -58 -22
q-20 -20 -20 -59q0 -35 12 -62q6 -13 35 -61l43 -70h373l-70 -336h-354z" />
    <glyph glyph-name="currency" unicode="&#xa4;" horiz-adv-x="1515" 
d="M1276 567l149 -149l-295 -291l-149 147q-85 -32 -182 -32q-98 0 -183 32l-149 -147l-295 291l147 145q-38 93 -38 197q0 107 38 196l-147 146l295 291l149 -148q88 33 183 33q94 0 182 -33l149 148l295 -291l-147 -148q37 -93 37 -190q0 -106 -39 -197zM877 623l-5 -5
q37 21 58 58q22 39 22 80q0 44 -20 80t-58 57q-39 22 -79 22q-44 0 -80 -20q-38 -21 -58 -57t-20 -80q0 -41 22 -80q20 -36 58 -57q37 -21 80 -21q39 0 80 23z" />
    <glyph glyph-name="yen" unicode="&#xa5;" horiz-adv-x="1697" 
d="M1253 1556h596l-497 -608h213l-72 -336h-381l-18 -90h381l-72 -336h-381l-39 -186h-528l39 186h-379l71 336h379l19 90h-379l71 336h218l-242 608h565l115 -509z" />
    <glyph glyph-name="brokenbar" unicode="&#xa6;" horiz-adv-x="710" 
d="M649 788h-497l190 891h498zM385 -463h-498l191 891h497z" />
    <glyph glyph-name="section" unicode="&#xa7;" horiz-adv-x="1431" 
d="M1167 991l-2 -4q116 -58 166 -129q49 -70 49 -164q0 -103 -61 -176t-182 -135q73 -79 73 -199q0 -121 -75 -211q-76 -90 -217 -143q-137 -51 -330 -51q-162 0 -281 51q-124 53 -194 141q-71 89 -74 197h532q0 -41 19 -66q18 -24 55 -24q30 0 49 16t19 41q0 28 -25 47
q-32 24 -82 47l-293 150q-116 58 -166 129q-49 70 -49 164q0 102 62 176q61 73 182 135q-74 80 -74 199q0 120 76 211q75 89 219 143q137 51 330 51q162 0 281 -51q124 -53 194 -141q71 -89 74 -197h-533q0 42 -18 66t-55 24q-33 0 -50 -14q-18 -15 -18 -39q0 -28 25 -47
q33 -25 81 -47zM852 553q29 26 29 61q0 37 -25 62q-27 27 -80 53l-151 78q-29 -26 -29 -62t25 -61q28 -28 79 -53z" />
    <glyph glyph-name="dieresis" unicode="&#xa8;" horiz-adv-x="1150" 
d="M682 1217h-518l72 339h518zM1264 1217h-519l72 339h518z" />
    <glyph glyph-name="copyright" unicode="&#xa9;" horiz-adv-x="1882" 
d="M563 49l-4 -8q-193 114 -307 307q-113 192 -113 422q0 227 115 422q114 193 307 307q195 115 424 115q232 0 424 -113q193 -114 307 -307q115 -195 115 -420q0 -228 -113 -420q-114 -193 -307 -307q-192 -113 -424 -113q-229 0 -424 115zM1288 236l-4 -5q138 81 223 226
q84 144 84 307q0 167 -82 307q-84 144 -223 225q-144 84 -309 84q-169 0 -309 -82t-224 -225q-82 -140 -82 -307q0 -163 84 -307t224 -226q138 -81 309 -81q165 0 309 84zM745 362l-2 -10q-106 52 -168 154q-61 101 -61 246q0 142 59 245q58 101 164 154t236 53
q116 0 209 -37q99 -39 164 -116q67 -79 88 -203h-402q-6 36 -16 53t-41 17q-27 0 -39 -15t-18 -49q-7 -40 -7 -94q0 -52 7 -92q6 -34 22 -50t47 -16q15 0 31 16q14 14 20 56h400q-35 -190 -156 -277q-122 -88 -295 -88q-133 0 -242 53z" />
    <glyph glyph-name="ordfeminine" unicode="&#xaa;" horiz-adv-x="716" 
d="M766 1522l-4 -2q78 -50 78 -146q0 -24 -9 -61l-69 -330h-277l13 61q-30 -37 -70 -55q-41 -18 -98 -18q-46 0 -92 22q-41 20 -70 60q-27 37 -27 82q0 97 70 149q71 53 203 62l145 12l2 6l4 27q0 10 -6 16t-18 6q-15 0 -27 -12q-13 -13 -16 -31h-281q30 102 123 152
q91 49 211 49q139 0 215 -49zM496 1139h-7q20 23 31 61l-51 -4q-24 -3 -37 -14q-14 -11 -14 -31q0 -15 10 -25q8 -8 25 -8q25 0 43 21z" />
    <glyph glyph-name="guillemotleft" unicode="&#xab;" horiz-adv-x="1716" 
d="M414 1022h598l-373 -453l176 -467h-590l-162 471zM1157 1022h598l-373 -453l177 -467h-590l-162 471z" />
    <glyph glyph-name="logicalnot" unicode="&#xac;" horiz-adv-x="1306" 
d="M1169 186h-391v408h-651v377h1042v-785z" />
    <glyph glyph-name="uni00AD" unicode="&#xad;" horiz-adv-x="901" 
d="M776 387h-729l88 416h729z" />
    <glyph glyph-name="registered" unicode="&#xae;" horiz-adv-x="1880" 
d="M1407 1505l-4 -8q193 -114 307 -307q115 -195 115 -420q0 -228 -113 -420q-114 -193 -307 -307q-192 -113 -424 -113q-229 0 -424 115q-193 114 -307 307q-113 192 -113 422q0 227 115 422q114 193 307 307q195 115 424 115q232 0 424 -113zM1419 338l-4 -4
q82 82 129 194t47 234q0 167 -82 307q-84 144 -223 225q-144 84 -309 84q-169 0 -309 -82t-224 -225q-82 -140 -82 -307q0 -163 84 -307t224 -226q138 -81 309 -81q121 0 233 47q114 48 195 129h-356l-113 256v-256h-330v872h393q126 0 216 -37q93 -38 141 -106
q49 -70 49 -162q0 -79 -37 -143q-39 -66 -106 -105zM938 932v-86h55q66 0 66 43t-66 43h-55z" />
    <glyph glyph-name="macron" unicode="&#xaf;" horiz-adv-x="954" 
d="M1067 1217h-903l72 339h903z" />
    <glyph glyph-name="degree" unicode="&#xb0;" horiz-adv-x="940" 
d="M369 766l-2 -2q-102 58 -160 160q-60 105 -60 221t60 221q58 102 160 160q103 59 221 59t221 -59q102 -58 160 -160q59 -103 59 -221q0 -122 -57 -221q-58 -102 -160 -160q-99 -57 -221 -57q-118 0 -221 59zM666 1067l2 -2q30 30 30 78t-30 78t-76 30t-80 -30
q-33 -29 -33 -78q0 -45 31 -76t78 -31t78 31z" />
    <glyph glyph-name="plusminus" unicode="&#xb1;" horiz-adv-x="1439" 
d="M899 1137v-166h373v-357h-373v-172h-391v172h-373v357h373v166h391zM1272 0h-1137v356h1137v-356z" />
    <glyph glyph-name="uni00B2" unicode="&#xb2;" horiz-adv-x="745" 
d="M514 1206l332 -2l-47 -221h-674l59 281l394 219q31 17 40 24q13 10 13 25q0 16 -13 22q-14 7 -30 7q-25 0 -43 -15t-21 -39h-282q21 128 116 199q94 70 238 70q142 0 227 -58q86 -59 86 -162q0 -79 -53 -141q-49 -58 -129 -100z" />
    <glyph glyph-name="uni00B3" unicode="&#xb3;" horiz-adv-x="724" 
d="M823 1448l-4 -2q-66 -48 -168 -68q78 -12 127 -55t49 -111q0 -63 -36 -116q-37 -55 -119 -92q-81 -37 -205 -37q-96 0 -168 34q-71 33 -113 97q-39 59 -39 147h283q0 -65 59 -65q28 0 43 12t15 31q0 22 -27 34q-29 13 -76 13h-61l45 213h70q53 0 77 12q25 13 25 33
q0 15 -12 24t-27 9q-23 0 -35 -15q-12 -14 -18 -37h-283q15 125 111 197q94 70 239 70q98 0 168 -27q68 -26 107 -74q37 -46 37 -104q0 -77 -64 -123z" />
    <glyph glyph-name="acute" unicode="&#xb4;" horiz-adv-x="952" 
d="M643 1217h-481l282 339h695z" />
    <glyph glyph-name="uni00B5" unicode="&#xb5;" horiz-adv-x="1714" 
d="M1559 362l2 -366h-125q-155 0 -254 12q-100 12 -168 51q-70 41 -105 117q-9 25 -12 43q-61 -168 -213 -221v-397h-508v1538h508v-604v-5q0 -103 23 -157q21 -49 77 -49q59 0 80 49t21 159v605h508v-670v-4q0 -48 14 -68t45 -26q35 -7 88 -7h19z" />
    <glyph glyph-name="paragraph" unicode="&#xb6;" horiz-adv-x="1761" 
d="M518 629l-2 -2q-111 0 -197 47q-84 46 -131 129q-45 80 -45 186q0 144 80 277q78 130 213 211q131 79 281 79h1118l-371 -1746h-471l291 1366h-178l-291 -1366h-471z" />
    <glyph glyph-name="periodcentered" unicode="&#xb7;" horiz-adv-x="690" 
d="M502 391h-379l90 430h379z" />
    <glyph glyph-name="cedilla" unicode="&#xb8;" horiz-adv-x="495" 
d="M158 -55v-4q67 -9 106 -45t39 -99q0 -67 -37 -119q-38 -53 -100 -79q-69 -29 -148 -29h-206l41 186h79q23 0 41 11q17 10 17 28q0 25 -41 25h-43l39 180h225z" />
    <glyph glyph-name="uni00B9" unicode="&#xb9;" horiz-adv-x="512" 
d="M481 1763l234 -2l-166 -778h-285l92 438h-166l48 221h16q86 0 139 27t80 80z" />
    <glyph glyph-name="ordmasculine" unicode="&#xba;" horiz-adv-x="722" 
d="M305 1001h-6q-61 28 -100 86q-37 55 -37 130q0 95 45 172q47 79 135 129q88 49 213 49q86 0 156 -31q66 -29 104 -86q37 -55 37 -129q0 -95 -45 -172q-47 -79 -135 -129q-88 -49 -213 -49q-89 0 -154 30zM526 1186h2q21 35 29 74q10 48 10 77q0 45 -37 45q-28 0 -49 -30
t-30 -74q-11 -53 -11 -78q0 -18 11 -33q9 -12 28 -12q28 0 47 31z" />
    <glyph glyph-name="guillemotright" unicode="&#xbb;" horiz-adv-x="1716" 
d="M156 1022h589l162 -471l-350 -449h-598l373 453zM899 1022h590l162 -471l-351 -449h-598l373 453z" />
    <glyph glyph-name="onequarter" unicode="&#xbc;" horiz-adv-x="1865" 
d="M1683 377h95l-47 -221h-95l-32 -156h-285l33 156h-348l59 280l194 342h512zM1460 659l-176 -282h115zM475 1556l234 -2l-166 -778h-285l92 438h-166l47 222h17q88 0 139 26q53 27 80 80zM518 -2h-399l1153 1556h399z" />
    <glyph glyph-name="onehalf" unicode="&#xbd;" horiz-adv-x="1867" 
d="M1407 221l332 -2l-47 -221h-674l59 281l393 219q35 19 41 24q13 10 13 25t-13 22q-12 6 -30 6q-26 0 -43 -14q-18 -15 -21 -39h-282q21 128 116 199q94 70 238 70q142 0 227 -58q86 -59 86 -162q0 -79 -53 -141q-49 -58 -129 -100zM475 1554l234 -2l-166 -778h-285
l92 438h-166l47 222h17q88 0 139 26q53 27 80 80zM518 -4h-399l1153 1556h399z" />
    <glyph glyph-name="threequarters" unicode="&#xbe;" horiz-adv-x="1998" 
d="M813 1241l-4 -2q-66 -48 -168 -68q78 -12 127 -55t49 -110q0 -62 -37 -117t-118 -92t-205 -37q-93 0 -168 35q-72 34 -113 96q-39 59 -39 147h283q0 -65 59 -65q28 0 43 12t15 31q0 23 -27 35t-76 12h-61l45 213h69q54 0 78 12q25 12 25 33q0 16 -12 25q-11 8 -27 8
q-23 0 -35 -15t-18 -36h-283q15 124 111 196q94 70 239 70q97 0 168 -27q68 -26 107 -74q37 -46 37 -104q0 -77 -64 -123zM643 -4h-399l1153 1556h399zM1810 373h95l-47 -221h-95l-32 -156h-285l33 156h-349l60 280l194 342h512zM1587 655l-176 -282h115z" />
    <glyph glyph-name="questiondown" unicode="&#xbf;" horiz-adv-x="1343" 
d="M987 707h-518l92 430h518zM186 -393v-6q-128 41 -196 118q-70 79 -70 195q0 122 55 207t170 168l162 114q64 46 90 84q30 44 41 97h523q-24 -116 -70 -197q-47 -83 -129 -141l-162 -115q-18 -12 -45 -32t-37 -27q-28 -19 -45 -41q-12 -15 -12 -31q0 -24 22 -37
q21 -12 62 -12q46 0 73 18q28 19 37 58h533q-47 -221 -223 -340q-177 -119 -484 -119q-174 0 -295 39z" />
    <glyph glyph-name="Agrave" unicode="&#xc0;" horiz-adv-x="1734" 
d="M1632 0h-530l-12 330h-515l-153 -330h-563l774 1556h891zM1053 1356l-283 -606h305zM1352 1653h-498l-358 340h690z" />
    <glyph glyph-name="Aacute" unicode="&#xc1;" horiz-adv-x="1734" 
d="M1632 0h-530l-12 330h-515l-153 -330h-563l774 1556h891zM1053 1356l-283 -606h305zM1346 1653h-506l305 340h710z" />
    <glyph glyph-name="Acircumflex" unicode="&#xc2;" horiz-adv-x="1734" 
d="M1632 0h-530l-12 330h-515l-153 -330h-563l774 1556h891zM1053 1356l-283 -606h305zM1481 1993l205 -340h-451l-111 127l-151 -127h-459l326 340h641z" />
    <glyph glyph-name="Atilde" unicode="&#xc3;" horiz-adv-x="1734" 
d="M1632 0h-530l-12 330h-515l-153 -330h-563l774 1556h891zM1053 1356l-283 -606h305zM664 1653v-2q40 198 129 303q88 104 215 104q76 0 172 -45q33 -15 65 -24q30 -9 64 -9q43 0 82 25q38 24 53 59h151q-40 -198 -129 -303q-88 -104 -215 -104q-72 0 -174 45
q-38 16 -63 24q-37 11 -64 11q-43 0 -82 -25q-38 -24 -53 -59h-151z" />
    <glyph glyph-name="Adieresis" unicode="&#xc4;" horiz-adv-x="1734" 
d="M1632 0h-530l-12 330h-515l-153 -330h-563l774 1556h891zM1053 1356l-283 -606h305zM1059 1653h-535l72 340h534zM1651 1653h-535l72 340h534z" />
    <glyph glyph-name="Aring" unicode="&#xc5;" horiz-adv-x="1734" 
d="M1632 0h-530l-12 330h-515l-153 -330h-563l774 1556h891zM1053 1356l-283 -606h305zM973 1681l-2 -2q-70 37 -111 109q-39 68 -39 160q0 98 45 178q47 84 129 133t187 49q89 0 159 -37q72 -38 111 -106q41 -71 41 -160q0 -98 -45 -178q-47 -84 -129 -133t-186 -49
q-92 0 -160 36zM1204 1923h-2q25 25 25 62q0 28 -19 47q-18 18 -47 18q-32 0 -57 -25t-25 -61q0 -28 19 -47t47 -19q34 0 59 25z" />
    <glyph glyph-name="AE" unicode="&#xc6;" horiz-adv-x="2265" 
d="M2382 1556l-90 -419h-740l11 -138h686l-90 -419h-568l13 -160h555l-91 -420h-966l-12 330h-515l-153 -330h-563l774 1556h1749zM1053 1356l-283 -606h305z" />
    <glyph glyph-name="Ccedilla" unicode="&#xc7;" horiz-adv-x="1685" 
d="M1001 422v-10q78 57 121 157h553q-86 -284 -295 -440q-211 -158 -538 -170l-6 -22q69 -9 112 -46t43 -98q0 -67 -37 -119t-104 -82q-68 -30 -150 -30h-219l41 196h82q28 0 43 6t15 23q0 23 -41 23h-48l35 167q-153 26 -278 109q-120 79 -187 211q-67 131 -67 313
q0 234 121 461q120 224 338 369q216 143 497 143q217 0 379 -78q161 -77 246 -215q87 -141 96 -313h-553q-15 207 -211 207q-105 0 -192 -78q-85 -76 -135 -209t-50 -289q0 -114 58 -178q57 -63 159 -63q96 0 172 55z" />
    <glyph glyph-name="Egrave" unicode="&#xc8;" horiz-adv-x="1372" 
d="M1489 1556l-90 -419h-639l-31 -138h627l-90 -419h-625l-35 -160h660l-90 -420h-1192l329 1556h1176zM1190 1653h-498l-358 340h690z" />
    <glyph glyph-name="Eacute" unicode="&#xc9;" horiz-adv-x="1372" 
d="M1489 1556l-90 -419h-639l-31 -138h627l-90 -419h-625l-35 -160h660l-90 -420h-1192l329 1556h1176zM1124 1653h-506l306 340h710z" />
    <glyph glyph-name="Ecircumflex" unicode="&#xca;" horiz-adv-x="1372" 
d="M1489 1556l-90 -419h-639l-31 -138h627l-90 -419h-625l-35 -160h660l-90 -420h-1192l329 1556h1176zM1296 1993l205 -340h-450l-111 127l-152 -127h-458l325 340h641z" />
    <glyph glyph-name="Edieresis" unicode="&#xcb;" horiz-adv-x="1372" 
d="M1489 1556l-90 -419h-639l-31 -138h627l-90 -419h-625l-35 -160h660l-90 -420h-1192l329 1556h1176zM874 1653h-534l72 340h534zM1466 1653h-534l72 340h534z" />
    <glyph glyph-name="Igrave" unicode="&#xcc;" horiz-adv-x="741" 
d="M518 0h-534l329 1556h535zM829 1653h-497l-359 340h691z" />
    <glyph glyph-name="Iacute" unicode="&#xcd;" horiz-adv-x="741" 
d="M518 0h-534l329 1556h535zM860 1653h-506l305 340h711z" />
    <glyph glyph-name="Icircumflex" unicode="&#xce;" horiz-adv-x="741" 
d="M518 0h-534l329 1556h535zM995 1993l205 -340h-450l-111 127l-152 -127h-458l325 340h641z" />
    <glyph glyph-name="Idieresis" unicode="&#xcf;" horiz-adv-x="741" 
d="M518 0h-534l329 1556h535zM573 1653h-534l72 340h534zM1165 1653h-534l71 340h535z" />
    <glyph glyph-name="Eth" unicode="&#xd0;" horiz-adv-x="1701" 
d="M948 1556l-4 -2q201 0 375 -71q170 -69 276 -215q105 -144 105 -350q0 -331 -137 -535q-139 -207 -363 -295t-498 -88h-661l131 623h-143l71 340h146l125 593h577zM743 418l-4 -2q130 0 222 59q91 58 141 164q49 104 49 246q0 76 -31 133q-30 56 -86 86q-57 31 -127 31
h-94l-37 -174h262l-71 -340h-265l-43 -203h84z" />
    <glyph glyph-name="Ntilde" unicode="&#xd1;" horiz-adv-x="1845" 
d="M1186 209l284 1347h482l-330 -1556h-881l9 1348l-285 -1348h-481l329 1556h881zM715 1653v-2q40 198 129 303q88 104 215 104q76 0 172 -45q33 -15 65 -24q30 -9 64 -9q43 0 82 25q38 24 53 59h152q-40 -198 -129 -303q-88 -104 -215 -104q-73 0 -175 45q-38 16 -63 24
q-37 11 -64 11q-42 0 -81 -25t-54 -59h-151z" />
    <glyph glyph-name="Ograve" unicode="&#xd2;" horiz-adv-x="1763" 
d="M426 41v-4q-164 69 -260 219q-94 146 -94 362q0 232 121 459q120 225 342 367q220 141 507 141q213 0 383 -72q167 -71 261 -217t94 -362q0 -230 -121 -457q-119 -224 -342 -366q-222 -142 -508 -142q-213 0 -383 72zM1051 440l-4 -4q90 78 139 209t49 291q0 119 -57 182
q-60 66 -166 66q-121 0 -209 -76q-87 -75 -137 -209q-50 -133 -50 -291q0 -114 60 -180q57 -63 166 -63q122 0 209 75zM1389 1645h-498l-359 340h691z" />
    <glyph glyph-name="Oacute" unicode="&#xd3;" horiz-adv-x="1763" 
d="M426 41v-4q-164 69 -260 219q-94 146 -94 362q0 232 121 459q120 225 342 367q220 141 507 141q213 0 383 -72q167 -71 261 -217t94 -362q0 -230 -121 -457q-119 -224 -342 -366q-222 -142 -508 -142q-213 0 -383 72zM1051 440l-4 -4q90 78 139 209t49 291q0 119 -57 182
q-60 66 -166 66q-121 0 -209 -76q-87 -75 -137 -209q-50 -133 -50 -291q0 -114 60 -180q57 -63 166 -63q122 0 209 75zM1323 1645h-506l305 340h711z" />
    <glyph glyph-name="Ocircumflex" unicode="&#xd4;" horiz-adv-x="1763" 
d="M426 41v-4q-164 69 -260 219q-94 146 -94 362q0 232 121 459q120 225 342 367q220 141 507 141q213 0 383 -72q167 -71 261 -217t94 -362q0 -230 -121 -457q-119 -224 -342 -366q-222 -142 -508 -142q-213 0 -383 72zM1051 440l-4 -4q90 78 139 209t49 291q0 119 -57 182
q-60 66 -166 66q-121 0 -209 -76q-87 -75 -137 -209q-50 -133 -50 -291q0 -114 60 -180q57 -63 166 -63q122 0 209 75zM1495 1985l205 -340h-451l-110 127l-152 -127h-459l326 340h641z" />
    <glyph glyph-name="Otilde" unicode="&#xd5;" horiz-adv-x="1763" 
d="M426 41v-4q-164 69 -260 219q-94 146 -94 362q0 232 121 459q120 225 342 367q220 141 507 141q213 0 383 -72q167 -71 261 -217t94 -362q0 -230 -121 -457q-119 -224 -342 -366q-222 -142 -508 -142q-213 0 -383 72zM1051 440l-4 -4q90 78 139 209t49 291q0 119 -57 182
q-60 66 -166 66q-121 0 -209 -76q-87 -75 -137 -209q-50 -133 -50 -291q0 -114 60 -180q57 -63 166 -63q122 0 209 75zM678 1645v-3q40 199 129 304q88 104 215 104q76 0 172 -45q39 -17 66 -25t63 -8q43 0 82 25q38 24 53 59h152q-40 -198 -129 -303q-88 -104 -215 -104
q-72 0 -174 45q-36 15 -64 24q-37 11 -63 11q-43 0 -82 -25t-54 -59h-151z" />
    <glyph glyph-name="Odieresis" unicode="&#xd6;" horiz-adv-x="1763" 
d="M426 41v-4q-164 69 -260 219q-94 146 -94 362q0 232 121 459q120 225 342 367q220 141 507 141q213 0 383 -72q167 -71 261 -217t94 -362q0 -230 -121 -457q-119 -224 -342 -366q-222 -142 -508 -142q-213 0 -383 72zM1051 440l-4 -4q90 78 139 209t49 291q0 119 -57 182
q-60 66 -166 66q-121 0 -209 -76q-87 -75 -137 -209q-50 -133 -50 -291q0 -114 60 -180q57 -63 166 -63q122 0 209 75zM1073 1645h-534l71 340h535zM1665 1645h-535l72 340h535z" />
    <glyph glyph-name="multiply" unicode="&#xd7;" horiz-adv-x="1349" 
d="M991 1145l258 -258l-313 -316l313 -313l-258 -260l-315 315l-314 -315l-260 260l316 313l-316 316l260 258l314 -314z" />
    <glyph glyph-name="Oslash" unicode="&#xd8;" horiz-adv-x="1763" 
d="M2052 1556l-342 -303q70 -134 70 -319q0 -230 -121 -457q-119 -224 -342 -366q-222 -142 -508 -142q-262 0 -442 101l-80 -70h-488l342 301q-69 132 -69 320q0 231 121 458q120 225 342 367q220 141 507 141q265 0 443 -100l80 69h487zM821 1126l2 -2q-83 -59 -135 -163
q-52 -103 -67 -238l499 440q-54 23 -108 23q-106 0 -191 -60zM1030 424l-2 2q82 58 135 164t68 237l-500 -440q52 -22 109 -22q107 0 190 59z" />
    <glyph glyph-name="Ugrave" unicode="&#xd9;" horiz-adv-x="1617" 
d="M381 31h-4q-147 61 -223 172q-76 110 -76 256q0 77 22 190l193 907h534l-215 -1013q-4 -28 -4 -43q0 -62 43 -99q42 -36 111 -36q98 0 156 61t79 162l205 966h535l-201 -942q-48 -225 -143 -360q-101 -143 -258 -213q-158 -70 -398 -70q-208 0 -356 62zM1311 1653h-498
l-358 340h690z" />
    <glyph glyph-name="Uacute" unicode="&#xda;" horiz-adv-x="1617" 
d="M381 31h-4q-147 61 -223 172q-76 110 -76 256q0 77 22 190l193 907h534l-215 -1013q-4 -28 -4 -43q0 -62 43 -99q42 -36 111 -36q98 0 156 61t79 162l205 966h535l-201 -942q-48 -225 -143 -360q-101 -143 -258 -213q-158 -70 -398 -70q-208 0 -356 62zM1245 1653h-506
l305 340h711z" />
    <glyph glyph-name="Ucircumflex" unicode="&#xdb;" horiz-adv-x="1617" 
d="M381 31h-4q-147 61 -223 172q-76 110 -76 256q0 77 22 190l193 907h534l-215 -1013q-4 -28 -4 -43q0 -62 43 -99q42 -36 111 -36q98 0 156 61t79 162l205 966h535l-201 -942q-48 -225 -143 -360q-101 -143 -258 -213q-158 -70 -398 -70q-208 0 -356 62zM1417 1993
l205 -340h-451l-110 127l-152 -127h-458l325 340h641z" />
    <glyph glyph-name="Udieresis" unicode="&#xdc;" horiz-adv-x="1617" 
d="M381 31h-4q-147 61 -223 172q-76 110 -76 256q0 77 22 190l193 907h534l-215 -1013q-4 -28 -4 -43q0 -62 43 -99q42 -36 111 -36q98 0 156 61t79 162l205 966h535l-201 -942q-48 -225 -143 -360q-101 -143 -258 -213q-158 -70 -398 -70q-208 0 -356 62zM995 1653h-534
l71 340h535zM1587 1653h-534l71 340h535z" />
    <glyph glyph-name="Yacute" unicode="&#xdd;" horiz-adv-x="1554" 
d="M1178 1556h632l-768 -989l-120 -567h-535l129 610l-362 946h553l161 -483zM1167 1653h-505l305 340h710z" />
    <glyph glyph-name="Thorn" unicode="&#xde;" horiz-adv-x="1521" 
d="M909 1346l4 -5q187 0 324 -57q143 -59 221 -168q80 -112 80 -266q0 -161 -82 -295q-83 -136 -258 -215q-177 -80 -430 -80h-195l-55 -260h-534l329 1556h535l-45 -210h106zM827 666q53 0 95 22t59 57q18 37 18 76q0 52 -32 80q-36 31 -86 31h-160l-57 -266h163z" />
    <glyph glyph-name="germandbls" unicode="&#xdf;" horiz-adv-x="1429" 
d="M1184 741l2 -4q76 -35 123 -102q47 -68 47 -162q0 -149 -62 -264q-61 -114 -184 -178q-122 -64 -303 -64q-60 0 -135 10q-64 9 -117 31l66 311q30 -24 69 -24q67 0 105 53q36 50 36 141q0 63 -34 93q-35 30 -84 30h-31l70 328h16q53 0 92 31q37 29 55 80q19 52 19 104
q0 45 -19 74q-19 28 -61 28q-109 0 -147 -170l-232 -1089h-518l217 1020q62 283 258 424t504 141q265 0 391 -100q129 -102 129 -295q0 -110 -57 -193q-59 -87 -156 -141q-98 -55 -225 -76q91 -3 166 -37z" />
    <glyph glyph-name="agrave" unicode="&#xe0;" horiz-adv-x="1384" 
d="M1196 1069l-4 -6q154 -100 154 -291q0 -46 -13 -113l-141 -665h-508l37 170q-61 -88 -156 -144q-94 -55 -221 -55q-102 0 -184 43q-83 44 -129 119q-47 77 -47 172q0 366 536 412l311 26v2q7 28 7 45q0 41 -21 62q-22 22 -61 22q-50 0 -80 -24q-32 -26 -47 -72h-512
q42 127 131 213q91 88 227 135t297 47q273 0 424 -98zM700 303h-6q51 57 72 152l-121 -11q-68 -6 -106 -36q-37 -30 -37 -76q0 -41 24 -62q25 -22 64 -22q61 0 110 55zM1063 1208h-477l-338 340h672z" />
    <glyph glyph-name="aacute" unicode="&#xe1;" horiz-adv-x="1384" 
d="M1196 1069l-4 -6q154 -100 154 -291q0 -46 -13 -113l-141 -665h-508l37 170q-61 -88 -156 -144q-94 -55 -221 -55q-102 0 -184 43q-83 44 -129 119q-47 77 -47 172q0 366 536 412l311 26v2q7 28 7 45q0 41 -21 62q-22 22 -61 22q-50 0 -80 -24q-32 -26 -47 -72h-512
q42 127 131 213q91 88 227 135t297 47q273 0 424 -98zM700 303h-6q51 57 72 152l-121 -11q-68 -6 -106 -36q-37 -30 -37 -76q0 -41 24 -62q25 -22 64 -22q61 0 110 55zM1020 1208h-481l282 340h695z" />
    <glyph glyph-name="acircumflex" unicode="&#xe2;" horiz-adv-x="1384" 
d="M1196 1069l-4 -6q154 -100 154 -291q0 -46 -13 -113l-141 -665h-508l37 170q-61 -88 -156 -144q-94 -55 -221 -55q-102 0 -184 43q-83 44 -129 119q-47 77 -47 172q0 366 536 412l311 26v2q7 28 7 45q0 41 -21 62q-22 22 -61 22q-50 0 -80 -24q-32 -26 -47 -72h-512
q42 127 131 213q91 88 227 135t297 47q273 0 424 -98zM700 303h-6q51 57 72 152l-121 -11q-68 -6 -106 -36q-37 -30 -37 -76q0 -41 24 -62q25 -22 64 -22q61 0 110 55zM1174 1548l200 -340h-432l-106 142l-164 -142h-434l319 340h617z" />
    <glyph glyph-name="atilde" unicode="&#xe3;" horiz-adv-x="1384" 
d="M1196 1069l-4 -6q154 -100 154 -291q0 -46 -13 -113l-141 -665h-508l37 170q-61 -88 -156 -144q-94 -55 -221 -55q-102 0 -184 43q-83 44 -129 119q-47 77 -47 172q0 366 536 412l311 26v2q7 28 7 45q0 41 -21 62q-22 22 -61 22q-50 0 -80 -24q-32 -26 -47 -72h-512
q42 127 131 213q91 88 227 135t297 47q273 0 424 -98zM700 303h-6q51 57 72 152l-121 -11q-68 -6 -106 -36q-37 -30 -37 -76q0 -41 24 -62q25 -22 64 -22q61 0 110 55zM403 1208l-8 -6q41 197 123 299q83 103 203 103q43 0 86 -15t78 -30q32 -16 59 -25q24 -8 60 -8
q42 0 77 24q34 23 49 62h148q-40 -194 -123 -297q-82 -101 -203 -101q-42 0 -86 15q-18 6 -75 31q-28 14 -58 24t-57 10q-42 0 -76 -24q-34 -23 -49 -62h-148z" />
    <glyph glyph-name="adieresis" unicode="&#xe4;" horiz-adv-x="1384" 
d="M1196 1069l-4 -6q154 -100 154 -291q0 -46 -13 -113l-141 -665h-508l37 170q-61 -88 -156 -144q-94 -55 -221 -55q-102 0 -184 43q-83 44 -129 119q-47 77 -47 172q0 366 536 412l311 26v2q7 28 7 45q0 41 -21 62q-22 22 -61 22q-50 0 -80 -24q-32 -26 -47 -72h-512
q42 127 131 213q91 88 227 135t297 47q273 0 424 -98zM700 303h-6q51 57 72 152l-121 -11q-68 -6 -106 -36q-37 -30 -37 -76q0 -41 24 -62q25 -22 64 -22q61 0 110 55zM770 1208h-518l72 340h518zM1352 1208h-518l71 340h518z" />
    <glyph glyph-name="aring" unicode="&#xe5;" horiz-adv-x="1384" 
d="M1196 1069l-4 -6q154 -100 154 -291q0 -46 -13 -113l-141 -665h-508l37 170q-61 -88 -156 -144q-94 -55 -221 -55q-102 0 -184 43q-83 44 -129 119q-47 77 -47 172q0 366 536 412l311 26v2q7 28 7 45q0 41 -21 62q-22 22 -61 22q-50 0 -80 -24q-32 -26 -47 -72h-512
q42 127 131 213q91 88 227 135t297 47q273 0 424 -98zM700 303h-6q51 57 72 152l-121 -11q-68 -6 -106 -36q-37 -30 -37 -76q0 -41 24 -62q25 -22 64 -22q61 0 110 55zM698 1231q-56 29 -92 90q-33 56 -33 135q0 86 39 154q40 70 111 114q70 43 160 43q77 0 135 -30
q56 -29 92 -90q33 -56 33 -136q0 -85 -39 -153q-41 -72 -111 -115t-159 -43q-76 0 -136 31zM901 1446h-2q19 19 19 49q0 22 -15 37q-14 14 -37 14q-29 0 -47 -18t-18 -49q0 -21 16 -37q15 -15 37 -15q28 0 47 19z" />
    <glyph glyph-name="ae" unicode="&#xe6;" horiz-adv-x="2123" 
d="M1292 434l-8 -14q0 -77 19 -117q18 -37 63 -37q38 0 70 19q29 18 57 59h512q-95 -189 -264 -283t-393 -94q-112 0 -195 25q-77 23 -131 71q-48 43 -94 117q-180 -213 -525 -213q-112 0 -208 41t-154 117q-57 75 -57 184q0 126 65 215t184 135q124 48 287 48h305l6 32
q7 28 7 45q0 41 -21 62q-22 22 -61 22q-50 0 -80 -24q-32 -26 -47 -72h-512q42 127 131 213q91 88 227 135t297 47q133 0 223 -43q96 -46 140 -118q77 74 186 118q107 43 227 43q263 0 406 -116q145 -118 145 -357q0 -64 -12 -125q-11 -54 -37 -135h-758zM1409 823l2 -2
q-48 -45 -74 -116h246q12 34 12 61q0 48 -20 74t-62 26q-58 0 -104 -43zM762 428l-117 -2q-65 0 -106 -23q-37 -21 -37 -65q0 -36 24 -57t64 -21q126 0 172 168z" />
    <glyph glyph-name="ccedilla" unicode="&#xe7;" horiz-adv-x="1343" 
d="M723 338l-10 4q38 38 63 109h512q-43 -130 -129 -236q-83 -102 -215 -168q-130 -65 -299 -74l-6 -26q67 -9 106 -45t39 -99q0 -68 -36 -118q-38 -54 -101 -80q-69 -29 -147 -29h-207l41 186h80q23 0 41 11q16 10 16 28q0 25 -41 25h-43l35 166q-124 24 -215 90
q-88 64 -135 160t-47 215q0 188 90 354q88 162 262 262q171 98 403 98q168 0 293 -55q126 -56 197 -164q71 -109 71 -258h-512q0 74 -18 111t-68 37q-56 0 -100 -62q-45 -63 -68 -155q-24 -95 -24 -191q0 -137 84 -137q47 0 88 41z" />
    <glyph glyph-name="egrave" unicode="&#xe8;" horiz-adv-x="1359" 
d="M528 434v-16q0 -77 19 -117q18 -37 63 -37q38 0 70 19q29 18 57 59h512q-95 -189 -264 -283t-393 -94q-174 0 -301 62q-129 63 -195 172q-67 110 -67 254q0 184 90 350q87 160 262 264q169 100 403 100q263 0 406 -116q145 -118 145 -357q0 -64 -12 -125
q-11 -54 -37 -135h-758zM653 821l2 -2q-46 -43 -73 -117h245q13 37 13 62q0 47 -21 74q-20 26 -61 26q-59 0 -105 -43zM1032 1208h-477l-338 340h672z" />
    <glyph glyph-name="eacute" unicode="&#xe9;" horiz-adv-x="1359" 
d="M528 434v-16q0 -77 19 -117q18 -37 63 -37q38 0 70 19q29 18 57 59h512q-95 -189 -264 -283t-393 -94q-174 0 -301 62q-129 63 -195 172q-67 110 -67 254q0 184 90 350q87 160 262 264q169 100 403 100q263 0 406 -116q145 -118 145 -357q0 -64 -12 -125
q-11 -54 -37 -135h-758zM653 821l2 -2q-46 -43 -73 -117h245q13 37 13 62q0 47 -21 74q-20 26 -61 26q-59 0 -105 -43zM1034 1208h-481l283 340h694z" />
    <glyph glyph-name="ecircumflex" unicode="&#xea;" horiz-adv-x="1359" 
d="M528 434v-16q0 -77 19 -117q18 -37 63 -37q38 0 70 19q29 18 57 59h512q-95 -189 -264 -283t-393 -94q-174 0 -301 62q-129 63 -195 172q-67 110 -67 254q0 184 90 350q87 160 262 264q169 100 403 100q263 0 406 -116q145 -118 145 -357q0 -64 -12 -125
q-11 -54 -37 -135h-758zM653 821l2 -2q-46 -43 -73 -117h245q13 37 13 62q0 47 -21 74q-20 26 -61 26q-59 0 -105 -43zM1188 1548l201 -340h-433l-106 142l-164 -142h-434l319 340h617z" />
    <glyph glyph-name="edieresis" unicode="&#xeb;" horiz-adv-x="1359" 
d="M528 434v-16q0 -77 19 -117q18 -37 63 -37q38 0 70 19q29 18 57 59h512q-95 -189 -264 -283t-393 -94q-174 0 -301 62q-129 63 -195 172q-67 110 -67 254q0 184 90 350q87 160 262 264q169 100 403 100q263 0 406 -116q145 -118 145 -357q0 -64 -12 -125
q-11 -54 -37 -135h-758zM653 821l2 -2q-46 -43 -73 -117h245q13 37 13 62q0 47 -21 74q-20 26 -61 26q-59 0 -105 -43zM784 1208h-518l72 340h518zM1366 1208h-518l72 340h518z" />
    <glyph glyph-name="igrave" unicode="&#xec;" horiz-adv-x="681" 
d="M479 0h-518l242 1137h518zM707 1217h-478l-338 339h672z" />
    <glyph glyph-name="iacute" unicode="&#xed;" horiz-adv-x="681" 
d="M479 0h-518l242 1137h518zM721 1217h-481l282 339h695z" />
    <glyph glyph-name="icircumflex" unicode="&#xee;" horiz-adv-x="681" 
d="M479 0h-518l242 1137h518zM850 1556l201 -339h-433l-106 141l-164 -141h-434l319 339h617z" />
    <glyph glyph-name="idieresis" unicode="&#xef;" horiz-adv-x="681" 
d="M479 0h-518l242 1137h518zM446 1217h-518l72 339h518zM1028 1217h-518l72 339h518z" />
    <glyph glyph-name="eth" unicode="&#xf0;" horiz-adv-x="1415" 
d="M1260 1327l-11 2q73 -106 109 -215q37 -112 37 -260q0 -254 -97 -459q-94 -198 -274 -313q-177 -113 -418 -113q-176 0 -307 58q-134 59 -203 168t-69 264q0 168 77 319q77 150 209 242q133 92 289 92q115 0 178 -57q65 -59 86 -150q-6 149 -102 301l-272 -67l-13 202
l144 37q-107 101 -246 178h688l55 -57l242 60l12 -203zM758 352v-2q49 52 73 135q25 86 25 170q0 127 -102 127q-63 0 -113 -53t-74 -135t-24 -168q0 -127 102 -127q63 0 113 53z" />
    <glyph glyph-name="ntilde" unicode="&#xf1;" horiz-adv-x="1396" 
d="M1233 1128l-2 -2q72 -40 106 -106q35 -68 35 -152q0 -74 -18 -157l-152 -713h-518l131 616q16 91 16 119q0 84 -65 84q-58 0 -98 -55q-41 -56 -68 -176l-125 -588h-518l242 1137h508l-50 -234q43 78 101 133q62 58 135 96q73 37 158 37q111 0 182 -39zM434 1214l-8 -6
q41 197 123 299q83 103 203 103q42 0 86 -15q39 -13 77 -30q30 -15 60 -25q24 -8 59 -8q44 0 78 24q34 23 49 62h148q-40 -194 -123 -297q-81 -100 -203 -100q-45 0 -86 14q-23 8 -76 31q-30 15 -57 24q-30 10 -57 10q-41 0 -76 -24q-34 -23 -49 -62h-148z" />
    <glyph glyph-name="ograve" unicode="&#xf2;" horiz-adv-x="1417" 
d="M303 27h-2q-134 59 -203 168q-71 112 -71 264q0 184 90 350q88 163 264 262q174 98 418 98q182 0 311 -57q134 -59 203 -168q71 -112 71 -264q0 -184 -90 -350q-88 -163 -264 -262t-418 -99q-178 0 -309 58zM764 356q49 58 74 152q24 92 24 188q0 142 -102 142
q-62 0 -113 -60q-50 -59 -74 -151q-24 -91 -24 -189q0 -141 102 -141q63 0 113 59zM1090 1217h-478l-338 339h672z" />
    <glyph glyph-name="oacute" unicode="&#xf3;" horiz-adv-x="1417" 
d="M303 27h-2q-134 59 -203 168q-71 112 -71 264q0 184 90 350q88 163 264 262q174 98 418 98q182 0 311 -57q134 -59 203 -168q71 -112 71 -264q0 -184 -90 -350q-88 -163 -264 -262t-418 -99q-178 0 -309 58zM764 356q49 58 74 152q24 92 24 188q0 142 -102 142
q-62 0 -113 -60q-50 -59 -74 -151q-24 -91 -24 -189q0 -141 102 -141q63 0 113 59zM1047 1217h-482l283 339h694z" />
    <glyph glyph-name="ocircumflex" unicode="&#xf4;" horiz-adv-x="1417" 
d="M303 27h-2q-134 59 -203 168q-71 112 -71 264q0 184 90 350q88 163 264 262q174 98 418 98q182 0 311 -57q134 -59 203 -168q71 -112 71 -264q0 -184 -90 -350q-88 -163 -264 -262t-418 -99q-178 0 -309 58zM764 356q49 58 74 152q24 92 24 188q0 142 -102 142
q-62 0 -113 -60q-50 -59 -74 -151q-24 -91 -24 -189q0 -141 102 -141q63 0 113 59zM1200 1556l201 -339h-432l-107 141l-164 -141h-434l320 339h616z" />
    <glyph glyph-name="otilde" unicode="&#xf5;" horiz-adv-x="1417" 
d="M303 27h-2q-134 59 -203 168q-71 112 -71 264q0 184 90 350q88 163 264 262q174 98 418 98q182 0 311 -57q134 -59 203 -168q71 -112 71 -264q0 -184 -90 -350q-88 -163 -264 -262t-418 -99q-178 0 -309 58zM764 356q49 58 74 152q24 92 24 188q0 142 -102 142
q-62 0 -113 -60q-50 -59 -74 -151q-24 -91 -24 -189q0 -141 102 -141q63 0 113 59zM430 1217l-8 -7q41 197 123 299q83 103 203 103q42 0 86 -15q39 -13 77 -30q30 -15 60 -25q24 -8 59 -8q42 0 78 25q34 24 49 61h148q-40 -194 -123 -297q-81 -100 -203 -100q-45 0 -86 14
q-23 8 -76 31q-30 15 -57 24q-33 11 -58 11q-39 0 -75 -25q-34 -24 -49 -61h-148z" />
    <glyph glyph-name="odieresis" unicode="&#xf6;" horiz-adv-x="1417" 
d="M303 27h-2q-134 59 -203 168q-71 112 -71 264q0 184 90 350q88 163 264 262q174 98 418 98q182 0 311 -57q134 -59 203 -168q71 -112 71 -264q0 -184 -90 -350q-88 -163 -264 -262t-418 -99q-178 0 -309 58zM764 356q49 58 74 152q24 92 24 188q0 142 -102 142
q-62 0 -113 -60q-50 -59 -74 -151q-24 -91 -24 -189q0 -141 102 -141q63 0 113 59zM797 1217h-518l71 339h518zM1378 1217h-518l72 339h518z" />
    <glyph glyph-name="divide" unicode="&#xf7;" horiz-adv-x="1333" 
d="M874 821h-415v316h415v-316zM1235 383h-1137v377h1137v-377zM874 0h-415v317h415v-317z" />
    <glyph glyph-name="oslash" unicode="&#xf8;" horiz-adv-x="1417" 
d="M1542 1137l-227 -193q71 -109 71 -264q0 -184 -90 -350q-88 -163 -264 -262q-175 -99 -418 -99q-203 0 -350 78l-53 -47h-334l225 193q-71 109 -71 264q0 184 90 350q88 163 264 262q174 98 418 98q205 0 350 -77l55 47h334zM639 768v-2q-53 -72 -74 -178l264 225
q-25 25 -67 25q-71 0 -123 -70zM772 365q53 72 74 178l-264 -226q24 -24 67 -24q69 0 123 72z" />
    <glyph glyph-name="ugrave" unicode="&#xf9;" horiz-adv-x="1390" 
d="M911 1137l514 -2l-241 -1137h-508l49 231q-39 -72 -98 -129q-57 -54 -135 -94q-73 -37 -154 -37q-110 0 -178 39q-71 41 -105 107q-35 68 -35 151q0 23 7 74q8 55 14 84l152 713h518l-131 -617q-17 -87 -17 -117q0 -34 17 -61q16 -25 49 -25q56 0 94 56q35 52 63 176z
M1100 1214h-477l-338 340h671z" />
    <glyph glyph-name="uacute" unicode="&#xfa;" horiz-adv-x="1390" 
d="M911 1137l514 -2l-241 -1137h-508l49 231q-39 -72 -98 -129q-57 -54 -135 -94q-73 -37 -154 -37q-110 0 -178 39q-71 41 -105 107q-35 68 -35 151q0 23 7 74q8 55 14 84l152 713h518l-131 -617q-17 -87 -17 -117q0 -34 17 -61q16 -25 49 -25q56 0 94 56q35 52 63 176z
M1057 1214h-482l283 340h694z" />
    <glyph glyph-name="ucircumflex" unicode="&#xfb;" horiz-adv-x="1390" 
d="M911 1137l514 -2l-241 -1137h-508l49 231q-39 -72 -98 -129q-57 -54 -135 -94q-73 -37 -154 -37q-110 0 -178 39q-71 41 -105 107q-35 68 -35 151q0 23 7 74q8 55 14 84l152 713h518l-131 -617q-17 -87 -17 -117q0 -34 17 -61q16 -25 49 -25q56 0 94 56q35 52 63 176z
M1210 1554l201 -340h-432l-107 142l-163 -142h-435l320 340h616z" />
    <glyph glyph-name="udieresis" unicode="&#xfc;" horiz-adv-x="1390" 
d="M911 1137l514 -2l-241 -1137h-508l49 231q-39 -72 -98 -129q-57 -54 -135 -94q-73 -37 -154 -37q-110 0 -178 39q-71 41 -105 107q-35 68 -35 151q0 23 7 74q8 55 14 84l152 713h518l-131 -617q-17 -87 -17 -117q0 -34 17 -61q16 -25 49 -25q56 0 94 56q35 52 63 176z
M807 1214h-518l71 340h519zM1389 1214h-519l72 340h518z" />
    <glyph glyph-name="yacute" unicode="&#xfd;" horiz-adv-x="1366" 
d="M600 311l336 826h545l-650 -1538h-522l207 505h-385l-8 1033h500zM1014 1217h-482l283 339h694z" />
    <glyph glyph-name="thorn" unicode="&#xfe;" horiz-adv-x="1427" 
d="M1233 1112h-2q80 -56 123 -154t43 -227q0 -198 -74 -375q-72 -173 -209 -282q-134 -107 -309 -107q-218 0 -295 219l-125 -589h-508l326 1538l88 419h508l-88 -419l-47 -226q53 112 151 185t223 73q116 0 195 -55zM772 356q49 58 74 152q24 92 24 188q0 142 -102 142
q-62 0 -113 -60q-48 -57 -73 -151q-25 -95 -25 -189q0 -141 102 -141q63 0 113 59z" />
    <glyph glyph-name="ydieresis" unicode="&#xff;" horiz-adv-x="1366" 
d="M600 311l336 826h545l-650 -1538h-522l207 505h-385l-8 1033h500zM764 1217h-518l71 339h519zM1346 1217h-519l72 339h518z" />
    <glyph glyph-name="Amacron" unicode="&#x100;" horiz-adv-x="1734" 
d="M1632 0h-530l-12 330h-515l-153 -330h-563l774 1556h891zM1053 1356l-283 -606h305zM1579 1653h-983l72 340h983z" />
    <glyph glyph-name="amacron" unicode="&#x101;" horiz-adv-x="1384" 
d="M1196 1069l-4 -6q154 -100 154 -291q0 -46 -13 -113l-141 -665h-508l37 170q-61 -88 -156 -144q-94 -55 -221 -55q-102 0 -184 43q-83 44 -129 119q-47 77 -47 172q0 366 536 412l311 26v2q7 28 7 45q0 41 -21 62q-22 22 -61 22q-50 0 -80 -24q-32 -26 -47 -72h-512
q42 127 131 213q91 88 227 135t297 47q273 0 424 -98zM700 303h-6q51 57 72 152l-121 -11q-68 -6 -106 -36q-37 -30 -37 -76q0 -41 24 -62q25 -22 64 -22q61 0 110 55zM1253 1208h-903l72 340h903z" />
    <glyph glyph-name="Abreve" unicode="&#x102;" horiz-adv-x="1734" 
d="M1632 0h-530l-12 330h-515l-153 -330h-563l774 1556h891zM1053 1356l-283 -606h305zM877 1683v5q-99 29 -160 96q-58 64 -58 160q0 23 5 53h329q3 -34 39 -51q40 -19 96 -19q58 0 107 19q46 18 49 47h330q-70 -340 -514 -340q-121 0 -223 30z" />
    <glyph glyph-name="abreve" unicode="&#x103;" horiz-adv-x="1384" 
d="M1196 1069l-4 -6q154 -100 154 -291q0 -46 -13 -113l-141 -665h-508l37 170q-61 -88 -156 -144q-94 -55 -221 -55q-102 0 -184 43q-83 44 -129 119q-47 77 -47 172q0 366 536 412l311 26v2q7 28 7 45q0 41 -21 62q-22 22 -61 22q-50 0 -80 -24q-32 -26 -47 -72h-512
q42 127 131 213q91 88 227 135t297 47q273 0 424 -98zM700 303h-6q51 57 72 152l-121 -11q-68 -6 -106 -36q-37 -30 -37 -76q0 -41 24 -62q25 -22 64 -22q61 0 110 55zM594 1233l-2 4q-94 36 -148 98q-55 64 -55 154q0 29 6 59h338q-2 -4 -2 -16q0 -32 31 -51q32 -19 80 -19
q54 0 98 23q40 21 49 61h338q-21 -98 -92 -178q-69 -78 -184 -125q-110 -45 -252 -45q-112 0 -205 35z" />
    <glyph glyph-name="Aogonek" unicode="&#x104;" horiz-adv-x="1734" 
d="M1436 -104h-2q21 -7 61 -7h111l-68 -317h-184q-192 0 -287 53q-96 53 -96 148q0 66 30 121q27 51 97 104l-13 330h-514l-153 -330h-563l774 1556h891l108 -1556q-100 -18 -162 -41q-49 -18 -49 -41q0 -14 19 -20zM1049 1356l-283 -606h305z" />
    <glyph glyph-name="aogonek" unicode="&#x105;" horiz-adv-x="1384" 
d="M1196 1069l-6 -6q153 -99 153 -291q0 -52 -12 -113l-141 -665q-106 -20 -168 -43q-55 -21 -55 -45q0 -19 24 -25t76 -6h98l-65 -307h-185q-191 0 -286 53q-97 54 -97 148q0 65 39 118q40 55 113 107l37 170q-61 -88 -156 -144q-94 -55 -221 -55q-102 0 -184 43
q-83 44 -129 119q-47 77 -47 172q0 366 536 412l311 26v2q7 28 7 45q0 41 -21 62q-22 22 -61 22q-50 0 -80 -24q-32 -26 -47 -72h-512q42 127 131 213q91 88 227 135t297 47q273 0 424 -98zM698 303h-6q51 57 72 152l-121 -11q-68 -6 -106 -36q-37 -30 -37 -76q0 -41 24 -62
q25 -22 64 -22q61 0 110 55z" />
    <glyph glyph-name="Cacute" unicode="&#x106;" horiz-adv-x="1685" 
d="M420 41l2 -2q-162 70 -254 215t-92 356q0 234 121 461q120 224 338 369q216 143 497 143q217 0 379 -78q161 -77 246 -215q87 -141 96 -313h-553q-15 207 -211 207q-105 0 -192 -78q-85 -76 -135 -209t-50 -289q0 -114 58 -178q57 -63 159 -63q96 0 172 55q78 56 121 158
h553q-88 -292 -313 -451q-226 -160 -574 -160q-201 0 -368 72zM1284 1651h-506l305 340h711z" />
    <glyph glyph-name="cacute" unicode="&#x107;" horiz-adv-x="1343" 
d="M291 29l4 4q-129 62 -197 170q-67 107 -67 252q0 188 90 354q88 162 262 262q171 98 403 98q168 0 293 -55q126 -56 197 -164q72 -110 72 -258h-512q0 71 -19 111q-18 37 -67 37q-57 0 -101 -62q-43 -61 -67 -155q-25 -98 -25 -191q0 -137 84 -137q47 0 88 41
q40 40 64 108h512q-45 -135 -142 -245q-95 -108 -239 -170q-145 -62 -332 -62q-171 0 -301 62zM1016 1219h-481l282 340h694z" />
    <glyph glyph-name="Ccircumflex" unicode="&#x108;" horiz-adv-x="1685" 
d="M420 41l2 -2q-162 70 -254 215t-92 356q0 234 121 461q120 224 338 369q216 143 497 143q217 0 379 -78q161 -77 246 -215q87 -141 96 -313h-553q-15 207 -211 207q-105 0 -192 -78q-85 -76 -135 -209t-50 -289q0 -114 58 -178q57 -63 159 -63q96 0 172 55q78 56 121 158
h553q-88 -292 -313 -451q-226 -160 -574 -160q-201 0 -368 72zM1456 1991l205 -340h-451l-110 127l-152 -127h-459l326 340h641z" />
    <glyph glyph-name="ccircumflex" unicode="&#x109;" horiz-adv-x="1343" 
d="M291 29l4 4q-129 62 -197 170q-67 107 -67 252q0 188 90 354q88 162 262 262q171 98 403 98q168 0 293 -55q126 -56 197 -164q72 -110 72 -258h-512q0 71 -19 111q-18 37 -67 37q-57 0 -101 -62q-43 -61 -67 -155q-25 -98 -25 -191q0 -137 84 -137q47 0 88 41
q40 40 64 108h512q-45 -135 -142 -245q-95 -108 -239 -170q-145 -62 -332 -62q-171 0 -301 62zM1169 1559l201 -340h-432l-107 141l-163 -141h-435l320 340h616z" />
    <glyph glyph-name="Cdotaccent" unicode="&#x10a;" horiz-adv-x="1685" 
d="M420 41l2 -2q-162 70 -254 215t-92 356q0 234 121 461q120 224 338 369q216 143 497 143q217 0 379 -78q161 -77 246 -215q87 -141 96 -313h-553q-15 207 -211 207q-105 0 -192 -78q-85 -76 -135 -209t-50 -289q0 -114 58 -178q57 -63 159 -63q96 0 172 55q78 56 121 158
h553q-88 -292 -313 -451q-226 -160 -574 -160q-201 0 -368 72zM1331 1651h-534l71 340h535z" />
    <glyph glyph-name="cdotaccent" unicode="&#x10b;" horiz-adv-x="1343" 
d="M291 29l4 4q-129 62 -197 170q-67 107 -67 252q0 188 90 354q88 162 262 262q171 98 403 98q168 0 293 -55q126 -56 197 -164q72 -110 72 -258h-512q0 71 -19 111q-18 37 -67 37q-57 0 -101 -62q-43 -61 -67 -155q-25 -98 -25 -191q0 -137 84 -137q47 0 88 41
q40 40 64 108h512q-45 -135 -142 -245q-95 -108 -239 -170q-145 -62 -332 -62q-171 0 -301 62zM1057 1219h-518l71 340h518z" />
    <glyph glyph-name="Ccaron" unicode="&#x10c;" horiz-adv-x="1685" 
d="M420 41l2 -2q-162 70 -254 215t-92 356q0 234 121 461q120 224 338 369q216 143 497 143q217 0 379 -78q161 -77 246 -215q87 -141 96 -313h-553q-15 207 -211 207q-105 0 -192 -78q-85 -76 -135 -209t-50 -289q0 -114 58 -178q57 -63 159 -63q96 0 172 55q78 56 121 158
h553q-88 -292 -313 -451q-226 -160 -574 -160q-201 0 -368 72zM1100 1864l151 127h459l-326 -340h-641l-204 340h450z" />
    <glyph glyph-name="ccaron" unicode="&#x10d;" horiz-adv-x="1343" 
d="M291 29l4 4q-129 62 -197 170q-67 107 -67 252q0 188 90 354q88 162 262 262q171 98 403 98q168 0 293 -55q126 -56 197 -164q72 -110 72 -258h-512q0 71 -19 111q-18 37 -67 37q-57 0 -101 -62q-43 -61 -67 -155q-25 -98 -25 -191q0 -137 84 -137q47 0 88 41
q40 40 64 108h512q-45 -135 -142 -245q-95 -108 -239 -170q-145 -62 -332 -62q-171 0 -301 62zM836 1417l163 142h435l-320 -340h-616l-201 340h432z" />
    <glyph glyph-name="Dcaron" unicode="&#x10e;" horiz-adv-x="1644" 
d="M891 1556l-4 -2q201 0 375 -71q170 -69 276 -215q104 -143 104 -350q0 -331 -137 -535q-139 -207 -362 -295q-224 -88 -498 -88h-661l329 1556h578zM686 418l-4 -2q129 0 221 59q91 58 141 164t50 246q0 76 -31 133q-30 56 -86 86q-57 31 -127 31h-94l-154 -717h84z
M958 1862l152 127h459l-326 -340h-641l-205 340h451z" />
    <glyph glyph-name="dcaron" unicode="&#x10f;" horiz-adv-x="1431" 
d="M1051 1556l510 -8l-330 -1556h-508l37 174q-53 -92 -142 -148q-88 -55 -208 -55q-114 0 -199 49q-87 50 -133 148q-47 100 -47 241q0 201 73 375t209 283q132 106 310 106q120 0 192 -69q73 -70 100 -174zM770 348q49 58 74 152q24 92 24 188q0 141 -102 141
q-63 0 -113 -59q-48 -57 -73 -152t-25 -188q0 -141 102 -141q63 0 113 59zM1909 1155h-348l110 393h438z" />
    <glyph glyph-name="Dcroat" unicode="&#x110;" horiz-adv-x="1701" 
d="M948 1556l-4 -2q201 0 375 -71q170 -69 276 -215q105 -144 105 -350q0 -331 -137 -535q-139 -207 -363 -295t-498 -88h-661l131 623h-143l71 340h146l125 593h577zM743 418l-4 -2q130 0 222 59q91 58 141 164q49 104 49 246q0 76 -31 133q-30 56 -86 86q-57 31 -127 31
h-94l-37 -174h262l-71 -340h-265l-43 -203h84z" />
    <glyph glyph-name="dcroat" unicode="&#x111;" horiz-adv-x="1431" 
d="M1634 1470l-55 -296h-98l-250 -1182h-508l37 174q-53 -92 -142 -148q-88 -55 -208 -55q-114 0 -199 49q-87 50 -133 148q-47 100 -47 241q0 201 73 375t209 283q132 106 310 106q120 0 192 -69q73 -70 100 -174l56 260h-193l58 288h196l19 86h508l-19 -86h94zM770 348
q49 58 74 152q24 92 24 188q0 141 -102 141q-63 0 -113 -59q-48 -57 -73 -152t-25 -188q0 -141 102 -141q63 0 113 59z" />
    <glyph glyph-name="Emacron" unicode="&#x112;" horiz-adv-x="1372" 
d="M1489 1556l-90 -419h-639l-31 -138h627l-90 -419h-625l-35 -160h660l-90 -420h-1192l329 1556h1176zM1395 1653h-983l71 340h983z" />
    <glyph glyph-name="emacron" unicode="&#x113;" horiz-adv-x="1359" 
d="M528 434v-16q0 -77 19 -117q18 -37 63 -37q38 0 70 19q29 18 57 59h512q-95 -189 -264 -283t-393 -94q-174 0 -301 62q-129 63 -195 172q-67 110 -67 254q0 184 90 350q87 160 262 264q169 100 403 100q263 0 406 -116q145 -118 145 -357q0 -64 -12 -125
q-11 -54 -37 -135h-758zM653 821l2 -2q-46 -43 -73 -117h245q13 37 13 62q0 47 -21 74q-20 26 -61 26q-59 0 -105 -43zM1268 1208h-903l71 340h903z" />
    <glyph glyph-name="Ebreve" unicode="&#x114;" horiz-adv-x="1372" 
d="M1489 1556l-90 -419h-639l-31 -138h627l-90 -419h-625l-35 -160h660l-90 -420h-1192l329 1556h1176zM692 1683v5q-99 29 -160 96q-57 63 -57 160q0 29 4 53h330q3 -34 39 -51q40 -19 96 -19q58 0 107 19q46 18 49 47h330q-70 -340 -515 -340q-121 0 -223 30z" />
    <glyph glyph-name="ebreve" unicode="&#x115;" horiz-adv-x="1359" 
d="M528 434v-16q0 -77 19 -117q18 -37 63 -37q38 0 70 19q29 18 57 59h512q-95 -189 -264 -283t-393 -94q-174 0 -301 62q-129 63 -195 172q-67 110 -67 254q0 184 90 350q87 160 262 264q169 100 403 100q263 0 406 -116q145 -118 145 -357q0 -64 -12 -125
q-11 -54 -37 -135h-758zM653 821l2 -2q-46 -43 -73 -117h245q13 37 13 62q0 47 -21 74q-20 26 -61 26q-59 0 -105 -43zM608 1235l-2 4q-93 35 -147 98q-56 65 -56 154q0 24 7 59h338q-3 -6 -3 -16q0 -32 31 -51q32 -19 80 -19q54 0 98 23q41 21 50 61h337q-21 -98 -92 -178
q-69 -78 -184 -125q-110 -45 -252 -45q-112 0 -205 35z" />
    <glyph glyph-name="Edotaccent" unicode="&#x116;" horiz-adv-x="1372" 
d="M1489 1556l-90 -419h-639l-31 -138h627l-90 -419h-625l-35 -160h660l-90 -420h-1192l329 1556h1176zM1171 1653h-534l72 340h534z" />
    <glyph glyph-name="edotaccent" unicode="&#x117;" horiz-adv-x="1359" 
d="M528 434v-16q0 -77 19 -117q18 -37 63 -37q38 0 70 19q29 18 57 59h512q-95 -189 -264 -283t-393 -94q-174 0 -301 62q-129 63 -195 172q-67 110 -67 254q0 184 90 350q87 160 262 264q169 100 403 100q263 0 406 -116q145 -118 145 -357q0 -64 -12 -125
q-11 -54 -37 -135h-758zM653 821l2 -2q-46 -43 -73 -117h245q13 37 13 62q0 47 -21 74q-20 26 -61 26q-59 0 -105 -43zM1075 1208h-518l72 340h518z" />
    <glyph glyph-name="Eogonek" unicode="&#x118;" horiz-adv-x="1372" 
d="M1399 1137l-645 4l-31 -137h627l-90 -420h-625l-35 -160h660l-91 -420q-98 -18 -161 -41q-50 -18 -50 -41q0 -14 19 -20q18 -6 61 -6h111l-68 -318h-184q-192 0 -287 53q-96 53 -96 148q0 70 59 129q56 56 177 92h-766l329 1556h1176z" />
    <glyph glyph-name="eogonek" unicode="&#x119;" horiz-adv-x="1359" 
d="M528 434v-16q0 -77 19 -117q18 -37 63 -37q38 0 70 19q29 18 57 59h512q-80 -161 -237 -266q-76 -56 -119 -99q-39 -39 -39 -67q0 -21 18 -27t66 -6h90l-65 -307h-168q-381 0 -381 184q0 63 41 119t110 96q-168 6 -289 68q-119 61 -184 170q-63 105 -63 246q0 184 90 350
q87 160 262 264q169 100 403 100q263 0 406 -116q145 -118 145 -357q0 -64 -12 -125q-11 -54 -37 -135h-758zM653 821l2 -2q-46 -43 -73 -117h245q13 37 13 62q0 47 -21 74q-20 26 -61 26q-59 0 -105 -43z" />
    <glyph glyph-name="Ecaron" unicode="&#x11a;" horiz-adv-x="1372" 
d="M1489 1556l-90 -419h-639l-31 -138h627l-90 -419h-625l-35 -160h660l-90 -420h-1192l329 1556h1176zM940 1866l152 127h458l-325 -340h-641l-205 340h450z" />
    <glyph glyph-name="ecaron" unicode="&#x11b;" horiz-adv-x="1359" 
d="M528 434v-16q0 -77 19 -117q18 -37 63 -37q38 0 70 19q29 18 57 59h512q-95 -189 -264 -283t-393 -94q-174 0 -301 62q-129 63 -195 172q-67 110 -67 254q0 184 90 350q87 160 262 264q169 100 403 100q263 0 406 -116q145 -118 145 -357q0 -64 -12 -125
q-11 -54 -37 -135h-758zM653 821l2 -2q-46 -43 -73 -117h245q13 37 13 62q0 47 -21 74q-20 26 -61 26q-59 0 -105 -43zM854 1407l164 141h434l-319 -340h-617l-201 340h433z" />
    <glyph glyph-name="Gcircumflex" unicode="&#x11c;" horiz-adv-x="1789" 
d="M905 954l881 4l-203 -954h-430l70 326q-79 -155 -209 -258q-128 -101 -340 -101q-154 0 -295 72q-139 71 -225 219t-86 359q0 237 122 460q124 227 347 367q225 141 510 141q230 0 385 -73q159 -75 243 -193q89 -124 109 -264h-553q-21 64 -70 98q-47 33 -137 33
q-128 0 -219 -76q-92 -77 -141 -205q-50 -130 -50 -286q0 -118 72 -187q70 -67 195 -67q81 0 145 24t109 72q43 46 61 104h-373zM1466 1997l205 -340h-450l-111 127l-152 -127h-458l325 340h641z" />
    <glyph glyph-name="gcircumflex" unicode="&#x11d;" horiz-adv-x="1429" 
d="M965 1137h510l-240 -1127q-36 -155 -131 -250q-98 -98 -240 -145q-136 -45 -307 -45q-267 0 -424 92q-156 92 -174 285h512q9 -25 31 -37q21 -12 61 -12q66 0 111 39t57 100l39 188q-52 -89 -141 -147q-88 -58 -209 -58q-102 0 -193 54q-89 52 -141 147q-51 92 -51 221
q0 180 71 351q68 164 207 272q134 104 312 104q84 0 143 -36q60 -36 98 -93q40 -60 54 -116zM778 399v-2q49 55 74 140q25 86 25 172q0 129 -103 129q-61 0 -112 -54t-74 -137q-25 -89 -25 -174q0 -129 103 -129q63 0 112 55zM1225 1552l200 -340h-432l-106 142l-164 -142
h-434l319 340h617z" />
    <glyph glyph-name="Gbreve" unicode="&#x11e;" horiz-adv-x="1789" 
d="M905 954l881 4l-203 -954h-430l70 326q-79 -155 -209 -258q-128 -101 -340 -101q-154 0 -295 72q-139 71 -225 219t-86 359q0 237 122 460q124 227 347 367q225 141 510 141q230 0 385 -73q159 -75 243 -193q89 -124 109 -264h-553q-21 64 -70 98q-47 33 -137 33
q-128 0 -219 -76q-92 -77 -141 -205q-50 -130 -50 -286q0 -118 72 -187q70 -67 195 -67q81 0 145 24t109 72q43 46 61 104h-373zM862 1688v4q-99 29 -160 96q-57 63 -57 160q0 29 4 53h330q3 -34 39 -51q40 -19 96 -19q58 0 107 19q46 18 49 47h329q-70 -340 -514 -340
q-118 0 -223 31z" />
    <glyph glyph-name="gbreve" unicode="&#x11f;" horiz-adv-x="1429" 
d="M965 1137h510l-240 -1127q-36 -155 -131 -250q-98 -98 -240 -145q-136 -45 -307 -45q-267 0 -424 92q-156 92 -174 285h512q9 -25 31 -37q21 -12 61 -12q66 0 111 39t57 100l39 188q-52 -89 -141 -147q-88 -58 -209 -58q-102 0 -193 54q-89 52 -141 147q-51 92 -51 221
q0 180 71 351q68 164 207 272q134 104 312 104q84 0 143 -36q60 -36 98 -93q40 -60 54 -116zM778 399v-2q49 55 74 140q25 86 25 172q0 129 -103 129q-61 0 -112 -54t-74 -137q-25 -89 -25 -174q0 -129 103 -129q63 0 112 55zM645 1239l-2 4q-93 35 -147 98q-56 65 -56 154
q0 29 6 59h338q-2 -4 -2 -16q0 -32 31 -51q32 -19 80 -19q54 0 98 23q40 21 49 61h338q-21 -98 -92 -178q-69 -78 -184 -125q-110 -45 -252 -45q-112 0 -205 35z" />
    <glyph glyph-name="Gdotaccent" unicode="&#x120;" horiz-adv-x="1789" 
d="M905 954l881 4l-203 -954h-430l70 326q-79 -155 -209 -258q-128 -101 -340 -101q-154 0 -295 72q-139 71 -225 219t-86 359q0 237 122 460q124 227 347 367q225 141 510 141q230 0 385 -73q159 -75 243 -193q89 -124 109 -264h-553q-21 64 -70 98q-47 33 -137 33
q-128 0 -219 -76q-92 -77 -141 -205q-50 -130 -50 -286q0 -118 72 -187q70 -67 195 -67q81 0 145 24t109 72q43 46 61 104h-373zM1341 1657h-534l72 340h534z" />
    <glyph glyph-name="gdotaccent" unicode="&#x121;" horiz-adv-x="1429" 
d="M965 1137h510l-240 -1127q-36 -155 -131 -250q-98 -98 -240 -145q-136 -45 -307 -45q-267 0 -424 92q-156 92 -174 285h512q9 -25 31 -37q21 -12 61 -12q66 0 111 39t57 100l39 188q-52 -89 -141 -147q-88 -58 -209 -58q-102 0 -193 54q-89 52 -141 147q-51 92 -51 221
q0 180 71 351q68 164 207 272q134 104 312 104q84 0 143 -36q60 -36 98 -93q40 -60 54 -116zM778 399v-2q49 55 74 140q25 86 25 172q0 129 -103 129q-61 0 -112 -54t-74 -137q-25 -89 -25 -174q0 -129 103 -129q63 0 112 55zM1112 1212h-518l72 340h518z" />
    <glyph glyph-name="uni0122" unicode="&#x122;" horiz-adv-x="1789" 
d="M905 954l881 4l-203 -954h-430l70 326q-79 -155 -209 -258q-128 -101 -340 -101q-154 0 -295 72q-139 71 -225 219t-86 359q0 237 122 460q124 227 347 367q225 141 510 141q230 0 385 -73q159 -75 243 -193q89 -124 109 -264h-553q-21 64 -70 98q-47 33 -137 33
q-128 0 -219 -76q-92 -77 -141 -205q-50 -130 -50 -286q0 -118 72 -187q70 -67 195 -67q81 0 145 24t109 72q43 46 61 104h-373zM412 -432l71 340h535l-82 -385l-225 -217h-334l203 262h-168z" />
    <glyph glyph-name="uni0123" unicode="&#x123;" horiz-adv-x="1429" 
d="M965 1137h510l-240 -1127q-36 -155 -131 -250q-98 -98 -240 -145q-136 -45 -307 -45q-267 0 -424 92q-156 92 -174 285h512q9 -25 31 -37q21 -12 61 -12q66 0 111 39t57 100l39 188q-52 -89 -141 -147q-88 -58 -209 -58q-102 0 -193 54q-89 52 -141 147q-51 92 -51 221
q0 180 71 351q68 164 207 272q134 104 312 104q84 0 143 -36q60 -36 98 -93q40 -60 54 -116zM778 399v-2q49 55 74 140q25 86 25 172q0 129 -103 129q-61 0 -112 -54t-74 -137q-25 -89 -25 -174q0 -129 103 -129q63 0 112 55zM905 1831h318l-203 -262h168l-72 -340h-518
l82 385z" />
    <glyph glyph-name="Hcircumflex" unicode="&#x124;" horiz-adv-x="1650" 
d="M1110 1024l113 532h534l-330 -1556h-534l117 549h-375l-117 -549h-534l329 1556h535l-113 -532h375zM1432 1993l204 -340h-450l-111 127l-151 -127h-459l326 340h641z" />
    <glyph glyph-name="hcircumflex" unicode="&#x125;" horiz-adv-x="1396" 
d="M1233 1128l-4 -4q72 -40 106 -106q35 -68 35 -152q0 -74 -18 -157l-152 -713h-518l131 616q16 91 16 119q0 84 -65 84q-58 0 -98 -55q-41 -56 -68 -176l-125 -588h-518l330 1556h508l-140 -655q42 76 101 135q61 60 137 98q75 37 160 37q111 0 182 -39zM930 1989
l205 -340h-451l-111 127l-151 -127h-459l326 340h641z" />
    <glyph glyph-name="Hbar" unicode="&#x126;" horiz-adv-x="1650" 
d="M1729 1425h118l-65 -313h-119l-236 -1112h-534l117 549h-375l-117 -549h-534l235 1112h-119l66 313h119l28 131h535l-29 -131h375l29 131h534zM735 1024h375l18 88h-374z" />
    <glyph glyph-name="hbar" unicode="&#x127;" horiz-adv-x="1396" 
d="M1233 1128l-4 -4q72 -40 106 -106q35 -68 35 -152q0 -74 -18 -157l-152 -713h-518l131 616q16 91 16 119q0 84 -65 84q-58 0 -98 -55q-41 -56 -68 -176l-125 -588h-518l250 1182h-92l57 288h96l19 86h508l-19 -86h195l-58 -288h-198l-60 -281q42 76 101 135q61 60 137 98
q75 37 160 37q111 0 182 -39z" />
    <glyph glyph-name="Itilde" unicode="&#x128;" horiz-adv-x="741" 
d="M518 0h-534l329 1556h535zM178 1653v-2q40 198 129 303q88 104 215 104q76 0 172 -45q31 -14 66 -24q30 -9 63 -9q43 0 82 25q38 24 53 59h152q-40 -198 -129 -303q-88 -104 -215 -104q-72 0 -174 45q-36 15 -64 24q-37 11 -63 11q-43 0 -82 -25q-38 -24 -53 -59h-152z
" />
    <glyph glyph-name="itilde" unicode="&#x129;" horiz-adv-x="681" 
d="M479 0h-518l242 1137h518zM80 1217l-8 -7q41 197 123 299q83 103 202 103q43 0 86 -15t78 -30q30 -15 60 -25q24 -8 59 -8q42 0 78 25q34 24 49 61h147q-40 -194 -123 -297q-81 -100 -202 -100q-45 0 -86 14q-23 8 -76 31q-30 15 -57 24q-33 11 -58 11q-40 0 -76 -25
q-34 -24 -49 -61h-147z" />
    <glyph glyph-name="Imacron" unicode="&#x12a;" horiz-adv-x="741" 
d="M518 0h-534l329 1556h535zM1094 1653h-983l71 340h983z" />
    <glyph glyph-name="imacron" unicode="&#x12b;" horiz-adv-x="681" 
d="M479 0h-518l242 1137h518zM930 1217h-903l71 339h903z" />
    <glyph glyph-name="Ibreve" unicode="&#x12c;" horiz-adv-x="741" 
d="M518 0h-534l329 1556h535zM391 1683v5q-99 29 -160 96q-57 63 -57 160q0 29 4 53h330q3 -34 39 -51q40 -19 96 -19q58 0 107 19q46 18 49 47h329q-70 -340 -514 -340q-121 0 -223 30z" />
    <glyph glyph-name="ibreve" unicode="&#x12d;" horiz-adv-x="681" 
d="M479 0h-518l242 1137h518zM270 1241l-2 4q-93 35 -147 98q-55 64 -55 154q0 29 6 59h338q-2 -4 -2 -16q0 -33 30 -51q32 -19 80 -19q54 0 98 23q41 21 50 61h338q-20 -96 -93 -178q-69 -78 -184 -125q-110 -45 -252 -45q-112 0 -205 35z" />
    <glyph glyph-name="Iogonek" unicode="&#x12e;" horiz-adv-x="741" 
d="M518 0h-534l329 1556h535zM242 -428h-4q-192 0 -287 53q-96 53 -96 148q0 66 30 121q29 53 95 104h534q-100 -18 -162 -41q-49 -18 -49 -41q0 -14 19 -20q21 -7 61 -7h111l-68 -317h-184z" />
    <glyph glyph-name="iogonek" unicode="&#x12f;" horiz-adv-x="681" 
d="M219 1217l72 339h518l-72 -339h-518zM203 1137h516l-242 -1137q-106 -20 -168 -43q-55 -21 -55 -45q0 -19 25 -25q24 -6 75 -6h99l-66 -307h-184q-192 0 -287 53q-96 53 -96 148q0 61 37 116q40 59 104 109z" />
    <glyph glyph-name="Idotaccent" unicode="&#x130;" horiz-adv-x="741" 
d="M518 0h-534l329 1556h535zM870 1653h-534l72 340h534z" />
    <glyph glyph-name="dotlessi" unicode="&#x131;" horiz-adv-x="681" 
d="M479 0h-518l242 1137h518z" />
    <glyph glyph-name="Jcircumflex" unicode="&#x134;" horiz-adv-x="948" 
d="M-88 0l86 420h158q52 0 82 12q32 13 47 37q15 23 24 72l215 1013h535l-238 -1120q-36 -156 -100 -246q-67 -94 -189 -141q-121 -47 -307 -47h-313zM1206 1993l205 -340h-450l-111 127l-152 -127h-458l325 340h641z" />
    <glyph glyph-name="jcircumflex" unicode="&#x135;" horiz-adv-x="681" 
d="M-268 -401l78 366h38q56 0 86 23q28 22 37 73l230 1078h518l-248 -1166q-40 -190 -170 -282t-377 -92h-192zM864 1561l201 -340h-432l-107 141l-164 -141h-434l320 340h616z" />
    <glyph glyph-name="uni0136" unicode="&#x136;" horiz-adv-x="1585" 
d="M1171 1556h641l-616 -780l313 -776h-583l-254 721l-154 -721h-534l329 1556h535l-131 -622zM373 -436l71 340h535l-82 -385l-225 -217h-334l203 262h-168z" />
    <glyph glyph-name="uni0137" unicode="&#x137;" horiz-adv-x="1400" 
d="M922 1137h591l-423 -543l204 -594h-563l-149 485l-103 -485h-518l330 1556h518l-170 -804zM246 -436l71 340h519l-82 -385l-226 -217h-317l203 262h-168z" />
    <glyph glyph-name="kgreenlandic" unicode="&#x138;" horiz-adv-x="1392" 
d="M922 1137h591l-436 -551l226 -586h-564l-157 485l-103 -485h-518l240 1137h518l-86 -406z" />
    <glyph glyph-name="Lacute" unicode="&#x139;" horiz-adv-x="1265" 
d="M848 1556l-242 -1136h600l-90 -420h-1132l329 1556h535zM860 1653h-506l305 340h711z" />
    <glyph glyph-name="lacute" unicode="&#x13a;" horiz-adv-x="681" 
d="M479 0h-518l330 1556h518zM834 1653h-506l305 340h710z" />
    <glyph glyph-name="uni013B" unicode="&#x13b;" horiz-adv-x="1265" 
d="M848 1556l-242 -1136h600l-90 -420h-1132l329 1556h535zM182 -436l72 340h534l-81 -385l-226 -217h-334l203 262h-168z" />
    <glyph glyph-name="uni013C" unicode="&#x13c;" horiz-adv-x="681" 
d="M479 0h-518l330 1556h518zM-135 -436l72 340h518l-82 -385l-226 -217h-317l203 262h-168z" />
    <glyph glyph-name="Lcaron" unicode="&#x13d;" horiz-adv-x="1265" 
d="M848 1556l-242 -1136h600l-90 -420h-1132l329 1556h535zM1186 1040h-348l135 516h438z" />
    <glyph glyph-name="lcaron" unicode="&#x13e;" horiz-adv-x="681" 
d="M479 0h-518l330 1556h518zM1157 1163h-348l111 393h438z" />
    <glyph glyph-name="Ldot" unicode="&#x13f;" horiz-adv-x="1286" 
d="M848 1556l-242 -1136h600l-90 -420h-1132l329 1556h535zM1296 739h-518l92 430h519z" />
    <glyph glyph-name="ldot" unicode="&#x140;" horiz-adv-x="1060" 
d="M479 0h-518l330 1556h518zM1067 594h-379l90 430h379z" />
    <glyph glyph-name="Lslash" unicode="&#x141;" horiz-adv-x="1363" 
d="M762 690l-57 -270h600l-91 -420h-1132l92 440l-170 -73l86 401l170 72l152 716h534l-98 -464l315 135l-86 -402z" />
    <glyph glyph-name="lslash" unicode="&#x142;" horiz-adv-x="849" 
d="M805 1153l143 76l-92 -430l-141 -74l-154 -725h-518l88 418l-127 -68l92 430l127 66l150 710h518z" />
    <glyph glyph-name="Nacute" unicode="&#x143;" horiz-adv-x="1845" 
d="M1186 209l284 1347h482l-330 -1556h-881l9 1348l-285 -1348h-481l329 1556h881zM1360 1653h-506l305 340h711z" />
    <glyph glyph-name="nacute" unicode="&#x144;" horiz-adv-x="1396" 
d="M1233 1128l-2 -2q72 -40 106 -106q35 -68 35 -152q0 -74 -18 -157l-152 -713h-518l131 616q16 91 16 119q0 84 -65 84q-58 0 -98 -55q-41 -56 -68 -176l-125 -588h-518l242 1137h508l-50 -234q43 78 101 133q62 58 135 96q73 37 158 37q111 0 182 -39zM1051 1214h-482
l283 340h694z" />
    <glyph glyph-name="uni0145" unicode="&#x145;" horiz-adv-x="1845" 
d="M1186 209l284 1347h482l-330 -1556h-881l9 1348l-285 -1348h-481l329 1556h881zM492 -436l71 340h535l-82 -385l-225 -217h-334l202 262h-167z" />
    <glyph glyph-name="uni0146" unicode="&#x146;" horiz-adv-x="1396" 
d="M1233 1128l-2 -2q72 -40 106 -106q35 -68 35 -152q0 -74 -18 -157l-152 -713h-518l131 616q16 91 16 119q0 84 -65 84q-58 0 -98 -55q-41 -56 -68 -176l-125 -588h-518l242 1137h508l-50 -234q43 78 101 133q62 58 135 96q73 37 158 37q111 0 182 -39zM250 -438l72 340
h518l-82 -385l-226 -217h-317l203 262h-168z" />
    <glyph glyph-name="Ncaron" unicode="&#x147;" horiz-adv-x="1845" 
d="M1186 209l284 1347h482l-330 -1556h-881l9 1348l-285 -1348h-481l329 1556h881zM1176 1866l151 127h459l-326 -340h-641l-205 340h451z" />
    <glyph glyph-name="ncaron" unicode="&#x148;" horiz-adv-x="1396" 
d="M1233 1128l-2 -2q72 -40 106 -106q35 -68 35 -152q0 -74 -18 -157l-152 -713h-518l131 616q16 91 16 119q0 84 -65 84q-58 0 -98 -55q-41 -56 -68 -176l-125 -588h-518l242 1137h508l-50 -234q43 78 101 133q62 58 135 96q73 37 158 37q111 0 182 -39zM870 1413l164 141
h434l-319 -340h-617l-200 340h432z" />
    <glyph glyph-name="Eng" unicode="&#x14a;" horiz-adv-x="1845" 
d="M1470 1556l484 -2l-330 -1556q-40 -192 -178 -297q-137 -104 -399 -104h-277l70 321h151q63 0 99 19q34 18 49 63h-398l9 1348l-285 -1348h-481l329 1556h881l-8 -1347z" />
    <glyph glyph-name="eng" unicode="&#x14b;" horiz-adv-x="1396" 
d="M1233 1128l-2 2q72 -40 106 -106q35 -68 35 -152q0 -74 -18 -157l-152 -713l-6 -29q-40 -190 -170 -282t-377 -92h-192l78 362h38q56 0 86 23q28 22 37 73l13 58l106 499q16 91 16 119q0 84 -65 84q-58 0 -98 -55q-41 -56 -68 -176l-125 -588h-518l242 1137h508l-50 -234
q43 78 101 133q62 58 135 96q73 37 158 37q111 0 182 -39z" />
    <glyph glyph-name="Omacron" unicode="&#x14c;" horiz-adv-x="1763" 
d="M426 41v-4q-164 69 -260 219q-94 146 -94 362q0 232 121 459q120 225 342 367q220 141 507 141q213 0 383 -72q167 -71 261 -217t94 -362q0 -230 -121 -457q-119 -224 -342 -366q-222 -142 -508 -142q-213 0 -383 72zM1051 440l-4 -4q90 78 139 209t49 291q0 119 -57 182
q-60 66 -166 66q-121 0 -209 -76q-87 -75 -137 -209q-50 -133 -50 -291q0 -114 60 -180q57 -63 166 -63q122 0 209 75zM1593 1645h-983l72 340h983z" />
    <glyph glyph-name="omacron" unicode="&#x14d;" horiz-adv-x="1417" 
d="M303 27h-2q-134 59 -203 168q-71 112 -71 264q0 184 90 350q88 163 264 262q174 98 418 98q182 0 311 -57q134 -59 203 -168q71 -112 71 -264q0 -184 -90 -350q-88 -163 -264 -262t-418 -99q-178 0 -309 58zM764 356q49 58 74 152q24 92 24 188q0 142 -102 142
q-62 0 -113 -60q-50 -59 -74 -151q-24 -91 -24 -189q0 -141 102 -141q63 0 113 59zM1280 1217h-903l72 339h903z" />
    <glyph glyph-name="Obreve" unicode="&#x14e;" horiz-adv-x="1763" 
d="M426 41v-4q-164 69 -260 219q-94 146 -94 362q0 232 121 459q120 225 342 367q220 141 507 141q213 0 383 -72q167 -71 261 -217t94 -362q0 -230 -121 -457q-119 -224 -342 -366q-222 -142 -508 -142q-213 0 -383 72zM1051 440l-4 -4q90 78 139 209t49 291q0 119 -57 182
q-60 66 -166 66q-121 0 -209 -76q-87 -75 -137 -209q-50 -133 -50 -291q0 -114 60 -180q57 -63 166 -63q122 0 209 75zM891 1675v4q-98 29 -160 97q-57 63 -57 159q0 30 4 54h330q3 -35 39 -52q37 -18 96 -18t106 18q46 18 49 48h330q-70 -340 -514 -340q-121 0 -223 30z
" />
    <glyph glyph-name="obreve" unicode="&#x14f;" horiz-adv-x="1417" 
d="M303 27h-2q-134 59 -203 168q-71 112 -71 264q0 184 90 350q88 163 264 262q174 98 418 98q182 0 311 -57q134 -59 203 -168q71 -112 71 -264q0 -184 -90 -350q-88 -163 -264 -262t-418 -99q-178 0 -309 58zM764 356q49 58 74 152q24 92 24 188q0 142 -102 142
q-62 0 -113 -60q-50 -59 -74 -151q-24 -91 -24 -189q0 -141 102 -141q63 0 113 59zM621 1241l-3 4q-93 35 -147 98q-55 64 -55 154q0 29 6 59h338q-2 -4 -2 -16q0 -33 30 -51q32 -19 80 -19q55 0 99 23q40 21 49 61h338q-21 -98 -92 -178q-69 -78 -185 -125
q-110 -45 -252 -45q-111 0 -204 35z" />
    <glyph glyph-name="Ohungarumlaut" unicode="&#x150;" horiz-adv-x="1763" 
d="M426 41v-4q-164 69 -260 219q-94 146 -94 362q0 232 121 459q120 225 342 367q220 141 507 141q213 0 383 -72q167 -71 261 -217t94 -362q0 -230 -121 -457q-119 -224 -342 -366q-222 -142 -508 -142q-213 0 -383 72zM1051 440l-4 -4q90 78 139 209t49 291q0 119 -57 182
q-60 66 -166 66q-121 0 -209 -76q-87 -75 -137 -209q-50 -133 -50 -291q0 -114 60 -180q57 -63 166 -63q122 0 209 75zM1055 1645h-461l334 340h600zM1688 1645h-461l334 340h600z" />
    <glyph glyph-name="ohungarumlaut" unicode="&#x151;" horiz-adv-x="1417" 
d="M303 27h-2q-134 59 -203 168q-71 112 -71 264q0 184 90 350q88 163 264 262q174 98 418 98q182 0 311 -57q134 -59 203 -168q71 -112 71 -264q0 -184 -90 -350q-88 -163 -264 -262t-418 -99q-178 0 -309 58zM764 356q49 58 74 152q24 92 24 188q0 142 -102 142
q-62 0 -113 -60q-50 -59 -74 -151q-24 -91 -24 -189q0 -141 102 -141q63 0 113 59zM791 1217h-418l248 339h563zM1386 1217h-417l248 339h563z" />
    <glyph glyph-name="OE" unicode="&#x152;" horiz-adv-x="2324" 
d="M2351 1137l-643 2l-31 -138h627l-90 -419h-625l-35 -160h660l-90 -420h-1329q-217 0 -383 84q-161 81 -248 231q-86 148 -86 338q0 273 145 480q143 205 387 313q243 108 523 108h1308zM1020 422l156 713h-138q-120 0 -215 -50q-93 -49 -149 -141t-56 -219
q0 -139 70 -221t199 -82h133z" />
    <glyph glyph-name="oe" unicode="&#x153;" horiz-adv-x="2177" 
d="M1346 434l10 -16q0 -80 18 -117t64 -37q37 0 69 19q31 19 58 59h512q-95 -188 -265 -283q-169 -94 -393 -94q-116 0 -209 41q-92 40 -153 111q-85 -70 -197 -111q-107 -39 -242 -39q-178 0 -309 58q-134 59 -203 168q-71 112 -71 264q0 184 90 350q88 163 264 262
q174 98 418 98q124 0 215 -39q98 -42 160 -110q80 68 188 110q101 39 232 39q262 0 405 -116q145 -118 145 -357q0 -64 -12 -125q-11 -54 -37 -135h-757zM1481 821l2 -2q-47 -44 -74 -117h246q12 34 12 62q0 48 -20 74t-62 26q-58 0 -104 -43zM776 348q49 58 74 152
q24 92 24 188q0 141 -102 141q-63 0 -113 -59q-48 -57 -73 -152t-25 -188q0 -141 103 -141q62 0 112 59z" />
    <glyph glyph-name="Racute" unicode="&#x154;" horiz-adv-x="1622" 
d="M1520 782h-4q-85 -128 -252 -202l247 -582h-587l-179 496h-127l-104 -496h-534l329 1556h690q171 0 308 -55q141 -57 219 -166q80 -112 80 -260q0 -161 -86 -291zM1026 1124q-36 31 -86 31h-182l-58 -266h187q52 0 94 22q41 22 59 58q19 40 19 75q0 51 -33 80zM1141 1651
h-506l305 340h711z" />
    <glyph glyph-name="racute" unicode="&#x155;" horiz-adv-x="1009" 
d="M629 750l-2 -5q41 109 108 203t162 156q94 61 215 61l-106 -497h-115q-138 0 -215 -56q-78 -57 -105 -178l-92 -434h-518l242 1137h508zM915 1212h-481l283 340h694z" />
    <glyph glyph-name="uni0156" unicode="&#x156;" horiz-adv-x="1622" 
d="M1520 782h-4q-85 -128 -252 -202l247 -582h-587l-179 496h-127l-104 -496h-534l329 1556h690q171 0 308 -55q141 -57 219 -166q80 -112 80 -260q0 -161 -86 -291zM1026 1124q-36 31 -86 31h-182l-58 -266h187q52 0 94 22q41 22 59 58q19 40 19 75q0 51 -33 80zM360 -438
l72 340h535l-82 -385l-226 -217h-333l202 262h-168z" />
    <glyph glyph-name="uni0157" unicode="&#x157;" horiz-adv-x="1009" 
d="M629 750l-2 -5q41 109 108 203t162 156q94 61 215 61l-106 -497h-115q-138 0 -215 -56q-78 -57 -105 -178l-92 -434h-518l242 1137h508zM-133 -440l72 340h518l-82 -385l-225 -217h-318l203 262h-168z" />
    <glyph glyph-name="Rcaron" unicode="&#x158;" horiz-adv-x="1622" 
d="M1520 782h-4q-85 -128 -252 -202l247 -582h-587l-179 496h-127l-104 -496h-534l329 1556h690q171 0 308 -55q141 -57 219 -166q80 -112 80 -260q0 -161 -86 -291zM1026 1124q-36 31 -86 31h-182l-58 -266h187q52 0 94 22q41 22 59 58q19 40 19 75q0 51 -33 80zM956 1864
l152 127h459l-326 -340h-641l-205 340h451z" />
    <glyph glyph-name="rcaron" unicode="&#x159;" horiz-adv-x="1009" 
d="M629 750l-2 -5q41 109 108 203t162 156q94 61 215 61l-106 -497h-115q-138 0 -215 -56q-78 -57 -105 -178l-92 -434h-518l242 1137h508zM735 1411l164 141h434l-319 -340h-617l-200 340h432z" />
    <glyph glyph-name="Sacute" unicode="&#x15a;" horiz-adv-x="1523" 
d="M342 29l-10 -2q-161 59 -246 176q-86 118 -86 293h553q0 -160 209 -160q92 0 139 24t47 70q0 42 -35 66q-38 26 -116 49l-260 76q-180 53 -277 159q-98 107 -98 273q0 144 92 268q93 125 262 195q171 71 387 71q313 0 477 -123t185 -340h-553q-3 44 -47 68
q-45 25 -119 25q-73 0 -121 -23q-43 -21 -43 -61q0 -25 18 -43t56 -33q45 -18 114 -37l260 -76q108 -30 185 -92q76 -61 117 -145q38 -77 38 -177q0 -166 -84 -294q-83 -127 -251 -197t-414 -70q-216 0 -379 60zM1120 1651h-506l306 340h710z" />
    <glyph glyph-name="sacute" unicode="&#x15b;" horiz-adv-x="1302" 
d="M293 16l-4 -8q-139 47 -221 135q-84 90 -93 209h512q34 -110 160 -110q49 0 76 12t27 37q0 22 -27 37q-30 17 -98 37l-217 65q-98 29 -170 72q-66 40 -107 102q-39 59 -39 152q0 110 74 202q74 93 215 148q140 55 330 55q160 0 288 -43q131 -44 207 -123q78 -81 90 -190
h-512q-9 38 -39 59q-33 23 -77 23q-45 0 -74 -13q-27 -12 -27 -36q0 -22 33 -39q39 -21 111 -43l217 -66q150 -47 223 -131q74 -86 74 -201q0 -111 -66 -202q-64 -88 -203 -138q-137 -49 -344 -49q-180 0 -319 47zM956 1208h-481l283 340h694z" />
    <glyph glyph-name="Scircumflex" unicode="&#x15c;" horiz-adv-x="1523" 
d="M342 29l-10 -2q-161 59 -246 176q-86 118 -86 293h553q0 -160 209 -160q92 0 139 24t47 70q0 42 -35 66q-38 26 -116 49l-260 76q-180 53 -277 159q-98 107 -98 273q0 144 92 268q93 125 262 195q171 71 387 71q313 0 477 -123t185 -340h-553q-3 44 -47 68
q-45 25 -119 25q-73 0 -121 -23q-43 -21 -43 -61q0 -25 18 -43t56 -33q45 -18 114 -37l260 -76q108 -30 185 -92q76 -61 117 -145q38 -77 38 -177q0 -166 -84 -294q-83 -127 -251 -197t-414 -70q-216 0 -379 60zM1292 1991l205 -340h-450l-111 127l-152 -127h-458l325 340
h641z" />
    <glyph glyph-name="scircumflex" unicode="&#x15d;" horiz-adv-x="1302" 
d="M293 16l-4 -8q-139 47 -221 135q-84 90 -93 209h512q34 -110 160 -110q49 0 76 12t27 37q0 22 -27 37q-30 17 -98 37l-217 65q-98 29 -170 72q-66 40 -107 102q-39 59 -39 152q0 110 74 202q74 93 215 148q140 55 330 55q160 0 288 -43q131 -44 207 -123q78 -81 90 -190
h-512q-9 38 -39 59q-33 23 -77 23q-45 0 -74 -13q-27 -12 -27 -36q0 -22 33 -39q39 -21 111 -43l217 -66q150 -47 223 -131q74 -86 74 -201q0 -111 -66 -202q-64 -88 -203 -138q-137 -49 -344 -49q-180 0 -319 47zM1110 1548l201 -340h-432l-107 142l-164 -142h-434l320 340
h616z" />
    <glyph glyph-name="Scedilla" unicode="&#x15e;" horiz-adv-x="1523" 
d="M1135 948l-13 -4q108 -30 185 -92q74 -60 116 -145q39 -79 39 -177q0 -159 -78 -284q-77 -123 -233 -197q-155 -73 -383 -82l-6 -22q70 -9 112 -45q44 -38 44 -99q0 -66 -37 -118t-105 -82q-70 -31 -149 -31h-219l41 197h81q28 0 43 6t15 22q0 23 -41 23h-47l35 164
q-256 35 -392 165q-139 133 -139 353h553q0 -160 209 -160q91 0 139 25q47 24 47 69q0 42 -34 66q-37 26 -117 49l-260 76q-180 53 -277 159q-98 107 -98 273q0 144 92 268q93 125 262 195q171 71 387 71q313 0 477 -123t185 -340h-553q-3 44 -47 68q-45 25 -119 25
q-73 0 -121 -23q-43 -21 -43 -61q0 -24 19 -43q18 -18 55 -33q45 -18 114 -37z" />
    <glyph glyph-name="scedilla" unicode="&#x15f;" horiz-adv-x="1302" 
d="M926 692l-11 -12q152 -47 224 -131q73 -85 73 -201q0 -111 -61 -196q-62 -86 -193 -138t-325 -55l-6 -25q67 -9 106 -45t39 -98q0 -67 -37 -119q-39 -54 -100 -80q-67 -28 -148 -28h-206l41 186h79q24 0 41 10t17 29q0 25 -41 25h-43l35 166q-197 35 -310 131
q-118 100 -127 243h512q34 -110 160 -110q49 0 76 12t27 37q0 22 -27 37q-30 17 -98 37l-217 65q-98 29 -170 72q-66 40 -107 102q-39 59 -39 152q0 111 74 203q73 91 215 147q140 55 330 55q160 0 288 -43q131 -44 207 -123q78 -81 90 -190h-512q-9 38 -39 59
q-33 23 -77 23q-47 0 -74 -12t-27 -37q0 -22 33 -39q39 -21 111 -43z" />
    <glyph glyph-name="Scaron" unicode="&#x160;" horiz-adv-x="1523" 
d="M342 29l-10 -2q-161 59 -246 176q-86 118 -86 293h553q0 -160 209 -160q92 0 139 24t47 70q0 42 -35 66q-38 26 -116 49l-260 76q-180 53 -277 159q-98 107 -98 273q0 144 92 268q93 125 262 195q171 71 387 71q313 0 477 -123t185 -340h-553q-3 44 -47 68
q-45 25 -119 25q-73 0 -121 -23q-43 -21 -43 -61q0 -25 18 -43t56 -33q45 -18 114 -37l260 -76q108 -30 185 -92q76 -61 117 -145q38 -77 38 -177q0 -166 -84 -294q-83 -127 -251 -197t-414 -70q-216 0 -379 60zM936 1864l151 127h459l-325 -340h-641l-205 340h450z" />
    <glyph glyph-name="scaron" unicode="&#x161;" horiz-adv-x="1302" 
d="M293 16l-4 -8q-139 47 -221 135q-84 90 -93 209h512q34 -110 160 -110q49 0 76 12t27 37q0 22 -27 37q-30 17 -98 37l-217 65q-98 29 -170 72q-66 40 -107 102q-39 59 -39 152q0 110 74 202q74 93 215 148q140 55 330 55q160 0 288 -43q131 -44 207 -123q78 -81 90 -190
h-512q-9 38 -39 59q-33 23 -77 23q-45 0 -74 -13q-27 -12 -27 -36q0 -22 33 -39q39 -21 111 -43l217 -66q150 -47 223 -131q74 -86 74 -201q0 -111 -66 -202q-64 -88 -203 -138q-137 -49 -344 -49q-180 0 -319 47zM776 1407l164 141h434l-319 -340h-617l-200 340h432z" />
    <glyph glyph-name="uni0162" unicode="&#x162;" horiz-adv-x="1435" 
d="M240 1556h1372l-88 -419h-418l-242 -1137h-534l241 1137h-421zM238 -436l71 340h535l-82 -385l-225 -217h-334l203 262h-168z" />
    <glyph glyph-name="uni0163" unicode="&#x163;" horiz-adv-x="952" 
d="M750 774l-72 -328q-4 -28 -4 -32q0 -32 20 -43q23 -13 68 -13h84l-78 -362h-248q-114 0 -196 33q-88 36 -136 98q-49 64 -49 158q0 34 11 98l83 391h-163l77 363h162l58 268h518l-58 -268h187l-78 -363h-186zM74 -442l71 340h519l-82 -385l-226 -218h-317l203 263h-168z
" />
    <glyph glyph-name="Tcaron" unicode="&#x164;" horiz-adv-x="1435" 
d="M240 1556h1372l-88 -419h-418l-242 -1137h-534l241 1137h-421zM963 1866l151 127h459l-326 -340h-641l-205 340h451z" />
    <glyph glyph-name="tcaron" unicode="&#x165;" horiz-adv-x="952" 
d="M926 1202l110 354h439l-201 -354h-348zM885 1405l-62 -275h187l-78 -362h-187l-67 -322q-4 -28 -4 -32q0 -32 20 -43q23 -13 68 -13h84l-78 -362h-248q-114 0 -196 33q-88 36 -136 98q-49 64 -49 158q0 34 11 98l83 391h-163l77 363h162l58 268h518z" />
    <glyph glyph-name="Tbar" unicode="&#x166;" horiz-adv-x="1486" 
d="M1636 1556l-88 -419h-418l-43 -199h328l-78 -365h-327l-121 -573h-535l121 573h-328l78 365h328l43 199h-422l90 419h1372z" />
    <glyph glyph-name="tbar" unicode="&#x167;" horiz-adv-x="952" 
d="M936 774l-191 -6l-10 -55h133l-57 -289h-137v-10q0 -32 20 -43q23 -13 68 -13h84l-78 -362h-248q-114 0 -196 33q-88 36 -136 98q-49 64 -49 158q0 34 11 98l10 47h-144l58 289h147l12 55h-163l77 363h162l58 268h518l-58 -268h187z" />
    <glyph glyph-name="Utilde" unicode="&#x168;" horiz-adv-x="1617" 
d="M381 31h-4q-147 61 -223 172q-76 110 -76 256q0 77 22 190l193 907h534l-215 -1013q-4 -28 -4 -43q0 -62 43 -99q42 -36 111 -36q98 0 156 61t79 162l205 966h535l-201 -942q-48 -225 -143 -360q-101 -143 -258 -213q-158 -70 -398 -70q-208 0 -356 62zM600 1653v-2
q40 198 129 303q88 104 215 104q76 0 172 -45q31 -14 66 -24q30 -9 63 -9q43 0 82 25q38 24 53 59h152q-40 -198 -129 -303q-88 -104 -215 -104q-72 0 -174 45q-36 15 -64 24q-37 11 -63 11q-43 0 -82 -25q-38 -24 -53 -59h-152z" />
    <glyph glyph-name="utilde" unicode="&#x169;" horiz-adv-x="1390" 
d="M911 1137l514 -2l-241 -1137h-508l49 231q-39 -72 -98 -129q-57 -54 -135 -94q-73 -37 -154 -37q-110 0 -178 39q-71 41 -105 107q-35 68 -35 151q0 23 7 74q8 55 14 84l152 713h518l-131 -617q-17 -87 -17 -117q0 -34 17 -61q16 -25 49 -25q56 0 94 56q35 52 63 176z
M440 1214l-8 -6q41 197 123 299q83 103 203 103q42 0 86 -15t78 -30q32 -16 59 -25q24 -8 59 -8q44 0 78 24q34 23 49 62h148q-40 -194 -123 -297q-81 -100 -203 -100q-45 0 -86 14q-23 8 -76 31q-30 15 -57 24q-30 10 -57 10q-41 0 -76 -24q-34 -23 -49 -62h-148z" />
    <glyph glyph-name="Umacron" unicode="&#x16a;" horiz-adv-x="1617" 
d="M381 31h-4q-147 61 -223 172q-76 110 -76 256q0 77 22 190l193 907h534l-215 -1013q-4 -28 -4 -43q0 -62 43 -99q42 -36 111 -36q98 0 156 61t79 162l205 966h535l-201 -942q-48 -225 -143 -360q-101 -143 -258 -213q-158 -70 -398 -70q-208 0 -356 62zM1516 1653h-984
l72 340h983z" />
    <glyph glyph-name="umacron" unicode="&#x16b;" horiz-adv-x="1390" 
d="M911 1137l514 -2l-241 -1137h-508l49 231q-39 -72 -98 -129q-57 -54 -135 -94q-73 -37 -154 -37q-110 0 -178 39q-71 41 -105 107q-35 68 -35 151q0 23 7 74q8 55 14 84l152 713h518l-131 -617q-17 -87 -17 -117q0 -34 17 -61q16 -25 49 -25q56 0 94 56q35 52 63 176z
M1290 1214h-903l72 340h903z" />
    <glyph glyph-name="Ubreve" unicode="&#x16c;" horiz-adv-x="1617" 
d="M381 31h-4q-147 61 -223 172q-76 110 -76 256q0 77 22 190l193 907h534l-215 -1013q-4 -28 -4 -43q0 -62 43 -99q42 -36 111 -36q98 0 156 61t79 162l205 966h535l-201 -942q-48 -225 -143 -360q-101 -143 -258 -213q-158 -70 -398 -70q-208 0 -356 62zM813 1683v5
q-99 29 -160 96q-57 63 -57 160q0 29 4 53h330q3 -34 39 -51q40 -19 96 -19q57 0 106 19q47 18 50 47h329q-70 -340 -514 -340q-121 0 -223 30z" />
    <glyph glyph-name="ubreve" unicode="&#x16d;" horiz-adv-x="1390" 
d="M911 1137l514 -2l-241 -1137h-508l49 231q-39 -72 -98 -129q-57 -54 -135 -94q-73 -37 -154 -37q-110 0 -178 39q-71 41 -105 107q-35 68 -35 151q0 23 7 74q8 55 14 84l152 713h518l-131 -617q-17 -87 -17 -117q0 -34 17 -61q16 -25 49 -25q56 0 94 56q35 52 63 176z
M631 1239l-2 4q-94 36 -148 98q-55 64 -55 154q0 29 6 59h338q-2 -4 -2 -16q0 -32 31 -51q32 -19 80 -19q54 0 98 23q40 21 49 61h338q-21 -98 -92 -178q-69 -78 -185 -125q-110 -45 -251 -45q-112 0 -205 35z" />
    <glyph glyph-name="Uring" unicode="&#x16e;" horiz-adv-x="1617" 
d="M381 31h-4q-147 61 -223 172q-76 110 -76 256q0 77 22 190l193 907h534l-215 -1013q-4 -28 -4 -43q0 -62 43 -99q42 -36 111 -36q98 0 156 61t79 162l205 966h535l-201 -942q-48 -225 -143 -360q-101 -143 -258 -213q-158 -70 -398 -70q-208 0 -356 62zM909 1681l-2 -2
q-68 36 -110 109q-39 68 -39 160q0 98 45 178q47 84 129 133t186 49q90 0 160 -37q72 -38 111 -106q41 -71 41 -160q0 -96 -46 -178q-47 -84 -129 -133t-186 -49q-92 0 -160 36zM1141 1923h-2q24 24 24 62q0 29 -18 47t-47 18q-33 0 -58 -25q-24 -24 -24 -61q0 -29 18 -47
q19 -19 47 -19q35 0 60 25z" />
    <glyph glyph-name="uring" unicode="&#x16f;" horiz-adv-x="1390" 
d="M911 1137l514 -2l-241 -1137h-508l49 231q-39 -72 -98 -129q-57 -54 -135 -94q-73 -37 -154 -37q-110 0 -178 39q-71 41 -105 107q-35 68 -35 151q0 23 7 74q8 55 14 84l152 713h518l-131 -617q-17 -87 -17 -117q0 -34 17 -61q16 -25 49 -25q56 0 94 56q35 52 63 176z
M735 1237q-56 29 -92 90q-33 56 -33 135q0 86 39 154q41 72 111 115t160 43q75 0 135 -31q56 -29 92 -90q33 -56 33 -135q0 -86 -39 -154q-41 -72 -111 -115t-160 -43q-75 0 -135 31zM938 1452h-2q18 18 18 49q0 23 -14 37t-37 14q-29 0 -47 -18t-18 -49q0 -21 16 -37
q14 -14 37 -14q29 0 47 18z" />
    <glyph glyph-name="Uhungarumlaut" unicode="&#x170;" horiz-adv-x="1617" 
d="M381 31h-4q-147 61 -223 172q-76 110 -76 256q0 77 22 190l193 907h534l-215 -1013q-4 -28 -4 -43q0 -62 43 -99q42 -36 111 -36q98 0 156 61t79 162l205 966h535l-201 -942q-48 -225 -143 -360q-101 -143 -258 -213q-158 -70 -398 -70q-208 0 -356 62zM977 1653h-461
l334 340h600zM1610 1653h-461l334 340h600z" />
    <glyph glyph-name="uhungarumlaut" unicode="&#x171;" horiz-adv-x="1390" 
d="M911 1137l514 -2l-241 -1137h-508l49 231q-39 -72 -98 -129q-57 -54 -135 -94q-73 -37 -154 -37q-110 0 -178 39q-71 41 -105 107q-35 68 -35 151q0 23 7 74q8 55 14 84l152 713h518l-131 -617q-17 -87 -17 -117q0 -34 17 -61q16 -25 49 -25q56 0 94 56q35 52 63 176z
M801 1214h-418l248 340h563zM1397 1214h-418l248 340h563z" />
    <glyph glyph-name="Uogonek" unicode="&#x172;" horiz-adv-x="1617" 
d="M1204 1556h527l-201 -942q-40 -188 -117 -321t-199 -209q-77 -55 -104 -86q-31 -36 -31 -64q0 -19 19 -32q20 -13 55 -13h92l-67 -317h-170q-116 0 -201 16q-80 15 -127 56q-45 39 -45 114q0 60 37 115t104 98h-41q-208 0 -356 62q-147 61 -223 172q-76 110 -76 256
q0 77 22 190l193 908h534l-215 -1014q-4 -28 -4 -43q0 -62 43 -99q42 -36 111 -36q98 0 156 61t79 162z" />
    <glyph glyph-name="uogonek" unicode="&#x173;" horiz-adv-x="1390" 
d="M1188 0l-6 -2q-106 -20 -168 -43q-56 -21 -56 -45q0 -19 25 -25q24 -6 76 -6h98l-65 -307h-185q-191 0 -286 53q-97 54 -97 148q0 65 39 118q40 55 113 107l49 231q-39 -72 -98 -129q-57 -54 -135 -94q-73 -37 -154 -37q-110 0 -178 39q-71 41 -105 107q-35 68 -35 151
q0 23 7 74q8 55 14 84l152 713h518l-131 -617q-17 -87 -17 -117q0 -34 17 -61q16 -25 49 -25q56 0 94 56q35 52 63 176l125 588h519z" />
    <glyph glyph-name="Wcircumflex" unicode="&#x174;" horiz-adv-x="2394" 
d="M1642 186l431 1370h493l-510 -1556h-862l176 1409l-409 -1409h-859l140 1556h475l-144 -1370l416 1370h811zM1786 1993l205 -340h-451l-110 127l-152 -127h-459l326 340h641z" />
    <glyph glyph-name="wcircumflex" unicode="&#x175;" horiz-adv-x="1939" 
d="M1311 176l286 961h426l-356 -1137h-743l139 977l-277 -977h-753l125 1137h420l-119 -961l286 961h685zM1458 1556l201 -339h-432l-107 141l-164 -141h-434l320 339h616z" />
    <glyph glyph-name="Ycircumflex" unicode="&#x176;" horiz-adv-x="1554" 
d="M1178 1556h632l-768 -989l-120 -567h-535l129 610l-362 946h553l161 -483zM1339 1993l205 -340h-450l-111 127l-152 -127h-458l325 340h641z" />
    <glyph glyph-name="ycircumflex" unicode="&#x177;" horiz-adv-x="1366" 
d="M600 311l336 826h545l-650 -1538h-522l207 505h-385l-8 1033h500zM1167 1556l201 -339h-432l-107 141l-163 -141h-435l320 339h616z" />
    <glyph glyph-name="Ydieresis" unicode="&#x178;" horiz-adv-x="1554" 
d="M1178 1556h632l-768 -989l-120 -567h-535l129 610l-362 946h553l161 -483zM918 1653h-535l72 340h534zM1509 1653h-534l72 340h534z" />
    <glyph glyph-name="Zacute" unicode="&#x179;" horiz-adv-x="1482" 
d="M293 1556h1306l-112 -532l-772 -604h680l-90 -420h-1354l112 532l773 605h-631zM1135 1653h-506l305 340h711z" />
    <glyph glyph-name="zacute" unicode="&#x17a;" horiz-adv-x="1269" 
d="M201 1137h1102l-99 -463l-551 -312h514l-77 -362h-1141l98 463l551 311h-475zM958 1217h-481l283 339h694z" />
    <glyph glyph-name="Zdotaccent" unicode="&#x17b;" horiz-adv-x="1482" 
d="M293 1556h1306l-112 -532l-772 -604h680l-90 -420h-1354l112 532l773 605h-631zM1182 1653h-535l72 340h534z" />
    <glyph glyph-name="zdotaccent" unicode="&#x17c;" horiz-adv-x="1269" 
d="M201 1137h1102l-99 -463l-551 -312h514l-77 -362h-1141l98 463l551 311h-475zM999 1217h-518l72 339h518z" />
    <glyph glyph-name="Zcaron" unicode="&#x17d;" horiz-adv-x="1482" 
d="M293 1556h1306l-112 -532l-772 -604h680l-90 -420h-1354l112 532l773 605h-631zM950 1866l152 127h459l-326 -340h-641l-205 340h451z" />
    <glyph glyph-name="zcaron" unicode="&#x17e;" horiz-adv-x="1269" 
d="M201 1137h1102l-99 -463l-551 -312h514l-77 -362h-1141l98 463l551 311h-475zM778 1415l164 141h434l-319 -339h-617l-200 339h432z" />
    <glyph glyph-name="uni018F" unicode="&#x18f;" horiz-adv-x="1738" 
d="M1438 1513l-8 7q158 -75 237 -211q80 -139 80 -326q0 -281 -123 -512t-346 -365q-225 -135 -522 -135q-211 0 -363 82q-155 83 -237 230q-84 150 -84 338q0 81 16 182q15 92 43 182h1094q-21 207 -228 207q-77 0 -145 -27q-65 -26 -113 -80h-555q83 157 215 271
q131 113 301 172q171 59 363 59q218 0 375 -74zM1004 428l-3 -4q84 58 134 149h-549q9 -98 69 -149t160 -51q110 0 189 55z" />
    <glyph glyph-name="florin" unicode="&#x192;" horiz-adv-x="1284" 
d="M1202 1147l-4 2q-58 0 -92 -27q-32 -25 -57 -86h198l-88 -409h-262l-55 -152q-62 -174 -146 -282q-81 -104 -192 -146q-113 -43 -285 -43h-276l88 410h129q63 0 98 30q32 28 61 103l29 80h-153l88 409h217l18 49q62 176 146 283q79 101 194 145q113 43 285 43h278
l-88 -409h-131z" />
    <glyph glyph-name="uni019D" unicode="&#x19d;" horiz-adv-x="1845" 
d="M1470 1556l482 3l-330 -1557h-881l9 1348l-285 -1348q-40 -192 -178 -297q-137 -104 -400 -104h-276l70 321h151q69 0 105 19q34 18 49 73l327 1542h881l-8 -1347z" />
    <glyph glyph-name="uni01B5" unicode="&#x1b5;" horiz-adv-x="1495" 
d="M297 1556h1307l-113 -532l-289 -225h277l-45 -213h-504l-211 -166h680l-90 -420h-1354l113 532l309 242h-246l45 213h473l191 150h-631z" />
    <glyph glyph-name="uni01B6" unicode="&#x1b6;" horiz-adv-x="1275" 
d="M1305 1137l-99 -463l-178 -101h186l-32 -145h-412l-115 -66h514l-77 -362h-1141l98 463l199 112h-164l31 146h391l94 53h-475l78 363h1102z" />
    <glyph glyph-name="uni01E2" unicode="&#x1e2;" horiz-adv-x="2265" 
d="M2382 1556l-90 -419h-740l11 -138h686l-90 -419h-568l13 -160h555l-91 -420h-966l-12 330h-515l-153 -330h-563l774 1556h1749zM1053 1356l-283 -606h305zM1903 1653h-983l71 340h983z" />
    <glyph glyph-name="uni01E3" unicode="&#x1e3;" horiz-adv-x="2123" 
d="M1292 434l-8 -14q0 -77 19 -117q18 -37 63 -37q38 0 70 19q29 18 57 59h512q-95 -189 -264 -283t-393 -94q-112 0 -195 25q-77 23 -131 71q-48 43 -94 117q-180 -213 -525 -213q-112 0 -208 41t-154 117q-57 75 -57 184q0 126 65 215t184 135q124 48 287 48h305l6 32
q7 28 7 45q0 41 -21 62q-22 22 -61 22q-50 0 -80 -24q-32 -26 -47 -72h-512q42 127 131 213q91 88 227 135t297 47q133 0 223 -43q96 -46 140 -118q77 74 186 118q107 43 227 43q263 0 406 -116q145 -118 145 -357q0 -64 -12 -125q-11 -54 -37 -135h-758zM1409 823l2 -2
q-48 -45 -74 -116h246q12 34 12 61q0 48 -20 74t-62 26q-58 0 -104 -43zM762 428l-117 -2q-65 0 -106 -23q-37 -21 -37 -65q0 -36 24 -57t64 -21q126 0 172 168zM1649 1208h-904l72 340h903z" />
    <glyph glyph-name="Gcaron" unicode="&#x1e6;" horiz-adv-x="1789" 
d="M905 954l881 4l-203 -954h-430l70 326q-79 -155 -209 -258q-128 -101 -340 -101q-154 0 -295 72q-139 71 -225 219t-86 359q0 237 122 460q124 227 347 367q225 141 510 141q230 0 385 -73q159 -75 243 -193q89 -124 109 -264h-553q-21 64 -70 98q-47 33 -137 33
q-128 0 -219 -76q-92 -77 -141 -205q-50 -130 -50 -286q0 -118 72 -187q70 -67 195 -67q81 0 145 24t109 72q43 46 61 104h-373zM1110 1870l152 127h458l-325 -340h-641l-205 340h450z" />
    <glyph glyph-name="gcaron" unicode="&#x1e7;" horiz-adv-x="1429" 
d="M965 1137h510l-240 -1127q-36 -155 -131 -250q-98 -98 -240 -145q-136 -45 -307 -45q-267 0 -424 92q-156 92 -174 285h512q9 -25 31 -37q21 -12 61 -12q66 0 111 39t57 100l39 188q-52 -89 -141 -147q-88 -58 -209 -58q-102 0 -193 54q-89 52 -141 147q-51 92 -51 221
q0 180 71 351q68 164 207 272q134 104 312 104q84 0 143 -36q60 -36 98 -93q40 -60 54 -116zM778 399v-2q49 55 74 140q25 86 25 172q0 129 -103 129q-61 0 -112 -54t-74 -137q-25 -89 -25 -174q0 -129 103 -129q63 0 112 55zM891 1411l164 141h434l-320 -340h-616l-201 340
h432z" />
    <glyph glyph-name="uni01EA" unicode="&#x1ea;" horiz-adv-x="1763" 
d="M1184 6l-6 -2q-37 -37 -37 -72q0 -20 18 -32q19 -13 55 -13h93l-68 -317h-170q-116 0 -201 16q-80 15 -127 56q-45 39 -45 114q0 60 37 115q36 54 105 98h-29q-213 0 -383 72q-164 69 -260 219q-94 146 -94 363q0 231 121 458q120 225 342 367q220 141 507 141
q215 0 383 -71q166 -70 261 -218q94 -146 94 -362q0 -156 -56 -313q-57 -160 -159 -291q-105 -135 -248 -223q-98 -70 -133 -105zM666 430l-4 -4q58 -64 165 -64q121 0 209 76q91 79 140 209q49 131 49 291q0 118 -58 182q-60 66 -166 66q-120 0 -208 -76t-138 -209
q-49 -131 -49 -291q0 -114 60 -180z" />
    <glyph glyph-name="uni01EB" unicode="&#x1eb;" horiz-adv-x="1417" 
d="M936 -14l-2 -6q-43 -43 -43 -72q0 -21 18 -27t66 -6h90l-66 -307h-168q-380 0 -380 184q0 63 41 119t110 96q-173 0 -305 60q-130 59 -199 168t-69 262q0 184 90 350q88 163 264 262q174 98 418 98q182 0 311 -57q134 -59 203 -168q71 -112 71 -264q0 -179 -81 -332
q-81 -154 -236 -254q-100 -73 -133 -106zM651 291q63 0 113 59q49 58 74 152q24 92 24 188q0 141 -102 141q-63 0 -113 -59t-74 -151q-24 -91 -24 -189q0 -141 102 -141z" />
    <glyph glyph-name="AEacute" unicode="&#x1fc;" horiz-adv-x="2265" 
d="M2382 1556l-90 -419h-740l11 -138h686l-90 -419h-568l13 -160h555l-91 -420h-966l-12 330h-515l-153 -330h-563l774 1556h1749zM1053 1356l-283 -606h305zM1632 1653h-506l306 340h710z" />
    <glyph glyph-name="aeacute" unicode="&#x1fd;" horiz-adv-x="2123" 
d="M1292 434l-8 -14q0 -77 19 -117q18 -37 63 -37q38 0 70 19q29 18 57 59h512q-95 -189 -264 -283t-393 -94q-112 0 -195 25q-77 23 -131 71q-48 43 -94 117q-180 -213 -525 -213q-112 0 -208 41t-154 117q-57 75 -57 184q0 126 65 215t184 135q124 48 287 48h305l6 32
q7 28 7 45q0 41 -21 62q-22 22 -61 22q-50 0 -80 -24q-32 -26 -47 -72h-512q42 127 131 213q91 88 227 135t297 47q133 0 223 -43q96 -46 140 -118q77 74 186 118q107 43 227 43q263 0 406 -116q145 -118 145 -357q0 -64 -12 -125q-11 -54 -37 -135h-758zM1409 823l2 -2
q-48 -45 -74 -116h246q12 34 12 61q0 48 -20 74t-62 26q-58 0 -104 -43zM762 428l-117 -2q-65 0 -106 -23q-37 -21 -37 -65q0 -36 24 -57t64 -21q126 0 172 168zM1415 1208h-481l283 340h694z" />
    <glyph glyph-name="Oslashacute" unicode="&#x1fe;" horiz-adv-x="1763" 
d="M2052 1556l-342 -303q70 -134 70 -319q0 -230 -121 -457q-119 -224 -342 -366q-222 -142 -508 -142q-262 0 -442 101l-80 -70h-488l342 301q-69 132 -69 320q0 231 121 458q120 225 342 367q220 141 507 141q265 0 443 -100l80 69h487zM821 1126l2 -2q-83 -59 -135 -163
q-52 -103 -67 -238l499 440q-54 23 -108 23q-106 0 -191 -60zM1030 424l-2 2q82 58 135 164t68 237l-500 -440q52 -22 109 -22q107 0 190 59zM1325 1651h-506l305 340h711z" />
    <glyph glyph-name="oslashacute" unicode="&#x1ff;" horiz-adv-x="1417" 
d="M1542 1137l-227 -193q71 -109 71 -264q0 -184 -90 -350q-88 -163 -264 -262q-175 -99 -418 -99q-203 0 -350 78l-53 -47h-334l225 193q-71 109 -71 264q0 184 90 350q88 163 264 262q174 98 418 98q205 0 350 -77l55 47h334zM639 768v-2q-53 -72 -74 -178l264 225
q-25 25 -67 25q-71 0 -123 -70zM772 365q53 72 74 178l-264 -226q24 -24 67 -24q69 0 123 72zM1044 1212h-481l283 340h694z" />
    <glyph glyph-name="uni0218" unicode="&#x218;" horiz-adv-x="1523" 
d="M342 29l-10 -2q-161 59 -246 176q-86 118 -86 293h553q0 -160 209 -160q92 0 139 24t47 70q0 42 -35 66q-38 26 -116 49l-260 76q-180 53 -277 159q-98 107 -98 273q0 144 92 268q93 125 262 195q171 71 387 71q313 0 477 -123t185 -340h-553q-3 44 -47 68
q-45 25 -119 25q-73 0 -121 -23q-43 -21 -43 -61q0 -25 18 -43t56 -33q45 -18 114 -37l260 -76q108 -30 185 -92q76 -61 117 -145q38 -77 38 -177q0 -166 -84 -294q-83 -127 -251 -197t-414 -70q-216 0 -379 60zM356 -438l72 340h535l-82 -385l-226 -217h-333l202 262h-168z
" />
    <glyph glyph-name="uni0219" unicode="&#x219;" horiz-adv-x="1302" 
d="M293 16l-4 -8q-139 47 -221 135q-84 90 -93 209h512q34 -110 160 -110q49 0 76 12t27 37q0 22 -27 37q-30 17 -98 37l-217 65q-98 29 -170 72q-66 40 -107 102q-39 59 -39 152q0 110 74 202q74 93 215 148q140 55 330 55q160 0 288 -43q131 -44 207 -123q78 -81 90 -190
h-512q-9 38 -39 59q-33 23 -77 23q-45 0 -74 -13q-27 -12 -27 -36q0 -22 33 -39q39 -21 111 -43l217 -66q150 -47 223 -131q74 -86 74 -201q0 -111 -66 -202q-64 -88 -203 -138q-137 -49 -344 -49q-180 0 -319 47zM252 -444l72 340h518l-82 -385l-225 -218h-318l203 263
h-168z" />
    <glyph glyph-name="uni021A" unicode="&#x21a;" horiz-adv-x="1435" 
d="M240 1556h1372l-88 -419h-418l-242 -1137h-534l241 1137h-421zM238 -436l71 340h535l-82 -385l-225 -217h-334l203 262h-168z" />
    <glyph glyph-name="uni021B" unicode="&#x21b;" horiz-adv-x="952" 
d="M750 774l-72 -328q-4 -28 -4 -32q0 -32 20 -43q23 -13 68 -13h84l-78 -362h-248q-114 0 -196 33q-88 36 -136 98q-49 64 -49 158q0 34 11 98l83 391h-163l77 363h162l58 268h518l-58 -268h187l-78 -363h-186zM74 -442l71 340h519l-82 -385l-226 -218h-317l203 263h-168z
" />
    <glyph glyph-name="uni022E" unicode="&#x22e;" horiz-adv-x="1763" 
d="M426 41v-4q-164 69 -260 219q-94 146 -94 362q0 232 121 459q120 225 342 367q220 141 507 141q213 0 383 -72q167 -71 261 -217t94 -362q0 -230 -121 -457q-119 -224 -342 -366q-222 -142 -508 -142q-213 0 -383 72zM1051 440l-4 -4q90 78 139 209t49 291q0 119 -57 182
q-60 66 -166 66q-121 0 -209 -76q-87 -75 -137 -209q-50 -133 -50 -291q0 -114 60 -180q57 -63 166 -63q122 0 209 75zM1370 1645h-534l71 340h535z" />
    <glyph glyph-name="uni022F" unicode="&#x22f;" horiz-adv-x="1417" 
d="M303 27h-2q-134 59 -203 168q-71 112 -71 264q0 184 90 350q88 163 264 262q174 98 418 98q182 0 311 -57q134 -59 203 -168q71 -112 71 -264q0 -184 -90 -350q-88 -163 -264 -262t-418 -99q-178 0 -309 58zM764 356q49 58 74 152q24 92 24 188q0 142 -102 142
q-62 0 -113 -60q-50 -59 -74 -151q-24 -91 -24 -189q0 -141 102 -141q63 0 113 59zM1087 1217h-518l72 339h518z" />
    <glyph glyph-name="uni0232" unicode="&#x232;" horiz-adv-x="1554" 
d="M1178 1556h632l-768 -989l-120 -567h-535l129 610l-362 946h553l161 -483zM1438 1653h-983l71 340h983z" />
    <glyph glyph-name="uni0233" unicode="&#x233;" horiz-adv-x="1366" 
d="M600 311l336 826h545l-650 -1538h-522l207 505h-385l-8 1033h500zM1247 1217h-903l72 339h903z" />
    <glyph glyph-name="uni0237" unicode="&#x237;" horiz-adv-x="681" 
d="M-268 -401l78 366h38q56 0 86 23q28 22 37 73l230 1078h518l-248 -1166q-40 -190 -170 -282t-377 -92h-192z" />
    <glyph glyph-name="uni0259" unicode="&#x259;" horiz-adv-x="1359" 
d="M1069 1106l-4 2q129 -63 195 -172q67 -110 67 -254q0 -184 -90 -350q-88 -162 -260 -264q-171 -101 -402 -101q-261 0 -405 117q-145 118 -145 356q0 64 12 125q11 54 37 135h757v13q0 79 -18 116t-63 37q-40 0 -70 -18q-28 -17 -57 -60h-512q95 189 264 283
q172 96 393 96q176 0 301 -61zM700 311l-2 4q47 44 74 117h-246q-12 -35 -12 -63q0 -47 21 -74t61 -27q58 0 104 43z" />
    <glyph glyph-name="uni0272" unicode="&#x272;" horiz-adv-x="1396" 
d="M1233 1128l-2 2q72 -40 106 -106q35 -68 35 -152q0 -74 -18 -157l-152 -713h-518l131 616q16 91 16 119q0 84 -65 84q-58 0 -98 -55q-41 -56 -68 -176l-125 -588l-6 -29q-40 -190 -170 -282t-377 -92h-192l77 362h39q56 0 86 23q28 22 37 73l13 58l217 1020h508l-50 -234
q43 78 101 133q62 58 135 96q73 37 158 37q111 0 182 -39z" />
    <glyph glyph-name="circumflex" unicode="&#x2c6;" horiz-adv-x="1185" 
d="M1098 1556l200 -339h-432l-106 141l-164 -141h-434l319 339h617z" />
    <glyph glyph-name="caron" unicode="&#x2c7;" horiz-adv-x="1185" 
d="M774 1415l164 141h434l-319 -339h-617l-200 339h432z" />
    <glyph glyph-name="breve" unicode="&#x2d8;" horiz-adv-x="974" 
d="M430 1241l-2 4q-93 35 -147 98q-56 65 -56 154q0 29 6 59h338q-2 -4 -2 -16q0 -32 31 -51q32 -19 80 -19q54 0 98 23q40 21 49 61h338q-21 -98 -92 -178q-69 -78 -184 -125q-110 -45 -252 -45q-112 0 -205 35z" />
    <glyph glyph-name="dotaccent" unicode="&#x2d9;" horiz-adv-x="569" 
d="M682 1217h-518l72 339h518z" />
    <glyph glyph-name="ring" unicode="&#x2da;" horiz-adv-x="624" 
d="M348 1239q-56 29 -92 90q-33 56 -33 135q0 86 39 154q41 72 111 115t159 43q76 0 136 -31q56 -29 92 -90q33 -56 33 -135q0 -86 -39 -154q-41 -72 -111 -115t-160 -43q-75 0 -135 31zM551 1454h-2q18 18 18 49q0 23 -14 37t-37 14q-29 0 -47 -18t-18 -49q0 -21 16 -37
q14 -14 37 -14q29 0 47 18z" />
    <glyph glyph-name="ogonek" unicode="&#x2db;" horiz-adv-x="665" 
d="M244 -428h-2q-192 0 -287 53q-96 53 -96 148q0 65 39 118q41 56 112 107h508q-106 -20 -168 -43q-55 -21 -55 -45q0 -19 24 -25t76 -6h99l-66 -307h-184z" />
    <glyph glyph-name="tilde" unicode="&#x2dc;" horiz-adv-x="847" 
d="M162 1217l-8 -7q41 199 122 299q83 103 203 103q43 0 86 -15t78 -30q32 -16 59 -25q24 -8 60 -8q42 0 78 25q34 24 49 61h147q-40 -194 -123 -297q-81 -100 -202 -100q-45 0 -86 14q-23 8 -76 31q-30 15 -57 24q-33 11 -58 11q-40 0 -76 -25q-34 -24 -49 -61h-147z" />
    <glyph glyph-name="hungarumlaut" unicode="&#x2dd;" horiz-adv-x="1382" 
d="M580 1217h-418l248 339h563zM1176 1217h-418l248 339h563z" />
    <glyph glyph-name="gravecomb" unicode="&#x300;" horiz-adv-x="0" 
d="M113 1217h-478l-337 339h671z" />
    <glyph glyph-name="acutecomb" unicode="&#x301;" horiz-adv-x="0" 
d="M-309 1217h-482l283 339h694z" />
    <glyph glyph-name="uni0302" unicode="&#x302;" horiz-adv-x="0" 
d="M-88 1556l201 -339h-432l-107 141l-164 -141h-434l319 339h617z" />
    <glyph glyph-name="tildecomb" unicode="&#x303;" horiz-adv-x="0" 
d="M-686 1217l-8 -7q41 197 123 299q83 103 202 103q43 0 86 -15t78 -30q30 -15 60 -25q24 -8 59 -8q42 0 78 25q34 24 49 61h147q-40 -196 -122 -297q-81 -100 -203 -100q-45 0 -86 14q-23 8 -76 31q-30 15 -57 24q-33 11 -58 11q-39 0 -75 -25q-35 -25 -50 -61h-147z" />
    <glyph glyph-name="uni0304" unicode="&#x304;" horiz-adv-x="0" 
d="M113 1217h-904l72 339h903z" />
    <glyph glyph-name="uni0306" unicode="&#x306;" horiz-adv-x="0" 
d="M-545 1241l-2 4q-93 35 -147 98q-56 65 -56 154q0 24 7 59h337q-2 -4 -2 -16q0 -32 31 -51q32 -19 80 -19q54 0 98 23q40 21 49 61h338q-21 -98 -92 -178q-69 -78 -184 -125q-110 -45 -252 -45q-112 0 -205 35z" />
    <glyph glyph-name="uni0307" unicode="&#x307;" horiz-adv-x="0" 
d="M113 1217h-519l72 339h518z" />
    <glyph glyph-name="uni0308" unicode="&#x308;" horiz-adv-x="0" 
d="M-469 1217h-518l72 339h518zM113 1217h-519l72 339h518z" />
    <glyph glyph-name="uni030A" unicode="&#x30a;" horiz-adv-x="0" 
d="M-276 1239q-57 29 -93 90q-32 54 -32 135q0 86 39 154q42 73 110 115q70 43 160 43q75 0 135 -31q56 -29 92 -90q33 -56 33 -135q0 -86 -39 -154q-41 -72 -111 -115t-159 -43q-75 0 -135 31zM-74 1454h-2q19 19 19 49q0 22 -15 37q-14 14 -37 14q-29 0 -47 -18t-18 -49
q0 -21 16 -37q14 -14 37 -14q29 0 47 18z" />
    <glyph glyph-name="uni030B" unicode="&#x30b;" horiz-adv-x="0" 
d="M-803 1217h-418l248 339h563zM-207 1217h-418l248 339h563z" />
    <glyph glyph-name="uni030C" unicode="&#x30c;" horiz-adv-x="0" 
d="M-412 1415l164 141h434l-319 -339h-617l-200 339h432z" />
    <glyph glyph-name="uni0312" unicode="&#x312;" horiz-adv-x="0" 
d="M-94 1835h317l-203 -262h168l-71 -340h-518l82 385z" />
    <glyph glyph-name="dotbelowcomb" unicode="&#x323;" horiz-adv-x="0" 
d="M-238 -436h-518l72 340h518z" />
    <glyph glyph-name="uni0326" unicode="&#x326;" horiz-adv-x="0" 
d="M-756 -436l72 340h518l-82 -385l-225 -217h-318l203 262h-168z" />
    <glyph glyph-name="uni0327" unicode="&#x327;" horiz-adv-x="0" 
d="M-338 -55v-4q68 -9 107 -45q38 -35 38 -99q0 -69 -36 -119q-37 -52 -101 -79q-69 -29 -147 -29h-207l41 186h80q23 0 41 11q16 10 16 28q0 25 -41 25h-43l39 180h225z" />
    <glyph glyph-name="uni0328" unicode="&#x328;" horiz-adv-x="0" 
d="M-422 -428h-2q-192 0 -287 53q-96 53 -96 148q0 65 39 118q40 55 113 107h508q-106 -20 -168 -43q-56 -21 -56 -45q0 -19 25 -25q24 -6 76 -6h98l-66 -307h-184z" />
    <glyph glyph-name="uni0335" unicode="&#x335;" horiz-adv-x="0" 
d="M-496 1182h-798l57 288h799z" />
    <glyph glyph-name="uni0336" unicode="&#x336;" horiz-adv-x="0" 
d="M92 1116h-1681l65 314h1682z" />
    <glyph glyph-name="uni0337" unicode="&#x337;" horiz-adv-x="0" 
d="M25 799l-852 -449l92 430l852 449z" />
    <glyph glyph-name="uni0338" unicode="&#x338;" horiz-adv-x="0" 
d="M-1237 0h-334l1333 1137h334z" />
    <glyph glyph-name="uni0394" unicode="&#x394;" horiz-adv-x="1714" 
d="M1513 1556l109 -1556h-1774l775 1556h890zM1075 420l-33 936l-436 -936h469z" />
    <glyph glyph-name="uni03A9" unicode="&#x3a9;" horiz-adv-x="1703" 
d="M1673 766l-6 -12q-67 -117 -190 -205q-124 -89 -285 -141h371l-90 -420h-699l113 532q85 35 153 98q68 62 113 154q43 87 43 191q0 56 -25 108q-25 51 -73 80q-51 31 -125 31q-93 0 -158 -45q-66 -45 -104 -123q-37 -75 -37 -170q0 -94 31 -170q30 -73 108 -148
l-113 -532h-698l90 420h397q-169 71 -262 190q-96 122 -96 283q0 198 115 358q117 163 313 250q203 90 447 90q246 0 409 -69q165 -70 246 -201q80 -130 80 -303q0 -128 -68 -246z" />
    <glyph glyph-name="uni03BC" unicode="&#x3bc;" horiz-adv-x="1523" 
d="M1317 373l-2 -2q29 -13 86 -13h39l-78 -362h-180q-179 0 -295 55q-115 55 -150 176q-50 -88 -112 -145q-70 -63 -148 -90l-84 -395h-518l328 1538h518l-131 -617q-17 -87 -17 -117q0 -34 17 -61q16 -25 49 -25q56 0 94 56q37 54 64 176l125 588h518l-144 -674
q-6 -30 -6 -49q0 -27 27 -39z" />
    <glyph glyph-name="pi" unicode="&#x3c0;" horiz-adv-x="1585" 
d="M1397 774l-72 -328q-4 -28 -4 -32q0 -32 20 -43q23 -13 68 -13h57l-77 -362h-222q-114 0 -196 33q-87 35 -135 98q-50 65 -50 158q0 34 11 98l82 391h-115l-164 -774h-518l164 774h-162l78 363h1474l-77 -363h-162z" />
    <glyph glyph-name="uni0E3F" unicode="&#xe3f;" horiz-adv-x="1531" 
d="M1454 977l-4 -6q-64 -78 -166 -125q-101 -46 -223 -64q167 -27 262 -110q96 -84 96 -223q0 -189 -137 -299q-141 -113 -395 -140l-60 -280h-526l57 268h-352l332 1556h352l55 258h527l-60 -278q306 -71 306 -365q0 -113 -64 -192zM831 950q72 0 117 31q43 30 43 84
q0 40 -30 61q-33 23 -84 23h-101l-41 -199h96zM727 391h-2q79 0 123 33q45 33 45 88q0 46 -31 74q-29 26 -84 26h-114l-48 -221h111z" />
    <glyph glyph-name="Wgrave" unicode="&#x1e80;" horiz-adv-x="2394" 
d="M1642 186l431 1370h493l-510 -1556h-862l176 1409l-409 -1409h-859l140 1556h475l-144 -1370l416 1370h811zM1649 1653h-498l-358 340h690z" />
    <glyph glyph-name="wgrave" unicode="&#x1e81;" horiz-adv-x="1939" 
d="M1311 176l286 961h426l-356 -1137h-743l139 977l-277 -977h-753l125 1137h420l-119 -961l286 961h685zM1343 1217h-477l-338 339h672z" />
    <glyph glyph-name="Wacute" unicode="&#x1e82;" horiz-adv-x="2394" 
d="M1642 186l431 1370h493l-510 -1556h-862l176 1409l-409 -1409h-859l140 1556h475l-144 -1370l416 1370h811zM1677 1653h-506l306 340h710z" />
    <glyph glyph-name="wacute" unicode="&#x1e83;" horiz-adv-x="1939" 
d="M1311 176l286 961h426l-356 -1137h-743l139 977l-277 -977h-753l125 1137h420l-119 -961l286 961h685zM1356 1217h-482l283 339h694z" />
    <glyph glyph-name="Wdieresis" unicode="&#x1e84;" horiz-adv-x="2394" 
d="M1642 186l431 1370h493l-510 -1556h-862l176 1409l-409 -1409h-859l140 1556h475l-144 -1370l416 1370h811zM1364 1653h-535l72 340h535zM1956 1653h-535l72 340h535z" />
    <glyph glyph-name="wdieresis" unicode="&#x1e85;" horiz-adv-x="1939" 
d="M1311 176l286 961h426l-356 -1137h-743l139 977l-277 -977h-753l125 1137h420l-119 -961l286 961h685zM1055 1217h-518l71 339h518zM1636 1217h-518l72 339h518z" />
    <glyph glyph-name="uni1E9E" unicode="&#x1e9e;" horiz-adv-x="1648" 
d="M1714 1556l-102 -487l-289 -225q118 -35 188 -117q72 -84 72 -215q0 -176 -82 -295q-83 -121 -235 -182q-154 -62 -369 -62q-61 0 -131 13q-60 11 -117 34l74 347q44 -26 68 -35q37 -13 73 -13q47 0 90 19q41 18 62 53q22 36 22 78q0 53 -47 74q-49 22 -139 22h-57
l79 375l252 197h-366l-242 -1137h-534l329 1556h1401z" />
    <glyph glyph-name="uni1EA0" unicode="&#x1ea0;" horiz-adv-x="1734" 
d="M1632 0h-530l-12 330h-515l-153 -330h-563l774 1556h891zM1053 1356l-283 -606h305zM946 -436h-534l71 340h535z" />
    <glyph glyph-name="uni1EA1" unicode="&#x1ea1;" horiz-adv-x="1384" 
d="M1196 1069l-4 -6q154 -100 154 -291q0 -46 -13 -113l-141 -665h-508l37 170q-61 -88 -156 -144q-94 -55 -221 -55q-102 0 -184 43q-83 44 -129 119q-47 77 -47 172q0 366 536 412l311 26v2q7 28 7 45q0 41 -21 62q-22 22 -61 22q-50 0 -80 -24q-32 -26 -47 -72h-512
q42 127 131 213q91 88 227 135t297 47q273 0 424 -98zM700 303h-6q51 57 72 152l-121 -11q-68 -6 -106 -36q-37 -30 -37 -76q0 -41 24 -62q25 -22 64 -22q61 0 110 55zM778 -444h-518l72 340h518z" />
    <glyph glyph-name="uni1EB8" unicode="&#x1eb8;" horiz-adv-x="1372" 
d="M1489 1556l-90 -419h-639l-31 -138h627l-90 -419h-625l-35 -160h660l-90 -420h-1192l329 1556h1176zM754 -436h-535l72 340h534z" />
    <glyph glyph-name="uni1EB9" unicode="&#x1eb9;" horiz-adv-x="1359" 
d="M528 434v-16q0 -77 19 -117q18 -37 63 -37q38 0 70 19q29 18 57 59h512q-95 -189 -264 -283t-393 -94q-174 0 -301 62q-129 63 -195 172q-67 110 -67 254q0 184 90 350q87 160 262 264q169 100 403 100q263 0 406 -116q145 -118 145 -357q0 -64 -12 -125
q-11 -54 -37 -135h-758zM653 821l2 -2q-46 -43 -73 -117h245q13 37 13 62q0 47 -21 74q-20 26 -61 26q-59 0 -105 -43zM743 -444h-518l72 340h518z" />
    <glyph glyph-name="uni1EBC" unicode="&#x1ebc;" horiz-adv-x="1372" 
d="M1489 1556l-90 -419h-639l-31 -138h627l-90 -419h-625l-35 -160h660l-90 -420h-1192l329 1556h1176zM479 1653v-2q40 198 129 303q88 104 215 104q76 0 172 -45q31 -14 66 -24q30 -9 63 -9q43 0 82 25t54 59h151q-40 -198 -129 -303q-88 -104 -215 -104q-72 0 -174 45
q-36 15 -64 24q-37 11 -63 11q-43 0 -82 -25q-38 -24 -53 -59h-152z" />
    <glyph glyph-name="uni1EBD" unicode="&#x1ebd;" horiz-adv-x="1359" 
d="M528 434v-16q0 -77 19 -117q18 -37 63 -37q38 0 70 19q29 18 57 59h512q-95 -189 -264 -283t-393 -94q-174 0 -301 62q-129 63 -195 172q-67 110 -67 254q0 184 90 350q87 160 262 264q169 100 403 100q263 0 406 -116q145 -118 145 -357q0 -64 -12 -125
q-11 -54 -37 -135h-758zM653 821l2 -2q-46 -43 -73 -117h245q13 37 13 62q0 47 -21 74q-20 26 -61 26q-59 0 -105 -43zM418 1208l-8 -6q41 199 122 299q83 103 203 103q43 0 86 -15t78 -30q32 -16 59 -25q24 -8 60 -8q44 0 78 24q34 23 49 62h147q-40 -194 -123 -297
q-82 -101 -202 -101q-43 0 -86 15q-23 8 -76 31q-30 15 -57 24q-30 10 -58 10q-42 0 -76 -24q-34 -23 -49 -62h-147z" />
    <glyph glyph-name="uni1ECA" unicode="&#x1eca;" horiz-adv-x="741" 
d="M518 0h-534l329 1556h535zM424 -436h-535l72 340h535z" />
    <glyph glyph-name="uni1ECB" unicode="&#x1ecb;" horiz-adv-x="681" 
d="M479 0h-518l242 1137h518zM737 1217h-518l72 339h518zM387 -436h-518l72 340h518z" />
    <glyph glyph-name="uni1ECC" unicode="&#x1ecc;" horiz-adv-x="1763" 
d="M426 41v-4q-164 69 -260 219q-94 146 -94 362q0 232 121 459q120 225 342 367q220 141 507 141q213 0 383 -72q167 -71 261 -217t94 -362q0 -230 -121 -457q-119 -224 -342 -366q-222 -142 -508 -142q-213 0 -383 72zM1051 440l-4 -4q90 78 139 209t49 291q0 119 -57 182
q-60 66 -166 66q-121 0 -209 -76q-87 -75 -137 -209q-50 -133 -50 -291q0 -114 60 -180q57 -63 166 -63q122 0 209 75zM956 -444h-534l72 340h534z" />
    <glyph glyph-name="uni1ECD" unicode="&#x1ecd;" horiz-adv-x="1417" 
d="M303 27h-2q-134 59 -203 168q-71 112 -71 264q0 184 90 350q88 163 264 262q174 98 418 98q182 0 311 -57q134 -59 203 -168q71 -112 71 -264q0 -184 -90 -350q-88 -163 -264 -262t-418 -99q-178 0 -309 58zM764 356q49 58 74 152q24 92 24 188q0 142 -102 142
q-62 0 -113 -60q-50 -59 -74 -151q-24 -91 -24 -189q0 -141 102 -141q63 0 113 59zM774 -436h-518l72 340h518z" />
    <glyph glyph-name="uni1EE4" unicode="&#x1ee4;" horiz-adv-x="1617" 
d="M381 31h-4q-147 61 -223 172q-76 110 -76 256q0 77 22 190l193 907h534l-215 -1013q-4 -28 -4 -43q0 -62 43 -99q42 -36 111 -36q98 0 156 61t79 162l205 966h535l-201 -942q-48 -225 -143 -360q-101 -143 -258 -213q-158 -70 -398 -70q-208 0 -356 62zM879 -436h-535
l72 340h534z" />
    <glyph glyph-name="uni1EE5" unicode="&#x1ee5;" horiz-adv-x="1390" 
d="M911 1137l514 -2l-241 -1137h-508l49 231q-39 -72 -98 -129q-57 -54 -135 -94q-73 -37 -154 -37q-110 0 -178 39q-71 41 -105 107q-35 68 -35 151q0 23 7 74q8 55 14 84l152 713h518l-131 -617q-17 -87 -17 -117q0 -34 17 -61q16 -25 49 -25q56 0 94 56q35 52 63 176z
M772 -438h-518l72 340h518z" />
    <glyph glyph-name="Ygrave" unicode="&#x1ef2;" horiz-adv-x="1554" 
d="M1178 1556h632l-768 -989l-120 -567h-535l129 610l-362 946h553l161 -483zM1233 1653h-498l-358 340h690z" />
    <glyph glyph-name="ygrave" unicode="&#x1ef3;" horiz-adv-x="1366" 
d="M600 311l336 826h545l-650 -1538h-522l207 505h-385l-8 1033h500zM1057 1217h-477l-338 339h671z" />
    <glyph glyph-name="uni1EF8" unicode="&#x1ef8;" horiz-adv-x="1554" 
d="M1178 1556h632l-768 -989l-120 -567h-535l129 610l-362 946h553l161 -483zM522 1653v-2q40 198 129 303q88 104 215 104q76 0 172 -45q31 -14 66 -24q30 -9 63 -9q43 0 82 25t54 59h151q-40 -198 -129 -303q-88 -104 -215 -104q-72 0 -174 45q-36 15 -64 24
q-37 11 -63 11q-43 0 -82 -25q-38 -24 -53 -59h-152z" />
    <glyph glyph-name="uni1EF9" unicode="&#x1ef9;" horiz-adv-x="1366" 
d="M600 311l336 826h545l-650 -1538h-522l207 505h-385l-8 1033h500zM397 1217l-8 -7q41 197 123 299q83 103 203 103q42 0 86 -15q43 -15 78 -30q32 -16 59 -25q24 -8 59 -8q42 0 78 25q34 24 49 61h148q-40 -194 -123 -297q-81 -100 -203 -100q-45 0 -86 14q-23 8 -76 31
q-30 15 -57 24q-33 11 -57 11q-40 0 -76 -25q-34 -24 -49 -61h-148z" />
    <glyph glyph-name="uni2009" unicode="&#x2009;" horiz-adv-x="256" 
 />
    <glyph glyph-name="uni2011" unicode="&#x2011;" horiz-adv-x="901" 
d="M776 387h-729l88 416h729z" />
    <glyph glyph-name="endash" unicode="&#x2013;" horiz-adv-x="1130" 
d="M1006 387h-959l88 416h959z" />
    <glyph glyph-name="emdash" unicode="&#x2014;" horiz-adv-x="1732" 
d="M1608 387h-1561l88 416h1561z" />
    <glyph glyph-name="quoteleft" unicode="&#x2018;" horiz-adv-x="663" 
d="M453 1556h331l-219 -311h164l-92 -430h-518l104 490z" />
    <glyph glyph-name="quoteright" unicode="&#x2019;" horiz-adv-x="647" 
d="M193 1126l92 430h518l-105 -489l-229 -252h-332l219 311h-163z" />
    <glyph glyph-name="quotesinglbase" unicode="&#x201a;" horiz-adv-x="702" 
d="M-29 0l92 430h519l-105 -489l-229 -252h-332l219 311h-164z" />
    <glyph glyph-name="quotedblleft" unicode="&#x201c;" horiz-adv-x="1269" 
d="M778 1556l-219 -311h164l-92 -430h-518l104 490l229 251h332zM1053 1556h331l-219 -311h164l-92 -430h-518l104 490z" />
    <glyph glyph-name="quotedblright" unicode="&#x201d;" horiz-adv-x="1253" 
d="M805 1126l92 430h518l-104 -489l-230 -252h-331l219 311h-164zM199 1126l92 430h518l-104 -489l-230 -252h-332l219 311h-163z" />
    <glyph glyph-name="quotedblbase" unicode="&#x201e;" horiz-adv-x="1308" 
d="M578 0l92 430h518l-105 -489l-229 -252h-332l219 311h-163zM-29 0l92 430h519l-105 -489l-229 -252h-332l219 311h-164z" />
    <glyph glyph-name="dagger" unicode="&#x2020;" horiz-adv-x="1277" 
d="M1036 1227h285l-88 -412h-285l-172 -815h-518l172 815h-280l88 412h280l70 329h518z" />
    <glyph glyph-name="daggerdbl" unicode="&#x2021;" horiz-adv-x="1277" 
d="M1321 1227l-88 -412h-285l-18 -90h284l-88 -412h-284l-66 -313h-518l66 313h-281l88 412h281l18 90h-280l88 412h280l70 329h518l-70 -329h285z" />
    <glyph glyph-name="bullet" unicode="&#x2022;" horiz-adv-x="1157" 
d="M356 197l-2 -2q-106 62 -166 165q-61 104 -61 226q0 121 61 225q61 105 166 166q104 61 226 61q121 0 225 -61q105 -61 166 -166q61 -104 61 -227q0 -125 -61 -226q-60 -99 -162 -161q-103 -62 -225 -62t-228 62z" />
    <glyph glyph-name="ellipsis" unicode="&#x2026;" horiz-adv-x="2107" 
d="M489 0h-518l92 430h519zM1192 0h-518l92 430h518zM1894 0h-518l92 430h519z" />
    <glyph glyph-name="perthousand" unicode="&#x2030;" horiz-adv-x="2656" 
d="M952 979l-2 -2q-57 -133 -168 -207q-116 -78 -276 -78q-170 0 -258 88t-88 240t55 280q57 133 168 207q116 78 276 78q117 0 191 -39q78 -41 117 -112q41 -74 41 -174q0 -151 -56 -281zM281 -2l1235 1556h452l-1235 -1556h-452zM553 1272l-4 2q-30 -58 -45 -135
q-15 -76 -15 -125q0 -64 46 -64q42 0 73 60q33 65 47 135q17 87 17 123q0 63 -47 63q-42 0 -72 -59zM2421 821v-2q77 -41 116 -112q41 -74 41 -175q0 -152 -55 -280q-57 -133 -162 -207q-110 -78 -264 -78q-152 0 -231 101q-107 -101 -279 -101q-170 0 -258 88t-88 240
t55 280q57 133 162 207q110 78 264 78q153 0 232 -98q107 98 276 98q117 0 191 -39zM1692 279l-4 2q33 65 47 135q16 82 16 123q0 63 -47 63q-42 0 -72 -59t-45 -135q-14 -71 -14 -125q0 -64 45 -64q43 0 74 60zM2177 281l-4 2q33 65 47 135q16 82 16 123q0 63 -47 63
q-41 0 -71 -59t-45 -135t-15 -125q0 -64 45 -64q43 0 74 60z" />
    <glyph glyph-name="minute" unicode="&#x2032;" horiz-adv-x="667" 
d="M520 877h-405l231 679h535z" />
    <glyph glyph-name="second" unicode="&#x2033;" horiz-adv-x="1261" 
d="M520 877h-405l231 679h535zM1114 877h-405l231 679h535z" />
    <glyph glyph-name="guilsinglleft" unicode="&#x2039;" horiz-adv-x="972" 
d="M414 1022h598l-373 -453l176 -467h-590l-162 471z" />
    <glyph glyph-name="guilsinglright" unicode="&#x203a;" horiz-adv-x="972" 
d="M156 1022h589l162 -471l-350 -449h-598l373 453z" />
    <glyph glyph-name="uni2042" unicode="&#x2042;" horiz-adv-x="1740" 
d="M1278 1368l35 -272l-187 -23l88 -180l-262 -119l-92 189l-162 -136l-192 215l153 129l-161 97l147 235l160 -94l35 170l286 -61l-34 -172zM725 547l35 -273l-187 -22l89 -180l-263 -119l-92 188l-162 -135l-192 215l153 129l-161 96l147 236l160 -94l35 170l286 -62
l-34 -172zM1688 547l34 -273l-186 -22l88 -180l-262 -119l-92 188l-162 -135l-193 215l154 129l-162 96l148 236l159 -94l35 170l287 -62l-35 -172z" />
    <glyph glyph-name="fraction" unicode="&#x2044;" horiz-adv-x="532" 
d="M-66 0h-399l1153 1556h399z" />
    <glyph glyph-name="uni2070" unicode="&#x2070;" horiz-adv-x="794" 
d="M268 1047v-9q-78 78 -78 219q0 135 48 256q47 118 147 187q104 72 256 72q149 0 225 -76q78 -78 78 -217q0 -136 -47 -254t-147 -187t-256 -69q-148 0 -226 78zM602 1229h-4q33 61 47 129q17 83 17 127q0 35 -13 55q-13 19 -43 19q-44 0 -74 -56q-30 -55 -45 -129
q-14 -69 -14 -127q0 -37 12 -55t43 -18q44 0 74 55z" />
    <glyph glyph-name="uni2074" unicode="&#x2074;" horiz-adv-x="784" 
d="M831 1362h95l-47 -221h-95l-32 -156h-285l33 156h-348l59 280l195 342h512zM608 1645l-176 -283h115z" />
    <glyph glyph-name="uni2075" unicode="&#x2075;" horiz-adv-x="757" 
d="M879 1542l-334 -2l-39 -131q27 44 74 74t104 30q96 0 145 -61q50 -62 50 -174q0 -101 -50 -172q-49 -70 -135 -105q-84 -34 -198 -34q-106 0 -174 32q-71 33 -113 97q-39 59 -39 147h289q0 -63 55 -63q33 0 55 22q23 23 23 55q0 20 -17 37q-15 15 -43 15q-23 0 -38 -9
q-18 -11 -25 -20l-281 25l136 458h602z" />
    <glyph glyph-name="uni2076" unicode="&#x2076;" horiz-adv-x="778" 
d="M834 1446l-5 2q62 -59 62 -166q0 -98 -49 -168q-47 -66 -140 -106q-87 -37 -202 -37q-146 0 -232 80t-86 233q0 105 45 215q47 115 148 197t262 82q140 0 217 -62q76 -61 76 -180h-283q-4 15 -14 23q-13 10 -29 10q-82 0 -123 -150q29 36 80 60q52 24 103 24
q110 0 170 -57zM584 1202q24 18 24 47q0 22 -18 37q-20 17 -49 17q-39 0 -64 -19q-24 -18 -24 -49q0 -22 18 -37q17 -14 45 -14q44 0 68 18z" />
    <glyph glyph-name="uni2077" unicode="&#x2077;" horiz-adv-x="645" 
d="M225 1542l47 221h598l-59 -280l-338 -498h-346l412 557h-314z" />
    <glyph glyph-name="uni2078" unicode="&#x2078;" horiz-adv-x="782" 
d="M881 1442h-2q-63 -43 -160 -58q79 -21 125 -67q45 -45 45 -107q0 -65 -43 -120t-131 -89q-82 -32 -221 -32q-158 0 -246 55q-90 56 -90 160q0 83 67 135t181 67q-70 24 -111 62q-39 36 -39 98q0 65 43 117q42 51 127 82t190 31q95 0 172 -25q74 -24 115 -74t41 -116
q0 -77 -63 -119zM645 1493l2 -4q19 16 19 37q0 18 -17 28q-18 11 -43 11q-37 0 -55 -15q-19 -16 -19 -37q0 -16 17 -26q13 -8 41 -8q38 0 55 14zM578 1196v2q26 14 26 41q0 19 -18 31t-49 12q-39 0 -68 -16q-27 -15 -27 -41q0 -20 19 -33q18 -12 53 -12t64 16z" />
    <glyph glyph-name="uni2079" unicode="&#x2079;" horiz-adv-x="780" 
d="M848 1698v-8q86 -80 86 -234q0 -105 -45 -215q-47 -115 -148 -197q-100 -81 -262 -81q-139 0 -215 61t-76 180h283q3 -12 14 -20t29 -8q83 0 123 149q-27 -35 -80 -59q-55 -25 -100 -25q-108 0 -170 59t-62 166q0 98 49 168q48 68 140 107q87 37 202 37q146 0 232 -80z
M639 1456v-4q25 19 25 49q0 21 -19 37q-17 14 -45 14q-44 0 -68 -18t-24 -45q0 -22 18 -37q17 -14 49 -14q40 0 64 18z" />
    <glyph glyph-name="uni207A" unicode="&#x207a;" horiz-adv-x="671" 
d="M633 1466h180l-43 -204h-180l-39 -185h-213l39 185h-180l43 204h180l39 185h213z" />
    <glyph glyph-name="uni207B" unicode="&#x207b;" horiz-adv-x="614" 
d="M709 1262h-510l43 204h510z" />
    <glyph glyph-name="uni207C" unicode="&#x207c;" horiz-adv-x="688" 
d="M803 1384h-574l43 205h574zM752 1141h-574l43 205h574z" />
    <glyph glyph-name="uni207D" unicode="&#x207d;" horiz-adv-x="532" 
d="M281 879l-5 2q-30 77 -51 166q-18 77 -18 165q0 179 72 338q73 162 196 308h299q-132 -153 -209 -310q-76 -155 -76 -338q0 -91 19 -172q13 -55 47 -159h-274z" />
    <glyph glyph-name="uni207E" unicode="&#x207e;" horiz-adv-x="530" 
d="M92 879v-2q131 155 209 311t78 336q0 91 -19 172q-16 69 -49 159h275q36 -99 53 -165q18 -71 18 -164q0 -185 -69 -338q-71 -157 -199 -309h-297z" />
    <glyph glyph-name="uni2080" unicode="&#x2080;" horiz-adv-x="794" 
d="M10 -172v-8q-78 78 -78 219q0 135 48 256q46 116 147 186q104 72 256 72q149 0 225 -76q78 -78 78 -217q0 -136 -47 -254q-46 -116 -147 -186t-256 -70q-148 0 -226 78zM344 10h-4q33 61 47 129q16 78 16 127q0 38 -12 56t-43 18q-44 0 -74 -55t-45 -129
q-14 -69 -14 -127q0 -38 12 -56t43 -18q44 0 74 55z" />
    <glyph glyph-name="uni2081" unicode="&#x2081;" horiz-adv-x="512" 
d="M223 545l234 -2l-166 -779h-285l92 439h-166l48 221h16q86 0 139 27q54 28 80 79z" />
    <glyph glyph-name="uni2082" unicode="&#x2082;" horiz-adv-x="745" 
d="M256 -12l332 -2l-47 -222h-674l59 281l393 219q30 16 41 25q13 10 13 24q0 17 -13 23q-12 6 -30 6q-26 0 -43 -14q-18 -15 -21 -39h-282q21 127 116 198q94 70 238 70t227 -57q86 -59 86 -162q0 -79 -53 -141q-51 -60 -129 -101z" />
    <glyph glyph-name="uni2083" unicode="&#x2083;" horiz-adv-x="724" 
d="M565 229l-4 -2q-64 -46 -168 -67q77 -12 127 -56q49 -43 49 -110q0 -62 -37 -117t-118 -92t-205 -37q-93 0 -168 35q-72 34 -113 96q-39 59 -39 148h283q0 -66 59 -66q28 0 43 12t15 31q0 23 -27 35t-76 12h-61l45 213h70q53 0 77 12q25 12 25 33q0 16 -12 25
q-11 8 -27 8q-24 0 -35 -14q-12 -14 -18 -37h-283q15 124 111 196q94 70 239 70q97 0 168 -27q70 -27 107 -73t37 -105q0 -77 -64 -123z" />
    <glyph glyph-name="uni2084" unicode="&#x2084;" horiz-adv-x="784" 
d="M573 143h95l-47 -221h-95l-32 -155h-285l33 155h-348l59 281l194 342h512zM350 426l-176 -283h115z" />
    <glyph glyph-name="uni2085" unicode="&#x2085;" horiz-adv-x="757" 
d="M621 324l-334 -2l-39 -132q27 44 74 74q48 31 104 31q95 0 145 -62t50 -174q0 -101 -50 -172q-49 -69 -135 -104q-87 -35 -198 -35q-105 0 -175 33q-71 33 -112 96q-39 59 -39 148h289q0 -64 55 -64q32 0 55 23t23 55q0 20 -17 37q-14 14 -43 14q-25 0 -38 -8
q-17 -10 -25 -21l-281 25l136 459h602z" />
    <glyph glyph-name="uni2086" unicode="&#x2086;" horiz-adv-x="778" 
d="M575 227l-4 2q62 -59 62 -166q0 -97 -49 -167q-48 -68 -140 -107q-87 -37 -202 -37q-146 0 -232 80t-86 234q0 105 45 215q46 114 148 196q101 82 262 82q141 0 217 -61t76 -181h-283q-4 15 -14 23q-13 10 -29 10q-83 0 -123 -149q27 35 80 59q55 25 103 25
q108 0 169 -58zM326 -16q24 18 24 47q0 22 -18 37q-19 16 -49 16q-40 0 -64 -18t-24 -50q0 -21 18 -36t45 -15q43 0 68 19z" />
    <glyph glyph-name="uni2087" unicode="&#x2087;" horiz-adv-x="645" 
d="M-33 324l47 221h598l-59 -281l-338 -497h-346l412 557h-314z" />
    <glyph glyph-name="uni2088" unicode="&#x2088;" horiz-adv-x="782" 
d="M623 223h-2q-61 -41 -160 -57q77 -20 125 -68q45 -45 45 -106q0 -66 -43 -121q-42 -53 -131 -88q-85 -33 -221 -33q-158 0 -246 55q-90 56 -90 160q0 83 67 135q69 53 180 68q-70 24 -110 61q-39 36 -39 99q0 64 43 116q42 51 127 82t190 31q95 0 172 -25q75 -25 115 -73
q41 -50 41 -117q0 -77 -63 -119zM387 274l2 -4q19 16 19 37q0 19 -17 29t-43 10q-38 0 -55 -14q-19 -16 -19 -37q0 -17 17 -27q13 -8 41 -8q38 0 55 14zM319 -23v3q27 15 27 40q0 19 -18 31t-49 12q-39 0 -68 -16q-27 -15 -27 -41q0 -20 19 -33q18 -12 53 -12q34 0 63 16z
" />
    <glyph glyph-name="uni2089" unicode="&#x2089;" horiz-adv-x="780" 
d="M590 479v-8q86 -80 86 -233q0 -105 -45 -215q-47 -115 -148 -197t-262 -82q-139 0 -215 61t-76 181h283q3 -13 14 -21t29 -8q83 0 123 149q-27 -35 -80 -59t-100 -24q-108 0 -170 59t-62 166q0 98 49 168q47 66 140 106q87 37 202 37q146 0 232 -80zM381 238v-5
q25 19 25 50q0 20 -19 36q-18 15 -45 15q-43 0 -68 -19q-24 -18 -24 -45q0 -22 18 -37q17 -14 49 -14q39 0 64 19z" />
    <glyph glyph-name="uni208A" unicode="&#x208a;" horiz-adv-x="671" 
d="M375 250h180l-43 -205h-180l-39 -184h-213l39 184h-180l43 205h180l39 184h213z" />
    <glyph glyph-name="uni208B" unicode="&#x208b;" horiz-adv-x="614" 
d="M451 45h-510l43 205h510z" />
    <glyph glyph-name="uni208C" unicode="&#x208c;" horiz-adv-x="688" 
d="M545 168h-574l43 205h574zM494 -76h-574l43 205h574z" />
    <glyph glyph-name="uni208D" unicode="&#x208d;" horiz-adv-x="532" 
d="M20 -338l-4 2q-30 77 -51 166q-18 76 -18 166q0 181 71 338t197 307h299q-133 -154 -209 -309t-76 -338q0 -91 19 -172q14 -58 47 -160h-275z" />
    <glyph glyph-name="uni208E" unicode="&#x208e;" horiz-adv-x="530" 
d="M-164 -338v-2q131 155 209 311t78 336q0 91 -19 172q-17 72 -49 160h275q35 -97 53 -166q18 -71 18 -164q0 -185 -69 -338q-71 -157 -199 -309h-297z" />
    <glyph glyph-name="uni20A9" unicode="&#x20a9;" horiz-adv-x="2154" 
d="M2195 1145l-71 -336h-236l-24 -90h194l-71 -336h-213l-103 -383h-661l247 1413l-348 -1413h-669l61 383h-213l72 336h194l15 90h-238l72 336h219l65 411h371l-233 -1374l356 1374h604l-225 -1380l354 1380h373l-111 -411h219z" />
    <glyph glyph-name="Euro" unicode="&#x20ac;" horiz-adv-x="1748" 
d="M1122 451l527 -5q-78 -154 -201 -264q-116 -105 -262 -162q-140 -55 -285 -55q-187 0 -323 62q-138 63 -213 180q-77 121 -86 289h-236l137 241h111q3 14 7.5 38.5t6.5 33.5h-174l137 242h119q76 155 197 276q123 123 272 189q152 67 328 67q168 0 295 -59
q129 -60 207 -166q80 -109 104 -248h-533q-9 46 -43 76q-36 31 -92 31q-64 0 -116 -43t-93 -121h494l-137 -242h-443l-12 -72h416l-137 -241h-287q21 -160 147 -160q92 0 168 113z" />
    <glyph glyph-name="uni20B8" unicode="&#x20b8;" horiz-adv-x="1376" 
d="M195 1221l71 335h1260l-72 -335h-1259zM469 795h-365l72 335h1260l-72 -335h-367l-168 -795h-528z" />
    <glyph glyph-name="uni20B9" unicode="&#x20b9;" horiz-adv-x="1513" 
d="M1583 1221h-328q7 -47 7 -86v-5h301l-72 -335h-367q-82 -85 -198 -136q-115 -50 -264 -69l632 -590h-702l-510 492l106 497h416q62 0 101 25q36 23 36 71q0 62 -102 62h-416l88 409h1344z" />
    <glyph glyph-name="uni20BA" unicode="&#x20ba;" horiz-adv-x="1607" 
d="M1575 645l-2 -2q-27 -228 -129 -369t-273 -208q-174 -68 -419 -68h-639l98 463l-141 -41l69 332l144 41l18 90l-141 -41l69 332l144 40l71 340h529l-37 -176l344 101l-70 -332l-346 -100l-18 -91l344 101l-70 -332l-346 -100l-45 -217h51q90 0 142 24q51 24 79 74
q31 58 48 139h526z" />
    <glyph glyph-name="uni20BD" unicode="&#x20bd;" horiz-adv-x="1638" 
d="M791 588l-17 -92h318l-72 -336h-318l-34 -162h-529l35 162h-158l72 336h158l18 90h-158l72 336h158l135 632h651q167 0 289 -51q127 -53 197 -151q71 -100 71 -236q0 -143 -73 -262q-72 -118 -230 -192q-157 -74 -383 -74h-202zM911 1145l-47 -223h152q72 0 108 36
q37 37 37 93q0 41 -26 67q-27 27 -74 27h-150z" />
    <glyph glyph-name="uni20BF" unicode="&#x20bf;" horiz-adv-x="1511" 
d="M1444 977l-4 -4q-64 -78 -166 -125q-101 -46 -223 -64q167 -27 262 -110q96 -84 96 -223q0 -151 -88 -252q-87 -100 -254 -150l-68 -319h-444l57 268h-45l-57 -268h-444l57 268h-127l332 1556h125l55 258h444l-55 -258h45l55 258h445l-74 -348q139 -95 139 -295
q0 -114 -63 -192zM821 952q72 0 117 31q43 30 43 84q0 39 -31 61q-33 23 -84 23h-100l-41 -199h96zM717 393h-2q79 0 123 33q45 33 45 88q0 46 -31 74q-29 26 -84 26h-115l-47 -221h111z" />
    <glyph glyph-name="uni2113" unicode="&#x2113;" horiz-adv-x="1441" 
d="M817 590l-41 -170q-4 -32 -4 -35q0 -47 35 -68q33 -20 98 -20q61 0 123 16q55 14 121 43l-66 -309q-105 -42 -194 -61q-90 -19 -203 -19q-138 0 -233 39q-98 40 -150 113q-51 71 -51 176v20l-107 -51l-102 297l283 137l92 435q27 131 112 233q84 100 228 160
q142 59 327 59q150 0 252 -45q107 -47 158 -119q53 -74 53 -164q0 -180 -141 -315q-142 -136 -379 -250zM971 1233v-2q-30 -27 -39 -80l-35 -166q203 114 203 213q0 64 -62 64q-35 0 -67 -29z" />
    <glyph glyph-name="uni2116" unicode="&#x2116;" horiz-adv-x="2877" 
d="M2859 1501q104 -85 104 -246q0 -123 -61 -233t-182 -178t-289 -68q-189 0 -295 86q-104 85 -104 246q0 123 61 233q62 111 182 179q119 67 289 67q189 0 295 -86zM1225 1554l-8 -1347l284 1347h481l-329 -1556h-881l8 1348l-284 -1348h-482l330 1556h881zM2515 1063v-4
q25 44 35 92q12 56 12 109q0 36 -10 53q-10 16 -31 16q-26 0 -47 -37q-25 -44 -35 -92q-12 -56 -12 -108q0 -35 10 -52q8 -14 31 -14q26 0 47 37z" />
    <glyph glyph-name="uni2117" unicode="&#x2117;" horiz-adv-x="1882" 
d="M1407 1505l-4 -8q193 -114 307 -307q115 -195 115 -420q0 -228 -113 -420q-114 -193 -307 -307q-192 -113 -424 -113q-229 0 -424 115q-193 114 -307 307q-113 192 -113 422q0 227 115 422q114 193 307 307q195 115 424 115q232 0 424 -113zM1288 236l-4 -5
q138 81 223 226q84 144 84 307q0 167 -82 307q-84 144 -223 225q-144 84 -309 84q-169 0 -309 -82t-224 -225q-82 -140 -82 -307q0 -163 84 -307t224 -226q138 -81 309 -81q165 0 309 84zM1061 1196l-4 4q128 0 207 -39q82 -40 122 -110q41 -71 41 -166q0 -100 -38 -166
q-41 -71 -123 -111q-79 -39 -205 -39h-88v-245h-330v872h418zM1036 842v4q19 0 31 12t12 31t-12 31t-31 12h-67v-90h67z" />
    <glyph glyph-name="uni2120" unicode="&#x2120;" horiz-adv-x="2201" 
d="M782 1260l-2 -13q102 -21 160 -88q59 -68 59 -172q0 -136 -104 -203t-287 -67q-104 0 -192 31q-86 30 -142 92q-55 61 -67 147h321q15 -31 37 -43q21 -12 62 -12q71 0 71 22q0 14 -20 23q-21 9 -68 18l-143 29q-118 24 -180 92t-62 170q0 85 49 146q48 60 134 96
q84 35 188 35q176 0 268 -68q93 -69 123 -176h-323q-9 15 -27 24q-22 11 -43 11q-27 0 -45 -6q-19 -6 -19 -17q0 -10 9 -16q8 -6 34 -12q12 -3 66 -15zM2169 1544v-809h-291v635l-59 -635h-437l-59 635v-635h-291v809h535l35 -477l32 477h535z" />
    <glyph glyph-name="trademark" unicode="&#x2122;" horiz-adv-x="2187" 
d="M446 1284h-196v272h725v-272h-197v-536h-332v536zM2148 1556v-808h-290v634l-60 -634h-436l-59 634v-634h-291v808h534l35 -477l33 477h534z" />
    <glyph glyph-name="uni2150" unicode="&#x2150;" horiz-adv-x="1822" 
d="M1167 557l47 221h598l-59 -280l-338 -498h-346l412 557h-314zM475 1556l234 -2l-166 -778h-285l92 438h-166l47 222h17q88 0 139 26q53 27 80 80zM518 -2h-399l1153 1556h399z" />
    <glyph glyph-name="uni2151" unicode="&#x2151;" horiz-adv-x="1871" 
d="M1712 713v-8q86 -80 86 -234q0 -105 -45 -215q-48 -117 -147 -197q-101 -82 -263 -82q-138 0 -215 62q-75 60 -75 180h282q3 -11 15 -20t28 -9q82 0 123 150q-27 -35 -80 -59q-55 -25 -100 -25q-108 0 -170 59q-61 58 -61 166q0 98 49 168q48 68 139 107q87 37 203 37
q145 0 231 -80zM1503 471v-4q25 19 25 49q0 21 -19 37q-17 14 -45 14q-43 0 -67 -18q-25 -19 -25 -45q0 -21 19 -37q17 -14 49 -14q39 0 63 18zM473 1542l234 -2l-166 -778h-285l92 438h-166l47 221h17q86 0 139 27t80 80zM516 -16h-399l1153 1556h399z" />
    <glyph glyph-name="uni2152" unicode="&#x2152;" horiz-adv-x="2463" 
d="M1411 778l234 -2l-166 -778h-285l92 438h-166l47 221h17q86 0 139 27t80 80zM1712 59v-8q-78 78 -78 219q0 138 47 256q46 117 148 187q103 71 256 71q150 0 225 -75q78 -78 78 -217q0 -136 -47 -254q-46 -117 -148 -187q-100 -69 -256 -69q-148 0 -225 77zM2046 242h-4
q33 61 47 129q16 78 16 127q0 37 -12 55t-43 18q-44 0 -74 -55q-30 -56 -45 -129q-14 -69 -14 -127q0 -37 12 -55q13 -19 43 -19q44 0 74 56zM473 1544l234 -2l-166 -778h-285l92 438h-166l47 221h17q86 0 139 27t80 80zM516 -14h-399l1153 1556h399z" />
    <glyph glyph-name="uni2153" unicode="&#x2153;" horiz-adv-x="1830" 
d="M473 1556l234 -2l-166 -778h-285l92 438h-166l47 222h17q88 0 139 26q53 27 80 80zM516 -2h-399l1153 1556h399zM1700 461l-4 -2q-66 -48 -168 -68q78 -12 127 -55t49 -111q0 -61 -37 -116q-38 -56 -119 -93q-79 -36 -205 -36q-95 0 -167 34q-71 33 -113 97
q-39 59 -39 147h283q0 -65 59 -65q28 0 43 12q14 11 14 31q0 22 -26 34q-29 13 -76 13h-61l45 213h69q54 0 78 12q25 12 25 33q0 14 -13 24q-11 8 -26 8q-24 0 -35 -14q-13 -16 -19 -37h-282q15 126 110 197q92 69 240 69q100 0 168 -26q67 -26 106 -74q37 -46 37 -104
q0 -78 -63 -123z" />
    <glyph glyph-name="uni2154" unicode="&#x2154;" horiz-adv-x="2043" 
d="M496 999l331 -2l-47 -221h-674l60 281l393 219q35 19 41 24q12 9 12 25q0 17 -12 23t-31 6q-25 0 -43 -15q-17 -14 -20 -39h-283q21 127 117 199q94 70 238 70q142 0 227 -58q86 -59 86 -161q0 -80 -53 -142q-49 -58 -129 -100zM727 -2h-399l1153 1556h399zM1911 461
l-4 -2q-66 -48 -168 -68q78 -12 127 -55t49 -111q0 -61 -37 -116q-38 -56 -119 -93q-79 -36 -205 -36q-96 0 -168 34q-70 33 -112 97q-39 59 -39 147h283q0 -65 59 -65q28 0 43 12q14 11 14 31q0 22 -26 34q-29 13 -76 13h-62l46 213h69q54 0 78 12q25 12 25 33q0 14 -13 24
q-11 8 -26 8q-24 0 -35 -14q-13 -16 -19 -37h-282q15 126 110 197q92 69 240 69q100 0 168 -26q67 -26 106 -74q37 -46 37 -104q0 -78 -63 -123z" />
    <glyph glyph-name="uni2155" unicode="&#x2155;" horiz-adv-x="1892" 
d="M1778 557l-334 -2l-39 -131q27 44 74 74t104 30q97 0 146 -61t49 -174q0 -102 -49 -172t-136 -105q-84 -34 -198 -34q-106 0 -174 32q-71 33 -113 97q-39 59 -39 147h289q0 -63 55 -63q33 0 55 22q23 23 23 55q0 21 -16 37q-15 15 -43 15q-24 0 -39 -9q-18 -11 -25 -20
l-281 24l136 459h602zM473 1554l234 -2l-166 -778h-285l92 438h-166l47 222h17q88 0 139 26q53 27 80 80zM516 -4h-399l1153 1556h399z" />
    <glyph glyph-name="uni2156" unicode="&#x2156;" horiz-adv-x="2101" 
d="M496 999l331 -2l-47 -221h-674l60 281l393 219q35 19 41 24q12 9 12 25q0 17 -12 23t-31 6q-25 0 -43 -15q-17 -14 -20 -39h-283q21 127 117 199q94 70 238 70q142 0 227 -58q86 -59 86 -161q0 -80 -53 -142q-49 -58 -129 -100zM727 -2h-399l1153 1556h399zM1991 555
l-334 -2l-39 -131q27 44 74 74q46 30 104 30q97 0 146 -61t49 -174q0 -102 -49 -172t-136 -105q-84 -34 -198 -34q-106 0 -174 32q-71 33 -113 97q-39 59 -39 147h289q0 -63 55 -63q33 0 55 22q23 23 23 55q0 21 -16 37q-15 15 -43 15q-24 0 -39 -9q-18 -11 -25 -20l-281 24
l136 459h602z" />
    <glyph glyph-name="uni2157" unicode="&#x2157;" horiz-adv-x="2029" 
d="M815 1241l-4 -2q-66 -48 -168 -68q78 -12 127 -55t49 -110q0 -62 -37 -117t-118 -92t-205 -37q-93 0 -168 35q-72 34 -113 96q-39 59 -39 147h283q0 -65 59 -65q28 0 43 12t15 31q0 23 -27 35t-76 12h-61l45 213h69q54 0 78 12q25 12 25 33q0 16 -12 25q-11 8 -27 8
q-23 0 -35 -15t-18 -36h-283q15 124 111 196q94 70 239 70q97 0 168 -27q68 -26 107 -74q37 -46 37 -104q0 -77 -64 -123zM645 -4h-399l1153 1556h399zM1909 553l-334 -2l-39 -131q27 44 74 74q46 30 104 30q97 0 146 -61t49 -174q0 -102 -49 -172t-136 -105t-198 -35
q-104 0 -174 33q-72 34 -113 96q-39 59 -39 148h289q0 -64 55 -64q32 0 55 23t23 55q0 21 -16 37q-14 14 -43 14q-26 0 -39 -8q-18 -11 -25 -20l-280 24l135 459h602z" />
    <glyph glyph-name="uni2158" unicode="&#x2158;" horiz-adv-x="2109" 
d="M807 1155h94l-47 -221h-94l-33 -156h-285l33 156h-348l59 280l195 342h512zM584 1438l-176 -283h114zM735 0h-399l1153 1556h399zM1999 557l-334 -2l-39 -131q27 44 74 74q46 30 104 30q97 0 146 -61t49 -174q0 -102 -49 -172q-50 -71 -135 -105q-84 -34 -199 -34
q-106 0 -174 32q-71 33 -113 97q-39 59 -39 147h289q0 -63 55 -63q34 0 56 22t22 55q0 21 -16 37q-15 15 -43 15q-24 0 -39 -9q-18 -11 -25 -20l-280 24l135 459h602z" />
    <glyph glyph-name="uni2159" unicode="&#x2159;" horiz-adv-x="1845" 
d="M1671 461l-4 2q62 -59 62 -166q0 -97 -50 -168q-47 -67 -139 -106q-87 -37 -203 -37q-145 0 -231 80t-86 233q0 105 45 215q48 117 147 197q101 82 263 82q140 0 217 -62q75 -60 75 -180h-282q-3 13 -15 22q-15 11 -28 11q-82 0 -123 -150q29 36 80 60q53 24 102 24
q110 0 170 -57zM1421 217q25 19 25 47q0 21 -19 37t-49 16q-39 0 -63 -18q-25 -19 -25 -49q0 -21 19 -37q17 -14 45 -14q43 0 67 18zM467 1556l233 -2l-165 -778h-285l92 438h-166l47 222h17q88 0 139 26q53 27 80 80zM510 -2h-399l1153 1556h399z" />
    <glyph glyph-name="uni215A" unicode="&#x215a;" horiz-adv-x="1998" 
d="M858 1335l-334 -2l-39 -131q27 44 74 74q48 31 105 31q95 0 145 -62q49 -61 49 -174q0 -102 -49 -172q-49 -69 -135 -104q-87 -35 -199 -35q-104 0 -174 33q-72 34 -113 96q-38 58 -38 147h288q0 -63 56 -63q33 0 55 22t22 56q0 20 -16 36q-15 15 -43 15q-26 0 -39 -8
q-15 -9 -24 -21l-281 25l135 458h602zM668 -2h-400l1153 1556h400zM1825 459l-4 2q61 -58 61 -166q0 -98 -49 -168q-48 -68 -139 -107q-85 -36 -203 -36q-146 0 -231 79q-86 80 -86 234q0 105 45 215q48 117 147 197q101 82 262 82q140 0 217 -62q76 -61 76 -180h-283
q-4 14 -14 22q-15 11 -29 11q-81 0 -122 -150q29 37 79 60q52 24 103 24q110 0 170 -57zM1575 215q24 18 24 47q0 22 -18 37q-19 16 -49 16q-40 0 -64 -18t-24 -49q0 -22 18 -37q17 -14 45 -14q44 0 68 18z" />
    <glyph glyph-name="oneeighth" unicode="&#x215b;" horiz-adv-x="1869" 
d="M1737 457h-2q-63 -43 -160 -58q79 -21 125 -67q45 -45 45 -107q0 -66 -43 -121q-42 -53 -131 -88q-82 -32 -221 -32q-158 0 -246 55q-90 56 -90 160q0 83 67 135t181 67q-70 24 -111 62q-39 36 -39 98q0 65 43 117q42 51 127 82t191 31q95 0 172 -25q73 -24 114 -74
t41 -117q0 -76 -63 -118zM1501 508l2 -4q19 16 19 37q0 18 -17 28q-18 11 -43 11q-37 0 -55 -15t-18 -37q0 -16 16 -26q13 -8 41 -8q38 0 55 14zM1434 211v2q26 14 26 41q0 19 -18 31t-49 12q-39 0 -68 -16q-27 -15 -27 -41q0 -20 19 -33q18 -12 53 -12t64 16zM471 1554
l234 -2l-166 -778h-285l92 438h-166l47 222h17q88 0 139 26q53 27 80 80zM514 -4h-399l1153 1556h399z" />
    <glyph glyph-name="threeeighths" unicode="&#x215c;" horiz-adv-x="2007" 
d="M815 1241l-4 -2q-66 -48 -168 -68q78 -12 127 -55t49 -110q0 -62 -37 -117t-118 -92t-205 -37q-93 0 -168 35q-72 34 -113 96q-39 59 -39 147h283q0 -65 59 -65q28 0 43 12t15 31q0 23 -27 35t-76 12h-61l45 213h69q54 0 78 12q25 12 25 33q0 16 -12 25q-11 8 -27 8
q-23 0 -35 -15t-18 -36h-283q15 124 111 196q94 70 239 70q97 0 168 -27q68 -26 107 -74q37 -46 37 -104q0 -77 -64 -123zM645 -4h-399l1153 1556h399zM1868 453h-2q-63 -43 -160 -58q79 -21 125 -67q45 -45 45 -107q0 -66 -43 -121q-42 -53 -131 -88q-82 -32 -221 -32
q-158 0 -246 55q-90 56 -90 160q0 83 67 135t181 67q-70 24 -111 62q-39 36 -39 98q0 65 43 117q42 51 127 82q83 30 191 30q98 0 172 -24q73 -24 114 -74t41 -117q0 -76 -63 -118zM1632 504l2 -4q19 16 19 37q0 18 -17 28t-43 10q-38 0 -55 -14q-18 -15 -18 -37
q0 -16 16 -26q15 -9 41 -9q37 0 55 15zM1565 207v2q26 14 26 41q0 19 -18 31t-49 12q-37 0 -68 -17q-26 -14 -26 -40q0 -21 18 -33q20 -13 53 -13t64 17z" />
    <glyph glyph-name="fiveeighths" unicode="&#x215d;" horiz-adv-x="2021" 
d="M858 1335l-334 -2l-39 -131q27 44 74 74q48 31 105 31q95 0 145 -62q49 -61 49 -174q0 -102 -49 -172q-49 -69 -135 -104q-87 -35 -199 -35q-104 0 -174 33q-72 34 -113 96q-38 58 -38 147h288q0 -63 56 -63q33 0 55 22t22 56q0 20 -16 36q-15 15 -43 15q-26 0 -39 -8
q-15 -9 -24 -21l-281 25l135 458h602zM668 -2h-400l1153 1556h400zM1890 455h-2q-64 -43 -159 -58q77 -20 124 -67q45 -45 45 -107q0 -66 -43 -121q-42 -53 -131 -88q-82 -32 -221 -32q-158 0 -246 55q-90 56 -90 160q0 82 68 135q67 52 180 67q-68 23 -110 62
q-39 36 -39 98q0 65 43 117q42 51 127 82q83 30 190 30q98 0 172 -24t115 -74t41 -117q0 -75 -64 -118zM1655 506l2 -4q18 15 18 37q0 18 -16 28q-18 11 -43 11q-37 0 -55 -15q-19 -16 -19 -37q0 -16 17 -26q13 -8 40 -8q39 0 56 14zM1587 209v2q27 15 27 41q0 18 -19 31
q-18 12 -49 12q-38 0 -67 -16q-27 -15 -27 -41q0 -21 18 -33t54 -12q34 0 63 16z" />
    <glyph glyph-name="seveneighths" unicode="&#x215e;" horiz-adv-x="1953" 
d="M219 1335l47 221h598l-59 -280l-338 -498h-346l411 557h-313zM600 0h-399l1153 1556h399zM1823 457h-2q-63 -43 -160 -58q79 -21 125 -67q45 -45 45 -107q0 -66 -43 -121q-42 -53 -131 -88q-82 -32 -221 -32q-158 0 -246 55q-90 56 -90 160q0 83 67 135t181 67
q-70 24 -111 62q-39 36 -39 98q0 65 43 117q42 51 127 82t191 31q95 0 172 -25q73 -24 114 -74t41 -117q0 -76 -63 -118zM1587 508l2 -4q19 16 19 37q0 18 -17 28q-18 11 -43 11q-37 0 -55 -15t-18 -37q0 -16 16 -26q13 -8 41 -8q38 0 55 14zM1520 211v2q26 14 26 41
q0 19 -18 31t-49 12q-39 0 -68 -16q-27 -15 -27 -41q0 -20 19 -33q18 -12 53 -12t64 16z" />
    <glyph glyph-name="uni215F" unicode="&#x215f;" horiz-adv-x="1529" 
d="M506 1556l233 -2l-166 -778h-284l92 438h-166l47 222h17q88 0 139 26q53 27 80 80zM549 -2h-399l1153 1556h399z" />
    <glyph glyph-name="uni2189" unicode="&#x2189;" horiz-adv-x="2004" 
d="M244 840v-9q-78 78 -78 220q0 138 47 256q46 116 147 186q104 72 256 72q150 0 226 -76q78 -78 78 -217q0 -133 -48 -254q-47 -118 -147 -187t-256 -69q-147 0 -225 78zM578 1022h-5q35 64 48 129q16 78 16 127q0 37 -12 55q-13 19 -43 19q-44 0 -74 -56t-45 -129
q-14 -69 -14 -127q0 -37 12 -55t43 -18q44 0 74 55zM684 -10h-399l1153 1556h399zM1868 453l-4 -2q-66 -48 -168 -68q78 -12 127 -55t49 -111q0 -62 -37 -117t-119 -92q-81 -37 -205 -37q-93 0 -168 35q-71 33 -112 96q-39 59 -39 148h283q0 -66 59 -66q27 0 43 13
q14 11 14 30q0 23 -26 35q-27 12 -76 12h-62l46 213h69q52 0 78 13q25 12 25 32q0 15 -13 25q-11 8 -26 8q-24 0 -35 -14q-13 -16 -19 -37h-282q15 126 110 197q92 69 240 69q100 0 168 -26q67 -26 106 -74q37 -46 37 -105q0 -77 -63 -122z" />
    <glyph glyph-name="arrowleft" unicode="&#x2190;" horiz-adv-x="1576" 
d="M772 1004h778v-447h-778l305 -367h-551l-395 590l395 590h551z" />
    <glyph glyph-name="arrowup" unicode="&#x2191;" horiz-adv-x="1576" 
d="M834 1489l589 -395v-551l-366 305v-778h-447v778l-366 -305v551z" />
    <glyph glyph-name="arrowright" unicode="&#x2192;" horiz-adv-x="1576" 
d="M590 1370h551l395 -590l-395 -590h-551l305 367h-778v447h778z" />
    <glyph glyph-name="arrowdown" unicode="&#x2193;" horiz-adv-x="1576" 
d="M1057 1487v-778l366 305v-551l-589 -395l-590 395v551l366 -305v778h447z" />
    <glyph glyph-name="uni2196" unicode="&#x2196;" horiz-adv-x="1576" 
d="M981 948l539 -536l-310 -312l-538 537v-528l-396 370v864h865l370 -395h-530z" />
    <glyph glyph-name="uni2197" unicode="&#x2197;" horiz-adv-x="1576" 
d="M131 948l371 395h864v-864l-395 -370v528l-539 -537l-309 312l539 536h-531z" />
    <glyph glyph-name="uni2198" unicode="&#x2198;" horiz-adv-x="1576" 
d="M995 920v528l396 -371v-864h-865l-370 395h530l-539 537l310 311z" />
    <glyph glyph-name="uni2199" unicode="&#x2199;" horiz-adv-x="1576" 
d="M1235 1456l309 -311l-538 -537h530l-371 -395h-864v864l395 371v-528z" />
    <glyph glyph-name="uni21A4" unicode="&#x21a4;" horiz-adv-x="1576" 
d="M1096 1001v367h446v-1180h-446v367h-437l306 -367h-551l-396 590l396 590h551l-306 -367h437z" />
    <glyph glyph-name="uni21A5" unicode="&#x21a5;" horiz-adv-x="1576" 
d="M1442 1264v-551l-367 305v-498h367v-448h-1180v448h367v498l-367 -305v551l590 395z" />
    <glyph glyph-name="uni21A6" unicode="&#x21a6;" horiz-adv-x="1576" 
d="M702 1368h551l396 -590l-396 -590h-551l306 367h-437v-367h-446v1180h446v-367h437z" />
    <glyph glyph-name="uni21A7" unicode="&#x21a7;" horiz-adv-x="1576" 
d="M1405 1485v-449h-367v-497l367 305v-551l-590 -395l-590 395v551l367 -305v497h-367v449h1180z" />
    <glyph glyph-name="uni21B0" unicode="&#x21b0;" horiz-adv-x="1576" 
d="M645 1001h830v-1001h-449v555h-381l305 -367h-551l-395 590l395 590h551z" />
    <glyph glyph-name="uni21B1" unicode="&#x21b1;" horiz-adv-x="1576" 
d="M676 1368h551l395 -590l-395 -590h-551l305 367h-381v-555h-448v1001h829z" />
    <glyph glyph-name="uni21B2" unicode="&#x21b2;" horiz-adv-x="1576" 
d="M1067 1001v555h449v-1001h-830l305 -367h-551l-395 590l395 590h551l-305 -367h381z" />
    <glyph glyph-name="uni21B3" unicode="&#x21b3;" horiz-adv-x="1576" 
d="M713 1368h551l395 -590l-395 -590h-551l305 367h-830v1001h449v-555h381z" />
    <glyph glyph-name="partialdiff" unicode="&#x2202;" horiz-adv-x="1304" 
d="M309 1589v-6q293 -35 504 -153q214 -120 332 -318q117 -196 117 -453q0 -338 -154 -518q-153 -178 -457 -178q-159 0 -301 60q-139 59 -221 178q-84 122 -84 295q0 172 66 286q65 111 170 164q102 51 231 51q139 0 227 -61q89 -62 144 -166q-18 114 -88 207
q-71 95 -193 162t-293 88v362zM715 342q18 52 18 154q0 86 -18 129t-66 43q-47 0 -65 -43q-19 -46 -19 -129q0 -99 19 -154q17 -51 65 -51q49 0 66 51z" />
    <glyph glyph-name="product" unicode="&#x220f;" horiz-adv-x="2127" 
d="M2122 1556v-419h-256v-1413h-525v1413h-319v-1413h-524v1413h-256v419h1880z" />
    <glyph glyph-name="summation" unicode="&#x2211;" horiz-adv-x="1714" 
d="M248 1556h1263v-419h-700l578 -482l-578 -512h692v-419h-1255v532l465 399l-465 369v532z" />
    <glyph glyph-name="minus" unicode="&#x2212;" horiz-adv-x="1206" 
d="M1110 383h-1014v377h1014v-377z" />
    <glyph glyph-name="radical" unicode="&#x221a;" horiz-adv-x="1488" 
d="M768 133l317 1423h525l-420 -1832h-834l-157 624h-199v420h616z" />
    <glyph glyph-name="infinity" unicode="&#x221e;" horiz-adv-x="2416" 
d="M2013 1067h4q142 -73 226 -199q86 -130 86 -299t-86 -299q-84 -126 -226 -196q-139 -68 -288 -68q-172 0 -295 57q-131 61 -222 168q-92 -108 -221 -168q-123 -57 -295 -57q-149 0 -288 68q-142 70 -226 196q-86 130 -86 299t86 299q84 126 226 199q137 70 288 70
q167 0 293 -60q122 -58 221 -178q98 119 222 178q126 60 292 60q152 0 289 -70zM965 541l16 26l-20 33q-105 156 -240 156q-51 0 -94 -21q-45 -22 -68 -63q-24 -44 -24 -101t24 -100q23 -41 68 -63q43 -21 94 -21q138 0 244 154zM1798 410v-4q45 22 68 63q24 43 24 100
t-24 101q-23 41 -68 63q-48 23 -94 23q-135 0 -240 -156l-20 -33l16 -24q106 -154 244 -154q50 0 94 21z" />
    <glyph glyph-name="integral" unicode="&#x222b;" horiz-adv-x="847" 
d="M-68 -401l-2 358h74q81 0 125 35q43 34 43 114v977q0 172 66 279q62 102 194 149q125 45 336 45h152v-362h-74q-83 0 -125 -33q-43 -34 -43 -112v-977q0 -172 -66 -279q-62 -102 -194 -149q-125 -45 -334 -45h-152z" />
    <glyph glyph-name="approxequal" unicode="&#x2248;" horiz-adv-x="1507" 
d="M104 809l-2 -2q80 138 185 209q106 71 217 71q61 0 119 -10q54 -9 129 -43q70 -30 120 -45q46 -14 103 -14q61 0 112 31q49 30 91 84l227 -236q-80 -139 -184 -209q-107 -72 -217 -72q-55 0 -119 11q-54 9 -129 43q-68 29 -121 45q-46 14 -100 14q-62 0 -113 -31
q-50 -30 -90 -82zM102 289l-2 -2q80 138 185 209q106 71 217 71q61 0 119 -10q54 -9 129 -43q70 -30 120 -45q46 -14 103 -14q63 0 112 30t91 84l227 -235q-80 -139 -184 -209q-107 -72 -218 -72q-60 0 -118 10q-54 9 -129 43q-76 32 -121 46q-46 14 -101 14q-61 0 -112 -31
q-50 -30 -90 -82z" />
    <glyph glyph-name="notequal" unicode="&#x2260;" horiz-adv-x="1376" 
d="M1239 999v-376h-285l-53 -97h338v-376h-545l-82 -150h-467l82 150h-86v376h293l53 97h-346v376h551l76 138h467l-76 -138h80z" />
    <glyph glyph-name="lessequal" unicode="&#x2264;" horiz-adv-x="1353" 
d="M152 1049l1034 100v-338l-727 -43l727 -43v-338l-1034 100v562zM1186 0h-1034v356h1034v-356z" />
    <glyph glyph-name="greaterequal" unicode="&#x2265;" horiz-adv-x="1374" 
d="M170 811v338l1034 -100v-562l-1034 -100v338l727 43zM1204 0h-1034v356h1034v-356z" />
    <glyph glyph-name="uni2300" unicode="&#x2300;" horiz-adv-x="1308" 
d="M1300 1014l-133 -135q88 -143 88 -314q0 -164 -79 -301q-78 -135 -220 -217q-139 -80 -301 -80q-74 0 -161 23q-83 22 -148 61l-131 -133l-207 201l135 135q-88 143 -88 313q0 162 80 301q78 136 219 217q139 80 301 80q87 0 160 -20q77 -21 148 -62l131 131zM424 541
l252 250q-6 2 -25 2q-55 0 -112 -31q-55 -30 -86 -84t-31 -111q0 -20 2 -26zM883 590l-258 -256q6 -2 24 -2q59 0 115 30q51 28 88 87q33 53 33 114q0 21 -2 27z" />
    <glyph glyph-name="uni2460" unicode="&#x2460;" horiz-adv-x="1912" 
d="M1432 1522q196 -114 311 -312t115 -430t-115 -430q-114 -197 -311 -311q-198 -115 -431 -115q-232 0 -430 115q-197 114 -311 311q-115 198 -115 430t115 430t311 312q197 114 430 114q235 0 431 -114zM1335 199q155 90 244 243q90 156 90 336t-90 336q-89 155 -244 244
q-156 90 -336 90q-179 0 -335 -90q-155 -89 -244 -244q-90 -156 -90 -336t90 -336q89 -153 244 -243q156 -90 335 -90q180 0 336 90zM922 1245h264v-934h-328v535h-201v260h9q104 0 161 31q52 28 88 96z" />
    <glyph glyph-name="uni2461" unicode="&#x2461;" horiz-adv-x="1912" 
d="M1432 1522q196 -114 311 -312t115 -430t-115 -430q-114 -197 -311 -311q-198 -115 -431 -115q-232 0 -430 115q-197 114 -311 311q-115 198 -115 430t115 430t311 312q197 114 430 114q235 0 431 -114zM1335 199q155 90 244 243q90 156 90 336t-90 336q-89 155 -244 244
q-156 90 -336 90q-179 0 -335 -90q-155 -89 -244 -244q-90 -156 -90 -336t90 -336q89 -153 244 -243q156 -90 335 -90q180 0 336 90zM987 571l414 -8v-260h-809v326l422 280q18 13 30 29q11 15 11 29q0 18 -17 32q-16 13 -43 13q-28 0 -47 -19q-18 -18 -18 -45h-336
q3 90 55 160q52 69 146 111q93 41 204 41q117 0 207 -35q91 -36 140 -99q49 -64 49 -153q0 -83 -41 -142q-39 -57 -135 -116z" />
    <glyph glyph-name="uni2462" unicode="&#x2462;" horiz-adv-x="1912" 
d="M1432 1522q196 -114 311 -312t115 -430t-115 -430q-114 -197 -311 -311q-198 -115 -431 -115q-232 0 -430 115q-197 114 -311 311q-115 198 -115 430t115 430t311 312q197 114 430 114q235 0 431 -114zM1335 199q155 90 244 243q90 156 90 336t-90 336q-89 155 -244 244
q-156 90 -336 90q-179 0 -335 -90q-155 -89 -244 -244q-90 -156 -90 -336t90 -336q89 -153 244 -243q156 -90 335 -90q180 0 336 90zM1327 723l-2 -6q76 -55 76 -156q0 -86 -49 -147q-50 -62 -142 -92q-95 -31 -221 -31q-204 0 -307 86t-109 235h336q6 -75 82 -75
q36 0 56 14q22 16 22 43q0 37 -37 49q-38 12 -104 12h-64v260h64q72 0 96 15q25 16 25 39q0 18 -17 32q-16 13 -43 13q-28 0 -47 -19q-18 -18 -18 -43h-336q6 90 61 160q56 71 146 109q85 36 196 36q109 0 197 -30q89 -30 141 -88q53 -59 53 -131q0 -103 -61 -152t-178 -70
q110 -9 184 -63z" />
    <glyph glyph-name="uni2463" unicode="&#x2463;" horiz-adv-x="1912" 
d="M1432 1522q196 -114 311 -312t115 -430t-115 -430q-114 -197 -311 -311q-198 -115 -431 -115q-232 0 -430 115q-197 114 -311 311q-115 198 -115 430t115 430t311 312q197 114 430 114q235 0 431 -114zM1335 199q155 90 244 243q90 156 90 336t-90 336q-89 155 -244 244
q-156 90 -336 90q-179 0 -335 -90q-155 -89 -244 -244q-90 -156 -90 -336t90 -336q89 -153 244 -243q156 -90 335 -90q180 0 336 90zM1311 1245v-483h116v-260h-116v-191h-328v191h-424v325l174 418h578zM983 1106l-149 -344h149v344z" />
    <glyph glyph-name="uni2464" unicode="&#x2464;" horiz-adv-x="1912" 
d="M1432 1522q196 -114 311 -312t115 -430t-115 -430q-114 -197 -311 -311q-198 -115 -431 -115q-232 0 -430 115q-197 114 -311 311q-115 198 -115 430t115 430t311 312q197 114 430 114q235 0 431 -114zM1335 199q155 90 244 243q90 156 90 336t-90 336q-89 155 -244 244
q-156 90 -336 90q-179 0 -335 -90q-155 -89 -244 -244q-90 -156 -90 -336t90 -336q89 -153 244 -243q156 -90 335 -90q180 0 336 90zM1272 907l4 -8q65 -35 102 -104q37 -70 37 -179q0 -110 -53 -184q-52 -73 -145 -108t-211 -35q-121 0 -209 39q-95 42 -148 112
q-55 73 -61 174h336q0 -31 18 -55t59 -24q34 0 56 22t22 61q0 42 -20 62t-58 20q-28 0 -49 -12t-30 -33l-326 27l43 559h704v-260h-403l-12 -164q23 48 80 86q55 37 122 37q80 0 142 -33z" />
    <glyph glyph-name="uni2465" unicode="&#x2465;" horiz-adv-x="1912" 
d="M1432 1522q196 -114 311 -312t115 -430t-115 -430q-114 -197 -311 -311q-198 -115 -431 -115q-232 0 -430 115q-197 114 -311 311q-115 198 -115 430t115 430t311 312q197 114 430 114q235 0 431 -114zM1335 199q155 90 244 243q90 156 90 336t-90 336q-89 155 -244 244
q-156 90 -336 90q-179 0 -335 -90q-155 -89 -244 -244q-90 -156 -90 -336t90 -336q89 -153 244 -243q156 -90 335 -90q180 0 336 90zM1264 895l2 2q71 -36 116 -109q43 -70 43 -167q0 -92 -53 -166q-54 -75 -149 -117q-98 -43 -224 -43q-133 0 -229 51q-99 52 -154 160
q-55 107 -55 270q0 164 55 271q55 106 154 159q102 54 227 54q120 0 207 -37q89 -38 139 -103q50 -66 62 -143h-336q-14 39 -68 39q-65 0 -92 -55t-30 -144q20 45 77 80q56 35 136 35q99 0 172 -37zM1061 561q26 20 26 57q0 38 -26 58t-74 20t-74 -20t-26 -58q0 -37 26 -57
t74 -20t74 20z" />
    <glyph glyph-name="uni2466" unicode="&#x2466;" horiz-adv-x="1912" 
d="M1432 1522q196 -114 311 -312t115 -430t-115 -430q-114 -197 -311 -311q-198 -115 -431 -115q-232 0 -430 115q-197 114 -311 311q-115 198 -115 430t115 430t311 312q197 114 430 114q235 0 431 -114zM1335 199q155 90 244 243q90 156 90 336t-90 336q-89 155 -244 244
q-156 90 -336 90q-179 0 -335 -90q-155 -89 -244 -244q-90 -156 -90 -336t90 -336q89 -153 244 -243q156 -90 335 -90q180 0 336 90zM1026 985h-387v260h713v-325l-301 -609h-398z" />
    <glyph glyph-name="uni2467" unicode="&#x2467;" horiz-adv-x="1912" 
d="M1432 1522q196 -114 311 -312t115 -430t-115 -430q-114 -197 -311 -311q-198 -115 -431 -115q-232 0 -430 115q-197 114 -311 311q-115 198 -115 430t115 430t311 312q197 114 430 114q235 0 431 -114zM1335 199q155 90 244 243q90 156 90 336t-90 336q-89 155 -244 244
q-156 90 -336 90q-179 0 -335 -90q-155 -89 -244 -244q-90 -156 -90 -336t90 -336q89 -153 244 -243q156 -90 335 -90q180 0 336 90zM1370 721l-4 -2q68 -53 68 -148q0 -82 -52 -143q-54 -63 -149 -96q-100 -35 -238 -35q-137 0 -237 35q-97 34 -150 96q-51 60 -51 145
q0 95 68 148q70 55 180 72q-109 27 -164 79t-55 138q0 78 53 137t145 86q98 29 213 29t213 -29q94 -28 146 -86q53 -59 53 -137q0 -86 -55 -138t-164 -79q110 -17 180 -72zM930 997h-4q-25 -16 -25 -43q0 -25 25 -41q26 -16 65 -16q40 0 66 16q24 15 24 41q0 28 -24 43
q-27 17 -64 17q-36 0 -63 -17zM1065 555q27 18 27 49t-27 49q-29 19 -76 19t-76 -19q-26 -17 -26 -49t26 -49q27 -18 76 -18t76 18z" />
    <glyph glyph-name="uni2468" unicode="&#x2468;" horiz-adv-x="1912" 
d="M1432 1522q196 -114 311 -312t115 -430t-115 -430q-114 -197 -311 -311q-198 -115 -431 -115q-232 0 -430 115q-197 114 -311 311q-115 198 -115 430t115 430t311 312q197 114 430 114q235 0 431 -114zM1335 199q155 90 244 243q90 156 90 336t-90 336q-89 155 -244 244
q-156 90 -336 90q-179 0 -335 -90q-155 -89 -244 -244q-90 -156 -90 -336t90 -336q89 -153 244 -243q156 -90 335 -90q180 0 336 90zM1233 1210l-10 -8q97 -52 153 -160q56 -109 56 -270t-56 -270q-56 -108 -153 -160q-96 -51 -228 -51q-117 0 -204 37q-91 39 -140 102
t-61 145h336q14 -38 67 -38q65 0 92 55q28 58 31 143q-21 -46 -76 -80t-135 -34q-101 0 -172 36q-73 37 -117 109q-43 70 -43 170q0 90 54 166q53 74 151 117t226 43q131 0 229 -52zM1071 872q27 21 27 58q0 36 -27 57t-74 21q-46 0 -73 -21t-27 -57q0 -37 27 -58
q26 -20 73 -20q48 0 74 20z" />
    <glyph glyph-name="uni24EA" unicode="&#x24ea;" horiz-adv-x="1912" 
d="M569 35q-197 114 -311 311q-115 198 -115 430t115 430t311 312q197 114 430 114q235 0 431 -114t311 -312q114 -196 114 -430t-114 -430q-114 -197 -311 -311q-198 -115 -431 -115q-232 0 -430 115zM1335 199q155 90 244 243q90 156 90 336t-90 336q-89 155 -244 244
q-156 90 -336 90q-179 0 -335 -90q-155 -89 -244 -244q-90 -156 -90 -336t90 -336q89 -153 244 -243q156 -90 335 -90q180 0 336 90zM678 418q-111 123 -111 360q0 238 111 361t319 123q209 0 320 -123q110 -122 110 -361q0 -238 -110 -360q-111 -123 -320 -123
q-208 0 -319 123zM1057 565h-4q21 24 30 76t9 137q0 84 -9 137q-9 52 -30 76q-22 25 -58 25q-35 0 -57 -25q-22 -26 -31 -76q-8 -47 -8 -137t8 -137q9 -50 31 -76q21 -24 59 -24q39 0 60 24z" />
    <glyph glyph-name="uni24FF" unicode="&#x24ff;" horiz-adv-x="1912" 
d="M569 35q-197 114 -311 311q-115 198 -115 430t115 430t311 312q197 114 430 114q235 0 431 -114t311 -312q114 -196 114 -430t-114 -430q-114 -197 -311 -311q-198 -115 -431 -115q-232 0 -430 115zM1321 418q111 123 111 360q0 238 -111 361t-320 123q-208 0 -319 -123
t-111 -361q0 -237 111 -360t319 -123q209 0 320 123zM942 565h-4q-22 26 -31 76q-8 47 -8 137t8 137q9 50 31 76q22 25 59 25q38 0 60 -25q21 -24 30 -76t9 -137q0 -84 -9 -137q-9 -52 -30 -76t-58 -24q-36 0 -57 24z" />
    <glyph glyph-name="filledbox" unicode="&#x25a0;" horiz-adv-x="1470" 
d="M1303 0h-1137v1137h1137v-1137z" />
    <glyph glyph-name="uni25A1" unicode="&#x25a1;" horiz-adv-x="1470" 
d="M1303 0h-1137v1137h1137v-1137zM547 756v-375h375v375h-375z" />
    <glyph glyph-name="lozenge" unicode="&#x25ca;" horiz-adv-x="1546" 
d="M508 1556h618l396 -778l-396 -778h-618l-395 778zM819 256l264 522l-264 522l-266 -522z" />
    <glyph glyph-name="circle" unicode="&#x25cb;" horiz-adv-x="1394" 
d="M393 43q-138 83 -221 221q-82 137 -82 305q0 166 80 305q81 141 221 220q142 80 307 80q167 0 306 -80q138 -80 219 -220q80 -139 80 -305q0 -165 -80 -307q-79 -140 -219 -221q-139 -80 -306 -80q-168 0 -305 82zM801 387h-6q49 27 77 78q29 53 29 106q0 55 -29 105
q-28 48 -73 74q-48 28 -105 28q-55 0 -106 -28q-49 -27 -76 -76q-29 -53 -29 -105q0 -53 29 -106q26 -48 78 -76q53 -29 106 -29q52 0 105 29z" />
    <glyph glyph-name="uni25CF" unicode="&#x25cf;" horiz-adv-x="1394" 
d="M393 43q-138 83 -221 221q-82 137 -82 305q0 166 80 305q81 141 221 220q142 80 307 80q167 0 306 -80q138 -80 219 -220q80 -139 80 -305q0 -165 -80 -307q-79 -140 -219 -221q-139 -80 -306 -80q-168 0 -305 82z" />
    <glyph glyph-name="uni2776" unicode="&#x2776;" horiz-adv-x="1912" 
d="M569 35q-197 114 -311 311q-115 198 -115 430t115 430t311 312q197 114 430 114q235 0 431 -114t311 -312q114 -196 114 -430t-114 -430q-114 -197 -311 -311q-198 -115 -431 -115q-232 0 -430 115zM860 311l330 -2v934h-266l-6 -12q-35 -65 -89 -94q-57 -31 -161 -31h-9
v-260h201v-535z" />
    <glyph glyph-name="uni2777" unicode="&#x2777;" horiz-adv-x="1912" 
d="M569 35q-197 114 -311 311q-115 198 -115 430t115 430t311 312q197 114 430 114q235 0 431 -114t311 -312q114 -196 114 -430t-114 -430q-114 -197 -311 -311q-198 -115 -431 -115q-232 0 -430 115zM598 311l809 2v260h-420l232 144q95 59 135 117q41 59 41 141
q0 89 -49 153q-49 63 -140 99q-90 35 -205 35q-116 0 -204 -39q-91 -41 -144 -111q-52 -70 -55 -160h336q0 27 18 45q19 19 47 19t43 -12q17 -14 17 -33q0 -16 -8 -27q-6 -8 -31 -26l-422 -281v-326z" />
    <glyph glyph-name="uni2778" unicode="&#x2778;" horiz-adv-x="1912" 
d="M569 35q-197 114 -311 311q-115 198 -115 430t115 430t311 312q197 114 430 114q235 0 431 -114t311 -312q114 -196 114 -430t-114 -430q-114 -197 -311 -311q-198 -115 -431 -115q-232 0 -430 115zM1212 326l-2 -2q92 30 142 92q49 61 49 147q0 103 -76 158
q-77 56 -184 65q117 21 178 70t61 152q0 72 -53 131q-54 61 -141 90q-91 31 -197 31q-109 0 -196 -37q-90 -38 -144 -107q-55 -70 -61 -160h336q0 25 18 43q19 19 47 19t43 -12q17 -14 17 -33q0 -23 -25 -39q-22 -14 -96 -14h-64v-261h64q66 0 104 -12q37 -12 37 -49
q0 -29 -20 -43t-56 -14q-76 0 -82 75h-336q6 -149 109 -235t307 -86q126 0 221 31z" />
    <glyph glyph-name="uni2779" unicode="&#x2779;" horiz-adv-x="1912" 
d="M569 35q-197 114 -311 311q-115 198 -115 430t115 430t311 312q197 114 430 114q235 0 431 -114t311 -312q114 -196 114 -430t-114 -430q-114 -197 -311 -311q-198 -115 -431 -115q-232 0 -430 115zM559 827v-325h424v-191h328v191h116v260h-116v483h-578zM983 762h-149
l149 344v-344z" />
    <glyph glyph-name="uni277A" unicode="&#x277a;" horiz-adv-x="1912" 
d="M569 35q-197 114 -311 311q-115 198 -115 430t115 430t311 312q197 114 430 114q235 0 431 -114t311 -312q114 -196 114 -430t-114 -430q-114 -197 -311 -311q-198 -115 -431 -115q-232 0 -430 115zM1214 330l-12 4q94 36 146 108q53 74 53 185q0 108 -37 178
q-37 69 -102 104t-142 35q-68 0 -123 -37t-79 -86l12 164h403v260h-704l-43 -559l325 -27q9 20 31 33q23 13 49 13q39 0 60 -21q22 -22 22 -61q0 -40 -22 -62q-20 -20 -56 -20q-39 0 -57 24t-18 56h-336q6 -102 61 -175q53 -70 148 -112q88 -39 208 -39t213 35z" />
    <glyph glyph-name="uni277B" unicode="&#x277b;" horiz-adv-x="1912" 
d="M569 35q-197 114 -311 311q-115 198 -115 430t115 430t311 312q197 114 430 114q235 0 431 -114t311 -312q114 -196 114 -430t-114 -430q-114 -197 -311 -311q-198 -115 -431 -115q-232 0 -430 115zM1221 336l-11 -8q101 44 152 116q53 74 53 166q0 100 -43 170
q-44 72 -117 109t-172 37q-79 0 -135 -35q-55 -34 -76 -80q3 85 31 143q27 56 92 56q54 0 68 -39h336q-12 80 -62 145t-139 103q-85 36 -205 36q-131 0 -227 -51q-99 -52 -154 -160q-55 -107 -55 -270t55 -270q55 -108 154 -160q96 -51 229 -51q128 0 226 43zM907 551
q-26 20 -26 57q0 38 26 58t74 20t74 -20t26 -58q0 -37 -26 -57q-27 -21 -74 -21t-74 21z" />
    <glyph glyph-name="uni277C" unicode="&#x277c;" horiz-adv-x="1912" 
d="M569 35q-197 114 -311 311q-115 198 -115 430t115 430t311 312q197 114 430 114q235 0 431 -114t311 -312q114 -196 114 -430t-114 -430q-114 -197 -311 -311q-198 -115 -431 -115q-232 0 -430 115zM1026 985l-373 -674h398l301 609v325h-713v-260h387z" />
    <glyph glyph-name="uni277D" unicode="&#x277d;" horiz-adv-x="1912" 
d="M569 35q-197 114 -311 311q-115 198 -115 430t115 430t311 312q197 114 430 114q235 0 431 -114t311 -312q114 -196 114 -430t-114 -430q-114 -197 -311 -311q-198 -115 -431 -115q-232 0 -430 115zM1237 330v-2q95 33 149 96q52 61 52 145q0 95 -68 148q-69 53 -180 71
q108 27 164 80q55 52 55 138q0 80 -51 137q-52 58 -146 86q-95 28 -213 28t-213 -28q-92 -27 -145 -86q-51 -57 -51 -137q0 -86 55 -138q56 -53 164 -80q-111 -18 -180 -71q-68 -53 -68 -148q0 -83 51 -143q53 -62 150 -96q100 -35 237 -35q138 0 238 35zM934 913h-4
q-25 16 -25 41q0 27 25 43q27 17 65 17q39 0 66 -17q24 -15 24 -43q0 -26 -24 -41q-26 -16 -64 -16q-37 0 -63 16zM918 555q-27 18 -27 49t27 49q28 19 75 19t76 -19q27 -18 27 -49t-27 -49t-76 -18q-48 0 -75 18z" />
    <glyph glyph-name="uni277E" unicode="&#x277e;" horiz-adv-x="1912" 
d="M569 35q-197 114 -311 311q-115 198 -115 430t115 430t311 312q197 114 430 114q235 0 431 -114t311 -312q114 -196 114 -430t-114 -430q-114 -197 -311 -311q-198 -115 -431 -115q-232 0 -430 115zM780 1219l2 2q-95 -42 -149 -117q-53 -74 -53 -166q0 -98 43 -168
q44 -71 116 -108q73 -37 172 -37q81 0 136 34q57 35 77 80q-3 -87 -30 -143q-27 -55 -93 -55q-53 0 -67 39h-336q12 -80 61 -144q49 -63 140 -102q87 -37 207 -37q127 0 227 53q97 52 153 160q56 109 56 270q0 162 -56 271q-55 107 -153 159t-229 52q-126 0 -224 -43z
M1083 995q27 -21 27 -57t-27 -57t-73 -21q-47 0 -74 21t-27 57t27 57t74 21q46 0 73 -21z" />
    <glyph glyph-name="uniF8FF" unicode="&#xf8ff;" horiz-adv-x="1740" 
d="M1427 881h297v-203h-309l287 -119l-80 -182l-287 119l221 -222l-141 -139l-215 217l117 -284l-189 -74l-112 274v-299h-203v301l-115 -278l-184 78l119 286l-221 -221l-140 141l220 220l-287 -119l-74 184l283 117h-308v203h304l-281 116l78 183l289 -119l-222 221
l140 137l219 -219l-119 289l186 76l113 -275v297h203v-305l117 283l182 -78l-119 -287l221 221l139 -141l-221 -221l291 121l74 -187z" />
    <glyph glyph-name="uniFEFF" unicode="&#xfeff;" horiz-adv-x="0" 
 />
    <glyph glyph-name="NULL" horiz-adv-x="0" 
 />
    <glyph glyph-name="uni004A0301" horiz-adv-x="948" 
d="M-88 0l86 420h158q52 0 82 12q32 13 47 37q15 23 24 72l215 1013h535l-238 -1120q-36 -156 -100 -246q-67 -94 -189 -141q-121 -47 -307 -47h-313zM1071 1653h-506l305 340h711z" />
    <glyph glyph-name="G.ss03" horiz-adv-x="1763" 
d="M905 954l883 -2l-51 -241q-156 -744 -946 -744q-202 0 -369 72q-163 70 -258 215q-94 143 -94 360q0 236 123 461q125 228 346 367q225 141 510 141q228 0 385 -74q160 -75 243 -192q89 -124 109 -264h-553q-21 64 -70 98q-47 33 -137 33q-128 0 -219 -76
q-92 -77 -141 -205q-50 -130 -50 -287q0 -119 68 -184t201 -65q81 0 145 28q59 26 98 74t50 100h-355z" />
    <glyph glyph-name="Gbreve.ss03" horiz-adv-x="1763" 
d="M905 954l883 -2l-51 -241q-156 -744 -946 -744q-202 0 -369 72q-163 70 -258 215q-94 143 -94 360q0 236 123 461q125 228 346 367q225 141 510 141q228 0 385 -74q160 -75 243 -192q89 -124 109 -264h-553q-21 64 -70 98q-47 33 -137 33q-128 0 -219 -76
q-92 -77 -141 -205q-50 -130 -50 -287q0 -119 68 -184t201 -65q81 0 145 28q59 26 98 74t50 100h-355zM864 1681v5q-98 29 -159 96q-58 64 -58 160q0 29 4 53h330q3 -34 39 -51q40 -19 96 -19q58 0 107 19q46 18 49 47h330q-70 -340 -515 -340q-121 0 -223 30z" />
    <glyph glyph-name="Gcaron.ss03" horiz-adv-x="1763" 
d="M905 954l883 -2l-51 -241q-156 -744 -946 -744q-202 0 -369 72q-163 70 -258 215q-94 143 -94 360q0 236 123 461q125 228 346 367q225 141 510 141q228 0 385 -74q160 -75 243 -192q89 -124 109 -264h-553q-21 64 -70 98q-47 33 -137 33q-128 0 -219 -76
q-92 -77 -141 -205q-50 -130 -50 -287q0 -119 68 -184t201 -65q81 0 145 28q59 26 98 74t50 100h-355zM1112 1864l152 127h458l-325 -340h-641l-205 340h450z" />
    <glyph glyph-name="Gcircumflex.ss03" horiz-adv-x="1763" 
d="M905 954l883 -2l-51 -241q-156 -744 -946 -744q-202 0 -369 72q-163 70 -258 215q-94 143 -94 360q0 236 123 461q125 228 346 367q225 141 510 141q228 0 385 -74q160 -75 243 -192q89 -124 109 -264h-553q-21 64 -70 98q-47 33 -137 33q-128 0 -219 -76
q-92 -77 -141 -205q-50 -130 -50 -287q0 -119 68 -184t201 -65q81 0 145 28q59 26 98 74t50 100h-355zM1468 1991l205 -340h-450l-111 127l-151 -127h-459l325 340h641z" />
    <glyph glyph-name="uni0122.ss03" horiz-adv-x="1763" 
d="M905 954l883 -2l-51 -241q-156 -744 -946 -744q-202 0 -369 72q-163 70 -258 215q-94 143 -94 360q0 236 123 461q125 228 346 367q225 141 510 141q228 0 385 -74q160 -75 243 -192q89 -124 109 -264h-553q-21 64 -70 98q-47 33 -137 33q-128 0 -219 -76
q-92 -77 -141 -205q-50 -130 -50 -287q0 -119 68 -184t201 -65q81 0 145 28q59 26 98 74t50 100h-355zM465 -438l72 340h534l-82 -385l-225 -217h-334l203 262h-168z" />
    <glyph glyph-name="Gdotaccent.ss03" horiz-adv-x="1763" 
d="M905 954l883 -2l-51 -241q-156 -744 -946 -744q-202 0 -369 72q-163 70 -258 215q-94 143 -94 360q0 236 123 461q125 228 346 367q225 141 510 141q228 0 385 -74q160 -75 243 -192q89 -124 109 -264h-553q-21 64 -70 98q-47 33 -137 33q-128 0 -219 -76
q-92 -77 -141 -205q-50 -130 -50 -287q0 -119 68 -184t201 -65q81 0 145 28q59 26 98 74t50 100h-355zM1343 1651h-534l72 340h534z" />
    <glyph glyph-name="Adieresis.titl" horiz-adv-x="1734" 
d="M1632 0h-530l-12 330h-515l-153 -330h-563l774 1556h891zM1053 1356l-283 -606h305zM430 1217h-422l72 339h422zM1999 1217h-422l72 339h422z" />
    <glyph glyph-name="Odieresis.titl" horiz-adv-x="1763" 
d="M2025 1556l-71 -346h-225q51 -122 51 -282q0 -230 -121 -457q-120 -225 -342 -367q-221 -141 -508 -141q-213 0 -383 72q-164 69 -260 219q-94 146 -94 362q0 160 55 312q56 154 158 286h-242l72 340h422l-27 -129q112 75 248 119q133 43 286 43q162 0 299 -41
q139 -42 232 -123l29 133h421zM1051 438l-4 -4q90 78 139 209t49 291q0 119 -57 182q-60 66 -166 66q-121 0 -209 -76q-87 -75 -137 -209q-50 -133 -50 -291q0 -114 60 -180q58 -64 166 -64q121 0 209 76z" />
    <glyph glyph-name="Udieresis.titl" horiz-adv-x="1622" 
d="M385 31h-4q-147 61 -223 172q-76 110 -76 256q0 77 22 190l193 907h534l-215 -1013q-4 -28 -4 -43q0 -62 43 -99q42 -36 111 -36q98 0 156 61t79 162l205 966h535l-201 -942q-48 -225 -143 -360q-101 -143 -258 -213q-158 -70 -398 -70q-208 0 -356 62zM1094 1217h-295
l71 339h295zM1014 838h-295l72 340h294z" />
    <glyph glyph-name="I_J.loclNLD" horiz-adv-x="1478" 
d="M-16 0l86 420h616q52 0 82 12q32 13 47 37q16 26 25 72l215 1013h534l-237 -1120q-35 -154 -101 -246q-67 -94 -188 -141t-307 -47h-772zM635 569h-535l209 987h535z" />
    <glyph glyph-name="A.inferior" horiz-adv-x="915" 
d="M737 -233h-291l-2 159h-227l-70 -159h-309l367 778h500zM436 424l-119 -272h123z" />
    <glyph glyph-name="B.inferior" horiz-adv-x="831" 
d="M627 117l-2 -6q55 -37 55 -123q0 -116 -100 -170q-103 -56 -283 -56h-410l166 779h393q130 0 203 -54q72 -54 72 -145q0 -86 -70 -129q-68 -42 -172 -51q95 -9 148 -45zM350 244h-2q34 0 55 12t21 35q0 31 -57 31h-72l-19 -78h74zM299 -27q82 0 82 54q0 32 -66 32h-79
l-19 -86h82z" />
    <glyph glyph-name="C.inferior" horiz-adv-x="870" 
d="M111 -211l8 -4q-81 37 -131 111q-49 73 -49 180q0 113 59 225q59 111 170 182q113 72 258 72q113 0 190 -39q81 -41 123 -106q43 -67 49 -160h-294q-3 40 -25 65t-63 25q-53 0 -93 -37t-61 -98t-21 -131q0 -45 25 -76t66 -31q42 0 77 27q36 28 56 67h295
q-47 -145 -160 -227t-295 -82q-103 0 -184 37z" />
    <glyph glyph-name="D.inferior" horiz-adv-x="851" 
d="M358 545l2 4q107 0 191 -37q85 -38 135 -111q49 -73 49 -178q0 -248 -143 -352t-363 -104h-340l166 778h303zM262 -4v-2q86 0 133 59t47 160q0 51 -26 80q-28 31 -76 31h-41l-72 -328h35z" />
    <glyph glyph-name="E.inferior" horiz-adv-x="720" 
d="M657 545l-47 -226h-315l-8 -45h307l-47 -225h-309l-13 -57h324l-47 -225h-613l166 778h602z" />
    <glyph glyph-name="F.inferior" horiz-adv-x="692" 
d="M639 545l-47 -226h-297l-10 -53h286l-47 -225h-286l-60 -274h-289l166 778h584z" />
    <glyph glyph-name="G.inferior" horiz-adv-x="909" 
d="M342 242l453 2l-101 -475h-235l30 145q-41 -72 -104 -117q-62 -45 -147 -45q-78 0 -148 37q-69 37 -113 111q-43 73 -43 176q0 113 60 227q59 111 170 182q113 72 262 72q165 0 258 -72t111 -196h-295q-20 51 -94 51q-53 0 -93 -37t-61 -96q-23 -64 -23 -127
q0 -51 31 -82t82 -31q36 0 74 23q34 21 49 55h-164z" />
    <glyph glyph-name="H.inferior" horiz-adv-x="849" 
d="M440 287l56 258h288l-166 -778h-288l55 264h-152l-55 -264h-289l166 778h289l-55 -258h151z" />
    <glyph glyph-name="I.inferior" horiz-adv-x="409" 
d="M178 -233h-289l166 778h289z" />
    <glyph glyph-name="J.inferior" horiz-adv-x="507" 
d="M-145 -233l49 223h69q38 0 56 12t24 43l107 500h289l-121 -568q-20 -99 -88 -155q-67 -55 -211 -55h-174z" />
    <glyph glyph-name="K.inferior" horiz-adv-x="825" 
d="M483 545h322l-268 -383l135 -395h-314l-106 346l-74 -346h-289l166 778h289l-68 -314z" />
    <glyph glyph-name="L.inferior" horiz-adv-x="677" 
d="M344 545l-119 -553h305l-47 -225h-594l166 778h289z" />
    <glyph glyph-name="M.inferior" horiz-adv-x="1196" 
d="M1130 545l-165 -778h-248l139 653l-225 -653h-406l51 655l-139 -655h-248l166 778h453l-59 -658l215 658h466z" />
    <glyph glyph-name="N.inferior" horiz-adv-x="937" 
d="M485 -113l140 658h247l-165 -778h-459l28 657l-139 -657h-248l166 778h459z" />
    <glyph glyph-name="O.inferior" horiz-adv-x="903" 
d="M113 -211l-4 -4q-87 38 -136 111t-49 178q0 113 60 227q59 111 170 182q113 72 262 72q108 0 192 -37q86 -38 135 -110q50 -74 50 -179q0 -117 -58 -227q-57 -108 -170 -180q-110 -70 -260 -70q-108 0 -192 37zM414 0l-6 -2q40 37 61 98q20 59 20 135q0 53 -24 80
q-26 29 -68 29q-54 0 -94 -37t-61 -98t-21 -135q0 -52 25 -80q24 -27 71 -27q57 0 97 37z" />
    <glyph glyph-name="P.inferior" horiz-adv-x="798" 
d="M410 545l-2 -2q80 0 153 -31q71 -30 111 -88q41 -59 41 -137q0 -79 -39 -144t-125 -106q-87 -41 -219 -41h-103l-49 -229h-289l166 778h355zM334 215l-2 -2q40 0 61 18q23 20 23 52q0 19 -15 28q-18 11 -43 11h-63l-23 -107h62z" />
    <glyph glyph-name="Q.inferior" horiz-adv-x="919" 
d="M770 76v-6q-27 -77 -80 -142l101 -166h-283l-12 21q-87 -35 -191 -35q-108 0 -192 37q-87 38 -136 111t-49 178q0 113 60 227q59 111 170 182q113 72 262 72q108 0 192 -37q88 -39 136 -110q49 -73 49 -179q0 -77 -27 -153zM381 -27l-78 123h174q21 58 21 135
q0 52 -25 80q-26 29 -67 29q-55 0 -95 -37t-61 -98t-21 -135q0 -52 25 -80q24 -27 72 -27q25 0 55 10z" />
    <glyph glyph-name="R.inferior" horiz-adv-x="833" 
d="M680 156l2 -4q-43 -61 -125 -101l113 -289h-322l-78 240h-41l-51 -240h-289l166 779h351q88 0 159 -27q72 -28 115 -82q43 -55 43 -137q0 -78 -43 -139zM412 313v-2q-16 13 -43 13h-70l-25 -115h70q35 0 59 18q25 19 25 54q0 19 -16 32z" />
    <glyph glyph-name="S.inferior" horiz-adv-x="788" 
d="M4 -180l-2 2q-97 66 -100 194h295q3 -33 28 -49q26 -16 66 -16q35 0 53 12t18 31q0 15 -12 24q-14 10 -53 19l-131 35q-189 53 -189 209q0 74 48 141q46 64 133 102q84 37 194 37q285 0 328 -233h-295q-3 15 -18 24q-17 10 -39 10q-27 0 -47 -10q-19 -10 -19 -24
q0 -16 19 -25q17 -9 71 -24l131 -35q82 -21 123 -80q39 -56 39 -135q0 -130 -94 -203q-95 -74 -289 -74q-158 0 -258 68z" />
    <glyph glyph-name="T.inferior" horiz-adv-x="765" 
d="M20 545h711l-47 -226h-209l-119 -552h-288l118 552h-213z" />
    <glyph glyph-name="U.inferior" horiz-adv-x="821" 
d="M27 -182h2q-86 68 -86 182q0 42 10 94l96 451h289l-107 -500q-2 -6 -2 -25q0 -53 56 -53q40 0 59 25q21 27 29 74l102 479h289l-100 -469q-35 -155 -123 -240q-89 -86 -271 -86q-157 0 -243 68z" />
    <glyph glyph-name="V.inferior" horiz-adv-x="856" 
d="M276 -111l250 656h316l-324 -778h-518v778h295z" />
    <glyph glyph-name="W.inferior" horiz-adv-x="1208" 
d="M731 -115l197 660h248l-242 -778h-453l97 673l-189 -673h-452l86 778h247l-80 -660l193 660h432z" />
    <glyph glyph-name="X.inferior" horiz-adv-x="849" 
d="M485 545h359l-318 -375l164 -403h-325l-60 198l-127 -198h-358l327 417l-145 361h317l48 -160z" />
    <glyph glyph-name="Y.inferior" horiz-adv-x="823" 
d="M475 545h338l-371 -502l-57 -276h-289l66 309l-174 469h301l63 -217z" />
    <glyph glyph-name="Z.inferior" horiz-adv-x="761" 
d="M45 545h655l-63 -301l-369 -252h334l-49 -225h-678l64 301l368 251h-311z" />
    <glyph glyph-name="G.ss03.inferior" horiz-adv-x="897" 
d="M342 242h455l-31 -146q-38 -174 -156 -258q-121 -86 -307 -86q-109 0 -190 37t-131 111t-50 178q0 113 60 227q59 111 170 182q113 72 262 72q165 0 258 -72t111 -196h-295q-20 51 -95 51q-52 0 -92 -37t-61 -96q-23 -64 -23 -127q0 -50 29 -82q28 -31 86 -31q42 0 80 23
q33 20 43 53h-166z" />
    <glyph glyph-name="A.superior" horiz-adv-x="915" 
d="M952 778h-290l-3 160h-227l-70 -160h-309l367 778h500zM651 1436l-119 -273h123z" />
    <glyph glyph-name="B.superior" horiz-adv-x="831" 
d="M842 1128l-2 -6q55 -37 55 -123q0 -116 -100 -170q-101 -55 -283 -55h-410l166 778h394q131 0 202 -53q72 -54 72 -145q0 -86 -70 -129q-68 -42 -172 -51q94 -9 148 -46zM565 1255h-2q32 0 55 13q21 12 21 35q0 30 -57 30h-72l-18 -78h73zM514 985q82 0 82 53
q0 33 -66 33h-79l-19 -86h82z" />
    <glyph glyph-name="C.superior" horiz-adv-x="870" 
d="M326 801l8 -4q-82 37 -131 110t-49 180q0 114 59 226q59 111 170 182q113 72 258 72q113 0 190 -39q80 -41 123 -107q44 -68 50 -159h-295q-3 40 -25 65t-63 25q-53 0 -93 -37t-61 -98t-21 -132q0 -44 25 -75t66 -31q43 0 77 27q36 28 56 67h295q-47 -145 -160 -227
t-295 -82q-103 0 -184 37z" />
    <glyph glyph-name="D.superior" horiz-adv-x="851" 
d="M573 1556l2 5q107 0 191 -37q86 -38 135 -111t49 -178q0 -248 -143 -352q-144 -105 -363 -105h-340l166 778h303zM477 1008v-2q86 0 133 59t47 160q0 51 -26 80q-27 30 -76 30h-41l-72 -327h35z" />
    <glyph glyph-name="E.superior" horiz-adv-x="720" 
d="M872 1556l-47 -225h-315l-8 -45h307l-47 -225h-309l-13 -57h324l-47 -226h-613l166 778h602z" />
    <glyph glyph-name="F.superior" horiz-adv-x="692" 
d="M854 1556l-47 -225h-297l-10 -53h286l-47 -225h-286l-60 -275h-289l166 778h584z" />
    <glyph glyph-name="G.superior" horiz-adv-x="909" 
d="M557 1253l453 2l-101 -475h-235l31 146q-41 -70 -105 -117q-62 -45 -147 -45q-78 0 -148 37q-68 36 -112 110q-43 73 -43 176q0 116 59 228q59 111 170 182q113 72 262 72q165 0 258 -72t111 -197h-295q-21 52 -94 52q-53 0 -93 -37t-61 -96q-23 -64 -23 -127
q0 -51 31 -82t82 -31q38 0 74 22q34 20 49 56h-164z" />
    <glyph glyph-name="H.superior" horiz-adv-x="849" 
d="M655 1298l56 258h288l-165 -778h-289l55 264h-151l-56 -264h-289l166 778h289l-55 -258h151z" />
    <glyph glyph-name="I.superior" horiz-adv-x="409" 
d="M393 778h-289l166 778h289z" />
    <glyph glyph-name="J.superior" horiz-adv-x="507" 
d="M70 778l49 223h69q36 0 56 13q18 12 24 43l107 499h289l-121 -567q-20 -99 -88 -155t-211 -56h-174z" />
    <glyph glyph-name="K.superior" horiz-adv-x="825" 
d="M698 1556h322l-268 -382l135 -396h-314l-106 346l-74 -346h-289l166 778h289l-67 -313z" />
    <glyph glyph-name="L.superior" horiz-adv-x="677" 
d="M559 1556l-119 -552h305l-47 -226h-594l166 778h289z" />
    <glyph glyph-name="M.superior" horiz-adv-x="1196" 
d="M1346 1556l-166 -778h-248l139 654l-225 -654h-406l52 656l-140 -656h-248l166 778h453l-59 -657l215 657h467z" />
    <glyph glyph-name="N.superior" horiz-adv-x="937" 
d="M700 899l140 657h247l-165 -778h-459l29 658l-140 -658h-248l166 778h459z" />
    <glyph glyph-name="O.superior" horiz-adv-x="903" 
d="M328 801l-4 -4q-88 39 -136 110q-49 73 -49 178q0 114 60 228q59 111 170 182q113 72 262 72q108 0 192 -37q85 -38 135 -111q50 -74 50 -178q0 -117 -58 -227q-57 -108 -170 -180q-110 -70 -260 -70q-108 0 -192 37zM629 1012l-6 -2q40 37 61 98q21 62 21 135
q0 52 -25 80q-26 29 -68 29q-54 0 -94 -37t-61 -98t-21 -136q0 -52 25 -80q23 -26 71 -26q57 0 97 37z" />
    <glyph glyph-name="P.superior" horiz-adv-x="798" 
d="M625 1556l-2 -2q83 0 153 -30q71 -30 111 -88q41 -59 41 -138q0 -78 -39 -143t-125 -106q-87 -41 -219 -41h-103l-49 -230h-289l166 778h355zM549 1227l-2 -2q40 0 61 18q23 20 23 51q0 20 -15 29q-17 10 -43 10h-63l-23 -106h62z" />
    <glyph glyph-name="Q.superior" horiz-adv-x="919" 
d="M983 1087v-6q-27 -75 -80 -141l101 -166h-283l-12 21q-87 -35 -191 -35q-108 0 -192 37q-88 39 -136 110q-49 73 -49 178q0 114 60 228q59 111 170 182q113 72 262 72q108 0 192 -37q87 -38 136 -111t49 -178q0 -77 -27 -154zM594 985l-78 123h174q21 58 21 135
q0 52 -25 80q-26 29 -68 29q-54 0 -94 -37t-61 -98t-21 -136q0 -52 25 -80q23 -26 72 -26q25 0 55 10z" />
    <glyph glyph-name="R.superior" horiz-adv-x="833" 
d="M895 1167l2 -4q-42 -59 -125 -100l113 -289h-322l-78 240h-41l-51 -240h-289l166 778h351q91 0 159 -26q72 -28 115 -82q43 -55 43 -137q0 -79 -43 -140zM627 1325v-2q-15 12 -43 12h-70l-25 -114h70q35 0 59 18q25 19 25 53q0 20 -16 33z" />
    <glyph glyph-name="S.superior" horiz-adv-x="788" 
d="M221 831l-2 3q-97 66 -100 194h295q3 -33 28 -49q26 -16 66 -16q35 0 53 12q19 13 19 31q0 14 -13 24q-14 10 -53 19l-131 34q-188 53 -188 209q0 77 47 142q46 64 133 102q84 37 194 37q285 0 328 -234h-295q-3 16 -18 25q-17 10 -39 10q-27 0 -47 -10q-19 -10 -19 -25
t19 -24q22 -11 71 -25l131 -35q83 -21 123 -79q39 -56 39 -136q0 -129 -94 -202q-95 -74 -289 -74q-160 0 -258 67z" />
    <glyph glyph-name="T.superior" horiz-adv-x="765" 
d="M236 1556h710l-47 -225h-209l-119 -553h-288l118 553h-213z" />
    <glyph glyph-name="U.superior" horiz-adv-x="821" 
d="M242 829h2q-86 68 -86 183q0 42 10 94l96 450h289l-107 -499q-2 -6 -2 -25q0 -53 56 -53q40 0 59 25q21 28 29 73l102 479h289l-100 -469q-35 -154 -123 -239q-89 -86 -271 -86q-158 0 -243 67z" />
    <glyph glyph-name="V.superior" horiz-adv-x="856" 
d="M492 901l249 655h316l-324 -778h-518v778h295z" />
    <glyph glyph-name="W.superior" horiz-adv-x="1208" 
d="M946 897l197 659h248l-242 -778h-453l97 674l-189 -674h-452l86 778h247l-79 -659l192 659h432z" />
    <glyph glyph-name="X.superior" horiz-adv-x="849" 
d="M700 1556h359l-318 -374l164 -404h-325l-60 199l-127 -199h-358l327 418l-145 360h318l47 -159z" />
    <glyph glyph-name="Y.superior" horiz-adv-x="823" 
d="M690 1556h338l-371 -501l-57 -277h-289l66 309l-174 469h301l63 -217z" />
    <glyph glyph-name="Z.superior" horiz-adv-x="761" 
d="M260 1556h655l-63 -301l-369 -251h334l-49 -226h-678l64 301l368 252h-311z" />
    <glyph glyph-name="G.ss03.superior" horiz-adv-x="899" 
d="M557 1253h455l-31 -145q-38 -174 -156 -258q-121 -86 -307 -86q-109 0 -190 37q-82 37 -131 110q-50 74 -50 179q0 113 60 227q59 111 170 182q113 72 262 72q165 0 258 -72t111 -196h-295q-20 51 -95 51q-52 0 -92 -37t-61 -96q-23 -64 -23 -127q0 -50 29 -82
q28 -31 86 -31q42 0 80 23q33 20 43 53h-166z" />
    <glyph glyph-name="i.loclTRK" horiz-adv-x="681" 
d="M479 0h-518l242 1137h518zM737 1217h-518l72 339h518z" />
    <glyph glyph-name="uni006A0301" horiz-adv-x="681" 
d="M-268 -401l78 366h38q56 0 86 23q28 22 37 73l230 1078h518l-248 -1166q-40 -190 -170 -282t-377 -92h-192zM721 1221h-481l282 340h695z" />
    <glyph glyph-name="germandbls.calt" horiz-adv-x="1648" 
d="M1714 1556l-102 -487l-289 -225q118 -35 188 -117q72 -84 72 -215q0 -176 -82 -295q-83 -121 -235 -182q-154 -62 -369 -62q-61 0 -131 13q-60 11 -117 34l74 347q44 -26 68 -35q37 -13 73 -13q47 0 90 19q41 18 62 53q22 36 22 78q0 53 -47 74q-49 22 -139 22h-57
l79 375l252 197h-366l-242 -1137h-534l329 1556h1401z" />
    <glyph glyph-name="a.ss04" horiz-adv-x="1431" 
d="M963 1137l510 -9l-242 -1136h-508l37 174q-53 -92 -142 -148q-88 -55 -208 -55q-114 0 -199 49q-87 50 -133 148q-47 100 -47 241q0 201 73 375t209 283q132 106 310 106q79 0 141 -35q60 -34 98 -90q38 -57 53 -120zM770 348q49 58 74 152q24 92 24 188q0 141 -102 141
q-63 0 -113 -59q-48 -57 -73 -152t-25 -188q0 -141 102 -141q63 0 113 59z" />
    <glyph glyph-name="aacute.ss04" horiz-adv-x="1431" 
d="M963 1137l510 -9l-242 -1136h-508l37 174q-53 -92 -142 -148q-88 -55 -208 -55q-114 0 -199 49q-87 50 -133 148q-47 100 -47 241q0 201 73 375t209 283q132 106 310 106q79 0 141 -35q60 -34 98 -90q38 -57 53 -120zM770 348q49 58 74 152q24 92 24 188q0 141 -102 141
q-63 0 -113 -59q-48 -57 -73 -152t-25 -188q0 -141 102 -141q63 0 113 59zM1051 1208h-482l283 340h694z" />
    <glyph glyph-name="abreve.ss04" horiz-adv-x="1431" 
d="M963 1137l510 -9l-242 -1136h-508l37 174q-53 -92 -142 -148q-88 -55 -208 -55q-114 0 -199 49q-87 50 -133 148q-47 100 -47 241q0 201 73 375t209 283q132 106 310 106q79 0 141 -35q60 -34 98 -90q38 -57 53 -120zM770 348q49 58 74 152q24 92 24 188q0 141 -102 141
q-63 0 -113 -59q-48 -57 -73 -152t-25 -188q0 -141 102 -141q63 0 113 59zM625 1233l-2 4q-94 36 -148 98q-55 64 -55 154q0 29 6 59h338q-2 -4 -2 -16q0 -32 31 -51q32 -19 79 -19q55 0 99 23q40 21 49 61h338q-21 -98 -92 -178q-69 -78 -185 -125q-110 -45 -252 -45
q-111 0 -204 35z" />
    <glyph glyph-name="acircumflex.ss04" horiz-adv-x="1431" 
d="M963 1137l510 -9l-242 -1136h-508l37 174q-53 -92 -142 -148q-88 -55 -208 -55q-114 0 -199 49q-87 50 -133 148q-47 100 -47 241q0 201 73 375t209 283q132 106 310 106q79 0 141 -35q60 -34 98 -90q38 -57 53 -120zM770 348q49 58 74 152q24 92 24 188q0 141 -102 141
q-63 0 -113 -59q-48 -57 -73 -152t-25 -188q0 -141 102 -141q63 0 113 59zM1204 1548l201 -340h-432l-107 142l-164 -142h-434l320 340h616z" />
    <glyph glyph-name="adieresis.ss04" horiz-adv-x="1431" 
d="M963 1137l510 -9l-242 -1136h-508l37 174q-53 -92 -142 -148q-88 -55 -208 -55q-114 0 -199 49q-87 50 -133 148q-47 100 -47 241q0 201 73 375t209 283q132 106 310 106q79 0 141 -35q60 -34 98 -90q38 -57 53 -120zM770 348q49 58 74 152q24 92 24 188q0 141 -102 141
q-63 0 -113 -59q-48 -57 -73 -152t-25 -188q0 -141 102 -141q63 0 113 59zM801 1208h-518l71 340h518zM1382 1208h-518l72 340h518z" />
    <glyph glyph-name="uni1EA1.ss04" horiz-adv-x="1431" 
d="M963 1137l510 -9l-242 -1136h-508l37 174q-53 -92 -142 -148q-88 -55 -208 -55q-114 0 -199 49q-87 50 -133 148q-47 100 -47 241q0 201 73 375t209 283q132 106 310 106q79 0 141 -35q60 -34 98 -90q38 -57 53 -120zM770 348q49 58 74 152q24 92 24 188q0 141 -102 141
q-63 0 -113 -59q-48 -57 -73 -152t-25 -188q0 -141 102 -141q63 0 113 59zM813 -444h-518l72 340h518z" />
    <glyph glyph-name="agrave.ss04" horiz-adv-x="1431" 
d="M963 1137l510 -9l-242 -1136h-508l37 174q-53 -92 -142 -148q-88 -55 -208 -55q-114 0 -199 49q-87 50 -133 148q-47 100 -47 241q0 201 73 375t209 283q132 106 310 106q79 0 141 -35q60 -34 98 -90q38 -57 53 -120zM770 348q49 58 74 152q24 92 24 188q0 141 -102 141
q-63 0 -113 -59q-48 -57 -73 -152t-25 -188q0 -141 102 -141q63 0 113 59zM1094 1208h-478l-337 340h671z" />
    <glyph glyph-name="amacron.ss04" horiz-adv-x="1431" 
d="M963 1137l510 -9l-242 -1136h-508l37 174q-53 -92 -142 -148q-88 -55 -208 -55q-114 0 -199 49q-87 50 -133 148q-47 100 -47 241q0 201 73 375t209 283q132 106 310 106q79 0 141 -35q60 -34 98 -90q38 -57 53 -120zM770 348q49 58 74 152q24 92 24 188q0 141 -102 141
q-63 0 -113 -59q-48 -57 -73 -152t-25 -188q0 -141 102 -141q63 0 113 59zM1284 1208h-903l72 340h903z" />
    <glyph glyph-name="aogonek.ss04" horiz-adv-x="1431" 
d="M1229 0v-8q-106 -20 -168 -43q-55 -21 -55 -45q0 -19 24 -25t76 -6h98l-65 -307h-185q-191 0 -286 53q-97 54 -97 148q0 65 39 118q40 55 113 107l37 174q-53 -92 -142 -148q-88 -55 -208 -55q-114 0 -199 49q-87 50 -133 148q-47 100 -47 241q0 201 73 375t209 283
q132 106 310 106q79 0 141 -35q60 -34 98 -90q38 -57 53 -120l48 217h507zM768 348q49 58 74 152q24 92 24 188q0 141 -102 141q-63 0 -113 -59q-48 -57 -73 -152t-25 -188q0 -141 102 -141q63 0 113 59z" />
    </font>
</defs>
</svg>
