<?xml version="1.0" standalone="no"?>
<!DOCTYPE svg PUBLIC "-//W3C//DTD SVG 1.1//EN" "http://www.w3.org/Graphics/SVG/1.1/DTD/svg11.dtd" >
<svg xmlns="http://www.w3.org/2000/svg" xmlns:xlink="http://www.w3.org/1999/xlink" version="1.1">
<metadata>
Created by FontForge 20170731 at Fri Apr 21 21:41:30 2023
 By Aleksey,,,
(c) 2014-2020. Copyright by TYPE.WELTKERN :. All rights reserved.
</metadata>
<defs>
<font id="TWKEverett-LightItalic" horiz-adv-x="1536" >
  <font-face 
    font-family="TWK Everett"
    font-weight="300"
    font-style="italic"
    font-stretch="normal"
    units-per-em="2048"
    panose-1="2 11 2 4 0 0 0 0 0 0"
    ascent="1638"
    descent="-410"
    x-height="1090"
    cap-height="1556"
    bbox="-1845 -580 6959 2146"
    underline-thickness="100"
    underline-position="-532"
    slope="-12"
    unicode-range="U+000D-FEFF"
  />
<missing-glyph horiz-adv-x="1486" 
d="M1147 0h-1038l331 1556h1039zM553 1442l-281 -1327h762l281 1327h-762z" />
    <glyph glyph-name="fi" unicode="fi" horiz-adv-x="1212" 
d="M1153 1090l-229 -1090h-138l209 985h-493l-209 -985h-137l206 985h-241l22 105h242l47 223q24 109 111 178q86 68 219 68h160l-23 -105h-127q-94 0 -143 -43t-64 -119l-43 -202h631zM1057 1298l55 258h150l-56 -258h-149z" />
    <glyph glyph-name="fl" unicode="fl" horiz-adv-x="1212" 
d="M924 0h-138l308 1452h-320q-94 0 -143 -43t-64 -119l-43 -203h299l-22 -104h-299l-209 -985h-137l206 985h-241l22 104h242l47 224q24 109 111 178q85 67 219 67h491z" />
    <glyph glyph-name="W_W_W" unicode="WWW" horiz-adv-x="6778" 
d="M498 0h-144l-100 1556h143zM666 0h-154l696 1556h154zM1544 0h-141l-27 1556h142zM1710 0h-151l770 1556h151zM2738 0h-143l-101 1556h144zM2906 0h-153l696 1556h153zM3785 0h-142l-26 1556h141zM3951 0h-152l770 1556h152zM4977 0h-144l-100 1556h143zM5145 0h-154
l696 1556h154zM6023 0h-141l-27 1556h142zM6189 0h-151l770 1556h151z" />
    <glyph glyph-name="f_f" unicode="ff" horiz-adv-x="1458" 
d="M1505 1452q-94 0 -143 -43t-64 -119l-43 -203h301l-24 -104h-299l-207 -985h-139l209 985h-594l-209 -985h-137l206 985h-241l22 104h242l47 224q24 109 111 178q85 67 219 67h160l-23 -104h-127q-94 0 -143 -43t-64 -119l-43 -203h594l47 224q24 109 111 178
q85 67 219 67h160l-23 -104h-125z" />
    <glyph glyph-name="f_f_i" unicode="ffi" horiz-adv-x="1945" 
d="M1886 1090l-231 -1090h-139l208 985h-493l-207 -985h-139l209 985h-594l-209 -985h-137l206 985h-241l22 105h242l47 223q24 109 111 178q86 68 219 68h160l-23 -105h-127q-94 0 -143 -43t-64 -119l-43 -202h594l47 223q24 109 111 178q86 68 219 68h160l-23 -105h-125
q-94 0 -143 -43t-64 -119l-43 -202h633zM1788 1298l55 258h148l-56 -258h-147z" />
    <glyph glyph-name="f_f_l" unicode="ffl" horiz-adv-x="1945" 
d="M1847 1556h138l-330 -1556h-137l208 985h-495l-207 -985h-139l209 985h-594l-209 -985h-137l206 985h-241l22 105h242l47 223q24 109 111 178q86 68 219 68h160l-23 -105h-127q-94 0 -143 -43t-64 -119l-43 -202h594l47 223q24 109 111 178q86 68 219 68h160l-23 -105
h-125q-94 0 -143 -43t-64 -119l-43 -202h496z" />
    <glyph glyph-name="f_j" unicode="fj" horiz-adv-x="1212" 
d="M1153 1090l-266 -1248q-20 -108 -109 -178q-85 -67 -219 -67h-86l23 104h51q96 0 145 43q52 45 66 119l237 1122h-493l-209 -985h-137l206 985h-241l22 105h242l47 223q24 109 111 178q86 68 219 68h160l-23 -105h-127q-94 0 -143 -43t-64 -119l-43 -202h631zM1053 1298
l55 258h147l-53 -258h-149z" />
    <glyph glyph-name="f_t" unicode="ft" horiz-adv-x="1480" 
d="M1231 985l-146 -700q-8 -41 -8 -68q0 -59 37 -86q38 -27 117 -27h115l-25 -104h-127q-76 0 -137 25q-57 24 -88 71q-31 48 -31 105q0 50 8 86l148 698h-592l-209 -985h-137l206 985h-241l22 105h242l47 223q24 109 111 178q86 68 219 68h160l-23 -105h-127
q-94 0 -143 -43t-64 -119l-43 -202h592l55 258h140l-56 -258h301l-24 -105h-299z" />
    <glyph glyph-name="t_f" unicode="tf" horiz-adv-x="1464" 
d="M1511 1452v-2q-94 0 -143 -43q-48 -42 -63 -119l-43 -203h299l-23 -104h-299l-209 -985h-139l209 985h-611l-147 -698q-8 -41 -8 -68q0 -59 37 -86t116 -27h115l-24 -104h-127q-77 0 -138 25q-57 24 -88 71q-30 46 -30 105q0 50 8 86l147 698h-239l22 104h240l55 259h139
l-55 -259h610l47 224q24 109 111 178q85 67 221 67h160l-25 -104h-125z" />
    <glyph glyph-name="t_t" unicode="tt" horiz-adv-x="1482" 
d="M1231 985l-146 -702q-6 -35 -6 -68q0 -59 37 -86q38 -27 117 -27h113l-23 -104h-129q-76 0 -137 25q-57 24 -88 71q-31 48 -31 105q0 50 8 86l148 698h-605l-147 -698q-8 -41 -8 -68q0 -59 37 -86t116 -27h115l-24 -104h-127q-77 0 -138 25q-57 24 -88 71q-30 46 -30 105
q0 50 8 86l147 698h-239l22 105h240l55 258h139l-55 -258h604l55 258h138l-56 -258h301l-22 -105h-301z" />
    <glyph glyph-name="w_w_w" unicode="www" horiz-adv-x="5246" 
d="M371 0h-127l-86 1090h129zM522 0h-137l487 1090h136zM1176 0h-125l-29 1090h125zM1327 0h-137l543 1090h137zM2095 0h-127l-86 1090h129zM2247 0h-138l488 1090h135zM2900 0h-125l-29 1090h125zM3052 0h-138l543 1090h137zM3820 0h-127l-86 1090h129zM3971 0h-137
l487 1090h135zM4624 0h-125l-28 1090h125zM4776 0h-137l542 1090h138z" />
    <glyph glyph-name=".notdef" horiz-adv-x="1486" 
d="M1147 0h-1038l331 1556h1039zM553 1442l-281 -1327h762l281 1327h-762z" />
    <glyph glyph-name=".null" horiz-adv-x="0" 
 />
    <glyph glyph-name="nonmarkingreturn" unicode="&#xd;" horiz-adv-x="536" 
 />
    <glyph glyph-name="space" unicode=" " horiz-adv-x="536" 
 />
    <glyph glyph-name="exclam" unicode="!" horiz-adv-x="548" 
d="M326 502h-125l211 1054h151zM242 0h-164l53 240h162z" />
    <glyph glyph-name="quotedbl" unicode="&#x22;" horiz-adv-x="692" 
d="M360 1028h-106l90 528h148zM635 1028h-107l90 528h148z" />
    <glyph glyph-name="numbersign" unicode="#" horiz-adv-x="1615" 
d="M1647 1090l-23 -105h-350l-180 -430h329l-22 -104h-352l-189 -451h-123l189 451h-420l-189 -451h-122l188 451h-317l22 104h340l180 430h-319l22 105h340l197 466h123l-197 -466h420l197 466h122l-196 -466h330zM551 555h420l180 430h-420z" />
    <glyph glyph-name="dollar" unicode="$" horiz-adv-x="1327" 
d="M858 848l-8 -6q162 -49 256 -140q92 -89 92 -221q0 -159 -80 -274q-79 -114 -217 -172q-139 -59 -307 -62l-51 -245h-129l53 256q-118 21 -209 84q-88 61 -137 159q-48 96 -51 228h143q3 -149 78 -242q74 -92 203 -119l143 672l-53 16q-330 102 -330 363q0 127 74 227
q72 97 196 150t271 53h16l49 235h129l-53 -249q160 -35 264 -142t125 -264h-143q-15 114 -86 191t-185 104l-123 -582zM418 1042l-4 -4q31 -48 88 -77q69 -35 153 -62l119 559h-4q-110 0 -197 -37q-88 -37 -137 -104t-49 -158q0 -69 31 -117zM608 80l-2 -2q118 3 221 47
q102 44 160 125q60 85 60 196q0 85 -39 136q-40 52 -101 82q-55 27 -162 63z" />
    <glyph glyph-name="percent" unicode="%" horiz-adv-x="1908" 
d="M264 780l-2 2q-74 80 -74 238q0 136 43 264q43 129 140 213q96 84 233 84q123 0 197 -80q73 -79 73 -237q0 -135 -43 -263q-44 -131 -137 -215q-95 -86 -233 -86q-123 0 -197 80zM475 2h-145l1196 1557h145zM631 868l-2 -6q66 78 96 189q31 115 31 211q0 116 -45 170
q-46 55 -123 55q-96 0 -160 -76t-94 -186q-31 -115 -31 -211q0 -114 45 -168q46 -55 123 -55q95 0 160 77zM1198 51l-2 2q-74 80 -74 238q0 136 43 264q43 129 140 213q96 84 233 84q123 0 197 -80q73 -79 73 -237q0 -135 -43 -263q-44 -131 -137 -215q-95 -86 -233 -86
q-123 0 -197 80zM1565 139l-2 -4q66 78 96 189q31 115 31 211q0 113 -45 167q-47 56 -123 56q-96 0 -160 -76q-67 -80 -96 -186q-31 -115 -31 -211q0 -114 45 -168q47 -56 125 -56q94 0 160 78z" />
    <glyph glyph-name="ampersand" unicode="&#x26;" horiz-adv-x="1515" 
d="M1507 807l-379 -451l242 -352h-162l-170 250q-260 -272 -551 -272q-121 0 -221 47q-96 45 -153 133q-56 86 -56 196q0 137 62 240t172 176q125 83 284 152l-10 14q-53 74 -80 139q-26 62 -26 135q0 101 55 183q57 84 150 133q94 49 215 49q95 0 170 -35q71 -33 112 -96
q41 -62 41 -143q0 -90 -49 -160t-137 -125q-93 -58 -221 -115l-29 -12l305 -447l295 361h141zM715 1442v-6q-62 -41 -92 -99q-31 -60 -31 -116q0 -51 22 -103q18 -42 66 -110l18 -27l21 10q118 55 190 99q73 45 111 94q39 51 39 123q0 83 -55 129q-54 45 -138 45
q-92 0 -151 -39zM752 150v-3q109 66 223 189l-340 495q-169 -77 -264 -147t-138 -147q-43 -76 -43 -179q0 -83 43 -147t113 -98q72 -35 154 -35q133 0 252 72z" />
    <glyph glyph-name="quotesingle" unicode="'" horiz-adv-x="417" 
d="M360 1028h-106l90 528h148z" />
    <glyph glyph-name="parenleft" unicode="(" horiz-adv-x="604" 
d="M238 -401v-5q-71 170 -113 345q-39 163 -39 358q0 338 145 645q143 302 418 612h152q-286 -318 -432 -620q-148 -307 -148 -637q0 -200 39 -363q40 -167 111 -335h-133z" />
    <glyph glyph-name="parenright" unicode=")" horiz-adv-x="602" 
d="M-184 -401l-4 4q286 318 432 620q147 305 147 637q0 200 -39 363q-42 175 -110 336h133q73 -175 114 -345q41 -172 41 -358q0 -338 -145 -645q-143 -302 -418 -612h-151z" />
    <glyph glyph-name="asterisk" unicode="*" horiz-adv-x="946" 
d="M1008 1507l10 -94l-307 -33l133 -290l-90 -39l-133 290l-238 -211l-66 70l240 215l-266 152l47 84l268 -156l62 291l94 -21l-62 -290z" />
    <glyph glyph-name="plus" unicode="+" horiz-adv-x="1304" 
d="M711 606h487v-108h-487v-498h-113v498h-489v108h489v484h113v-484z" />
    <glyph glyph-name="comma" unicode="," horiz-adv-x="495" 
d="M51 0l51 240h162l-55 -260l-186 -244h-103l178 264h-47z" />
    <glyph glyph-name="hyphen" unicode="-" horiz-adv-x="882" 
d="M754 520h-635l22 113h635z" />
    <glyph glyph-name="period" unicode="." horiz-adv-x="495" 
d="M213 0h-162l51 240h162z" />
    <glyph glyph-name="slash" unicode="/" horiz-adv-x="995" 
d="M117 0h-158l1018 1556h160z" />
    <glyph glyph-name="zero" unicode="0" horiz-adv-x="1406" 
d="M283 119l-2 4q-123 141 -123 434q0 238 73 473q73 234 238 395q165 160 416 160q138 0 239 -61t160 -191t59 -327q0 -239 -73 -474q-73 -236 -240 -395q-168 -160 -414 -160q-209 0 -333 142zM956 242h-2q131 149 189 360q59 213 59 412q0 456 -338 456q-192 0 -321 -147
q-128 -145 -187 -360q-59 -213 -59 -412q0 -457 338 -457q191 0 321 148z" />
    <glyph glyph-name="one" unicode="1" horiz-adv-x="735" 
d="M623 1556h104l-330 -1556h-143l260 1219h-330l23 114h147q67 0 117 13q46 12 74 40t49 72z" />
    <glyph glyph-name="two" unicode="2" horiz-adv-x="1308" 
d="M1266 1020l6 -4q-41 -88 -119 -168q-84 -87 -211 -178l-754 -561h951l-25 -115h-1118l33 158l807 602q112 84 184 153q68 65 108 140q37 70 37 147q0 127 -94 197q-92 69 -258 69q-163 0 -276 -82t-148 -233h-143q26 135 110 235q82 98 203 148q119 49 258 49
q140 0 250 -43q108 -42 174 -127q64 -82 64 -201q0 -104 -39 -186z" />
    <glyph glyph-name="three" unicode="3" horiz-adv-x="1327" 
d="M1229 1034l-12 -12q-61 -82 -164 -135q-101 -52 -222 -70q142 -30 246 -117q101 -85 101 -229q0 -142 -82 -258q-81 -115 -228 -184q-145 -68 -325 -68q-151 0 -258 49q-108 49 -170 142q-61 90 -70 219h145q9 -149 105 -224q94 -73 258 -73q138 0 248 49q108 48 174 139
q63 86 63 207q0 94 -49 158t-137 98q-85 33 -199 33h-71l24 114h66q141 0 252 48q108 47 166 122q57 75 57 160q0 73 -37 131q-38 60 -115 90q-79 31 -188 31q-94 0 -170 -33q-83 -36 -141 -94q-61 -61 -88 -149h-144q38 127 123 215q86 89 199 135q110 45 233 45
q139 0 246 -43t166 -123t59 -182q0 -109 -61 -191z" />
    <glyph glyph-name="four" unicode="4" horiz-adv-x="1337" 
d="M1055 598h235l-24 -115h-236l-102 -483h-144l103 483h-844l33 158l864 915h162l-901 -958h710l203 958h143z" />
    <glyph glyph-name="five" unicode="5" horiz-adv-x="1329" 
d="M1329 1442l-807 -8l-194 -635q79 113 198 180q121 68 265 68q119 0 219 -50q97 -48 155 -147q60 -102 60 -238q0 -171 -86 -319q-87 -149 -236 -234q-151 -86 -332 -86q-223 0 -350 109q-125 107 -137 301h143q9 -145 103 -221q92 -74 258 -74q135 0 250 74
q116 75 182 192q67 119 67 256q0 118 -45 189q-47 74 -122 108q-78 35 -177 35q-135 0 -251 -72t-195 -188l-135 16l264 858h928z" />
    <glyph glyph-name="six" unicode="6" horiz-adv-x="1378" 
d="M1071 965v-4q98 -58 148 -154q49 -94 49 -207q0 -170 -82 -313q-83 -145 -228 -228q-147 -84 -325 -84q-132 0 -246 54q-111 52 -178 172q-68 121 -68 307q0 256 97 512q94 249 270 405t399 156q198 0 314 -104q118 -106 145 -281h-143q-21 127 -101 201q-79 73 -223 73
q-157 0 -281 -106q-126 -108 -208 -289q-85 -186 -111 -401q47 106 125 184q80 80 184 123t226 43q137 0 237 -59zM897 156l-4 -2q111 71 172 186q61 116 61 246q0 82 -36 153q-39 76 -113 121q-77 47 -186 47q-149 0 -267 -71q-114 -69 -180 -179q-63 -105 -63 -208
q0 -114 47 -197q46 -81 129 -125q82 -43 190 -43q137 0 250 72z" />
    <glyph glyph-name="seven" unicode="7" horiz-adv-x="1079" 
d="M227 1442l25 114h991l-33 -157l-1013 -1399h-168l1050 1442h-852z" />
    <glyph glyph-name="eight" unicode="8" horiz-adv-x="1380" 
d="M1290 1034v-4q-57 -81 -153 -131q-93 -49 -209 -70q81 -22 147 -63q69 -43 117 -115q47 -71 47 -166q0 -131 -80 -249q-81 -119 -227 -189q-150 -72 -340 -72q-143 0 -258 50q-112 49 -178 139q-64 88 -64 209q0 131 72 235q71 102 182 158q112 56 232 68
q-275 89 -275 307q0 105 66 209q64 101 194 166q126 63 314 63q140 0 245 -45q108 -47 166 -125q60 -82 60 -178q0 -115 -58 -197zM1014 934l-6 -2q101 49 147 125q47 77 47 160q0 71 -39 124q-42 57 -112 86q-76 31 -181 31q-149 0 -243 -49q-95 -50 -142 -127
q-45 -74 -45 -156q0 -69 35 -125t105 -86t176 -30q157 0 258 49zM1042 633l-2 -2q-49 67 -131 104q-81 37 -180 37q-144 0 -260 -49t-180 -137q-66 -91 -66 -209q0 -97 49 -164q47 -63 134 -100q79 -33 190 -33q133 0 246 49q115 50 182 141q68 92 68 209q0 86 -50 154z" />
    <glyph glyph-name="nine" unicode="9" horiz-adv-x="1378" 
d="M1083 1526h-14q111 -52 178 -172q68 -121 68 -307q0 -264 -94 -512q-95 -249 -271 -406q-176 -156 -399 -156q-197 0 -311 105q-115 106 -142 280h144q20 -123 102 -198q80 -74 225 -74q156 0 281 107q128 110 209 288q84 185 108 404q-44 -106 -123 -185
q-78 -78 -184 -122q-104 -43 -221 -43q-138 0 -238 59q-96 57 -147 154q-49 94 -49 206q0 171 82 314q83 144 227 227q147 84 326 84q131 0 243 -53zM934 717l4 -2q115 69 180 178q64 107 64 207q0 116 -45 196q-46 81 -129 125q-82 43 -191 43q-141 0 -250 -69
q-111 -70 -172 -187q-61 -116 -61 -245q0 -81 37 -154q38 -74 112 -119t187 -45q145 0 264 72z" />
    <glyph glyph-name="colon" unicode=":" horiz-adv-x="497" 
d="M213 0h-162l51 240h162zM358 684h-161l51 240h162z" />
    <glyph glyph-name="semicolon" unicode=";" horiz-adv-x="497" 
d="M51 0l51 240h162l-55 -260l-186 -244h-103l178 264h-47zM360 684h-161l51 240h162z" />
    <glyph glyph-name="less" unicode="&#x3c;" horiz-adv-x="1236" 
d="M117 635l946 405v-116l-875 -377l875 -377v-117l-946 408v174z" />
    <glyph glyph-name="equal" unicode="=" horiz-adv-x="1392" 
d="M1196 707h-997v106h997v-106zM1196 295h-997v108h997v-108z" />
    <glyph glyph-name="greater" unicode="&#x3e;" horiz-adv-x="1236" 
d="M174 924v116l946 -405v-174l-946 -408v117l875 377z" />
    <glyph glyph-name="question" unicode="?" horiz-adv-x="1103" 
d="M436 502l-10 -10q21 121 86 217q65 95 178 174l98 69q85 61 136 109q50 47 73 92q25 48 25 100q0 63 -37 109q-39 48 -104 74t-154 26q-152 0 -256 -73t-131 -209h-139q24 127 100 215t191 135q110 45 245 45q117 0 215 -37q102 -39 158 -106q59 -71 59 -166
q0 -82 -32 -142q-35 -66 -88 -116q-55 -52 -138 -111l-98 -70q-111 -77 -168 -153q-56 -75 -74 -172h-135zM481 -10h-162l52 239h161z" />
    <glyph glyph-name="at" unicode="@" horiz-adv-x="2017" 
d="M1544 1270l-4 -8q174 -100 268 -265q97 -171 97 -366q0 -158 -56 -309q-57 -154 -159 -246q-107 -96 -250 -96q-88 0 -146 30q-59 30 -86 86q-27 55 -24 125q-26 -58 -78 -117q-48 -54 -123 -92q-73 -37 -162 -37q-73 0 -143 31q-65 29 -107 90q-39 56 -39 140
q0 105 54 174q52 66 151 104q100 38 250 53l277 31l6 29q8 36 8 75q0 87 -49 136t-158 49q-113 0 -184 -51q-74 -53 -101 -148h-137q28 98 88 164q61 67 148 102t188 35q111 0 184 -33q77 -34 117 -96q41 -62 41 -145q0 -51 -8 -90l-74 -349q-8 -31 -8 -55q0 -64 43 -98
q42 -33 113 -33q101 0 172 80q68 77 104 201q35 122 35 239q0 177 -82 320t-233 229t-347 86q-260 0 -473 -125q-214 -126 -340 -334q-124 -205 -124 -450q0 -183 79 -332q78 -147 226 -235q145 -86 329 -86q107 0 201 24q91 23 201 78l45 -98q-120 -60 -230 -86
q-122 -29 -233 -29q-211 0 -381 102q-169 102 -264 275q-94 172 -94 377q0 278 143 516t391 383q244 143 541 143q226 0 397 -98zM1022 123l-6 -2q73 43 125 119t73 178l19 84l-217 -23q-103 -11 -191 -35q-77 -21 -123 -67q-45 -45 -45 -123q0 -56 31 -98q30 -40 76 -58
t98 -18q87 0 160 43z" />
    <glyph glyph-name="A" unicode="A" horiz-adv-x="1519" 
d="M1395 0h-148l-84 502h-815l-297 -502h-160l928 1556h154l-549 -927h719l-156 927h143z" />
    <glyph glyph-name="B" unicode="B" horiz-adv-x="1462" 
d="M1159 748v-5q82 -45 127 -116q47 -74 47 -168q0 -119 -67 -223q-68 -106 -217 -173t-387 -67h-562l330 1556h531q150 0 251 -49q104 -50 152 -131q49 -82 49 -178q0 -113 -61 -195q-63 -84 -160 -133q-95 -48 -215 -63q104 -12 182 -55zM543 1423l-123 -559h405
q148 0 246 43q101 44 146 113q47 71 47 158q0 74 -37 129q-38 56 -109 86t-166 30h-409zM672 123l-4 -4q190 0 305 53q113 52 160 129q45 74 45 164q0 75 -41 137q-39 59 -121 98q-78 37 -197 37h-426l-131 -614h410z" />
    <glyph glyph-name="C" unicode="C" horiz-adv-x="1601" 
d="M446 51l-4 4q-137 73 -217 215t-80 338q0 250 103 473q103 224 299 361q195 137 465 137q161 0 288 -59q129 -60 207 -172q83 -119 103 -277h-152q-34 193 -153 291t-314 98q-212 0 -370 -119q-161 -121 -242 -315q-84 -200 -84 -420q0 -163 61 -276q61 -114 172 -172
q110 -58 252 -58q119 0 234 50t207 139t157 207h150q-70 -149 -185 -267q-114 -117 -260 -184q-148 -68 -317 -68q-181 0 -320 74z" />
    <glyph glyph-name="D" unicode="D" horiz-adv-x="1619" 
d="M942 1556v-2q198 0 336 -69q140 -70 217 -209q76 -137 76 -334q0 -240 -107 -453q-108 -215 -321 -352t-522 -137h-523l330 1556h514zM641 125v-2q251 0 430 117q177 116 266 305q88 186 88 393q0 244 -129 367q-128 122 -370 122h-381l-277 -1302h373z" />
    <glyph glyph-name="E" unicode="E" horiz-adv-x="1327" 
d="M1409 1556l-27 -126h-835l-119 -562h819l-26 -127h-822l-131 -614h854l-26 -127h-998l330 1556h981z" />
    <glyph glyph-name="F" unicode="F" horiz-adv-x="1265" 
d="M1386 1556l-26 -126h-813l-125 -586h801l-29 -127h-799l-153 -717h-144l330 1556h958z" />
    <glyph glyph-name="G" unicode="G" horiz-adv-x="1697" 
d="M827 686l23 123h743l-172 -811h-127l95 434q-50 -109 -138 -217q-85 -105 -211 -172q-127 -68 -288 -68q-172 0 -308 74q-135 74 -215 215q-79 140 -79 338q0 250 102 475q102 224 299 363q195 137 467 137q163 0 289 -57q131 -60 209 -168q80 -112 104 -271h-150
q-35 189 -155 281q-125 96 -318 96q-214 0 -372 -119q-164 -123 -244 -315q-84 -200 -84 -418q0 -165 63 -276q64 -114 175 -172q110 -58 253 -58q158 0 289 76t223 209q92 132 132 301h-605z" />
    <glyph glyph-name="H" unicode="H" horiz-adv-x="1619" 
d="M1331 866l146 690h143l-330 -1556h-143l158 741h-906l-157 -741h-144l330 1556h143l-145 -690h905z" />
    <glyph glyph-name="I" unicode="I" horiz-adv-x="571" 
d="M242 0h-144l330 1556h143z" />
    <glyph glyph-name="J" unicode="J" horiz-adv-x="741" 
d="M-66 0l27 129h131q108 0 170 41q61 40 82 141l264 1245h144l-269 -1271q-30 -145 -131 -215t-270 -70h-148z" />
    <glyph glyph-name="K" unicode="K" horiz-adv-x="1406" 
d="M1368 1556h207l-981 -745l721 -811h-178l-723 811l-172 -811h-144l330 1556h143l-153 -720z" />
    <glyph glyph-name="L" unicode="L" horiz-adv-x="1110" 
d="M571 1556l-303 -1429h721l-26 -127h-865l330 1556h143z" />
    <glyph glyph-name="M" unicode="M" horiz-adv-x="2140" 
d="M242 0h-144l330 1556h143zM942 0h-141l-213 1556h141zM1110 0h-154l873 1556h151zM1810 0h-143l330 1556h143z" />
    <glyph glyph-name="N" unicode="N" horiz-adv-x="1724" 
d="M242 0h-144l330 1556h143zM1237 0h-143l-508 1556h145zM1395 0h-144l330 1556h143z" />
    <glyph glyph-name="O" unicode="O" horiz-adv-x="1710" 
d="M453 51l-2 -4q-143 74 -222 215q-79 140 -79 342q0 252 104 475q105 226 305 361q199 135 471 135q182 0 324 -74q141 -74 221 -215q80 -142 80 -340q0 -250 -105 -475q-103 -222 -305 -358q-201 -136 -471 -136q-179 0 -321 74zM1167 213h-6q165 121 252 315
q88 195 88 424q0 166 -63 277q-65 114 -174 172q-108 57 -256 57q-213 0 -375 -119q-165 -121 -252 -315q-88 -195 -88 -424q0 -165 63 -276q64 -113 179 -172q113 -58 258 -58q212 0 374 119z" />
    <glyph glyph-name="P" unicode="P" horiz-adv-x="1415" 
d="M948 1556l4 -4q156 0 271 -47t176 -135t61 -215q0 -179 -86 -303q-84 -122 -246 -184q-160 -62 -376 -62h-381l-129 -606h-144l330 1556h520zM778 729v2q172 0 293 47t182 135q62 89 62 215q0 156 -94 226q-95 71 -289 71h-383l-148 -696h377z" />
    <glyph glyph-name="Q" unicode="Q" horiz-adv-x="1718" 
d="M1587 553h-2q-70 -189 -203 -328l263 -227h-193l-166 143q-106 -80 -233 -123q-128 -43 -279 -43q-179 0 -321 74q-143 74 -222 215q-79 140 -79 342q0 252 104 475q105 226 305 361t471 135q182 0 324 -74q141 -74 221 -215q80 -142 80 -340q0 -206 -70 -395zM1186 229
l-334 289h190l232 -201q107 119 166 287t59 350q0 166 -63 277q-65 114 -174 172q-108 57 -256 57q-213 0 -375 -119q-165 -121 -252 -315q-88 -195 -88 -424q0 -165 63 -276q64 -114 178 -172q113 -58 259 -58q221 0 395 133z" />
    <glyph glyph-name="R" unicode="R" horiz-adv-x="1447" 
d="M1376 942l-4 2q-53 -102 -155 -168q-106 -68 -256 -92l299 -682h-158l-291 670h-25h-407l-141 -670h-144l330 1557h545q135 0 239 -52q103 -51 162 -141q57 -86 57 -197q0 -128 -51 -227zM809 799h2q156 0 262 47q103 46 154 127q49 79 49 182q0 82 -39 141
q-41 62 -113 99q-73 37 -176 37h-409l-133 -633h403z" />
    <glyph glyph-name="S" unicode="S" horiz-adv-x="1396" 
d="M342 35l-20 -2q-123 58 -193 166q-71 109 -74 258h152q3 -119 59 -199t148 -121q93 -41 213 -41q127 0 237 37q113 38 183 117q69 78 69 194q0 77 -37 129q-39 55 -110 91q-70 36 -195 67l-172 45q-358 94 -358 369q0 127 80 227q78 97 211 150t288 53q160 0 277 -51
q118 -52 190 -148q72 -97 90 -221h-149q-21 142 -129 221q-109 80 -289 80q-118 0 -211 -37q-94 -37 -149 -104q-56 -68 -56 -156q0 -70 37 -119t109 -84q73 -36 184 -65l172 -45q192 -50 283 -141q92 -92 92 -230q0 -163 -88 -276q-86 -111 -238 -168q-148 -56 -327 -56
q-153 0 -279 60z" />
    <glyph glyph-name="T" unicode="T" horiz-adv-x="1271" 
d="M250 1556h1202l-27 -126h-530l-303 -1430h-143l303 1430h-531z" />
    <glyph glyph-name="U" unicode="U" horiz-adv-x="1591" 
d="M416 31l-2 2q-115 53 -170 151q-56 100 -56 234q0 90 23 215l197 926h145l-203 -947q-20 -100 -20 -182q0 -166 94 -248t283 -82q228 0 366 129t197 394l198 936h144l-201 -943q-64 -307 -233 -473t-480 -166q-165 0 -282 54z" />
    <glyph glyph-name="V" unicode="V" horiz-adv-x="1474" 
d="M608 0h-139l-242 1556h146zM774 0h-153l897 1556h159z" />
    <glyph glyph-name="W" unicode="W" horiz-adv-x="2299" 
d="M498 0h-144l-100 1556h143zM666 0h-154l696 1556h154zM1544 0h-141l-27 1556h142zM1710 0h-151l770 1556h151z" />
    <glyph glyph-name="X" unicode="X" horiz-adv-x="1517" 
d="M1462 1556h183l-721 -720l481 -836h-164l-432 743l-735 -743h-189l844 854l-405 702h159l361 -616z" />
    <glyph glyph-name="Y" unicode="Y" horiz-adv-x="1343" 
d="M1391 1556h170l-795 -890l-139 -666h-146l146 688l-414 868h152l358 -747z" />
    <glyph glyph-name="Z" unicode="Z" horiz-adv-x="1363" 
d="M299 1556h1188l-37 -172l-1307 -1257h1078l-27 -127h-1237l37 172l1306 1258h-1028z" />
    <glyph glyph-name="bracketleft" unicode="[" horiz-adv-x="630" 
d="M797 1556l-25 -104h-237l-373 -1749h241l-22 -104h-379l416 1957h379z" />
    <glyph glyph-name="backslash" unicode="\" horiz-adv-x="927" 
d="M760 0h-139l-353 1556h138z" />
    <glyph glyph-name="bracketright" unicode="]" horiz-adv-x="632" 
d="M244 1452l22 104h377l-416 -1957h-377l23 104h238l372 1749h-239z" />
    <glyph glyph-name="asciicircum" unicode="^" horiz-adv-x="1126" 
d="M731 1556l371 -792h-131l-338 727l-336 -727h-131l371 792h194z" />
    <glyph glyph-name="underscore" unicode="_" horiz-adv-x="1091" 
d="M889 -104h-950l20 104h952z" />
    <glyph glyph-name="grave" unicode="`" horiz-adv-x="544" 
d="M637 1251h-129l-234 305h183z" />
    <glyph glyph-name="a" unicode="a" horiz-adv-x="1159" 
d="M870 1075l-4 2q86 -39 127 -106q43 -70 43 -166q0 -51 -10 -103l-149 -702h-138l52 246q-33 -68 -93 -131q-56 -59 -139 -101q-77 -39 -172 -39q-87 0 -160 37q-70 36 -118 105q-46 67 -46 157q0 118 58 191q59 74 168 117q110 43 284 61l312 33l8 35q10 55 10 88
q0 215 -244 215q-130 0 -210 -62q-81 -63 -111 -170h-143q31 111 100 183q68 71 166 110q93 37 209 37q119 0 200 -37zM616 125l-4 4q85 54 142 143q59 93 86 211l20 95l-250 -27q-132 -15 -225 -43q-89 -27 -139 -80q-49 -52 -49 -135q0 -72 34 -121q35 -51 86 -74
q53 -24 115 -24q104 0 184 51z" />
    <glyph glyph-name="b" unicode="b" horiz-adv-x="1294" 
d="M1012 1061l-2 -4q90 -53 141 -150q51 -96 51 -237q0 -170 -65 -330q-64 -159 -195 -262q-130 -103 -313 -103q-103 0 -180 45q-82 48 -130 119q-47 70 -63 160l-61 -299h-138l330 1556h137l-149 -716q62 118 172 194q113 78 262 78q117 0 203 -51zM854 162v-2
q105 86 158 221q53 136 53 272q0 116 -39 193q-40 78 -111 119t-161 41q-146 0 -252 -86q-102 -83 -156 -222q-51 -131 -51 -272q0 -115 37 -193q36 -77 108 -118q68 -39 162 -39q146 0 252 86z" />
    <glyph glyph-name="c" unicode="c" horiz-adv-x="1179" 
d="M301 29l-10 -2q-98 52 -156 153q-57 99 -57 244q0 175 67 330q67 156 207 256q137 98 338 98q119 0 211 -47t148 -133t65 -205h-141q-12 137 -86 211t-207 74q-146 0 -252 -86q-102 -83 -156 -222q-51 -131 -51 -272q0 -114 37 -192q36 -77 109 -119q68 -39 161 -39
q139 0 240 76q102 76 154 208h141q-64 -177 -205 -282t-340 -105q-115 0 -217 54z" />
    <glyph glyph-name="d" unicode="d" horiz-adv-x="1294" 
d="M1196 1556l139 -8l-329 -1556h-140l52 237q-59 -112 -168 -184q-112 -74 -261 -74q-114 0 -202 52q-91 54 -142 153q-53 103 -53 240q0 164 66 327q65 160 194 265q128 104 318 104q108 0 184 -49q77 -50 121 -127q43 -75 55 -160zM786 158l-2 -2q105 86 158 221
q53 136 53 272q0 116 -39 193q-40 79 -110 119t-160 40q-146 0 -252 -86q-101 -82 -155 -221q-52 -134 -52 -272q0 -115 37 -193q36 -76 109 -118q68 -39 162 -39q145 0 251 86z" />
    <glyph glyph-name="e" unicode="e" horiz-adv-x="1202" 
d="M231 510l5 -2q-1 -13 -2 -31t-2 -29.5t-1 -19.5q0 -114 37 -192q36 -77 109 -119q68 -39 162 -39q127 0 221 61t147 176h144q-76 -168 -215 -254t-308 -86q-119 0 -221 54q-97 51 -155 153q-58 101 -58 244q0 173 68 330q67 156 207 256q137 98 338 98q123 0 215 -51
q94 -52 147 -148q53 -95 53 -227q0 -83 -26 -174h-865zM489 952h-2q-90 -56 -147 -143q-59 -89 -86 -197h727q8 39 8 90q0 90 -37 160q-39 73 -104 109q-67 37 -156 37q-114 0 -203 -56z" />
    <glyph glyph-name="f" unicode="f" horiz-adv-x="724" 
d="M772 1452h2q-94 0 -143 -43t-64 -119l-43 -203h299l-22 -104h-299l-209 -985h-137l206 985h-241l22 104h242l47 224q24 109 111 178q85 67 219 67h160l-23 -104h-127z" />
    <glyph glyph-name="g" unicode="g" horiz-adv-x="1296" 
d="M1104 1090l143 -3l-237 -1124q-40 -191 -185 -291q-143 -98 -356 -98q-127 0 -227 47q-98 46 -154 129t-65 187h143q9 -121 92 -189q82 -67 215 -67q162 0 266 79q106 80 133 222l58 270q-65 -109 -174 -178q-110 -70 -252 -70q-116 0 -205 51q-93 53 -145 152
q-54 102 -54 237q0 161 66 318q64 152 194 252q128 98 318 98q108 0 184 -49q77 -50 121 -127t53 -160zM801 186h-2q100 79 155 213q54 133 54 263q0 113 -37 188q-38 77 -107 117q-68 39 -166 39q-148 0 -252 -82q-102 -80 -155 -211q-51 -125 -51 -262q0 -115 36 -191
q36 -77 109 -119q68 -39 162 -39q147 0 254 84z" />
    <glyph glyph-name="h" unicode="h" horiz-adv-x="1214" 
d="M946 1073l-2 2q73 -42 109 -110q37 -70 37 -166q0 -45 -11 -117l-145 -680h-137l139 655q12 62 12 121q0 114 -61 172q-63 60 -170 60q-83 0 -162 -43q-82 -45 -139 -125q-60 -85 -84 -197l-137 -647h-138l330 1556h137l-145 -690q73 121 174 183q106 65 227 65
q98 0 166 -39z" />
    <glyph glyph-name="i" unicode="i" horiz-adv-x="487" 
d="M197 0h-140l232 1090h139zM477 1298h-147l55 258h147z" />
    <glyph glyph-name="j" unicode="j" horiz-adv-x="487" 
d="M-254 -401l21 104h53q96 0 145 43q52 45 66 119l258 1227h139l-264 -1248q-24 -109 -111 -178q-85 -67 -219 -67h-88zM475 1298h-147l55 258h147z" />
    <glyph glyph-name="k" unicode="k" horiz-adv-x="1054" 
d="M963 1090h186l-670 -496l463 -594h-156l-462 596l-127 -596h-138l330 1556h137l-198 -938z" />
    <glyph glyph-name="l" unicode="l" horiz-adv-x="487" 
d="M197 0h-138l330 1556h137z" />
    <glyph glyph-name="m" unicode="m" horiz-adv-x="1880" 
d="M1622 1073l-10 6q68 -38 104 -106q37 -70 37 -166q0 -30 -4 -66q-1 -9 -3 -27.5t-3 -27.5l-146 -682h-139l141 660q13 70 13 116q0 114 -58 172q-60 60 -155 60q-78 0 -154 -43t-131 -125q-56 -83 -80 -197l-139 -647h-137l139 659q14 55 14 117q0 115 -57 172
q-60 60 -160 60q-77 0 -153 -43t-131 -125q-56 -83 -80 -197l-137 -647h-140l232 1089h139l-49 -227q70 116 170 184t215 68q87 0 151 -37q63 -37 101 -102t41 -148q42 86 104 148q65 65 143 102t164 37q91 0 158 -37z" />
    <glyph glyph-name="n" unicode="n" horiz-adv-x="1212" 
d="M946 1073l4 2q73 -42 109 -110q37 -70 37 -166q0 -60 -13 -117l-143 -680h-139l141 655q12 62 12 121q0 115 -63 172q-66 60 -172 60q-83 0 -162 -43t-137 -125q-60 -85 -84 -197l-137 -647h-140l232 1089h139l-47 -223q72 120 172 183q103 65 225 65q98 0 166 -39z" />
    <glyph glyph-name="o" unicode="o" horiz-adv-x="1224" 
d="M301 29v-4q-99 53 -154 153q-55 101 -55 244q0 173 68 330q67 156 207 256q137 98 338 98q123 0 219 -51q97 -52 153 -154q56 -103 56 -242q0 -172 -68 -329q-67 -156 -207 -256q-138 -99 -338 -99q-117 0 -219 54zM786 162l-2 -4q106 89 158 223q53 136 53 274
q0 115 -39 189q-41 77 -110 117q-70 40 -160 40q-148 0 -252 -88q-102 -86 -155 -223q-52 -134 -52 -272q0 -114 37 -189q36 -74 109 -116q68 -39 162 -39q147 0 251 88z" />
    <glyph glyph-name="p" unicode="p" horiz-adv-x="1292" 
d="M1012 1061l2 -2q90 -53 141 -150q51 -96 51 -237q0 -170 -65 -330q-64 -159 -195 -262q-130 -103 -311 -103q-101 0 -180 43q-81 44 -129 113q-50 71 -68 154l-145 -688h-140l316 1491h139l-53 -252q61 120 172 196q113 78 262 78q117 0 203 -51zM858 164l-6 -2
q105 86 158 221q53 136 53 272q0 115 -37 193q-38 80 -106 119q-71 41 -162 41q-146 0 -252 -86q-102 -83 -156 -222q-51 -131 -51 -272q0 -114 37 -192t108 -119q68 -39 162 -39q146 0 252 86z" />
    <glyph glyph-name="q" unicode="q" horiz-adv-x="1292" 
d="M1096 1090l137 -7l-315 -1491h-140l133 633q-58 -107 -168 -180q-112 -74 -254 -74q-114 0 -202 52q-91 54 -142 153q-53 103 -53 240q0 164 66 327q65 160 194 265q128 104 318 104q108 0 184 -49q79 -51 121 -125q43 -75 55 -160zM784 160l-2 -2q105 86 158 221
q53 136 53 272q0 116 -39 193q-40 79 -110 119q-71 41 -160 41q-146 0 -252 -86q-102 -83 -156 -222q-51 -131 -51 -272q0 -115 37 -193q36 -76 109 -118q68 -39 161 -39q146 0 252 86z" />
    <glyph glyph-name="r" unicode="r" horiz-adv-x="727" 
d="M379 854h-6q144 258 430 258l-29 -133h-43q-154 0 -258 -78q-100 -75 -135 -239l-141 -662h-140l232 1090h139z" />
    <glyph glyph-name="s" unicode="s" horiz-adv-x="1046" 
d="M244 14l2 -2q-87 37 -144 115q-56 77 -65 188h141q12 -119 92 -178q77 -57 191 -57q92 0 160 26q67 26 110 78q41 50 41 117q0 51 -24 86t-74 59q-58 28 -133 50l-121 34q-260 73 -260 265q0 97 57 166q58 70 154 108q93 37 209 37q99 0 178 -33q86 -36 145 -98
q61 -64 82 -160h-141q-20 92 -99 143q-77 50 -180 50q-69 0 -131 -21t-98 -63q-37 -43 -37 -105q0 -51 25 -82q27 -34 69 -53q54 -24 119 -43l119 -35q142 -41 209 -108t67 -174q0 -108 -61 -187q-60 -78 -170 -119q-109 -41 -236 -41q-109 0 -196 37z" />
    <glyph glyph-name="t" unicode="t" horiz-adv-x="739" 
d="M489 985l-147 -700q-8 -41 -8 -68q0 -59 37 -86t116 -27h115l-24 -104h-127q-77 0 -138 25q-57 24 -88 71q-30 46 -30 105q0 50 8 86l147 698h-239l22 105h240l55 258h139l-55 -258h301l-25 -105h-299z" />
    <glyph glyph-name="u" unicode="u" horiz-adv-x="1204" 
d="M1008 1090h133l-232 -1090h-139l47 219q-70 -117 -172 -178q-101 -61 -223 -61q-101 0 -164 38q-66 40 -104 111q-37 70 -37 166q0 65 12 117l145 678h138l-140 -656q-14 -60 -14 -119q0 -119 59 -178q57 -57 166 -57q85 0 164 43t137 125q61 86 84 196z" />
    <glyph glyph-name="v" unicode="v" horiz-adv-x="1146" 
d="M449 0h-134l-172 1090h136zM606 0h-145l624 1090h146z" />
    <glyph glyph-name="w" unicode="w" horiz-adv-x="1798" 
d="M371 0h-127l-86 1090h129zM522 0h-137l487 1090h136zM1176 0h-125l-29 1090h125zM1327 0h-137l543 1090h137z" />
    <glyph glyph-name="x" unicode="x" horiz-adv-x="1091" 
d="M993 1090h158l-510 -506l320 -584h-140l-274 498l-481 -498h-166l575 596l-287 494h142l243 -418z" />
    <glyph glyph-name="y" unicode="y" horiz-adv-x="1120" 
d="M475 117h-133l-213 973h133zM332 -401h-148l877 1491h147z" />
    <glyph glyph-name="z" unicode="z" horiz-adv-x="1009" 
d="M205 1090h819l-31 -146l-860 -840h729l-22 -104h-879l31 145l860 840h-670z" />
    <glyph glyph-name="braceleft" unicode="{" horiz-adv-x="651" 
d="M791 1556l-31 -104h-25q-72 0 -117 -45q-46 -46 -67 -147l-74 -340q-24 -119 -67 -185q-44 -69 -101 -98q-59 -30 -137 -45q86 -21 133 -68t47 -129q0 -80 -14 -135l-78 -371q-12 -52 -12 -84q0 -54 28 -79t93 -25h24l-22 -104h-39q-70 0 -119 24q-50 24 -74 68
q-24 43 -24 98q0 41 10 86l78 367q18 88 18 141q0 72 -37 102q-41 32 -125 41l29 138q78 6 127 28q45 20 80 80q36 61 59 174l72 338q59 274 326 274h39z" />
    <glyph glyph-name="bar" unicode="|" horiz-adv-x="538" 
d="M121 -463h-133l454 2142h133z" />
    <glyph glyph-name="braceright" unicode="}" horiz-adv-x="651" 
d="M489 702l3 -6q38 -30 126 -39l-30 -137q-81 -6 -125 -26q-46 -21 -80 -76q-32 -52 -57 -172l-80 -377q-59 -275 -326 -275h-39l23 105h26q72 0 117 45q48 48 68 147l80 377q25 117 67 183q45 69 98 98q55 30 136 45q-84 21 -131 68q-46 46 -46 129q0 27 3 61q3 33 12 68
l72 342q12 52 12 84q0 53 -29 79q-28 25 -90 25h-25l23 104h39q68 0 117 -24q48 -23 73 -68t25 -98q0 -24 -10 -86l-72 -338q-16 -82 -16 -135q0 -74 36 -103z" />
    <glyph glyph-name="asciitilde" unicode="~" horiz-adv-x="1329" 
d="M111 528l-7 -2q149 174 314 174q56 0 108 -12q57 -13 142 -49q81 -34 137 -49q55 -15 108 -15q73 0 123 33q58 38 121 101l72 -72q-68 -80 -148 -127t-161 -47q-54 0 -107 12q-55 13 -141 49q-72 33 -133 49q-63 17 -111 17q-72 0 -125 -33q-56 -35 -119 -98z" />
    <glyph glyph-name="uni00A0" unicode="&#xa0;" horiz-adv-x="536" 
 />
    <glyph glyph-name="exclamdown" unicode="&#xa1;" horiz-adv-x="501" 
d="M389 850h-162l52 240h161zM125 -401h-150l228 1007h123z" />
    <glyph glyph-name="cent" unicode="&#xa2;" horiz-adv-x="1241" 
d="M598 80v-4q126 9 219 84q91 73 141 200h142q-64 -171 -199 -276t-326 -111l-53 -245h-127l56 256q-96 21 -170 77q-73 55 -117 148q-43 90 -43 213q0 168 61 317t191 252t313 115l51 240h127l-51 -244q146 -21 238 -121q91 -98 106 -258h-141q-12 117 -68 188
q-57 73 -153 93zM317 203v-2q58 -89 154 -115l195 913q-130 -15 -222 -104q-90 -87 -137 -215q-45 -122 -45 -254q0 -138 55 -223z" />
    <glyph glyph-name="sterling" unicode="&#xa3;" horiz-adv-x="1224" 
d="M616 1421l-8 -2q-81 -43 -125 -123q-43 -79 -43 -184q0 -133 88 -270l17 -27h497l-22 -115h-432q10 -52 10 -92q0 -146 -106 -264q-107 -119 -332 -233h893l-23 -115h-1010l33 158q153 78 238 145q87 69 127 141q41 74 41 166q0 44 -10 96h-299l22 115h225
q-94 149 -94 301q0 137 66 244q64 104 182 160q116 55 268 55q126 0 217 -45q96 -47 154 -129q59 -83 74 -191h-146q-18 117 -98 185q-79 67 -213 67q-109 0 -191 -43z" />
    <glyph glyph-name="currency" unicode="&#xa4;" horiz-adv-x="1425" 
d="M1231 594l-4 -2q-28 -82 -80 -146l139 -139l-84 -84l-139 139q-64 -52 -143 -79q-85 -29 -166 -29t-166 29q-81 27 -144 79l-139 -139l-84 84l139 139q-50 62 -79 146q-29 85 -29 168t29 168q28 82 79 145l-139 139l84 82l139 -137q64 52 146 80q85 29 166 29
q86 0 166 -27t145 -80l139 137l84 -82l-139 -139q53 -65 80 -145q29 -85 29 -168t-29 -168zM426 565l-2 -4q52 -85 139 -135q85 -49 189 -49q105 0 190 49q86 50 135 135t49 195q0 107 -49 192q-49 86 -135 135q-86 50 -190 50q-103 0 -189 -50q-84 -49 -137 -135
q-51 -83 -51 -190q0 -110 51 -193z" />
    <glyph glyph-name="yen" unicode="&#xa5;" horiz-adv-x="1480" 
d="M1454 1556h176l-698 -780h377l-25 -117h-455l-38 -188h454l-26 -115h-453l-76 -356h-141l76 356h-457l25 115h456l41 188h-457l23 117h395l-372 780h157l355 -753z" />
    <glyph glyph-name="brokenbar" unicode="&#xa6;" horiz-adv-x="550" 
d="M410 860h-134l175 819h133zM129 -463h-133l174 819h131z" />
    <glyph glyph-name="section" unicode="&#xa7;" horiz-adv-x="1191" 
d="M918 885l-9 -6q96 -51 144 -121q45 -65 45 -148q0 -183 -238 -319q53 -71 53 -166q0 -97 -57 -172q-60 -79 -162 -121q-104 -43 -235 -43q-105 0 -195 41q-89 41 -151 115q-63 75 -78 170h143q21 -93 103 -154q77 -57 194 -57q81 0 148 24t108 74t41 115q0 70 -47 123
q-47 52 -141 102l-258 139q-96 51 -144 121q-45 65 -45 148q0 99 62 176q63 78 176 145q-51 68 -51 166q0 97 57 172q60 79 162 121q104 43 235 43q109 0 197 -39q93 -41 153 -113q63 -75 78 -170h-143q-21 96 -100 154q-77 57 -195 57q-80 0 -147 -24q-66 -23 -107 -74
q-41 -50 -41 -115q0 -70 47 -123q46 -51 139 -102zM915 467v-4q43 55 43 127q0 117 -149 196l-270 146q-51 26 -93 59q-82 -52 -124 -106q-43 -55 -43 -125q0 -121 149 -197l268 -145q44 -23 92 -60q83 53 127 109z" />
    <glyph glyph-name="dieresis" unicode="&#xa8;" horiz-adv-x="649" 
d="M367 1298h-148l55 258h148zM752 1298h-148l55 258h148z" />
    <glyph glyph-name="copyright" unicode="&#xa9;" horiz-adv-x="1976" 
d="M614 49l-4 -4q-193 114 -307 307q-113 192 -113 424q0 229 115 424q114 193 307 307q195 115 424 115q232 0 424 -113q193 -114 307 -307q115 -195 115 -424q0 -232 -113 -424q-114 -193 -307 -307q-192 -113 -424 -113q-229 0 -424 115zM1401 139q167 98 266 267
q98 168 98 368q0 201 -98 369t-266 266t-369 98q-200 0 -368 -98q-169 -99 -267 -266q-98 -168 -98 -369q0 -200 98 -368q98 -169 267 -267q168 -98 368 -98q201 0 369 98zM803 334l-6 4q-105 64 -166 178q-62 115 -62 258t62 258q61 114 166 178q104 64 237 64
q110 0 197 -43t149 -117q63 -75 84 -170h-118q-38 109 -117 170q-80 62 -193 62q-95 0 -172 -50q-76 -50 -123 -141q-45 -89 -45 -215q0 -123 47 -215q47 -91 123 -141q76 -49 166 -49q120 0 203 59t117 172h121q-26 -99 -89 -174q-61 -73 -149 -113q-85 -39 -199 -39
q-129 0 -233 64z" />
    <glyph glyph-name="ordfeminine" unicode="&#xaa;" horiz-adv-x="643" 
d="M678 1526l4 -4q57 -42 57 -121q0 -33 -6 -60l-74 -340h-112l24 117q-26 -51 -82 -92q-53 -39 -122 -39q-43 0 -86 19q-40 18 -64 55t-24 82q0 88 67 131q66 43 195 55l161 17l2 14q1 7 2 15.5t2 13.5t1 8q0 41 -27 65q-28 25 -80 25q-53 0 -92 -25q-36 -23 -51 -69h-117
q24 81 96 129q71 47 166 47q102 0 160 -43zM528 1108l-2 4q51 48 66 123l8 39l-113 -12q-90 -9 -133 -33t-43 -76q0 -43 31 -68q30 -24 74 -24q62 0 112 47z" />
    <glyph glyph-name="guillemotleft" unicode="&#xab;" horiz-adv-x="1167" 
d="M571 1010h174l-479 -463l262 -457h-151l-271 471zM999 1010h175l-480 -463l262 -457h-151l-270 471z" />
    <glyph glyph-name="logicalnot" unicode="&#xac;" horiz-adv-x="1339" 
d="M1157 236h-113v497h-886v109h999v-606z" />
    <glyph glyph-name="uni00AD" unicode="&#xad;" horiz-adv-x="882" 
d="M754 520h-635l22 113h635z" />
    <glyph glyph-name="registered" unicode="&#xae;" horiz-adv-x="1974" 
d="M1458 1505l-4 -4q193 -114 307 -307q115 -195 115 -424q0 -232 -113 -424q-114 -193 -307 -307q-192 -113 -424 -113q-229 0 -424 115q-193 114 -307 307q-113 192 -113 424q0 229 115 424q114 193 307 307q195 115 424 115q232 0 424 -113zM1401 139q167 98 266 267
q98 168 98 368q0 201 -98 369t-266 266t-369 98q-200 0 -368 -98q-169 -99 -267 -266q-98 -168 -98 -369q0 -200 98 -368q98 -169 267 -267q168 -98 368 -98q201 0 369 98zM1354 799h2q-61 -70 -170 -94l262 -426h-133l-250 413h-2h-242v-413h-116v985h358q105 0 186 -35
q79 -35 123 -99q43 -64 43 -153q0 -108 -61 -178zM821 1165l4 -374h242q109 0 170 49t61 137q0 91 -63 139q-64 49 -172 49h-242z" />
    <glyph glyph-name="macron" unicode="&#xaf;" horiz-adv-x="784" 
d="M897 1343h-670l23 103h670z" />
    <glyph glyph-name="degree" unicode="&#xb0;" horiz-adv-x="802" 
d="M397 1014q-70 40 -110 110q-41 71 -41 154t41 154q40 70 110 110q71 41 154 41t154 -41q70 -40 110 -110q41 -71 41 -154t-41 -154q-40 -70 -110 -110q-71 -41 -154 -41t-154 41zM647 1106q47 27 74 74q27 46 27 98t-27 98q-27 47 -74 74q-46 27 -98 27q-51 0 -98 -27
t-74 -74q-27 -46 -27 -98t27 -98q27 -47 74 -74t98 -27t98 27z" />
    <glyph glyph-name="plusminus" unicode="&#xb1;" horiz-adv-x="1388" 
d="M721 1090v-375h489v-109h-489v-391h-113v391h-487v109h487v375h113zM1210 0h-1089v109h1089v-109z" />
    <glyph glyph-name="uni00B2" unicode="&#xb2;" horiz-adv-x="679" 
d="M815 1499l2 -8q-25 -44 -61 -78q-28 -26 -99 -76l-356 -247h459l-19 -93h-591l24 121l412 287q76 54 104 92q31 42 31 88q0 57 -39 86q-42 31 -107 31t-114 -37t-64 -100h-118q15 70 59 123q43 52 108 79q64 27 138 27t135 -25t90 -67q31 -45 31 -103q0 -55 -25 -100z
" />
    <glyph glyph-name="uni00B3" unicode="&#xb3;" horiz-adv-x="692" 
d="M803 1513l-4 -12q-36 -42 -86 -65q-53 -24 -111 -33q74 -15 127 -62t53 -112q0 -72 -39 -125q-42 -57 -112 -90t-174 -33q-123 0 -197 59q-73 58 -82 164h119q12 -131 168 -131q51 0 102 23q48 22 72 59q25 39 25 84q0 57 -50 92t-125 35h-47l21 92h47q55 0 104 19
q46 18 74 49q27 30 27 67q0 51 -39 80q-42 31 -111 31q-61 0 -108 -33q-52 -36 -66 -86h-119q14 61 60 113q44 50 108 74t135 24q75 0 134 -24q56 -23 92 -68q35 -44 35 -98t-33 -93z" />
    <glyph glyph-name="acute" unicode="&#xb4;" horiz-adv-x="557" 
d="M346 1251h-139l313 305h195z" />
    <glyph glyph-name="uni00B5" unicode="&#xb5;" horiz-adv-x="1439" 
d="M1278 104l-2 -112h-98q-107 0 -162 43t-70 129q-2 12 -2 57q-40 -109 -129 -180q-88 -70 -217 -70q-70 0 -135 27q-64 27 -111 80v-484h-135v1491h135v-655v-4q0 -115 37 -193q36 -77 105 -118q65 -39 155 -39q88 0 156 41q65 39 104 121q37 78 37 194v655h135v-866v-4
q0 -57 29 -86q27 -27 90 -27h78z" />
    <glyph glyph-name="paragraph" unicode="&#xb6;" horiz-adv-x="1292" 
d="M518 717l2 2q-96 0 -172 43q-74 42 -119 121q-43 76 -43 172q0 119 68 237t184 191t256 73h586l-371 -1746h-133l348 1636h-317l-346 -1636h-133z" />
    <glyph glyph-name="periodcentered" unicode="&#xb7;" horiz-adv-x="458" 
d="M295 485h-162l51 240h162z" />
    <glyph glyph-name="cedilla" unicode="&#xb8;" horiz-adv-x="403" 
d="M45 -84h-4q58 -9 98 -43q39 -33 39 -90q0 -53 -28 -98q-27 -44 -80 -68q-55 -25 -119 -25h-94l16 82h78q59 0 96 29q35 27 35 74q0 36 -25 55q-24 18 -67 18h-51l32 150h90z" />
    <glyph glyph-name="uni00B9" unicode="&#xb9;" horiz-adv-x="409" 
d="M469 1784l94 -2l-166 -778h-118l122 577h-170l21 92h61q63 0 93 15t51 55z" />
    <glyph glyph-name="ordmasculine" unicode="&#xba;" horiz-adv-x="665" 
d="M319 1018v-2q-56 27 -86 80q-30 52 -30 127q0 90 37 168q38 80 110 129q73 49 178 49q70 0 125 -27q56 -27 86 -80q31 -54 31 -125q0 -90 -37 -168q-38 -80 -110 -129q-73 -49 -179 -49q-70 0 -125 27zM565 1110l-2 -4q47 41 68 102q22 64 22 129q0 72 -37 109t-96 37
q-65 0 -110 -39q-48 -42 -68 -101q-23 -67 -23 -129q0 -71 37 -108t99 -37q63 0 110 41z" />
    <glyph glyph-name="guillemotright" unicode="&#xbb;" horiz-adv-x="1167" 
d="M213 1010h152l270 -471l-465 -449h-174l479 463zM641 1010h152l270 -471l-465 -449h-174l479 463z" />
    <glyph glyph-name="onequarter" unicode="&#xbc;" horiz-adv-x="1449" 
d="M1214 315h115l-20 -92h-115l-47 -223h-119l47 223h-409l26 121l385 434h236zM1194 774l-406 -459h308zM492 1556l94 -2l-166 -778h-119l123 578h-170l20 92h62q64 0 92 14q30 15 51 56zM160 -2h-146l1229 1556h146z" />
    <glyph glyph-name="onehalf" unicode="&#xbd;" horiz-adv-x="1495" 
d="M1382 494l2 -9q-23 -42 -61 -77q-31 -29 -98 -76l-357 -248h459l-18 -92h-592l24 121l412 286q75 53 104 93q31 42 31 88q0 57 -39 86q-41 30 -106 30q-66 0 -115 -37q-48 -37 -63 -100h-119q15 70 59 123t109 80q62 26 137 26q77 0 135 -24q60 -25 90 -68
q31 -45 31 -102q0 -55 -25 -100zM489 1546l95 -2l-166 -778h-119l123 577h-170l20 93h62q64 0 92 14q30 15 51 55zM158 -12h-146l1229 1556h145z" />
    <glyph glyph-name="threequarters" unicode="&#xbe;" horiz-adv-x="1693" 
d="M791 1286l-5 -12q-37 -44 -86 -66q-50 -23 -110 -32q74 -15 127 -62t53 -113q0 -71 -39 -124q-42 -58 -113 -91q-68 -32 -174 -32q-122 0 -196 59q-73 58 -82 164h119q12 -131 168 -131q53 0 102 22q47 21 72 60q24 38 24 84q0 58 -49 92q-50 35 -125 35h-47l21 92h47
q58 0 104 18t74 49q26 29 26 68q0 52 -38 80q-42 31 -111 31q-62 0 -109 -33q-50 -35 -65 -86h-119q14 61 59 112q44 50 109 74q67 25 135 25q72 0 133 -25q58 -24 92 -67q35 -44 35 -99q0 -54 -32 -92zM391 -12h-145l1229 1556h145zM1454 303h115l-21 -92h-114l-48 -223
h-118l47 223h-410l27 121l385 434h235zM1434 762l-406 -459h307z" />
    <glyph glyph-name="questiondown" unicode="&#xbf;" horiz-adv-x="1087" 
d="M713 850h-162l51 240h164zM131 -387v-2q-93 37 -143 102q-49 64 -49 152q0 109 65 192t189 160l100 66q112 69 166 139q53 68 71 164h136q-21 -117 -86 -203q-69 -91 -174 -158l-99 -65q-86 -57 -129 -92q-50 -41 -76 -86t-26 -105q0 -58 33 -100q35 -45 98 -68
q65 -24 153 -24q104 0 185 34q83 35 141 99q60 66 80 149h139q-27 -121 -106 -209t-197 -135t-248 -47t-223 37z" />
    <glyph glyph-name="Agrave" unicode="&#xc0;" horiz-adv-x="1519" 
d="M1395 0h-148l-84 502h-815l-297 -502h-160l928 1556h154l-549 -927h719l-156 927h143zM1042 1690h-127l-262 258h181z" />
    <glyph glyph-name="Aacute" unicode="&#xc1;" horiz-adv-x="1519" 
d="M1395 0h-148l-84 502h-815l-297 -502h-160l928 1556h154l-549 -927h719l-156 927h143zM1063 1690h-154l318 258h211z" />
    <glyph glyph-name="Acircumflex" unicode="&#xc2;" horiz-adv-x="1519" 
d="M1395 0h-148l-84 502h-815l-297 -502h-160l928 1556h154l-549 -927h719l-156 927h143zM1137 1948l213 -258h-117l-199 196l-268 -196h-139l317 258h193z" />
    <glyph glyph-name="Atilde" unicode="&#xc3;" horiz-adv-x="1519" 
d="M1395 0h-148l-84 502h-815l-297 -502h-160l928 1556h154l-549 -927h719l-156 927h143zM668 1729h-6q18 58 55 98t80 61t90 21q76 0 147 -41q30 -17 58 -25q27 -8 59 -8q98 0 145 78h62q-18 -58 -55 -98q-39 -42 -80 -62t-88 -20q-77 0 -148 41q-60 32 -117 32
q-94 0 -141 -77h-61z" />
    <glyph glyph-name="Adieresis" unicode="&#xc4;" horiz-adv-x="1519" 
d="M1395 0h-148l-84 502h-815l-297 -502h-160l928 1556h154l-549 -927h719l-156 927h143zM879 1690h-154l55 258h154zM1245 1690h-153l55 258h153z" />
    <glyph glyph-name="Aring" unicode="&#xc5;" horiz-adv-x="1519" 
d="M1395 0h-148l-84 502h-815l-297 -502h-160l928 1556h154l-549 -927h719l-156 927h143zM899 1704v-4q-46 24 -74 72q-26 45 -26 110q0 77 37 135t98 92q62 35 129 35q55 0 102 -24q48 -25 74 -70q29 -50 29 -111q0 -77 -37 -135t-98 -92q-59 -33 -129 -33q-57 0 -105 25z
M1090 1794h-3q37 21 58 55q20 33 20 80q0 56 -32 84q-36 31 -80 31q-43 0 -80 -21t-58 -55q-20 -33 -20 -80q0 -55 33 -84q35 -30 82 -30q44 0 80 20z" />
    <glyph glyph-name="AE" unicode="&#xc6;" horiz-adv-x="2056" 
d="M2138 1556l-27 -126h-958l94 -562h727l-26 -127h-678l102 -614h479l-26 -127h-578l-84 502h-815l-297 -502h-160l928 1556h154l-549 -927h719l-156 927h1151z" />
    <glyph glyph-name="Ccedilla" unicode="&#xc7;" horiz-adv-x="1601" 
d="M1016 147l-4 -6q113 49 207 140q93 90 157 206h150q-71 -145 -178 -258q-110 -116 -248 -182q-142 -68 -303 -74l-15 -59q60 -9 99 -45t39 -90q0 -53 -31 -98t-82 -68q-55 -25 -119 -25h-96l18 86h76q58 0 94 25q33 23 33 72q0 36 -25 55q-24 18 -63 18h-51l28 131
q-157 12 -288 91q-126 77 -197 215q-70 137 -70 325q0 250 103 473q103 224 299 361q195 137 465 137q162 0 289 -59t206 -172q83 -119 103 -277h-152q-34 193 -153 291t-314 98q-212 0 -370 -119q-161 -121 -242 -315q-84 -200 -84 -420q0 -163 61 -276q61 -114 172 -172
q110 -58 252 -58q121 0 234 49z" />
    <glyph glyph-name="Egrave" unicode="&#xc8;" horiz-adv-x="1327" 
d="M1409 1556l-27 -126h-835l-119 -562h819l-26 -127h-822l-131 -614h854l-26 -127h-998l330 1556h981zM1024 1690h-127l-262 258h180z" />
    <glyph glyph-name="Eacute" unicode="&#xc9;" horiz-adv-x="1327" 
d="M1409 1556l-27 -126h-835l-119 -562h819l-26 -127h-822l-131 -614h854l-26 -127h-998l330 1556h981zM979 1690h-154l318 258h211z" />
    <glyph glyph-name="Ecircumflex" unicode="&#xca;" horiz-adv-x="1327" 
d="M1409 1556l-27 -126h-835l-119 -562h819l-26 -127h-822l-131 -614h854l-26 -127h-998l330 1556h981zM1087 1948l213 -258h-116l-199 196l-268 -196h-139l317 258h192z" />
    <glyph glyph-name="Edieresis" unicode="&#xcb;" horiz-adv-x="1327" 
d="M1409 1556l-27 -126h-835l-119 -562h819l-26 -127h-822l-131 -614h854l-26 -127h-998l330 1556h981zM827 1690h-153l55 258h154zM1194 1690h-154l56 258h153z" />
    <glyph glyph-name="Igrave" unicode="&#xcc;" horiz-adv-x="571" 
d="M242 0h-144l330 1556h143zM569 1690h-127l-262 258h180z" />
    <glyph glyph-name="Iacute" unicode="&#xcd;" horiz-adv-x="571" 
d="M242 0h-144l330 1556h143zM621 1690h-154l317 258h211z" />
    <glyph glyph-name="Icircumflex" unicode="&#xce;" horiz-adv-x="571" 
d="M242 0h-144l330 1556h143zM678 1948l213 -258h-117l-199 196l-268 -196h-139l317 258h193z" />
    <glyph glyph-name="Idieresis" unicode="&#xcf;" horiz-adv-x="571" 
d="M242 0h-144l330 1556h143zM420 1690h-154l56 258h153zM786 1690h-153l55 258h154z" />
    <glyph glyph-name="Eth" unicode="&#xd0;" horiz-adv-x="1619" 
d="M942 1556v-2q198 0 336 -69q140 -70 217 -209q76 -137 76 -334q0 -240 -107 -453q-108 -215 -321 -352t-522 -137h-523l158 745h-186l26 119h185l147 692h514zM641 125v-2q251 0 430 117q177 116 266 305q88 186 88 393q0 244 -129 367q-128 122 -370 122h-381l-121 -565
h432l-25 -119h-432l-131 -618h373z" />
    <glyph glyph-name="Ntilde" unicode="&#xd1;" horiz-adv-x="1724" 
d="M242 0h-144l330 1556h143zM1237 0h-143l-508 1556h145zM1395 0h-144l330 1556h143zM797 1729h-6q18 58 55 98t80 61q44 21 90 21q76 0 147 -41q30 -17 58 -25q27 -8 59 -8q98 0 145 78h62q-18 -58 -55 -98q-39 -42 -80 -62t-88 -20q-77 0 -148 41q-60 32 -117 32
q-94 0 -141 -77h-61z" />
    <glyph glyph-name="Ograve" unicode="&#xd2;" horiz-adv-x="1710" 
d="M453 51l-2 -4q-143 74 -222 215q-79 140 -79 342q0 252 104 475q105 226 305 361q199 135 471 135q182 0 324 -74q141 -74 221 -215q80 -142 80 -340q0 -250 -105 -475q-103 -222 -305 -358q-201 -136 -471 -136q-179 0 -321 74zM1167 213h-6q165 121 252 315
q88 195 88 424q0 166 -63 277q-65 114 -174 172q-108 57 -256 57q-213 0 -375 -119q-165 -121 -252 -315q-88 -195 -88 -424q0 -165 63 -276q64 -113 179 -172q113 -58 258 -58q212 0 374 119zM1153 1686h-127l-262 258h180z" />
    <glyph glyph-name="Oacute" unicode="&#xd3;" horiz-adv-x="1710" 
d="M453 51l-2 -4q-143 74 -222 215q-79 140 -79 342q0 252 104 475q105 226 305 361q199 135 471 135q182 0 324 -74q141 -74 221 -215q80 -142 80 -340q0 -250 -105 -475q-103 -222 -305 -358q-201 -136 -471 -136q-179 0 -321 74zM1167 213h-6q165 121 252 315
q88 195 88 424q0 166 -63 277q-65 114 -174 172q-108 57 -256 57q-213 0 -375 -119q-165 -121 -252 -315q-88 -195 -88 -424q0 -165 63 -276q64 -113 179 -172q113 -58 258 -58q212 0 374 119zM1108 1686h-154l318 258h211z" />
    <glyph glyph-name="Ocircumflex" unicode="&#xd4;" horiz-adv-x="1710" 
d="M453 51l-2 -4q-143 74 -222 215q-79 140 -79 342q0 252 104 475q105 226 305 361q199 135 471 135q182 0 324 -74q141 -74 221 -215q80 -142 80 -340q0 -250 -105 -475q-103 -222 -305 -358q-201 -136 -471 -136q-179 0 -321 74zM1167 213h-6q165 121 252 315
q88 195 88 424q0 166 -63 277q-65 114 -174 172q-108 57 -256 57q-213 0 -375 -119q-165 -121 -252 -315q-88 -195 -88 -424q0 -165 63 -276q64 -113 179 -172q113 -58 258 -58q212 0 374 119zM1214 1944l213 -258h-116l-199 196l-268 -196h-139l317 258h192z" />
    <glyph glyph-name="Otilde" unicode="&#xd5;" horiz-adv-x="1710" 
d="M453 51l-2 -4q-143 74 -222 215q-79 140 -79 342q0 252 104 475q105 226 305 361q199 135 471 135q182 0 324 -74q141 -74 221 -215q80 -142 80 -340q0 -250 -105 -475q-103 -222 -305 -358q-201 -136 -471 -136q-179 0 -321 74zM1167 213h-6q165 121 252 315
q88 195 88 424q0 166 -63 277q-65 114 -174 172q-108 57 -256 57q-213 0 -375 -119q-165 -121 -252 -315q-88 -195 -88 -424q0 -165 63 -276q64 -113 179 -172q113 -58 258 -58q212 0 374 119zM745 1724h-6q18 58 56 99t79 61q43 21 91 21q76 0 147 -41q31 -17 57 -25
q27 -8 60 -8q98 0 145 78h62q-18 -58 -56 -99q-37 -40 -80 -61q-41 -20 -88 -20q-77 0 -147 40q-62 33 -117 33q-94 0 -141 -78h-62z" />
    <glyph glyph-name="Odieresis" unicode="&#xd6;" horiz-adv-x="1710" 
d="M453 51l-2 -4q-143 74 -222 215q-79 140 -79 342q0 252 104 475q105 226 305 361q199 135 471 135q182 0 324 -74q141 -74 221 -215q80 -142 80 -340q0 -250 -105 -475q-103 -222 -305 -358q-201 -136 -471 -136q-179 0 -321 74zM1167 213h-6q165 121 252 315
q88 195 88 424q0 166 -63 277q-65 114 -174 172q-108 57 -256 57q-213 0 -375 -119q-165 -121 -252 -315q-88 -195 -88 -424q0 -165 63 -276q64 -113 179 -172q113 -58 258 -58q212 0 374 119zM956 1686h-153l55 258h154zM1323 1686h-154l56 258h153z" />
    <glyph glyph-name="multiply" unicode="&#xd7;" horiz-adv-x="1222" 
d="M1001 1010l76 -74l-391 -391l391 -391l-76 -74l-391 391l-391 -391l-74 74l392 391l-392 391l74 74l391 -392z" />
    <glyph glyph-name="Oslash" unicode="&#xd8;" horiz-adv-x="1710" 
d="M1905 1556l-322 -278q76 -140 76 -332q0 -250 -105 -475q-103 -222 -305 -358q-201 -136 -471 -136q-146 0 -270 50q-122 49 -209 145l-199 -172h-196l323 279q-75 135 -75 329q0 252 104 475q105 226 305 361t471 135q149 0 271 -49q124 -50 206 -144l197 170h199z
M338 373l1063 919q-65 80 -166 123t-223 43q-213 0 -375 -119q-165 -121 -252 -315q-88 -195 -88 -424q0 -124 41 -227zM1466 1180l-1067 -920q65 -80 166 -123t228 -43q212 0 374 119q165 121 252 315q88 195 88 424q0 125 -41 228z" />
    <glyph glyph-name="Ugrave" unicode="&#xd9;" horiz-adv-x="1591" 
d="M416 31l-2 2q-115 53 -170 151q-56 100 -56 234q0 90 23 215l197 926h145l-203 -947q-20 -100 -20 -182q0 -166 94 -248t283 -82q228 0 366 129t197 394l198 936h144l-201 -943q-64 -307 -233 -473t-480 -166q-165 0 -282 54zM1106 1692h-127l-262 258h180z" />
    <glyph glyph-name="Uacute" unicode="&#xda;" horiz-adv-x="1591" 
d="M416 31l-2 2q-115 53 -170 151q-56 100 -56 234q0 90 23 215l197 926h145l-203 -947q-20 -100 -20 -182q0 -166 94 -248t283 -82q228 0 366 129t197 394l198 936h144l-201 -943q-64 -307 -233 -473t-480 -166q-165 0 -282 54zM1061 1692h-154l318 258h211z" />
    <glyph glyph-name="Ucircumflex" unicode="&#xdb;" horiz-adv-x="1591" 
d="M416 31l-2 2q-115 53 -170 151q-56 100 -56 234q0 90 23 215l197 926h145l-203 -947q-20 -100 -20 -182q0 -166 94 -248t283 -82q228 0 366 129t197 394l198 936h144l-201 -943q-64 -307 -233 -473t-480 -166q-165 0 -282 54zM1167 1950l213 -258h-116l-199 196
l-268 -196h-140l318 258h192z" />
    <glyph glyph-name="Udieresis" unicode="&#xdc;" horiz-adv-x="1591" 
d="M416 31l-2 2q-115 53 -170 151q-56 100 -56 234q0 90 23 215l197 926h145l-203 -947q-20 -100 -20 -182q0 -166 94 -248t283 -82q228 0 366 129t197 394l198 936h144l-201 -943q-64 -307 -233 -473t-480 -166q-165 0 -282 54zM909 1692h-153l55 258h154zM1276 1692h-154
l56 258h153z" />
    <glyph glyph-name="Yacute" unicode="&#xdd;" horiz-adv-x="1343" 
d="M1391 1556h170l-795 -890l-139 -666h-146l146 688l-414 868h152l358 -747zM932 1690h-154l318 258h211z" />
    <glyph glyph-name="Thorn" unicode="&#xde;" horiz-adv-x="1439" 
d="M889 1278l4 -2q155 0 270 -47t176 -135q62 -89 62 -220q0 -177 -86 -301q-84 -122 -246 -184q-158 -61 -377 -61h-381l-69 -328h-144l330 1556h143l-59 -278h377zM719 451q174 0 293 49q122 50 182 137q61 88 61 215q0 155 -94 225q-97 72 -289 72h-383l-147 -698h377z
" />
    <glyph glyph-name="germandbls" unicode="&#xdf;" horiz-adv-x="1247" 
d="M965 825v-12q70 -45 118 -129q45 -80 45 -192q0 -144 -59 -265q-58 -119 -176 -190q-116 -70 -285 -70q-63 0 -121 10q-42 7 -120 35l20 105q66 -29 107 -37q52 -10 104 -10q132 0 221 59q90 59 133 158q43 98 43 213q0 91 -37 164t-110 116t-180 43h-21l23 103h18
q140 0 225 49t123 121q37 70 37 147q0 74 -33 121q-37 52 -92 78q-56 26 -135 26q-157 0 -252 -108q-94 -108 -135 -299l-227 -1069h-138l226 1069q53 250 190 381t350 131q114 0 201 -41q86 -40 135 -111q49 -70 49 -164q0 -167 -110 -258t-295 -118q84 -9 158 -56z" />
    <glyph glyph-name="agrave" unicode="&#xe0;" horiz-adv-x="1159" 
d="M870 1075l-4 2q86 -39 127 -106q43 -70 43 -166q0 -51 -10 -103l-149 -702h-138l52 246q-33 -68 -93 -131q-56 -59 -139 -101q-77 -39 -172 -39q-87 0 -160 37q-70 36 -118 105q-46 67 -46 157q0 118 58 191q59 74 168 117q110 43 284 61l312 33l8 35q10 55 10 88
q0 215 -244 215q-130 0 -210 -62q-81 -63 -111 -170h-143q31 111 100 183q68 71 166 110q93 37 209 37q119 0 200 -37zM616 125l-4 4q85 54 142 143q59 93 86 211l20 95l-250 -27q-132 -15 -225 -43q-89 -27 -139 -80q-49 -52 -49 -135q0 -72 34 -121q35 -51 86 -74
q53 -24 115 -24q104 0 184 51zM762 1257h-129l-234 306h183z" />
    <glyph glyph-name="aacute" unicode="&#xe1;" horiz-adv-x="1159" 
d="M870 1075l-4 2q86 -39 127 -106q43 -70 43 -166q0 -51 -10 -103l-149 -702h-138l52 246q-33 -68 -93 -131q-56 -59 -139 -101q-77 -39 -172 -39q-87 0 -160 37q-70 36 -118 105q-46 67 -46 157q0 118 58 191q59 74 168 117q110 43 284 61l312 33l8 35q10 55 10 88
q0 215 -244 215q-130 0 -210 -62q-81 -63 -111 -170h-143q31 111 100 183q68 71 166 110q93 37 209 37q119 0 200 -37zM616 125l-4 4q85 54 142 143q59 93 86 211l20 95l-250 -27q-132 -15 -225 -43q-89 -27 -139 -80q-49 -52 -49 -135q0 -72 34 -121q35 -51 86 -74
q53 -24 115 -24q104 0 184 51zM725 1257h-139l313 306h195z" />
    <glyph glyph-name="acircumflex" unicode="&#xe2;" horiz-adv-x="1159" 
d="M870 1075l-4 2q86 -39 127 -106q43 -70 43 -166q0 -51 -10 -103l-149 -702h-138l52 246q-33 -68 -93 -131q-56 -59 -139 -101q-77 -39 -172 -39q-87 0 -160 37q-70 36 -118 105q-46 67 -46 157q0 118 58 191q59 74 168 117q110 43 284 61l312 33l8 35q10 55 10 88
q0 215 -244 215q-130 0 -210 -62q-81 -63 -111 -170h-143q31 111 100 183q68 71 166 110q93 37 209 37q119 0 200 -37zM616 125l-4 4q85 54 142 143q59 93 86 211l20 95l-250 -27q-132 -15 -225 -43q-89 -27 -139 -80q-49 -52 -49 -135q0 -72 34 -121q35 -51 86 -74
q53 -24 115 -24q104 0 184 51zM831 1563l209 -306h-116l-191 240l-282 -240h-138l338 306h180z" />
    <glyph glyph-name="atilde" unicode="&#xe3;" horiz-adv-x="1159" 
d="M870 1075l-4 2q86 -39 127 -106q43 -70 43 -166q0 -51 -10 -103l-149 -702h-138l52 246q-33 -68 -93 -131q-56 -59 -139 -101q-77 -39 -172 -39q-87 0 -160 37q-70 36 -118 105q-46 67 -46 157q0 118 58 191q59 74 168 117q110 43 284 61l312 33l8 35q10 55 10 88
q0 215 -244 215q-130 0 -210 -62q-81 -63 -111 -170h-143q31 111 100 183q68 71 166 110q93 37 209 37q119 0 200 -37zM616 125l-4 4q85 54 142 143q59 93 86 211l20 95l-250 -27q-132 -15 -225 -43q-89 -27 -139 -80q-49 -52 -49 -135q0 -72 34 -121q35 -51 86 -74
q53 -24 115 -24q104 0 184 51zM375 1313q27 85 86 135q58 49 127 49q40 0 74 -12q27 -9 69 -33q56 -35 109 -35q95 0 145 86h55q-27 -85 -86 -135q-58 -49 -127 -49q-39 0 -73 12q-29 10 -70 33q-56 35 -109 35q-95 0 -145 -86h-55z" />
    <glyph glyph-name="adieresis" unicode="&#xe4;" horiz-adv-x="1159" 
d="M870 1075l-4 2q86 -39 127 -106q43 -70 43 -166q0 -51 -10 -103l-149 -702h-138l52 246q-33 -68 -93 -131q-56 -59 -139 -101q-77 -39 -172 -39q-87 0 -160 37q-70 36 -118 105q-46 67 -46 157q0 118 58 191q59 74 168 117q110 43 284 61l312 33l8 35q10 55 10 88
q0 215 -244 215q-130 0 -210 -62q-81 -63 -111 -170h-143q31 111 100 183q68 71 166 110q93 37 209 37q119 0 200 -37zM616 125l-4 4q85 54 142 143q59 93 86 211l20 95l-250 -27q-132 -15 -225 -43q-89 -27 -139 -80q-49 -52 -49 -135q0 -72 34 -121q35 -51 86 -74
q53 -24 115 -24q104 0 184 51zM553 1305h-147l55 258h147zM938 1305h-147l55 258h147z" />
    <glyph glyph-name="aring" unicode="&#xe5;" horiz-adv-x="1159" 
d="M870 1075l-4 2q86 -39 127 -106q43 -70 43 -166q0 -51 -10 -103l-149 -702h-138l52 246q-33 -68 -93 -131q-56 -59 -139 -101q-77 -39 -172 -39q-87 0 -160 37q-70 36 -118 105q-46 67 -46 157q0 118 58 191q59 74 168 117q110 43 284 61l312 33l8 35q10 55 10 88
q0 215 -244 215q-130 0 -210 -62q-81 -63 -111 -170h-143q31 111 100 183q68 71 166 110q93 37 209 37q119 0 200 -37zM616 125l-4 4q85 54 142 143q59 93 86 211l20 95l-250 -27q-132 -15 -225 -43q-89 -27 -139 -80q-49 -52 -49 -135q0 -72 34 -121q35 -51 86 -74
q53 -24 115 -24q104 0 184 51zM604 1272h-2q-43 21 -67 61q-25 42 -25 99q0 66 33 116q35 53 86 82q54 31 110 31q47 0 90 -21q45 -22 68 -61q25 -42 25 -98q0 -67 -33 -117q-35 -53 -86 -82q-54 -31 -111 -31q-44 0 -88 21zM791 1378h-5q37 37 37 92q0 47 -28 72t-68 25
q-55 0 -92 -37t-37 -92q0 -47 31 -72t71 -25q54 0 91 37z" />
    <glyph glyph-name="ae" unicode="&#xe6;" horiz-adv-x="1966" 
d="M995 510l-16 2q-4 -70 -4 -80q0 -114 37 -192t108 -119q68 -39 166 -39q127 0 221 61q97 63 152 176h141q-72 -165 -213 -253q-139 -86 -307 -86q-161 0 -270 83q-106 81 -144 228q-65 -139 -186 -223q-124 -86 -287 -86q-90 0 -168 34q-79 34 -125 101q-47 68 -47 157
q0 176 135 261q136 86 385 86h293l19 92q12 59 12 86q0 103 -57 157q-59 56 -185 56q-128 0 -211 -62q-82 -61 -112 -170h-142q27 108 99 183q70 73 168 110t209 37q145 0 231 -59q88 -60 117 -160q76 102 190 160q115 59 264 59q126 0 218 -51q94 -52 147 -148
q53 -95 53 -227q0 -83 -26 -174h-865zM1233 956q-91 -57 -148 -143q-59 -89 -86 -197h730q8 57 8 91q0 89 -37 159q-38 72 -105 109t-155 37q-118 0 -207 -56zM838 510l-250 -6q-206 0 -305 -51q-103 -53 -103 -174q0 -69 33 -113q36 -48 88 -68q58 -22 121 -22
q100 0 182 49q84 50 141 137q61 92 84 209z" />
    <glyph glyph-name="ccedilla" unicode="&#xe7;" horiz-adv-x="1179" 
d="M772 156l-12 -2q100 75 153 208h142q-63 -172 -203 -278q-137 -104 -334 -107l-12 -61q58 -9 98 -43q39 -33 39 -90q0 -51 -29 -98q-28 -45 -79 -68q-55 -25 -119 -25h-94l16 82h78q59 0 96 29q35 27 35 74q0 36 -25 55q-24 18 -67 18h-52l29 134q-99 15 -180 71
q-78 54 -125 150q-45 91 -45 221q0 173 68 330t206 256q137 98 338 98q119 0 211 -47t148 -133t65 -205h-141q-12 137 -86 211t-207 74q-146 0 -252 -86q-102 -83 -156 -222q-51 -131 -51 -272q0 -114 37 -192q36 -77 109 -119q68 -39 161 -39q139 0 240 76z" />
    <glyph glyph-name="egrave" unicode="&#xe8;" horiz-adv-x="1202" 
d="M231 510l5 -2q-1 -13 -2 -31t-2 -29.5t-1 -19.5q0 -114 37 -192q36 -77 109 -119q68 -39 162 -39q127 0 221 61t147 176h144q-76 -168 -215 -254t-308 -86q-119 0 -221 54q-97 51 -155 153q-58 101 -58 244q0 173 68 330q67 156 207 256q137 98 338 98q123 0 215 -51
q94 -52 147 -148q53 -95 53 -227q0 -83 -26 -174h-865zM489 952h-2q-90 -56 -147 -143q-59 -89 -86 -197h727q8 39 8 90q0 90 -37 160q-39 73 -104 109q-67 37 -156 37q-114 0 -203 -56zM786 1247h-129l-233 305h182z" />
    <glyph glyph-name="eacute" unicode="&#xe9;" horiz-adv-x="1202" 
d="M231 510l5 -2q-1 -13 -2 -31t-2 -29.5t-1 -19.5q0 -114 37 -192q36 -77 109 -119q68 -39 162 -39q127 0 221 61t147 176h144q-76 -168 -215 -254t-308 -86q-119 0 -221 54q-97 51 -155 153q-58 101 -58 244q0 173 68 330q67 156 207 256q137 98 338 98q123 0 215 -51
q94 -52 147 -148q53 -95 53 -227q0 -83 -26 -174h-865zM489 952h-2q-90 -56 -147 -143q-59 -89 -86 -197h727q8 39 8 90q0 90 -37 160q-39 73 -104 109q-67 37 -156 37q-114 0 -203 -56zM766 1247h-139l313 305h195z" />
    <glyph glyph-name="ecircumflex" unicode="&#xea;" horiz-adv-x="1202" 
d="M231 510l5 -2q-1 -13 -2 -31t-2 -29.5t-1 -19.5q0 -114 37 -192q36 -77 109 -119q68 -39 162 -39q127 0 221 61t147 176h144q-76 -168 -215 -254t-308 -86q-119 0 -221 54q-97 51 -155 153q-58 101 -58 244q0 173 68 330q67 156 207 256q137 98 338 98q123 0 215 -51
q94 -52 147 -148q53 -95 53 -227q0 -83 -26 -174h-865zM489 952h-2q-90 -56 -147 -143q-59 -89 -86 -197h727q8 39 8 90q0 90 -37 160q-39 73 -104 109q-67 37 -156 37q-114 0 -203 -56zM872 1552l209 -305h-116l-191 240l-282 -240h-138l338 305h180z" />
    <glyph glyph-name="edieresis" unicode="&#xeb;" horiz-adv-x="1202" 
d="M231 510l5 -2q-1 -13 -2 -31t-2 -29.5t-1 -19.5q0 -114 37 -192q36 -77 109 -119q68 -39 162 -39q127 0 221 61t147 176h144q-76 -168 -215 -254t-308 -86q-119 0 -221 54q-97 51 -155 153q-58 101 -58 244q0 173 68 330q67 156 207 256q137 98 338 98q123 0 215 -51
q94 -52 147 -148q53 -95 53 -227q0 -83 -26 -174h-865zM489 952h-2q-90 -56 -147 -143q-59 -89 -86 -197h727q8 39 8 90q0 90 -37 160q-39 73 -104 109q-67 37 -156 37q-114 0 -203 -56zM596 1294h-147l55 258h147zM981 1294h-147l55 258h147z" />
    <glyph glyph-name="igrave" unicode="&#xec;" horiz-adv-x="487" 
d="M197 0h-140l232 1090h139zM438 1251h-129l-233 305h182z" />
    <glyph glyph-name="iacute" unicode="&#xed;" horiz-adv-x="487" 
d="M197 0h-140l232 1090h139zM475 1251h-139l313 305h195z" />
    <glyph glyph-name="icircumflex" unicode="&#xee;" horiz-adv-x="487" 
d="M197 0h-140l232 1090h139zM539 1556l209 -305h-117l-191 240l-282 -240h-138l338 305h181z" />
    <glyph glyph-name="idieresis" unicode="&#xef;" horiz-adv-x="487" 
d="M197 0h-140l232 1090h139zM262 1298h-147l55 258h147zM647 1298h-147l55 258h147z" />
    <glyph glyph-name="eth" unicode="&#xf0;" horiz-adv-x="1228" 
d="M1171 1417l-221 -74q197 -244 197 -548q0 -242 -74 -428q-74 -185 -215 -287q-142 -103 -340 -103q-115 0 -217 54q-99 53 -154 153q-55 101 -55 244q0 169 68 326q68 158 198 258q129 100 316 100q94 0 168 -41q72 -40 119 -108q45 -66 61 -146q-3 141 -51 260
q-50 125 -137 228l-279 -91l-8 89l219 73q-112 106 -248 180h209q98 -77 160 -141l276 92zM786 166l7 -4q105 88 157 223q54 139 54 274q0 115 -39 189q-41 76 -111 117q-71 41 -162 41q-148 0 -252 -88q-101 -85 -155 -224q-52 -134 -52 -272q0 -114 37 -189t105 -116
q65 -39 160 -39q147 0 251 88z" />
    <glyph glyph-name="ntilde" unicode="&#xf1;" horiz-adv-x="1212" 
d="M946 1073l4 2q73 -42 109 -110q37 -70 37 -166q0 -60 -13 -117l-143 -680h-139l141 655q12 62 12 121q0 115 -63 172q-66 60 -172 60q-83 0 -162 -43t-137 -125q-60 -85 -84 -197l-137 -647h-140l232 1089h139l-47 -223q72 120 172 183q103 65 225 65q98 0 166 -39z
M442 1309q27 85 86 135q58 49 127 49q39 0 74 -12q29 -10 70 -33q56 -35 108 -35q96 0 146 86h55q-27 -85 -86 -135q-58 -49 -127 -49q-40 0 -74 12q-27 9 -69 33q-56 35 -109 35q-95 0 -145 -86h-56z" />
    <glyph glyph-name="ograve" unicode="&#xf2;" horiz-adv-x="1224" 
d="M301 29v-4q-99 53 -154 153q-55 101 -55 244q0 173 68 330q67 156 207 256q137 98 338 98q123 0 219 -51q97 -52 153 -154q56 -103 56 -242q0 -172 -68 -329q-67 -156 -207 -256q-138 -99 -338 -99q-117 0 -219 54zM786 162l-2 -4q106 89 158 223q53 136 53 274
q0 115 -39 189q-41 77 -110 117q-70 40 -160 40q-148 0 -252 -88q-102 -86 -155 -223q-52 -134 -52 -272q0 -114 37 -189q36 -74 109 -116q68 -39 162 -39q147 0 251 88zM821 1241h-129l-233 305h182z" />
    <glyph glyph-name="oacute" unicode="&#xf3;" horiz-adv-x="1224" 
d="M301 29v-4q-99 53 -154 153q-55 101 -55 244q0 173 68 330q67 156 207 256q137 98 338 98q123 0 219 -51q97 -52 153 -154q56 -103 56 -242q0 -172 -68 -329q-67 -156 -207 -256q-138 -99 -338 -99q-117 0 -219 54zM786 162l-2 -4q106 89 158 223q53 136 53 274
q0 115 -39 189q-41 77 -110 117q-70 40 -160 40q-148 0 -252 -88q-102 -86 -155 -223q-52 -134 -52 -272q0 -114 37 -189q36 -74 109 -116q68 -39 162 -39q147 0 251 88zM784 1241h-139l313 305h195z" />
    <glyph glyph-name="ocircumflex" unicode="&#xf4;" horiz-adv-x="1224" 
d="M301 29v-4q-99 53 -154 153q-55 101 -55 244q0 173 68 330q67 156 207 256q137 98 338 98q123 0 219 -51q97 -52 153 -154q56 -103 56 -242q0 -172 -68 -329q-67 -156 -207 -256q-138 -99 -338 -99q-117 0 -219 54zM786 162l-2 -4q106 89 158 223q53 136 53 274
q0 115 -39 189q-41 77 -110 117q-70 40 -160 40q-148 0 -252 -88q-102 -86 -155 -223q-52 -134 -52 -272q0 -114 37 -189q36 -74 109 -116q68 -39 162 -39q147 0 251 88zM891 1546l209 -305h-117l-190 240l-283 -240h-137l338 305h180z" />
    <glyph glyph-name="otilde" unicode="&#xf5;" horiz-adv-x="1224" 
d="M301 29v-4q-99 53 -154 153q-55 101 -55 244q0 173 68 330q67 156 207 256q137 98 338 98q123 0 219 -51q97 -52 153 -154q56 -103 56 -242q0 -172 -68 -329q-67 -156 -207 -256q-138 -99 -338 -99q-117 0 -219 54zM786 162l-2 -4q106 89 158 223q53 136 53 274
q0 115 -39 189q-41 77 -110 117q-70 40 -160 40q-148 0 -252 -88q-102 -86 -155 -223q-52 -134 -52 -272q0 -114 37 -189q36 -74 109 -116q68 -39 162 -39q147 0 251 88zM432 1296q27 86 86 136q58 49 127 49q37 0 74 -13q31 -11 69 -32q56 -35 109 -35q95 0 145 86h56
q-27 -85 -86 -135q-58 -49 -127 -49q-39 0 -74 12q-29 10 -70 33q-55 34 -108 34q-96 0 -146 -86h-55z" />
    <glyph glyph-name="odieresis" unicode="&#xf6;" horiz-adv-x="1224" 
d="M301 29v-4q-99 53 -154 153q-55 101 -55 244q0 173 68 330q67 156 207 256q137 98 338 98q123 0 219 -51q97 -52 153 -154q56 -103 56 -242q0 -172 -68 -329q-67 -156 -207 -256q-138 -99 -338 -99q-117 0 -219 54zM786 162l-2 -4q106 89 158 223q53 136 53 274
q0 115 -39 189q-41 77 -110 117q-70 40 -160 40q-148 0 -252 -88q-102 -86 -155 -223q-52 -134 -52 -272q0 -114 37 -189q36 -74 109 -116q68 -39 162 -39q147 0 251 88zM612 1288h-147l55 258h148zM997 1288h-147l55 258h148z" />
    <glyph glyph-name="divide" unicode="&#xf7;" horiz-adv-x="1382" 
d="M766 842h-145v248h145v-248zM1237 498h-1090v108h1090v-108zM766 0h-145v248h145v-248z" />
    <glyph glyph-name="oslash" unicode="&#xf8;" horiz-adv-x="1224" 
d="M1327 1090l-242 -209q45 -91 45 -219q0 -175 -67 -330q-67 -156 -207 -256q-138 -99 -338 -99q-96 0 -180 35q-82 34 -141 99l-127 -111h-172l237 207q-45 91 -45 219q0 173 68 330q67 156 207 256q137 98 337 98q104 0 183 -33q84 -35 141 -98l127 111h174zM240 297
l686 596q-41 59 -103 86q-66 29 -139 29q-148 0 -252 -88q-102 -86 -156 -224q-51 -131 -51 -272q0 -60 15 -127zM975 786l-688 -596q42 -58 102 -84q64 -28 139 -28q148 0 252 88q106 89 158 223q53 136 53 275q0 60 -16 122z" />
    <glyph glyph-name="ugrave" unicode="&#xf9;" horiz-adv-x="1204" 
d="M1008 1090h133l-232 -1090h-139l47 219q-70 -117 -172 -178q-101 -61 -223 -61q-101 0 -164 38q-66 40 -104 111q-37 70 -37 166q0 65 12 117l145 678h138l-140 -656q-14 -60 -14 -119q0 -119 59 -178q57 -57 166 -57q85 0 164 43t137 125q61 86 84 196zM803 1251h-129
l-234 305h183z" />
    <glyph glyph-name="uacute" unicode="&#xfa;" horiz-adv-x="1204" 
d="M1008 1090h133l-232 -1090h-139l47 219q-70 -117 -172 -178q-101 -61 -223 -61q-101 0 -164 38q-66 40 -104 111q-37 70 -37 166q0 65 12 117l145 678h138l-140 -656q-14 -60 -14 -119q0 -119 59 -178q57 -57 166 -57q85 0 164 43t137 125q61 86 84 196zM766 1251h-139
l313 305h195z" />
    <glyph glyph-name="ucircumflex" unicode="&#xfb;" horiz-adv-x="1204" 
d="M1008 1090h133l-232 -1090h-139l47 219q-70 -117 -172 -178q-101 -61 -223 -61q-101 0 -164 38q-66 40 -104 111q-37 70 -37 166q0 65 12 117l145 678h138l-140 -656q-14 -60 -14 -119q0 -119 59 -178q57 -57 166 -57q85 0 164 43t137 125q61 86 84 196zM872 1556
l209 -305h-116l-191 240l-282 -240h-138l338 305h180z" />
    <glyph glyph-name="udieresis" unicode="&#xfc;" horiz-adv-x="1204" 
d="M1008 1090h133l-232 -1090h-139l47 219q-70 -117 -172 -178q-101 -61 -223 -61q-101 0 -164 38q-66 40 -104 111q-37 70 -37 166q0 65 12 117l145 678h138l-140 -656q-14 -60 -14 -119q0 -119 59 -178q57 -57 166 -57q85 0 164 43t137 125q61 86 84 196zM594 1298h-148
l56 258h147zM979 1298h-148l56 258h147z" />
    <glyph glyph-name="yacute" unicode="&#xfd;" horiz-adv-x="1120" 
d="M475 117h-133l-213 973h133zM332 -401h-148l877 1491h147zM721 1251h-139l313 305h195z" />
    <glyph glyph-name="thorn" unicode="&#xfe;" horiz-adv-x="1292" 
d="M1012 1061l2 -2q90 -53 141 -150q51 -96 51 -237q0 -170 -65 -330q-64 -159 -195 -262q-130 -103 -311 -103q-101 0 -180 43q-81 44 -129 113q-50 71 -68 154l-145 -688h-140l316 1491l100 466h139l-100 -466l-53 -252q61 120 172 196q113 78 262 78q117 0 203 -51z
M858 164l-6 -2q105 86 158 221q53 136 53 272q0 115 -37 193q-38 80 -106 119q-71 41 -162 41q-146 0 -252 -86q-102 -83 -156 -222q-51 -131 -51 -272q0 -114 37 -192t108 -119q68 -39 162 -39q146 0 252 86z" />
    <glyph glyph-name="ydieresis" unicode="&#xff;" horiz-adv-x="1120" 
d="M475 117h-133l-213 973h133zM332 -401h-148l877 1491h147zM549 1298h-148l56 258h147zM934 1298h-148l56 258h147z" />
    <glyph glyph-name="Amacron" unicode="&#x100;" horiz-adv-x="1519" 
d="M1395 0h-148l-84 502h-815l-297 -502h-160l928 1556h154l-549 -927h719l-156 927h143zM1364 1763h-725l27 115h725z" />
    <glyph glyph-name="amacron" unicode="&#x101;" horiz-adv-x="1159" 
d="M870 1075l-4 2q86 -39 127 -106q43 -70 43 -166q0 -51 -10 -103l-149 -702h-138l52 246q-33 -68 -93 -131q-56 -59 -139 -101q-77 -39 -172 -39q-87 0 -160 37q-70 36 -118 105q-46 67 -46 157q0 118 58 191q59 74 168 117q110 43 284 61l312 33l8 35q10 55 10 88
q0 215 -244 215q-130 0 -210 -62q-81 -63 -111 -170h-143q31 111 100 183q68 71 166 110q93 37 209 37q119 0 200 -37zM616 125l-4 4q85 54 142 143q59 93 86 211l20 95l-250 -27q-132 -15 -225 -43q-89 -27 -139 -80q-49 -52 -49 -135q0 -72 34 -121q35 -51 86 -74
q53 -24 115 -24q104 0 184 51zM1030 1350h-670l23 102h670z" />
    <glyph glyph-name="Abreve" unicode="&#x102;" horiz-adv-x="1519" 
d="M1395 0h-148l-84 502h-815l-297 -502h-160l928 1556h154l-549 -927h719l-156 927h143zM848 1706l-4 -2q-59 24 -90 72t-31 108q0 24 8 60h113q-6 -24 -6 -50q0 -57 41 -92t114 -35q86 0 148 50q63 51 78 131h114q-15 -79 -63 -138q-47 -58 -123 -94q-75 -35 -164 -35
q-74 0 -135 25z" />
    <glyph glyph-name="abreve" unicode="&#x103;" horiz-adv-x="1159" 
d="M870 1075l-4 2q86 -39 127 -106q43 -70 43 -166q0 -51 -10 -103l-149 -702h-138l52 246q-33 -68 -93 -131q-56 -59 -139 -101q-77 -39 -172 -39q-87 0 -160 37q-70 36 -118 105q-46 67 -46 157q0 118 58 191q59 74 168 117q110 43 284 61l312 33l8 35q10 55 10 88
q0 215 -244 215q-130 0 -210 -62q-81 -63 -111 -170h-143q31 111 100 183q68 71 166 110q93 37 209 37q119 0 200 -37zM616 125l-4 4q85 54 142 143q59 93 86 211l20 95l-250 -27q-132 -15 -225 -43q-89 -27 -139 -80q-49 -52 -49 -135q0 -72 34 -121q35 -51 86 -74
q53 -24 115 -24q104 0 184 51zM539 1280l6 -2q-56 27 -86 80q-31 54 -31 123q0 28 10 80h111q-8 -31 -8 -74q0 -137 149 -137q90 0 148 55q59 56 80 158h110q-18 -91 -67 -160q-49 -71 -123 -111q-74 -41 -166 -41q-73 0 -133 29z" />
    <glyph glyph-name="Aogonek" unicode="&#x104;" horiz-adv-x="1519" 
d="M1286 -305l41 2l-22 -100h-52q-100 0 -155 43q-56 44 -56 116q0 147 205 246l-84 502h-815l-297 -502h-160l928 1557h154l-549 -928h719l-156 928h143l265 -1557q-109 -47 -166 -98q-60 -54 -60 -117q0 -92 117 -92z" />
    <glyph glyph-name="aogonek" unicode="&#x105;" horiz-adv-x="1159" 
d="M1032 702l-155 -700h2q-114 -48 -170 -98q-60 -54 -60 -117q0 -47 33 -70q34 -24 92 -24h41l-20 -96h-54q-95 0 -153 43t-58 118q0 145 211 244l52 246q-33 -68 -93 -131q-56 -59 -139 -101q-77 -39 -172 -39q-87 0 -160 37q-70 36 -118 105q-45 65 -45 157q0 119 57 191
q59 74 168 117q110 43 284 61l312 33l8 35q10 55 10 88q0 215 -243 215q-131 0 -211 -62q-81 -63 -111 -170h-143q31 111 100 183q68 71 166 110q93 37 209 37q119 0 200 -37q86 -39 127 -106q43 -70 43 -166q0 -51 -10 -103zM614 125l-4 4q85 54 142 143q59 93 86 211
l20 95l-250 -27q-132 -15 -225 -43q-89 -27 -139 -80q-49 -52 -49 -135q0 -72 34 -121q35 -51 86 -74q53 -24 115 -24q104 0 184 51z" />
    <glyph glyph-name="Cacute" unicode="&#x106;" horiz-adv-x="1601" 
d="M446 51l-4 4q-137 73 -217 215t-80 338q0 250 103 473q103 224 299 361q195 137 465 137q161 0 288 -59q129 -60 207 -172q83 -119 103 -277h-152q-34 193 -153 291t-314 98q-212 0 -370 -119q-161 -121 -242 -315q-84 -200 -84 -420q0 -163 61 -276q61 -114 172 -172
q110 -58 252 -58q119 0 234 50t207 139t157 207h150q-70 -149 -185 -267q-114 -117 -260 -184q-148 -68 -317 -68q-181 0 -320 74zM1085 1692h-153l317 258h211z" />
    <glyph glyph-name="cacute" unicode="&#x107;" horiz-adv-x="1179" 
d="M301 29l-10 -2q-98 52 -156 153q-57 99 -57 244q0 175 67 330q67 156 207 256q137 98 338 98q119 0 211 -47t148 -133t65 -205h-141q-12 137 -86 211t-207 74q-146 0 -252 -86q-102 -83 -156 -222q-51 -131 -51 -272q0 -114 37 -192q36 -77 109 -119q68 -39 161 -39
q139 0 240 76q102 76 154 208h141q-64 -177 -205 -282t-340 -105q-115 0 -217 54zM758 1247h-140l314 305h194z" />
    <glyph glyph-name="Ccircumflex" unicode="&#x108;" horiz-adv-x="1601" 
d="M446 51l-4 4q-137 73 -217 215t-80 338q0 250 103 473q103 224 299 361q195 137 465 137q161 0 288 -59q129 -60 207 -172q83 -119 103 -277h-152q-34 193 -153 291t-314 98q-212 0 -370 -119q-161 -121 -242 -315q-84 -200 -84 -420q0 -163 61 -276q61 -114 172 -172
q110 -58 252 -58q119 0 234 50t207 139t157 207h150q-70 -149 -185 -267q-114 -117 -260 -184q-148 -68 -317 -68q-181 0 -320 74zM1192 1950l213 -258h-117l-198 196l-269 -196h-139l317 258h193z" />
    <glyph glyph-name="ccircumflex" unicode="&#x109;" horiz-adv-x="1179" 
d="M301 29l-10 -2q-98 52 -156 153q-57 99 -57 244q0 175 67 330q67 156 207 256q137 98 338 98q119 0 211 -47t148 -133t65 -205h-141q-12 137 -86 211t-207 74q-146 0 -252 -86q-102 -83 -156 -222q-51 -131 -51 -272q0 -114 37 -192q36 -77 109 -119q68 -39 161 -39
q139 0 240 76q102 76 154 208h141q-64 -177 -205 -282t-340 -105q-115 0 -217 54zM864 1552l209 -305h-117l-190 240l-283 -240h-137l338 305h180z" />
    <glyph glyph-name="Cdotaccent" unicode="&#x10a;" horiz-adv-x="1601" 
d="M446 51l-4 4q-137 73 -217 215t-80 338q0 250 103 473q103 224 299 361q195 137 465 137q161 0 288 -59q129 -60 207 -172q83 -119 103 -277h-152q-34 193 -153 291t-314 98q-212 0 -370 -119q-161 -121 -242 -315q-84 -200 -84 -420q0 -163 61 -276q61 -114 172 -172
q110 -58 252 -58q119 0 234 50t207 139t157 207h150q-70 -149 -185 -267q-114 -117 -260 -184q-148 -68 -317 -68q-181 0 -320 74zM1118 1692h-153l55 258h154z" />
    <glyph glyph-name="cdotaccent" unicode="&#x10b;" horiz-adv-x="1179" 
d="M301 29l-10 -2q-98 52 -156 153q-57 99 -57 244q0 175 67 330q67 156 207 256q137 98 338 98q119 0 211 -47t148 -133t65 -205h-141q-12 137 -86 211t-207 74q-146 0 -252 -86q-102 -83 -156 -222q-51 -131 -51 -272q0 -114 37 -192q36 -77 109 -119q68 -39 161 -39
q139 0 240 76q102 76 154 208h141q-64 -177 -205 -282t-340 -105q-115 0 -217 54zM791 1294h-148l55 258h148z" />
    <glyph glyph-name="Ccaron" unicode="&#x10c;" horiz-adv-x="1601" 
d="M446 51l-4 4q-137 73 -217 215t-80 338q0 250 103 473q103 224 299 361q195 137 465 137q161 0 288 -59q129 -60 207 -172q83 -119 103 -277h-152q-34 193 -153 291t-314 98q-212 0 -370 -119q-161 -121 -242 -315q-84 -200 -84 -420q0 -163 61 -276q61 -114 172 -172
q110 -58 252 -58q119 0 234 50t207 139t157 207h150q-70 -149 -185 -267q-114 -117 -260 -184q-148 -68 -317 -68q-181 0 -320 74zM1049 1751l266 199h139l-317 -258h-193l-213 258h117z" />
    <glyph glyph-name="ccaron" unicode="&#x10d;" horiz-adv-x="1179" 
d="M301 29l-10 -2q-98 52 -156 153q-57 99 -57 244q0 175 67 330q67 156 207 256q137 98 338 98q119 0 211 -47t148 -133t65 -205h-141q-12 137 -86 211t-207 74q-146 0 -252 -86q-102 -83 -156 -222q-51 -131 -51 -272q0 -114 37 -192q36 -77 109 -119q68 -39 161 -39
q139 0 240 76q102 76 154 208h141q-64 -177 -205 -282t-340 -105q-115 0 -217 54zM715 1315l284 237h136l-336 -305h-183l-206 305h116z" />
    <glyph glyph-name="Dcaron" unicode="&#x10e;" horiz-adv-x="1619" 
d="M942 1556v-2q198 0 336 -69q140 -70 217 -209q76 -137 76 -334q0 -240 -107 -453q-108 -215 -321 -352t-522 -137h-523l330 1556h514zM641 125v-2q251 0 430 117q177 116 266 305q88 186 88 393q0 244 -129 367q-128 122 -370 122h-381l-277 -1302h373zM971 1745l266 199
h139l-317 -258h-193l-213 258h117z" />
    <glyph glyph-name="dcaron" unicode="&#x10f;" horiz-adv-x="1294" 
d="M1196 1556l139 -8l-329 -1556h-140l52 237q-59 -112 -168 -184q-112 -74 -261 -74q-114 0 -202 52q-91 54 -142 153q-53 103 -53 240q0 164 66 327q65 160 194 265q128 104 318 104q108 0 184 -49q77 -50 121 -127q43 -75 55 -160zM786 158l-2 -2q105 86 158 221
q53 136 53 272q0 116 -39 193q-40 79 -110 119t-160 40q-146 0 -252 -86q-101 -82 -155 -221q-52 -134 -52 -272q0 -115 37 -193q36 -76 109 -118q68 -39 162 -39q145 0 251 86zM1473 1176h-103l111 368h127z" />
    <glyph glyph-name="Dcroat" unicode="&#x110;" horiz-adv-x="1619" 
d="M942 1556v-2q198 0 336 -69q140 -70 217 -209q76 -137 76 -334q0 -240 -107 -453q-108 -215 -321 -352t-522 -137h-523l158 745h-186l26 119h185l147 692h514zM641 125v-2q251 0 430 117q177 116 266 305q88 186 88 393q0 244 -129 367q-128 122 -370 122h-381l-121 -565
h432l-25 -119h-432l-131 -618h373z" />
    <glyph glyph-name="dcroat" unicode="&#x111;" horiz-adv-x="1294" 
d="M1440 1382l-15 -112h-149l-270 -1278h-140l52 237q-59 -112 -168 -184q-112 -74 -261 -74q-114 0 -202 52q-91 54 -142 153q-53 103 -53 240q0 164 66 327q65 160 194 265q128 104 318 104q108 0 184 -49q77 -50 121 -127q43 -75 55 -160l107 502h-199l16 104h205l37 174
h139l-37 -174h142zM786 158l-2 -2q105 86 158 221q53 136 53 272q0 116 -39 193q-40 79 -110 119t-160 40q-146 0 -252 -86q-101 -82 -155 -221q-52 -134 -52 -272q0 -115 37 -193q36 -76 109 -118q68 -39 162 -39q145 0 251 86z" />
    <glyph glyph-name="Emacron" unicode="&#x112;" horiz-adv-x="1327" 
d="M1409 1556l-27 -126h-835l-119 -562h819l-26 -127h-822l-131 -614h854l-26 -127h-998l330 1556h981zM1313 1763h-725l26 115h725z" />
    <glyph glyph-name="emacron" unicode="&#x113;" horiz-adv-x="1202" 
d="M231 510l5 -2q-1 -13 -2 -31t-2 -29.5t-1 -19.5q0 -114 37 -192q36 -77 109 -119q68 -39 162 -39q127 0 221 61t147 176h144q-76 -168 -215 -254t-308 -86q-119 0 -221 54q-97 51 -155 153q-58 101 -58 244q0 173 68 330q67 156 207 256q137 98 338 98q123 0 215 -51
q94 -52 147 -148q53 -95 53 -227q0 -83 -26 -174h-865zM489 952h-2q-90 -56 -147 -143q-59 -89 -86 -197h727q8 39 8 90q0 90 -37 160q-39 73 -104 109q-67 37 -156 37q-114 0 -203 -56zM1071 1339h-670l23 103h670z" />
    <glyph glyph-name="Ebreve" unicode="&#x114;" horiz-adv-x="1327" 
d="M1409 1556l-27 -126h-835l-119 -562h819l-26 -127h-822l-131 -614h854l-26 -127h-998l330 1556h981zM797 1706l-4 -2q-61 25 -91 72q-30 46 -30 108q0 24 8 60h113q-7 -28 -7 -50q0 -57 41 -92t115 -35q86 0 148 50t77 131h115q-15 -79 -63 -138q-47 -58 -123 -94
q-75 -35 -164 -35q-74 0 -135 25z" />
    <glyph glyph-name="ebreve" unicode="&#x115;" horiz-adv-x="1202" 
d="M231 510l5 -2q-1 -13 -2 -31t-2 -29.5t-1 -19.5q0 -114 37 -192q36 -77 109 -119q68 -39 162 -39q127 0 221 61t147 176h144q-76 -168 -215 -254t-308 -86q-119 0 -221 54q-97 51 -155 153q-58 101 -58 244q0 173 68 330q67 156 207 256q137 98 338 98q123 0 215 -51
q94 -52 147 -148q53 -95 53 -227q0 -83 -26 -174h-865zM489 952h-2q-90 -56 -147 -143q-59 -89 -86 -197h727q8 39 8 90q0 90 -37 160q-39 73 -104 109q-67 37 -156 37q-114 0 -203 -56zM580 1270l6 -2q-56 27 -86 80q-31 54 -31 122q0 28 10 80h111q-8 -31 -8 -73
q0 -138 149 -138q89 0 148 56q58 55 79 157h111q-18 -87 -68 -159q-50 -71 -122 -111q-74 -41 -166 -41q-73 0 -133 29z" />
    <glyph glyph-name="Edotaccent" unicode="&#x116;" horiz-adv-x="1327" 
d="M1409 1556l-27 -126h-835l-119 -562h819l-26 -127h-822l-131 -614h854l-26 -127h-998l330 1556h981zM1014 1690h-154l55 258h154z" />
    <glyph glyph-name="edotaccent" unicode="&#x117;" horiz-adv-x="1202" 
d="M231 510l5 -2q-1 -13 -2 -31t-2 -29.5t-1 -19.5q0 -114 37 -192q36 -77 109 -119q68 -39 162 -39q127 0 221 61t147 176h144q-76 -168 -215 -254t-308 -86q-119 0 -221 54q-97 51 -155 153q-58 101 -58 244q0 173 68 330q67 156 207 256q137 98 338 98q123 0 215 -51
q94 -52 147 -148q53 -95 53 -227q0 -83 -26 -174h-865zM489 952h-2q-90 -56 -147 -143q-59 -89 -86 -197h727q8 39 8 90q0 90 -37 160q-39 73 -104 109q-67 37 -156 37q-114 0 -203 -56zM801 1294h-148l56 258h147z" />
    <glyph glyph-name="Eogonek" unicode="&#x118;" horiz-adv-x="1327" 
d="M1382 1430l-837 2l-119 -562h819l-26 -127h-822l-131 -614h854l-26 -127q-109 -47 -166 -98q-60 -54 -60 -117q0 -92 119 -92h41l-20 -101h-52q-99 0 -155 44t-56 116q0 151 207 246h-854l330 1556h981z" />
    <glyph glyph-name="eogonek" unicode="&#x119;" horiz-adv-x="1202" 
d="M231 510l2 -2q-4 -70 -4 -80q0 -114 37 -192q36 -77 109 -119q68 -39 162 -39q127 0 221 61t147 176h144q-44 -95 -107 -161q-64 -68 -141 -111q-109 -75 -168 -137q-58 -61 -58 -123q0 -45 31 -70q30 -24 90 -24h43l-20 -97h-55q-97 0 -152 43t-55 117q0 121 149 228
q-12 -1 -29.5 -2t-29 -2t-19.5 -1q-119 0 -221 54q-97 51 -155 153q-58 101 -58 244q0 173 68 330q67 156 207 256q137 98 338 98q123 0 215 -51q94 -52 147 -148q53 -95 53 -227q0 -83 -26 -174h-865zM487 952h-2q-90 -56 -147 -143q-59 -89 -86 -197h727q8 39 8 90
q0 90 -37 160q-39 73 -104 109q-67 37 -156 37q-114 0 -203 -56z" />
    <glyph glyph-name="Ecaron" unicode="&#x11a;" horiz-adv-x="1327" 
d="M1409 1556l-27 -126h-835l-119 -562h819l-26 -127h-822l-131 -614h854l-26 -127h-998l330 1556h981zM944 1749l266 199h140l-318 -258h-192l-213 258h116z" />
    <glyph glyph-name="ecaron" unicode="&#x11b;" horiz-adv-x="1202" 
d="M231 510l5 -2q-1 -13 -2 -31t-2 -29.5t-1 -19.5q0 -114 37 -192q36 -77 109 -119q68 -39 162 -39q127 0 221 61t147 176h144q-76 -168 -215 -254t-308 -86q-119 0 -221 54q-97 51 -155 153q-58 101 -58 244q0 173 68 330q67 156 207 256q137 98 338 98q123 0 215 -51
q94 -52 147 -148q53 -95 53 -227q0 -83 -26 -174h-865zM489 952h-2q-90 -56 -147 -143q-59 -89 -86 -197h727q8 39 8 90q0 90 -37 160q-39 73 -104 109q-67 37 -156 37q-114 0 -203 -56zM725 1315l285 237h135l-336 -305h-182l-207 305h117z" />
    <glyph glyph-name="Gcircumflex" unicode="&#x11c;" horiz-adv-x="1697" 
d="M827 686l23 123h743l-172 -811h-127l95 434q-50 -109 -138 -217q-85 -105 -211 -172q-127 -68 -288 -68q-172 0 -308 74q-135 74 -215 215q-79 140 -79 338q0 250 102 475q102 224 299 363q195 137 467 137q163 0 289 -57q131 -60 209 -168q80 -112 104 -271h-150
q-35 189 -155 281q-125 96 -318 96q-214 0 -372 -119q-164 -123 -244 -315q-84 -200 -84 -418q0 -165 63 -276q64 -114 175 -172q110 -58 253 -58q158 0 289 76t223 209q92 132 132 301h-605zM1165 1946l213 -258h-116l-199 196l-268 -196h-140l318 258h192z" />
    <glyph glyph-name="gcircumflex" unicode="&#x11d;" horiz-adv-x="1296" 
d="M1104 1090l143 -3l-237 -1124q-40 -191 -185 -291q-143 -98 -356 -98q-127 0 -227 47q-98 46 -154 129t-65 187h143q9 -121 92 -189q82 -67 215 -67q162 0 266 79q106 80 133 222l58 270q-65 -109 -174 -178q-110 -70 -252 -70q-116 0 -205 51q-93 53 -145 152
q-54 102 -54 237q0 161 66 318q64 152 194 252q128 98 318 98q108 0 184 -49q77 -50 121 -127t53 -160zM801 186h-2q100 79 155 213q54 133 54 263q0 113 -37 188q-38 77 -107 117q-68 39 -166 39q-148 0 -252 -82q-102 -80 -155 -211q-51 -125 -51 -262q0 -115 36 -191
q36 -77 109 -119q68 -39 162 -39q147 0 254 84zM885 1554l209 -305h-117l-191 240l-282 -240h-137l338 305h180z" />
    <glyph glyph-name="Gbreve" unicode="&#x11e;" horiz-adv-x="1697" 
d="M827 686l23 123h743l-172 -811h-127l95 434q-50 -109 -138 -217q-85 -105 -211 -172q-127 -68 -288 -68q-172 0 -308 74q-135 74 -215 215q-79 140 -79 338q0 250 102 475q102 224 299 363q195 137 467 137q163 0 289 -57q131 -60 209 -168q80 -112 104 -271h-150
q-35 189 -155 281q-125 96 -318 96q-214 0 -372 -119q-164 -123 -244 -315q-84 -200 -84 -418q0 -165 63 -276q64 -114 175 -172q110 -58 253 -58q158 0 289 76t223 209q92 132 132 301h-605zM877 1704l-5 -2q-59 24 -90 72q-30 46 -30 108q0 24 8 60h112q-6 -24 -6 -50
q0 -57 41 -92t115 -35q85 0 147 50q63 51 78 131h115q-15 -77 -64 -138q-48 -59 -122 -94q-75 -35 -164 -35q-74 0 -135 25z" />
    <glyph glyph-name="gbreve" unicode="&#x11f;" horiz-adv-x="1296" 
d="M1104 1090l143 -3l-237 -1124q-40 -191 -185 -291q-143 -98 -356 -98q-127 0 -227 47q-98 46 -154 129t-65 187h143q9 -121 92 -189q82 -67 215 -67q162 0 266 79q106 80 133 222l58 270q-65 -109 -174 -178q-110 -70 -252 -70q-116 0 -205 51q-93 53 -145 152
q-54 102 -54 237q0 161 66 318q64 152 194 252q128 98 318 98q108 0 184 -49q77 -50 121 -127t53 -160zM801 186h-2q100 79 155 213q54 133 54 263q0 113 -37 188q-38 77 -107 117q-68 39 -166 39q-148 0 -252 -82q-102 -80 -155 -211q-51 -125 -51 -262q0 -115 36 -191
q36 -77 109 -119q68 -39 162 -39q147 0 254 84zM594 1272l6 -2q-56 27 -86 80q-31 54 -31 123q0 22 11 79h110q-8 -31 -8 -73q0 -138 149 -138q89 0 148 56t80 157h110q-18 -90 -67 -159q-50 -71 -123 -111q-74 -41 -166 -41q-73 0 -133 29z" />
    <glyph glyph-name="Gdotaccent" unicode="&#x120;" horiz-adv-x="1697" 
d="M827 686l23 123h743l-172 -811h-127l95 434q-50 -109 -138 -217q-85 -105 -211 -172q-127 -68 -288 -68q-172 0 -308 74q-135 74 -215 215q-79 140 -79 338q0 250 102 475q102 224 299 363q195 137 467 137q163 0 289 -57q131 -60 209 -168q80 -112 104 -271h-150
q-35 189 -155 281q-125 96 -318 96q-214 0 -372 -119q-164 -123 -244 -315q-84 -200 -84 -418q0 -165 63 -276q64 -114 175 -172q110 -58 253 -58q158 0 289 76t223 209q92 132 132 301h-605zM1092 1688h-154l55 258h154z" />
    <glyph glyph-name="gdotaccent" unicode="&#x121;" horiz-adv-x="1296" 
d="M1104 1090l143 -3l-237 -1124q-40 -191 -185 -291q-143 -98 -356 -98q-127 0 -227 47q-98 46 -154 129t-65 187h143q9 -121 92 -189q82 -67 215 -67q162 0 266 79q106 80 133 222l58 270q-65 -109 -174 -178q-110 -70 -252 -70q-116 0 -205 51q-93 53 -145 152
q-54 102 -54 237q0 161 66 318q64 152 194 252q128 98 318 98q108 0 184 -49q77 -50 121 -127t53 -160zM801 186h-2q100 79 155 213q54 133 54 263q0 113 -37 188q-38 77 -107 117q-68 39 -166 39q-148 0 -252 -82q-102 -80 -155 -211q-51 -125 -51 -262q0 -115 36 -191
q36 -77 109 -119q68 -39 162 -39q147 0 254 84zM813 1296h-147l55 258h147z" />
    <glyph glyph-name="uni0122" unicode="&#x122;" horiz-adv-x="1697" 
d="M827 686l23 123h743l-172 -811h-127l95 434q-50 -109 -138 -217q-85 -105 -211 -172q-127 -68 -288 -68q-172 0 -308 74q-135 74 -215 215q-79 140 -79 338q0 250 102 475q102 224 299 363q195 137 467 137q163 0 289 -57q131 -60 209 -168q80 -112 104 -271h-150
q-35 189 -155 281q-125 96 -318 96q-214 0 -372 -119q-164 -123 -244 -315q-84 -200 -84 -418q0 -165 63 -276q64 -114 175 -172q110 -58 253 -58q158 0 289 76t223 209q92 132 132 301h-605zM627 -403l55 258h154l-58 -269l-131 -161h-98l119 172h-41z" />
    <glyph glyph-name="uni0123" unicode="&#x123;" horiz-adv-x="1296" 
d="M1104 1090l143 -3l-237 -1124q-40 -191 -185 -291q-143 -98 -356 -98q-127 0 -227 47q-98 46 -154 129t-65 187h143q9 -121 92 -189q82 -67 215 -67q162 0 266 79q106 80 133 222l58 270q-65 -109 -174 -178q-110 -70 -252 -70q-116 0 -205 51q-93 53 -145 152
q-54 102 -54 237q0 161 66 318q64 152 194 252q128 98 318 98q108 0 184 -49q77 -50 121 -127t53 -160zM801 186h-2q100 79 155 213q54 133 54 263q0 113 -37 188q-38 77 -107 117q-68 39 -166 39q-148 0 -252 -82q-102 -80 -155 -211q-51 -125 -51 -262q0 -115 36 -191
q36 -77 109 -119q68 -39 162 -39q147 0 254 84zM850 1726h94l-119 -172h41l-55 -258h-147l57 269z" />
    <glyph glyph-name="Hcircumflex" unicode="&#x124;" horiz-adv-x="1619" 
d="M1331 866l146 690h143l-330 -1556h-143l158 741h-906l-157 -741h-144l330 1556h143l-145 -690h905zM1188 1948l213 -258h-117l-199 196l-268 -196h-139l317 258h193z" />
    <glyph glyph-name="hcircumflex" unicode="&#x125;" horiz-adv-x="1214" 
d="M946 1073l-2 2q73 -42 109 -110q37 -70 37 -166q0 -45 -11 -117l-145 -680h-137l139 655q12 62 12 121q0 114 -61 172q-63 60 -170 60q-83 0 -162 -43q-82 -45 -139 -125q-60 -85 -84 -197l-137 -647h-138l330 1556h137l-145 -690q73 121 174 183q106 65 227 65
q98 0 166 -39zM616 1950l213 -258h-116l-199 196l-268 -196h-140l318 258h192z" />
    <glyph glyph-name="Hbar" unicode="&#x126;" horiz-adv-x="1619" 
d="M1554 1249h209l-26 -123h-207l-240 -1126h-143l158 741h-906l-157 -741h-144l240 1126h-211l27 123h208l66 307h143l-65 -307h905l66 307h143zM426 866h905l55 260h-905z" />
    <glyph glyph-name="hbar" unicode="&#x127;" horiz-adv-x="1214" 
d="M946 1073l-2 2q73 -42 109 -110q37 -70 37 -166q0 -45 -11 -117l-145 -680h-137l139 655q12 62 12 121q0 114 -61 172q-63 60 -170 60q-83 0 -162 -43q-82 -45 -139 -125q-60 -85 -84 -197l-137 -647h-138l271 1278h-146l19 104h149l37 174h137l-37 -174h197l-14 -104
h-205l-86 -412q73 121 174 183q106 65 227 65q98 0 166 -39z" />
    <glyph glyph-name="Itilde" unicode="&#x128;" horiz-adv-x="571" 
d="M242 0h-144l330 1556h143zM209 1729h-6q18 58 55 98t80 61q44 21 90 21q76 0 147 -41q30 -17 58 -25q27 -8 59 -8q99 0 146 78h61q-18 -58 -55 -98q-39 -42 -80 -62t-88 -20q-77 0 -148 41q-60 32 -116 32q-95 0 -142 -77h-61z" />
    <glyph glyph-name="itilde" unicode="&#x129;" horiz-adv-x="487" 
d="M197 0h-140l232 1090h139zM82 1307q27 85 86 135q58 49 127 49q40 0 74 -12q27 -9 69 -33q56 -35 109 -35q95 0 145 86h56q-27 -85 -86 -135q-58 -49 -127 -49q-39 0 -74 12q-29 10 -70 33q-56 35 -108 35q-96 0 -146 -86h-55z" />
    <glyph glyph-name="Imacron" unicode="&#x12a;" horiz-adv-x="571" 
d="M242 0h-144l330 1556h143zM905 1763h-725l27 115h725z" />
    <glyph glyph-name="imacron" unicode="&#x12b;" horiz-adv-x="487" 
d="M197 0h-140l232 1090h139zM737 1343h-669l22 103h670z" />
    <glyph glyph-name="Ibreve" unicode="&#x12c;" horiz-adv-x="571" 
d="M242 0h-144l330 1556h143zM389 1706l-4 -2q-59 24 -90 72t-31 108q0 24 8 60h113q-6 -24 -6 -50q0 -57 41 -92t115 -35q85 0 147 50q63 51 78 131h114q-15 -79 -63 -138q-47 -58 -123 -94q-75 -35 -164 -35q-74 0 -135 25z" />
    <glyph glyph-name="ibreve" unicode="&#x12d;" horiz-adv-x="487" 
d="M197 0h-140l232 1090h139zM246 1274l6 -2q-56 27 -86 80q-31 54 -31 123q0 27 10 79h111q-8 -31 -8 -73q0 -138 149 -138q89 0 148 56t80 157h110q-18 -90 -67 -159q-50 -71 -123 -111q-74 -41 -166 -41q-73 0 -133 29z" />
    <glyph glyph-name="Iogonek" unicode="&#x12e;" horiz-adv-x="571" 
d="M242 0h-144l330 1556h143zM104 -406l-2 3q-100 0 -155 43q-56 44 -56 116q0 151 209 246h144q-109 -47 -166 -98q-60 -54 -60 -117q0 -92 117 -92h43l-22 -101h-52z" />
    <glyph glyph-name="iogonek" unicode="&#x12f;" horiz-adv-x="487" 
d="M330 1298l55 258h147l-55 -258h-147zM289 1090h135l-231 -1090q-109 -47 -166 -98q-60 -54 -60 -117q0 -45 31 -70q30 -24 90 -24h41l-20 -97h-54q-95 0 -151 44t-56 118q0 149 209 244z" />
    <glyph glyph-name="Idotaccent" unicode="&#x130;" horiz-adv-x="571" 
d="M242 0h-144l330 1556h143zM604 1690h-153l55 258h153z" />
    <glyph glyph-name="dotlessi" unicode="&#x131;" horiz-adv-x="487" 
d="M197 0h-140l232 1090h139z" />
    <glyph glyph-name="Jcircumflex" unicode="&#x134;" horiz-adv-x="741" 
d="M-66 0l27 129h131q108 0 170 41q61 40 82 141l264 1245h144l-269 -1271q-30 -145 -131 -215t-270 -70h-148zM860 1950l213 -258h-117l-198 196l-269 -196h-139l318 258h192z" />
    <glyph glyph-name="jcircumflex" unicode="&#x135;" horiz-adv-x="487" 
d="M-254 -401l21 104h53q96 0 145 43q52 45 66 119l258 1227h139l-264 -1248q-24 -109 -111 -178q-85 -67 -219 -67h-88zM528 1556l209 -305h-116l-191 240l-283 -240h-137l338 305h180z" />
    <glyph glyph-name="uni0136" unicode="&#x136;" horiz-adv-x="1406" 
d="M1368 1556h207l-981 -745l721 -811h-178l-723 811l-172 -811h-144l330 1556h143l-153 -720zM504 -401l55 258h154l-58 -269l-131 -161h-98l119 172h-41z" />
    <glyph glyph-name="uni0137" unicode="&#x137;" horiz-adv-x="1054" 
d="M963 1090h186l-670 -496l463 -594h-156l-462 596l-127 -596h-138l330 1556h137l-198 -938zM326 -401l55 258h147l-57 -269l-129 -161h-94l119 172h-41z" />
    <glyph glyph-name="kgreenlandic" unicode="&#x138;" horiz-adv-x="1071" 
d="M983 1090h184l-700 -519l491 -571h-159l-484 565l-120 -565h-138l232 1090h137l-104 -490z" />
    <glyph glyph-name="Lacute" unicode="&#x139;" horiz-adv-x="1110" 
d="M571 1556l-303 -1429h721l-26 -127h-865l330 1556h143zM621 1690h-154l317 258h211z" />
    <glyph glyph-name="lacute" unicode="&#x13a;" horiz-adv-x="487" 
d="M197 0h-138l330 1556h137zM578 1690h-154l317 258h211z" />
    <glyph glyph-name="uni013B" unicode="&#x13b;" horiz-adv-x="1110" 
d="M571 1556l-303 -1429h721l-26 -127h-865l330 1556h143zM381 -401l55 258h154l-58 -269l-131 -161h-98l119 172h-41z" />
    <glyph glyph-name="uni013C" unicode="&#x13c;" horiz-adv-x="487" 
d="M197 0h-138l330 1556h137zM-33 -401l56 258h147l-57 -269l-129 -161h-95l119 172h-41z" />
    <glyph glyph-name="Lcaron" unicode="&#x13d;" horiz-adv-x="1110" 
d="M571 1556l-303 -1429h721l-26 -127h-865l330 1556h143zM784 1061h-108l196 495h146z" />
    <glyph glyph-name="lcaron" unicode="&#x13e;" horiz-adv-x="487" 
d="M197 0h-138l330 1556h137zM668 1188h-103l111 368h127z" />
    <glyph glyph-name="Ldot" unicode="&#x13f;" horiz-adv-x="1130" 
d="M571 1556l-303 -1429h721l-26 -127h-865l330 1556h143zM971 733h-162l51 240h162z" />
    <glyph glyph-name="ldot" unicode="&#x140;" horiz-adv-x="608" 
d="M197 0h-138l330 1556h137zM657 686h-161l51 240h162z" />
    <glyph glyph-name="Lslash" unicode="&#x141;" horiz-adv-x="1110" 
d="M395 721l-127 -594h721l-26 -127h-865l135 635l-200 -107l28 136l201 106l166 786h143l-147 -700l393 209l-29 -135z" />
    <glyph glyph-name="lslash" unicode="&#x142;" horiz-adv-x="567" 
d="M426 899l192 113l-28 -140l-195 -114l-159 -758h-140l142 664l-172 -101l30 142l170 100l160 751h139z" />
    <glyph glyph-name="Nacute" unicode="&#x143;" horiz-adv-x="1724" 
d="M242 0h-144l330 1556h143zM1237 0h-143l-508 1556h145zM1395 0h-144l330 1556h143zM1159 1690h-153l317 258h211z" />
    <glyph glyph-name="nacute" unicode="&#x144;" horiz-adv-x="1212" 
d="M946 1073l4 2q73 -42 109 -110q37 -70 37 -166q0 -60 -13 -117l-143 -680h-139l141 655q12 62 12 121q0 115 -63 172q-66 60 -172 60q-83 0 -162 -43t-137 -125q-60 -85 -84 -197l-137 -647h-140l232 1089h139l-47 -223q72 120 172 183q103 65 225 65q98 0 166 -39z
M795 1253h-140l314 306h194z" />
    <glyph glyph-name="uni0145" unicode="&#x145;" horiz-adv-x="1724" 
d="M242 0h-144l330 1556h143zM1237 0h-143l-508 1556h145zM1395 0h-144l330 1556h143zM567 -401l56 258h153l-57 -269l-131 -161h-99l119 172h-41z" />
    <glyph glyph-name="uni0146" unicode="&#x146;" horiz-adv-x="1212" 
d="M946 1073l4 2q73 -42 109 -110q37 -70 37 -166q0 -60 -13 -117l-143 -680h-139l141 655q12 62 12 121q0 115 -63 172q-66 60 -172 60q-83 0 -162 -43t-137 -125q-60 -85 -84 -197l-137 -647h-140l232 1089h139l-47 -223q72 120 172 183q103 65 225 65q98 0 166 -39z
M365 -399l55 258h147l-57 -269l-129 -161h-94l119 172h-41z" />
    <glyph glyph-name="Ncaron" unicode="&#x147;" horiz-adv-x="1724" 
d="M242 0h-144l330 1556h143zM1237 0h-143l-508 1556h145zM1395 0h-144l330 1556h143zM1124 1749l267 199h139l-318 -258h-192l-213 258h117z" />
    <glyph glyph-name="ncaron" unicode="&#x148;" horiz-adv-x="1212" 
d="M946 1073l4 2q73 -42 109 -110q37 -70 37 -166q0 -60 -13 -117l-143 -680h-139l141 655q12 62 12 121q0 115 -63 172q-66 60 -172 60q-83 0 -162 -43t-137 -125q-60 -85 -84 -197l-137 -647h-140l232 1089h139l-47 -223q72 120 172 183q103 65 225 65q98 0 166 -39z
M752 1321l284 238h135l-335 -306h-183l-207 306h117z" />
    <glyph glyph-name="Eng" unicode="&#x14a;" horiz-adv-x="1724" 
d="M242 0h-144l330 1556h143zM731 1556l506 -1556h-143l-508 1556h145zM1581 1556h141l-329 -1556l-25 -119q-58 -282 -399 -282h-148l27 127h131q108 0 170 41q61 40 82 141l20 92z" />
    <glyph glyph-name="eng" unicode="&#x14b;" horiz-adv-x="1212" 
d="M946 1073l4 2q73 -42 109 -110q37 -70 37 -166q0 -60 -13 -117l-143 -680h-139l141 655q12 62 12 121q0 115 -63 172q-66 60 -172 60q-83 0 -162 -43t-137 -125q-60 -85 -84 -197l-137 -647h-140l232 1089h139l-47 -223q72 120 172 183q103 65 225 65q98 0 166 -39z
M492 -399l22 104h51q97 0 146 43q48 42 63 119l29 137h139l-35 -158q-24 -110 -110 -178q-85 -67 -219 -67h-86z" />
    <glyph glyph-name="Omacron" unicode="&#x14c;" horiz-adv-x="1710" 
d="M453 51l-2 -4q-143 74 -222 215q-79 140 -79 342q0 252 104 475q105 226 305 361q199 135 471 135q182 0 324 -74q141 -74 221 -215q80 -142 80 -340q0 -250 -105 -475q-103 -222 -305 -358q-201 -136 -471 -136q-179 0 -321 74zM1167 213h-6q165 121 252 315
q88 195 88 424q0 166 -63 277q-65 114 -174 172q-108 57 -256 57q-213 0 -375 -119q-165 -121 -252 -315q-88 -195 -88 -424q0 -165 63 -276q64 -113 179 -172q113 -58 258 -58q212 0 374 119zM1442 1759h-725l26 115h725z" />
    <glyph glyph-name="omacron" unicode="&#x14d;" horiz-adv-x="1224" 
d="M301 29v-4q-99 53 -154 153q-55 101 -55 244q0 173 68 330q67 156 207 256q137 98 338 98q123 0 219 -51q97 -52 153 -154q56 -103 56 -242q0 -172 -68 -329q-67 -156 -207 -256q-138 -99 -338 -99q-117 0 -219 54zM786 162l-2 -4q106 89 158 223q53 136 53 274
q0 115 -39 189q-41 77 -110 117q-70 40 -160 40q-148 0 -252 -88q-102 -86 -155 -223q-52 -134 -52 -272q0 -114 37 -189q36 -74 109 -116q68 -39 162 -39q147 0 251 88zM1087 1333h-669l22 103h670z" />
    <glyph glyph-name="Obreve" unicode="&#x14e;" horiz-adv-x="1710" 
d="M453 51l-2 -4q-143 74 -222 215q-79 140 -79 342q0 252 104 475q105 226 305 361q199 135 471 135q182 0 324 -74q141 -74 221 -215q80 -142 80 -340q0 -250 -105 -475q-103 -222 -305 -358q-201 -136 -471 -136q-179 0 -321 74zM1167 213h-6q165 121 252 315
q88 195 88 424q0 166 -63 277q-65 114 -174 172q-108 57 -256 57q-213 0 -375 -119q-165 -121 -252 -315q-88 -195 -88 -424q0 -165 63 -276q64 -113 179 -172q113 -58 258 -58q212 0 374 119zM928 1702l-4 -2q-59 24 -90 72t-31 108q0 23 8 59h113q-6 -24 -6 -49
q0 -58 40 -92q41 -35 115 -35q87 0 148 49q62 50 77 132h115q-15 -79 -63 -138q-47 -58 -123 -94q-75 -35 -164 -35q-74 0 -135 25z" />
    <glyph glyph-name="obreve" unicode="&#x14f;" horiz-adv-x="1224" 
d="M301 29v-4q-99 53 -154 153q-55 101 -55 244q0 173 68 330q67 156 207 256q137 98 338 98q123 0 219 -51q97 -52 153 -154q56 -103 56 -242q0 -172 -68 -329q-67 -156 -207 -256q-138 -99 -338 -99q-117 0 -219 54zM786 162l-2 -4q106 89 158 223q53 136 53 274
q0 115 -39 189q-41 77 -110 117q-70 40 -160 40q-148 0 -252 -88q-102 -86 -155 -223q-52 -134 -52 -272q0 -114 37 -189q36 -74 109 -116q68 -39 162 -39q147 0 251 88zM598 1264l6 -2q-57 28 -86 79q-31 54 -31 123q0 23 11 80h110q-8 -31 -8 -74q0 -137 150 -137
q88 0 147 56t80 157h110q-18 -91 -67 -160q-48 -69 -123 -110q-74 -41 -166 -41q-73 0 -133 29z" />
    <glyph glyph-name="Ohungarumlaut" unicode="&#x150;" horiz-adv-x="1710" 
d="M453 51l-2 -4q-143 74 -222 215q-79 140 -79 342q0 252 104 475q105 226 305 361q199 135 471 135q182 0 324 -74q141 -74 221 -215q80 -142 80 -340q0 -250 -105 -475q-103 -222 -305 -358q-201 -136 -471 -136q-179 0 -321 74zM1167 213h-6q165 121 252 315
q88 195 88 424q0 166 -63 277q-65 114 -174 172q-108 57 -256 57q-213 0 -375 -119q-165 -121 -252 -315q-88 -195 -88 -424q0 -165 63 -276q64 -113 179 -172q113 -58 258 -58q212 0 374 119zM926 1686h-148l336 258h201zM1274 1686h-148l336 258h201z" />
    <glyph glyph-name="ohungarumlaut" unicode="&#x151;" horiz-adv-x="1224" 
d="M301 29v-4q-99 53 -154 153q-55 101 -55 244q0 173 68 330q67 156 207 256q137 98 338 98q123 0 219 -51q97 -52 153 -154q56 -103 56 -242q0 -172 -68 -329q-67 -156 -207 -256q-138 -99 -338 -99q-117 0 -219 54zM786 162l-2 -4q106 89 158 223q53 136 53 274
q0 115 -39 189q-41 77 -110 117q-70 40 -160 40q-148 0 -252 -88q-102 -86 -155 -223q-52 -134 -52 -272q0 -114 37 -189q36 -74 109 -116q68 -39 162 -39q147 0 251 88zM643 1241h-141l323 305h181zM987 1241h-141l323 305h181z" />
    <glyph glyph-name="OE" unicode="&#x152;" horiz-adv-x="2328" 
d="M2386 1430l-840 -3l-119 -561h820l-27 -127h-819l-131 -614h854l-27 -127h-1300q-182 0 -330 80q-150 81 -234 223q-86 145 -86 332q0 255 129 467t353 334q223 122 497 122h1287zM1126 125l277 1302h-301q-231 0 -414 -104q-185 -105 -289 -285t-104 -399
q0 -155 72 -274q71 -118 190 -179t264 -61h305z" />
    <glyph glyph-name="oe" unicode="&#x153;" horiz-adv-x="2093" 
d="M1122 510l-4 -2q-4 -70 -4 -80q0 -114 37 -192q36 -77 109 -119q68 -39 161 -39q126 0 221 65q97 66 152 179h139q-77 -170 -215 -259q-137 -88 -307 -88q-139 0 -246 70t-157 197q-77 -124 -201 -195q-126 -72 -289 -72q-117 0 -219 54q-99 53 -154 153q-55 101 -55 244
q0 173 68 330q67 156 207 256q137 98 337 98q139 0 246 -70q108 -70 154 -196q77 123 203 194q129 72 290 72q123 0 215 -51q95 -53 148 -148t53 -227q0 -86 -24 -174h-865zM782 166l-2 -4q106 89 158 223q53 136 53 274q0 115 -39 189q-41 77 -110 117q-71 41 -160 41
q-148 0 -252 -88q-102 -86 -156 -224q-51 -131 -51 -272q0 -114 37 -189q36 -74 109 -116q68 -39 161 -39q148 0 252 88zM1370 948h-2q-90 -56 -147 -143q-59 -89 -86 -197h727q8 39 8 90q0 90 -37 160q-39 73 -104 109q-67 37 -156 37q-114 0 -203 -56z" />
    <glyph glyph-name="Racute" unicode="&#x154;" horiz-adv-x="1447" 
d="M1376 942l-4 2q-53 -102 -155 -168q-106 -68 -256 -92l299 -682h-158l-291 670h-25h-407l-141 -670h-144l330 1557h545q135 0 239 -52q103 -51 162 -141q57 -86 57 -197q0 -128 -51 -227zM809 799h2q156 0 262 47q103 46 154 127q49 79 49 182q0 82 -39 141
q-41 62 -113 99q-73 37 -176 37h-409l-133 -633h403zM936 1692h-154l318 258h211z" />
    <glyph glyph-name="racute" unicode="&#x155;" horiz-adv-x="727" 
d="M379 854h-6q144 258 430 258l-29 -133h-43q-154 0 -258 -78q-100 -75 -135 -239l-141 -662h-140l232 1090h139zM645 1251h-139l313 305h195z" />
    <glyph glyph-name="uni0156" unicode="&#x156;" horiz-adv-x="1447" 
d="M1376 942l-4 2q-53 -102 -155 -168q-106 -68 -256 -92l299 -682h-158l-291 670h-25h-407l-141 -670h-144l330 1557h545q135 0 239 -52q103 -51 162 -141q57 -86 57 -197q0 -128 -51 -227zM809 799h2q156 0 262 47q103 46 154 127q49 79 49 182q0 82 -39 141
q-41 62 -113 99q-73 37 -176 37h-409l-133 -633h403zM496 -399l55 258h154l-58 -269l-131 -161h-98l119 172h-41z" />
    <glyph glyph-name="uni0157" unicode="&#x157;" horiz-adv-x="727" 
d="M379 854h-6q144 258 430 258l-29 -133h-43q-154 0 -258 -78q-100 -75 -135 -239l-141 -662h-140l232 1090h139zM-39 -401l55 258h148l-58 -269l-129 -161h-94l119 172h-41z" />
    <glyph glyph-name="Rcaron" unicode="&#x158;" horiz-adv-x="1447" 
d="M1376 942l-4 2q-53 -102 -155 -168q-106 -68 -256 -92l299 -682h-158l-291 670h-25h-407l-141 -670h-144l330 1557h545q135 0 239 -52q103 -51 162 -141q57 -86 57 -197q0 -128 -51 -227zM809 799h2q156 0 262 47q103 46 154 127q49 79 49 182q0 82 -39 141
q-41 62 -113 99q-73 37 -176 37h-409l-133 -633h403zM899 1751l266 199h140l-318 -258h-192l-213 258h116z" />
    <glyph glyph-name="rcaron" unicode="&#x159;" horiz-adv-x="727" 
d="M379 854h-6q144 258 430 258l-29 -133h-43q-154 0 -258 -78q-100 -75 -135 -239l-141 -662h-140l232 1090h139zM604 1319l285 237h135l-336 -305h-182l-207 305h117z" />
    <glyph glyph-name="Sacute" unicode="&#x15a;" horiz-adv-x="1396" 
d="M342 35l-20 -2q-123 58 -193 166q-71 109 -74 258h152q3 -119 59 -199t148 -121q93 -41 213 -41q127 0 237 37q113 38 183 117q69 78 69 194q0 77 -37 129q-39 55 -110 91q-70 36 -195 67l-172 45q-358 94 -358 369q0 127 80 227q78 97 211 150t288 53q160 0 277 -51
q118 -52 190 -148q72 -97 90 -221h-149q-21 142 -129 221q-109 80 -289 80q-118 0 -211 -37q-94 -37 -149 -104q-56 -68 -56 -156q0 -70 37 -119t109 -84q73 -36 184 -65l172 -45q192 -50 283 -141q92 -92 92 -230q0 -163 -88 -276q-86 -111 -238 -168q-148 -56 -327 -56
q-153 0 -279 60zM870 1686h-153l317 258h211z" />
    <glyph glyph-name="sacute" unicode="&#x15b;" horiz-adv-x="1046" 
d="M244 14l2 -2q-87 37 -144 115q-56 77 -65 188h141q12 -119 92 -178q77 -57 191 -57q92 0 160 26q67 26 110 78q41 50 41 117q0 51 -24 86t-74 59q-58 28 -133 50l-121 34q-260 73 -260 265q0 97 57 166q58 70 154 108q93 37 209 37q99 0 178 -33q86 -36 145 -98
q61 -64 82 -160h-141q-20 92 -99 143q-77 50 -180 50q-69 0 -131 -21t-98 -63q-37 -43 -37 -105q0 -51 25 -82q27 -34 69 -53q54 -24 119 -43l119 -35q142 -41 209 -108t67 -174q0 -108 -61 -187q-60 -78 -170 -119q-109 -41 -236 -41q-109 0 -196 37zM659 1247h-139
l314 305h194z" />
    <glyph glyph-name="Scircumflex" unicode="&#x15c;" horiz-adv-x="1396" 
d="M342 35l-20 -2q-123 58 -193 166q-71 109 -74 258h152q3 -119 59 -199t148 -121q93 -41 213 -41q127 0 237 37q113 38 183 117q69 78 69 194q0 77 -37 129q-39 55 -110 91q-70 36 -195 67l-172 45q-358 94 -358 369q0 127 80 227q78 97 211 150t288 53q160 0 277 -51
q118 -52 190 -148q72 -97 90 -221h-149q-21 142 -129 221q-109 80 -289 80q-118 0 -211 -37q-94 -37 -149 -104q-56 -68 -56 -156q0 -70 37 -119t109 -84q73 -36 184 -65l172 -45q192 -50 283 -141q92 -92 92 -230q0 -163 -88 -276q-86 -111 -238 -168q-148 -56 -327 -56
q-153 0 -279 60zM977 1944l213 -258h-117l-199 196l-268 -196h-139l317 258h193z" />
    <glyph glyph-name="scircumflex" unicode="&#x15d;" horiz-adv-x="1046" 
d="M244 14l2 -2q-87 37 -144 115q-56 77 -65 188h141q12 -119 92 -178q77 -57 191 -57q92 0 160 26q67 26 110 78q41 50 41 117q0 51 -24 86t-74 59q-58 28 -133 50l-121 34q-260 73 -260 265q0 97 57 166q58 70 154 108q93 37 209 37q99 0 178 -33q86 -36 145 -98
q61 -64 82 -160h-141q-20 92 -99 143q-77 50 -180 50q-69 0 -131 -21t-98 -63q-37 -43 -37 -105q0 -51 25 -82q27 -34 69 -53q54 -24 119 -43l119 -35q142 -41 209 -108t67 -174q0 -108 -61 -187q-60 -78 -170 -119q-109 -41 -236 -41q-109 0 -196 37zM766 1552l209 -305
h-117l-190 240l-283 -240h-137l338 305h180z" />
    <glyph glyph-name="Scedilla" unicode="&#x15e;" horiz-adv-x="1396" 
d="M901 848l-22 -4q189 -49 282 -142q92 -92 92 -229q0 -155 -79 -262q-78 -106 -216 -166q-136 -59 -301 -68l-14 -61q59 -9 98 -45t39 -90q0 -55 -30 -98q-31 -45 -82 -68q-55 -25 -119 -25h-96l18 86h76q58 0 94 25q33 23 33 72q0 36 -25 55q-24 18 -63 18h-51l28 131
q-145 9 -260 68q-114 58 -178 166q-65 109 -68 248h152q3 -119 59 -199t148 -121q93 -41 213 -41q127 0 237 37q113 38 183 117q69 78 69 194q0 77 -37 129q-39 55 -110 91q-70 36 -195 67l-172 45q-358 94 -358 369q0 127 80 227q78 97 211 150t288 53q160 0 277 -51
q118 -52 190 -148q72 -97 90 -221h-149q-21 142 -129 221q-109 80 -289 80q-118 0 -211 -37q-94 -37 -149 -104q-56 -68 -56 -156q0 -70 37 -119t109 -84q73 -36 184 -65z" />
    <glyph glyph-name="scedilla" unicode="&#x15f;" horiz-adv-x="1046" 
d="M629 608v-6q142 -41 209 -108t67 -175q0 -103 -59 -180q-58 -75 -160 -119q-98 -42 -227 -45l-13 -61q59 -9 99 -43q39 -33 39 -90q0 -51 -29 -98q-27 -44 -80 -68q-55 -25 -119 -25h-94l17 82h77q60 0 97 29q34 27 34 74q0 37 -24 55t-68 18h-51l29 132
q-140 18 -232 104q-91 85 -106 233h141q12 -119 92 -178q77 -57 191 -57q89 0 159 27t111 77t41 117q0 50 -25 86q-26 37 -73 60q-53 26 -133 49l-121 34q-260 73 -260 265q0 97 57 166q58 70 154 108q93 37 209 37q99 0 178 -33q86 -36 145 -98q61 -64 82 -160h-141
q-21 93 -99 144q-76 49 -180 49q-69 0 -131 -21t-98 -63q-37 -43 -37 -105q0 -51 25 -82q27 -34 69 -53q54 -24 119 -43z" />
    <glyph glyph-name="Scaron" unicode="&#x160;" horiz-adv-x="1396" 
d="M342 35l-20 -2q-123 58 -193 166q-71 109 -74 258h152q3 -119 59 -199t148 -121q93 -41 213 -41q127 0 237 37q113 38 183 117q69 78 69 194q0 77 -37 129q-39 55 -110 91q-70 36 -195 67l-172 45q-358 94 -358 369q0 127 80 227q78 97 211 150t288 53q160 0 277 -51
q118 -52 190 -148q72 -97 90 -221h-149q-21 142 -129 221q-109 80 -289 80q-118 0 -211 -37q-94 -37 -149 -104q-56 -68 -56 -156q0 -70 37 -119t109 -84q73 -36 184 -65l172 -45q192 -50 283 -141q92 -92 92 -230q0 -163 -88 -276q-86 -111 -238 -168q-148 -56 -327 -56
q-153 0 -279 60zM836 1745l266 199h139l-317 -258h-193l-213 258h117z" />
    <glyph glyph-name="scaron" unicode="&#x161;" horiz-adv-x="1046" 
d="M244 14l2 -2q-87 37 -144 115q-56 77 -65 188h141q12 -119 92 -178q77 -57 191 -57q92 0 160 26q67 26 110 78q41 50 41 117q0 51 -24 86t-74 59q-58 28 -133 50l-121 34q-260 73 -260 265q0 97 57 166q58 70 154 108q93 37 209 37q99 0 178 -33q86 -36 145 -98
q61 -64 82 -160h-141q-20 92 -99 143q-77 50 -180 50q-69 0 -131 -21t-98 -63q-37 -43 -37 -105q0 -51 25 -82q27 -34 69 -53q54 -24 119 -43l119 -35q142 -41 209 -108t67 -174q0 -108 -61 -187q-60 -78 -170 -119q-109 -41 -236 -41q-109 0 -196 37zM618 1315l285 237h135
l-336 -305h-182l-207 305h117z" />
    <glyph glyph-name="uni0162" unicode="&#x162;" horiz-adv-x="1271" 
d="M250 1556h1202l-27 -126h-530l-303 -1430h-143l303 1430h-531zM358 -401l56 258h153l-57 -269l-131 -161h-98l118 172h-41z" />
    <glyph glyph-name="uni0163" unicode="&#x163;" horiz-adv-x="739" 
d="M489 985l-147 -700q-8 -41 -8 -68q0 -59 37 -86t116 -27h115l-24 -104h-127q-77 0 -138 25q-57 24 -88 71q-30 46 -30 105q0 50 8 86l147 698h-239l22 105h240l55 258h139l-55 -258h301l-25 -105h-299zM209 -403l55 258h148l-58 -269l-129 -161h-94l119 172h-41z" />
    <glyph glyph-name="Tcaron" unicode="&#x164;" horiz-adv-x="1271" 
d="M250 1556h1202l-27 -126h-530l-303 -1430h-143l303 1430h-531zM877 1749l266 199h139l-317 -258h-193l-213 258h117z" />
    <glyph glyph-name="tcaron" unicode="&#x165;" horiz-adv-x="739" 
d="M489 985l-147 -700q-8 -41 -8 -68q0 -59 37 -86t116 -27h115l-24 -104h-127q-77 0 -138 25q-57 24 -88 71q-30 46 -30 105q0 50 8 86l147 698h-239l22 105h240l55 258h139l-55 -258h301l-25 -105h-299zM752 1186h-103l111 368h127z" />
    <glyph glyph-name="Tbar" unicode="&#x166;" horiz-adv-x="1337" 
d="M1483 1556l-27 -126h-528l-123 -580h403l-28 -125h-402l-153 -725h-144l154 725h-406l27 125h403l123 580h-528l27 126h1202z" />
    <glyph glyph-name="tbar" unicode="&#x167;" horiz-adv-x="739" 
d="M788 985l-299 -2l-57 -274h178l-14 -105h-186l-68 -319q-8 -41 -8 -68q0 -59 37 -86t116 -27h115l-24 -104h-127q-77 0 -138 25q-57 24 -88 71q-30 46 -30 105q0 50 8 86l67 319h-161l18 105h166l57 274h-239l22 105h240l55 258h139l-55 -258h301z" />
    <glyph glyph-name="Utilde" unicode="&#x168;" horiz-adv-x="1591" 
d="M416 31l-2 2q-115 53 -170 151q-56 100 -56 234q0 90 23 215l197 926h145l-203 -947q-20 -100 -20 -182q0 -166 94 -248t283 -82q228 0 366 129t197 394l198 936h144l-201 -943q-64 -307 -233 -473t-480 -166q-165 0 -282 54zM698 1731h-6q17 56 56 98q38 41 79 61
q44 21 91 21q76 0 147 -41q31 -17 57 -25q27 -8 60 -8q98 0 145 78h62q-17 -56 -56 -98t-80 -62t-88 -20q-76 0 -147 41q-60 32 -117 32q-94 0 -141 -77h-62z" />
    <glyph glyph-name="utilde" unicode="&#x169;" horiz-adv-x="1204" 
d="M1008 1090h133l-232 -1090h-139l47 219q-70 -117 -172 -178q-101 -61 -223 -61q-101 0 -164 38q-66 40 -104 111q-37 70 -37 166q0 65 12 117l145 678h138l-140 -656q-14 -60 -14 -119q0 -119 59 -178q57 -57 166 -57q85 0 164 43t137 125q61 86 84 196zM414 1307
q27 85 86 135q58 49 127 49q39 0 73 -12q29 -10 70 -33q56 -35 109 -35q95 0 145 86h55q-27 -85 -86 -135q-58 -49 -127 -49q-38 0 -73 12q-29 10 -70 33q-56 35 -109 35q-95 0 -145 -86h-55z" />
    <glyph glyph-name="Umacron" unicode="&#x16a;" horiz-adv-x="1591" 
d="M416 31l-2 2q-115 53 -170 151q-56 100 -56 234q0 90 23 215l197 926h145l-203 -947q-20 -100 -20 -182q0 -166 94 -248t283 -82q228 0 366 129t197 394l198 936h144l-201 -943q-64 -307 -233 -473t-480 -166q-165 0 -282 54zM1395 1765h-725l26 115h725z" />
    <glyph glyph-name="umacron" unicode="&#x16b;" horiz-adv-x="1204" 
d="M1008 1090h133l-232 -1090h-139l47 219q-70 -117 -172 -178q-101 -61 -223 -61q-101 0 -164 38q-66 40 -104 111q-37 70 -37 166q0 65 12 117l145 678h138l-140 -656q-14 -60 -14 -119q0 -119 59 -178q57 -57 166 -57q85 0 164 43t137 125q61 86 84 196zM1069 1343h-670
l23 103h670z" />
    <glyph glyph-name="Ubreve" unicode="&#x16c;" horiz-adv-x="1591" 
d="M416 31l-2 2q-115 53 -170 151q-56 100 -56 234q0 90 23 215l197 926h145l-203 -947q-20 -100 -20 -182q0 -166 94 -248t283 -82q228 0 366 129t197 394l198 936h144l-201 -943q-64 -307 -233 -473t-480 -166q-165 0 -282 54zM881 1708l-4 -2q-61 25 -91 72
q-30 46 -30 108q0 24 8 60h113q-7 -28 -7 -50q0 -57 41 -92t115 -35q86 0 148 50t77 131h115q-15 -79 -63 -138q-47 -58 -123 -94q-75 -35 -164 -35q-74 0 -135 25z" />
    <glyph glyph-name="ubreve" unicode="&#x16d;" horiz-adv-x="1204" 
d="M1008 1090h133l-232 -1090h-139l47 219q-70 -117 -172 -178q-101 -61 -223 -61q-101 0 -164 38q-66 40 -104 111q-37 70 -37 166q0 65 12 117l145 678h138l-140 -656q-14 -60 -14 -119q0 -119 59 -178q57 -57 166 -57q85 0 164 43t137 125q61 86 84 196zM578 1274l6 -2
q-56 27 -86 80q-31 54 -31 123q0 27 10 79h111q-8 -31 -8 -73q0 -138 149 -138q89 0 148 56q58 55 79 157h111q-18 -87 -68 -159q-50 -71 -122 -111q-74 -41 -166 -41q-73 0 -133 29z" />
    <glyph glyph-name="Uring" unicode="&#x16e;" horiz-adv-x="1591" 
d="M416 31l-2 2q-115 53 -170 151q-56 100 -56 234q0 90 23 215l197 926h145l-203 -947q-20 -100 -20 -182q0 -166 94 -248t283 -82q228 0 366 129t197 394l198 936h144l-201 -943q-64 -307 -233 -473t-480 -166q-165 0 -282 54zM932 1706v-4q-46 24 -74 72q-27 47 -27 110
q0 77 37 135q36 57 99 92q62 35 129 35q56 0 102 -24q48 -25 74 -70q28 -48 28 -110q0 -80 -36 -136q-36 -57 -99 -92q-59 -33 -129 -33q-56 0 -104 25zM1122 1796h-2q37 21 58 55q20 33 20 80q0 55 -33 84q-36 31 -80 31q-41 0 -79 -21q-37 -21 -58 -55q-20 -33 -20 -80
q0 -55 33 -84q35 -30 81 -30q44 0 80 20z" />
    <glyph glyph-name="uring" unicode="&#x16f;" horiz-adv-x="1204" 
d="M1008 1090h133l-232 -1090h-139l47 219q-70 -117 -172 -178q-101 -61 -223 -61q-101 0 -164 38q-66 40 -104 111q-37 70 -37 166q0 65 12 117l145 678h138l-140 -656q-14 -60 -14 -119q0 -119 59 -178q57 -57 166 -57q85 0 164 43t137 125q61 86 84 196zM645 1266h-2
q-45 22 -68 61q-24 41 -24 98q0 67 33 117q35 53 86 82q54 31 110 31q46 0 90 -21q45 -22 68 -61q25 -42 25 -98q0 -67 -33 -117q-35 -53 -86 -82q-54 -31 -111 -31q-45 0 -88 21zM831 1372h-4q37 37 37 92q0 47 -28 72t-68 25q-55 0 -92 -37t-37 -92q0 -47 31 -72t71 -25
q53 0 90 37z" />
    <glyph glyph-name="Uhungarumlaut" unicode="&#x170;" horiz-adv-x="1591" 
d="M416 31l-2 2q-115 53 -170 151q-56 100 -56 234q0 90 23 215l197 926h145l-203 -947q-20 -100 -20 -182q0 -166 94 -248t283 -82q228 0 366 129t197 394l198 936h144l-201 -943q-64 -307 -233 -473t-480 -166q-165 0 -282 54zM881 1692h-148l336 258h201zM1229 1692h-148
l336 258h201z" />
    <glyph glyph-name="uhungarumlaut" unicode="&#x171;" horiz-adv-x="1204" 
d="M1008 1090h133l-232 -1090h-139l47 219q-70 -117 -172 -178q-101 -61 -223 -61q-101 0 -164 38q-66 40 -104 111q-37 70 -37 166q0 65 12 117l145 678h138l-140 -656q-14 -60 -14 -119q0 -119 59 -178q57 -57 166 -57q85 0 164 43t137 125q61 86 84 196zM625 1251h-142
l324 305h180zM969 1251h-142l324 305h180z" />
    <glyph glyph-name="Uogonek" unicode="&#x172;" horiz-adv-x="1591" 
d="M1468 1556l140 -2l-201 -942q-82 -385 -320 -536q-120 -78 -190 -152q-63 -66 -63 -137q0 -92 116 -92h43l-22 -101h-51q-97 0 -156 44q-57 42 -57 116q0 123 161 238q-92 -15 -172 -15q-165 0 -282 54q-115 53 -170 151q-56 100 -56 234q0 90 23 215l197 925h145
l-203 -946q-20 -100 -20 -182q0 -166 94 -248t283 -82q228 0 366 129t197 394z" />
    <glyph glyph-name="uogonek" unicode="&#x173;" horiz-adv-x="1204" 
d="M913 0h-6q-114 -48 -170 -98q-59 -53 -59 -117q0 -47 33 -70q35 -24 92 -24h41l-21 -97h-53q-95 0 -154 44q-57 42 -57 118q0 145 211 244l47 219q-70 -117 -172 -178q-101 -61 -223 -61q-101 0 -164 38q-66 40 -104 111q-37 70 -37 166q0 65 12 117l145 678h138
l-140 -656q-14 -60 -14 -119q0 -119 59 -178q57 -57 166 -57q85 0 164 43t137 125q61 86 84 196l140 646h137z" />
    <glyph glyph-name="Wcircumflex" unicode="&#x174;" horiz-adv-x="2299" 
d="M498 0h-144l-100 1556h143zM666 0h-154l696 1556h154zM1544 0h-141l-27 1556h142zM1710 0h-151l770 1556h151zM1528 1948l213 -258h-117l-199 196l-268 -196h-139l317 258h193z" />
    <glyph glyph-name="wcircumflex" unicode="&#x175;" horiz-adv-x="1798" 
d="M371 0h-127l-86 1090h129zM522 0h-137l487 1090h136zM1176 0h-125l-29 1090h125zM1327 0h-137l543 1090h137zM1184 1556l209 -305h-117l-191 240l-282 -240h-137l338 305h180z" />
    <glyph glyph-name="Ycircumflex" unicode="&#x176;" horiz-adv-x="1343" 
d="M1391 1556h170l-795 -890l-139 -666h-146l146 688l-414 868h152l358 -747zM1038 1948l213 -258h-116l-199 196l-268 -196h-140l318 258h192z" />
    <glyph glyph-name="ycircumflex" unicode="&#x177;" horiz-adv-x="1120" 
d="M475 117h-133l-213 973h133zM332 -401h-148l877 1491h147zM827 1556l209 -305h-116l-191 240l-283 -240h-137l338 305h180z" />
    <glyph glyph-name="Ydieresis" unicode="&#x178;" horiz-adv-x="1343" 
d="M1391 1556h170l-795 -890l-139 -666h-146l146 688l-414 868h152l358 -747zM780 1690h-153l55 258h154zM1147 1690h-154l56 258h153z" />
    <glyph glyph-name="Zacute" unicode="&#x179;" horiz-adv-x="1363" 
d="M299 1556h1188l-37 -172l-1307 -1257h1078l-27 -127h-1237l37 172l1306 1258h-1028zM918 1690h-154l317 258h211z" />
    <glyph glyph-name="zacute" unicode="&#x17a;" horiz-adv-x="1009" 
d="M205 1090h819l-31 -146l-860 -840h729l-22 -104h-879l31 145l860 840h-670zM668 1251h-140l314 305h194z" />
    <glyph glyph-name="Zdotaccent" unicode="&#x17b;" horiz-adv-x="1363" 
d="M299 1556h1188l-37 -172l-1307 -1257h1078l-27 -127h-1237l37 172l1306 1258h-1028zM950 1690h-153l55 258h154z" />
    <glyph glyph-name="zdotaccent" unicode="&#x17c;" horiz-adv-x="1009" 
d="M205 1090h819l-31 -146l-860 -840h729l-22 -104h-879l31 145l860 840h-670zM702 1298h-147l55 258h148z" />
    <glyph glyph-name="Zcaron" unicode="&#x17d;" horiz-adv-x="1363" 
d="M299 1556h1188l-37 -172l-1307 -1257h1078l-27 -127h-1237l37 172l1306 1258h-1028zM881 1749l266 199h139l-317 -258h-193l-213 258h117z" />
    <glyph glyph-name="zcaron" unicode="&#x17e;" horiz-adv-x="1009" 
d="M205 1090h819l-31 -146l-860 -840h729l-22 -104h-879l31 145l860 840h-670zM627 1319l284 237h136l-336 -305h-183l-206 305h116z" />
    <glyph glyph-name="uni018F" unicode="&#x18f;" horiz-adv-x="1681" 
d="M1329 1503l-2 2q142 -77 221 -217q80 -142 80 -321q0 -266 -112 -490q-112 -225 -318 -362q-202 -135 -463 -135q-176 0 -313 73q-138 74 -215 209q-76 134 -76 313q0 52 10 130q7 58 25 137h1309q6 56 6 110q0 154 -66 271q-65 114 -176 176q-110 61 -248 61
q-197 0 -346 -94q-151 -95 -242 -270h-149q115 238 309 360q196 123 453 123q173 0 313 -76zM1075 180l-4 2q145 80 244 221q98 139 139 318h-1167q-11 -94 -11 -129q0 -148 58 -258q58 -111 166 -172q109 -62 252 -62q178 0 323 80z" />
    <glyph glyph-name="florin" unicode="&#x192;" horiz-adv-x="1187" 
d="M1321 1556l-29 -114h-139q-73 0 -125 -19q-50 -18 -86 -63q-35 -44 -63 -125l-117 -322h352l-22 -116h-373l-180 -498q-42 -114 -95 -176q-56 -65 -135 -92q-85 -29 -196 -29h-154l25 115h141q73 0 123 18q49 18 86 64q39 48 65 125l172 475h-331l24 116h350l125 345
q40 110 97 176q56 65 135 92q82 28 196 28h154z" />
    <glyph glyph-name="uni019D" unicode="&#x19d;" horiz-adv-x="1724" 
d="M242 0h-144l330 1556h143zM1237 0h-143l-508 1556h145zM1395 0h-144l330 1556h143zM-332 -401l27 127h131q108 0 170 41q61 40 82 141l20 92h144l-25 -119q-59 -282 -399 -282h-150z" />
    <glyph glyph-name="uni01B5" unicode="&#x1b5;" horiz-adv-x="1406" 
d="M319 1556h1188l-37 -172l-540 -520h413l-26 -125h-516l-637 -612h1077l-27 -127h-1237l37 172l590 567h-418l27 125h520l588 566h-1028z" />
    <glyph glyph-name="uni01B6" unicode="&#x1b6;" horiz-adv-x="1038" 
d="M217 1090h819l-30 -146l-332 -323h274l-22 -105h-359l-422 -412h729l-22 -104h-879l31 145l379 371h-254l23 105h340l372 364h-669z" />
    <glyph glyph-name="uni01E2" unicode="&#x1e2;" horiz-adv-x="2056" 
d="M2138 1556l-27 -126h-958l94 -562h727l-26 -127h-678l102 -614h479l-26 -127h-578l-84 502h-815l-297 -502h-160l928 1556h154l-549 -927h719l-156 927h1151zM1812 1763h-725l27 115h725z" />
    <glyph glyph-name="uni01E3" unicode="&#x1e3;" horiz-adv-x="1966" 
d="M995 510l-16 2q-4 -70 -4 -80q0 -114 37 -192t108 -119q68 -39 166 -39q127 0 221 61q97 63 152 176h141q-72 -165 -213 -253q-139 -86 -307 -86q-161 0 -270 83q-106 81 -144 228q-65 -139 -186 -223q-124 -86 -287 -86q-90 0 -168 34q-79 34 -125 101q-47 68 -47 157
q0 176 135 261q136 86 385 86h293l19 92q12 59 12 86q0 103 -57 157q-59 56 -185 56q-128 0 -211 -62q-82 -61 -112 -170h-142q27 108 99 183q70 73 168 110t209 37q145 0 231 -59q88 -60 117 -160q76 102 190 160q115 59 264 59q126 0 218 -51q94 -52 147 -148
q53 -95 53 -227q0 -83 -26 -174h-865zM1233 956q-91 -57 -148 -143q-59 -89 -86 -197h730q8 57 8 91q0 89 -37 159q-38 72 -105 109t-155 37q-118 0 -207 -56zM838 510l-250 -6q-206 0 -305 -51q-103 -53 -103 -174q0 -69 33 -113q36 -48 88 -68q58 -22 121 -22
q100 0 182 49q84 50 141 137q61 92 84 209zM1421 1337h-669l22 103h670z" />
    <glyph glyph-name="Gcaron" unicode="&#x1e6;" horiz-adv-x="1697" 
d="M827 686l23 123h743l-172 -811h-127l95 434q-50 -109 -138 -217q-85 -105 -211 -172q-127 -68 -288 -68q-172 0 -308 74q-135 74 -215 215q-79 140 -79 338q0 250 102 475q102 224 299 363q195 137 467 137q163 0 289 -57q131 -60 209 -168q80 -112 104 -271h-150
q-35 189 -155 281q-125 96 -318 96q-214 0 -372 -119q-164 -123 -244 -315q-84 -200 -84 -418q0 -165 63 -276q64 -114 175 -172q110 -58 253 -58q158 0 289 76t223 209q92 132 132 301h-605zM1022 1747l266 199h139l-317 -258h-192l-213 258h116z" />
    <glyph glyph-name="gcaron" unicode="&#x1e7;" horiz-adv-x="1296" 
d="M1104 1090l143 -3l-237 -1124q-40 -191 -185 -291q-143 -98 -356 -98q-127 0 -227 47q-98 46 -154 129t-65 187h143q9 -121 92 -189q82 -67 215 -67q162 0 266 79q106 80 133 222l58 270q-65 -109 -174 -178q-110 -70 -252 -70q-116 0 -205 51q-93 53 -145 152
q-54 102 -54 237q0 161 66 318q64 152 194 252q128 98 318 98q108 0 184 -49q77 -50 121 -127t53 -160zM801 186h-2q100 79 155 213q54 133 54 263q0 113 -37 188q-38 77 -107 117q-68 39 -166 39q-148 0 -252 -82q-102 -80 -155 -211q-51 -125 -51 -262q0 -115 36 -191
q36 -77 109 -119q68 -39 162 -39q147 0 254 84zM737 1317l285 237h135l-336 -305h-182l-207 305h117z" />
    <glyph glyph-name="uni01EA" unicode="&#x1ea;" horiz-adv-x="1710" 
d="M991 -76v-6q-63 -66 -63 -137q0 -92 116 -92h43l-22 -101h-51q-98 0 -156 43q-57 42 -57 117q0 126 170 246q-89 -21 -197 -21q-179 0 -321 74q-143 74 -222 215q-79 140 -79 342q0 252 104 475q105 226 305 361t471 135q182 0 324 -74q141 -74 221 -215q80 -142 80 -340
q0 -182 -55 -350t-164 -307q-107 -136 -262 -217q-119 -79 -185 -148zM360 319h-6q64 -114 178 -172q111 -57 259 -57q212 0 374 119q165 121 252 315q88 195 88 424q0 166 -63 277q-65 114 -174 172q-108 57 -256 57q-213 0 -375 -119q-165 -121 -252 -315
q-88 -195 -88 -424q0 -166 63 -277z" />
    <glyph glyph-name="uni01EB" unicode="&#x1eb;" horiz-adv-x="1224" 
d="M1061 324l-2 -9q-71 -161 -209 -252q-82 -54 -143 -102q-53 -42 -89 -90q-32 -43 -32 -92q0 -46 30 -70t91 -24h43l-21 -97h-55q-97 0 -152 43t-55 117q0 64 41 123q43 62 110 109q-58 -7 -98 -7q-117 0 -219 54q-99 53 -154 153q-55 101 -55 244q0 173 68 330
q67 156 207 256q137 98 338 98q123 0 219 -51q97 -52 153 -154q56 -103 56 -241q0 -176 -72 -338zM262 227l-2 -4q37 -76 109 -117q66 -38 161 -38q148 0 252 88q106 89 158 223q53 136 53 274q0 115 -39 189q-40 76 -110 116q-71 41 -160 41q-148 0 -252 -88
q-103 -87 -156 -223q-51 -131 -51 -272q0 -114 37 -189z" />
    <glyph glyph-name="AEacute" unicode="&#x1fc;" horiz-adv-x="2056" 
d="M2138 1556l-27 -126h-958l94 -562h727l-26 -127h-678l102 -614h479l-26 -127h-578l-84 502h-815l-297 -502h-160l928 1556h154l-549 -927h719l-156 927h1151zM1479 1690h-154l317 258h211z" />
    <glyph glyph-name="aeacute" unicode="&#x1fd;" horiz-adv-x="1966" 
d="M995 510l-16 2q-4 -70 -4 -80q0 -114 37 -192t108 -119q68 -39 166 -39q127 0 221 61q97 63 152 176h141q-72 -165 -213 -253q-139 -86 -307 -86q-161 0 -270 83q-106 81 -144 228q-65 -139 -186 -223q-124 -86 -287 -86q-90 0 -168 34q-79 34 -125 101q-47 68 -47 157
q0 176 135 261q136 86 385 86h293l19 92q12 59 12 86q0 103 -57 157q-59 56 -185 56q-128 0 -211 -62q-82 -61 -112 -170h-142q27 108 99 183q70 73 168 110t209 37q145 0 231 -59q88 -60 117 -160q76 102 190 160q115 59 264 59q126 0 218 -51q94 -52 147 -148
q53 -95 53 -227q0 -83 -26 -174h-865zM1233 956q-91 -57 -148 -143q-59 -89 -86 -197h730q8 57 8 91q0 89 -37 159q-38 72 -105 109t-155 37q-118 0 -207 -56zM838 510l-250 -6q-206 0 -305 -51q-103 -53 -103 -174q0 -69 33 -113q36 -48 88 -68q58 -22 121 -22
q100 0 182 49q84 50 141 137q61 92 84 209zM1116 1245h-139l313 305h195z" />
    <glyph glyph-name="Oslashacute" unicode="&#x1fe;" horiz-adv-x="1710" 
d="M1905 1556l-322 -278q76 -140 76 -332q0 -250 -105 -475q-103 -222 -305 -358q-201 -136 -471 -136q-146 0 -270 50q-122 49 -209 145l-199 -172h-196l323 279q-75 135 -75 329q0 252 104 475q105 226 305 361t471 135q149 0 271 -49q124 -50 206 -144l197 170h199z
M338 373l1063 919q-65 80 -166 123t-223 43q-213 0 -375 -119q-165 -121 -252 -315q-88 -195 -88 -424q0 -124 41 -227zM1466 1180l-1067 -920q65 -80 166 -123t228 -43q212 0 374 119q165 121 252 315q88 195 88 424q0 125 -41 228zM1114 1688h-153l317 258h211z" />
    <glyph glyph-name="oslashacute" unicode="&#x1ff;" horiz-adv-x="1224" 
d="M1327 1090l-242 -209q45 -91 45 -219q0 -175 -67 -330q-67 -156 -207 -256q-138 -99 -338 -99q-96 0 -180 35q-82 34 -141 99l-127 -111h-172l237 207q-45 91 -45 219q0 173 68 330q67 156 207 256q137 98 337 98q104 0 183 -33q84 -35 141 -98l127 111h174zM240 297
l686 596q-41 59 -103 86q-66 29 -139 29q-148 0 -252 -88q-102 -86 -156 -224q-51 -131 -51 -272q0 -60 15 -127zM975 786l-688 -596q42 -58 102 -84q64 -28 139 -28q148 0 252 88q106 89 158 223q53 136 53 275q0 60 -16 122zM780 1249h-139l313 305h195z" />
    <glyph glyph-name="uni0218" unicode="&#x218;" horiz-adv-x="1396" 
d="M342 35l-20 -2q-123 58 -193 166q-71 109 -74 258h152q3 -119 59 -199t148 -121q93 -41 213 -41q127 0 237 37q113 38 183 117q69 78 69 194q0 77 -37 129q-39 55 -110 91q-70 36 -195 67l-172 45q-358 94 -358 369q0 127 80 227q78 97 211 150t288 53q160 0 277 -51
q118 -52 190 -148q72 -97 90 -221h-149q-21 142 -129 221q-109 80 -289 80q-118 0 -211 -37q-94 -37 -149 -104q-56 -68 -56 -156q0 -70 37 -119t109 -84q73 -36 184 -65l172 -45q192 -50 283 -141q92 -92 92 -230q0 -163 -88 -276q-86 -111 -238 -168q-148 -56 -327 -56
q-153 0 -279 60zM459 -406l55 259h154l-58 -269l-131 -162h-98l119 172h-41z" />
    <glyph glyph-name="uni0219" unicode="&#x219;" horiz-adv-x="1046" 
d="M244 14l2 -2q-87 37 -144 115q-56 77 -65 188h141q12 -119 92 -178q77 -57 191 -57q92 0 160 26q67 26 110 78q41 50 41 117q0 51 -24 86t-74 59q-58 28 -133 50l-121 34q-260 73 -260 265q0 97 57 166q58 70 154 108q93 37 209 37q99 0 178 -33q86 -36 145 -98
q61 -64 82 -160h-141q-20 92 -99 143q-77 50 -180 50q-69 0 -131 -21t-98 -63q-37 -43 -37 -105q0 -51 25 -82q27 -34 69 -53q54 -24 119 -43l119 -35q142 -41 209 -108t67 -174q0 -108 -61 -187q-60 -78 -170 -119q-109 -41 -236 -41q-109 0 -196 37zM291 -406l55 259h148
l-58 -269l-129 -162h-94l119 172h-41z" />
    <glyph glyph-name="uni021A" unicode="&#x21a;" horiz-adv-x="1271" 
d="M250 1556h1202l-27 -126h-530l-303 -1430h-143l303 1430h-531zM358 -401l56 258h153l-57 -269l-131 -161h-98l118 172h-41z" />
    <glyph glyph-name="uni021B" unicode="&#x21b;" horiz-adv-x="739" 
d="M489 985l-147 -700q-8 -41 -8 -68q0 -59 37 -86t116 -27h115l-24 -104h-127q-77 0 -138 25q-57 24 -88 71q-30 46 -30 105q0 50 8 86l147 698h-239l22 105h240l55 258h139l-55 -258h301l-25 -105h-299zM209 -403l55 258h148l-58 -269l-129 -161h-94l119 172h-41z" />
    <glyph glyph-name="uni022E" unicode="&#x22e;" horiz-adv-x="1710" 
d="M453 51l-2 -4q-143 74 -222 215q-79 140 -79 342q0 252 104 475q105 226 305 361q199 135 471 135q182 0 324 -74q141 -74 221 -215q80 -142 80 -340q0 -250 -105 -475q-103 -222 -305 -358q-201 -136 -471 -136q-179 0 -321 74zM1167 213h-6q165 121 252 315
q88 195 88 424q0 166 -63 277q-65 114 -174 172q-108 57 -256 57q-213 0 -375 -119q-165 -121 -252 -315q-88 -195 -88 -424q0 -165 63 -276q64 -113 179 -172q113 -58 258 -58q212 0 374 119zM1141 1686h-154l55 258h154z" />
    <glyph glyph-name="uni022F" unicode="&#x22f;" horiz-adv-x="1224" 
d="M301 29v-4q-99 53 -154 153q-55 101 -55 244q0 173 68 330q67 156 207 256q137 98 338 98q123 0 219 -51q97 -52 153 -154q56 -103 56 -242q0 -172 -68 -329q-67 -156 -207 -256q-138 -99 -338 -99q-117 0 -219 54zM786 162l-2 -4q106 89 158 223q53 136 53 274
q0 115 -39 189q-41 77 -110 117q-70 40 -160 40q-148 0 -252 -88q-102 -86 -155 -223q-52 -134 -52 -272q0 -114 37 -189q36 -74 109 -116q68 -39 162 -39q147 0 251 88zM819 1288h-147l55 258h147z" />
    <glyph glyph-name="uni0232" unicode="&#x232;" horiz-adv-x="1343" 
d="M1391 1556h170l-795 -890l-139 -666h-146l146 688l-414 868h152l358 -747zM1266 1763h-725l26 115h725z" />
    <glyph glyph-name="uni0233" unicode="&#x233;" horiz-adv-x="1120" 
d="M475 117h-133l-213 973h133zM332 -401h-148l877 1491h147zM1026 1343h-670l23 103h670z" />
    <glyph glyph-name="uni0237" unicode="&#x237;" horiz-adv-x="487" 
d="M-254 -401l21 104h53q96 0 145 43q52 45 66 119l258 1227h139l-264 -1248q-24 -109 -111 -178q-85 -67 -219 -67h-88z" />
    <glyph glyph-name="uni0259" unicode="&#x259;" horiz-adv-x="1202" 
d="M897 1059l-8 -8q100 -53 158 -154q57 -99 57 -242q0 -172 -68 -329q-67 -156 -207 -256q-138 -99 -337 -99q-119 0 -216 54q-94 53 -147 147q-53 95 -53 227q0 83 26 174h865q4 70 4 80q0 115 -37 193q-37 79 -107 119q-71 41 -161 41q-127 0 -222 -62q-94 -61 -147 -176
h-143q77 170 215 256q139 86 307 86q125 0 221 -51zM707 125v-2q90 56 147 143q59 89 86 197h-727q-8 -39 -8 -90q0 -90 37 -160t104 -107q65 -36 158 -36q115 0 203 55z" />
    <glyph glyph-name="uni0272" unicode="&#x272;" horiz-adv-x="1212" 
d="M946 1073l4 2q73 -42 109 -110q37 -70 37 -166q0 -60 -13 -117l-143 -680h-139l141 655q12 62 12 121q0 115 -63 172q-66 60 -172 60q-83 0 -162 -43t-137 -125q-60 -85 -84 -197l-137 -647h-140l232 1089h139l-47 -223q72 120 172 183q103 65 225 65q98 0 166 -39z
M-250 -399l23 104h51q96 0 145 43t64 119l28 137h140l-35 -158q-24 -109 -111 -178q-85 -67 -219 -67h-86z" />
    <glyph glyph-name="circumflex" unicode="&#x2c6;" horiz-adv-x="841" 
d="M725 1556l209 -305h-117l-190 240l-283 -240h-137l338 305h180z" />
    <glyph glyph-name="caron" unicode="&#x2c7;" horiz-adv-x="841" 
d="M580 1319l284 237h135l-335 -305h-183l-207 305h117z" />
    <glyph glyph-name="breve" unicode="&#x2d8;" horiz-adv-x="710" 
d="M379 1274l6 -2q-56 27 -86 80q-31 54 -31 123q0 22 11 79h110q-8 -31 -8 -73q0 -138 149 -138q89 0 148 56t80 157h110q-18 -90 -67 -159q-49 -71 -123 -111q-74 -41 -166 -41q-73 0 -133 29z" />
    <glyph glyph-name="dotaccent" unicode="&#x2d9;" horiz-adv-x="264" 
d="M367 1298h-148l55 258h148z" />
    <glyph glyph-name="ring" unicode="&#x2da;" horiz-adv-x="526" 
d="M342 1266h-2q-45 22 -68 61q-24 41 -24 98q0 67 33 117q35 53 86 82q54 31 110 31q47 0 90 -21q45 -22 68 -61q24 -40 24 -98q0 -68 -32 -117q-35 -53 -86 -82q-54 -31 -111 -31q-44 0 -88 21zM528 1372h-4q37 37 37 92q0 46 -29 72q-28 25 -67 25q-55 0 -92 -37t-37 -92
q0 -47 31 -72t71 -25q53 0 90 37z" />
    <glyph glyph-name="ogonek" unicode="&#x2db;" horiz-adv-x="417" 
d="M104 -406h-2q-94 0 -153 44q-58 43 -58 118q0 145 211 244h140q-114 -48 -170 -98q-60 -54 -60 -117q0 -47 33 -70q35 -24 92 -24h41l-20 -97h-54z" />
    <glyph glyph-name="tilde" unicode="&#x2dc;" horiz-adv-x="739" 
d="M219 1307q27 85 86 135q58 49 127 49q40 0 74 -12q27 -9 69 -33q56 -35 109 -35q95 0 145 86h56q-27 -85 -86 -135q-58 -49 -127 -49q-40 0 -74 12q-29 10 -70 33q-56 35 -108 35q-96 0 -146 -86h-55z" />
    <glyph glyph-name="hungarumlaut" unicode="&#x2dd;" horiz-adv-x="897" 
d="M348 1251h-141l323 305h181zM692 1251h-141l323 305h181z" />
    <glyph glyph-name="gravecomb" unicode="&#x300;" horiz-adv-x="0" 
d="M92 1251h-129l-233 305h182z" />
    <glyph glyph-name="acutecomb" unicode="&#x301;" horiz-adv-x="0" 
d="M-211 1251h-139l313 305h195z" />
    <glyph glyph-name="uni0302" unicode="&#x302;" horiz-adv-x="0" 
d="M-117 1556l209 -305h-117l-190 240l-283 -240h-137l338 305h180z" />
    <glyph glyph-name="tildecomb" unicode="&#x303;" horiz-adv-x="0" 
d="M-520 1307q27 85 86 135q58 49 127 49q39 0 74 -12q27 -9 69 -33q56 -35 109 -35q95 0 145 86h55q-27 -85 -86 -135q-58 -49 -127 -49q-38 0 -73 12q-29 10 -70 33q-56 35 -108 35q-96 0 -146 -86h-55z" />
    <glyph glyph-name="uni0304" unicode="&#x304;" horiz-adv-x="0" 
d="M113 1343h-670l22 103h670z" />
    <glyph glyph-name="uni0306" unicode="&#x306;" horiz-adv-x="0" 
d="M-332 1274l6 -2q-56 27 -86 80q-30 52 -30 123q0 27 10 79h110q-8 -31 -8 -73q0 -138 150 -138q88 0 147 56t80 157h111q-18 -87 -68 -159q-50 -71 -123 -111q-74 -41 -166 -41q-73 0 -133 29z" />
    <glyph glyph-name="uni0307" unicode="&#x307;" horiz-adv-x="0" 
d="M102 1298h-147l55 258h148z" />
    <glyph glyph-name="uni0308" unicode="&#x308;" horiz-adv-x="0" 
d="M-283 1298h-147l55 258h148zM102 1298h-147l55 258h148z" />
    <glyph glyph-name="uni030A" unicode="&#x30a;" horiz-adv-x="0" 
d="M-184 1266h-2q-45 22 -68 61q-25 42 -25 98q0 67 33 117q35 53 86 82q54 31 111 31q47 0 90 -21q45 -22 68 -61q24 -40 24 -98q0 -67 -33 -117q-35 -53 -86 -82q-54 -31 -110 -31q-44 0 -88 21zM2 1372h-4q37 37 37 92q0 46 -29 72q-28 25 -67 25q-56 0 -93 -37
q-36 -36 -36 -92q0 -48 30 -72q31 -25 72 -25q53 0 90 37z" />
    <glyph glyph-name="uni030B" unicode="&#x30b;" horiz-adv-x="0" 
d="M-549 1251h-141l323 305h181zM-205 1251h-141l323 305h181z" />
    <glyph glyph-name="uni030C" unicode="&#x30c;" horiz-adv-x="0" 
d="M-262 1319l285 237h135l-336 -305h-182l-207 305h116z" />
    <glyph glyph-name="uni0312" unicode="&#x312;" horiz-adv-x="0" 
d="M141 1729h95l-119 -173h41l-56 -258h-147l57 269z" />
    <glyph glyph-name="dotbelowcomb" unicode="&#x323;" horiz-adv-x="0" 
d="M-260 -401h-148l56 258h147z" />
    <glyph glyph-name="uni0326" unicode="&#x326;" horiz-adv-x="0" 
d="M-408 -401l56 258h147l-57 -269l-129 -161h-94l118 172h-41z" />
    <glyph glyph-name="uni0327" unicode="&#x327;" horiz-adv-x="0" 
d="M-358 -84h-4q58 -9 98 -43q39 -33 39 -90q0 -51 -29 -98q-27 -44 -80 -68q-55 -25 -119 -25h-94l17 82h77q60 0 97 29q34 27 34 74q0 37 -24 55t-68 18h-51l33 150h90z" />
    <glyph glyph-name="uni0328" unicode="&#x328;" horiz-adv-x="0" 
d="M-313 -406h-2q-95 0 -154 44q-57 42 -57 118q0 145 211 244h139q-114 -48 -170 -98q-60 -54 -60 -117q0 -47 33 -70q34 -24 92 -24h41l-20 -97h-53z" />
    <glyph glyph-name="uni0335" unicode="&#x335;" horiz-adv-x="0" 
d="M-553 1278h-487l18 104h483z" />
    <glyph glyph-name="uni0336" unicode="&#x336;" horiz-adv-x="0" 
d="M66 1130h-1610l26 123h1610z" />
    <glyph glyph-name="uni0337" unicode="&#x337;" horiz-adv-x="0" 
d="M12 872l-524 -309l31 142l522 307z" />
    <glyph glyph-name="uni0338" unicode="&#x338;" horiz-adv-x="0" 
d="M-1198 0h-172l1255 1090h174z" />
    <glyph glyph-name="uni0394" unicode="&#x394;" horiz-adv-x="1519" 
d="M987 1556h143l265 -1556h-1504l928 1556h154l-848 -1429h1102z" />
    <glyph glyph-name="uni03A9" unicode="&#x3a9;" horiz-adv-x="1728" 
d="M1610 662l-6 -7q-76 -148 -232 -280q-155 -130 -389 -252h524l-26 -127h-625l37 172q222 122 362 246q139 124 209 264t70 315q0 145 -66 252q-65 105 -176 158q-112 53 -245 53q-202 0 -371 -96q-166 -94 -258 -262q-92 -167 -92 -369q0 -158 84 -295q82 -135 264 -264
l-37 -172h-623l27 127h528q-186 127 -290 281q-99 147 -99 323q0 237 117 430t319 307q201 113 453 113q171 0 313 -68q143 -68 224 -198q82 -131 82 -320q0 -178 -78 -331z" />
    <glyph glyph-name="uni03BC" unicode="&#x3bc;" horiz-adv-x="1267" 
d="M1055 104h80l-23 -104h-96q-95 0 -144 37t-49 115q0 10 4 34q1 4 3.5 17.5t3.5 21.5q-70 -120 -172 -184q-101 -64 -228 -64q-70 0 -129 27q-58 27 -92 76l-102 -481h-140l316 1491h139l-139 -656q-15 -64 -15 -119q0 -118 60 -178q57 -57 166 -57q85 0 164 43t137 125
q61 86 84 196l137 646h139l-186 -875q-4 -24 -4 -45q0 -66 86 -66z" />
    <glyph glyph-name="pi" unicode="&#x3c0;" horiz-adv-x="1296" 
d="M1098 985l-146 -700q-8 -27 -8 -68q0 -59 37 -86t117 -27h26l-22 -104h-43q-76 0 -137 25q-57 24 -88 71q-31 48 -31 105q0 50 8 86l147 698h-487l-211 -985h-137l209 985h-213l22 105h1194l-22 -105h-215z" />
    <glyph glyph-name="uni0E3F" unicode="&#xe3f;" horiz-adv-x="1402" 
d="M1079 748l-6 2q84 -44 133 -117t49 -170q0 -114 -61 -215q-61 -102 -201 -170q-137 -67 -356 -76l-57 -268h-131l57 268h-402l330 1557h402l55 258h131l-55 -263q129 -12 209 -63q81 -52 122 -129t41 -166q0 -121 -63 -205q-64 -84 -166 -131q-101 -46 -215 -61
q105 -9 184 -51zM805 1442h-260l-123 -582h260zM1161 1300l-2 -2q-30 56 -88 93q-60 38 -137 47l-123 -576q127 9 213 56q87 47 127 114q41 68 41 148q0 63 -31 120zM395 741l-133 -628h260l133 628h-260zM653 115l2 2q172 9 271 63q98 53 143 133q43 76 43 158
q0 71 -37 129q-38 59 -110 96t-179 43z" />
    <glyph glyph-name="Wgrave" unicode="&#x1e80;" horiz-adv-x="2299" 
d="M498 0h-144l-100 1556h143zM666 0h-154l696 1556h154zM1544 0h-141l-27 1556h142zM1710 0h-151l770 1556h151zM1448 1690h-127l-262 258h180z" />
    <glyph glyph-name="wgrave" unicode="&#x1e81;" horiz-adv-x="1798" 
d="M371 0h-127l-86 1090h129zM522 0h-137l487 1090h136zM1176 0h-125l-29 1090h125zM1327 0h-137l543 1090h137zM1090 1251h-129l-234 305h182z" />
    <glyph glyph-name="Wacute" unicode="&#x1e82;" horiz-adv-x="2299" 
d="M498 0h-144l-100 1556h143zM666 0h-154l696 1556h154zM1544 0h-141l-27 1556h142zM1710 0h-151l770 1556h151zM1470 1690h-153l317 258h211z" />
    <glyph glyph-name="wacute" unicode="&#x1e83;" horiz-adv-x="1798" 
d="M371 0h-127l-86 1090h129zM522 0h-137l487 1090h136zM1176 0h-125l-29 1090h125zM1327 0h-137l543 1090h137zM1124 1251h-139l313 305h195z" />
    <glyph glyph-name="Wdieresis" unicode="&#x1e84;" horiz-adv-x="2299" 
d="M498 0h-144l-100 1556h143zM666 0h-154l696 1556h154zM1544 0h-141l-27 1556h142zM1710 0h-151l770 1556h151zM1270 1690h-154l55 258h154zM1636 1690h-153l55 258h154z" />
    <glyph glyph-name="wdieresis" unicode="&#x1e85;" horiz-adv-x="1798" 
d="M371 0h-127l-86 1090h129zM522 0h-137l487 1090h136zM1176 0h-125l-29 1090h125zM1327 0h-137l543 1090h137zM905 1298h-147l55 258h148zM1290 1298h-147l55 258h148z" />
    <glyph glyph-name="uni1E9E" unicode="&#x1e9e;" horiz-adv-x="1558" 
d="M1505 1556l-43 -159l-469 -445q132 -12 238 -65q104 -52 164 -146q59 -92 59 -213q0 -163 -80 -290q-79 -125 -221 -193t-315 -68q-147 0 -289 48l24 125q59 -27 123 -39q70 -13 142 -13q138 0 245 52q108 53 166 143q60 94 60 213q0 111 -54 190q-53 78 -147 115
q-93 37 -221 37h-58l31 141l465 441h-780l-303 -1430h-144l330 1556h1077z" />
    <glyph glyph-name="uni1EA0" unicode="&#x1ea0;" horiz-adv-x="1519" 
d="M1395 0h-148l-84 502h-815l-297 -502h-160l928 1556h154l-549 -927h719l-156 927h143zM651 -401h-153l55 258h154z" />
    <glyph glyph-name="uni1EA1" unicode="&#x1ea1;" horiz-adv-x="1159" 
d="M870 1075l-4 2q86 -39 127 -106q43 -70 43 -166q0 -51 -10 -103l-149 -702h-138l52 246q-33 -68 -93 -131q-56 -59 -139 -101q-77 -39 -172 -39q-87 0 -160 37q-70 36 -118 105q-46 67 -46 157q0 118 58 191q59 74 168 117q110 43 284 61l312 33l8 35q10 55 10 88
q0 215 -244 215q-130 0 -210 -62q-81 -63 -111 -170h-143q31 111 100 183q68 71 166 110q93 37 209 37q119 0 200 -37zM616 125l-4 4q85 54 142 143q59 93 86 211l20 95l-250 -27q-132 -15 -225 -43q-89 -27 -139 -80q-49 -52 -49 -135q0 -72 34 -121q35 -51 86 -74
q53 -24 115 -24q104 0 184 51zM467 -395h-148l56 258h147z" />
    <glyph glyph-name="uni1EB8" unicode="&#x1eb8;" horiz-adv-x="1327" 
d="M1409 1556l-27 -126h-835l-119 -562h819l-26 -127h-822l-131 -614h854l-26 -127h-998l330 1556h981zM602 -401h-153l55 258h153z" />
    <glyph glyph-name="uni1EB9" unicode="&#x1eb9;" horiz-adv-x="1202" 
d="M231 510l5 -2q-1 -13 -2 -31t-2 -29.5t-1 -19.5q0 -114 37 -192q36 -77 109 -119q68 -39 162 -39q127 0 221 61t147 176h144q-76 -168 -215 -254t-308 -86q-119 0 -221 54q-97 51 -155 153q-58 101 -58 244q0 173 68 330q67 156 207 256q137 98 338 98q123 0 215 -51
q94 -52 147 -148q53 -95 53 -227q0 -83 -26 -174h-865zM489 952h-2q-90 -56 -147 -143q-59 -89 -86 -197h727q8 39 8 90q0 90 -37 160q-39 73 -104 109q-67 37 -156 37q-114 0 -203 -56zM514 -406h-147l55 259h147z" />
    <glyph glyph-name="uni1EBC" unicode="&#x1ebc;" horiz-adv-x="1327" 
d="M1409 1556l-27 -126h-835l-119 -562h819l-26 -127h-822l-131 -614h854l-26 -127h-998l330 1556h981zM616 1729h-6q17 56 56 98q38 41 79 61q43 21 91 21q76 0 147 -41q31 -17 57 -25q27 -8 60 -8q98 0 145 78h62q-17 -56 -56 -98t-80 -62t-88 -20q-76 0 -147 41
q-60 32 -117 32q-94 0 -141 -77h-62z" />
    <glyph glyph-name="uni1EBD" unicode="&#x1ebd;" horiz-adv-x="1202" 
d="M231 510l5 -2q-1 -13 -2 -31t-2 -29.5t-1 -19.5q0 -114 37 -192q36 -77 109 -119q68 -39 162 -39q127 0 221 61t147 176h144q-76 -168 -215 -254t-308 -86q-119 0 -221 54q-97 51 -155 153q-58 101 -58 244q0 173 68 330q67 156 207 256q137 98 338 98q123 0 215 -51
q94 -52 147 -148q53 -95 53 -227q0 -83 -26 -174h-865zM489 952h-2q-90 -56 -147 -143q-59 -89 -86 -197h727q8 39 8 90q0 90 -37 160q-39 73 -104 109q-67 37 -156 37q-114 0 -203 -56zM416 1303q27 85 86 135q58 49 127 49q39 0 73 -12q29 -10 70 -33q56 -35 109 -35
q95 0 145 86h55q-27 -85 -86 -135q-58 -49 -127 -49q-39 0 -73 12q-29 10 -70 33q-56 35 -109 35q-95 0 -145 -86h-55z" />
    <glyph glyph-name="uni1ECA" unicode="&#x1eca;" horiz-adv-x="571" 
d="M242 0h-144l330 1556h143zM162 -401h-154l55 258h154z" />
    <glyph glyph-name="uni1ECB" unicode="&#x1ecb;" horiz-adv-x="487" 
d="M197 0h-140l232 1090h139zM477 1298h-147l55 258h147zM115 -401h-148l56 258h147z" />
    <glyph glyph-name="uni1ECC" unicode="&#x1ecc;" horiz-adv-x="1710" 
d="M453 51l-2 -4q-143 74 -222 215q-79 140 -79 342q0 252 104 475q105 226 305 361q199 135 471 135q182 0 324 -74q141 -74 221 -215q80 -142 80 -340q0 -250 -105 -475q-103 -222 -305 -358q-201 -136 -471 -136q-179 0 -321 74zM1167 213h-6q165 121 252 315
q88 195 88 424q0 166 -63 277q-65 114 -174 172q-108 57 -256 57q-213 0 -375 -119q-165 -121 -252 -315q-88 -195 -88 -424q0 -165 63 -276q64 -113 179 -172q113 -58 258 -58q212 0 374 119zM758 -406h-154l55 259h154z" />
    <glyph glyph-name="uni1ECD" unicode="&#x1ecd;" horiz-adv-x="1224" 
d="M301 29v-4q-99 53 -154 153q-55 101 -55 244q0 173 68 330q67 156 207 256q137 98 338 98q123 0 219 -51q97 -52 153 -154q56 -103 56 -242q0 -172 -68 -329q-67 -156 -207 -256q-138 -99 -338 -99q-117 0 -219 54zM786 162l-2 -4q106 89 158 223q53 136 53 274
q0 115 -39 189q-41 77 -110 117q-70 40 -160 40q-148 0 -252 -88q-102 -86 -155 -223q-52 -134 -52 -272q0 -114 37 -189q36 -74 109 -116q68 -39 162 -39q147 0 251 88zM512 -412h-147l55 258h147z" />
    <glyph glyph-name="uni1EE4" unicode="&#x1ee4;" horiz-adv-x="1591" 
d="M416 31l-2 2q-115 53 -170 151q-56 100 -56 234q0 90 23 215l197 926h145l-203 -947q-20 -100 -20 -182q0 -166 94 -248t283 -82q228 0 366 129t197 394l198 936h144l-201 -943q-64 -307 -233 -473t-480 -166q-165 0 -282 54zM680 -399h-154l56 258h153z" />
    <glyph glyph-name="uni1EE5" unicode="&#x1ee5;" horiz-adv-x="1204" 
d="M1008 1090h133l-232 -1090h-139l47 219q-70 -117 -172 -178q-101 -61 -223 -61q-101 0 -164 38q-66 40 -104 111q-37 70 -37 166q0 65 12 117l145 678h138l-140 -656q-14 -60 -14 -119q0 -119 59 -178q57 -57 166 -57q85 0 164 43t137 125q61 86 84 196zM461 -401h-148
l56 258h147z" />
    <glyph glyph-name="Ygrave" unicode="&#x1ef2;" horiz-adv-x="1343" 
d="M1391 1556h170l-795 -890l-139 -666h-146l146 688l-414 868h152l358 -747zM977 1690h-127l-262 258h180z" />
    <glyph glyph-name="ygrave" unicode="&#x1ef3;" horiz-adv-x="1120" 
d="M475 117h-133l-213 973h133zM332 -401h-148l877 1491h147zM748 1251h-130l-233 305h182z" />
    <glyph glyph-name="uni1EF8" unicode="&#x1ef8;" horiz-adv-x="1343" 
d="M1391 1556h170l-795 -890l-139 -666h-146l146 688l-414 868h152l358 -747zM569 1729h-6q18 58 55 98t80 61q44 21 90 21q77 0 148 -41q31 -17 57 -25q27 -8 60 -8q98 0 145 78h62q-17 -56 -56 -98t-80 -62t-88 -20q-76 0 -147 41q-60 32 -117 32q-94 0 -141 -77h-62z" />
    <glyph glyph-name="uni1EF9" unicode="&#x1ef9;" horiz-adv-x="1120" 
d="M475 117h-133l-213 973h133zM332 -401h-148l877 1491h147zM371 1307q27 85 86 135q58 49 127 49q38 0 73 -12q29 -10 70 -33q56 -35 109 -35q95 0 145 86h55q-27 -85 -86 -135q-58 -49 -127 -49q-39 0 -73 12q-29 10 -70 33q-56 35 -109 35q-95 0 -145 -86h-55z" />
    <glyph glyph-name="uni2009" unicode="&#x2009;" horiz-adv-x="256" 
 />
    <glyph glyph-name="uni2011" unicode="&#x2011;" horiz-adv-x="882" 
d="M754 520h-635l22 113h635z" />
    <glyph glyph-name="endash" unicode="&#x2013;" horiz-adv-x="1114" 
d="M985 520h-866l22 113h867z" />
    <glyph glyph-name="emdash" unicode="&#x2014;" horiz-adv-x="1712" 
d="M1583 520h-1464l22 113h1465z" />
    <glyph glyph-name="quoteleft" unicode="&#x2018;" horiz-adv-x="462" 
d="M479 1556h103l-179 -264h50l-52 -239h-163l55 260z" />
    <glyph glyph-name="quoteright" unicode="&#x2019;" horiz-adv-x="460" 
d="M344 1317l51 239h162l-55 -260l-187 -243h-102l178 264h-47z" />
    <glyph glyph-name="quotesinglbase" unicode="&#x201a;" horiz-adv-x="495" 
d="M51 0l51 240h162l-55 -260l-186 -244h-103l178 264h-47z" />
    <glyph glyph-name="quotedblleft" unicode="&#x201c;" horiz-adv-x="794" 
d="M463 1556h102l-178 -264h47l-51 -239h-162l55 260zM795 1556h102l-178 -264h49l-51 -239h-164l55 260z" />
    <glyph glyph-name="quotedblright" unicode="&#x201d;" horiz-adv-x="794" 
d="M694 1317l51 239h162l-55 -260l-186 -243h-103l178 264h-47zM362 1317l52 239h161l-55 -260l-186 -243h-103l179 264h-48z" />
    <glyph glyph-name="quotedblbase" unicode="&#x201e;" horiz-adv-x="827" 
d="M383 0l51 240h162l-55 -260l-187 -244h-102l178 264h-47zM51 0l51 240h162l-55 -260l-186 -244h-103l178 264h-47z" />
    <glyph glyph-name="dagger" unicode="&#x2020;" horiz-adv-x="1224" 
d="M801 1104h418l-25 -113h-418l-211 -991h-137l211 991h-420l23 113h420l96 452h139z" />
    <glyph glyph-name="daggerdbl" unicode="&#x2021;" horiz-adv-x="1224" 
d="M1219 1104l-23 -113h-418l-76 -354h418l-24 -111h-418l-111 -526h-139l113 526h-420l22 111h420l76 354h-420l25 113h420l96 452h137l-96 -452h418z" />
    <glyph glyph-name="bullet" unicode="&#x2022;" horiz-adv-x="798" 
d="M303 408l-6 -5q-47 27 -74 74q-26 45 -26 103q0 54 28 102q27 47 74 74q48 28 102 28q58 0 103 -26q47 -27 74 -74q28 -48 28 -102q0 -58 -26 -103t-74 -73q-46 -27 -103 -27q-50 0 -100 29z" />
    <glyph glyph-name="ellipsis" unicode="&#x2026;" horiz-adv-x="1486" 
d="M213 0h-162l51 240h162zM709 0h-162l51 240h162zM1204 0h-162l52 240h161z" />
    <glyph glyph-name="perthousand" unicode="&#x2030;" horiz-adv-x="2463" 
d="M834 999l-3 2q-44 -131 -137 -215q-95 -86 -233 -86q-123 0 -197 80t-74 238q0 136 43 264q43 129 140 213q96 84 233 84q123 0 197 -80t74 -237q0 -135 -43 -263zM330 2l1196 1557h145l-1196 -1557h-145zM348 846l-2 -6q47 -56 123 -56q94 0 160 78t96 189
q31 115 31 211q0 116 -45 170q-46 55 -123 55q-96 0 -160 -76t-94 -186q-31 -115 -31 -211q0 -114 45 -168zM2288 770h-4q73 -79 73 -238q0 -134 -43 -262q-44 -131 -137 -215q-95 -86 -233 -86q-85 0 -150 45q-68 47 -98 129q-52 -83 -129 -129q-74 -45 -172 -45
q-123 0 -197 80t-74 238q0 136 43 264q43 129 140 213q96 84 233 84q85 0 150 -45t100 -129q52 82 129 129t172 47q123 0 197 -80zM1563 137l-2 -4q66 78 96 189q31 115 31 210q0 113 -46 168q-47 56 -122 56q-96 0 -160 -76q-67 -80 -96 -186q-31 -115 -31 -211
q0 -114 45 -168q47 -56 125 -56q94 0 160 78zM2111 133l3 -2q67 79 96 188q31 115 31 211q0 113 -46 168q-47 56 -122 56q-108 0 -179 -99q-71 -100 -98 -237l-6 -29q-8 -47 -8 -110q0 -114 45 -168q47 -56 125 -56q93 0 159 78z" />
    <glyph glyph-name="minute" unicode="&#x2032;" horiz-adv-x="436" 
d="M332 1036h-107l181 520h149z" />
    <glyph glyph-name="second" unicode="&#x2033;" horiz-adv-x="714" 
d="M332 1036h-107l181 520h149zM610 1036h-106l180 520h150z" />
    <glyph glyph-name="guilsinglleft" unicode="&#x2039;" horiz-adv-x="739" 
d="M571 1010h174l-479 -463l262 -457h-151l-271 471z" />
    <glyph glyph-name="guilsinglright" unicode="&#x203a;" horiz-adv-x="739" 
d="M213 1010h152l270 -471l-465 -449h-174l479 463z" />
    <glyph glyph-name="uni2042" unicode="&#x2042;" horiz-adv-x="1771" 
d="M1296 1282l11 -94l-308 -33l134 -291l-91 -39l-133 291l-237 -211l-66 70l240 215l-266 151l47 84l268 -155l61 291l95 -21l-62 -291zM741 432l11 -94l-308 -33l134 -291l-91 -39l-133 291l-237 -211l-66 70l240 215l-266 152l47 83l268 -155l61 291l95 -21l-62 -291z
M1704 432l10 -94l-307 -33l133 -291l-90 -39l-133 291l-238 -211l-65 70l239 215l-266 152l47 83l269 -155l61 291l94 -21l-61 -291z" />
    <glyph glyph-name="fraction" unicode="&#x2044;" horiz-adv-x="315" 
d="M-336 0h-145l1229 1556h145z" />
    <glyph glyph-name="uni2070" unicode="&#x2070;" horiz-adv-x="729" 
d="M348 1022v-4q-57 29 -92 98q-33 65 -33 164q0 121 41 242q40 118 127 196t215 78q69 0 129 -31q57 -29 92 -98q33 -65 33 -162q0 -120 -41 -241q-40 -119 -127 -197q-85 -76 -215 -76q-69 0 -129 31zM631 1145l-2 4q59 71 86 170q28 103 28 188q0 104 -38 150
q-40 49 -107 49q-83 0 -141 -70q-59 -72 -86 -172q-27 -102 -27 -190q0 -100 41 -150q40 -49 104 -49q84 0 142 70z" />
    <glyph glyph-name="uni2074" unicode="&#x2074;" horiz-adv-x="702" 
d="M719 1321h115l-21 -92h-115l-47 -223h-119l48 223h-410l27 121l385 434h235zM698 1780l-405 -459h307z" />
    <glyph glyph-name="uni2075" unicode="&#x2075;" horiz-adv-x="710" 
d="M854 1692l-399 -4l-84 -279q33 51 96 86q62 35 131 35q55 0 107 -25q49 -24 79 -73q31 -51 31 -117q0 -89 -43 -162q-44 -73 -123 -117q-79 -43 -180 -43q-116 0 -190 62q-73 61 -82 164h118q3 -61 50 -99q46 -37 116 -37q58 0 109 31t78 80q28 51 28 109q0 71 -43 108
t-110 37q-64 0 -115 -31t-80 -82l-115 11l134 438h505z" />
    <glyph glyph-name="uni2076" unicode="&#x2076;" horiz-adv-x="722" 
d="M719 1491l-10 -4q50 -30 77 -80q27 -49 27 -107q0 -83 -43 -153q-45 -73 -119 -115q-76 -43 -172 -43q-69 0 -129 31q-58 30 -96 92q-37 61 -37 158q0 140 53 264q53 125 144 195q92 71 204 71q102 0 166 -55q65 -56 86 -148h-118q-9 54 -47 84q-39 31 -95 31
q-67 0 -121 -45q-52 -44 -94 -129q-39 -79 -51 -190q35 81 102 127q68 47 152 47q70 0 121 -31zM592 1108h-6q48 29 76 80q26 48 26 102q0 56 -37 96q-38 41 -106 41q-65 0 -115 -30q-49 -30 -76 -76q-26 -45 -26 -88q0 -76 45 -115q47 -41 112 -41q56 0 107 31z" />
    <glyph glyph-name="uni2077" unicode="&#x2077;" horiz-adv-x="565" 
d="M264 1692l21 92h520l-27 -121l-473 -657h-145l506 686h-402z" />
    <glyph glyph-name="uni2078" unicode="&#x2078;" horiz-adv-x="724" 
d="M770 1354h-10q49 -46 49 -111q0 -67 -43 -125q-42 -56 -121 -92q-73 -33 -178 -33q-76 0 -143 25q-63 23 -101 74q-37 49 -37 110q0 91 72 148q71 56 176 71q-64 20 -104 60q-37 37 -37 98q0 56 39 107q42 54 110 83q73 31 166 31q78 0 137 -24t89 -68t30 -94
q0 -80 -57 -131q-59 -53 -154 -68q68 -15 117 -61zM487 1688l5 2q-42 -20 -64 -56q-20 -33 -20 -67q0 -51 36 -80q39 -31 107 -31q91 0 141 41q49 40 49 102q0 49 -39 78q-42 31 -110 31q-64 0 -105 -20zM588 1106l-4 -2q52 22 78 61q28 42 28 86q0 54 -49 88
q-47 33 -113 33q-100 0 -161 -43q-62 -44 -62 -115q0 -63 47 -98q44 -33 121 -33q61 0 115 23z" />
    <glyph glyph-name="uni2079" unicode="&#x2079;" horiz-adv-x="714" 
d="M719 1767l-6 2q58 -30 96 -92q37 -61 37 -155q0 -146 -51 -265q-52 -121 -144 -192q-93 -72 -205 -72q-101 0 -165 58t-82 147h116q12 -51 50 -82q39 -31 96 -31q66 0 121 43q56 44 96 123q38 76 51 185q-38 -78 -104 -123q-65 -45 -150 -45q-69 0 -119 30q-47 28 -75 80
q-27 49 -27 109q0 83 43 153q44 71 121 115q76 43 172 43q69 0 129 -31zM627 1389v-7q52 32 78 76q28 48 28 90q0 76 -45 115q-47 41 -113 41q-55 0 -106 -31q-48 -29 -76 -80q-26 -48 -26 -102q0 -55 36 -94t109 -39q64 0 115 31z" />
    <glyph glyph-name="uni207A" unicode="&#x207a;" horiz-adv-x="671" 
d="M569 1425h230l-19 -86h-227l-51 -237h-92l51 237h-232l19 86h229l49 228h92z" />
    <glyph glyph-name="uni207B" unicode="&#x207b;" horiz-adv-x="649" 
d="M737 1339h-493l18 86h494z" />
    <glyph glyph-name="uni207C" unicode="&#x207c;" horiz-adv-x="671" 
d="M778 1446h-508l19 86h508zM731 1233h-506l19 86h506z" />
    <glyph glyph-name="uni207D" unicode="&#x207d;" horiz-adv-x="434" 
d="M332 901l-4 2q-78 173 -78 344q0 169 74 326q75 159 211 307h124q-141 -156 -215 -313q-73 -155 -73 -322q0 -181 75 -344h-114z" />
    <glyph glyph-name="uni207E" unicode="&#x207e;" horiz-adv-x="434" 
d="M133 901l4 -4q141 156 215 313t74 326q0 182 -76 344h115q78 -173 78 -344t-74 -328q-75 -159 -211 -307h-125z" />
    <glyph glyph-name="uni2080" unicode="&#x2080;" horiz-adv-x="729" 
d="M86 -217v-4q-57 29 -92 98q-33 65 -33 164q0 121 41 242q40 118 127 196t215 78q69 0 129 -31q57 -29 92 -98q33 -65 33 -162q0 -120 -41 -241q-40 -119 -127 -197q-85 -76 -215 -76q-69 0 -129 31zM369 -94l-2 4q59 71 86 170q28 103 28 188q0 102 -39 150
q-40 49 -106 49q-83 0 -141 -70q-59 -72 -86 -172q-27 -102 -27 -190q0 -100 41 -150q40 -49 104 -49q84 0 142 70z" />
    <glyph glyph-name="uni2081" unicode="&#x2081;" horiz-adv-x="409" 
d="M207 545l94 -2l-166 -779h-119l123 578h-170l21 92h61q62 0 92 15q32 16 52 55z" />
    <glyph glyph-name="uni2082" unicode="&#x2082;" horiz-adv-x="679" 
d="M553 260l2 -8q-25 -44 -61 -78q-28 -26 -99 -76l-356 -248h459l-19 -92h-592l25 121l412 287q76 54 104 92q31 42 31 88q0 57 -39 86q-42 31 -107 31t-114 -37t-64 -100h-119q14 68 60 123q43 52 108 79q64 27 138 27t135 -25t90 -67q31 -45 31 -103q0 -55 -25 -100z" />
    <glyph glyph-name="uni2083" unicode="&#x2083;" horiz-adv-x="692" 
d="M541 274l-4 -12q-36 -42 -86 -65q-53 -24 -111 -33q74 -15 127 -62t53 -112q0 -72 -39 -125q-42 -57 -112 -90t-174 -33q-123 0 -197 59q-73 58 -82 164h119q12 -131 168 -131q51 0 102 23q48 22 72 59q24 38 24 84q0 58 -49 92q-50 35 -125 35h-47l21 92h47q55 0 104 19
q46 18 74 49q27 30 27 67q0 51 -39 80q-42 31 -111 31q-61 0 -108 -33q-52 -36 -66 -86h-119q14 61 60 113q43 49 108 73q67 25 135 25q72 0 133 -25q59 -24 93 -67t34 -98t-32 -93z" />
    <glyph glyph-name="uni2084" unicode="&#x2084;" horiz-adv-x="702" 
d="M457 82h114l-20 -92h-115l-47 -223h-119l47 223h-409l26 121l385 434h236zM436 541l-405 -459h307z" />
    <glyph glyph-name="uni2085" unicode="&#x2085;" horiz-adv-x="710" 
d="M592 453l-399 -4l-84 -279q33 51 96 86q62 35 131 35q54 0 106 -25q51 -25 80 -73q31 -51 31 -117q0 -89 -43 -162q-44 -74 -123 -117t-180 -43q-117 0 -191 62q-73 61 -82 164h119q3 -62 49 -99t117 -37q58 0 109 31t78 80q28 51 28 108q0 72 -43 109t-110 37
q-64 0 -115 -31t-80 -82l-115 10l133 439h506z" />
    <glyph glyph-name="uni2086" unicode="&#x2086;" horiz-adv-x="722" 
d="M457 252l-11 -4q51 -31 78 -80q27 -50 27 -107q0 -83 -43 -153q-45 -73 -119 -115q-76 -43 -172 -43q-69 0 -129 31q-58 30 -96 92q-37 61 -37 158q0 140 53 264t144 194q93 72 204 72q102 0 166 -55q65 -56 86 -148h-119q-9 54 -47 84q-39 31 -94 31q-67 0 -121 -45
q-52 -44 -94 -129q-39 -79 -51 -190q35 81 102 127q68 47 152 47q70 0 121 -31zM330 -131h-6q47 28 75 80q27 49 27 102q0 56 -37 96q-38 41 -106 41q-66 0 -115 -30t-76 -76q-26 -45 -26 -88q0 -76 45 -115q47 -41 112 -41q56 0 107 31z" />
    <glyph glyph-name="uni2087" unicode="&#x2087;" horiz-adv-x="565" 
d="M2 453l21 92h520l-27 -121l-473 -657h-145l505 686h-401z" />
    <glyph glyph-name="uni2088" unicode="&#x2088;" horiz-adv-x="724" 
d="M508 115h-10q49 -46 49 -111q0 -67 -43 -125q-42 -56 -121 -92q-73 -33 -178 -33q-77 0 -144 25q-61 23 -100 74q-37 49 -37 110q0 91 72 148q71 56 176 71q-64 20 -104 60q-37 37 -37 98q0 55 39 106q43 55 110 84q73 31 166 31q79 0 137 -24q57 -24 88 -68
q31 -45 31 -94q0 -80 -57 -131q-59 -53 -154 -68q68 -15 117 -61zM225 449l4 2q-41 -20 -63 -56q-21 -35 -21 -67q0 -50 37 -80q39 -31 107 -31q91 0 141 41q49 40 49 102q0 49 -39 78q-42 31 -110 31q-64 0 -105 -20zM326 -133l-4 -2q51 21 77 61q29 44 29 86q0 54 -49 88
q-47 33 -113 33q-101 0 -162 -43t-61 -115q0 -63 47 -98q44 -33 121 -33q61 0 115 23z" />
    <glyph glyph-name="uni2089" unicode="&#x2089;" horiz-adv-x="714" 
d="M457 528l-6 2q58 -30 96 -92q37 -61 37 -155q0 -143 -52 -265t-143 -192q-93 -72 -205 -72q-102 0 -166 58q-63 57 -81 147h116q12 -52 49 -82q39 -31 97 -31q65 0 120 43q57 45 97 123q38 76 51 185q-37 -77 -105 -123q-65 -45 -149 -45q-69 0 -119 30q-48 29 -76 80
q-26 48 -26 109q0 83 43 153q44 71 121 115q76 43 172 43q69 0 129 -31zM365 150v-7q51 31 77 76q29 50 29 90q0 76 -45 115q-47 41 -113 41q-55 0 -106 -31q-48 -29 -76 -80q-27 -50 -27 -102q0 -54 37 -94q36 -39 109 -39q64 0 115 31z" />
    <glyph glyph-name="uni208A" unicode="&#x208a;" horiz-adv-x="671" 
d="M305 186h230l-19 -86h-227l-51 -237h-93l52 237h-232l19 86h229l49 228h92z" />
    <glyph glyph-name="uni208B" unicode="&#x208b;" horiz-adv-x="649" 
d="M473 100h-493l18 86h494z" />
    <glyph glyph-name="uni208C" unicode="&#x208c;" horiz-adv-x="671" 
d="M516 207h-508l19 86h508zM469 -6h-506l19 86h505z" />
    <glyph glyph-name="uni208D" unicode="&#x208d;" horiz-adv-x="434" 
d="M68 -338l-5 2q-77 171 -77 344q0 171 73 326q75 159 211 307h125q-141 -156 -215 -313t-74 -322q0 -179 76 -344h-114z" />
    <glyph glyph-name="uni208E" unicode="&#x208e;" horiz-adv-x="434" 
d="M-129 -338l4 -4q141 156 215 313t74 326q0 182 -76 344h115q78 -173 78 -344t-74 -328q-75 -159 -211 -307h-125z" />
    <glyph glyph-name="uni20A9" unicode="&#x20a9;" horiz-adv-x="2027" 
d="M2038 1016l-25 -115h-229l-94 -252h227l-27 -114h-241l-197 -535h-137l196 535h-186l-27 -535h-133l27 535h-348l-201 -535h-139l201 535h-185l-31 -535h-135l31 535h-258l27 114h237l15 252h-246l24 115h228l30 540h138l-31 -540h336l202 540h140l-203 -540h190l27 540
h133l-26 -540h340l198 540h137l-198 -540h213zM541 901l-15 -252h222l94 252h-301zM981 901l-94 -252h309l12 252h-227zM1329 649h223l95 252h-306z" />
    <glyph glyph-name="Euro" unicode="&#x20ac;" horiz-adv-x="1652" 
d="M928 1403l-2 -4q-106 -61 -193 -170q-88 -111 -145 -246h690l-66 -117h-665q-27 -85 -39 -188h598l-66 -115h-540v-12q0 -144 43 -248t129 -160q85 -55 200 -55q144 0 271 86q126 86 219 244h143q-113 -209 -278 -326q-168 -119 -371 -119q-154 0 -266 74
q-111 73 -170 207q-60 135 -60 307v4h-256l66 115h197q9 89 36 188h-204l65 117h178q64 168 172 303q107 133 250 211q144 78 299 78q140 0 244 -55q106 -56 166 -156q61 -101 82 -233h-144q-18 159 -110 245t-250 86q-116 0 -223 -61z" />
    <glyph glyph-name="uni20B8" unicode="&#x20b8;" horiz-adv-x="1286" 
d="M262 1442l27 114h1134l-24 -114h-1137zM696 1137h-497l24 114h1137l-25 -114h-497l-242 -1137h-141z" />
    <glyph glyph-name="uni20B9" unicode="&#x20b9;" horiz-adv-x="1359" 
d="M1473 1442l-404 -4q58 -52 88 -119q31 -70 31 -145h221l-23 -117h-210q-26 -117 -111 -205q-80 -83 -213 -131q-125 -45 -293 -45h-242l660 -678h-195l-622 639l33 156h387q185 0 303 71q114 69 149 191h-780l24 116h768q-3 75 -43 136t-110 98t-166 37h-389l24 114h1137
z" />
    <glyph glyph-name="uni20BA" unicode="&#x20ba;" horiz-adv-x="1318" 
d="M1249 647l-2 -2q-47 -235 -145 -375q-100 -143 -252 -207q-149 -63 -373 -63h-276l129 612l-209 -59l26 119l209 59l41 201l-209 -60l25 119l211 60l106 505h142l-99 -462l492 139l-25 -119l-491 -139l-43 -203l491 139l-24 -118l-492 -140l-114 -538h120q179 0 301 55
q124 56 203 172q78 115 119 305h139z" />
    <glyph glyph-name="uni20BD" unicode="&#x20bd;" horiz-adv-x="1454" 
d="M500 674l-41 -187h424l-27 -116h-422l-78 -369h-141l78 369h-209l22 116h211l41 189h-211l25 115h211l162 768h387q161 0 280 -46q123 -48 189 -131q67 -85 67 -202q0 -506 -708 -506h-260zM662 1444l-140 -656h248q555 0 555 375q0 140 -106 209q-110 72 -308 72h-249z
" />
    <glyph glyph-name="uni20BF" unicode="&#x20bf;" horiz-adv-x="1411" 
d="M1085 748l-4 -3q82 -43 131 -116q50 -74 50 -170q0 -103 -50 -195q-50 -93 -159 -162q-112 -71 -287 -92l-59 -278h-123l55 268h-45h-115l-57 -268h-123l57 268h-243l329 1556h244l55 259h123l-55 -259h86q10 0 76 -4l55 263h123l-59 -285q126 -41 190 -131
q66 -94 66 -203q0 -120 -64 -205q-64 -84 -166 -131q-101 -46 -215 -61q105 -9 184 -51zM551 1438l-125 -580h334q148 0 246 43t145 117t47 160q0 75 -37 133t-110 92q-75 35 -168 35h-332zM604 113l2 -2q192 0 305 55t160 135t47 166q0 78 -43 139q-44 62 -125 99
q-79 36 -198 36h-351l-133 -628h336z" />
    <glyph glyph-name="uni2113" unicode="&#x2113;" horiz-adv-x="946" 
d="M403 518l-57 -276q-8 -27 -8 -62q0 -51 31 -76q30 -24 90 -24q128 0 252 100l-23 -108q-121 -95 -270 -95q-106 0 -162 50q-55 49 -55 137q0 45 10 90l35 166l-154 -98l-45 92l229 147l125 588q40 198 142 315t256 117q119 0 180 -61t61 -174q0 -206 -147 -406t-442 -393
zM637 1382l-2 -4q-69 -93 -103 -248l-100 -471q233 169 352 340t119 338q0 69 -31 105q-29 33 -81 33q-85 0 -154 -93z" />
    <glyph glyph-name="uni2116" unicode="&#x2116;" horiz-adv-x="2504" 
d="M1976 842h-8q-65 36 -106 104q-39 65 -39 160q0 124 53 233q52 107 152 172q101 66 231 66q90 0 160 -37t110 -104q39 -65 39 -160q0 -125 -53 -234q-52 -107 -152 -172t-229 -65q-91 0 -158 37zM244 0h-144l330 1556h143zM1239 0h-145l-506 1556h143zM1397 0h-144
l330 1556h143zM2300 952h-4q67 58 102 148t35 180q0 98 -53 154q-52 55 -139 55q-96 0 -162 -57q-68 -59 -103 -148q-32 -82 -32 -180t53 -154q52 -55 141 -55q96 0 162 57z" />
    <glyph glyph-name="uni2117" unicode="&#x2117;" horiz-adv-x="1976" 
d="M1458 1505l-4 -4q193 -114 307 -307q115 -195 115 -424q0 -232 -113 -424q-114 -193 -307 -307q-192 -113 -424 -113q-229 0 -424 115q-193 114 -307 307q-113 192 -113 424q0 229 115 424q114 193 307 307q195 115 424 115q232 0 424 -113zM1401 139q167 98 266 267
q98 168 98 368q0 201 -98 369t-266 266t-369 98q-200 0 -368 -98q-169 -99 -267 -266q-98 -168 -98 -369q0 -200 98 -368q98 -169 267 -267q168 -98 368 -98q201 0 369 98zM1071 1264q122 0 209 -37q88 -37 137 -107t49 -166q0 -94 -49 -161q-50 -68 -137 -105t-209 -37
h-221v-372h-117v985h338zM1067 748l-4 4q136 0 207 53t71 153q0 101 -71 154t-203 53h-217v-417h217z" />
    <glyph glyph-name="uni2120" unicode="&#x2120;" horiz-adv-x="1734" 
d="M623 1245l-5 -2q111 -21 160 -67t49 -125q0 -68 -34 -117q-36 -52 -99 -78q-64 -27 -149 -27q-73 0 -139 29q-59 26 -101 80q-40 52 -49 117h102q9 -70 62 -111t129 -41q84 0 133 37t49 98q0 53 -43 80t-127 45l-88 19q-97 22 -147 63q-52 43 -52 123q0 53 35 100
q37 49 92 72q61 25 136 25q114 0 190 -54q73 -52 88 -141h-100q-16 61 -64 90q-51 31 -119 31q-72 0 -116 -33q-45 -33 -45 -82q0 -46 37 -67q42 -24 124 -43zM1673 1554v-723h-94v701l-199 -701h-174l-198 701v-701h-95v723h181l198 -704l199 704h182z" />
    <glyph glyph-name="trademark" unicode="&#x2122;" horiz-adv-x="1748" 
d="M516 1477h-244v79h580v-79h-242v-643h-94v643zM1667 1556v-722h-94v708l-199 -708h-174l-199 700v-700h-94v722h178l201 -708l199 708h182z" />
    <glyph glyph-name="uni2150" unicode="&#x2150;" horiz-adv-x="1474" 
d="M913 686l21 92h520l-27 -121l-473 -657h-145l506 686h-402zM492 1556l94 -2l-166 -778h-119l123 578h-170l20 92h62q64 0 92 14q30 15 51 56zM160 -2h-146l1229 1556h146z" />
    <glyph glyph-name="uni2151" unicode="&#x2151;" horiz-adv-x="1515" 
d="M1284 762l-6 2q58 -30 96 -92q37 -61 37 -156q0 -145 -51 -264q-53 -123 -143 -193q-92 -71 -205 -71q-103 0 -166 57q-64 58 -82 148h117q12 -52 49 -82q39 -31 96 -31q66 0 121 43t96 123q39 76 51 184q-38 -78 -104 -123q-65 -45 -150 -45q-67 0 -118 31
q-48 29 -76 80q-27 49 -27 108q0 84 43 154q44 71 121 115q76 43 172 43q69 0 129 -31zM1192 383v-6q52 32 78 76q28 48 28 90q0 75 -45 114q-47 41 -112 41q-57 0 -107 -30q-48 -29 -76 -80q-26 -48 -26 -103q0 -54 37 -94q36 -39 108 -39q64 0 115 31zM481 1550l94 -2
l-165 -778h-119l123 578h-170l20 92h62q64 0 92 14q30 15 51 55zM150 -8h-146l1229 1556h145z" />
    <glyph glyph-name="uni2152" unicode="&#x2152;" horiz-adv-x="1931" 
d="M1077 778l94 -2l-165 -778h-119l123 577h-170l20 93h62q64 0 92 14q30 15 51 55zM1319 14v-4q-56 29 -92 99q-33 65 -33 163q0 121 41 242q40 119 127 197q86 77 215 77q71 0 129 -30q56 -29 92 -99q33 -65 33 -161q0 -121 -41 -242q-40 -119 -127 -197q-84 -75 -215 -75
q-70 0 -129 30zM1602 137l-3 4q61 73 87 170q28 103 28 189q0 101 -39 149q-40 49 -106 49q-85 0 -142 -69q-59 -72 -86 -172q-26 -98 -26 -191q0 -99 41 -149q40 -49 104 -49q85 0 142 69zM487 1552l95 -2l-166 -778h-119l123 578h-170l20 92h62q64 0 92 14q30 15 51 55z
M156 -6h-146l1229 1556h145z" />
    <glyph glyph-name="uni2153" unicode="&#x2153;" horiz-adv-x="1488" 
d="M489 1556l95 -2l-166 -778h-119l123 578h-170l20 92h62q64 0 92 14q30 15 51 56zM158 -2h-146l1229 1556h145zM1356 506l-4 -12q-37 -44 -86 -66q-52 -24 -111 -33q76 -15 127 -61q53 -47 53 -113q0 -72 -39 -125q-42 -57 -112 -90t-174 -33q-122 0 -197 60
q-73 58 -82 164h119q12 -131 168 -131q53 0 102 22q48 22 72 59q25 39 25 84q0 58 -50 93q-49 34 -125 34h-47l21 93h47q57 0 104 18q46 18 74 49q27 30 27 68q0 51 -39 80q-41 30 -111 30q-62 0 -108 -32q-52 -36 -66 -86h-119q14 59 60 112q44 50 108 74q65 24 135 24
q76 0 134 -24q56 -23 92 -68q35 -44 35 -98q0 -53 -33 -92z" />
    <glyph glyph-name="uni2154" unicode="&#x2154;" horiz-adv-x="1746" 
d="M807 1272l2 -8q-25 -44 -61 -78q-28 -26 -99 -76l-356 -248h459l-19 -92h-592l25 121l412 287q76 54 104 92q31 42 31 88q0 57 -39 86q-42 31 -107 31t-114 -37t-64 -101h-119q14 68 60 123q44 53 108 80t137 27q75 0 136 -25t90 -67q30 -43 30 -103q0 -56 -24 -100z
M412 -10h-146l1229 1556h145zM1618 498l-4 -13q-36 -42 -86 -65q-52 -24 -111 -33q76 -15 127 -61q53 -47 53 -113q0 -73 -38 -125q-41 -56 -113 -90q-70 -33 -174 -33q-122 0 -197 60q-73 58 -82 163h119q12 -131 168 -131q51 0 102 23q48 22 72 59q25 39 25 84
q0 58 -49 92q-50 35 -125 35h-48l21 92h47q56 0 105 19q44 17 73 49q27 30 27 68q0 50 -39 79q-42 31 -111 31q-61 0 -108 -33q-52 -36 -66 -86h-119q14 61 60 113q44 50 108 74q65 24 136 24q75 0 133 -24q56 -23 92 -68q35 -44 35 -98q0 -53 -33 -92z" />
    <glyph glyph-name="uni2155" unicode="&#x2155;" horiz-adv-x="1531" 
d="M1430 686l-400 -4l-84 -279q33 51 96 86q62 35 132 35q56 0 106 -24t80 -74q31 -51 31 -117q0 -89 -43 -162q-43 -72 -123 -116q-79 -43 -181 -43q-117 0 -190 61t-82 164h119q3 -61 49 -98t117 -37q57 0 108 31q52 32 78 79q29 53 29 109q0 72 -43 109q-42 36 -111 36
q-64 0 -114 -30q-51 -31 -80 -82l-115 10l133 438h506zM485 1552l95 -2l-166 -778h-119l123 578h-170l20 92h62q64 0 92 14q30 15 51 55zM154 -6h-146l1229 1556h145z" />
    <glyph glyph-name="uni2156" unicode="&#x2156;" horiz-adv-x="1789" 
d="M807 1272l2 -8q-25 -44 -61 -78q-28 -26 -99 -76l-356 -248h459l-19 -92h-592l25 121l412 287q76 54 104 92q31 42 31 88q0 57 -39 86q-42 31 -107 31t-114 -37t-64 -101h-119q14 68 60 123q44 53 108 80t137 27q75 0 136 -25t90 -67q30 -43 30 -103q0 -56 -24 -100z
M412 -10h-146l1229 1556h145zM1690 676l-400 -4l-84 -279q33 50 97 86q62 35 131 35q54 0 106 -25q51 -25 80 -73q31 -51 31 -117q0 -89 -43 -162q-44 -73 -123 -117q-79 -43 -180 -43q-117 0 -191 62q-73 61 -82 164h119q3 -62 49 -99q45 -36 117 -36q59 0 108 30
q51 31 78 80q29 53 29 109q0 71 -43 108t-111 37q-63 0 -114 -31t-80 -82l-115 11l133 438h506z" />
    <glyph glyph-name="uni2157" unicode="&#x2157;" horiz-adv-x="1775" 
d="M788 1286l-4 -12q-37 -44 -86 -66q-50 -23 -110 -32q74 -15 127 -62t53 -113q0 -71 -39 -124q-42 -58 -113 -91q-68 -32 -174 -32q-122 0 -196 59q-73 58 -82 164h119q12 -131 168 -131q53 0 102 22q47 21 72 60q24 38 24 84q0 58 -49 92q-50 35 -125 35h-47l21 92h47
q58 0 104 18t74 49q26 29 26 68q0 52 -38 80q-42 31 -111 31q-62 0 -109 -33q-50 -35 -65 -86h-119q14 61 59 112q44 50 109 74q67 25 135 25q72 0 133 -25q58 -24 92 -67q35 -44 35 -99q0 -53 -33 -92zM389 -12h-145l1229 1556h145zM1669 674l-399 -4l-84 -279q33 51 96 86
q62 35 131 35q55 0 107 -25q49 -24 79 -73q31 -51 31 -117q0 -89 -43 -162t-123 -117q-79 -43 -180 -43q-116 0 -190 62q-73 61 -82 164h118q3 -61 50 -99q45 -36 116 -36q60 0 109 30q51 31 78 80q28 51 28 109q0 71 -43 108t-110 37q-64 0 -115 -31t-80 -82l-114 11
l133 438h506z" />
    <glyph glyph-name="uni2158" unicode="&#x2158;" horiz-adv-x="1800" 
d="M711 1094h114l-20 -93h-115l-47 -223h-119l47 223h-409l26 121l385 434h236zM690 1552l-405 -458h307zM414 0h-146l1229 1556h145zM1694 686l-400 -4l-84 -279q33 50 97 86q62 35 131 35q56 0 106 -24t80 -74q31 -51 31 -117q0 -89 -43 -162q-43 -72 -123 -116
q-79 -43 -180 -43q-118 0 -191 61t-82 164h119q3 -61 49 -98t117 -37q58 0 109 31t77 79q29 53 29 109q0 72 -43 109q-42 36 -111 36q-64 0 -114 -30q-51 -31 -80 -82l-115 10l133 438h506z" />
    <glyph glyph-name="uni2159" unicode="&#x2159;" horiz-adv-x="1517" 
d="M1274 485l-10 -4q50 -30 77 -80q27 -49 27 -106q0 -84 -43 -154q-44 -71 -119 -114q-76 -43 -172 -43q-70 0 -129 30q-58 30 -96 92q-37 61 -37 158q0 140 53 264q53 125 144 195q93 72 205 72q100 0 165 -56t86 -147h-118q-9 54 -47 84q-39 31 -95 31q-67 0 -121 -45
q-51 -43 -94 -130q-39 -79 -51 -190q35 81 102 127q68 47 152 47q70 0 121 -31zM1147 102h-6q48 29 76 80q26 48 26 103q0 56 -37 96q-38 41 -106 41q-64 0 -115 -31q-49 -30 -76 -76q-26 -45 -26 -88q0 -75 45 -114q47 -41 112 -41q58 0 107 30zM471 1552l94 -2l-166 -778
h-118l122 578h-170l21 92h61q65 0 93 14q30 15 51 55zM139 -6h-145l1229 1556h145z" />
    <glyph glyph-name="uni215A" unicode="&#x215a;" horiz-adv-x="1748" 
d="M829 1464l-399 -4l-84 -278q33 51 96 86q62 35 131 35q55 0 107 -25q50 -24 80 -74q31 -51 31 -117q0 -88 -43 -161q-44 -74 -123 -117t-181 -43q-117 0 -190 61t-82 164h119q3 -61 49 -98t117 -37q57 0 108 31t78 80q29 53 29 108q0 72 -43 109t-111 37q-64 0 -115 -31
q-49 -30 -79 -82l-115 10l133 438h506zM381 -4h-145l1228 1556h146zM1503 481l-10 -4q51 -31 78 -80q26 -48 26 -106q0 -84 -43 -154q-45 -72 -118 -114q-76 -43 -172 -43q-70 0 -129 30q-60 31 -97 92t-37 158q0 137 54 264q54 126 143 195q93 72 205 72q101 0 166 -56
t86 -147h-119q-9 54 -47 84q-37 30 -94 30q-67 0 -121 -45q-52 -44 -94 -129q-40 -81 -52 -190q35 80 103 127t151 47q70 0 121 -31zM1376 98h-6q48 29 76 80q27 49 27 103q0 56 -37 96q-38 41 -107 41q-64 0 -115 -31q-48 -29 -75 -76q-27 -46 -27 -88q0 -75 45 -114
q47 -41 113 -41q56 0 106 30z" />
    <glyph glyph-name="oneeighth" unicode="&#x215b;" horiz-adv-x="1525" 
d="M1331 346h-10q49 -46 49 -110q0 -67 -43 -125t-121 -93q-71 -32 -178 -32q-78 0 -143 24q-63 23 -101 74q-36 48 -36 111q0 91 71 147q73 57 176 72q-65 20 -104 59q-37 37 -37 98q0 56 39 107q42 55 111 84q73 31 165 31q77 0 138 -25q57 -24 88 -68q30 -43 30 -94
q0 -80 -57 -131q-58 -52 -154 -67q67 -15 117 -62zM1049 680l4 2q-43 -21 -64 -55q-20 -33 -20 -68q0 -50 37 -80q38 -30 106 -30q92 0 141 40q50 41 50 103q0 49 -39 78q-40 30 -111 30q-63 0 -104 -20zM1149 98l-4 -2q51 22 78 62q28 42 28 86q0 54 -49 88q-47 33 -112 33
q-101 0 -162 -43q-62 -44 -62 -115q0 -63 47 -98q44 -33 121 -33q63 0 115 22zM477 1556l94 -2l-165 -778h-119l123 578h-170l20 92h62q64 0 92 14q30 15 51 56zM145 -2h-145l1229 1556h145z" />
    <glyph glyph-name="threeeighths" unicode="&#x215c;" horiz-adv-x="1769" 
d="M788 1286l-4 -12q-37 -44 -86 -66q-50 -23 -110 -32q74 -15 127 -62t53 -113q0 -71 -39 -124q-42 -58 -113 -91q-68 -32 -174 -32q-122 0 -196 59q-73 58 -82 164h119q12 -131 168 -131q53 0 102 22q47 21 72 60q24 38 24 84q0 58 -49 92q-50 35 -125 35h-47l21 92h47
q58 0 104 18t74 49q26 29 26 68q0 52 -38 80q-42 31 -111 31q-62 0 -109 -33q-50 -35 -65 -86h-119q14 61 59 112q44 50 109 74q67 25 135 25q72 0 133 -25q58 -24 92 -67q35 -44 35 -99q0 -53 -33 -92zM389 -12h-145l1229 1556h145zM1571 334h-10q49 -46 49 -111
q0 -67 -43 -125q-42 -56 -121 -92q-73 -33 -178 -33q-77 0 -144 25q-61 23 -100 74q-37 49 -37 110q0 91 72 148q71 56 176 71q-65 20 -105 60q-36 36 -36 98q0 56 39 107q43 55 110 84q71 30 166 30q79 0 137 -24q57 -24 88 -68q31 -45 31 -94q0 -80 -57 -131
q-59 -53 -154 -68q68 -15 117 -61zM1288 668l4 2q-41 -20 -63 -56q-21 -34 -21 -67q0 -50 37 -80q39 -31 107 -31q91 0 141 41q49 40 49 103q0 48 -39 77q-42 31 -110 31q-64 0 -105 -20zM1389 86l-5 -2q52 22 78 61q29 44 29 86q0 54 -49 88q-47 33 -113 33
q-101 0 -162 -43t-61 -114q0 -64 47 -99q44 -33 121 -33q61 0 115 23z" />
    <glyph glyph-name="fiveeighths" unicode="&#x215d;" horiz-adv-x="1759" 
d="M829 1464l-399 -4l-84 -278q33 51 96 86q62 35 131 35q55 0 107 -25q50 -24 80 -74q31 -51 31 -117q0 -88 -43 -161q-44 -74 -123 -117t-181 -43q-117 0 -190 61t-82 164h119q3 -61 49 -98t117 -37q57 0 108 31t78 80q29 53 29 108q0 72 -43 109t-111 37q-64 0 -115 -31
q-49 -30 -79 -82l-115 10l133 438h506zM381 -4h-145l1228 1556h146zM1563 342h-11q50 -47 50 -111q0 -67 -43 -125q-42 -56 -121 -92q-71 -32 -178 -32q-80 0 -144 24q-61 23 -100 74q-37 49 -37 110q0 91 72 148q73 57 176 72q-67 21 -105 59q-37 37 -37 98q0 56 39 107
q42 55 111 84q71 30 166 30q79 0 137 -24q57 -24 88 -68q31 -45 31 -94q0 -79 -58 -131q-59 -53 -153 -68q68 -15 117 -61zM1280 676l4 2q-42 -20 -63 -55t-21 -68q0 -50 37 -80q39 -31 106 -31q92 0 142 41q49 40 49 103q0 49 -39 78q-41 30 -111 30q-63 0 -104 -20z
M1380 94l-4 -2q51 22 78 62q29 44 29 86q0 54 -49 88q-46 32 -113 32q-101 0 -162 -43t-61 -114q0 -64 47 -99q43 -32 121 -32q62 0 114 22z" />
    <glyph glyph-name="seveneighths" unicode="&#x215e;" horiz-adv-x="1591" 
d="M272 1464l21 92h520l-27 -120l-473 -658h-145l506 686h-402zM215 0h-145l1228 1556h146zM1397 346h-11q50 -47 50 -110q0 -67 -43 -125t-121 -93q-71 -32 -178 -32q-80 0 -144 24q-61 23 -100 74q-37 49 -37 111q0 90 72 147q73 57 176 72q-67 21 -105 59q-36 36 -36 98
q0 58 38 107q42 55 111 84q73 31 166 31q76 0 137 -25q57 -24 88 -68q31 -45 31 -94q0 -80 -57 -131q-58 -52 -154 -67q67 -15 117 -62zM1114 680l4 2q-42 -20 -63 -55t-21 -68q0 -50 37 -80q38 -30 107 -30q92 0 141 40t49 103q0 49 -39 78q-41 30 -110 30q-64 0 -105 -20z
M1214 98l-4 -2q51 22 78 62q29 43 29 86q0 54 -49 88q-47 33 -113 33q-101 0 -162 -43t-61 -115q0 -63 47 -98q44 -33 121 -33q62 0 114 22z" />
    <glyph glyph-name="uni215F" unicode="&#x215f;" horiz-adv-x="1271" 
d="M526 1556l95 -2l-166 -778h-119l123 578h-170l20 92h62q64 0 92 14q30 15 51 56zM195 -2h-146l1229 1556h145z" />
    <glyph glyph-name="uni2189" unicode="&#x2189;" horiz-adv-x="1714" 
d="M322 795v-4q-58 30 -93 98q-32 63 -32 164q0 120 41 241q40 119 127 197t215 78q69 0 129 -31q57 -29 92 -98q33 -65 33 -162q0 -121 -41 -242q-40 -118 -127 -196q-85 -76 -215 -76q-69 0 -129 31zM604 918l-2 4q59 71 86 170q29 106 29 188q0 102 -39 150
q-40 49 -107 49q-83 0 -141 -70q-59 -72 -86 -172q-27 -102 -27 -190q0 -100 41 -150q40 -49 105 -49q83 0 141 70zM373 -2h-146l1229 1556h146zM1581 506l-4 -12q-37 -44 -86 -66q-53 -24 -111 -33q76 -15 127 -61q54 -48 54 -113q0 -72 -39 -125q-41 -56 -113 -90
q-70 -33 -174 -33q-122 0 -197 60q-73 58 -82 164h119q12 -131 168 -131q54 0 103 22q47 21 71 59q25 39 25 84q0 59 -49 93t-125 34h-47l20 93h47q58 0 105 18q44 17 73 49q27 30 27 68q0 51 -39 80q-40 30 -111 30q-62 0 -108 -32q-52 -36 -66 -86h-118q14 61 59 112
q44 50 109 74t135 24q74 0 133 -24q56 -23 92 -68q35 -44 35 -98q0 -53 -33 -92z" />
    <glyph glyph-name="arrowleft" unicode="&#x2190;" horiz-adv-x="1576" 
d="M403 840h1135v-125h-1132l503 -502h-172l-542 565l542 565h172z" />
    <glyph glyph-name="arrowup" unicode="&#x2191;" horiz-adv-x="1576" 
d="M838 1448l565 -543v-172l-502 504v-1133h-125v1135l-504 -506v172z" />
    <glyph glyph-name="arrowright" unicode="&#x2192;" horiz-adv-x="1576" 
d="M768 1343h172l543 -565l-543 -565h-172l502 502h-1131v125h1133z" />
    <glyph glyph-name="arrowdown" unicode="&#x2193;" horiz-adv-x="1576" 
d="M903 1452v-1133l502 504v-172l-565 -542l-566 542v172l504 -506v1135h125z" />
    <glyph glyph-name="uni2196" unicode="&#x2196;" horiz-adv-x="1576" 
d="M547 1169l876 -878l-88 -86l-876 876v-716l-117 118v803h801l121 -117h-717z" />
    <glyph glyph-name="uni2197" unicode="&#x2197;" horiz-adv-x="1576" 
d="M399 1169l119 117h803v-803l-117 -118v718l-878 -878l-86 86l876 878h-717z" />
    <glyph glyph-name="uni2198" unicode="&#x2198;" horiz-adv-x="1576" 
d="M1219 475v717l116 -119v-803h-803l-118 117h716l-876 879l88 86z" />
    <glyph glyph-name="uni2199" unicode="&#x2199;" horiz-adv-x="1576" 
d="M1350 1352l88 -86l-877 -879h717l-119 -117h-803v803l117 119v-717z" />
    <glyph glyph-name="uni21A4" unicode="&#x21a4;" horiz-adv-x="1576" 
d="M1317 840v503h123v-1130h-123v502h-1004l504 -502h-172l-543 565l543 565h172l-506 -503h1006z" />
    <glyph glyph-name="uni21A5" unicode="&#x21a5;" horiz-adv-x="1576" 
d="M1415 969v-170l-502 501v-1024h502v-122h-1130v122h503v1027l-503 -504v170l565 542z" />
    <glyph glyph-name="uni21A6" unicode="&#x21a6;" horiz-adv-x="1576" 
d="M860 1343h172l543 -565l-543 -565h-172l502 502h-1002v-502h-122v1130h122v-503h1004z" />
    <glyph glyph-name="uni21A7" unicode="&#x21a7;" horiz-adv-x="1576" 
d="M1393 1403v-123h-502v-1024l502 502v-170l-566 -543l-565 543v170l504 -504v1026h-504v123h1131z" />
    <glyph glyph-name="uni21B0" unicode="&#x21b0;" horiz-adv-x="1576" 
d="M291 840h1130v-840h-121v715h-1007l504 -502h-172l-543 565l543 565h172z" />
    <glyph glyph-name="uni21B1" unicode="&#x21b1;" horiz-adv-x="1576" 
d="M836 1343h172l540 -565l-540 -565h-172l501 502h-1005v-715h-123v840h1130z" />
    <glyph glyph-name="uni21B2" unicode="&#x21b2;" horiz-adv-x="1576" 
d="M1346 842v714h122v-839h-1130l504 -504h-170l-543 565l543 565h170l-502 -501h1006z" />
    <glyph glyph-name="uni21B3" unicode="&#x21b3;" horiz-adv-x="1576" 
d="M881 1343h172l540 -565l-540 -565h-172l503 504h-1130v839h123v-714h1005z" />
    <glyph glyph-name="partialdiff" unicode="&#x2202;" horiz-adv-x="1290" 
d="M309 1571l-6 -4q467 -50 668 -291q203 -244 203 -614q0 -350 -144 -519q-143 -168 -405 -168q-144 0 -265 62q-120 61 -190 178q-70 116 -70 274q0 156 68 271q67 114 184 172q118 59 260 59q127 0 219 -47q95 -48 152 -117q59 -71 80 -147q3 349 -186 547
q-188 197 -568 235v109zM834 129v4q86 51 137 148q49 94 49 219q0 123 -49 211q-49 87 -140 135q-89 47 -202 47q-115 0 -203 -49t-141 -142q-52 -91 -52 -215q0 -123 54 -217q52 -90 141 -143q86 -51 203 -51q114 0 203 53z" />
    <glyph glyph-name="product" unicode="&#x220f;" horiz-adv-x="2011" 
d="M2021 1556v-126h-309v-1706h-139v1706h-866v-1706h-142v1706h-309v126h1765z" />
    <glyph glyph-name="summation" unicode="&#x2211;" horiz-adv-x="1738" 
d="M1161 664l-727 -814h1077v-126h-1239v172l686 766l-686 722v172h1213v-126h-1051z" />
    <glyph glyph-name="minus" unicode="&#x2212;" horiz-adv-x="1214" 
d="M1096 498h-975v108h975v-108z" />
    <glyph glyph-name="radical" unicode="&#x221a;" horiz-adv-x="1236" 
d="M645 -182l533 1738h143l-561 -1832h-225l-267 722h-266v125h367z" />
    <glyph glyph-name="infinity" unicode="&#x221e;" horiz-adv-x="2293" 
d="M1929 979l4 -2q106 -63 168 -178t62 -252t-62 -252t-168 -178q-107 -64 -241 -64q-153 0 -279 97q-120 92 -227 245l-35 47l-33 -47q-111 -155 -229 -245q-126 -97 -279 -97q-128 0 -239 66q-106 63 -168 178t-62 252t62 252t168 178q109 65 239 65q159 0 281 -98
q121 -97 227 -246l31 -43l31 43q106 149 227 246q122 98 281 98q132 0 241 -65zM1077 549l-55 72q-93 135 -191 219q-100 86 -217 86q-99 0 -178 -49t-123 -136q-43 -85 -43 -196q0 -112 43 -197q43 -86 123 -135q79 -49 178 -49q117 0 217 86q98 84 191 219zM1862 209l2 -2
q80 49 123 135q43 85 43 197q0 111 -43 196t-123 135t-178 50q-117 0 -218 -84q-94 -79 -192 -215l-55 -78l57 -80q87 -130 188 -217q100 -86 217 -86q100 0 179 49z" />
    <glyph glyph-name="integral" unicode="&#x222b;" horiz-adv-x="653" 
d="M-57 -401l-2 104h122q101 0 150 55t49 170v1307q0 158 86 238q85 79 238 79h137v-104h-125q-100 0 -149 -55q-50 -56 -50 -170v-1307q0 -158 -86 -238q-85 -79 -235 -79h-135z" />
    <glyph glyph-name="approxequal" unicode="&#x2248;" horiz-adv-x="1441" 
d="M162 705l-6 -3q150 175 313 175q52 0 109 -13q55 -13 141 -49q81 -34 137 -49q52 -14 109 -14q73 0 122 32q58 38 121 101l72 -72q-69 -81 -147 -127q-80 -47 -162 -47q-55 0 -107 12q-55 13 -141 49q-78 35 -133 50q-59 16 -111 16q-72 0 -125 -33t-118 -98zM156 297
l-6 -2q149 174 313 174q55 0 108 -12q57 -13 142 -49q88 -37 137 -50q52 -14 108 -14q73 0 123 33q61 40 121 100l72 -71q-68 -80 -148 -127q-82 -48 -161 -48q-50 0 -107 13q-55 13 -141 49q-72 33 -133 49q-59 16 -111 16q-74 0 -125 -32q-53 -33 -119 -99z" />
    <glyph glyph-name="notequal" unicode="&#x2260;" horiz-adv-x="1392" 
d="M1198 813v-106h-340l-176 -304h516v-108h-580l-172 -295h-133l172 295h-286v108h348l176 304h-524v106h587l160 277h135l-161 -277h278z" />
    <glyph glyph-name="lessequal" unicode="&#x2264;" horiz-adv-x="1284" 
d="M152 741l944 334v-112l-860 -304l860 -305v-110l-944 331v166zM1096 0h-944v109h944v-109z" />
    <glyph glyph-name="greaterequal" unicode="&#x2265;" horiz-adv-x="1333" 
d="M188 963v112l942 -334v-166l-942 -331v110l859 305zM1130 0h-942v109h942v-109z" />
    <glyph glyph-name="uni2300" unicode="&#x2300;" horiz-adv-x="1359" 
d="M1118 905h-2q62 -77 96 -168q35 -93 35 -192q0 -154 -76 -285q-77 -132 -206 -209q-128 -76 -283 -76q-102 0 -190 33q-98 37 -166 94l-129 -131l-82 82l129 131q-64 76 -99 168q-32 85 -32 193q0 152 77 282t207 207q132 78 283 78q103 0 188 -33q93 -36 166 -92
l127 129l84 -82zM254 397h4q23 -67 72 -129l622 635q-60 44 -129 68q-71 24 -143 24q-119 0 -223 -61q-105 -61 -166 -166q-62 -106 -62 -223q0 -75 25 -148zM905 154l-6 -4q106 62 166 165q61 104 61 226q0 77 -24 147q-24 72 -70 129l-624 -633q57 -43 129 -67
q73 -25 143 -25q119 0 225 62z" />
    <glyph glyph-name="uni2460" unicode="&#x2460;" horiz-adv-x="1912" 
d="M1436 1522q196 -114 311 -312t115 -430t-115 -430q-114 -197 -311 -311q-198 -115 -430 -115q-233 0 -431 115q-197 114 -311 311q-114 196 -114 430q0 233 114 430q115 198 311 312q197 114 431 114t430 -114zM1380 129h-6q176 104 275 272q102 172 102 377
q0 208 -100 377q-101 170 -273 272q-171 101 -377 101q-203 0 -374 -101q-172 -102 -273 -272q-100 -169 -100 -377t100 -377q99 -168 275 -272q169 -100 375 -100q207 0 376 100zM965 1245l108 -2v-934h-131v692h-201v109h80q61 0 99 23q34 21 43 71z" />
    <glyph glyph-name="uni2461" unicode="&#x2461;" horiz-adv-x="1912" 
d="M1436 1522q196 -114 311 -312t115 -430t-115 -430q-114 -197 -311 -311q-198 -115 -430 -115q-233 0 -431 115q-197 114 -311 311q-114 196 -114 430q0 233 114 430q115 198 311 312q197 114 431 114t430 -114zM1380 129h-6q176 104 275 272q102 172 102 377
q0 208 -100 377q-101 170 -273 272q-171 101 -377 101q-203 0 -374 -101q-172 -102 -273 -272q-100 -169 -100 -377t100 -377q99 -168 275 -272q169 -100 375 -100q207 0 376 100zM797 418l549 4v-107h-699v140l412 344q58 50 94 98q33 44 33 98q0 41 -23 82q-22 39 -65 60
q-46 22 -105 22q-88 0 -143 -43q-56 -44 -62 -123h-135q6 83 52 144q44 58 120 94q70 33 170 33q99 0 172 -37q75 -38 115 -99q41 -62 41 -131q0 -83 -43 -147q-42 -62 -129 -137z" />
    <glyph glyph-name="uni2462" unicode="&#x2462;" horiz-adv-x="1912" 
d="M1436 1522q196 -114 311 -312t115 -430t-115 -430q-114 -197 -311 -311q-198 -115 -430 -115q-233 0 -431 115q-197 114 -311 311q-114 196 -114 430q0 233 114 430q115 198 311 312q197 114 431 114t430 -114zM1380 129h-6q176 104 275 272q102 172 102 377
q0 208 -100 377q-101 170 -273 272q-171 101 -377 101q-203 0 -374 -101q-172 -102 -273 -272q-100 -169 -100 -377t100 -377q99 -168 275 -272q169 -100 375 -100q207 0 376 100zM1206 772l-2 -4q58 -24 99 -74q40 -49 40 -123q0 -89 -47 -151t-129 -92q-85 -31 -184 -31
q-150 0 -238 70q-89 71 -104 196h135q9 -74 64 -117t147 -43q56 0 111 19t84 61q30 43 30 103q0 84 -69 127q-70 43 -174 43h-54v108h54q62 0 114 19q50 18 74 53q25 36 25 78t-25 78q-25 35 -70 53q-47 18 -104 18q-84 0 -133 -43t-55 -106h-136q6 72 50 131q45 61 114 90
q73 31 160 31q89 0 168 -31q77 -30 121 -86q43 -55 43 -125q0 -101 -68 -154q-67 -52 -162 -67q60 -6 121 -31z" />
    <glyph glyph-name="uni2463" unicode="&#x2463;" horiz-adv-x="1912" 
d="M1436 1522q196 -114 311 -312t115 -430t-115 -430q-114 -197 -311 -311q-198 -115 -430 -115q-233 0 -431 115q-197 114 -311 311q-114 196 -114 430q0 233 114 430q115 198 311 312q197 114 431 114t430 -114zM1380 129h-6q176 104 275 272q102 172 102 377
q0 208 -100 377q-101 170 -273 272q-171 101 -377 101q-203 0 -374 -101q-172 -102 -273 -272q-100 -169 -100 -377t100 -377q99 -168 275 -272q169 -100 375 -100q207 0 376 100zM1182 1245v-557h139v-108h-139v-269h-131v269h-492v137l375 528h248zM1051 1225l-379 -537
h379v537z" />
    <glyph glyph-name="uni2464" unicode="&#x2464;" horiz-adv-x="1912" 
d="M1436 1522q196 -114 311 -312t115 -430t-115 -430q-114 -197 -311 -311q-198 -115 -430 -115q-233 0 -431 115q-197 114 -311 311q-114 196 -114 430q0 233 114 430q115 198 311 312q197 114 431 114t430 -114zM1380 129h-6q176 104 275 272q102 172 102 377
q0 208 -100 377q-101 170 -273 272q-171 101 -377 101q-203 0 -374 -101q-172 -102 -273 -272q-100 -169 -100 -377t100 -377q99 -168 275 -272q169 -100 375 -100q207 0 376 100zM1198 909l-4 -4q72 -41 111 -112q41 -74 41 -175q0 -103 -46 -176q-46 -72 -124 -112
q-77 -39 -181 -39q-90 0 -166 31q-71 29 -122 92q-51 64 -60 143h135q9 -73 68 -117q58 -43 145 -43q61 0 111 27q51 28 78 80q28 54 28 123q0 65 -28 116q-28 50 -78 78q-50 27 -109 27q-73 0 -131 -37q-60 -39 -86 -100l-129 10l49 524h592v-106h-469l-35 -348
q26 63 95 110q68 47 161 47q86 0 154 -39z" />
    <glyph glyph-name="uni2465" unicode="&#x2465;" horiz-adv-x="1912" 
d="M1436 1522q196 -114 311 -312t115 -430t-115 -430q-114 -197 -311 -311q-198 -115 -430 -115q-233 0 -431 115q-197 114 -311 311q-114 196 -114 430q0 233 114 430q115 198 311 312q197 114 431 114t430 -114zM1380 129h-6q176 104 275 272q102 172 102 377
q0 208 -100 377q-101 170 -273 272q-171 101 -377 101q-203 0 -374 -101q-172 -102 -273 -272q-100 -169 -100 -377t100 -377q99 -168 275 -272q169 -100 375 -100q207 0 376 100zM1200 891l-16 2q71 -39 112 -111q41 -71 41 -166q0 -94 -45 -165t-127 -113
q-77 -39 -182 -39q-114 0 -197 53t-129 160q-45 105 -45 268q0 155 50 264q49 108 133 164q83 56 194 56q135 0 221 -68q89 -70 115 -180h-135q-21 65 -70 102t-127 37q-88 0 -143 -55t-80 -152q-25 -98 -16 -219q15 59 55 105q42 48 98 71q61 25 123 25q99 0 170 -39z
M1094 428l-4 2q51 28 77 76q29 53 29 110q0 95 -59 154t-160 59q-63 0 -117 -28q-53 -27 -80 -74q-28 -48 -28 -98q0 -59 24 -111q23 -50 78 -86q50 -33 125 -33q62 0 115 29z" />
    <glyph glyph-name="uni2466" unicode="&#x2466;" horiz-adv-x="1912" 
d="M1436 1522q196 -114 311 -312t115 -430t-115 -430q-114 -197 -311 -311q-198 -115 -430 -115q-233 0 -431 115q-197 114 -311 311q-114 196 -114 430q0 233 114 430q115 198 311 312q197 114 431 114t430 -114zM1380 129h-6q176 104 275 272q102 172 102 377
q0 208 -100 377q-101 170 -273 272q-171 101 -377 101q-203 0 -374 -101q-172 -102 -273 -272q-100 -169 -100 -377t100 -377q99 -168 275 -272q169 -100 375 -100q207 0 376 100zM1186 1139h-488v106h617v-139l-410 -795h-160z" />
    <glyph glyph-name="uni2467" unicode="&#x2467;" horiz-adv-x="1912" 
d="M573 35q-197 114 -311 311q-115 198 -115 430t115 430t311 312q197 114 431 114t430 -114t311 -312t115 -430t-115 -430q-114 -197 -311 -311q-198 -115 -430 -115q-233 0 -431 115zM1380 129h-6q176 104 275 272q102 172 102 377q0 208 -100 377q-101 170 -273 272
q-171 101 -377 101q-203 0 -374 -101q-172 -102 -273 -272q-100 -169 -100 -377t100 -377q99 -168 275 -272q169 -100 375 -100q207 0 376 100zM811 328l-4 -4q-83 34 -129 96q-47 62 -47 145q0 78 37 127q39 51 92 74q63 27 110 35h2q-89 15 -153 67t-64 148q0 70 43 125
q45 57 119 86q77 30 178 30q103 0 179 -30q73 -29 118 -86q43 -55 43 -125q0 -97 -63 -148q-62 -50 -154 -69h2q56 -9 111 -33q52 -22 94 -74q39 -48 39 -125q0 -83 -47 -145t-129 -96q-79 -33 -189 -33q-104 0 -188 35zM1145 895q49 43 49 106q0 36 -23 74q-21 34 -67 55
t-111 21q-63 0 -110 -21q-46 -21 -70 -55q-25 -36 -25 -74q0 -63 52 -106t153 -43q103 0 152 43zM1108 414l-6 -2q52 21 86 61q33 39 33 98q0 55 -31 97q-30 40 -84 59q-52 18 -115 18q-65 0 -117 -18q-53 -18 -83 -59q-31 -42 -31 -95q0 -59 33 -98q34 -40 86 -61
q53 -21 114 -21q63 0 115 21z" />
    <glyph glyph-name="uni2468" unicode="&#x2468;" horiz-adv-x="1912" 
d="M1436 1522q196 -114 311 -312t115 -430t-115 -430q-114 -197 -311 -311q-198 -115 -430 -115q-233 0 -431 115q-197 114 -311 311q-114 196 -114 430q0 233 114 430q115 198 311 312q197 114 431 114t430 -114zM1380 129h-6q176 104 275 272q102 172 102 377
q0 208 -100 377q-101 170 -273 272q-171 101 -377 101q-203 0 -374 -101q-172 -102 -273 -272q-100 -169 -100 -377t100 -377q99 -168 275 -272q169 -100 375 -100q207 0 376 100zM1198 1208v-6q83 -53 129 -160q47 -109 47 -268q0 -157 -49 -264t-131 -162t-195 -55
q-136 0 -221 67t-112 181h135q19 -67 69 -103q52 -37 129 -37q90 0 146 56t80 151q25 98 16 219q-15 -58 -55 -104q-43 -49 -99 -72q-59 -24 -122 -24q-97 0 -168 39q-73 40 -113 110q-39 68 -39 166q0 92 47 166q45 71 127 113q80 41 182 41q112 0 197 -54zM1116 752v-4
q54 28 80 73q29 50 29 99q0 55 -25 110q-24 52 -76 86q-50 33 -125 33q-63 0 -112 -27q-53 -29 -78 -75q-29 -53 -29 -111q0 -94 60 -154q59 -59 159 -59q61 0 117 29z" />
    <glyph glyph-name="uni24EA" unicode="&#x24ea;" horiz-adv-x="1912" 
d="M573 35q-197 114 -311 311q-115 198 -115 430t115 430t311 312q197 114 431 114t430 -114t311 -312t115 -430t-115 -430q-114 -197 -311 -311q-198 -115 -430 -115q-233 0 -431 115zM1380 129h-6q176 104 275 272q102 172 102 377q0 208 -100 377q-101 170 -273 272
q-171 101 -377 101q-203 0 -374 -101q-172 -102 -273 -272q-100 -169 -100 -377t100 -377q99 -168 275 -272q169 -100 375 -100q207 0 376 100zM799 350q-84 56 -127 164q-43 107 -43 262t43 262q43 108 127 164q82 55 196 55q115 0 197 -55q84 -56 127 -164
q43 -107 43 -262t-43 -262q-43 -108 -127 -164q-82 -55 -197 -55q-114 0 -196 55zM1169 494q62 95 62 282q0 188 -62 283q-62 96 -174 96t-174 -96q-61 -94 -61 -283q0 -188 61 -282q63 -97 174 -97t174 97z" />
    <glyph glyph-name="uni24FF" unicode="&#x24ff;" horiz-adv-x="1912" 
d="M573 35q-197 114 -311 311q-115 198 -115 430t115 430t311 312q197 114 431 114t430 -114t311 -312t115 -430t-115 -430q-114 -197 -311 -311q-198 -115 -430 -115q-233 0 -431 115zM1202 350q84 56 127 164q43 107 43 262t-43 262q-43 108 -127 164q-82 55 -196 55
q-115 0 -197 -55q-84 -56 -127 -164q-43 -107 -43 -262t43 -262q43 -108 127 -164q82 -55 197 -55q114 0 196 55zM829 494q-61 94 -61 282q0 189 61 283q62 96 175 96q112 0 174 -96q61 -94 61 -283q0 -188 -61 -282q-63 -97 -174 -97q-112 0 -175 97z" />
    <glyph glyph-name="filledbox" unicode="&#x25a0;" horiz-adv-x="1517" 
d="M1303 0h-1090v1090h1090v-1090z" />
    <glyph glyph-name="uni25A1" unicode="&#x25a1;" horiz-adv-x="1517" 
d="M1303 0h-1090v1090h1090v-1090zM328 975v-860h858v860h-858z" />
    <glyph glyph-name="lozenge" unicode="&#x25ca;" horiz-adv-x="1349" 
d="M637 1556h176l477 -778l-477 -778h-176l-477 778zM293 778l432 -702l430 702l-430 703z" />
    <glyph glyph-name="circle" unicode="&#x25cb;" horiz-adv-x="1433" 
d="M424 41l-6 -6q-133 78 -211 213t-78 289t78 292q77 136 213 213q138 78 293 78q153 0 288 -78t213 -211q80 -136 80 -290q0 -156 -80 -289t-210 -211q-133 -80 -289 -80q-155 0 -291 80zM942 137v-8q106 62 166 168q61 107 61 233q0 127 -61 234q-60 106 -166 168
q-104 61 -231 61t-234 -61q-106 -60 -168 -166q-61 -104 -61 -231q0 -128 61 -232q62 -106 168 -166q107 -61 234 -61t231 61z" />
    <glyph glyph-name="uni25CF" unicode="&#x25cf;" horiz-adv-x="1433" 
d="M424 41l-6 -6q-133 78 -211 213t-78 289t78 292q77 136 213 213q138 78 293 78q153 0 288 -78t213 -211q80 -136 80 -290q0 -156 -80 -289t-210 -211q-133 -80 -289 -80q-155 0 -291 80z" />
    <glyph glyph-name="uni2776" unicode="&#x2776;" horiz-adv-x="1912" 
d="M573 35q-197 114 -311 311q-115 198 -115 430t115 430t311 312q197 114 431 114t430 -114t311 -312t115 -430t-115 -430q-114 -197 -311 -311q-198 -115 -430 -115q-233 0 -431 115zM950 311l133 -2v934h-110l-2 -41q-9 -48 -43 -69t-99 -21h-79v-108h200v-693z" />
    <glyph glyph-name="uni2777" unicode="&#x2777;" horiz-adv-x="1912" 
d="M573 35q-197 114 -311 311q-115 198 -115 430t115 430t311 312q197 114 431 114t430 -114t311 -312t115 -430t-115 -430q-114 -197 -311 -311q-198 -115 -430 -115q-233 0 -431 115zM657 311l699 -6v107h-553l354 295q87 75 129 137q43 64 43 147q0 71 -41 133
q-40 62 -114 99q-73 37 -173 37q-97 0 -167 -33q-74 -35 -119 -94t-51 -144h135q6 80 61 123t144 43q58 0 104 -22q44 -21 66 -60t22 -82q0 -54 -33 -98q-36 -48 -94 -98l-412 -344v-140z" />
    <glyph glyph-name="uni2778" unicode="&#x2778;" horiz-adv-x="1912" 
d="M573 35q-197 114 -311 311q-115 198 -115 430t115 430t311 312q197 114 431 114t430 -114t311 -312t115 -430t-115 -430q-114 -197 -311 -311q-198 -115 -430 -115q-233 0 -431 115zM1176 326l-5 -9q81 29 129 93q48 63 48 151q0 105 -78 162q-76 55 -178 70
q94 15 161 67q68 53 68 152q0 70 -43 125q-45 57 -119 86q-77 30 -168 30q-90 0 -160 -30q-71 -30 -114 -88t-49 -131h135q6 63 55 106t133 43q59 0 105 -18q45 -17 69 -52q25 -36 25 -75q0 -42 -25 -78q-25 -35 -73 -53q-52 -19 -115 -19h-53v-108h53q104 0 174 -43
t70 -125q0 -56 -31 -101q-29 -42 -84 -61t-111 -19q-92 0 -147 43t-64 117h-135q15 -124 105 -196q88 -70 237 -70q100 0 185 31z" />
    <glyph glyph-name="uni2779" unicode="&#x2779;" horiz-adv-x="1912" 
d="M573 35q-197 114 -311 311q-115 198 -115 430t115 430t311 312q197 114 431 114t430 -114t311 -312t115 -430t-115 -430q-114 -197 -311 -311q-198 -115 -430 -115q-233 0 -431 115zM565 717v-137h492v-269h131v269h139v108h-139v557h-250zM1057 688h-379l379 535v-535z
" />
    <glyph glyph-name="uni277A" unicode="&#x277a;" horiz-adv-x="1912" 
d="M573 35q-197 114 -311 311q-115 198 -115 430t115 430t311 312q197 114 431 114t430 -114t311 -312t115 -430t-115 -430q-114 -197 -311 -311q-198 -115 -430 -115q-233 0 -431 115zM1184 334h-2q80 41 127 115t47 176q0 100 -41 174q-39 71 -111 112q-68 39 -153 39
q-95 0 -160 -45q-67 -46 -94 -110l32 346h471v106h-591l-50 -524l129 -10q26 61 86 100q58 37 132 37q58 0 108 -27q53 -29 78 -75q29 -53 29 -117q0 -67 -29 -123q-27 -52 -78 -80q-50 -27 -110 -27q-88 0 -146 43t-67 117h-136q9 -79 60 -143q50 -62 123 -92
q76 -31 166 -31q103 0 180 39z" />
    <glyph glyph-name="uni277B" unicode="&#x277b;" horiz-adv-x="1912" 
d="M573 35q-197 114 -311 311q-115 198 -115 430t115 430t311 312q197 114 431 114t430 -114t311 -312t115 -430t-115 -430q-114 -197 -311 -311q-198 -115 -430 -115q-233 0 -431 115zM1188 334v-8q83 42 127 112q47 74 47 166q0 98 -39 166q-41 71 -113 111
q-71 39 -168 39q-61 0 -122 -25q-56 -23 -99 -72q-40 -46 -55 -104q-2 12 -2 57q0 167 61 268q62 103 183 103q78 0 127 -37q50 -38 71 -102h135q-27 113 -112 180t-221 67q-112 0 -197 -55t-131 -162q-47 -109 -47 -264q0 -159 47 -268q46 -107 129 -160t197 -53
q102 0 182 41zM879 422v-4q-52 34 -76 86q-25 55 -25 110q0 49 29 99q26 45 80 73q56 29 117 29q100 0 159 -59q60 -60 60 -154q0 -57 -29 -110q-26 -48 -78 -76q-50 -27 -112 -27q-75 0 -125 33z" />
    <glyph glyph-name="uni277C" unicode="&#x277c;" horiz-adv-x="1912" 
d="M573 35q-197 114 -311 311q-115 198 -115 430t115 430t311 312q197 114 431 114t430 -114t311 -312t115 -430t-115 -430q-114 -197 -311 -311q-198 -115 -430 -115q-233 0 -431 115zM1192 1139l-440 -828h159l410 795v139h-616v-106h487z" />
    <glyph glyph-name="uni277D" unicode="&#x277d;" horiz-adv-x="1912" 
d="M573 35q-197 114 -311 311q-115 198 -115 430t115 430t311 312q197 114 431 114t430 -114t311 -312t115 -430t-115 -430q-114 -197 -311 -311q-198 -115 -430 -115q-233 0 -431 115zM1194 328l8 -4q82 34 129 96t47 145q0 74 -37 123q-40 53 -92 78q-59 29 -110 37
q85 21 147 74t62 143q0 70 -43 125q-45 57 -119 86q-79 31 -174 31q-99 0 -178 -31q-74 -29 -119 -86q-43 -55 -43 -125q0 -91 61 -143q62 -53 148 -74q-52 -9 -111 -37q-55 -27 -92 -76t-37 -123q0 -83 47 -145q46 -62 129 -96q79 -33 189 -33q104 0 188 35zM862 895
q-51 42 -51 106q0 38 25 74q24 35 69 55q47 21 111 21t110 -21t70 -55q25 -36 25 -74q0 -63 -52 -106t-153 -43q-102 0 -154 43zM899 414l4 -2q-52 21 -86 61q-33 39 -33 98q0 55 31 97q30 40 84 59q53 18 117 18q62 0 114 -18q54 -19 84 -59q31 -42 31 -95q0 -59 -33 -98
q-34 -40 -86 -61t-112 -21q-62 0 -115 21z" />
    <glyph glyph-name="uni277E" unicode="&#x277e;" horiz-adv-x="1912" 
d="M573 35q-197 114 -311 311q-115 198 -115 430t115 430t311 312q197 114 431 114t430 -114t311 -312t115 -430t-115 -430q-114 -197 -311 -311q-198 -115 -430 -115q-233 0 -431 115zM823 1221l-14 4q-82 -42 -127 -113t-45 -166t41 -166q40 -70 113 -110q71 -39 170 -39
q63 0 122 24q56 23 99 72q40 46 55 104q2 -14 2 -63q0 -163 -61 -264t-181 -101q-77 0 -129 37q-50 36 -69 103h-135q27 -112 114 -181q85 -67 221 -67q113 0 195 55q84 56 133 164q49 107 49 264q0 164 -45 269q-46 106 -129 159q-85 54 -196 54q-106 0 -183 -39z
M1116 1126l-4 2q55 -36 78 -86q24 -52 24 -110q0 -50 -28 -98q-27 -47 -80 -74q-56 -29 -117 -29q-100 0 -160 60q-59 59 -59 153q0 58 29 111q25 46 78 75t114 29q75 0 125 -33z" />
    <glyph glyph-name="uniF8FF" unicode="&#xf8ff;" horiz-adv-x="1742" 
d="M1092 813h632v-70h-628l577 -239l-22 -64l-584 242l444 -446l-45 -48l-448 449l242 -586l-62 -26l-240 577v-625h-71v631l-242 -583l-61 26l241 586l-448 -449l-47 48l444 446l-581 -242l-25 64l577 239h-624v70h631l-584 242l27 63l583 -241l-448 446l51 49l444 -446
l-241 581l63 25l240 -580v627h71v-618l236 571l66 -25l-240 -579l442 444l49 -49l-446 -446l582 241l26 -63z" />
    <glyph glyph-name="uniFEFF" unicode="&#xfeff;" horiz-adv-x="0" 
 />
    <glyph glyph-name="NULL" horiz-adv-x="0" 
 />
    <glyph glyph-name="uni004A0301" horiz-adv-x="741" 
d="M-66 0l27 129h131q108 0 170 41q61 40 82 141l264 1245h144l-269 -1271q-30 -145 -131 -215t-270 -70h-148zM801 1692h-154l318 258h211z" />
    <glyph glyph-name="G.ss03" horiz-adv-x="1652" 
d="M827 686l29 119h743l-20 -100q-50 -238 -162 -398q-116 -166 -276 -250q-164 -86 -367 -86q-179 0 -321 74q-143 74 -222 215q-79 140 -79 340q0 250 102 475q102 224 299 363q195 137 467 137q163 0 289 -57q131 -60 209 -168q80 -112 104 -271h-149q-35 188 -156 281
q-125 96 -318 96q-212 0 -370 -119q-162 -122 -246 -315q-86 -198 -86 -418q0 -163 61 -276q61 -114 172 -172q110 -58 256 -58q157 0 289 72q131 72 219 203q90 135 136 313h-603z" />
    <glyph glyph-name="Gbreve.ss03" horiz-adv-x="1652" 
d="M827 686l29 119h743l-20 -100q-50 -238 -162 -398q-116 -166 -276 -250q-164 -86 -367 -86q-179 0 -321 74q-143 74 -222 215q-79 140 -79 340q0 250 102 475q102 224 299 363q195 137 467 137q163 0 289 -57q131 -60 209 -168q80 -112 104 -271h-149q-35 188 -156 281
q-125 96 -318 96q-212 0 -370 -119q-162 -122 -246 -315q-86 -198 -86 -418q0 -163 61 -276q61 -114 172 -172q110 -58 256 -58q157 0 289 72q131 72 219 203q90 135 136 313h-603zM883 1700l-4 -2q-61 25 -91 71q-30 47 -30 109q0 23 8 59h113q-7 -28 -7 -49q0 -57 41 -92
t115 -35q87 0 148 49q62 50 77 132h115q-15 -79 -63 -138q-47 -58 -123 -94q-75 -35 -164 -35q-74 0 -135 25z" />
    <glyph glyph-name="Gcaron.ss03" horiz-adv-x="1652" 
d="M827 686l29 119h743l-20 -100q-50 -238 -162 -398q-116 -166 -276 -250q-164 -86 -367 -86q-179 0 -321 74q-143 74 -222 215q-79 140 -79 340q0 250 102 475q102 224 299 363q195 137 467 137q163 0 289 -57q131 -60 209 -168q80 -112 104 -271h-149q-35 188 -156 281
q-125 96 -318 96q-212 0 -370 -119q-162 -122 -246 -315q-86 -198 -86 -418q0 -163 61 -276q61 -114 172 -172q110 -58 256 -58q157 0 289 72q131 72 219 203q90 135 136 313h-603zM1030 1743l266 199h140l-318 -259h-192l-213 259h116z" />
    <glyph glyph-name="Gcircumflex.ss03" horiz-adv-x="1652" 
d="M827 686l29 119h743l-20 -100q-50 -238 -162 -398q-116 -166 -276 -250q-164 -86 -367 -86q-179 0 -321 74q-143 74 -222 215q-79 140 -79 340q0 250 102 475q102 224 299 363q195 137 467 137q163 0 289 -57q131 -60 209 -168q80 -112 104 -271h-149q-35 188 -156 281
q-125 96 -318 96q-212 0 -370 -119q-162 -122 -246 -315q-86 -198 -86 -418q0 -163 61 -276q61 -114 172 -172q110 -58 256 -58q157 0 289 72q131 72 219 203q90 135 136 313h-603zM1171 1942l213 -259h-116l-199 197l-268 -197h-139l317 259h192z" />
    <glyph glyph-name="uni0122.ss03" horiz-adv-x="1652" 
d="M827 686l29 119h743l-20 -100q-50 -238 -162 -398q-116 -166 -276 -250q-164 -86 -367 -86q-179 0 -321 74q-143 74 -222 215q-79 140 -79 340q0 250 102 475q102 224 299 363q195 137 467 137q163 0 289 -57q131 -60 209 -168q80 -112 104 -271h-149q-35 188 -156 281
q-125 96 -318 96q-212 0 -370 -119q-162 -122 -246 -315q-86 -198 -86 -418q0 -163 61 -276q61 -114 172 -172q110 -58 256 -58q157 0 289 72q131 72 219 203q90 135 136 313h-603zM633 -408l55 258h154l-58 -268l-131 -162h-98l119 172h-41z" />
    <glyph glyph-name="Gdotaccent.ss03" horiz-adv-x="1652" 
d="M827 686l29 119h743l-20 -100q-50 -238 -162 -398q-116 -166 -276 -250q-164 -86 -367 -86q-179 0 -321 74q-143 74 -222 215q-79 140 -79 340q0 250 102 475q102 224 299 363q195 137 467 137q163 0 289 -57q131 -60 209 -168q80 -112 104 -271h-149q-35 188 -156 281
q-125 96 -318 96q-212 0 -370 -119q-162 -122 -246 -315q-86 -198 -86 -418q0 -163 61 -276q61 -114 172 -172q110 -58 256 -58q157 0 289 72q131 72 219 203q90 135 136 313h-603zM1098 1683h-154l55 259h154z" />
    <glyph glyph-name="Adieresis.titl" horiz-adv-x="1519" 
d="M1395 0h-148l-84 502h-815l-297 -502h-160l928 1556h154l-549 -927h719l-156 927h143zM500 1298h-152l55 258h152zM1507 1298h-151l55 258h152z" />
    <glyph glyph-name="Odieresis.titl" horiz-adv-x="1710" 
d="M453 51l-2 -4q-143 74 -222 215q-79 140 -79 342q0 252 104 475q105 226 305 361q199 135 471 135q182 0 324 -74q141 -74 221 -215q80 -142 80 -340q0 -250 -105 -475q-103 -222 -305 -358q-201 -136 -471 -136q-179 0 -321 74zM1167 213h-6q165 121 252 315
q88 195 88 424q0 166 -63 277q-65 114 -174 172q-108 57 -256 57q-213 0 -375 -119q-165 -121 -252 -315q-88 -195 -88 -424q0 -165 63 -276q64 -113 179 -172q113 -58 258 -58q212 0 374 119zM283 1294h-152l55 258h152zM1806 1294h-151l55 258h152z" />
    <glyph glyph-name="Udieresis.titl" horiz-adv-x="1591" 
d="M854 1298h-152l56 258h151zM1208 1298h-151l55 258h152zM416 31l-2 2q-115 53 -170 151q-56 100 -56 234q0 90 23 215l197 926h145l-203 -947q-20 -100 -20 -182q0 -166 94 -248t283 -82q228 0 366 129t197 394l198 936h144l-201 -943q-64 -307 -233 -473t-480 -166
q-165 0 -282 54z" />
    <glyph glyph-name="I_J.loclNLD" horiz-adv-x="1122" 
d="M70 0l26 129h375q108 0 170 41q64 42 84 141l264 1245h144l-269 -1271q-30 -145 -131 -215t-270 -70h-393zM313 473h-143l229 1086h144z" />
    <glyph glyph-name="A.inferior" horiz-adv-x="802" 
d="M629 -233h-119l-31 225h-383l-127 -225h-127l441 778h123l-250 -447h309l-59 447h114z" />
    <glyph glyph-name="B.inferior" horiz-adv-x="778" 
d="M553 109l2 -7q53 -47 53 -114q0 -61 -37 -113t-116 -82q-82 -31 -199 -31h-313l166 779h294q78 0 136 -25q56 -24 82 -63t26 -93q0 -86 -67 -135t-162 -61q83 -9 135 -55zM487 403h5q-40 29 -101 29h-180l-45 -217h176q85 0 135 29q47 27 47 86q0 46 -37 73zM272 -135
q113 0 166 41q51 39 51 98q0 47 -40 74q-42 28 -115 28h-193l-51 -241h182z" />
    <glyph glyph-name="C.inferior" horiz-adv-x="835" 
d="M125 -211h4q-73 37 -117 109q-43 70 -43 172q0 120 56 235q55 114 157 184q101 70 234 70q92 0 159 -33q72 -35 111 -94q40 -61 49 -141h-123q-12 83 -67 129q-54 45 -144 45q-93 0 -163 -55q-71 -56 -109 -146q-37 -87 -37 -194q0 -106 60 -166q58 -58 153 -58
q83 0 154 50q69 48 110 129h121q-53 -128 -155 -199q-106 -74 -242 -74q-95 0 -168 37z" />
    <glyph glyph-name="D.inferior" horiz-adv-x="839" 
d="M371 545l2 4q99 0 174 -37q77 -38 119 -106q43 -70 43 -168q0 -129 -58 -236q-59 -109 -168 -172q-108 -63 -260 -63h-280l166 778h262zM238 -123l2 -2q114 0 190 49q76 50 117 129q41 80 41 176q0 108 -58 160q-59 53 -165 53h-156l-121 -565h150z" />
    <glyph glyph-name="E.inferior" horiz-adv-x="692" 
d="M623 545l-25 -107h-391l-47 -217h385l-23 -106h-385l-49 -242h399l-22 -106h-522l166 778h514z" />
    <glyph glyph-name="F.inferior" horiz-adv-x="661" 
d="M608 545l-22 -107h-379l-49 -229h372l-22 -107h-373l-72 -335h-120l166 778h499z" />
    <glyph glyph-name="G.inferior" horiz-adv-x="886" 
d="M322 92l24 98h391l-94 -432h-98l45 201q-44 -93 -123 -154t-197 -61q-83 0 -153 37q-71 37 -111 108q-41 71 -41 172q0 127 55 240q55 114 160 184q104 70 240 70q137 0 219 -70q84 -72 102 -184h-120q-15 78 -70 121t-139 43q-95 0 -168 -55q-71 -53 -113 -146
q-39 -85 -39 -194q0 -66 29 -119q26 -48 78 -76q49 -27 114 -27q69 0 129 31q58 30 99 86q39 54 55 127h-274z" />
    <glyph glyph-name="H.inferior" horiz-adv-x="847" 
d="M549 221l69 324h121l-166 -778h-120l73 348h-389l-74 -348h-120l166 778h120l-69 -324h389z" />
    <glyph glyph-name="I.inferior" horiz-adv-x="339" 
d="M63 -233h-120l166 778h120z" />
    <glyph glyph-name="J.inferior" horiz-adv-x="415" 
d="M-137 -233l22 106h58q57 0 84 21q30 23 41 73l122 578h121l-131 -615q-18 -84 -71 -125q-49 -38 -158 -38h-88z" />
    <glyph glyph-name="K.inferior" horiz-adv-x="747" 
d="M580 545h149l-448 -373l311 -405h-135l-305 399l-86 -399h-121l166 778h120l-75 -355z" />
    <glyph glyph-name="L.inferior" horiz-adv-x="591" 
d="M229 545l-143 -672h340l-23 -106h-460l166 778h120z" />
    <glyph glyph-name="M.inferior" horiz-adv-x="1128" 
d="M59 -233h-116l166 778h116zM395 -233h-108l-58 778h109zM514 -233h-117l385 778h119zM854 -233h-115l166 778h115z" />
    <glyph glyph-name="N.inferior" horiz-adv-x="913" 
d="M59 -233h-116l166 778h116zM520 -233h-114l-179 778h115zM639 -233h-117l166 778h117z" />
    <glyph glyph-name="O.inferior" horiz-adv-x="884" 
d="M125 -211v-4q-73 37 -117 109q-43 70 -43 172q0 127 55 237q56 112 160 182t240 70q97 0 170 -37q74 -38 117 -108t43 -172q0 -124 -56 -236q-55 -110 -159 -180t-240 -70q-97 0 -170 37zM475 -104l-4 -2q74 56 115 145q41 90 41 197q0 105 -60 165q-58 58 -159 58
q-96 0 -170 -56q-73 -55 -113 -143q-39 -85 -39 -197q0 -106 59 -165q58 -58 160 -58q96 0 170 56z" />
    <glyph glyph-name="P.inferior" horiz-adv-x="741" 
d="M377 545l2 -4q127 0 201 -56q73 -55 73 -157q0 -86 -43 -150t-125 -98q-79 -33 -196 -33h-166l-60 -280h-120l166 778h268zM303 150l2 -3q113 0 172 41q60 42 60 121q0 64 -43 94q-45 31 -125 31h-160l-62 -284h156z" />
    </font>
</defs>
</svg>
