<?xml version="1.0" standalone="no"?>
<!DOCTYPE svg PUBLIC "-//W3C//DTD SVG 1.1//EN" "http://www.w3.org/Graphics/SVG/1.1/DTD/svg11.dtd" >
<svg xmlns="http://www.w3.org/2000/svg" xmlns:xlink="http://www.w3.org/1999/xlink" version="1.1">
<metadata>
Created by FontForge 20170731 at Fri Apr 21 21:41:34 2023
 By Aleksey,,,
(c) 2014-2020. Copyright by TYPE.WELTKERN :. All rights reserved.
</metadata>
<defs>
<font id="TWKEverett-MediumItalic" horiz-adv-x="1536" >
  <font-face 
    font-family="TWK Everett"
    font-weight="500"
    font-style="italic"
    font-stretch="normal"
    units-per-em="2048"
    panose-1="2 11 2 4 0 0 0 0 0 0"
    ascent="1638"
    descent="-410"
    x-height="1104"
    cap-height="1556"
    bbox="-1964 -635 7008 2216"
    underline-thickness="184"
    underline-position="-649"
    slope="-12"
    unicode-range="U+000D-FEFF"
  />
<missing-glyph horiz-adv-x="1515" 
d="M1210 0h-1140l331 1556h1141zM616 1346l-239 -1135h618l240 1135h-619z" />
    <glyph glyph-name="fi" unicode="fi" horiz-adv-x="1349" 
d="M1321 1104l-234 -1102h-262l195 916h-434l-195 -916h-262l195 916h-215l41 188h215l36 178q27 133 129 203q104 72 265 72h190l-39 -187h-125q-77 0 -116 -31q-38 -31 -50 -94l-30 -143h696zM1090 1276l61 283h274l-61 -283h-274z" />
    <glyph glyph-name="fl" unicode="fl" horiz-adv-x="1349" 
d="M1087 0l-262 2l291 1370h-295q-77 0 -116 -31q-38 -31 -50 -94l-30 -143h264l-41 -189h-262l-195 -915h-262l195 915h-215l41 189h215l36 178q27 133 129 203q103 71 265 71h622z" />
    <glyph glyph-name="W_W_W" unicode="WWW" horiz-adv-x="6821" 
d="M6066 27l666 1529h276l-684 -1556h-510l56 1522l-596 -1522h-514l-17 1516l-665 -1516h-510l55 1522l-596 -1522h-514l-14 1520l-666 -1520h-512l57 1528l-598 -1528h-514l-14 1556h262l10 -1521l600 1521h506l-53 -1525l664 1525h520l8 -1525l602 1525h506l-53 -1525
l663 1525h520l9 -1525l602 1525h506z" />
    <glyph glyph-name="f_f" unicode="ff" horiz-adv-x="1595" 
d="M1618 1370v4q-78 0 -117 -31q-37 -30 -49 -94l-31 -143h265l-41 -188h-263l-194 -916h-262l194 916h-534l-195 -916h-262l195 916h-215l41 188h215l36 178q27 133 129 203q104 72 265 72h190l-39 -187h-125q-77 0 -116 -31q-38 -31 -50 -94l-30 -143h536l37 178
q27 133 129 203q103 71 264 71h193l-41 -186h-125z" />
    <glyph glyph-name="f_f_i" unicode="ffi" horiz-adv-x="2146" 
d="M1884 0l-262 4l195 916h-435l-194 -916h-262l194 916h-534l-195 -916h-262l195 916h-215l41 188h215l36 178q27 133 129 203q104 72 265 72h190l-39 -187h-125q-77 0 -116 -31q-38 -31 -50 -94l-30 -143h536l37 178q27 133 129 203q104 72 264 72h193l-41 -187h-125
q-78 0 -117 -31q-37 -30 -49 -94l-31 -143h699zM1888 1278l60 283h274l-59 -283h-275z" />
    <glyph glyph-name="f_f_l" unicode="ffl" horiz-adv-x="2146" 
d="M1952 1556l262 5l-330 -1557h-262l195 916h-435l-194 -916h-262l194 916h-534l-195 -916h-262l195 916h-215l41 188h215l36 178q27 133 129 203q104 72 265 72h190l-39 -187h-125q-77 0 -116 -31q-38 -31 -50 -94l-30 -143h536l37 178q27 133 129 203q104 72 264 72h193
l-41 -187h-125q-78 0 -117 -31q-37 -30 -49 -94l-31 -143h434z" />
    <glyph glyph-name="f_j" unicode="fj" horiz-adv-x="1349" 
d="M1321 1104l-260 -1227q-27 -133 -129 -203q-103 -71 -264 -71h-129l41 190h61q77 0 117 29q37 27 49 92l213 1004h-434l-195 -916h-262l195 916h-215l41 188h215l36 178q27 133 129 203q104 72 265 72h190l-39 -187h-125q-77 0 -116 -31q-38 -31 -50 -94l-30 -143h696z
M1090 1278l61 283h274l-61 -283h-274z" />
    <glyph glyph-name="f_t" unicode="ft" horiz-adv-x="1622" 
d="M1380 915l-123 -581q-6 -27 -6 -55q0 -47 35 -68q34 -21 105 -21h100l-41 -190h-150q-89 0 -165 29q-70 27 -111 80q-39 51 -39 120q0 57 8 93l127 596h-534l-195 -916h-262l195 916h-215l41 188h215l36 178q27 133 129 203q104 72 265 72h190l-39 -187h-125
q-77 0 -116 -31q-38 -31 -50 -94l-30 -143h536l56 262h260l-56 -262h262l-41 -189h-262z" />
    <glyph glyph-name="t_f" unicode="tf" horiz-adv-x="1609" 
d="M1634 1370v-2q-76 0 -116 -29q-37 -26 -52 -92l-30 -143h266l-41 -189h-264l-193 -915h-262l195 915h-564l-122 -583q-7 -32 -7 -56q0 -46 35 -67t105 -21h100l-41 -190h-149q-90 0 -166 29q-71 27 -111 79q-39 51 -39 121q0 56 8 92l127 596h-217l41 189h217l56 262h260
l-56 -262h564l36 178q27 133 129 203q103 71 265 71h190l-39 -186h-125z" />
    <glyph glyph-name="t_t" unicode="tt" horiz-adv-x="1628" 
d="M1386 915l-122 -583q-7 -31 -7 -56q0 -46 35 -67q34 -21 105 -21h100l-41 -190h-149q-90 0 -166 29q-71 27 -111 79q-39 51 -39 121q0 56 8 92l127 596h-553l-122 -583q-7 -32 -7 -56q0 -46 35 -67t105 -21h100l-41 -190h-149q-90 0 -166 29q-71 27 -111 79
q-39 51 -39 121q0 56 8 92l127 596h-217l41 189h217l56 262h260l-56 -262h551l56 262h262l-56 -262h263l-41 -189h-263z" />
    <glyph glyph-name="w_w_w" unicode="www" horiz-adv-x="5326" 
d="M4708 31l457 1073h246l-473 -1104h-455l41 1073l-408 -1073h-458l-13 1057l-452 -1057h-453l41 1073l-407 -1073h-461l-10 1057l-453 -1057h-455l41 1073l-407 -1073h-459l-12 1104h235l8 -1077l412 1077h444l-36 -1073l456 1073h461l8 -1073l412 1073h444l-41 -1077
l461 1077h459l8 -1077l412 1077h444z" />
    <glyph glyph-name=".notdef" horiz-adv-x="1515" 
d="M1210 0h-1140l331 1556h1141zM616 1346l-239 -1135h618l240 1135h-619z" />
    <glyph glyph-name=".null" horiz-adv-x="0" 
 />
    <glyph glyph-name="nonmarkingreturn" unicode="&#xd;" horiz-adv-x="493" 
 />
    <glyph glyph-name="space" unicode=" " horiz-adv-x="493" 
 />
    <glyph glyph-name="exclam" unicode="!" horiz-adv-x="608" 
d="M408 522h-224l185 1034h295zM340 0h-295l59 279h295z" />
    <glyph glyph-name="quotedbl" unicode="&#x22;" horiz-adv-x="849" 
d="M422 958h-197l90 598h269zM791 958h-197l90 598h268z" />
    <glyph glyph-name="numbersign" unicode="#" horiz-adv-x="1658" 
d="M1692 1104l-39 -176h-338l-144 -340h304l-39 -178h-338l-172 -410h-213l172 410h-344l-172 -410h-211l172 410h-275l39 178h309l144 340h-275l39 176h310l190 452h211l-191 -452h345l190 452h213l-190 -452h303zM614 588h344l144 340h-344z" />
    <glyph glyph-name="dollar" unicode="$" horiz-adv-x="1396" 
d="M948 887l-10 -13q111 -35 182 -92q74 -59 111 -131q37 -73 37 -153q0 -159 -76 -275q-77 -117 -209 -182q-133 -65 -301 -74l-51 -246h-252l57 265q-172 43 -270 168t-107 313h269q9 -147 94 -223t229 -76q93 0 178 31q82 30 136 96q51 63 51 154q0 65 -33 104
q-36 42 -86 65q-59 27 -141 52l-187 57q-149 46 -241 141t-92 246q0 129 71 232q68 99 195 159q124 59 280 68l49 235h252l-55 -258q156 -45 244 -149q94 -110 117 -260h-269q-15 108 -100 172q-84 63 -217 63q-83 0 -156 -28q-69 -26 -110 -80q-41 -53 -41 -117
q0 -53 28 -92q27 -37 84 -62q65 -28 152 -53z" />
    <glyph glyph-name="percent" unicode="%" horiz-adv-x="1998" 
d="M260 780l2 -4q-80 83 -80 240q0 144 49 272q50 130 150 211q101 82 250 82q140 0 219 -82q80 -83 80 -239q0 -145 -49 -273q-50 -131 -150 -209q-103 -80 -252 -80q-140 0 -219 82zM573 -4h-256l1205 1556h256zM629 915l4 -6q55 74 78 168q24 99 24 180q0 83 -33 125
q-34 43 -92 43q-78 0 -129 -69q-55 -74 -78 -168q-24 -99 -24 -180t31 -123q29 -39 90 -39q78 0 129 69zM1251 47l2 -4q-79 82 -79 240q0 144 49 272q50 131 149 211q101 82 250 82q91 0 158 -37q66 -37 104 -111q37 -73 37 -174q0 -144 -49 -272q-50 -131 -150 -209
q-103 -80 -252 -80q-140 0 -219 82zM1620 180q54 72 80 168q26 95 26 180t-32 123q-35 41 -92 41q-78 0 -129 -69q-54 -72 -80 -168q-27 -99 -27 -181q0 -83 33 -122q35 -41 92 -41q78 0 129 69z" />
    <glyph glyph-name="ampersand" unicode="&#x26;" horiz-adv-x="1562" 
d="M1227 375l-37 -25l235 -346h-295l-116 172q-117 -94 -246 -147q-128 -52 -260 -52q-137 0 -246 50q-106 48 -168 135q-61 85 -61 203q0 133 57 229q59 100 162 172t262 147q-56 77 -80 142t-24 133q0 107 65 196q66 90 178 142q115 53 252 53q123 0 207 -37
q88 -39 133 -104q47 -68 47 -156q0 -95 -51 -166q-51 -72 -141 -131q-87 -58 -221 -117l-25 -10l236 -348l249 315h246zM760 1374l2 -2q-51 -31 -74 -76q-24 -46 -24 -92q0 -43 16 -86q15 -40 49 -92l6 -10l15 6q100 46 153 80q62 40 90 80q31 45 31 100q0 62 -41 92
q-42 31 -104 31q-68 0 -119 -31zM913 324l-297 432q-121 -61 -194 -121q-69 -57 -100 -121t-31 -133t33 -119q35 -54 92 -80q56 -26 129 -26q182 0 368 168z" />
    <glyph glyph-name="quotesingle" unicode="'" horiz-adv-x="483" 
d="M422 958h-197l90 598h269z" />
    <glyph glyph-name="parenleft" unicode="(" horiz-adv-x="684" 
d="M213 -401l2 -2q-72 182 -111 340q-38 153 -38 350q0 345 145 655q142 303 412 614h278q-283 -322 -430 -622q-149 -305 -149 -645q0 -203 38 -359q41 -168 107 -331h-254z" />
    <glyph glyph-name="parenright" unicode=")" horiz-adv-x="684" 
d="M-205 -401l-4 -2q283 322 430 622q150 307 150 645q0 201 -39 361q-41 168 -107 331h254q72 -184 111 -339q39 -157 39 -351q0 -346 -144 -653q-143 -305 -411 -614h-279z" />
    <glyph glyph-name="asterisk" unicode="*" horiz-adv-x="952" 
d="M1020 1540l16 -164l-262 -26l113 -248l-152 -68l-114 254l-207 -184l-113 123l205 182l-230 131l84 141l232 -133l51 246l164 -33l-51 -250z" />
    <glyph glyph-name="plus" unicode="+" horiz-adv-x="1312" 
d="M758 653h452v-194h-452v-459h-201v459h-453v194h453v451h201v-451z" />
    <glyph glyph-name="comma" unicode="," horiz-adv-x="583" 
d="M27 0l59 279h295l-68 -314l-200 -244h-176l184 279h-94z" />
    <glyph glyph-name="hyphen" unicode="-" horiz-adv-x="919" 
d="M774 475h-661l45 213h661z" />
    <glyph glyph-name="period" unicode="." horiz-adv-x="583" 
d="M322 0h-295l59 279h295z" />
    <glyph glyph-name="slash" unicode="/" horiz-adv-x="1101" 
d="M238 0h-295l1015 1556h299z" />
    <glyph glyph-name="zero" unicode="0" horiz-adv-x="1452" 
d="M266 121v-2q-131 143 -131 434q0 248 80 483q79 233 256 387t442 154q236 0 369 -145q131 -143 131 -435q0 -246 -80 -481q-79 -233 -256 -387t-442 -154q-235 0 -369 146zM940 313q109 139 158 332q49 192 49 369q0 193 -64 278q-65 86 -198 86q-168 0 -275 -137
q-105 -135 -159 -332q-52 -192 -52 -368q0 -192 66 -279q65 -86 201 -86q167 0 274 137z" />
    <glyph glyph-name="one" unicode="1" horiz-adv-x="819" 
d="M639 1556h211l-330 -1556h-266l235 1118h-329l45 211h57q102 0 170 21t111 61q38 35 75 105z" />
    <glyph glyph-name="two" unicode="2" horiz-adv-x="1363" 
d="M358 211l854 -2l-43 -211h-1187l59 274l793 557q133 95 204 179q68 80 68 166q0 94 -74 147t-194 53q-138 0 -226 -67q-89 -68 -116 -199h-269q26 143 117 254q86 105 221 162q131 55 283 55q155 0 268 -45q116 -46 184 -135t68 -211q0 -149 -86 -270t-266 -246z" />
    <glyph glyph-name="three" unicode="3" horiz-adv-x="1361" 
d="M1288 1018l-4 -8q-61 -79 -164 -129q-107 -52 -227 -72q145 -29 248 -115q98 -82 98 -225q0 -137 -80 -252t-229 -182q-151 -68 -350 -68q-161 0 -279 56q-117 55 -184 157q-67 101 -76 240h268q9 -124 84 -187q73 -61 201 -61q117 0 201 37q89 39 133 106q47 71 47 166
q0 114 -88 172t-246 58h-86l45 211h78q141 0 229 39q93 41 135 98q43 58 43 123q0 89 -67 141q-68 53 -199 53q-120 0 -203 -57q-86 -59 -116 -172h-269q29 128 121 231q86 96 215 150q122 51 262 51q146 0 267 -47q117 -45 186 -133q68 -86 68 -195q0 -106 -62 -186z" />
    <glyph glyph-name="four" unicode="4" horiz-adv-x="1398" 
d="M1143 643h221l-43 -211h-223l-92 -432h-267l92 432h-802l59 275l723 849h524zM1063 1524l-750 -881h564z" />
    <glyph glyph-name="five" unicode="5" horiz-adv-x="1368" 
d="M1358 1346l-758 -15l-160 -524q73 107 183 176q109 68 239 68q121 0 215 -52q97 -54 150 -149q55 -98 55 -236q0 -179 -86 -327q-87 -149 -242 -234q-157 -86 -358 -86q-161 0 -279 56q-117 55 -178 157q-61 101 -67 244h268q9 -129 80 -191q70 -61 205 -61q108 0 200 59
q94 60 146 158q53 100 53 209q0 129 -74 197q-73 67 -194 67q-117 0 -209 -57q-96 -59 -156 -156l-258 27l268 880h1002z" />
    <glyph glyph-name="six" unicode="6" horiz-adv-x="1417" 
d="M1122 973l-2 -4q102 -58 154 -160q51 -99 51 -221q0 -167 -86 -309q-85 -141 -240 -224q-152 -82 -344 -82q-147 0 -270 60q-120 58 -190 184q-70 125 -70 315q0 239 96 486q95 243 277 403q183 160 430 160q218 0 344 -111q125 -110 149 -303h-268q-12 96 -70 154
q-57 57 -178 57q-130 0 -233 -86q-102 -86 -170 -233q-70 -152 -96 -334q38 85 108 156q68 68 166 110q96 41 197 41q142 0 245 -59zM872 229h-2q91 55 142 146q49 88 49 194q0 69 -31 129q-29 57 -92 95q-59 36 -152 36q-122 0 -213 -55q-93 -56 -145 -141
q-51 -83 -51 -172t35 -154q34 -64 98 -98q65 -35 154 -35q117 0 208 55z" />
    <glyph glyph-name="seven" unicode="7" horiz-adv-x="1144" 
d="M209 1346l43 210h1053l-58 -274l-911 -1282h-324l979 1346h-782z" />
    <glyph glyph-name="eight" unicode="8" horiz-adv-x="1423" 
d="M1290 950v-2q-124 -95 -311 -125q88 -22 160 -67q70 -44 118 -117t48 -162q0 -131 -80 -246q-79 -113 -236 -184q-155 -70 -368 -70q-162 0 -289 50q-125 49 -193 141q-67 91 -67 213q0 127 67 221q70 98 178 152q112 56 238 71q-125 40 -203 115t-78 197q0 111 72 215
q71 102 209 164q137 61 332 61q160 0 276 -45q121 -47 185 -129q65 -83 65 -195q0 -164 -123 -258zM999 963l-2 6q82 40 119 98t37 117q0 53 -31 98q-30 44 -92 68q-61 24 -149 24q-120 0 -197 -41t-113 -100t-36 -125q0 -83 61 -135q60 -51 188 -51q131 0 215 41zM829 217
v-10q93 38 148 108t55 166q0 68 -37 123q-38 57 -104 86q-70 31 -150 31q-125 0 -213 -39q-93 -41 -145 -111q-53 -71 -53 -165q0 -108 84 -168q82 -58 215 -58q110 0 200 37z" />
    <glyph glyph-name="nine" unicode="9" horiz-adv-x="1417" 
d="M1130 1522h5q118 -58 190 -183q70 -122 70 -315q0 -241 -95 -485q-94 -243 -276 -402q-183 -160 -430 -160q-218 0 -344 111t-150 303h269q12 -94 71 -153q58 -58 178 -58q128 0 232 84q102 82 170 228q68 145 98 329q-43 -88 -112 -151q-71 -66 -168 -107
q-91 -39 -197 -39q-141 0 -246 60q-101 58 -153 159t-52 222q0 167 86 309q84 139 240 223q152 82 344 82q153 0 270 -57zM942 778h-2q94 55 147 142q54 88 54 172q0 89 -37 153q-38 65 -100 98q-65 35 -154 35q-119 0 -207 -55q-89 -56 -139 -145q-49 -88 -49 -195
q0 -71 30 -129q28 -54 93 -94q61 -37 149 -37q121 0 215 55z" />
    <glyph glyph-name="colon" unicode=":" horiz-adv-x="585" 
d="M322 0h-295l59 279h295zM469 692h-295l59 279h295z" />
    <glyph glyph-name="semicolon" unicode=";" horiz-adv-x="585" 
d="M27 0l59 279h295l-68 -314l-200 -244h-176l184 279h-94zM469 692h-295l59 279h295z" />
    <glyph glyph-name="less" unicode="&#x3c;" horiz-adv-x="1271" 
d="M123 717l981 346v-209l-858 -299l858 -299v-207l-981 344v324z" />
    <glyph glyph-name="equal" unicode="=" horiz-adv-x="1390" 
d="M1217 678h-1041v196h1041v-196zM1217 246h-1041v194h1041v-194z" />
    <glyph glyph-name="greater" unicode="&#x3e;" horiz-adv-x="1271" 
d="M170 854v209l979 -346v-324l-979 -344v207l858 299z" />
    <glyph glyph-name="question" unicode="?" horiz-adv-x="1181" 
d="M420 522l6 2q24 122 82 209q60 91 160 160l118 86q85 62 123 98q45 42 62 74q18 35 18 74q0 47 -26 80t-78 55q-47 20 -115 20q-123 0 -203 -57q-83 -59 -104 -168h-264q27 139 110 234q82 94 207 141q124 47 270 47q142 0 246 -39q108 -41 166 -113q59 -74 59 -172
q0 -116 -63 -200q-65 -86 -184 -174l-121 -88q-76 -57 -111 -89q-40 -37 -63 -79q-26 -47 -37 -101h-258zM604 2h-295l62 279h295z" />
    <glyph glyph-name="at" unicode="@" horiz-adv-x="1986" 
d="M1534 1282l-4 2q176 -101 268 -266q96 -172 96 -371q0 -170 -57 -313q-60 -150 -172 -240q-115 -92 -270 -92q-130 0 -197 55q-69 57 -84 152q-44 -90 -131 -150q-88 -61 -211 -61q-74 0 -141 31q-63 29 -105 90q-39 56 -39 135q0 160 111 233q115 76 324 97l260 26l4 23
q8 31 8 61q0 58 -37 92q-38 35 -113 35q-82 0 -137 -37t-76 -110h-229q27 102 92 170q63 66 158 102q93 35 199 35q120 0 202 -33q85 -34 131 -98t46 -154q0 -17 -11 -92l-61 -289q-6 -37 -6 -47q0 -94 106 -94q83 0 139 68q58 71 84 168q29 110 29 198q0 160 -74 293
q-74 134 -209 213q-136 80 -313 80q-242 0 -442 -117t-314 -311t-114 -412q0 -179 73 -313q73 -135 207 -209q133 -74 307 -74q93 0 185 25q93 25 178 70l70 -158q-116 -58 -230 -88q-118 -31 -229 -31q-216 0 -387 98t-266 271q-97 177 -97 381q0 276 146 522
q144 243 393 387q251 145 547 145q222 0 393 -98zM983 193v-7q57 34 98 99q43 69 60 149l6 33l-170 -18q-75 -8 -137 -25q-56 -15 -90 -49q-35 -35 -35 -92q0 -63 43 -93q44 -30 98 -30q71 0 127 33z" />
    <glyph glyph-name="A" unicode="A" horiz-adv-x="1589" 
d="M1470 0h-274l-55 446h-721l-246 -446h-293l871 1556h514zM1008 1520l-465 -848h569z" />
    <glyph glyph-name="B" unicode="B" horiz-adv-x="1497" 
d="M1206 752h-2q83 -41 133 -115q49 -73 49 -176q0 -130 -73 -234t-230 -166q-155 -61 -393 -61h-629l330 1556h598q161 0 268 -49t160 -135t53 -190q0 -112 -63 -193q-65 -84 -168 -129q-107 -47 -223 -59q109 -9 190 -49zM1130 1280l-2 -2q-64 49 -174 49h-348l-88 -416
h338q120 0 193 33q76 34 110 86q35 53 35 117q0 84 -64 133zM725 223l-4 2q145 0 229 37q88 39 121 94q35 59 35 123q0 92 -68 148q-67 55 -198 55h-369l-98 -459h352z" />
    <glyph glyph-name="C" unicode="C" horiz-adv-x="1615" 
d="M434 49l-12 -6q-143 73 -227 219q-82 143 -82 344q0 246 104 469q105 225 307 363q204 139 477 139q178 0 312 -64q139 -66 219 -186q83 -124 98 -291h-280q-24 159 -121 244q-96 84 -252 84q-180 0 -311 -104q-134 -106 -203 -279q-70 -174 -70 -375q0 -134 49 -225
t136 -141q86 -50 200 -50q104 0 197 43q96 44 172 117q77 74 129 172h280q-67 -162 -180 -284t-270 -193q-155 -70 -344 -70q-183 0 -328 74z" />
    <glyph glyph-name="D" unicode="D" horiz-adv-x="1622" 
d="M930 1556l-2 -2q200 0 344 -69q149 -71 231 -209q82 -137 82 -338q0 -268 -117 -479q-119 -215 -333 -336q-217 -123 -510 -123h-562l330 1556h537zM655 225v-2q214 0 361 99q148 99 221 258q74 160 74 346q0 199 -105 301q-103 100 -303 100h-293l-231 -1102h276z" />
    <glyph glyph-name="E" unicode="E" horiz-adv-x="1349" 
d="M1438 1556l-47 -227h-777l-88 -416h760l-47 -227h-760l-98 -459h793l-50 -227h-1061l330 1556h1045z" />
    <glyph glyph-name="F" unicode="F" horiz-adv-x="1290" 
d="M1413 1556l-49 -227h-750l-94 -440h737l-49 -225h-735l-141 -664h-269l330 1556h1020z" />
    <glyph glyph-name="G" unicode="G" horiz-adv-x="1716" 
d="M809 639l47 215h791l-183 -858h-227l82 385q-82 -166 -229 -289t-363 -123q-168 0 -307 74q-136 72 -217 219q-80 145 -80 344q0 246 104 469q105 225 308 363q204 139 483 139q177 0 313 -59q138 -60 219 -172q86 -118 109 -277h-281q-27 148 -125 221q-100 74 -262 74
q-183 0 -317 -104q-135 -105 -205 -277q-70 -171 -70 -371q0 -135 52 -229t143 -143q92 -50 215 -50q126 0 233 58q109 59 185 160q75 100 110 231h-528z" />
    <glyph glyph-name="H" unicode="H" horiz-adv-x="1628" 
d="M1257 918l136 638h268l-330 -1556h-268l143 680h-731l-143 -680h-269l330 1556h269l-136 -638h731z" />
    <glyph glyph-name="I" unicode="I" horiz-adv-x="628" 
d="M332 0h-269l330 1556h269z" />
    <glyph glyph-name="J" unicode="J" horiz-adv-x="811" 
d="M-74 0l47 227h160q88 0 135 35q48 36 66 117l250 1180h268l-260 -1231q-34 -163 -146 -246q-110 -82 -309 -82h-211z" />
    <glyph glyph-name="K" unicode="K" horiz-adv-x="1460" 
d="M1288 1556h357l-838 -753l573 -803h-319l-561 795l-168 -795h-269l330 1556h269l-150 -702z" />
    <glyph glyph-name="L" unicode="L" horiz-adv-x="1167" 
d="M662 1556l-281 -1329h688l-49 -227h-957l330 1556h269z" />
    <glyph glyph-name="M" unicode="M" horiz-adv-x="2199" 
d="M2232 1556l-329 -1556h-269l326 1534l-727 -1534h-502l-76 1526l-323 -1526h-269l330 1556h516l72 -1527l719 1527h532z" />
    <glyph glyph-name="N" unicode="N" horiz-adv-x="1765" 
d="M1204 31l324 1525h270l-330 -1556h-516l-297 1526l-323 -1526h-269l330 1556h514z" />
    <glyph glyph-name="O" unicode="O" horiz-adv-x="1716" 
d="M442 49l-2 -6q-150 73 -233 219q-84 147 -84 344q0 250 108 471q110 224 314 361q207 139 485 139q187 0 338 -74q152 -75 234 -217q84 -147 84 -344q0 -251 -107 -469q-109 -223 -313 -360q-206 -138 -486 -138q-187 0 -338 74zM1122 287h-4q139 106 211 278
q74 177 74 377q0 136 -51 225q-53 92 -142 142q-88 49 -209 49q-181 0 -319 -105q-139 -106 -211 -278q-74 -177 -74 -377q0 -134 52 -225q54 -94 143 -142q91 -49 211 -49q181 0 319 105z" />
    <glyph glyph-name="P" unicode="P" horiz-adv-x="1445" 
d="M965 1556v-2q161 0 280 -49q118 -49 187 -145q67 -94 67 -234q0 -173 -82 -301t-246 -196q-165 -68 -393 -68h-327l-119 -561h-269l330 1556h572zM817 784l-2 2q133 0 223 37q91 37 138 109q47 71 47 166q0 119 -70 174t-215 55h-324l-116 -543h319z" />
    <glyph glyph-name="Q" unicode="Q" horiz-adv-x="1726" 
d="M1620 575l-4 -4q-64 -180 -184 -315l237 -260h-328l-96 104q-209 -129 -469 -129q-187 0 -338 74q-150 73 -233 219q-84 147 -84 344q0 250 108 471q110 224 314 361q207 139 485 139q187 0 338 -74t233 -217q84 -147 84 -344q0 -192 -63 -369zM1090 270l-261 285h328
l100 -111q68 99 107 232q37 127 37 270q0 136 -51 225q-53 92 -142 142q-88 49 -209 49q-181 0 -319 -105q-139 -106 -211 -278q-74 -177 -74 -377q0 -136 51 -225q52 -91 144 -141t211 -50q155 0 289 84z" />
    <glyph glyph-name="R" unicode="R" horiz-adv-x="1497" 
d="M1434 920l-2 -2q-49 -99 -142 -170q-93 -72 -227 -109l268 -641h-295l-243 608h-7h-327l-129 -608h-269l330 1556h584q148 0 262 -51q115 -52 180 -147q66 -97 66 -221q0 -117 -49 -215zM829 829v-4q125 0 209 41q82 40 123 105q39 62 39 141q0 60 -31 111q-29 48 -88 75
t-137 27h-336l-104 -496h325z" />
    <glyph glyph-name="S" unicode="S" horiz-adv-x="1437" 
d="M346 35l-12 -4q-133 59 -209 172q-77 115 -80 270h281q3 -96 49 -160t123 -94q79 -31 172 -31q104 0 192 27q89 27 144 82t55 139q0 64 -31 109q-28 41 -92 69q-75 33 -162 56l-198 53q-171 47 -265 141q-96 96 -96 252q0 133 84 240q83 105 227 164q145 59 320 59
q174 0 301 -53t199 -150q73 -99 94 -229h-281q-18 103 -104 162q-83 57 -234 57q-96 0 -172 -27q-74 -26 -119 -77q-43 -49 -43 -113q0 -53 31 -92q32 -39 92 -66q70 -31 162 -55l197 -55q366 -95 366 -387q0 -161 -86 -279q-85 -117 -241 -178q-157 -62 -359 -62
q-170 0 -305 60z" />
    <glyph glyph-name="T" unicode="T" horiz-adv-x="1335" 
d="M246 1556h1267l-49 -227h-497l-283 -1329h-268l282 1329h-499z" />
    <glyph glyph-name="U" unicode="U" horiz-adv-x="1593" 
d="M406 31l-5 2q-123 55 -184 157q-61 101 -61 240q0 92 22 205l197 921h268l-205 -962q-16 -82 -16 -141q0 -133 76 -197q78 -66 223 -66q180 0 295 109t158 313l200 942h268l-198 -940q-64 -305 -238 -473q-172 -166 -497 -166q-179 0 -303 56z" />
    <glyph glyph-name="V" unicode="V" horiz-adv-x="1529" 
d="M645 29l795 1527h297l-832 -1556h-512l-176 1556h275z" />
    <glyph glyph-name="W" unicode="W" horiz-adv-x="2336" 
d="M1577 31l664 1525h274l-682 -1556h-512l57 1528l-598 -1528h-514l-14 1556h262l10 -1521l600 1521h506z" />
    <glyph glyph-name="X" unicode="X" horiz-adv-x="1552" 
d="M1374 1556h338l-696 -729l434 -827h-303l-338 649l-596 -649h-342l788 852l-370 704h295l280 -536z" />
    <glyph glyph-name="Y" unicode="Y" horiz-adv-x="1402" 
d="M1313 1556h315l-776 -921l-133 -635h-270l139 666l-393 890h282l291 -663z" />
    <glyph glyph-name="Z" unicode="Z" horiz-adv-x="1413" 
d="M305 1556h1221l-62 -299l-1134 -1030h950l-47 -227h-1270l64 299l1134 1030h-905z" />
    <glyph glyph-name="bracketleft" unicode="[" horiz-adv-x="712" 
d="M872 1556l-41 -190h-227l-336 -1577h230l-41 -190h-488l416 1957h487z" />
    <glyph glyph-name="backslash" unicode="\" horiz-adv-x="1028" 
d="M870 0h-262l-354 1556h262z" />
    <glyph glyph-name="bracketright" unicode="]" horiz-adv-x="712" 
d="M227 1366l41 190h488l-416 -1957h-487l41 190h227l334 1577h-228z" />
    <glyph glyph-name="asciicircum" unicode="^" horiz-adv-x="1183" 
d="M842 1556l321 -804h-243l-261 698l-262 -698h-243l323 804h365z" />
    <glyph glyph-name="underscore" unicode="_" horiz-adv-x="1171" 
d="M934 -190h-1004l41 190h1004z" />
    <glyph glyph-name="grave" unicode="`" horiz-adv-x="673" 
d="M774 1241h-242l-272 315h346z" />
    <glyph glyph-name="a" unicode="a" horiz-adv-x="1220" 
d="M928 1090l4 -3q99 -38 151 -110q54 -76 54 -178q0 -46 -13 -109l-147 -690h-260l47 217q-59 -103 -156 -172q-98 -70 -231 -70q-91 0 -166 37q-77 38 -123 105q-45 65 -45 157q0 122 55 201t170 123q116 44 285 59l307 33l4 23q10 52 10 73q0 73 -45 115q-46 43 -141 43
q-104 0 -166 -45q-65 -47 -86 -129h-264q35 118 111 197q74 77 184 118q109 41 227 41q139 0 234 -36zM692 229l2 -4q88 95 123 258l8 37l-207 -20q-148 -15 -231 -60q-80 -44 -80 -143q0 -83 49 -123q50 -41 121 -41q125 0 215 96z" />
    <glyph glyph-name="b" unicode="b" horiz-adv-x="1323" 
d="M1073 1075l2 -6q89 -54 133 -149q47 -100 47 -232q0 -179 -67 -344t-199 -270t-313 -105q-84 0 -154 37t-116 98q-47 62 -68 136l-51 -242h-258l329 1556h258l-145 -694q59 114 164 191q103 75 239 75q116 0 199 -51zM821 225l-2 4q85 76 129 197q43 119 43 240
q0 132 -61 202q-63 72 -170 72q-117 0 -203 -80t-129 -198q-43 -119 -43 -240q0 -133 61 -203q63 -72 170 -72q118 0 205 78z" />
    <glyph glyph-name="c" unicode="c" horiz-adv-x="1226" 
d="M295 31l-6 -2q-107 57 -164 159q-59 106 -59 246q0 178 73 336q73 159 221 258q146 98 359 98q136 0 237 -49t160 -141q60 -94 66 -221h-262q-9 114 -64 172q-54 57 -162 57q-116 0 -200 -78t-127 -196q-43 -119 -43 -242q0 -133 61 -203q62 -71 170 -71q110 0 190 59
t123 166h262q-66 -187 -219 -297q-149 -107 -374 -107q-136 0 -242 56z" />
    <glyph glyph-name="d" unicode="d" horiz-adv-x="1325" 
d="M1133 1556l262 -6l-330 -1556h-260l45 215q-57 -104 -156 -170q-103 -68 -233 -68q-112 0 -203 54q-87 52 -137 151q-49 98 -49 238q0 171 65 336q63 161 197 270q130 106 313 106q98 0 166 -45q72 -48 111 -112q40 -66 55 -144zM766 227l-2 4q85 76 129 197
q43 119 43 240q0 131 -62 202q-63 72 -169 72q-117 0 -203 -80t-129 -198q-43 -119 -43 -240q0 -133 61 -203q62 -71 170 -71q119 0 205 77z" />
    <glyph glyph-name="e" unicode="e" horiz-adv-x="1249" 
d="M328 477l-6 -12q-3 -15 -3 -45q0 -132 62 -203q63 -72 176 -72q98 0 168 43q69 43 113 129h264q-83 -176 -228 -262t-331 -86q-139 0 -248 56q-108 56 -166 159q-59 106 -59 246q0 178 73 336q72 156 222 260q144 100 360 100q138 0 240 -51q104 -52 161 -149
q58 -98 58 -238q0 -102 -33 -211h-823zM489 854l3 2q-90 -84 -136 -211h562q8 31 8 68q0 104 -60 164q-59 59 -166 59q-123 0 -211 -82z" />
    <glyph glyph-name="f" unicode="f" horiz-adv-x="796" 
d="M821 1370v2q-77 0 -116 -31q-38 -31 -50 -94l-30 -143h264l-41 -189h-262l-195 -915h-262l195 915h-215l41 189h215l36 178q27 133 129 203q103 71 265 71h190l-39 -186h-125z" />
    <glyph glyph-name="g" unicode="g" horiz-adv-x="1327" 
d="M1044 1104h254l-237 -1120q-30 -141 -117 -234q-86 -92 -205 -135t-264 -43q-136 0 -242 47q-103 46 -165 129q-61 82 -70 191h264q9 -86 68 -136q58 -49 151 -49q126 0 213 66q88 67 115 182l47 223q-61 -94 -162 -155q-103 -62 -221 -62q-112 0 -201 53
q-88 52 -141 152q-51 96 -51 231q0 169 65 326q64 154 195 258q129 102 313 102q98 0 166 -45q71 -47 111 -116t55 -144zM772 260l-2 -2q86 74 129 186q43 113 43 232q0 131 -61 201q-62 71 -172 71q-120 0 -203 -74q-85 -76 -127 -186q-43 -113 -43 -229q0 -131 61 -201
q63 -72 170 -72q119 0 205 74z" />
    <glyph glyph-name="h" unicode="h" horiz-adv-x="1269" 
d="M1032 1090l-4 -5q73 -39 109 -106q37 -70 37 -166q0 -66 -13 -129l-147 -690h-262l139 645q12 59 12 123q0 88 -47 135q-45 45 -123 45q-71 0 -135 -37q-67 -39 -111 -106q-46 -70 -67 -172l-133 -629h-260l329 1556h258l-143 -677q65 115 166 182t223 67q104 0 172 -36z
" />
    <glyph glyph-name="i" unicode="i" horiz-adv-x="552" 
d="M289 0h-260l235 1104h260zM567 1274h-274l59 282h275z" />
    <glyph glyph-name="j" unicode="j" horiz-adv-x="552" 
d="M-258 -401l41 192h61q75 0 115 29q36 26 51 92l254 1192h260l-260 -1231q-27 -133 -129 -203q-103 -71 -264 -71h-129zM567 1276h-274l59 283h275z" />
    <glyph glyph-name="k" unicode="k" horiz-adv-x="1155" 
d="M936 1104h321l-569 -510l363 -594h-287l-352 580l-123 -580h-260l329 1556h260l-192 -911z" />
    <glyph glyph-name="l" unicode="l" horiz-adv-x="552" 
d="M289 0h-260l329 1556h260z" />
    <glyph glyph-name="m" unicode="m" horiz-adv-x="1935" 
d="M1706 1092l2 -13q67 -37 104 -104t37 -160q0 -64 -14 -135l-147 -690h-261l138 649q14 60 14 119q0 87 -43 133q-44 47 -117 47q-69 0 -127 -37t-104 -110q-47 -74 -68 -173l-133 -626h-262l139 649q15 79 15 119q0 87 -43 133q-44 47 -117 47q-65 0 -123 -37t-104 -110
q-47 -75 -68 -172l-133 -627h-260l235 1104h258l-47 -221q65 108 164 178q94 67 213 67q90 0 154 -37q65 -38 98 -100q35 -66 41 -141q39 79 98 141q60 63 139 105q72 38 160 38q97 0 162 -36z" />
    <glyph glyph-name="n" unicode="n" horiz-adv-x="1269" 
d="M1032 1090l-2 -7q73 -39 109 -106q37 -70 37 -166q0 -66 -13 -129l-147 -690h-262l139 645q12 59 12 123q0 88 -47 135q-45 45 -123 45q-71 0 -135 -37q-67 -39 -111 -106q-46 -70 -67 -172l-133 -629h-260l235 1104h258l-49 -223q68 115 166 182t221 67q104 0 172 -36z
" />
    <glyph glyph-name="o" unicode="o" horiz-adv-x="1269" 
d="M297 29h-6q-108 56 -166 159q-59 106 -59 246q0 178 73 336q73 157 221 260q144 100 361 100q137 0 244 -55q106 -55 168 -160q61 -104 61 -247q0 -174 -74 -334q-73 -157 -221 -260q-146 -101 -360 -101q-133 0 -242 56zM758 231l-4 5q86 77 129 196t43 240
q0 131 -62 202q-63 72 -170 72q-116 0 -202 -80q-88 -82 -130 -198q-43 -119 -43 -240q0 -132 62 -203t172 -71q119 0 205 77z" />
    <glyph glyph-name="p" unicode="p" horiz-adv-x="1323" 
d="M1073 1075l-2 -4q89 -54 133 -149q47 -100 47 -232q0 -179 -67 -344t-199 -270t-313 -105q-84 0 -152 35q-68 34 -114 96q-47 62 -68 136l-135 -641h-258l319 1505h258l-51 -238q59 116 164 189q104 73 239 73q116 0 199 -51zM817 227l-2 4q85 76 129 197q43 119 43 240
q0 132 -61 202q-63 72 -170 72q-117 0 -203 -80t-129 -198q-43 -119 -43 -240q0 -133 61 -203q62 -71 170 -71q119 0 205 77z" />
    <glyph glyph-name="q" unicode="q" horiz-adv-x="1323" 
d="M1036 1104l256 -8l-317 -1506h-260l131 615q-58 -101 -156 -168q-100 -68 -229 -68q-112 0 -203 54q-87 52 -137 151q-49 98 -49 238q0 171 65 336q63 161 197 270q130 106 313 106q96 0 166 -43q71 -44 111 -110t55 -144zM762 225l-2 4q85 76 129 197q43 119 43 240
q0 131 -62 202q-63 72 -170 72q-116 0 -202 -80t-129 -198q-43 -119 -43 -240q0 -133 61 -203q63 -72 170 -72q118 0 205 78z" />
    <glyph glyph-name="r" unicode="r" horiz-adv-x="808" 
d="M467 840l-2 -2q140 288 424 288l-55 -252h-70q-100 0 -168 -24q-67 -24 -111 -80q-42 -53 -63 -149l-133 -621h-260l235 1104h258z" />
    <glyph glyph-name="s" unicode="s" horiz-adv-x="1116" 
d="M254 14l-8 -18q-102 40 -164 121q-61 79 -70 192h264q6 -90 68 -131q59 -39 158 -39q108 0 172 37q65 38 65 109q0 40 -18 67q-20 30 -57 49q-44 23 -115 43l-150 43q-124 37 -196 109q-70 70 -70 178q0 98 62 178q61 78 172 125q107 45 249 45q113 0 213 -35
q98 -34 162 -104q65 -71 80 -168h-264q-12 57 -68 92t-143 35q-88 0 -152 -31q-61 -30 -61 -96q0 -38 18 -59q19 -22 56 -37q51 -21 108 -35l150 -43q276 -83 276 -309q0 -110 -63 -191q-64 -82 -180 -125t-267 -43q-124 0 -227 41z" />
    <glyph glyph-name="t" unicode="t" horiz-adv-x="815" 
d="M573 915l-122 -583q-7 -32 -7 -56q0 -46 35 -67t105 -21h100l-41 -190h-149q-90 0 -166 29q-71 27 -111 79q-39 51 -39 121q0 56 8 92l127 596h-217l41 189h217l56 262h260l-56 -262h263l-41 -189h-263z" />
    <glyph glyph-name="u" unicode="u" horiz-adv-x="1259" 
d="M971 1104l258 2l-234 -1104h-260l47 221q-63 -111 -164 -180q-100 -68 -223 -68q-146 0 -227 84q-80 83 -80 228q0 67 14 133l148 686h260l-137 -645q-15 -65 -15 -123q0 -94 43 -137t123 -43q113 0 197 84q82 82 117 237z" />
    <glyph glyph-name="v" unicode="v" horiz-adv-x="1212" 
d="M494 31l540 1073h269l-566 -1104h-487l-113 1104h250z" />
    <glyph glyph-name="w" unicode="w" horiz-adv-x="1849" 
d="M1221 31l456 1073h246l-473 -1104h-455l41 1073l-407 -1073h-459l-12 1104h235l8 -1077l412 1077h444z" />
    <glyph glyph-name="x" unicode="x" horiz-adv-x="1167" 
d="M967 1104h284l-495 -522l293 -582h-267l-211 426l-389 -426h-297l549 602l-266 502h266l189 -367z" />
    <glyph glyph-name="y" unicode="y" horiz-adv-x="1179" 
d="M506 156l495 948h275l-793 -1505h-270l272 520h-219l-143 985h252z" />
    <glyph glyph-name="z" unicode="z" horiz-adv-x="1087" 
d="M209 1104h895l-53 -248l-750 -666h649l-41 -190h-946l51 250l754 665h-600z" />
    <glyph glyph-name="braceleft" unicode="{" horiz-adv-x="751" 
d="M893 1556l-41 -196h-27q-71 0 -110 -39q-41 -41 -62 -129l-53 -248q-27 -122 -76 -192q-50 -71 -118 -107q-66 -35 -179 -57q232 -53 232 -228q0 -76 -15 -131l-57 -276q-12 -49 -12 -80q0 -88 112 -88h25l-41 -191h-72q-86 0 -153 31q-63 29 -99 84q-34 52 -34 121
q0 40 10 92l57 268q17 100 17 136q0 74 -37 104q-41 32 -125 41l51 244q80 9 129 30q46 19 82 78q34 55 55 166l54 240q34 156 133 241q100 86 282 86h72z" />
    <glyph glyph-name="bar" unicode="|" horiz-adv-x="591" 
d="M205 -463h-250l455 2142h249z" />
    <glyph glyph-name="braceright" unicode="}" horiz-adv-x="751" 
d="M586 780h-6q19 -28 53 -43q32 -14 92 -20l-51 -244q-78 -9 -127 -31q-46 -21 -80 -75t-55 -164l-60 -279q-35 -158 -131 -241q-100 -86 -282 -86h-74l41 190h28q72 0 111 39q41 41 59 129l62 285q27 125 76 194q51 72 118 105q68 34 179 55q-232 50 -232 229q0 67 12 125
l54 248q10 45 10 80q0 44 -27 65q-30 23 -86 23h-26l41 190h73q90 0 154 -30t98 -82q35 -53 35 -121q0 -40 -10 -92l-51 -240q-17 -83 -17 -129q0 -52 19 -80z" />
    <glyph glyph-name="asciitilde" unicode="~" horiz-adv-x="1357" 
d="M96 547l2 -4q70 95 160 153q86 56 182 56q52 0 109 -13q49 -11 141 -47q73 -33 129 -49q49 -14 105 -14q70 0 120 33q55 36 111 98l125 -125q-68 -96 -158 -154q-85 -55 -180 -55q-58 0 -111 12q-55 13 -141 49q-103 41 -131 48q-59 16 -106 16q-71 0 -121 -33
q-55 -36 -111 -98z" />
    <glyph glyph-name="uni00A0" unicode="&#xa0;" horiz-adv-x="493" 
 />
    <glyph glyph-name="exclamdown" unicode="&#xa1;" horiz-adv-x="573" 
d="M483 825h-295l62 279h295zM231 -401h-292l249 1007h224z" />
    <glyph glyph-name="cent" unicode="&#xa2;" horiz-adv-x="1300" 
d="M788 213h3q78 58 122 166h265q-62 -170 -191 -275q-131 -106 -315 -127l-51 -247h-246l55 262q-149 41 -233 153q-86 115 -86 283q0 165 61 311t188 252t308 127l51 242h246l-54 -252q147 -35 228 -135q83 -103 92 -258h-264q-9 114 -64 172q-54 57 -162 57
q-115 0 -202 -78q-86 -77 -129 -196t-43 -242q0 -133 61 -203q62 -71 170 -71q110 0 190 59z" />
    <glyph glyph-name="sterling" unicode="&#xa3;" horiz-adv-x="1284" 
d="M698 659h-6q-3 -130 -112 -239q-114 -114 -328 -207h883l-45 -211h-1082l58 270q143 73 219 129q79 58 114 121q35 62 35 140h-309l41 198h201q-40 51 -64 123q-24 71 -24 147q0 137 71 240q71 102 197 158q125 55 289 55q140 0 245 -51q107 -52 172 -141q64 -88 76 -203
h-268q-15 88 -74 141t-162 53q-89 0 -149 -32q-64 -34 -98 -95q-33 -59 -33 -141q0 -49 22 -110q20 -57 56 -111l20 -35h475l-41 -199h-379z" />
    <glyph glyph-name="currency" unicode="&#xa4;" horiz-adv-x="1441" 
d="M1190 487l135 -135l-154 -155l-139 137q-125 -78 -268 -78q-142 0 -270 78l-138 -137l-155 155l137 137q-82 125 -82 275q0 68 23 145q21 72 61 129l-137 138l155 153l140 -137q125 78 268 78t268 -78l140 137l153 -153l-139 -138q82 -125 82 -274q0 -150 -80 -277z
M510 612v-4q41 -68 106 -104q67 -37 148 -37q80 0 147 37q68 38 105 104q37 67 37 152q0 84 -37 151q-38 67 -105 105q-67 37 -147 37q-81 0 -148 -37q-64 -36 -106 -105q-39 -65 -39 -149q0 -85 39 -150z" />
    <glyph glyph-name="yen" unicode="&#xa5;" horiz-adv-x="1544" 
d="M1374 1556h320l-617 -722h312l-41 -199h-433l-28 -135h432l-43 -197h-430l-64 -303h-266l66 303h-435l43 197h433l28 135h-432l41 199h330l-324 722h293l275 -673z" />
    <glyph glyph-name="brokenbar" unicode="&#xa6;" horiz-adv-x="604" 
d="M487 838h-249l178 841h252zM213 -463h-252l178 842h252z" />
    <glyph glyph-name="section" unicode="&#xa7;" horiz-adv-x="1257" 
d="M993 928l-8 -6q106 -56 152 -129q47 -74 47 -156q0 -101 -64 -180q-67 -82 -178 -148q55 -76 55 -172q0 -98 -61 -180q-61 -81 -178 -131q-116 -49 -271 -49q-115 0 -213 43t-163 123t-80 182h268q12 -73 74 -117q61 -43 147 -43q57 0 109 19q50 18 80 53q30 34 30 80
q0 53 -39 92q-38 39 -118 82l-267 143q-101 54 -149 129q-45 71 -45 156q0 102 63 180q67 82 178 148q-55 76 -55 172q0 99 62 182q61 81 178 131q116 49 270 49q115 0 213 -43q100 -44 164 -123q65 -81 80 -180h-268q-12 73 -74 117q-61 43 -148 43q-56 0 -108 -19t-80 -51
q-31 -36 -31 -80q0 -51 41 -92q35 -35 121 -82zM795 432l8 -2q57 43 88 84q31 42 31 92q0 94 -134 166l-286 154l-8 4q-57 -43 -88 -84q-31 -42 -31 -92q0 -95 133 -166z" />
    <glyph glyph-name="dieresis" unicode="&#xa8;" horiz-adv-x="827" 
d="M475 1274h-274l59 282h275zM934 1274h-275l60 282h274z" />
    <glyph glyph-name="copyright" unicode="&#xa9;" horiz-adv-x="1945" 
d="M598 49l-4 -8q-193 114 -307 307q-113 192 -113 422q0 227 115 422q114 193 307 307q195 115 424 115q232 0 424 -113q193 -114 307 -307q115 -195 115 -420q0 -228 -113 -420q-114 -193 -307 -307q-192 -113 -424 -113q-229 0 -424 115zM1352 188h-2q153 89 243 244
q90 156 90 336q0 184 -88 336q-90 155 -243 244q-156 90 -336 90t-336 -90q-155 -89 -244 -244q-90 -156 -90 -336t90 -336q89 -155 244 -244q156 -90 336 -90t336 90zM784 348h-2q-105 59 -164 170q-59 112 -59 252t59 252q59 113 162 170q106 59 238 59q108 0 196 -39
q94 -42 154 -116q64 -79 84 -178h-215q-26 80 -82 124q-55 43 -135 43q-72 0 -125 -36q-57 -38 -86 -107q-31 -73 -31 -172t31 -172q29 -67 86 -106q55 -37 125 -37q83 0 141 43q60 45 78 129h215q-18 -104 -80 -181q-60 -75 -153 -116t-199 -41q-132 0 -238 59z" />
    <glyph glyph-name="ordfeminine" unicode="&#xaa;" horiz-adv-x="692" 
d="M725 1524v-11q68 -47 68 -131q0 -30 -7 -61l-71 -334h-185l21 100q-24 -44 -80 -81q-50 -33 -117 -33q-49 0 -88 20t-63 58q-25 39 -25 84q0 93 70 139q71 47 196 59l158 15l2 10q2 6 2 28q0 56 -71 56q-33 0 -64 -17q-28 -15 -37 -43h-190q27 89 106 138t189 49
q121 0 186 -45zM526 1120v-2q34 36 49 103l3 8l-84 -8q-61 -3 -95 -23q-30 -18 -30 -55q0 -29 22 -45q21 -15 55 -15q46 0 80 37z" />
    <glyph glyph-name="guillemotleft" unicode="&#xab;" horiz-adv-x="1347" 
d="M520 1014h320l-447 -465l230 -455h-293l-236 471zM1049 1014h319l-446 -465l229 -455h-293l-235 471z" />
    <glyph glyph-name="logicalnot" unicode="&#xac;" horiz-adv-x="1314" 
d="M1151 219h-201v469h-811v195h1012v-664z" />
    <glyph glyph-name="uni00AD" unicode="&#xad;" horiz-adv-x="919" 
d="M774 475h-661l45 213h661z" />
    <glyph glyph-name="registered" unicode="&#xae;" horiz-adv-x="1943" 
d="M1442 1505l-4 -8q193 -114 307 -307q115 -195 115 -420q0 -228 -113 -420q-114 -193 -307 -307q-192 -113 -424 -113q-229 0 -424 115q-193 114 -307 307q-113 192 -113 422q0 227 115 422q114 193 307 307q195 115 424 115q232 0 424 -113zM1352 188h-2q153 89 243 244
q90 156 90 336q0 184 -88 336q-90 155 -243 244q-156 90 -336 90t-336 -90q-155 -89 -244 -244q-90 -156 -90 -336t90 -336q89 -155 244 -244q156 -90 336 -90t336 90zM1362 774h2q-51 -65 -143 -100l215 -379h-228l-188 352h-152v-352h-200v940h374q116 0 197 -37
q84 -38 129 -104q45 -65 45 -156q0 -98 -51 -164zM868 1069v-264h170q78 0 125 35q45 33 45 96q0 65 -45 98q-47 35 -125 35h-170z" />
    <glyph glyph-name="macron" unicode="&#xaf;" horiz-adv-x="837" 
d="M950 1300h-743l39 187h745z" />
    <glyph glyph-name="degree" unicode="&#xb0;" horiz-adv-x="854" 
d="M387 926l-2 -2q-80 47 -127 127t-47 176t47 176t127 127t176 47t176 -47t127 -127t47 -176q0 -94 -47 -174t-127 -127t-174 -47q-96 0 -176 47zM645 1083l-4 -4q37 21 59 60q23 41 23 84t-23 84q-21 38 -59 59q-41 23 -82 23t-82 -23q-38 -21 -59 -59q-23 -41 -23 -82
t23 -82q22 -39 59 -60q39 -22 84 -22t84 22z" />
    <glyph glyph-name="plusminus" unicode="&#xb1;" horiz-adv-x="1402" 
d="M776 1104v-307h453v-193h-453v-319h-201v319h-452v193h452v307h201zM1229 0h-1106v193h1106v-193z" />
    <glyph glyph-name="uni00B2" unicode="&#xb2;" horiz-adv-x="718" 
d="M393 1147l406 -6l-33 -150h-631l39 189l406 260q55 36 77 61q25 28 25 62q0 36 -27 57q-26 20 -73 20q-50 0 -86 -26t-45 -74h-191q15 73 62 129q48 57 116 86q73 31 154 31q82 0 149 -25q64 -24 99 -71q34 -46 34 -107q0 -57 -24 -104q-25 -48 -62 -78q-49 -40 -92 -66z
" />
    <glyph glyph-name="uni00B3" unicode="&#xb3;" horiz-adv-x="720" 
d="M801 1462l-8 -2q-68 -48 -168 -63q74 -12 129 -60q53 -47 53 -110q0 -68 -37 -123q-36 -53 -113 -88q-73 -33 -190 -33q-131 0 -215 66q-83 65 -92 178h190q3 -54 37 -78q36 -25 92 -25q57 0 99 31q38 28 38 78q0 44 -38 67q-42 25 -105 25h-57l30 148h62q78 0 121 24
t43 66q0 34 -27 55q-28 22 -76 22q-45 0 -82 -24q-36 -23 -45 -64h-190q15 71 61 123t117 82q73 31 154 31q80 0 147 -25q65 -24 103 -71q36 -45 36 -105q0 -77 -69 -125z" />
    <glyph glyph-name="acute" unicode="&#xb4;" horiz-adv-x="686" 
d="M442 1241h-249l301 315h360z" />
    <glyph glyph-name="uni00B5" unicode="&#xb5;" horiz-adv-x="1517" 
d="M1358 190l-2 -186h-109q-144 0 -221 41t-104 139q-4 18 -7 41q-42 -111 -124 -176q-85 -67 -220 -67q-55 0 -116 22v-401h-256v1505h256v-641v-4q0 -151 59 -225t172 -74q111 0 170 74t59 227v641h256v-801v-4q0 -60 29 -86q28 -25 96 -25h62z" />
    <glyph glyph-name="paragraph" unicode="&#xb6;" horiz-adv-x="1443" 
d="M518 688l2 -4q-100 0 -180 47q-79 46 -123 127q-43 79 -43 182q0 125 70 244q71 121 190 197q118 75 264 75h760l-371 -1746h-243l330 1548h-269l-330 -1548h-243z" />
    <glyph glyph-name="periodcentered" unicode="&#xb7;" horiz-adv-x="552" 
d="M391 465h-270l59 278h271z" />
    <glyph glyph-name="cedilla" unicode="&#xb8;" horiz-adv-x="444" 
d="M92 -70l-6 -4q63 -9 102 -45q41 -38 41 -92q0 -61 -30 -108q-31 -48 -90 -72q-61 -25 -132 -25h-137l27 129h92q45 0 74 19q26 17 26 49q0 29 -18 41t-55 12h-60l35 166h145z" />
    <glyph glyph-name="uni00B9" unicode="&#xb9;" horiz-adv-x="466" 
d="M483 1776l152 -2l-166 -779h-190l108 518h-170l33 150h26q75 0 123 23q45 22 74 73z" />
    <glyph glyph-name="ordmasculine" unicode="&#xba;" horiz-adv-x="700" 
d="M264 1044h-4q-72 63 -72 177q0 90 41 170q40 79 121 129q79 49 195 49q79 0 141 -27q59 -26 94 -82t35 -129q0 -90 -41 -170q-40 -79 -123 -129q-82 -49 -196 -49q-121 0 -191 61zM553 1143v-2q33 33 51 86q19 55 19 108q0 103 -93 103q-49 0 -84 -35q-33 -33 -51 -86
t-18 -109q0 -51 24 -75q25 -25 68 -25q49 0 84 35z" />
    <glyph glyph-name="guillemotright" unicode="&#xbb;" horiz-adv-x="1347" 
d="M199 1014h290l236 -471l-426 -449h-319l446 465zM727 1014h291l235 -471l-426 -449h-319l448 465z" />
    <glyph glyph-name="onequarter" unicode="&#xbc;" horiz-adv-x="1611" 
d="M1403 344h102l-30 -149h-105l-41 -195h-192l41 195h-385l38 188l306 395h358zM1296 745l-309 -401h223zM487 1556l152 -2l-166 -778h-190l108 518h-170l33 150h27q76 0 122 22q44 21 74 74zM309 -2h-246l1160 1556h245z" />
    <glyph glyph-name="onehalf" unicode="&#xbd;" horiz-adv-x="1634" 
d="M1071 150l406 -7l-33 -149h-631l39 188l405 260q55 36 78 62q25 28 25 61q0 37 -27 58q-26 20 -73 20q-48 0 -86 -27q-37 -27 -46 -73h-190q15 74 61 129q47 56 117 86t154 30t149 -24q63 -23 99 -72q34 -46 34 -106q0 -58 -24 -105q-25 -48 -62 -78q-44 -35 -92 -65z
M479 1550l152 -2l-166 -778h-191l109 518h-170l33 150h26q77 0 123 22q44 21 74 74zM301 -8h-246l1159 1556h246z" />
    <glyph glyph-name="threequarters" unicode="&#xbe;" horiz-adv-x="1826" 
d="M788 1243l-8 -2q-68 -48 -168 -63q74 -12 129 -60q54 -48 54 -110q0 -68 -37 -123q-36 -53 -113 -88q-73 -33 -190 -33q-132 0 -215 65q-84 66 -93 179h191q3 -54 37 -78q36 -25 92 -25t98 31q39 29 39 78q0 44 -39 67q-42 25 -104 25h-58l31 147h62q75 0 120 25
q43 24 43 65q0 36 -26 56q-28 22 -76 22q-45 0 -82 -24q-36 -23 -45 -64h-190q15 71 61 123t117 82q73 31 153 31q81 0 148 -25q64 -24 102 -71q37 -46 37 -105q0 -76 -70 -125zM512 -4h-246l1159 1556h246zM1606 340h102l-31 -150h-104l-41 -194h-193l41 194h-385l39 189
l305 395h359zM1499 741l-309 -401h223z" />
    <glyph glyph-name="questiondown" unicode="&#xbf;" horiz-adv-x="1171" 
d="M813 825h-295l60 279h294zM147 -387l-12 -6q-105 41 -160 110q-55 70 -55 166q0 120 62 203q64 86 180 160l123 82q71 47 110 80q43 37 62 73q24 47 35 99h260q-24 -114 -80 -197t-154 -147l-123 -80q-78 -55 -110 -82q-42 -36 -62 -74q-22 -42 -22 -86q0 -65 51 -104
t154 -39q120 0 208 61q90 63 117 164h264q-30 -132 -116 -227q-87 -97 -213 -146q-125 -49 -273 -49q-145 0 -246 39z" />
    <glyph glyph-name="Agrave" unicode="&#xc0;" horiz-adv-x="1589" 
d="M1470 0h-274l-55 446h-721l-246 -446h-293l871 1556h514zM1008 1520l-465 -848h569zM1147 1679h-244l-299 283h346z" />
    <glyph glyph-name="Aacute" unicode="&#xc1;" horiz-adv-x="1589" 
d="M1470 0h-274l-55 446h-721l-246 -446h-293l871 1556h514zM1008 1520l-465 -848h569zM1141 1679h-275l312 283h385z" />
    <glyph glyph-name="Acircumflex" unicode="&#xc2;" horiz-adv-x="1589" 
d="M1470 0h-274l-55 446h-721l-246 -446h-293l871 1556h514zM1008 1520l-465 -848h569zM1249 1962l201 -283h-221l-168 174l-219 -174h-248l311 283h344z" />
    <glyph glyph-name="Atilde" unicode="&#xc3;" horiz-adv-x="1589" 
d="M1470 0h-274l-55 446h-721l-246 -446h-293l871 1556h514zM1008 1520l-465 -848h569zM662 1700l-3 -4q29 121 105 190q74 68 164 68q45 0 86 -12q32 -9 67 -29q27 -15 60 -25q27 -8 59 -8q46 0 84 21q36 20 57 55h93q-17 -75 -60 -137q-41 -59 -92 -88q-54 -31 -111 -31
q-43 0 -84 12q-31 9 -73 31q-26 14 -58 24q-37 11 -59 11q-49 0 -86 -21q-38 -21 -55 -57h-94z" />
    <glyph glyph-name="Adieresis" unicode="&#xc4;" horiz-adv-x="1589" 
d="M1470 0h-274l-55 446h-721l-246 -446h-293l871 1556h514zM1008 1520l-465 -848h569zM940 1679h-283l60 283h282zM1374 1679h-282l59 283h283z" />
    <glyph glyph-name="Aring" unicode="&#xc5;" horiz-adv-x="1589" 
d="M1470 0h-274l-55 446h-721l-246 -446h-293l871 1556h514zM1008 1520l-465 -848h569zM918 1696h-5q-51 25 -88 84q-32 51 -32 131q0 83 43 153q44 70 114 111q71 41 152 41q63 0 123 -29q54 -26 90 -84q33 -53 33 -131q0 -83 -43 -153q-44 -71 -113 -111q-71 -41 -150 -41
q-64 0 -124 29zM1145 1868q37 37 37 92q0 41 -27 68q-26 26 -68 26q-57 0 -94 -37t-37 -92q0 -38 29 -67q27 -27 68 -27q55 0 92 37z" />
    <glyph glyph-name="AE" unicode="&#xc6;" horiz-adv-x="2113" 
d="M2202 1556l-48 -227h-858l54 -416h700l-47 -227h-623l60 -459h497l-49 -227h-692l-55 446h-721l-246 -446h-293l871 1556h1450zM1008 1520l-465 -848h569z" />
    <glyph glyph-name="Ccedilla" unicode="&#xc7;" horiz-adv-x="1615" 
d="M983 231l-8 -8q96 44 172 117q77 74 129 172h280q-64 -152 -172 -272q-110 -122 -251 -191q-145 -71 -320 -80l-10 -45q63 -9 104 -47q39 -36 39 -92q0 -65 -33 -109q-35 -48 -92 -71q-61 -25 -131 -25h-143l28 137h91q96 0 96 60q0 27 -19 37q-20 10 -53 10h-59l31 149
q-157 18 -283 99q-123 80 -191 215q-67 134 -67 317q0 246 104 469q105 225 307 363q204 139 478 139q177 0 311 -64q139 -66 219 -186q83 -124 98 -291h-280q-24 159 -121 244q-96 84 -252 84q-179 0 -311 -105q-134 -107 -203 -278q-70 -174 -70 -375q0 -133 50 -225
q49 -91 135 -141t200 -50q104 0 197 43z" />
    <glyph glyph-name="Egrave" unicode="&#xc8;" horiz-adv-x="1349" 
d="M1438 1556l-47 -227h-777l-88 -416h760l-47 -227h-760l-98 -459h793l-50 -227h-1061l330 1556h1045zM1057 1679h-244l-299 283h346z" />
    <glyph glyph-name="Eacute" unicode="&#xc9;" horiz-adv-x="1349" 
d="M1438 1556l-47 -227h-777l-88 -416h760l-47 -227h-760l-98 -459h793l-50 -227h-1061l330 1556h1045zM1040 1679h-274l311 283h385z" />
    <glyph glyph-name="Ecircumflex" unicode="&#xca;" horiz-adv-x="1349" 
d="M1438 1556l-47 -227h-777l-88 -416h760l-47 -227h-760l-98 -459h793l-50 -227h-1061l330 1556h1045zM1155 1962l201 -283h-221l-168 174l-219 -174h-248l311 283h344z" />
    <glyph glyph-name="Edieresis" unicode="&#xcb;" horiz-adv-x="1349" 
d="M1438 1556l-47 -227h-777l-88 -416h760l-47 -227h-760l-98 -459h793l-50 -227h-1061l330 1556h1045zM846 1679h-283l60 283h282zM1280 1679h-283l60 283h282z" />
    <glyph glyph-name="Igrave" unicode="&#xcc;" horiz-adv-x="628" 
d="M332 0h-269l330 1556h269zM651 1679h-243l-299 283h346z" />
    <glyph glyph-name="Iacute" unicode="&#xcd;" horiz-adv-x="628" 
d="M332 0h-269l330 1556h269zM707 1679h-275l311 283h385z" />
    <glyph glyph-name="Icircumflex" unicode="&#xce;" horiz-adv-x="628" 
d="M332 0h-269l330 1556h269zM784 1962l201 -283h-221l-168 174l-219 -174h-248l311 283h344z" />
    <glyph glyph-name="Idieresis" unicode="&#xcf;" horiz-adv-x="628" 
d="M332 0h-269l330 1556h269zM475 1679h-282l59 283h283zM909 1679h-282l59 283h283z" />
    <glyph glyph-name="Eth" unicode="&#xd0;" horiz-adv-x="1632" 
d="M940 1556l-2 -2q200 0 344 -69q149 -71 231 -209q82 -137 82 -338q0 -269 -116 -479q-118 -214 -334 -336q-217 -123 -510 -123h-561l147 700h-176l43 205h178l137 651h537zM666 225v-2q213 0 360 99q148 99 221 258q74 160 74 346q0 200 -104 301q-103 100 -304 100
h-292l-89 -424h373l-43 -205h-375l-98 -473h277z" />
    <glyph glyph-name="Ntilde" unicode="&#xd1;" horiz-adv-x="1765" 
d="M1204 31l324 1525h270l-330 -1556h-516l-297 1526l-323 -1526h-269l330 1556h514zM772 1700l-2 -4q30 122 104 190t164 68q46 0 86 -12q34 -10 68 -29q29 -16 59 -25q27 -8 60 -8q47 0 84 21q36 20 57 55h92q-17 -77 -59 -137q-41 -59 -92 -88q-54 -31 -111 -31
q-44 0 -84 12q-34 10 -74 31q-27 15 -57 24q-37 11 -59 11q-48 0 -86 -21q-39 -22 -56 -57h-94z" />
    <glyph glyph-name="Ograve" unicode="&#xd2;" horiz-adv-x="1716" 
d="M442 49l-2 -6q-150 73 -233 219q-84 147 -84 344q0 250 108 471q110 224 314 361q207 139 485 139q187 0 338 -74q152 -75 234 -217q84 -147 84 -344q0 -251 -107 -469q-109 -223 -313 -360q-206 -138 -486 -138q-187 0 -338 74zM1122 287h-4q139 106 211 278
q74 177 74 377q0 136 -51 225q-53 92 -142 142q-88 49 -209 49q-181 0 -319 -105q-139 -106 -211 -278q-74 -177 -74 -377q0 -134 52 -225q54 -94 143 -142q91 -49 211 -49q181 0 319 105zM1208 1671h-243l-299 283h346z" />
    <glyph glyph-name="Oacute" unicode="&#xd3;" horiz-adv-x="1716" 
d="M442 49l-2 -6q-150 73 -233 219q-84 147 -84 344q0 250 108 471q110 224 314 361q207 139 485 139q187 0 338 -74q152 -75 234 -217q84 -147 84 -344q0 -251 -107 -469q-109 -223 -313 -360q-206 -138 -486 -138q-187 0 -338 74zM1122 287h-4q139 106 211 278
q74 177 74 377q0 136 -51 225q-53 92 -142 142q-88 49 -209 49q-181 0 -319 -105q-139 -106 -211 -278q-74 -177 -74 -377q0 -134 52 -225q54 -94 143 -142q91 -49 211 -49q181 0 319 105zM1190 1671h-275l312 283h385z" />
    <glyph glyph-name="Ocircumflex" unicode="&#xd4;" horiz-adv-x="1716" 
d="M442 49l-2 -6q-150 73 -233 219q-84 147 -84 344q0 250 108 471q110 224 314 361q207 139 485 139q187 0 338 -74q152 -75 234 -217q84 -147 84 -344q0 -251 -107 -469q-109 -223 -313 -360q-206 -138 -486 -138q-187 0 -338 74zM1122 287h-4q139 106 211 278
q74 177 74 377q0 136 -51 225q-53 92 -142 142q-88 49 -209 49q-181 0 -319 -105q-139 -106 -211 -278q-74 -177 -74 -377q0 -134 52 -225q54 -94 143 -142q91 -49 211 -49q181 0 319 105zM1307 1954l200 -283h-221l-168 174l-219 -174h-248l312 283h344z" />
    <glyph glyph-name="Otilde" unicode="&#xd5;" horiz-adv-x="1716" 
d="M442 49l-2 -6q-150 73 -233 219q-84 147 -84 344q0 250 108 471q110 224 314 361q207 139 485 139q187 0 338 -74q152 -75 234 -217q84 -147 84 -344q0 -251 -107 -469q-109 -223 -313 -360q-206 -138 -486 -138q-187 0 -338 74zM1122 287h-4q139 106 211 278
q74 177 74 377q0 136 -51 225q-53 92 -142 142q-88 49 -209 49q-181 0 -319 -105q-139 -106 -211 -278q-74 -177 -74 -377q0 -134 52 -225q54 -94 143 -142q91 -49 211 -49q181 0 319 105zM719 1692l-2 -4q30 122 104 190t164 68q42 0 86 -13q38 -11 68 -28q29 -16 59 -25
q27 -8 59 -8q48 0 84 20t58 56h92q-18 -78 -59 -138q-40 -58 -93 -88t-110 -30q-43 0 -84 12q-34 10 -74 31q-27 15 -57 24q-33 10 -60 10q-50 0 -86 -20q-38 -21 -55 -57h-94z" />
    <glyph glyph-name="Odieresis" unicode="&#xd6;" horiz-adv-x="1716" 
d="M442 49l-2 -6q-150 73 -233 219q-84 147 -84 344q0 250 108 471q110 224 314 361q207 139 485 139q187 0 338 -74q152 -75 234 -217q84 -147 84 -344q0 -251 -107 -469q-109 -223 -313 -360q-206 -138 -486 -138q-187 0 -338 74zM1122 287h-4q139 106 211 278
q74 177 74 377q0 136 -51 225q-53 92 -142 142q-88 49 -209 49q-181 0 -319 -105q-139 -106 -211 -278q-74 -177 -74 -377q0 -134 52 -225q54 -94 143 -142q91 -49 211 -49q181 0 319 105zM997 1671h-282l59 283h283zM1432 1671h-283l59 283h283z" />
    <glyph glyph-name="multiply" unicode="&#xd7;" horiz-adv-x="1265" 
d="M997 1055l136 -135l-365 -365l365 -367l-136 -135l-364 367l-367 -367l-135 135l367 367l-367 365l135 135l367 -365z" />
    <glyph glyph-name="Oslash" unicode="&#xd8;" horiz-adv-x="1716" 
d="M1976 1556l-356 -313q63 -129 63 -305q0 -253 -106 -469q-109 -223 -313 -360q-206 -138 -486 -138q-137 0 -252 37q-113 36 -204 115l-146 -127h-346l354 307q-63 129 -63 305q0 250 108 471q110 224 314 361q207 139 485 139q137 0 252 -37q120 -38 205 -112l145 126
h346zM410 494l878 763q-55 55 -125 78q-77 25 -159 25q-182 0 -320 -105q-139 -106 -211 -278q-74 -177 -74 -377q0 -38 11 -106zM1395 1051l-881 -766q51 -51 127 -76q77 -25 160 -25q181 0 319 105q139 106 211 278q74 177 74 377q0 45 -10 107z" />
    <glyph glyph-name="Ugrave" unicode="&#xd9;" horiz-adv-x="1593" 
d="M406 31l-5 2q-123 55 -184 157q-61 101 -61 240q0 92 22 205l197 921h268l-205 -962q-16 -82 -16 -141q0 -133 76 -197q78 -66 223 -66q180 0 295 109t158 313l200 942h268l-198 -940q-64 -305 -238 -473q-172 -166 -497 -166q-179 0 -303 56zM1151 1679h-244l-299 283
h346z" />
    <glyph glyph-name="Uacute" unicode="&#xda;" horiz-adv-x="1593" 
d="M406 31l-5 2q-123 55 -184 157q-61 101 -61 240q0 92 22 205l197 921h268l-205 -962q-16 -82 -16 -141q0 -133 76 -197q78 -66 223 -66q180 0 295 109t158 313l200 942h268l-198 -940q-64 -305 -238 -473q-172 -166 -497 -166q-179 0 -303 56zM1133 1679h-275l311 283
h385z" />
    <glyph glyph-name="Ucircumflex" unicode="&#xdb;" horiz-adv-x="1593" 
d="M406 31l-5 2q-123 55 -184 157q-61 101 -61 240q0 92 22 205l197 921h268l-205 -962q-16 -82 -16 -141q0 -133 76 -197q78 -66 223 -66q180 0 295 109t158 313l200 942h268l-198 -940q-64 -305 -238 -473q-172 -166 -497 -166q-179 0 -303 56zM1249 1962l201 -283h-221
l-168 174l-219 -174h-248l311 283h344z" />
    <glyph glyph-name="Udieresis" unicode="&#xdc;" horiz-adv-x="1593" 
d="M406 31l-5 2q-123 55 -184 157q-61 101 -61 240q0 92 22 205l197 921h268l-205 -962q-16 -82 -16 -141q0 -133 76 -197q78 -66 223 -66q180 0 295 109t158 313l200 942h268l-198 -940q-64 -305 -238 -473q-172 -166 -497 -166q-179 0 -303 56zM940 1679h-283l60 283h282z
M1374 1679h-282l59 283h283z" />
    <glyph glyph-name="Yacute" unicode="&#xdd;" horiz-adv-x="1402" 
d="M1313 1556h315l-776 -921l-133 -635h-270l139 666l-393 890h282l291 -663zM1024 1679h-274l311 283h385z" />
    <glyph glyph-name="Thorn" unicode="&#xde;" horiz-adv-x="1464" 
d="M909 1300v-2q162 0 281 -49q117 -48 186 -145q68 -95 68 -234q0 -174 -82 -299t-246 -196q-162 -70 -393 -70h-326l-65 -305h-269l330 1556h269l-54 -256h301zM762 530q194 0 301 84q104 82 104 232q0 118 -69 172q-70 55 -215 55h-324l-115 -543h318z" />
    <glyph glyph-name="germandbls" unicode="&#xdf;" horiz-adv-x="1298" 
d="M1026 801q76 -45 121 -119q47 -77 47 -184q0 -148 -61 -267q-61 -118 -181 -186q-121 -68 -284 -68q-62 0 -125 13q-51 10 -119 37l37 176q56 -24 86 -31q42 -10 84 -10q103 0 170 49t102 129q33 76 33 170q0 69 -31 129q-29 56 -90 92q-59 35 -141 35h-21l39 178h15
q114 0 184 43q71 44 98 109q29 69 29 133q0 81 -55 127q-56 47 -138 47q-125 0 -202 -92t-107 -242l-227 -1067h-260l223 1055q37 167 121 286q82 117 207 179q122 61 278 61q128 0 221 -43q97 -45 148 -119t51 -178q0 -322 -406 -393q82 -6 154 -49z" />
    <glyph glyph-name="agrave" unicode="&#xe0;" horiz-adv-x="1220" 
d="M928 1090l4 -3q99 -38 151 -110q54 -76 54 -178q0 -46 -13 -109l-147 -690h-260l47 217q-59 -103 -156 -172q-98 -70 -231 -70q-91 0 -166 37q-77 38 -123 105q-45 65 -45 157q0 122 55 201t170 123q116 44 285 59l307 33l4 23q10 52 10 73q0 73 -45 115q-46 43 -141 43
q-104 0 -166 -45q-65 -47 -86 -129h-264q35 118 111 197q74 77 184 118q109 41 227 41q139 0 234 -36zM692 229l2 -4q88 95 123 258l8 37l-207 -20q-148 -15 -231 -60q-80 -44 -80 -143q0 -83 49 -123q50 -41 121 -41q125 0 215 96zM856 1233h-242l-272 315h346z" />
    <glyph glyph-name="aacute" unicode="&#xe1;" horiz-adv-x="1220" 
d="M928 1090l4 -3q99 -38 151 -110q54 -76 54 -178q0 -46 -13 -109l-147 -690h-260l47 217q-59 -103 -156 -172q-98 -70 -231 -70q-91 0 -166 37q-77 38 -123 105q-45 65 -45 157q0 122 55 201t170 123q116 44 285 59l307 33l4 23q10 52 10 73q0 73 -45 115q-46 43 -141 43
q-104 0 -166 -45q-65 -47 -86 -129h-264q35 118 111 197q74 77 184 118q109 41 227 41q139 0 234 -36zM692 229l2 -4q88 95 123 258l8 37l-207 -20q-148 -15 -231 -60q-80 -44 -80 -143q0 -83 49 -123q50 -41 121 -41q125 0 215 96zM834 1233h-250l301 315h360z" />
    <glyph glyph-name="acircumflex" unicode="&#xe2;" horiz-adv-x="1220" 
d="M928 1090l4 -3q99 -38 151 -110q54 -76 54 -178q0 -46 -13 -109l-147 -690h-260l47 217q-59 -103 -156 -172q-98 -70 -231 -70q-91 0 -166 37q-77 38 -123 105q-45 65 -45 157q0 122 55 201t170 123q116 44 285 59l307 33l4 23q10 52 10 73q0 73 -45 115q-46 43 -141 43
q-104 0 -166 -45q-65 -47 -86 -129h-264q35 118 111 197q74 77 184 118q109 41 227 41q139 0 234 -36zM692 229l2 -4q88 95 123 258l8 37l-207 -20q-148 -15 -231 -60q-80 -44 -80 -143q0 -83 49 -123q50 -41 121 -41q125 0 215 96zM952 1548l197 -315h-217l-158 201
l-235 -201h-240l324 315h329z" />
    <glyph glyph-name="atilde" unicode="&#xe3;" horiz-adv-x="1220" 
d="M928 1090l4 -3q99 -38 151 -110q54 -76 54 -178q0 -46 -13 -109l-147 -690h-260l47 217q-59 -103 -156 -172q-98 -70 -231 -70q-91 0 -166 37q-77 38 -123 105q-45 65 -45 157q0 122 55 201t170 123q116 44 285 59l307 33l4 23q10 52 10 73q0 73 -45 115q-46 43 -141 43
q-104 0 -166 -45q-65 -47 -86 -129h-264q35 118 111 197q74 77 184 118q109 41 227 41q139 0 234 -36zM692 229l2 -4q88 95 123 258l8 37l-207 -20q-148 -15 -231 -60q-80 -44 -80 -143q0 -83 49 -123q50 -41 121 -41q125 0 215 96zM387 1270h-2q27 120 98 188t156 68
q37 0 74 -13q34 -12 73 -32q56 -33 111 -33q49 0 88 22q37 20 55 62h86q-30 -124 -98 -189t-156 -65q-73 0 -147 45q-62 33 -111 33q-47 0 -86 -25q-37 -24 -55 -61h-86z" />
    <glyph glyph-name="adieresis" unicode="&#xe4;" horiz-adv-x="1220" 
d="M928 1090l4 -3q99 -38 151 -110q54 -76 54 -178q0 -46 -13 -109l-147 -690h-260l47 217q-59 -103 -156 -172q-98 -70 -231 -70q-91 0 -166 37q-77 38 -123 105q-45 65 -45 157q0 122 55 201t170 123q116 44 285 59l307 33l4 23q10 52 10 73q0 73 -45 115q-46 43 -141 43
q-104 0 -166 -45q-65 -47 -86 -129h-264q35 118 111 197q74 77 184 118q109 41 227 41q139 0 234 -36zM692 229l2 -4q88 95 123 258l8 37l-207 -20q-148 -15 -231 -60q-80 -44 -80 -143q0 -83 49 -123q50 -41 121 -41q125 0 215 96zM618 1266h-274l59 282h275zM1077 1266
h-274l59 282h275z" />
    <glyph glyph-name="aring" unicode="&#xe5;" horiz-adv-x="1220" 
d="M928 1090l4 -3q99 -38 151 -110q54 -76 54 -178q0 -46 -13 -109l-147 -690h-260l47 217q-59 -103 -156 -172q-98 -70 -231 -70q-91 0 -166 37q-77 38 -123 105q-45 65 -45 157q0 122 55 201t170 123q116 44 285 59l307 33l4 23q10 52 10 73q0 73 -45 115q-46 43 -141 43
q-104 0 -166 -45q-65 -47 -86 -129h-264q35 118 111 197q74 77 184 118q109 41 227 41q139 0 234 -36zM692 229l2 -4q88 95 123 258l8 37l-207 -20q-148 -15 -231 -60q-80 -44 -80 -143q0 -83 49 -123q50 -41 121 -41q125 0 215 96zM637 1249h-2q-50 24 -80 74
q-31 51 -31 117q0 76 39 135t103 98q61 37 129 37q59 0 108 -24q51 -25 78 -74q29 -53 29 -117q0 -74 -37 -135q-37 -60 -99 -98q-61 -37 -129 -37q-59 0 -108 24zM834 1403v-2q30 30 30 78q0 34 -24 55q-25 22 -58 22q-47 0 -77 -30q-31 -31 -31 -76q0 -34 24 -55
q26 -23 58 -23q47 0 78 31z" />
    <glyph glyph-name="ae" unicode="&#xe6;" horiz-adv-x="2000" 
d="M1077 477l-8 -12q-2 -10 -2 -45q0 -133 61 -203q63 -72 177 -72q103 0 170 43q67 44 114 129h264q-83 -176 -227 -262q-145 -86 -332 -86q-309 0 -417 258q-72 -118 -195 -190q-119 -70 -283 -70q-97 0 -178 37q-82 37 -131 107t-49 165q0 182 139 277q140 96 393 96h277
l14 66q10 48 10 71q0 73 -45 115q-46 43 -141 43q-104 0 -166 -45q-64 -46 -88 -129h-262q35 118 111 197q74 77 184 118q109 41 229 41q134 0 222 -49t131 -131q75 81 184 131q107 49 244 49t239 -51q105 -52 162 -149q57 -96 57 -238q0 -99 -34 -211h-824zM1237 854h2
q-89 -83 -135 -211h561q10 52 10 70q0 106 -61 164q-62 59 -166 59q-123 0 -211 -82zM682 227l2 -2q88 82 123 238h-191q-166 0 -243 -39q-80 -41 -80 -131q0 -71 49 -111q48 -39 129 -39q121 0 211 84z" />
    <glyph glyph-name="ccedilla" unicode="&#xe7;" horiz-adv-x="1226" 
d="M750 213l-9 2q80 59 123 166h262q-64 -187 -208 -295q-143 -107 -361 -113l-8 -45q63 -9 102 -45q41 -38 41 -92q0 -61 -30 -108t-91 -72t-131 -25h-137l27 129h92q45 0 74 19q26 17 26 49q0 29 -18 41t-55 12h-60l33 154q-105 20 -186 80q-79 58 -123 151
q-43 90 -43 213q0 178 73 336t222 258q146 98 358 98q137 0 238 -49q100 -48 159 -141q60 -94 66 -221h-262q-9 114 -64 172q-54 57 -162 57q-116 0 -200 -78t-127 -196q-43 -119 -43 -242q0 -133 61 -203q62 -71 170 -71q111 0 191 59z" />
    <glyph glyph-name="egrave" unicode="&#xe8;" horiz-adv-x="1249" 
d="M328 477l-6 -12q-3 -15 -3 -45q0 -132 62 -203q63 -72 176 -72q98 0 168 43q69 43 113 129h264q-83 -176 -228 -262t-331 -86q-139 0 -248 56q-108 56 -166 159q-59 106 -59 246q0 178 73 336q72 156 222 260q144 100 360 100q138 0 240 -51q104 -52 161 -149
q58 -98 58 -238q0 -102 -33 -211h-823zM489 854l3 2q-90 -84 -136 -211h562q8 31 8 68q0 104 -60 164q-59 59 -166 59q-123 0 -211 -82zM864 1231h-241l-273 315h346z" />
    <glyph glyph-name="eacute" unicode="&#xe9;" horiz-adv-x="1249" 
d="M328 477l-6 -12q-3 -15 -3 -45q0 -132 62 -203q63 -72 176 -72q98 0 168 43q69 43 113 129h264q-83 -176 -228 -262t-331 -86q-139 0 -248 56q-108 56 -166 159q-59 106 -59 246q0 178 73 336q72 156 222 260q144 100 360 100q138 0 240 -51q104 -52 161 -149
q58 -98 58 -238q0 -102 -33 -211h-823zM489 854l3 2q-90 -84 -136 -211h562q8 31 8 68q0 104 -60 164q-59 59 -166 59q-123 0 -211 -82zM846 1231h-250l301 315h360z" />
    <glyph glyph-name="ecircumflex" unicode="&#xea;" horiz-adv-x="1249" 
d="M328 477l-6 -12q-3 -15 -3 -45q0 -132 62 -203q63 -72 176 -72q98 0 168 43q69 43 113 129h264q-83 -176 -228 -262t-331 -86q-139 0 -248 56q-108 56 -166 159q-59 106 -59 246q0 178 73 336q72 156 222 260q144 100 360 100q138 0 240 -51q104 -52 161 -149
q58 -98 58 -238q0 -102 -33 -211h-823zM489 854l3 2q-90 -84 -136 -211h562q8 31 8 68q0 104 -60 164q-59 59 -166 59q-123 0 -211 -82zM965 1546l196 -315h-217l-158 201l-235 -201h-240l324 315h330z" />
    <glyph glyph-name="edieresis" unicode="&#xeb;" horiz-adv-x="1249" 
d="M328 477l-6 -12q-3 -15 -3 -45q0 -132 62 -203q63 -72 176 -72q98 0 168 43q69 43 113 129h264q-83 -176 -228 -262t-331 -86q-139 0 -248 56q-108 56 -166 159q-59 106 -59 246q0 178 73 336q72 156 222 260q144 100 360 100q138 0 240 -51q104 -52 161 -149
q58 -98 58 -238q0 -102 -33 -211h-823zM489 854l3 2q-90 -84 -136 -211h562q8 31 8 68q0 104 -60 164q-59 59 -166 59q-123 0 -211 -82zM633 1264h-275l60 282h274zM1092 1264h-275l60 282h274z" />
    <glyph glyph-name="igrave" unicode="&#xec;" horiz-adv-x="552" 
d="M289 0h-260l235 1104h260zM537 1241h-242l-272 315h346z" />
    <glyph glyph-name="iacute" unicode="&#xed;" horiz-adv-x="552" 
d="M289 0h-260l235 1104h260zM561 1241h-250l301 315h361z" />
    <glyph glyph-name="icircumflex" unicode="&#xee;" horiz-adv-x="552" 
d="M289 0h-260l235 1104h260zM649 1556l197 -315h-217l-158 201l-235 -201h-240l323 315h330z" />
    <glyph glyph-name="idieresis" unicode="&#xef;" horiz-adv-x="552" 
d="M289 0h-260l235 1104h260zM315 1274h-274l59 282h275zM774 1274h-274l59 282h275z" />
    <glyph glyph-name="eth" unicode="&#xf0;" horiz-adv-x="1271" 
d="M1221 1393l-183 -56q84 -112 131 -239q45 -122 45 -273q0 -243 -77 -438q-75 -190 -228 -303q-150 -111 -366 -111q-133 0 -242 56q-108 56 -166 159q-59 106 -59 246q0 175 67 330q67 156 201 256q131 98 307 98q92 0 154 -39q65 -41 104 -100q41 -62 56 -133
q3 222 -154 426l-279 -82l-10 141l183 55q-115 100 -240 173h364q89 -82 109 -105l272 80zM766 231l-2 -8q85 76 129 197q43 119 43 239q0 132 -62 203q-63 72 -169 72q-116 0 -203 -78q-85 -76 -129 -194q-43 -116 -43 -236q0 -131 61 -201q62 -71 170 -71q119 0 205 77z
" />
    <glyph glyph-name="ntilde" unicode="&#xf1;" horiz-adv-x="1269" 
d="M1032 1090l-2 -7q73 -39 109 -106q37 -70 37 -166q0 -66 -13 -129l-147 -690h-262l139 645q12 59 12 123q0 88 -47 135q-45 45 -123 45q-71 0 -135 -37q-67 -39 -111 -106q-46 -70 -67 -172l-133 -629h-260l235 1104h258l-49 -223q68 115 166 182t221 67q104 0 172 -36z
M434 1270h-2q27 120 98 188t156 68q37 0 74 -13t74 -32q56 -33 110 -33q49 0 88 22q37 20 55 62h87q-30 -123 -99 -189q-68 -65 -155 -65q-74 0 -148 45q-62 33 -110 33t-87 -25q-37 -24 -55 -61h-86z" />
    <glyph glyph-name="ograve" unicode="&#xf2;" horiz-adv-x="1269" 
d="M297 29h-6q-108 56 -166 159q-59 106 -59 246q0 178 73 336q73 157 221 260q144 100 361 100q137 0 244 -55q106 -55 168 -160q61 -104 61 -247q0 -174 -74 -334q-73 -157 -221 -260q-146 -101 -360 -101q-133 0 -242 56zM758 231l-4 5q86 77 129 196t43 240
q0 131 -62 202q-63 72 -170 72q-116 0 -202 -80q-88 -82 -130 -198q-43 -119 -43 -240q0 -132 62 -203t172 -71q119 0 205 77zM877 1243h-242l-273 316h347z" />
    <glyph glyph-name="oacute" unicode="&#xf3;" horiz-adv-x="1269" 
d="M297 29h-6q-108 56 -166 159q-59 106 -59 246q0 178 73 336q73 157 221 260q144 100 361 100q137 0 244 -55q106 -55 168 -160q61 -104 61 -247q0 -174 -74 -334q-73 -157 -221 -260q-146 -101 -360 -101q-133 0 -242 56zM758 231l-4 5q86 77 129 196t43 240
q0 131 -62 202q-63 72 -170 72q-116 0 -202 -80q-88 -82 -130 -198q-43 -119 -43 -240q0 -132 62 -203t172 -71q119 0 205 77zM852 1243h-250l301 316h361z" />
    <glyph glyph-name="ocircumflex" unicode="&#xf4;" horiz-adv-x="1269" 
d="M297 29h-6q-108 56 -166 159q-59 106 -59 246q0 178 73 336q73 157 221 260q144 100 361 100q137 0 244 -55q106 -55 168 -160q61 -104 61 -247q0 -174 -74 -334q-73 -157 -221 -260q-146 -101 -360 -101q-133 0 -242 56zM758 231l-4 5q86 77 129 196t43 240
q0 131 -62 202q-63 72 -170 72q-116 0 -202 -80q-88 -82 -130 -198q-43 -119 -43 -240q0 -132 62 -203t172 -71q119 0 205 77zM971 1559l196 -316h-217l-157 201l-236 -201h-240l324 316h330z" />
    <glyph glyph-name="otilde" unicode="&#xf5;" horiz-adv-x="1269" 
d="M297 29h-6q-108 56 -166 159q-59 106 -59 246q0 178 73 336q73 157 221 260q144 100 361 100q137 0 244 -55q106 -55 168 -160q61 -104 61 -247q0 -174 -74 -334q-73 -157 -221 -260q-146 -101 -360 -101q-133 0 -242 56zM758 231l-4 5q86 77 129 196t43 240
q0 131 -62 202q-63 72 -170 72q-116 0 -202 -80q-88 -82 -130 -198q-43 -119 -43 -240q0 -132 62 -203t172 -71q119 0 205 77zM408 1280h-2q27 120 98 188t155 68q39 0 74 -12q31 -11 74 -33q56 -33 111 -33q47 0 88 23q37 21 55 61h86q-30 -123 -98 -188q-69 -66 -156 -66
q-74 0 -148 45q-62 33 -110 33q-47 0 -86 -25q-37 -24 -55 -61h-86z" />
    <glyph glyph-name="odieresis" unicode="&#xf6;" horiz-adv-x="1269" 
d="M297 29h-6q-108 56 -166 159q-59 106 -59 246q0 178 73 336q73 157 221 260q144 100 361 100q137 0 244 -55q106 -55 168 -160q61 -104 61 -247q0 -174 -74 -334q-73 -157 -221 -260q-146 -101 -360 -101q-133 0 -242 56zM758 231l-4 5q86 77 129 196t43 240
q0 131 -62 202q-63 72 -170 72q-116 0 -202 -80q-88 -82 -130 -198q-43 -119 -43 -240q0 -132 62 -203t172 -71q119 0 205 77zM639 1276h-274l59 283h274zM1098 1276h-275l60 283h274z" />
    <glyph glyph-name="divide" unicode="&#xf7;" horiz-adv-x="1353" 
d="M805 836h-254v268h254v-268zM1231 459h-1106v194h1106v-194zM805 0h-254v270h254v-270z" />
    <glyph glyph-name="oslash" unicode="&#xf8;" horiz-adv-x="1269" 
d="M1419 1104l-266 -230q41 -93 41 -208q0 -174 -74 -334q-73 -157 -221 -260q-146 -101 -360 -101q-89 0 -172 25q-80 24 -142 74l-88 -76h-291l265 227q-39 91 -39 209q0 178 73 336q72 156 222 260q144 100 360 100q92 0 172 -24q79 -24 141 -74l88 76h291zM326 412
l540 469q-62 65 -166 65q-116 0 -202 -80t-129 -198q-43 -119 -43 -240v-16zM934 688l-543 -465q59 -65 166 -65q118 0 205 78q86 77 129 196t43 240v16z" />
    <glyph glyph-name="ugrave" unicode="&#xf9;" horiz-adv-x="1259" 
d="M971 1104l258 2l-234 -1104h-260l47 221q-63 -111 -164 -180q-100 -68 -223 -68q-146 0 -227 84q-80 83 -80 228q0 67 14 133l148 686h260l-137 -645q-15 -65 -15 -123q0 -94 43 -137t123 -43q113 0 197 84q82 82 117 237zM895 1243h-242l-272 316h346z" />
    <glyph glyph-name="uacute" unicode="&#xfa;" horiz-adv-x="1259" 
d="M971 1104l258 2l-234 -1104h-260l47 221q-63 -111 -164 -180q-100 -68 -223 -68q-146 0 -227 84q-80 83 -80 228q0 67 14 133l148 686h260l-137 -645q-15 -65 -15 -123q0 -94 43 -137t123 -43q113 0 197 84q82 82 117 237zM870 1243h-249l301 316h360z" />
    <glyph glyph-name="ucircumflex" unicode="&#xfb;" horiz-adv-x="1259" 
d="M971 1104l258 2l-234 -1104h-260l47 221q-63 -111 -164 -180q-100 -68 -223 -68q-146 0 -227 84q-80 83 -80 228q0 67 14 133l148 686h260l-137 -645q-15 -65 -15 -123q0 -94 43 -137t123 -43q113 0 197 84q82 82 117 237zM989 1559l197 -316h-217l-158 201l-236 -201
h-239l323 316h330z" />
    <glyph glyph-name="udieresis" unicode="&#xfc;" horiz-adv-x="1259" 
d="M971 1104l258 2l-234 -1104h-260l47 221q-63 -111 -164 -180q-100 -68 -223 -68q-146 0 -227 84q-80 83 -80 228q0 67 14 133l148 686h260l-137 -645q-15 -65 -15 -123q0 -94 43 -137t123 -43q113 0 197 84q82 82 117 237zM655 1276h-274l59 283h275zM1114 1276h-274
l59 283h275z" />
    <glyph glyph-name="yacute" unicode="&#xfd;" horiz-adv-x="1179" 
d="M506 156l495 948h275l-793 -1505h-270l272 520h-219l-143 985h252zM817 1241h-250l301 315h361z" />
    <glyph glyph-name="thorn" unicode="&#xfe;" horiz-adv-x="1323" 
d="M1073 1075l-2 -4q89 -54 133 -149q47 -100 47 -232q0 -179 -67 -344t-199 -270t-313 -105q-84 0 -152 35q-68 34 -114 96q-47 62 -68 136l-135 -641h-258l415 1957h258l-96 -452l-51 -238q59 116 164 189q104 73 239 73q116 0 199 -51zM817 227l-2 4q85 76 129 197
q43 119 43 240q0 132 -61 202q-63 72 -170 72q-117 0 -203 -80t-129 -198q-43 -119 -43 -240q0 -133 61 -203q62 -71 170 -71q119 0 205 77z" />
    <glyph glyph-name="ydieresis" unicode="&#xff;" horiz-adv-x="1179" 
d="M506 156l495 948h275l-793 -1505h-270l272 520h-219l-143 985h252zM602 1274h-274l59 282h275zM1061 1274h-275l60 282h274z" />
    <glyph glyph-name="Amacron" unicode="&#x100;" horiz-adv-x="1589" 
d="M1470 0h-274l-55 446h-721l-246 -446h-293l871 1556h514zM1008 1520l-465 -848h569zM1436 1722h-815l43 199h815z" />
    <glyph glyph-name="amacron" unicode="&#x101;" horiz-adv-x="1220" 
d="M928 1090l4 -3q99 -38 151 -110q54 -76 54 -178q0 -46 -13 -109l-147 -690h-260l47 217q-59 -103 -156 -172q-98 -70 -231 -70q-91 0 -166 37q-77 38 -123 105q-45 65 -45 157q0 122 55 201t170 123q116 44 285 59l307 33l4 23q10 52 10 73q0 73 -45 115q-46 43 -141 43
q-104 0 -166 -45q-65 -47 -86 -129h-264q35 118 111 197q74 77 184 118q109 41 227 41q139 0 234 -36zM692 229l2 -4q88 95 123 258l8 37l-207 -20q-148 -15 -231 -60q-80 -44 -80 -143q0 -83 49 -123q50 -41 121 -41q125 0 215 96zM1104 1292h-744l39 187h746z" />
    <glyph glyph-name="Abreve" unicode="&#x102;" horiz-adv-x="1589" 
d="M1470 0h-274l-55 446h-721l-246 -446h-293l871 1556h514zM1008 1520l-465 -848h569zM856 1702l-8 -4q-69 26 -111 84q-41 56 -41 125q0 28 6 55h195q-4 -28 -4 -31q0 -50 37 -80q38 -30 100 -30q78 0 131 39q57 41 68 100h196q-18 -85 -73 -148q-55 -64 -142 -102
q-84 -37 -194 -37q-84 0 -160 29z" />
    <glyph glyph-name="abreve" unicode="&#x103;" horiz-adv-x="1220" 
d="M928 1090l4 -3q99 -38 151 -110q54 -76 54 -178q0 -46 -13 -109l-147 -690h-260l47 217q-59 -103 -156 -172q-98 -70 -231 -70q-91 0 -166 37q-77 38 -123 105q-45 65 -45 157q0 122 55 201t170 123q116 44 285 59l307 33l4 23q10 52 10 73q0 73 -45 115q-46 43 -141 43
q-104 0 -166 -45q-65 -47 -86 -129h-264q35 118 111 197q74 77 184 118q109 41 227 41q139 0 234 -36zM692 229l2 -4q88 95 123 258l8 37l-207 -20q-148 -15 -231 -60q-80 -44 -80 -143q0 -83 49 -123q50 -41 121 -41q125 0 215 96zM559 1257l-4 -8q-67 34 -104 92t-37 136
q0 40 8 67h196q-8 -36 -8 -55q0 -48 31 -76q30 -27 96 -27q75 0 125 41q51 42 66 121h194q-19 -92 -73 -164q-54 -71 -142 -116q-85 -43 -190 -43q-95 0 -158 32z" />
    <glyph glyph-name="Aogonek" unicode="&#x104;" horiz-adv-x="1589" 
d="M1468 0v-4q-108 -40 -165 -80q-58 -40 -58 -86q0 -72 105 -72h65l-37 -174h-90q-133 0 -203 49q-69 48 -69 131q0 76 49 134q50 59 131 102l-55 446h-721l-246 -446h-293l871 1556h514l204 -1556h-2zM1008 1516l-465 -848h569z" />
    <glyph glyph-name="aogonek" unicode="&#x105;" horiz-adv-x="1220" 
d="M928 1090l-2 -3q99 -38 151 -110q53 -74 53 -178q0 -50 -12 -109l-147 -690q-226 -74 -226 -170q0 -34 31 -53q32 -19 86 -19h62l-39 -170h-92q-128 0 -199 47q-70 46 -70 134q0 72 51 129q52 58 142 102l47 217q-59 -103 -156 -172q-98 -70 -231 -70q-91 0 -166 37
q-77 38 -123 105q-45 65 -45 157q0 122 55 201t170 123q116 44 285 59l307 33l4 23q10 52 10 73q0 73 -45 115q-46 43 -141 43q-104 0 -166 -45q-65 -47 -86 -129h-264q35 118 111 197q74 77 184 118q109 41 227 41q139 0 234 -36zM686 229l2 -4q88 95 123 258l8 37
l-207 -20q-148 -15 -231 -60q-80 -44 -80 -143q0 -83 49 -123q50 -41 121 -41q125 0 215 96z" />
    <glyph glyph-name="Cacute" unicode="&#x106;" horiz-adv-x="1615" 
d="M434 49l-12 -6q-143 73 -227 219q-82 143 -82 344q0 246 104 469q105 225 307 363q204 139 477 139q178 0 312 -64q139 -66 219 -186q83 -124 98 -291h-280q-24 159 -121 244q-96 84 -252 84q-180 0 -311 -104q-134 -106 -203 -279q-70 -174 -70 -375q0 -134 49 -225
t136 -141q86 -50 200 -50q104 0 197 43q96 44 172 117q77 74 129 172h280q-67 -162 -180 -284t-270 -193q-155 -70 -344 -70q-183 0 -328 74zM1153 1671h-274l311 283h385z" />
    <glyph glyph-name="cacute" unicode="&#x107;" horiz-adv-x="1226" 
d="M295 31l-6 -2q-107 57 -164 159q-59 106 -59 246q0 178 73 336q73 159 221 258q146 98 359 98q136 0 237 -49t160 -141q60 -94 66 -221h-262q-9 114 -64 172q-54 57 -162 57q-116 0 -200 -78t-127 -196q-43 -119 -43 -242q0 -133 61 -203q62 -71 170 -71q110 0 190 59
t123 166h262q-66 -187 -219 -297q-149 -107 -374 -107q-136 0 -242 56zM838 1239h-250l301 315h360z" />
    <glyph glyph-name="Ccircumflex" unicode="&#x108;" horiz-adv-x="1615" 
d="M434 49l-12 -6q-143 73 -227 219q-82 143 -82 344q0 246 104 469q105 225 307 363q204 139 477 139q178 0 312 -64q139 -66 219 -186q83 -124 98 -291h-280q-24 159 -121 244q-96 84 -252 84q-180 0 -311 -104q-134 -106 -203 -279q-70 -174 -70 -375q0 -134 49 -225
t136 -141q86 -50 200 -50q104 0 197 43q96 44 172 117q77 74 129 172h280q-67 -162 -180 -284t-270 -193q-155 -70 -344 -70q-183 0 -328 74zM1268 1954l200 -283h-221l-168 174l-219 -174h-248l312 283h344z" />
    <glyph glyph-name="ccircumflex" unicode="&#x109;" horiz-adv-x="1226" 
d="M295 31l-6 -2q-107 57 -164 159q-59 106 -59 246q0 178 73 336q73 159 221 258q146 98 359 98q136 0 237 -49t160 -141q60 -94 66 -221h-262q-9 114 -64 172q-54 57 -162 57q-116 0 -200 -78t-127 -196q-43 -119 -43 -242q0 -133 61 -203q62 -71 170 -71q110 0 190 59
t123 166h262q-66 -187 -219 -297q-149 -107 -374 -107q-136 0 -242 56zM958 1554l197 -315h-217l-158 201l-235 -201h-240l324 315h329z" />
    <glyph glyph-name="Cdotaccent" unicode="&#x10a;" horiz-adv-x="1615" 
d="M434 49l-12 -6q-143 73 -227 219q-82 143 -82 344q0 246 104 469q105 225 307 363q204 139 477 139q178 0 312 -64q139 -66 219 -186q83 -124 98 -291h-280q-24 159 -121 244q-96 84 -252 84q-180 0 -311 -104q-134 -106 -203 -279q-70 -174 -70 -375q0 -134 49 -225
t136 -141q86 -50 200 -50q104 0 197 43q96 44 172 117q77 74 129 172h280q-67 -162 -180 -284t-270 -193q-155 -70 -344 -70q-183 0 -328 74zM1180 1671h-283l59 283h283z" />
    <glyph glyph-name="cdotaccent" unicode="&#x10b;" horiz-adv-x="1226" 
d="M295 31l-6 -2q-107 57 -164 159q-59 106 -59 246q0 178 73 336q73 159 221 258q146 98 359 98q136 0 237 -49t160 -141q60 -94 66 -221h-262q-9 114 -64 172q-54 57 -162 57q-116 0 -200 -78t-127 -196q-43 -119 -43 -242q0 -133 61 -203q62 -71 170 -71q110 0 190 59
t123 166h262q-66 -187 -219 -297q-149 -107 -374 -107q-136 0 -242 56zM872 1272h-274l59 282h275z" />
    <glyph glyph-name="Ccaron" unicode="&#x10c;" horiz-adv-x="1615" 
d="M434 49l-12 -6q-143 73 -227 219q-82 143 -82 344q0 246 104 469q105 225 307 363q204 139 477 139q178 0 312 -64q139 -66 219 -186q83 -124 98 -291h-280q-24 159 -121 244q-96 84 -252 84q-180 0 -311 -104q-134 -106 -203 -279q-70 -174 -70 -375q0 -134 49 -225
t136 -141q86 -50 200 -50q104 0 197 43q96 44 172 117q77 74 129 172h280q-67 -162 -180 -284t-270 -193q-155 -70 -344 -70q-183 0 -328 74zM1055 1780l217 174h250l-314 -283h-342l-200 283h221z" />
    <glyph glyph-name="ccaron" unicode="&#x10d;" horiz-adv-x="1226" 
d="M295 31l-6 -2q-107 57 -164 159q-59 106 -59 246q0 178 73 336q73 159 221 258q146 98 359 98q136 0 237 -49t160 -141q60 -94 66 -221h-262q-9 114 -64 172q-54 57 -162 57q-116 0 -200 -78t-127 -196q-43 -119 -43 -242q0 -133 61 -203q62 -71 170 -71q110 0 190 59
t123 166h262q-66 -187 -219 -297q-149 -107 -374 -107q-136 0 -242 56zM743 1354l234 200h242l-326 -315h-328l-198 315h219z" />
    <glyph glyph-name="Dcaron" unicode="&#x10e;" horiz-adv-x="1622" 
d="M930 1556l-2 -2q200 0 344 -69q149 -71 231 -209q82 -137 82 -338q0 -268 -117 -479q-119 -215 -333 -336q-217 -123 -510 -123h-562l330 1556h537zM655 225v-2q214 0 361 99q148 99 221 258q74 160 74 346q0 199 -105 301q-103 100 -303 100h-293l-231 -1102h276z
M958 1784l218 174h249l-313 -283h-342l-201 283h222z" />
    <glyph glyph-name="dcaron" unicode="&#x10f;" horiz-adv-x="1325" 
d="M1133 1556l262 -6l-330 -1556h-260l45 215q-57 -104 -156 -170q-103 -68 -233 -68q-112 0 -203 54q-87 52 -137 151q-49 98 -49 238q0 171 65 336q63 161 197 270q130 106 313 106q98 0 166 -45q72 -48 111 -112q40 -66 55 -144zM766 227l-2 4q85 76 129 197
q43 119 43 240q0 131 -62 202q-63 72 -169 72q-117 0 -203 -80t-129 -198q-43 -119 -43 -240q0 -133 61 -203q62 -71 170 -71q119 0 205 77zM1612 1182h-187l109 372h235z" />
    <glyph glyph-name="Dcroat" unicode="&#x110;" horiz-adv-x="1632" 
d="M940 1556l-2 -2q200 0 344 -69q149 -71 231 -209q82 -137 82 -338q0 -269 -116 -479q-118 -214 -334 -336q-217 -123 -510 -123h-561l147 700h-176l43 205h178l137 651h537zM666 225v-2q213 0 360 99q148 99 221 258q74 160 74 346q0 200 -104 301q-103 100 -304 100
h-292l-89 -424h373l-43 -205h-375l-98 -473h277z" />
    <glyph glyph-name="dcroat" unicode="&#x111;" horiz-adv-x="1325" 
d="M1483 1415l-27 -182h-129l-262 -1239h-260l45 215q-57 -104 -156 -170q-103 -68 -233 -68q-112 0 -203 54q-87 52 -137 151q-49 98 -49 238q0 171 65 336q63 161 197 270q130 106 313 106q98 0 166 -45q72 -48 111 -112q40 -66 55 -144l86 414h-186l30 176h193l31 141
h260l-31 -141h121zM766 227l-2 4q85 76 129 197q43 119 43 240q0 131 -62 202q-63 72 -169 72q-117 0 -203 -80t-129 -198q-43 -119 -43 -240q0 -133 61 -203q62 -71 170 -71q119 0 205 77z" />
    <glyph glyph-name="Emacron" unicode="&#x112;" horiz-adv-x="1349" 
d="M1438 1556l-47 -227h-777l-88 -416h760l-47 -227h-760l-98 -459h793l-50 -227h-1061l330 1556h1045zM1341 1722h-815l43 199h815z" />
    <glyph glyph-name="emacron" unicode="&#x113;" horiz-adv-x="1249" 
d="M328 477l-6 -12q-3 -15 -3 -45q0 -132 62 -203q63 -72 176 -72q98 0 168 43q69 43 113 129h264q-83 -176 -228 -262t-331 -86q-139 0 -248 56q-108 56 -166 159q-59 106 -59 246q0 178 73 336q72 156 222 260q144 100 360 100q138 0 240 -51q104 -52 161 -149
q58 -98 58 -238q0 -102 -33 -211h-823zM489 854l3 2q-90 -84 -136 -211h562q8 31 8 68q0 104 -60 164q-59 59 -166 59q-123 0 -211 -82zM1118 1290h-743l39 187h745z" />
    <glyph glyph-name="Ebreve" unicode="&#x114;" horiz-adv-x="1349" 
d="M1438 1556l-47 -227h-777l-88 -416h760l-47 -227h-760l-98 -459h793l-50 -227h-1061l330 1556h1045zM762 1702l-8 -4q-69 26 -111 84q-41 56 -41 125q0 28 6 55h195q-4 -28 -4 -31q0 -50 37 -80q38 -30 100 -30q78 0 131 39q57 41 68 100h196q-18 -83 -74 -148
q-55 -64 -141 -102q-84 -37 -194 -37q-84 0 -160 29z" />
    <glyph glyph-name="ebreve" unicode="&#x115;" horiz-adv-x="1249" 
d="M328 477l-6 -12q-3 -15 -3 -45q0 -132 62 -203q63 -72 176 -72q98 0 168 43q69 43 113 129h264q-83 -176 -228 -262t-331 -86q-139 0 -248 56q-108 56 -166 159q-59 106 -59 246q0 178 73 336q72 156 222 260q144 100 360 100q138 0 240 -51q104 -52 161 -149
q58 -98 58 -238q0 -102 -33 -211h-823zM489 854l3 2q-90 -84 -136 -211h562q8 31 8 68q0 104 -60 164q-59 59 -166 59q-123 0 -211 -82zM573 1255l-4 -8q-67 34 -104 92t-37 136q0 40 8 67h197q-8 -36 -8 -55q0 -49 30 -76t97 -27q75 0 125 41t65 121h195q-18 -90 -74 -164
q-54 -72 -141 -116q-85 -43 -191 -43q-95 0 -158 32z" />
    <glyph glyph-name="Edotaccent" unicode="&#x116;" horiz-adv-x="1349" 
d="M1438 1556l-47 -227h-777l-88 -416h760l-47 -227h-760l-98 -459h793l-50 -227h-1061l330 1556h1045zM1067 1679h-283l60 283h282z" />
    <glyph glyph-name="edotaccent" unicode="&#x117;" horiz-adv-x="1249" 
d="M328 477l-6 -12q-3 -15 -3 -45q0 -132 62 -203q63 -72 176 -72q98 0 168 43q69 43 113 129h264q-83 -176 -228 -262t-331 -86q-139 0 -248 56q-108 56 -166 159q-59 106 -59 246q0 178 73 336q72 156 222 260q144 100 360 100q138 0 240 -51q104 -52 161 -149
q58 -98 58 -238q0 -102 -33 -211h-823zM489 854l3 2q-90 -84 -136 -211h562q8 31 8 68q0 104 -60 164q-59 59 -166 59q-123 0 -211 -82zM879 1264h-275l60 282h274z" />
    <glyph glyph-name="Eogonek" unicode="&#x118;" horiz-adv-x="1349" 
d="M1391 1329l-777 -2l-88 -416h760l-47 -227h-760l-98 -459h793l-50 -227q-110 -41 -166 -80q-57 -39 -57 -86q0 -72 105 -72h65l-37 -174h-90q-133 0 -203 49q-69 48 -69 132q0 77 55 135q54 57 150 98h-814l330 1556h1045z" />
    <glyph glyph-name="eogonek" unicode="&#x119;" horiz-adv-x="1249" 
d="M328 477l-2 -12q-2 -10 -2 -45q0 -133 61 -203q63 -72 176 -72q98 0 168 43q69 43 113 129h264q-94 -199 -264 -282q-85 -62 -137 -117q-50 -53 -50 -94q0 -36 29 -55q28 -19 80 -19h61l-39 -170h-90q-125 0 -196 47q-70 46 -70 129q0 58 37 113q35 52 102 100h-26
q-139 0 -248 56q-108 56 -166 159q-59 106 -59 246q0 178 73 336q72 156 222 260q144 100 360 100q138 0 240 -51q104 -52 161 -149q58 -98 58 -238q0 -102 -33 -211h-823zM494 854l2 2q-90 -84 -136 -211h562q8 31 8 68q0 104 -60 164q-59 59 -165 59q-123 0 -211 -82z" />
    <glyph glyph-name="Ecaron" unicode="&#x11a;" horiz-adv-x="1349" 
d="M1438 1556l-47 -227h-777l-88 -416h760l-47 -227h-760l-98 -459h793l-50 -227h-1061l330 1556h1045zM940 1788l217 174h250l-313 -283h-342l-201 283h221z" />
    <glyph glyph-name="ecaron" unicode="&#x11b;" horiz-adv-x="1249" 
d="M328 477l-6 -12q-3 -15 -3 -45q0 -132 62 -203q63 -72 176 -72q98 0 168 43q69 43 113 129h264q-83 -176 -228 -262t-331 -86q-139 0 -248 56q-108 56 -166 159q-59 106 -59 246q0 178 73 336q72 156 222 260q144 100 360 100q138 0 240 -51q104 -52 161 -149
q58 -98 58 -238q0 -102 -33 -211h-823zM489 854l3 2q-90 -84 -136 -211h562q8 31 8 68q0 104 -60 164q-59 59 -166 59q-123 0 -211 -82zM752 1346l233 200h242l-326 -315h-328l-198 315h219z" />
    <glyph glyph-name="Gcircumflex" unicode="&#x11c;" horiz-adv-x="1716" 
d="M809 639l47 215h791l-183 -858h-227l82 385q-82 -166 -229 -289t-363 -123q-168 0 -307 74q-136 72 -217 219q-80 145 -80 344q0 246 104 469q105 225 308 363q204 139 483 139q177 0 313 -59q138 -60 219 -172q86 -118 109 -277h-281q-27 148 -125 221q-100 74 -262 74
q-183 0 -317 -104q-135 -105 -205 -277q-70 -171 -70 -371q0 -135 52 -229t143 -143q92 -50 215 -50q126 0 233 58q109 59 185 160q75 100 110 231h-528zM1264 1958l200 -283h-221l-168 174l-219 -174h-248l312 283h344z" />
    <glyph glyph-name="gcircumflex" unicode="&#x11d;" horiz-adv-x="1327" 
d="M1044 1104h254l-237 -1120q-30 -141 -117 -234q-86 -92 -205 -135t-264 -43q-136 0 -242 47q-103 46 -165 129q-61 82 -70 191h264q9 -86 68 -136q58 -49 151 -49q126 0 213 66q88 67 115 182l47 223q-61 -94 -162 -155q-103 -62 -221 -62q-112 0 -201 53
q-88 52 -141 152q-51 96 -51 231q0 169 65 326q64 154 195 258q129 102 313 102q98 0 166 -45q71 -47 111 -116t55 -144zM772 260l-2 -2q86 74 129 186q43 113 43 232q0 131 -61 201q-62 71 -172 71q-120 0 -203 -74q-85 -76 -127 -186q-43 -113 -43 -229q0 -131 61 -201
q63 -72 170 -72q119 0 205 74zM979 1552l197 -315h-218l-157 201l-236 -201h-239l323 315h330z" />
    <glyph glyph-name="Gbreve" unicode="&#x11e;" horiz-adv-x="1716" 
d="M809 639l47 215h791l-183 -858h-227l82 385q-82 -166 -229 -289t-363 -123q-168 0 -307 74q-136 72 -217 219q-80 145 -80 344q0 246 104 469q105 225 308 363q204 139 483 139q177 0 313 -59q138 -60 219 -172q86 -118 109 -277h-281q-27 148 -125 221q-100 74 -262 74
q-183 0 -317 -104q-135 -105 -205 -277q-70 -171 -70 -371q0 -135 52 -229t143 -143q92 -50 215 -50q126 0 233 58q109 59 185 160q75 100 110 231h-528zM872 1698l-8 -4q-68 26 -110 84q-41 56 -41 125q0 28 6 55h194q-4 -28 -4 -31q0 -50 37 -80q38 -30 101 -30
q79 0 131 38q55 40 67 101h197q-18 -83 -74 -148q-56 -64 -141 -102q-84 -37 -195 -37q-84 0 -160 29z" />
    <glyph glyph-name="gbreve" unicode="&#x11f;" horiz-adv-x="1327" 
d="M1044 1104h254l-237 -1120q-30 -141 -117 -234q-86 -92 -205 -135t-264 -43q-136 0 -242 47q-103 46 -165 129q-61 82 -70 191h264q9 -86 68 -136q58 -49 151 -49q126 0 213 66q88 67 115 182l47 223q-61 -94 -162 -155q-103 -62 -221 -62q-112 0 -201 53
q-88 52 -141 152q-51 96 -51 231q0 169 65 326q64 154 195 258q129 102 313 102q98 0 166 -45q71 -47 111 -116t55 -144zM772 260l-2 -2q86 74 129 186q43 113 43 232q0 131 -61 201q-62 71 -172 71q-120 0 -203 -74q-85 -76 -127 -186q-43 -113 -43 -229q0 -131 61 -201
q63 -72 170 -72q119 0 205 74zM588 1262l-4 -9q-68 35 -105 93t-37 135q0 37 9 67h196q-8 -36 -8 -55q0 -48 31 -76q29 -26 96 -26q75 0 125 41t65 120h195q-18 -89 -74 -163q-55 -73 -141 -117q-85 -43 -191 -43q-92 0 -157 33z" />
    <glyph glyph-name="Gdotaccent" unicode="&#x120;" horiz-adv-x="1716" 
d="M809 639l47 215h791l-183 -858h-227l82 385q-82 -166 -229 -289t-363 -123q-168 0 -307 74q-136 72 -217 219q-80 145 -80 344q0 246 104 469q105 225 308 363q204 139 483 139q177 0 313 -59q138 -60 219 -172q86 -118 109 -277h-281q-27 148 -125 221q-100 74 -262 74
q-183 0 -317 -104q-135 -105 -205 -277q-70 -171 -70 -371q0 -135 52 -229t143 -143q92 -50 215 -50q126 0 233 58q109 59 185 160q75 100 110 231h-528zM1176 1675h-283l59 283h283z" />
    <glyph glyph-name="gdotaccent" unicode="&#x121;" horiz-adv-x="1327" 
d="M1044 1104h254l-237 -1120q-30 -141 -117 -234q-86 -92 -205 -135t-264 -43q-136 0 -242 47q-103 46 -165 129q-61 82 -70 191h264q9 -86 68 -136q58 -49 151 -49q126 0 213 66q88 67 115 182l47 223q-61 -94 -162 -155q-103 -62 -221 -62q-112 0 -201 53
q-88 52 -141 152q-51 96 -51 231q0 169 65 326q64 154 195 258q129 102 313 102q98 0 166 -45q71 -47 111 -116t55 -144zM772 260l-2 -2q86 74 129 186q43 113 43 232q0 131 -61 201q-62 71 -172 71q-120 0 -203 -74q-85 -76 -127 -186q-43 -113 -43 -229q0 -131 61 -201
q63 -72 170 -72q119 0 205 74zM893 1270h-275l60 282h274z" />
    <glyph glyph-name="uni0122" unicode="&#x122;" horiz-adv-x="1716" 
d="M809 639l47 215h791l-183 -858h-227l82 385q-82 -166 -229 -289t-363 -123q-168 0 -307 74q-136 72 -217 219q-80 145 -80 344q0 246 104 469q105 225 308 363q204 139 483 139q177 0 313 -59q138 -60 219 -172q86 -118 109 -277h-281q-27 148 -125 221q-100 74 -262 74
q-183 0 -317 -104q-135 -105 -205 -277q-70 -171 -70 -371q0 -135 52 -229t143 -143q92 -50 215 -50q126 0 233 58q109 59 185 160q75 100 110 231h-528zM551 -412l59 283h283l-66 -305l-163 -184h-170l145 206h-88z" />
    <glyph glyph-name="uni0123" unicode="&#x123;" horiz-adv-x="1327" 
d="M1044 1104h254l-237 -1120q-30 -141 -117 -234q-86 -92 -205 -135t-264 -43q-136 0 -242 47q-103 46 -165 129q-61 82 -70 191h264q9 -86 68 -136q58 -49 151 -49q126 0 213 66q88 67 115 182l47 223q-61 -94 -162 -155q-103 -62 -221 -62q-112 0 -201 53
q-88 52 -141 152q-51 96 -51 231q0 169 65 326q64 154 195 258q129 102 313 102q98 0 166 -45q71 -47 111 -116t55 -144zM772 260l-2 -2q86 74 129 186q43 113 43 232q0 131 -61 201q-62 71 -172 71q-120 0 -203 -74q-85 -76 -127 -186q-43 -113 -43 -229q0 -131 61 -201
q63 -72 170 -72q119 0 205 74zM850 1761h160l-148 -207h92l-61 -282h-275l66 305z" />
    <glyph glyph-name="Hcircumflex" unicode="&#x124;" horiz-adv-x="1628" 
d="M1257 918l136 638h268l-330 -1556h-268l143 680h-731l-143 -680h-269l330 1556h269l-136 -638h731zM1268 1962l200 -283h-221l-168 174l-219 -174h-248l312 283h344z" />
    <glyph glyph-name="hcircumflex" unicode="&#x125;" horiz-adv-x="1269" 
d="M1032 1090l-4 -5q73 -39 109 -106q37 -70 37 -166q0 -66 -13 -129l-147 -690h-262l139 645q12 59 12 123q0 88 -47 135q-45 45 -123 45q-71 0 -135 -37q-67 -39 -111 -106q-46 -70 -67 -172l-133 -629h-260l329 1556h258l-143 -677q65 115 166 182t223 67q104 0 172 -36z
M729 1956l201 -283h-221l-168 174l-219 -174h-248l311 283h344z" />
    <glyph glyph-name="Hbar" unicode="&#x126;" horiz-adv-x="1628" 
d="M1608 1305h180l-43 -205h-180l-234 -1100h-268l143 680h-731l-143 -680h-269l234 1100h-186l45 205h184l53 251h269l-54 -251h731l54 251h268zM526 918h731l39 182h-731z" />
    <glyph glyph-name="hbar" unicode="&#x127;" horiz-adv-x="1269" 
d="M1032 1090l-4 -5q73 -39 109 -106q37 -70 37 -166q0 -66 -13 -129l-147 -690h-262l139 645q12 59 12 123q0 88 -47 135q-45 45 -123 45q-71 0 -135 -37q-67 -39 -111 -106q-46 -70 -67 -172l-133 -629h-260l262 1239h-123l31 176h129l30 141h258l-30 -141h186l-29 -176
h-194l-76 -360q65 115 166 182t223 67q104 0 172 -36z" />
    <glyph glyph-name="Itilde" unicode="&#x128;" horiz-adv-x="628" 
d="M332 0h-269l330 1556h269zM197 1700l-2 -4q30 122 104 190t164 68q45 0 86 -12q32 -9 67 -29q27 -15 60 -25q27 -8 59 -8q47 0 84 21t58 55h92q-17 -75 -60 -137q-41 -59 -92 -88q-54 -31 -110 -31q-43 0 -84 12q-34 10 -74 31q-27 15 -57 24q-37 11 -60 11
q-48 0 -86 -21t-55 -57h-94z" />
    <glyph glyph-name="itilde" unicode="&#x129;" horiz-adv-x="552" 
d="M289 0h-260l235 1104h260zM84 1278h-2q27 120 98 188t156 68q40 0 74 -12q28 -10 73 -33q56 -33 111 -33q47 0 88 23q37 21 55 61h86q-30 -123 -98 -188q-69 -66 -156 -66q-73 0 -147 45q-62 33 -111 33q-47 0 -86 -25q-37 -24 -55 -61h-86z" />
    <glyph glyph-name="Imacron" unicode="&#x12a;" horiz-adv-x="628" 
d="M332 0h-269l330 1556h269zM969 1722h-815l43 199h815z" />
    <glyph glyph-name="imacron" unicode="&#x12b;" horiz-adv-x="552" 
d="M289 0h-260l235 1104h260zM801 1300h-744l39 187h746z" />
    <glyph glyph-name="Ibreve" unicode="&#x12c;" horiz-adv-x="628" 
d="M332 0h-269l330 1556h269zM391 1702l-8 -4q-69 26 -111 84q-41 56 -41 125q0 23 7 55h194q-4 -28 -4 -31q0 -50 37 -80t100 -30q78 0 131 39q57 41 68 100h197q-18 -83 -74 -148q-55 -64 -142 -102q-84 -37 -194 -37q-84 0 -160 29z" />
    <glyph glyph-name="ibreve" unicode="&#x12d;" horiz-adv-x="552" 
d="M289 0h-260l235 1104h260zM256 1266l-4 -9q-68 35 -105 93q-36 56 -36 135q0 40 8 67h196q-8 -36 -8 -55q0 -48 31 -76q29 -26 96 -26q75 0 125 41q51 42 66 120h194q-18 -89 -74 -163q-55 -73 -141 -117q-85 -43 -190 -43q-93 0 -158 33z" />
    <glyph glyph-name="Iogonek" unicode="&#x12e;" horiz-adv-x="628" 
d="M332 0h-269l330 1556h269zM152 -412l-2 -4q-133 0 -203 49t-70 131q0 78 49 136q47 56 133 98h271q-114 -40 -164 -76q-55 -40 -55 -88q0 -72 104 -72h66l-39 -174h-90z" />
    <glyph glyph-name="iogonek" unicode="&#x12f;" horiz-adv-x="552" 
d="M293 1274l59 282h275l-60 -282h-274zM264 1104h258l-235 -1104q-226 -74 -226 -170q0 -34 31 -53q32 -19 86 -19h62l-37 -170h-94q-128 0 -199 47q-70 46 -70 134q0 72 51 129q53 58 138 102z" />
    <glyph glyph-name="Idotaccent" unicode="&#x130;" horiz-adv-x="628" 
d="M332 0h-269l330 1556h269zM694 1679h-282l59 283h283z" />
    <glyph glyph-name="dotlessi" unicode="&#x131;" horiz-adv-x="552" 
d="M289 0h-260l235 1104h260z" />
    <glyph glyph-name="Jcircumflex" unicode="&#x134;" horiz-adv-x="811" 
d="M-74 0l47 227h160q88 0 135 35q48 36 66 117l250 1180h268l-260 -1231q-34 -163 -146 -246q-110 -82 -309 -82h-211zM977 1962l201 -283h-222l-168 174l-219 -174h-247l311 283h344z" />
    <glyph glyph-name="jcircumflex" unicode="&#x135;" horiz-adv-x="552" 
d="M-258 -401l41 192h61q75 0 115 29q36 26 51 92l254 1192h260l-260 -1231q-27 -133 -129 -203q-103 -71 -264 -71h-129zM639 1559l197 -316h-218l-157 201l-236 -201h-239l323 316h330z" />
    <glyph glyph-name="uni0136" unicode="&#x136;" horiz-adv-x="1460" 
d="M1288 1556h357l-838 -753l573 -803h-319l-561 795l-168 -795h-269l330 1556h269l-150 -702zM471 -408l59 283h283l-65 -305l-164 -184h-170l145 206h-88z" />
    <glyph glyph-name="uni0137" unicode="&#x137;" horiz-adv-x="1155" 
d="M936 1104h321l-569 -510l363 -594h-287l-352 580l-123 -580h-260l329 1556h260l-192 -911zM295 -408l59 283h275l-66 -305l-164 -184h-161l145 206h-88z" />
    <glyph glyph-name="kgreenlandic" unicode="&#x138;" horiz-adv-x="1181" 
d="M965 1104h325l-614 -531l401 -573h-293l-381 551l-116 -551h-258l233 1104h258l-100 -477z" />
    <glyph glyph-name="Lacute" unicode="&#x139;" horiz-adv-x="1167" 
d="M662 1556l-281 -1329h688l-49 -227h-957l330 1556h269zM707 1679h-275l311 283h385z" />
    <glyph glyph-name="lacute" unicode="&#x13a;" horiz-adv-x="552" 
d="M289 0h-260l329 1556h260zM670 1679h-275l312 283h385z" />
    <glyph glyph-name="uni013B" unicode="&#x13b;" horiz-adv-x="1167" 
d="M662 1556l-281 -1329h688l-49 -227h-957l330 1556h269zM330 -408l59 283h283l-66 -305l-164 -184h-170l146 206h-88z" />
    <glyph glyph-name="uni013C" unicode="&#x13c;" horiz-adv-x="552" 
d="M289 0h-260l329 1556h260zM-66 -408l60 283h274l-65 -305l-164 -184h-162l146 206h-89z" />
    <glyph glyph-name="Lcaron" unicode="&#x13d;" horiz-adv-x="1167" 
d="M662 1556l-281 -1329h688l-49 -227h-957l330 1556h269zM883 1044h-191l203 512h256z" />
    <glyph glyph-name="lcaron" unicode="&#x13e;" horiz-adv-x="552" 
d="M289 0h-260l329 1556h260zM840 1184h-187l109 372h235z" />
    <glyph glyph-name="Ldot" unicode="&#x13f;" horiz-adv-x="1187" 
d="M662 1556l-281 -1329h688l-49 -227h-957l330 1556h269zM1094 733h-295l59 279h295z" />
    <glyph glyph-name="ldot" unicode="&#x140;" horiz-adv-x="786" 
d="M289 0h-260l329 1556h260zM829 670h-270l59 278h271z" />
    <glyph glyph-name="Lslash" unicode="&#x141;" horiz-adv-x="1185" 
d="M502 717l-105 -490h688l-47 -227h-958l119 563l-193 -98l49 233l193 99l162 759h270l-129 -606l352 178l-49 -233z" />
    <glyph glyph-name="lslash" unicode="&#x142;" horiz-adv-x="692" 
d="M567 993l164 94l-51 -243l-166 -94l-158 -750h-262l123 578l-156 -91l52 244l155 90l156 735h262z" />
    <glyph glyph-name="Nacute" unicode="&#x143;" horiz-adv-x="1765" 
d="M1204 31l324 1525h270l-330 -1556h-516l-297 1526l-323 -1526h-269l330 1556h514zM1245 1679h-274l311 283h385z" />
    <glyph glyph-name="nacute" unicode="&#x144;" horiz-adv-x="1269" 
d="M1032 1090l-2 -7q73 -39 109 -106q37 -70 37 -166q0 -66 -13 -129l-147 -690h-262l139 645q12 59 12 123q0 88 -47 135q-45 45 -123 45q-71 0 -135 -37q-67 -39 -111 -106q-46 -70 -67 -172l-133 -629h-260l235 1104h258l-49 -223q68 115 166 182t221 67q104 0 172 -36z
M881 1233h-250l301 315h360z" />
    <glyph glyph-name="uni0145" unicode="&#x145;" horiz-adv-x="1765" 
d="M1204 31l324 1525h270l-330 -1556h-516l-297 1526l-323 -1526h-269l330 1556h514zM530 -408l60 283h282l-65 -305l-164 -184h-170l145 206h-88z" />
    <glyph glyph-name="uni0146" unicode="&#x146;" horiz-adv-x="1269" 
d="M1032 1090l-2 -7q73 -39 109 -106q37 -70 37 -166q0 -66 -13 -129l-147 -690h-262l139 645q12 59 12 123q0 88 -47 135q-45 45 -123 45q-71 0 -135 -37q-67 -39 -111 -106q-46 -70 -67 -172l-133 -629h-260l235 1104h258l-49 -223q68 115 166 182t221 67q104 0 172 -36z
M311 -416l60 283h274l-65 -305l-164 -185h-162l145 207h-88z" />
    <glyph glyph-name="Ncaron" unicode="&#x147;" horiz-adv-x="1765" 
d="M1204 31l324 1525h270l-330 -1556h-516l-297 1526l-323 -1526h-269l330 1556h514zM1147 1788l217 174h250l-314 -283h-342l-200 283h221z" />
    <glyph glyph-name="ncaron" unicode="&#x148;" horiz-adv-x="1269" 
d="M1032 1090l-2 -7q73 -39 109 -106q37 -70 37 -166q0 -66 -13 -129l-147 -690h-262l139 645q12 59 12 123q0 88 -47 135q-45 45 -123 45q-71 0 -135 -37q-67 -39 -111 -106q-46 -70 -67 -172l-133 -629h-260l235 1104h258l-49 -223q68 115 166 182t221 67q104 0 172 -36z
M784 1348l234 200h242l-326 -315h-328l-198 315h219z" />
    <glyph glyph-name="Eng" unicode="&#x14a;" horiz-adv-x="1757" 
d="M1798 1556l-328 -1558h-8l-18 -88q-31 -153 -141 -232t-306 -79h-204l45 208h157q91 0 135 33q47 35 62 113l10 47h-250l-297 1526l-323 -1526h-269l330 1556h514l297 -1525l324 1525h270z" />
    <glyph glyph-name="eng" unicode="&#x14b;" horiz-adv-x="1269" 
d="M1032 1090v-7q73 -39 109 -106q37 -70 37 -166q0 -66 -13 -129l-147 -690l-29 -127q-27 -133 -129 -203q-101 -70 -264 -70h-129l41 191h59q77 0 117 29q36 26 51 92l21 88h-2l139 645q12 59 12 123q0 88 -47 135q-45 45 -123 45q-71 0 -135 -37q-67 -39 -111 -106
q-46 -70 -67 -172l-133 -629h-260l235 1104h258l-49 -223q68 115 166 182t221 67q104 0 172 -36z" />
    <glyph glyph-name="Omacron" unicode="&#x14c;" horiz-adv-x="1716" 
d="M442 49l-2 -6q-150 73 -233 219q-84 147 -84 344q0 250 108 471q110 224 314 361q207 139 485 139q187 0 338 -74q152 -75 234 -217q84 -147 84 -344q0 -251 -107 -469q-109 -223 -313 -360q-206 -138 -486 -138q-187 0 -338 74zM1122 287h-4q139 106 211 278
q74 177 74 377q0 136 -51 225q-53 92 -142 142q-88 49 -209 49q-181 0 -319 -105q-139 -106 -211 -278q-74 -177 -74 -377q0 -134 52 -225q54 -94 143 -142q91 -49 211 -49q181 0 319 105zM1493 1714h-815l43 199h815z" />
    <glyph glyph-name="omacron" unicode="&#x14d;" horiz-adv-x="1269" 
d="M297 29h-6q-108 56 -166 159q-59 106 -59 246q0 178 73 336q73 157 221 260q144 100 361 100q137 0 244 -55q106 -55 168 -160q61 -104 61 -247q0 -174 -74 -334q-73 -157 -221 -260q-146 -101 -360 -101q-133 0 -242 56zM758 231l-4 5q86 77 129 196t43 240
q0 131 -62 202q-63 72 -170 72q-116 0 -202 -80q-88 -82 -130 -198q-43 -119 -43 -240q0 -132 62 -203t172 -71q119 0 205 77zM1124 1303h-743l39 186h745z" />
    <glyph glyph-name="Obreve" unicode="&#x14e;" horiz-adv-x="1716" 
d="M442 49l-2 -6q-150 73 -233 219q-84 147 -84 344q0 250 108 471q110 224 314 361q207 139 485 139q187 0 338 -74q152 -75 234 -217q84 -147 84 -344q0 -251 -107 -469q-109 -223 -313 -360q-206 -138 -486 -138q-187 0 -338 74zM1122 287h-4q139 106 211 278
q74 177 74 377q0 136 -51 225q-53 92 -142 142q-88 49 -209 49q-181 0 -319 -105q-139 -106 -211 -278q-74 -177 -74 -377q0 -134 52 -225q54 -94 143 -142q91 -49 211 -49q181 0 319 105zM913 1694l-8 -4q-68 26 -110 84q-41 56 -41 124q0 29 6 56h194q-4 -28 -4 -31
q0 -50 37 -80q39 -31 100 -31q79 0 132 39q55 40 67 101h197q-18 -83 -74 -148q-55 -64 -141 -102q-84 -37 -195 -37q-84 0 -160 29z" />
    <glyph glyph-name="obreve" unicode="&#x14f;" horiz-adv-x="1269" 
d="M297 29h-6q-108 56 -166 159q-59 106 -59 246q0 178 73 336q73 157 221 260q144 100 361 100q137 0 244 -55q106 -55 168 -160q61 -104 61 -247q0 -174 -74 -334q-73 -157 -221 -260q-146 -101 -360 -101q-133 0 -242 56zM758 231l-4 5q86 77 129 196t43 240
q0 131 -62 202q-63 72 -170 72q-116 0 -202 -80q-88 -82 -130 -198q-43 -119 -43 -240q0 -132 62 -203t172 -71q119 0 205 77zM582 1268l-4 -8q-68 35 -105 92q-37 58 -37 135q0 40 8 67h197q-8 -36 -8 -55q0 -48 31 -76q29 -26 96 -26q75 0 125 41t65 121h195
q-18 -90 -74 -164q-55 -73 -141 -117q-85 -43 -191 -43q-92 0 -157 33z" />
    <glyph glyph-name="Ohungarumlaut" unicode="&#x150;" horiz-adv-x="1716" 
d="M442 49l-2 -6q-150 73 -233 219q-84 147 -84 344q0 250 108 471q110 224 314 361q207 139 485 139q187 0 338 -74q152 -75 234 -217q84 -147 84 -344q0 -251 -107 -469q-109 -223 -313 -360q-206 -138 -486 -138q-187 0 -338 74zM1122 287h-4q139 106 211 278
q74 177 74 377q0 136 -51 225q-53 92 -142 142q-88 49 -209 49q-181 0 -319 -105q-139 -106 -211 -278q-74 -177 -74 -377q0 -134 52 -225q54 -94 143 -142q91 -49 211 -49q181 0 319 105zM971 1671h-256l332 283h352zM1411 1671h-256l334 283h350z" />
    <glyph glyph-name="ohungarumlaut" unicode="&#x151;" horiz-adv-x="1269" 
d="M297 29h-6q-108 56 -166 159q-59 106 -59 246q0 178 73 336q73 157 221 260q144 100 361 100q137 0 244 -55q106 -55 168 -160q61 -104 61 -247q0 -174 -74 -334q-73 -157 -221 -260q-146 -101 -360 -101q-133 0 -242 56zM758 231l-4 5q86 77 129 196t43 240
q0 131 -62 202q-63 72 -170 72q-116 0 -202 -80q-88 -82 -130 -198q-43 -119 -43 -240q0 -132 62 -203t172 -71q119 0 205 77zM684 1243h-242l301 316h320zM1114 1243h-242l302 316h319z" />
    <glyph glyph-name="OE" unicode="&#x152;" horiz-adv-x="2351" 
d="M2392 1329l-776 2l-88 -416h762l-47 -227h-762l-97 -459h793l-49 -227h-1327q-192 0 -346 80t-240 225t-86 336q0 261 133 471q132 208 361 326q226 116 503 116h1313zM1114 229l227 1100h-260q-194 0 -348 -86q-153 -85 -241 -235q-89 -151 -89 -338q0 -133 56 -236
q55 -100 157 -153q101 -52 228 -52h270z" />
    <glyph glyph-name="oe" unicode="&#x153;" horiz-adv-x="2101" 
d="M1180 477l-6 -12q-3 -15 -3 -45q0 -132 62 -203q63 -72 176 -72q193 0 285 177h260q-82 -177 -228 -267q-143 -88 -331 -88q-131 0 -234 56t-160 153q-85 -97 -198 -151q-118 -56 -266 -56q-133 0 -242 56q-108 56 -166 159q-59 106 -59 246q0 178 73 336q72 156 222 260
q144 100 360 100q126 0 227 -55q100 -55 160 -151q83 95 201 151q116 55 264 55q138 0 240 -51q104 -52 161 -149q58 -98 58 -238q0 -111 -33 -211h-823zM758 221l-4 4q85 76 129 197q43 119 43 240q0 131 -62 202q-63 72 -170 72q-116 0 -202 -80q-87 -81 -130 -199
q-43 -119 -43 -239q0 -132 62 -203q63 -72 172 -72q118 0 205 78zM1335 858l2 2q-89 -83 -135 -211h561q9 35 9 68q0 104 -60 164q-59 59 -166 59q-123 0 -211 -82z" />
    <glyph glyph-name="Racute" unicode="&#x154;" horiz-adv-x="1497" 
d="M1434 920l-2 -2q-49 -99 -142 -170q-93 -72 -227 -109l268 -641h-295l-243 608h-7h-327l-129 -608h-269l330 1556h584q148 0 262 -51q115 -52 180 -147q66 -97 66 -221q0 -117 -49 -215zM829 829v-4q125 0 209 41q82 40 123 105q39 62 39 141q0 60 -31 111q-29 48 -88 75
t-137 27h-336l-104 -496h325zM1004 1671h-275l311 283h385z" />
    <glyph glyph-name="racute" unicode="&#x155;" horiz-adv-x="808" 
d="M467 840l-2 -2q140 288 424 288l-55 -252h-70q-100 0 -168 -24q-67 -24 -111 -80q-42 -53 -63 -149l-133 -621h-260l235 1104h258zM739 1239h-250l302 315h360z" />
    <glyph glyph-name="uni0156" unicode="&#x156;" horiz-adv-x="1497" 
d="M1434 920l-2 -2q-49 -99 -142 -170q-93 -72 -227 -109l268 -641h-295l-243 608h-7h-327l-129 -608h-269l330 1556h584q148 0 262 -51q115 -52 180 -147q66 -97 66 -221q0 -117 -49 -215zM829 829v-4q125 0 209 41q82 40 123 105q39 62 39 141q0 60 -31 111q-29 48 -88 75
t-137 27h-336l-104 -496h325zM455 -416l59 283h283l-66 -305l-164 -185h-170l146 207h-88z" />
    <glyph glyph-name="uni0157" unicode="&#x157;" horiz-adv-x="808" 
d="M467 840l-2 -2q140 288 424 288l-55 -252h-70q-100 0 -168 -24q-67 -24 -111 -80q-42 -53 -63 -149l-133 -621h-260l235 1104h258zM-68 -410l60 283h274l-65 -305l-164 -184h-162l145 206h-88z" />
    <glyph glyph-name="Rcaron" unicode="&#x158;" horiz-adv-x="1497" 
d="M1434 920l-2 -2q-49 -99 -142 -170q-93 -72 -227 -109l268 -641h-295l-243 608h-7h-327l-129 -608h-269l330 1556h584q148 0 262 -51q115 -52 180 -147q66 -97 66 -221q0 -117 -49 -215zM829 829v-4q125 0 209 41q82 40 123 105q39 62 39 141q0 60 -31 111q-29 48 -88 75
t-137 27h-336l-104 -496h325zM905 1780l217 174h250l-313 -283h-342l-201 283h221z" />
    <glyph glyph-name="rcaron" unicode="&#x159;" horiz-adv-x="808" 
d="M467 840l-2 -2q140 288 424 288l-55 -252h-70q-100 0 -168 -24q-67 -24 -111 -80q-42 -53 -63 -149l-133 -621h-260l235 1104h258zM645 1354l234 200h241l-325 -315h-328l-199 315h219z" />
    <glyph glyph-name="Sacute" unicode="&#x15a;" horiz-adv-x="1437" 
d="M346 35l-12 -4q-133 59 -209 172q-77 115 -80 270h281q3 -96 49 -160t123 -94q79 -31 172 -31q104 0 192 27q89 27 144 82t55 139q0 64 -31 109q-28 41 -92 69q-75 33 -162 56l-198 53q-171 47 -265 141q-96 96 -96 252q0 133 84 240q83 105 227 164q145 59 320 59
q174 0 301 -53t199 -150q73 -99 94 -229h-281q-18 103 -104 162q-83 57 -234 57q-96 0 -172 -27q-74 -26 -119 -77q-43 -49 -43 -113q0 -53 31 -92q32 -39 92 -66q70 -31 162 -55l197 -55q366 -95 366 -387q0 -161 -86 -279q-85 -117 -241 -178q-157 -62 -359 -62
q-170 0 -305 60zM969 1675h-275l312 283h385z" />
    <glyph glyph-name="sacute" unicode="&#x15b;" horiz-adv-x="1116" 
d="M254 14l-8 -18q-102 40 -164 121q-61 79 -70 192h264q6 -90 68 -131q59 -39 158 -39q108 0 172 37q65 38 65 109q0 40 -18 67q-20 30 -57 49q-44 23 -115 43l-150 43q-124 37 -196 109q-70 70 -70 178q0 98 62 178q61 78 172 125q107 45 249 45q113 0 213 -35
q98 -34 162 -104q65 -71 80 -168h-264q-12 57 -68 92t-143 35q-88 0 -152 -31q-61 -30 -61 -96q0 -38 18 -59q19 -22 56 -37q51 -21 108 -35l150 -43q276 -83 276 -309q0 -110 -63 -191q-64 -82 -180 -125t-267 -43q-124 0 -227 41zM739 1221h-250l302 315h360z" />
    <glyph glyph-name="Scircumflex" unicode="&#x15c;" horiz-adv-x="1437" 
d="M346 35l-12 -4q-133 59 -209 172q-77 115 -80 270h281q3 -96 49 -160t123 -94q79 -31 172 -31q104 0 192 27q89 27 144 82t55 139q0 64 -31 109q-28 41 -92 69q-75 33 -162 56l-198 53q-171 47 -265 141q-96 96 -96 252q0 133 84 240q83 105 227 164q145 59 320 59
q174 0 301 -53t199 -150q73 -99 94 -229h-281q-18 103 -104 162q-83 57 -234 57q-96 0 -172 -27q-74 -26 -119 -77q-43 -49 -43 -113q0 -53 31 -92q32 -39 92 -66q70 -31 162 -55l197 -55q366 -95 366 -387q0 -161 -86 -279q-85 -117 -241 -178q-157 -62 -359 -62
q-170 0 -305 60zM1085 1958l201 -283h-221l-168 174l-219 -174h-248l311 283h344z" />
    <glyph glyph-name="scircumflex" unicode="&#x15d;" horiz-adv-x="1116" 
d="M254 14l-8 -18q-102 40 -164 121q-61 79 -70 192h264q6 -90 68 -131q59 -39 158 -39q108 0 172 37q65 38 65 109q0 40 -18 67q-20 30 -57 49q-44 23 -115 43l-150 43q-124 37 -196 109q-70 70 -70 178q0 98 62 178q61 78 172 125q107 45 249 45q113 0 213 -35
q98 -34 162 -104q65 -71 80 -168h-264q-12 57 -68 92t-143 35q-88 0 -152 -31q-61 -30 -61 -96q0 -38 18 -59q19 -22 56 -37q51 -21 108 -35l150 -43q276 -83 276 -309q0 -110 -63 -191q-64 -82 -180 -125t-267 -43q-124 0 -227 41zM858 1536l197 -315h-217l-158 200
l-236 -200h-239l323 315h330z" />
    <glyph glyph-name="Scedilla" unicode="&#x15e;" horiz-adv-x="1437" 
d="M973 879l-17 -9q367 -95 367 -387q0 -154 -76 -264t-215 -172t-319 -74l-11 -45q64 -9 105 -47q39 -36 39 -92q0 -64 -33 -108q-37 -49 -92 -72q-61 -25 -131 -25h-144l29 137h90q97 0 97 60q0 27 -19 37q-20 10 -53 10h-60l31 147q-148 12 -266 74q-114 60 -180 170
q-65 109 -68 252h281q3 -96 49 -160t123 -94q79 -31 172 -31q104 0 192 27q89 27 144 82t55 139q0 64 -31 109q-28 41 -92 69q-75 33 -162 56l-198 53q-171 47 -265 141q-96 96 -96 252q0 133 84 240q83 105 227 164q145 59 320 59q174 0 301 -53t199 -150q73 -99 94 -229
h-281q-18 103 -104 162q-83 57 -234 57q-95 0 -172 -27q-73 -26 -118 -77q-43 -49 -43 -113q0 -55 30 -92q32 -39 92 -66q70 -31 162 -55z" />
    <glyph glyph-name="scedilla" unicode="&#x15f;" horiz-adv-x="1116" 
d="M719 643l-10 -22q276 -83 276 -310q0 -100 -59 -180q-58 -78 -166 -125q-104 -45 -248 -51l-8 -45q63 -9 102 -45q41 -38 41 -92q0 -61 -31 -109t-90 -72q-58 -24 -131 -24h-137l27 129h92q47 0 74 18q26 17 26 49q0 29 -18 41q-19 13 -56 13h-59l31 149
q-154 21 -250 111q-97 91 -109 233h265q6 -91 67 -131q59 -39 158 -39q108 0 172 37q65 38 65 109q0 40 -18 67q-20 30 -57 49q-44 23 -115 43l-150 43q-124 37 -196 109q-70 70 -70 178q0 98 62 178q61 78 172 125q107 45 250 45q115 0 213 -34q95 -33 161 -105
q65 -71 80 -168h-264q-12 57 -68 92t-143 35t-151 -31q-62 -30 -62 -96q0 -37 19 -59q20 -23 55 -37q51 -21 108 -35z" />
    <glyph glyph-name="Scaron" unicode="&#x160;" horiz-adv-x="1437" 
d="M346 35l-12 -4q-133 59 -209 172q-77 115 -80 270h281q3 -96 49 -160t123 -94q79 -31 172 -31q104 0 192 27q89 27 144 82t55 139q0 64 -31 109q-28 41 -92 69q-75 33 -162 56l-198 53q-171 47 -265 141q-96 96 -96 252q0 133 84 240q83 105 227 164q145 59 320 59
q174 0 301 -53t199 -150q73 -99 94 -229h-281q-18 103 -104 162q-83 57 -234 57q-96 0 -172 -27q-74 -26 -119 -77q-43 -49 -43 -113q0 -53 31 -92q32 -39 92 -66q70 -31 162 -55l197 -55q366 -95 366 -387q0 -161 -86 -279q-85 -117 -241 -178q-157 -62 -359 -62
q-170 0 -305 60zM870 1784l217 174h250l-313 -283h-342l-201 283h221z" />
    <glyph glyph-name="scaron" unicode="&#x161;" horiz-adv-x="1116" 
d="M254 14l-8 -18q-102 40 -164 121q-61 79 -70 192h264q6 -90 68 -131q59 -39 158 -39q108 0 172 37q65 38 65 109q0 40 -18 67q-20 30 -57 49q-44 23 -115 43l-150 43q-124 37 -196 109q-70 70 -70 178q0 98 62 178q61 78 172 125q107 45 249 45q113 0 213 -35
q98 -34 162 -104q65 -71 80 -168h-264q-12 57 -68 92t-143 35q-88 0 -152 -31q-61 -30 -61 -96q0 -38 18 -59q19 -22 56 -37q51 -21 108 -35l150 -43q276 -83 276 -309q0 -110 -63 -191q-64 -82 -180 -125t-267 -43q-124 0 -227 41zM645 1335l234 201h241l-325 -315h-328
l-199 315h219z" />
    <glyph glyph-name="uni0162" unicode="&#x162;" horiz-adv-x="1335" 
d="M246 1556h1267l-49 -227h-497l-283 -1329h-268l282 1329h-499zM324 -408l59 283h283l-66 -305l-164 -184h-170l146 206h-88z" />
    <glyph glyph-name="uni0163" unicode="&#x163;" horiz-adv-x="815" 
d="M573 915l-122 -583q-7 -32 -7 -56q0 -46 35 -67t105 -21h100l-41 -190h-149q-90 0 -166 29q-71 27 -111 79q-39 51 -39 121q0 56 8 92l127 596h-217l41 189h217l56 262h260l-56 -262h263l-41 -189h-263zM156 -408l59 283h274l-65 -305l-164 -184h-162l146 206h-88z" />
    <glyph glyph-name="Tcaron" unicode="&#x164;" horiz-adv-x="1335" 
d="M246 1556h1267l-49 -227h-497l-283 -1329h-268l282 1329h-499zM907 1788l217 174h250l-313 -283h-342l-201 283h221z" />
    <glyph glyph-name="tcaron" unicode="&#x165;" horiz-adv-x="815" 
d="M748 1190l108 366h234l-156 -366h-186zM670 1366l-56 -262h263l-41 -189h-263l-122 -583q-7 -32 -7 -56q0 -46 35 -67t105 -21h100l-41 -190h-149q-90 0 -166 29q-71 27 -111 79q-39 51 -39 121q0 56 8 92l127 596h-217l41 189h217l56 262h260z" />
    <glyph glyph-name="Tbar" unicode="&#x166;" horiz-adv-x="1398" 
d="M1542 1556l-47 -227h-498l-94 -442h377l-47 -217h-377l-141 -670h-271l142 670h-381l47 217h381l94 442h-500l49 227h1266z" />
    <glyph glyph-name="tbar" unicode="&#x167;" horiz-adv-x="815" 
d="M836 915h-263l-38 -186h157l-28 -176h-166l-47 -221q-7 -32 -7 -56q0 -46 35 -67t105 -21h100l-41 -190h-149q-90 0 -166 29q-71 27 -111 79q-39 51 -39 121q0 56 8 92l50 234h-148l31 176h155l39 186h-217l41 189h217l56 262h260l-56 -262h263z" />
    <glyph glyph-name="Utilde" unicode="&#x168;" horiz-adv-x="1593" 
d="M406 31l-5 2q-123 55 -184 157q-61 101 -61 240q0 92 22 205l197 921h268l-205 -962q-16 -82 -16 -141q0 -133 76 -197q78 -66 223 -66q180 0 295 109t158 313l200 942h268l-198 -940q-64 -305 -238 -473q-172 -166 -497 -166q-179 0 -303 56zM662 1700l-3 -4
q29 121 105 190q74 68 164 68q45 0 86 -12q32 -9 67 -29q27 -15 60 -25q27 -8 59 -8q46 0 84 21q36 20 57 55h93q-17 -75 -60 -137q-41 -59 -92 -88q-54 -31 -111 -31q-43 0 -84 12q-31 9 -73 31q-26 14 -58 24q-37 11 -59 11q-49 0 -86 -21q-38 -21 -55 -57h-94z" />
    <glyph glyph-name="utilde" unicode="&#x169;" horiz-adv-x="1259" 
d="M971 1104l258 2l-234 -1104h-260l47 221q-63 -111 -164 -180q-100 -68 -223 -68q-146 0 -227 84q-80 83 -80 228q0 67 14 133l148 686h260l-137 -645q-15 -65 -15 -123q0 -94 43 -137t123 -43q113 0 197 84q82 82 117 237zM424 1280h-2q27 120 98 188t156 68q40 0 74 -12
q28 -10 73 -33q56 -33 111 -33q47 0 88 23q37 21 55 61h86q-30 -123 -98 -188q-69 -66 -156 -66q-73 0 -147 45q-62 33 -111 33q-47 0 -86 -25q-37 -24 -55 -61h-86z" />
    <glyph glyph-name="Umacron" unicode="&#x16a;" horiz-adv-x="1593" 
d="M406 31l-5 2q-123 55 -184 157q-61 101 -61 240q0 92 22 205l197 921h268l-205 -962q-16 -82 -16 -141q0 -133 76 -197q78 -66 223 -66q180 0 295 109t158 313l200 942h268l-198 -940q-64 -305 -238 -473q-172 -166 -497 -166q-179 0 -303 56zM1436 1722h-815l43 199h815
z" />
    <glyph glyph-name="umacron" unicode="&#x16b;" horiz-adv-x="1259" 
d="M971 1104l258 2l-234 -1104h-260l47 221q-63 -111 -164 -180q-100 -68 -223 -68q-146 0 -227 84q-80 83 -80 228q0 67 14 133l148 686h260l-137 -645q-15 -65 -15 -123q0 -94 43 -137t123 -43q113 0 197 84q82 82 117 237zM1143 1303h-744l39 186h746z" />
    <glyph glyph-name="Ubreve" unicode="&#x16c;" horiz-adv-x="1593" 
d="M406 31l-5 2q-123 55 -184 157q-61 101 -61 240q0 92 22 205l197 921h268l-205 -962q-16 -82 -16 -141q0 -133 76 -197q78 -66 223 -66q180 0 295 109t158 313l200 942h268l-198 -940q-64 -305 -238 -473q-172 -166 -497 -166q-179 0 -303 56zM856 1702l-8 -4
q-69 26 -111 84q-41 56 -41 125q0 28 6 55h195q-4 -28 -4 -31q0 -50 37 -80q38 -30 100 -30q78 0 131 39q57 41 68 100h196q-18 -85 -73 -148q-55 -64 -142 -102q-84 -37 -194 -37q-84 0 -160 29z" />
    <glyph glyph-name="ubreve" unicode="&#x16d;" horiz-adv-x="1259" 
d="M971 1104l258 2l-234 -1104h-260l47 221q-63 -111 -164 -180q-100 -68 -223 -68q-146 0 -227 84q-80 83 -80 228q0 67 14 133l148 686h260l-137 -645q-15 -65 -15 -123q0 -94 43 -137t123 -43q113 0 197 84q82 82 117 237zM596 1268l-4 -8q-68 35 -105 92q-36 56 -36 135
q0 40 8 67h196q-8 -36 -8 -55q0 -48 31 -76q29 -26 96 -26q75 0 125 41q51 42 66 121h194q-18 -90 -74 -164q-55 -73 -141 -117q-85 -43 -190 -43q-93 0 -158 33z" />
    <glyph glyph-name="Uring" unicode="&#x16e;" horiz-adv-x="1593" 
d="M406 31l-5 2q-123 55 -184 157q-61 101 -61 240q0 92 22 205l197 921h268l-205 -962q-16 -82 -16 -141q0 -133 76 -197q78 -66 223 -66q180 0 295 109t158 313l200 942h268l-198 -940q-64 -305 -238 -473q-172 -166 -497 -166q-179 0 -303 56zM918 1696h-5q-51 25 -88 84
q-32 51 -32 131q0 83 43 153q44 70 114 111q71 41 152 41q63 0 123 -29q54 -26 90 -84q33 -53 33 -131q0 -83 -43 -153q-44 -71 -113 -111q-71 -41 -150 -41q-64 0 -124 29zM1145 1868q37 37 37 92q0 41 -27 68q-26 26 -68 26q-57 0 -94 -37t-37 -92q0 -38 29 -67
q27 -27 68 -27q55 0 92 37z" />
    <glyph glyph-name="uring" unicode="&#x16f;" horiz-adv-x="1259" 
d="M971 1104l258 2l-234 -1104h-260l47 221q-63 -111 -164 -180q-100 -68 -223 -68q-146 0 -227 84q-80 83 -80 228q0 67 14 133l148 686h260l-137 -645q-15 -65 -15 -123q0 -94 43 -137t123 -43q113 0 197 84q82 82 117 237zM674 1260h-2q-51 25 -80 73q-31 51 -31 117
q0 76 39 135q39 60 102 98q61 37 129 37q59 0 109 -24q51 -25 78 -74q29 -53 29 -117q0 -74 -37 -135q-37 -60 -99 -98q-61 -37 -129 -37q-56 0 -108 25zM870 1413v-2q31 31 31 78q0 34 -24 55q-26 23 -58 23q-47 0 -78 -31q-30 -30 -30 -76q0 -34 24 -55q26 -23 58 -23
q46 0 77 31z" />
    <glyph glyph-name="Uhungarumlaut" unicode="&#x170;" horiz-adv-x="1593" 
d="M406 31l-5 2q-123 55 -184 157q-61 101 -61 240q0 92 22 205l197 921h268l-205 -962q-16 -82 -16 -141q0 -133 76 -197q78 -66 223 -66q180 0 295 109t158 313l200 942h268l-198 -940q-64 -305 -238 -473q-172 -166 -497 -166q-179 0 -303 56zM913 1679h-256l332 283h352
zM1354 1679h-256l334 283h350z" />
    <glyph glyph-name="uhungarumlaut" unicode="&#x171;" horiz-adv-x="1259" 
d="M971 1104l258 2l-234 -1104h-260l47 221q-63 -111 -164 -180q-100 -68 -223 -68q-146 0 -227 84q-80 83 -80 228q0 67 14 133l148 686h260l-137 -645q-15 -65 -15 -123q0 -94 43 -137t123 -43q113 0 197 84q82 82 117 237zM700 1243h-241l301 316h319zM1130 1243h-241
l301 316h319z" />
    <glyph glyph-name="Uogonek" unicode="&#x172;" horiz-adv-x="1593" 
d="M1374 1556l262 -2l-198 -940q-41 -184 -113 -313q-74 -133 -195 -213q-110 -77 -169 -139q-56 -59 -56 -111q0 -74 105 -74h61l-37 -174h-88q-135 0 -203 45q-69 46 -69 129q0 114 147 222q-55 -6 -116 -6q-182 0 -304 55t-184 158q-61 101 -61 239q0 92 22 205l197 922
h268l-205 -963q-16 -82 -16 -141q0 -133 76 -197q77 -65 223 -65q181 0 295 108q115 109 158 313z" />
    <glyph glyph-name="uogonek" unicode="&#x173;" horiz-adv-x="1259" 
d="M997 0l-8 2q-225 -74 -225 -170q0 -34 31 -53q32 -19 86 -19h61l-39 -170h-92q-126 0 -199 48q-69 46 -69 133q0 72 51 129q52 58 141 102l47 221q-63 -111 -164 -180q-100 -68 -223 -68q-146 0 -227 84q-80 83 -80 228q0 67 14 133l148 686h260l-137 -645
q-15 -65 -15 -123q0 -94 43 -137t123 -43q113 0 197 84q82 82 117 237l133 625h260z" />
    <glyph glyph-name="Wcircumflex" unicode="&#x174;" horiz-adv-x="2336" 
d="M1577 31l664 1525h274l-682 -1556h-512l57 1528l-598 -1528h-514l-14 1556h262l10 -1521l600 1521h506zM1624 1962l201 -283h-221l-168 174l-219 -174h-248l311 283h344z" />
    <glyph glyph-name="wcircumflex" unicode="&#x175;" horiz-adv-x="1849" 
d="M1221 31l456 1073h246l-473 -1104h-455l41 1073l-407 -1073h-459l-12 1104h235l8 -1077l412 1077h444zM1286 1556l197 -315h-217l-158 201l-236 -201h-239l323 315h330z" />
    <glyph glyph-name="Ycircumflex" unicode="&#x176;" horiz-adv-x="1402" 
d="M1313 1556h315l-776 -921l-133 -635h-270l139 666l-393 890h282l291 -663zM1139 1962l200 -283h-221l-168 174l-219 -174h-248l312 283h344z" />
    <glyph glyph-name="ycircumflex" unicode="&#x177;" horiz-adv-x="1179" 
d="M506 156l495 948h275l-793 -1505h-270l272 520h-219l-143 985h252zM936 1556l197 -315h-218l-157 201l-236 -201h-239l323 315h330z" />
    <glyph glyph-name="Ydieresis" unicode="&#x178;" horiz-adv-x="1402" 
d="M1313 1556h315l-776 -921l-133 -635h-270l139 666l-393 890h282l291 -663zM831 1679h-282l59 283h283zM1266 1679h-283l59 283h283z" />
    <glyph glyph-name="Zacute" unicode="&#x179;" horiz-adv-x="1413" 
d="M305 1556h1221l-62 -299l-1134 -1030h950l-47 -227h-1270l64 299l1134 1030h-905zM1001 1679h-274l311 283h385z" />
    <glyph glyph-name="zacute" unicode="&#x17a;" horiz-adv-x="1087" 
d="M209 1104h895l-53 -248l-750 -666h649l-41 -190h-946l51 250l754 665h-600zM772 1241h-250l301 315h361z" />
    <glyph glyph-name="Zdotaccent" unicode="&#x17b;" horiz-adv-x="1413" 
d="M305 1556h1221l-62 -299l-1134 -1030h950l-47 -227h-1270l64 299l1134 1030h-905zM1028 1679h-283l60 283h282z" />
    <glyph glyph-name="zdotaccent" unicode="&#x17c;" horiz-adv-x="1087" 
d="M209 1104h895l-53 -248l-750 -666h649l-41 -190h-946l51 250l754 665h-600zM807 1274h-275l60 282h274z" />
    <glyph glyph-name="Zcaron" unicode="&#x17d;" horiz-adv-x="1413" 
d="M305 1556h1221l-62 -299l-1134 -1030h950l-47 -227h-1270l64 299l1134 1030h-905zM903 1788l217 174h250l-313 -283h-342l-201 283h221z" />
    <glyph glyph-name="zcaron" unicode="&#x17e;" horiz-adv-x="1087" 
d="M209 1104h895l-53 -248l-750 -666h649l-41 -190h-946l51 250l754 665h-600zM678 1356l233 200h242l-326 -315h-327l-199 315h219z" />
    <glyph glyph-name="uni018F" unicode="&#x18f;" horiz-adv-x="1691" 
d="M1358 1503l-2 -4q144 -76 223 -217q80 -142 80 -321q0 -268 -113 -494q-115 -229 -321 -363q-209 -135 -482 -135q-181 0 -325 78q-141 77 -221 215q-80 139 -80 320q0 147 45 305h1227q2 12 2 53q0 136 -56 231t-143 144q-88 49 -201 49q-152 0 -276 -74
q-123 -73 -199 -205h-280q117 241 323 367q207 127 471 127q185 0 328 -76zM1034 246v-2q117 62 197 170q82 111 121 245h-959q-1 -14 -2 -30t-1.5 -24.5t-0.5 -12.5q0 -125 47 -217t133 -142q85 -49 203 -49q144 0 262 62z" />
    <glyph glyph-name="florin" unicode="&#x192;" horiz-adv-x="1216" 
d="M1352 1556l-49 -213h-132q-67 0 -110 -18q-46 -19 -74 -57q-29 -40 -57 -115l-74 -203h303l-45 -211h-334l-137 -377q-51 -138 -113 -215q-63 -78 -159 -116q-93 -37 -240 -37h-176l45 211h131q67 0 111 18q41 17 73 60q36 49 60 114l123 340h-275l47 211h305l87 240
q50 136 114 215t160 117q91 36 240 36h176z" />
    <glyph glyph-name="uni019D" unicode="&#x19d;" horiz-adv-x="1757" 
d="M1528 1556l272 -2l-330 -1556h-516l-297 1526l-323 -1526h-10l-19 -88q-31 -153 -141 -232t-305 -79h-205l45 208h158q91 0 135 33q46 34 61 113l17 80l323 1523h514l297 -1525z" />
    <glyph glyph-name="uni01B5" unicode="&#x1b5;" horiz-adv-x="1445" 
d="M319 1556h1223l-63 -299l-408 -370h334l-47 -213h-520l-492 -447h950l-49 -227h-1270l66 299l451 410h-334l47 213h520l449 407h-904z" />
    <glyph glyph-name="uni01B6" unicode="&#x1b6;" horiz-adv-x="1112" 
d="M217 1104h897l-53 -248l-240 -213h219l-36 -174h-379l-316 -279h652l-41 -190h-949l54 250l276 246h-188l37 174h348l278 245h-600z" />
    <glyph glyph-name="uni01E2" unicode="&#x1e2;" horiz-adv-x="2113" 
d="M2202 1556l-48 -227h-858l54 -416h700l-47 -227h-623l60 -459h497l-49 -227h-692l-55 446h-721l-246 -446h-293l871 1556h1450zM1008 1520l-465 -848h569zM1837 1722h-815l43 199h815z" />
    <glyph glyph-name="uni01E3" unicode="&#x1e3;" horiz-adv-x="2000" 
d="M1077 477l-8 -12q-2 -10 -2 -45q0 -133 61 -203q63 -72 177 -72q103 0 170 43q67 44 114 129h264q-83 -176 -227 -262q-145 -86 -332 -86q-309 0 -417 258q-72 -118 -195 -190q-119 -70 -283 -70q-97 0 -178 37q-82 37 -131 107t-49 165q0 182 139 277q140 96 393 96h277
l14 66q10 48 10 71q0 73 -45 115q-46 43 -141 43q-104 0 -166 -45q-64 -46 -88 -129h-262q35 118 111 197q74 77 184 118q109 41 229 41q134 0 222 -49t131 -131q75 81 184 131q107 49 244 49t239 -51q105 -52 162 -149q57 -96 57 -238q0 -99 -34 -211h-824zM1237 854h2
q-89 -83 -135 -211h561q10 52 10 70q0 106 -61 164q-62 59 -166 59q-123 0 -211 -82zM682 227l2 -2q88 82 123 238h-191q-166 0 -243 -39q-80 -41 -80 -131q0 -71 49 -111q48 -39 129 -39q121 0 211 84zM1487 1286h-744l39 187h746z" />
    <glyph glyph-name="Gcaron" unicode="&#x1e6;" horiz-adv-x="1716" 
d="M809 639l47 215h791l-183 -858h-227l82 385q-82 -166 -229 -289t-363 -123q-168 0 -307 74q-136 72 -217 219q-80 145 -80 344q0 246 104 469q105 225 308 363q204 139 483 139q177 0 313 -59q138 -60 219 -172q86 -118 109 -277h-281q-27 148 -125 221q-100 74 -262 74
q-183 0 -317 -104q-135 -105 -205 -277q-70 -171 -70 -371q0 -135 52 -229t143 -143q92 -50 215 -50q126 0 233 58q109 59 185 160q75 100 110 231h-528zM1051 1784l217 174h250l-314 -283h-342l-200 283h221z" />
    <glyph glyph-name="gcaron" unicode="&#x1e7;" horiz-adv-x="1327" 
d="M1044 1104h254l-237 -1120q-30 -141 -117 -234q-86 -92 -205 -135t-264 -43q-136 0 -242 47q-103 46 -165 129q-61 82 -70 191h264q9 -86 68 -136q58 -49 151 -49q126 0 213 66q88 67 115 182l47 223q-61 -94 -162 -155q-103 -62 -221 -62q-112 0 -201 53
q-88 52 -141 152q-51 96 -51 231q0 169 65 326q64 154 195 258q129 102 313 102q98 0 166 -45q71 -47 111 -116t55 -144zM772 260l-2 -2q86 74 129 186q43 113 43 232q0 131 -61 201q-62 71 -172 71q-120 0 -203 -74q-85 -76 -127 -186q-43 -113 -43 -229q0 -131 61 -201
q63 -72 170 -72q119 0 205 74zM766 1352l233 200h242l-326 -315h-327l-199 315h219z" />
    <glyph glyph-name="uni01EA" unicode="&#x1ea;" horiz-adv-x="1716" 
d="M1053 -51l-6 -6q-56 -62 -56 -113q0 -74 103 -74h61l-37 -174h-88q-135 0 -203 45q-69 46 -69 129q0 113 153 221q-78 -10 -135 -10q-187 0 -338 74q-150 73 -233 219q-84 147 -84 344q0 250 108 471q110 224 314 361q207 139 485 139q187 0 338 -74t233 -217
q84 -147 84 -344q0 -171 -53 -336t-157 -299q-106 -137 -250 -219q-118 -79 -170 -137zM444 373h-4q53 -93 144 -142t211 -49q181 0 319 105q139 106 211 278q74 177 74 377q0 136 -51 225q-53 92 -142 142q-88 49 -209 49q-181 0 -319 -105q-139 -106 -211 -278
q-74 -177 -74 -377q0 -136 51 -225z" />
    <glyph glyph-name="uni01EB" unicode="&#x1eb;" horiz-adv-x="1269" 
d="M1122 334l-4 -2q-74 -159 -215 -254q-118 -77 -178 -137q-61 -61 -61 -111q0 -36 28 -55t80 -19h62l-39 -170h-90q-126 0 -197 47q-70 46 -70 129q0 58 37 113t105 102q-10 -2 -45 -2q-133 0 -242 56q-108 56 -166 159q-59 106 -59 246q0 178 73 336q73 157 221 260
q146 101 361 101q135 0 244 -56q107 -55 168 -159t61 -248q0 -176 -74 -336zM760 231l-4 5q86 77 129 196t43 240q0 131 -62 202q-63 72 -170 72q-116 0 -202 -80t-129 -198q-43 -119 -43 -240q0 -133 61 -203q62 -71 172 -71q119 0 205 77z" />
    <glyph glyph-name="AEacute" unicode="&#x1fc;" horiz-adv-x="2113" 
d="M2202 1556l-48 -227h-858l54 -416h700l-47 -227h-623l60 -459h497l-49 -227h-692l-55 446h-721l-246 -446h-293l871 1556h1450zM1008 1520l-465 -848h569zM1536 1679h-274l311 283h385z" />
    <glyph glyph-name="aeacute" unicode="&#x1fd;" horiz-adv-x="2000" 
d="M1077 477l-8 -12q-2 -10 -2 -45q0 -133 61 -203q63 -72 177 -72q103 0 170 43q67 44 114 129h264q-83 -176 -227 -262q-145 -86 -332 -86q-309 0 -417 258q-72 -118 -195 -190q-119 -70 -283 -70q-97 0 -178 37q-82 37 -131 107t-49 165q0 182 139 277q140 96 393 96h277
l14 66q10 48 10 71q0 73 -45 115q-46 43 -141 43q-104 0 -166 -45q-64 -46 -88 -129h-262q35 118 111 197q74 77 184 118q109 41 229 41q134 0 222 -49t131 -131q75 81 184 131q107 49 244 49t239 -51q105 -52 162 -149q57 -96 57 -238q0 -99 -34 -211h-824zM1237 854h2
q-89 -83 -135 -211h561q10 52 10 70q0 106 -61 164q-62 59 -166 59q-123 0 -211 -82zM682 227l2 -2q88 82 123 238h-191q-166 0 -243 -39q-80 -41 -80 -131q0 -71 49 -111q48 -39 129 -39q121 0 211 84zM1217 1227h-250l301 315h360z" />
    <glyph glyph-name="Oslashacute" unicode="&#x1fe;" horiz-adv-x="1716" 
d="M1976 1556l-356 -313q63 -129 63 -305q0 -253 -106 -469q-109 -223 -313 -360q-206 -138 -486 -138q-137 0 -252 37q-113 36 -204 115l-146 -127h-346l354 307q-63 129 -63 305q0 250 108 471q110 224 314 361q207 139 485 139q137 0 252 -37q120 -38 205 -112l145 126
h346zM410 494l878 763q-55 55 -125 78q-77 25 -159 25q-182 0 -320 -105q-139 -106 -211 -278q-74 -177 -74 -377q0 -38 11 -106zM1395 1051l-881 -766q51 -51 127 -76q77 -25 160 -25q181 0 319 105q139 106 211 278q74 177 74 377q0 45 -10 107zM1192 1671h-274l311 283
h385z" />
    <glyph glyph-name="oslashacute" unicode="&#x1ff;" horiz-adv-x="1269" 
d="M1419 1104l-266 -230q41 -93 41 -208q0 -174 -74 -334q-73 -157 -221 -260q-146 -101 -360 -101q-89 0 -172 25q-80 24 -142 74l-88 -76h-291l265 227q-39 91 -39 209q0 178 73 336q72 156 222 260q144 100 360 100q92 0 172 -24q79 -24 141 -74l88 76h291zM326 412
l540 469q-62 65 -166 65q-116 0 -202 -80t-129 -198q-43 -119 -43 -240v-16zM934 688l-543 -465q59 -65 166 -65q118 0 205 78q86 77 129 196t43 240v16zM860 1243h-250l301 316h361z" />
    <glyph glyph-name="uni0218" unicode="&#x218;" horiz-adv-x="1437" 
d="M346 35l-12 -4q-133 59 -209 172q-77 115 -80 270h281q3 -96 49 -160t123 -94q79 -31 172 -31q104 0 192 27q89 27 144 82t55 139q0 64 -31 109q-28 41 -92 69q-75 33 -162 56l-198 53q-171 47 -265 141q-96 96 -96 252q0 133 84 240q83 105 227 164q145 59 320 59
q174 0 301 -53t199 -150q73 -99 94 -229h-281q-18 103 -104 162q-83 57 -234 57q-96 0 -172 -27q-74 -26 -119 -77q-43 -49 -43 -113q0 -53 31 -92q32 -39 92 -66q70 -31 162 -55l197 -55q366 -95 366 -387q0 -161 -86 -279q-85 -117 -241 -178q-157 -62 -359 -62
q-170 0 -305 60zM436 -412l60 283h282l-65 -305l-164 -184h-170l145 206h-88z" />
    <glyph glyph-name="uni0219" unicode="&#x219;" horiz-adv-x="1116" 
d="M254 14l-8 -18q-102 40 -164 121q-61 79 -70 192h264q6 -90 68 -131q59 -39 158 -39q108 0 172 37q65 38 65 109q0 40 -18 67q-20 30 -57 49q-44 23 -115 43l-150 43q-124 37 -196 109q-70 70 -70 178q0 98 62 178q61 78 172 125q107 45 249 45q113 0 213 -35
q98 -34 162 -104q65 -71 80 -168h-264q-12 57 -68 92t-143 35q-88 0 -152 -31q-61 -30 -61 -96q0 -38 18 -59q19 -22 56 -37q51 -21 108 -35l150 -43q276 -83 276 -309q0 -110 -63 -191q-64 -82 -180 -125t-267 -43q-124 0 -227 41zM256 -428l59 283h275l-66 -306l-164 -184
h-161l145 207h-88z" />
    <glyph glyph-name="uni021A" unicode="&#x21a;" horiz-adv-x="1335" 
d="M246 1556h1267l-49 -227h-497l-283 -1329h-268l282 1329h-499zM324 -408l59 283h283l-66 -305l-164 -184h-170l146 206h-88z" />
    <glyph glyph-name="uni021B" unicode="&#x21b;" horiz-adv-x="815" 
d="M573 915l-122 -583q-7 -32 -7 -56q0 -46 35 -67t105 -21h100l-41 -190h-149q-90 0 -166 29q-71 27 -111 79q-39 51 -39 121q0 56 8 92l127 596h-217l41 189h217l56 262h260l-56 -262h263l-41 -189h-263zM156 -408l59 283h274l-65 -305l-164 -184h-162l146 206h-88z" />
    <glyph glyph-name="uni022E" unicode="&#x22e;" horiz-adv-x="1716" 
d="M442 49l-2 -6q-150 73 -233 219q-84 147 -84 344q0 250 108 471q110 224 314 361q207 139 485 139q187 0 338 -74q152 -75 234 -217q84 -147 84 -344q0 -251 -107 -469q-109 -223 -313 -360q-206 -138 -486 -138q-187 0 -338 74zM1122 287h-4q139 106 211 278
q74 177 74 377q0 136 -51 225q-53 92 -142 142q-88 49 -209 49q-181 0 -319 -105q-139 -106 -211 -278q-74 -177 -74 -377q0 -134 52 -225q54 -94 143 -142q91 -49 211 -49q181 0 319 105zM1217 1671h-283l59 283h283z" />
    <glyph glyph-name="uni022F" unicode="&#x22f;" horiz-adv-x="1269" 
d="M297 29h-6q-108 56 -166 159q-59 106 -59 246q0 178 73 336q73 157 221 260q144 100 361 100q137 0 244 -55q106 -55 168 -160q61 -104 61 -247q0 -174 -74 -334q-73 -157 -221 -260q-146 -101 -360 -101q-133 0 -242 56zM758 231l-4 5q86 77 129 196t43 240
q0 131 -62 202q-63 72 -170 72q-116 0 -202 -80q-88 -82 -130 -198q-43 -119 -43 -240q0 -132 62 -203t172 -71q119 0 205 77zM885 1276h-275l60 283h274z" />
    <glyph glyph-name="uni0232" unicode="&#x232;" horiz-adv-x="1402" 
d="M1313 1556h315l-776 -921l-133 -635h-270l139 666l-393 890h282l291 -663zM1325 1722h-815l43 199h815z" />
    <glyph glyph-name="uni0233" unicode="&#x233;" horiz-adv-x="1179" 
d="M506 156l495 948h275l-793 -1505h-270l272 520h-219l-143 985h252zM1090 1300h-744l39 187h745z" />
    <glyph glyph-name="uni0237" unicode="&#x237;" horiz-adv-x="552" 
d="M-258 -401l41 192h61q75 0 115 29q36 26 51 92l254 1192h260l-260 -1231q-27 -133 -129 -203q-103 -71 -264 -71h-129z" />
    <glyph glyph-name="uni0259" unicode="&#x259;" horiz-adv-x="1249" 
d="M952 1073l2 8q108 -56 166 -159q60 -108 60 -246q0 -174 -74 -334q-73 -157 -221 -260q-144 -100 -359 -100q-137 0 -239 51q-103 52 -162 151q-57 96 -57 238q0 105 32 211h824q2 10 2 45q0 132 -62 203t-176 71q-98 0 -168 -43q-68 -42 -112 -129h-265q83 176 228 262
t331 86q143 0 250 -55zM756 246l-2 -2q89 83 135 211h-561q-9 -34 -9 -68q0 -104 60 -164q59 -59 166 -59q123 0 211 82z" />
    <glyph glyph-name="uni0272" unicode="&#x272;" horiz-adv-x="1269" 
d="M1032 1090l-2 -7q73 -39 109 -106q37 -70 37 -166q0 -66 -13 -129l-147 -690h-262l139 645q12 59 12 123q0 88 -47 135q-45 45 -123 45q-71 0 -135 -37q-67 -39 -111 -106q-46 -70 -67 -172l-129 -609h2l-33 -147q-27 -133 -129 -203q-100 -69 -264 -69h-129l41 190h61
q77 0 117 29q37 27 49 92l25 108l231 1084h258l-49 -223q68 115 166 182t221 67q104 0 172 -36z" />
    <glyph glyph-name="circumflex" unicode="&#x2c6;" horiz-adv-x="944" 
d="M846 1556l196 -315h-217l-157 201l-236 -201h-239l323 315h330z" />
    <glyph glyph-name="caron" unicode="&#x2c7;" horiz-adv-x="944" 
d="M637 1356l233 200h242l-326 -315h-327l-199 315h219z" />
    <glyph glyph-name="breve" unicode="&#x2d8;" horiz-adv-x="792" 
d="M395 1266l-4 -9q-66 34 -104 93q-37 58 -37 135q0 40 8 67h197q-9 -40 -9 -55q0 -48 31 -76q29 -26 96 -26q75 0 125 41q51 42 66 120h194q-18 -91 -73 -163q-55 -73 -142 -117q-85 -43 -190 -43q-93 0 -158 33z" />
    <glyph glyph-name="dotaccent" unicode="&#x2d9;" horiz-adv-x="368" 
d="M475 1274h-274l59 282h275z" />
    <glyph glyph-name="ring" unicode="&#x2da;" horiz-adv-x="577" 
d="M350 1257h-2q-50 24 -80 74q-30 49 -30 117q0 77 38 135q39 59 103 98q61 37 129 37q58 0 108 -24q51 -25 78 -74q29 -53 29 -117q0 -74 -37 -135t-98 -98t-129 -37q-60 0 -109 24zM547 1411v-2q31 31 31 78q0 33 -25 55q-26 23 -57 23q-47 0 -78 -31t-31 -76
q0 -33 25 -55q26 -23 57 -23q47 0 78 31z" />
    <glyph glyph-name="ogonek" unicode="&#x2db;" horiz-adv-x="499" 
d="M154 -412h-7q-127 0 -198 47q-70 46 -70 134q0 72 51 129q52 58 142 102h260q-226 -74 -226 -170q0 -34 31 -53q32 -19 86 -19h62l-39 -170h-92z" />
    <glyph glyph-name="tilde" unicode="&#x2dc;" horiz-adv-x="776" 
d="M201 1278h-2q27 120 98 188t156 68q39 0 73 -12q31 -11 74 -33q56 -33 111 -33q47 0 88 23q37 21 55 61h86q-30 -123 -98 -188q-69 -66 -156 -66q-73 0 -147 45q-62 33 -111 33q-47 0 -86 -25q-37 -24 -55 -61h-86z" />
    <glyph glyph-name="hungarumlaut" unicode="&#x2dd;" horiz-adv-x="1075" 
d="M434 1241h-241l301 315h319zM864 1241h-241l301 315h319z" />
    <glyph glyph-name="gravecomb" unicode="&#x300;" horiz-adv-x="0" 
d="M100 1241h-241l-273 315h346z" />
    <glyph glyph-name="acutecomb" unicode="&#x301;" horiz-adv-x="0" 
d="M-244 1241h-250l301 315h361z" />
    <glyph glyph-name="uni0302" unicode="&#x302;" horiz-adv-x="0" 
d="M-98 1556l196 -315h-217l-157 201l-236 -201h-240l324 315h330z" />
    <glyph glyph-name="tildecomb" unicode="&#x303;" horiz-adv-x="0" 
d="M-575 1278h-3q27 119 99 188q71 68 155 68q40 0 74 -12q31 -11 74 -33q56 -33 110 -33q48 0 89 23q37 21 55 61h86q-30 -123 -98 -188q-69 -66 -156 -66q-74 0 -148 45q-62 33 -110 33q-47 0 -86 -25q-37 -24 -55 -61h-86z" />
    <glyph glyph-name="uni0304" unicode="&#x304;" horiz-adv-x="0" 
d="M113 1300h-744l39 187h746z" />
    <glyph glyph-name="uni0306" unicode="&#x306;" horiz-adv-x="0" 
d="M-397 1266l-4 -9q-67 35 -105 93q-37 58 -37 135q0 40 8 67h197q-8 -36 -8 -55q0 -48 31 -76q29 -26 96 -26q75 0 125 41t65 120h195q-18 -89 -74 -163q-56 -73 -141 -117q-85 -43 -191 -43q-92 0 -157 33z" />
    <glyph glyph-name="uni0307" unicode="&#x307;" horiz-adv-x="0" 
d="M106 1274h-274l59 282h275z" />
    <glyph glyph-name="uni0308" unicode="&#x308;" horiz-adv-x="0" 
d="M-352 1274h-275l60 282h274zM106 1274h-274l59 282h275z" />
    <glyph glyph-name="uni030A" unicode="&#x30a;" horiz-adv-x="0" 
d="M-227 1257h-2q-50 24 -80 74q-31 51 -31 117q0 76 39 135q39 60 102 98q61 37 129 37q60 0 109 -24q51 -25 78 -74q28 -51 28 -117q0 -76 -36 -135q-37 -60 -99 -98q-61 -37 -129 -37q-59 0 -108 24zM-31 1411v-2q31 31 31 78q0 33 -25 55q-26 23 -57 23q-47 0 -78 -31
q-30 -30 -30 -76q0 -34 24 -55q26 -23 57 -23q47 0 78 31z" />
    <glyph glyph-name="uni030B" unicode="&#x30b;" horiz-adv-x="0" 
d="M-641 1241h-242l301 315h320zM-211 1241h-242l301 315h320z" />
    <glyph glyph-name="uni030C" unicode="&#x30c;" horiz-adv-x="0" 
d="M-307 1356l233 200h242l-326 -315h-327l-199 315h219z" />
    <glyph glyph-name="uni0312" unicode="&#x312;" horiz-adv-x="0" 
d="M66 1765h159l-147 -206h92l-61 -283h-275l66 305z" />
    <glyph glyph-name="dotbelowcomb" unicode="&#x323;" horiz-adv-x="0" 
d="M-252 -408h-274l59 283h274z" />
    <glyph glyph-name="uni0326" unicode="&#x326;" horiz-adv-x="0" 
d="M-524 -408l59 283h275l-66 -305l-164 -184h-162l146 206h-88z" />
    <glyph glyph-name="uni0327" unicode="&#x327;" horiz-adv-x="0" 
d="M-352 -70l-6 -4q63 -9 102 -45q41 -38 41 -92q0 -60 -31 -108t-90 -72q-61 -25 -131 -25h-137l26 129h93q45 0 73 19q27 18 27 49q0 29 -18 41t-56 12h-59l35 166h145z" />
    <glyph glyph-name="uni0328" unicode="&#x328;" horiz-adv-x="0" 
d="M-346 -412h-6q-128 0 -199 47q-70 46 -70 134q0 71 52 129q53 58 141 102h260q-225 -74 -225 -170q0 -34 31 -53q32 -19 86 -19h61l-39 -170h-92z" />
    <glyph glyph-name="uni0335" unicode="&#x335;" horiz-adv-x="0" 
d="M-547 1239h-575l30 176h574z" />
    <glyph glyph-name="uni0336" unicode="&#x336;" horiz-adv-x="0" 
d="M72 1106h-1635l45 205h1633z" />
    <glyph glyph-name="uni0337" unicode="&#x337;" horiz-adv-x="0" 
d="M16 844l-618 -357l51 244l619 356z" />
    <glyph glyph-name="uni0338" unicode="&#x338;" horiz-adv-x="0" 
d="M-1200 0h-291l1282 1104h291z" />
    <glyph glyph-name="uni0394" unicode="&#x394;" horiz-adv-x="1585" 
d="M1264 1556l204 -1556h-1587l869 1556h514zM1167 227l-161 1293l-711 -1293h872z" />
    <glyph glyph-name="uni03A9" unicode="&#x3a9;" horiz-adv-x="1736" 
d="M1552 563l-6 -4q-165 -189 -497 -338h489l-47 -227h-655l63 299q192 103 307 203q116 101 172 219t56 260q0 122 -52 207q-54 88 -143 133q-92 47 -209 47q-173 0 -309 -80q-135 -80 -209 -215q-74 -136 -74 -301q0 -137 68 -252q66 -112 221 -221l-63 -299h-656l47 227
h496q-387 217 -387 547q0 226 117 410q115 182 321 290q204 107 461 107q192 0 340 -68q146 -67 229 -200q82 -131 82 -320q0 -238 -162 -424z" />
    <glyph glyph-name="uni03BC" unicode="&#x3bc;" horiz-adv-x="1343" 
d="M1090 201l2 6q21 -12 61 -12h74l-41 -191h-119q-265 0 -274 191q0 22 2 30q-64 -114 -166 -178q-103 -65 -228 -65q-67 0 -114 20l-84 -397h-260l319 1505h260l-137 -645q-14 -60 -14 -123q0 -94 43 -137t123 -43q74 0 135 37q62 37 108 108q47 72 68 172l135 625h260
l-172 -811q-4 -24 -4 -43q0 -36 23 -49z" />
    <glyph glyph-name="pi" unicode="&#x3c0;" horiz-adv-x="1384" 
d="M1186 915l-125 -583q-6 -27 -6 -56q0 -46 35 -67q34 -21 104 -21h33l-41 -190h-84q-86 0 -162 29q-71 27 -111 79q-38 49 -38 121q0 56 8 92l127 596h-361l-194 -915h-260l194 915h-196l41 189h1273l-41 -189h-196z" />
    <glyph glyph-name="uni0E3F" unicode="&#xe3f;" horiz-adv-x="1443" 
d="M1128 750v-2q85 -42 136 -113t51 -178q0 -119 -64 -217q-63 -97 -196 -162q-131 -64 -336 -76l-57 -270h-252l57 268h-391l330 1556h391l55 259h252l-57 -267q121 -18 198 -69q78 -51 119 -129q39 -74 39 -166q0 -122 -68 -205q-67 -81 -172 -125q-103 -43 -219 -55
q103 -9 184 -49zM1106 1247l-6 -2q-31 48 -86 72q-56 24 -129 24h-262l-97 -450h256q123 0 201 37q81 38 117 94q37 58 37 123q0 54 -31 102zM645 203q144 0 234 41t127 102q36 59 36 129q0 61 -30 111q-31 52 -94 78q-67 28 -154 28h-283l-102 -489h266z" />
    <glyph glyph-name="Wgrave" unicode="&#x1e80;" horiz-adv-x="2336" 
d="M1577 31l664 1525h274l-682 -1556h-512l57 1528l-598 -1528h-514l-14 1556h262l10 -1521l600 1521h506zM1534 1679h-244l-299 283h346z" />
    <glyph glyph-name="wgrave" unicode="&#x1e81;" horiz-adv-x="1849" 
d="M1221 31l456 1073h246l-473 -1104h-455l41 1073l-407 -1073h-459l-12 1104h235l8 -1077l412 1077h444zM1178 1241h-242l-272 315h346z" />
    <glyph glyph-name="Wacute" unicode="&#x1e82;" horiz-adv-x="2336" 
d="M1577 31l664 1525h274l-682 -1556h-512l57 1528l-598 -1528h-514l-14 1556h262l10 -1521l600 1521h506zM1540 1679h-274l311 283h385z" />
    <glyph glyph-name="wacute" unicode="&#x1e83;" horiz-adv-x="1849" 
d="M1221 31l456 1073h246l-473 -1104h-455l41 1073l-407 -1073h-459l-12 1104h235l8 -1077l412 1077h444zM1204 1241h-250l301 315h361z" />
    <glyph glyph-name="Wdieresis" unicode="&#x1e84;" horiz-adv-x="2336" 
d="M1577 31l664 1525h274l-682 -1556h-512l57 1528l-598 -1528h-514l-14 1556h262l10 -1521l600 1521h506zM1315 1679h-283l60 283h282zM1749 1679h-283l60 283h282z" />
    <glyph glyph-name="wdieresis" unicode="&#x1e85;" horiz-adv-x="1849" 
d="M1221 31l456 1073h246l-473 -1104h-455l41 1073l-407 -1073h-459l-12 1104h235l8 -1077l412 1077h444zM952 1274h-274l59 282h275zM1411 1274h-274l59 282h274z" />
    <glyph glyph-name="uni1E9E" unicode="&#x1e9e;" horiz-adv-x="1595" 
d="M1579 1556l-61 -274l-396 -360q107 -18 191 -70q84 -51 137 -135q51 -80 51 -191q0 -171 -82 -293t-227 -190t-332 -68q-136 0 -278 48l43 208q104 -49 225 -49q113 0 197 37q86 38 133 109t47 166q0 127 -92 192q-91 64 -254 64h-64l51 231l383 348h-639l-280 -1329
h-269l330 1556h1186z" />
    <glyph glyph-name="uni1EA0" unicode="&#x1ea0;" horiz-adv-x="1589" 
d="M1470 0h-274l-55 446h-721l-246 -446h-293l871 1556h514zM1008 1520l-465 -848h569zM752 -408h-283l59 283h283z" />
    <glyph glyph-name="uni1EA1" unicode="&#x1ea1;" horiz-adv-x="1220" 
d="M928 1090l4 -3q99 -38 151 -110q54 -76 54 -178q0 -46 -13 -109l-147 -690h-260l47 217q-59 -103 -156 -172q-98 -70 -231 -70q-91 0 -166 37q-77 38 -123 105q-45 65 -45 157q0 122 55 201t170 123q116 44 285 59l307 33l4 23q10 52 10 73q0 73 -45 115q-46 43 -141 43
q-104 0 -166 -45q-65 -47 -86 -129h-264q35 118 111 197q74 77 184 118q109 41 227 41q139 0 234 -36zM692 229l2 -4q88 95 123 258l8 37l-207 -20q-148 -15 -231 -60q-80 -44 -80 -143q0 -83 49 -123q50 -41 121 -41q125 0 215 96zM571 -416h-274l59 283h275z" />
    <glyph glyph-name="uni1EB8" unicode="&#x1eb8;" horiz-adv-x="1349" 
d="M1438 1556l-47 -227h-777l-88 -416h760l-47 -227h-760l-98 -459h793l-50 -227h-1061l330 1556h1045zM649 -408h-282l59 283h283z" />
    <glyph glyph-name="uni1EB9" unicode="&#x1eb9;" horiz-adv-x="1249" 
d="M328 477l-6 -12q-3 -15 -3 -45q0 -132 62 -203q63 -72 176 -72q98 0 168 43q69 43 113 129h264q-83 -176 -228 -262t-331 -86q-139 0 -248 56q-108 56 -166 159q-59 106 -59 246q0 178 73 336q72 156 222 260q144 100 360 100q138 0 240 -51q104 -52 161 -149
q58 -98 58 -238q0 -102 -33 -211h-823zM489 854l3 2q-90 -84 -136 -211h562q8 31 8 68q0 104 -60 164q-59 59 -166 59q-123 0 -211 -82zM575 -418h-274l59 283h275z" />
    <glyph glyph-name="uni1EBC" unicode="&#x1ebc;" horiz-adv-x="1349" 
d="M1438 1556l-47 -227h-777l-88 -416h760l-47 -227h-760l-98 -459h793l-50 -227h-1061l330 1556h1045zM567 1700l-2 -4q29 121 105 190q74 68 164 68q45 0 86 -12q32 -9 67 -29q27 -15 60 -25q27 -8 59 -8q46 0 84 21q36 20 57 55h92q-17 -77 -59 -137q-41 -59 -92 -88
q-54 -31 -111 -31q-43 0 -84 12q-31 9 -73 31q-26 14 -58 24q-37 11 -59 11q-49 0 -86 -21q-38 -21 -55 -57h-95z" />
    <glyph glyph-name="uni1EBD" unicode="&#x1ebd;" horiz-adv-x="1249" 
d="M328 477l-6 -12q-3 -15 -3 -45q0 -132 62 -203q63 -72 176 -72q98 0 168 43q69 43 113 129h264q-83 -176 -228 -262t-331 -86q-139 0 -248 56q-108 56 -166 159q-59 106 -59 246q0 178 73 336q72 156 222 260q144 100 360 100q138 0 240 -51q104 -52 161 -149
q58 -98 58 -238q0 -102 -33 -211h-823zM489 854l3 2q-90 -84 -136 -211h562q8 31 8 68q0 104 -60 164q-59 59 -166 59q-123 0 -211 -82zM401 1268h-2q27 119 99 188q71 68 155 68q37 0 74 -13t74 -32q56 -33 110 -33q49 0 88 22q38 21 56 62h86q-30 -123 -99 -189
q-68 -65 -155 -65q-74 0 -148 45q-62 33 -110 33q-47 0 -86 -25t-56 -61h-86z" />
    <glyph glyph-name="uni1ECA" unicode="&#x1eca;" horiz-adv-x="628" 
d="M332 0h-269l330 1556h269zM252 -408h-283l60 283h282z" />
    <glyph glyph-name="uni1ECB" unicode="&#x1ecb;" horiz-adv-x="552" 
d="M289 0h-260l235 1104h260zM567 1274h-274l59 282h275zM207 -408h-275l60 283h274z" />
    <glyph glyph-name="uni1ECC" unicode="&#x1ecc;" horiz-adv-x="1716" 
d="M442 49l-2 -6q-150 73 -233 219q-84 147 -84 344q0 250 108 471q110 224 314 361q207 139 485 139q187 0 338 -74q152 -75 234 -217q84 -147 84 -344q0 -251 -107 -469q-109 -223 -313 -360q-206 -138 -486 -138q-187 0 -338 74zM1122 287h-4q139 106 211 278
q74 177 74 377q0 136 -51 225q-53 92 -142 142q-88 49 -209 49q-181 0 -319 -105q-139 -106 -211 -278q-74 -177 -74 -377q0 -134 52 -225q54 -94 143 -142q91 -49 211 -49q181 0 319 105zM813 -416h-283l60 283h282z" />
    <glyph glyph-name="uni1ECD" unicode="&#x1ecd;" horiz-adv-x="1269" 
d="M297 29h-6q-108 56 -166 159q-59 106 -59 246q0 178 73 336q73 157 221 260q144 100 361 100q137 0 244 -55q106 -55 168 -160q61 -104 61 -247q0 -174 -74 -334q-73 -157 -221 -260q-146 -101 -360 -101q-133 0 -242 56zM758 231l-4 5q86 77 129 196t43 240
q0 131 -62 202q-63 72 -170 72q-116 0 -202 -80q-88 -82 -130 -198q-43 -119 -43 -240q0 -132 62 -203t172 -71q119 0 205 77zM571 -406h-274l59 283h275z" />
    <glyph glyph-name="uni1EE4" unicode="&#x1ee4;" horiz-adv-x="1593" 
d="M406 31l-5 2q-123 55 -184 157q-61 101 -61 240q0 92 22 205l197 921h268l-205 -962q-16 -82 -16 -141q0 -133 76 -197q78 -66 223 -66q180 0 295 109t158 313l200 942h268l-198 -940q-64 -305 -238 -473q-172 -166 -497 -166q-179 0 -303 56zM745 -408h-282l59 283h283z
" />
    <glyph glyph-name="uni1EE5" unicode="&#x1ee5;" horiz-adv-x="1259" 
d="M971 1104l258 2l-234 -1104h-260l47 221q-63 -111 -164 -180q-100 -68 -223 -68q-146 0 -227 84q-80 83 -80 228q0 67 14 133l148 686h260l-137 -645q-15 -65 -15 -123q0 -94 43 -137t123 -43q113 0 197 84q82 82 117 237zM551 -406h-275l60 283h274z" />
    <glyph glyph-name="Ygrave" unicode="&#x1ef2;" horiz-adv-x="1402" 
d="M1313 1556h315l-776 -921l-133 -635h-270l139 666l-393 890h282l291 -663zM1040 1679h-243l-299 283h346z" />
    <glyph glyph-name="ygrave" unicode="&#x1ef3;" horiz-adv-x="1179" 
d="M506 156l495 948h275l-793 -1505h-270l272 520h-219l-143 985h252zM842 1241h-242l-272 315h346z" />
    <glyph glyph-name="uni1EF8" unicode="&#x1ef8;" horiz-adv-x="1402" 
d="M1313 1556h315l-776 -921l-133 -635h-270l139 666l-393 890h282l291 -663zM553 1700l-2 -4q30 122 104 190t164 68q46 0 86 -12q34 -10 68 -29q29 -16 59 -25q27 -8 60 -8q46 0 84 21q36 20 57 55h92q-17 -77 -59 -137q-41 -59 -92 -88q-54 -31 -111 -31q-43 0 -84 12
q-34 10 -74 31q-27 15 -57 24q-37 11 -60 11q-48 0 -86 -21t-55 -57h-94z" />
    <glyph glyph-name="uni1EF9" unicode="&#x1ef9;" horiz-adv-x="1179" 
d="M506 156l495 948h275l-793 -1505h-270l272 520h-219l-143 985h252zM371 1278h-2q27 120 98 188t156 68q39 0 73 -12q31 -11 74 -33q56 -33 111 -33q47 0 88 23q37 21 55 61h86q-30 -123 -98 -188q-69 -66 -156 -66q-73 0 -147 45q-62 33 -111 33q-47 0 -86 -25
q-37 -24 -55 -61h-86z" />
    <glyph glyph-name="uni2009" unicode="&#x2009;" horiz-adv-x="256" 
 />
    <glyph glyph-name="uni2011" unicode="&#x2011;" horiz-adv-x="919" 
d="M774 475h-661l45 213h661z" />
    <glyph glyph-name="endash" unicode="&#x2013;" horiz-adv-x="1150" 
d="M1006 475h-893l45 213h893z" />
    <glyph glyph-name="emdash" unicode="&#x2014;" horiz-adv-x="1753" 
d="M1608 475h-1495l45 213h1495z" />
    <glyph glyph-name="quoteleft" unicode="&#x2018;" horiz-adv-x="532" 
d="M473 1556h176l-186 -278h94l-59 -281h-295l67 314z" />
    <glyph glyph-name="quoteright" unicode="&#x2019;" horiz-adv-x="522" 
d="M285 1278l59 278h295l-68 -313l-200 -244h-176l184 279h-94z" />
    <glyph glyph-name="quotesinglbase" unicode="&#x201a;" horiz-adv-x="583" 
d="M27 0l59 279h295l-68 -314l-200 -244h-176l184 279h-94z" />
    <glyph glyph-name="quotedblleft" unicode="&#x201c;" horiz-adv-x="956" 
d="M455 1556h176l-185 -278h95l-62 -281h-295l68 314zM881 1556h174l-185 -278h95l-60 -281h-295l68 314z" />
    <glyph glyph-name="quotedblright" unicode="&#x201d;" horiz-adv-x="948" 
d="M727 1278l59 278h295l-67 -313l-201 -244h-176l184 279h-94zM303 1278l59 278h295l-67 -313l-201 -244h-176l184 279h-94z" />
    <glyph glyph-name="quotedblbase" unicode="&#x201e;" horiz-adv-x="1007" 
d="M451 0l59 279h295l-68 -314l-200 -244h-177l185 279h-94zM27 0l59 279h295l-68 -314l-200 -244h-176l184 279h-94z" />
    <glyph glyph-name="dagger" unicode="&#x2020;" horiz-adv-x="1241" 
d="M877 1139h374l-45 -207h-375l-198 -932h-260l198 932h-376l45 207h376l89 417h260z" />
    <glyph glyph-name="daggerdbl" unicode="&#x2021;" horiz-adv-x="1241" 
d="M1251 1139l-45 -207h-375l-55 -262h375l-45 -209h-375l-98 -461h-260l98 461h-377l45 209h377l55 262h-376l45 207h376l89 417h260l-88 -417h374z" />
    <glyph glyph-name="bullet" unicode="&#x2022;" horiz-adv-x="919" 
d="M319 334v-2q-65 41 -104 106t-39 146q0 80 39 145q40 67 104 107q61 38 146 38q82 0 145 -38q67 -40 107 -107q39 -65 39 -143q0 -81 -39 -146t-107 -106q-65 -39 -145 -39q-84 0 -146 39z" />
    <glyph glyph-name="ellipsis" unicode="&#x2026;" horiz-adv-x="1748" 
d="M322 0h-295l59 279h295zM905 0h-295l60 279h295zM1489 0h-295l59 279h295z" />
    <glyph glyph-name="perthousand" unicode="&#x2030;" horiz-adv-x="2531" 
d="M879 987l2 -4q-50 -131 -150 -209q-103 -80 -252 -80q-140 0 -219 82q-80 83 -80 240q0 144 49 272q50 130 150 211q101 82 250 82q140 0 219 -82q80 -83 80 -239q0 -145 -49 -273zM317 -6l1205 1556h256l-1205 -1556h-256zM408 883l4 -6q29 -39 90 -39q78 0 129 69
q55 74 78 168q24 99 24 180q0 83 -33 125q-34 43 -92 43q-78 0 -129 -69q-55 -74 -78 -168q-24 -99 -24 -180t31 -123zM2304 807l-2 -6q66 -37 104 -111q37 -73 37 -174q0 -142 -49 -270q-51 -132 -149 -209q-103 -80 -248 -80q-78 0 -139 37q-62 38 -101 100
q-56 -62 -131 -100q-73 -37 -162 -37q-140 0 -219 82q-80 83 -80 240q0 142 49 270q49 129 148 211q98 82 246 82q77 0 141 -37q65 -38 104 -100q59 65 132 102t161 37q91 0 158 -37zM1614 174q54 72 80 168q26 95 26 180t-32 123q-35 41 -93 41q-77 0 -129 -70
q-54 -73 -80 -167q-26 -95 -26 -181q0 -84 33 -123q35 -41 92 -41q77 0 129 70zM2144 174q55 74 78 168q25 103 25 180q0 84 -33 123q-35 41 -92 41q-77 0 -129 -70q-56 -75 -78 -167q-25 -103 -25 -181q0 -84 33 -123q35 -41 92 -41q77 0 129 70z" />
    <glyph glyph-name="minute" unicode="&#x2032;" horiz-adv-x="514" 
d="M395 983h-202l192 573h277z" />
    <glyph glyph-name="second" unicode="&#x2033;" horiz-adv-x="890" 
d="M395 983h-202l192 573h277zM772 983h-203l193 573h276z" />
    <glyph glyph-name="guilsinglleft" unicode="&#x2039;" horiz-adv-x="819" 
d="M520 1014h320l-447 -465l230 -455h-293l-236 471z" />
    <glyph glyph-name="guilsinglright" unicode="&#x203a;" horiz-adv-x="819" 
d="M199 1014h290l236 -471l-426 -449h-319l446 465z" />
    <glyph glyph-name="uni2042" unicode="&#x2042;" horiz-adv-x="1765" 
d="M1296 1311l17 -164l-262 -27l112 -248l-151 -67l-115 254l-207 -185l-112 123l204 183l-229 131l84 141l231 -133l52 246l163 -33l-51 -250zM741 473l17 -164l-262 -26l112 -248l-151 -68l-115 254l-207 -184l-112 123l204 182l-229 131l84 141l231 -133l52 246l163 -33
l-51 -250zM1704 473l16 -164l-262 -26l113 -248l-152 -68l-114 254l-207 -184l-113 123l205 182l-229 131l83 141l232 -133l51 246l164 -33l-51 -250z" />
    <glyph glyph-name="fraction" unicode="&#x2044;" horiz-adv-x="380" 
d="M-219 0h-246l1159 1556h246z" />
    <glyph glyph-name="uni2070" unicode="&#x2070;" horiz-adv-x="765" 
d="M289 1059h2q-76 76 -76 217q0 137 45 250q46 115 139 190q92 74 232 74q86 0 145 -33q62 -35 98 -100q37 -67 37 -162q0 -135 -45 -248q-46 -116 -141 -190t-233 -74q-127 0 -203 76zM627 1190l-2 -6q46 63 67 153q23 97 23 162q0 69 -29 109q-27 37 -80 37
q-63 0 -110 -62t-68 -151q-22 -93 -22 -162q0 -68 28 -107q27 -37 78 -37q69 0 115 64z" />
    <glyph glyph-name="uni2074" unicode="&#x2074;" horiz-adv-x="749" 
d="M776 1341h103l-31 -149h-105l-41 -195h-192l41 195h-385l39 188l305 396h358zM670 1743l-310 -402h224z" />
    <glyph glyph-name="uni2075" unicode="&#x2075;" horiz-adv-x="743" 
d="M874 1626l-372 -4l-62 -205q36 51 86 80q54 31 117 31q59 0 105 -27q45 -26 73 -78q29 -53 29 -118q0 -97 -45 -168q-47 -73 -129 -117q-82 -43 -197 -43q-84 0 -151 31q-65 30 -103 86t-41 129h193q3 -47 37 -74q37 -29 86 -29q43 0 84 23q37 20 57 57q21 38 21 82
q0 50 -31 78q-32 29 -82 29q-51 0 -88 -21q-38 -21 -58 -57l-186 16l135 449h553z" />
    <glyph glyph-name="uni2076" unicode="&#x2076;" horiz-adv-x="755" 
d="M752 1487l-2 4q52 -30 79 -82q29 -56 29 -117q0 -85 -45 -153q-47 -71 -129 -111q-84 -41 -184 -41q-79 0 -146 31q-62 29 -104 96q-39 62 -39 164q0 131 53 252t150 190q101 72 225 72q113 0 184 -59t86 -160h-190q-9 33 -37 55q-30 23 -68 23q-71 0 -131 -72
q-59 -71 -80 -197q35 62 95 99q61 37 131 37q69 0 123 -31zM588 1151l-2 2q36 20 57 55q21 34 21 74q0 44 -31 72t-82 28q-50 0 -86 -20t-57 -55t-21 -68q0 -53 35 -80q37 -29 84 -29q44 0 82 21z" />
    <glyph glyph-name="uni2077" unicode="&#x2077;" horiz-adv-x="608" 
d="M252 1626l33 150h555l-41 -191l-416 -588h-233l464 629h-362z" />
    <glyph glyph-name="uni2078" unicode="&#x2078;" horiz-adv-x="761" 
d="M850 1466h-4q-59 -50 -154 -65q74 -15 121 -62t47 -108q0 -71 -45 -125q-44 -52 -129 -88q-79 -33 -192 -33q-87 0 -160 25q-71 24 -111 73q-39 48 -39 113q0 85 68 141q67 55 176 70q-71 21 -109 59q-36 36 -36 99q0 58 43 110t120 82q79 31 177 31q86 0 153 -25
q65 -24 98 -69q35 -47 35 -105q0 -73 -59 -123zM680 1495h2q37 27 37 74q0 33 -31 55q-30 21 -82 21q-62 0 -102 -29q-37 -27 -37 -72q0 -34 29 -57q27 -21 79 -21q65 0 105 29zM621 1157h-5q48 36 48 84q0 40 -37 64t-88 24q-75 0 -123 -31q-47 -30 -47 -81q0 -46 37 -70
q39 -25 94 -25q74 0 121 35z" />
    <glyph glyph-name="uni2079" unicode="&#x2079;" horiz-adv-x="749" 
d="M750 1757l-5 -6q63 -29 105 -96q39 -62 39 -164q0 -135 -51 -252q-53 -121 -150 -190q-101 -72 -223 -72q-113 0 -184 59t-86 160h190q9 -33 37 -55q27 -21 67 -21q46 0 91 31q42 29 73 92q29 60 45 146q-36 -63 -94 -99q-61 -37 -131 -37q-69 0 -123 31t-80 82t-26 117
q0 82 47 153q47 70 129 111q84 41 184 41q79 0 146 -31zM629 1409l-2 -2q36 20 57 55q21 34 21 68q0 54 -33 80q-36 28 -82 28t-82 -20t-57 -55t-21 -74q0 -44 31 -72t82 -28q50 0 86 20z" />
    <glyph glyph-name="uni207A" unicode="&#x207a;" horiz-adv-x="673" 
d="M600 1446h207l-29 -137h-209l-45 -215h-145l45 215h-207l31 137h207l43 207h145z" />
    <glyph glyph-name="uni207B" unicode="&#x207b;" horiz-adv-x="647" 
d="M733 1309h-500l29 137h500z" />
    <glyph glyph-name="uni207C" unicode="&#x207c;" horiz-adv-x="675" 
d="M786 1421h-530l31 138h530zM739 1196h-530l31 137h528z" />
    <glyph glyph-name="uni207D" unicode="&#x207d;" horiz-adv-x="475" 
d="M309 893h-2q-76 168 -76 336q0 174 72 336q69 156 207 309h199q-140 -158 -213 -313q-74 -157 -74 -330t74 -338h-187z" />
    <glyph glyph-name="uni207E" unicode="&#x207e;" horiz-adv-x="475" 
d="M117 893q140 158 213 313t73 332q0 165 -71 336h186q74 -171 74 -336q0 -176 -72 -338q-71 -160 -203 -307h-200z" />
    <glyph glyph-name="uni2080" unicode="&#x2080;" horiz-adv-x="765" 
d="M29 -172h2q-76 76 -76 217q0 137 45 250q46 115 139 190q92 74 232 74q86 0 145 -33q62 -35 98 -100q37 -67 37 -162q0 -135 -45 -248q-46 -116 -141 -190t-234 -74q-126 0 -202 76zM367 -41l-2 -6q46 63 67 153q23 97 23 162q0 69 -29 109q-27 37 -80 37q-63 0 -110 -62
t-68 -151q-23 -97 -23 -162q0 -67 29 -107q26 -36 78 -36q70 0 115 63z" />
    <glyph glyph-name="uni2081" unicode="&#x2081;" horiz-adv-x="466" 
d="M223 545l152 -2l-166 -779h-191l109 519h-170l33 149h26q75 0 123 23q45 22 74 73z" />
    <glyph glyph-name="uni2082" unicode="&#x2082;" horiz-adv-x="718" 
d="M133 -84l406 -6l-33 -150h-631l39 189l405 260q57 38 78 61q25 28 25 62q0 36 -27 57t-73 21q-48 0 -86 -27q-37 -27 -46 -74h-190q15 74 61 129q47 56 117 86q73 31 154 31q82 0 149 -25q64 -24 99 -71q34 -46 34 -107q0 -58 -24 -104q-25 -48 -62 -78q-49 -40 -92 -66z
" />
    <glyph glyph-name="uni2083" unicode="&#x2083;" horiz-adv-x="720" 
d="M541 231l-9 -2q-68 -48 -167 -63q74 -12 129 -60q53 -47 53 -110q0 -68 -37 -123q-36 -53 -113 -88q-73 -33 -190 -33q-131 0 -215 66q-83 65 -92 178h190q3 -54 37 -78q35 -24 92 -24t98 30q39 29 39 78q0 45 -39 68q-41 24 -104 24h-57l30 148h62q78 0 121 24t43 66
q0 34 -27 55q-30 23 -76 23q-43 0 -82 -25q-36 -23 -45 -63h-190q15 70 61 122t117 82q73 31 154 31q80 0 147 -25q64 -24 102 -71q37 -46 37 -105q0 -77 -69 -125z" />
    <glyph glyph-name="uni2084" unicode="&#x2084;" horiz-adv-x="749" 
d="M516 111h102l-30 -150h-105l-41 -194h-192l41 194h-385l39 189l305 395h358zM410 512l-310 -401h224z" />
    <glyph glyph-name="uni2085" unicode="&#x2085;" horiz-adv-x="743" 
d="M614 395l-372 -4l-62 -205q36 51 86 80q54 31 117 31q58 0 104 -27q47 -27 74 -77q29 -53 29 -119q0 -97 -45 -168q-47 -74 -129 -117t-197 -43q-84 0 -151 31q-65 30 -103 86t-41 129h193q3 -47 37 -74q37 -29 86 -29q43 0 84 23q37 20 57 57q20 36 20 82q0 51 -30 78
q-32 29 -82 29q-51 0 -88 -21q-38 -21 -58 -57l-186 16l135 449h553z" />
    <glyph glyph-name="uni2086" unicode="&#x2086;" horiz-adv-x="755" 
d="M492 256l-3 4q54 -31 80 -82q29 -56 29 -117q0 -85 -45 -153q-47 -70 -129 -111q-84 -41 -184 -41q-79 0 -146 31q-62 29 -104 96q-39 62 -39 164q0 131 53 252t150 190q101 72 225 72q113 0 184 -59t86 -160h-190q-9 33 -37 55q-30 23 -68 23q-71 0 -131 -72
q-59 -71 -80 -196q34 61 95 98t131 37q69 0 123 -31zM328 -80l-2 2q36 20 57 55q20 33 20 74q0 45 -30 72q-32 29 -82 29q-49 0 -86 -21t-58 -55q-20 -33 -20 -68q0 -53 35 -80q36 -28 84 -28q46 0 82 20z" />
    <glyph glyph-name="uni2087" unicode="&#x2087;" horiz-adv-x="608" 
d="M-8 395l33 150h555l-41 -191l-416 -587h-234l465 628h-362z" />
    <glyph glyph-name="uni2088" unicode="&#x2088;" horiz-adv-x="761" 
d="M590 236h-4q-60 -51 -154 -66q75 -15 121 -61q47 -47 47 -109q0 -71 -45 -125q-44 -52 -129 -88q-79 -33 -193 -33q-86 0 -159 25q-70 24 -111 74q-39 48 -39 112q0 85 68 141q67 55 176 70q-70 21 -109 60q-36 36 -36 98q0 58 43 110t120 82q79 31 176 31q87 0 154 -25
q65 -24 98 -69q35 -47 35 -105q0 -72 -59 -122zM420 264h2q37 27 37 74q0 33 -31 55q-30 21 -82 21q-62 0 -102 -29q-37 -27 -37 -72q0 -34 29 -57q26 -20 79 -20q66 0 105 28zM360 -74h-4q47 35 47 84q0 41 -36 64q-37 24 -88 24q-77 0 -123 -30q-47 -30 -47 -82
q0 -47 36 -70q39 -25 95 -25q73 0 120 35z" />
    <glyph glyph-name="uni2089" unicode="&#x2089;" horiz-adv-x="749" 
d="M489 526l-4 -6q63 -29 105 -96q39 -62 39 -164q0 -135 -51 -252q-53 -121 -150 -190q-101 -72 -223 -72q-114 0 -185 59t-86 160h191q9 -33 37 -55q27 -21 67 -21q45 0 90 31q44 30 74 92q29 60 45 146q-36 -63 -94 -99q-59 -36 -131 -36q-71 0 -123 30q-54 31 -80 82
t-26 117q0 83 47 154q46 69 129 110q84 41 184 41q78 0 145 -31zM369 178l-2 -2q36 20 57 55q20 33 20 68q0 55 -32 80q-37 29 -82 29q-44 0 -82 -21q-37 -21 -58 -55q-20 -33 -20 -74q0 -44 31 -72t82 -28q50 0 86 20z" />
    <glyph glyph-name="uni208A" unicode="&#x208a;" horiz-adv-x="673" 
d="M338 215h207l-29 -137h-209l-45 -215h-145l45 215h-207l31 137h207l43 207h145z" />
    <glyph glyph-name="uni208B" unicode="&#x208b;" horiz-adv-x="647" 
d="M471 78h-500l29 137h500z" />
    <glyph glyph-name="uni208C" unicode="&#x208c;" horiz-adv-x="675" 
d="M524 190h-530l31 138h530zM477 -35h-530l30 137h529z" />
    <glyph glyph-name="uni208D" unicode="&#x208d;" horiz-adv-x="475" 
d="M47 -338h-2q-76 168 -76 336q0 174 72 336q69 156 207 309h198q-140 -158 -213 -313t-73 -330q0 -176 73 -338h-186z" />
    <glyph glyph-name="uni208E" unicode="&#x208e;" horiz-adv-x="475" 
d="M-143 -338q140 158 213 313t73 332q0 165 -71 336h186q74 -171 74 -336q0 -176 -72 -338q-71 -160 -203 -307h-200z" />
    <glyph glyph-name="uni20A9" unicode="&#x20a9;" horiz-adv-x="2050" 
d="M2071 1065l-46 -199h-221l-61 -188h199l-44 -197h-219l-153 -481h-447l160 1546l-498 -1546h-448l49 481h-227l43 197h204l21 188h-231l43 199h208l52 491h231l-162 -1527l498 1527h432l-154 -1538l492 1538h233l-157 -491h203z" />
    <glyph glyph-name="Euro" unicode="&#x20ac;" horiz-adv-x="1681" 
d="M1110 242h-10q101 67 178 194h268q-114 -215 -293 -338t-389 -123q-160 0 -276 70q-117 71 -182 197q-65 127 -74 290h-258l104 183h162q8 54 25 129h-197l100 182h158q71 164 184 289t258 196q147 72 306 72q150 0 258 -57q110 -58 174 -162q65 -106 86 -242h-271
q-9 127 -80 195q-70 67 -190 67q-132 0 -248 -98q-120 -101 -194 -260h618l-102 -182h-586q-17 -66 -25 -129h539l-102 -183h-449q9 -167 84 -264q73 -94 209 -94q112 0 215 68z" />
    <glyph glyph-name="uni20B8" unicode="&#x20b8;" horiz-adv-x="1314" 
d="M238 1358l43 198h1175l-43 -198h-1175zM621 1024h-455l43 199h1175l-43 -199h-454l-219 -1024h-265z" />
    <glyph glyph-name="uni20B9" unicode="&#x20b9;" horiz-adv-x="1406" 
d="M1503 1358l-334 -2q46 -72 52 -158h249l-40 -199h-236q-41 -110 -131 -188q-92 -80 -223 -123q-130 -43 -291 -43h-109l650 -645h-363l-586 588l58 268h393q123 0 203 41t120 104h-688l43 199h672q-21 64 -86 105t-160 41h-395l2 12l41 198h1202z" />
    <glyph glyph-name="uni20BA" unicode="&#x20ba;" horiz-adv-x="1427" 
d="M1364 649l-2 -2q-67 -340 -264 -493q-198 -154 -527 -154h-393l115 543l-182 -51l41 200l184 53l31 148l-185 -53l43 200l185 54l98 462h264l-82 -382l449 126l-43 -200l-447 -127l-33 -148l449 127l-43 -200l-447 -127l-88 -414h101q214 0 338 106q124 107 174 332h264z
" />
    <glyph glyph-name="uni20BD" unicode="&#x20bd;" horiz-adv-x="1519" 
d="M592 637l-27 -137h391l-43 -199h-391l-63 -303h-266l65 303h-188l41 199h188l29 135h-187l41 199h189l153 720h471q168 0 287 -45q124 -47 191 -135t67 -219q0 -255 -178 -387q-177 -131 -526 -131h-244zM745 1343l-108 -509h215q208 0 317 71t109 219q0 113 -80 166
t-235 53h-218z" />
    <glyph glyph-name="uni20BF" unicode="&#x20bf;" horiz-adv-x="1445" 
d="M1130 750l7 -5q86 -42 133 -112q49 -73 49 -178t-49 -193q-50 -90 -150 -153q-106 -67 -254 -93l-61 -288h-225l57 268h-10h-115l-57 -268h-226l58 268h-209l332 1556h206l56 258h225l-53 -258h86h37l55 258h225l-63 -303q110 -47 164 -131q55 -85 55 -192
q0 -122 -68 -205q-67 -81 -172 -125q-104 -43 -217 -55q103 -9 184 -49zM1114 1245l-6 -2q-31 48 -86 72q-56 24 -129 24h-262l-96 -450h256q122 0 200 37q81 38 117 94q37 58 37 123q0 54 -31 102zM653 201q144 0 234 41t127 102t37 129q0 60 -31 111q-31 52 -94 78
q-67 28 -154 28h-283l-102 -489h266z" />
    <glyph glyph-name="uni2113" unicode="&#x2113;" horiz-adv-x="1101" 
d="M535 532l-50 -235q-6 -27 -6 -49q0 -44 29 -70q27 -24 86 -24q121 0 254 86l-39 -181q-77 -47 -152 -65q-78 -19 -153 -19q-141 0 -215 62t-74 172q0 57 14 106l11 47l-134 -75l-71 166l254 147l119 555q25 126 88 219q68 100 161 152q98 55 226 55q156 0 237 -72
q80 -71 80 -196q0 -388 -559 -719zM786 1366l-4 -4q-37 -28 -73 -88q-35 -60 -50 -135l-77 -367q194 135 282 270q90 137 90 256q0 49 -22 74t-66 25q-38 0 -80 -31z" />
    <glyph glyph-name="uni2116" unicode="&#x2116;" horiz-adv-x="2621" 
d="M2535 1542l-2 -6q78 -38 117 -106q41 -71 41 -162q0 -132 -61 -242t-168 -174t-246 -64q-103 0 -178 37q-76 37 -117 109q-41 71 -41 162q0 129 62 241t169 176q111 66 246 66q103 0 178 -37zM924 1548l297 -1532l323 1532h268l-329 -1556h-516l-297 1526l-324 -1526
h-268l330 1556h516zM2359 985v-6q53 50 80 127q29 82 29 158q0 69 -37 112t-100 43q-71 0 -123 -49q-54 -51 -80 -125q-27 -76 -27 -155q0 -68 37 -111t98 -43q71 0 123 49z" />
    <glyph glyph-name="uni2117" unicode="&#x2117;" horiz-adv-x="1945" 
d="M1442 1505l-4 -8q193 -114 307 -307q115 -195 115 -420q0 -228 -113 -420q-114 -193 -307 -307q-192 -113 -424 -113q-229 0 -424 115q-193 114 -307 307q-113 192 -113 422q0 227 115 422q114 193 307 307q195 115 424 115q232 0 424 -113zM1352 188h-2q153 89 243 244
q90 156 90 336q0 184 -88 336q-90 155 -243 244q-156 90 -336 90t-336 -90q-155 -89 -244 -244q-90 -156 -90 -336t90 -336q89 -155 244 -244q156 -90 336 -90t336 90zM1067 1235l-2 2q125 0 207 -39q87 -41 133 -111q47 -71 47 -159q0 -91 -47 -162q-46 -70 -133 -111
q-82 -39 -205 -39h-172v-321h-199v940h371zM1055 782v2q94 0 143 37t49 109q0 69 -49 106t-143 37h-162v-291h162z" />
    <glyph glyph-name="uni2120" unicode="&#x2120;" horiz-adv-x="1853" 
d="M668 1255l6 -2q107 -24 157 -77t50 -142q0 -76 -39 -127q-41 -53 -111 -80q-68 -26 -166 -26q-89 0 -159 30q-67 29 -113 87q-42 53 -51 126h176q9 -58 49 -88t104 -30q67 0 103 26q37 27 37 68q0 40 -35 61q-37 22 -103 37l-106 23q-104 21 -160 71q-55 49 -55 136
q0 65 37 114q40 52 104 78q73 29 152 29q140 0 219 -58q81 -60 96 -153h-176q-16 45 -51 65q-41 23 -90 23t-88 -25q-37 -24 -37 -61q0 -32 31 -47q37 -18 110 -35zM1819 1554v-749h-162v717l-137 -717h-277l-135 706v-706h-162v749h305l129 -700l129 700h310z" />
    <glyph glyph-name="trademark" unicode="&#x2122;" horiz-adv-x="1884" 
d="M498 1417h-234v139h637v-139h-233v-610h-170v610zM1819 1556v-749h-162v706l-135 -706h-277l-135 706v-706h-162v749h305l129 -700l129 700h308z" />
    <glyph glyph-name="uni2150" unicode="&#x2150;" horiz-adv-x="1603" 
d="M997 629l33 149h555l-41 -190l-416 -588h-233l465 629h-363zM485 1556l152 -2l-166 -778h-190l108 518h-170l33 150h27q76 0 122 22q44 21 74 74zM307 -2h-246l1160 1556h245z" />
    <glyph glyph-name="uni2151" unicode="&#x2151;" horiz-adv-x="1652" 
d="M1423 760l-4 -6q62 -29 105 -97q39 -62 39 -163q0 -133 -52 -252q-54 -123 -149 -191q-100 -71 -223 -71q-114 0 -185 59t-86 160h191q9 -34 37 -56q26 -20 67 -20q45 0 90 31q44 30 74 92q30 61 45 145q-35 -62 -94 -98q-61 -37 -131 -37q-69 0 -123 31t-80 82t-26 116
q0 83 47 154t129 111q84 41 184 41q78 0 145 -31zM1303 412l-3 -2q37 21 58 55q20 33 20 67q0 55 -32 80q-37 29 -82 29q-46 0 -82 -20t-58 -56q-20 -33 -20 -73q0 -44 31 -72q32 -29 82 -29q49 0 86 21zM479 1546l152 -2l-166 -778h-191l109 518h-170l33 150h26
q77 0 123 22q44 21 74 74zM301 -12h-246l1159 1556h246z" />
    <glyph glyph-name="uni2152" unicode="&#x2152;" horiz-adv-x="2146" 
d="M1212 778l152 -2l-166 -778h-190l108 518h-170l33 150h27q76 0 122 22q44 21 74 74zM1440 59h2q-76 76 -76 217q0 137 45 250q46 117 139 191q92 74 232 74q86 0 145 -33q61 -34 98 -101t37 -161q0 -135 -45 -248q-47 -118 -141 -191t-234 -73q-127 0 -202 75zM1778 190
l-2 -6q45 63 67 154q23 97 23 162q0 68 -29 108q-27 37 -80 37q-64 0 -110 -61q-47 -62 -68 -152q-23 -97 -23 -162q0 -66 29 -106q27 -37 78 -37q70 0 115 63zM489 1548l152 -2l-166 -778h-190l108 518h-170l33 150h27q77 0 123 22q42 20 73 74zM311 -10h-245l1159 1556
h245z" />
    <glyph glyph-name="uni2153" unicode="&#x2153;" horiz-adv-x="1622" 
d="M485 1556l152 -2l-166 -778h-190l108 518h-170l33 150h27q76 0 122 22q44 21 74 74zM307 -2h-246l1160 1556h245zM1466 463l-8 -2q-70 -49 -168 -64q76 -12 129 -59q54 -48 54 -111q0 -68 -37 -123q-36 -53 -113 -88q-71 -32 -190 -32q-132 0 -215 65q-84 66 -93 178h191
q3 -53 37 -77q36 -25 92 -25t98 31q39 29 39 77q0 45 -39 68q-42 25 -104 25h-58l31 147h62q75 0 120 25q43 24 43 65q0 35 -26 55q-30 23 -76 23q-43 0 -82 -25q-36 -23 -45 -63h-190q15 71 61 123t117 82q70 30 153 30q84 0 148 -24q63 -23 102 -72q37 -46 37 -104
q0 -76 -70 -125z" />
    <glyph glyph-name="uni2154" unicode="&#x2154;" horiz-adv-x="1869" 
d="M377 928l405 -6l-32 -150h-631l39 189l405 260q57 38 78 61q25 28 25 61q0 37 -27 58q-26 20 -74 20q-50 0 -86 -26t-45 -74h-190q15 74 61 129q47 56 117 86q73 31 153 31q83 0 150 -25q62 -23 98 -72q35 -47 35 -106q0 -58 -24 -104q-25 -48 -62 -78q-49 -40 -92 -66z
M551 -6h-246l1159 1556h246zM1710 459l-8 -2q-70 -49 -168 -64q76 -12 129 -59t53 -111q0 -68 -37 -123q-36 -54 -112 -88q-71 -32 -191 -32q-132 0 -215 65t-92 178h191q3 -55 36 -78q34 -24 93 -24q56 0 98 31q39 29 39 77q0 45 -39 68q-42 25 -105 25h-57l31 147h61
q76 0 121 25q43 24 43 65q0 34 -27 55q-30 23 -75 23q-43 0 -82 -25q-36 -23 -45 -63h-191q15 70 62 123q46 52 116 82q71 30 154 30t147 -24t103 -72q37 -46 37 -104q0 -76 -70 -125z" />
    <glyph glyph-name="uni2155" unicode="&#x2155;" horiz-adv-x="1677" 
d="M1571 629l-373 -4l-61 -205q36 51 86 80q53 30 116 30q60 0 105 -26q46 -27 74 -78t28 -119q0 -97 -45 -168q-46 -72 -129 -116q-82 -43 -196 -43q-88 0 -152 30t-102 86t-41 129h192q3 -46 37 -73q37 -29 86 -29q45 0 84 22q36 20 57 58t21 82q0 49 -31 77
q-32 29 -82 29q-52 0 -88 -20t-57 -58l-187 17l136 448h553zM483 1552l152 -2l-166 -778h-190l108 518h-170l33 150h26q77 0 123 22q44 21 74 74zM305 -6h-246l1160 1556h245z" />
    <glyph glyph-name="uni2156" unicode="&#x2156;" horiz-adv-x="1925" 
d="M377 928l405 -6l-32 -150h-631l39 189l405 260q57 38 78 61q25 28 25 61q0 37 -27 58q-26 20 -74 20q-50 0 -86 -26t-45 -74h-190q15 74 61 129q47 56 117 86q73 31 153 31q83 0 150 -25q62 -23 98 -72q35 -47 35 -106q0 -58 -24 -104q-25 -48 -62 -78q-49 -40 -92 -66z
M551 -6h-246l1159 1556h246zM1815 623l-373 -5l-62 -204q36 51 86 80q52 30 117 30q60 0 105 -26t73 -78q29 -53 29 -119q0 -97 -45 -168q-47 -73 -129 -117q-82 -43 -197 -43q-84 0 -151 31q-65 30 -103 86t-41 129h193q3 -47 37 -74q36 -28 86 -28q45 0 84 22q36 20 57 58
q21 37 21 82q0 49 -31 77q-32 29 -82 29q-52 0 -88 -20q-37 -21 -58 -58l-186 17l135 448h553z" />
    <glyph glyph-name="uni2157" unicode="&#x2157;" horiz-adv-x="1892" 
d="M786 1243l-8 -2q-68 -48 -168 -63q74 -12 129 -60q54 -48 54 -110q0 -68 -37 -123q-36 -53 -113 -88q-73 -33 -190 -33q-132 0 -215 65q-84 66 -93 179h191q3 -54 37 -78q36 -25 92 -25t98 31q39 29 39 78q0 44 -39 67q-42 25 -104 25h-58l31 147h62q75 0 120 25
q43 24 43 65q0 36 -26 56q-28 22 -76 22q-44 0 -82 -24q-36 -23 -45 -64h-190q15 71 61 123t117 82q73 31 153 31q81 0 148 -25q64 -24 102 -71q37 -46 37 -105q0 -76 -70 -125zM510 -4h-246l1159 1556h246zM1776 625l-373 -4l-62 -205q36 51 86 80q53 30 117 30
q60 0 105 -26t73 -78q29 -53 29 -119q0 -97 -45 -168q-46 -73 -129 -117q-82 -43 -197 -43q-84 0 -151 31q-65 30 -103 86t-41 129h193q3 -47 37 -74q36 -28 86 -28q45 0 84 22q36 20 57 58t21 82q0 49 -31 77q-32 29 -82 29q-52 0 -88 -20t-57 -58l-187 17l135 448h553z
" />
    <glyph glyph-name="uni2158" unicode="&#x2158;" horiz-adv-x="1916" 
d="M762 1122h102l-30 -149h-105l-41 -195h-192l41 195h-385l38 188l306 395h358zM655 1524l-309 -402h223zM543 0h-246l1159 1556h246zM1808 629l-372 -4l-62 -205q36 51 86 80q52 30 117 30q59 0 104 -26q46 -27 74 -78q29 -53 29 -119q0 -97 -45 -168q-46 -72 -129 -116
q-82 -43 -197 -43q-87 0 -151 30q-65 30 -103 86t-41 129h193q3 -46 37 -73q37 -29 86 -29q45 0 84 22q36 20 57 58q20 36 20 82q0 50 -30 77q-32 29 -82 29q-52 0 -88 -20q-37 -21 -58 -58l-186 17l135 448h553z" />
    <glyph glyph-name="uni2159" unicode="&#x2159;" horiz-adv-x="1650" 
d="M1415 489l-2 5q54 -31 80 -82q29 -56 29 -117q0 -86 -45 -154q-46 -69 -129 -110q-84 -41 -185 -41q-81 0 -145 30q-62 29 -105 97q-39 62 -39 164q0 128 54 251t149 191q101 72 226 72q112 0 184 -60q71 -59 86 -160h-191q-9 35 -36 56q-28 22 -68 22q-72 0 -131 -71
t-80 -197q35 62 94 98q61 37 131 37q69 0 123 -31zM1251 154l-2 2q37 21 58 55q20 33 20 74q0 43 -31 71q-32 29 -82 29t-86 -20q-35 -19 -57 -56q-20 -33 -20 -67q0 -53 34 -80q37 -29 84 -29q45 0 82 21zM479 1563l152 -2l-166 -779h-191l109 518h-170l33 150h26
q75 0 123 23q45 22 74 73zM301 4h-246l1159 1557h246z" />
    <glyph glyph-name="uni215A" unicode="&#x215a;" horiz-adv-x="1857" 
d="M848 1407l-373 -4l-61 -205q36 51 86 80q54 31 116 31q58 0 105 -27q46 -27 74 -78t28 -119q0 -96 -45 -167q-46 -74 -129 -117q-82 -43 -196 -43q-87 0 -152 30q-64 30 -102 86t-41 130h192q3 -47 37 -74q37 -29 86 -29q43 0 84 23q37 20 57 57q21 37 21 82q0 50 -31 78
t-82 28q-52 0 -88 -20q-37 -20 -57 -57l-187 16l136 448h553zM512 -4h-246l1159 1556h246zM1622 485l-2 4q54 -31 80 -81q29 -56 29 -117q0 -84 -46 -154q-46 -69 -129 -110q-84 -41 -184 -41q-80 0 -145 30q-62 29 -105 97q-39 62 -39 163q0 129 54 252t149 191
q101 72 225 72q113 0 185 -60q71 -59 86 -160h-191q-9 34 -37 56t-67 22q-72 0 -131 -71t-80 -197q35 62 94 98q61 37 131 37q69 0 123 -31zM1458 150l-2 2q36 20 57 55q21 34 21 74q0 43 -31 71q-32 29 -82 29q-49 0 -86 -21q-36 -20 -57 -55t-21 -67q0 -53 35 -80
q37 -29 84 -29q44 0 82 21z" />
    <glyph glyph-name="oneeighth" unicode="&#x215b;" horiz-adv-x="1660" 
d="M1516 469h-5q-61 -51 -153 -66q75 -15 121 -61q47 -47 47 -109q0 -70 -45 -124t-129 -89q-77 -32 -193 -32q-89 0 -160 24q-69 23 -110 74q-39 48 -39 113q0 85 68 141q67 55 176 70q-71 21 -109 59q-37 37 -37 98q0 59 43 111q42 51 121 82t176 31q87 0 154 -25
q64 -24 98 -70q35 -47 35 -104q0 -73 -59 -123zM1346 498h2q36 26 36 73q0 35 -30 56q-29 20 -82 20q-63 0 -103 -29q-36 -26 -36 -71q0 -36 28 -58q26 -20 80 -20q65 0 105 29zM1286 160h-4q47 35 47 84q0 39 -37 63q-39 25 -88 25q-75 0 -123 -31q-47 -30 -47 -82
q0 -45 37 -69q39 -25 94 -25q74 0 121 35zM477 1552l152 -2l-166 -778h-191l109 518h-170l33 150h26q77 0 123 22q44 21 74 74zM299 -6h-246l1159 1556h246z" />
    <glyph glyph-name="threeeighths" unicode="&#x215c;" horiz-adv-x="1875" 
d="M786 1243l-8 -2q-68 -48 -168 -63q74 -12 129 -60q54 -48 54 -110q0 -68 -37 -123q-36 -53 -113 -88q-73 -33 -190 -33q-132 0 -215 65q-84 66 -93 179h191q3 -54 37 -78q36 -25 92 -25t98 31q39 29 39 78q0 44 -39 67q-42 25 -104 25h-58l31 147h62q75 0 120 25
q43 24 43 65q0 36 -26 56q-28 22 -76 22q-44 0 -82 -24q-36 -23 -45 -64h-190q15 71 61 123t117 82q73 31 153 31q81 0 148 -25q64 -24 102 -71q37 -46 37 -105q0 -76 -70 -125zM510 -4h-246l1159 1556h246zM1720 465h-4q-61 -51 -153 -66q74 -15 120 -61q48 -48 48 -109
q0 -71 -45 -125q-43 -52 -130 -88q-77 -32 -192 -32q-90 0 -160 24q-69 23 -110 74q-39 48 -39 113q0 86 67 141t176 70q-70 21 -108 59q-37 37 -37 98q0 59 43 111q42 51 121 82q77 30 176 30q90 0 154 -24t98 -70q35 -47 35 -104q0 -72 -60 -123zM1550 494h2q37 27 37 73
q0 35 -30 56q-29 20 -82 20q-63 0 -103 -29q-37 -27 -37 -71q0 -35 29 -58q26 -20 80 -20q64 0 104 29zM1491 156h-4q47 35 47 84q0 39 -37 63q-39 25 -88 25q-75 0 -123 -31q-47 -30 -47 -82q0 -46 37 -70q38 -24 94 -24q74 0 121 35z" />
    <glyph glyph-name="fiveeighths" unicode="&#x215d;" horiz-adv-x="1867" 
d="M848 1407l-373 -4l-61 -205q36 51 86 80q54 31 116 31q58 0 105 -27q46 -27 74 -78t28 -119q0 -96 -45 -167q-46 -74 -129 -117q-82 -43 -196 -43q-87 0 -152 30q-64 30 -102 86t-41 130h192q3 -47 37 -74q37 -29 86 -29q43 0 84 23q37 20 57 57q21 37 21 82q0 50 -31 78
t-82 28q-52 0 -88 -20q-37 -20 -57 -57l-187 16l136 448h553zM512 -4h-246l1159 1556h246zM1720 465h-4q-61 -51 -153 -66q74 -15 120 -61q48 -48 48 -109q0 -71 -45 -125q-43 -52 -130 -88q-77 -32 -192 -32q-90 0 -160 24q-69 23 -110 74q-39 48 -39 113q0 86 67 141
t176 70q-70 21 -108 59q-37 37 -37 98q0 59 43 111q42 51 121 82q77 30 176 30q90 0 154 -24t98 -70q35 -47 35 -104q0 -72 -60 -123zM1550 494h2q37 27 37 73q0 35 -30 56q-29 20 -82 20q-63 0 -103 -29q-37 -27 -37 -71q0 -35 29 -58q26 -20 80 -20q64 0 104 29zM1491 156
h-4q47 35 47 84q0 39 -37 63q-39 25 -88 25q-75 0 -123 -31q-47 -30 -47 -82q0 -46 37 -70q38 -24 94 -24q74 0 121 35z" />
    <glyph glyph-name="seveneighths" unicode="&#x215e;" horiz-adv-x="1724" 
d="M252 1407l33 149h555l-41 -190l-416 -588h-233l464 629h-362zM369 0h-246l1159 1556h246zM1579 469h-4q-60 -51 -154 -66q75 -15 121 -61q47 -47 47 -109q0 -70 -45 -124t-129 -89q-77 -32 -192 -32q-89 0 -160 24q-70 24 -111 74q-39 48 -39 113q0 85 68 141
q67 55 176 70q-70 21 -108 59q-37 37 -37 98q0 59 43 111q42 51 121 82t176 31q86 0 153 -25q65 -24 99 -70t34 -104q0 -73 -59 -123zM1409 498h2q37 27 37 73q0 34 -31 56q-29 20 -82 20q-62 0 -102 -29q-37 -27 -37 -71q0 -35 29 -58q26 -20 80 -20q64 0 104 29zM1350 160
h-4q47 35 47 84q0 39 -37 63q-39 25 -88 25q-75 0 -123 -31q-47 -30 -47 -82q0 -45 37 -69q39 -25 94 -25q74 0 121 35z" />
    <glyph glyph-name="uni215F" unicode="&#x215f;" horiz-adv-x="1341" 
d="M520 1556l152 -2l-166 -778h-191l109 518h-170l33 150h26q77 0 123 22q44 21 74 74zM342 -2h-246l1159 1556h246z" />
    <glyph glyph-name="uni2189" unicode="&#x2189;" horiz-adv-x="1822" 
d="M262 840h2q-76 76 -76 217q0 137 45 250q45 114 140 190q92 74 231 74q87 0 146 -33q62 -35 98 -100q37 -67 37 -162q0 -135 -45 -248q-46 -115 -142 -190q-95 -74 -233 -74q-127 0 -203 76zM600 971l-2 -6q47 66 68 153q22 93 22 162t-29 109q-26 36 -79 36
q-65 0 -111 -61q-47 -62 -68 -152q-22 -93 -22 -161q0 -67 29 -107q27 -37 77 -37q69 0 115 64zM508 -6h-246l1159 1556h246zM1667 459l-8 -2q-70 -49 -168 -64q76 -12 129 -59t53 -111q0 -68 -37 -123q-36 -54 -112 -88q-71 -32 -191 -32q-132 0 -215 65t-92 178h191
q3 -55 36 -78q35 -24 93 -24q56 0 98 31q39 29 39 77q0 45 -39 68q-42 25 -105 25h-57l31 147h61q76 0 121 25q43 24 43 65q0 34 -27 55q-30 23 -75 23q-43 0 -82 -25q-36 -23 -45 -63h-191q15 70 62 123q46 52 116 82t154 30q82 0 147 -24q64 -24 103 -72q37 -46 37 -104
q0 -76 -70 -125z" />
    <glyph glyph-name="arrowleft" unicode="&#x2190;" horiz-adv-x="1576" 
d="M537 893h1007v-229h-1007l436 -459h-301l-496 573l496 574h301z" />
    <glyph glyph-name="arrowup" unicode="&#x2191;" horiz-adv-x="1576" 
d="M838 1462l571 -493v-303l-457 438v-1010h-229v1010l-459 -438v303z" />
    <glyph glyph-name="arrowright" unicode="&#x2192;" horiz-adv-x="1576" 
d="M700 1352h304l493 -574l-493 -573h-304l437 459h-1006v229h1006z" />
    <glyph glyph-name="arrowdown" unicode="&#x2193;" horiz-adv-x="1576" 
d="M952 1462v-1009l457 438v-303l-571 -494l-574 494v303l459 -438v1009h229z" />
    <glyph glyph-name="uni2196" unicode="&#x2196;" horiz-adv-x="1576" 
d="M692 1094l762 -764l-160 -160l-762 762v-656l-213 207v822h824l205 -211h-656z" />
    <glyph glyph-name="uni2197" unicode="&#x2197;" horiz-adv-x="1576" 
d="M307 1094l207 211h821v-822l-211 -207v656l-762 -762l-159 160l762 764h-658z" />
    <glyph glyph-name="uni2198" unicode="&#x2198;" horiz-adv-x="1576" 
d="M1141 627v653l213 -207v-821h-824l-204 211h657l-764 764l160 159z" />
    <glyph glyph-name="uni2199" unicode="&#x2199;" horiz-adv-x="1576" 
d="M1313 1386l160 -159l-764 -764h657l-205 -211h-823v821l213 207v-655z" />
    <glyph glyph-name="uni21A4" unicode="&#x21a4;" horiz-adv-x="1576" 
d="M1243 893v459h230v-1147h-230v457h-792l434 -457h-303l-494 573l494 574h303l-436 -459h794z" />
    <glyph glyph-name="uni21A5" unicode="&#x21a5;" horiz-adv-x="1576" 
d="M1423 1065v-301l-456 434v-842h456v-229h-1147v229h459v844l-459 -436v301l574 496z" />
    <glyph glyph-name="uni21A6" unicode="&#x21a6;" horiz-adv-x="1576" 
d="M791 1352h301l495 -574l-495 -573h-301l434 457h-795v-457h-229v1147h229v-459h797z" />
    <glyph glyph-name="uni21A7" unicode="&#x21a7;" horiz-adv-x="1576" 
d="M1397 1430v-230h-457v-842l457 435v-301l-574 -496l-573 496v301l459 -437v844h-459v230h1147z" />
    <glyph glyph-name="uni21B0" unicode="&#x21b0;" horiz-adv-x="1576" 
d="M416 893h1016v-893h-228v662h-786l434 -457h-303l-494 573l494 574h303z" />
    <glyph glyph-name="uni21B1" unicode="&#x21b1;" horiz-adv-x="1576" 
d="M778 1352h303l494 -574l-494 -573h-303l434 457h-786v-662h-227v893h1015z" />
    <glyph glyph-name="uni21B2" unicode="&#x21b2;" horiz-adv-x="1576" 
d="M1249 895v661h226v-892h-1016l436 -459h-301l-496 573l496 574h301l-434 -457h788z" />
    <glyph glyph-name="uni21B3" unicode="&#x21b3;" horiz-adv-x="1576" 
d="M821 1352h303l494 -574l-494 -573h-303l436 459h-1015v892h227v-661h786z" />
    <glyph glyph-name="partialdiff" unicode="&#x2202;" horiz-adv-x="1290" 
d="M307 1575l-8 2q309 -35 506 -156q203 -125 293 -315q92 -195 92 -442q0 -336 -141 -512q-141 -175 -426 -175q-147 0 -271 62q-123 61 -196 178q-74 118 -74 277t68 274q68 114 180 172q111 57 252 57q156 0 256 -75q101 -76 151 -185q-3 169 -78 310q-74 138 -227 227
q-154 89 -377 110v191zM778 201l-2 4q65 44 103 121q36 73 36 178q0 104 -36 172q-38 71 -101 108q-64 37 -149 37q-90 0 -152 -39q-66 -41 -102 -112q-37 -73 -37 -172q0 -104 37 -179t104 -118t152 -43q83 0 147 43z" />
    <glyph glyph-name="product" unicode="&#x220f;" horiz-adv-x="2048" 
d="M2054 1556v-227h-291v-1605h-264v1605h-690v-1605h-264v1605h-291v227h1800z" />
    <glyph glyph-name="summation" unicode="&#x2211;" horiz-adv-x="1724" 
d="M1243 662l-678 -711h942v-227h-1245v296l612 639l-612 601v296h1229v-227h-926z" />
    <glyph glyph-name="minus" unicode="&#x2212;" horiz-adv-x="1196" 
d="M1094 459h-990v194h990v-194z" />
    <glyph glyph-name="radical" unicode="&#x221a;" horiz-adv-x="1316" 
d="M678 -92l467 1648h266l-518 -1832h-422l-221 686h-248v225h447z" />
    <glyph glyph-name="infinity" unicode="&#x221e;" horiz-adv-x="2334" 
d="M1958 1008h-6q117 -67 184 -187q68 -121 68 -264t-68 -264q-67 -120 -184 -187q-116 -67 -260 -67q-304 0 -529 328q-108 -154 -233 -240q-128 -88 -295 -88q-144 0 -260 67q-118 68 -185 187t-67 264t67 264t185 187q116 67 262 67q167 0 297 -92q128 -91 231 -242
q102 150 232 242t299 92q146 0 262 -67zM825 313v-2q83 69 162 183l43 61l-43 63q-76 110 -162 181q-84 69 -186 69q-83 0 -150 -37q-66 -37 -104 -108q-37 -70 -37 -166t37 -166t104 -110q65 -39 150 -39q100 0 186 71zM1827 279l2 -3q64 39 106 111q39 68 39 166t-39 166
q-41 72 -106 108q-67 37 -150 37q-102 0 -186 -69q-86 -71 -162 -181l-43 -63l41 -62q74 -108 162 -180q84 -69 186 -69q85 0 150 39z" />
    <glyph glyph-name="integral" unicode="&#x222b;" horiz-adv-x="722" 
d="M-59 -401v186h114q98 0 142 47q43 46 43 158v1194q0 194 102 282q101 88 301 88h145v-190h-114q-95 0 -137 -45q-43 -46 -43 -156v-1194q0 -193 -105 -282q-104 -88 -303 -88h-145z" />
    <glyph glyph-name="approxequal" unicode="&#x2248;" horiz-adv-x="1435" 
d="M129 737l2 -4q72 97 160 154q85 55 182 55q56 0 109 -12q49 -11 141 -47q73 -33 129 -49q52 -15 104 -15q71 0 121 33q55 36 111 98l125 -125q-67 -94 -158 -153q-86 -56 -180 -56q-54 0 -111 13q-55 13 -141 49q-95 37 -131 47q-59 16 -107 16q-71 0 -120 -32
q-53 -35 -111 -99zM131 293l2 -4q70 95 160 153q86 56 182 56q52 0 109 -13q49 -11 141 -47q73 -33 129 -49q49 -14 104 -14q71 0 121 33q55 36 111 98l125 -125q-68 -96 -158 -154q-85 -55 -180 -55q-59 0 -111 12q-55 13 -141 49q-103 41 -131 48q-59 16 -107 16
q-70 0 -120 -33q-55 -36 -111 -98z" />
    <glyph glyph-name="notequal" unicode="&#x2260;" horiz-adv-x="1390" 
d="M1217 874v-196h-326l-137 -238h463v-194h-576l-141 -246h-244l141 246h-221v194h334l137 238h-471v196h584l133 230h244l-133 -230h213z" />
    <glyph glyph-name="lessequal" unicode="&#x2264;" horiz-adv-x="1310" 
d="M156 848l972 256v-195l-837 -213l837 -215v-192l-972 258v301zM1128 0h-972v193h972v-193z" />
    <glyph glyph-name="greaterequal" unicode="&#x2265;" horiz-adv-x="1351" 
d="M184 909v195l973 -256v-301l-973 -258v192l838 215zM1157 0h-973v193h973v-193z" />
    <glyph glyph-name="uni2300" unicode="&#x2300;" horiz-adv-x="1343" 
d="M1270 1020l-133 -135q52 -70 80 -158q28 -89 28 -178q0 -154 -78 -289q-77 -132 -209 -209q-135 -78 -288 -78q-86 0 -178 29q-84 27 -156 80l-131 -133l-135 133l133 133q-53 74 -80 160q-29 92 -29 178q0 154 78 289q77 132 209 209q133 77 289 77q96 0 178 -26
q88 -28 158 -80l131 131zM348 360l506 508q-85 52 -186 52t-187 -50q-85 -50 -135 -135q-49 -85 -49 -186q0 -106 51 -189zM987 735l-504 -508q88 -49 185 -49q101 0 186 49q86 49 135 135q49 85 49 187q0 103 -51 186z" />
    <glyph glyph-name="uni2460" unicode="&#x2460;" horiz-adv-x="1912" 
d="M1436 1522q196 -114 311 -312t115 -430t-115 -430q-114 -197 -311 -311q-198 -115 -430 -115q-233 0 -431 115q-197 114 -311 311q-114 196 -114 430q0 233 114 430q115 198 311 312q197 114 431 114t430 -114zM1354 174v4q160 92 252 252t92 348t-92 348t-252 252
t-348 92q-191 0 -351 -92t-252 -252t-92 -350t92 -350t252 -252t351 -92q188 0 348 92zM948 1247h180v-934h-217v623h-200v176h32q86 0 136 29q47 27 65 90z" />
    <glyph glyph-name="uni2461" unicode="&#x2461;" horiz-adv-x="1912" 
d="M1436 1522q196 -114 311 -312t115 -430t-115 -430q-114 -197 -311 -311q-198 -115 -430 -115q-233 0 -431 115q-197 114 -311 311q-114 196 -114 430q0 233 114 430q115 198 311 312q197 114 431 114t430 -114zM1354 174v4q160 92 252 252t92 348t-92 348t-252 252
t-348 92q-191 0 -351 -92t-252 -252t-92 -350t92 -350t252 -252t351 -92q188 0 348 92zM881 487l489 -6v-174h-747v221l415 316q48 39 68 67q22 31 22 68q0 51 -36 80q-39 31 -101 31q-61 0 -100 -33q-40 -34 -43 -94h-223q3 87 53 155t131 105t184 37q107 0 191 -35
q81 -34 129 -97q45 -60 45 -141q0 -84 -43 -145q-42 -59 -129 -125z" />
    <glyph glyph-name="uni2462" unicode="&#x2462;" horiz-adv-x="1912" 
d="M1436 1522q196 -114 311 -312t115 -430t-115 -430q-114 -197 -311 -311q-198 -115 -430 -115q-233 0 -431 115q-197 114 -311 311q-114 196 -114 430q0 233 114 430q115 198 311 312q197 114 431 114t430 -114zM1354 174v4q160 92 252 252t92 348t-92 348t-252 252
t-348 92q-191 0 -351 -92t-252 -252t-92 -350t92 -350t252 -252t351 -92q188 0 348 92zM1303 733l-11 -4q80 -56 80 -160q0 -88 -49 -149q-50 -63 -137 -92q-91 -31 -203 -31q-170 0 -266 78q-95 77 -107 213h224q3 -58 43 -92q39 -33 110 -33q64 0 115 31q49 30 49 92
q0 65 -53 92q-56 29 -146 29h-63v176h63q90 0 133 30t43 80q0 49 -38 74q-44 29 -99 29q-62 0 -98 -31q-34 -29 -37 -78h-223q6 78 53 143q46 64 127 99t176 35q100 0 185 -31q80 -29 131 -86q49 -55 49 -127q0 -181 -236 -221q103 -9 185 -66z" />
    <glyph glyph-name="uni2463" unicode="&#x2463;" horiz-adv-x="1912" 
d="M1436 1522q196 -114 311 -312t115 -430t-115 -430q-114 -197 -311 -311q-198 -115 -430 -115q-233 0 -431 115q-197 114 -311 311q-114 196 -114 430q0 233 114 430q115 198 311 312q197 114 431 114t430 -114zM1354 174v4q160 92 252 252t92 348t-92 348t-252 252
t-348 92q-191 0 -351 -92t-252 -252t-92 -350t92 -350t252 -252t351 -92q188 0 348 92zM1241 1247v-524h127v-176h-127v-234h-219v234h-463v219l281 481h401zM1022 1198l-279 -475h279v475z" />
    <glyph glyph-name="uni2464" unicode="&#x2464;" horiz-adv-x="1912" 
d="M1436 1522q196 -114 311 -312t115 -430t-115 -430q-114 -197 -311 -311q-198 -115 -430 -115q-233 0 -431 115q-197 114 -311 311q-114 196 -114 430q0 233 114 430q115 198 311 312q197 114 431 114t430 -114zM1354 174v4q160 92 252 252t92 348t-92 348t-252 252
t-348 92q-191 0 -351 -92t-252 -252t-92 -350t92 -350t252 -252t351 -92q188 0 348 92zM1235 918l-2 -11q68 -38 108 -110q41 -74 41 -176q0 -108 -49 -181q-49 -72 -135 -110q-84 -37 -192 -37q-103 0 -187 35q-83 34 -135 102q-52 66 -61 158h223q6 -58 49 -92
q44 -35 109 -35q67 0 110 43t43 121q0 76 -45 118q-46 43 -111 43q-51 0 -92 -24q-39 -23 -61 -72l-215 19l47 538h641v-174h-442l-21 -264q27 58 86 102q58 43 141 43q85 0 150 -36z" />
    <glyph glyph-name="uni2465" unicode="&#x2465;" horiz-adv-x="1912" 
d="M1436 1522q196 -114 311 -312t115 -430t-115 -430q-114 -197 -311 -311q-198 -115 -430 -115q-233 0 -431 115q-197 114 -311 311q-114 196 -114 430q0 233 114 430q115 198 311 312q197 114 431 114t430 -114zM1354 174v4q160 92 252 252t92 348t-92 348t-252 252
t-348 92q-191 0 -351 -92t-252 -252t-92 -350t92 -350t252 -252t351 -92q188 0 348 92zM1233 899l6 -2q76 -42 115 -113q41 -74 41 -168q0 -92 -49 -165q-50 -75 -138 -115q-90 -41 -202 -41q-119 0 -211 53q-93 53 -142 160t-49 270q0 164 51 269q51 106 144 159
q94 54 211 54q105 0 178 -33q78 -35 123 -92q46 -57 61 -136h-223q-16 50 -51 72q-39 25 -92 25q-101 0 -148 -92q-46 -91 -43 -236q15 47 49 84t86 61q55 25 113 25q99 0 170 -39zM1124 504v2q47 44 47 110q0 71 -45 113q-46 43 -122 43q-77 0 -123 -43q-47 -44 -47 -111
q0 -42 18 -79q18 -36 59 -58q39 -20 93 -20q74 0 120 43z" />
    <glyph glyph-name="uni2466" unicode="&#x2466;" horiz-adv-x="1912" 
d="M1436 1522q196 -114 311 -312t115 -430t-115 -430q-114 -197 -311 -311q-198 -115 -430 -115q-233 0 -431 115q-197 114 -311 311q-114 196 -114 430q0 233 114 430q115 198 311 312q197 114 431 114t430 -114zM1354 174v4q160 92 252 252t92 348t-92 348t-252 252
t-348 92q-191 0 -351 -92t-252 -252t-92 -350t92 -350t252 -252t351 -92q188 0 348 92zM1116 1073h-442v174h659v-221l-362 -713h-264z" />
    <glyph glyph-name="uni2467" unicode="&#x2467;" horiz-adv-x="1912" 
d="M1436 1522q196 -114 311 -312t115 -430t-115 -430q-114 -197 -311 -311q-198 -115 -430 -115q-233 0 -431 115q-197 114 -311 311q-114 196 -114 430q0 233 114 430q115 198 311 312q197 114 431 114t430 -114zM1354 174v4q160 92 252 252t92 348t-92 348t-252 252
t-348 92q-191 0 -351 -92t-252 -252t-92 -350t92 -350t252 -252t351 -92q188 0 348 92zM1329 731l2 2q74 -59 74 -160q0 -84 -49 -145t-139 -96q-85 -33 -209 -33q-118 0 -211 35t-142 96t-49 145q0 101 72 158q73 57 172 72q-215 53 -215 215q0 73 47 129t129 86
q85 31 195 31q105 0 190 -31q82 -30 129 -86t47 -129q0 -162 -215 -215q98 -15 172 -74zM895 1067q-39 -29 -39 -78q0 -46 37 -76t111 -30q72 0 110 30q37 30 37 76q0 48 -37 78q-39 31 -108 31t-111 -31zM1128 498q50 35 50 96q0 57 -50 92q-47 33 -124 33q-78 0 -125 -33
q-50 -35 -50 -92q0 -62 52 -96q53 -35 125 -35t122 35z" />
    <glyph glyph-name="uni2468" unicode="&#x2468;" horiz-adv-x="1912" 
d="M1436 1522q196 -114 311 -312t115 -430t-115 -430q-114 -197 -311 -311q-198 -115 -430 -115q-233 0 -431 115q-197 114 -311 311q-114 196 -114 430q0 233 114 430q115 198 311 312q197 114 431 114t430 -114zM1354 174v4q160 92 252 252t92 348t-92 348t-252 252
t-348 92q-191 0 -351 -92t-252 -252t-92 -350t92 -350t252 -252t351 -92q188 0 348 92zM1219 1212l-7 -10q90 -54 142 -160q51 -105 51 -270q0 -163 -51 -268q-52 -107 -144 -160t-211 -53q-100 0 -178 35t-123 92q-46 58 -61 135h223q15 -47 51 -70q37 -24 93 -24
q100 0 147 92q46 91 43 237q-15 -46 -49 -83q-36 -39 -86 -62q-55 -25 -113 -25q-99 0 -170 39q-74 41 -114 113q-41 74 -41 170q0 95 49 168q51 76 137 115q90 41 203 41q121 0 209 -52zM1124 821h-4q47 44 47 111t-45 112q-46 46 -125 46q-70 0 -116 -43q-47 -44 -47 -113
q0 -71 45 -113q46 -43 122 -43q77 0 123 43z" />
    <glyph glyph-name="uni24EA" unicode="&#x24ea;" horiz-adv-x="1912" 
d="M573 35q-197 114 -311 311q-115 198 -115 430t115 430t311 312q197 114 431 114t430 -114t311 -312t115 -430t-115 -430q-114 -197 -311 -311q-198 -115 -430 -115q-233 0 -431 115zM1354 174v4q160 92 252 252t92 348t-92 348t-252 252t-348 92q-191 0 -351 -92
t-252 -252t-92 -350t92 -350t252 -252t351 -92q188 0 348 92zM711 422l-2 -4q-105 126 -105 358q0 233 105 359q104 125 292 125t293 -123t105 -359q0 -235 -105 -358t-290 -123q-189 0 -293 125zM1174 776v4q0 318 -173 318q-87 0 -131 -80q-43 -79 -43 -240
q0 -160 43 -239q44 -80 131 -80q173 0 173 317z" />
    <glyph glyph-name="uni24FF" unicode="&#x24ff;" horiz-adv-x="1912" 
d="M573 35q-197 114 -311 311q-115 198 -115 430t115 430t311 312q197 114 431 114t430 -114t311 -312t115 -430t-115 -430q-114 -197 -311 -311q-198 -115 -430 -115q-233 0 -431 115zM1296 418h-2q105 123 105 360q0 238 -105 361t-290 123q-189 0 -293 -125
q-105 -126 -105 -359q0 -232 105 -358q104 -125 293 -125q187 0 292 123zM870 539v-4q-43 79 -43 239q0 161 43 240q44 80 131 80q173 0 173 -318q0 -317 -173 -317q-87 0 -131 80z" />
    <glyph glyph-name="filledbox" unicode="&#x25a0;" horiz-adv-x="1492" 
d="M1298 0h-1105v1104h1105v-1104z" />
    <glyph glyph-name="uni25A1" unicode="&#x25a1;" horiz-adv-x="1492" 
d="M1298 0h-1105v1104h1105v-1104zM399 899v-692h693v692h-693z" />
    <glyph glyph-name="lozenge" unicode="&#x25ca;" horiz-adv-x="1411" 
d="M590 1556h328l444 -778l-444 -778h-328l-445 778zM387 776l367 -641l368 643l-366 643z" />
    <glyph glyph-name="circle" unicode="&#x25cb;" horiz-adv-x="1421" 
d="M414 41q-135 80 -215 215q-80 136 -80 295t80 295q80 135 215 215q136 80 297 80q159 0 295 -80q135 -80 215 -215q79 -134 79 -295t-79 -295q-80 -135 -215 -215q-136 -80 -295 -80q-161 0 -297 80zM899 225q86 53 135 137q49 85 49 189q0 103 -49 188q-50 85 -135 135
q-86 50 -188 50q-103 0 -189 -50t-135 -135t-49 -188q0 -104 49 -189q49 -84 135 -137q83 -51 189 -51q105 0 188 51z" />
    <glyph glyph-name="uni25CF" unicode="&#x25cf;" horiz-adv-x="1421" 
d="M414 41q-135 80 -215 215q-80 136 -80 295t80 295q80 135 215 215q136 80 297 80q159 0 295 -80q135 -80 215 -215q79 -134 79 -295t-79 -295q-80 -135 -215 -215q-136 -80 -295 -80q-161 0 -297 80z" />
    <glyph glyph-name="uni2776" unicode="&#x2776;" horiz-adv-x="1912" 
d="M573 35q-197 114 -311 311q-115 198 -115 430t115 430t311 312q197 114 431 114t430 -114t311 -312t115 -430t-115 -430q-114 -197 -311 -311q-198 -115 -430 -115q-233 0 -431 115zM911 311h217v934h-180l-4 -16q-18 -63 -65 -90q-50 -29 -136 -29h-32v-176h200v-623z
" />
    <glyph glyph-name="uni2777" unicode="&#x2777;" horiz-adv-x="1912" 
d="M573 35q-197 114 -311 311q-115 198 -115 430t115 430t311 312q197 114 431 114t430 -114t311 -312t115 -430t-115 -430q-114 -197 -311 -311q-198 -115 -430 -115q-233 0 -431 115zM631 311l753 4v174h-497l305 230q84 63 129 127q43 61 43 145q0 82 -45 142
q-47 61 -129 96q-84 35 -191 35q-103 0 -184 -37t-131 -105t-53 -155h223q3 60 43 94q39 33 102 33q62 0 101 -31q37 -30 37 -80q0 -35 -23 -68q-21 -30 -67 -67l-416 -316v-221z" />
    <glyph glyph-name="uni2778" unicode="&#x2778;" horiz-adv-x="1912" 
d="M573 35q-197 114 -311 311q-115 198 -115 430t115 430t311 312q197 114 431 114t430 -114t311 -312t115 -430t-115 -430q-114 -197 -311 -311q-198 -115 -430 -115q-233 0 -431 115zM1196 326l-2 -2q87 29 137 92q49 61 49 151q0 73 -39 121q-42 51 -98 74
q-62 25 -123 31q105 21 170 71q66 51 66 152q0 72 -49 127q-51 57 -131 86q-85 31 -185 31q-95 0 -176 -35t-127 -99q-47 -65 -53 -143h223q3 49 37 78q36 31 98 31q55 0 99 -29q38 -25 38 -74q0 -50 -43 -80t-131 -30h-63v-177h63q92 0 146 -28q53 -27 53 -92
q0 -63 -49 -93q-50 -30 -113 -30q-69 0 -110 35q-40 34 -43 92h-224q12 -134 109 -213q96 -78 268 -78q112 0 203 31z" />
    <glyph glyph-name="uni2779" unicode="&#x2779;" horiz-adv-x="1912" 
d="M573 35q-197 114 -311 311q-115 198 -115 430t115 430t311 312q197 114 431 114t430 -114t311 -312t115 -430t-115 -430q-114 -197 -311 -311q-198 -115 -430 -115q-233 0 -431 115zM559 764v-219h463v-234h219v234h127v176h-127v524h-401zM1022 721h-277l277 469v-469z
" />
    <glyph glyph-name="uni277A" unicode="&#x277a;" horiz-adv-x="1912" 
d="M573 35q-197 114 -311 311q-115 198 -115 430t115 430t311 312q197 114 431 114t430 -114t311 -312t115 -430t-115 -430q-114 -197 -311 -311q-198 -115 -430 -115q-233 0 -431 115zM1198 332l-8 2q86 38 135 110q49 73 49 183q0 105 -39 176q-41 74 -106 110
q-67 37 -150 37t-141 -43q-61 -45 -84 -102l23 266h440v174h-641l-47 -538l215 -19q22 49 61 72q41 24 92 24q65 0 111 -43q45 -42 45 -118q0 -78 -43 -121t-111 -43q-62 0 -106 35q-43 34 -49 92h-223q9 -89 61 -156q50 -65 135 -100q84 -35 189 -35q108 0 192 37z" />
    <glyph glyph-name="uni277B" unicode="&#x277b;" horiz-adv-x="1912" 
d="M573 35q-197 114 -311 311q-115 198 -115 430t115 430t311 312q197 114 431 114t430 -114t311 -312t115 -430t-115 -430q-114 -197 -311 -311q-198 -115 -430 -115q-233 0 -431 115zM1202 336l-10 -4q90 41 139 114t49 166q0 96 -41 170q-40 72 -114 113q-71 39 -170 39
q-93 0 -160 -49t-88 -119q-3 142 43 233q47 93 147 93q54 0 93 -25q36 -23 51 -70h223q-15 79 -61 136q-45 57 -123 92t-179 35q-116 0 -210 -54q-93 -53 -144 -159q-51 -105 -51 -271q0 -163 49 -270t141 -160q89 -51 213 -51q113 0 203 41zM895 477l-2 -4q-39 20 -57 57
q-19 40 -19 80q0 67 47 111q46 43 123 43t123 -43q45 -42 45 -113q0 -66 -47 -110q-46 -43 -121 -43q-50 0 -92 22z" />
    <glyph glyph-name="uni277C" unicode="&#x277c;" horiz-adv-x="1912" 
d="M573 35q-197 114 -311 311q-115 198 -115 430t115 430t311 312q197 114 431 114t430 -114t311 -312t115 -430t-115 -430q-114 -197 -311 -311q-198 -115 -430 -115q-233 0 -431 115zM1116 1071l-409 -760h264l362 713v221h-659v-174h442z" />
    <glyph glyph-name="uni277D" unicode="&#x277d;" horiz-adv-x="1912" 
d="M573 35q-197 114 -311 311q-115 198 -115 430t115 430t311 312q197 114 431 114t430 -114t311 -312t115 -430t-115 -430q-114 -197 -311 -311q-198 -115 -430 -115q-233 0 -431 115zM1212 328l-8 -2q90 35 139 96q50 62 50 145q0 101 -72 158q-73 57 -172 72
q215 53 215 215q0 75 -45 129q-47 56 -129 86t-191 30q-111 0 -194 -30q-82 -30 -129 -86q-45 -54 -45 -129q0 -162 215 -215q-99 -15 -172 -72q-72 -57 -72 -158q0 -84 49 -145t142 -96q88 -33 211 -33q118 0 208 35zM883 905q-37 30 -37 76q0 49 39 78q42 31 110 31
q70 0 109 -31q37 -30 37 -78q0 -46 -37 -76q-39 -31 -111 -31q-71 0 -110 31zM868 492h-2q-51 34 -51 96q0 58 49 92q47 33 127 33q78 0 125 -33q49 -34 49 -92q0 -62 -49 -96q-50 -35 -123 -35q-72 0 -125 35z" />
    <glyph glyph-name="uni277E" unicode="&#x277e;" horiz-adv-x="1912" 
d="M573 35q-197 114 -311 311q-115 198 -115 430t115 430t311 312q197 114 431 114t430 -114t311 -312t115 -430t-115 -430q-114 -197 -311 -311q-198 -115 -430 -115q-233 0 -431 115zM805 1221l2 -2q-88 -40 -137 -113t-49 -168q0 -94 41 -168q40 -72 114 -113
q71 -39 170 -39q92 0 160 50q69 51 90 120q3 -144 -43 -235q-47 -92 -147 -92q-56 0 -93 24q-35 22 -51 72h-223q15 -77 61 -135q45 -57 123 -92q73 -33 178 -33q119 0 211 53t144 160q53 109 53 268q0 166 -51 271q-51 106 -141 159q-91 54 -209 54q-113 0 -203 -41z
M1135 1049h2q45 -45 45 -113q0 -69 -45 -111q-46 -43 -123 -43t-123 43q-45 42 -45 113q0 69 47 113q46 43 117 43q80 0 125 -45z" />
    <glyph glyph-name="uniF8FF" unicode="&#xf8ff;" horiz-adv-x="1740" 
d="M1210 838h512v-119h-508l467 -195l-43 -106l-475 196l363 -364l-78 -80l-367 367l197 -480l-107 -43l-192 465v-504h-119v514l-196 -475l-107 43l197 478l-365 -365l-80 80l363 364l-475 -196l-43 106l469 195h-506v119h508l-471 194l47 109l471 -197l-363 363l84 82
l359 -361l-195 471l111 43l192 -469v508h119v-502l190 463l109 -43l-195 -471l359 361l84 -82l-363 -363l473 197l45 -109z" />
    <glyph glyph-name="uniFEFF" unicode="&#xfeff;" horiz-adv-x="0" 
 />
    <glyph glyph-name="NULL" horiz-adv-x="0" 
 />
    <glyph glyph-name="uni004A0301" horiz-adv-x="811" 
d="M-74 0l47 227h160q88 0 135 35q48 36 66 117l250 1180h268l-260 -1231q-34 -163 -146 -246q-110 -82 -309 -82h-211zM899 1679h-274l311 283h385z" />
    <glyph glyph-name="G.ss03" horiz-adv-x="1675" 
d="M809 639l49 207h791l-35 -160q-49 -230 -166 -393q-117 -164 -289 -246q-171 -82 -387 -82q-186 0 -334 74q-145 73 -229 219q-82 143 -82 344q0 246 104 469q105 225 308 363q204 139 483 139q175 0 313 -60t219 -172q86 -119 109 -276h-281q-27 148 -125 221
q-100 74 -262 74q-180 0 -315 -105t-205 -276q-72 -176 -72 -369q0 -134 50 -229q49 -93 141 -143t217 -50q127 0 233 56q109 57 179 155q72 100 110 240h-524z" />
    <glyph glyph-name="Gbreve.ss03" horiz-adv-x="1675" 
d="M809 639l49 207h791l-35 -160q-49 -230 -166 -393q-117 -164 -289 -246q-171 -82 -387 -82q-186 0 -334 74q-145 73 -229 219q-82 143 -82 344q0 246 104 469q105 225 308 363q204 139 483 139q175 0 313 -60t219 -172q86 -119 109 -276h-281q-27 148 -125 221
q-100 74 -262 74q-180 0 -315 -105t-205 -276q-72 -176 -72 -369q0 -134 50 -229q49 -93 141 -143t217 -50q127 0 233 56q109 57 179 155q72 100 110 240h-524zM874 1690l-8 -4q-69 26 -110 83q-41 56 -41 125q0 29 6 56h194q-4 -28 -4 -31q0 -50 37 -80q39 -31 101 -31
q78 0 131 39q55 40 67 101h197q-18 -83 -74 -148q-56 -64 -141 -102q-84 -37 -195 -37q-84 0 -160 29z" />
    <glyph glyph-name="Gcaron.ss03" horiz-adv-x="1675" 
d="M809 639l49 207h791l-35 -160q-49 -230 -166 -393q-117 -164 -289 -246q-171 -82 -387 -82q-186 0 -334 74q-145 73 -229 219q-82 143 -82 344q0 246 104 469q105 225 308 363q204 139 483 139q175 0 313 -60t219 -172q86 -119 109 -276h-281q-27 148 -125 221
q-100 74 -262 74q-180 0 -315 -105t-205 -276q-72 -176 -72 -369q0 -134 50 -229q49 -93 141 -143t217 -50q127 0 233 56q109 57 179 155q72 100 110 240h-524zM1053 1776l217 174h250l-314 -283h-342l-200 283h221z" />
    <glyph glyph-name="Gcircumflex.ss03" horiz-adv-x="1675" 
d="M809 639l49 207h791l-35 -160q-49 -230 -166 -393q-117 -164 -289 -246q-171 -82 -387 -82q-186 0 -334 74q-145 73 -229 219q-82 143 -82 344q0 246 104 469q105 225 308 363q204 139 483 139q175 0 313 -60t219 -172q86 -119 109 -276h-281q-27 148 -125 221
q-100 74 -262 74q-180 0 -315 -105t-205 -276q-72 -176 -72 -369q0 -134 50 -229q49 -93 141 -143t217 -50q127 0 233 56q109 57 179 155q72 100 110 240h-524zM1266 1950l200 -283h-221l-168 174l-219 -174h-248l312 283h344z" />
    <glyph glyph-name="uni0122.ss03" horiz-adv-x="1675" 
d="M809 639l49 207h791l-35 -160q-49 -230 -166 -393q-117 -164 -289 -246q-171 -82 -387 -82q-186 0 -334 74q-145 73 -229 219q-82 143 -82 344q0 246 104 469q105 225 308 363q204 139 483 139q175 0 313 -60t219 -172q86 -119 109 -276h-281q-27 148 -125 221
q-100 74 -262 74q-180 0 -315 -105t-205 -276q-72 -176 -72 -369q0 -134 50 -229q49 -93 141 -143t217 -50q127 0 233 56q109 57 179 155q72 100 110 240h-524zM569 -420l60 283h282l-65 -305l-164 -185h-170l145 207h-88z" />
    <glyph glyph-name="Gdotaccent.ss03" horiz-adv-x="1675" 
d="M809 639l49 207h791l-35 -160q-49 -230 -166 -393q-117 -164 -289 -246q-171 -82 -387 -82q-186 0 -334 74q-145 73 -229 219q-82 143 -82 344q0 246 104 469q105 225 308 363q204 139 483 139q175 0 313 -60t219 -172q86 -119 109 -276h-281q-27 148 -125 221
q-100 74 -262 74q-180 0 -315 -105t-205 -276q-72 -176 -72 -369q0 -134 50 -229q49 -93 141 -143t217 -50q127 0 233 56q109 57 179 155q72 100 110 240h-524zM1178 1667h-283l59 283h283z" />
    <glyph glyph-name="Adieresis.titl" horiz-adv-x="1589" 
d="M1470 0h-274l-55 446h-721l-246 -446h-293l871 1556h514zM1008 1520l-465 -848h569zM512 1274h-260l59 282h262zM1653 1274h-260l59 282h262z" />
    <glyph glyph-name="Odieresis.titl" horiz-adv-x="1716" 
d="M442 49l-2 -6q-150 73 -233 219q-84 147 -84 344q0 250 108 471q110 224 314 361q207 139 485 139q187 0 338 -74q152 -75 234 -217q84 -147 84 -344q0 -251 -107 -469q-109 -223 -313 -360q-206 -138 -486 -138q-187 0 -338 74zM1122 287h-4q139 106 211 278
q74 177 74 377q0 136 -51 225q-53 92 -142 142q-88 49 -209 49q-181 0 -319 -105q-139 -106 -211 -278q-74 -177 -74 -377q0 -134 52 -225q54 -94 143 -142q91 -49 211 -49q181 0 319 105zM328 1266h-260l59 282h262zM1874 1266h-260l59 282h262z" />
    <glyph glyph-name="Udieresis.titl" horiz-adv-x="1593" 
d="M913 1274h-260l60 282h262zM1245 1274h-260l59 282h263zM406 31l-5 2q-123 55 -184 157q-61 101 -61 240q0 92 22 205l197 921h268l-205 -962q-16 -82 -16 -141q0 -133 76 -197q78 -66 223 -66q180 0 295 109t158 313l200 942h268l-198 -940q-64 -305 -238 -473
q-172 -166 -497 -166q-179 0 -303 56z" />
    <glyph glyph-name="I_J.loclNLD" horiz-adv-x="1257" 
d="M63 0l46 227h471q88 0 135 35t65 117l250 1180h268l-260 -1231q-35 -164 -145 -246t-309 -82h-521zM436 498h-270l225 1058h268z" />
    <glyph glyph-name="A.inferior" horiz-adv-x="854" 
d="M678 -233h-193l-16 198h-324l-100 -198h-205l408 778h356zM422 510l-199 -391h234z" />
    <glyph glyph-name="B.inferior" horiz-adv-x="811" 
d="M596 106v-2q53 -44 53 -112q0 -67 -43 -119q-44 -54 -125 -80q-89 -29 -198 -29h-357l166 779h338q128 0 191 -51q65 -53 65 -136q0 -81 -65 -131q-62 -47 -160 -63q82 -12 135 -56zM461 369v-2q-26 20 -74 20h-133l-35 -156h133q135 0 135 82q0 36 -26 56zM295 -88h-2
q77 0 117 29q36 26 36 71q0 35 -28 54q-27 18 -80 18h-150l-36 -172h143z" />
    <glyph glyph-name="C.inferior" horiz-adv-x="856" 
d="M121 -213l-10 -12q-77 38 -123 110q-45 71 -45 178q0 123 57 234q58 114 166 184q110 72 246 72q103 0 176 -37q76 -39 117 -100q42 -62 51 -148h-199q-9 66 -49 103t-111 37t-131 -48q-58 -46 -88 -122q-31 -79 -31 -166q0 -83 43 -129q42 -45 117 -45q68 0 121 36
q52 35 88 103h197q-46 -135 -154 -211q-107 -76 -264 -76q-99 0 -174 37z" />
    <glyph glyph-name="D.inferior" horiz-adv-x="854" 
d="M369 545l-2 2q104 0 182 -37q82 -39 127 -107q47 -71 47 -172q0 -145 -64 -249q-65 -105 -174 -160q-110 -55 -252 -55h-307l166 778h277zM248 -78l-2 -2q89 0 151 41t97 109q32 63 32 149q0 82 -47 129q-45 45 -127 45h-100l-100 -471h96z" />
    <glyph glyph-name="E.inferior" horiz-adv-x="714" 
d="M643 545l-33 -154h-356l-33 -149h350l-32 -154h-351l-34 -168h364l-31 -153h-561l166 778h551z" />
    <glyph glyph-name="F.inferior" horiz-adv-x="681" 
d="M627 545l-31 -154h-342l-35 -162h334l-33 -153h-334l-65 -309h-195l166 778h535z" />
    <glyph glyph-name="G.inferior" horiz-adv-x="907" 
d="M319 72l27 135h418l-96 -453h-158l37 176q-43 -81 -115 -135q-71 -53 -178 -53q-80 0 -150 37q-68 36 -112 110q-43 73 -43 177q0 122 57 233q58 114 166 184q110 72 250 72q150 0 237 -72q88 -73 109 -188h-199q-12 54 -53 84q-42 31 -104 31q-83 0 -140 -45
q-61 -48 -90 -123q-30 -76 -30 -166q0 -83 49 -129q48 -45 127 -45q81 0 143 47t80 123h-232z" />
    <glyph glyph-name="H.inferior" horiz-adv-x="864" 
d="M510 250l63 295h195l-166 -778h-194l65 311h-287l-65 -311h-195l166 778h195l-64 -295h287z" />
    <glyph glyph-name="I.inferior" horiz-adv-x="382" 
d="M121 -233h-195l166 778h195z" />
    <glyph glyph-name="J.inferior" horiz-adv-x="464" 
d="M-139 -233l30 153h64q47 0 74 17q25 16 34 61l117 547h195l-127 -590q-20 -96 -82 -143q-60 -45 -180 -45h-125z" />
    <glyph glyph-name="K.inferior" horiz-adv-x="786" 
d="M545 545h227l-373 -377l232 -401h-211l-215 380l-82 -380h-195l166 778h195l-72 -340z" />
    <glyph glyph-name="L.inferior" horiz-adv-x="630" 
d="M287 545l-133 -625h319l-31 -153h-516l166 778h195z" />
    <glyph glyph-name="M.inferior" horiz-adv-x="1173" 
d="M1079 545l-166 -778h-182l160 747l-307 -747h-328l10 747l-160 -747h-180l166 778h342l-12 -748l305 748h352z" />
    <glyph glyph-name="N.inferior" horiz-adv-x="942" 
d="M508 -207l160 752h180l-166 -778h-348l-68 751l-160 -751h-180l166 778h348z" />
    <glyph glyph-name="O.inferior" horiz-adv-x="899" 
d="M123 -213l-4 -2q-78 37 -125 111q-45 71 -45 178q0 119 59 231t166 182t246 70q104 0 182 -37q79 -37 125 -110q45 -71 45 -179q0 -123 -57 -231q-58 -109 -166 -180q-107 -70 -246 -70q-102 0 -180 37zM449 -57v-2q58 46 92 122q32 71 32 170q0 85 -45 127
q-46 43 -122 43q-79 0 -136 -45q-61 -49 -90 -122q-30 -76 -30 -170q0 -84 43 -127t120 -43t136 47z" />
    <glyph glyph-name="P.inferior" horiz-adv-x="772" 
d="M389 545l2 -4q87 0 154 -27q66 -26 104 -80q37 -52 37 -123q0 -83 -43 -147q-43 -63 -129 -101q-82 -36 -205 -36h-133l-55 -260h-195l166 778h297zM326 174v-4q78 0 120 33q43 34 43 92q0 46 -30 70t-86 24h-115l-47 -215h115z" />
    <glyph glyph-name="Q.inferior" horiz-adv-x="905" 
d="M743 59h-2q-35 -88 -92 -153l109 -139h-209l-31 36q-92 -51 -215 -51q-102 0 -180 37t-125 111q-45 71 -45 178q0 119 59 231q60 114 166 183t246 69q104 0 182 -37q79 -37 125 -110q45 -71 45 -178q0 -95 -33 -177zM422 -74l-125 148h211l20 -27q43 79 43 191
q0 85 -45 127q-46 43 -123 43t-135 -46q-61 -49 -90 -122q-31 -79 -31 -170q0 -84 46 -127t122 -43q59 0 107 26z" />
    <glyph glyph-name="R.inferior" horiz-adv-x="815" 
d="M637 168l-2 -2q-51 -67 -143 -96l135 -306h-217l-107 279h-125l-59 -279h-195l166 779h318q76 0 141 -27q60 -25 100 -78q37 -49 37 -119q0 -87 -49 -151zM250 391l-41 -198h135q68 0 105 30q36 29 36 84q0 42 -26 62q-28 22 -74 22h-135z" />
    <glyph glyph-name="S.inferior" horiz-adv-x="763" 
d="M10 -182l-4 -2q-87 66 -90 190h199q3 -112 147 -112q64 0 105 24t41 72q0 34 -25 53q-28 21 -82 35l-115 31q-83 21 -133 71q-49 49 -49 129q0 70 43 125q41 52 121 88q73 33 172 33q140 0 219 -61q81 -63 90 -162h-198q-3 38 -37 59q-38 23 -92 23q-53 0 -93 -19
q-36 -17 -36 -53q0 -34 26 -51q29 -19 92 -37l115 -31q83 -21 129 -76q45 -54 45 -124q0 -83 -43 -144q-41 -59 -123 -94q-76 -33 -188 -33q-149 0 -236 66z" />
    <glyph glyph-name="T.inferior" horiz-adv-x="704" 
d="M25 545h651l-33 -154h-227l-133 -624h-195l133 624h-229z" />
    <glyph glyph-name="U.inferior" horiz-adv-x="849" 
d="M53 -184l-4 -4q-78 66 -78 172q0 41 11 98l98 459h194l-104 -492q-8 -33 -8 -51q0 -51 31 -76q30 -24 90 -24q75 0 118 43q44 44 62 125l102 479h195l-101 -473q-35 -163 -124 -240q-92 -80 -261 -80q-145 0 -221 64z" />
    <glyph glyph-name="V.inferior" horiz-adv-x="817" 
d="M242 -201l348 746h213l-377 -778h-365l-53 778h197z" />
    <glyph glyph-name="W.inferior" horiz-adv-x="1216" 
d="M719 -207l282 752h185l-295 -778h-352l61 753l-252 -753h-352l29 778h180l-29 -752l252 752h350z" />
    <glyph glyph-name="X.inferior" horiz-adv-x="843" 
d="M573 545h242l-344 -369l207 -409h-219l-137 278l-248 -278h-240l375 415l-178 363h213l116 -238z" />
    <glyph glyph-name="Y.inferior" horiz-adv-x="774" 
d="M541 545h231l-393 -479l-64 -299h-194l67 321l-190 457h203l116 -297z" />
    <glyph glyph-name="Z.inferior" horiz-adv-x="745" 
d="M53 545h631l-43 -197l-487 -428h415l-30 -153h-658l43 196l490 428h-394z" />
    <glyph glyph-name="G.ss03.inferior" horiz-adv-x="888" 
d="M319 72l23 135h418l-21 -96q-39 -183 -149 -275q-116 -96 -301 -96q-101 0 -176 37q-77 38 -123 110q-45 71 -45 179q0 122 57 233q58 114 166 184q110 72 250 72q150 0 237 -72q88 -73 109 -188h-199q-12 54 -53 84q-42 31 -104 31q-83 0 -140 -45q-61 -48 -90 -123
q-31 -79 -31 -166q0 -82 50 -129q48 -45 131 -45q85 0 141 47t74 123h-224z" />
    <glyph glyph-name="A.superior" horiz-adv-x="854" 
d="M893 778h-193l-16 199h-324l-100 -199h-205l408 778h356zM637 1522l-199 -392h234z" />
    <glyph glyph-name="B.superior" horiz-adv-x="811" 
d="M811 1118v-2q53 -44 53 -112q0 -67 -43 -119q-44 -54 -125 -80q-89 -29 -198 -29h-357l166 778h338q128 0 191 -51q65 -53 65 -135q0 -81 -65 -131q-62 -47 -160 -63q82 -12 135 -56zM676 1380v-2q-27 21 -74 21h-133l-35 -156h133q135 0 135 82q0 35 -26 55zM510 924h-2
q78 0 117 28q37 27 37 72q0 34 -29 53t-80 19h-150l-36 -172h143z" />
    <glyph glyph-name="C.superior" horiz-adv-x="856" 
d="M336 799l-10 -13q-76 38 -123 111q-45 71 -45 178q0 123 57 234q58 114 166 184q110 72 246 72q103 0 176 -37q75 -38 117 -101q42 -62 51 -147h-199q-9 65 -49 102t-111 37q-72 0 -131 -47q-58 -46 -88 -123q-31 -79 -31 -166q0 -82 44 -129q42 -45 116 -45q66 0 121 37
q52 35 88 103h197q-46 -135 -154 -211q-107 -76 -264 -76q-99 0 -174 37z" />
    <glyph glyph-name="D.superior" horiz-adv-x="854" 
d="M584 1556l-2 3q104 0 182 -37q82 -39 127 -107q47 -71 47 -172q0 -146 -64 -250t-174 -159q-112 -56 -251 -56h-308l166 778h277zM463 934l-2 -2q89 0 151 41q63 41 97 108q32 63 32 150q0 82 -47 129q-45 45 -127 45h-100l-100 -471h96z" />
    <glyph glyph-name="E.superior" horiz-adv-x="714" 
d="M858 1556l-33 -153h-356l-33 -150h350l-32 -153h-351l-34 -168h364l-31 -154h-561l166 778h551z" />
    <glyph glyph-name="F.superior" horiz-adv-x="681" 
d="M842 1556l-31 -153h-342l-35 -162h334l-33 -154h-334l-65 -309h-195l166 778h535z" />
    <glyph glyph-name="G.superior" horiz-adv-x="907" 
d="M535 1083l26 136h418l-96 -453h-158l37 176q-43 -81 -115 -135q-71 -53 -178 -53q-80 0 -150 37q-68 36 -112 110q-43 73 -43 176q0 123 57 234q58 114 166 184q110 72 250 72q150 0 237 -72q88 -73 109 -188h-199q-12 54 -53 84t-104 30q-83 0 -140 -45
q-61 -48 -90 -123q-30 -77 -30 -166q0 -83 49 -129q48 -45 127 -45q80 0 143 48q62 47 80 122h-231z" />
    <glyph glyph-name="H.superior" horiz-adv-x="864" 
d="M725 1262l63 294h195l-166 -778h-194l65 312h-287l-65 -312h-195l166 778h195l-64 -294h287z" />
    <glyph glyph-name="I.superior" horiz-adv-x="382" 
d="M336 778h-195l166 778h195z" />
    <glyph glyph-name="J.superior" horiz-adv-x="464" 
d="M76 778l30 154h64q48 0 74 16t35 62l116 546h195l-127 -589q-21 -98 -82 -144q-60 -45 -180 -45h-125z" />
    <glyph glyph-name="K.superior" horiz-adv-x="786" 
d="M758 1556h227l-373 -376l232 -402h-211l-215 381l-82 -381h-195l166 778h195l-72 -339z" />
    <glyph glyph-name="L.superior" horiz-adv-x="630" 
d="M502 1556l-133 -624h319l-31 -154h-516l166 778h195z" />
    <glyph glyph-name="M.superior" horiz-adv-x="1173" 
d="M1294 1556l-166 -778h-182l160 748l-307 -748h-328l10 748l-159 -748h-181l166 778h342l-12 -747l305 747h352z" />
    <glyph glyph-name="N.superior" horiz-adv-x="942" 
d="M723 805l160 751h180l-166 -778h-348l-68 752l-159 -752h-181l166 778h348z" />
    <glyph glyph-name="O.superior" horiz-adv-x="899" 
d="M338 799l-4 -2q-79 37 -125 110q-45 71 -45 178q0 120 59 232t166 182t246 70q104 0 182 -37t125 -111q45 -71 45 -178q0 -123 -57 -231q-58 -111 -166 -181q-106 -69 -246 -69q-102 0 -180 37zM664 954v-2q57 45 92 123q32 71 32 170q0 85 -45 127q-46 43 -122 43
q-79 0 -136 -45q-61 -48 -90 -123q-30 -77 -30 -170q0 -84 43 -127t120 -43t136 47z" />
    </font>
</defs>
</svg>
