<?xml version="1.0" standalone="no"?>
<!DOCTYPE svg PUBLIC "-//W3C//DTD SVG 1.1//EN" "http://www.w3.org/Graphics/SVG/1.1/DTD/svg11.dtd" >
<svg xmlns="http://www.w3.org/2000/svg" xmlns:xlink="http://www.w3.org/1999/xlink" version="1.1">
<metadata>
Created by FontForge 20170731 at Fri Apr 21 21:41:42 2023
 By Aleksey,,,
(c) 2014-2020. Copyright by TYPE.WELTKERN :. All rights reserved.
</metadata>
<defs>
<font id="TWKEverett-BlackItalic" horiz-adv-x="1536" >
  <font-face 
    font-family="TWK Everett"
    font-weight="800"
    font-style="italic"
    font-stretch="normal"
    units-per-em="2048"
    panose-1="2 11 2 4 0 0 0 0 0 0"
    ascent="1638"
    descent="-410"
    x-height="1128"
    cap-height="1556"
    bbox="-2038 -680 7109 2286"
    underline-thickness="309"
    underline-position="-820"
    slope="-12"
    unicode-range="U+000D-FEFF"
  />
<missing-glyph horiz-adv-x="1556" 
d="M1311 0h-1305l332 1556h1304zM713 1198l-178 -840h401l178 840h-401z" />
    <glyph glyph-name="fi" unicode="fi" horiz-adv-x="1550" 
d="M1573 1128l-240 -1126h-452l174 811h-344l-172 -811h-451l172 811h-170l70 317h168l16 76q38 176 160 264q124 89 348 89h229l-65 -306h-101q-64 0 -94 -24t-39 -82l-4 -19h795zM1141 1233l69 326h455l-70 -326h-454z" />
    <glyph glyph-name="fl" unicode="fl" horiz-adv-x="1550" 
d="M1333 0l-452 2l264 1251h-227q-65 0 -95 -24t-39 -82l-4 -19h213l-67 -317h-213l-172 -811h-451l172 811h-170l70 317h168l16 76q38 176 160 264t348 88h809z" />
    <glyph glyph-name="W_W_W" unicode="WWW" horiz-adv-x="6934" 
d="M6175 115l497 1441h437l-555 -1556h-770l151 1470l-467 -1470h-766l92 1458l-520 -1458h-768l148 1462l-463 -1462h-768l94 1458l-520 -1458h-770l149 1462l-465 -1462h-766l99 1556h420l-109 -1433l469 1433h731l-137 -1441l498 1441h825l-109 -1435l471 1435h730
l-134 -1435l496 1435h825l-110 -1441l471 1441h731z" />
    <glyph glyph-name="f_f" unicode="ff" horiz-adv-x="1806" 
d="M1821 1251v4q-65 0 -95 -24q-29 -23 -38 -82l-5 -19h213l-67 -317h-213l-172 -811h-451l172 811h-452l-172 -811h-451l172 811h-170l70 317h168l16 76q38 176 160 264q124 89 348 89h229l-65 -306h-100q-65 0 -95 -24t-39 -82l-4 -19h453l16 76q38 176 160 264t348 88
h230l-66 -305h-100z" />
    <glyph glyph-name="f_f_i" unicode="ffi" horiz-adv-x="2453" 
d="M2236 0l-452 4l172 811h-342l-172 -811h-451l172 811h-452l-172 -811h-451l172 811h-170l70 318h168l16 75q38 177 160 265t348 88h229l-65 -306h-101q-64 0 -94 -24t-39 -82l-4 -19h453l16 76q38 176 160 264q124 89 348 89h230l-66 -306h-100q-65 0 -95 -24
q-29 -23 -38 -82l-5 -19h795zM2044 1235l70 326h454l-69 -326h-455z" />
    <glyph glyph-name="f_f_l" unicode="ffl" horiz-adv-x="2453" 
d="M2114 1556l452 5l-330 -1557h-452l172 811h-342l-172 -811h-451l172 811h-452l-172 -811h-451l172 811h-170l70 318h168l16 75q38 177 160 265t348 88h229l-65 -306h-101q-64 0 -94 -24t-39 -82l-4 -19h453l16 76q38 176 160 264q124 89 348 89h230l-66 -306h-100
q-65 0 -95 -24q-29 -23 -38 -82l-5 -19h342z" />
    <glyph glyph-name="f_j" unicode="fj" horiz-adv-x="1550" 
d="M1573 1128l-254 -1181q-37 -175 -160 -260q-124 -86 -348 -86h-176l67 317h46q65 0 96 25t43 80l168 790h-344l-172 -811h-451l172 811h-170l70 317h168l16 76q38 176 160 264q124 89 348 89h229l-65 -306h-101q-64 0 -94 -24t-39 -82l-4 -19h795zM1141 1233l67 326h455
l-68 -326h-454z" />
    <glyph glyph-name="f_t" unicode="ft" horiz-adv-x="1822" 
d="M1610 811l-82 -387q-6 -18 -6 -39q0 -34 24 -49q22 -14 78 -14h88l-67 -318h-224q-105 0 -190 31q-82 30 -129 92t-47 147q0 37 10 95l94 444h-448l-172 -811h-451l172 811h-170l70 317h168l16 76q38 176 160 264q124 89 348 89h229l-65 -306h-101q-64 0 -94 -24t-39 -82
l-4 -19h449l55 267h453l-58 -267h207l-69 -317h-205z" />
    <glyph glyph-name="t_f" unicode="tf" horiz-adv-x="1818" 
d="M1835 1251l2 2q-64 0 -94 -24q-31 -25 -43 -82l-4 -19h215l-70 -317h-213l-170 -811h-452l172 811h-471l-82 -389q-7 -21 -7 -39q0 -33 25 -49q24 -15 78 -15h88l-70 -317h-221q-105 0 -190 31q-82 30 -129 92t-47 147q0 37 10 95l94 444h-178l69 317h177l55 267h452
l-57 -267h471l17 76q38 177 159 264q122 88 348 88h230l-64 -305h-100z" />
    <glyph glyph-name="t_t" unicode="tt" horiz-adv-x="1832" 
d="M1620 811l-84 -389q-4 -32 -4 -39q0 -34 24 -49t78 -15h88l-67 -317h-223q-106 0 -191 31q-82 30 -129 92t-47 147q0 37 10 95l94 444h-464l-82 -389q-7 -21 -7 -39q0 -33 25 -49q24 -15 78 -15h88l-70 -317h-221q-105 0 -190 31q-82 30 -129 92t-47 147q0 37 10 95
l94 444h-178l69 317h177l55 267h452l-57 -267h465l57 267h451l-57 -267h206l-69 -317h-205z" />
    <glyph glyph-name="w_w_w" unicode="www" horiz-adv-x="5533" 
d="M4901 115l336 1013h377l-388 -1128h-663l119 1034l-320 -1034h-674l80 1020l-350 -1020h-665l118 1034l-319 -1034h-674l82 1028l-352 -1028h-666l121 1032l-320 -1032h-675l90 1128h370l-92 -1022l328 1022h618l-104 -1022l340 1022h721l-92 -1013l325 1013h619
l-103 -1022l338 1022h721l-92 -1022l328 1022h618z" />
    <glyph glyph-name=".notdef" horiz-adv-x="1556" 
d="M1311 0h-1305l332 1556h1304zM713 1198l-178 -840h401l178 840h-401z" />
    <glyph glyph-name=".null" horiz-adv-x="0" 
 />
    <glyph glyph-name="nonmarkingreturn" unicode="&#xd;" horiz-adv-x="432" 
 />
    <glyph glyph-name="space" unicode=" " horiz-adv-x="432" 
 />
    <glyph glyph-name="exclam" unicode="!" horiz-adv-x="692" 
d="M524 543h-366l137 1013h524zM461 0h-461l84 391h461z" />
    <glyph glyph-name="quotedbl" unicode="&#x22;" horiz-adv-x="1085" 
d="M510 852h-332l94 704h445zM1020 852h-332l94 704h445z" />
    <glyph glyph-name="numbersign" unicode="#" horiz-adv-x="1685" 
d="M1733 1128l-58 -266h-321l-101 -237h269l-58 -265h-321l-152 -360h-323l151 360h-250l-151 -360h-326l152 360h-215l57 265h268l101 237h-213l55 266h268l180 428h326l-180 -428h250l180 428h324l-181 -428h269zM680 625h250l100 237h-250z" />
    <glyph glyph-name="dollar" unicode="$" horiz-adv-x="1456" 
d="M1059 946l-4 -6q104 -35 172 -100q69 -66 104 -150q33 -79 33 -166q0 -144 -66 -264q-64 -116 -188 -190q-128 -77 -289 -97l-53 -249h-455l64 292q-152 59 -234 179q-83 121 -92 288h463q21 -196 215 -196q86 0 139 39q56 41 56 104q0 35 -21 59q-24 28 -55 41
q-53 23 -92 35l-230 70q-150 46 -235 151q-86 106 -86 269q0 126 61 233q62 109 174 178q117 72 265 99l53 245h454l-59 -274q262 -102 320 -412h-465q-9 57 -62 95q-50 36 -127 36t-129 -30q-51 -29 -51 -86q0 -29 20 -49q22 -22 62 -37q58 -22 110 -37z" />
    <glyph glyph-name="percent" unicode="%" horiz-adv-x="2121" 
d="M252 782h-4q-86 86 -86 240q0 148 53 278q53 129 164 209q112 80 270 80q159 0 248 -86q88 -85 88 -239q0 -149 -53 -279q-53 -129 -164 -209q-112 -80 -270 -80q-160 0 -246 86zM688 0h-403l1226 1556h402zM608 983q38 62 56 145t18 142q0 88 -66 88q-50 0 -88 -62
q-37 -61 -55 -143q-18 -83 -18 -141q0 -90 65 -90q51 0 88 61zM1307 55h-4q-86 86 -86 240q0 148 53 278q53 129 164 209q112 80 270 80q159 0 248 -86q88 -85 88 -239q0 -149 -53 -279q-53 -129 -164 -209q-112 -80 -271 -80t-245 86zM1665 258q36 60 55 145q19 87 19 140
q0 90 -68 90q-48 0 -86 -62q-36 -60 -55 -145q-19 -87 -19 -141q0 -88 66 -88q51 0 88 61z" />
    <glyph glyph-name="ampersand" unicode="&#x26;" horiz-adv-x="1632" 
d="M1362 430l-72 -90l236 -346h-473l-64 94q-212 -123 -448 -123q-166 0 -283 51q-119 52 -184 144q-64 91 -64 213q0 169 111 289q110 119 330 225q-57 87 -82 153q-25 67 -25 129q0 119 78 215q77 96 215 148q139 53 311 53q159 0 266 -45q111 -47 166 -125
q56 -80 56 -178q0 -94 -56 -168q-56 -75 -143 -129q-79 -49 -231 -119l-31 -14l141 -205l199 252h383zM813 1249h-4q-35 -41 -35 -94q0 -51 31 -111l12 7q99 43 135 73q41 35 41 86q0 35 -24 56q-25 22 -64 22q-59 0 -92 -39zM831 313l-217 322q-87 -57 -122 -111
q-33 -50 -33 -116q0 -69 47 -113q46 -43 123 -43q101 0 202 61z" />
    <glyph glyph-name="quotesingle" unicode="'" horiz-adv-x="575" 
d="M510 852h-332l94 704h445z" />
    <glyph glyph-name="parenleft" unicode="(" horiz-adv-x="815" 
d="M178 -401v-2q-69 152 -110 319q-39 157 -39 344q0 361 143 678q142 315 408 616h479q-274 -312 -426 -626q-154 -319 -154 -664q0 -191 39 -348q41 -165 105 -317h-445z" />
    <glyph glyph-name="parenright" unicode=")" horiz-adv-x="813" 
d="M-242 -401l-4 2q279 314 430 626q154 319 154 664q0 191 -39 348q-42 170 -104 317h444q71 -157 111 -319q41 -166 41 -344q0 -359 -144 -678q-143 -318 -407 -616h-482z" />
    <glyph glyph-name="asterisk" unicode="*" horiz-adv-x="974" 
d="M1030 1583l31 -244l-207 -24l94 -199l-233 -104l-99 205l-172 -148l-172 191l168 143l-180 104l131 211l178 -104l39 190l254 -53l-41 -192z" />
    <glyph glyph-name="plus" unicode="+" horiz-adv-x="1325" 
d="M834 733h393v-330h-393v-403h-342v403h-394v330h394v395h342v-395z" />
    <glyph glyph-name="comma" unicode="," horiz-adv-x="671" 
d="M-14 0l84 391h460l-96 -444l-221 -250h-291l209 303h-145z" />
    <glyph glyph-name="hyphen" unicode="-" horiz-adv-x="905" 
d="M776 410h-713l78 362h711z" />
    <glyph glyph-name="period" unicode="." horiz-adv-x="671" 
d="M446 0h-460l84 391h460z" />
    <glyph glyph-name="slash" unicode="/" horiz-adv-x="1275" 
d="M426 0h-498l1014 1556h498z" />
    <glyph glyph-name="zero" unicode="0" horiz-adv-x="1544" 
d="M371 39l-2 -4q-132 67 -203 201q-70 131 -70 319q0 271 94 504q95 234 289 379q195 145 479 145q179 0 310 -67q132 -67 202 -199q72 -135 72 -320q0 -270 -94 -503q-95 -234 -289 -379q-193 -144 -479 -144q-176 0 -309 68zM920 426l-2 -4q81 117 122 287q41 169 41 301
q0 114 -41 170q-40 55 -127 55q-120 0 -202 -119q-83 -121 -123 -285q-39 -160 -39 -301q0 -114 41 -170q40 -55 127 -55q120 0 203 121z" />
    <glyph glyph-name="one" unicode="1" horiz-adv-x="950" 
d="M637 1556l395 3l-330 -1557h-460l207 975h-340l77 358h23q107 0 194 23q82 22 134 65q49 41 92 115z" />
    <glyph glyph-name="two" unicode="2" horiz-adv-x="1452" 
d="M616 358l719 -2l-75 -358h-1307l96 448l799 496q93 58 127 98q37 43 37 93q0 52 -39 81q-42 31 -107 31q-84 0 -141 -45q-59 -47 -74 -129h-463q30 153 129 270q98 116 246 181q144 63 322 63q185 0 313 -51q132 -52 203 -148q69 -92 69 -223q0 -118 -40 -205t-111 -155
q-70 -67 -176 -129z" />
    <glyph glyph-name="three" unicode="3" horiz-adv-x="1445" 
d="M1395 985l-15 -8q-67 -73 -174 -119q-103 -44 -233 -63q100 -21 184 -68t133 -117t49 -159q0 -132 -73 -242t-230 -178t-393 -68q-185 0 -324 62t-221 178t-94 276h465q9 -89 59 -133q49 -43 142 -43q98 0 157 47q60 48 60 123q0 69 -66 107q-62 36 -190 36h-119l72 359
h121q156 0 227 41q69 40 69 104q0 52 -43 86q-44 35 -118 35q-84 0 -135 -39q-52 -40 -70 -110h-463q24 145 123 256t248 172t325 61q163 0 299 -53q134 -52 215 -148q80 -95 80 -219q0 -103 -67 -176z" />
    <glyph glyph-name="four" unicode="4" horiz-adv-x="1505" 
d="M1284 715h201l-76 -359h-201l-75 -356h-459l76 356h-748l96 449l537 751h827zM975 1419l-500 -704h350z" />
    <glyph glyph-name="five" unicode="5" horiz-adv-x="1474" 
d="M1440 1198l-713 -8l-117 -379q57 108 164 180q104 70 236 70q117 0 209 -53q90 -51 143 -152q51 -96 51 -233q0 -190 -86 -338t-256 -234t-412 -86q-178 0 -319 66q-139 65 -215 184t-82 277h463q6 -85 55 -134t139 -49q75 0 134 35q57 34 92 96t35 138q0 75 -50 122
q-48 45 -131 45q-80 0 -139 -36q-61 -37 -102 -105l-449 37l277 915h1149z" />
    <glyph glyph-name="six" unicode="6" horiz-adv-x="1501" 
d="M1219 981v4q106 -60 161 -168q56 -109 56 -242q0 -163 -99 -301q-100 -140 -270 -221q-171 -82 -383 -82q-167 0 -303 68q-134 67 -211 203q-78 138 -78 329q0 258 105 492q105 235 305 379q201 145 461 145q163 0 282 -55q120 -56 191 -158q71 -103 92 -239h-465
q-10 56 -45 84q-38 30 -105 30q-131 0 -221 -112q-91 -114 -135 -332q59 109 168 172q112 65 240 65q147 0 254 -61zM848 346l-2 -2q61 30 96 86t35 119q0 78 -51 123q-53 47 -135 47q-79 0 -138 -33q-61 -34 -98 -86t-37 -111q0 -82 53 -129q51 -45 140 -45q73 0 137 31z
" />
    <glyph glyph-name="seven" unicode="7" horiz-adv-x="1241" 
d="M170 1198l76 358h1149l-95 -448l-759 -1108h-576l875 1198h-670z" />
    <glyph glyph-name="eight" unicode="8" horiz-adv-x="1527" 
d="M1479 997l-9 -6q-57 -79 -153 -127q-98 -49 -223 -67q100 -24 178 -74q76 -49 119 -119t43 -153q0 -135 -93 -248q-90 -109 -264 -174q-171 -64 -403 -64q-188 0 -334 55q-147 55 -229 154q-82 98 -82 225q0 115 65 201q65 87 176 139q112 53 256 74q-146 50 -221 125
q-78 78 -78 199q0 123 90 227q87 100 250 160q160 59 361 59q186 0 325 -53q137 -52 209 -146q72 -93 72 -210q0 -101 -55 -177zM766 1217h-2q-53 -20 -82 -60q-27 -37 -27 -82q0 -56 50 -94q49 -37 139 -37q72 0 133 23q57 22 84 59q29 40 29 80q0 59 -52 96t-141 37
q-73 0 -131 -22zM838 328v-2q62 20 100 61q37 40 37 96q0 43 -27 78q-28 35 -76 53q-52 19 -110 19q-81 0 -152 -23q-65 -21 -98 -63q-35 -44 -35 -98q0 -63 60 -105q56 -39 153 -39q77 0 148 23z" />
    <glyph glyph-name="nine" unicode="9" horiz-adv-x="1501" 
d="M1208 1518l-4 -5q137 -69 213 -202q78 -138 78 -330q0 -262 -106 -492q-108 -235 -304 -378q-199 -146 -458 -146q-164 0 -283 55t-190 158q-72 105 -93 240h465q6 -55 43 -84q39 -31 103 -31q130 0 221 113q91 114 135 332q-60 -110 -168 -173q-112 -65 -239 -65
q-147 0 -254 61t-162 168t-55 242q0 164 98 301q100 140 270 221q171 82 385 82q171 0 305 -67zM932 864l-4 -2q61 34 98 86t37 111q0 82 -53 129t-140 47q-73 0 -137 -31q-58 -28 -94 -86q-33 -53 -33 -119q0 -77 51 -122q52 -46 136 -46q80 0 139 33z" />
    <glyph glyph-name="colon" unicode=":" horiz-adv-x="671" 
d="M446 0h-460l84 391h460zM596 702h-461l84 392h461z" />
    <glyph glyph-name="semicolon" unicode=";" horiz-adv-x="673" 
d="M-14 0l84 391h460l-96 -444l-221 -250h-291l209 303h-145zM598 702h-461l84 392h461z" />
    <glyph glyph-name="less" unicode="&#x3c;" horiz-adv-x="1316" 
d="M127 842l1030 252v-344l-807 -183l807 -182v-346l-1030 252v551z" />
    <glyph glyph-name="equal" unicode="=" horiz-adv-x="1380" 
d="M1233 637h-1083v330h1083v-330zM1233 174h-1083v330h1083v-330z" />
    <glyph glyph-name="greater" unicode="&#x3e;" horiz-adv-x="1316" 
d="M160 750v344l1032 -252v-551l-1032 -252v346l807 182z" />
    <glyph glyph-name="question" unicode="?" horiz-adv-x="1308" 
d="M397 543l2 -8q21 111 74 194t139 148l152 114q65 47 96 78q32 32 43 51q12 21 12 43q0 39 -32 58q-33 20 -92 20q-58 0 -105 -29q-43 -27 -55 -79h-461q43 211 215 327q173 117 459 117q166 0 291 -41q120 -39 186 -115q63 -72 63 -174q0 -120 -59 -209
q-60 -91 -172 -172l-149 -114q-70 -52 -105 -99q-34 -46 -49 -110h-453zM748 -8h-461l84 391h460z" />
    <glyph glyph-name="at" unicode="@" horiz-adv-x="1927" 
d="M1509 1288h-10q175 -94 270 -262q95 -167 95 -377q0 -170 -62 -315t-184 -230q-124 -86 -295 -86q-117 0 -193 48q-74 47 -104 129q-45 -74 -133 -125q-86 -50 -201 -50q-74 0 -141 31q-63 29 -102 90q-37 58 -37 135q0 160 112 232q115 74 314 92l243 23l2 8q7 40 7 49
q0 38 -25 63t-74 25q-113 0 -143 -104h-328q29 99 103 170q71 68 168 102q100 35 210 35q194 0 306 -74q110 -73 110 -215q0 -47 -10 -92l-39 -187q-8 -33 -8 -61q0 -40 18 -61t58 -21q58 0 98 55q41 56 59 140q19 87 19 166q0 147 -62 268q-61 120 -184 190
q-126 72 -303 72q-217 0 -399 -111q-183 -112 -287 -295q-105 -185 -105 -395q0 -172 66 -295q64 -118 184 -180q119 -61 289 -61q93 0 174 20q84 21 162 62l86 -211q-118 -59 -229 -84q-129 -29 -234 -29q-224 0 -395 98t-266 269q-95 170 -95 368q0 299 148 547
q147 246 399 387t543 141q230 0 405 -94zM963 268h-2q56 59 77 160l-123 -10q-75 -8 -124 -37q-46 -27 -46 -86q0 -43 27 -64q26 -20 64 -20q73 0 127 57z" />
    <glyph glyph-name="A" unicode="A" horiz-adv-x="1695" 
d="M1591 0h-465l-20 360h-574l-176 -360h-491l799 1556h792zM1042 1411l-331 -682h372z" />
    <glyph glyph-name="B" unicode="B" horiz-adv-x="1574" 
d="M1397 682l-4 2q104 -85 104 -229q0 -145 -88 -246q-87 -100 -254 -156q-165 -55 -399 -55h-754l330 1556h717q174 0 292 -47q120 -48 177 -131t57 -202q0 -112 -64 -191t-168 -125q-101 -45 -223 -63q171 -27 277 -113zM1061 1174l2 -3q-44 29 -111 29h-231l-55 -258h227
q102 0 154 43q53 44 53 109q0 54 -39 80zM799 352v4q114 0 172 43q57 42 57 111q0 58 -43 92q-44 35 -117 35h-266l-59 -285h256z" />
    <glyph glyph-name="C" unicode="C" horiz-adv-x="1667" 
d="M424 43h2q-158 71 -246 215q-90 146 -90 354q0 236 117 461q118 226 332 367q215 141 491 141q207 0 361 -74q152 -73 239 -207q87 -135 96 -307h-481q-12 113 -74 178q-61 64 -180 64q-123 0 -223 -86q-99 -85 -154 -229q-55 -143 -55 -314q0 -86 31 -153q29 -63 90 -99
q54 -32 135 -32q111 0 203 65q90 64 143 178h484q-91 -279 -312 -438q-217 -156 -553 -156q-197 0 -356 72z" />
    <glyph glyph-name="D" unicode="D" horiz-adv-x="1638" 
d="M901 1556v-2q199 0 367 -71q163 -69 264 -213q98 -140 98 -346q0 -317 -131 -521q-133 -207 -356 -305t-504 -98h-635l330 1556h567zM682 367v2q151 0 258 67q108 67 164 189q55 119 55 274q0 90 -37 154q-38 65 -100 98q-65 35 -154 35h-147l-174 -819h135z" />
    <glyph glyph-name="E" unicode="E" horiz-adv-x="1366" 
d="M1477 1556l-80 -368h-676l-45 -211h661l-77 -369h-662l-49 -239h692l-78 -369h-1159l330 1556h1143z" />
    <glyph glyph-name="F" unicode="F" horiz-adv-x="1316" 
d="M1444 1556l-80 -368h-643l-49 -234h631l-80 -370h-631l-123 -584h-465l330 1556h1110z" />
    <glyph glyph-name="G" unicode="G" horiz-adv-x="1771" 
d="M819 588l72 338h862l-197 -930h-376l73 346q-81 -157 -215 -266q-131 -107 -348 -107q-156 0 -295 74q-136 72 -223 219q-86 145 -86 350q0 236 117 461t336 367q217 141 503 141q215 0 367 -70q157 -72 240 -186q88 -120 108 -266h-481q-24 85 -86 129q-61 43 -168 43
q-142 0 -246 -82q-105 -82 -160 -223q-55 -140 -55 -310q0 -143 82 -219q84 -78 221 -78q88 0 166 35t129 95q53 62 74 139h-414z" />
    <glyph glyph-name="H" unicode="H" horiz-adv-x="1644" 
d="M1149 995l119 561h465l-330 -1556h-465l123 584h-469l-123 -584h-465l330 1556h465l-119 -561h469z" />
    <glyph glyph-name="I" unicode="I" horiz-adv-x="712" 
d="M469 0h-465l330 1556h465z" />
    <glyph glyph-name="J" unicode="J" horiz-adv-x="913" 
d="M-84 0l78 365h158q76 0 114 30q37 30 53 103l224 1056h467l-244 -1148q-30 -139 -96 -230q-66 -90 -178 -133q-113 -43 -289 -43h-287z" />
    <glyph glyph-name="K" unicode="K" horiz-adv-x="1552" 
d="M1202 1556h567l-671 -770l379 -786h-516l-334 748l-158 -748h-465l330 1556h465l-140 -653z" />
    <glyph glyph-name="L" unicode="L" horiz-adv-x="1241" 
d="M799 1556l-250 -1187h622l-79 -369h-1088l330 1556h465z" />
    <glyph glyph-name="M" unicode="M" horiz-adv-x="2299" 
d="M2386 1556l-330 -1556h-424l305 1440l-557 -1440h-698l51 1440l-305 -1440h-424l330 1556h786l-69 -1421l524 1421h811z" />
    <glyph glyph-name="N" unicode="N" horiz-adv-x="1822" 
d="M1186 133l301 1423h424l-330 -1556h-782l-70 1423l-301 -1423h-424l330 1556h782z" />
    <glyph glyph-name="O" unicode="O" horiz-adv-x="1751" 
d="M430 43l-2 -2q-161 69 -254 219q-92 148 -92 358q0 236 117 461q115 222 336 365q217 141 503 141q204 0 371 -72q163 -70 254 -217q92 -148 92 -358q0 -236 -117 -461q-116 -223 -333 -364q-219 -142 -504 -142q-204 0 -371 72zM1067 403l-4 -2q101 82 158 226
q55 140 55 311q0 137 -72 215t-196 78q-136 0 -240 -84q-102 -82 -158 -225q-55 -140 -55 -312q0 -138 74 -215q73 -76 200 -76q134 0 238 84z" />
    <glyph glyph-name="P" unicode="P" horiz-adv-x="1495" 
d="M956 1556h-6q177 0 314 -55q139 -56 215 -166q77 -112 77 -260q0 -165 -81 -295q-83 -133 -252 -209q-166 -75 -418 -75h-232l-104 -496h-465l330 1556h622zM848 856l-2 2q76 0 129 27t80 71q26 42 26 99q0 65 -43 102t-118 37h-203l-72 -338h203z" />
    <glyph glyph-name="Q" unicode="Q" horiz-adv-x="1767" 
d="M1776 0h-504l-49 70q-197 -99 -424 -99q-204 0 -371 72q-161 69 -254 219q-92 148 -92 359q0 235 117 460q115 222 336 365q217 141 503 141q206 0 371 -71q162 -70 254 -218t92 -358q0 -161 -55 -319t-158 -291zM1012 367l-201 272h414q51 137 51 301q0 137 -72 215
t-196 78q-136 0 -240 -84q-102 -82 -158 -225q-55 -140 -55 -312q0 -138 74 -215q72 -75 200 -75q100 0 183 45z" />
    <glyph glyph-name="R" unicode="R" horiz-adv-x="1589" 
d="M1483 795h-4q-90 -127 -269 -199l254 -596h-512l-194 526h-180l-113 -526h-465l330 1556h663q164 0 295 -55q133 -56 209 -160q78 -107 78 -249q0 -167 -92 -297zM721 1202l-70 -328h221q78 0 127 27q51 28 74 70q25 45 25 92q0 60 -43 100q-42 39 -113 39h-221z" />
    <glyph glyph-name="S" unicode="S" horiz-adv-x="1501" 
d="M342 31l8 2q-153 59 -239 176q-86 118 -86 285h481q3 -94 65 -144q61 -49 183 -49q109 0 174 35q63 34 63 98q0 56 -43 86q-52 36 -143 60l-244 69q-174 52 -272 156q-99 105 -99 266q0 140 91 260q90 118 251 185q162 67 369 67q299 0 459 -121t184 -332h-483
q-9 59 -64 93t-149 34q-100 0 -154 -32q-57 -34 -57 -86q0 -34 22 -56q23 -23 66 -41q52 -22 123 -43l246 -69q111 -30 188 -92q76 -62 117 -144q39 -79 39 -174q0 -167 -86 -291q-85 -122 -252 -190q-168 -68 -400 -68q-201 0 -358 60z" />
    <glyph glyph-name="T" unicode="T" horiz-adv-x="1409" 
d="M242 1556h1343l-76 -368h-440l-252 -1188h-465l250 1188h-440z" />
    <glyph glyph-name="U" unicode="U" horiz-adv-x="1611" 
d="M387 31l8 -2q-143 62 -213 170q-71 109 -71 252q0 79 22 192l193 911h465l-211 -1001q-9 -30 -9 -66q0 -78 50 -122q49 -43 139 -43q120 0 190 73q72 75 99 201l204 960h465l-200 -942q-46 -213 -142 -356q-95 -141 -254 -215q-160 -74 -393 -74q-200 0 -342 62z" />
    <glyph glyph-name="V" unicode="V" horiz-adv-x="1624" 
d="M709 143l618 1413h512l-733 -1556h-827l-74 1556h477z" />
    <glyph glyph-name="W" unicode="W" horiz-adv-x="2377" 
d="M1618 115l498 1441h436l-555 -1556h-770l149 1462l-465 -1462h-766l99 1556h420l-109 -1433l469 1433h731z" />
    <glyph glyph-name="X" unicode="X" horiz-adv-x="1656" 
d="M1282 1556h578l-670 -741l385 -815h-524l-217 498l-414 -498h-572l715 829l-336 727h512l187 -423z" />
    <glyph glyph-name="Y" unicode="Y" horiz-adv-x="1515" 
d="M1212 1556h551l-770 -972l-125 -584h-465l132 625l-371 931h483l195 -534z" />
    <glyph glyph-name="Z" unicode="Z" horiz-adv-x="1464" 
d="M295 1556h1286l-100 -471l-869 -716h752l-78 -369h-1333l100 471l871 717h-705z" />
    <glyph glyph-name="bracketleft" unicode="[" horiz-adv-x="833" 
d="M987 1556l-67 -317h-211l-279 -1323h209l-68 -317h-661l416 1957h661z" />
    <glyph glyph-name="backslash" unicode="\" horiz-adv-x="1204" 
d="M1053 0h-451l-358 1556h448z" />
    <glyph glyph-name="bracketright" unicode="]" horiz-adv-x="833" 
d="M201 1239l65 317h662l-416 -1957h-662l70 317h209l281 1323h-209z" />
    <glyph glyph-name="asciicircum" unicode="^" horiz-adv-x="1275" 
d="M1018 1556l246 -821h-420l-142 623l-143 -623h-420l248 821h631z" />
    <glyph glyph-name="underscore" unicode="_" horiz-adv-x="1208" 
d="M961 -317h-1084l68 317h1085z" />
    <glyph glyph-name="grave" unicode="`" horiz-adv-x="870" 
d="M979 1223h-416l-321 333h587z" />
    <glyph glyph-name="a" unicode="a" horiz-adv-x="1341" 
d="M1149 1063l-2 -8q143 -91 143 -279q0 -50 -12 -112l-143 -672h-443l39 182q-60 -95 -156 -151q-102 -60 -223 -60q-98 0 -178 41t-127 115q-45 71 -45 170q0 182 133 282q132 99 393 123l310 27l2 8q8 27 8 53q0 51 -27 78q-29 29 -80 29q-60 0 -102 -31q-41 -31 -59 -88
h-447q39 124 125 207q90 87 215 133q122 45 277 45q254 0 399 -92zM700 285h-2q60 70 84 182v2l-141 -12q-91 -9 -139 -43q-49 -34 -49 -95q0 -48 30 -75t78 -27q80 0 139 68z" />
    <glyph glyph-name="b" unicode="b" horiz-adv-x="1400" 
d="M1192 1102l-2 -2q81 -55 125 -154q43 -98 43 -227q0 -191 -72 -367q-70 -171 -205 -276t-309 -105q-113 0 -190 62t-117 172l-43 -205h-442l329 1556h443l-142 -661q57 116 156 188q103 74 229 74q115 0 197 -55zM784 322l2 -3q62 68 91 164q30 99 30 203q0 90 -37 133
t-100 43q-78 0 -135 -63q-58 -64 -88 -166q-31 -105 -31 -203q0 -87 35 -131q34 -43 98 -43q75 0 135 66z" />
    <glyph glyph-name="c" unicode="c" horiz-adv-x="1312" 
d="M291 29l2 -2q-123 58 -187 166q-65 109 -65 251q0 187 86 351q85 163 252 262q165 98 393 98q158 0 277 -55q121 -56 188 -160t70 -248h-449q-3 82 -31 127q-27 43 -92 43q-71 0 -125 -63q-56 -66 -86 -166q-30 -102 -30 -203q0 -86 30 -129t90 -43q65 0 115 47t80 123
h446q-47 -137 -137 -240q-88 -101 -229 -161q-137 -58 -314 -58q-158 0 -284 60z" />
    <glyph glyph-name="d" unicode="d" horiz-adv-x="1404" 
d="M1071 1556l440 7l-329 -1557h-445l39 187q-56 -96 -143 -156q-89 -62 -211 -62q-113 0 -199 50q-87 50 -135 147q-49 98 -49 240q0 188 72 364q70 171 206 277q134 104 312 104q83 0 147 -37q66 -38 103 -96q38 -59 53 -127zM762 330l2 -2q61 67 90 164q31 102 31 202
q0 90 -37 133t-100 43q-79 0 -136 -63q-58 -64 -88 -166t-30 -203q0 -88 34 -131t99 -43q75 0 135 66z" />
    <glyph glyph-name="e" unicode="e" horiz-adv-x="1331" 
d="M475 446l-8 -20q0 -188 121 -188q56 0 96 24q37 22 74 78h446q-89 -183 -252 -274q-166 -93 -374 -93q-165 0 -291 60q-123 58 -187 166q-65 109 -65 252q0 180 86 344q84 161 252 264q163 100 393 100q249 0 387 -117q139 -118 139 -350q0 -52 -10 -117q-8 -52 -31 -129
h-776zM606 840v-2q-57 -54 -92 -144h328q12 38 12 66q0 59 -31 98q-30 37 -86 37q-73 0 -131 -55z" />
    <glyph glyph-name="f" unicode="f" horiz-adv-x="903" 
d="M918 1251v2q-65 0 -95 -24t-39 -82l-4 -19h213l-67 -317h-213l-172 -811h-451l172 811h-170l70 317h168l16 76q38 176 160 264t348 88h229l-65 -305h-100z" />
    <glyph glyph-name="g" unicode="g" horiz-adv-x="1402" 
d="M985 1128l447 -8l-238 -1124q-34 -149 -129 -248q-90 -95 -231 -143q-131 -45 -295 -45q-251 0 -400 94q-151 95 -166 283h447q21 -87 127 -87q80 0 137 48q58 48 72 122l41 197q-52 -90 -144 -149q-91 -58 -211 -58q-107 0 -196 53t-142 148q-51 92 -51 225
q0 179 70 344t203 271q131 104 311 104q86 0 147 -37q64 -39 99 -94q38 -60 53 -123zM778 356l2 -4q60 60 90 152q31 95 31 188q0 82 -35 123t-102 41q-76 0 -135 -59q-58 -58 -88 -150q-31 -95 -31 -186q0 -82 35 -123t98 -41q76 0 135 59z" />
    <glyph glyph-name="h" unicode="h" horiz-adv-x="1363" 
d="M1182 1118h4q71 -41 104 -106q35 -68 35 -154q0 -60 -16 -151l-152 -707h-450l133 625q14 66 14 116q0 52 -25 80q-26 29 -69 29q-70 0 -123 -62t-80 -190l-127 -598h-450l329 1556h443l-140 -659q61 112 166 186q106 74 226 74q110 0 178 -39z" />
    <glyph glyph-name="i" unicode="i" horiz-adv-x="649" 
d="M430 0h-450l239 1128h451zM694 1231h-454l67 325h455z" />
    <glyph glyph-name="j" unicode="j" horiz-adv-x="649" 
d="M-266 -401l67 317h43q66 0 97 25t43 79l235 1108h451l-252 -1183q-37 -175 -160 -260q-124 -86 -348 -86h-176zM692 1231h-454l67 325h455z" />
    <glyph glyph-name="k" unicode="k" horiz-adv-x="1337" 
d="M926 1128h522l-463 -534l246 -594h-492l-198 518l-111 -518h-450l329 1556h451l-178 -843z" />
    <glyph glyph-name="l" unicode="l" horiz-adv-x="649" 
d="M430 0h-450l329 1556h451z" />
    <glyph glyph-name="m" unicode="m" horiz-adv-x="2039" 
d="M1864 1118l-13 -6q72 -41 105 -106q35 -68 35 -152q0 -70 -19 -154l-149 -706h-453l133 624q17 93 17 119q0 53 -21 80q-23 29 -63 29q-133 0 -185 -254l-127 -598h-450l133 624q16 88 16 119q0 54 -20 80q-23 29 -64 29q-65 0 -112 -62q-47 -63 -74 -190l-127 -598h-451
l240 1128h442l-49 -231q61 112 166 186q106 74 221 74q95 0 162 -37q69 -38 103 -102q33 -61 36 -144q39 79 99 142q59 61 139 104q77 41 158 41q104 0 172 -39z" />
    <glyph glyph-name="n" unicode="n" horiz-adv-x="1363" 
d="M1182 1118l2 -2q71 -41 104 -106q35 -68 35 -154q0 -60 -16 -151l-152 -707h-450l133 625q14 66 14 116q0 52 -25 80q-26 29 -69 29q-70 0 -123 -62t-80 -190l-127 -598h-451l240 1128h442l-49 -229q64 113 168 186q106 74 226 74q110 0 178 -39z" />
    <glyph glyph-name="o" unicode="o" horiz-adv-x="1378" 
d="M301 27l-2 4q-125 55 -193 164q-67 107 -67 258q0 180 86 344t254 262t405 98q170 0 295 -55q128 -56 195 -164q67 -107 67 -258q0 -180 -86 -344q-85 -162 -254 -264q-168 -101 -405 -101q-168 0 -295 56zM762 328l2 -4q61 67 90 163q31 102 31 203q0 90 -37 133
t-100 43q-79 0 -136 -63q-58 -63 -88 -164q-30 -99 -30 -203q0 -88 34 -131t99 -43q75 0 135 66z" />
    <glyph glyph-name="p" unicode="p" horiz-adv-x="1400" 
d="M1192 1102l-4 -4q81 -55 125 -154q43 -98 43 -227q0 -191 -72 -367q-70 -171 -205 -276t-309 -105q-113 0 -190 62q-78 63 -115 172l-127 -604h-442l323 1529h443l-50 -229q56 112 156 184q103 74 227 74q115 0 197 -55zM782 319l2 -2q61 67 90 164q31 102 31 203
q0 90 -37 133t-100 43q-78 0 -135 -63q-58 -64 -88 -166q-31 -105 -31 -203q0 -87 35 -131q34 -43 98 -43q76 0 135 65z" />
    <glyph glyph-name="q" unicode="q" horiz-adv-x="1400" 
d="M981 1128h436l-323 -1529h-443l127 587q-55 -93 -145 -153q-91 -60 -213 -60q-113 0 -199 50q-87 50 -135 147q-49 98 -49 240q0 188 72 364q70 171 206 277q134 104 312 104q123 0 200 -74q78 -75 105 -182zM762 324l2 -2q61 67 90 163q31 102 31 203q0 90 -37 133
t-100 43q-79 0 -136 -63q-58 -64 -88 -166t-30 -203q0 -88 34 -131t99 -43q75 0 135 66z" />
    <glyph glyph-name="r" unicode="r" horiz-adv-x="956" 
d="M586 766l-2 -2q40 105 104 192q63 86 158 144q91 55 209 55l-94 -434h-103q-145 0 -221 -55q-78 -57 -105 -183l-102 -483h-450l239 1128h443z" />
    <glyph glyph-name="s" unicode="s" horiz-adv-x="1253" 
d="M283 16l6 2q-128 46 -205 132t-86 204h446q15 -63 62 -98q44 -33 117 -33q63 0 100 21t37 57q0 34 -31 53q-32 19 -111 43l-200 60q-155 48 -228 118q-77 74 -77 197q0 108 71 197q70 88 203 141q128 51 307 51q150 0 269 -43q122 -44 194 -119q74 -77 86 -184h-446
q-9 46 -49 70t-99 24q-57 0 -94 -18t-37 -53q0 -29 35 -50t117 -45l200 -59q149 -48 220 -131q73 -85 73 -199q0 -112 -65 -198q-65 -87 -197 -136q-131 -49 -321 -49q-172 0 -297 45z" />
    <glyph glyph-name="t" unicode="t" horiz-adv-x="917" 
d="M705 811l-82 -389q-7 -21 -7 -39q0 -33 25 -49q24 -15 78 -15h88l-70 -317h-221q-105 0 -190 31q-82 30 -129 92t-47 147q0 37 10 95l94 444h-178l69 317h177l55 267h452l-57 -267h207l-70 -317h-204z" />
    <glyph glyph-name="u" unicode="u" horiz-adv-x="1355" 
d="M926 1128h450l-239 -1128h-445l49 229q-61 -111 -163 -184q-103 -74 -222 -74q-106 0 -174 39q-70 40 -104 107q-35 68 -35 153q0 74 16 152l150 706h453l-134 -624q-16 -88 -16 -119q0 -50 23 -80q23 -29 67 -29q142 0 197 254z" />
    <glyph glyph-name="v" unicode="v" horiz-adv-x="1337" 
d="M571 135l412 993h455l-484 -1128h-800l-27 1128h436z" />
    <glyph glyph-name="w" unicode="w" horiz-adv-x="1912" 
d="M1278 106l340 1022h377l-387 -1128h-666l121 1032l-320 -1032h-675l90 1128h370l-92 -1022l328 1022h618z" />
    <glyph glyph-name="x" unicode="x" horiz-adv-x="1294" 
d="M934 1128h477l-463 -542l250 -586h-475l-115 330l-254 -330h-491l495 610l-229 518h473l105 -297z" />
    <glyph glyph-name="y" unicode="y" horiz-adv-x="1316" 
d="M569 252l383 876h475l-686 -1529h-456l223 510h-342l-43 1019h434z" />
    <glyph glyph-name="z" unicode="z" horiz-adv-x="1222" 
d="M203 1128h1048l-86 -407l-606 -404h551l-68 -317h-1089l86 408l604 403h-508z" />
    <glyph glyph-name="braceleft" unicode="{" horiz-adv-x="911" 
d="M1061 1556l-70 -325h-37q-62 0 -98 -25q-33 -23 -45 -88l-43 -198q-27 -118 -88 -185q-62 -68 -156 -98t-239 -45q161 -15 256 -80q96 -66 96 -168q0 -43 -10 -88l-49 -229q-1 -7 -2 -16.5t-2 -16t-1 -10.5q0 -40 25 -56q26 -16 76 -16h39l-70 -318h-158q-174 0 -278 72
q-101 70 -101 207q0 40 13 100l45 205q10 65 10 86q0 49 -16 78q-16 30 -52 41q-38 12 -100 18l82 383q69 3 121 23q48 19 78 65q32 49 49 129l37 177q40 187 170 282q131 96 360 96h158z" />
    <glyph glyph-name="bar" unicode="|" horiz-adv-x="663" 
d="M330 -463h-432l454 2142h432z" />
    <glyph glyph-name="braceright" unicode="}" horiz-adv-x="911" 
d="M768 844l-6 -4q15 -27 53 -39q42 -13 105 -19l-82 -383q-77 -3 -123 -20q-51 -18 -80 -64q-32 -49 -49 -129l-45 -215q-41 -188 -172 -282q-135 -97 -363 -97h-158l68 318h39q63 0 98 24q33 23 49 91l50 237q27 117 88 184q63 69 157 99t240 45q-161 15 -256 80
q-96 66 -96 168q0 47 8 86l43 198q1 3 3 9.5t3 9.5q2 6 2 24q0 37 -25 56q-24 18 -75 18h-37l67 317h158q176 0 279 -71q100 -69 100 -207q0 -44 -12 -100l-37 -177q-10 -48 -10 -83q0 -45 16 -74z" />
    <glyph glyph-name="asciitilde" unicode="~" horiz-adv-x="1402" 
d="M72 563h-2q78 128 176 195t207 67q63 0 116 -12q59 -14 129 -45q70 -30 123 -45q49 -14 105 -14q64 0 114 30q51 31 97 86l200 -207q-77 -126 -176 -194q-100 -68 -207 -68q-52 0 -116 11q-53 9 -131 43q-70 33 -123 49q-46 14 -101 14q-63 0 -114 -31t-97 -86z" />
    <glyph glyph-name="uni00A0" unicode="&#xa0;" horiz-adv-x="432" 
 />
    <glyph glyph-name="exclamdown" unicode="&#xa1;" horiz-adv-x="669" 
d="M602 737h-461l84 391h461zM391 -399h-522l289 991h366z" />
    <glyph glyph-name="cent" unicode="&#xa2;" horiz-adv-x="1386" 
d="M774 305l2 -6q52 49 78 123h449q-58 -166 -181 -283q-119 -114 -305 -155l-55 -260h-445l60 282q-138 53 -215 164q-76 110 -76 268q0 159 61 299q61 139 183 246q119 104 286 145l54 254h444l-59 -270q138 -50 215 -158q77 -109 80 -262h-447q-3 82 -31 127
q-27 43 -92 43q-71 0 -125 -63q-56 -66 -86 -166q-30 -102 -30 -203q0 -86 30 -129t90 -43q65 0 115 47z" />
    <glyph glyph-name="sterling" unicode="&#xa3;" horiz-adv-x="1361" 
d="M795 618l-4 3q-54 -85 -154 -148q-102 -65 -240 -111h854l-75 -358h-1194l90 428q113 43 190 90q75 46 117 103h-283l64 301h196l-10 12q-37 45 -63 109q-25 61 -25 135q0 118 70 209q71 92 207 145t325 53q170 0 295 -55q126 -55 193 -154q68 -100 71 -229h-463
q-9 113 -114 113q-63 0 -97 -37t-34 -94q0 -77 53 -154l37 -59h399l-61 -302h-344z" />
    <glyph glyph-name="currency" unicode="&#xa4;" horiz-adv-x="1497" 
d="M1255 545l146 -144l-260 -256l-144 144q-101 -43 -206 -43q-106 0 -207 43l-146 -144l-258 256l144 142q-50 109 -50 219q0 111 50 217l-144 141l258 256l146 -143q101 43 207 43q105 0 206 -43l144 143l260 -256l-146 -143q48 -105 48 -215q0 -109 -48 -217zM887 594
q42 23 67 68t25 96t-25 96t-67 68q-43 24 -96 24t-97 -24q-42 -23 -67 -68t-25 -96t25 -96t67 -68q45 -25 97 -25q51 0 96 25z" />
    <glyph glyph-name="yen" unicode="&#xa5;" horiz-adv-x="1656" 
d="M1284 1556h524l-528 -638h240l-66 -300h-391l-23 -102h394l-64 -299h-393l-47 -217h-459l45 217h-393l63 299h394l22 102h-393l63 300h246l-262 638h494l155 -559z" />
    <glyph glyph-name="brokenbar" unicode="&#xa6;" horiz-adv-x="684" 
d="M608 801h-434l186 878h435zM340 -463h-434l188 879h434z" />
    <glyph glyph-name="section" unicode="&#xa7;" horiz-adv-x="1386" 
d="M1122 975l-6 -8q112 -57 162 -129q49 -70 49 -160q0 -103 -61 -176q-60 -72 -181 -137q70 -76 70 -193q0 -114 -74 -203q-74 -90 -209 -139q-134 -49 -315 -49q-146 0 -262 49q-115 49 -186 135t-80 193h465q3 -50 30 -80q28 -31 78 -31q45 0 78 23q31 22 31 59
q0 33 -29 59q-30 27 -90 56l-285 147q-111 57 -162 133q-49 73 -49 162q0 103 64 176q65 74 184 135q-70 76 -70 193q0 114 74 203q74 90 209 139q134 49 315 49q147 0 263 -49q115 -49 186 -135t80 -193h-465q-3 49 -31 80t-78 31q-49 0 -79 -21q-31 -22 -31 -57
q0 -34 28 -59q29 -26 91 -56zM838 518l2 -2q25 22 37 43t12 49q0 40 -27 70q-30 33 -86 59l-188 99q-25 -22 -37 -43t-12 -50q0 -39 24 -69t84 -58z" />
    <glyph glyph-name="dieresis" unicode="&#xa8;" horiz-adv-x="1067" 
d="M629 1231h-455l68 325h454zM1180 1231h-455l68 325h454z" />
    <glyph glyph-name="copyright" unicode="&#xa9;" horiz-adv-x="1898" 
d="M571 49l-4 -8q-193 114 -307 307q-113 192 -113 422q0 227 115 422q114 193 307 307q195 115 424 115q232 0 424 -113q193 -114 307 -307q115 -195 115 -420q0 -228 -113 -420q-114 -193 -307 -307q-192 -113 -424 -113q-229 0 -424 115zM1305 223l-5 -4q142 85 230 232
q86 145 86 313t-86 313q-88 147 -230 232q-145 86 -315 86t-315 -86q-146 -87 -228 -230q-84 -147 -84 -313t84 -313q82 -143 228 -230q145 -86 317 -86q173 0 318 86zM756 358l-8 -10q-105 55 -166 160q-62 106 -62 248q0 140 60 248q58 103 163 159q106 56 238 56
q116 0 207 -39q97 -42 160 -119q65 -80 86 -199h-355q-9 48 -30 72t-66 24q-55 0 -82 -47t-27 -151q0 -97 29 -150q27 -49 90 -49q34 0 60 23q25 22 34 73h353q-21 -120 -86 -200q-64 -78 -158 -117q-90 -37 -201 -37q-135 0 -239 55z" />
    <glyph glyph-name="ordfeminine" unicode="&#xaa;" horiz-adv-x="710" 
d="M754 1522v2q73 -49 73 -144q0 -26 -8 -59l-69 -332h-252l16 72q-35 -42 -76 -64q-44 -24 -102 -24q-49 0 -90 20q-43 21 -68 60q-24 37 -24 84q0 97 69 145q71 50 203 59l149 15l3 6q2 6 2 24q0 33 -37 33q-22 0 -37 -12q-17 -13 -23 -35h-256q27 95 117 148
q86 51 203 51q134 0 207 -49zM539 1212l-62 -8q-31 -3 -51 -16q-18 -12 -18 -37q0 -20 12 -29q13 -10 33 -10q60 0 86 100z" />
    <glyph glyph-name="guillemotleft" unicode="&#xab;" horiz-adv-x="1619" 
d="M442 1020h525l-392 -457l189 -463h-512l-180 471zM1130 1020h525l-391 -457l188 -463h-512l-180 471z" />
    <glyph glyph-name="logicalnot" unicode="&#xac;" horiz-adv-x="1308" 
d="M1165 195h-342v423h-694v330h1036v-753z" />
    <glyph glyph-name="uni00AD" unicode="&#xad;" horiz-adv-x="905" 
d="M776 410h-713l78 362h711z" />
    <glyph glyph-name="registered" unicode="&#xae;" horiz-adv-x="1896" 
d="M1415 1505l-4 -8q193 -114 307 -307q115 -195 115 -420q0 -228 -113 -420q-114 -193 -307 -307q-192 -113 -424 -113q-229 0 -424 115q-193 114 -307 307q-113 192 -113 422q0 227 115 422q114 193 307 307q195 115 424 115q232 0 424 -113zM1305 223l-5 -4
q142 85 230 232q86 145 86 313t-86 313q-88 147 -230 232q-145 86 -315 86t-315 -86q-146 -87 -228 -230q-84 -147 -84 -313t84 -313q82 -143 228 -230q145 -86 317 -86q173 0 318 86zM1364 752v-4q-40 -64 -117 -105l174 -332h-331l-132 283h-40v-283h-297v889h389
q122 0 209 -37q88 -37 137 -104t49 -160q0 -82 -41 -147zM1071 946q-27 17 -67 17h-86v-132h86q40 0 67 17q25 16 25 49t-25 49z" />
    <glyph glyph-name="macron" unicode="&#xaf;" horiz-adv-x="923" 
d="M1036 1239h-862l64 299h862z" />
    <glyph glyph-name="degree" unicode="&#xb0;" horiz-adv-x="917" 
d="M373 809v-2q-97 57 -152 151t-55 209t55 209q56 96 152 152q94 55 209 55t209 -55t151 -152q55 -94 55 -209t-55 -209q-54 -92 -151 -149q-94 -55 -209 -55t-209 55zM670 1077v-2q37 37 37 88q0 53 -37 90t-88 37t-88 -37t-37 -88t37 -88t88 -37t88 37z" />
    <glyph glyph-name="plusminus" unicode="&#xb1;" horiz-adv-x="1429" 
d="M866 1128v-202h394v-314h-394v-211h-340v211h-393v314h393v202h340zM1260 0h-1127v313h1127v-313z" />
    <glyph glyph-name="uni00B2" unicode="&#xb2;" horiz-adv-x="739" 
d="M483 1190l346 -2l-43 -203h-661l53 256l397 232q33 17 50 34q14 14 14 35q0 20 -14 31q-15 12 -39 12q-35 0 -56 -18q-20 -17 -26 -49h-258q21 126 116 194t234 68q87 0 160 -25q70 -24 108 -74q37 -49 37 -116q0 -84 -51 -144q-52 -61 -129 -102z" />
    <glyph glyph-name="uni00B3" unicode="&#xb3;" horiz-adv-x="724" 
d="M821 1452l-12 -6q-66 -47 -166 -68q80 -16 127 -57q49 -43 49 -109q0 -63 -37 -118q-38 -56 -116 -90q-81 -35 -201 -35q-101 0 -166 32q-71 35 -111 95q-38 58 -38 145h258q3 -76 79 -76q34 0 56 19q20 17 20 45q0 27 -31 43q-32 16 -81 16h-60l41 197h68q58 0 90 16
q31 15 31 41q0 21 -15 33t-39 12q-29 0 -47 -18t-24 -45h-260q18 120 110 188t234 68q95 0 163 -27q67 -27 105 -74q37 -46 37 -104q0 -77 -64 -123z" />
    <glyph glyph-name="acute" unicode="&#xb4;" horiz-adv-x="882" 
d="M592 1223h-422l287 333h608z" />
    <glyph glyph-name="uni00B5" unicode="&#xb5;" horiz-adv-x="1662" 
d="M1505 317v-319h-119q-138 0 -227 12q-91 12 -151 49q-63 38 -90 115q-11 33 -11 45q-35 -100 -100 -162q-67 -64 -178 -82v-381h-443v1530h443v-614v-4q0 -118 30 -174t103 -56q74 0 104 58q31 60 31 178v614h442v-704v-4q0 -45 15 -66q16 -22 43 -28q31 -7 80 -7h28z
" />
    <glyph glyph-name="paragraph" unicode="&#xb6;" horiz-adv-x="1679" 
d="M518 643l-2 -2q-107 0 -190 47q-82 46 -129 129q-45 80 -45 184q0 142 77 269t207 207q128 79 277 79h1024l-371 -1746h-412l301 1413h-202l-301 -1413h-410z" />
    <glyph glyph-name="periodcentered" unicode="&#xb7;" horiz-adv-x="655" 
d="M473 410h-350l82 391h350z" />
    <glyph glyph-name="cedilla" unicode="&#xb8;" horiz-adv-x="483" 
d="M141 -59l-2 -4q65 -9 105 -46q39 -36 39 -94q0 -63 -35 -116t-96 -80t-142 -27h-188l37 172h82q31 0 49 12t18 35q0 31 -49 31h-47l37 176h205z" />
    <glyph glyph-name="uni00B9" unicode="&#xb9;" horiz-adv-x="499" 
d="M483 1765h213l-166 -778h-260l97 459h-168l43 203h20q84 0 133 24t80 78z" />
    <glyph glyph-name="ordmasculine" unicode="&#xba;" horiz-adv-x="716" 
d="M307 1001q-63 29 -98 86q-35 56 -35 130q0 93 43 172t129 129q85 49 207 49q80 0 147 -31q65 -30 103 -86q37 -55 37 -129q0 -95 -45 -172q-47 -80 -131 -129q-85 -49 -207 -49q-85 0 -150 30zM539 1174h-4q24 30 36 77q13 50 13 86q0 27 -13 43q-14 17 -36 17
q-33 0 -58 -31t-37 -78q-12 -46 -12 -86q0 -31 14 -45t39 -14q33 0 58 31z" />
    <glyph glyph-name="guillemotright" unicode="&#xbb;" horiz-adv-x="1619" 
d="M166 1020h514l180 -471l-371 -449h-524l391 455zM854 1020h512l182 -471l-370 -449h-527l393 455z" />
    <glyph glyph-name="onequarter" unicode="&#xbc;" horiz-adv-x="1800" 
d="M1610 369h98l-43 -203h-98l-35 -166h-260l35 166h-359l56 256l223 356h471zM1419 686l-211 -317h142zM479 1556h213l-166 -778h-260l96 459h-167l43 203h20q84 0 133 24t80 78zM463 0h-359l1156 1556h358z" />
    <glyph glyph-name="onehalf" unicode="&#xbd;" horiz-adv-x="1806" 
d="M1319 203l346 -2l-43 -203h-661l53 256l397 231q29 15 49 35q15 15 15 35q0 19 -15 31t-39 12q-34 0 -55 -18t-27 -50h-258q21 126 117 195q95 68 234 68q86 0 159 -25q71 -24 109 -74q37 -49 37 -116q0 -84 -51 -144q-52 -61 -130 -102zM473 1554h213l-166 -778h-260
l96 459h-168l43 203h21q84 0 133 24t80 78zM457 -2h-359l1155 1556h359z" />
    <glyph glyph-name="threequarters" unicode="&#xbe;" horiz-adv-x="1953" 
d="M809 1243l-12 -6q-66 -47 -166 -68q80 -16 127 -57q49 -43 49 -108q0 -64 -37 -119q-38 -55 -117 -90q-81 -35 -200 -35q-99 0 -166 33q-72 35 -111 94t-39 145h258q3 -76 80 -76q33 0 55 19q21 18 21 45q0 28 -31 43q-32 16 -82 16h-59l41 197h67q59 0 91 16
q30 15 30 41q0 22 -14 33q-15 12 -39 12q-29 0 -47 -18q-19 -19 -25 -45h-260q18 119 111 188q92 68 233 68q97 0 164 -27t105 -74q36 -45 36 -104q0 -78 -63 -123zM600 -8h-358l1155 1556h358zM1749 360h98l-43 -202h-98l-35 -166h-260l35 166h-359l56 256l223 356h471z
M1559 678l-211 -318h141z" />
    <glyph glyph-name="questiondown" unicode="&#xbf;" horiz-adv-x="1298" 
d="M942 737h-461l84 391h461zM176 -391l2 -4q-119 40 -186 116q-68 77 -68 185q0 119 56 205t172 168l151 106q72 51 105 92q34 43 49 107h452q-24 -116 -73 -197t-136 -141l-151 -107q-53 -38 -94 -71q-30 -24 -45 -45t-15 -46q0 -33 31 -55q29 -20 86 -20q66 0 109 30
q44 30 59 86h461q-47 -215 -221 -331q-176 -117 -461 -117q-167 0 -283 39z" />
    <glyph glyph-name="Agrave" unicode="&#xc0;" horiz-adv-x="1695" 
d="M1591 0h-465l-20 360h-574l-176 -360h-491l799 1556h792zM1042 1411l-331 -682h372zM1296 1659h-430l-344 326h602z" />
    <glyph glyph-name="Aacute" unicode="&#xc1;" horiz-adv-x="1695" 
d="M1591 0h-465l-20 360h-574l-176 -360h-491l799 1556h792zM1042 1411l-331 -682h372zM1290 1659h-444l307 326h625z" />
    <glyph glyph-name="Acircumflex" unicode="&#xc2;" horiz-adv-x="1695" 
d="M1591 0h-465l-20 360h-574l-176 -360h-491l799 1556h792zM1042 1411l-331 -682h372zM1419 1985l205 -326h-391l-125 141l-170 -141h-403l321 326h563z" />
    <glyph glyph-name="Atilde" unicode="&#xc3;" horiz-adv-x="1695" 
d="M1591 0h-465l-20 360h-574l-176 -360h-491l799 1556h792zM1042 1411l-331 -682h372zM662 1665l-5 -2q41 179 125 272q86 95 203 95q45 0 92 -15q43 -14 80 -30q39 -17 66 -25t63 -8q44 0 82 24q36 23 55 62h136q-41 -178 -123 -273q-82 -94 -201 -94q-45 0 -92 12
q-33 8 -80 29q-43 19 -64 25q-33 10 -63 10q-43 0 -82 -25q-38 -24 -55 -57h-137z" />
    <glyph glyph-name="Adieresis" unicode="&#xc4;" horiz-adv-x="1695" 
d="M1591 0h-465l-20 360h-574l-176 -360h-491l799 1556h792zM1042 1411l-331 -682h372zM1028 1659h-469l68 326h469zM1577 1659h-469l68 326h469z" />
    <glyph glyph-name="Aring" unicode="&#xc5;" horiz-adv-x="1695" 
d="M1591 0h-465l-20 360h-574l-176 -360h-491l799 1556h792zM1042 1411l-331 -682h372zM958 1686l5 -3q-67 37 -105 103q-37 64 -37 151q0 95 43 174q44 81 123 127q82 48 178 48q84 0 148 -37q65 -38 102 -101q37 -64 37 -151q0 -95 -43 -174q-44 -81 -123 -127
q-80 -47 -178 -47q-83 0 -150 37zM1196 1909h-2q29 29 29 67q0 31 -21 52q-20 20 -55 20q-39 0 -68 -29q-26 -26 -26 -67q0 -31 20 -51q21 -21 55 -21q39 0 68 29z" />
    <glyph glyph-name="AE" unicode="&#xc6;" horiz-adv-x="2226" 
d="M2335 1556l-78 -368h-768l18 -211h691l-80 -369h-580l21 -239h542l-80 -369h-895l-20 360h-574l-176 -360h-491l799 1556h1671zM1042 1411l-331 -682h372z" />
    <glyph glyph-name="Ccedilla" unicode="&#xc7;" horiz-adv-x="1667" 
d="M1020 385v-4q90 64 143 178h484q-88 -269 -295 -426q-206 -156 -516 -168l-9 -28q65 -9 111 -48q43 -37 43 -96q0 -65 -37 -117q-38 -53 -100 -79q-69 -29 -144 -29h-198l37 180h84q65 0 65 39q0 29 -49 29h-49l33 161q-156 27 -277 107q-117 77 -186 213
q-68 133 -68 313q0 236 117 461q118 226 332 367q215 141 491 141q207 0 361 -74q152 -73 239 -207q88 -136 97 -307h-482q-12 114 -73 178t-181 64q-123 0 -223 -86q-99 -85 -154 -229q-55 -143 -55 -314q0 -86 31 -153q29 -63 90 -99q56 -33 135 -33q109 0 203 66z" />
    <glyph glyph-name="Egrave" unicode="&#xc8;" horiz-adv-x="1366" 
d="M1477 1556l-80 -368h-676l-45 -211h661l-77 -369h-662l-49 -239h692l-78 -369h-1159l330 1556h1143zM1153 1659h-430l-344 326h602z" />
    <glyph glyph-name="Eacute" unicode="&#xc9;" horiz-adv-x="1366" 
d="M1477 1556l-80 -368h-676l-45 -211h661l-77 -369h-662l-49 -239h692l-78 -369h-1159l330 1556h1143zM1102 1659h-445l308 326h624z" />
    <glyph glyph-name="Ecircumflex" unicode="&#xca;" horiz-adv-x="1366" 
d="M1477 1556l-80 -368h-676l-45 -211h661l-77 -369h-662l-49 -239h692l-78 -369h-1159l330 1556h1143zM1260 1985l204 -326h-391l-125 141l-170 -141h-403l321 326h564z" />
    <glyph glyph-name="Edieresis" unicode="&#xcb;" horiz-adv-x="1366" 
d="M1477 1556l-80 -368h-676l-45 -211h661l-77 -369h-662l-49 -239h692l-78 -369h-1159l330 1556h1143zM868 1659h-469l68 326h469zM1417 1659h-469l68 326h469z" />
    <glyph glyph-name="Igrave" unicode="&#xcc;" horiz-adv-x="712" 
d="M469 0h-465l330 1556h465zM782 1659h-430l-344 326h602z" />
    <glyph glyph-name="Iacute" unicode="&#xcd;" horiz-adv-x="712" 
d="M469 0h-465l330 1556h465zM817 1659h-444l307 326h625z" />
    <glyph glyph-name="Icircumflex" unicode="&#xce;" horiz-adv-x="712" 
d="M469 0h-465l330 1556h465zM940 1985l205 -326h-391l-125 141l-170 -141h-404l322 326h563z" />
    <glyph glyph-name="Idieresis" unicode="&#xcf;" horiz-adv-x="712" 
d="M469 0h-465l330 1556h465zM549 1659h-469l67 326h469zM1098 1659h-469l67 326h469z" />
    <glyph glyph-name="Eth" unicode="&#xd0;" horiz-adv-x="1683" 
d="M946 1556v-2q199 0 367 -71q163 -69 264 -213q98 -140 98 -346q0 -317 -131 -521q-133 -207 -356 -305t-504 -98h-635l137 643h-153l65 305h152l129 608h567zM727 367v2q151 0 258 67q108 67 164 189q55 119 55 274q0 90 -37 154q-38 65 -100 98q-65 35 -154 35h-147
l-51 -240h293l-64 -305h-293l-59 -274h135z" />
    <glyph glyph-name="Ntilde" unicode="&#xd1;" horiz-adv-x="1822" 
d="M1186 133l301 1423h424l-330 -1556h-782l-70 1423l-301 -1423h-424l330 1556h782zM729 1665l-4 -2q41 179 125 272q86 95 203 95q45 0 92 -15q43 -14 80 -30q41 -18 65 -25q27 -8 64 -8q44 0 82 24q36 23 55 62h135q-40 -178 -123 -273q-82 -94 -200 -94q-47 0 -93 12
q-33 8 -80 29q-45 20 -63 25q-33 10 -63 10q-43 0 -82 -25t-56 -57h-137z" />
    <glyph glyph-name="Ograve" unicode="&#xd2;" horiz-adv-x="1751" 
d="M430 43l-2 -2q-161 69 -254 219q-92 148 -92 358q0 236 117 461q115 222 336 365q217 141 503 141q204 0 371 -72q163 -70 254 -217q92 -148 92 -358q0 -236 -117 -461q-116 -223 -333 -364q-219 -142 -504 -142q-204 0 -371 72zM1067 403l-4 -2q101 82 158 226
q55 140 55 311q0 137 -72 215t-196 78q-136 0 -240 -84q-102 -82 -158 -225q-55 -140 -55 -312q0 -138 74 -215q73 -76 200 -76q134 0 238 84zM1339 1655h-430l-344 325h602z" />
    <glyph glyph-name="Oacute" unicode="&#xd3;" horiz-adv-x="1751" 
d="M430 43l-2 -2q-161 69 -254 219q-92 148 -92 358q0 236 117 461q115 222 336 365q217 141 503 141q204 0 371 -72q163 -70 254 -217q92 -148 92 -358q0 -236 -117 -461q-116 -223 -333 -364q-219 -142 -504 -142q-204 0 -371 72zM1067 403l-4 -2q101 82 158 226
q55 140 55 311q0 137 -72 215t-196 78q-136 0 -240 -84q-102 -82 -158 -225q-55 -140 -55 -312q0 -138 74 -215q73 -76 200 -76q134 0 238 84zM1286 1655h-444l307 325h625z" />
    <glyph glyph-name="Ocircumflex" unicode="&#xd4;" horiz-adv-x="1751" 
d="M430 43l-2 -2q-161 69 -254 219q-92 148 -92 358q0 236 117 461q115 222 336 365q217 141 503 141q204 0 371 -72q163 -70 254 -217q92 -148 92 -358q0 -236 -117 -461q-116 -223 -333 -364q-219 -142 -504 -142q-204 0 -371 72zM1067 403l-4 -2q101 82 158 226
q55 140 55 311q0 137 -72 215t-196 78q-136 0 -240 -84q-102 -82 -158 -225q-55 -140 -55 -312q0 -138 74 -215q73 -76 200 -76q134 0 238 84zM1444 1980l205 -325h-392l-124 141l-170 -141h-404l322 325h563z" />
    <glyph glyph-name="Otilde" unicode="&#xd5;" horiz-adv-x="1751" 
d="M430 43l-2 -2q-161 69 -254 219q-92 148 -92 358q0 236 117 461q115 222 336 365q217 141 503 141q204 0 371 -72q163 -70 254 -217q92 -148 92 -358q0 -236 -117 -461q-116 -223 -333 -364q-219 -142 -504 -142q-204 0 -371 72zM1067 403l-4 -2q101 82 158 226
q55 140 55 311q0 137 -72 215t-196 78q-136 0 -240 -84q-102 -82 -158 -225q-55 -140 -55 -312q0 -138 74 -215q73 -76 200 -76q134 0 238 84zM686 1661l-4 -2q41 179 125 272q85 94 203 94q49 0 92 -14q34 -11 80 -31q33 -15 65 -24q27 -8 64 -8q45 0 82 24q36 23 55 62
h135q-41 -178 -123 -273q-82 -94 -200 -94q-46 0 -93 12q-33 8 -80 29q-45 20 -63 25q-33 10 -63 10q-43 0 -82 -25t-56 -57h-137z" />
    <glyph glyph-name="Odieresis" unicode="&#xd6;" horiz-adv-x="1751" 
d="M430 43l-2 -2q-161 69 -254 219q-92 148 -92 358q0 236 117 461q115 222 336 365q217 141 503 141q204 0 371 -72q163 -70 254 -217q92 -148 92 -358q0 -236 -117 -461q-116 -223 -333 -364q-219 -142 -504 -142q-204 0 -371 72zM1067 403l-4 -2q101 82 158 226
q55 140 55 311q0 137 -72 215t-196 78q-136 0 -240 -84q-102 -82 -158 -225q-55 -140 -55 -312q0 -138 74 -215q73 -76 200 -76q134 0 238 84zM1053 1655h-469l67 325h469zM1602 1655h-469l67 325h469z" />
    <glyph glyph-name="multiply" unicode="&#xd7;" horiz-adv-x="1327" 
d="M993 1120l226 -225l-328 -328l328 -327l-226 -228l-327 328l-328 -328l-227 228l327 327l-327 328l227 225l328 -327z" />
    <glyph glyph-name="Oslash" unicode="&#xd8;" horiz-adv-x="1751" 
d="M2030 1556l-344 -301q69 -132 69 -317q0 -236 -117 -461q-116 -223 -333 -364q-219 -142 -504 -142q-124 0 -246 29q-111 26 -203 84l-96 -84h-446l344 301q-70 134 -70 317q0 236 117 461q115 222 336 365q218 141 503 141q124 0 246 -29q114 -27 203 -86l96 86h445z
M780 1157v-2q-98 -74 -155 -209q-55 -131 -64 -291l610 535q-61 43 -157 43q-133 0 -234 -76zM1061 395v-2q96 75 153 209q57 136 66 293l-608 -535q64 -43 159 -43q129 0 230 78z" />
    <glyph glyph-name="Ugrave" unicode="&#xd9;" horiz-adv-x="1611" 
d="M387 31l8 -2q-143 62 -213 170q-71 109 -71 252q0 79 22 192l193 911h465l-211 -1001q-9 -30 -9 -66q0 -78 50 -122q49 -43 139 -43q120 0 190 73q72 75 99 201l204 960h465l-200 -942q-46 -213 -142 -356q-95 -141 -254 -215q-160 -74 -393 -74q-200 0 -342 62z
M1280 1655h-430l-344 325h602z" />
    <glyph glyph-name="Uacute" unicode="&#xda;" horiz-adv-x="1611" 
d="M387 31l8 -2q-143 62 -213 170q-71 109 -71 252q0 79 22 192l193 911h465l-211 -1001q-9 -30 -9 -66q0 -78 50 -122q49 -43 139 -43q120 0 190 73q72 75 99 201l204 960h465l-200 -942q-46 -213 -142 -356q-95 -141 -254 -215q-160 -74 -393 -74q-200 0 -342 62z
M1227 1655h-445l308 325h624z" />
    <glyph glyph-name="Ucircumflex" unicode="&#xdb;" horiz-adv-x="1611" 
d="M387 31l8 -2q-143 62 -213 170q-71 109 -71 252q0 79 22 192l193 911h465l-211 -1001q-9 -30 -9 -66q0 -78 50 -122q49 -43 139 -43q120 0 190 73q72 75 99 201l204 960h465l-200 -942q-46 -213 -142 -356q-95 -141 -254 -215q-160 -74 -393 -74q-200 0 -342 62z
M1384 1980l205 -325h-391l-125 141l-170 -141h-403l321 325h563z" />
    <glyph glyph-name="Udieresis" unicode="&#xdc;" horiz-adv-x="1611" 
d="M387 31l8 -2q-143 62 -213 170q-71 109 -71 252q0 79 22 192l193 911h465l-211 -1001q-9 -30 -9 -66q0 -78 50 -122q49 -43 139 -43q120 0 190 73q72 75 99 201l204 960h465l-200 -942q-46 -213 -142 -356q-95 -141 -254 -215q-160 -74 -393 -74q-200 0 -342 62z
M993 1655h-469l68 325h469zM1542 1655h-469l68 325h469z" />
    <glyph glyph-name="Yacute" unicode="&#xdd;" horiz-adv-x="1515" 
d="M1212 1556h551l-770 -972l-125 -584h-465l132 625l-371 931h483l195 -534zM1128 1659h-444l307 326h625z" />
    <glyph glyph-name="Thorn" unicode="&#xde;" horiz-adv-x="1507" 
d="M909 1333l-2 -2q178 0 312 -55q137 -56 213 -164q77 -109 77 -258q0 -161 -84 -295q-83 -133 -251 -209q-173 -78 -418 -78h-230l-57 -272h-465l330 1556h465l-47 -223h157zM805 631l-2 2q78 0 129 26q52 27 80 72q26 42 26 98q0 68 -43 105t-118 37h-203l-74 -340h205z
" />
    <glyph glyph-name="germandbls" unicode="&#xdf;" horiz-adv-x="1394" 
d="M1141 756l-11 -6q76 -37 125 -107q50 -71 50 -168q0 -148 -62 -266q-61 -115 -184 -180q-122 -64 -297 -64q-147 0 -250 41l59 277q22 -14 47 -21q21 -6 50 -6q87 0 137 68q49 67 49 170q0 73 -43 116t-113 43h-28l61 291h17q69 0 116 35q48 35 68 86q20 50 20 111
q0 53 -26 86q-25 32 -80 32q-77 0 -123 -55q-48 -57 -68 -156l-229 -1083h-451l218 1028q59 278 245 418q188 141 475 141q244 0 369 -98q127 -100 127 -281q0 -111 -55 -196q-57 -88 -154 -142q-98 -55 -223 -73q87 -3 164 -41z" />
    <glyph glyph-name="agrave" unicode="&#xe0;" horiz-adv-x="1341" 
d="M1149 1063l-2 -8q143 -91 143 -279q0 -50 -12 -112l-143 -672h-443l39 182q-60 -95 -156 -151q-102 -60 -223 -60q-98 0 -178 41t-127 115q-45 71 -45 170q0 182 133 282q132 99 393 123l310 27l2 8q8 27 8 53q0 51 -27 78q-29 29 -80 29q-60 0 -102 -31q-41 -31 -59 -88
h-447q39 124 125 207q90 87 215 133q122 45 277 45q254 0 399 -92zM700 285h-2q60 70 84 182v2l-141 -12q-91 -9 -139 -43q-49 -34 -49 -95q0 -48 30 -75t78 -27q80 0 139 68zM1014 1212h-416l-322 334h588z" />
    <glyph glyph-name="aacute" unicode="&#xe1;" horiz-adv-x="1341" 
d="M1149 1063l-2 -8q143 -91 143 -279q0 -50 -12 -112l-143 -672h-443l39 182q-60 -95 -156 -151q-102 -60 -223 -60q-98 0 -178 41t-127 115q-45 71 -45 170q0 182 133 282q132 99 393 123l310 27l2 8q8 27 8 53q0 51 -27 78q-29 29 -80 29q-60 0 -102 -31q-41 -31 -59 -88
h-447q39 124 125 207q90 87 215 133q122 45 277 45q254 0 399 -92zM700 285h-2q60 70 84 182v2l-141 -12q-91 -9 -139 -43q-49 -34 -49 -95q0 -48 30 -75t78 -27q80 0 139 68zM975 1212h-422l287 334h608z" />
    <glyph glyph-name="acircumflex" unicode="&#xe2;" horiz-adv-x="1341" 
d="M1149 1063l-2 -8q143 -91 143 -279q0 -50 -12 -112l-143 -672h-443l39 182q-60 -95 -156 -151q-102 -60 -223 -60q-98 0 -178 41t-127 115q-45 71 -45 170q0 182 133 282q132 99 393 123l310 27l2 8q8 27 8 53q0 51 -27 78q-29 29 -80 29q-60 0 -102 -31q-41 -31 -59 -88
h-447q39 124 125 207q90 87 215 133q122 45 277 45q254 0 399 -92zM700 285h-2q60 70 84 182v2l-141 -12q-91 -9 -139 -43q-49 -34 -49 -95q0 -48 30 -75t78 -27q80 0 139 68zM1118 1546l201 -334h-377l-121 156l-182 -156h-383l319 334h543z" />
    <glyph glyph-name="atilde" unicode="&#xe3;" horiz-adv-x="1341" 
d="M1149 1063l-2 -8q143 -91 143 -279q0 -50 -12 -112l-143 -672h-443l39 182q-60 -95 -156 -151q-102 -60 -223 -60q-98 0 -178 41t-127 115q-45 71 -45 170q0 182 133 282q132 99 393 123l310 27l2 8q8 27 8 53q0 51 -27 78q-29 29 -80 29q-60 0 -102 -31q-41 -31 -59 -88
h-447q39 124 125 207q90 87 215 133q122 45 277 45q254 0 399 -92zM700 285h-2q60 70 84 182v2l-141 -12q-91 -9 -139 -43q-49 -34 -49 -95q0 -48 30 -75t78 -27q80 0 139 68zM403 1223v2q41 178 119 268q80 92 191 92q45 0 86 -14q35 -12 73 -31q24 -12 60 -24q27 -9 59 -9
q42 0 78 25q34 24 49 61h131q-41 -180 -119 -270q-80 -92 -192 -92q-45 0 -86 14q-39 13 -74 31q-62 33 -114 33q-44 0 -80 -25q-34 -24 -49 -61h-132z" />
    <glyph glyph-name="adieresis" unicode="&#xe4;" horiz-adv-x="1341" 
d="M1149 1063l-2 -8q143 -91 143 -279q0 -50 -12 -112l-143 -672h-443l39 182q-60 -95 -156 -151q-102 -60 -223 -60q-98 0 -178 41t-127 115q-45 71 -45 170q0 182 133 282q132 99 393 123l310 27l2 8q8 27 8 53q0 51 -27 78q-29 29 -80 29q-60 0 -102 -31q-41 -31 -59 -88
h-447q39 124 125 207q90 87 215 133q122 45 277 45q254 0 399 -92zM700 285h-2q60 70 84 182v2l-141 -12q-91 -9 -139 -43q-49 -34 -49 -95q0 -48 30 -75t78 -27q80 0 139 68zM735 1221h-454l67 325h455zM1286 1221h-455l68 325h455z" />
    <glyph glyph-name="aring" unicode="&#xe5;" horiz-adv-x="1341" 
d="M1149 1063l-2 -8q143 -91 143 -279q0 -50 -12 -112l-143 -672h-443l39 182q-60 -95 -156 -151q-102 -60 -223 -60q-98 0 -178 41t-127 115q-45 71 -45 170q0 182 133 282q132 99 393 123l310 27l2 8q8 27 8 53q0 51 -27 78q-29 29 -80 29q-60 0 -102 -31q-41 -31 -59 -88
h-447q39 124 125 207q90 87 215 133q122 45 277 45q254 0 399 -92zM700 285h-2q60 70 84 182v2l-141 -12q-91 -9 -139 -43q-49 -34 -49 -95q0 -48 30 -75t78 -27q80 0 139 68zM688 1235l-2 2q-57 29 -92 86q-33 53 -33 129q0 86 39 154q40 69 111 110t153 41q69 0 129 -31
t90 -86q31 -57 31 -131q0 -81 -39 -149q-41 -71 -106 -113q-67 -43 -152 -43q-69 0 -129 31zM885 1436v2q22 22 22 55q0 26 -18 41q-19 16 -43 16q-33 0 -55 -22q-23 -23 -23 -55q0 -28 18 -43q20 -17 43 -17q33 0 56 23z" />
    <glyph glyph-name="ae" unicode="&#xe6;" horiz-adv-x="2091" 
d="M1235 446l-8 -32q0 -189 123 -189q52 0 96 27t74 80h446q-90 -184 -252 -275q-164 -92 -377 -92q-168 0 -262 55q-96 57 -157 166q-82 -105 -211 -163q-132 -60 -304 -60q-109 0 -202 41t-148 117t-55 178q0 127 65 213q65 87 185 133q116 45 287 45h296l9 41q8 27 8 53
q0 51 -27 78q-29 29 -80 29q-59 0 -104 -31q-42 -29 -57 -88h-449q38 121 127 207q90 87 215 133q122 45 277 45q133 0 223 -43q91 -43 137 -119q79 79 184 121q107 43 232 43q249 0 387 -117q139 -118 139 -350q0 -52 -10 -117q-8 -52 -31 -129h-776zM1366 827v-2
q-58 -55 -92 -143h328q12 38 12 66q0 59 -31 98q-30 37 -86 37q-72 0 -131 -56zM690 274h-2q57 54 84 158h-133q-193 0 -193 -110q0 -46 31 -74q30 -27 80 -27q77 0 133 53z" />
    <glyph glyph-name="ccedilla" unicode="&#xe7;" horiz-adv-x="1312" 
d="M729 305v-6q50 47 80 123h446q-43 -127 -129 -227q-85 -99 -211 -160q-125 -61 -288 -70l-6 -33q65 -9 104 -45t39 -94q0 -64 -35 -117q-34 -52 -96 -79q-61 -27 -141 -27h-189l37 172h82q31 0 49 12t18 35q0 31 -49 31h-47l35 162q-123 25 -207 88q-87 66 -133 159
q-47 96 -47 215q0 187 86 351q85 163 252 262q165 98 393 98q158 0 277 -55q121 -56 188 -160t70 -248h-449q-3 82 -31 127q-27 43 -92 43q-71 0 -125 -63q-56 -66 -86 -166q-30 -102 -30 -203q0 -86 30 -129t90 -43q65 0 115 47z" />
    <glyph glyph-name="egrave" unicode="&#xe8;" horiz-adv-x="1331" 
d="M475 446l-8 -20q0 -188 121 -188q56 0 96 24q37 22 74 78h446q-89 -183 -252 -274q-166 -93 -374 -93q-165 0 -291 60q-123 58 -187 166q-65 109 -65 252q0 180 86 344q84 161 252 264q163 100 393 100q249 0 387 -117q139 -118 139 -350q0 -52 -10 -117q-8 -52 -31 -129
h-776zM606 840v-2q-57 -54 -92 -144h328q12 38 12 66q0 59 -31 98q-30 37 -86 37q-73 0 -131 -55zM981 1221h-416l-321 333h587z" />
    <glyph glyph-name="eacute" unicode="&#xe9;" horiz-adv-x="1331" 
d="M475 446l-8 -20q0 -188 121 -188q56 0 96 24q37 22 74 78h446q-89 -183 -252 -274q-166 -93 -374 -93q-165 0 -291 60q-123 58 -187 166q-65 109 -65 252q0 180 86 344q84 161 252 264q163 100 393 100q249 0 387 -117q139 -118 139 -350q0 -52 -10 -117q-8 -52 -31 -129
h-776zM606 840v-2q-57 -54 -92 -144h328q12 38 12 66q0 59 -31 98q-30 37 -86 37q-73 0 -131 -55zM979 1221h-422l287 333h608z" />
    <glyph glyph-name="ecircumflex" unicode="&#xea;" horiz-adv-x="1331" 
d="M475 446l-8 -20q0 -188 121 -188q56 0 96 24q37 22 74 78h446q-89 -183 -252 -274q-166 -93 -374 -93q-165 0 -291 60q-123 58 -187 166q-65 109 -65 252q0 180 86 344q84 161 252 264q163 100 393 100q249 0 387 -117q139 -118 139 -350q0 -52 -10 -117q-8 -52 -31 -129
h-776zM606 840v-2q-57 -54 -92 -144h328q12 38 12 66q0 59 -31 98q-30 37 -86 37q-73 0 -131 -55zM1122 1554l201 -333h-377l-121 155l-182 -155h-383l320 333h542z" />
    <glyph glyph-name="edieresis" unicode="&#xeb;" horiz-adv-x="1331" 
d="M475 446l-8 -20q0 -188 121 -188q56 0 96 24q37 22 74 78h446q-89 -183 -252 -274q-166 -93 -374 -93q-165 0 -291 60q-123 58 -187 166q-65 109 -65 252q0 180 86 344q84 161 252 264q163 100 393 100q249 0 387 -117q139 -118 139 -350q0 -52 -10 -117q-8 -52 -31 -129
h-776zM606 840v-2q-57 -54 -92 -144h328q12 38 12 66q0 59 -31 98q-30 37 -86 37q-73 0 -131 -55zM737 1229h-454l67 325h455zM1288 1229h-454l67 325h455z" />
    <glyph glyph-name="igrave" unicode="&#xec;" horiz-adv-x="649" 
d="M430 0h-450l239 1128h451zM662 1223h-416l-322 333h588z" />
    <glyph glyph-name="iacute" unicode="&#xed;" horiz-adv-x="649" 
d="M430 0h-450l239 1128h451zM680 1223h-422l287 333h608z" />
    <glyph glyph-name="icircumflex" unicode="&#xee;" horiz-adv-x="649" 
d="M430 0h-450l239 1128h451zM797 1556l200 -333h-376l-121 155l-183 -155h-383l320 333h543z" />
    <glyph glyph-name="idieresis" unicode="&#xef;" horiz-adv-x="649" 
d="M430 0h-450l239 1128h451zM414 1231h-455l68 325h454zM965 1231h-455l68 325h454z" />
    <glyph glyph-name="eth" unicode="&#xf0;" horiz-adv-x="1378" 
d="M1202 1331l-8 2q73 -107 113 -223q39 -113 39 -264q0 -252 -93 -455q-91 -197 -264 -309q-173 -111 -405 -111q-167 0 -291 56t-191 163t-67 259q0 171 76 323q78 156 208 246q133 92 295 92q118 0 185 -61q66 -60 94 -158q-6 167 -115 332l-274 -72l-12 186l153 39
q-98 95 -246 180h605l67 -69l252 65l12 -186zM758 322h2q60 60 90 151q31 95 31 186q0 82 -37 125t-101 43q-76 0 -135 -59q-57 -57 -88 -152t-31 -186q0 -81 35 -125q34 -43 99 -43q75 0 135 60z" />
    <glyph glyph-name="ntilde" unicode="&#xf1;" horiz-adv-x="1363" 
d="M1182 1118l2 -2q71 -41 104 -106q35 -68 35 -154q0 -60 -16 -151l-152 -707h-450l133 625q14 66 14 116q0 52 -25 80q-26 29 -69 29q-70 0 -123 -62t-80 -190l-127 -598h-451l240 1128h442l-49 -229q64 113 168 186q106 74 226 74q110 0 178 -39zM440 1231v2
q41 178 119 268q80 92 191 92q45 0 86 -14q35 -12 73 -31q24 -12 60 -24q24 -8 59 -8q44 0 78 24q34 23 49 62h131q-41 -181 -119 -271q-80 -92 -192 -92q-45 0 -86 14q-39 13 -74 31q-62 33 -115 33q-43 0 -79 -25q-35 -25 -50 -61h-131z" />
    <glyph glyph-name="ograve" unicode="&#xf2;" horiz-adv-x="1378" 
d="M301 27l-2 4q-125 55 -193 164q-67 107 -67 258q0 180 86 344t254 262t405 98q170 0 295 -55q128 -56 195 -164q67 -107 67 -258q0 -180 -86 -344q-85 -162 -254 -264q-168 -101 -405 -101q-168 0 -295 56zM762 328l2 -4q61 67 90 163q31 102 31 203q0 90 -37 133
t-100 43q-79 0 -136 -63q-58 -63 -88 -164q-30 -99 -30 -203q0 -88 34 -131t99 -43q75 0 135 66zM1036 1221h-415l-322 333h588z" />
    <glyph glyph-name="oacute" unicode="&#xf3;" horiz-adv-x="1378" 
d="M301 27l-2 4q-125 55 -193 164q-67 107 -67 258q0 180 86 344t254 262t405 98q170 0 295 -55q128 -56 195 -164q67 -107 67 -258q0 -180 -86 -344q-85 -162 -254 -264q-168 -101 -405 -101q-168 0 -295 56zM762 328l2 -4q61 67 90 163q31 102 31 203q0 90 -37 133
t-100 43q-79 0 -136 -63q-58 -63 -88 -164q-30 -99 -30 -203q0 -88 34 -131t99 -43q75 0 135 66zM999 1221h-421l286 333h609z" />
    <glyph glyph-name="ocircumflex" unicode="&#xf4;" horiz-adv-x="1378" 
d="M301 27l-2 4q-125 55 -193 164q-67 107 -67 258q0 180 86 344t254 262t405 98q170 0 295 -55q128 -56 195 -164q67 -107 67 -258q0 -180 -86 -344q-85 -162 -254 -264q-168 -101 -405 -101q-168 0 -295 56zM762 328l2 -4q61 67 90 163q31 102 31 203q0 90 -37 133
t-100 43q-79 0 -136 -63q-58 -63 -88 -164q-30 -99 -30 -203q0 -88 34 -131t99 -43q75 0 135 66zM1143 1554l200 -333h-376l-121 155l-182 -155h-383l319 333h543z" />
    <glyph glyph-name="otilde" unicode="&#xf5;" horiz-adv-x="1378" 
d="M301 27l-2 4q-125 55 -193 164q-67 107 -67 258q0 180 86 344t254 262t405 98q170 0 295 -55q128 -56 195 -164q67 -107 67 -258q0 -180 -86 -344q-85 -162 -254 -264q-168 -101 -405 -101q-168 0 -295 56zM762 328l2 -4q61 67 90 163q31 102 31 203q0 90 -37 133
t-100 43q-79 0 -136 -63q-58 -63 -88 -164q-30 -99 -30 -203q0 -88 34 -131t99 -43q75 0 135 66zM426 1231v2q41 178 119 268q80 92 190 92q45 0 86 -14q39 -13 74 -31q26 -13 59 -24q24 -8 60 -8q44 0 78 24q34 23 49 62h131q-41 -181 -119 -271q-80 -92 -192 -92
q-46 0 -87 14q-35 12 -73 31q-62 33 -115 33q-44 0 -80 -25q-34 -24 -49 -61h-131z" />
    <glyph glyph-name="odieresis" unicode="&#xf6;" horiz-adv-x="1378" 
d="M301 27l-2 4q-125 55 -193 164q-67 107 -67 258q0 180 86 344t254 262t405 98q170 0 295 -55q128 -56 195 -164q67 -107 67 -258q0 -180 -86 -344q-85 -162 -254 -264q-168 -101 -405 -101q-168 0 -295 56zM762 328l2 -4q61 67 90 163q31 102 31 203q0 90 -37 133
t-100 43q-79 0 -136 -63q-58 -63 -88 -164q-30 -99 -30 -203q0 -88 34 -131t99 -43q75 0 135 66zM758 1229h-455l68 325h454zM1309 1229h-455l68 325h454z" />
    <glyph glyph-name="divide" unicode="&#xf7;" horiz-adv-x="1339" 
d="M856 825h-373v303h373v-303zM1233 403h-1129v330h1129v-330zM856 0h-373v305h373v-305z" />
    <glyph glyph-name="oslash" unicode="&#xf8;" horiz-adv-x="1378" 
d="M1507 1128l-233 -194q65 -109 65 -252q0 -180 -86 -344q-85 -162 -254 -264q-168 -101 -405 -101q-205 0 -342 82l-64 -53h-317l231 199q-63 105 -63 252q0 180 86 344t254 262t405 98q203 0 344 -84l64 55h315zM631 825v-2q-50 -44 -86 -121q-33 -69 -45 -161l342 293
q-33 36 -94 36q-66 0 -117 -45zM745 307l3 -2q50 44 86 121q32 68 45 164l-342 -293q34 -37 92 -37q63 0 116 47z" />
    <glyph glyph-name="ugrave" unicode="&#xf9;" horiz-adv-x="1355" 
d="M926 1128h450l-239 -1128h-445l49 229q-61 -111 -163 -184q-103 -74 -222 -74q-106 0 -174 39q-70 40 -104 107q-35 68 -35 153q0 74 16 152l150 706h453l-134 -624q-16 -88 -16 -119q0 -50 23 -80q23 -29 67 -29q142 0 197 254zM1049 1223h-416l-322 333h588z" />
    <glyph glyph-name="uacute" unicode="&#xfa;" horiz-adv-x="1355" 
d="M926 1128h450l-239 -1128h-445l49 229q-61 -111 -163 -184q-103 -74 -222 -74q-106 0 -174 39q-70 40 -104 107q-35 68 -35 153q0 74 16 152l150 706h453l-134 -624q-16 -88 -16 -119q0 -50 23 -80q23 -29 67 -29q142 0 197 254zM1010 1223h-422l286 333h609z" />
    <glyph glyph-name="ucircumflex" unicode="&#xfb;" horiz-adv-x="1355" 
d="M926 1128h450l-239 -1128h-445l49 229q-61 -111 -163 -184q-103 -74 -222 -74q-106 0 -174 39q-70 40 -104 107q-35 68 -35 153q0 74 16 152l150 706h453l-134 -624q-16 -88 -16 -119q0 -50 23 -80q23 -29 67 -29q142 0 197 254zM1155 1556l201 -333h-377l-121 155
l-182 -155h-383l319 333h543z" />
    <glyph glyph-name="udieresis" unicode="&#xfc;" horiz-adv-x="1355" 
d="M926 1128h450l-239 -1128h-445l49 229q-61 -111 -163 -184q-103 -74 -222 -74q-106 0 -174 39q-70 40 -104 107q-35 68 -35 153q0 74 16 152l150 706h453l-134 -624q-16 -88 -16 -119q0 -50 23 -80q23 -29 67 -29q142 0 197 254zM770 1231h-455l68 325h455zM1321 1231
h-455l68 325h455z" />
    <glyph glyph-name="yacute" unicode="&#xfd;" horiz-adv-x="1316" 
d="M569 252l383 876h475l-686 -1529h-456l223 510h-342l-43 1019h434zM963 1223h-422l286 333h609z" />
    <glyph glyph-name="thorn" unicode="&#xfe;" horiz-adv-x="1400" 
d="M1192 1102l-4 -4q81 -55 125 -154q43 -98 43 -227q0 -191 -72 -367q-70 -171 -205 -276t-309 -105q-113 0 -190 62q-78 63 -115 172l-127 -604h-442l323 1529l90 428h443l-90 -428l-50 -229q56 112 156 184q103 74 227 74q115 0 197 -55zM782 319l2 -2q61 67 90 164
q31 102 31 203q0 90 -37 133t-100 43q-78 0 -135 -63q-58 -64 -88 -166q-31 -105 -31 -203q0 -87 35 -131q34 -43 98 -43q76 0 135 65z" />
    <glyph glyph-name="ydieresis" unicode="&#xff;" horiz-adv-x="1316" 
d="M569 252l383 876h475l-686 -1529h-456l223 510h-342l-43 1019h434zM723 1231h-455l68 325h455zM1274 1231h-455l68 325h454z" />
    <glyph glyph-name="Amacron" unicode="&#x100;" horiz-adv-x="1695" 
d="M1591 0h-465l-20 360h-574l-176 -360h-491l799 1556h792zM1042 1411l-331 -682h372zM1540 1671h-938l64 303h940z" />
    <glyph glyph-name="amacron" unicode="&#x101;" horiz-adv-x="1341" 
d="M1149 1063l-2 -8q143 -91 143 -279q0 -50 -12 -112l-143 -672h-443l39 182q-60 -95 -156 -151q-102 -60 -223 -60q-98 0 -178 41t-127 115q-45 71 -45 170q0 182 133 282q132 99 393 123l310 27l2 8q8 27 8 53q0 51 -27 78q-29 29 -80 29q-60 0 -102 -31q-41 -31 -59 -88
h-447q39 124 125 207q90 87 215 133q122 45 277 45q254 0 399 -92zM700 285h-2q60 70 84 182v2l-141 -12q-91 -9 -139 -43q-49 -34 -49 -95q0 -48 30 -75t78 -27q80 0 139 68zM1219 1229h-863l64 299h862z" />
    <glyph glyph-name="Abreve" unicode="&#x102;" horiz-adv-x="1695" 
d="M1591 0h-465l-20 360h-574l-176 -360h-491l799 1556h792zM1042 1411l-331 -682h372zM870 1690l4 4q-91 30 -147 92q-55 61 -55 149q0 30 4 54h295q-3 -40 35 -64t100 -24q64 0 111 24t53 62h295q-35 -164 -160 -246t-328 -82q-112 0 -207 31z" />
    <glyph glyph-name="abreve" unicode="&#x103;" horiz-adv-x="1341" 
d="M1149 1063l-2 -8q143 -91 143 -279q0 -50 -12 -112l-143 -672h-443l39 182q-60 -95 -156 -151q-102 -60 -223 -60q-98 0 -178 41t-127 115q-45 71 -45 170q0 182 133 282q132 99 393 123l310 27l2 8q8 27 8 53q0 51 -27 78q-29 29 -80 29q-60 0 -102 -31q-41 -31 -59 -88
h-447q39 124 125 207q90 87 215 133q122 45 277 45q254 0 399 -92zM700 285h-2q60 70 84 182v2l-141 -12q-91 -9 -139 -43q-49 -34 -49 -95q0 -48 30 -75t78 -27q80 0 139 68zM590 1239l-4 -4q-87 35 -135 98q-50 65 -50 150q0 26 7 61h301q-2 -6 -2 -24q0 -41 30 -62
q29 -20 84 -20q61 0 103 28q41 27 53 78h301q-21 -97 -88 -172q-68 -77 -172 -123q-102 -45 -236 -45q-105 0 -192 35z" />
    <glyph glyph-name="Aogonek" unicode="&#x104;" horiz-adv-x="1695" 
d="M1589 0l-2 -4q-104 -22 -162 -49q-51 -23 -51 -53q0 -22 19 -31q16 -8 65 -8h98l-59 -281h-160q-175 0 -264 53q-88 52 -88 146q0 133 141 227l-20 360h-574l-176 -360h-491l799 1556h792l135 -1556h-2zM1040 1407l-331 -682h372z" />
    <glyph glyph-name="aogonek" unicode="&#x105;" horiz-adv-x="1341" 
d="M1149 1063l-8 -14q143 -91 143 -279q0 -52 -12 -113l-144 -671q-106 -22 -167 -52q-56 -27 -56 -57q0 -22 27 -31q24 -8 80 -8h88l-58 -272h-161q-176 0 -265 53q-88 52 -88 145q0 66 43 121q41 52 121 107l39 182q-60 -95 -156 -151q-102 -60 -223 -60q-98 0 -178 41
t-127 115q-45 71 -45 170q0 182 133 282q132 99 393 123l310 27l2 8q8 27 8 53q0 51 -27 78q-29 29 -80 29q-60 0 -102 -31q-41 -31 -59 -88h-447q39 124 125 207q90 87 215 133q122 45 277 45q254 0 399 -92zM694 279h-2q60 70 84 182v2l-141 -12q-91 -9 -139 -43
q-50 -35 -50 -95q0 -47 31 -75q30 -27 78 -27q80 0 139 68z" />
    <glyph glyph-name="Cacute" unicode="&#x106;" horiz-adv-x="1667" 
d="M424 43h2q-158 71 -246 215q-90 146 -90 354q0 236 117 461q118 226 332 367q215 141 491 141q207 0 361 -74q152 -73 239 -207q87 -135 96 -307h-481q-12 113 -74 178q-61 64 -180 64q-123 0 -223 -86q-99 -85 -154 -229q-55 -143 -55 -314q0 -86 31 -153q29 -63 90 -99
q54 -32 135 -32q111 0 203 65q90 64 143 178h484q-91 -279 -312 -438q-217 -156 -553 -156q-197 0 -356 72zM1253 1659h-444l307 326h625z" />
    <glyph glyph-name="cacute" unicode="&#x107;" horiz-adv-x="1312" 
d="M291 29l2 -2q-123 58 -187 166q-65 109 -65 251q0 187 86 351q85 163 252 262q165 98 393 98q158 0 277 -55q121 -56 188 -160t70 -248h-449q-3 82 -31 127q-27 43 -92 43q-71 0 -125 -63q-56 -66 -86 -166q-30 -102 -30 -203q0 -86 30 -129t90 -43q65 0 115 47t80 123
h446q-47 -137 -137 -240q-88 -101 -229 -161q-137 -58 -314 -58q-158 0 -284 60zM971 1219h-422l287 333h608z" />
    <glyph glyph-name="Ccircumflex" unicode="&#x108;" horiz-adv-x="1667" 
d="M424 43h2q-158 71 -246 215q-90 146 -90 354q0 236 117 461q118 226 332 367q215 141 491 141q207 0 361 -74q152 -73 239 -207q87 -135 96 -307h-481q-12 113 -74 178q-61 64 -180 64q-123 0 -223 -86q-99 -85 -154 -229q-55 -143 -55 -314q0 -86 31 -153q29 -63 90 -99
q54 -32 135 -32q111 0 203 65q90 64 143 178h484q-91 -279 -312 -438q-217 -156 -553 -156q-197 0 -356 72zM1411 1985l205 -326h-391l-125 141l-170 -141h-404l322 326h563z" />
    <glyph glyph-name="ccircumflex" unicode="&#x109;" horiz-adv-x="1312" 
d="M291 29l2 -2q-123 58 -187 166q-65 109 -65 251q0 187 86 351q85 163 252 262q165 98 393 98q158 0 277 -55q121 -56 188 -160t70 -248h-449q-3 82 -31 127q-27 43 -92 43q-71 0 -125 -63q-56 -66 -86 -166q-30 -102 -30 -203q0 -86 30 -129t90 -43q65 0 115 47t80 123
h446q-47 -137 -137 -240q-88 -101 -229 -161q-137 -58 -314 -58q-158 0 -284 60zM1114 1552l201 -333h-377l-121 155l-182 -155h-383l319 333h543z" />
    <glyph glyph-name="Cdotaccent" unicode="&#x10a;" horiz-adv-x="1667" 
d="M424 43h2q-158 71 -246 215q-90 146 -90 354q0 236 117 461q118 226 332 367q215 141 491 141q207 0 361 -74q152 -73 239 -207q87 -135 96 -307h-481q-12 113 -74 178q-61 64 -180 64q-123 0 -223 -86q-99 -85 -154 -229q-55 -143 -55 -314q0 -86 31 -153q29 -63 90 -99
q54 -32 135 -32q111 0 203 65q90 64 143 178h484q-91 -279 -312 -438q-217 -156 -553 -156q-197 0 -356 72zM1296 1659h-469l68 326h469z" />
    <glyph glyph-name="cdotaccent" unicode="&#x10b;" horiz-adv-x="1312" 
d="M291 29l2 -2q-123 58 -187 166q-65 109 -65 251q0 187 86 351q85 163 252 262q165 98 393 98q158 0 277 -55q121 -56 188 -160t70 -248h-449q-3 82 -31 127q-27 43 -92 43q-71 0 -125 -63q-56 -66 -86 -166q-30 -102 -30 -203q0 -86 30 -129t90 -43q65 0 115 47t80 123
h446q-47 -137 -137 -240q-88 -101 -229 -161q-137 -58 -314 -58q-158 0 -284 60zM1010 1227h-455l68 325h454z" />
    <glyph glyph-name="Ccaron" unicode="&#x10c;" horiz-adv-x="1667" 
d="M424 43h2q-158 71 -246 215q-90 146 -90 354q0 236 117 461q118 226 332 367q215 141 491 141q207 0 361 -74q152 -73 239 -207q87 -135 96 -307h-481q-12 113 -74 178q-61 64 -180 64q-123 0 -223 -86q-99 -85 -154 -229q-55 -143 -55 -314q0 -86 31 -153q29 -63 90 -99
q54 -32 135 -32q111 0 203 65q90 64 143 178h484q-91 -279 -312 -438q-217 -156 -553 -156q-197 0 -356 72zM1092 1845l170 140h403l-322 -326h-563l-205 326h392z" />
    <glyph glyph-name="ccaron" unicode="&#x10d;" horiz-adv-x="1312" 
d="M291 29l2 -2q-123 58 -187 166q-65 109 -65 251q0 187 86 351q85 163 252 262q165 98 393 98q158 0 277 -55q121 -56 188 -160t70 -248h-449q-3 82 -31 127q-27 43 -92 43q-71 0 -125 -63q-56 -66 -86 -166q-30 -102 -30 -203q0 -86 30 -129t90 -43q65 0 115 47t80 123
h446q-47 -137 -137 -240q-88 -101 -229 -161q-137 -58 -314 -58q-158 0 -284 60zM813 1395l180 157h385l-321 -333h-541l-201 333h377z" />
    <glyph glyph-name="Dcaron" unicode="&#x10e;" horiz-adv-x="1638" 
d="M901 1556v-2q199 0 367 -71q163 -69 264 -213q98 -140 98 -346q0 -317 -131 -521q-133 -207 -356 -305t-504 -98h-635l330 1556h567zM682 367v2q151 0 258 67q108 67 164 189q55 119 55 274q0 90 -37 154q-38 65 -100 98q-65 35 -154 35h-147l-174 -819h135zM965 1845
l170 140h403l-321 -326h-564l-204 326h391z" />
    <glyph glyph-name="dcaron" unicode="&#x10f;" horiz-adv-x="1404" 
d="M1071 1556l440 7l-329 -1557h-445l39 187q-56 -96 -143 -156q-89 -62 -211 -62q-113 0 -199 50q-87 50 -135 147q-49 98 -49 240q0 188 72 364q70 171 206 277q134 104 312 104q83 0 147 -37q66 -38 103 -96q38 -59 53 -127zM762 330l2 -2q61 67 90 164q31 102 31 202
q0 90 -37 133t-100 43q-79 0 -136 -63q-58 -64 -88 -166t-30 -203q0 -88 34 -131t99 -43q75 0 135 66zM1825 1171h-305l110 388h383z" />
    <glyph glyph-name="Dcroat" unicode="&#x110;" horiz-adv-x="1683" 
d="M946 1556v-2q199 0 367 -71q163 -69 264 -213q98 -140 98 -346q0 -317 -131 -521q-133 -207 -356 -305t-504 -98h-635l137 643h-153l65 305h152l129 608h567zM727 367v2q151 0 258 67q108 67 164 189q55 119 55 274q0 90 -37 154q-38 65 -100 98q-65 35 -154 35h-147
l-51 -240h293l-64 -305h-293l-59 -274h135z" />
    <glyph glyph-name="dcroat" unicode="&#x111;" horiz-adv-x="1404" 
d="M1595 1456l-55 -254h-104l-254 -1196h-445l39 187q-56 -96 -143 -156q-89 -62 -211 -62q-113 0 -199 50q-87 50 -135 147q-49 98 -49 240q0 188 72 364q70 171 206 277q134 104 312 104q83 0 147 -37q66 -38 103 -96q38 -59 53 -127l63 299h-190l49 260h197l20 100h445
l-21 -100h100zM762 330l2 -2q61 67 90 164q31 102 31 202q0 90 -37 133t-100 43q-79 0 -136 -63q-58 -64 -88 -166t-30 -203q0 -88 34 -131t99 -43q75 0 135 66z" />
    <glyph glyph-name="Emacron" unicode="&#x112;" horiz-adv-x="1366" 
d="M1477 1556l-80 -368h-676l-45 -211h661l-77 -369h-662l-49 -239h692l-78 -369h-1159l330 1556h1143zM1380 1671h-938l64 303h940z" />
    <glyph glyph-name="emacron" unicode="&#x113;" horiz-adv-x="1331" 
d="M475 446l-8 -20q0 -188 121 -188q56 0 96 24q37 22 74 78h446q-89 -183 -252 -274q-166 -93 -374 -93q-165 0 -291 60q-123 58 -187 166q-65 109 -65 252q0 180 86 344q84 161 252 264q163 100 393 100q249 0 387 -117q139 -118 139 -350q0 -52 -10 -117q-8 -52 -31 -129
h-776zM606 840v-2q-57 -54 -92 -144h328q12 38 12 66q0 59 -31 98q-30 37 -86 37q-73 0 -131 -55zM1221 1237h-863l64 299h862z" />
    <glyph glyph-name="Ebreve" unicode="&#x114;" horiz-adv-x="1366" 
d="M1477 1556l-80 -368h-676l-45 -211h661l-77 -369h-662l-49 -239h692l-78 -369h-1159l330 1556h1143zM711 1690l4 4q-92 30 -148 92q-55 61 -55 149q0 30 4 54h295q-3 -40 35 -64t100 -24q64 0 111 24t53 62h295q-35 -164 -160 -246t-327 -82q-112 0 -207 31z" />
    <glyph glyph-name="ebreve" unicode="&#x115;" horiz-adv-x="1331" 
d="M475 446l-8 -20q0 -188 121 -188q56 0 96 24q37 22 74 78h446q-89 -183 -252 -274q-166 -93 -374 -93q-165 0 -291 60q-123 58 -187 166q-65 109 -65 252q0 180 86 344q84 161 252 264q163 100 393 100q249 0 387 -117q139 -118 139 -350q0 -52 -10 -117q-8 -52 -31 -129
h-776zM606 840v-2q-57 -54 -92 -144h328q12 38 12 66q0 59 -31 98q-30 37 -86 37q-73 0 -131 -55zM592 1247l-4 -4q-87 35 -135 98q-50 65 -50 150q0 26 7 61h301q-2 -6 -2 -24q0 -41 30 -62q29 -20 84 -20q59 0 103 29q41 27 53 77h301q-21 -97 -88 -172q-68 -77 -172 -123
q-102 -45 -236 -45q-105 0 -192 35z" />
    <glyph glyph-name="Edotaccent" unicode="&#x116;" horiz-adv-x="1366" 
d="M1477 1556l-80 -368h-676l-45 -211h661l-77 -369h-662l-49 -239h692l-78 -369h-1159l330 1556h1143zM1145 1659h-469l67 326h469z" />
    <glyph glyph-name="edotaccent" unicode="&#x117;" horiz-adv-x="1331" 
d="M475 446l-8 -20q0 -188 121 -188q56 0 96 24q37 22 74 78h446q-89 -183 -252 -274q-166 -93 -374 -93q-165 0 -291 60q-123 58 -187 166q-65 109 -65 252q0 180 86 344q84 161 252 264q163 100 393 100q249 0 387 -117q139 -118 139 -350q0 -52 -10 -117q-8 -52 -31 -129
h-776zM606 840v-2q-57 -54 -92 -144h328q12 38 12 66q0 59 -31 98q-30 37 -86 37q-73 0 -131 -55zM1018 1229h-455l68 325h454z" />
    <glyph glyph-name="Eogonek" unicode="&#x118;" horiz-adv-x="1366" 
d="M1397 1188l-680 -2l-45 -211h661l-78 -369h-661l-49 -239h692l-78 -369q-104 -22 -162 -49q-51 -23 -51 -53q0 -22 19 -31q16 -8 65 -8h98l-59 -281h-160q-175 0 -264 53q-88 52 -88 146q0 76 57 133q58 58 168 92h-778l330 1556h1143z" />
    <glyph glyph-name="eogonek" unicode="&#x119;" horiz-adv-x="1331" 
d="M475 446l-8 -18q0 -188 121 -188q56 0 96 24q37 22 74 78h446q-88 -182 -252 -276q-73 -53 -116 -99q-39 -42 -39 -73q0 -26 22 -35q26 -11 72 -11h82l-60 -272h-147q-171 0 -260 45q-92 47 -92 137q0 64 41 117q41 54 110 96q-163 3 -282 64q-122 63 -185 168t-63 248
q0 180 86 344q84 161 252 264q163 100 393 100q249 0 387 -117q139 -118 139 -350q0 -52 -10 -117q-8 -52 -31 -129h-776zM606 842v-2q-57 -54 -92 -144h328q12 38 12 66q0 59 -31 98q-30 37 -86 37q-73 0 -131 -55z" />
    <glyph glyph-name="Ecaron" unicode="&#x11a;" horiz-adv-x="1366" 
d="M1477 1556l-80 -368h-676l-45 -211h661l-77 -369h-662l-49 -239h692l-78 -369h-1159l330 1556h1143zM940 1845l170 140h403l-321 -326h-563l-205 326h391z" />
    <glyph glyph-name="ecaron" unicode="&#x11b;" horiz-adv-x="1331" 
d="M475 446l-8 -20q0 -188 121 -188q56 0 96 24q37 22 74 78h446q-89 -183 -252 -274q-166 -93 -374 -93q-165 0 -291 60q-123 58 -187 166q-65 109 -65 252q0 180 86 344q84 161 252 264q163 100 393 100q249 0 387 -117q139 -118 139 -350q0 -52 -10 -117q-8 -52 -31 -129
h-776zM606 840v-2q-57 -54 -92 -144h328q12 38 12 66q0 59 -31 98q-30 37 -86 37q-73 0 -131 -55zM821 1397l180 157h385l-321 -333h-541l-200 333h376z" />
    <glyph glyph-name="Gcircumflex" unicode="&#x11c;" horiz-adv-x="1771" 
d="M819 588l72 338h862l-197 -930h-376l73 346q-81 -157 -215 -266q-131 -107 -348 -107q-156 0 -295 74q-136 72 -223 219q-86 145 -86 350q0 236 117 461t336 367q217 141 503 141q215 0 367 -70q157 -72 240 -186q88 -120 108 -266h-481q-24 85 -86 129q-61 43 -168 43
q-142 0 -246 -82q-105 -82 -160 -223q-55 -140 -55 -310q0 -143 82 -219q84 -78 221 -78q88 0 166 35t129 95q53 62 74 139h-414zM1417 1980l205 -325h-391l-125 141l-170 -141h-404l322 325h563z" />
    <glyph glyph-name="gcircumflex" unicode="&#x11d;" horiz-adv-x="1402" 
d="M985 1128l447 -8l-238 -1124q-34 -149 -129 -248q-90 -95 -231 -143q-131 -45 -295 -45q-251 0 -400 94q-151 95 -166 283h447q21 -87 127 -87q80 0 137 48q58 48 72 122l41 197q-52 -90 -144 -149q-91 -58 -211 -58q-107 0 -196 53t-142 148q-51 92 -51 225
q0 179 70 344t203 271q131 104 311 104q86 0 147 -37q64 -39 99 -94q38 -60 53 -123zM778 356l2 -4q60 60 90 152q31 95 31 188q0 82 -35 123t-102 41q-76 0 -135 -59q-58 -58 -88 -150q-31 -95 -31 -186q0 -82 35 -123t98 -41q76 0 135 59zM1165 1544l201 -334h-377
l-121 156l-182 -156h-383l320 334h542z" />
    <glyph glyph-name="Gbreve" unicode="&#x11e;" horiz-adv-x="1771" 
d="M819 588l72 338h862l-197 -930h-376l73 346q-81 -157 -215 -266q-131 -107 -348 -107q-156 0 -295 74q-136 72 -223 219q-86 145 -86 350q0 236 117 461t336 367q217 141 503 141q215 0 367 -70q157 -72 240 -186q88 -120 108 -266h-481q-24 85 -86 129q-61 43 -168 43
q-142 0 -246 -82q-105 -82 -160 -223q-55 -140 -55 -310q0 -143 82 -219q84 -78 221 -78q88 0 166 35t129 95q53 62 74 139h-414zM868 1686l4 4q-91 30 -147 92q-55 61 -55 149q0 30 4 54h295q-3 -40 35 -64q39 -25 100 -25q62 0 110 25t54 61h295q-34 -163 -160 -245
q-125 -82 -328 -82q-112 0 -207 31z" />
    <glyph glyph-name="gbreve" unicode="&#x11f;" horiz-adv-x="1402" 
d="M985 1128l447 -8l-238 -1124q-34 -149 -129 -248q-90 -95 -231 -143q-131 -45 -295 -45q-251 0 -400 94q-151 95 -166 283h447q21 -87 127 -87q80 0 137 48q58 48 72 122l41 197q-52 -90 -144 -149q-91 -58 -211 -58q-107 0 -196 53t-142 148q-51 92 -51 225
q0 179 70 344t203 271q131 104 311 104q86 0 147 -37q64 -39 99 -94q38 -60 53 -123zM778 356l2 -4q60 60 90 152q31 95 31 188q0 82 -35 123t-102 41q-76 0 -135 -59q-58 -58 -88 -150q-31 -95 -31 -186q0 -82 35 -123t98 -41q76 0 135 59zM635 1235l-4 -4q-87 35 -135 98
q-50 65 -50 150q0 26 7 61h301q-2 -6 -2 -24q0 -41 30 -62q29 -20 84 -20q61 0 103 28q41 27 53 78h301q-21 -97 -88 -172q-68 -77 -172 -123q-102 -45 -236 -45q-105 0 -192 35z" />
    <glyph glyph-name="Gdotaccent" unicode="&#x120;" horiz-adv-x="1771" 
d="M819 588l72 338h862l-197 -930h-376l73 346q-81 -157 -215 -266q-131 -107 -348 -107q-156 0 -295 74q-136 72 -223 219q-86 145 -86 350q0 236 117 461t336 367q217 141 503 141q215 0 367 -70q157 -72 240 -186q88 -120 108 -266h-481q-24 85 -86 129q-61 43 -168 43
q-142 0 -246 -82q-105 -82 -160 -223q-55 -140 -55 -310q0 -143 82 -219q84 -78 221 -78q88 0 166 35t129 95q53 62 74 139h-414zM1303 1655h-469l67 325h469z" />
    <glyph glyph-name="gdotaccent" unicode="&#x121;" horiz-adv-x="1402" 
d="M985 1128l447 -8l-238 -1124q-34 -149 -129 -248q-90 -95 -231 -143q-131 -45 -295 -45q-251 0 -400 94q-151 95 -166 283h447q21 -87 127 -87q80 0 137 48q58 48 72 122l41 197q-52 -90 -144 -149q-91 -58 -211 -58q-107 0 -196 53t-142 148q-51 92 -51 225
q0 179 70 344t203 271q131 104 311 104q86 0 147 -37q64 -39 99 -94q38 -60 53 -123zM778 356l2 -4q60 60 90 152q31 95 31 188q0 82 -35 123t-102 41q-76 0 -135 -59q-58 -58 -88 -150q-31 -95 -31 -186q0 -82 35 -123t98 -41q76 0 135 59zM1061 1219h-455l68 325h454z" />
    <glyph glyph-name="uni0122" unicode="&#x122;" horiz-adv-x="1771" 
d="M819 588l72 338h862l-197 -930h-376l73 346q-81 -157 -215 -266q-131 -107 -348 -107q-156 0 -295 74q-136 72 -223 219q-86 145 -86 350q0 236 117 461t336 367q217 141 503 141q215 0 367 -70q157 -72 240 -186q88 -120 108 -266h-481q-24 85 -86 129q-61 43 -168 43
q-142 0 -246 -82q-105 -82 -160 -223q-55 -140 -55 -310q0 -143 82 -219q84 -78 221 -78q88 0 166 35t129 95q53 62 74 139h-414zM453 -432l67 323h469l-78 -362l-209 -209h-290l188 248h-147z" />
    <glyph glyph-name="uni0123" unicode="&#x123;" horiz-adv-x="1402" 
d="M985 1128l447 -8l-238 -1124q-34 -149 -129 -248q-90 -95 -231 -143q-131 -45 -295 -45q-251 0 -400 94q-151 95 -166 283h447q21 -87 127 -87q80 0 137 48q58 48 72 122l41 197q-52 -90 -144 -149q-91 -58 -211 -58q-107 0 -196 53t-142 148q-51 92 -51 225
q0 179 70 344t203 271q131 104 311 104q86 0 147 -37q64 -39 99 -94q38 -60 53 -123zM778 356l2 -4q60 60 90 152q31 95 31 188q0 82 -35 123t-102 41q-76 0 -135 -59q-58 -58 -88 -150q-31 -95 -31 -186q0 -82 35 -123t98 -41q76 0 135 59zM895 1804h276l-188 -248h147
l-67 -323h-457l78 362z" />
    <glyph glyph-name="Hcircumflex" unicode="&#x124;" horiz-adv-x="1644" 
d="M1149 995l119 561h465l-330 -1556h-465l123 584h-469l-123 -584h-465l330 1556h465l-119 -561h469zM1389 1985l204 -326h-391l-125 141l-170 -141h-403l321 326h564z" />
    <glyph glyph-name="hcircumflex" unicode="&#x125;" horiz-adv-x="1363" 
d="M1182 1118h4q71 -41 104 -106q35 -68 35 -154q0 -60 -16 -151l-152 -707h-450l133 625q14 66 14 116q0 52 -25 80q-26 29 -69 29q-70 0 -123 -62t-80 -190l-127 -598h-450l329 1556h443l-140 -659q61 112 166 186q106 74 226 74q110 0 178 -39zM887 1985l205 -326h-392
l-125 141l-169 -141h-404l322 326h563z" />
    <glyph glyph-name="Hbar" unicode="&#x126;" horiz-adv-x="1644" 
d="M1698 1395h135l-59 -285h-136l-235 -1110h-465l123 584h-469l-123 -584h-465l236 1110h-136l60 285h135l35 161h465l-35 -161h469l35 161h465zM680 995h469l25 115h-469z" />
    <glyph glyph-name="hbar" unicode="&#x127;" horiz-adv-x="1363" 
d="M1182 1118h4q71 -41 104 -106q35 -68 35 -154q0 -60 -16 -151l-152 -707h-450l133 625q14 66 14 116q0 52 -25 80q-26 29 -69 29q-70 0 -123 -62t-80 -190l-127 -598h-450l253 1196h-102l49 260h109l20 100h443l-21 -100h191l-52 -260h-194l-64 -299q61 112 166 186
q106 74 226 74q110 0 178 -39z" />
    <glyph glyph-name="Itilde" unicode="&#x128;" horiz-adv-x="712" 
d="M469 0h-465l330 1556h465zM182 1665l-4 -2q41 179 125 272q86 95 203 95q46 0 92 -15q43 -14 80 -30q41 -18 65 -25q27 -8 64 -8q45 0 82 24q36 23 55 62h135q-41 -178 -123 -273q-82 -94 -200 -94q-46 0 -92 12q-33 8 -80 29q-43 19 -64 25q-33 10 -63 10q-43 0 -82 -25
t-56 -57h-137z" />
    <glyph glyph-name="itilde" unicode="&#x129;" horiz-adv-x="649" 
d="M430 0h-450l239 1128h451zM82 1233v2q41 178 119 268q80 92 190 92q45 0 86 -14q39 -13 74 -31q26 -13 59 -24q24 -8 60 -8q44 0 78 24q34 23 49 62h131q-41 -181 -119 -271q-80 -92 -193 -92q-45 0 -86 14q-35 12 -73 31q-62 33 -115 33q-44 0 -80 -25q-34 -24 -49 -61
h-131z" />
    <glyph glyph-name="Imacron" unicode="&#x12a;" horiz-adv-x="712" 
d="M469 0h-465l330 1556h465zM1061 1671h-938l63 303h940z" />
    <glyph glyph-name="imacron" unicode="&#x12b;" horiz-adv-x="649" 
d="M430 0h-450l239 1128h451zM897 1239h-862l63 299h863z" />
    <glyph glyph-name="Ibreve" unicode="&#x12c;" horiz-adv-x="712" 
d="M469 0h-465l330 1556h465zM391 1690l4 4q-91 30 -147 92q-55 61 -55 149q0 30 4 54h295q-3 -40 34 -64t101 -24q63 0 110 24q48 25 54 62h294q-35 -165 -159 -246q-125 -82 -328 -82q-112 0 -207 31z" />
    <glyph glyph-name="ibreve" unicode="&#x12d;" horiz-adv-x="649" 
d="M430 0h-450l239 1128h451zM268 1247l-4 -4q-87 35 -135 98q-49 64 -49 150q0 31 6 61h301q-2 -6 -2 -24q0 -40 31 -62q29 -20 84 -20q58 0 102 29q41 27 53 77h301q-21 -97 -88 -172q-68 -77 -172 -123q-102 -45 -235 -45q-106 0 -193 35z" />
    <glyph glyph-name="Iogonek" unicode="&#x12e;" horiz-adv-x="712" 
d="M469 0h-465l330 1556h465zM219 -424v-4q-175 0 -264 53q-88 52 -88 146q0 132 139 227h467q-108 -23 -164 -49q-53 -24 -53 -53q0 -22 18 -31q16 -8 66 -8h98l-59 -281h-160z" />
    <glyph glyph-name="iogonek" unicode="&#x12f;" horiz-adv-x="649" 
d="M238 1231l69 325h455l-70 -325h-454zM219 1128l449 -6l-240 -1128q-111 -23 -168 -51q-55 -27 -55 -58q0 -21 24 -30t78 -9h88l-57 -272h-162q-175 0 -264 53q-88 52 -88 146q0 65 41 121q36 50 115 106z" />
    <glyph glyph-name="Idotaccent" unicode="&#x130;" horiz-adv-x="712" 
d="M469 0h-465l330 1556h465zM825 1659h-469l68 326h469z" />
    <glyph glyph-name="dotlessi" unicode="&#x131;" horiz-adv-x="649" 
d="M430 0h-450l239 1128h451z" />
    <glyph glyph-name="Jcircumflex" unicode="&#x134;" horiz-adv-x="913" 
d="M-84 0l78 365h158q76 0 114 30q37 30 53 103l224 1056h467l-244 -1148q-30 -139 -96 -230q-66 -90 -178 -133q-113 -43 -289 -43h-287zM1147 1980l205 -325h-391l-125 141l-170 -141h-404l322 325h563z" />
    <glyph glyph-name="jcircumflex" unicode="&#x135;" horiz-adv-x="649" 
d="M-266 -401l67 317h43q66 0 97 25t43 79l235 1108h451l-252 -1183q-37 -175 -160 -260q-124 -86 -348 -86h-176zM805 1556l201 -333h-377l-121 155l-182 -155h-383l319 333h543z" />
    <glyph glyph-name="uni0136" unicode="&#x136;" horiz-adv-x="1552" 
d="M1202 1556h567l-671 -770l379 -786h-516l-334 748l-158 -748h-465l330 1556h465l-140 -653zM399 -428l68 324h469l-78 -363l-209 -209h-291l189 248h-148z" />
    <glyph glyph-name="uni0137" unicode="&#x137;" horiz-adv-x="1337" 
d="M926 1128h522l-463 -534l246 -594h-492l-198 518l-111 -518h-450l329 1556h451l-178 -843zM258 -428l68 324h454l-75 -363l-211 -209h-277l189 248h-148z" />
    <glyph glyph-name="kgreenlandic" unicode="&#x138;" horiz-adv-x="1337" 
d="M934 1128h522l-481 -546l268 -582h-491l-215 512l-109 -512h-448l237 1128h451l-93 -436z" />
    <glyph glyph-name="Lacute" unicode="&#x139;" horiz-adv-x="1241" 
d="M799 1556l-250 -1187h622l-79 -369h-1088l330 1556h465zM817 1659h-444l307 326h625z" />
    <glyph glyph-name="lacute" unicode="&#x13a;" horiz-adv-x="649" 
d="M430 0h-450l329 1556h451zM788 1659h-444l307 326h625z" />
    <glyph glyph-name="uni013B" unicode="&#x13b;" horiz-adv-x="1241" 
d="M799 1556l-250 -1187h622l-79 -369h-1088l330 1556h465zM221 -428l68 324h469l-78 -363l-209 -209h-291l189 248h-148z" />
    <glyph glyph-name="uni013C" unicode="&#x13c;" horiz-adv-x="649" 
d="M430 0h-450l329 1556h451zM-117 -428l68 324h455l-76 -363l-211 -209h-277l189 248h-148z" />
    <glyph glyph-name="Lcaron" unicode="&#x13d;" horiz-adv-x="1241" 
d="M799 1556l-250 -1187h622l-79 -369h-1088l330 1556h465zM1108 1040h-307l151 516h391z" />
    <glyph glyph-name="lcaron" unicode="&#x13e;" horiz-adv-x="649" 
d="M430 0h-450l329 1556h451zM1073 1169h-305l111 387h383z" />
    <glyph glyph-name="Ldot" unicode="&#x13f;" horiz-adv-x="1261" 
d="M799 1556l-250 -1187h622l-79 -369h-1088l330 1556h465zM1245 739h-461l84 391h461z" />
    <glyph glyph-name="ldot" unicode="&#x140;" horiz-adv-x="989" 
d="M430 0h-450l329 1556h451zM1006 612h-351l82 392h350z" />
    <glyph glyph-name="Lslash" unicode="&#x141;" horiz-adv-x="1316" 
d="M696 700l-69 -331h620l-78 -369h-1087l100 473l-178 -80l78 357l176 77l154 729h465l-107 -499l326 143l-76 -356z" />
    <glyph glyph-name="lslash" unicode="&#x142;" horiz-adv-x="808" 
d="M743 1112l148 80l-80 -381l-147 -80l-156 -731h-451l97 459l-136 -74l82 383l136 72l151 716h451z" />
    <glyph glyph-name="Nacute" unicode="&#x143;" horiz-adv-x="1822" 
d="M1186 133l301 1423h424l-330 -1556h-782l-70 1423l-301 -1423h-424l330 1556h782zM1327 1659h-444l307 326h625z" />
    <glyph glyph-name="nacute" unicode="&#x144;" horiz-adv-x="1363" 
d="M1182 1118l2 -2q71 -41 104 -106q35 -68 35 -154q0 -60 -16 -151l-152 -707h-450l133 625q14 66 14 116q0 52 -25 80q-26 29 -69 29q-70 0 -123 -62t-80 -190l-127 -598h-451l240 1128h442l-49 -229q64 113 168 186q106 74 226 74q110 0 178 -39zM1014 1221h-422l287 333
h608z" />
    <glyph glyph-name="uni0145" unicode="&#x145;" horiz-adv-x="1822" 
d="M1186 133l301 1423h424l-330 -1556h-782l-70 1423l-301 -1423h-424l330 1556h782zM502 -428l67 324h469l-77 -363l-209 -209h-291l188 248h-147z" />
    <glyph glyph-name="uni0146" unicode="&#x146;" horiz-adv-x="1363" 
d="M1182 1118l2 -2q71 -41 104 -106q35 -68 35 -154q0 -60 -16 -151l-152 -707h-450l133 625q14 66 14 116q0 52 -25 80q-26 29 -69 29q-70 0 -123 -62t-80 -190l-127 -598h-451l240 1128h442l-49 -229q64 113 168 186q106 74 226 74q110 0 178 -39zM272 -430l68 324h455
l-76 -363l-211 -209h-277l189 248h-148z" />
    <glyph glyph-name="Ncaron" unicode="&#x147;" horiz-adv-x="1822" 
d="M1186 133l301 1423h424l-330 -1556h-782l-70 1423l-301 -1423h-424l330 1556h782zM1165 1845l170 140h404l-322 -326h-563l-205 326h391z" />
    <glyph glyph-name="ncaron" unicode="&#x148;" horiz-adv-x="1363" 
d="M1182 1118l2 -2q71 -41 104 -106q35 -68 35 -154q0 -60 -16 -151l-152 -707h-450l133 625q14 66 14 116q0 52 -25 80q-26 29 -69 29q-70 0 -123 -62t-80 -190l-127 -598h-451l240 1128h442l-49 -229q64 113 168 186q106 74 226 74q110 0 178 -39zM856 1397l180 157h385
l-321 -333h-541l-201 333h377z" />
    <glyph glyph-name="Eng" unicode="&#x14a;" horiz-adv-x="1822" 
d="M1911 1556l-334 -1558h-2l-4 -23q-41 -182 -168 -280q-128 -98 -373 -98h-258l64 292h153q76 0 115 25q38 24 53 86h-358l-70 1423l-301 -1423h-424l330 1556h782l70 -1421l2 12l299 1409h424z" />
    <glyph glyph-name="eng" unicode="&#x14b;" horiz-adv-x="1363" 
d="M1307 707l-131 -617l-31 -147q-41 -176 -162 -260q-124 -86 -348 -86h-176l69 317h45q64 0 95 25t43 79l14 72h2l113 533q14 66 14 116q0 52 -25 80q-26 29 -69 29q-70 0 -123 -62t-80 -190l-127 -598h-450l239 1128h443l-50 -229q64 113 168 186q106 74 226 74
q110 0 178 -39q71 -41 104 -106q35 -68 35 -154q0 -60 -16 -151z" />
    <glyph glyph-name="Omacron" unicode="&#x14c;" horiz-adv-x="1751" 
d="M430 43l-2 -2q-161 69 -254 219q-92 148 -92 358q0 236 117 461q115 222 336 365q217 141 503 141q204 0 371 -72q163 -70 254 -217q92 -148 92 -358q0 -236 -117 -461q-116 -223 -333 -364q-219 -142 -504 -142q-204 0 -371 72zM1067 403l-4 -2q101 82 158 226
q55 140 55 311q0 137 -72 215t-196 78q-136 0 -240 -84q-102 -82 -158 -225q-55 -140 -55 -312q0 -138 74 -215q73 -76 200 -76q134 0 238 84zM1565 1667h-938l63 303h940z" />
    <glyph glyph-name="omacron" unicode="&#x14d;" horiz-adv-x="1378" 
d="M301 27l-2 4q-125 55 -193 164q-67 107 -67 258q0 180 86 344t254 262t405 98q170 0 295 -55q128 -56 195 -164q67 -107 67 -258q0 -180 -86 -344q-85 -162 -254 -264q-168 -101 -405 -101q-168 0 -295 56zM762 328l2 -4q61 67 90 163q31 102 31 203q0 90 -37 133
t-100 43q-79 0 -136 -63q-58 -63 -88 -164q-30 -99 -30 -203q0 -88 34 -131t99 -43q75 0 135 66zM1241 1237h-862l63 299h863z" />
    <glyph glyph-name="Obreve" unicode="&#x14e;" horiz-adv-x="1751" 
d="M430 43l-2 -2q-161 69 -254 219q-92 148 -92 358q0 236 117 461q115 222 336 365q217 141 503 141q204 0 371 -72q163 -70 254 -217q92 -148 92 -358q0 -236 -117 -461q-116 -223 -333 -364q-219 -142 -504 -142q-204 0 -371 72zM1067 403l-4 -2q101 82 158 226
q55 140 55 311q0 137 -72 215t-196 78q-136 0 -240 -84q-102 -82 -158 -225q-55 -140 -55 -312q0 -138 74 -215q73 -76 200 -76q134 0 238 84zM895 1686l4 4q-91 30 -147 92t-56 149q0 30 4 54h295q-3 -40 35 -64q39 -25 100 -25q63 0 111 25q47 24 53 61h295
q-34 -163 -159 -245t-328 -82q-112 0 -207 31z" />
    <glyph glyph-name="obreve" unicode="&#x14f;" horiz-adv-x="1378" 
d="M301 27l-2 4q-125 55 -193 164q-67 107 -67 258q0 180 86 344t254 262t405 98q170 0 295 -55q128 -56 195 -164q67 -107 67 -258q0 -180 -86 -344q-85 -162 -254 -264q-168 -101 -405 -101q-168 0 -295 56zM762 328l2 -4q61 67 90 163q31 102 31 203q0 90 -37 133
t-100 43q-79 0 -136 -63q-58 -63 -88 -164q-30 -99 -30 -203q0 -88 34 -131t99 -43q75 0 135 66zM612 1247l-4 -4q-87 35 -135 98q-49 64 -49 150q0 31 6 61h301q-2 -6 -2 -24q0 -40 31 -62q29 -20 84 -20q58 0 102 29q41 27 53 77h301q-21 -97 -88 -172q-68 -77 -172 -123
q-102 -45 -235 -45q-106 0 -193 35z" />
    <glyph glyph-name="Ohungarumlaut" unicode="&#x150;" horiz-adv-x="1751" 
d="M430 43l-2 -2q-161 69 -254 219q-92 148 -92 358q0 236 117 461q115 222 336 365q217 141 503 141q204 0 371 -72q163 -70 254 -217q92 -148 92 -358q0 -236 -117 -461q-116 -223 -333 -364q-219 -142 -504 -142q-204 0 -371 72zM1067 403l-4 -2q101 82 158 226
q55 140 55 311q0 137 -72 215t-196 78q-136 0 -240 -84q-102 -82 -158 -225q-55 -140 -55 -312q0 -138 74 -215q73 -76 200 -76q134 0 238 84zM1032 1655h-407l333 325h535zM1614 1655h-406l334 325h535z" />
    <glyph glyph-name="ohungarumlaut" unicode="&#x151;" horiz-adv-x="1378" 
d="M301 27l-2 4q-125 55 -193 164q-67 107 -67 258q0 180 86 344t254 262t405 98q170 0 295 -55q128 -56 195 -164q67 -107 67 -258q0 -180 -86 -344q-85 -162 -254 -264q-168 -101 -405 -101q-168 0 -295 56zM762 328l2 -4q61 67 90 163q31 102 31 203q0 90 -37 133
t-100 43q-79 0 -136 -63q-58 -63 -88 -164q-30 -99 -30 -203q0 -88 34 -131t99 -43q75 0 135 66zM766 1221h-373l262 333h500zM1319 1221h-373l262 333h500z" />
    <glyph glyph-name="OE" unicode="&#x152;" horiz-adv-x="2330" 
d="M2361 1188l-673 -4l-46 -211h660l-78 -369h-659l-52 -239h693l-78 -369h-1329q-213 0 -375 84q-160 83 -246 231t-86 338q0 273 141 479q143 208 381 318t516 110h1311zM1047 365l172 817h-168q-136 0 -250 -60q-111 -58 -172 -166q-62 -109 -62 -251q0 -104 37 -179
q36 -73 109 -118q70 -43 166 -43h168z" />
    <glyph glyph-name="oe" unicode="&#x153;" horiz-adv-x="2156" 
d="M1303 446l-7 -16q0 -91 29 -141q27 -47 92 -47q57 0 96 26q38 25 74 80h445q-88 -182 -252 -276q-164 -95 -375 -95q-123 0 -213 43q-93 44 -156 119q-177 -162 -444 -162q-168 0 -295 56q-125 55 -193 164q-67 107 -67 258q0 180 86 344t254 262t405 98q126 0 219 -43
q98 -45 160 -119q174 162 430 162q249 0 387 -117q140 -119 140 -350q0 -46 -11 -117q-9 -59 -30 -129h-774zM1434 844l-2 -2q-57 -57 -91 -144h328q10 45 10 66q0 60 -30 98q-30 37 -86 37q-74 0 -129 -55zM756 328l2 -4q61 67 90 163q31 102 31 203q0 90 -37 133t-101 43
q-78 0 -135 -63q-58 -63 -88 -164q-31 -102 -31 -203q0 -87 35 -131q34 -43 99 -43q75 0 135 66z" />
    <glyph glyph-name="Racute" unicode="&#x154;" horiz-adv-x="1589" 
d="M1483 795h-4q-90 -127 -269 -199l254 -596h-512l-194 526h-180l-113 -526h-465l330 1556h663q164 0 295 -55q133 -56 209 -160q78 -107 78 -249q0 -167 -92 -297zM721 1202l-70 -328h221q78 0 127 27q51 28 74 70q25 45 25 92q0 60 -43 100q-42 39 -113 39h-221z
M1106 1657h-444l307 325h624z" />
    <glyph glyph-name="racute" unicode="&#x155;" horiz-adv-x="956" 
d="M586 766l-2 -2q40 105 104 192q63 86 158 144q91 55 209 55l-94 -434h-103q-145 0 -221 -55q-78 -57 -105 -183l-102 -483h-450l239 1128h443zM870 1221h-421l286 333h608z" />
    <glyph glyph-name="uni0156" unicode="&#x156;" horiz-adv-x="1589" 
d="M1483 795h-4q-90 -127 -269 -199l254 -596h-512l-194 526h-180l-113 -526h-465l330 1556h663q164 0 295 -55q133 -56 209 -160q78 -107 78 -249q0 -167 -92 -297zM721 1202l-70 -328h221q78 0 127 27q51 28 74 70q25 45 25 92q0 60 -43 100q-42 39 -113 39h-221z
M387 -430l68 324h469l-78 -363l-209 -209h-291l189 248h-148z" />
    <glyph glyph-name="uni0157" unicode="&#x157;" horiz-adv-x="956" 
d="M586 766l-2 -2q40 105 104 192q63 86 158 144q91 55 209 55l-94 -434h-103q-145 0 -221 -55q-78 -57 -105 -183l-102 -483h-450l239 1128h443zM-117 -430l68 324h455l-76 -363l-211 -209h-277l189 248h-148z" />
    <glyph glyph-name="Rcaron" unicode="&#x158;" horiz-adv-x="1589" 
d="M1483 795h-4q-90 -127 -269 -199l254 -596h-512l-194 526h-180l-113 -526h-465l330 1556h663q164 0 295 -55q133 -56 209 -160q78 -107 78 -249q0 -167 -92 -297zM721 1202l-70 -328h221q78 0 127 27q51 28 74 70q25 45 25 92q0 60 -43 100q-42 39 -113 39h-221z
M944 1843l170 139h404l-322 -325h-563l-205 325h391z" />
    <glyph glyph-name="rcaron" unicode="&#x159;" horiz-adv-x="956" 
d="M586 766l-2 -2q40 105 104 192q63 86 158 144q91 55 209 55l-94 -434h-103q-145 0 -221 -55q-78 -57 -105 -183l-102 -483h-450l239 1128h443zM713 1397l180 157h385l-322 -333h-540l-201 333h377z" />
    <glyph glyph-name="Sacute" unicode="&#x15a;" horiz-adv-x="1501" 
d="M342 31l8 2q-153 59 -239 176q-86 118 -86 285h481q3 -94 65 -144q61 -49 183 -49q109 0 174 35q63 34 63 98q0 56 -43 86q-52 36 -143 60l-244 69q-174 52 -272 156q-99 105 -99 266q0 140 91 260q90 118 251 185q162 67 369 67q299 0 459 -121t184 -332h-483
q-9 59 -64 93t-149 34q-100 0 -154 -32q-57 -34 -57 -86q0 -34 22 -56q23 -23 66 -41q52 -22 123 -43l246 -69q111 -30 188 -92q76 -62 117 -144q39 -79 39 -174q0 -167 -86 -291q-85 -122 -252 -190q-168 -68 -400 -68q-201 0 -358 60zM1098 1661h-445l308 326h624z" />
    <glyph glyph-name="sacute" unicode="&#x15b;" horiz-adv-x="1253" 
d="M283 16l6 2q-128 46 -205 132t-86 204h446q15 -63 62 -98q44 -33 117 -33q63 0 100 21t37 57q0 34 -31 53q-32 19 -111 43l-200 60q-155 48 -228 118q-77 74 -77 197q0 108 71 197q70 88 203 141q128 51 307 51q150 0 269 -43q122 -44 194 -119q74 -77 86 -184h-446
q-9 46 -49 70t-99 24q-57 0 -94 -18t-37 -53q0 -29 35 -50t117 -45l200 -59q149 -48 220 -131q73 -85 73 -199q0 -112 -65 -198q-65 -87 -197 -136q-131 -49 -321 -49q-172 0 -297 45zM913 1225h-421l286 334h608z" />
    <glyph glyph-name="Scircumflex" unicode="&#x15c;" horiz-adv-x="1501" 
d="M342 31l8 2q-153 59 -239 176q-86 118 -86 285h481q3 -94 65 -144q61 -49 183 -49q109 0 174 35q63 34 63 98q0 56 -43 86q-52 36 -143 60l-244 69q-174 52 -272 156q-99 105 -99 266q0 140 91 260q90 118 251 185q162 67 369 67q299 0 459 -121t184 -332h-483
q-9 59 -64 93t-149 34q-100 0 -154 -32q-57 -34 -57 -86q0 -34 22 -56q23 -23 66 -41q52 -22 123 -43l246 -69q111 -30 188 -92q76 -62 117 -144q39 -79 39 -174q0 -167 -86 -291q-85 -122 -252 -190q-168 -68 -400 -68q-201 0 -358 60zM1255 1987l205 -326h-391l-125 141
l-170 -141h-403l321 326h563z" />
    <glyph glyph-name="scircumflex" unicode="&#x15d;" horiz-adv-x="1253" 
d="M283 16l6 2q-128 46 -205 132t-86 204h446q15 -63 62 -98q44 -33 117 -33q63 0 100 21t37 57q0 34 -31 53q-32 19 -111 43l-200 60q-155 48 -228 118q-77 74 -77 197q0 108 71 197q70 88 203 141q128 51 307 51q150 0 269 -43q122 -44 194 -119q74 -77 86 -184h-446
q-9 46 -49 70t-99 24q-57 0 -94 -18t-37 -53q0 -29 35 -50t117 -45l200 -59q149 -48 220 -131q73 -85 73 -199q0 -112 -65 -198q-65 -87 -197 -136q-131 -49 -321 -49q-172 0 -297 45zM1057 1559l200 -334h-376l-121 155l-182 -155h-383l319 334h543z" />
    <glyph glyph-name="Scedilla" unicode="&#x15e;" horiz-adv-x="1501" 
d="M1094 930l-2 8q111 -30 188 -92q76 -62 117 -144q39 -79 39 -174q0 -158 -78 -280q-76 -120 -228 -191q-151 -71 -366 -80l-8 -30q66 -9 110 -47q43 -37 43 -97q0 -64 -37 -116q-39 -54 -100 -80q-69 -29 -143 -29h-199l37 180h84q65 0 65 39q0 29 -49 29h-49l33 160
q-247 30 -385 159t-141 349h481q3 -94 65 -144q61 -49 183 -49q109 0 174 35q63 34 63 98q0 56 -43 86q-52 36 -143 60l-244 69q-174 52 -272 156q-99 105 -99 266q0 140 91 260q90 118 251 185q162 67 369 67q299 0 459 -121t184 -332h-483q-9 59 -64 93t-149 34
q-100 0 -154 -32q-57 -34 -57 -86q0 -34 22 -56q23 -23 66 -41q52 -22 123 -43z" />
    <glyph glyph-name="scedilla" unicode="&#x15f;" horiz-adv-x="1253" 
d="M872 680v-4q149 -48 220 -131q73 -85 73 -199q0 -107 -61 -192q-63 -87 -184 -136q-124 -50 -306 -53l-6 -31q66 -9 105 -45t39 -94q0 -64 -35 -117q-34 -52 -96 -79q-61 -27 -142 -27h-188l37 172h82q31 0 49 12t18 35q0 31 -49 31h-47l33 162q-178 30 -293 127
q-112 95 -121 239h446q15 -63 62 -98q44 -33 117 -33q63 0 100 21t37 57q0 34 -31 53q-33 20 -110 43l-201 60q-154 48 -227 118q-78 75 -78 197q0 108 71 197q70 88 203 141q128 51 307 51q150 0 269 -43q122 -44 194 -119q74 -77 86 -184h-446q-9 46 -49 70t-99 24
q-57 0 -94 -18t-37 -53q0 -29 35 -50t117 -45z" />
    <glyph glyph-name="Scaron" unicode="&#x160;" horiz-adv-x="1501" 
d="M342 31l8 2q-153 59 -239 176q-86 118 -86 285h481q3 -94 65 -144q61 -49 183 -49q109 0 174 35q63 34 63 98q0 56 -43 86q-52 36 -143 60l-244 69q-174 52 -272 156q-99 105 -99 266q0 140 91 260q90 118 251 185q162 67 369 67q299 0 459 -121t184 -332h-483
q-9 59 -64 93t-149 34q-100 0 -154 -32q-57 -34 -57 -86q0 -34 22 -56q23 -23 66 -41q52 -22 123 -43l246 -69q111 -30 188 -92q76 -62 117 -144q39 -79 39 -174q0 -167 -86 -291q-85 -122 -252 -190q-168 -68 -400 -68q-201 0 -358 60zM936 1847l170 140h403l-321 -326
h-563l-205 326h391z" />
    <glyph glyph-name="scaron" unicode="&#x161;" horiz-adv-x="1253" 
d="M283 16l6 2q-128 46 -205 132t-86 204h446q15 -63 62 -98q44 -33 117 -33q63 0 100 21t37 57q0 34 -31 53q-32 19 -111 43l-200 60q-155 48 -228 118q-77 74 -77 197q0 108 71 197q70 88 203 141q128 51 307 51q150 0 269 -43q122 -44 194 -119q74 -77 86 -184h-446
q-9 46 -49 70t-99 24q-57 0 -94 -18t-37 -53q0 -29 35 -50t117 -45l200 -59q149 -48 220 -131q73 -85 73 -199q0 -112 -65 -198q-65 -87 -197 -136q-131 -49 -321 -49q-172 0 -297 45zM754 1401l180 158h385l-322 -334h-540l-201 334h377z" />
    <glyph glyph-name="uni0162" unicode="&#x162;" horiz-adv-x="1409" 
d="M242 1556h1343l-76 -368h-440l-252 -1188h-465l250 1188h-440zM260 -428l68 324h469l-78 -363l-209 -209h-291l189 248h-148z" />
    <glyph glyph-name="uni0163" unicode="&#x163;" horiz-adv-x="917" 
d="M705 811l-82 -389q-7 -21 -7 -39q0 -33 25 -49q24 -15 78 -15h88l-70 -317h-221q-105 0 -190 31q-82 30 -129 92t-47 147q0 37 10 95l94 444h-178l69 317h177l55 267h452l-57 -267h207l-70 -317h-204zM98 -428l68 324h455l-76 -363l-211 -209h-277l189 248h-148z" />
    <glyph glyph-name="Tcaron" unicode="&#x164;" horiz-adv-x="1409" 
d="M242 1556h1343l-76 -368h-440l-252 -1188h-465l250 1188h-440zM946 1845l170 140h404l-322 -326h-563l-205 326h391z" />
    <glyph glyph-name="tcaron" unicode="&#x165;" horiz-adv-x="917" 
d="M879 1200l110 356h383l-188 -356h-305zM829 1395l-57 -267h207l-70 -317h-204l-82 -389q-7 -21 -7 -39q0 -33 25 -49q24 -15 78 -15h88l-70 -317h-221q-105 0 -190 31q-82 30 -129 92t-47 147q0 37 10 95l94 444h-178l69 317h177l55 267h452z" />
    <glyph glyph-name="Tbar" unicode="&#x166;" horiz-adv-x="1464" 
d="M1612 1556l-78 -368h-440l-56 -264h342l-69 -326h-340l-127 -598h-465l127 598h-344l69 326h342l56 264h-441l78 368h1346z" />
    <glyph glyph-name="tbar" unicode="&#x167;" horiz-adv-x="917" 
d="M909 811h-204l-19 -90h139l-51 -260h-143l-8 -39q-7 -21 -7 -39q0 -33 25 -49q24 -15 78 -15h88l-70 -317h-221q-105 0 -190 31q-82 30 -129 92t-47 147q0 37 10 95l20 94h-145l49 260h152l18 90h-178l69 317h177l55 267h452l-57 -267h207z" />
    <glyph glyph-name="Utilde" unicode="&#x168;" horiz-adv-x="1611" 
d="M387 31l8 -2q-143 62 -213 170q-71 109 -71 252q0 79 22 192l193 911h465l-211 -1001q-9 -30 -9 -66q0 -78 50 -122q49 -43 139 -43q120 0 190 73q72 75 99 201l204 960h465l-200 -942q-46 -213 -142 -356q-95 -141 -254 -215q-160 -74 -393 -74q-200 0 -342 62z
M627 1661l-4 -2q41 179 125 272q85 94 202 94q49 0 92 -14q34 -11 80 -31q31 -14 66 -24q27 -8 63 -8q45 0 82 24q38 24 56 62h135q-40 -178 -123 -273q-82 -94 -201 -94q-46 0 -92 12q-33 8 -80 29q-45 20 -63 25q-33 10 -64 10q-43 0 -82 -25q-38 -24 -55 -57h-137z" />
    <glyph glyph-name="utilde" unicode="&#x169;" horiz-adv-x="1355" 
d="M926 1128h450l-239 -1128h-445l49 229q-61 -111 -163 -184q-103 -74 -222 -74q-106 0 -174 39q-70 40 -104 107q-35 68 -35 153q0 74 16 152l150 706h453l-134 -624q-16 -88 -16 -119q0 -50 23 -80q23 -29 67 -29q142 0 197 254zM438 1233v2q41 178 119 268q80 92 191 92
q45 0 86 -14q35 -12 73 -31q24 -12 60 -24q24 -8 59 -8q44 0 78 24q34 23 49 62h131q-41 -181 -119 -271q-80 -92 -192 -92q-45 0 -86 14q-39 13 -74 31q-62 33 -115 33q-44 0 -80 -25q-34 -24 -49 -61h-131z" />
    <glyph glyph-name="Umacron" unicode="&#x16a;" horiz-adv-x="1611" 
d="M387 31l8 -2q-143 62 -213 170q-71 109 -71 252q0 79 22 192l193 911h465l-211 -1001q-9 -30 -9 -66q0 -78 50 -122q49 -43 139 -43q120 0 190 73q72 75 99 201l204 960h465l-200 -942q-46 -213 -142 -356q-95 -141 -254 -215q-160 -74 -393 -74q-200 0 -342 62z
M1505 1667h-938l64 303h940z" />
    <glyph glyph-name="umacron" unicode="&#x16b;" horiz-adv-x="1355" 
d="M926 1128h450l-239 -1128h-445l49 229q-61 -111 -163 -184q-103 -74 -222 -74q-106 0 -174 39q-70 40 -104 107q-35 68 -35 153q0 74 16 152l150 706h453l-134 -624q-16 -88 -16 -119q0 -50 23 -80q23 -29 67 -29q142 0 197 254zM1253 1239h-862l64 299h862z" />
    <glyph glyph-name="Ubreve" unicode="&#x16c;" horiz-adv-x="1611" 
d="M387 31l8 -2q-143 62 -213 170q-71 109 -71 252q0 79 22 192l193 911h465l-211 -1001q-9 -30 -9 -66q0 -78 50 -122q49 -43 139 -43q120 0 190 73q72 75 99 201l204 960h465l-200 -942q-46 -213 -142 -356q-95 -141 -254 -215q-160 -74 -393 -74q-200 0 -342 62z
M838 1686l4 4q-92 30 -148 92q-55 61 -55 149q0 30 4 54h295q-3 -40 35 -64q39 -25 100 -25q63 0 111 25q47 24 53 61h295q-34 -163 -160 -245q-125 -82 -328 -82q-111 0 -206 31z" />
    <glyph glyph-name="ubreve" unicode="&#x16d;" horiz-adv-x="1355" 
d="M926 1128h450l-239 -1128h-445l49 229q-61 -111 -163 -184q-103 -74 -222 -74q-106 0 -174 39q-70 40 -104 107q-35 68 -35 153q0 74 16 152l150 706h453l-134 -624q-16 -88 -16 -119q0 -50 23 -80q23 -29 67 -29q142 0 197 254zM625 1247l-4 -4q-88 36 -136 98
q-49 64 -49 150q0 31 6 61h301q-2 -6 -2 -24q0 -40 31 -62q29 -20 84 -20q58 0 102 29q42 28 54 77h301q-21 -97 -88 -172q-68 -77 -172 -123q-102 -45 -236 -45q-105 0 -192 35z" />
    <glyph glyph-name="Uring" unicode="&#x16e;" horiz-adv-x="1611" 
d="M387 31l8 -2q-143 62 -213 170q-71 109 -71 252q0 79 22 192l193 911h465l-211 -1001q-9 -30 -9 -66q0 -78 50 -122q49 -43 139 -43q120 0 190 73q72 75 99 201l204 960h465l-200 -942q-46 -213 -142 -356q-95 -141 -254 -215q-160 -74 -393 -74q-200 0 -342 62z
M924 1683l4 -2q-67 37 -105 103q-37 64 -37 151q0 95 43 174q44 81 123 127q82 48 178 48q84 0 148 -37q65 -38 102 -101q37 -64 37 -151q0 -95 -43 -174q-44 -81 -123 -127q-80 -47 -178 -47q-84 0 -149 36zM1161 1907h-2q29 29 29 67q0 30 -21 51t-55 21q-39 0 -68 -29
q-26 -26 -26 -67q0 -32 20 -52t56 -20q38 0 67 29z" />
    <glyph glyph-name="uring" unicode="&#x16f;" horiz-adv-x="1355" 
d="M926 1128h450l-239 -1128h-445l49 229q-61 -111 -163 -184q-103 -74 -222 -74q-106 0 -174 39q-70 40 -104 107q-35 68 -35 153q0 74 16 152l150 706h453l-134 -624q-16 -88 -16 -119q0 -50 23 -80q23 -29 67 -29q142 0 197 254zM723 1245l-2 2q-57 29 -92 86
q-33 53 -33 129q0 86 39 154q40 70 110 110q71 41 154 41q71 0 129 -30q60 -31 90 -86q31 -57 31 -131q0 -82 -39 -150q-41 -71 -106 -113q-67 -43 -152 -43q-69 0 -129 31zM920 1446v2q22 22 22 55q0 26 -18 41q-20 17 -43 17q-33 0 -56 -23q-22 -22 -22 -55q0 -28 18 -43
q20 -17 43 -17q33 0 56 23z" />
    <glyph glyph-name="Uhungarumlaut" unicode="&#x170;" horiz-adv-x="1611" 
d="M387 31l8 -2q-143 62 -213 170q-71 109 -71 252q0 79 22 192l193 911h465l-211 -1001q-9 -30 -9 -66q0 -78 50 -122q49 -43 139 -43q120 0 190 73q72 75 99 201l204 960h465l-200 -942q-46 -213 -142 -356q-95 -141 -254 -215q-160 -74 -393 -74q-200 0 -342 62z
M973 1655h-408l334 325h535zM1554 1655h-405l334 325h534z" />
    <glyph glyph-name="uhungarumlaut" unicode="&#x171;" horiz-adv-x="1355" 
d="M926 1128h450l-239 -1128h-445l49 229q-61 -111 -163 -184q-103 -74 -222 -74q-106 0 -174 39q-70 40 -104 107q-35 68 -35 153q0 74 16 152l150 706h453l-134 -624q-16 -88 -16 -119q0 -50 23 -80q23 -29 67 -29q142 0 197 254zM778 1223h-372l262 333h499zM1331 1223
h-373l263 333h499z" />
    <glyph glyph-name="Uogonek" unicode="&#x172;" horiz-adv-x="1611" 
d="M1249 1556l469 -6l-200 -942q-41 -185 -113 -311q-75 -131 -191 -207q-95 -70 -131 -106q-39 -39 -39 -76q0 -23 19 -39q17 -14 59 -14h86l-61 -281h-148q-168 0 -258 41q-88 40 -88 141q0 118 142 213q-14 -2 -62 -2q-200 0 -342 62q-143 62 -213 170q-72 110 -72 252
q0 74 23 192l193 911h464l-211 -1001q-8 -27 -8 -66q0 -79 49 -122t140 -43q120 0 190 73q71 74 98 201z" />
    <glyph glyph-name="uogonek" unicode="&#x173;" horiz-adv-x="1355" 
d="M926 1128l444 -6l-240 -1128h-2q-110 -23 -167 -51q-56 -27 -56 -58q0 -21 27 -30t80 -9h88l-58 -272h-161q-176 0 -265 53q-88 52 -88 146q0 66 43 121q39 50 121 106l49 229q-61 -111 -163 -184q-103 -74 -222 -74q-106 0 -174 39q-70 40 -104 107q-35 68 -35 153
q0 74 16 152l150 706h453l-134 -624q-16 -88 -16 -119q0 -50 23 -80q23 -29 67 -29q142 0 197 254z" />
    <glyph glyph-name="Wcircumflex" unicode="&#x174;" horiz-adv-x="2377" 
d="M1618 115l498 1441h436l-555 -1556h-770l149 1462l-465 -1462h-766l99 1556h420l-109 -1433l469 1433h731zM1743 1985l205 -326h-392l-124 141l-170 -141h-404l322 326h563z" />
    <glyph glyph-name="wcircumflex" unicode="&#x175;" horiz-adv-x="1912" 
d="M1278 106l340 1022h377l-387 -1128h-666l121 1032l-320 -1032h-675l90 1128h370l-92 -1022l328 1022h618zM1411 1556l201 -333h-377l-121 155l-182 -155h-383l319 333h543z" />
    <glyph glyph-name="Ycircumflex" unicode="&#x176;" horiz-adv-x="1515" 
d="M1212 1556h551l-770 -972l-125 -584h-465l132 625l-371 931h483l195 -534zM1286 1985l205 -326h-391l-125 141l-170 -141h-404l322 326h563z" />
    <glyph glyph-name="ycircumflex" unicode="&#x177;" horiz-adv-x="1316" 
d="M569 252l383 876h475l-686 -1529h-456l223 510h-342l-43 1019h434zM1108 1556l201 -333h-377l-121 155l-182 -155h-383l319 333h543z" />
    <glyph glyph-name="Ydieresis" unicode="&#x178;" horiz-adv-x="1515" 
d="M1212 1556h551l-770 -972l-125 -584h-465l132 625l-371 931h483l195 -534zM895 1659h-469l68 326h469zM1444 1659h-469l67 326h469z" />
    <glyph glyph-name="Zacute" unicode="&#x179;" horiz-adv-x="1464" 
d="M295 1556h1286l-100 -471l-869 -716h752l-78 -369h-1333l100 471l871 717h-705zM1100 1659h-445l308 326h624z" />
    <glyph glyph-name="zacute" unicode="&#x17a;" horiz-adv-x="1222" 
d="M203 1128h1048l-86 -407l-606 -404h551l-68 -317h-1089l86 408l604 403h-508zM911 1223h-422l287 333h608z" />
    <glyph glyph-name="Zdotaccent" unicode="&#x17b;" horiz-adv-x="1464" 
d="M295 1556h1286l-100 -471l-869 -716h752l-78 -369h-1333l100 471l871 717h-705zM1143 1659h-469l67 326h469z" />
    <glyph glyph-name="zdotaccent" unicode="&#x17c;" horiz-adv-x="1222" 
d="M203 1128h1048l-86 -407l-606 -404h551l-68 -317h-1089l86 408l604 403h-508zM950 1231h-454l67 325h455z" />
    <glyph glyph-name="Zcaron" unicode="&#x17d;" horiz-adv-x="1464" 
d="M295 1556h1286l-100 -471l-869 -716h752l-78 -369h-1333l100 471l871 717h-705zM936 1845l170 140h403l-321 -326h-563l-205 326h391z" />
    <glyph glyph-name="zcaron" unicode="&#x17e;" horiz-adv-x="1222" 
d="M203 1128h1048l-86 -407l-606 -404h551l-68 -317h-1089l86 408l604 403h-508zM754 1399l180 157h385l-322 -333h-540l-201 333h377z" />
    <glyph glyph-name="uni018F" unicode="&#x18f;" horiz-adv-x="1726" 
d="M1417 1511l-4 -2q154 -75 232 -211q79 -137 79 -325q0 -283 -118 -510q-120 -231 -340 -363q-222 -133 -512 -133q-203 0 -357 80q-151 78 -235 225q-82 143 -82 332q0 89 14 174t43 174h1131q-6 145 -80 213t-191 68q-101 0 -180 -39q-81 -40 -137 -111h-483
q84 159 211 271q129 114 294 172q168 59 355 59q209 0 360 -74zM1040 393l-2 -4q99 73 158 201h-661q0 -87 34 -148q35 -62 97 -92q64 -31 141 -31q133 0 233 74z" />
    <glyph glyph-name="florin" unicode="&#x192;" horiz-adv-x="1265" 
d="M1196 1198l2 -6q-54 0 -86 -14q-31 -13 -55 -48q-23 -33 -43 -86l-13 -34h226l-76 -359h-281l-77 -211q-61 -170 -138 -264q-76 -93 -184 -137q-107 -43 -270 -43h-252l78 358h129q71 0 112 35t68 117l55 147h-186l78 359h239l37 98q62 172 137 264q77 96 185 139
q107 43 270 43h252l-76 -358h-131z" />
    <glyph glyph-name="uni019D" unicode="&#x19d;" horiz-adv-x="1822" 
d="M1487 1556h428l-330 -1556h-782l-70 1423l-284 -1349l-21 -97q-40 -181 -172 -280q-131 -98 -375 -98h-258l62 292h153q76 0 115 25q38 24 53 88l328 1552h782l70 -1423z" />
    <glyph glyph-name="uni01B5" unicode="&#x1b5;" horiz-adv-x="1482" 
d="M303 1556h1284l-98 -471l-324 -266h293l-43 -207h-500l-297 -243h754l-80 -369h-1331l100 471l351 289h-273l45 207h478l268 221h-705z" />
    <glyph glyph-name="uni01B6" unicode="&#x1b6;" horiz-adv-x="1232" 
d="M1255 1128l-88 -407l-198 -133h200l-32 -146h-387l-187 -125h551l-67 -317h-1090l86 408l223 149h-174l31 148h364l160 106h-508l68 317h1048z" />
    <glyph glyph-name="uni01E2" unicode="&#x1e2;" horiz-adv-x="2226" 
d="M2335 1556l-78 -368h-768l18 -211h691l-80 -369h-580l21 -239h542l-80 -369h-895l-20 360h-574l-176 -360h-491l799 1556h1671zM1042 1411l-331 -682h372zM1884 1671h-938l64 303h940z" />
    <glyph glyph-name="uni01E3" unicode="&#x1e3;" horiz-adv-x="2091" 
d="M1235 446l-8 -32q0 -189 123 -189q52 0 96 27t74 80h446q-90 -184 -252 -275q-164 -92 -377 -92q-168 0 -262 55q-96 57 -157 166q-82 -105 -211 -163q-132 -60 -304 -60q-109 0 -202 41t-148 117t-55 178q0 127 65 213q65 87 185 133q116 45 287 45h296l9 41q8 27 8 53
q0 51 -27 78q-29 29 -80 29q-59 0 -104 -31q-42 -29 -57 -88h-449q38 121 127 207q90 87 215 133q122 45 277 45q133 0 223 -43q91 -43 137 -119q79 79 184 121q107 43 232 43q249 0 387 -117q139 -118 139 -350q0 -52 -10 -117q-8 -52 -31 -129h-776zM1366 827v-2
q-58 -55 -92 -143h328q12 38 12 66q0 59 -31 98q-30 37 -86 37q-72 0 -131 -56zM690 274h-2q57 54 84 158h-133q-193 0 -193 -110q0 -46 31 -74q30 -27 80 -27q77 0 133 53zM1606 1225h-863l64 299h862z" />
    <glyph glyph-name="Gcaron" unicode="&#x1e6;" horiz-adv-x="1771" 
d="M819 588l72 338h862l-197 -930h-376l73 346q-81 -157 -215 -266q-131 -107 -348 -107q-156 0 -295 74q-136 72 -223 219q-86 145 -86 350q0 236 117 461t336 367q217 141 503 141q215 0 367 -70q157 -72 240 -186q88 -120 108 -266h-481q-24 85 -86 129q-61 43 -168 43
q-142 0 -246 -82q-105 -82 -160 -223q-55 -140 -55 -310q0 -143 82 -219q84 -78 221 -78q88 0 166 35t129 95q53 62 74 139h-414zM1098 1841l170 139h403l-321 -325h-564l-204 325h391z" />
    <glyph glyph-name="gcaron" unicode="&#x1e7;" horiz-adv-x="1402" 
d="M985 1128l447 -8l-238 -1124q-34 -149 -129 -248q-90 -95 -231 -143q-131 -45 -295 -45q-251 0 -400 94q-151 95 -166 283h447q21 -87 127 -87q80 0 137 48q58 48 72 122l41 197q-52 -90 -144 -149q-91 -58 -211 -58q-107 0 -196 53t-142 148q-51 92 -51 225
q0 179 70 344t203 271q131 104 311 104q86 0 147 -37q64 -39 99 -94q38 -60 53 -123zM778 356l2 -4q60 60 90 152q31 95 31 188q0 82 -35 123t-102 41q-76 0 -135 -59q-58 -58 -88 -150q-31 -95 -31 -186q0 -82 35 -123t98 -41q76 0 135 59zM864 1386l180 158h386l-322 -334
h-541l-200 334h376z" />
    <glyph glyph-name="uni01EA" unicode="&#x1ea;" horiz-adv-x="1751" 
d="M1151 -8l2 -2q-43 -43 -43 -82q0 -24 18 -39q17 -14 60 -14h84l-60 -281h-149q-168 0 -258 41q-88 40 -88 141q0 118 141 213q-12 -2 -55 -2q-204 0 -371 72q-161 69 -254 219q-92 148 -92 358q0 236 117 461q115 222 336 365q217 141 503 141q204 0 371 -72
q163 -70 254 -217q92 -148 92 -358q0 -160 -55 -315q-56 -157 -160 -291q-107 -137 -248 -224q-100 -69 -145 -114zM633 395l-4 -2q73 -76 200 -76q134 0 238 84q101 82 158 226q55 140 55 311q0 137 -72 215t-196 78q-136 0 -240 -84q-102 -82 -158 -225q-55 -140 -55 -312
q0 -138 74 -215z" />
    <glyph glyph-name="uni01EB" unicode="&#x1eb;" horiz-adv-x="1378" 
d="M881 -25l-7 2q-47 -47 -47 -79q0 -25 23 -35t72 -10h82l-60 -273h-147q-171 0 -260 45q-93 47 -93 137q0 64 41 117t111 96h-6q-168 0 -295 56q-125 55 -193 164q-67 107 -67 258q0 180 86 344t254 262t405 98q170 0 295 -55q128 -56 195 -164q67 -107 67 -258
q0 -180 -82 -338q-83 -159 -235 -258q-91 -61 -139 -109zM522 305l2 -4q34 -43 99 -43q75 0 135 66q61 67 90 163q31 102 31 203q0 90 -37 133t-101 43q-78 0 -135 -63q-58 -63 -88 -164q-31 -102 -31 -203q0 -87 35 -131z" />
    <glyph glyph-name="AEacute" unicode="&#x1fc;" horiz-adv-x="2226" 
d="M2335 1556l-78 -368h-768l18 -211h691l-80 -369h-580l21 -239h542l-80 -369h-895l-20 360h-574l-176 -360h-491l799 1556h1671zM1042 1411l-331 -682h372zM1606 1659h-445l307 326h625z" />
    <glyph glyph-name="aeacute" unicode="&#x1fd;" horiz-adv-x="2091" 
d="M1235 446l-8 -32q0 -189 123 -189q52 0 96 27t74 80h446q-90 -184 -252 -275q-164 -92 -377 -92q-168 0 -262 55q-96 57 -157 166q-82 -105 -211 -163q-132 -60 -304 -60q-109 0 -202 41t-148 117t-55 178q0 127 65 213q65 87 185 133q116 45 287 45h296l9 41q8 27 8 53
q0 51 -27 78q-29 29 -80 29q-59 0 -104 -31q-42 -29 -57 -88h-449q38 121 127 207q90 87 215 133q122 45 277 45q133 0 223 -43q91 -43 137 -119q79 79 184 121q107 43 232 43q249 0 387 -117q139 -118 139 -350q0 -52 -10 -117q-8 -52 -31 -129h-776zM1366 827v-2
q-58 -55 -92 -143h328q12 38 12 66q0 59 -31 98q-30 37 -86 37q-72 0 -131 -56zM690 274h-2q57 54 84 158h-133q-193 0 -193 -110q0 -46 31 -74q30 -27 80 -27q77 0 133 53zM1362 1208h-422l287 334h608z" />
    <glyph glyph-name="Oslashacute" unicode="&#x1fe;" horiz-adv-x="1751" 
d="M2030 1556l-344 -301q69 -132 69 -317q0 -236 -117 -461q-116 -223 -333 -364q-219 -142 -504 -142q-124 0 -246 29q-111 26 -203 84l-96 -84h-446l344 301q-70 134 -70 317q0 236 117 461q115 222 336 365q218 141 503 141q124 0 246 -29q114 -27 203 -86l96 86h445z
M780 1157v-2q-98 -74 -155 -209q-55 -131 -64 -291l610 535q-61 43 -157 43q-133 0 -234 -76zM1061 395v-2q96 75 153 209q57 136 66 293l-608 -535q64 -43 159 -43q129 0 230 78zM1292 1653h-444l307 325h625z" />
    <glyph glyph-name="oslashacute" unicode="&#x1ff;" horiz-adv-x="1378" 
d="M1507 1128l-233 -194q65 -109 65 -252q0 -180 -86 -344q-85 -162 -254 -264q-168 -101 -405 -101q-205 0 -342 82l-64 -53h-317l231 199q-63 105 -63 252q0 180 86 344t254 262t405 98q203 0 344 -84l64 55h315zM631 825v-2q-50 -44 -86 -121q-33 -69 -45 -161l342 293
q-33 36 -94 36q-66 0 -117 -45zM745 307l3 -2q50 44 86 121q32 68 45 164l-342 -293q34 -37 92 -37q63 0 116 47zM1001 1221h-421l286 333h609z" />
    <glyph glyph-name="uni0218" unicode="&#x218;" horiz-adv-x="1501" 
d="M342 31l8 2q-153 59 -239 176q-86 118 -86 285h481q3 -94 65 -144q61 -49 183 -49q109 0 174 35q63 34 63 98q0 56 -43 86q-52 36 -143 60l-244 69q-174 52 -272 156q-99 105 -99 266q0 140 91 260q90 118 251 185q162 67 369 67q299 0 459 -121t184 -332h-483
q-9 59 -64 93t-149 34q-100 0 -154 -32q-57 -34 -57 -86q0 -34 22 -56q23 -23 66 -41q52 -22 123 -43l246 -69q111 -30 188 -92q76 -62 117 -144q39 -79 39 -174q0 -167 -86 -291q-85 -122 -252 -190q-168 -68 -400 -68q-201 0 -358 60zM393 -426l68 324h469l-78 -363
l-209 -209h-291l189 248h-148z" />
    <glyph glyph-name="uni0219" unicode="&#x219;" horiz-adv-x="1253" 
d="M283 16l6 2q-128 46 -205 132t-86 204h446q15 -63 62 -98q44 -33 117 -33q63 0 100 21t37 57q0 34 -31 53q-32 19 -111 43l-200 60q-155 48 -228 118q-77 74 -77 197q0 108 71 197q70 88 203 141q128 51 307 51q150 0 269 -43q122 -44 194 -119q74 -77 86 -184h-446
q-9 46 -49 70t-99 24q-57 0 -94 -18t-37 -53q0 -29 35 -50t117 -45l200 -59q149 -48 220 -131q73 -85 73 -199q0 -112 -65 -198q-65 -87 -197 -136q-131 -49 -321 -49q-172 0 -297 45zM264 -426l68 324h454l-75 -363l-211 -209h-277l189 248h-148z" />
    <glyph glyph-name="uni021A" unicode="&#x21a;" horiz-adv-x="1409" 
d="M242 1556h1343l-76 -368h-440l-252 -1188h-465l250 1188h-440zM260 -428l68 324h469l-78 -363l-209 -209h-291l189 248h-148z" />
    <glyph glyph-name="uni021B" unicode="&#x21b;" horiz-adv-x="917" 
d="M705 811l-82 -389q-7 -21 -7 -39q0 -33 25 -49q24 -15 78 -15h88l-70 -317h-221q-105 0 -190 31q-82 30 -129 92t-47 147q0 37 10 95l94 444h-178l69 317h177l55 267h452l-57 -267h207l-70 -317h-204zM98 -428l68 324h455l-76 -363l-211 -209h-277l189 248h-148z" />
    <glyph glyph-name="uni022E" unicode="&#x22e;" horiz-adv-x="1751" 
d="M430 43l-2 -2q-161 69 -254 219q-92 148 -92 358q0 236 117 461q115 222 336 365q217 141 503 141q204 0 371 -72q163 -70 254 -217q92 -148 92 -358q0 -236 -117 -461q-116 -223 -333 -364q-219 -142 -504 -142q-204 0 -371 72zM1067 403l-4 -2q101 82 158 226
q55 140 55 311q0 137 -72 215t-196 78q-136 0 -240 -84q-102 -82 -158 -225q-55 -140 -55 -312q0 -138 74 -215q73 -76 200 -76q134 0 238 84zM1329 1655h-469l68 325h469z" />
    <glyph glyph-name="uni022F" unicode="&#x22f;" horiz-adv-x="1378" 
d="M301 27l-2 4q-125 55 -193 164q-67 107 -67 258q0 180 86 344t254 262t405 98q170 0 295 -55q128 -56 195 -164q67 -107 67 -258q0 -180 -86 -344q-85 -162 -254 -264q-168 -101 -405 -101q-168 0 -295 56zM762 328l2 -4q61 67 90 163q31 102 31 203q0 90 -37 133
t-100 43q-79 0 -136 -63q-58 -63 -88 -164q-30 -99 -30 -203q0 -88 34 -131t99 -43q75 0 135 66zM1038 1229h-454l67 325h455z" />
    <glyph glyph-name="uni0232" unicode="&#x232;" horiz-adv-x="1515" 
d="M1212 1556h551l-770 -972l-125 -584h-465l132 625l-371 931h483l195 -534zM1407 1671h-938l63 303h941z" />
    <glyph glyph-name="uni0233" unicode="&#x233;" horiz-adv-x="1316" 
d="M569 252l383 876h475l-686 -1529h-456l223 510h-342l-43 1019h434zM1206 1239h-862l64 299h862z" />
    <glyph glyph-name="uni0237" unicode="&#x237;" horiz-adv-x="649" 
d="M-266 -401l67 317h43q66 0 97 25t43 79l235 1108h451l-252 -1183q-37 -175 -160 -260q-124 -86 -348 -86h-176z" />
    <glyph glyph-name="uni0259" unicode="&#x259;" horiz-adv-x="1331" 
d="M1038 1098l6 -2q126 -60 189 -166q65 -109 65 -252q0 -180 -86 -344q-85 -162 -251 -264q-165 -101 -394 -101q-249 0 -387 117q-139 118 -139 350q0 52 10 117q8 52 31 129h776v23q0 188 -121 188q-54 0 -96 -25q-38 -23 -74 -77h-446q89 183 252 274q164 92 375 92
q166 0 290 -59zM721 287q56 53 92 145h-328q-12 -38 -12 -65q0 -60 31 -99q30 -37 86 -37q72 0 131 56z" />
    <glyph glyph-name="uni0272" unicode="&#x272;" horiz-adv-x="1363" 
d="M1182 1118v-2q71 -41 104 -106q35 -68 35 -154q0 -60 -16 -151l-152 -707h-451l134 625q14 66 14 116q0 52 -25 80q-26 29 -69 29q-70 0 -123 -62t-80 -190l-127 -598l-12 -55q-37 -175 -160 -260q-124 -86 -348 -86h-176l67 317h45q66 0 97 25q32 26 41 79l16 72h2
l219 1036h442l-49 -229q64 113 168 186q106 74 226 74q110 0 178 -39z" />
    <glyph glyph-name="circumflex" unicode="&#x2c6;" horiz-adv-x="1122" 
d="M1032 1556l201 -333h-377l-121 155l-182 -155h-383l319 333h543z" />
    <glyph glyph-name="caron" unicode="&#x2c7;" horiz-adv-x="1122" 
d="M739 1399l181 157h385l-322 -333h-541l-200 333h376z" />
    <glyph glyph-name="breve" unicode="&#x2d8;" horiz-adv-x="927" 
d="M422 1247l-4 -4q-87 35 -135 98q-50 65 -50 150q0 26 7 61h301q-2 -6 -2 -24q0 -41 30 -62q29 -20 84 -20q59 0 103 29q41 27 53 77h301q-21 -97 -88 -172q-68 -77 -172 -123q-102 -45 -236 -45q-105 0 -192 35z" />
    <glyph glyph-name="dotaccent" unicode="&#x2d9;" horiz-adv-x="516" 
d="M629 1231h-455l68 325h454z" />
    <glyph glyph-name="ring" unicode="&#x2da;" horiz-adv-x="612" 
d="M350 1245l-2 2q-57 29 -92 86q-33 53 -33 129q0 86 39 154q40 69 111 110t153 41q70 0 129 -30q60 -31 90 -86q31 -57 31 -131q0 -82 -39 -150q-41 -71 -106 -113q-67 -43 -152 -43q-69 0 -129 31zM547 1446v2q22 22 22 55q0 26 -18 41q-20 17 -43 17q-32 0 -55 -23
t-23 -55q0 -27 19 -43q20 -17 43 -17q32 0 55 23z" />
    <glyph glyph-name="ogonek" unicode="&#x2db;" horiz-adv-x="622" 
d="M219 -424l-6 -6q-175 0 -264 53q-88 52 -88 146q0 65 43 120q41 52 121 107h442q-111 -23 -168 -51q-55 -27 -55 -58q0 -21 26 -30q27 -9 80 -9h88l-57 -272h-162z" />
    <glyph glyph-name="tilde" unicode="&#x2dc;" horiz-adv-x="829" 
d="M172 1233v2q41 178 119 268q80 92 190 92q45 0 86 -14q39 -13 74 -31q26 -13 59 -24q24 -8 60 -8q44 0 78 24q34 23 49 62h131q-41 -181 -119 -271q-80 -92 -192 -92q-45 0 -86 14q-39 13 -74 31q-62 33 -115 33q-44 0 -80 -25q-34 -24 -49 -61h-131z" />
    <glyph glyph-name="hungarumlaut" unicode="&#x2dd;" horiz-adv-x="1302" 
d="M543 1223h-373l262 333h500zM1096 1223h-373l262 333h500z" />
    <glyph glyph-name="gravecomb" unicode="&#x300;" horiz-adv-x="0" 
d="M109 1223h-416l-322 333h588z" />
    <glyph glyph-name="acutecomb" unicode="&#x301;" horiz-adv-x="0" 
d="M-291 1223h-422l287 333h608z" />
    <glyph glyph-name="uni0302" unicode="&#x302;" horiz-adv-x="0" 
d="M-90 1556l201 -333h-377l-121 155l-182 -155h-383l319 333h543z" />
    <glyph glyph-name="tildecomb" unicode="&#x303;" horiz-adv-x="0" 
d="M-657 1233v2q42 180 118 268q80 92 191 92q45 0 86 -14q39 -13 74 -31q26 -13 59 -24q24 -8 59 -8q44 0 78 24q34 23 49 62h131q-42 -183 -118 -271q-80 -92 -193 -92q-45 0 -86 14q-39 13 -74 31q-62 33 -114 33q-44 0 -80 -25q-34 -24 -49 -61h-131z" />
    <glyph glyph-name="uni0304" unicode="&#x304;" horiz-adv-x="0" 
d="M113 1239h-863l64 299h862z" />
    <glyph glyph-name="uni0306" unicode="&#x306;" horiz-adv-x="0" 
d="M-506 1247l-4 -4q-87 35 -135 98q-49 64 -49 150q0 31 6 61h301q-2 -6 -2 -24q0 -40 31 -62q29 -20 84 -20q58 0 102 29q41 27 53 77h301q-21 -97 -88 -172q-68 -77 -172 -123q-102 -45 -235 -45q-106 0 -193 35z" />
    <glyph glyph-name="uni0307" unicode="&#x307;" horiz-adv-x="0" 
d="M113 1231h-455l68 325h454z" />
    <glyph glyph-name="uni0308" unicode="&#x308;" horiz-adv-x="0" 
d="M-438 1231h-455l68 325h454zM113 1231h-455l68 325h454z" />
    <glyph glyph-name="uni030A" unicode="&#x30a;" horiz-adv-x="0" 
d="M-262 1245l-2 2q-57 29 -92 86q-33 53 -33 129q0 86 39 154q40 70 110 110q71 41 154 41q70 0 129 -30q60 -31 90 -86q31 -57 31 -131q0 -82 -39 -150q-40 -70 -107 -113t-151 -43q-69 0 -129 31zM-66 1446v2q23 23 23 55q0 26 -18 41q-20 17 -43 17q-33 0 -56 -23
q-22 -22 -22 -55q0 -28 18 -43q20 -17 43 -17q32 0 55 23z" />
    <glyph glyph-name="uni030B" unicode="&#x30b;" horiz-adv-x="0" 
d="M-760 1223h-373l263 333h499zM-207 1223h-373l263 333h499z" />
    <glyph glyph-name="uni030C" unicode="&#x30c;" horiz-adv-x="0" 
d="M-383 1399l180 157h385l-321 -333h-541l-201 333h377z" />
    <glyph glyph-name="uni0312" unicode="&#x312;" horiz-adv-x="0" 
d="M-53 1817h276l-188 -248h147l-67 -324h-457l78 363z" />
    <glyph glyph-name="dotbelowcomb" unicode="&#x323;" horiz-adv-x="0" 
d="M-240 -430h-454l67 326h455z" />
    <glyph glyph-name="uni0326" unicode="&#x326;" horiz-adv-x="0" 
d="M-696 -428l67 324h455l-76 -363l-211 -209h-276l188 248h-147z" />
    <glyph glyph-name="uni0327" unicode="&#x327;" horiz-adv-x="0" 
d="M-342 -59l-2 -4q64 -9 104 -46q39 -36 39 -94q0 -63 -35 -116t-96 -80q-62 -27 -141 -27h-189l37 172h82q31 0 49 12q19 13 19 35q0 31 -49 31h-47l36 176h205z" />
    <glyph glyph-name="uni0328" unicode="&#x328;" horiz-adv-x="0" 
d="M-403 -424l-7 -6q-175 0 -264 53q-88 52 -88 146q0 65 43 120q41 52 121 107h442q-111 -23 -168 -51q-55 -27 -55 -58q0 -21 27 -30t80 -9h88l-58 -272h-161z" />
    <glyph glyph-name="uni0335" unicode="&#x335;" horiz-adv-x="0" 
d="M-510 1196h-739l49 260h741z" />
    <glyph glyph-name="uni0336" unicode="&#x336;" horiz-adv-x="0" 
d="M86 1114h-1669l59 285h1669z" />
    <glyph glyph-name="uni0337" unicode="&#x337;" horiz-adv-x="0" 
d="M23 811l-791 -426l82 383l790 424z" />
    <glyph glyph-name="uni0338" unicode="&#x338;" horiz-adv-x="0" 
d="M-1231 0h-317l1321 1128h315z" />
    <glyph glyph-name="uni0394" unicode="&#x394;" horiz-adv-x="1681" 
d="M1448 1556l135 -1556h-1726l798 1556h793zM1096 369l-62 1042l-508 -1042h570z" />
    <glyph glyph-name="uni03A9" unicode="&#x3a9;" horiz-adv-x="1712" 
d="M1661 741l2 -6q-73 -122 -209 -217t-315 -153h424l-78 -369h-688l100 471q167 75 268 207q99 129 99 295q0 71 -31 135q-28 58 -92 94q-62 35 -148 35q-113 0 -198 -55q-86 -56 -133 -148q-48 -94 -48 -205q0 -105 41 -192q40 -84 136 -168l-101 -471h-688l80 368h432
q-173 75 -276 203q-101 125 -101 291q0 205 115 373q113 165 317 260q201 94 451 94q233 0 391 -70q159 -71 242 -200q82 -128 82 -307q0 -141 -74 -265z" />
    <glyph glyph-name="uni03BC" unicode="&#x3bc;" horiz-adv-x="1476" 
d="M1257 328l7 4q26 -13 77 -13h48l-68 -317h-166q-353 0 -399 223v2q-55 -98 -144 -166q-91 -69 -184 -84l-82 -376h-450l325 1529h451l-133 -624q-17 -94 -17 -119q0 -50 23 -80q22 -28 67 -28q72 0 121 61q52 64 78 190l127 598h451l-152 -710q-4 -24 -4 -47
q0 -31 24 -43z" />
    <glyph glyph-name="pi" unicode="&#x3c0;" horiz-adv-x="1531" 
d="M1341 811l-84 -389q-4 -32 -4 -39q0 -33 25 -49q24 -15 78 -15h51l-68 -317h-186q-105 0 -190 31q-82 30 -129 92q-48 63 -48 147q0 31 11 95l94 444h-178l-172 -811h-451l172 811h-172l70 317h1421l-68 -317h-172z" />
    <glyph glyph-name="uni0E3F" unicode="&#xe3f;" horiz-adv-x="1509" 
d="M1294 682l-4 -6q99 -83 99 -227q0 -186 -142 -304q-140 -116 -407 -143l-60 -276h-454l57 268h-363l332 1556h363l55 258h455l-60 -276q162 -34 240 -127t78 -234q0 -117 -64 -196q-64 -78 -166 -125q-104 -47 -221 -62q164 -24 262 -106zM819 934h-2q101 0 156 43
t55 108q0 53 -39 82q-42 31 -110 31h-142l-57 -264h139zM705 342v-4q113 0 172 47q57 45 57 115q0 59 -43 96t-117 37h-160l-61 -291h152z" />
    <glyph glyph-name="Wgrave" unicode="&#x1e80;" horiz-adv-x="2377" 
d="M1618 115l498 1441h436l-555 -1556h-770l149 1462l-465 -1462h-766l99 1556h420l-109 -1433l469 1433h731zM1618 1659h-430l-344 326h602z" />
    <glyph glyph-name="wgrave" unicode="&#x1e81;" horiz-adv-x="1912" 
d="M1278 106l340 1022h377l-387 -1128h-666l121 1032l-320 -1032h-675l90 1128h370l-92 -1022l328 1022h618zM1298 1223h-415l-322 333h588z" />
    <glyph glyph-name="Wacute" unicode="&#x1e82;" horiz-adv-x="2377" 
d="M1618 115l498 1441h436l-555 -1556h-770l149 1462l-465 -1462h-766l99 1556h420l-109 -1433l469 1433h731zM1640 1659h-444l307 326h625z" />
    <glyph glyph-name="wacute" unicode="&#x1e83;" horiz-adv-x="1912" 
d="M1278 106l340 1022h377l-387 -1128h-666l121 1032l-320 -1032h-675l90 1128h370l-92 -1022l328 1022h618zM1317 1223h-422l287 333h608z" />
    <glyph glyph-name="Wdieresis" unicode="&#x1e84;" horiz-adv-x="2377" 
d="M1618 115l498 1441h436l-555 -1556h-770l149 1462l-465 -1462h-766l99 1556h420l-109 -1433l469 1433h731zM1352 1659h-469l67 326h469zM1901 1659h-469l67 326h469z" />
    <glyph glyph-name="wdieresis" unicode="&#x1e85;" horiz-adv-x="1912" 
d="M1278 106l340 1022h377l-387 -1128h-666l121 1032l-320 -1032h-675l90 1128h370l-92 -1022l328 1022h618zM1028 1231h-455l68 325h455zM1579 1231h-455l68 325h455z" />
    <glyph glyph-name="uni1E9E" unicode="&#x1e9e;" horiz-adv-x="1634" 
d="M1679 1556l-96 -436l-315 -260q129 -30 209 -119q79 -88 79 -227q0 -174 -81 -295q-80 -120 -234 -186q-149 -64 -356 -64q-146 0 -256 49l65 310q51 -26 78 -35q38 -12 84 -12q64 0 117 24q51 23 82 68q30 44 30 100q0 73 -57 107q-54 32 -168 32h-59l71 338l289 238
h-440l-252 -1188h-465l330 1556h1345z" />
    <glyph glyph-name="uni1EA0" unicode="&#x1ea0;" horiz-adv-x="1695" 
d="M1591 0h-465l-20 360h-574l-176 -360h-491l799 1556h792zM1042 1411l-331 -682h372zM895 -430h-469l68 326h469z" />
    <glyph glyph-name="uni1EA1" unicode="&#x1ea1;" horiz-adv-x="1341" 
d="M1149 1063l-2 -8q143 -91 143 -279q0 -50 -12 -112l-143 -672h-443l39 182q-60 -95 -156 -151q-102 -60 -223 -60q-98 0 -178 41t-127 115q-45 71 -45 170q0 182 133 282q132 99 393 123l310 27l2 8q8 27 8 53q0 51 -27 78q-29 29 -80 29q-60 0 -102 -31q-41 -31 -59 -88
h-447q39 124 125 207q90 87 215 133q122 45 277 45q254 0 399 -92zM700 285h-2q60 70 84 182v2l-141 -12q-91 -9 -139 -43q-49 -34 -49 -95q0 -48 30 -75t78 -27q80 0 139 68zM731 -440h-455l68 325h455z" />
    <glyph glyph-name="uni1EB8" unicode="&#x1eb8;" horiz-adv-x="1366" 
d="M1477 1556l-80 -368h-676l-45 -211h661l-77 -369h-662l-49 -239h692l-78 -369h-1159l330 1556h1143zM727 -430h-469l68 326h469z" />
    <glyph glyph-name="uni1EB9" unicode="&#x1eb9;" horiz-adv-x="1331" 
d="M475 446l-8 -20q0 -188 121 -188q56 0 96 24q37 22 74 78h446q-89 -183 -252 -274q-166 -93 -374 -93q-165 0 -291 60q-123 58 -187 166q-65 109 -65 252q0 180 86 344q84 161 252 264q163 100 393 100q249 0 387 -117q139 -118 139 -350q0 -52 -10 -117q-8 -52 -31 -129
h-776zM606 840v-2q-57 -54 -92 -144h328q12 38 12 66q0 59 -31 98q-30 37 -86 37q-73 0 -131 -55zM696 -432h-454l67 326h455z" />
    <glyph glyph-name="uni1EBC" unicode="&#x1ebc;" horiz-adv-x="1366" 
d="M1477 1556l-80 -368h-676l-45 -211h661l-77 -369h-662l-49 -239h692l-78 -369h-1159l330 1556h1143zM502 1665l-4 -2q41 179 125 272q86 95 202 95q47 0 93 -15q39 -13 79 -30q39 -17 66 -25t63 -8q44 0 82 24t56 62h135q-41 -178 -123 -273q-82 -94 -201 -94
q-46 0 -92 12q-33 8 -80 29q-45 20 -63 25q-33 10 -64 10q-43 0 -82 -25q-38 -24 -55 -57h-137z" />
    <glyph glyph-name="uni1EBD" unicode="&#x1ebd;" horiz-adv-x="1331" 
d="M475 446l-8 -20q0 -188 121 -188q56 0 96 24q37 22 74 78h446q-89 -183 -252 -274q-166 -93 -374 -93q-165 0 -291 60q-123 58 -187 166q-65 109 -65 252q0 180 86 344q84 161 252 264q163 100 393 100q249 0 387 -117q139 -118 139 -350q0 -52 -10 -117q-8 -52 -31 -129
h-776zM606 840v-2q-57 -54 -92 -144h328q12 38 12 66q0 59 -31 98q-30 37 -86 37q-73 0 -131 -55zM406 1231v2q42 180 118 268q80 92 191 92q45 0 86 -14q35 -12 73 -31q24 -12 60 -24q24 -8 59 -8q43 0 78 24q34 23 49 62h131q-42 -183 -118 -271q-80 -92 -193 -92
q-45 0 -86 14q-39 13 -74 31q-62 33 -114 33q-44 0 -80 -25q-34 -24 -49 -61h-131z" />
    <glyph glyph-name="uni1ECA" unicode="&#x1eca;" horiz-adv-x="712" 
d="M469 0h-465l330 1556h465zM379 -430h-469l67 326h469z" />
    <glyph glyph-name="uni1ECB" unicode="&#x1ecb;" horiz-adv-x="649" 
d="M430 0h-450l239 1128h451zM694 1231h-454l67 325h455zM342 -430h-455l68 326h455z" />
    <glyph glyph-name="uni1ECC" unicode="&#x1ecc;" horiz-adv-x="1751" 
d="M430 43l-2 -2q-161 69 -254 219q-92 148 -92 358q0 236 117 461q115 222 336 365q217 141 503 141q204 0 371 -72q163 -70 254 -217q92 -148 92 -358q0 -236 -117 -461q-116 -223 -333 -364q-219 -142 -504 -142q-204 0 -371 72zM1067 403l-4 -2q101 82 158 226
q55 140 55 311q0 137 -72 215t-196 78q-136 0 -240 -84q-102 -82 -158 -225q-55 -140 -55 -312q0 -138 74 -215q73 -76 200 -76q134 0 238 84zM918 -434h-469l67 325h469z" />
    <glyph glyph-name="uni1ECD" unicode="&#x1ecd;" horiz-adv-x="1378" 
d="M301 27l-2 4q-125 55 -193 164q-67 107 -67 258q0 180 86 344t254 262t405 98q170 0 295 -55q128 -56 195 -164q67 -107 67 -258q0 -180 -86 -344q-85 -162 -254 -264q-168 -101 -405 -101q-168 0 -295 56zM762 328l2 -4q61 67 90 163q31 102 31 203q0 90 -37 133
t-100 43q-79 0 -136 -63q-58 -63 -88 -164q-30 -99 -30 -203q0 -88 34 -131t99 -43q75 0 135 66zM727 -432h-455l68 326h455z" />
    <glyph glyph-name="uni1EE4" unicode="&#x1ee4;" horiz-adv-x="1611" 
d="M387 31l8 -2q-143 62 -213 170q-71 109 -71 252q0 79 22 192l193 911h465l-211 -1001q-9 -30 -9 -66q0 -78 50 -122q49 -43 139 -43q120 0 190 73q72 75 99 201l204 960h465l-200 -942q-46 -213 -142 -356q-95 -141 -254 -215q-160 -74 -393 -74q-200 0 -342 62z
M856 -434h-469l68 325h469z" />
    <glyph glyph-name="uni1EE5" unicode="&#x1ee5;" horiz-adv-x="1355" 
d="M926 1128h450l-239 -1128h-445l49 229q-61 -111 -163 -184q-103 -74 -222 -74q-106 0 -174 39q-70 40 -104 107q-35 68 -35 153q0 74 16 152l150 706h453l-134 -624q-16 -88 -16 -119q0 -50 23 -80q23 -29 67 -29q142 0 197 254zM719 -430h-455l68 326h454z" />
    <glyph glyph-name="Ygrave" unicode="&#x1ef2;" horiz-adv-x="1515" 
d="M1212 1556h551l-770 -972l-125 -584h-465l132 625l-371 931h483l195 -534zM1182 1659h-430l-344 326h602z" />
    <glyph glyph-name="ygrave" unicode="&#x1ef3;" horiz-adv-x="1316" 
d="M569 252l383 876h475l-686 -1529h-456l223 510h-342l-43 1019h434zM1001 1223h-415l-322 333h588z" />
    <glyph glyph-name="uni1EF8" unicode="&#x1ef8;" horiz-adv-x="1515" 
d="M1212 1556h551l-770 -972l-125 -584h-465l132 625l-371 931h483l195 -534zM528 1665l-4 -2q41 179 125 272q86 95 203 95q46 0 92 -15q43 -14 80 -30q39 -17 66 -25t63 -8q45 0 82 24q36 23 55 62h135q-41 -180 -122 -273q-82 -94 -201 -94q-46 0 -92 12q-33 8 -80 29
q-43 19 -64 25q-33 10 -63 10q-43 0 -82 -25q-38 -24 -55 -57h-138z" />
    <glyph glyph-name="uni1EF9" unicode="&#x1ef9;" horiz-adv-x="1316" 
d="M569 252l383 876h475l-686 -1529h-456l223 510h-342l-43 1019h434zM391 1233v2q41 178 119 268q80 92 190 92q45 0 86 -14q39 -13 74 -31q24 -12 60 -24q24 -8 59 -8q43 0 78 24q34 23 49 62h131q-41 -181 -119 -271q-80 -92 -192 -92q-45 0 -86 14q-39 13 -74 31
q-62 33 -115 33q-44 0 -80 -25q-34 -24 -49 -61h-131z" />
    <glyph glyph-name="uni2009" unicode="&#x2009;" horiz-adv-x="256" 
 />
    <glyph glyph-name="uni2011" unicode="&#x2011;" horiz-adv-x="905" 
d="M776 410h-713l78 362h711z" />
    <glyph glyph-name="endash" unicode="&#x2013;" horiz-adv-x="1136" 
d="M1006 410h-943l78 362h940z" />
    <glyph glyph-name="emdash" unicode="&#x2014;" horiz-adv-x="1738" 
d="M1608 410h-1545l78 362h1542z" />
    <glyph glyph-name="quoteleft" unicode="&#x2018;" horiz-adv-x="628" 
d="M459 1556h291l-211 -303h145l-84 -391h-459l95 445z" />
    <glyph glyph-name="quoteright" unicode="&#x2019;" horiz-adv-x="614" 
d="M217 1165l84 391h461l-96 -444l-222 -250h-290l208 303h-145z" />
    <glyph glyph-name="quotesinglbase" unicode="&#x201a;" horiz-adv-x="671" 
d="M-14 0l84 391h460l-96 -444l-221 -250h-291l209 303h-145z" />
    <glyph glyph-name="quotedblleft" unicode="&#x201c;" horiz-adv-x="1187" 
d="M449 1556h290l-211 -303h148l-84 -391h-461l94 445zM1008 1556h290l-211 -303h148l-84 -391h-461l94 445z" />
    <glyph glyph-name="quotedblright" unicode="&#x201d;" horiz-adv-x="1173" 
d="M784 1165l84 391h461l-96 -444l-221 -250h-291l209 303h-146zM225 1165l84 391h461l-96 -444l-221 -250h-291l209 303h-146z" />
    <glyph glyph-name="quotedblbase" unicode="&#x201e;" horiz-adv-x="1230" 
d="M545 0l84 391h461l-97 -444l-221 -250h-291l209 303h-145zM-14 0l84 391h460l-96 -444l-221 -250h-291l209 303h-145z" />
    <glyph glyph-name="dagger" unicode="&#x2020;" horiz-adv-x="1267" 
d="M995 1204h308l-76 -358h-309l-179 -846h-450l178 846h-305l76 358h307l73 352h451z" />
    <glyph glyph-name="daggerdbl" unicode="&#x2021;" horiz-adv-x="1267" 
d="M1303 1204l-76 -358h-309l-27 -135h307l-78 -359h-307l-74 -352h-450l73 352h-305l76 359h307l27 135h-305l76 358h307l73 352h451l-74 -352h308z" />
    <glyph glyph-name="bullet" unicode="&#x2022;" horiz-adv-x="1095" 
d="M348 233q-91 55 -147 148q-56 92 -56 203q0 109 56 204q55 94 147 150q91 55 203 55t203 -55q92 -56 147 -150t55 -204q0 -112 -55 -203q-56 -93 -147 -148t-203 -55t-203 55z" />
    <glyph glyph-name="ellipsis" unicode="&#x2026;" horiz-adv-x="2015" 
d="M446 0h-460l84 391h460zM1118 0h-461l84 391h461zM1790 0h-461l84 391h461z" />
    <glyph glyph-name="perthousand" unicode="&#x2030;" horiz-adv-x="2623" 
d="M934 981h-4q-53 -129 -164 -209q-112 -80 -270 -80q-160 0 -246 86t-86 240q0 148 53 278q53 129 164 209q112 80 270 80q159 0 248 -86q88 -85 88 -239q0 -149 -53 -279zM287 -2l1226 1556h402l-1225 -1556h-403zM524 920q51 0 88 61q38 62 56 145q18 82 18 142
q0 88 -65 88q-51 0 -89 -62q-37 -61 -55 -143q-18 -83 -18 -141q0 -90 65 -90zM2456 772h-5q89 -86 89 -240q0 -145 -54 -278q-53 -130 -157 -209q-106 -80 -258 -80q-75 0 -138 29q-55 25 -94 80q-115 -109 -283 -109q-159 0 -245 86t-86 240q0 148 53 278q53 129 158 209
q106 80 258 80q150 0 233 -108q108 108 281 108q159 0 248 -86zM1669 258q36 60 55 145q19 87 19 140q0 90 -68 90q-48 0 -86 -62q-36 -60 -55 -145q-18 -82 -18 -141q0 -88 65 -88q51 0 88 61zM2169 258q36 60 55 145q19 87 19 140q0 90 -68 90q-48 0 -86 -62
q-36 -60 -55 -145q-19 -87 -19 -141q0 -88 66 -88q51 0 88 61z" />
    <glyph glyph-name="minute" unicode="&#x2032;" horiz-adv-x="626" 
d="M487 905h-352l221 651h467z" />
    <glyph glyph-name="second" unicode="&#x2033;" horiz-adv-x="1165" 
d="M487 905h-352l221 651h467zM1024 905h-352l221 651h467z" />
    <glyph glyph-name="guilsinglleft" unicode="&#x2039;" horiz-adv-x="933" 
d="M442 1020h525l-392 -457l189 -463h-512l-180 471z" />
    <glyph glyph-name="guilsinglright" unicode="&#x203a;" horiz-adv-x="931" 
d="M166 1020h514l180 -471l-371 -449h-524l391 455z" />
    <glyph glyph-name="uni2042" unicode="&#x2042;" horiz-adv-x="1746" 
d="M1282 1354l31 -244l-207 -25l94 -198l-233 -105l-99 205l-172 -147l-172 190l168 144l-180 104l131 211l178 -105l39 191l254 -53l-41 -193zM729 528l31 -243l-207 -25l94 -199l-233 -104l-99 205l-172 -148l-172 191l168 143l-180 105l131 211l178 -105l39 191l254 -54
l-41 -192zM1692 528l30 -243l-206 -25l94 -199l-234 -104l-98 205l-172 -148l-172 191l168 143l-180 105l131 211l178 -105l39 191l254 -54l-41 -192z" />
    <glyph glyph-name="fraction" unicode="&#x2044;" horiz-adv-x="493" 
d="M-106 0h-359l1155 1556h359z" />
    <glyph glyph-name="uni2070" unicode="&#x2070;" horiz-adv-x="786" 
d="M274 1049v-7q-75 75 -75 222q0 136 47 254t145 188q101 72 250 72q143 0 219 -76q78 -78 78 -217q0 -136 -47 -254q-46 -117 -148 -187q-103 -71 -251 -71q-142 0 -218 76zM606 1217h-2q35 56 53 133q19 81 19 135q0 43 -17 67q-16 23 -49 23q-50 0 -84 -55
q-31 -50 -51 -134q-18 -76 -18 -135q0 -45 16 -67q16 -23 49 -23q49 0 84 56z" />
    <glyph glyph-name="uni2074" unicode="&#x2074;" horiz-adv-x="776" 
d="M817 1356h98l-43 -203h-98l-35 -166h-260l35 166h-358l55 256l223 356h471zM627 1673l-211 -317h141z" />
    <glyph glyph-name="uni2075" unicode="&#x2075;" horiz-adv-x="753" 
d="M879 1563l-351 2l-43 -152q27 46 76 76q51 31 109 31q94 0 147 -62q51 -60 51 -172q0 -97 -47 -168q-45 -68 -131 -106q-84 -37 -198 -37q-93 0 -166 31q-70 30 -111 92q-39 59 -39 145h264q0 -33 19 -55q18 -21 53 -21q45 0 74 29q28 28 28 68q0 32 -20 49
q-21 18 -55 18q-60 0 -86 -45l-256 23l135 456h590z" />
    <glyph glyph-name="uni2076" unicode="&#x2076;" horiz-adv-x="772" 
d="M825 1446l-8 2q62 -62 62 -162q0 -95 -50 -166t-137 -108t-198 -37q-88 0 -160 35q-70 34 -111 102q-39 65 -39 170q0 109 47 227t148 197q103 80 252 80q135 0 209 -62q75 -63 78 -174h-259q-3 17 -18 29t-37 12q-51 0 -88 -49t-55 -131q28 42 82 68q58 28 112 28
q109 0 170 -61zM590 1192v2q31 25 31 61q0 28 -23 48q-21 18 -59 18q-45 0 -76 -25t-31 -61q0 -29 23 -49q22 -19 55 -19q49 0 80 25z" />
    <glyph glyph-name="uni2077" unicode="&#x2077;" horiz-adv-x="634" 
d="M233 1563l43 202h588l-55 -256l-358 -522h-316l426 576h-328z" />
    <glyph glyph-name="uni2078" unicode="&#x2078;" horiz-adv-x="776" 
d="M872 1446l-2 2q-66 -48 -161 -62q84 -18 129 -63q47 -47 47 -106q0 -68 -43 -123q-41 -53 -129 -88q-82 -33 -213 -33q-152 0 -240 55t-88 158q0 82 68 135q69 53 180 68q-71 24 -111 61q-39 36 -39 100q0 65 43 117t123 82q82 31 185 31q92 0 165 -25q70 -24 111 -74
q39 -48 39 -112q0 -77 -64 -123zM541 1569l-2 -2q-25 -19 -25 -45q0 -23 18 -35t52 -12q45 0 69 18q25 19 25 47q0 22 -19 35q-18 12 -51 12q-43 0 -67 -18zM588 1186v-6q30 21 30 55q0 26 -24 41q-26 16 -62 16q-49 0 -79 -18q-31 -19 -31 -51q0 -28 24 -43t64 -15
q48 0 78 21z" />
    <glyph glyph-name="uni2079" unicode="&#x2079;" horiz-adv-x="772" 
d="M774 1745l-2 -2q70 -34 111 -103q41 -68 41 -170q0 -109 -47 -227q-46 -117 -148 -196q-103 -80 -252 -80q-134 0 -207 61q-74 62 -77 174h258q3 -16 18 -28q16 -13 37 -13q53 0 90 49q38 50 59 136q-28 -45 -82 -74q-57 -31 -112 -31q-108 0 -170 62t-62 163
q0 95 50 166q51 73 137 109q87 37 198 37q93 0 160 -33zM645 1454l-4 -2q31 25 31 61q0 30 -23 50q-21 18 -55 18q-49 0 -80 -25t-31 -61q0 -27 23 -47q21 -18 59 -18q50 0 80 24z" />
    <glyph glyph-name="uni207A" unicode="&#x207a;" horiz-adv-x="671" 
d="M623 1462h188l-41 -188h-186l-41 -193h-195l41 193h-188l39 188h188l39 191h197z" />
    <glyph glyph-name="uni207B" unicode="&#x207b;" horiz-adv-x="622" 
d="M715 1274h-508l39 188h508z" />
    <glyph glyph-name="uni207C" unicode="&#x207c;" horiz-adv-x="686" 
d="M797 1395h-561l38 186h564zM748 1155h-564l41 188h561z" />
    <glyph glyph-name="uni207D" unicode="&#x207d;" horiz-adv-x="518" 
d="M287 883l-6 -4q-33 83 -52 165q-18 80 -18 170q0 179 72 338t200 308h273q-131 -155 -209 -314q-76 -155 -76 -332q0 -96 18 -172q14 -61 50 -159h-252z" />
    <glyph glyph-name="uni207E" unicode="&#x207e;" horiz-adv-x="516" 
d="M98 883q131 152 211 311q76 152 76 332q0 96 -18 176q-16 72 -50 158h252q39 -107 54 -168q18 -74 18 -164q0 -183 -70 -338q-72 -159 -202 -307h-271z" />
    <glyph glyph-name="uni2080" unicode="&#x2080;" horiz-adv-x="786" 
d="M14 -172v-6q-75 75 -75 221q0 136 47 254t145 188q101 72 250 72q143 0 219 -76q78 -78 78 -217q0 -136 -47 -254q-46 -115 -148 -186q-104 -72 -252 -72q-141 0 -217 76zM346 -4h-2q35 56 53 133q19 81 19 135q0 44 -17 68q-16 22 -49 22q-50 0 -84 -55
q-32 -51 -51 -133q-18 -76 -18 -135q0 -46 16 -68t49 -22q50 0 84 55z" />
    <glyph glyph-name="uni2081" unicode="&#x2081;" horiz-adv-x="499" 
d="M223 545h213l-166 -778h-260l96 458h-167l43 203h20q81 0 133 25q50 24 80 77z" />
    <glyph glyph-name="uni2082" unicode="&#x2082;" horiz-adv-x="739" 
d="M223 -31l346 -2l-43 -203h-661l53 256l397 232q31 16 50 35q14 14 14 35q0 19 -14 30q-16 13 -39 13q-34 0 -56 -19q-20 -17 -26 -49h-258q21 127 116 195q94 67 234 67q90 0 160 -24t108 -74q37 -49 37 -117q0 -83 -51 -143q-54 -63 -129 -103z" />
    <glyph glyph-name="uni2083" unicode="&#x2083;" horiz-adv-x="724" 
d="M561 231l-12 -6q-64 -46 -166 -67q79 -15 127 -58q49 -43 49 -108q0 -64 -37 -119q-38 -56 -116 -90q-81 -35 -201 -35q-99 0 -166 33q-72 35 -111 94t-39 145h258q3 -75 80 -75q35 0 56 18q20 17 20 45t-31 43q-34 17 -82 17h-59l41 196h68q56 0 90 17q30 15 30 41
q0 21 -14 32q-16 13 -39 13q-28 0 -47 -19q-18 -18 -24 -45h-261q18 120 111 189q91 67 233 67q97 0 164 -27q68 -27 105 -73t37 -105q0 -77 -64 -123z" />
    <glyph glyph-name="uni2084" unicode="&#x2084;" horiz-adv-x="776" 
d="M557 135h98l-43 -203h-98l-35 -165h-260l35 165h-358l55 256l223 357h471zM367 453l-211 -318h141z" />
    <glyph glyph-name="uni2085" unicode="&#x2085;" horiz-adv-x="753" 
d="M618 342l-350 2l-43 -151q26 45 76 75q51 31 109 31q95 0 147 -61q51 -60 51 -172q0 -97 -47 -168q-46 -70 -131 -107q-84 -37 -199 -37q-92 0 -165 31q-70 30 -111 92q-39 59 -39 146h264q0 -34 19 -56q17 -20 53 -20q46 0 74 28t28 68q0 32 -20 49q-22 19 -55 19
q-60 0 -86 -45l-256 22l135 457h590z" />
    <glyph glyph-name="uni2086" unicode="&#x2086;" horiz-adv-x="772" 
d="M565 225l-8 2q61 -61 61 -161q0 -96 -49 -166q-51 -73 -137 -109q-87 -37 -199 -37q-87 0 -159 35q-70 35 -111 102q-39 65 -39 170q0 110 47 228q46 117 148 196q103 80 252 80q136 0 209 -61q74 -62 77 -174h-258q-3 16 -18 28q-16 13 -37 13q-51 0 -88 -49t-55 -132
q28 42 82 68q60 29 112 29q108 0 170 -62zM330 -29v2q30 24 30 62q0 28 -22 47q-21 18 -59 18q-46 0 -76 -24q-31 -25 -31 -62q0 -29 23 -49q21 -18 55 -18q50 0 80 24z" />
    <glyph glyph-name="uni2087" unicode="&#x2087;" horiz-adv-x="634" 
d="M-27 342l43 203h588l-55 -256l-359 -522h-315l426 575h-328z" />
    <glyph glyph-name="uni2088" unicode="&#x2088;" horiz-adv-x="776" 
d="M612 225l-2 2q-64 -46 -161 -61q83 -18 129 -64q47 -47 47 -106q0 -68 -43 -123q-41 -53 -129 -88q-82 -33 -213 -33q-152 0 -240 55t-88 158q0 82 68 135q69 53 180 68q-71 24 -111 61q-39 36 -39 101q0 64 43 116t123 82q82 31 184 31q95 0 166 -24q70 -24 111 -74
q39 -48 39 -113q0 -77 -64 -123zM281 348l-2 -2q-25 -19 -25 -45q0 -23 18 -35t52 -12q45 0 69 18q25 19 25 47q0 22 -19 35t-51 13q-42 0 -67 -19zM328 -35v-6q30 21 30 55q0 26 -24 41q-27 17 -62 17q-47 0 -79 -19q-31 -19 -31 -51q0 -28 24 -43q22 -14 64 -14
q49 0 78 20z" />
    <glyph glyph-name="uni2089" unicode="&#x2089;" horiz-adv-x="772" 
d="M514 524l-2 -2q70 -34 111 -102t41 -170q0 -106 -48 -227q-47 -119 -147 -197q-103 -80 -252 -80q-134 0 -207 61q-75 63 -78 175h258q3 -16 19 -29q15 -12 37 -12q53 0 90 49q38 50 59 135q-28 -45 -82 -74q-57 -31 -112 -31q-108 0 -170 62t-62 164q0 96 49 166
q50 70 138 108q87 37 198 37q93 0 160 -33zM385 233l-4 -2q31 25 31 62q0 29 -23 49q-21 18 -55 18q-50 0 -80 -24q-31 -25 -31 -62q0 -27 23 -47q21 -18 59 -18q50 0 80 24z" />
    <glyph glyph-name="uni208A" unicode="&#x208a;" horiz-adv-x="671" 
d="M365 242h188l-41 -189h-186l-41 -192h-195l41 192h-188l39 189h188l39 190h197z" />
    <glyph glyph-name="uni208B" unicode="&#x208b;" horiz-adv-x="622" 
d="M457 53h-508l39 189h508z" />
    <glyph glyph-name="uni208C" unicode="&#x208c;" horiz-adv-x="686" 
d="M539 174h-562l39 186h564zM489 -66h-563l41 189h561z" />
    <glyph glyph-name="uni208D" unicode="&#x208d;" horiz-adv-x="518" 
d="M27 -338l-7 -4q-31 76 -51 166q-18 79 -18 170q0 179 72 338q71 157 200 307h273q-132 -156 -209 -313q-76 -155 -76 -332q0 -96 18 -172q15 -64 50 -160h-252z" />
    <glyph glyph-name="uni208E" unicode="&#x208e;" horiz-adv-x="516" 
d="M-158 -338q131 152 211 311q76 152 76 332q0 97 -18 176q-16 72 -50 158h252q39 -107 54 -168q18 -74 18 -164q0 -183 -70 -338q-72 -159 -202 -307h-271z" />
    <glyph glyph-name="uni20A9" unicode="&#x20a9;" horiz-adv-x="2127" 
d="M2163 1124l-64 -301h-235l-33 -114h197l-64 -301h-217l-115 -408h-604l227 1464l-389 -1464h-612l59 408h-219l66 301h196l17 114h-236l64 301h215l63 432h334l-219 -1439l397 1439h559l-211 -1443l396 1443h336l-121 -432h213z" />
    <glyph glyph-name="Euro" unicode="&#x20ac;" horiz-adv-x="1730" 
d="M1063 336l2 2q57 39 104 111h465q-80 -154 -196 -261q-113 -104 -254 -161q-139 -56 -279 -56q-182 0 -313 64q-132 64 -205 184q-75 123 -84 289h-242l127 227h125q1 7 17 86h-180l129 228h129q79 164 192 280q119 122 268 189t320 67q165 0 285 -57q122 -58 196 -164
q75 -108 96 -246h-462q-9 63 -54 105q-44 41 -116 41q-81 0 -148 -58t-119 -159h523l-127 -228h-480q-14 -69 -16 -86h446l-127 -227h-329q9 -101 55 -156t129 -55q64 0 123 41z" />
    <glyph glyph-name="uni20B8" unicode="&#x20b8;" horiz-adv-x="1359" 
d="M205 1255l65 301h1237l-63 -301h-1239zM508 854h-387l63 301h1237l-63 -301h-389l-181 -854h-460z" />
    <glyph glyph-name="uni20B9" unicode="&#x20b9;" horiz-adv-x="1486" 
d="M1563 1255h-328q14 -46 14 -112h287l-63 -299h-326q-81 -103 -223 -168q-140 -64 -316 -76l635 -600h-614l-531 516l95 438h409q96 0 146 41q49 40 49 103q0 47 -39 73q-40 27 -105 27h-409l75 358h1307z" />
    <glyph glyph-name="uni20BA" unicode="&#x20ba;" horiz-adv-x="1560" 
d="M1520 645h4q-50 -338 -252 -491q-204 -154 -565 -154h-574l103 485l-154 -45l63 297l154 45l23 107l-154 -45l63 297l154 45l78 370h461l-50 -229l371 107l-61 -297l-373 -107l-23 -106l371 108l-61 -299l-371 -106l-57 -269h63q99 0 166 31q64 30 102 92q40 65 60 164
h459z" />
    <glyph glyph-name="uni20BD" unicode="&#x20bd;" horiz-adv-x="1607" 
d="M739 600l-20 -98h336l-66 -299h-334l-43 -199h-460l43 199h-166l63 299h166l21 102h-166l65 301h166l139 656h604q162 0 289 -50q128 -50 197 -147q72 -101 72 -234q0 -151 -76 -270q-75 -118 -234 -190q-155 -70 -383 -70h-213zM866 1202l-63 -297h168q103 0 162 47
q57 45 57 123q0 57 -41 92t-117 35h-166z" />
    <glyph glyph-name="uni20BF" unicode="&#x20bf;" horiz-adv-x="1495" 
d="M1415 977l-2 -8q-64 -79 -168 -125q-107 -48 -223 -62q162 -21 262 -104q98 -82 98 -227q0 -152 -94 -256q-93 -103 -276 -156l-66 -309h-387l57 268h-65l-57 -268h-390l58 268h-148l332 1556h146l55 258h389l-55 -258h65l55 258h388l-72 -333q162 -98 162 -305
q0 -118 -64 -197zM674 932h137q102 0 154 43q53 44 53 108q0 53 -39 82q-42 31 -107 31h-143zM698 340l-2 -4q74 0 129 22q53 21 78 60t25 80q0 59 -43 96t-117 37h-160l-61 -291h151z" />
    <glyph glyph-name="uni2113" unicode="&#x2113;" horiz-adv-x="1353" 
d="M741 573l-43 -188q-4 -36 -4 -37q0 -46 35 -67t96 -21q117 0 246 66l-59 -275q-97 -43 -181 -61q-87 -19 -190 -19q-185 0 -291 80q-104 79 -104 223q0 42 2 54l-111 -56l-92 263l274 137l99 469q27 126 106 227t209 160t299 59q141 0 234 -43q95 -44 143 -112
q49 -70 49 -160q0 -181 -141 -328q-140 -146 -389 -278zM911 1253q-36 -39 -51 -110l-45 -213q246 156 246 289q0 73 -68 73q-46 0 -82 -39z" />
    <glyph glyph-name="uni2116" unicode="&#x2116;" horiz-adv-x="2809" 
d="M2716 1546l-4 -4q88 -38 133 -110q47 -74 47 -175q0 -123 -62 -235q-61 -111 -178 -178q-118 -68 -278 -68q-180 0 -283 86q-102 86 -102 240q0 125 61 235q62 112 178 179t281 67q123 0 207 -37zM1139 1550l69 -1423l301 1423h424l-329 -1556h-783l-69 1423l-301 -1423
h-424l329 1556h783zM2470 1040h-4q33 45 47 101q16 66 16 123q0 90 -65 90q-39 0 -68 -39q-30 -41 -45 -101q-16 -66 -16 -122q0 -44 18 -68q19 -25 49 -25q38 0 68 41z" />
    <glyph glyph-name="uni2117" unicode="&#x2117;" horiz-adv-x="1898" 
d="M1415 1505l-4 -8q193 -114 307 -307q115 -195 115 -420q0 -228 -113 -420q-114 -193 -307 -307q-192 -113 -424 -113q-229 0 -424 115q-193 114 -307 307q-113 192 -113 422q0 227 115 422q114 193 307 307q195 115 424 115q232 0 424 -113zM1305 223l-5 -4
q142 85 230 232q86 145 86 313t-86 313q-88 147 -230 232q-145 86 -315 86t-315 -86q-146 -87 -228 -230q-84 -147 -84 -313t84 -313q82 -143 228 -230q145 -86 317 -86q173 0 318 86zM1061 1204h-2q128 0 207 -39q85 -42 127 -110q43 -70 43 -162t-43 -162t-125 -110
q-79 -39 -207 -39h-109v-267h-297v889h406zM1042 821h-2q40 0 62 19t22 53q0 29 -22 51q-21 21 -60 21h-92v-144h92z" />
    <glyph glyph-name="uni2120" unicode="&#x2120;" horiz-adv-x="2111" 
d="M752 1257l-7 15q103 -21 162 -86q58 -64 58 -166q0 -126 -101 -193t-272 -67q-99 0 -184 31q-82 30 -136 90q-51 57 -63 141h285q11 -35 41 -55q28 -19 73 -19q42 0 68 13q24 12 24 32q0 19 -24 31q-28 14 -76 25l-133 26q-110 20 -174 84q-62 62 -62 160q0 78 45 135
q46 58 125 92q76 33 181 33q167 0 256 -68t116 -172h-284q-10 24 -33 35q-24 12 -55 12q-35 0 -56 -12q-22 -13 -22 -31q0 -10 10 -20q8 -9 37 -18q37 -12 67 -19zM2071 1571v-795h-256v688l-80 -688h-396l-77 672v-672h-258v795h475l59 -596l57 596h476z" />
    <glyph glyph-name="trademark" unicode="&#x2122;" horiz-adv-x="2109" 
d="M461 1319h-207v237h702v-237h-206v-557h-289v557zM2062 1556v-794h-256v688l-80 -688h-395l-80 688v-688h-256v794h475l60 -595l57 595h475z" />
    <glyph glyph-name="uni2150" unicode="&#x2150;" horiz-adv-x="1765" 
d="M1122 575l43 203h588l-55 -256l-359 -522h-315l426 575h-328zM479 1556h213l-166 -778h-260l96 459h-167l43 203h20q84 0 133 24t80 78zM463 0h-359l1156 1556h358z" />
    <glyph glyph-name="uni2151" unicode="&#x2151;" horiz-adv-x="1814" 
d="M1587 758l-2 -2q70 -34 111 -103q41 -68 41 -170q0 -109 -47 -227t-148 -197t-252 -79q-134 0 -207 61q-74 62 -77 174h258q3 -17 18 -29t37 -12q53 0 90 49q38 50 59 135q-27 -43 -82 -73q-57 -31 -112 -31q-109 0 -170 61q-62 62 -62 164q0 95 50 166q51 73 137 109
q87 37 198 37q93 0 160 -33zM1458 467l-4 -2q31 25 31 61q0 29 -23 49q-22 19 -55 19q-49 0 -80 -25t-31 -61q0 -27 23 -47q22 -19 59 -19q49 0 80 25zM469 1550h213l-166 -778h-260l96 459h-168l43 203h21q84 0 133 24t80 78zM453 -6h-359l1155 1556h359z" />
    <glyph glyph-name="uni2152" unicode="&#x2152;" horiz-adv-x="2381" 
d="M1360 778h213l-166 -778h-260l96 459h-168l43 203h21q83 0 133 24q49 24 80 78zM1640 61v-6q-75 75 -75 221q0 136 47 254q48 120 145 189q101 72 250 72q143 0 219 -76q78 -78 78 -217q0 -136 -47 -254q-46 -117 -148 -187q-103 -71 -251 -71q-143 0 -218 75zM1972 229
h-2q35 56 53 133q19 81 19 136q0 43 -17 67q-16 23 -49 23q-49 0 -84 -56q-32 -51 -51 -133q-18 -77 -18 -135q0 -45 16 -67q16 -23 49 -23q50 0 84 55zM477 1548h213l-166 -778h-260l96 459h-167l43 203h20q84 0 133 24t80 78zM461 -8h-359l1155 1556h359z" />
    <glyph glyph-name="uni2153" unicode="&#x2153;" horiz-adv-x="1775" 
d="M477 1556h213l-166 -778h-260l96 459h-167l43 203h20q84 0 133 24t80 78zM461 0h-359l1155 1556h359zM1642 465l-12 -6q-66 -47 -166 -68q80 -16 127 -57q49 -43 49 -109t-36 -119q-38 -56 -117 -90q-78 -34 -201 -34q-101 0 -166 32q-70 34 -110 95q-39 59 -39 145h258
q3 -76 80 -76q33 0 55 19q20 17 20 45t-30 43q-32 16 -82 16h-60l41 197h68q58 0 90 16q31 16 31 41q0 21 -15 33t-38 12q-30 0 -48 -18t-24 -45h-260q18 120 110 188t234 68q97 0 164 -27q65 -26 104 -74q37 -46 37 -104q0 -77 -64 -123z" />
    <glyph glyph-name="uni2154" unicode="&#x2154;" horiz-adv-x="1998" 
d="M465 981l346 -2l-43 -203h-662l54 256l397 232q31 16 49 34q15 15 15 35q0 19 -15 31t-39 12q-34 0 -55 -18t-27 -49h-258q21 125 117 194q95 68 234 68q86 0 159 -25q72 -25 109 -73q37 -49 37 -117q0 -83 -52 -144q-53 -62 -129 -102zM676 -2h-359l1156 1556h358z
M1855 463l-12 -6q-66 -47 -166 -68q80 -16 127 -57q49 -43 49 -109t-36 -119q-37 -56 -117 -90q-78 -34 -201 -34q-101 0 -166 32q-71 35 -110 94t-39 146h258q3 -76 80 -76q33 0 55 19q20 17 20 45t-30 43q-32 16 -82 16h-60l41 197h68q58 0 90 16q31 16 31 41q0 21 -15 33
t-38 12q-30 0 -48 -18t-24 -45h-260q18 120 110 188t234 68q96 0 164 -27q65 -26 104 -74q37 -46 37 -104q0 -77 -64 -123z" />
    <glyph glyph-name="uni2155" unicode="&#x2155;" horiz-adv-x="1837" 
d="M1724 575l-350 3l-43 -152q27 46 76 76t109 30q95 0 147 -61q51 -60 51 -172q0 -97 -47 -168q-45 -68 -131 -106q-84 -37 -199 -37q-95 0 -166 30q-68 29 -110 93q-39 59 -39 145h264q0 -33 19 -55q18 -21 53 -21q45 0 74 29q28 28 28 67q0 33 -20 50q-21 18 -56 18
q-60 0 -86 -45l-256 23l136 456h589zM471 1559h213l-166 -779h-260l96 459h-168l43 203h21q84 0 133 24t80 78zM455 2h-359l1155 1557h359z" />
    <glyph glyph-name="uni2156" unicode="&#x2156;" horiz-adv-x="2056" 
d="M465 981l346 -2l-43 -203h-662l54 256l397 232q31 16 49 34q15 15 15 35q0 19 -15 31t-39 12q-34 0 -55 -18t-27 -49h-258q21 125 117 194q95 68 234 68q86 0 159 -25q72 -25 109 -73q37 -49 37 -117q0 -83 -52 -144q-53 -62 -129 -102zM676 -2h-359l1156 1556h358z
M1939 573l-350 2l-43 -151q27 46 76 76q50 30 109 30q95 0 147 -61q51 -60 51 -172q0 -97 -47 -168q-45 -68 -131 -106q-84 -37 -199 -37q-96 0 -166 30q-68 29 -110 93q-39 59 -39 145h264q0 -33 19 -55q18 -21 53 -21q45 0 74 29q28 28 28 67q0 33 -20 50q-21 18 -56 18
q-60 0 -86 -45l-256 22l136 457h589z" />
    <glyph glyph-name="uni2157" unicode="&#x2157;" horiz-adv-x="1994" 
d="M811 1243l-12 -6q-66 -47 -166 -68q80 -16 127 -57q49 -43 49 -108q0 -64 -37 -119q-38 -55 -117 -90q-81 -35 -200 -35q-99 0 -166 33q-72 35 -111 94t-39 145h258q3 -76 80 -76q33 0 55 19q21 18 21 45q0 28 -31 43q-32 16 -82 16h-59l41 197h67q59 0 91 16
q30 15 30 41q0 22 -14 33q-15 12 -39 12q-29 0 -47 -18q-19 -19 -25 -45h-260q18 119 111 188q92 68 233 68q96 0 164 -27q67 -27 105 -74q36 -45 36 -104q0 -78 -63 -123zM602 -8h-358l1155 1556h358zM1866 567l-350 2l-43 -151q27 47 75 76q50 30 109 30q95 0 147 -61
q51 -60 51 -172q0 -97 -47 -168q-46 -70 -131 -107q-82 -36 -198 -36q-95 0 -166 30q-70 30 -111 92q-39 59 -39 146h264q0 -33 19 -55q18 -21 53 -21q45 0 74 29t29 67q0 31 -21 49q-22 19 -55 19q-60 0 -86 -45l-256 22l135 457h590z" />
    <glyph glyph-name="uni2158" unicode="&#x2158;" horiz-adv-x="2058" 
d="M793 1147h98l-43 -203h-98l-35 -166h-260l34 166h-358l55 256l224 356h471zM602 1464l-211 -317h141zM684 0h-358l1155 1556h358zM1950 575l-351 3l-43 -152q27 46 76 76q50 30 109 30q95 0 147 -61q51 -60 51 -172q0 -97 -47 -168q-45 -68 -131 -106q-84 -37 -198 -37
q-95 0 -166 30q-69 29 -111 93q-39 59 -39 145h264q0 -33 19 -55q18 -21 53 -21q45 0 74 29t29 67q0 32 -21 50t-55 18q-60 0 -86 -45l-256 23l135 456h590z" />
    <glyph glyph-name="uni2159" unicode="&#x2159;" horiz-adv-x="1794" 
d="M1616 459l-8 2q61 -61 61 -162q0 -96 -49 -166q-50 -71 -137 -108t-199 -37q-88 0 -160 35q-69 34 -110 102q-39 65 -39 170q0 109 47 227q47 119 147 197q103 80 252 80q135 0 209 -62q75 -63 78 -174h-258q-3 17 -18 29t-37 12q-51 0 -88 -49q-39 -51 -56 -131
q28 42 82 68q58 28 113 28q109 0 170 -61zM1380 205v2q31 25 31 61q0 28 -22 47t-60 19q-45 0 -76 -25q-30 -24 -30 -61q0 -30 22 -49t55 -19q49 0 80 25zM467 1559h213l-166 -779h-260l96 459h-168l43 203h21q84 0 133 24t80 78zM451 2h-359l1155 1557h359z" />
    <glyph glyph-name="uni215A" unicode="&#x215a;" horiz-adv-x="1961" 
d="M856 1354l-350 2l-43 -152q27 46 76 76q51 31 108 31q95 0 148 -62q51 -60 51 -172q0 -97 -47 -168q-45 -68 -131 -106q-84 -37 -199 -37q-93 0 -166 31q-69 29 -110 92q-39 59 -39 145h264q0 -34 18 -55t53 -21q45 0 74 29t29 68q0 31 -21 49t-55 18q-60 0 -86 -45
l-256 23l135 456h590zM621 2h-359l1155 1557h359zM1778 461l-9 2q62 -62 62 -162q0 -96 -49 -166q-50 -71 -137 -108t-199 -37q-88 0 -160 35q-69 34 -110 102q-39 65 -39 170q0 109 47 227q47 119 147 197q103 80 252 80q135 0 209 -62q75 -63 78 -174h-258q-3 16 -19 29
q-15 12 -37 12q-51 0 -88 -49t-55 -131q28 42 82 68q58 28 113 28q109 0 170 -61zM1542 207v2q31 25 31 61q0 27 -23 47q-22 19 -59 19q-45 0 -76 -25t-31 -61q0 -29 23 -49q22 -19 55 -19q49 0 80 25z" />
    <glyph glyph-name="oneeighth" unicode="&#x215b;" horiz-adv-x="1816" 
d="M1677 459l-2 2q-66 -47 -162 -62q84 -18 129 -63q48 -48 48 -107q0 -68 -43 -123q-41 -53 -129 -88q-79 -32 -213 -32q-152 0 -240 55t-88 158q0 83 67 135t181 67q-70 24 -111 62q-39 36 -39 100q0 65 43 117t123 82q82 31 184 31q93 0 166 -25q70 -24 111 -74
q39 -48 39 -112q0 -77 -64 -123zM1346 582l-3 -2q-24 -18 -24 -45q0 -23 18 -35q19 -13 52 -13q44 0 69 19t25 47q0 22 -19 35q-18 12 -51 12q-43 0 -67 -18zM1393 199v-6q30 21 30 55q0 26 -24 41q-26 16 -62 16q-50 0 -80 -18t-30 -51q0 -28 24 -43t64 -15q48 0 78 21z
M471 1548h213l-166 -778h-260l96 459h-168l43 203h21q84 0 133 24t80 78zM455 -8h-359l1155 1556h359z" />
    <glyph glyph-name="threeeighths" unicode="&#x215c;" horiz-adv-x="1972" 
d="M811 1243l-12 -6q-66 -47 -166 -68q80 -16 127 -57q49 -43 49 -108q0 -64 -37 -119q-38 -55 -117 -90q-81 -35 -200 -35q-99 0 -166 33q-72 35 -111 94t-39 145h258q3 -76 80 -76q33 0 55 19q21 18 21 45q0 28 -31 43q-32 16 -82 16h-59l41 197h67q59 0 91 16
q30 15 30 41q0 22 -14 33q-15 12 -39 12q-29 0 -47 -18q-19 -19 -25 -45h-260q18 119 111 188q92 68 233 68q96 0 164 -27q67 -27 105 -74q36 -45 36 -104q0 -78 -63 -123zM602 -8h-358l1155 1556h358zM1821 451l-2 2q-66 -47 -162 -62q84 -18 129 -63q47 -47 47 -107
q0 -68 -43 -123q-41 -53 -129 -88q-82 -33 -213 -33q-151 0 -240 56q-88 55 -88 157q0 83 68 136q67 52 180 67q-70 24 -111 62q-38 35 -38 100t43 117t122 82q80 30 185 30q95 0 166 -24q69 -23 110 -74q39 -48 39 -113q0 -77 -63 -122zM1489 573l-2 -2q-25 -19 -25 -45
q0 -21 19 -34t51 -13q45 0 70 19q24 18 24 47q0 23 -18 35t-52 12q-42 0 -67 -19zM1536 190v-6q31 22 31 56q0 25 -25 41q-26 16 -61 16q-50 0 -80 -18q-31 -19 -31 -52q0 -27 25 -43q22 -14 63 -14q49 0 78 20z" />
    <glyph glyph-name="fiveeighths" unicode="&#x215d;" horiz-adv-x="1982" 
d="M856 1354l-350 2l-43 -152q27 46 76 76q51 31 108 31q95 0 148 -62q51 -60 51 -172q0 -97 -47 -168q-45 -68 -131 -106q-84 -37 -199 -37q-93 0 -166 31q-69 29 -110 92q-39 59 -39 145h264q0 -34 18 -55t53 -21q45 0 74 29t29 68q0 31 -21 49t-55 18q-60 0 -86 -45
l-256 23l135 456h590zM621 2h-359l1155 1557h359zM1839 461l-2 2q-66 -47 -162 -62q84 -18 129 -63q47 -47 47 -107q0 -67 -43 -122q-42 -54 -129 -89q-79 -32 -213 -32q-151 0 -239 55t-88 158q0 83 67 135t180 67q-68 23 -110 62q-39 36 -39 100q0 65 43 117t123 82
q82 31 184 31q93 0 166 -25q70 -24 111 -74q39 -48 39 -112q0 -77 -64 -123zM1507 584l-2 -2q-24 -18 -24 -45q0 -23 18 -35q19 -13 51 -13q45 0 70 19t25 47q0 22 -19 35q-18 12 -51 12q-44 0 -68 -18zM1554 201v-6q31 22 31 55q0 26 -24 41q-26 16 -62 16q-50 0 -80 -18
t-30 -51q0 -28 24 -43t64 -15q47 0 77 21z" />
    <glyph glyph-name="seveneighths" unicode="&#x215e;" horiz-adv-x="1894" 
d="M227 1354l43 202h588l-55 -256l-359 -522h-315l426 576h-328zM539 0h-359l1155 1556h359zM1757 459l-2 2q-66 -47 -162 -62q84 -18 129 -63q47 -47 47 -107q0 -68 -43 -123q-41 -53 -129 -88q-79 -32 -213 -32q-151 0 -239 55t-88 158q0 83 67 135t181 67q-70 24 -111 62
q-39 36 -39 100q0 65 43 117t123 82q82 31 184 31q93 0 166 -25q70 -24 111 -74q39 -48 39 -112q0 -77 -64 -123zM1425 582l-2 -2q-24 -18 -24 -45q0 -23 18 -35q19 -13 51 -13q45 0 70 19t25 47q0 22 -19 35q-18 12 -51 12q-44 0 -68 -18zM1473 199v-6q30 21 30 55
q0 26 -24 41q-26 16 -62 16q-50 0 -80 -18t-30 -51q0 -28 24 -43t64 -15q48 0 78 21z" />
    <glyph glyph-name="uni215F" unicode="&#x215f;" horiz-adv-x="1480" 
d="M510 1556h213l-166 -778h-260l96 459h-168l43 203h21q83 0 133 24q49 24 80 78zM494 0h-359l1155 1556h359z" />
    <glyph glyph-name="uni2189" unicode="&#x2189;" horiz-adv-x="1957" 
d="M248 840v-6q-76 76 -76 221q0 136 47 254q47 117 146 188q101 72 249 72q144 0 220 -76q77 -77 77 -217q0 -136 -47 -254q-46 -116 -147 -186q-104 -72 -252 -72q-141 0 -217 76zM580 1008h-2q35 56 53 133t18 135q0 45 -16 67q-16 23 -49 23q-50 0 -84 -55
q-32 -51 -51 -133q-19 -81 -19 -136q0 -45 16 -67q16 -23 50 -23q49 0 84 56zM637 -8h-358l1155 1556h358zM1817 457l-13 -6q-66 -47 -166 -68q80 -16 127 -57q50 -44 50 -109q0 -64 -37 -119q-38 -56 -117 -90q-81 -35 -201 -35q-99 0 -166 33q-71 35 -110 94t-39 146h258
q3 -76 80 -76q34 0 55 18t21 45t-31 43q-34 17 -82 17h-60l41 196h68q56 0 90 17q31 16 31 41q0 22 -14 33q-15 12 -39 12q-28 0 -47 -19t-25 -45h-260q18 121 110 189q91 67 234 67q99 0 164 -26t104 -74q37 -46 37 -104q0 -78 -63 -123z" />
    <glyph glyph-name="arrowleft" unicode="&#x2190;" horiz-adv-x="1576" 
d="M711 975h837v-391h-835l338 -389h-488l-420 585l420 586h488z" />
    <glyph glyph-name="arrowup" unicode="&#x2191;" horiz-adv-x="1576" 
d="M834 1483l585 -422v-486l-389 338v-837h-391v837l-389 -338v486z" />
    <glyph glyph-name="arrowright" unicode="&#x2192;" horiz-adv-x="1576" 
d="M618 1366h488l420 -586l-420 -585h-488l338 389h-835v391h835z" />
    <glyph glyph-name="arrowdown" unicode="&#x2193;" horiz-adv-x="1576" 
d="M1030 1481v-838l389 338v-485l-585 -422l-584 422v485l389 -338v838h391z" />
    <glyph glyph-name="uni2196" unicode="&#x2196;" horiz-adv-x="1576" 
d="M907 985l596 -594l-270 -272l-598 596v-563l-346 327v854h852l327 -348h-561z" />
    <glyph glyph-name="uni2197" unicode="&#x2197;" horiz-adv-x="1576" 
d="M176 985l328 348h854v-854l-348 -327v561l-596 -594l-271 272l596 594h-563z" />
    <glyph glyph-name="uni2198" unicode="&#x2198;" horiz-adv-x="1576" 
d="M1034 842v563l346 -328v-854h-852l-327 348h561l-596 594l270 273z" />
    <glyph glyph-name="uni2199" unicode="&#x2199;" horiz-adv-x="1576" 
d="M1255 1438l271 -273l-596 -594h561l-328 -348h-852v854l346 328v-563z" />
    <glyph glyph-name="uni21A4" unicode="&#x21a4;" horiz-adv-x="1576" 
d="M1135 973v391h389v-1171h-389v391h-531l340 -391h-487l-420 585l420 586h487l-340 -391h531z" />
    <glyph glyph-name="uni21A5" unicode="&#x21a5;" horiz-adv-x="1576" 
d="M1438 1212v-487l-391 340v-588h391v-391h-1172v391h391v588l-391 -340v487l586 420z" />
    <glyph glyph-name="uni21A6" unicode="&#x21a6;" horiz-adv-x="1576" 
d="M725 1364h487l420 -586l-420 -585h-487l338 391h-528v-391h-390v1171h390v-391h528z" />
    <glyph glyph-name="uni21A7" unicode="&#x21a7;" horiz-adv-x="1576" 
d="M1403 1470v-391h-391v-587l391 339v-487l-586 -420l-586 420v487l392 -339v587h-392v391h1172z" />
    <glyph glyph-name="uni21B0" unicode="&#x21b0;" horiz-adv-x="1576" 
d="M586 973h876v-973h-389v584h-487l338 -391h-486l-422 585l422 586h486z" />
    <glyph glyph-name="uni21B1" unicode="&#x21b1;" horiz-adv-x="1576" 
d="M702 1364h486l422 -586l-422 -585h-486l338 391h-485v-584h-391v973h876z" />
    <glyph glyph-name="uni21B2" unicode="&#x21b2;" horiz-adv-x="1576" 
d="M1114 973v583h391v-972h-878l340 -391h-488l-420 585l420 586h488l-340 -391h487z" />
    <glyph glyph-name="uni21B3" unicode="&#x21b3;" horiz-adv-x="1576" 
d="M741 1364h486l422 -586l-422 -585h-486l338 391h-876v972h391v-583h485z" />
    <glyph glyph-name="partialdiff" unicode="&#x2202;" horiz-adv-x="1300" 
d="M309 1585l-2 2q297 -35 502 -153q207 -119 319 -318q111 -196 111 -450q0 -342 -149 -516q-151 -177 -449 -177q-153 0 -291 60q-136 59 -215 178q-80 121 -80 289q0 165 66 282q64 114 172 166q109 53 237 53q147 0 238 -67t143 -174q-15 124 -86 233q-70 107 -200 181
q-128 73 -316 94v317zM748 326v-7q34 64 34 179q0 102 -34 157q-35 56 -103 56t-106 -56q-37 -55 -37 -157q0 -113 37 -174q38 -62 106 -62q69 0 103 64z" />
    <glyph glyph-name="product" unicode="&#x220f;" horiz-adv-x="2107" 
d="M2103 1556v-368h-264v-1464h-457v1464h-415v-1464h-457v1464h-266v368h1859z" />
    <glyph glyph-name="summation" unicode="&#x2211;" horiz-adv-x="1716" 
d="M252 1556h1253v-368h-762l607 -531l-605 -565h758v-368h-1251v471l502 460l-502 430v471z" />
    <glyph glyph-name="minus" unicode="&#x2212;" horiz-adv-x="1204" 
d="M1106 403h-1008v330h1008v-330z" />
    <glyph glyph-name="radical" unicode="&#x221a;" horiz-adv-x="1443" 
d="M745 63l355 1493h459l-447 -1832h-725l-176 641h-211v368h573z" />
    <glyph glyph-name="infinity" unicode="&#x221e;" horiz-adv-x="2396" 
d="M1999 1051l-6 -7q132 -68 215 -194q84 -128 84 -289q0 -164 -82 -289q-83 -126 -215 -194q-133 -68 -281 -68q-165 0 -297 66q-128 64 -223 188q-97 -120 -225 -186q-125 -64 -295 -64q-147 0 -283 68q-134 67 -217 194q-82 125 -82 289t82 289q84 129 217 195
q134 67 283 67q170 0 295 -67t227 -193q105 130 227 195q125 67 295 67q150 0 281 -67zM963 520l20 33l-27 39q-119 180 -268 180q-56 0 -106 -24q-48 -23 -76 -74q-29 -53 -29 -117t29 -117q26 -48 78 -73t108 -25q151 0 271 178zM1794 362l-4 5q52 25 78 73q28 51 28 117
t-28 117t-76 74q-49 24 -106 24q-150 0 -269 -180l-26 -41l22 -35q126 -178 273 -178q58 0 108 24z" />
    <glyph glyph-name="integral" unicode="&#x222b;" horiz-adv-x="815" 
d="M-66 -401v315h84q86 0 129 37t43 125v1034q0 162 62 262q61 98 180 141t307 43h150v-317h-84q-86 0 -129 -37t-43 -125v-1034q0 -160 -62 -260q-61 -98 -180 -141t-307 -43h-150z" />
    <glyph glyph-name="approxequal" unicode="&#x2248;" horiz-adv-x="1488" 
d="M111 791h-2q77 126 176 194q100 68 207 68q59 0 116 -13q59 -14 129 -45q71 -30 123 -45q49 -14 105 -14q63 0 114 31t97 86l200 -207q-78 -128 -176 -195t-207 -67q-58 0 -116 10q-54 9 -132 43q-72 34 -122 49q-46 14 -101 14q-64 0 -114 -30q-51 -31 -97 -86zM109 293
h-3q76 125 177 194q100 68 206 68q65 0 117 -12q59 -14 129 -45q71 -30 123 -45t105 -15q63 0 114 31t97 86l200 -207q-77 -126 -176 -194q-100 -68 -207 -68q-59 0 -117 10q-53 9 -131 43q-72 34 -122 49q-49 15 -101 15q-63 0 -114 -31t-97 -86z" />
    <glyph glyph-name="notequal" unicode="&#x2260;" horiz-adv-x="1380" 
d="M1233 967v-330h-297l-74 -133h371v-330h-553l-96 -174h-410l96 174h-120v330h305l73 133h-378v330h561l90 161h407l-90 -161h115z" />
    <glyph glyph-name="lessequal" unicode="&#x2264;" horiz-adv-x="1341" 
d="M152 995l1019 142v-299l-804 -88l804 -88v-300l-1019 140v493zM1171 0h-1019v313h1019v-313z" />
    <glyph glyph-name="greaterequal" unicode="&#x2265;" horiz-adv-x="1368" 
d="M174 838v299l1018 -142v-493l-1018 -140v300l805 88zM1192 0h-1018v313h1018v-313z" />
    <glyph glyph-name="uni2300" unicode="&#x2300;" horiz-adv-x="1316" 
d="M1292 1016l-127 -135q92 -148 92 -318q0 -163 -79 -297q-80 -136 -217 -215q-139 -80 -302 -80q-82 0 -165 25t-148 67l-133 -133l-188 185l133 135q-44 71 -68 151q-24 79 -24 166q0 163 79 297q80 135 215 215q136 80 299 80q87 0 166 -24q80 -24 148 -68l131 131z
M406 492l327 327q-42 10 -71 10q-73 0 -132 -36q-60 -37 -98 -99q-37 -61 -37 -131q0 -25 11 -71zM922 637l-328 -332q42 -10 70 -10q72 0 133 37t98 98t37 133q0 29 -10 74z" />
    <glyph glyph-name="uni2460" unicode="&#x2460;" horiz-adv-x="1912" 
d="M1432 1522q196 -114 311 -312t115 -430t-115 -430q-114 -197 -311 -311q-198 -115 -431 -115q-232 0 -430 115q-197 114 -311 311q-115 198 -115 430t115 430t311 312q197 114 430 114q235 0 431 -114zM1339 193q156 92 248 245q92 154 92 338t-92 338q-93 155 -248 246
q-157 92 -340 92t-337 -92t-246 -246t-92 -338t92 -338q91 -152 246 -245q156 -93 337 -93t340 93zM928 1243h248v-934h-302v557h-200v238h16q100 0 154 31q52 30 80 96z" />
    <glyph glyph-name="uni2461" unicode="&#x2461;" horiz-adv-x="1912" 
d="M1432 1522q196 -114 311 -312t115 -430t-115 -430q-114 -197 -311 -311q-198 -115 -431 -115q-232 0 -430 115q-197 114 -311 311q-115 198 -115 430t115 430t311 312q197 114 430 114q235 0 431 -114zM1339 193q156 92 248 245q92 154 92 338t-92 338q-93 155 -248 246
q-157 92 -340 92t-337 -92t-246 -246t-92 -338t92 -338q91 -152 246 -245q156 -93 337 -93t340 93zM958 547l437 -10v-238h-793v299l420 289q31 24 41 39q12 18 12 39q0 26 -22 45q-21 18 -56 18q-38 0 -61 -20q-24 -21 -27 -56h-307q3 91 55 158q53 68 142 109
q83 38 198 38q116 0 203 -34t137 -99q49 -64 49 -149q0 -83 -40 -141q-41 -59 -136 -121z" />
    <glyph glyph-name="uni2462" unicode="&#x2462;" horiz-adv-x="1912" 
d="M1432 1522q196 -114 311 -312t115 -430t-115 -430q-114 -197 -311 -311q-198 -115 -431 -115q-232 0 -430 115q-197 114 -311 311q-115 198 -115 430t115 430t311 312q197 114 430 114q235 0 431 -114zM1339 193q156 92 248 245q92 154 92 338t-92 338q-93 155 -248 246
q-157 92 -340 92t-337 -92t-246 -246t-92 -338t92 -338q91 -152 246 -245q156 -93 337 -93t340 93zM1321 723l6 -6q76 -55 76 -158q0 -86 -49 -147q-51 -63 -142 -93q-92 -30 -217 -30q-197 0 -301 84q-101 82 -110 227h307q6 -88 100 -88q41 0 68 18q28 19 28 54
q0 43 -43 61q-46 19 -116 19h-64v237h64q76 0 108 19q31 19 31 49q0 27 -23 43q-22 16 -55 16q-41 0 -61 -20q-22 -22 -25 -50h-307q6 88 59 156q51 66 140 105q82 36 190 36q107 0 195 -30t141 -86q51 -54 51 -129q0 -103 -61 -152t-174 -70q107 -9 184 -65z" />
    <glyph glyph-name="uni2463" unicode="&#x2463;" horiz-adv-x="1912" 
d="M1432 1522q196 -114 311 -312t115 -430t-115 -430q-114 -197 -311 -311q-198 -115 -431 -115q-232 0 -430 115q-197 114 -311 311q-115 198 -115 430t115 430t311 312q197 114 430 114q235 0 431 -114zM1339 193q156 92 248 245q92 154 92 338t-92 338q-93 155 -248 246
q-157 92 -340 92t-337 -92t-246 -246t-92 -338t92 -338q91 -152 246 -245q156 -93 337 -93t340 93zM1292 1243v-493h121v-238h-121v-203h-299v203h-434v297l203 434h530zM993 1133l-182 -383h182v383z" />
    <glyph glyph-name="uni2464" unicode="&#x2464;" horiz-adv-x="1912" 
d="M1432 1522q196 -114 311 -312t115 -430t-115 -430q-114 -197 -311 -311q-198 -115 -431 -115q-232 0 -430 115q-197 114 -311 311q-115 198 -115 430t115 430t311 312q197 114 430 114q235 0 431 -114zM1339 193q156 92 248 245q92 154 92 338t-92 338q-93 155 -248 246
q-157 92 -340 92t-337 -92t-246 -246t-92 -338t92 -338q91 -152 246 -245q156 -93 337 -93t340 93zM1262 907h-2q65 -35 104 -106t39 -180q0 -112 -51 -183q-51 -72 -144 -110q-90 -37 -209 -37q-115 0 -202 37q-89 38 -144 108t-61 170h307q3 -39 27 -63q25 -25 71 -25
q45 0 72 27q29 29 29 76q0 53 -27 77q-28 25 -74 25q-36 0 -61 -14q-28 -15 -37 -43l-297 24l43 553h688v-237h-413l-15 -189q25 48 84 88q55 37 127 37q81 0 146 -35z" />
    <glyph glyph-name="uni2465" unicode="&#x2465;" horiz-adv-x="1912" 
d="M1432 1522q196 -114 311 -312t115 -430t-115 -430q-114 -197 -311 -311q-198 -115 -431 -115q-232 0 -430 115q-197 114 -311 311q-115 198 -115 430t115 430t311 312q197 114 430 114q235 0 431 -114zM1339 193q156 92 248 245q92 154 92 338t-92 338q-93 155 -248 246
q-157 92 -340 92t-337 -92t-246 -246t-92 -338t92 -338q91 -152 246 -245q156 -93 337 -93t340 93zM1255 895h7q73 -36 118 -109q43 -70 43 -165t-51 -166q-52 -73 -147 -117q-93 -43 -221 -43q-124 0 -224 53q-97 52 -153 160q-56 109 -56 270q0 162 56 271q55 107 153 159
q102 54 226 54q115 0 196 -37q85 -39 133 -101q50 -65 62 -141h-305q-21 53 -86 53q-133 0 -142 -233q23 54 80 92q55 37 139 37q97 0 172 -37zM1081 545l-2 -6q31 28 31 73q0 47 -31 72t-84 25t-84 -25q-30 -24 -30 -70q0 -42 30 -69t86 -27q54 0 84 27z" />
    <glyph glyph-name="uni2466" unicode="&#x2466;" horiz-adv-x="1912" 
d="M1432 1522q196 -114 311 -312t115 -430t-115 -430q-114 -197 -311 -311q-198 -115 -431 -115q-232 0 -430 115q-197 114 -311 311q-115 198 -115 430t115 430t311 312q197 114 430 114q235 0 431 -114zM1339 193q156 92 248 245q92 154 92 338t-92 338q-93 155 -248 246
q-157 92 -340 92t-337 -92t-246 -246t-92 -338t92 -338q91 -152 246 -245q156 -93 337 -93t340 93zM1051 1006h-404v237h701v-299l-318 -635h-362z" />
    <glyph glyph-name="uni2467" unicode="&#x2467;" horiz-adv-x="1912" 
d="M1432 1522q196 -114 311 -312t115 -430t-115 -430q-114 -197 -311 -311q-198 -115 -431 -115q-232 0 -430 115q-197 114 -311 311q-115 198 -115 430t115 430t311 312q197 114 430 114q235 0 431 -114zM1339 193q156 92 248 245q92 154 92 338t-92 338q-93 155 -248 246
q-157 92 -340 92t-337 -92t-246 -246t-92 -338t92 -338q91 -152 246 -245q156 -93 337 -93t340 93zM1358 723l-2 -4q67 -55 67 -154q0 -84 -49 -145q-50 -62 -147 -96q-95 -33 -230 -33q-131 0 -227 35t-145 96q-50 62 -50 145q0 98 68 154q70 57 176 72q-104 27 -162 79
q-57 51 -57 142q0 78 49 133q50 56 142 86q95 31 208 31q118 0 209 -31q89 -30 142 -86q51 -54 51 -133q0 -90 -58 -142q-59 -53 -161 -79q109 -15 176 -70zM920 1010h-5q-26 -20 -26 -52q0 -31 26 -51t76 -20q52 0 78 20q29 23 29 51q0 31 -27 52q-26 20 -76 20
q-49 0 -75 -20zM1079 535l-4 -3q35 21 35 62q0 39 -33 59q-38 23 -88 23t-88 -23q-33 -20 -33 -59q0 -42 33 -62t88 -20q52 0 90 23z" />
    <glyph glyph-name="uni2468" unicode="&#x2468;" horiz-adv-x="1912" 
d="M1432 1522q196 -114 311 -312t115 -430t-115 -430q-114 -197 -311 -311q-198 -115 -431 -115q-232 0 -430 115q-197 114 -311 311q-115 198 -115 430t115 430t311 312q197 114 430 114q235 0 431 -114zM1339 193q156 92 248 245q92 154 92 338t-92 338q-93 155 -248 246
q-157 92 -340 92t-337 -92t-246 -246t-92 -338t92 -338q91 -152 246 -245q156 -93 337 -93t340 93zM1229 1208l-8 -2q97 -54 151 -159q55 -107 55 -271q0 -163 -55 -270q-56 -108 -153 -160q-100 -53 -224 -53q-115 0 -196 37q-86 39 -133 100q-50 65 -62 141h305
q21 -53 86 -53q133 0 142 234q-24 -55 -80 -93q-53 -36 -139 -36q-100 0 -173 36t-118 109q-43 70 -43 166q0 92 53 166t147 117q93 43 220 43q131 0 225 -52zM1085 864v-2q31 25 31 72q0 44 -31 72t-84 28q-54 0 -83 -26q-31 -28 -31 -74q0 -45 31 -70q30 -24 83 -24
q54 0 84 24z" />
    <glyph glyph-name="uni24EA" unicode="&#x24ea;" horiz-adv-x="1912" 
d="M569 35q-197 114 -311 311q-115 198 -115 430t115 430t311 312q197 114 430 114q235 0 431 -114t311 -312q114 -196 114 -430t-114 -430q-114 -197 -311 -311q-198 -115 -431 -115q-232 0 -430 115zM1339 193q156 92 248 245q92 154 92 338t-92 338q-93 155 -248 246
q-157 92 -340 92t-337 -92t-246 -246t-92 -338t92 -338q91 -152 246 -245q156 -93 337 -93t340 93zM686 416q-111 123 -111 360q0 238 111 361t313 123q205 0 316 -123q110 -122 110 -361q0 -238 -110 -360q-111 -123 -316 -123q-202 0 -313 123zM1087 580h-2q27 62 27 196
q0 136 -27 197t-92 61q-64 0 -88 -61t-24 -197q0 -134 24 -196t90 -62q65 0 92 62z" />
    <glyph glyph-name="uni24FF" unicode="&#x24ff;" horiz-adv-x="1912" 
d="M569 35q-197 114 -311 311q-115 198 -115 430t115 430t311 312q197 114 430 114q235 0 431 -114t311 -312q114 -196 114 -430t-114 -430q-114 -197 -311 -311q-198 -115 -431 -115q-232 0 -430 115zM1315 418q110 122 110 360q0 239 -110 361q-111 123 -316 123
q-202 0 -313 -123t-111 -361q0 -237 111 -360t313 -123q205 0 316 123zM911 582h-2q-24 61 -24 196q0 136 24 197t90 61t93 -61q26 -59 26 -197q0 -137 -26 -196q-27 -62 -93 -62q-64 0 -88 62z" />
    <glyph glyph-name="filledbox" unicode="&#x25a0;" horiz-adv-x="1476" 
d="M1300 0h-1128v1128h1128v-1128z" />
    <glyph glyph-name="uni25A1" unicode="&#x25a1;" horiz-adv-x="1476" 
d="M1300 0h-1128v1128h1128v-1128zM508 793v-457h459v457h-459z" />
    <glyph glyph-name="lozenge" unicode="&#x25ca;" horiz-adv-x="1511" 
d="M528 1556h545l408 -778l-408 -778h-545l-407 778zM510 778l291 -553l293 555l-291 551z" />
    <glyph glyph-name="circle" unicode="&#x25cb;" horiz-adv-x="1400" 
d="M397 41l-2 -2q-139 80 -219 219t-80 305q0 162 80 301t219 219t301 80q166 0 305 -80q140 -81 220 -219q79 -137 79 -301q0 -166 -79 -303q-80 -138 -220 -219q-139 -80 -303 -80q-162 0 -301 80zM823 342l-6 -6q58 34 92 92q35 59 35 127t-35 127q-34 58 -92 92
q-59 35 -125 35q-69 0 -125 -33q-58 -34 -92 -92q-33 -56 -33 -125q0 -66 35 -125q34 -58 92 -92q59 -35 127 -35t127 35z" />
    <glyph glyph-name="uni25CF" unicode="&#x25cf;" horiz-adv-x="1400" 
d="M397 41l-2 -2q-139 80 -219 219t-80 305q0 162 80 301t219 219t301 80q166 0 305 -80q140 -81 220 -219q79 -137 79 -301q0 -166 -79 -303q-80 -138 -220 -219q-139 -80 -303 -80q-162 0 -301 80z" />
    <glyph glyph-name="uni2776" unicode="&#x2776;" horiz-adv-x="1912" 
d="M569 35q-197 114 -311 311q-115 198 -115 430t115 430t311 312q197 114 430 114q235 0 431 -114t311 -312q114 -196 114 -430t-114 -430q-114 -197 -311 -311q-198 -115 -431 -115q-232 0 -430 115zM872 311l299 -2v934h-245l-4 -12q-27 -63 -80 -94q-54 -31 -154 -31
h-16v-238h200v-557z" />
    <glyph glyph-name="uni2777" unicode="&#x2777;" horiz-adv-x="1912" 
d="M569 35q-197 114 -311 311q-115 198 -115 430t115 430t311 312q197 114 430 114q235 0 431 -114t311 -312q114 -196 114 -430t-114 -430q-114 -197 -311 -311q-198 -115 -431 -115q-232 0 -430 115zM606 311l797 2v238h-440l251 166q95 62 136 121t41 141q0 86 -50 151
t-137 99q-90 35 -203 35t-198 -39q-90 -41 -141 -107q-53 -68 -56 -155h307q3 34 27 55q25 22 61 22q35 0 56 -18q22 -19 22 -45q0 -21 -12 -39q-10 -15 -41 -39l-420 -289v-299z" />
    <glyph glyph-name="uni2778" unicode="&#x2778;" horiz-adv-x="1912" 
d="M569 35q-197 114 -311 311q-115 198 -115 430t115 430t311 312q197 114 430 114q235 0 431 -114t311 -312q114 -196 114 -430t-114 -430q-114 -197 -311 -311q-198 -115 -431 -115q-232 0 -430 115zM1208 326h-12q91 30 141 92q49 61 49 147q0 106 -75 160
q-79 57 -185 66q115 21 177 71q61 49 61 152q0 75 -51 129q-53 56 -142 86q-91 31 -192 31q-107 0 -191 -37q-87 -38 -139 -105q-53 -68 -59 -155h307q3 27 25 49t61 22q33 0 55 -16q23 -16 23 -43q0 -30 -31 -49q-32 -19 -106 -19h-64v-237h64q70 0 116 -19q43 -18 43 -61
q0 -34 -28 -53q-29 -19 -68 -19q-94 0 -100 88h-307q9 -145 110 -227q104 -84 301 -84q122 0 217 31z" />
    <glyph glyph-name="uni2779" unicode="&#x2779;" horiz-adv-x="1912" 
d="M569 35q-197 114 -311 311q-115 198 -115 430t115 430t311 312q197 114 430 114q235 0 431 -114t311 -312q114 -196 114 -430t-114 -430q-114 -197 -311 -311q-198 -115 -431 -115q-232 0 -430 115zM559 811v-297h434v-203h299v203h121v238h-121v493h-532zM993 752h-182
l182 376v-376z" />
    <glyph glyph-name="uni277A" unicode="&#x277a;" horiz-adv-x="1912" 
d="M569 35q-197 114 -311 311q-115 198 -115 430t115 430t311 312q197 114 430 114q235 0 431 -114t311 -312q114 -196 114 -430t-114 -430q-114 -197 -311 -311q-198 -115 -431 -115q-232 0 -430 115zM1210 330l-12 -13q90 37 143 111q54 76 54 182q0 110 -39 181
q-40 73 -105 108t-143 35q-72 0 -127 -37q-58 -39 -80 -88l17 190h411v238h-688l-43 -553l297 -25q9 28 37 43q31 17 61 17q46 0 74 -25q27 -24 27 -76q0 -48 -27 -75t-70 -27q-46 0 -71 25q-24 24 -27 65h-307q6 -98 61 -168q54 -69 146 -108q87 -37 202 -37q119 0 209 37z
" />
    <glyph glyph-name="uni277B" unicode="&#x277b;" horiz-adv-x="1912" 
d="M569 35q-197 114 -311 311q-115 198 -115 430t115 430t311 312q197 114 430 114q235 0 431 -114t311 -312q114 -196 114 -430t-114 -430q-114 -197 -311 -311q-198 -115 -431 -115q-232 0 -430 115zM1217 336l-9 -4q96 44 148 117q53 74 53 165q0 96 -43 166
q-45 73 -119 109q-75 37 -172 37q-83 0 -141 -37t-82 -92q9 233 141 233q65 0 86 -53h305q-12 77 -61 141q-48 62 -133 101q-79 36 -197 36q-127 0 -223 -51q-99 -52 -154 -160q-55 -107 -55 -270t55 -270q55 -108 154 -160q96 -51 225 -51t222 43zM897 543l2 -2
q-31 28 -31 71q0 47 31 72t84 25t84 -25t31 -70t-31 -73q-30 -27 -84 -27t-86 29z" />
    <glyph glyph-name="uni277C" unicode="&#x277c;" horiz-adv-x="1912" 
d="M569 35q-197 114 -311 311q-115 198 -115 430t115 430t311 312q197 114 430 114q235 0 431 -114t311 -312q114 -196 114 -430t-114 -430q-114 -197 -311 -311q-198 -115 -431 -115q-232 0 -430 115zM1051 1008l-383 -697h362l318 635v299h-701v-237h404z" />
    <glyph glyph-name="uni277D" unicode="&#x277d;" horiz-adv-x="1912" 
d="M569 35q-197 114 -311 311q-115 198 -115 430t115 430t311 312q197 114 430 114q235 0 431 -114t311 -312q114 -196 114 -430t-114 -430q-114 -197 -311 -311q-198 -115 -431 -115q-232 0 -430 115zM1231 328v-4q97 34 147 96q49 61 49 145q0 97 -67 152q-68 56 -176 74
q104 27 162 79q57 51 57 142q0 79 -51 133q-53 56 -142 86q-91 31 -209 31q-113 0 -208 -31q-92 -30 -142 -86q-49 -55 -49 -133q0 -91 57 -142q58 -52 162 -79q-108 -18 -176 -74q-67 -55 -67 -150q0 -84 49 -145t145 -96q90 -33 227 -33q132 0 232 35zM924 907h-4
q-27 21 -27 51q0 31 27 52q26 20 75 20q52 0 78 -20q29 -23 29 -52q0 -30 -27 -51q-26 -20 -76 -20q-49 0 -75 20zM907 535l-4 -3q-33 20 -33 62q0 39 33 59q38 23 88 23q52 0 90 -23q35 -21 35 -59q0 -42 -33 -62t-88 -20q-50 0 -88 23z" />
    <glyph glyph-name="uni277E" unicode="&#x277e;" horiz-adv-x="1912" 
d="M569 35q-197 114 -311 311q-115 198 -115 430t115 430t311 312q197 114 430 114q235 0 431 -114t311 -312q114 -196 114 -430t-114 -430q-114 -197 -311 -311q-198 -115 -431 -115q-232 0 -430 115zM786 1219h2q-94 -43 -147 -117q-51 -71 -51 -166q0 -96 43 -166
q44 -71 119 -108t172 -37q84 0 139 37q57 38 80 92q-9 -234 -142 -234q-65 0 -86 53h-305q12 -76 62 -141q47 -61 133 -100q81 -37 196 -37q126 0 226 53q97 52 153 160q56 109 56 270q0 162 -56 271q-54 105 -151 159t-225 54q-125 0 -218 -43zM1098 1008v-7q30 -27 30 -69
q0 -46 -30 -70t-84 -24t-84 24q-31 25 -31 72q0 46 31 74q29 26 84 26t84 -26z" />
    <glyph glyph-name="uniF8FF" unicode="&#xf8ff;" horiz-adv-x="1740" 
d="M1368 868h356v-180h-360l332 -137l-70 -164l-336 139l258 -258l-125 -125l-254 254l138 -331l-166 -66l-135 328v-357h-181v355l-135 -328l-164 70l140 335l-260 -260l-123 127l254 254l-334 -137l-66 164l332 137h-360v180h358l-332 138l70 163l334 -139l-256 258
l125 123l258 -258l-140 338l166 68l133 -324v350h181v-358l137 332l162 -70l-138 -332l256 256l125 -127l-256 -256l336 139l68 -165z" />
    <glyph glyph-name="uniFEFF" unicode="&#xfeff;" horiz-adv-x="0" 
 />
    <glyph glyph-name="NULL" horiz-adv-x="0" 
 />
    <glyph glyph-name="uni004A0301" horiz-adv-x="913" 
d="M-84 0l78 365h158q76 0 114 30q37 30 53 103l224 1056h467l-244 -1148q-30 -139 -96 -230q-66 -90 -178 -133q-113 -43 -289 -43h-287zM1026 1655h-444l307 325h624z" />
    <glyph glyph-name="G.ss03" horiz-adv-x="1740" 
d="M819 588l70 340h862l-47 -221q-77 -358 -303 -547q-229 -191 -615 -191q-198 0 -360 72q-161 71 -252 215q-92 145 -92 356q0 236 117 461t336 367q217 141 503 141q215 0 367 -70q157 -72 240 -186q88 -120 108 -266h-481q-24 85 -86 129q-61 43 -168 43
q-142 0 -246 -82q-105 -82 -160 -223q-55 -140 -55 -310q0 -144 80 -221q79 -76 225 -76q93 0 168 35q74 35 121 97q49 65 66 137h-398z" />
    <glyph glyph-name="Gbreve.ss03" horiz-adv-x="1740" 
d="M819 588l70 340h862l-47 -221q-77 -358 -303 -547q-229 -191 -615 -191q-198 0 -360 72q-161 71 -252 215q-92 145 -92 356q0 236 117 461t336 367q217 141 503 141q215 0 367 -70q157 -72 240 -186q88 -120 108 -266h-481q-24 85 -86 129q-61 43 -168 43
q-142 0 -246 -82q-105 -82 -160 -223q-55 -140 -55 -310q0 -144 80 -221q79 -76 225 -76q93 0 168 35q74 35 121 97q49 65 66 137h-398zM866 1688l4 4q-91 30 -147 92q-55 61 -55 149q0 30 4 54h295q-3 -40 34 -64q39 -25 101 -25t110 25t54 62h295q-35 -164 -160 -246
t-328 -82q-112 0 -207 31z" />
    <glyph glyph-name="Gcaron.ss03" horiz-adv-x="1740" 
d="M819 588l70 340h862l-47 -221q-77 -358 -303 -547q-229 -191 -615 -191q-198 0 -360 72q-161 71 -252 215q-92 145 -92 356q0 236 117 461t336 367q217 141 503 141q215 0 367 -70q157 -72 240 -186q88 -120 108 -266h-481q-24 85 -86 129q-61 43 -168 43
q-142 0 -246 -82q-105 -82 -160 -223q-55 -140 -55 -310q0 -144 80 -221q79 -76 225 -76q93 0 168 35q74 35 121 97q49 65 66 137h-398zM1096 1843l170 139h403l-321 -325h-564l-204 325h391z" />
    <glyph glyph-name="Gcircumflex.ss03" horiz-adv-x="1740" 
d="M819 588l70 340h862l-47 -221q-77 -358 -303 -547q-229 -191 -615 -191q-198 0 -360 72q-161 71 -252 215q-92 145 -92 356q0 236 117 461t336 367q217 141 503 141q215 0 367 -70q157 -72 240 -186q88 -120 108 -266h-481q-24 85 -86 129q-61 43 -168 43
q-142 0 -246 -82q-105 -82 -160 -223q-55 -140 -55 -310q0 -144 80 -221q79 -76 225 -76q93 0 168 35q74 35 121 97q49 65 66 137h-398zM1415 1982l205 -325h-391l-125 141l-170 -141h-404l322 325h563z" />
    <glyph glyph-name="uni0122.ss03" horiz-adv-x="1740" 
d="M819 588l70 340h862l-47 -221q-77 -358 -303 -547q-229 -191 -615 -191q-198 0 -360 72q-161 71 -252 215q-92 145 -92 356q0 236 117 461t336 367q217 141 503 141q215 0 367 -70q157 -72 240 -186q88 -120 108 -266h-481q-24 85 -86 129q-61 43 -168 43
q-142 0 -246 -82q-105 -82 -160 -223q-55 -140 -55 -310q0 -144 80 -221q79 -76 225 -76q93 0 168 35q74 35 121 97q49 65 66 137h-398zM492 -430l67 324h469l-78 -363l-209 -209h-290l188 248h-147z" />
    <glyph glyph-name="Gdotaccent.ss03" horiz-adv-x="1740" 
d="M819 588l70 340h862l-47 -221q-77 -358 -303 -547q-229 -191 -615 -191q-198 0 -360 72q-161 71 -252 215q-92 145 -92 356q0 236 117 461t336 367q217 141 503 141q215 0 367 -70q157 -72 240 -186q88 -120 108 -266h-481q-24 85 -86 129q-61 43 -168 43
q-142 0 -246 -82q-105 -82 -160 -223q-55 -140 -55 -310q0 -144 80 -221q79 -76 225 -76q93 0 168 35q74 35 121 97q49 65 66 137h-398zM1300 1657h-469l68 325h469z" />
    <glyph glyph-name="Adieresis.titl" horiz-adv-x="1695" 
d="M1591 0h-465l-20 360h-574l-176 -360h-491l799 1556h792zM1042 1411l-331 -682h372zM451 1231h-379l67 325h381zM1909 1231h-379l67 325h381z" />
    <glyph glyph-name="Odieresis.titl" horiz-adv-x="1751" 
d="M2003 1556l-68 -329h-237q57 -123 57 -293q0 -236 -117 -461q-116 -223 -333 -364q-219 -142 -504 -142q-204 0 -371 72q-161 69 -254 219q-92 148 -92 358q0 164 55 322q57 164 160 293h-254l70 325h379l-35 -165q118 90 266 143q143 51 313 51q174 0 314 -49
q142 -50 237 -145l35 165h379zM1069 401l-4 -2q101 82 158 226q55 140 55 311q0 137 -72 215t-196 78q-136 0 -240 -84q-102 -82 -158 -225q-55 -140 -55 -312q0 -138 74 -215q73 -76 200 -76q134 0 238 84z" />
    <glyph glyph-name="Udieresis.titl" horiz-adv-x="1613" 
d="M389 31h2q-143 62 -213 170q-72 110 -72 252q0 74 23 192l195 911h464l-213 -1001q-6 -35 -6 -68q0 -79 49 -122t140 -43q120 0 190 73q72 75 99 201l202 960h465l-198 -942q-46 -213 -142 -356q-94 -141 -252 -215q-157 -74 -391 -74q-200 0 -342 62zM1104 1229h-305
l67 325h308zM1024 844h-307l69 325h306z" />
    <glyph glyph-name="I_J.loclNLD" horiz-adv-x="1421" 
d="M4 0l78 365h577q77 0 115 30q37 30 53 103l226 1056h465l-244 -1148q-30 -139 -96 -230q-65 -90 -179 -133q-113 -43 -288 -43h-707zM584 547h-465l213 1005h465z" />
    <glyph glyph-name="A.inferior" horiz-adv-x="899" 
d="M723 -233h-266l-6 170h-252l-78 -170h-283l377 778h463zM434 449l-141 -306h151z" />
    <glyph glyph-name="B.inferior" horiz-adv-x="825" 
d="M618 115v-4q56 -41 56 -123q0 -109 -99 -168q-98 -58 -278 -58h-395l166 779h378q134 0 201 -52q68 -53 68 -143q0 -86 -70 -129q-72 -44 -172 -53q90 -9 145 -49zM426 330q-20 10 -51 10h-88l-21 -98h88q44 0 66 14q24 15 24 43q0 22 -18 31zM301 -41v-2q100 0 100 66
q0 21 -20 32q-23 13 -57 13h-97l-24 -109h98z" />
    <glyph glyph-name="C.inferior" horiz-adv-x="866" 
d="M113 -211l-7 -8q-80 38 -126 110q-48 76 -48 179q0 113 60 227q59 112 166 182q110 72 252 72q110 0 188 -37q80 -38 123 -104t49 -158h-270q-3 46 -31 74t-76 28q-58 0 -100 -39q-45 -42 -68 -104q-24 -65 -24 -141q0 -54 30 -88q29 -33 80 -33q48 0 90 31q41 30 68 77
h268q-46 -141 -157 -223q-110 -82 -285 -82q-104 0 -182 37z" />
    <glyph glyph-name="D.inferior" horiz-adv-x="851" 
d="M360 545l5 -2q107 0 188 -37q85 -39 133 -107q49 -70 49 -176q0 -164 -69 -264t-185 -147q-110 -45 -252 -45h-329l166 778h294zM262 -29l-4 -4q96 0 152 68q55 67 55 174q0 56 -31 92q-30 35 -88 35h-57l-78 -365h51z" />
    <glyph glyph-name="E.inferior" horiz-adv-x="718" 
d="M653 545l-43 -207h-325l-15 -72h318l-43 -207h-320l-18 -86h334l-43 -206h-598l166 778h587z" />
    <glyph glyph-name="F.inferior" horiz-adv-x="690" 
d="M637 545l-45 -207h-307l-17 -82h299l-43 -207h-301l-59 -282h-264l166 778h571z" />
    <glyph glyph-name="G.inferior" horiz-adv-x="909" 
d="M344 236l436 -5l-100 -469h-215l31 152q-40 -70 -105 -117t-153 -47q-78 0 -148 37q-69 37 -113 111q-43 73 -43 176q0 113 60 227q59 111 170 182q113 72 258 72q161 0 254 -72q92 -71 110 -194h-270q-9 30 -37 49q-27 18 -73 18q-60 0 -105 -39q-46 -40 -70 -104
q-24 -65 -24 -137q0 -58 37 -92q38 -35 96 -35q50 0 92 28q40 26 55 74h-182z" />
    <glyph glyph-name="H.inferior" horiz-adv-x="854" 
d="M459 276l57 269h264l-166 -778h-264l60 276h-187l-59 -276h-264l166 778h264l-58 -269h187z" />
    <glyph glyph-name="I.inferior" horiz-adv-x="403" 
d="M164 -233h-264l166 778h264z" />
    <glyph glyph-name="J.inferior" horiz-adv-x="495" 
d="M-143 -233l45 206h67q40 0 60 13q18 12 24 47l111 512h264l-123 -574q-21 -100 -86 -153q-63 -51 -203 -51h-159z" />
    <glyph glyph-name="K.inferior" horiz-adv-x="815" 
d="M500 545h297l-295 -383l160 -395h-287l-135 358l-76 -358h-264l166 778h264l-70 -324z" />
    <glyph glyph-name="L.inferior" horiz-adv-x="665" 
d="M330 545l-123 -572h309l-43 -206h-573l166 778h264z" />
    <glyph glyph-name="M.inferior" horiz-adv-x="1189" 
d="M1116 545l-166 -778h-229l145 682l-248 -682h-385l41 684l-145 -684h-229l166 778h423l-49 -690l240 690h436z" />
    <glyph glyph-name="N.inferior" horiz-adv-x="940" 
d="M487 -143l148 688h231l-166 -778h-430l9 698l-150 -698h-229l166 778h430z" />
    <glyph glyph-name="O.inferior" horiz-adv-x="903" 
d="M115 -211l-6 -4q-83 37 -129 111q-48 76 -48 178q0 115 60 229q60 113 168 182q113 72 258 72q109 0 190 -37q82 -37 131 -110t49 -179q0 -121 -57 -229q-58 -110 -168 -180t-258 -70q-109 0 -190 37zM420 -14h-2q45 39 69 104q25 67 25 141q0 57 -31 93q-28 32 -82 32
q-61 0 -106 -39q-46 -40 -70 -104q-24 -65 -24 -141q0 -57 30 -92q29 -33 84 -33q62 0 107 39z" />
    <glyph glyph-name="P.inferior" horiz-adv-x="792" 
d="M403 545v-2q84 0 154 -31q68 -30 109 -86t41 -133q0 -75 -41 -143q-39 -65 -127 -107q-82 -39 -215 -39h-109l-51 -237h-264l166 778h337zM334 205l-2 -2q50 0 78 22t28 62q0 30 -20 41q-21 12 -56 12h-77l-29 -135h78z" />
    <glyph glyph-name="Q.inferior" horiz-adv-x="915" 
d="M762 72l-4 -2q-28 -82 -80 -146l104 -160h-264l-16 25q-85 -39 -197 -39q-109 0 -190 37q-83 37 -129 111q-47 74 -47 178q0 117 59 229q60 113 168 182q113 72 258 72q109 0 190 -37q83 -38 129 -110q48 -76 48 -179q0 -76 -29 -161zM387 -37l-84 129h193q22 71 22 141
q0 57 -31 93q-28 32 -81 32q-62 0 -107 -39q-46 -40 -70 -104q-24 -65 -24 -141q0 -56 31 -92q29 -33 83 -33q43 0 68 14z" />
    <glyph glyph-name="R.inferior" horiz-adv-x="829" 
d="M670 160l-2 2q-42 -62 -127 -101l116 -292h-295l-86 249h-61l-53 -249h-264l165 778h343q84 0 155 -27t111 -82q41 -56 41 -135t-43 -143zM422 334h-4q-17 14 -49 14h-88l-29 -137h86q46 0 74 22t28 62q0 24 -18 39z" />
    <glyph glyph-name="S.inferior" horiz-adv-x="782" 
d="M6 -180l6 -4q-95 68 -98 192h270q3 -38 31 -57t74 -19q38 0 65 17q25 16 25 41q0 24 -14 35q-16 13 -62 22l-127 35q-186 49 -186 207q0 73 47 135q45 60 129 98q81 37 190 37q152 0 228 -61q79 -63 96 -168h-270q-3 23 -25 35q-21 12 -55 12q-36 0 -60 -12t-24 -33
q0 -18 22 -31q20 -11 78 -27l125 -32q82 -21 123 -80t41 -135q0 -128 -94 -201q-95 -74 -283 -74q-157 0 -252 68z" />
    <glyph glyph-name="T.inferior" horiz-adv-x="749" 
d="M20 545h697l-43 -207h-213l-123 -571h-264l123 571h-220z" />
    <glyph glyph-name="U.inferior" horiz-adv-x="829" 
d="M33 -182l2 4q-86 65 -86 178q0 40 10 92l98 453h265l-107 -498q-4 -28 -4 -31q0 -34 18 -49q19 -16 54 -16q51 0 77 29q25 28 37 86l103 479h264l-100 -469q-35 -158 -123 -240q-90 -84 -269 -84q-152 0 -239 66z" />
    <glyph glyph-name="V.inferior" horiz-adv-x="845" 
d="M264 -145l279 690h288l-337 -778h-478l-14 778h268z" />
    <glyph glyph-name="W.inferior" horiz-adv-x="1210" 
d="M725 -154l221 699h232l-256 -778h-426l88 704l-205 -704h-428l72 778h231l-70 -688l211 688h410z" />
    <glyph glyph-name="X.inferior" horiz-adv-x="847" 
d="M508 545h328l-324 -375l176 -403h-299l-78 221l-159 -221h-328l338 415l-152 363h289l66 -183z" />
    <glyph glyph-name="Y.inferior" horiz-adv-x="811" 
d="M492 545h311l-377 -496l-59 -282h-265l66 313l-178 465h276l78 -240z" />
    <glyph glyph-name="Z.inferior" horiz-adv-x="757" 
d="M47 545h649l-57 -275l-401 -297h356l-45 -206h-672l57 274l400 297h-332z" />
    <glyph glyph-name="G.ss03.inferior" horiz-adv-x="894" 
d="M344 236h436l-28 -134q-38 -176 -154 -264t-301 -88q-105 0 -186 37q-83 37 -129 111q-48 76 -48 178q0 113 60 227q59 111 170 182q113 72 258 72q161 0 254 -72q92 -71 110 -194h-270q-9 30 -37 49q-27 18 -73 18q-60 0 -105 -39q-46 -40 -70 -104q-24 -65 -24 -137
q0 -57 35 -92t98 -35q54 0 94 29q37 26 49 71h-178z" />
    <glyph glyph-name="A.superior" horiz-adv-x="899" 
d="M938 778h-266l-6 170h-252l-78 -170h-283l377 778h463zM649 1460l-141 -305h151z" />
    <glyph glyph-name="B.superior" horiz-adv-x="825" 
d="M834 1126v-4q55 -40 55 -123q0 -110 -98 -168q-96 -57 -279 -57h-395l166 778h379q134 0 200 -51q68 -53 68 -143q0 -86 -70 -129q-72 -44 -172 -53q90 -9 146 -50zM641 1341q-22 11 -51 11h-88l-21 -99h88q42 0 66 15t24 43q0 21 -18 30zM516 971v-2q100 0 100 65
q0 22 -20 33q-21 12 -57 12h-97l-24 -108h98z" />
    <glyph glyph-name="C.superior" horiz-adv-x="866" 
d="M328 801l-6 -8q-82 39 -127 110q-48 76 -48 178q0 114 60 228q59 112 166 182q110 72 252 72q110 0 188 -37q79 -38 123 -105q43 -67 49 -157h-270q-3 45 -31 73q-29 29 -76 29q-58 0 -100 -39q-45 -42 -68 -104q-24 -65 -24 -142q0 -53 30 -88q28 -32 80 -32q50 0 90 30
t68 78h268q-46 -141 -157 -223q-110 -82 -285 -82q-104 0 -182 37z" />
    <glyph glyph-name="D.superior" horiz-adv-x="851" 
d="M575 1556l5 -2q109 0 188 -36q85 -39 133 -107q49 -70 49 -176q0 -164 -69 -264q-70 -101 -185 -148q-110 -45 -252 -45h-329l166 778h294zM477 983l-4 -4q96 0 152 68q55 67 55 174q0 56 -31 92q-30 35 -88 35h-57l-78 -365h51z" />
    <glyph glyph-name="E.superior" horiz-adv-x="718" 
d="M868 1556l-43 -206h-325l-15 -72h318l-43 -207h-320l-18 -86h334l-43 -207h-598l166 778h587z" />
    <glyph glyph-name="F.superior" horiz-adv-x="690" 
d="M852 1556l-45 -206h-307l-17 -82h299l-43 -207h-301l-59 -283h-264l166 778h571z" />
    <glyph glyph-name="G.superior" horiz-adv-x="909" 
d="M559 1247l436 -4l-100 -469h-215l31 152q-41 -70 -105 -117q-65 -47 -153 -47q-78 0 -148 37q-68 36 -112 110q-43 73 -43 176q0 116 59 228q59 111 170 182q113 72 258 72q161 0 254 -72q92 -71 110 -195h-270q-9 32 -37 50q-27 18 -73 18q-60 0 -105 -39
q-46 -40 -70 -104q-24 -65 -24 -138q0 -58 37 -92t96 -34q50 0 92 28q40 26 55 74h-182z" />
    <glyph glyph-name="H.superior" horiz-adv-x="854" 
d="M674 1288l57 268h264l-166 -778h-264l60 277h-187l-59 -277h-264l166 778h264l-58 -268h187z" />
    <glyph glyph-name="I.superior" horiz-adv-x="403" 
d="M379 778h-264l166 778h264z" />
    <glyph glyph-name="J.superior" horiz-adv-x="495" 
d="M72 778l45 207h67q42 0 60 12t24 47l111 512h264l-123 -573q-21 -101 -86 -154q-63 -51 -203 -51h-159z" />
    <glyph glyph-name="K.superior" horiz-adv-x="815" 
d="M715 1556h297l-295 -382l160 -396h-287l-135 359l-76 -359h-264l166 778h264l-70 -323z" />
    <glyph glyph-name="L.superior" horiz-adv-x="665" 
d="M545 1556l-123 -571h309l-43 -207h-573l166 778h264z" />
    <glyph glyph-name="M.superior" horiz-adv-x="1189" 
d="M1331 1556l-166 -778h-229l145 682l-247 -682h-385l40 684l-145 -684h-229l166 778h424l-50 -690l240 690h436z" />
    <glyph glyph-name="N.superior" horiz-adv-x="940" 
d="M702 868l148 688h231l-166 -778h-430l9 699l-150 -699h-229l166 778h430z" />
    <glyph glyph-name="O.superior" horiz-adv-x="903" 
d="M330 801l-6 -4q-83 38 -129 110q-48 76 -48 178q0 116 60 230q60 113 168 182q113 72 258 72q109 0 190 -37t131 -111t50 -178q0 -119 -58 -229t-168 -180t-258 -70q-109 0 -190 37zM635 997h-2q44 39 69 105q25 67 25 141q0 56 -31 92q-29 33 -82 33q-61 0 -106 -39
q-46 -40 -70 -104q-24 -65 -24 -142q0 -57 30 -92q29 -33 84 -33q62 0 107 39z" />
    <glyph glyph-name="P.superior" horiz-adv-x="792" 
d="M618 1556v-2q86 0 154 -30t109 -86t41 -133q0 -76 -41 -144q-38 -64 -127 -106q-82 -39 -215 -39h-109l-51 -238h-264l166 778h337zM549 1217l-2 -3q48 0 78 23q28 22 28 61q0 30 -20 41q-23 13 -55 13h-78l-29 -135h78z" />
    <glyph glyph-name="Q.superior" horiz-adv-x="915" 
d="M975 1083l-4 -2q-27 -80 -80 -145l104 -160h-264l-16 25q-85 -39 -197 -39q-109 0 -190 37q-83 38 -129 110q-47 74 -47 178q0 118 59 230q60 113 168 182q113 72 258 72q109 0 190 -37q83 -38 129 -111q48 -76 48 -178q0 -77 -29 -162zM600 975l-84 129h193
q22 71 22 141q0 56 -31 92q-29 33 -82 33q-61 0 -106 -39q-46 -40 -70 -104q-24 -65 -24 -142q0 -56 31 -92q28 -32 83 -32q43 0 68 14z" />
    <glyph glyph-name="R.superior" horiz-adv-x="829" 
d="M885 1171l-2 3q-42 -62 -127 -101l116 -293h-294l-86 250h-62l-53 -250h-264l166 779h342q85 0 155 -27q71 -27 111 -82q41 -56 41 -135q0 -80 -43 -144zM637 1346h-4q-17 14 -49 14h-88l-29 -137h86q46 0 74 22t28 62q0 24 -18 39z" />
    <glyph glyph-name="S.superior" horiz-adv-x="782" 
d="M223 831l6 -4q-95 68 -98 193h270q3 -38 31 -57t74 -19q38 0 65 17q25 16 25 40t-14 35q-18 15 -62 23l-127 35q-186 49 -186 206q0 74 47 136q45 60 129 98q81 37 190 37q151 0 228 -62q79 -63 96 -168h-270q-3 23 -25 35q-23 13 -55 13q-34 0 -60 -13q-24 -12 -24 -33
q0 -17 22 -30q20 -11 78 -27l125 -33q83 -21 123 -79q41 -59 41 -136q0 -127 -94 -200q-95 -74 -283 -74q-158 0 -252 67z" />
    <glyph glyph-name="T.superior" horiz-adv-x="749" 
d="M236 1556h696l-43 -206h-213l-123 -572h-264l123 572h-219z" />
    <glyph glyph-name="U.superior" horiz-adv-x="829" 
d="M248 829l2 5q-86 65 -86 178q0 40 10 92l98 452h265l-107 -497q-4 -28 -4 -31q0 -34 18 -49q19 -16 54 -16q52 0 77 28t37 86l103 479h264l-100 -469q-35 -157 -123 -239q-90 -84 -269 -84q-153 0 -239 65z" />
    <glyph glyph-name="V.superior" horiz-adv-x="845" 
d="M479 866l279 690h289l-338 -778h-478l-14 778h268z" />
    <glyph glyph-name="W.superior" horiz-adv-x="1210" 
d="M940 858l221 698h232l-256 -778h-426l88 705l-205 -705h-428l72 778h231l-70 -688l211 688h410z" />
    <glyph glyph-name="X.superior" horiz-adv-x="847" 
d="M723 1556h328l-324 -374l176 -404h-299l-78 221l-159 -221h-328l338 416l-152 362h289l66 -182z" />
    <glyph glyph-name="Y.superior" horiz-adv-x="811" 
d="M707 1556h311l-377 -495l-59 -283h-265l66 314l-178 464h276l78 -239z" />
    <glyph glyph-name="Z.superior" horiz-adv-x="757" 
d="M262 1556h649l-57 -274l-401 -297h356l-45 -207h-672l58 275l399 297h-332z" />
    <glyph glyph-name="G.ss03.superior" horiz-adv-x="897" 
d="M559 1247h436l-28 -133q-38 -176 -154 -264t-301 -88q-105 0 -186 37q-83 38 -129 110q-47 74 -47 178q0 116 59 228q59 111 170 182q113 72 258 72q161 0 254 -72q92 -71 110 -194h-270q-9 30 -37 49q-27 18 -73 18q-60 0 -105 -39q-46 -40 -70 -104q-24 -65 -24 -137
q0 -58 35 -93q34 -34 98 -34q55 0 94 28q36 26 49 72h-178z" />
    <glyph glyph-name="i.loclTRK" horiz-adv-x="649" 
d="M430 0h-450l239 1128h451zM694 1231h-454l67 325h455z" />
    <glyph glyph-name="uni006A0301" horiz-adv-x="649" 
d="M-266 -401l67 317h43q66 0 97 25t43 79l235 1108h451l-252 -1183q-37 -175 -160 -260q-124 -86 -348 -86h-176zM678 1223h-422l287 333h608z" />
    <glyph glyph-name="germandbls.calt" horiz-adv-x="1634" 
d="M1679 1556l-96 -436l-315 -260q129 -30 209 -119q79 -88 79 -227q0 -174 -81 -295q-80 -120 -234 -186q-149 -64 -356 -64q-146 0 -256 49l65 310q51 -26 78 -35q38 -12 84 -12q64 0 117 24q51 23 82 68q30 44 30 100q0 73 -57 107q-54 32 -168 32h-59l71 338l289 238
h-440l-252 -1188h-465l330 1556h1345z" />
    <glyph glyph-name="a.ss04" horiz-adv-x="1404" 
d="M983 1128l442 5l-239 -1129h-445l39 186q-55 -94 -143 -155q-89 -62 -211 -62q-113 0 -199 50q-87 50 -135 147q-49 98 -49 240q0 188 72 364q70 170 207 277q134 104 311 104q86 0 147 -37q62 -38 99 -96q38 -59 53 -127zM766 328l2 -2q61 67 90 163q31 102 31 203
q0 90 -37 133t-100 43q-79 0 -136 -63q-58 -64 -88 -166t-30 -203q0 -88 34 -131t99 -43q75 0 135 66z" />
    <glyph glyph-name="aacute.ss04" horiz-adv-x="1404" 
d="M983 1128l442 5l-239 -1129h-445l39 186q-55 -94 -143 -155q-89 -62 -211 -62q-113 0 -199 50q-87 50 -135 147q-49 98 -49 240q0 188 72 364q70 170 207 277q134 104 311 104q86 0 147 -37q62 -38 99 -96q38 -59 53 -127zM766 328l2 -2q61 67 90 163q31 102 31 203
q0 90 -37 133t-100 43q-79 0 -136 -63q-58 -64 -88 -166t-30 -203q0 -88 34 -131t99 -43q75 0 135 66zM1006 1223h-422l286 333h609z" />
    <glyph glyph-name="abreve.ss04" horiz-adv-x="1404" 
d="M983 1128l442 5l-239 -1129h-445l39 186q-55 -94 -143 -155q-89 -62 -211 -62q-113 0 -199 50q-87 50 -135 147q-49 98 -49 240q0 188 72 364q70 170 207 277q134 104 311 104q86 0 147 -37q62 -38 99 -96q38 -59 53 -127zM766 328l2 -2q61 67 90 163q31 102 31 203
q0 90 -37 133t-100 43q-79 0 -136 -63q-58 -64 -88 -166t-30 -203q0 -88 34 -131t99 -43q75 0 135 66zM618 1249l-4 -4q-87 35 -135 98q-49 64 -49 150q0 31 6 61h301q-2 -6 -2 -24q0 -40 31 -62q29 -20 84 -20q58 0 102 29q42 28 54 77h301q-21 -97 -88 -172
q-66 -75 -172 -122q-104 -46 -236 -46q-106 0 -193 35z" />
    <glyph glyph-name="acircumflex.ss04" horiz-adv-x="1404" 
d="M983 1128l442 5l-239 -1129h-445l39 186q-55 -94 -143 -155q-89 -62 -211 -62q-113 0 -199 50q-87 50 -135 147q-49 98 -49 240q0 188 72 364q70 170 207 277q134 104 311 104q86 0 147 -37q62 -38 99 -96q38 -59 53 -127zM766 328l2 -2q61 67 90 163q31 102 31 203
q0 90 -37 133t-100 43q-79 0 -136 -63q-58 -64 -88 -166t-30 -203q0 -88 34 -131t99 -43q75 0 135 66zM1149 1556l201 -333h-377l-121 155l-182 -155h-383l319 333h543z" />
    <glyph glyph-name="adieresis.ss04" horiz-adv-x="1404" 
d="M983 1128l442 5l-239 -1129h-445l39 186q-55 -94 -143 -155q-89 -62 -211 -62q-113 0 -199 50q-87 50 -135 147q-49 98 -49 240q0 188 72 364q70 170 207 277q134 104 311 104q86 0 147 -37q62 -38 99 -96q38 -59 53 -127zM766 328l2 -2q61 67 90 163q31 102 31 203
q0 90 -37 133t-100 43q-79 0 -136 -63q-58 -64 -88 -166t-30 -203q0 -88 34 -131t99 -43q75 0 135 66zM764 1231h-455l68 325h454zM1315 1231h-455l68 325h454z" />
    </font>
</defs>
</svg>
