<?xml version="1.0" standalone="no"?>
<!DOCTYPE svg PUBLIC "-//W3C//DTD SVG 1.1//EN" "http://www.w3.org/Graphics/SVG/1.1/DTD/svg11.dtd" >
<svg xmlns="http://www.w3.org/2000/svg" xmlns:xlink="http://www.w3.org/1999/xlink" version="1.1">
<metadata>
Created by FontForge 20170731 at Fri Apr 21 21:41:38 2023
 By Aleksey,,,
(c) 2014-2020. Copyright by TYPE.WELTKERN :. All rights reserved.
</metadata>
<defs>
<font id="TWKEverett-Black" horiz-adv-x="1536" >
  <font-face 
    font-family="TWK Everett"
    font-weight="800"
    font-stretch="normal"
    units-per-em="2048"
    panose-1="2 11 2 4 0 0 0 0 0 0"
    ascent="1638"
    descent="-410"
    x-height="1128"
    cap-height="1556"
    bbox="-1903 -682 6846 2290"
    underline-thickness="309"
    underline-position="-820"
    unicode-range="U+000D-FEFF"
  />
<missing-glyph horiz-adv-x="1556" 
d="M1432 0h-1307v1556h1307v-1556zM578 1198v-840h401v840h-401z" />
    <glyph glyph-name="fi" unicode="fi" horiz-adv-x="1544" 
d="M1444 0l-445 2v811h-348v-811h-442v811h-170v317h170v62q0 117 55 199q55 81 154 125q98 43 225 43h225v-306h-100q-61 0 -88 -24t-27 -80v-21h791v-1128zM995 1233v326h447v-326h-447z" />
    <glyph glyph-name="fl" unicode="fl" horiz-adv-x="1542" 
d="M1444 0l-445 2v1251h-233q-61 0 -88 -24t-27 -80v-21h215v-317h-215v-811h-442v811h-170v317h170v62q0 117 55 199q54 80 154 124q98 43 225 43h801v-1556z" />
    <glyph glyph-name="W_W_W" unicode="WWW" horiz-adv-x="6885" 
d="M6234 121l191 1435h421l-223 -1556h-764l-155 1460l-158 -1460h-764l-209 1456l-211 -1456h-762l-157 1462l-158 -1462h-764l-209 1456l-209 -1456h-764l-157 1462l-158 -1462h-764l-223 1556h424l190 -1433l170 1433h721l170 -1433l191 1433h819l190 -1441l170 1441h719
l172 -1435l191 1435h819l190 -1441l170 1441h719z" />
    <glyph glyph-name="f_f" unicode="ff" horiz-adv-x="1800" 
d="M1669 1251l-4 4q-61 0 -88 -24t-27 -80v-21h213v-317h-213v-811h-442v811h-459v-811h-442v811h-170v317h170v62q0 117 55 199q55 81 154 125q98 43 225 43h225v-306h-100q-61 0 -88 -24t-27 -80v-21h459v62q0 117 55 199q54 80 154 124q98 43 225 43h223v-305h-98z" />
    <glyph glyph-name="f_f_i" unicode="ffi" horiz-adv-x="2443" 
d="M2343 1128l-4 -1124h-443v811h-346v-811h-442v811h-459v-811h-442v811h-170v318h170v61q0 117 55 199q55 81 154 125q98 43 225 43h225v-306h-100q-61 0 -88 -24t-27 -80v-21h459v62q0 117 55 199q55 81 154 125q98 43 225 43h223v-306h-98q-61 0 -88 -24t-27 -80v-21
h789zM1894 1235v326h447v-326h-447z" />
    <glyph glyph-name="f_f_l" unicode="ffl" horiz-adv-x="2441" 
d="M1901 1556l438 5v-1557h-443v811h-346v-811h-442v811h-459v-811h-442v811h-170v318h170v61q0 117 55 199q55 81 154 125q98 43 225 43h225v-306h-100q-61 0 -88 -24t-27 -80v-21h459v62q0 117 55 199q55 81 154 125q98 43 225 43h223v-306h-98q-61 0 -88 -24t-27 -80v-21
h347v428z" />
    <glyph glyph-name="f_j" unicode="fj" horiz-adv-x="1544" 
d="M1444 1128l-2 -1163q0 -115 -56 -198q-55 -82 -153 -125t-223 -43h-179v317h54q60 0 88 25q26 23 26 82v790h-348v-811h-442v811h-170v317h170v62q0 117 55 199q55 81 154 125q98 43 225 43h225v-306h-100q-61 0 -88 -24t-27 -80v-21h791zM995 1231v325h447v-325h-447z
" />
    <glyph glyph-name="f_t" unicode="ft" horiz-adv-x="1818" 
d="M1550 811l-2 -389v-4q0 -50 29 -76q28 -25 86 -25h92v-317h-217q-125 0 -223 43q-99 44 -154 125q-55 82 -55 197v4v444h-455v-811h-442v811h-170v317h170v62q0 117 55 199q55 81 154 125q98 43 225 43h225v-306h-100q-61 0 -88 -24t-27 -80v-21h455v267h442v-267h207
v-317h-207z" />
    <glyph glyph-name="t_f" unicode="tf" horiz-adv-x="1818" 
d="M1686 1251q-62 0 -89 -24q-26 -23 -26 -80v-21h213v-317h-213v-811h-443v811h-477v-389v-4q0 -57 27 -78q30 -23 88 -23h92v-317h-219q-125 0 -223 43q-99 44 -154 125q-55 82 -55 196v5v444h-178v317h178v267h442v-267h477v62q0 116 56 199q54 81 153 124q98 43 226 43
h223v-305h-98z" />
    <glyph glyph-name="t_t" unicode="tt" horiz-adv-x="1835" 
d="M1567 811l2 -393v-4q0 -51 28 -76t86 -25h93v-317h-217q-126 0 -224 43t-153 125q-56 83 -56 196v5v444h-473v-389v-4q0 -57 27 -78q30 -23 88 -23h92v-317h-219q-125 0 -223 43q-99 44 -154 125q-55 82 -55 196v5v444h-178v317h178v267h442v-267h473v267h443v-267h207
v-317h-207z" />
    <glyph glyph-name="w_w_w" unicode="www" horiz-adv-x="5543" 
d="M5011 115l121 1013h371l-145 -1128h-674l-99 1032l-100 -1032h-674l-133 1032l-133 -1032h-674l-98 1032l-100 -1032h-672l-133 1026l-135 -1026h-672l-100 1024l-101 -1024h-672l-147 1128h371l123 -1022l112 1022h627l112 -1022l123 1022h715l123 -1022l113 1022h626
l113 -1022l123 1022h715l120 -1022l113 1022h629z" />
    <glyph glyph-name=".notdef" horiz-adv-x="1556" 
d="M1432 0h-1307v1556h1307v-1556zM578 1198v-840h401v840h-401z" />
    <glyph glyph-name=".null" horiz-adv-x="0" 
 />
    <glyph glyph-name="nonmarkingreturn" unicode="&#xd;" horiz-adv-x="432" 
 />
    <glyph glyph-name="space" unicode=" " horiz-adv-x="432" 
 />
    <glyph glyph-name="exclam" unicode="!" horiz-adv-x="690" 
d="M528 543h-366l-80 1013h524zM569 0h-450v391h450v-391z" />
    <glyph glyph-name="quotedbl" unicode="&#x22;" horiz-adv-x="1079" 
d="M446 852h-321l-57 704h436zM954 852h-321l-58 704h437z" />
    <glyph glyph-name="numbersign" unicode="#" horiz-adv-x="1679" 
d="M1610 1128v-266h-326l-49 -237h270v-265h-325l-74 -360h-318l74 360h-256l-74 -360h-319l74 360h-215v265h270l49 237h-217v266h272l89 428h319l-88 -428h256l88 428h317l-88 -428h271zM662 625h256l49 237h-256z" />
    <glyph glyph-name="dollar" unicode="$" horiz-adv-x="1454" 
d="M1329 258l-4 -2q-52 -99 -151 -166q-100 -68 -232 -98v-264h-446v270q-178 52 -291 180q-114 129 -135 309h458q12 -87 72 -141q59 -53 148 -53t139 35q49 34 49 96q0 54 -47 84q-50 32 -154 61l-223 62q-198 58 -309 166t-111 299q0 116 49 207q50 92 142 157
q94 67 215 96v254h446v-258q174 -47 275 -157q99 -108 135 -269h-459q-18 64 -68 99t-125 35q-50 0 -88 -15q-32 -13 -57 -41q-20 -23 -20 -55q0 -34 24 -55q23 -20 72 -39q55 -21 135 -43l223 -64q189 -52 291 -172q100 -118 100 -307q0 -111 -53 -211z" />
    <glyph glyph-name="percent" unicode="%" horiz-adv-x="2056" 
d="M238 745l-5 -4q-87 49 -137 152q-49 101 -49 246q0 144 49 245t140 152q88 49 215 49q125 0 213 -49q91 -51 139 -150q49 -101 49 -245q0 -145 -49 -246t-137 -150t-213 -49q-127 0 -215 49zM764 -6h-377l897 1556h377zM518 965h-4q21 50 21 170q0 118 -21 168
q-21 49 -70 49q-48 0 -69 -49q-21 -50 -21 -168q0 -116 23 -170q21 -50 72 -50q48 0 69 50zM1382 14l-4 -4q-87 49 -137 152q-49 101 -49 246q0 144 49 245q49 102 139 152q88 49 215 49q125 0 213 -49q92 -52 140 -150q49 -101 49 -245q0 -145 -49 -246q-49 -100 -138 -150
q-88 -49 -213 -49q-127 0 -215 49zM1645 209l-7 -2q21 24 29 67q10 52 10 127q0 123 -20 170q-21 50 -70 50q-48 0 -69 -50q-21 -49 -21 -168q0 -113 23 -167q21 -50 71 -50q34 0 54 23z" />
    <glyph glyph-name="ampersand" unicode="&#x26;" horiz-adv-x="1652" 
d="M1665 0l-502 -4l-86 98q-94 -59 -205 -94q-103 -33 -221 -33q-186 0 -325 53q-138 52 -211 154q-74 103 -74 240q0 152 92 264q90 109 256 199q-95 109 -135 178q-41 71 -41 147q0 105 68 191q67 84 190 137q119 51 287 51q162 0 286 -53q121 -52 187 -139
q65 -86 65 -189q0 -111 -88 -196q-94 -91 -272 -179l-4 -2l194 -221l146 250h368l-241 -414q-14 -26 -53 -80zM680 1266v-2q-31 -28 -31 -74q0 -32 19 -64q18 -30 61 -82q64 35 98 68q33 33 33 80q0 46 -31 74q-29 26 -73 26q-47 0 -76 -26zM883 309l-287 324
q-104 -85 -104 -195q0 -86 55 -135t149 -49q93 0 187 55z" />
    <glyph glyph-name="quotesingle" unicode="'" horiz-adv-x="571" 
d="M446 852h-321l-57 704h436z" />
    <glyph glyph-name="parenleft" unicode="(" horiz-adv-x="806" 
d="M381 -401l-4 -2q-147 216 -234 458q-90 250 -90 531q0 277 90 518q86 230 238 455h450q-145 -215 -235 -455q-88 -236 -88 -518t90 -529q88 -242 233 -458h-450z" />
    <glyph glyph-name="parenright" unicode=")" horiz-adv-x="806" 
d="M-25 -401h-4q147 219 234 458q90 247 90 529t-88 518t-236 455h451q150 -222 237 -455q91 -244 91 -518q0 -278 -91 -531q-87 -241 -233 -456h-451z" />
    <glyph glyph-name="asterisk" unicode="*" horiz-adv-x="946" 
d="M801 1657l80 -234l-199 -65l135 -174l-207 -152l-139 182l-139 -182l-205 152l135 174l-201 65l84 234l197 -66v195h260v-195z" />
    <glyph glyph-name="plus" unicode="+" horiz-adv-x="1282" 
d="M811 733h395v-330h-395v-403h-340v403h-393v330h393v395h340v-395z" />
    <glyph glyph-name="comma" unicode="," horiz-adv-x="661" 
d="M106 0v391h451v-442l-170 -252h-283l148 303h-146z" />
    <glyph glyph-name="hyphen" unicode="-" horiz-adv-x="905" 
d="M809 410h-713v362h713v-362z" />
    <glyph glyph-name="period" unicode="." horiz-adv-x="661" 
d="M557 0h-451v391h451v-391z" />
    <glyph glyph-name="slash" unicode="/" horiz-adv-x="1226" 
d="M504 0h-471l690 1556h473z" />
    <glyph glyph-name="zero" unicode="0" horiz-adv-x="1527" 
d="M389 61h-4q-155 91 -235 271t-80 442t80 445q78 179 237 272q157 92 375 92t375 -92q159 -93 237 -272q80 -183 80 -445t-80 -442t-235 -271q-157 -92 -375 -92t-375 92zM889 358l-4 -4q49 49 73 152q25 106 25 264q0 241 -53 356t-172 115t-174 -113q-56 -115 -56 -356
q0 -240 56 -352q56 -111 176 -111q80 0 129 49z" />
    <glyph glyph-name="one" unicode="1" horiz-adv-x="946" 
d="M432 1556h391v-1556h-452v975h-338v358h24q106 0 179 25q71 24 114 67q44 44 74 111z" />
    <glyph glyph-name="two" unicode="2" horiz-adv-x="1445" 
d="M614 358l754 4v-358h-1302v449l696 497q68 51 90 82q29 40 29 82q0 62 -45 98q-46 37 -123 37q-83 0 -131 -45q-49 -46 -52 -129h-458q9 150 88 266q80 118 225 183t336 65q189 0 332 -61q146 -62 221 -168q78 -110 78 -236q0 -138 -70 -245t-217 -209z" />
    <glyph glyph-name="three" unicode="3" horiz-adv-x="1447" 
d="M1149 750l-2 -2q101 -43 166 -123t65 -199q0 -147 -80 -250q-77 -99 -231 -153q-149 -52 -360 -52q-317 0 -480 135q-164 135 -188 379h459q3 -83 55 -129q51 -45 154 -45q52 0 104 19t80 51q31 36 31 80q0 89 -80 127q-78 37 -215 37h-115v358h115q133 0 192 39
q62 41 62 98q0 61 -45 94q-44 33 -123 33q-82 0 -129 -41q-46 -40 -49 -110h-459q9 144 92 256q81 109 225 172q140 61 318 61q179 0 319 -51q143 -52 227 -148t84 -215q0 -168 -110 -253q-114 -87 -301 -117q121 -9 219 -51z" />
    <glyph glyph-name="four" unicode="4" horiz-adv-x="1503" 
d="M1241 715h207v-359h-207v-356h-450v356h-746v449l395 751h801v-841zM791 1415l-365 -700h365v700z" />
    <glyph glyph-name="five" unicode="5" horiz-adv-x="1474" 
d="M1169 1006h2q114 -62 179 -185q65 -124 65 -295q0 -180 -86 -307q-84 -124 -237 -190q-149 -64 -349 -64q-188 0 -337 64q-152 65 -240 182q-91 121 -103 276h459q9 -81 68 -131q58 -49 153 -49q59 0 105 27q48 28 74 76t26 114q0 69 -26 117q-28 51 -76 74
q-49 24 -107 24q-76 0 -131 -37t-82 -102l-444 37l78 917h1145v-358h-723l-31 -365q21 61 72 115q49 52 122 86q75 35 166 35q145 0 258 -61z" />
    <glyph glyph-name="six" unicode="6" horiz-adv-x="1517" 
d="M1194 979l12 -6q123 -65 191 -185q67 -119 67 -282q0 -153 -86 -277t-241 -194t-363 -70q-209 0 -366 86q-159 87 -246 266q-88 180 -88 455q0 270 90 455q89 182 246 268t362 86q189 0 326 -61q141 -63 219 -166q82 -108 102 -230h-458q-41 117 -185 117q-95 0 -155 -63
q-63 -66 -86 -168q-24 -105 -21 -234q20 68 74 131q52 61 135 99q79 36 184 36q167 0 287 -63zM897 330h-4q53 24 80 71q28 48 28 109q0 92 -61 147q-62 56 -166 56q-64 0 -119 -25q-52 -24 -80 -72t-28 -104q0 -58 28 -106q27 -47 80 -74t123 -27q64 0 119 25z" />
    <glyph glyph-name="seven" unicode="7" horiz-adv-x="1224" 
d="M39 1198v358h1141v-448l-549 -1108h-553l655 1198h-694z" />
    <glyph glyph-name="eight" unicode="8" horiz-adv-x="1540" 
d="M1356 686v-4q117 -91 117 -260q0 -133 -84 -240q-80 -102 -244 -162q-155 -57 -377 -57t-377 57q-163 60 -246 162q-86 106 -86 240q0 169 119 260q121 92 295 119q-164 42 -266 133q-98 88 -98 240q0 124 84 217q82 91 231 141q146 49 344 49q196 0 344 -49
q152 -50 234 -141q81 -90 81 -217q0 -153 -100 -240q-103 -89 -266 -129q177 -27 295 -119zM612 1198h-8q-55 -40 -55 -104q0 -40 24 -74q24 -35 74 -53q52 -19 117 -19t117 19q48 18 73 53q25 36 25 74q0 64 -55 104q-56 41 -156 41t-156 -41zM934 350l4 -8q68 47 68 123
q0 45 -31 84q-30 38 -86 59t-127 21t-127 -21q-58 -22 -86 -57q-31 -39 -31 -84q0 -49 31 -88q29 -37 86 -55q59 -19 125 -19q109 0 174 45z" />
    <glyph glyph-name="nine" unicode="9" horiz-adv-x="1517" 
d="M1114 1499l-16 2q157 -86 245 -266q89 -183 89 -455q0 -267 -91 -454q-88 -181 -245 -267t-363 -86q-186 0 -325 62q-142 63 -220 166q-82 108 -102 229h459q41 -117 184 -117q95 0 156 64q63 66 86 168q25 109 22 233q-21 -70 -73 -131q-50 -59 -136 -98
q-81 -37 -184 -37q-165 0 -285 63q-122 64 -190 185t-68 282q0 153 86 277q86 123 242 194q159 72 363 72q209 0 366 -86zM852 864l-2 -6q52 24 80 72t28 104q0 64 -26 109q-27 47 -80 74q-51 26 -123 26q-67 0 -119 -24q-54 -24 -80 -70q-26 -45 -26 -107q0 -92 61 -147
t166 -55q69 0 121 24z" />
    <glyph glyph-name="colon" unicode=":" horiz-adv-x="661" 
d="M557 0h-451v391h451v-391zM557 702h-451v392h451v-392z" />
    <glyph glyph-name="semicolon" unicode=";" horiz-adv-x="661" 
d="M106 0v391h451v-442l-170 -252h-283l148 303h-146zM557 702h-451v392h451v-392z" />
    <glyph glyph-name="less" unicode="&#x3c;" horiz-adv-x="1224" 
d="M92 842l1030 252v-344l-807 -183l807 -182v-346l-1030 252v551z" />
    <glyph glyph-name="equal" unicode="=" horiz-adv-x="1306" 
d="M1194 637h-1083v330h1083v-330zM1194 174h-1083v330h1083v-330z" />
    <glyph glyph-name="greater" unicode="&#x3e;" horiz-adv-x="1224" 
d="M102 750v344l1031 -252v-551l-1031 -252v346l807 182z" />
    <glyph glyph-name="question" unicode="?" horiz-adv-x="1300" 
d="M397 543l-6 2q0 110 35 194q35 83 109 148l124 114q73 67 93 95q24 34 24 67q0 42 -37 66t-100 24q-57 0 -98 -30q-40 -30 -43 -80h-457q9 132 86 235q76 101 209 154t307 53q193 0 324 -51q135 -53 202 -143q68 -92 68 -213q0 -100 -39 -168q-43 -74 -119 -142
l-125 -116q-61 -55 -84 -99q-24 -47 -24 -110h-449zM846 2h-451v391h451v-391z" />
    <glyph glyph-name="at" unicode="@" horiz-adv-x="1918" 
d="M1409 1262l-4 -5q210 -124 332 -331q123 -208 123 -455q0 -173 -62 -276q-60 -100 -158 -142q-96 -41 -202 -41q-230 0 -332 172q-94 -172 -309 -172q-93 0 -166 37t-117 105q-43 67 -43 157q0 139 102 201q105 63 275 78l229 22v13v4q0 59 -33 92q-35 35 -88 35
q-50 0 -86 -31q-33 -29 -36 -76h-328q12 102 74 170q64 70 159 103q98 34 219 34q153 0 252 -45q101 -46 148 -127q47 -80 47 -186v-4v-215v-4q0 -55 25 -94q24 -37 69 -37q64 0 94 55q31 57 31 172q0 178 -90 334t-242 244q-156 90 -334 90q-177 0 -333 -90
q-153 -89 -242 -242q-88 -152 -88 -334t88 -334t242 -241q157 -91 336 -91q85 0 172 19q81 18 147 59l123 -202q-105 -57 -215 -86q-118 -31 -234 -31q-246 0 -454 123q-210 124 -332 331q-123 208 -123 455t123 455q123 209 332 332q207 122 454 122q248 0 455 -122z
M1028 266h-4q43 58 43 148v12l-115 -10q-75 -9 -116 -33t-41 -76q0 -49 32 -74q33 -26 86 -26q71 0 115 59z" />
    <glyph glyph-name="A" unicode="A" horiz-adv-x="1697" 
d="M1710 0h-477l-98 360h-572l-98 -360h-477l469 1556h786zM850 1409l-186 -680h370z" />
    <glyph glyph-name="B" unicode="B" horiz-adv-x="1554" 
d="M1282 743v-4q102 -41 160 -116q59 -77 59 -191q0 -129 -74 -229q-72 -97 -221 -150q-148 -53 -364 -53h-721v1556h706q209 0 349 -55t208 -147t68 -209q0 -159 -111 -244q-112 -87 -290 -110q125 -6 231 -48zM940 1163v-4q-41 35 -117 35h-243v-258h243q76 0 117 35
t41 96t-41 96zM850 344v4q88 0 137 37t49 102q0 68 -49 105t-137 37h-270v-285h270z" />
    <glyph glyph-name="C" unicode="C" horiz-adv-x="1675" 
d="M451 68l-2 6q-184 94 -289 276t-105 430t105 430q106 183 286 277q184 96 410 96q194 0 356 -67q165 -68 275 -199t151 -324h-475q-38 113 -110 176q-75 66 -199 66q-101 0 -174 -55q-76 -57 -115 -156q-41 -103 -41 -246q0 -145 43 -246q42 -99 119 -155q76 -55 178 -55
q116 0 195 61q81 62 115 182h475q-47 -207 -160 -338q-115 -133 -272 -194q-160 -62 -353 -62q-224 0 -413 97z" />
    <glyph glyph-name="D" unicode="D" horiz-adv-x="1624" 
d="M748 1556l-3 9q251 0 431 -82q179 -82 282 -258q103 -177 103 -443q0 -268 -101 -442q-103 -176 -282 -258q-180 -82 -430 -82h-625v1556h625zM756 377q160 0 245 104q86 106 86 305q0 200 -86 306q-85 104 -245 104h-178v-819h178z" />
    <glyph glyph-name="E" unicode="E" horiz-adv-x="1368" 
d="M580 608v-239h702v-369h-1159v1556h1141v-368h-684v-211h669v-369h-669z" />
    <glyph glyph-name="F" unicode="F" horiz-adv-x="1314" 
d="M1233 1556v-368h-653v-234h639v-370h-639v-584h-457v1556h1110z" />
    <glyph glyph-name="G" unicode="G" horiz-adv-x="1767" 
d="M809 930l868 -4v-930h-368v348q-58 -163 -174 -270t-338 -107q-181 0 -351 92q-166 89 -276 275q-107 180 -107 436q0 246 103 432q102 184 289 283q186 98 430 98q301 0 497 -129q199 -131 275 -393h-477q-40 83 -111 129q-68 45 -184 45q-108 0 -187 -55
q-80 -56 -123 -160t-43 -248q0 -145 43 -246q42 -99 127 -153t197 -54q94 0 166 35q73 36 115 95q44 62 47 139h-418v342z" />
    <glyph glyph-name="H" unicode="H" horiz-adv-x="1638" 
d="M1059 997v559h457v-1556h-457v584h-479v-584h-457v1556h457v-559h479z" />
    <glyph glyph-name="I" unicode="I" horiz-adv-x="704" 
d="M580 0h-457v1556h457v-1556z" />
    <glyph glyph-name="J" unicode="J" horiz-adv-x="901" 
d="M33 0l2 371h160q52 0 79 12q28 13 41 41q13 29 13 80v1052h456v-1142q0 -207 -112 -310q-113 -104 -350 -104h-289z" />
    <glyph glyph-name="K" unicode="K" horiz-adv-x="1574" 
d="M1059 815l565 -815h-557l-487 733v-733h-457v1556h457v-667l444 667h541z" />
    <glyph glyph-name="L" unicode="L" horiz-adv-x="1243" 
d="M580 1556v-1187h630v-369h-1087v1556h457z" />
    <glyph glyph-name="M" unicode="M" horiz-adv-x="2293" 
d="M2169 1556v-1556h-414v1444l-262 -1444h-692l-262 1434v-1434h-416v1556h784l240 -1421l237 1421h785z" />
    <glyph glyph-name="N" unicode="N" horiz-adv-x="1818" 
d="M1280 133v1423h414v-1556h-785l-370 1423v-1423h-416v1556h786z" />
    <glyph glyph-name="O" unicode="O" horiz-adv-x="1759" 
d="M453 68v-5q-185 98 -291 281q-105 182 -105 430t105 430q106 183 291 281q186 98 426 98q244 0 430 -98q185 -98 290 -279q105 -182 105 -430t-105 -430q-104 -180 -290 -278q-187 -99 -430 -99q-239 0 -426 99zM1065 371v-4q80 56 123 157t43 246t-43 246
q-44 103 -123 158t-186 55t-187 -53t-123 -156q-43 -104 -43 -248t43 -248q42 -102 123 -155q82 -54 187 -54q106 0 186 56z" />
    <glyph glyph-name="P" unicode="P" horiz-adv-x="1497" 
d="M786 1556q222 0 369 -63q151 -65 227 -184q78 -122 78 -283t-78 -283q-76 -119 -227 -184q-147 -63 -369 -63h-206v-496h-457v1556h663zM786 856q101 0 154 47t53 123t-53 123q-51 45 -154 45h-206v-338h206z" />
    <glyph glyph-name="Q" unicode="Q" horiz-adv-x="1777" 
d="M1901 0l-515 -4l-69 76q-193 -105 -443 -105q-238 0 -425 99q-186 98 -291 280t-105 430t105 430q106 183 291 281q186 98 425 98q245 0 431 -98q185 -98 290 -279q105 -182 105 -430q0 -252 -111 -442zM1049 362l-254 275h424q10 75 10 135q0 145 -43 246
q-44 103 -123 158t-186 55t-187 -53t-123 -156q-43 -104 -43 -248t43 -248q42 -102 123 -155q82 -54 187 -54q98 0 172 45z" />
    <glyph glyph-name="R" unicode="R" horiz-adv-x="1574" 
d="M1063 0l-305 524h-178v-526h-457v1556h670q209 0 356 -63q154 -66 231 -180q80 -118 80 -273q0 -144 -67 -254q-66 -108 -197 -174l379 -610h-512zM580 1200l-2 -323h210q96 0 148 43q53 44 53 116q0 74 -51 119t-147 45h-211z" />
    <glyph glyph-name="S" unicode="S" horiz-adv-x="1517" 
d="M397 33l-10 4q-154 63 -244 178q-93 119 -108 281h477q15 -94 80 -144q64 -49 172 -49q119 0 184 35q64 34 64 96q0 40 -23 66q-22 25 -71 43q-56 20 -138 37l-254 57q-218 50 -331 160q-115 112 -115 301q0 144 86 256q85 110 233 172q146 61 332 61q220 0 363 -57
q148 -59 227 -160q81 -104 102 -237h-475q-14 59 -74 94q-56 33 -147 33q-87 0 -147 -31q-58 -30 -58 -86q0 -39 25 -64q24 -24 76 -39q98 -28 155 -41l252 -55q208 -47 320 -162t112 -297q0 -166 -88 -282q-87 -115 -252 -174q-162 -58 -383 -58q-191 0 -342 62z" />
    <glyph glyph-name="T" unicode="T" horiz-adv-x="1409" 
d="M33 1556h1343v-368h-444v-1188h-457v1188h-442v368z" />
    <glyph glyph-name="U" unicode="U" horiz-adv-x="1597" 
d="M276 139l-4 -4q-168 168 -168 486v4v929h457v-981v-4q0 -119 62 -184q60 -63 174 -63q112 0 174 65q61 64 61 188v981h455v-929q0 -656 -688 -656q-355 0 -523 168z" />
    <glyph glyph-name="V" unicode="V" horiz-adv-x="1611" 
d="M807 143l321 1413h488l-404 -1556h-813l-403 1556h487z" />
    <glyph glyph-name="W" unicode="W" horiz-adv-x="2363" 
d="M1712 123l191 1433h424l-224 -1556h-764l-157 1462l-158 -1462h-764l-223 1556h424l190 -1433l170 1433h721z" />
    <glyph glyph-name="X" unicode="X" horiz-adv-x="1665" 
d="M1141 821l555 -821h-549l-313 489l-316 -489h-549l555 821l-510 735h543l277 -428l274 428h545z" />
    <glyph glyph-name="Y" unicode="Y" horiz-adv-x="1515" 
d="M1040 1556h516l-569 -966v-590h-457v586l-569 970h514l283 -538z" />
    <glyph glyph-name="Z" unicode="Z" horiz-adv-x="1474" 
d="M1378 1085l-766 -716h803v-369h-1341v471l766 717h-754v368h1292v-471z" />
    <glyph glyph-name="bracketleft" unicode="[" horiz-adv-x="833" 
d="M778 1556v-317h-219v-1323h219v-317h-661v1957h661z" />
    <glyph glyph-name="backslash" unicode="\" horiz-adv-x="1226" 
d="M1196 0h-473l-690 1556h471z" />
    <glyph glyph-name="bracketright" unicode="]" horiz-adv-x="833" 
d="M55 1239v317h662v-1957h-662v317h219v1323h-219z" />
    <glyph glyph-name="asciicircum" unicode="^" horiz-adv-x="1236" 
d="M934 1556l246 -821h-420l-142 627l-143 -627h-418l246 821h631z" />
    <glyph glyph-name="underscore" unicode="_" horiz-adv-x="1214" 
d="M1149 -317h-1083v317h1083v-317z" />
    <glyph glyph-name="grave" unicode="`" horiz-adv-x="872" 
d="M842 1223h-412l-399 333h592z" />
    <glyph glyph-name="a" unicode="a" horiz-adv-x="1339" 
d="M1006 1096l4 8q130 -62 188 -166q59 -106 59 -236v-4v-692h-434v189q-47 -95 -135 -156q-89 -62 -227 -62q-113 0 -207 48q-92 47 -148 133q-55 85 -55 198q0 176 129 252q132 78 342 99l291 28v8v5q0 66 -33 108q-34 43 -100 43q-64 0 -98 -37q-35 -38 -41 -86h-443
q15 123 92 209q76 85 203 129q125 43 283 43q202 0 330 -61zM768 303l-2 -2q47 71 47 184v2l-133 -12q-80 -9 -129 -37q-45 -26 -45 -86q0 -54 37 -88q36 -33 96 -33q82 0 129 72z" />
    <glyph glyph-name="b" unicode="b" horiz-adv-x="1388" 
d="M1122 1077h-8q99 -78 156 -215q55 -134 55 -301q0 -165 -53 -301q-54 -138 -154 -213q-104 -78 -239 -78q-124 0 -215 66q-89 65 -129 166v-201h-435v1556h435v-661q37 114 127 188q89 74 221 74q136 0 239 -80zM827 338v-2q45 77 45 225t-45 225q-47 80 -137 80
q-91 0 -135 -80q-43 -79 -43 -225q0 -144 43 -223q44 -80 135 -80q90 0 137 80z" />
    <glyph glyph-name="c" unicode="c" horiz-adv-x="1308" 
d="M350 45l4 -10q-141 74 -221 209q-80 136 -80 313q0 175 80 311q80 135 221 209q142 74 320 74q164 0 289 -55q129 -57 206 -156q80 -103 101 -246h-441q-15 77 -55 123q-41 47 -100 47q-83 0 -127 -80q-43 -79 -43 -223q0 -151 43 -227t127 -76q65 0 102 43q37 42 55 127
h443q-20 -140 -105 -248q-80 -102 -211 -155q-133 -54 -284 -54q-182 0 -324 74z" />
    <glyph glyph-name="d" unicode="d" horiz-adv-x="1388" 
d="M854 1556h432v-1556h-434v199q-44 -102 -131 -166q-88 -64 -215 -64q-136 0 -240 78q-97 73 -155 213q-56 136 -56 301t56 301q57 139 155 215q103 80 240 80q132 0 221 -74q90 -74 127 -188v661zM821 338v-2q43 79 43 225t-43 225q-44 80 -135 80q-90 0 -137 -80
q-45 -77 -45 -225q0 -146 45 -223q47 -80 137 -80q91 0 135 80z" />
    <glyph glyph-name="e" unicode="e" horiz-adv-x="1327" 
d="M1272 446l-778 -4q15 -107 55 -159t108 -52q54 0 91 29q34 27 59 78h440q-61 -178 -217 -272q-157 -95 -371 -95q-180 0 -319 74q-138 74 -215 209q-76 134 -76 311q0 173 80 309q80 135 221 209q142 74 316 74t311 -70q141 -72 219 -210q80 -142 80 -345q0 -4 -4 -86z
M551 842h4q-42 -45 -57 -152h325q-9 98 -51 148q-42 51 -110 51q-67 0 -111 -47z" />
    <glyph glyph-name="f" unicode="f" horiz-adv-x="901" 
d="M768 1251l-2 2q-61 0 -88 -24t-27 -80v-21h215v-317h-215v-811h-442v811h-170v317h170v62q0 117 55 199q54 80 154 124q98 43 225 43h225v-305h-100z" />
    <glyph glyph-name="g" unicode="g" horiz-adv-x="1390" 
d="M860 1128l426 5v-1078q0 -181 -88 -288q-87 -106 -223 -150q-133 -43 -285 -43q-139 0 -266 37q-128 37 -217 123t-107 215h443q18 -47 55 -68q36 -20 92 -20q75 0 117 45q43 46 43 135v205q-40 -101 -129 -166q-88 -64 -215 -64q-137 0 -240 74q-100 72 -153 203
q-54 133 -54 295q0 165 56 295q56 131 155 202q103 74 240 74q132 0 221 -74t129 -190v233zM821 381q45 71 45 209t-45 209q-46 73 -137 73q-89 0 -135 -73q-45 -71 -45 -209t45 -209q47 -74 135 -74q90 0 137 74z" />
    <glyph glyph-name="h" unicode="h" horiz-adv-x="1349" 
d="M1178 1042l-2 -6q81 -112 81 -313v-4v-723h-442v614v4q0 123 -33 179q-34 57 -104 57q-71 0 -105 -55q-32 -51 -32 -181v-614h-443v1556h434v-663q102 264 369 264q194 0 277 -115z" />
    <glyph glyph-name="i" unicode="i" horiz-adv-x="643" 
d="M543 0h-443v1128h443v-1128zM543 1231h-445v325h445v-325z" />
    <glyph glyph-name="j" unicode="j" horiz-adv-x="643" 
d="M-68 -401v315h54q60 0 88 25q26 23 26 81v1108h443v-1163q0 -115 -56 -198q-55 -82 -153 -125t-223 -43h-179zM543 1229h-445v325h445v-325z" />
    <glyph glyph-name="k" unicode="k" horiz-adv-x="1337" 
d="M973 625l387 -625h-518l-303 516v-516h-443v1556h443v-841l290 413h510z" />
    <glyph glyph-name="l" unicode="l" horiz-adv-x="641" 
d="M543 0h-443v1556h443v-1556z" />
    <glyph glyph-name="m" unicode="m" horiz-adv-x="2017" 
d="M1927 727l2 2v-723h-442v615v4q0 116 -29 176q-27 55 -96 55t-96 -55q-29 -60 -29 -183v-614h-442v614v5q0 116 -29 176q-27 55 -96 55q-70 0 -97 -55q-28 -58 -28 -183v-614h-443v1128h435v-237q46 123 133 194q87 72 225 72q139 0 219 -74q81 -75 115 -192
q43 116 129 190t219 74q350 0 350 -430z" />
    <glyph glyph-name="n" unicode="n" horiz-adv-x="1349" 
d="M1178 1042l-2 -6q81 -112 81 -313v-4v-723h-442v614v4q0 123 -33 179q-34 57 -104 57q-71 0 -105 -55q-32 -51 -32 -181v-614h-443v1128h434v-235q102 264 369 264q194 0 277 -115z" />
    <glyph glyph-name="o" unicode="o" horiz-adv-x="1363" 
d="M346 47l-4 2q-145 77 -221 211t-76 305q0 169 78 307q76 134 221 211q143 76 338 76t338 -76q145 -77 221 -211q78 -138 78 -307q0 -173 -76 -307t-221 -211q-143 -76 -338 -76t-338 76zM815 340v-2q45 77 45 225t-45 225q-47 80 -137 80q-91 0 -135 -80
q-43 -79 -43 -225q0 -144 43 -223q44 -80 135 -80q90 0 137 80z" />
    <glyph glyph-name="p" unicode="p" horiz-adv-x="1388" 
d="M1122 1077h-8q99 -78 156 -215q55 -134 55 -301q0 -165 -53 -301q-54 -138 -154 -213q-104 -78 -239 -78q-124 0 -215 66q-89 65 -129 166v-602h-435v1529h435v-233q37 114 127 188q89 74 221 74q136 0 239 -80zM827 338v-2q45 77 45 225t-45 225q-47 80 -137 80
q-91 0 -135 -80q-43 -79 -43 -225q0 -144 43 -223q44 -80 135 -80q90 0 137 80z" />
    <glyph glyph-name="q" unicode="q" horiz-adv-x="1388" 
d="M854 1128h432v-1529h-434v600q-44 -102 -131 -166q-88 -64 -215 -64q-136 0 -240 78q-97 73 -155 213q-56 136 -56 301t56 301q57 139 155 215q103 80 240 80q132 0 221 -74q90 -74 127 -188v233zM821 338v-2q43 79 43 225t-43 225q-44 80 -135 80q-90 0 -137 -80
q-45 -77 -45 -225q0 -146 45 -223q47 -80 137 -80q91 0 135 80z" />
    <glyph glyph-name="r" unicode="r" horiz-adv-x="948" 
d="M535 768q18 103 65 193q45 86 127 143q79 55 195 55v-434h-105q-146 0 -209 -57q-65 -59 -65 -191v-477h-443v1128h435v-360z" />
    <glyph glyph-name="s" unicode="s" horiz-adv-x="1265" 
d="M229 66l4 -7q-149 94 -184 289h443q24 -129 161 -129q73 0 115 25q41 24 41 59q0 22 -12 37q-13 17 -49 31q-39 15 -107 30l-246 56q-176 38 -250 118q-77 83 -77 209q0 111 71 197q69 83 195 131q119 45 270 45q156 0 277 -39q127 -41 209 -117q83 -77 104 -190h-440
q-12 44 -47 68t-93 24q-60 0 -98 -24q-37 -24 -37 -58q0 -29 31 -45q32 -16 102 -31l246 -55q182 -40 270 -123q91 -85 91 -223q0 -120 -80 -203q-81 -84 -215 -127q-133 -43 -301 -43q-243 0 -394 95z" />
    <glyph glyph-name="t" unicode="t" horiz-adv-x="917" 
d="M858 317l2 -319h-219q-125 0 -223 43q-99 44 -154 125q-55 82 -55 196v5v444h-178v317h178v267h442v-267h205v-317h-205v-389v-4q0 -57 27 -78q30 -23 88 -23h92z" />
    <glyph glyph-name="u" unicode="u" horiz-adv-x="1343" 
d="M801 1128l440 2v-1128h-434v215q-43 -113 -129 -178q-87 -66 -234 -66q-356 0 -356 430v5v722h442v-614v-4q0 -122 33 -178q34 -58 105 -58t102 60t31 178v614z" />
    <glyph glyph-name="v" unicode="v" horiz-adv-x="1327" 
d="M664 137l215 991h434l-260 -1128h-779l-260 1128h435z" />
    <glyph glyph-name="w" unicode="w" horiz-adv-x="1921" 
d="M1386 106l123 1022h371l-147 -1128h-672l-100 1024l-101 -1024h-672l-147 1128h371l123 -1022l112 1022h627z" />
    <glyph glyph-name="x" unicode="x" horiz-adv-x="1288" 
d="M928 594l381 -594h-469l-195 332l-196 -332h-472l383 594l-356 534h465l176 -294l174 294h465z" />
    <glyph glyph-name="y" unicode="y" horiz-adv-x="1327" 
d="M647 244l201 884h467l-365 -1529h-450l116 510h-346l-266 1019h438z" />
    <glyph glyph-name="z" unicode="z" horiz-adv-x="1224" 
d="M1133 725l-539 -408h571v-317h-1091v403l540 408h-528v317h1047v-403z" />
    <glyph glyph-name="braceleft" unicode="{" horiz-adv-x="915" 
d="M688 930v-2q0 -164 -104 -240q-106 -77 -303 -98q195 -18 301 -92q104 -73 104 -236v-4v-229v-4q0 -58 31 -86q30 -27 96 -27h37v-318h-158q-225 0 -338 101q-112 100 -112 276v4v205v4q0 78 -23 129q-22 48 -65 66q-44 18 -117 24v383q70 6 117 25q43 18 65 66
q23 51 23 129v170q0 176 112 276q114 102 338 102h158v-317h-37q-64 0 -94 -27q-31 -28 -31 -86v-194z" />
    <glyph glyph-name="bar" unicode="|" horiz-adv-x="659" 
d="M541 -463h-424v2142h424v-2142z" />
    <glyph glyph-name="braceright" unicode="}" horiz-adv-x="915" 
d="M692 877l-4 -7q20 -44 66 -63q47 -19 116 -25v-383q-72 -6 -116 -24q-45 -18 -66 -66q-22 -49 -22 -129v-205q0 -175 -113 -276q-112 -100 -338 -100h-158v317h37q64 0 96 29q31 28 31 86v229q0 164 105 240q106 77 303 98q-195 18 -301 92q-105 74 -105 238v4v194v4
q0 60 -30 87q-29 26 -95 26h-37v318h158q225 0 338 -101t113 -276v-4v-170v-4q0 -80 22 -129z" />
    <glyph glyph-name="asciitilde" unicode="~" horiz-adv-x="1411" 
d="M70 563h-2q82 129 178 195q98 67 207 67q67 0 116 -12q57 -14 129 -45q70 -30 123 -45q49 -14 105 -14q62 0 112 30q51 31 97 86l200 -207q-77 -126 -176 -194q-100 -68 -207 -68q-56 0 -116 11q-51 9 -129 43q-75 34 -125 49q-46 14 -101 14q-63 0 -114 -31t-97 -86z
" />
    <glyph glyph-name="uni00A0" unicode="&#xa0;" horiz-adv-x="432" 
 />
    <glyph glyph-name="exclamdown" unicode="&#xa1;" horiz-adv-x="665" 
d="M557 737h-451v391h451v-391zM592 -401h-520l78 987h366z" />
    <glyph glyph-name="cent" unicode="&#xa2;" horiz-adv-x="1390" 
d="M1321 430l-2 -2q-24 -165 -129 -276q-103 -109 -264 -156v-268h-439v272q-121 41 -208 119q-90 80 -138 192q-49 113 -49 252q0 140 49 250q49 109 140 191q85 77 208 118v267h439v-261q158 -44 258 -153q101 -110 125 -277h-443q-15 77 -55 123q-41 47 -100 47
q-83 0 -127 -80q-43 -79 -43 -223q0 -153 45 -227q47 -78 129 -78q65 0 102 43q39 46 60 127h442z" />
    <glyph glyph-name="sterling" unicode="&#xa3;" horiz-adv-x="1359" 
d="M1296 358l-2 -362h-1196v428q106 44 170 90q65 47 92 102h-282v302h196l-12 10q-64 56 -104 121q-37 61 -37 145q0 116 74 205q72 87 206 137q131 49 295 49q183 0 314 -55q132 -55 202 -154q71 -100 80 -229h-458q-6 51 -37 82t-88 31q-60 0 -93 -33q-32 -32 -32 -86
q0 -37 22 -76q19 -34 68 -86q33 -33 55 -61h393v-302h-340q-71 -150 -362 -258h876z" />
    <glyph glyph-name="currency" unicode="&#xa4;" horiz-adv-x="1382" 
d="M1157 545l143 -144l-260 -256l-145 144q-101 -43 -203 -43q-106 0 -207 43l-145 -144l-258 256l143 142q-49 107 -49 219q0 113 49 217l-143 141l258 256l145 -143q101 43 207 43q107 0 205 -43l145 143l261 -256l-146 -143q47 -103 47 -215q0 -111 -47 -217zM786 594
q44 24 68 68q25 45 25 96t-25 96q-24 44 -68 68t-96 24t-96 -24t-68 -68t-24 -96t24 -96t68 -68q45 -25 96 -25t96 25z" />
    <glyph glyph-name="yen" unicode="&#xa5;" horiz-adv-x="1648" 
d="M1096 1556h506l-400 -638h246v-300h-397v-102h397v-299h-397v-217h-451v217h-399v299h399v102h-399v300h248l-400 638h506l270 -548z" />
    <glyph glyph-name="brokenbar" unicode="&#xa6;" horiz-adv-x="677" 
d="M551 801h-424v878h424v-878zM551 -463h-424v879h424v-879z" />
    <glyph glyph-name="section" unicode="&#xa7;" horiz-adv-x="1390" 
d="M1212 274l-6 -2q31 -60 31 -129q0 -107 -68 -190t-190 -129q-119 -45 -279 -45q-169 0 -297 49t-202 135q-73 85 -88 191h458q6 -50 41 -80q36 -31 86 -31q48 0 74 20q29 23 29 52q0 32 -31 57q-23 18 -102 57l-326 150q-151 71 -215 147t-64 179q0 88 50 153t145 127
q-117 91 -117 234q0 107 68 190t190 129q124 47 279 47q171 0 299 -49q130 -50 203 -135t88 -191h-459q-9 51 -43 80q-36 31 -86 31q-47 0 -74 -21q-26 -20 -26 -51q0 -33 30 -57q21 -17 103 -57l325 -150q151 -71 215 -147t64 -179q0 -89 -49 -153q-51 -66 -144 -127
q58 -46 88 -105zM838 524q39 33 39 80q0 42 -29 74q-24 27 -98 63l-213 99q-39 -33 -39 -80q0 -43 28 -74q23 -26 99 -63z" />
    <glyph glyph-name="dieresis" unicode="&#xa8;" horiz-adv-x="1046" 
d="M475 1231h-444v325h444v-325zM1016 1231h-445v325h445v-325z" />
    <glyph glyph-name="copyright" unicode="&#xa9;" horiz-adv-x="1859" 
d="M508 49l-4 -8q-193 114 -307 307q-113 192 -113 422q0 227 115 422q114 193 307 307q195 115 424 115q232 0 424 -113q193 -114 307 -307q115 -195 115 -420q0 -228 -113 -420q-114 -193 -307 -307q-192 -113 -424 -113q-229 0 -424 115zM1241 223l-4 -4q143 85 227 232
t84 313t-84 313t-227 232q-145 86 -315 86q-171 0 -316 -86q-144 -86 -227 -230q-84 -147 -84 -313t84 -313q83 -144 227 -230q145 -86 318 -86q172 0 317 86zM690 358v-8q-105 55 -166 160q-61 104 -61 248q0 142 59 248q57 102 164 159q106 56 236 56q115 0 206 -39
q97 -42 160 -119q65 -80 86 -199h-352q-12 45 -35 72q-22 25 -65 25q-54 0 -82 -48q-27 -47 -27 -151q0 -97 29 -150q27 -49 86 -49q78 0 96 94h350q-21 -120 -86 -200q-64 -78 -158 -117q-90 -37 -200 -37q-136 0 -240 55z" />
    <glyph glyph-name="ordfeminine" unicode="&#xaa;" horiz-adv-x="712" 
d="M588 1505l-2 -8q73 -64 73 -170v-4v-344h-249v74q-20 -39 -66 -64q-44 -24 -106 -24q-52 0 -101 24q-48 23 -76 68t-28 102q0 88 65 129q64 40 166 49l144 13v4v4q0 27 -13 43t-35 16q-20 0 -32 -12t-15 -35h-256q9 61 49 107q39 44 105 69q67 25 147 25q155 0 230 -66z
M383 1130l4 -2q16 29 19 74l-54 -4q-28 -3 -47 -16q-18 -12 -18 -33t12 -33t37 -12q33 0 47 26z" />
    <glyph glyph-name="guillemotleft" unicode="&#xab;" horiz-adv-x="1630" 
d="M352 1020h525l-293 -449l293 -471h-525l-282 471zM1038 1020h525l-293 -449l293 -471h-525l-282 471z" />
    <glyph glyph-name="logicalnot" unicode="&#xac;" horiz-adv-x="1208" 
d="M1098 195h-342v423h-693v330h1035v-753z" />
    <glyph glyph-name="uni00AD" unicode="&#xad;" horiz-adv-x="905" 
d="M809 410h-713v362h713v-362z" />
    <glyph glyph-name="registered" unicode="&#xae;" horiz-adv-x="1859" 
d="M1352 1505l-4 -8q193 -114 307 -307t114 -420q0 -230 -112 -420q-114 -193 -307 -307q-192 -113 -424 -113q-229 0 -424 115q-193 114 -307 307q-113 192 -113 422q0 227 115 422q114 193 307 307q195 115 424 115q232 0 424 -113zM1241 223l-4 -4q143 85 227 232t84 313
t-84 313t-227 232q-145 86 -315 86q-171 0 -316 -86q-144 -86 -227 -230q-84 -147 -84 -313t84 -313q83 -144 227 -230q145 -86 318 -86q172 0 317 86zM1300 754v-2q-41 -65 -116 -105l174 -334h-334l-131 283h-41v-283h-295v889h387q122 0 209 -37q88 -37 137 -104t49 -160
q0 -85 -39 -147zM1008 948q-27 17 -70 17h-86v-131h86q44 0 70 16q24 15 24 49t-24 49z" />
    <glyph glyph-name="macron" unicode="&#xaf;" horiz-adv-x="921" 
d="M893 1239h-862v299h862v-299z" />
    <glyph glyph-name="degree" unicode="&#xb0;" horiz-adv-x="911" 
d="M246 809v-2q-97 57 -152 151t-55 209t55 209q56 96 152 152q94 55 209 55t209 -55t151 -152q55 -94 55 -209t-55 -209q-54 -92 -151 -149q-94 -55 -209 -55t-209 55zM543 1077v-2q37 37 37 88q0 53 -37 90t-88 37t-88 -37t-37 -88t37 -88t88 -37t88 37z" />
    <glyph glyph-name="plusminus" unicode="&#xb1;" horiz-adv-x="1327" 
d="M836 1128v-202h393v-314h-393v-211h-342v211h-394v314h394v202h342zM1229 0h-1129v313h1129v-313z" />
    <glyph glyph-name="uni00B2" unicode="&#xb2;" horiz-adv-x="747" 
d="M338 1190h367v-203h-666v256l354 238q22 15 31 28q10 13 10 29q0 22 -16 35q-15 12 -43 12q-33 0 -51 -18q-19 -19 -19 -47h-262q0 78 45 135q45 56 121 92q70 33 164 33q93 0 172 -29q74 -27 114 -82q41 -56 41 -129q0 -69 -36 -117q-35 -47 -107 -94z" />
    <glyph glyph-name="uni00B3" unicode="&#xb3;" horiz-adv-x="737" 
d="M641 1329q61 -46 61 -129q0 -71 -40 -123q-41 -53 -117 -80q-74 -26 -180 -26q-161 0 -246 73t-94 199h262q0 -34 18 -55t60 -21q31 0 55 17q22 16 22 43q0 35 -34 47t-93 12h-63v197h63q58 0 84 16q25 16 25 37q0 20 -16 33q-15 12 -43 12q-30 0 -48 -18t-18 -45h-262
q6 77 49 135q45 61 117 90q76 31 159 31q91 0 168 -25q74 -24 115 -74t41 -112q0 -84 -51 -123q-53 -41 -148 -56q93 -9 154 -55z" />
    <glyph glyph-name="acute" unicode="&#xb4;" horiz-adv-x="872" 
d="M442 1223h-411l219 333h592z" />
    <glyph glyph-name="uni00B5" unicode="&#xb5;" horiz-adv-x="1492" 
d="M1438 317l-6 -319h-121q-139 0 -228 12q-91 12 -151 49q-63 38 -90 115q-8 17 -11 41q-73 -205 -276 -240v-381h-442v1530h442v-614v-4q0 -117 31 -174q30 -56 102 -56q75 0 105 58t30 178v614h443v-704v-4q0 -46 14 -66q16 -22 45 -28q35 -7 84 -7h29z" />
    <glyph glyph-name="paragraph" unicode="&#xb6;" horiz-adv-x="1660" 
d="M504 643v-2q-126 0 -230 61q-103 60 -165 166t-62 232q0 123 62 229t165 166q104 61 230 61h1007v-1746h-403v1413h-203v-1413h-401v833z" />
    <glyph glyph-name="periodcentered" unicode="&#xb7;" horiz-adv-x="548" 
d="M436 410h-342v389h342v-389z" />
    <glyph glyph-name="cedilla" unicode="&#xb8;" horiz-adv-x="473" 
d="M268 -59l-4 -4q77 -9 127 -56q49 -46 49 -121q0 -87 -63 -135q-64 -49 -166 -49h-180v172h88q55 0 55 37q0 21 -14 29q-17 10 -39 10h-53v176h200v-59z" />
    <glyph glyph-name="uni00B9" unicode="&#xb9;" horiz-adv-x="505" 
d="M233 1765l209 -2v-778h-256v459h-168v203h15q84 0 129 26q46 26 67 80z" />
    <glyph glyph-name="ordmasculine" unicode="&#xba;" horiz-adv-x="710" 
d="M182 1010v-2q-71 36 -112 104q-39 65 -39 154q0 88 39 153q42 71 112 109q71 39 174 39t174 -39q73 -40 113 -107q39 -65 39 -153q0 -89 -39 -154q-40 -67 -113 -104t-174 -37t-174 37zM408 1169h-5q15 30 15 97q0 68 -15 98q-15 31 -51 31q-37 0 -51 -33
q-14 -32 -14 -98q0 -63 16 -95q15 -30 53 -30q37 0 52 30z" />
    <glyph glyph-name="guillemotright" unicode="&#xbb;" horiz-adv-x="1630" 
d="M66 1020h524l282 -449l-282 -471h-524l292 471zM754 1020h524l281 -449l-281 -471h-524l290 471z" />
    <glyph glyph-name="onequarter" unicode="&#xbc;" horiz-adv-x="1746" 
d="M1595 369h101v-203h-101v-166h-256v166h-358v256l152 356h462v-409zM1339 686l-141 -317h141v317zM270 1556l209 -2v-778h-256v459h-168v203h15q84 0 129 26q46 26 67 80zM483 -2h-340l961 1556h340z" />
    <glyph glyph-name="onehalf" unicode="&#xbd;" horiz-adv-x="1748" 
d="M1321 203h367v-203h-666v256l354 238q22 15 31 28q10 13 10 29q0 22 -16 35q-15 12 -43 12q-33 0 -51 -18q-19 -19 -19 -48h-262q0 79 45 136q45 56 121 92q70 33 164 33q93 0 172 -29q74 -27 114 -82q41 -56 41 -129q0 -69 -36 -117q-35 -47 -107 -94zM266 1556l209 -2
v-778h-256v459h-168v203h15q84 0 129 26q46 26 67 80zM479 -2h-340l961 1556h340z" />
    <glyph glyph-name="threequarters" unicode="&#xbe;" horiz-adv-x="1892" 
d="M670 1120q61 -46 61 -129q0 -70 -41 -123t-117 -80q-74 -26 -180 -26q-160 0 -246 74q-85 73 -94 198h262q0 -33 19 -55q18 -21 59 -21q32 0 56 17q22 16 22 43q0 35 -35 47q-34 12 -92 12h-63v197h63q58 0 84 16q25 16 25 37q0 19 -17 33q-15 12 -43 12q-29 0 -47 -18
t-18 -45h-262q6 77 49 135q46 61 116 90q76 31 160 31q91 0 168 -25q74 -24 115 -74t41 -112q0 -84 -51 -123q-51 -40 -148 -55q92 -9 154 -56zM629 -2h-340l960 1556h340zM1741 367h100v-203h-100v-166h-256v166h-359v256l152 356h463v-409zM1485 684l-142 -317h142v317z
" />
    <glyph glyph-name="questiondown" unicode="&#xbf;" horiz-adv-x="1290" 
d="M893 737h-453v391h453v-391zM324 -379l-5 -6q-135 53 -202 143q-68 92 -68 211q0 95 41 160q40 65 117 135l127 115q61 55 84 96q24 43 24 105h449q0 -112 -33 -185q-35 -78 -104 -141l-127 -113q-47 -40 -68 -61q-23 -23 -39 -47q-12 -18 -12 -43q0 -42 35 -66t98 -24
q60 0 100 30q41 30 50 86h456q-9 -132 -86 -235q-75 -100 -209 -156q-131 -55 -307 -55q-190 0 -321 51z" />
    <glyph glyph-name="Agrave" unicode="&#xc0;" horiz-adv-x="1697" 
d="M1710 0h-477l-98 360h-572l-98 -360h-477l469 1556h786zM850 1409l-186 -680h370zM1102 1659h-436l-420 326h614z" />
    <glyph glyph-name="Aacute" unicode="&#xc1;" horiz-adv-x="1697" 
d="M1710 0h-477l-98 360h-572l-98 -360h-477l469 1556h786zM850 1409l-186 -680h370zM1065 1659h-434l239 326h617z" />
    <glyph glyph-name="Acircumflex" unicode="&#xc2;" horiz-adv-x="1697" 
d="M1710 0h-477l-98 360h-572l-98 -360h-477l469 1556h786zM850 1409l-186 -680h370zM1128 1985l271 -326h-402l-149 139l-152 -139h-399l268 326h563z" />
    <glyph glyph-name="Atilde" unicode="&#xc3;" horiz-adv-x="1697" 
d="M1710 0h-477l-98 360h-572l-98 -360h-477l469 1556h786zM850 1409l-186 -680h370zM442 1665l-4 -2q0 175 66 272q65 95 184 95q44 0 94 -15t84 -30q48 -18 72 -25q27 -8 61 -8q48 0 78 24q32 26 41 62h137q-3 -179 -67 -273t-180 -94q-77 0 -181 43q-49 20 -67 25
q-27 8 -64 8q-44 0 -75 -25q-32 -26 -43 -57h-136z" />
    <glyph glyph-name="Adieresis" unicode="&#xc4;" horiz-adv-x="1697" 
d="M1710 0h-477l-98 360h-572l-98 -360h-477l469 1556h786zM850 1409l-186 -680h370zM805 1659h-459v326h459v-326zM1354 1659h-459v326h459v-326z" />
    <glyph glyph-name="Aring" unicode="&#xc5;" horiz-adv-x="1697" 
d="M1710 0h-477l-98 360h-572l-98 -360h-477l469 1556h786zM850 1409l-186 -680h370zM686 1694q-74 44 -117 116q-43 73 -43 160t43 160q43 74 117 117q73 43 160 43t160 -43q72 -43 116 -117q43 -73 43 -160t-43 -160t-116 -116t-160 -43t-160 43zM905 1909q25 25 25 59
q0 35 -25 60q-24 24 -59 24q-36 0 -60 -24t-24 -60q0 -35 24 -59q25 -25 60 -25q34 0 59 25z" />
    <glyph glyph-name="AE" unicode="&#xc6;" horiz-adv-x="2226" 
d="M1528 608l71 -239h541v-369h-907l-98 360h-572l-98 -360h-477l469 1556h1665v-368h-768l63 -211h690v-369h-579zM850 1409l-186 -680h370z" />
    <glyph glyph-name="Ccedilla" unicode="&#xc7;" horiz-adv-x="1675" 
d="M1649 565l-9 -4q-65 -282 -247 -424q-187 -146 -451 -164v-32q77 -9 127 -56q49 -46 49 -123q0 -86 -63 -137t-168 -51h-191v180h90q24 0 35 8q13 10 13 25q0 17 -13 27q-11 8 -35 8h-53v158q-199 24 -352 126q-155 103 -240 275q-86 174 -86 399q0 248 105 430
q106 183 286 277q184 96 410 96q194 0 356 -67q165 -68 275 -199t151 -324h-475q-38 113 -110 176q-75 66 -199 66q-101 0 -174 -55q-76 -57 -115 -156q-41 -103 -41 -246q0 -145 43 -246q42 -99 119 -155q76 -55 178 -55q116 0 195 61q81 62 115 182h475z" />
    <glyph glyph-name="Egrave" unicode="&#xc8;" horiz-adv-x="1368" 
d="M580 608v-239h702v-369h-1159v1556h1141v-368h-684v-211h669v-369h-669zM948 1659h-436l-420 326h615z" />
    <glyph glyph-name="Eacute" unicode="&#xc9;" horiz-adv-x="1368" 
d="M580 608v-239h702v-369h-1159v1556h1141v-368h-684v-211h669v-369h-669zM872 1659h-434l240 326h616z" />
    <glyph glyph-name="Ecircumflex" unicode="&#xca;" horiz-adv-x="1368" 
d="M580 608v-239h702v-369h-1159v1556h1141v-368h-684v-211h669v-369h-669zM973 1985l270 -326h-401l-150 139l-151 -139h-400l269 326h563z" />
    <glyph glyph-name="Edieresis" unicode="&#xcb;" horiz-adv-x="1368" 
d="M580 608v-239h702v-369h-1159v1556h1141v-368h-684v-211h669v-369h-669zM647 1659h-459v326h459v-326zM1196 1659h-459v326h459v-326z" />
    <glyph glyph-name="Igrave" unicode="&#xcc;" horiz-adv-x="704" 
d="M580 0h-457v1556h457v-1556zM563 1659h-436l-420 326h615z" />
    <glyph glyph-name="Iacute" unicode="&#xcd;" horiz-adv-x="704" 
d="M580 0h-457v1556h457v-1556zM573 1659h-434l240 326h616z" />
    <glyph glyph-name="Icircumflex" unicode="&#xce;" horiz-adv-x="704" 
d="M580 0h-457v1556h457v-1556zM633 1985l270 -326h-401l-150 139l-151 -139h-400l269 326h563z" />
    <glyph glyph-name="Idieresis" unicode="&#xcf;" horiz-adv-x="704" 
d="M580 0h-457v1556h457v-1556zM307 1659h-459v326h459v-326zM856 1659h-459v326h459v-326z" />
    <glyph glyph-name="Eth" unicode="&#xd0;" horiz-adv-x="1673" 
d="M797 1556l-2 9q248 0 428 -82q179 -82 282 -258q103 -177 103 -443q0 -268 -101 -442q-103 -176 -282 -258q-180 -82 -428 -82h-625v643h-152v305h152v608h625zM803 377h-2q165 0 250 104q86 106 86 305q0 200 -86 306q-85 104 -248 104h-176v-240h301v-305h-301v-274
h176z" />
    <glyph glyph-name="Ntilde" unicode="&#xd1;" horiz-adv-x="1818" 
d="M1280 133v1423h414v-1556h-785l-370 1423v-1423h-416v1556h786zM537 1665l-5 -2q0 175 66 272q65 95 184 95q46 0 95 -15t84 -30q53 -19 71 -25q27 -8 62 -8q47 0 77 24q32 26 41 62h138q-3 -178 -68 -273q-64 -94 -180 -94q-76 0 -180 43q-46 18 -68 25q-27 8 -63 8
q-45 0 -76 -25q-32 -26 -43 -57h-135z" />
    <glyph glyph-name="Ograve" unicode="&#xd2;" horiz-adv-x="1759" 
d="M453 68v-5q-185 98 -291 281q-105 182 -105 430t105 430q106 183 291 281q186 98 426 98q244 0 430 -98q185 -98 290 -279q105 -182 105 -430t-105 -430q-104 -180 -290 -278q-187 -99 -430 -99q-239 0 -426 99zM1065 371v-4q80 56 123 157t43 246t-43 246
q-44 103 -123 158t-186 55t-187 -53t-123 -156q-43 -104 -43 -248t43 -248q42 -102 123 -155q82 -54 187 -54q106 0 186 56zM1135 1649h-437l-419 325h614z" />
    <glyph glyph-name="Oacute" unicode="&#xd3;" horiz-adv-x="1759" 
d="M453 68v-5q-185 98 -291 281q-105 182 -105 430t105 430q106 183 291 281q186 98 426 98q244 0 430 -98q185 -98 290 -279q105 -182 105 -430t-105 -430q-104 -180 -290 -278q-187 -99 -430 -99q-239 0 -426 99zM1065 371v-4q80 56 123 157t43 246t-43 246
q-44 103 -123 158t-186 55t-187 -53t-123 -156q-43 -104 -43 -248t43 -248q42 -102 123 -155q82 -54 187 -54q106 0 186 56zM1059 1649h-434l239 325h617z" />
    <glyph glyph-name="Ocircumflex" unicode="&#xd4;" horiz-adv-x="1759" 
d="M453 68v-5q-185 98 -291 281q-105 182 -105 430t105 430q106 183 291 281q186 98 426 98q244 0 430 -98q185 -98 290 -279q105 -182 105 -430t-105 -430q-104 -180 -290 -278q-187 -99 -430 -99q-239 0 -426 99zM1065 371v-4q80 56 123 157t43 246t-43 246
q-44 103 -123 158t-186 55t-187 -53t-123 -156q-43 -104 -43 -248t43 -248q42 -102 123 -155q82 -54 187 -54q106 0 186 56zM1159 1974l271 -325h-402l-149 139l-152 -139h-399l268 325h563z" />
    <glyph glyph-name="Otilde" unicode="&#xd5;" horiz-adv-x="1759" 
d="M453 68v-5q-185 98 -291 281q-105 182 -105 430t105 430q106 183 291 281q186 98 426 98q244 0 430 -98q185 -98 290 -279q105 -182 105 -430t-105 -430q-104 -180 -290 -278q-187 -99 -430 -99q-239 0 -426 99zM1065 371v-4q80 56 123 157t43 246t-43 246
q-44 103 -123 158t-186 55t-187 -53t-123 -156q-43 -104 -43 -248t43 -248q42 -102 123 -155q82 -54 187 -54q106 0 186 56zM473 1655l-4 -2q0 175 66 272q64 94 184 94q48 0 94 -14q42 -13 84 -31q34 -13 72 -24q27 -8 61 -8q48 0 78 24q32 26 41 62h137q-3 -179 -67 -273
t-181 -94q-76 0 -180 43q-49 20 -67 25q-27 8 -64 8q-45 0 -76 -25q-32 -26 -43 -57h-135z" />
    <glyph glyph-name="Odieresis" unicode="&#xd6;" horiz-adv-x="1759" 
d="M453 68v-5q-185 98 -291 281q-105 182 -105 430t105 430q106 183 291 281q186 98 426 98q244 0 430 -98q185 -98 290 -279q105 -182 105 -430t-105 -430q-104 -180 -290 -278q-187 -99 -430 -99q-239 0 -426 99zM1065 371v-4q80 56 123 157t43 246t-43 246
q-44 103 -123 158t-186 55t-187 -53t-123 -156q-43 -104 -43 -248t43 -248q42 -102 123 -155q82 -54 187 -54q106 0 186 56zM834 1649h-459v325h459v-325zM1382 1649h-458v325h458v-325z" />
    <glyph glyph-name="multiply" unicode="&#xd7;" horiz-adv-x="1228" 
d="M944 1120l225 -225l-327 -328l327 -327l-225 -228l-328 328l-327 -328l-230 228l330 327l-330 328l230 225l327 -327z" />
    <glyph glyph-name="Oslash" unicode="&#xd8;" horiz-adv-x="1759" 
d="M1815 1556l-261 -284q73 -103 109 -223q37 -124 37 -273q0 -248 -105 -430q-104 -180 -290 -278q-187 -99 -431 -99q-255 0 -444 107l-74 -78h-417l262 281q-69 100 -107 227q-37 124 -37 270q0 248 105 430q106 183 291 281q186 98 426 98q257 0 444 -106l74 77h418z
M543 635l512 551q-74 45 -172 45q-107 0 -187 -53t-123 -156q-43 -104 -43 -248q0 -69 13 -139zM1221 915l-514 -553q77 -47 174 -47q106 0 186 56t123 157t43 246q0 76 -12 141z" />
    <glyph glyph-name="Ugrave" unicode="&#xd9;" horiz-adv-x="1597" 
d="M276 139l-4 -4q-168 168 -168 486v4v929h457v-981v-4q0 -119 62 -184q60 -63 174 -63q112 0 174 65q61 64 61 188v981h455v-929q0 -656 -688 -656q-355 0 -523 168zM1047 1655h-437l-420 325h615z" />
    <glyph glyph-name="Uacute" unicode="&#xda;" horiz-adv-x="1597" 
d="M276 139l-4 -4q-168 168 -168 486v4v929h457v-981v-4q0 -119 62 -184q60 -63 174 -63q112 0 174 65q61 64 61 188v981h455v-929q0 -656 -688 -656q-355 0 -523 168zM973 1655h-434l239 325h617z" />
    <glyph glyph-name="Ucircumflex" unicode="&#xdb;" horiz-adv-x="1597" 
d="M276 139l-4 -4q-168 168 -168 486v4v929h457v-981v-4q0 -119 62 -184q60 -63 174 -63q112 0 174 65q61 64 61 188v981h455v-929q0 -656 -688 -656q-355 0 -523 168zM1073 1980l270 -325h-401l-149 139l-152 -139h-399l268 325h563z" />
    <glyph glyph-name="Udieresis" unicode="&#xdc;" horiz-adv-x="1597" 
d="M276 139l-4 -4q-168 168 -168 486v4v929h457v-981v-4q0 -119 62 -184q60 -63 174 -63q112 0 174 65q61 64 61 188v981h455v-929q0 -656 -688 -656q-355 0 -523 168zM748 1655h-459v325h459v-325zM1296 1655h-458v325h458v-325z" />
    <glyph glyph-name="Yacute" unicode="&#xdd;" horiz-adv-x="1515" 
d="M1040 1556h516l-569 -966v-590h-457v586l-569 970h514l283 -538zM938 1659h-434l239 326h617z" />
    <glyph glyph-name="Thorn" unicode="&#xde;" horiz-adv-x="1511" 
d="M786 1333q222 0 369 -63q150 -65 227 -185q78 -122 78 -282q0 -161 -78 -283q-76 -119 -227 -184q-149 -64 -369 -64h-206v-272h-457v1556h457v-223h206zM786 633q101 0 154 47t53 123t-53 123t-154 47h-206v-340h206z" />
    <glyph glyph-name="germandbls" unicode="&#xdf;" horiz-adv-x="1396" 
d="M1141 743l-6 2q93 -46 149 -129q55 -82 55 -196q0 -226 -122 -336q-123 -111 -334 -111q-55 0 -138 11q-65 9 -118 30v277q56 -29 102 -29q74 0 117 55t43 144q0 94 -51 145q-53 53 -154 53h-35v291h23q77 0 116 51q41 53 41 138q0 71 -36 116q-39 48 -99 48
q-84 0 -121 -58q-36 -56 -36 -153v-1088h-443v1030q0 179 72 305q70 123 207 185q134 61 323 61q181 0 312 -55q132 -55 202 -154q72 -101 72 -229q0 -143 -92 -229q-90 -84 -258 -119q113 -9 209 -56z" />
    <glyph glyph-name="agrave" unicode="&#xe0;" horiz-adv-x="1339" 
d="M1006 1096l4 8q130 -62 188 -166q59 -106 59 -236v-4v-692h-434v189q-47 -95 -135 -156q-89 -62 -227 -62q-113 0 -207 48q-92 47 -148 133q-55 85 -55 198q0 176 129 252q132 78 342 99l291 28v8v5q0 66 -33 108q-34 43 -100 43q-64 0 -98 -37q-35 -38 -41 -86h-443
q15 123 92 209q76 85 203 129q125 43 283 43q202 0 330 -61zM768 303l-2 -2q47 71 47 184v2l-133 -12q-80 -9 -129 -37q-45 -26 -45 -86q0 -54 37 -88q36 -33 96 -33q82 0 129 72zM903 1227h-411l-400 334h592z" />
    <glyph glyph-name="aacute" unicode="&#xe1;" horiz-adv-x="1339" 
d="M1006 1096l4 8q130 -62 188 -166q59 -106 59 -236v-4v-692h-434v189q-47 -95 -135 -156q-89 -62 -227 -62q-113 0 -207 48q-92 47 -148 133q-55 85 -55 198q0 176 129 252q132 78 342 99l291 28v8v5q0 66 -33 108q-34 43 -100 43q-64 0 -98 -37q-35 -38 -41 -86h-443
q15 123 92 209q76 85 203 129q125 43 283 43q202 0 330 -61zM768 303l-2 -2q47 71 47 184v2l-133 -12q-80 -9 -129 -37q-45 -26 -45 -86q0 -54 37 -88q36 -33 96 -33q82 0 129 72zM856 1227h-412l220 334h591z" />
    <glyph glyph-name="acircumflex" unicode="&#xe2;" horiz-adv-x="1339" 
d="M1006 1096l4 8q130 -62 188 -166q59 -106 59 -236v-4v-692h-434v189q-47 -95 -135 -156q-89 -62 -227 -62q-113 0 -207 48q-92 47 -148 133q-55 85 -55 198q0 176 129 252q132 78 342 99l291 28v8v5q0 66 -33 108q-34 43 -100 43q-64 0 -98 -37q-35 -38 -41 -86h-443
q15 123 92 209q76 85 203 129q125 43 283 43q202 0 330 -61zM768 303l-2 -2q47 71 47 184v2l-133 -12q-80 -9 -129 -37q-45 -26 -45 -86q0 -54 37 -88q36 -33 96 -33q82 0 129 72zM946 1561l260 -334h-385l-147 151l-148 -151h-383l260 334h543z" />
    <glyph glyph-name="atilde" unicode="&#xe3;" horiz-adv-x="1339" 
d="M1006 1096l4 8q130 -62 188 -166q59 -106 59 -236v-4v-692h-434v189q-47 -95 -135 -156q-89 -62 -227 -62q-113 0 -207 48q-92 47 -148 133q-55 85 -55 198q0 176 129 252q132 78 342 99l291 28v8v5q0 66 -33 108q-34 43 -100 43q-64 0 -98 -37q-35 -38 -41 -86h-443
q15 123 92 209q76 85 203 129q125 43 283 43q202 0 330 -61zM768 303l-2 -2q47 71 47 184v2l-133 -12q-80 -9 -129 -37q-45 -26 -45 -86q0 -54 37 -88q36 -33 96 -33q82 0 129 72zM291 1237h2q0 177 61 268q62 92 174 92q75 0 166 -45q68 -32 123 -32q46 0 76 24t39 62h131
q-3 -178 -64 -269q-62 -92 -172 -92q-43 0 -90 15q-51 16 -78 30q-70 33 -122 33q-45 0 -76 -25q-30 -24 -39 -61h-131z" />
    <glyph glyph-name="adieresis" unicode="&#xe4;" horiz-adv-x="1339" 
d="M1006 1096l4 8q130 -62 188 -166q59 -106 59 -236v-4v-692h-434v189q-47 -95 -135 -156q-89 -62 -227 -62q-113 0 -207 48q-92 47 -148 133q-55 85 -55 198q0 176 129 252q132 78 342 99l291 28v8v5q0 66 -33 108q-34 43 -100 43q-64 0 -98 -37q-35 -38 -41 -86h-443
q15 123 92 209q76 85 203 129q125 43 283 43q202 0 330 -61zM768 303l-2 -2q47 71 47 184v2l-133 -12q-80 -9 -129 -37q-45 -26 -45 -86q0 -54 37 -88q36 -33 96 -33q82 0 129 72zM625 1235h-445v326h445v-326zM1165 1235h-444v326h444v-326z" />
    <glyph glyph-name="aring" unicode="&#xe5;" horiz-adv-x="1339" 
d="M1006 1096l4 8q130 -62 188 -166q59 -106 59 -236v-4v-692h-434v189q-47 -95 -135 -156q-89 -62 -227 -62q-113 0 -207 48q-92 47 -148 133q-55 85 -55 198q0 176 129 252q132 78 342 99l291 28v8v5q0 66 -33 108q-34 43 -100 43q-64 0 -98 -37q-35 -38 -41 -86h-443
q15 123 92 209q76 85 203 129q125 43 283 43q202 0 330 -61zM768 303l-2 -2q47 71 47 184v2l-133 -12q-80 -9 -129 -37q-45 -26 -45 -86q0 -54 37 -88q36 -33 96 -33q82 0 129 72zM537 1255q-64 37 -101 101t-37 141q0 73 37 137t101 101t141 37q73 0 137 -37
q62 -36 100 -101q37 -64 37 -137q0 -77 -37 -141q-38 -65 -100 -101t-137 -36q-79 0 -141 36zM723 1446q18 21 18 49q0 29 -18 47q-19 19 -47 19q-30 0 -49 -19t-19 -47q0 -27 19 -49q18 -21 49 -21q29 0 47 21z" />
    <glyph glyph-name="ae" unicode="&#xe6;" horiz-adv-x="2084" 
d="M2028 446l-773 -6q15 -105 56 -159q40 -52 108 -52q53 0 90 29q36 28 60 78h442q-62 -179 -217 -273t-375 -94q-148 0 -260 62q-110 61 -174 162q-63 -100 -178 -162t-283 -62q-128 0 -233 45q-108 47 -172 131q-64 85 -64 197q0 199 142 276q144 78 391 78h227v39v6
q0 75 -37 115q-38 41 -102 41q-56 0 -94 -35t-41 -86h-443q15 123 92 209q76 85 195 129q116 43 250 43q148 0 244 -45q99 -47 157 -119q66 78 164 121t227 43q171 0 308 -70q141 -72 219 -210q80 -142 80 -345q0 -40 -6 -86zM1257 688h328q-9 98 -51 148q-42 51 -111 51
q-139 0 -166 -199zM760 285q45 54 51 153h-135q-78 0 -125 -24q-45 -23 -45 -78q0 -53 35 -80t90 -27q82 0 129 56z" />
    <glyph glyph-name="ccedilla" unicode="&#xe7;" horiz-adv-x="1308" 
d="M1276 430l4 -14q-21 -136 -94 -234q-71 -96 -189 -153t-258 -66v-33q78 -9 127 -55t49 -121q0 -87 -63 -135q-64 -49 -166 -49h-180v172h88q55 0 55 37q0 20 -14 28q-18 11 -39 11h-53v159q-140 26 -254 105q-109 75 -172 201q-62 124 -62 276q0 175 80 311
q80 135 221 209q142 74 320 74q164 0 289 -55q129 -57 206 -156q80 -103 101 -246h-441q-15 77 -55 123q-41 47 -100 47q-83 0 -127 -80q-43 -79 -43 -223q0 -151 43 -227t127 -76q65 0 102 43q38 44 56 127h442z" />
    <glyph glyph-name="egrave" unicode="&#xe8;" horiz-adv-x="1327" 
d="M1272 446l-778 -4q15 -107 55 -159t108 -52q54 0 91 29q34 27 59 78h440q-61 -178 -217 -272q-157 -95 -371 -95q-180 0 -319 74q-138 74 -215 209q-76 134 -76 311q0 173 80 309q80 135 221 209q142 74 316 74t311 -70q141 -72 219 -210q80 -142 80 -345q0 -4 -4 -86z
M551 842h4q-42 -45 -57 -152h325q-9 98 -51 148q-42 51 -110 51q-67 0 -111 -47zM889 1219h-412l-399 333h592z" />
    <glyph glyph-name="eacute" unicode="&#xe9;" horiz-adv-x="1327" 
d="M1272 446l-778 -4q15 -107 55 -159t108 -52q54 0 91 29q34 27 59 78h440q-61 -178 -217 -272q-157 -95 -371 -95q-180 0 -319 74q-138 74 -215 209q-76 134 -76 311q0 173 80 309q80 135 221 209q142 74 316 74t311 -70q141 -72 219 -210q80 -142 80 -345q0 -4 -4 -86z
M551 842h4q-42 -45 -57 -152h325q-9 98 -51 148q-42 51 -110 51q-67 0 -111 -47zM842 1219h-412l219 333h592z" />
    <glyph glyph-name="ecircumflex" unicode="&#xea;" horiz-adv-x="1327" 
d="M1272 446l-778 -4q15 -107 55 -159t108 -52q54 0 91 29q34 27 59 78h440q-61 -178 -217 -272q-157 -95 -371 -95q-180 0 -319 74q-138 74 -215 209q-76 134 -76 311q0 173 80 309q80 135 221 209q142 74 316 74t311 -70q141 -72 219 -210q80 -142 80 -345q0 -4 -4 -86z
M551 842h4q-42 -45 -57 -152h325q-9 98 -51 148q-42 51 -110 51q-67 0 -111 -47zM932 1552l260 -333h-385l-148 151l-147 -151h-383l260 333h543z" />
    <glyph glyph-name="edieresis" unicode="&#xeb;" horiz-adv-x="1327" 
d="M1272 446l-778 -4q15 -107 55 -159t108 -52q54 0 91 29q34 27 59 78h440q-61 -178 -217 -272q-157 -95 -371 -95q-180 0 -319 74q-138 74 -215 209q-76 134 -76 311q0 173 80 309q80 135 221 209q142 74 316 74t311 -70q141 -72 219 -210q80 -142 80 -345q0 -4 -4 -86z
M551 842h4q-42 -45 -57 -152h325q-9 98 -51 148q-42 51 -110 51q-67 0 -111 -47zM610 1227h-444v325h444v-325zM1151 1227h-444v325h444v-325z" />
    <glyph glyph-name="igrave" unicode="&#xec;" horiz-adv-x="643" 
d="M543 0h-443v1128h443v-1128zM522 1223h-411l-400 333h592z" />
    <glyph glyph-name="iacute" unicode="&#xed;" horiz-adv-x="643" 
d="M543 0h-443v1128h443v-1128zM532 1223h-411l219 333h592z" />
    <glyph glyph-name="icircumflex" unicode="&#xee;" horiz-adv-x="643" 
d="M543 0h-443v1128h443v-1128zM592 1556l260 -333h-385l-148 151l-147 -151h-383l260 333h543z" />
    <glyph glyph-name="idieresis" unicode="&#xef;" horiz-adv-x="643" 
d="M543 0h-443v1128h443v-1128zM272 1231h-444v325h444v-325zM813 1231h-444v325h444v-325z" />
    <glyph glyph-name="eth" unicode="&#xf0;" horiz-adv-x="1380" 
d="M1059 1331l-8 -6q132 -144 196 -309q66 -170 66 -393q0 -211 -76 -357q-76 -147 -217 -223q-140 -76 -338 -76q-195 0 -338 76q-145 77 -221 211t-76 305q0 166 64 291q64 124 172 192q109 68 233 68q121 0 201 -68q81 -69 121 -170q-15 83 -62 172q-50 96 -123 177
l-260 -72l-51 186l147 41q-126 98 -288 180h606l86 -69l235 63l54 -186zM813 326h-2q45 71 45 209q0 139 -45 210q-47 74 -135 74t-135 -74q-45 -71 -45 -210q0 -135 47 -209t135 -74t135 74z" />
    <glyph glyph-name="ntilde" unicode="&#xf1;" horiz-adv-x="1349" 
d="M1178 1042l-2 -6q81 -112 81 -313v-4v-723h-442v614v4q0 123 -33 179q-34 57 -104 57q-71 0 -105 -55q-32 -51 -32 -181v-614h-443v1128h434v-235q102 264 369 264q194 0 277 -115zM322 1227h2q0 177 61 268q62 92 174 92q75 0 166 -45q70 -33 123 -33q45 0 76 25
q30 24 39 61h131q-3 -177 -64 -268q-62 -92 -172 -92q-47 0 -90 14q-45 15 -78 31q-70 33 -123 33q-44 0 -75 -25q-30 -24 -39 -61h-131z" />
    <glyph glyph-name="ograve" unicode="&#xf2;" horiz-adv-x="1363" 
d="M346 47l-4 2q-145 77 -221 211t-76 305q0 169 78 307q76 134 221 211q143 76 338 76t338 -76q145 -77 221 -211q78 -138 78 -307q0 -173 -76 -307t-221 -211q-143 -76 -338 -76t-338 76zM815 340v-2q45 77 45 225t-45 225q-47 80 -137 80q-91 0 -135 -80
q-43 -79 -43 -225q0 -144 43 -223q44 -80 135 -80q90 0 137 80zM907 1221h-411l-400 333h592z" />
    <glyph glyph-name="oacute" unicode="&#xf3;" horiz-adv-x="1363" 
d="M346 47l-4 2q-145 77 -221 211t-76 305q0 169 78 307q76 134 221 211q143 76 338 76t338 -76q145 -77 221 -211q78 -138 78 -307q0 -173 -76 -307t-221 -211q-143 -76 -338 -76t-338 76zM815 340v-2q45 77 45 225t-45 225q-47 80 -137 80q-91 0 -135 -80
q-43 -79 -43 -225q0 -144 43 -223q44 -80 135 -80q90 0 137 80zM860 1221h-411l219 333h592z" />
    <glyph glyph-name="ocircumflex" unicode="&#xf4;" horiz-adv-x="1363" 
d="M346 47l-4 2q-145 77 -221 211t-76 305q0 169 78 307q76 134 221 211q143 76 338 76t338 -76q145 -77 221 -211q78 -138 78 -307q0 -173 -76 -307t-221 -211q-143 -76 -338 -76t-338 76zM815 340v-2q45 77 45 225t-45 225q-47 80 -137 80q-91 0 -135 -80
q-43 -79 -43 -225q0 -144 43 -223q44 -80 135 -80q90 0 137 80zM950 1554l260 -333h-385l-147 151l-148 -151h-383l261 333h542z" />
    <glyph glyph-name="otilde" unicode="&#xf5;" horiz-adv-x="1363" 
d="M346 47l-4 2q-145 77 -221 211t-76 305q0 169 78 307q76 134 221 211q143 76 338 76t338 -76q145 -77 221 -211q78 -138 78 -307q0 -173 -76 -307t-221 -211q-143 -76 -338 -76t-338 76zM815 340v-2q45 77 45 225t-45 225q-47 80 -137 80q-91 0 -135 -80
q-43 -79 -43 -225q0 -144 43 -223q44 -80 135 -80q90 0 137 80zM295 1231h2q0 177 61 268q62 92 174 92q75 0 166 -45q70 -33 123 -33q45 0 76 25q30 24 39 61h131q-3 -179 -63 -268q-62 -92 -173 -92q-47 0 -90 14q-42 14 -77 31q-70 33 -123 33q-45 0 -76 -25
q-30 -24 -39 -61h-131z" />
    <glyph glyph-name="odieresis" unicode="&#xf6;" horiz-adv-x="1363" 
d="M346 47l-4 2q-145 77 -221 211t-76 305q0 169 78 307q76 134 221 211q143 76 338 76t338 -76q145 -77 221 -211q78 -138 78 -307q0 -173 -76 -307t-221 -211q-143 -76 -338 -76t-338 76zM815 340v-2q45 77 45 225t-45 225q-47 80 -137 80q-91 0 -135 -80
q-43 -79 -43 -225q0 -144 43 -223q44 -80 135 -80q90 0 137 80zM629 1229h-445v325h445v-325zM1169 1229h-444v325h444v-325z" />
    <glyph glyph-name="divide" unicode="&#xf7;" horiz-adv-x="1298" 
d="M836 825h-373v303h373v-303zM1214 403h-1128v330h1128v-330zM836 0h-373v305h373v-305z" />
    <glyph glyph-name="oslash" unicode="&#xf8;" horiz-adv-x="1363" 
d="M1380 1128l-190 -190q61 -79 90 -172q31 -98 31 -203q0 -173 -76 -307t-221 -211q-143 -76 -338 -76q-200 0 -346 82l-51 -53h-297l184 190q-61 79 -90 172q-31 98 -31 203q0 169 78 307q76 134 221 211q143 76 338 76q202 0 348 -82l51 53h299zM498 532l282 297
q-41 41 -104 41q-92 0 -135 -79t-43 -226v-33zM856 598l-289 -297q47 -41 107 -41q90 0 137 80q45 77 45 225v33z" />
    <glyph glyph-name="ugrave" unicode="&#xf9;" horiz-adv-x="1343" 
d="M801 1128l440 2v-1128h-434v215q-43 -113 -129 -178q-87 -66 -234 -66q-356 0 -356 430v5v722h442v-614v-4q0 -122 33 -178q34 -58 105 -58t102 60t31 178v614zM895 1225h-412l-399 334h592z" />
    <glyph glyph-name="uacute" unicode="&#xfa;" horiz-adv-x="1343" 
d="M801 1128l440 2v-1128h-434v215q-43 -113 -129 -178q-87 -66 -234 -66q-356 0 -356 430v5v722h442v-614v-4q0 -122 33 -178q34 -58 105 -58t102 60t31 178v614zM846 1225h-412l219 334h592z" />
    <glyph glyph-name="ucircumflex" unicode="&#xfb;" horiz-adv-x="1343" 
d="M801 1128l440 2v-1128h-434v215q-43 -113 -129 -178q-87 -66 -234 -66q-356 0 -356 430v5v722h442v-614v-4q0 -122 33 -178q34 -58 105 -58t102 60t31 178v614zM936 1559l260 -334h-385l-147 151l-148 -151h-383l260 334h543z" />
    <glyph glyph-name="udieresis" unicode="&#xfc;" horiz-adv-x="1343" 
d="M801 1128l440 2v-1128h-434v215q-43 -113 -129 -178q-87 -66 -234 -66q-356 0 -356 430v5v722h442v-614v-4q0 -122 33 -178q34 -58 105 -58t102 60t31 178v614zM616 1233h-444v326h444v-326zM1157 1233h-444v326h444v-326z" />
    <glyph glyph-name="yacute" unicode="&#xfd;" horiz-adv-x="1327" 
d="M647 244l201 884h467l-365 -1529h-450l116 510h-346l-266 1019h438zM825 1223h-411l219 333h592z" />
    <glyph glyph-name="thorn" unicode="&#xfe;" horiz-adv-x="1388" 
d="M1122 1077h-8q99 -78 156 -215q55 -134 55 -301q0 -165 -53 -301q-54 -138 -154 -213q-104 -78 -239 -78q-124 0 -215 66q-89 65 -129 166v-602h-435v1957h435v-661q37 114 127 188q89 74 221 74q136 0 239 -80zM827 338v-2q45 77 45 225t-45 225q-47 80 -137 80
q-91 0 -135 -80q-43 -79 -43 -225q0 -144 43 -223q44 -80 135 -80q90 0 137 80z" />
    <glyph glyph-name="ydieresis" unicode="&#xff;" horiz-adv-x="1327" 
d="M647 244l201 884h467l-365 -1529h-450l116 510h-346l-266 1019h438zM594 1231h-444v325h444v-325zM1135 1231h-445v325h445v-325z" />
    <glyph glyph-name="Amacron" unicode="&#x100;" horiz-adv-x="1697" 
d="M1710 0h-477l-98 360h-572l-98 -360h-477l469 1556h786zM850 1409l-186 -680h370zM1317 1671h-938v303h938v-303z" />
    <glyph glyph-name="amacron" unicode="&#x101;" horiz-adv-x="1339" 
d="M1006 1096l4 8q130 -62 188 -166q59 -106 59 -236v-4v-692h-434v189q-47 -95 -135 -156q-89 -62 -227 -62q-113 0 -207 48q-92 47 -148 133q-55 85 -55 198q0 176 129 252q132 78 342 99l291 28v8v5q0 66 -33 108q-34 43 -100 43q-64 0 -98 -37q-35 -38 -41 -86h-443
q15 123 92 209q76 85 203 129q125 43 283 43q202 0 330 -61zM768 303l-2 -2q47 71 47 184v2l-133 -12q-80 -9 -129 -37q-45 -26 -45 -86q0 -54 37 -88q36 -33 96 -33q82 0 129 72zM1106 1243h-862v299h862v-299z" />
    <glyph glyph-name="Abreve" unicode="&#x102;" horiz-adv-x="1697" 
d="M1710 0h-477l-98 360h-572l-98 -360h-477l469 1556h786zM850 1409l-186 -680h370zM614 1700h-4q-98 42 -155 117q-56 74 -56 168h295q6 -38 47 -62q42 -25 105 -25q62 0 104 25q41 24 47 62h295q0 -95 -55 -168q-56 -74 -156 -117q-101 -43 -233 -43q-133 0 -234 43z" />
    <glyph glyph-name="abreve" unicode="&#x103;" horiz-adv-x="1339" 
d="M1006 1096l4 8q130 -62 188 -166q59 -106 59 -236v-4v-692h-434v189q-47 -95 -135 -156q-89 -62 -227 -62q-113 0 -207 48q-92 47 -148 133q-55 85 -55 198q0 176 129 252q132 78 342 99l291 28v8v5q0 66 -33 108q-34 43 -100 43q-64 0 -98 -37q-35 -38 -41 -86h-443
q15 123 92 209q76 85 203 129q125 43 283 43q202 0 330 -61zM768 303l-2 -2q47 71 47 184v2l-133 -12q-80 -9 -129 -37q-45 -26 -45 -86q0 -54 37 -88q36 -33 96 -33q82 0 129 72zM449 1264v-4q-99 47 -154 122q-55 76 -55 172h299q0 -49 36 -75q37 -27 99 -27q58 0 98 29
q37 27 37 78h299q0 -97 -55 -173q-55 -75 -154 -122q-96 -45 -225 -45t-225 45z" />
    <glyph glyph-name="Aogonek" unicode="&#x104;" horiz-adv-x="1697" 
d="M1628 -143l82 -4v-281h-147q-206 0 -310 55t-104 174q0 52 22 101q19 43 62 98l-98 360h-572l-98 -360h-477l469 1556h786l467 -1556q-89 -20 -135 -47q-39 -23 -39 -53q0 -43 92 -43zM850 1405l-186 -680h370z" />
    <glyph glyph-name="aogonek" unicode="&#x105;" horiz-adv-x="1339" 
d="M1006 1096l4 8q130 -62 188 -166q59 -106 59 -236v-4v-692q-182 -44 -182 -106q0 -26 25 -35q27 -10 78 -10h82v-273h-148q-201 0 -307 53q-105 53 -105 166q0 58 31 109q30 49 92 96v189q-47 -95 -135 -156q-89 -62 -227 -62q-113 0 -207 48q-92 47 -148 133
q-55 85 -55 198q0 176 129 252q132 78 342 99l291 28v8v5q0 66 -33 108q-34 43 -100 43q-64 0 -98 -37q-35 -38 -41 -86h-443q15 123 92 209q76 85 203 129q125 43 283 43q202 0 330 -61zM768 303l-2 -2q47 71 47 184v2l-133 -12q-80 -9 -129 -37q-45 -26 -45 -86
q0 -54 37 -88q36 -33 96 -33q82 0 129 72z" />
    <glyph glyph-name="Cacute" unicode="&#x106;" horiz-adv-x="1675" 
d="M451 68l-2 6q-184 94 -289 276t-105 430t105 430q106 183 286 277q184 96 410 96q194 0 356 -67q165 -68 275 -199t151 -324h-475q-38 113 -110 176q-75 66 -199 66q-101 0 -174 -55q-76 -57 -115 -156q-41 -103 -41 -246q0 -145 43 -246q42 -99 119 -155q76 -55 178 -55
q116 0 195 61q81 62 115 182h475q-47 -207 -160 -338q-115 -133 -272 -194q-160 -62 -353 -62q-224 0 -413 97zM1034 1665h-434l240 326h616z" />
    <glyph glyph-name="cacute" unicode="&#x107;" horiz-adv-x="1308" 
d="M350 45l4 -10q-141 74 -221 209q-80 136 -80 313q0 175 80 311q80 135 221 209q142 74 320 74q164 0 289 -55q129 -57 206 -156q80 -103 101 -246h-441q-15 77 -55 123q-41 47 -100 47q-83 0 -127 -80q-43 -79 -43 -223q0 -151 43 -227t127 -76q65 0 102 43q37 42 55 127
h443q-20 -140 -105 -248q-80 -102 -211 -155q-133 -54 -284 -54q-182 0 -324 74zM858 1212h-412l220 334h591z" />
    <glyph glyph-name="Ccircumflex" unicode="&#x108;" horiz-adv-x="1675" 
d="M451 68l-2 6q-184 94 -289 276t-105 430t105 430q106 183 286 277q184 96 410 96q194 0 356 -67q165 -68 275 -199t151 -324h-475q-38 113 -110 176q-75 66 -199 66q-101 0 -174 -55q-76 -57 -115 -156q-41 -103 -41 -246q0 -145 43 -246q42 -99 119 -155q76 -55 178 -55
q116 0 195 61q81 62 115 182h475q-47 -207 -160 -338q-115 -133 -272 -194q-160 -62 -353 -62q-224 0 -413 97zM1135 1991l270 -326h-401l-150 139l-152 -139h-399l268 326h564z" />
    <glyph glyph-name="ccircumflex" unicode="&#x109;" horiz-adv-x="1308" 
d="M350 45l4 -10q-141 74 -221 209q-80 136 -80 313q0 175 80 311q80 135 221 209q142 74 320 74q164 0 289 -55q129 -57 206 -156q80 -103 101 -246h-441q-15 77 -55 123q-41 47 -100 47q-83 0 -127 -80q-43 -79 -43 -223q0 -151 43 -227t127 -76q65 0 102 43q37 42 55 127
h443q-20 -140 -105 -248q-80 -102 -211 -155q-133 -54 -284 -54q-182 0 -324 74zM946 1546l260 -334h-385l-147 152l-148 -152h-383l260 334h543z" />
    <glyph glyph-name="Cdotaccent" unicode="&#x10a;" horiz-adv-x="1675" 
d="M451 68l-2 6q-184 94 -289 276t-105 430t105 430q106 183 286 277q184 96 410 96q194 0 356 -67q165 -68 275 -199t151 -324h-475q-38 113 -110 176q-75 66 -199 66q-101 0 -174 -55q-76 -57 -115 -156q-41 -103 -41 -246q0 -145 43 -246q42 -99 119 -155q76 -55 178 -55
q116 0 195 61q81 62 115 182h475q-47 -207 -160 -338q-115 -133 -272 -194q-160 -62 -353 -62q-224 0 -413 97zM1083 1665h-458v326h458v-326z" />
    <glyph glyph-name="cdotaccent" unicode="&#x10b;" horiz-adv-x="1308" 
d="M350 45l4 -10q-141 74 -221 209q-80 136 -80 313q0 175 80 311q80 135 221 209q142 74 320 74q164 0 289 -55q129 -57 206 -156q80 -103 101 -246h-441q-15 77 -55 123q-41 47 -100 47q-83 0 -127 -80q-43 -79 -43 -223q0 -151 43 -227t127 -76q65 0 102 43q37 42 55 127
h443q-20 -140 -105 -248q-80 -102 -211 -155q-133 -54 -284 -54q-182 0 -324 74zM897 1221h-444v325h444v-325z" />
    <glyph glyph-name="Ccaron" unicode="&#x10c;" horiz-adv-x="1675" 
d="M451 68l-2 6q-184 94 -289 276t-105 430t105 430q106 183 286 277q184 96 410 96q194 0 356 -67q165 -68 275 -199t151 -324h-475q-38 113 -110 176q-75 66 -199 66q-101 0 -174 -55q-76 -57 -115 -156q-41 -103 -41 -246q0 -145 43 -246q42 -99 119 -155q76 -55 178 -55
q116 0 195 61q81 62 115 182h475q-47 -207 -160 -338q-115 -133 -272 -194q-160 -62 -353 -62q-224 0 -413 97zM854 1853l150 138h401l-270 -326h-564l-268 326h399z" />
    <glyph glyph-name="ccaron" unicode="&#x10d;" horiz-adv-x="1308" 
d="M350 45l4 -10q-141 74 -221 209q-80 136 -80 313q0 175 80 311q80 135 221 209q142 74 320 74q164 0 289 -55q129 -57 206 -156q80 -103 101 -246h-441q-15 77 -55 123q-41 47 -100 47q-83 0 -127 -80q-43 -79 -43 -223q0 -151 43 -227t127 -76q65 0 102 43q37 42 55 127
h443q-20 -140 -105 -248q-80 -102 -211 -155q-133 -54 -284 -54q-182 0 -324 74zM674 1395l147 151h385l-260 -334h-543l-260 334h383z" />
    <glyph glyph-name="Dcaron" unicode="&#x10e;" horiz-adv-x="1624" 
d="M748 1556l-3 9q251 0 431 -82q179 -82 282 -258q103 -177 103 -443q0 -268 -101 -442q-103 -176 -282 -258q-180 -82 -430 -82h-625v1556h625zM756 377q160 0 245 104q86 106 86 305q0 200 -86 306q-85 104 -245 104h-178v-819h178zM739 1855l150 138h401l-270 -326h-563
l-269 326h400z" />
    <glyph glyph-name="dcaron" unicode="&#x10f;" horiz-adv-x="1388" 
d="M854 1556h432v-1556h-434v199q-44 -102 -131 -166q-88 -64 -215 -64q-136 0 -240 78q-97 73 -155 213q-56 136 -56 301t56 301q57 139 155 215q103 80 240 80q132 0 221 -74q90 -74 127 -188v661zM821 338v-2q43 79 43 225t-43 225q-44 80 -135 80q-90 0 -137 -80
q-45 -77 -45 -225q0 -146 45 -223q47 -80 137 -80q91 0 135 80zM1675 1165h-307l29 387h385z" />
    <glyph glyph-name="Dcroat" unicode="&#x110;" horiz-adv-x="1673" 
d="M797 1556l-2 9q248 0 428 -82q179 -82 282 -258q103 -177 103 -443q0 -268 -101 -442q-103 -176 -282 -258q-180 -82 -428 -82h-625v643h-152v305h152v608h625zM803 377h-2q165 0 250 104q86 106 86 305q0 200 -86 306q-85 104 -248 104h-176v-240h301v-305h-301v-274
h176z" />
    <glyph glyph-name="dcroat" unicode="&#x111;" horiz-adv-x="1388" 
d="M1391 1456l-2 -260h-103v-1196h-434v199q-44 -102 -131 -166q-88 -64 -215 -64q-136 0 -240 78q-97 73 -155 213q-56 136 -56 301t56 301q57 139 155 215q103 80 240 80q132 0 221 -74q90 -74 127 -188v301h-195v260h195v100h434v-100h103zM821 338v-2q43 79 43 225
t-43 225q-44 80 -135 80q-90 0 -137 -80q-45 -77 -45 -225q0 -146 45 -223q47 -80 137 -80q91 0 135 80z" />
    <glyph glyph-name="Emacron" unicode="&#x112;" horiz-adv-x="1368" 
d="M580 608v-239h702v-369h-1159v1556h1141v-368h-684v-211h669v-369h-669zM1161 1671h-938v303h938v-303z" />
    <glyph glyph-name="emacron" unicode="&#x113;" horiz-adv-x="1327" 
d="M1272 446l-778 -4q15 -107 55 -159t108 -52q54 0 91 29q34 27 59 78h440q-61 -178 -217 -272q-157 -95 -371 -95q-180 0 -319 74q-138 74 -215 209q-76 134 -76 311q0 173 80 309q80 135 221 209q142 74 316 74t311 -70q141 -72 219 -210q80 -142 80 -345q0 -4 -4 -86z
M551 842h4q-42 -45 -57 -152h325q-9 98 -51 148q-42 51 -110 51q-67 0 -111 -47zM1090 1235h-863v299h863v-299z" />
    <glyph glyph-name="Ebreve" unicode="&#x114;" horiz-adv-x="1368" 
d="M580 608v-239h702v-369h-1159v1556h1141v-368h-684v-211h669v-369h-669zM459 1700h-4q-100 43 -156 117q-55 73 -55 168h295q6 -38 47 -62q42 -25 104 -25q63 0 105 25q41 24 47 62h295q0 -94 -56 -168q-57 -75 -155 -117q-101 -43 -234 -43q-132 0 -233 43z" />
    <glyph glyph-name="ebreve" unicode="&#x115;" horiz-adv-x="1327" 
d="M1272 446l-778 -4q15 -107 55 -159t108 -52q54 0 91 29q34 27 59 78h440q-61 -178 -217 -272q-157 -95 -371 -95q-180 0 -319 74q-138 74 -215 209q-76 134 -76 311q0 173 80 309q80 135 221 209q142 74 316 74t311 -70q141 -72 219 -210q80 -142 80 -345q0 -4 -4 -86z
M551 842h4q-42 -45 -57 -152h325q-9 98 -51 148q-42 51 -110 51q-67 0 -111 -47zM434 1255v-4q-97 45 -153 123q-56 77 -56 172h299q0 -49 37 -76q36 -26 98 -26q59 0 99 29q37 27 37 77h299q0 -95 -56 -172q-56 -78 -153 -123q-96 -45 -226 -45q-129 0 -225 45z" />
    <glyph glyph-name="Edotaccent" unicode="&#x116;" horiz-adv-x="1368" 
d="M580 608v-239h702v-369h-1159v1556h1141v-368h-684v-211h669v-369h-669zM922 1659h-459v326h459v-326z" />
    <glyph glyph-name="edotaccent" unicode="&#x117;" horiz-adv-x="1327" 
d="M1272 446l-778 -4q15 -107 55 -159t108 -52q54 0 91 29q34 27 59 78h440q-61 -178 -217 -272q-157 -95 -371 -95q-180 0 -319 74q-138 74 -215 209q-76 134 -76 311q0 173 80 309q80 135 221 209q142 74 316 74t311 -70q141 -72 219 -210q80 -142 80 -345q0 -4 -4 -86z
M551 842h4q-42 -45 -57 -152h325q-9 98 -51 148q-42 51 -110 51q-67 0 -111 -47zM883 1227h-445v325h445v-325z" />
    <glyph glyph-name="Eogonek" unicode="&#x118;" horiz-adv-x="1368" 
d="M1282 0l2 -2q-89 -20 -135 -47q-39 -23 -39 -53q0 -21 23 -31t67 -10h82v-281h-147q-204 0 -310 53q-104 52 -104 166q0 64 47 123q46 58 135 82h-780v1556h1141v-368h-684v-211h669v-369h-669v-239h702v-369z" />
    <glyph glyph-name="eogonek" unicode="&#x119;" horiz-adv-x="1327" 
d="M1272 446l-774 -4q15 -107 55 -159t109 -52q53 0 90 29q34 27 59 78h440q-59 -164 -196 -258q-137 -107 -137 -178q0 -29 24 -41q26 -13 80 -13h82v-272h-148q-201 0 -307 53q-104 52 -104 166q0 96 114 176q-180 0 -319 74q-138 74 -215 209q-76 134 -76 311
q0 173 80 309q80 135 221 209q142 74 316 74t311 -70q141 -72 219 -210q80 -142 80 -345q0 -4 -4 -86zM555 842h4q-42 -45 -57 -152h325q-9 98 -51 148q-42 51 -110 51q-67 0 -111 -47z" />
    <glyph glyph-name="Ecaron" unicode="&#x11a;" horiz-adv-x="1368" 
d="M580 608v-239h702v-369h-1159v1556h1141v-368h-684v-211h669v-369h-669zM692 1847l150 138h401l-270 -326h-563l-269 326h400z" />
    <glyph glyph-name="ecaron" unicode="&#x11b;" horiz-adv-x="1327" 
d="M1272 446l-778 -4q15 -107 55 -159t108 -52q54 0 91 29q34 27 59 78h440q-61 -178 -217 -272q-157 -95 -371 -95q-180 0 -319 74q-138 74 -215 209q-76 134 -76 311q0 173 80 309q80 135 221 209q142 74 316 74t311 -70q141 -72 219 -210q80 -142 80 -345q0 -4 -4 -86z
M551 842h4q-42 -45 -57 -152h325q-9 98 -51 148q-42 51 -110 51q-67 0 -111 -47zM659 1401l148 151h385l-260 -333h-543l-260 333h383z" />
    <glyph glyph-name="Gcircumflex" unicode="&#x11c;" horiz-adv-x="1767" 
d="M809 930l868 -4v-930h-368v348q-58 -163 -174 -270t-338 -107q-181 0 -351 92q-166 89 -276 275q-107 180 -107 436q0 246 103 432q102 184 289 283q186 98 430 98q301 0 497 -129q199 -131 275 -393h-477q-40 83 -111 129q-68 45 -184 45q-108 0 -187 -55
q-80 -56 -123 -160t-43 -248q0 -145 43 -246q42 -99 127 -153t197 -54q94 0 166 35q73 36 115 95q44 62 47 139h-418v342zM1163 1980l271 -325h-402l-149 139l-152 -139h-399l268 325h563z" />
    <glyph glyph-name="gcircumflex" unicode="&#x11d;" horiz-adv-x="1390" 
d="M860 1128l426 5v-1078q0 -181 -88 -288q-87 -106 -223 -150q-133 -43 -285 -43q-139 0 -266 37q-128 37 -217 123t-107 215h443q18 -47 55 -68q36 -20 92 -20q75 0 117 45q43 46 43 135v205q-40 -101 -129 -166q-88 -64 -215 -64q-137 0 -240 74q-100 72 -153 203
q-54 133 -54 295q0 165 56 295q56 131 155 202q103 74 240 74q132 0 221 -74t129 -190v233zM821 381q45 71 45 209t-45 209q-46 73 -137 73q-89 0 -135 -73q-45 -71 -45 -209t45 -209q47 -74 135 -74q90 0 137 74zM979 1559l260 -334h-385l-147 151l-148 -151h-383l260 334
h543z" />
    <glyph glyph-name="Gbreve" unicode="&#x11e;" horiz-adv-x="1767" 
d="M809 930l868 -4v-930h-368v348q-58 -163 -174 -270t-338 -107q-181 0 -351 92q-166 89 -276 275q-107 180 -107 436q0 246 103 432q102 184 289 283q186 98 430 98q301 0 497 -129q199 -131 275 -393h-477q-40 83 -111 129q-68 45 -184 45q-108 0 -187 -55
q-80 -56 -123 -160t-43 -248q0 -145 43 -246q42 -99 127 -153t197 -54q94 0 166 35q73 36 115 95q44 62 47 139h-418v342zM649 1696h-4q-101 43 -156 116t-55 168h295q6 -37 47 -61q42 -25 105 -25q62 0 104 25q41 24 47 61h295q0 -95 -55 -168t-156 -116t-233 -43
q-133 0 -234 43z" />
    <glyph glyph-name="gbreve" unicode="&#x11f;" horiz-adv-x="1390" 
d="M860 1128l426 5v-1078q0 -181 -88 -288q-87 -106 -223 -150q-133 -43 -285 -43q-139 0 -266 37q-128 37 -217 123t-107 215h443q18 -47 55 -68q36 -20 92 -20q75 0 117 45q43 46 43 135v205q-40 -101 -129 -166q-88 -64 -215 -64q-137 0 -240 74q-100 72 -153 203
q-54 133 -54 295q0 165 56 295q56 131 155 202q103 74 240 74q132 0 221 -74t129 -190v233zM821 381q45 71 45 209t-45 209q-46 73 -137 73q-89 0 -135 -73q-45 -71 -45 -209t45 -209q47 -74 135 -74q90 0 137 74zM481 1262v-5q-97 45 -153 123q-56 77 -56 172h299
q0 -48 37 -75q38 -27 99 -27q58 0 98 29q37 27 37 77h299q0 -95 -56 -172q-55 -76 -153 -122q-96 -45 -225 -45q-130 0 -226 45z" />
    <glyph glyph-name="Gdotaccent" unicode="&#x120;" horiz-adv-x="1767" 
d="M809 930l868 -4v-930h-368v348q-58 -163 -174 -270t-338 -107q-181 0 -351 92q-166 89 -276 275q-107 180 -107 436q0 246 103 432q102 184 289 283q186 98 430 98q301 0 497 -129q199 -131 275 -393h-477q-40 83 -111 129q-68 45 -184 45q-108 0 -187 -55
q-80 -56 -123 -160t-43 -248q0 -145 43 -246q42 -99 127 -153t197 -54q94 0 166 35q73 36 115 95q44 62 47 139h-418v342zM1112 1655h-459v325h459v-325z" />
    <glyph glyph-name="gdotaccent" unicode="&#x121;" horiz-adv-x="1390" 
d="M860 1128l426 5v-1078q0 -181 -88 -288q-87 -106 -223 -150q-133 -43 -285 -43q-139 0 -266 37q-128 37 -217 123t-107 215h443q18 -47 55 -68q36 -20 92 -20q75 0 117 45q43 46 43 135v205q-40 -101 -129 -166q-88 -64 -215 -64q-137 0 -240 74q-100 72 -153 203
q-54 133 -54 295q0 165 56 295q56 131 155 202q103 74 240 74q132 0 221 -74t129 -190v233zM821 381q45 71 45 209t-45 209q-46 73 -137 73q-89 0 -135 -73q-45 -71 -45 -209t45 -209q47 -74 135 -74q90 0 137 74zM930 1233h-445v326h445v-326z" />
    <glyph glyph-name="uni0122" unicode="&#x122;" horiz-adv-x="1767" 
d="M809 930l868 -4v-930h-368v348q-58 -163 -174 -270t-338 -107q-181 0 -351 92q-166 89 -276 275q-107 180 -107 436q0 246 103 432q102 184 289 283q186 98 430 98q301 0 497 -129q199 -131 275 -393h-477q-40 83 -111 129q-68 45 -184 45q-108 0 -187 -55
q-80 -56 -123 -160t-43 -248q0 -145 43 -246q42 -99 127 -153t197 -54q94 0 166 35q73 36 115 95q44 62 47 139h-418v342zM645 -432v323h459v-362l-166 -209h-283l136 248h-146z" />
    <glyph glyph-name="uni0123" unicode="&#x123;" horiz-adv-x="1390" 
d="M860 1128l426 5v-1078q0 -181 -88 -288q-87 -106 -223 -150q-133 -43 -285 -43q-139 0 -266 37q-128 37 -217 123t-107 215h443q18 -47 55 -68q36 -20 92 -20q75 0 117 45q43 46 43 135v205q-40 -101 -129 -166q-88 -64 -215 -64q-137 0 -240 74q-100 72 -153 203
q-54 133 -54 295q0 165 56 295q56 131 155 202q103 74 240 74q132 0 221 -74t129 -190v233zM821 381q45 71 45 209t-45 209q-46 73 -137 73q-89 0 -135 -73q-45 -71 -45 -209t45 -209q47 -74 135 -74q90 0 137 74zM920 1819l-136 -248h146v-324h-445v363l166 209h269z" />
    <glyph glyph-name="Hcircumflex" unicode="&#x124;" horiz-adv-x="1638" 
d="M1059 997v559h457v-1556h-457v584h-479v-584h-457v1556h457v-559h479zM1100 1985l270 -326h-401l-150 139l-151 -139h-400l269 326h563z" />
    <glyph glyph-name="hcircumflex" unicode="&#x125;" horiz-adv-x="1349" 
d="M1178 1042l-2 -6q81 -112 81 -313v-4v-723h-442v614v4q0 123 -33 179q-34 57 -104 57q-71 0 -105 -55q-32 -51 -32 -181v-614h-443v1556h434v-663q102 264 369 264q194 0 277 -115zM594 1978l270 -325h-401l-150 139l-151 -139h-400l269 325h563z" />
    <glyph glyph-name="Hbar" unicode="&#x126;" horiz-adv-x="1638" 
d="M1516 1395h135v-285h-135v-1110h-457v584h-479v-584h-457v1110h-133v285h133v161h457v-161h479v161h457v-161zM580 997h479v113h-479v-113z" />
    <glyph glyph-name="hbar" unicode="&#x127;" horiz-adv-x="1349" 
d="M1178 1042l-2 -6q81 -112 81 -313v-4v-723h-442v614v4q0 123 -33 179q-34 57 -104 57q-71 0 -105 -55q-32 -51 -32 -181v-614h-443v1196h-102v260h102v100h434v-100h195v-260h-195v-303q102 264 369 264q194 0 277 -115z" />
    <glyph glyph-name="Itilde" unicode="&#x128;" horiz-adv-x="704" 
d="M580 0h-457v1556h457v-1556zM-55 1665l-4 -2q0 177 65 272t184 95q45 0 95 -15q49 -15 84 -30q53 -19 71 -25q27 -8 62 -8q48 0 78 24q32 26 41 62h137q-3 -178 -68 -273q-64 -94 -180 -94q-76 0 -180 43q-46 18 -68 25q-27 8 -63 8q-45 0 -76 -25q-32 -26 -43 -57h-135z
" />
    <glyph glyph-name="itilde" unicode="&#x129;" horiz-adv-x="643" 
d="M543 0h-443v1128h443v-1128zM-63 1233h2q0 177 61 268q62 92 174 92q75 0 166 -45q68 -32 123 -32q46 0 76 24t39 62h131q-3 -178 -64 -269q-62 -92 -172 -92q-47 0 -90 14q-45 15 -78 31q-70 33 -123 33q-45 0 -76 -25q-29 -23 -38 -61h-131z" />
    <glyph glyph-name="Imacron" unicode="&#x12a;" horiz-adv-x="704" 
d="M580 0h-457v1556h457v-1556zM821 1671h-938v303h938v-303z" />
    <glyph glyph-name="imacron" unicode="&#x12b;" horiz-adv-x="643" 
d="M543 0h-443v1128h443v-1128zM752 1239h-863v299h863v-299z" />
    <glyph glyph-name="Ibreve" unicode="&#x12c;" horiz-adv-x="704" 
d="M580 0h-457v1556h457v-1556zM119 1700h-4q-100 43 -156 117q-55 73 -55 168h295q6 -38 47 -62q42 -25 104 -25q63 0 105 25q41 24 47 62h295q0 -94 -56 -168q-57 -75 -155 -117q-101 -43 -234 -43q-132 0 -233 43z" />
    <glyph glyph-name="ibreve" unicode="&#x12d;" horiz-adv-x="643" 
d="M543 0h-443v1128h443v-1128zM94 1260v-5q-97 45 -153 123q-56 77 -56 172h299q0 -48 37 -75t98 -27q59 0 99 29q37 27 37 77h299q0 -95 -56 -172q-55 -76 -153 -122t-226 -46q-127 0 -225 46z" />
    <glyph glyph-name="Iogonek" unicode="&#x12e;" horiz-adv-x="704" 
d="M580 0h-457v1556h457v-1556zM434 -424q-203 0 -309 53q-105 53 -105 166q0 111 101 205h457q-86 -20 -132 -47q-38 -23 -38 -53q0 -43 92 -43h80v-281h-146z" />
    <glyph glyph-name="iogonek" unicode="&#x12f;" horiz-adv-x="643" 
d="M98 1231v325h445v-325h-445zM100 1128h443v-1128q-183 -44 -183 -106q0 -26 25 -35q29 -11 78 -11h82v-272h-146q-203 0 -309 53q-104 52 -104 166q0 56 28 107q26 47 86 98v1128z" />
    <glyph glyph-name="Idotaccent" unicode="&#x130;" horiz-adv-x="704" 
d="M580 0h-457v1556h457v-1556zM582 1659h-459v326h459v-326z" />
    <glyph glyph-name="dotlessi" unicode="&#x131;" horiz-adv-x="643" 
d="M543 0h-443v1128h443v-1128z" />
    <glyph glyph-name="Jcircumflex" unicode="&#x134;" horiz-adv-x="901" 
d="M33 0l2 371h160q52 0 79 12q28 13 41 41q13 29 13 80v1052h456v-1142q0 -207 -112 -310q-113 -104 -350 -104h-289zM842 1987l270 -326h-401l-150 139l-151 -139h-400l269 326h563z" />
    <glyph glyph-name="jcircumflex" unicode="&#x135;" horiz-adv-x="643" 
d="M-68 -401v315h54q60 0 88 25q26 23 26 81v1108h443v-1163q0 -115 -56 -198q-55 -82 -153 -125t-223 -43h-179zM592 1554l260 -333h-385l-148 151l-147 -151h-383l260 333h543z" />
    <glyph glyph-name="uni0136" unicode="&#x136;" horiz-adv-x="1574" 
d="M1059 815l565 -815h-557l-487 733v-733h-457v1556h457v-667l444 667h541zM598 -428v324h459v-363l-166 -209h-283l135 248h-145z" />
    <glyph glyph-name="uni0137" unicode="&#x137;" horiz-adv-x="1337" 
d="M973 625l387 -625h-518l-303 516v-516h-443v1556h443v-841l290 413h510zM457 -428v324h444v-363l-166 -209h-268l135 248h-145z" />
    <glyph glyph-name="kgreenlandic" unicode="&#x138;" horiz-adv-x="1341" 
d="M975 610l389 -610h-518l-303 500v-500h-443v1128h443v-426l293 426h507z" />
    <glyph glyph-name="Lacute" unicode="&#x139;" horiz-adv-x="1243" 
d="M580 1556v-1187h630v-369h-1087v1556h457zM573 1659h-434l240 326h616z" />
    <glyph glyph-name="lacute" unicode="&#x13a;" horiz-adv-x="641" 
d="M543 0h-443v1556h443v-1556zM553 1659h-434l239 326h617z" />
    <glyph glyph-name="uni013B" unicode="&#x13b;" horiz-adv-x="1243" 
d="M580 1556v-1187h630v-369h-1087v1556h457zM438 -428v324h459v-363l-166 -209h-282l135 248h-146z" />
    <glyph glyph-name="uni013C" unicode="&#x13c;" horiz-adv-x="641" 
d="M543 0h-443v1556h443v-1556zM98 -428v324h445v-363l-166 -209h-268l135 248h-146z" />
    <glyph glyph-name="Lcaron" unicode="&#x13d;" horiz-adv-x="1243" 
d="M580 1556v-1187h630v-369h-1087v1556h457zM1008 1040h-308l29 516h389z" />
    <glyph glyph-name="lcaron" unicode="&#x13e;" horiz-adv-x="641" 
d="M543 0h-443v1556h443v-1556zM934 1169h-307l28 387h385z" />
    <glyph glyph-name="Ldot" unicode="&#x13f;" horiz-adv-x="1263" 
d="M580 1556v-1187h630v-369h-1087v1556h457zM1208 739h-450v391h450v-391z" />
    <glyph glyph-name="ldot" unicode="&#x140;" horiz-adv-x="974" 
d="M543 0h-443v1556h443v-1556zM979 610h-342v389h342v-389z" />
    <glyph glyph-name="Lslash" unicode="&#x141;" horiz-adv-x="1316" 
d="M655 705v-336h629v-369h-1085v477l-158 -78v344l158 78v735h456v-507l295 147v-344z" />
    <glyph glyph-name="lslash" unicode="&#x142;" horiz-adv-x="811" 
d="M625 1098l137 84v-361l-137 -82v-739h-443v473l-125 -76v359l125 75v725h443v-458z" />
    <glyph glyph-name="Nacute" unicode="&#x143;" horiz-adv-x="1818" 
d="M1280 133v1423h414v-1556h-785l-370 1423v-1423h-416v1556h786zM1122 1659h-434l240 326h616z" />
    <glyph glyph-name="nacute" unicode="&#x144;" horiz-adv-x="1349" 
d="M1178 1042l-2 -6q81 -112 81 -313v-4v-723h-442v614v4q0 123 -33 179q-34 57 -104 57q-71 0 -105 -55q-32 -51 -32 -181v-614h-443v1128h434v-235q102 264 369 264q194 0 277 -115zM887 1217h-412l219 333h592z" />
    <glyph glyph-name="uni0145" unicode="&#x145;" horiz-adv-x="1818" 
d="M1280 133v1423h414v-1556h-785l-370 1423v-1423h-416v1556h786zM666 -428v324h458v-363l-166 -209h-282l135 248h-145z" />
    <glyph glyph-name="uni0146" unicode="&#x146;" horiz-adv-x="1349" 
d="M1178 1042l-2 -6q81 -112 81 -313v-4v-723h-442v614v4q0 123 -33 179q-34 57 -104 57q-71 0 -105 -55q-32 -51 -32 -181v-614h-443v1128h434v-235q102 264 369 264q194 0 277 -115zM457 -434v323h444v-362l-166 -209h-268l135 248h-145z" />
    <glyph glyph-name="Ncaron" unicode="&#x147;" horiz-adv-x="1818" 
d="M1280 133v1423h414v-1556h-785l-370 1423v-1423h-416v1556h786zM942 1847l150 138h401l-270 -326h-564l-268 326h400z" />
    <glyph glyph-name="ncaron" unicode="&#x148;" horiz-adv-x="1349" 
d="M1178 1042l-2 -6q81 -112 81 -313v-4v-723h-442v614v4q0 123 -33 179q-34 57 -104 57q-71 0 -105 -55q-32 -51 -32 -181v-614h-443v1128h434v-235q102 264 369 264q194 0 277 -115zM702 1399l148 151h385l-260 -333h-543l-260 333h383z" />
    <glyph glyph-name="Eng" unicode="&#x14a;" horiz-adv-x="1818" 
d="M1694 1556v-1579q0 -182 -115 -282q-113 -98 -350 -98h-244v292h158q71 0 102 25q32 26 35 86h-371l-370 1423v-1423h-416v1556h786l371 -1423v1423h414z" />
    <glyph glyph-name="eng" unicode="&#x14b;" horiz-adv-x="1349" 
d="M1178 1042l-2 -6q81 -112 81 -313v-4v-744q0 -126 -55 -211q-56 -86 -153 -129q-98 -43 -224 -43h-176v318h51q61 0 88 24t27 82v594v4q0 123 -33 179q-34 57 -104 57q-71 0 -105 -55q-32 -51 -32 -181v-614h-443v1128h434v-235q102 264 369 264q194 0 277 -115z" />
    <glyph glyph-name="Omacron" unicode="&#x14c;" horiz-adv-x="1759" 
d="M453 68v-5q-185 98 -291 281q-105 182 -105 430t105 430q106 183 291 281q186 98 426 98q244 0 430 -98q185 -98 290 -279q105 -182 105 -430t-105 -430q-104 -180 -290 -278q-187 -99 -430 -99q-239 0 -426 99zM1065 371v-4q80 56 123 157t43 246t-43 246
q-44 103 -123 158t-186 55t-187 -53t-123 -156q-43 -104 -43 -248t43 -248q42 -102 123 -155q82 -54 187 -54q106 0 186 56zM1348 1661h-938v303h938v-303z" />
    <glyph glyph-name="omacron" unicode="&#x14d;" horiz-adv-x="1363" 
d="M346 47l-4 2q-145 77 -221 211t-76 305q0 169 78 307q76 134 221 211q143 76 338 76t338 -76q145 -77 221 -211q78 -138 78 -307q0 -173 -76 -307t-221 -211q-143 -76 -338 -76t-338 76zM815 340v-2q45 77 45 225t-45 225q-47 80 -137 80q-91 0 -135 -80
q-43 -79 -43 -225q0 -144 43 -223q44 -80 135 -80q90 0 137 80zM1110 1237h-862v299h862v-299z" />
    <glyph glyph-name="Obreve" unicode="&#x14e;" horiz-adv-x="1759" 
d="M453 68v-5q-185 98 -291 281q-105 182 -105 430t105 430q106 183 291 281q186 98 426 98q244 0 430 -98q185 -98 290 -279q105 -182 105 -430t-105 -430q-104 -180 -290 -278q-187 -99 -430 -99q-239 0 -426 99zM1065 371v-4q80 56 123 157t43 246t-43 246
q-44 103 -123 158t-186 55t-187 -53t-123 -156q-43 -104 -43 -248t43 -248q42 -102 123 -155q82 -54 187 -54q106 0 186 56zM645 1692h-4q-101 43 -156 116t-55 168h295q6 -37 47 -61q42 -25 105 -25q62 0 104 25q41 24 47 61h295q0 -95 -55 -168t-156 -116t-233 -43
q-133 0 -234 43z" />
    <glyph glyph-name="obreve" unicode="&#x14f;" horiz-adv-x="1363" 
d="M346 47l-4 2q-145 77 -221 211t-76 305q0 169 78 307q76 134 221 211q143 76 338 76t338 -76q145 -77 221 -211q78 -138 78 -307q0 -173 -76 -307t-221 -211q-143 -76 -338 -76t-338 76zM815 340v-2q45 77 45 225t-45 225q-47 80 -137 80q-91 0 -135 -80
q-43 -79 -43 -225q0 -144 43 -223q44 -80 135 -80q90 0 137 80zM453 1257v-4q-98 46 -154 123q-55 76 -55 172h299q0 -48 37 -75t98 -27q58 0 98 29q37 27 37 77h299q0 -96 -55 -172q-56 -77 -154 -123q-96 -45 -225 -45t-225 45z" />
    <glyph glyph-name="Ohungarumlaut" unicode="&#x150;" horiz-adv-x="1759" 
d="M453 68v-5q-185 98 -291 281q-105 182 -105 430t105 430q106 183 291 281q186 98 426 98q244 0 430 -98q185 -98 290 -279q105 -182 105 -430t-105 -430q-104 -180 -290 -278q-187 -99 -430 -99q-239 0 -426 99zM1065 371v-4q80 56 123 157t43 246t-43 246
q-44 103 -123 158t-186 55t-187 -53t-123 -156q-43 -104 -43 -248t43 -248q42 -102 123 -155q82 -54 187 -54q106 0 186 56zM788 1649h-395l262 325h523zM1358 1649h-395l264 325h522z" />
    <glyph glyph-name="ohungarumlaut" unicode="&#x151;" horiz-adv-x="1363" 
d="M346 47l-4 2q-145 77 -221 211t-76 305q0 169 78 307q76 134 221 211q143 76 338 76t338 -76q145 -77 221 -211q78 -138 78 -307q0 -173 -76 -307t-221 -211q-143 -76 -338 -76t-338 76zM815 340v-2q45 77 45 225t-45 225q-47 80 -137 80q-91 0 -135 -80
q-43 -79 -43 -225q0 -144 43 -223q44 -80 135 -80q90 0 137 80zM608 1221h-362l196 333h488zM1143 1221h-361l197 333h487z" />
    <glyph glyph-name="OE" unicode="&#x152;" horiz-adv-x="2334" 
d="M1546 369l703 -9v-368h-1338q-250 0 -442 98q-193 99 -301 277q-109 180 -109 407q0 228 109 408q107 177 301 276q192 98 442 98h1319v-368h-684v-211h670v-369h-670v-239zM1090 360v816h-179q-115 0 -200 -52q-88 -54 -136 -143q-49 -91 -49 -213t49 -213
q48 -89 136 -143q85 -52 200 -52h179z" />
    <glyph glyph-name="oe" unicode="&#x153;" horiz-adv-x="2146" 
d="M2089 446l-774 -2q15 -107 55 -159t109 -52q55 0 92 29q33 26 55 78h442q-61 -178 -217 -272q-157 -95 -374 -95q-117 0 -215 43q-96 42 -172 121q-79 -79 -181 -121q-104 -43 -229 -43q-195 0 -338 76q-145 77 -221 211t-76 305q0 169 78 307q76 134 221 211
q143 76 338 76q127 0 231 -43q106 -44 179 -123q79 79 178 121q101 43 215 43q174 0 311 -70q141 -72 219 -210q80 -142 80 -345q0 -40 -6 -86zM1317 692h328q-9 96 -52 148q-42 51 -110 51q-139 0 -166 -199zM819 336v-2q45 77 45 225t-45 225q-47 80 -137 80
q-91 0 -135 -80q-43 -79 -43 -225q0 -144 43 -223q44 -80 135 -80q90 0 137 80z" />
    <glyph glyph-name="Racute" unicode="&#x154;" horiz-adv-x="1574" 
d="M1063 0l-305 524h-178v-526h-457v1556h670q209 0 356 -63q154 -66 231 -180q80 -118 80 -273q0 -144 -67 -254q-66 -108 -197 -174l379 -610h-512zM580 1200l-2 -323h210q96 0 148 43q53 44 53 116q0 74 -51 119t-147 45h-211zM911 1659h-434l240 326h616z" />
    <glyph glyph-name="racute" unicode="&#x155;" horiz-adv-x="948" 
d="M535 768q18 103 65 193q45 86 127 143q79 55 195 55v-434h-105q-146 0 -209 -57q-65 -59 -65 -191v-477h-443v1128h435v-360zM731 1223h-412l220 333h591z" />
    <glyph glyph-name="uni0156" unicode="&#x156;" horiz-adv-x="1574" 
d="M1063 0l-305 524h-178v-526h-457v1556h670q209 0 356 -63q154 -66 231 -180q80 -118 80 -273q0 -144 -67 -254q-66 -108 -197 -174l379 -610h-512zM580 1200l-2 -323h210q96 0 148 43q53 44 53 116q0 74 -51 119t-147 45h-211zM575 -428v324h459v-363l-166 -209h-282
l135 248h-146z" />
    <glyph glyph-name="uni0157" unicode="&#x157;" horiz-adv-x="948" 
d="M535 768q18 103 65 193q45 86 127 143q79 55 195 55v-434h-105q-146 0 -209 -57q-65 -59 -65 -191v-477h-443v1128h435v-360zM98 -428v324h445v-363l-166 -209h-268l135 248h-146z" />
    <glyph glyph-name="Rcaron" unicode="&#x158;" horiz-adv-x="1574" 
d="M1063 0l-305 524h-178v-526h-457v1556h670q209 0 356 -63q154 -66 231 -180q80 -118 80 -273q0 -144 -67 -254q-66 -108 -197 -174l379 -610h-512zM580 1200l-2 -323h210q96 0 148 43q53 44 53 116q0 74 -51 119t-147 45h-211zM731 1847l150 138h401l-270 -326h-563
l-269 326h400z" />
    <glyph glyph-name="rcaron" unicode="&#x159;" horiz-adv-x="948" 
d="M535 768q18 103 65 193q45 86 127 143q79 55 195 55v-434h-105q-146 0 -209 -57q-65 -59 -65 -191v-477h-443v1128h435v-360zM549 1405l147 151h385l-260 -333h-542l-261 333h383z" />
    <glyph glyph-name="Sacute" unicode="&#x15a;" horiz-adv-x="1517" 
d="M397 33l-10 4q-154 63 -244 178q-93 119 -108 281h477q15 -94 80 -144q64 -49 172 -49q119 0 184 35q64 34 64 96q0 40 -23 66q-22 25 -71 43q-56 20 -138 37l-254 57q-218 50 -331 160q-115 112 -115 301q0 144 86 256q85 110 233 172q146 61 332 61q220 0 363 -57
q148 -59 227 -160q81 -104 102 -237h-475q-14 59 -74 94q-56 33 -147 33q-87 0 -147 -31q-58 -30 -58 -86q0 -39 25 -64q24 -24 76 -39q98 -28 155 -41l252 -55q208 -47 320 -162t112 -297q0 -166 -88 -282q-87 -115 -252 -174q-162 -58 -383 -58q-191 0 -342 62zM903 1663
h-434l240 326h616z" />
    <glyph glyph-name="sacute" unicode="&#x15b;" horiz-adv-x="1265" 
d="M229 66l4 -7q-149 94 -184 289h443q24 -129 161 -129q73 0 115 25q41 24 41 59q0 22 -12 37q-13 17 -49 31q-39 15 -107 30l-246 56q-176 38 -250 118q-77 83 -77 209q0 111 71 197q69 83 195 131q119 45 270 45q156 0 277 -39q127 -41 209 -117q83 -77 104 -190h-440
q-12 44 -47 68t-93 24q-60 0 -98 -24q-37 -24 -37 -58q0 -29 31 -45q32 -16 102 -31l246 -55q182 -40 270 -123q91 -85 91 -223q0 -120 -80 -203q-81 -84 -215 -127q-133 -43 -301 -43q-243 0 -394 95zM784 1217h-411l219 333h592z" />
    <glyph glyph-name="Scircumflex" unicode="&#x15c;" horiz-adv-x="1517" 
d="M397 33l-10 4q-154 63 -244 178q-93 119 -108 281h477q15 -94 80 -144q64 -49 172 -49q119 0 184 35q64 34 64 96q0 40 -23 66q-22 25 -71 43q-56 20 -138 37l-254 57q-218 50 -331 160q-115 112 -115 301q0 144 86 256q85 110 233 172q146 61 332 61q220 0 363 -57
q148 -59 227 -160q81 -104 102 -237h-475q-14 59 -74 94q-56 33 -147 33q-87 0 -147 -31q-58 -30 -58 -86q0 -39 25 -64q24 -24 76 -39q98 -28 155 -41l252 -55q208 -47 320 -162t112 -297q0 -166 -88 -282q-87 -115 -252 -174q-162 -58 -383 -58q-191 0 -342 62zM1004 1989
l270 -326h-402l-149 139l-152 -139h-399l268 326h564z" />
    <glyph glyph-name="scircumflex" unicode="&#x15d;" horiz-adv-x="1265" 
d="M229 66l4 -7q-149 94 -184 289h443q24 -129 161 -129q73 0 115 25q41 24 41 59q0 22 -12 37q-13 17 -49 31q-39 15 -107 30l-246 56q-176 38 -250 118q-77 83 -77 209q0 111 71 197q69 83 195 131q119 45 270 45q156 0 277 -39q127 -41 209 -117q83 -77 104 -190h-440
q-12 44 -47 68t-93 24q-60 0 -98 -24q-37 -24 -37 -58q0 -29 31 -45q32 -16 102 -31l246 -55q182 -40 270 -123q91 -85 91 -223q0 -120 -80 -203q-81 -84 -215 -127q-133 -43 -301 -43q-243 0 -394 95zM874 1550l261 -333h-385l-148 151l-147 -151h-383l260 333h542z" />
    <glyph glyph-name="Scedilla" unicode="&#x15e;" horiz-adv-x="1517" 
d="M1391 223l-11 -4q-74 -108 -209 -170q-134 -61 -323 -76v-32q77 -9 127 -56q49 -46 49 -123q0 -86 -63 -137t-168 -51h-191v180h90q24 0 35 8q12 9 12 25q0 18 -12 27q-11 8 -35 8h-53v153q-163 15 -297 80q-131 64 -211 176q-79 110 -94 261h477q15 -94 80 -144
q64 -49 172 -49q119 0 184 35q64 34 64 96q0 40 -23 66q-22 25 -71 43q-50 18 -138 36l-254 58q-218 50 -331 160q-115 112 -115 301q0 144 86 256q85 110 233 172q146 61 332 61q220 0 363 -57q148 -59 227 -160q81 -104 102 -238h-475q-15 61 -73 95q-54 32 -148 32
q-89 0 -147 -30t-58 -86q0 -39 25 -64q24 -24 76 -39q97 -28 155 -41l252 -55q208 -47 320 -162t112 -297q0 -151 -73 -258z" />
    <glyph glyph-name="scedilla" unicode="&#x15f;" horiz-adv-x="1265" 
d="M1149 154l-2 -11q-66 -78 -184 -125q-116 -46 -267 -55v-33q78 -9 127 -55t49 -121q0 -87 -63 -135q-64 -49 -166 -49h-180v172h88q55 0 55 37q0 20 -14 28q-18 11 -39 11h-53v153q-184 21 -305 115q-118 93 -148 260h442q24 -129 162 -129q73 0 115 25q41 24 41 59
q0 22 -12 37q-13 16 -50 31q-40 16 -106 30l-246 56q-176 38 -250 118q-77 83 -77 209q0 111 71 197q69 83 195 131q119 45 270 45q156 0 277 -39q125 -40 208 -117q84 -78 105 -190h-440q-12 44 -47 68t-93 24q-60 0 -98 -24q-37 -24 -37 -58q0 -29 31 -45q32 -16 102 -31
l246 -55q182 -40 270 -123q91 -85 91 -223q0 -108 -68 -188z" />
    <glyph glyph-name="Scaron" unicode="&#x160;" horiz-adv-x="1517" 
d="M397 33l-10 4q-154 63 -244 178q-93 119 -108 281h477q15 -94 80 -144q64 -49 172 -49q119 0 184 35q64 34 64 96q0 40 -23 66q-22 25 -71 43q-56 20 -138 37l-254 57q-218 50 -331 160q-115 112 -115 301q0 144 86 256q85 110 233 172q146 61 332 61q220 0 363 -57
q148 -59 227 -160q81 -104 102 -237h-475q-14 59 -74 94q-56 33 -147 33q-87 0 -147 -31q-58 -30 -58 -86q0 -39 25 -64q24 -24 76 -39q98 -28 155 -41l252 -55q208 -47 320 -162t112 -297q0 -166 -88 -282q-87 -115 -252 -174q-162 -58 -383 -58q-191 0 -342 62zM723 1851
l149 138h402l-270 -326h-564l-268 326h399z" />
    <glyph glyph-name="scaron" unicode="&#x161;" horiz-adv-x="1265" 
d="M229 66l4 -7q-149 94 -184 289h443q24 -129 161 -129q73 0 115 25q41 24 41 59q0 22 -12 37q-13 17 -49 31q-39 15 -107 30l-246 56q-176 38 -250 118q-77 83 -77 209q0 111 71 197q69 83 195 131q119 45 270 45q156 0 277 -39q127 -41 209 -117q83 -77 104 -190h-440
q-12 44 -47 68t-93 24q-60 0 -98 -24q-37 -24 -37 -58q0 -29 31 -45q32 -16 102 -31l246 -55q182 -40 270 -123q91 -85 91 -223q0 -120 -80 -203q-81 -84 -215 -127q-133 -43 -301 -43q-243 0 -394 95zM602 1399l148 151h385l-261 -333h-542l-260 333h383z" />
    <glyph glyph-name="uni0162" unicode="&#x162;" horiz-adv-x="1409" 
d="M33 1556h1343v-368h-444v-1188h-457v1188h-442v368zM475 -428v324h459v-363l-166 -209h-283l136 248h-146z" />
    <glyph glyph-name="uni0163" unicode="&#x163;" horiz-adv-x="917" 
d="M858 317l2 -319h-219q-125 0 -223 43q-99 44 -154 125q-55 82 -55 196v5v444h-178v317h178v267h442v-267h205v-317h-205v-389v-4q0 -57 27 -78q30 -23 88 -23h92zM297 -430v324h444v-363l-166 -209h-268l135 248h-145z" />
    <glyph glyph-name="Tcaron" unicode="&#x164;" horiz-adv-x="1409" 
d="M33 1556h1343v-368h-444v-1188h-457v1188h-442v368zM705 1847l149 138h401l-270 -326h-563l-268 326h399z" />
    <glyph glyph-name="tcaron" unicode="&#x165;" horiz-adv-x="917" 
d="M735 1200l29 356h385l-107 -356h-307zM678 340l2 -2q30 -23 88 -23h92v-317h-219q-125 0 -223 43q-99 44 -154 125q-55 82 -55 196v5v444h-178v317h178v267h442v-267h205v-317h-205v-389v-4q0 -57 27 -78z" />
    <glyph glyph-name="Tbar" unicode="&#x166;" horiz-adv-x="1462" 
d="M1403 1556v-368h-445v-264h347v-326h-347v-598h-456v598h-344v326h344v264h-445v368h1346z" />
    <glyph glyph-name="tbar" unicode="&#x167;" horiz-adv-x="917" 
d="M858 317l2 -319h-219q-125 0 -223 43q-99 44 -154 125q-55 82 -55 196v5v94h-148v260h148v90h-178v317h178v267h442v-267h205v-317h-205v-90h142v-260h-142v-39v-4q0 -57 27 -78q30 -23 88 -23h92z" />
    <glyph glyph-name="Utilde" unicode="&#x168;" horiz-adv-x="1597" 
d="M276 139l-4 -4q-168 168 -168 486v4v929h457v-981v-4q0 -119 62 -184q60 -63 174 -63q112 0 174 65q61 64 61 188v981h455v-929q0 -656 -688 -656q-355 0 -523 168zM385 1661l-4 -2q0 177 65 272q64 94 185 94q48 0 94 -14q42 -13 84 -31q34 -13 72 -24q27 -8 61 -8
q48 0 78 24q32 26 41 62h137q-3 -178 -68 -273q-64 -94 -180 -94q-76 0 -180 43q-46 18 -68 25q-27 8 -63 8q-45 0 -76 -25q-32 -26 -43 -57h-135z" />
    <glyph glyph-name="utilde" unicode="&#x169;" horiz-adv-x="1343" 
d="M801 1128l440 2v-1128h-434v215q-43 -113 -129 -178q-87 -66 -234 -66q-356 0 -356 430v5v722h442v-614v-4q0 -122 33 -178q34 -58 105 -58t102 60t31 178v614zM281 1235h2q0 177 61 268q62 92 174 92q75 0 166 -45q68 -32 123 -32q46 0 76 24t39 62h131
q-3 -178 -64 -269q-62 -92 -172 -92q-47 0 -90 14q-45 15 -78 31q-70 33 -123 33q-44 0 -75 -25q-30 -24 -39 -61h-131z" />
    <glyph glyph-name="Umacron" unicode="&#x16a;" horiz-adv-x="1597" 
d="M276 139l-4 -4q-168 168 -168 486v4v929h457v-981v-4q0 -119 62 -184q60 -63 174 -63q112 0 174 65q61 64 61 188v981h455v-929q0 -656 -688 -656q-355 0 -523 168zM1262 1667h-938v303h938v-303z" />
    <glyph glyph-name="umacron" unicode="&#x16b;" horiz-adv-x="1343" 
d="M801 1128l440 2v-1128h-434v215q-43 -113 -129 -178q-87 -66 -234 -66q-356 0 -356 430v5v722h442v-614v-4q0 -122 33 -178q34 -58 105 -58t102 60t31 178v614zM1096 1241h-863v299h863v-299z" />
    <glyph glyph-name="Ubreve" unicode="&#x16c;" horiz-adv-x="1597" 
d="M276 139l-4 -4q-168 168 -168 486v4v929h457v-981v-4q0 -119 62 -184q60 -63 174 -63q112 0 174 65q61 64 61 188v981h455v-929q0 -656 -688 -656q-355 0 -523 168zM559 1696h-4q-101 43 -156 116t-55 168h295q6 -37 47 -61q42 -25 105 -25q62 0 104 25q41 24 47 61h295
q0 -95 -55 -168t-156 -116t-233 -43q-133 0 -234 43z" />
    <glyph glyph-name="ubreve" unicode="&#x16d;" horiz-adv-x="1343" 
d="M801 1128l440 2v-1128h-434v215q-43 -113 -129 -178q-87 -66 -234 -66q-356 0 -356 430v5v722h442v-614v-4q0 -122 33 -178q34 -58 105 -58t102 60t31 178v614zM438 1262v-5q-97 45 -153 123q-56 77 -56 172h299q0 -48 37 -75t99 -27q58 0 98 29q37 27 37 77h299
q0 -95 -56 -172q-55 -76 -153 -122q-96 -45 -225 -45q-130 0 -226 45z" />
    <glyph glyph-name="Uring" unicode="&#x16e;" horiz-adv-x="1597" 
d="M276 139l-4 -4q-168 168 -168 486v4v929h457v-981v-4q0 -119 62 -184q60 -63 174 -63q112 0 174 65q61 64 61 188v981h455v-929q0 -656 -688 -656q-355 0 -523 168zM633 1690q-74 44 -117 116q-43 73 -43 160t43 160q44 74 117 117t160 43q86 0 159 -43q74 -43 117 -117
q43 -73 43 -160t-43 -160q-43 -72 -117 -116q-73 -43 -159 -43q-87 0 -160 43zM852 1905q25 25 25 59t-25 59t-59 25q-35 0 -60 -25q-24 -24 -24 -59t24 -59q25 -25 60 -25q34 0 59 25z" />
    <glyph glyph-name="uring" unicode="&#x16f;" horiz-adv-x="1343" 
d="M801 1128l440 2v-1128h-434v215q-43 -113 -129 -178q-87 -66 -234 -66q-356 0 -356 430v5v722h442v-614v-4q0 -122 33 -178q34 -58 105 -58t102 60t31 178v614zM526 1253q-62 36 -100 101q-37 64 -37 141q0 73 37 137q38 65 100 101t142 36q75 0 137 -36t100 -101
q37 -64 37 -137q0 -77 -37 -141q-38 -65 -100 -101t-137 -36q-80 0 -142 36zM713 1444q18 21 18 49q0 29 -18 47q-19 19 -47 19q-31 0 -50 -19q-18 -18 -18 -47q0 -28 18 -49t50 -21q29 0 47 21z" />
    <glyph glyph-name="Uhungarumlaut" unicode="&#x170;" horiz-adv-x="1597" 
d="M276 139l-4 -4q-168 168 -168 486v4v929h457v-981v-4q0 -119 62 -184q60 -63 174 -63q112 0 174 65q61 64 61 188v981h455v-929q0 -656 -688 -656q-355 0 -523 168zM700 1655h-395l262 325h523zM1270 1655h-396l265 325h522z" />
    <glyph glyph-name="uhungarumlaut" unicode="&#x171;" horiz-adv-x="1343" 
d="M801 1128l440 2v-1128h-434v215q-43 -113 -129 -178q-87 -66 -234 -66q-356 0 -356 430v5v722h442v-614v-4q0 -122 33 -178q34 -58 105 -58t102 60t31 178v614zM596 1225h-363l197 334h488zM1130 1225h-360l197 334h487z" />
    <glyph glyph-name="Uogonek" unicode="&#x172;" horiz-adv-x="1597" 
d="M1032 1556l451 -2v-929q0 -375 -226 -535q-73 -63 -96 -98q-28 -42 -28 -74q0 -28 22 -47q21 -18 68 -18h84v-281h-148q-409 0 -409 207q0 107 120 190q-16 -2 -75 -2q-355 0 -523 168t-168 486v4v929h457v-981v-4q0 -119 62 -184q60 -63 174 -63q112 0 174 65
q61 64 61 188v981z" />
    <glyph glyph-name="uogonek" unicode="&#x173;" horiz-adv-x="1343" 
d="M1243 0l-2 2q-182 -44 -182 -106q0 -26 24 -35q29 -11 78 -11h82v-272h-147q-202 0 -308 53q-104 52 -104 166q0 58 31 109q30 49 92 96v215q-43 -113 -129 -178q-87 -66 -234 -66q-356 0 -356 430v5v722h442v-614v-4q0 -122 33 -178q34 -58 105 -58t102 60t31 178v614
h442v-1128z" />
    <glyph glyph-name="Wcircumflex" unicode="&#x174;" horiz-adv-x="2363" 
d="M1712 123l191 1433h424l-224 -1556h-764l-157 1462l-158 -1462h-764l-223 1556h424l190 -1433l170 1433h721zM1462 1985l271 -326h-402l-149 139l-152 -139h-399l268 326h563z" />
    <glyph glyph-name="wcircumflex" unicode="&#x175;" horiz-adv-x="1921" 
d="M1386 106l123 1022h371l-147 -1128h-672l-100 1024l-101 -1024h-672l-147 1128h371l123 -1022l112 1022h627zM1231 1556l260 -333h-385l-148 151l-147 -151h-383l260 333h543z" />
    <glyph glyph-name="Ycircumflex" unicode="&#x176;" horiz-adv-x="1515" 
d="M1040 1556h516l-569 -966v-590h-457v586l-569 970h514l283 -538zM1038 1985l271 -326h-402l-149 139l-152 -139h-399l268 326h563z" />
    <glyph glyph-name="ycircumflex" unicode="&#x177;" horiz-adv-x="1327" 
d="M647 244l201 884h467l-365 -1529h-450l116 510h-346l-266 1019h438zM915 1556l261 -333h-385l-148 151l-147 -151h-383l260 333h542z" />
    <glyph glyph-name="Ydieresis" unicode="&#x178;" horiz-adv-x="1515" 
d="M1040 1556h516l-569 -966v-590h-457v586l-569 970h514l283 -538zM713 1659h-459v326h459v-326zM1262 1659h-459v326h459v-326z" />
    <glyph glyph-name="Zacute" unicode="&#x179;" horiz-adv-x="1474" 
d="M1378 1085l-766 -716h803v-369h-1341v471l766 717h-754v368h1292v-471zM911 1659h-434l240 326h616z" />
    <glyph glyph-name="zacute" unicode="&#x17a;" horiz-adv-x="1224" 
d="M1133 725l-539 -408h571v-317h-1091v403l540 408h-528v317h1047v-403zM788 1223h-411l219 333h592z" />
    <glyph glyph-name="Zdotaccent" unicode="&#x17b;" horiz-adv-x="1474" 
d="M1378 1085l-766 -716h803v-369h-1341v471l766 717h-754v368h1292v-471zM961 1659h-459v326h459v-326z" />
    <glyph glyph-name="zdotaccent" unicode="&#x17c;" horiz-adv-x="1224" 
d="M1133 725l-539 -408h571v-317h-1091v403l540 408h-528v317h1047v-403zM829 1231h-444v325h444v-325z" />
    <glyph glyph-name="Zcaron" unicode="&#x17d;" horiz-adv-x="1474" 
d="M1378 1085l-766 -716h803v-369h-1341v471l766 717h-754v368h1292v-471zM731 1847l150 138h401l-270 -326h-563l-269 326h400z" />
    <glyph glyph-name="zcaron" unicode="&#x17e;" horiz-adv-x="1224" 
d="M1133 725l-539 -408h571v-317h-1091v403l540 408h-528v317h1047v-403zM606 1405l148 151h385l-260 -333h-543l-260 333h383z" />
    <glyph glyph-name="uni018F" unicode="&#x18f;" horiz-adv-x="1730" 
d="M1282 1485l-2 -15q184 -99 289 -280q104 -180 104 -424t-104 -424q-106 -183 -289 -281t-420 -98q-251 0 -434 115q-182 114 -276 313q-95 201 -95 455q0 52 6 104h1139q-38 146 -129 213q-92 68 -211 68q-101 0 -172 -39q-72 -40 -113 -111h-481q47 158 154 271t264 172
t348 59q239 0 422 -98zM1069 371v-2q93 65 127 209h-666q18 -83 66 -146q43 -57 115 -94q65 -33 147 -33q117 0 211 66z" />
    <glyph glyph-name="florin" unicode="&#x192;" horiz-adv-x="1249" 
d="M1044 1198h-6q-69 0 -106 -37t-49 -114l-4 -33h225v-359h-281l-32 -209q-23 -159 -89 -260q-64 -98 -167 -141q-104 -43 -254 -43h-226v358h138q69 0 106 37t49 115l23 145h-185v359h240l14 96q23 157 90 260q63 97 170 141q104 43 254 43h228v-358h-138z" />
    <glyph glyph-name="uni019D" unicode="&#x19d;" horiz-adv-x="1818" 
d="M1280 1556l412 3v-1557h-785l-370 1423v-1441q0 -181 -117 -283q-115 -100 -352 -100h-244v293h160q54 0 84 12t43 41q12 27 12 80v1529h786l371 -1423v1423z" />
    <glyph glyph-name="uni01B5" unicode="&#x1b5;" horiz-adv-x="1492" 
d="M881 612l-260 -243h802v-369h-1341v471l309 289h-289v207h508l238 221h-752v368h1290v-471l-284 -266h311v-207h-532z" />
    <glyph glyph-name="uni01B6" unicode="&#x1b6;" horiz-adv-x="1236" 
d="M762 442l-166 -125h573v-317h-1091v403l203 154h-185v148h379l141 106h-528v317h1047v-403l-183 -137h213v-146h-403z" />
    <glyph glyph-name="uni01E2" unicode="&#x1e2;" horiz-adv-x="2226" 
d="M1528 608l71 -239h541v-369h-907l-98 360h-572l-98 -360h-477l469 1556h1665v-368h-768l63 -211h690v-369h-579zM850 1409l-186 -680h370zM1614 1671h-938v303h938v-303z" />
    <glyph glyph-name="uni01E3" unicode="&#x1e3;" horiz-adv-x="2084" 
d="M2028 446l-773 -6q15 -105 56 -159q40 -52 108 -52q53 0 90 29q36 28 60 78h442q-62 -179 -217 -273t-375 -94q-148 0 -260 62q-110 61 -174 162q-63 -100 -178 -162t-283 -62q-128 0 -233 45q-108 47 -172 131q-64 85 -64 197q0 199 142 276q144 78 391 78h227v39v6
q0 75 -37 115q-38 41 -102 41q-56 0 -94 -35t-41 -86h-443q15 123 92 209q76 85 195 129q116 43 250 43q148 0 244 -45q99 -47 157 -119q66 78 164 121t227 43q171 0 308 -70q141 -72 219 -210q80 -142 80 -345q0 -40 -6 -86zM1257 688h328q-9 98 -51 148q-42 51 -111 51
q-139 0 -166 -199zM760 285q45 54 51 153h-135q-78 0 -125 -24q-45 -23 -45 -78q0 -53 35 -80t90 -27q82 0 129 56zM1448 1231h-862v299h862v-299z" />
    <glyph glyph-name="Gcaron" unicode="&#x1e6;" horiz-adv-x="1767" 
d="M809 930l868 -4v-930h-368v348q-58 -163 -174 -270t-338 -107q-181 0 -351 92q-166 89 -276 275q-107 180 -107 436q0 246 103 432q102 184 289 283q186 98 430 98q301 0 497 -129q199 -131 275 -393h-477q-40 83 -111 129q-68 45 -184 45q-108 0 -187 -55
q-80 -56 -123 -160t-43 -248q0 -145 43 -246q42 -99 127 -153t197 -54q94 0 166 35q73 36 115 95q44 62 47 139h-418v342zM883 1843l149 137h402l-271 -325h-563l-268 325h399z" />
    <glyph glyph-name="gcaron" unicode="&#x1e7;" horiz-adv-x="1390" 
d="M860 1128l426 5v-1078q0 -181 -88 -288q-87 -106 -223 -150q-133 -43 -285 -43q-139 0 -266 37q-128 37 -217 123t-107 215h443q18 -47 55 -68q36 -20 92 -20q75 0 117 45q43 46 43 135v205q-40 -101 -129 -166q-88 -64 -215 -64q-137 0 -240 74q-100 72 -153 203
q-54 133 -54 295q0 165 56 295q56 131 155 202q103 74 240 74q132 0 221 -74t129 -190v233zM821 381q45 71 45 209t-45 209q-46 73 -137 73q-89 0 -135 -73q-45 -71 -45 -209t45 -209q47 -74 135 -74q90 0 137 74zM707 1407l147 152h385l-260 -334h-543l-260 334h383z" />
    <glyph glyph-name="uni01EA" unicode="&#x1ea;" horiz-adv-x="1759" 
d="M1253 -2l-4 -6q-30 -40 -30 -76q0 -28 22 -47t68 -19h84v-280h-148q-409 0 -409 207q0 57 30 104q29 44 90 90q-78 -4 -86 -4q-238 0 -426 99q-184 97 -290 280q-105 182 -105 430t105 430q107 184 290 281q186 98 426 98q244 0 430 -98q187 -99 291 -279
q105 -182 105 -430q0 -227 -90 -405q-88 -175 -252 -277q-74 -61 -101 -98zM565 524v-4q42 -102 123 -155q82 -54 186 -54q107 0 187 56t123 157t43 246t-43 246q-44 103 -123 158t-187 55q-106 0 -186 -53t-123 -156q-43 -104 -43 -248t43 -248z" />
    <glyph glyph-name="uni01EB" unicode="&#x1eb;" horiz-adv-x="1363" 
d="M938 -98l-12 -4q0 -29 24 -41q26 -13 80 -13h82v-272h-147q-202 0 -308 53q-104 52 -104 166q0 96 115 176q-190 0 -334 78t-219 211q-76 134 -76 305q0 169 78 307q76 134 221 211q143 76 338 76t338 -76q145 -77 221 -211q78 -138 78 -307q0 -151 -62 -278
q-62 -126 -176 -203q-137 -107 -137 -178zM532 334v-2q44 -80 136 -80q90 0 137 80q45 77 45 225t-45 225q-47 80 -137 80q-92 0 -136 -80q-43 -79 -43 -225q0 -144 43 -223z" />
    <glyph glyph-name="AEacute" unicode="&#x1fc;" horiz-adv-x="2226" 
d="M1528 608l71 -239h541v-369h-907l-98 360h-572l-98 -360h-477l469 1556h1665v-368h-768l63 -211h690v-369h-579zM850 1409l-186 -680h370zM1325 1659h-434l239 326h617z" />
    <glyph glyph-name="aeacute" unicode="&#x1fd;" horiz-adv-x="2084" 
d="M2028 446l-773 -6q15 -105 56 -159q40 -52 108 -52q53 0 90 29q36 28 60 78h442q-62 -179 -217 -273t-375 -94q-148 0 -260 62q-110 61 -174 162q-63 -100 -178 -162t-283 -62q-128 0 -233 45q-108 47 -172 131q-64 85 -64 197q0 199 142 276q144 78 391 78h227v39v6
q0 75 -37 115q-38 41 -102 41q-56 0 -94 -35t-41 -86h-443q15 123 92 209q76 85 195 129q116 43 250 43q148 0 244 -45q99 -47 157 -119q66 78 164 121t227 43q171 0 308 -70q141 -72 219 -210q80 -142 80 -345q0 -40 -6 -86zM1257 688h328q-9 98 -51 148q-42 51 -111 51
q-139 0 -166 -199zM760 285q45 54 51 153h-135q-78 0 -125 -24q-45 -23 -45 -78q0 -53 35 -80t90 -27q82 0 129 56zM1200 1214h-412l220 334h591z" />
    <glyph glyph-name="Oslashacute" unicode="&#x1fe;" horiz-adv-x="1759" 
d="M1815 1556l-261 -284q73 -103 109 -223q37 -124 37 -273q0 -248 -105 -430q-104 -180 -290 -278q-187 -99 -431 -99q-255 0 -444 107l-74 -78h-417l262 281q-69 100 -107 227q-37 124 -37 270q0 248 105 430q106 183 291 281q186 98 426 98q257 0 444 -106l74 77h418z
M543 635l512 551q-74 45 -172 45q-107 0 -187 -53t-123 -156q-43 -104 -43 -248q0 -69 13 -139zM1221 915l-514 -553q77 -47 174 -47q106 0 186 56t123 157t43 246q0 76 -12 141zM1061 1653h-434l239 325h617z" />
    <glyph glyph-name="oslashacute" unicode="&#x1ff;" horiz-adv-x="1363" 
d="M1380 1128l-190 -190q61 -79 90 -172q31 -98 31 -203q0 -173 -76 -307t-221 -211q-143 -76 -338 -76q-200 0 -346 82l-51 -53h-297l184 190q-61 79 -90 172q-31 98 -31 203q0 169 78 307q76 134 221 211q143 76 338 76q202 0 348 -82l51 53h299zM498 532l282 297
q-41 41 -104 41q-92 0 -135 -79t-43 -226v-33zM856 598l-289 -297q47 -41 107 -41q90 0 137 80q45 77 45 225v33zM856 1223h-412l220 333h591z" />
    <glyph glyph-name="uni0218" unicode="&#x218;" horiz-adv-x="1517" 
d="M397 33l-10 4q-154 63 -244 178q-93 119 -108 281h477q15 -94 80 -144q64 -49 172 -49q119 0 184 35q64 34 64 96q0 40 -23 66q-22 25 -71 43q-56 20 -138 37l-254 57q-218 50 -331 160q-115 112 -115 301q0 144 86 256q85 110 233 172q146 61 332 61q220 0 363 -57
q148 -59 227 -160q81 -104 102 -237h-475q-14 59 -74 94q-56 33 -147 33q-87 0 -147 -31q-58 -30 -58 -86q0 -39 25 -64q24 -24 76 -39q98 -28 155 -41l252 -55q208 -47 320 -162t112 -297q0 -166 -88 -282q-87 -115 -252 -174q-162 -58 -383 -58q-191 0 -342 62zM551 -424
v324h459v-363l-166 -209h-283l135 248h-145z" />
    <glyph glyph-name="uni0219" unicode="&#x219;" horiz-adv-x="1265" 
d="M229 66l4 -7q-149 94 -184 289h443q24 -129 161 -129q73 0 115 25q41 24 41 59q0 22 -12 37q-13 17 -49 31q-39 15 -107 30l-246 56q-176 38 -250 118q-77 83 -77 209q0 111 71 197q69 83 195 131q119 45 270 45q156 0 277 -39q127 -41 209 -117q83 -77 104 -190h-440
q-12 44 -47 68t-93 24q-60 0 -98 -24q-37 -24 -37 -58q0 -29 31 -45q32 -16 102 -31l246 -55q182 -40 270 -123q91 -85 91 -223q0 -120 -80 -203q-81 -84 -215 -127q-133 -43 -301 -43q-243 0 -394 95zM426 -434v323h444v-362l-165 -209h-269l135 248h-145z" />
    <glyph glyph-name="uni021A" unicode="&#x21a;" horiz-adv-x="1409" 
d="M33 1556h1343v-368h-444v-1188h-457v1188h-442v368zM475 -428v324h459v-363l-166 -209h-283l136 248h-146z" />
    <glyph glyph-name="uni021B" unicode="&#x21b;" horiz-adv-x="917" 
d="M858 317l2 -319h-219q-125 0 -223 43q-99 44 -154 125q-55 82 -55 196v5v444h-178v317h178v267h442v-267h205v-317h-205v-389v-4q0 -57 27 -78q30 -23 88 -23h92zM297 -430v324h444v-363l-166 -209h-268l135 248h-145z" />
    <glyph glyph-name="uni022E" unicode="&#x22e;" horiz-adv-x="1759" 
d="M453 68v-5q-185 98 -291 281q-105 182 -105 430t105 430q106 183 291 281q186 98 426 98q244 0 430 -98q185 -98 290 -279q105 -182 105 -430t-105 -430q-104 -180 -290 -278q-187 -99 -430 -99q-239 0 -426 99zM1065 371v-4q80 56 123 157t43 246t-43 246
q-44 103 -123 158t-186 55t-187 -53t-123 -156q-43 -104 -43 -248t43 -248q42 -102 123 -155q82 -54 187 -54q106 0 186 56zM1108 1649h-459v325h459v-325z" />
    <glyph glyph-name="uni022F" unicode="&#x22f;" horiz-adv-x="1363" 
d="M346 47l-4 2q-145 77 -221 211t-76 305q0 169 78 307q76 134 221 211q143 76 338 76t338 -76q145 -77 221 -211q78 -138 78 -307q0 -173 -76 -307t-221 -211q-143 -76 -338 -76t-338 76zM815 340v-2q45 77 45 225t-45 225q-47 80 -137 80q-91 0 -135 -80
q-43 -79 -43 -225q0 -144 43 -223q44 -80 135 -80q90 0 137 80zM901 1229h-444v325h444v-325z" />
    <glyph glyph-name="uni0232" unicode="&#x232;" horiz-adv-x="1515" 
d="M1040 1556h516l-569 -966v-590h-457v586l-569 970h514l283 -538zM1227 1671h-938v303h938v-303z" />
    <glyph glyph-name="uni0233" unicode="&#x233;" horiz-adv-x="1327" 
d="M647 244l201 884h467l-365 -1529h-450l116 510h-346l-266 1019h438zM1075 1239h-862v299h862v-299z" />
    <glyph glyph-name="uni0237" unicode="&#x237;" horiz-adv-x="643" 
d="M-68 -401v315h54q60 0 88 25q26 23 26 81v1108h443v-1163q0 -115 -56 -198q-55 -82 -153 -125t-223 -43h-179z" />
    <glyph glyph-name="uni0259" unicode="&#x259;" horiz-adv-x="1329" 
d="M983 1083v-6q138 -74 215 -209q78 -138 78 -311t-80 -309q-80 -135 -221 -209q-142 -74 -316 -74q-170 0 -311 72t-219 211q-80 142 -80 344q0 4 4 86h772q-15 108 -55 160q-39 51 -108 51q-54 0 -89 -27q-32 -25 -57 -76h-440q63 181 217 275q158 96 371 96
q180 0 319 -74zM768 276h-4q42 45 57 152h-325q9 -97 51 -147q43 -52 110 -52t111 47z" />
    <glyph glyph-name="uni0272" unicode="&#x272;" horiz-adv-x="1349" 
d="M1178 1042l-2 -6q81 -112 81 -313v-4v-723h-442v614v4q0 123 -33 179q-34 57 -104 57q-71 0 -105 -55q-32 -51 -32 -181v-634q0 -125 -56 -211t-153 -129q-98 -43 -223 -43h-179v317h54q60 0 88 25q26 23 26 81v1108h434v-235q102 264 369 264q194 0 277 -115z" />
    <glyph glyph-name="circumflex" unicode="&#x2c6;" horiz-adv-x="1122" 
d="M834 1556l260 -333h-385l-148 151l-147 -151h-383l260 333h543z" />
    <glyph glyph-name="caron" unicode="&#x2c7;" horiz-adv-x="1122" 
d="M561 1405l148 151h385l-260 -333h-543l-260 333h383z" />
    <glyph glyph-name="breve" unicode="&#x2d8;" horiz-adv-x="927" 
d="M238 1260v-5q-98 46 -154 123q-55 76 -55 172h299q0 -48 37 -75t98 -27q58 0 98 29q37 27 37 77h299q0 -96 -55 -172q-55 -75 -154 -122q-98 -46 -225 -46t-225 46z" />
    <glyph glyph-name="dotaccent" unicode="&#x2d9;" horiz-adv-x="505" 
d="M475 1231h-444v325h444v-325z" />
    <glyph glyph-name="ring" unicode="&#x2da;" horiz-adv-x="612" 
d="M168 1251q-62 36 -100 101q-37 64 -37 141q0 73 37 137q38 65 100 101t141 36q75 0 137 -36q64 -37 101 -101t37 -137q0 -77 -37 -141t-101 -101t-137 -37q-77 0 -141 37zM354 1442q19 22 19 49q0 28 -19 47q-18 18 -47 18q-31 0 -49 -18t-18 -47q0 -28 18 -49t49 -21
q29 0 47 21z" />
    <glyph glyph-name="ogonek" unicode="&#x2db;" horiz-adv-x="618" 
d="M440 -424q-201 0 -307 53q-104 52 -104 166q0 59 30 109q29 47 93 96h434q-183 -44 -183 -106q0 -26 25 -35q29 -11 78 -11h82v-272h-148z" />
    <glyph glyph-name="tilde" unicode="&#x2dc;" horiz-adv-x="829" 
d="M31 1233h2q0 177 61 268q62 92 174 92q75 0 166 -45q68 -32 123 -32q46 0 76 24t39 62h131q-3 -178 -64 -269q-62 -92 -172 -92q-47 0 -90 14q-45 15 -78 31q-70 33 -123 33q-44 0 -75 -25q-30 -24 -39 -61h-131z" />
    <glyph glyph-name="hungarumlaut" unicode="&#x2dd;" horiz-adv-x="1282" 
d="M393 1223h-362l196 333h488zM928 1223h-361l197 333h487z" />
    <glyph glyph-name="gravecomb" unicode="&#x300;" horiz-adv-x="0" 
d="M-31 1223h-411l-400 333h592z" />
    <glyph glyph-name="acutecomb" unicode="&#x301;" horiz-adv-x="0" 
d="M-430 1223h-412l219 333h592z" />
    <glyph glyph-name="uni0302" unicode="&#x302;" horiz-adv-x="0" 
d="M-289 1556l260 -333h-385l-147 151l-148 -151h-383l261 333h542z" />
    <glyph glyph-name="tildecomb" unicode="&#x303;" horiz-adv-x="0" 
d="M-799 1233h2q0 176 62 268t174 92q75 0 166 -45q68 -32 123 -32q45 0 75 24t39 62h131q-3 -180 -63 -269q-62 -92 -172 -92q-47 0 -90 14q-45 15 -78 31q-70 33 -123 33q-45 0 -76 -25q-30 -24 -39 -61h-131z" />
    <glyph glyph-name="uni0304" unicode="&#x304;" horiz-adv-x="0" 
d="M-29 1239h-862v299h862v-299z" />
    <glyph glyph-name="uni0306" unicode="&#x306;" horiz-adv-x="0" 
d="M-690 1260v-5q-98 46 -154 123q-55 76 -55 172h299q0 -48 37 -75q38 -27 98 -27q58 0 98 29q37 27 37 77h299q0 -96 -55 -172q-55 -75 -154 -122q-98 -46 -225 -46t-225 46z" />
    <glyph glyph-name="uni0307" unicode="&#x307;" horiz-adv-x="0" 
d="M-31 1231h-444v325h444v-325z" />
    <glyph glyph-name="uni0308" unicode="&#x308;" horiz-adv-x="0" 
d="M-571 1231h-445v325h445v-325zM-31 1231h-444v325h444v-325z" />
    <glyph glyph-name="uni030A" unicode="&#x30a;" horiz-adv-x="0" 
d="M-444 1251q-64 37 -101 101t-37 141q0 73 37 137t101 101q62 36 141 36q75 0 137 -36t100 -101q37 -64 37 -137q0 -77 -37 -141q-38 -65 -100 -101q-64 -37 -137 -37q-77 0 -141 37zM-258 1442q18 21 18 49q0 29 -18 47t-47 18q-31 0 -49 -18q-19 -19 -19 -47
q0 -27 19 -49q18 -21 49 -21q29 0 47 21z" />
    <glyph glyph-name="uni030B" unicode="&#x30b;" horiz-adv-x="0" 
d="M-889 1223h-362l196 333h488zM-354 1223h-361l197 333h487z" />
    <glyph glyph-name="uni030C" unicode="&#x30c;" horiz-adv-x="0" 
d="M-561 1405l147 151h385l-260 -333h-542l-261 333h383z" />
    <glyph glyph-name="uni0312" unicode="&#x312;" horiz-adv-x="0" 
d="M-41 1817l-135 -248h145v-324h-444v363l166 209h268z" />
    <glyph glyph-name="dotbelowcomb" unicode="&#x323;" horiz-adv-x="0" 
d="M-31 -430h-444v326h444v-326z" />
    <glyph glyph-name="uni0326" unicode="&#x326;" horiz-adv-x="0" 
d="M-475 -428v324h444v-363l-166 -209h-268l135 248h-145z" />
    <glyph glyph-name="uni0327" unicode="&#x327;" horiz-adv-x="0" 
d="M-205 -59l-4 -4q77 -9 127 -56q49 -46 49 -121q0 -87 -63 -135q-64 -49 -166 -49h-180v172h88q55 0 55 37q0 21 -14 29q-17 10 -39 10h-54v176h201v-59z" />
    <glyph glyph-name="uni0328" unicode="&#x328;" horiz-adv-x="0" 
d="M-178 -424q-201 0 -307 53q-105 53 -105 166q0 58 31 109q30 49 92 96h434q-182 -44 -182 -106q0 -26 25 -35q29 -11 77 -11h82v-272h-147z" />
    <glyph glyph-name="uni0335" unicode="&#x335;" horiz-adv-x="0" 
d="M-637 1196h-731v260h731v-260z" />
    <glyph glyph-name="uni0336" unicode="&#x336;" horiz-adv-x="0" 
d="M-31 1114h-1661v285h1661v-285z" />
    <glyph glyph-name="uni0337" unicode="&#x337;" horiz-adv-x="0" 
d="M-31 821l-704 -424v359l704 426v-361z" />
    <glyph glyph-name="uni0338" unicode="&#x338;" horiz-adv-x="0" 
d="M-1124 0h-297l1093 1128h299z" />
    <glyph glyph-name="uni0394" unicode="&#x394;" horiz-adv-x="1681" 
d="M1235 1556l467 -1556h-1722l469 1556h786zM1126 369l-284 1042l-287 -1042h571z" />
    <glyph glyph-name="uni03A9" unicode="&#x3a9;" horiz-adv-x="1716" 
d="M1524 592l-6 -4q-129 -144 -365 -223h440v-369h-688v471q137 73 205 188t68 240q0 97 -37 172q-38 78 -111 121t-178 43q-103 0 -176 -43q-74 -44 -111 -119t-37 -172q0 -125 68 -240t205 -188v-471h-688v369h440q-234 78 -365 225q-129 144 -129 350q0 193 103 338
q103 146 282 221q185 78 412 78t412 -78q179 -75 282 -221q103 -145 103 -338q0 -206 -129 -350z" />
    <glyph glyph-name="uni03BC" unicode="&#x3bc;" horiz-adv-x="1464" 
d="M1421 317v-315h-121q-138 0 -227 12q-88 12 -149 49q-63 38 -90 115q-11 33 -13 43q-71 -210 -276 -244v-378h-443v1529h443v-614v-4q0 -120 30 -178t103 -58t104 60t31 178v614h442v-704v-4q0 -45 15 -66q16 -22 43 -28q32 -7 80 -7h28z" />
    <glyph glyph-name="pi" unicode="&#x3c0;" horiz-adv-x="1533" 
d="M1282 811l-2 -405v-5q0 -37 18 -55t45 -24q31 -7 70 -7h47v-317h-176q-130 0 -233 41q-101 40 -156 119t-55 192v4v457h-181v-811h-442v811h-178v317h1421v-317h-178z" />
    <glyph glyph-name="uni0E3F" unicode="&#xe3f;" horiz-adv-x="1488" 
d="M1290 162l-4 4q-115 -109 -334 -146v-284h-444v268h-369v1557h369v258h444v-277q143 -25 232 -82q94 -60 139 -137t45 -174q0 -152 -104 -240t-271 -118q115 -12 207 -56q94 -45 148 -119q55 -76 55 -184q0 -163 -113 -270zM590 1210l-2 -264h170q70 0 110 37
q41 38 41 94q0 61 -39 97t-110 36h-170zM756 354q52 0 98 19q44 18 68 53q24 34 24 74q0 38 -24 73q-25 36 -68 54q-44 18 -98 18h-168v-291h168z" />
    <glyph glyph-name="Wgrave" unicode="&#x1e80;" horiz-adv-x="2363" 
d="M1712 123l191 1433h424l-224 -1556h-764l-157 1462l-158 -1462h-764l-223 1556h424l190 -1433l170 1433h721zM1405 1659h-436l-420 326h614z" />
    <glyph glyph-name="wgrave" unicode="&#x1e81;" horiz-adv-x="1921" 
d="M1386 106l123 1022h371l-147 -1128h-672l-100 1024l-101 -1024h-672l-147 1128h371l123 -1022l112 1022h627zM1167 1223h-411l-400 333h592z" />
    <glyph glyph-name="Wacute" unicode="&#x1e82;" horiz-adv-x="2363" 
d="M1712 123l191 1433h424l-224 -1556h-764l-157 1462l-158 -1462h-764l-223 1556h424l190 -1433l170 1433h721zM1393 1659h-435l240 326h617z" />
    <glyph glyph-name="wacute" unicode="&#x1e83;" horiz-adv-x="1921" 
d="M1386 106l123 1022h371l-147 -1128h-672l-100 1024l-101 -1024h-672l-147 1128h371l123 -1022l112 1022h627zM1165 1223h-411l219 333h592z" />
    <glyph glyph-name="Wdieresis" unicode="&#x1e84;" horiz-adv-x="2363" 
d="M1712 123l191 1433h424l-224 -1556h-764l-157 1462l-158 -1462h-764l-223 1556h424l190 -1433l170 1433h721zM1137 1659h-459v326h459v-326zM1686 1659h-459v326h459v-326z" />
    <glyph glyph-name="wdieresis" unicode="&#x1e85;" horiz-adv-x="1921" 
d="M1386 106l123 1022h371l-147 -1128h-672l-100 1024l-101 -1024h-672l-147 1128h371l123 -1022l112 1022h627zM909 1231h-444v325h444v-325zM1450 1231h-444v325h444v-325z" />
    <glyph glyph-name="uni1E9E" unicode="&#x1e9e;" horiz-adv-x="1626" 
d="M1190 870q114 -24 199 -82q88 -60 133 -143q47 -86 47 -194q0 -152 -68 -261q-66 -105 -190 -161t-291 -56q-82 0 -152 13q-57 11 -129 34v310q58 -28 86 -37q37 -12 90 -12q87 0 136 43t49 122t-74 123q-73 43 -192 43h-54v338l262 238h-462v-1188h-457v1556h1345v-436z
" />
    <glyph glyph-name="uni1EA0" unicode="&#x1ea0;" horiz-adv-x="1697" 
d="M1710 0h-477l-98 360h-572l-98 -360h-477l469 1556h786zM850 1409l-186 -680h370zM1077 -430h-459v326h459v-326z" />
    <glyph glyph-name="uni1EA1" unicode="&#x1ea1;" horiz-adv-x="1339" 
d="M1006 1096l4 8q130 -62 188 -166q59 -106 59 -236v-4v-692h-434v189q-47 -95 -135 -156q-89 -62 -227 -62q-113 0 -207 48q-92 47 -148 133q-55 85 -55 198q0 176 129 252q132 78 342 99l291 28v8v5q0 66 -33 108q-34 43 -100 43q-64 0 -98 -37q-35 -38 -41 -86h-443
q15 123 92 209q76 85 203 129q125 43 283 43q202 0 330 -61zM768 303l-2 -2q47 71 47 184v2l-133 -12q-80 -9 -129 -37q-45 -26 -45 -86q0 -54 37 -88q36 -33 96 -33q82 0 129 72zM928 -426h-445v326h445v-326z" />
    <glyph glyph-name="uni1EB8" unicode="&#x1eb8;" horiz-adv-x="1368" 
d="M580 608v-239h702v-369h-1159v1556h1141v-368h-684v-211h669v-369h-669zM940 -430h-459v326h459v-326z" />
    <glyph glyph-name="uni1EB9" unicode="&#x1eb9;" horiz-adv-x="1327" 
d="M1272 446l-778 -4q15 -107 55 -159t108 -52q54 0 91 29q34 27 59 78h440q-61 -178 -217 -272q-157 -95 -371 -95q-180 0 -319 74q-138 74 -215 209q-76 134 -76 311q0 173 80 309q80 135 221 209q142 74 316 74t311 -70q141 -72 219 -210q80 -142 80 -345q0 -4 -4 -86z
M551 842h4q-42 -45 -57 -152h325q-9 98 -51 148q-42 51 -110 51q-67 0 -111 -47zM891 -434h-445v325h445v-325z" />
    <glyph glyph-name="uni1EBC" unicode="&#x1ebc;" horiz-adv-x="1368" 
d="M580 608v-239h702v-369h-1159v1556h1141v-368h-684v-211h669v-369h-669zM287 1665l-4 -2q0 177 65 272t184 95q46 0 95 -15t84 -30q53 -19 71 -25q27 -8 62 -8q48 0 78 24q32 26 41 62h137q-3 -178 -68 -273q-64 -94 -180 -94q-76 0 -180 43q-46 18 -68 25q-27 8 -63 8
q-45 0 -76 -25q-32 -26 -43 -57h-135z" />
    <glyph glyph-name="uni1EBD" unicode="&#x1ebd;" horiz-adv-x="1327" 
d="M1272 446l-778 -4q15 -107 55 -159t108 -52q54 0 91 29q34 27 59 78h440q-61 -178 -217 -272q-157 -95 -371 -95q-180 0 -319 74q-138 74 -215 209q-76 134 -76 311q0 173 80 309q80 135 221 209q142 74 316 74t311 -70q141 -72 219 -210q80 -142 80 -345q0 -4 -4 -86z
M551 842h4q-42 -45 -57 -152h325q-9 98 -51 148q-42 51 -110 51q-67 0 -111 -47zM276 1229h3q0 177 61 268q62 92 174 92q75 0 166 -45q70 -33 123 -33q45 0 76 25q30 24 39 61h131q-3 -177 -64 -268q-62 -92 -172 -92q-47 0 -90 14q-45 15 -78 31q-70 33 -123 33
q-45 0 -76 -25q-29 -23 -38 -61h-132z" />
    <glyph glyph-name="uni1ECA" unicode="&#x1eca;" horiz-adv-x="704" 
d="M580 0h-457v1556h457v-1556zM582 -430h-459v326h459v-326z" />
    <glyph glyph-name="uni1ECB" unicode="&#x1ecb;" horiz-adv-x="643" 
d="M543 0h-443v1128h443v-1128zM543 1231h-445v325h445v-325zM545 -430h-445v326h445v-326z" />
    <glyph glyph-name="uni1ECC" unicode="&#x1ecc;" horiz-adv-x="1759" 
d="M453 68v-5q-185 98 -291 281q-105 182 -105 430t105 430q106 183 291 281q186 98 426 98q244 0 430 -98q185 -98 290 -279q105 -182 105 -430t-105 -430q-104 -180 -290 -278q-187 -99 -430 -99q-239 0 -426 99zM1065 371v-4q80 56 123 157t43 246t-43 246
q-44 103 -123 158t-186 55t-187 -53t-123 -156q-43 -104 -43 -248t43 -248q42 -102 123 -155q82 -54 187 -54q106 0 186 56zM1108 -440h-459v325h459v-325z" />
    <glyph glyph-name="uni1ECD" unicode="&#x1ecd;" horiz-adv-x="1363" 
d="M346 47l-4 2q-145 77 -221 211t-76 305q0 169 78 307q76 134 221 211q143 76 338 76t338 -76q145 -77 221 -211q78 -138 78 -307q0 -173 -76 -307t-221 -211q-143 -76 -338 -76t-338 76zM815 340v-2q45 77 45 225t-45 225q-47 80 -137 80q-91 0 -135 -80
q-43 -79 -43 -225q0 -144 43 -223q44 -80 135 -80q90 0 137 80zM901 -432h-444v326h444v-326z" />
    <glyph glyph-name="uni1EE4" unicode="&#x1ee4;" horiz-adv-x="1597" 
d="M276 139l-4 -4q-168 168 -168 486v4v929h457v-981v-4q0 -119 62 -184q60 -63 174 -63q112 0 174 65q61 64 61 188v981h455v-929q0 -656 -688 -656q-355 0 -523 168zM1022 -434h-459v325h459v-325z" />
    <glyph glyph-name="uni1EE5" unicode="&#x1ee5;" horiz-adv-x="1343" 
d="M801 1128l440 2v-1128h-434v215q-43 -113 -129 -178q-87 -66 -234 -66q-356 0 -356 430v5v722h442v-614v-4q0 -122 33 -178q34 -58 105 -58t102 60t31 178v614zM895 -428h-444v326h444v-326z" />
    <glyph glyph-name="Ygrave" unicode="&#x1ef2;" horiz-adv-x="1515" 
d="M1040 1556h516l-569 -966v-590h-457v586l-569 970h514l283 -538zM1014 1659h-436l-420 326h614z" />
    <glyph glyph-name="ygrave" unicode="&#x1ef3;" horiz-adv-x="1327" 
d="M647 244l201 884h467l-365 -1529h-450l116 510h-346l-266 1019h438zM872 1223h-411l-400 333h592z" />
    <glyph glyph-name="uni1EF8" unicode="&#x1ef8;" horiz-adv-x="1515" 
d="M1040 1556h516l-569 -966v-590h-457v586l-569 970h514l283 -538zM350 1665l-4 -2q0 175 66 272q65 95 184 95q44 0 94 -15t84 -30q48 -18 72 -25q27 -8 61 -8q48 0 78 24q32 26 41 62h137q-3 -179 -67 -273t-181 -94q-76 0 -180 43q-49 20 -67 25q-27 8 -64 8
q-45 0 -76 -25q-32 -26 -43 -57h-135z" />
    <glyph glyph-name="uni1EF9" unicode="&#x1ef9;" horiz-adv-x="1327" 
d="M647 244l201 884h467l-365 -1529h-450l116 510h-346l-266 1019h438zM260 1233h2q0 176 62 268t174 92q75 0 166 -45q68 -32 122 -32q46 0 76 24t39 62h131q-3 -180 -63 -269q-62 -92 -172 -92q-47 0 -90 14q-45 15 -78 31q-70 33 -123 33q-45 0 -76 -25q-30 -24 -39 -61
h-131z" />
    <glyph glyph-name="uni2009" unicode="&#x2009;" horiz-adv-x="256" 
 />
    <glyph glyph-name="uni2011" unicode="&#x2011;" horiz-adv-x="905" 
d="M809 410h-713v362h713v-362z" />
    <glyph glyph-name="endash" unicode="&#x2013;" horiz-adv-x="1134" 
d="M1038 410h-942v362h942v-362z" />
    <glyph glyph-name="emdash" unicode="&#x2014;" horiz-adv-x="1755" 
d="M1659 410h-1563v362h1563v-362z" />
    <glyph glyph-name="quoteleft" unicode="&#x2018;" horiz-adv-x="620" 
d="M252 1556h283l-150 -303h147v-391h-450v443z" />
    <glyph glyph-name="quoteright" unicode="&#x2019;" horiz-adv-x="608" 
d="M92 1165v391h451v-442l-170 -252h-283l148 303h-146z" />
    <glyph glyph-name="quotesinglbase" unicode="&#x201a;" horiz-adv-x="661" 
d="M106 0v391h451v-442l-170 -252h-283l148 303h-146z" />
    <glyph glyph-name="quotedblleft" unicode="&#x201c;" horiz-adv-x="1171" 
d="M70 1305l170 251h282l-149 -303h147v-391h-450v443zM788 1556h283l-147 -303h147v-391h-453v443z" />
    <glyph glyph-name="quotedblright" unicode="&#x201d;" horiz-adv-x="1159" 
d="M655 1165v391h451v-442l-170 -252h-283l148 303h-146zM104 1165v391h451v-442l-170 -252h-283l148 303h-146z" />
    <glyph glyph-name="quotedblbase" unicode="&#x201e;" horiz-adv-x="1212" 
d="M657 0v391h451v-442l-170 -252h-283l148 303h-146zM106 0v391h451v-442l-170 -252h-283l148 303h-146z" />
    <glyph glyph-name="dagger" unicode="&#x2020;" horiz-adv-x="1267" 
d="M854 1204h311v-358h-311v-846h-442v846h-312v358h312v352h442v-352z" />
    <glyph glyph-name="daggerdbl" unicode="&#x2021;" horiz-adv-x="1267" 
d="M1165 1204v-358h-311v-135h311v-359h-311v-352h-442v352h-312v359h312v135h-312v358h312v352h442v-352h311z" />
    <glyph glyph-name="bullet" unicode="&#x2022;" horiz-adv-x="1079" 
d="M334 233q-92 56 -148 148q-55 91 -55 203q0 110 55 204t148 150q91 55 203 55q111 0 202 -55q93 -56 148 -150t55 -204q0 -112 -55 -203q-56 -92 -148 -148q-91 -55 -202 -55q-112 0 -203 55z" />
    <glyph glyph-name="ellipsis" unicode="&#x2026;" horiz-adv-x="1986" 
d="M557 0h-451v391h451v-391zM1219 0h-451v391h451v-391zM1882 0h-450v391h450v-391z" />
    <glyph glyph-name="perthousand" unicode="&#x2030;" horiz-adv-x="2547" 
d="M803 897l-4 -4q-49 -101 -137 -150t-213 -49q-128 0 -216 49q-87 49 -137 152q-49 101 -49 246q0 144 49 245t140 152q88 49 215 49q125 0 213 -49q92 -51 139 -149q49 -101 49 -246t-49 -246zM385 -4l897 1556h377l-897 -1556h-377zM375 967h-4q21 -49 71 -49
q49 0 70 49q20 47 20 170q0 121 -20 168q-21 49 -70 49q-48 0 -69 -49t-21 -168q0 -116 23 -170zM2298 805l-4 -4q91 -51 139 -150q49 -101 49 -245q0 -145 -49 -246t-137 -150t-213 -49q-152 0 -246 107q-94 -107 -246 -107q-127 0 -215 49q-87 49 -137 152
q-49 101 -49 246q0 144 49 245q49 102 139 152q88 49 215 49q153 0 246 -106q93 106 246 106q125 0 213 -49zM1640 211l-6 -2q21 24 29 67q10 52 10 127q0 123 -20 170q-21 50 -70 50t-70 -50q-20 -47 -20 -167q0 -114 23 -168q21 -50 71 -50q33 0 53 23zM2144 236l-8 -3
q23 54 23 168q0 121 -21 170q-21 50 -70 50q-48 0 -69 -50q-21 -49 -21 -168q0 -113 23 -167q21 -50 72 -50q50 0 71 50z" />
    <glyph glyph-name="minute" unicode="&#x2032;" horiz-adv-x="620" 
d="M412 905h-349l84 651h463z" />
    <glyph glyph-name="second" unicode="&#x2033;" horiz-adv-x="1150" 
d="M412 905h-349l84 651h463zM942 905h-348l84 651h463z" />
    <glyph glyph-name="guilsinglleft" unicode="&#x2039;" horiz-adv-x="942" 
d="M352 1020h525l-293 -449l293 -471h-525l-282 471z" />
    <glyph glyph-name="guilsinglright" unicode="&#x203a;" horiz-adv-x="942" 
d="M66 1020h524l282 -449l-282 -471h-524l292 471z" />
    <glyph glyph-name="uni2042" unicode="&#x2042;" horiz-adv-x="1738" 
d="M1198 1427l80 -233l-199 -66l135 -174l-206 -151l-140 182l-139 -182l-205 151l135 174l-200 66l84 233l196 -65v194h260v-194zM717 602l80 -233l-199 -66l135 -174l-207 -152l-139 183l-139 -183l-205 152l135 174l-201 66l84 233l197 -65v194h260v-194zM1679 602
l80 -233l-198 -66l135 -174l-207 -152l-139 183l-140 -183l-204 152l135 174l-201 66l84 233l197 -65v194h260v-194z" />
    <glyph glyph-name="fraction" unicode="&#x2044;" horiz-adv-x="493" 
d="M-63 0h-340l960 1556h340z" />
    <glyph glyph-name="uni2070" unicode="&#x2070;" horiz-adv-x="780" 
d="M127 1075q-92 103 -92 301t92 301t264 103q170 0 262 -103t92 -301t-92 -301q-91 -102 -262 -102q-173 0 -264 102zM463 1217q20 47 20 157q0 111 -20 158q-21 49 -74 49t-74 -49q-20 -47 -20 -158q0 -110 20 -157q21 -50 74 -50t74 50z" />
    <glyph glyph-name="uni2074" unicode="&#x2074;" horiz-adv-x="778" 
d="M647 1356h101v-203h-101v-166h-256v166h-358v256l151 356h463v-409zM391 1673l-141 -317h141v317z" />
    <glyph glyph-name="uni2075" unicode="&#x2075;" horiz-adv-x="759" 
d="M600 1489l-6 -4q58 -27 92 -88q35 -62 35 -150q0 -95 -45 -155q-48 -64 -123 -93q-76 -30 -172 -30q-95 0 -172 30q-75 29 -123 93q-45 59 -51 145h266q3 -34 25 -53t59 -19q33 0 59 23q25 22 25 59q0 38 -25 60t-63 22q-28 0 -49 -12q-22 -13 -31 -33l-256 23l37 458
h588v-202h-348l-13 -154q21 52 66 80q47 29 102 29q60 0 123 -29z" />
    <glyph glyph-name="uni2076" unicode="&#x2076;" horiz-adv-x="782" 
d="M614 1475q59 -29 99 -91q37 -58 37 -141q0 -76 -43 -137q-42 -60 -123 -98q-78 -37 -185 -37q-165 0 -262 100q-98 101 -98 303q0 133 47 225t127 136q79 43 188 43q97 0 170 -31q69 -29 111 -84q40 -52 49 -117h-262q-9 18 -25 31q-15 12 -41 12q-59 0 -86 -55
q-26 -53 -26 -133q15 44 65 74t117 30q79 0 141 -30zM461 1188q24 21 24 55t-24 55t-68 21q-43 0 -67 -21q-25 -22 -25 -55t25 -55q26 -23 67 -23q42 0 68 23z" />
    <glyph glyph-name="uni2077" unicode="&#x2077;" horiz-adv-x="641" 
d="M25 1563v202h585v-256l-262 -522h-309l319 576h-333z" />
    <glyph glyph-name="uni2078" unicode="&#x2078;" horiz-adv-x="790" 
d="M700 1327l9 -4q55 -49 55 -123q0 -69 -43 -121q-44 -54 -125 -80q-86 -28 -197 -28q-110 0 -196 28q-81 26 -125 80q-43 52 -43 123q0 76 55 125q56 50 152 62q-187 49 -187 178q0 68 43 114q45 48 121 72q80 25 176 25t176 -25q76 -24 121 -72q43 -46 43 -114
q0 -129 -186 -178q95 -12 151 -62zM340 1565l-2 -9q-23 -16 -23 -38q0 -23 23 -39q21 -15 61 -15q38 0 62 17q22 16 22 41t-22 41t-60 16q-41 0 -61 -14zM471 1171l-2 -2q29 19 29 50q0 28 -29 47q-27 18 -72 18q-46 0 -73 -18t-27 -45q0 -32 27 -50t73 -18q47 0 74 18z" />
    <glyph glyph-name="uni2079" unicode="&#x2079;" horiz-adv-x="782" 
d="M647 1679l-6 -4q98 -101 98 -303q0 -134 -45 -223q-46 -91 -127 -135q-79 -43 -186 -43q-99 0 -170 30q-69 29 -111 84q-40 52 -49 117h262q9 -18 25 -31q15 -12 41 -12q59 0 86 55q29 60 29 134q-15 -43 -66 -74t-117 -31q-77 0 -141 31q-59 29 -98 90q-37 58 -37 141
q0 79 43 140q42 60 123 98q78 37 184 37q164 0 262 -101zM451 1450v-2q24 21 24 55q0 35 -24 56q-25 22 -68 22q-45 0 -68 -20q-24 -21 -24 -56q0 -34 24 -55q23 -20 68 -20t68 20z" />
    <glyph glyph-name="uni207A" unicode="&#x207a;" horiz-adv-x="671" 
d="M432 1462h189v-188h-189v-193h-192v193h-189v188h189v191h192v-191z" />
    <glyph glyph-name="uni207B" unicode="&#x207b;" horiz-adv-x="624" 
d="M565 1274h-506v188h506v-188z" />
    <glyph glyph-name="uni207C" unicode="&#x207c;" horiz-adv-x="690" 
d="M627 1395h-564v186h564v-186zM627 1155h-564v188h564v-188z" />
    <glyph glyph-name="uni207D" unicode="&#x207d;" horiz-adv-x="499" 
d="M215 883h2q-160 248 -160 493q0 142 43 258t115 226h254q-73 -115 -115 -228q-43 -116 -43 -258q0 -245 158 -491h-254z" />
    <glyph glyph-name="uni207E" unicode="&#x207e;" horiz-adv-x="499" 
d="M31 883l2 4q157 245 157 491q0 140 -43 256q-43 114 -114 230h254q71 -116 114 -230q43 -116 43 -258q0 -247 -159 -493h-254z" />
    <glyph glyph-name="uni2080" unicode="&#x2080;" horiz-adv-x="780" 
d="M127 -145q-92 103 -92 301t92 301q91 102 264 102q171 0 262 -102q92 -103 92 -301t-92 -301t-262 -103q-172 0 -264 103zM463 -4q20 47 20 158q0 110 -20 157q-21 49 -74 49t-74 -49q-20 -47 -20 -157q0 -111 20 -158q21 -49 74 -49t74 49z" />
    <glyph glyph-name="uni2081" unicode="&#x2081;" horiz-adv-x="505" 
d="M233 545l209 -2v-779h-256v459h-168v203h15q83 0 129 27t67 79z" />
    <glyph glyph-name="uni2082" unicode="&#x2082;" horiz-adv-x="747" 
d="M338 -31h367v-202h-666v256l354 237q20 14 31 29q10 13 10 28q0 22 -16 35t-43 13q-32 0 -51 -19t-19 -47h-262q0 78 45 135q45 56 121 92q70 33 164 33q93 0 172 -29q75 -28 114 -81q41 -56 41 -130q0 -68 -36 -116q-35 -47 -107 -94z" />
    <glyph glyph-name="uni2083" unicode="&#x2083;" horiz-adv-x="737" 
d="M641 109q61 -46 61 -129q0 -71 -40 -123q-41 -53 -117 -80q-77 -27 -180 -27q-160 0 -246 74q-85 73 -94 199h262q0 -35 18 -56q17 -20 60 -20q33 0 55 16t22 43q0 35 -34 47q-37 13 -93 13h-63v196h63q57 0 84 17q25 16 25 36t-16 33q-15 12 -43 12q-30 0 -48 -18
t-18 -45h-262q6 77 49 135q45 61 117 90q76 31 159 31q91 0 168 -25q75 -25 115 -73q41 -50 41 -113q0 -84 -51 -123q-51 -40 -148 -55q93 -9 154 -55z" />
    <glyph glyph-name="uni2084" unicode="&#x2084;" horiz-adv-x="778" 
d="M647 135h101v-203h-101v-165h-256v165h-358v256l151 357h463v-410zM391 453l-141 -318h141v318z" />
    <glyph glyph-name="uni2085" unicode="&#x2085;" horiz-adv-x="759" 
d="M600 268l-6 -4q58 -27 92 -88q35 -62 35 -149q0 -96 -45 -156q-47 -62 -123 -92q-79 -31 -172 -31t-172 31q-76 30 -123 92q-45 59 -51 145h266q3 -34 25 -53q21 -18 59 -18q34 0 59 22t25 60q0 37 -25 59q-26 23 -63 23q-26 0 -49 -13q-22 -13 -31 -33l-256 23l37 459
h588v-203h-348l-13 -154q21 52 66 80q47 29 102 29q60 0 123 -29z" />
    <glyph glyph-name="uni2086" unicode="&#x2086;" horiz-adv-x="782" 
d="M614 254q60 -29 99 -90q37 -58 37 -141q0 -77 -43 -138q-42 -60 -123 -98q-78 -37 -185 -37q-165 0 -262 100q-98 101 -98 304q0 133 47 225q46 91 127 135q79 43 188 43q97 0 170 -31q69 -29 111 -84q40 -52 49 -116h-262q-8 17 -25 30q-16 13 -41 13q-59 0 -86 -56
q-26 -53 -26 -133q15 44 65 74q51 31 117 31q77 0 141 -31zM461 -33q24 21 24 56q0 34 -24 55q-23 20 -68 20q-44 0 -67 -20q-25 -22 -25 -55q0 -34 25 -56t67 -22q43 0 68 22z" />
    <glyph glyph-name="uni2087" unicode="&#x2087;" horiz-adv-x="641" 
d="M25 342v203h585v-256l-262 -522h-309l319 575h-333z" />
    <glyph glyph-name="uni2088" unicode="&#x2088;" horiz-adv-x="790" 
d="M700 106l9 -4q55 -49 55 -122q0 -69 -43 -121q-44 -54 -125 -80q-89 -29 -197 -29q-107 0 -196 29q-81 26 -125 80q-43 52 -43 123q0 75 55 124q56 50 152 62q-187 49 -187 178q0 69 43 115q44 47 121 71q80 25 176 25t176 -25q77 -24 121 -71q43 -46 43 -115
q0 -129 -186 -178q95 -12 151 -62zM340 344l-2 -8q-23 -16 -23 -39t23 -39q20 -14 61 -14q40 0 62 16t22 41t-22 41t-60 16q-41 0 -61 -14zM471 -49l-2 -2q29 19 29 49q0 28 -29 47q-27 18 -72 18q-46 0 -73 -18t-27 -45q0 -31 27 -49q28 -19 73 -19t74 19z" />
    <glyph glyph-name="uni2089" unicode="&#x2089;" horiz-adv-x="782" 
d="M647 459l-6 -4q98 -101 98 -303q0 -135 -45 -224q-46 -91 -127 -135q-79 -43 -186 -43q-97 0 -170 31q-69 29 -111 84q-40 52 -49 117h262q9 -18 25 -31q15 -12 41 -12q59 0 86 55q29 60 29 133q-15 -43 -66 -74q-50 -30 -117 -30q-79 0 -141 30q-59 29 -98 90
q-37 58 -37 142q0 78 43 139q42 60 123 98q78 37 184 37q165 0 262 -100zM451 229v-2q24 21 24 56q0 34 -24 55q-25 22 -68 22q-45 0 -68 -20q-24 -21 -24 -55q0 -35 24 -56q23 -20 68 -20t68 20z" />
    <glyph glyph-name="uni208A" unicode="&#x208a;" horiz-adv-x="671" 
d="M432 242h189v-189h-189v-192h-192v192h-189v189h189v190h192v-190z" />
    <glyph glyph-name="uni208B" unicode="&#x208b;" horiz-adv-x="624" 
d="M565 53h-506v189h506v-189z" />
    <glyph glyph-name="uni208C" unicode="&#x208c;" horiz-adv-x="690" 
d="M627 174h-564v186h564v-186zM627 -66h-564v189h564v-189z" />
    <glyph glyph-name="uni208D" unicode="&#x208d;" horiz-adv-x="499" 
d="M213 -338h2q-160 248 -160 494q0 142 43 258q42 113 115 225h254q-74 -116 -115 -227q-43 -116 -43 -258q0 -246 158 -492h-254z" />
    <glyph glyph-name="uni208E" unicode="&#x208e;" horiz-adv-x="499" 
d="M33 -338l2 4q158 246 158 492q0 140 -43 256q-40 108 -115 229h254q72 -117 114 -229q43 -116 43 -258q0 -248 -159 -494h-254z" />
    <glyph glyph-name="uni20A9" unicode="&#x20a9;" horiz-adv-x="2123" 
d="M2044 1124v-301h-238l-8 -114h199v-301h-219l-29 -408h-602l-84 1483l-82 -1483h-604l-29 408h-221v301h201l-9 114h-237v301h217l-31 432h336l88 -1458l94 1458h555l93 -1458l90 1458h334l-31 -432h217z" />
    <glyph glyph-name="Euro" unicode="&#x20ac;" horiz-adv-x="1736" 
d="M1657 446l4 -4q-79 -236 -252 -356q-171 -119 -405 -119q-168 0 -308 64q-138 63 -241 184q-101 119 -148 289h-241l79 227h127v45v41h-184l82 227h135q47 170 144 291q98 122 237 187q135 63 301 63q154 0 285 -55q134 -56 227 -160q97 -107 148 -254h-459
q-65 146 -201 146q-81 0 -137 -56q-58 -58 -84 -159h518l-80 -228h-469v-41v-45h439l-80 -227h-326q64 -211 233 -211q123 0 197 151h459z" />
    <glyph glyph-name="uni20B8" unicode="&#x20b8;" horiz-adv-x="1357" 
d="M59 1255v301h1239v-301h-1239zM453 854h-394v301h1239v-301h-393v-854h-452v854z" />
    <glyph glyph-name="uni20B9" unicode="&#x20b9;" horiz-adv-x="1482" 
d="M1413 1255l-305 -2q24 -63 29 -112h270v-299h-326q-64 -105 -184 -166q-124 -63 -283 -78l738 -600h-647l-603 516v438h412q79 0 123 33q45 33 45 92q0 60 -43 90q-45 31 -121 31h-412v358h1307v-301z" />
    <glyph glyph-name="uni20BA" unicode="&#x20ba;" horiz-adv-x="1558" 
d="M1503 645q0 -335 -172 -491q-173 -156 -512 -156h-571v483l-142 -43v301l142 43v103l-142 -43v301l142 43v368h452v-229l357 111v-301l-357 -111v-102l357 110v-301l-357 -110v-265h82q104 0 164 31t84 92q25 64 25 166h448z" />
    <glyph glyph-name="uni20BD" unicode="&#x20bd;" horiz-adv-x="1605" 
d="M721 600l-2 -104h344v-299h-344v-199h-451v199h-166v299h166v102h-166v301h166v655h584q221 0 373 -55q155 -56 231 -164q78 -110 78 -264q0 -233 -174 -352t-506 -119h-133zM719 1196v-295h153q98 0 146 39q49 40 49 111t-49 108t-146 37h-153z" />
    <glyph glyph-name="uni20BF" unicode="&#x20bf;" horiz-adv-x="1476" 
d="M1329 207l-2 2q-71 -96 -215 -148v-325h-381v268h-65v-268h-381v268h-148v1557h148v258h381v-258h65v258h381v-322q128 -53 191 -143q63 -89 63 -205q0 -152 -104 -240t-271 -118q115 -12 207 -56q94 -45 148 -119q55 -76 55 -184q0 -128 -72 -225zM868 1169
q-40 37 -108 37h-172v-264h172q68 0 108 37q41 38 41 94q0 58 -41 96zM756 350q52 0 98 19q44 18 68 53q24 34 24 74q0 38 -24 73q-25 36 -68 54q-44 18 -98 18h-168v-291h168z" />
    <glyph glyph-name="uni2113" unicode="&#x2113;" horiz-adv-x="1339" 
d="M735 584l-4 -195v-4q0 -123 154 -123q113 0 233 66v-275q-92 -43 -174 -61q-84 -19 -182 -19q-218 0 -336 95t-133 270l-100 -55l-142 249l240 134v475q0 126 61 227q61 102 178 160q118 59 281 59q167 0 279 -53q110 -52 163 -141q54 -91 54 -197q0 -113 -50 -205
t-139 -166q-91 -76 -221 -151zM760 1262h-4q-29 -40 -29 -107v-233q89 68 139 133q49 64 49 135q0 54 -20 80q-22 28 -61 28q-48 0 -74 -36z" />
    <glyph glyph-name="uni2116" unicode="&#x2116;" horiz-adv-x="2789" 
d="M2535 1534q101 -53 152 -143q53 -92 53 -209t-53 -209q-52 -91 -152 -144q-96 -51 -233 -51t-236 51q-100 51 -153 144q-53 92 -53 209t53 209q52 91 153 143q99 51 236 51t233 -51zM932 1556l371 -1423v1423h415v-1556h-786l-371 1423v-1423h-416v1556h787zM2365 1053
h-2q23 48 23 131q0 176 -88 176q-90 0 -90 -176q0 -174 90 -174q46 0 67 43z" />
    <glyph glyph-name="uni2117" unicode="&#x2117;" horiz-adv-x="1859" 
d="M1352 1505l-4 -8q193 -114 307 -307t114 -420q0 -230 -112 -420q-114 -193 -307 -307q-192 -113 -424 -113q-229 0 -424 115q-193 114 -307 307q-113 192 -113 422q0 227 115 422q114 193 307 307q195 115 424 115q232 0 424 -113zM1241 223l-4 -4q143 85 227 232t84 313
t-84 313t-227 232q-145 86 -315 86q-171 0 -316 -86q-144 -86 -227 -230q-84 -147 -84 -313t84 -313q83 -144 227 -230q145 -86 318 -86q172 0 317 86zM997 1204h-2q128 0 207 -39q82 -40 125 -110t43 -162t-43 -162t-125 -110q-79 -39 -205 -39h-110v-267h-295v889h405z
M977 821h-2q39 0 61 19q23 20 23 53q0 35 -21 53q-22 19 -61 19h-92v-144h92z" />
    <glyph glyph-name="uni2120" unicode="&#x2120;" horiz-adv-x="2064" 
d="M618 1257l-4 15q101 -21 160 -86q57 -63 57 -166q0 -127 -100 -193q-101 -67 -272 -67q-100 0 -185 31q-81 29 -135 90q-52 58 -61 141h282q11 -35 41 -55q28 -19 74 -19q42 0 68 13q24 12 24 32q0 19 -24 31q-28 14 -76 25l-135 26q-110 20 -174 84q-62 62 -62 160
q0 78 45 135q46 58 125 92q76 33 180 33q167 0 256 -68q91 -69 117 -172h-284q-10 24 -33 35q-24 12 -56 12q-34 0 -55 -12q-22 -13 -22 -31q0 -10 10 -20q9 -9 37 -18q37 -12 67 -19zM1939 1571v-795h-258v674l-79 -674h-396l-78 672v-672h-258v795h476l59 -596l57 596h477
z" />
    <glyph glyph-name="trademark" unicode="&#x2122;" horiz-adv-x="1982" 
d="M260 1319h-207v237h703v-237h-207v-557h-289v557zM1864 1556v-794h-258v674l-80 -674h-396l-77 672v-672h-258v794h475l59 -595l57 595h478z" />
    <glyph glyph-name="uni2150" unicode="&#x2150;" horiz-adv-x="1714" 
d="M1075 575v203h586v-256l-262 -522h-309l319 575h-334zM270 1556l209 -2v-778h-256v459h-168v203h15q84 0 129 26q46 26 67 80zM483 -2h-340l961 1556h340z" />
    <glyph glyph-name="uni2151" unicode="&#x2151;" horiz-adv-x="1753" 
d="M1604 692l-7 -4q99 -102 99 -303q0 -134 -45 -223q-46 -91 -127 -135q-79 -43 -187 -43q-99 0 -170 30q-67 29 -110 84q-40 52 -49 117h262q10 -20 24 -31q15 -12 41 -12q59 0 86 55q29 60 29 133q-14 -42 -66 -73q-51 -31 -116 -31q-78 0 -142 31q-59 29 -98 90
q-37 58 -37 141q0 78 43 139q44 61 123 99q78 37 184 37q165 0 263 -101zM1407 463v-2q25 22 25 55t-25 55q-26 23 -68 23q-43 0 -67 -21q-25 -22 -25 -55t25 -55q24 -21 67 -21q44 0 68 21zM262 1550l209 -2v-778h-256v459h-168v203h14q84 0 129 26q47 27 68 80zM475 -8
h-340l961 1556h340z" />
    <glyph glyph-name="uni2152" unicode="&#x2152;" horiz-adv-x="2306" 
d="M1262 778l208 -2v-778h-256v459h-167v202h14q83 0 129 27q46 26 67 80zM1642 86q-92 103 -92 301t92 301t265 103q170 0 262 -103t92 -301t-92 -301q-91 -102 -262 -102q-173 0 -265 102zM1978 227q21 49 21 158t-21 158t-73 49q-53 0 -74 -49t-21 -158t21 -158t74 -49
q52 0 73 49zM272 1552l209 -2v-778h-256v459h-168v203h15q84 0 129 26q46 26 67 80zM485 -6h-340l961 1556h340z" />
    <glyph glyph-name="uni2153" unicode="&#x2153;" horiz-adv-x="1708" 
d="M268 1556l209 -2v-778h-256v459h-168v203h15q84 0 129 26q46 26 67 80zM481 -2h-340l961 1556h340zM1595 340q62 -47 62 -129q0 -70 -41 -123t-117 -80q-74 -26 -180 -26q-161 0 -246 73t-94 199h262q0 -33 19 -55q18 -21 59 -21q31 0 55 17q23 16 23 43q0 35 -35 47
q-34 12 -92 12h-64v197h64q58 0 84 16q24 15 24 37q0 20 -16 33q-15 12 -43 12t-47 -19t-19 -45h-262q6 78 49 136q45 61 117 90q73 30 160 30q95 0 168 -24t114 -74t41 -113q0 -83 -51 -122q-53 -41 -147 -56q92 -9 153 -55z" />
    <glyph glyph-name="uni2154" unicode="&#x2154;" horiz-adv-x="1929" 
d="M358 981h367v-203h-666v256l355 238q19 14 30 28q11 15 11 29q0 21 -17 35q-15 12 -43 12q-33 0 -51 -18t-18 -47h-263q0 77 46 135q45 57 120 92q70 33 164 33q93 0 172 -29q75 -28 115 -82q41 -56 41 -129q0 -68 -37 -117q-36 -48 -106 -94zM700 0h-340l961 1556h340z
M1815 342q61 -46 61 -129q0 -70 -41 -123t-117 -80q-74 -26 -180 -26q-161 0 -246 73t-94 199h262q0 -33 19 -55q18 -21 59 -21q31 0 55 17q23 16 23 43q0 35 -35 47t-92 12h-64v197h64q58 0 84 16q24 15 24 37q0 20 -16 33q-15 12 -43 12t-47 -19q-18 -18 -18 -45h-263
q6 77 50 136q46 61 116 90q74 30 160 30q94 0 168 -24t115 -74t41 -113q0 -82 -52 -122q-53 -41 -147 -56q93 -9 154 -55z" />
    <glyph glyph-name="uni2155" unicode="&#x2155;" horiz-adv-x="1779" 
d="M1599 502l-6 -4q59 -27 93 -88t34 -150q0 -96 -45 -156q-47 -62 -123 -92t-172 -30t-172 30t-123 92q-45 59 -51 146h266q3 -34 25 -53t59 -19q34 0 60 23q24 21 24 59t-24 59q-26 23 -64 23q-28 0 -49 -12q-22 -13 -31 -33l-256 22l37 459h588v-203h-348l-12 -153
q21 53 65 80q45 28 103 28q61 0 122 -28zM262 1552l209 -2v-778h-256v459h-168v203h14q84 0 129 26q47 27 68 80zM475 -6h-340l961 1556h340z" />
    <glyph glyph-name="uni2156" unicode="&#x2156;" horiz-adv-x="2004" 
d="M360 981h367v-203h-666v256l355 238q19 14 30 28q11 15 11 29q0 21 -17 35q-15 12 -43 12q-33 0 -51 -18t-18 -47h-262q0 78 45 135t120 92q70 33 164 33q93 0 172 -29q75 -28 115 -82q41 -56 41 -129q0 -68 -37 -117q-36 -48 -106 -94zM702 0h-340l961 1556h340z
M1823 502l-6 -4q58 -27 92 -88q35 -62 35 -150q0 -95 -46 -156q-47 -63 -122 -92q-76 -30 -172 -30t-172 30t-123 92q-46 61 -52 146h267q3 -35 24 -53q22 -19 60 -19q33 0 59 23q25 22 25 59t-25 59q-26 23 -63 23q-29 0 -50 -12t-30 -33l-256 22l37 459h587v-203h-348
l-12 -153q21 53 65 80q45 28 103 28q62 0 123 -28z" />
    <glyph glyph-name="uni2157" unicode="&#x2157;" horiz-adv-x="1929" 
d="M670 1120q61 -46 61 -129q0 -70 -41 -123t-117 -80q-74 -26 -180 -26q-160 0 -246 74q-85 73 -94 198h262q0 -33 19 -55q18 -21 59 -21q32 0 56 17q22 16 22 43q0 35 -35 47q-34 12 -92 12h-63v197h63q58 0 84 16q25 16 25 37q0 19 -17 33q-15 12 -43 12q-29 0 -47 -18
t-18 -45h-262q6 77 49 135q46 61 116 90q76 31 160 31q91 0 168 -25q74 -24 115 -74t41 -112q0 -84 -51 -123q-51 -40 -148 -55q92 -9 154 -56zM627 -2h-340l960 1556h340zM1747 500l-6 -4q58 -27 92 -88q35 -62 35 -150q0 -96 -45 -156q-47 -62 -123 -92t-172 -30t-172 30
t-123 92q-45 59 -51 146h266q3 -34 25 -53t59 -19q33 0 59 23q25 22 25 59t-25 59q-26 23 -63 23q-28 0 -49 -12q-22 -13 -31 -33l-256 22l37 459h588v-203h-349l-12 -153q21 52 66 80t102 28q62 0 123 -28z" />
    <glyph glyph-name="uni2158" unicode="&#x2158;" horiz-adv-x="1992" 
d="M666 1147h100v-203h-100v-166h-256v166h-359v256l152 356h463v-409zM410 1464l-142 -317h142v317zM690 0h-340l961 1556h340zM1810 502l-6 -4q58 -27 92 -88q35 -62 35 -150q0 -96 -45 -156q-47 -62 -123 -92q-77 -30 -172 -30t-172 30q-76 30 -123 92q-45 59 -51 146
h266q3 -34 25 -53t59 -19q34 0 60 23q24 21 24 59t-24 59q-26 23 -64 23q-28 0 -49 -12q-22 -13 -31 -33l-256 22l37 459h588v-203h-348l-12 -153q21 53 65 80q45 28 103 28q61 0 122 -28z" />
    <glyph glyph-name="uni2159" unicode="&#x2159;" horiz-adv-x="1730" 
d="M1544 487q59 -29 98 -90q37 -58 37 -141q0 -76 -43 -137q-44 -61 -123 -99q-76 -36 -184 -36q-165 0 -262 100q-98 101 -98 303q0 133 47 225t127 136q79 43 188 43q97 0 170 -31q69 -29 111 -84q40 -52 49 -117h-262q-9 18 -25 31q-15 12 -41 12q-59 0 -86 -55
q-26 -53 -26 -133q15 42 65 73q51 31 117 31q77 0 141 -31zM1391 201q24 21 24 55t-24 55t-68 21t-68 -21t-24 -55t24 -55q26 -23 68 -23t68 23zM266 1554l209 -2v-778h-256v459h-168v203h15q84 0 129 26q46 26 67 80zM479 -4h-340l961 1556h340z" />
    <glyph glyph-name="uni215A" unicode="&#x215a;" horiz-adv-x="1875" 
d="M618 1280l-6 -4q59 -27 93 -88t34 -150q0 -95 -45 -155q-47 -62 -123 -92q-79 -31 -172 -31t-172 31q-76 30 -123 92q-45 59 -51 145h266q3 -34 25 -53t59 -19q34 0 60 23q24 21 24 59q0 39 -24 60q-25 22 -64 22q-28 0 -49 -12q-22 -13 -31 -33l-256 23l37 458h588v-202
h-348l-12 -154q21 53 65 80q47 29 103 29q59 0 122 -29zM623 -4h-340l960 1556h340zM1686 483q59 -29 98 -90q37 -58 37 -141q0 -76 -43 -137q-44 -61 -123 -99q-76 -36 -185 -36q-165 0 -262 100q-98 101 -98 303q0 133 47 225q46 91 127 135q79 43 189 43q99 0 169 -30
q69 -29 111 -84q40 -52 49 -117h-262q-10 20 -24 31q-15 12 -41 12q-59 0 -86 -55q-27 -56 -27 -133q15 42 65 73q51 31 117 31q78 0 142 -31zM1532 197q24 21 24 55t-24 55t-68 21q-43 0 -67 -21q-25 -22 -25 -55t25 -55q26 -23 67 -23q42 0 68 23z" />
    <glyph glyph-name="oneeighth" unicode="&#x215b;" horiz-adv-x="1765" 
d="M1657 340l8 -4q55 -49 55 -123q0 -69 -43 -121q-44 -54 -125 -80q-86 -28 -196 -28q-111 0 -197 28q-81 26 -125 80q-43 52 -43 123q0 75 56 125q55 49 151 61q-186 49 -186 179q0 68 43 114q45 48 121 72q80 25 176 25t176 -25q76 -24 121 -72q43 -46 43 -114
q0 -130 -187 -179q97 -12 152 -61zM1296 578l-2 -9q-22 -16 -22 -39q0 -22 22 -38q21 -15 62 -15q37 0 61 17q23 16 23 41q0 24 -23 40q-24 17 -59 17q-42 0 -62 -14zM1427 184l-2 -2q29 19 29 49q0 29 -29 48q-27 18 -71 18q-47 0 -74 -18t-27 -46q0 -31 27 -49t74 -18
q46 0 73 18zM268 1540l209 -2v-778h-256v459h-168v202h15q82 0 129 27q46 26 67 80zM481 -18h-340l961 1556h340z" />
    <glyph glyph-name="threeeighths" unicode="&#x215c;" horiz-adv-x="1912" 
d="M670 1120q61 -46 61 -129q0 -70 -41 -123t-117 -80q-74 -26 -180 -26q-160 0 -246 74q-85 73 -94 198h262q0 -33 19 -55q18 -21 59 -21q32 0 56 17q22 16 22 43q0 35 -35 47q-34 12 -92 12h-63v197h63q58 0 84 16q25 16 25 37q0 19 -17 33q-15 12 -43 12q-29 0 -47 -18
t-18 -45h-262q6 77 49 135q46 61 116 90q76 31 160 31q91 0 168 -25q74 -24 115 -74t41 -112q0 -84 -51 -123q-51 -40 -148 -55q92 -9 154 -56zM627 -2h-340l960 1556h340zM1804 338l8 -4q56 -50 56 -123q0 -69 -43 -121q-44 -54 -125 -80q-86 -28 -197 -28q-110 0 -196 28
q-81 26 -125 80q-43 52 -43 123q0 76 55 125t152 61q-187 49 -187 179q0 68 43 114q45 48 121 72q77 24 176 24t176 -24q76 -24 121 -72q43 -46 43 -114q0 -130 -186 -179q96 -12 151 -61zM1444 575l-2 -8q-23 -16 -23 -39t23 -39q20 -14 61 -14q38 0 62 17q22 16 22 40
q0 25 -22 41q-24 17 -60 17q-40 0 -61 -15zM1575 182l-2 -2q29 19 29 49q0 28 -29 47t-72 19q-45 0 -74 -19q-26 -17 -26 -45q0 -32 26 -49q27 -18 74 -18t74 18z" />
    <glyph glyph-name="fiveeighths" unicode="&#x215d;" horiz-adv-x="1912" 
d="M618 1280l-6 -4q59 -27 93 -88t34 -150q0 -95 -45 -155q-47 -62 -123 -92q-79 -31 -172 -31t-172 31q-76 30 -123 92q-45 59 -51 145h266q3 -34 25 -53t59 -19q34 0 60 23q24 21 24 59q0 39 -24 60q-25 22 -64 22q-28 0 -49 -12q-22 -13 -31 -33l-256 23l37 458h588v-202
h-348l-12 -154q21 53 65 80q47 29 103 29q59 0 122 -29zM623 -4h-340l960 1556h340zM1798 336l8 -4q56 -50 56 -123q0 -69 -43 -121q-44 -54 -125 -80q-86 -28 -197 -28t-197 28q-79 26 -124 80q-43 52 -43 123q0 76 55 125t151 61q-186 49 -186 178q0 69 43 115
q45 48 121 72q77 24 176 24t176 -24q76 -24 121 -72q43 -46 43 -115q0 -129 -186 -178q96 -12 151 -61zM1438 573l-2 -8q-23 -16 -23 -39t23 -39q20 -14 61 -14q40 0 62 16t22 41t-22 41q-24 17 -60 17q-40 0 -61 -15zM1569 180l-2 -2q28 19 28 49q0 28 -28 47
q-29 19 -72 19q-45 0 -74 -19q-26 -17 -26 -45q0 -32 26 -49q27 -18 74 -18t74 18z" />
    <glyph glyph-name="seveneighths" unicode="&#x215e;" horiz-adv-x="1814" 
d="M68 1354v202h585v-256l-262 -522h-309l319 576h-333zM528 0h-340l961 1556h340zM1706 340l8 -4q55 -49 55 -123q0 -69 -43 -121q-45 -54 -124 -80q-86 -28 -197 -28t-197 28q-81 26 -125 80q-43 52 -43 123q0 75 56 125q55 49 151 61q-186 49 -186 179q0 68 43 114
q45 48 121 72q80 25 176 25t176 -25q76 -24 121 -72q43 -46 43 -114q0 -130 -187 -179q97 -12 152 -61zM1346 578l-3 -9q-22 -16 -22 -39q0 -22 22 -38q21 -15 62 -15q37 0 61 17q23 16 23 41q0 24 -23 40q-24 17 -59 17q-41 0 -61 -14zM1477 184l-2 -2q28 19 28 49
q0 29 -28 48q-27 18 -72 18q-47 0 -74 -18q-26 -17 -26 -46q0 -32 26 -49q27 -18 74 -18t74 18z" />
    <glyph glyph-name="uni215F" unicode="&#x215f;" horiz-adv-x="1507" 
d="M305 1556l209 -2v-778h-256v459h-168v203h14q84 0 129 26q47 27 68 80zM518 -2h-340l961 1556h340z" />
    <glyph glyph-name="uni2189" unicode="&#x2189;" horiz-adv-x="1865" 
d="M143 866q-92 103 -92 301t92 301t265 103q170 0 262 -103t92 -301t-92 -301q-92 -102 -262 -102q-174 0 -265 102zM479 1008q21 50 21 157q0 109 -21 158t-73 49q-53 0 -74 -49t-21 -158q0 -107 21 -157t74 -50q52 0 73 50zM637 -2h-340l960 1556h340zM1749 340
q61 -46 61 -129q0 -70 -41 -123q-41 -54 -116 -80q-74 -26 -180 -26q-161 0 -246 73t-94 199h262q0 -34 18 -55t60 -21q31 0 55 17q22 16 22 43q0 35 -34 47t-93 12h-63v197h63q58 0 84 16q25 16 25 37q0 20 -16 33q-15 12 -43 12q-29 0 -48 -19q-18 -18 -18 -45h-262
q6 78 49 136q45 61 117 90q73 30 159 30q94 0 168 -24t115 -74t41 -113q0 -83 -51 -122q-53 -41 -148 -56q93 -9 154 -55z" />
    <glyph glyph-name="arrowleft" unicode="&#x2190;" horiz-adv-x="1576" 
d="M666 975h837v-391h-837l338 -389h-486l-422 585l422 586h486z" />
    <glyph glyph-name="arrowup" unicode="&#x2191;" horiz-adv-x="1576" 
d="M788 1483l586 -422v-486l-391 338v-837h-389v837l-391 -338v486z" />
    <glyph glyph-name="arrowright" unicode="&#x2192;" horiz-adv-x="1576" 
d="M573 1366h486l422 -586l-422 -585h-486l338 389h-837v391h837z" />
    <glyph glyph-name="arrowdown" unicode="&#x2193;" horiz-adv-x="1576" 
d="M983 1481v-838l391 338v-485l-586 -422l-585 422v485l391 -338v838h389z" />
    <glyph glyph-name="uni2196" unicode="&#x2196;" horiz-adv-x="1576" 
d="M872 985l596 -594l-270 -272l-598 596v-563l-346 327v854h852l328 -348h-562z" />
    <glyph glyph-name="uni2197" unicode="&#x2197;" horiz-adv-x="1576" 
d="M143 985l328 348h852v-854l-346 -327v563l-598 -596l-270 272l596 594h-562z" />
    <glyph glyph-name="uni2198" unicode="&#x2198;" horiz-adv-x="1576" 
d="M977 842v563l346 -328v-854h-852l-328 348h562l-596 594l270 273z" />
    <glyph glyph-name="uni2199" unicode="&#x2199;" horiz-adv-x="1576" 
d="M1198 1438l270 -273l-596 -594h562l-328 -348h-852v854l346 328v-563z" />
    <glyph glyph-name="uni21A4" unicode="&#x21a4;" horiz-adv-x="1576" 
d="M1087 973v391h392v-1171h-392v391h-528l338 -391h-485l-422 585l422 586h485l-338 -391h528z" />
    <glyph glyph-name="uni21A5" unicode="&#x21a5;" horiz-adv-x="1576" 
d="M1374 1212v-487l-391 340v-588h391v-391h-1171v391h391v588l-391 -340v487l585 420z" />
    <glyph glyph-name="uni21A6" unicode="&#x21a6;" horiz-adv-x="1576" 
d="M680 1364h485l422 -586l-422 -585h-485l338 391h-529v-391h-391v1171h391v-391h529z" />
    <glyph glyph-name="uni21A7" unicode="&#x21a7;" horiz-adv-x="1576" 
d="M1374 1470v-391h-391v-587l391 339v-487l-586 -420l-585 420v487l391 -339v587h-391v391h1171z" />
    <glyph glyph-name="uni21B0" unicode="&#x21b0;" horiz-adv-x="1576" 
d="M561 973h877v-973h-391v584h-486l338 -391h-485l-422 585l422 586h485z" />
    <glyph glyph-name="uni21B1" unicode="&#x21b1;" horiz-adv-x="1576" 
d="M678 1364h485l422 -586l-422 -585h-485l338 391h-486v-584h-391v973h877z" />
    <glyph glyph-name="uni21B2" unicode="&#x21b2;" horiz-adv-x="1576" 
d="M1047 973v583h391v-972h-877l338 -391h-485l-422 585l422 586h485l-338 -391h486z" />
    <glyph glyph-name="uni21B3" unicode="&#x21b3;" horiz-adv-x="1576" 
d="M678 1364h485l422 -586l-422 -585h-485l338 391h-877v972h391v-583h486z" />
    <glyph glyph-name="partialdiff" unicode="&#x2202;" horiz-adv-x="1269" 
d="M274 1585l2 2q297 -35 502 -153q208 -120 320 -318q110 -195 110 -450q0 -342 -149 -516q-151 -177 -449 -177q-157 0 -295 60q-136 59 -215 178q-80 121 -80 289q0 165 66 282q64 114 172 166q109 53 238 53q146 0 237 -67q93 -68 144 -174q-15 124 -86 233
q-69 106 -201 181q-128 73 -316 94v317zM717 326v-7q35 65 35 179q0 101 -35 157t-103 56t-106 -56q-37 -55 -37 -157q0 -113 37 -174q38 -62 106 -62q69 0 103 64z" />
    <glyph glyph-name="product" unicode="&#x220f;" horiz-adv-x="1953" 
d="M1907 1556v-368h-265v-1464h-456v1464h-418v-1464h-455v1464h-266v368h1860z" />
    <glyph glyph-name="summation" unicode="&#x2211;" horiz-adv-x="1404" 
d="M84 1556h1255v-368h-761l606 -531l-604 -565h757v-368h-1253v471l504 460l-504 430v471z" />
    <glyph glyph-name="minus" unicode="&#x2212;" horiz-adv-x="1191" 
d="M1100 403h-1008v330h1008v-330z" />
    <glyph glyph-name="radical" unicode="&#x221a;" horiz-adv-x="1556" 
d="M748 63l356 1493h457l-445 -1832h-727l-176 641h-209v368h571z" />
    <glyph glyph-name="infinity" unicode="&#x221e;" horiz-adv-x="2367" 
d="M1985 1051l-7 -7q134 -67 217 -194q82 -125 82 -289t-82 -289q-83 -127 -217 -194q-136 -68 -282 -68q-166 0 -295 66q-125 64 -225 188q-92 -120 -224 -186q-128 -64 -297 -64q-147 0 -280 68q-132 68 -215 194q-82 125 -82 289q0 161 84 289t215 195t280 67
q170 0 295 -67q127 -68 228 -193q105 130 227 195q125 67 295 67q149 0 283 -67zM948 520l19 31l-27 41q-119 180 -268 180q-58 0 -107 -24q-48 -23 -76 -74t-28 -117t28 -117q26 -48 78 -73t109 -25q146 0 272 178zM1778 362l-4 5q51 25 77 73q29 53 29 117t-29 117
q-28 51 -75 74q-50 24 -107 24q-149 0 -268 -180l-27 -41l23 -35q126 -178 272 -178q59 0 109 24z" />
    <glyph glyph-name="integral" unicode="&#x222b;" horiz-adv-x="933" 
d="M-10 -401l-2 315h86q86 0 129 37t43 125v1034q0 164 61 262t180 141t308 43h149v-317h-84q-89 0 -129 -37q-41 -38 -41 -125v-1034q0 -162 -61 -260t-180 -141t-308 -43h-151z" />
    <glyph glyph-name="approxequal" unicode="&#x2248;" horiz-adv-x="1421" 
d="M74 791h-2q80 127 178 194q100 68 207 68q62 0 116 -13q57 -14 129 -45q70 -30 123 -45q49 -14 105 -14q61 0 112 31t97 86l200 -207q-78 -128 -176 -195t-207 -67q-61 0 -116 10q-51 9 -129 43q-75 34 -125 49q-46 14 -101 14q-65 0 -114 -30q-51 -31 -97 -86zM72 293
h-2q80 127 178 194q100 68 207 68q67 0 116 -12q57 -14 129 -45q70 -30 123 -45t105 -15q61 0 112 31t97 86l200 -207q-77 -126 -176 -194q-100 -68 -207 -68q-61 0 -116 10q-51 9 -129 43q-75 34 -125 49q-49 15 -101 15q-63 0 -114 -31t-97 -86z" />
    <glyph glyph-name="notequal" unicode="&#x2260;" horiz-adv-x="1306" 
d="M1194 967v-330h-295l-74 -133h369v-330h-553l-96 -174h-408l96 174h-122v330h307l74 133h-381v330h563l90 161h407l-90 -161h113z" />
    <glyph glyph-name="lessequal" unicode="&#x2264;" horiz-adv-x="1216" 
d="M98 995l1018 142v-299l-805 -88l805 -88v-300l-1018 140v493zM1116 0h-1018v313h1018v-313z" />
    <glyph glyph-name="greaterequal" unicode="&#x2265;" horiz-adv-x="1216" 
d="M100 838v299l1018 -142v-493l-1018 -140v300l805 88zM1118 0h-1018v313h1018v-313z" />
    <glyph glyph-name="uni2300" unicode="&#x2300;" horiz-adv-x="1347" 
d="M1307 1016l-127 -135q92 -148 92 -318q0 -161 -80 -297t-217 -215q-139 -80 -301 -80q-83 0 -166 25t-148 67l-133 -133l-188 185l133 135q-44 71 -68 151q-24 79 -24 166q0 161 80 297q80 135 215 215q136 80 299 80q86 0 166 -24q78 -24 147 -68l131 131zM420 492
l328 327q-42 10 -72 10q-72 0 -131 -36q-61 -37 -99 -99q-36 -59 -36 -131q0 -29 10 -71zM936 637l-328 -332q42 -10 70 -10q72 0 133 37t98 98t37 133q0 29 -10 74z" />
    <glyph glyph-name="uni2460" unicode="&#x2460;" horiz-adv-x="1912" 
d="M1386 1522q197 -115 312 -312q114 -197 114 -430q0 -234 -114 -430t-312 -311t-430 -115t-430 115q-197 114 -311 311q-115 198 -115 430t115 430t311 312q197 114 430 114q234 0 430 -114zM1294 193q158 90 246 245q90 159 90 340t-90 340q-89 157 -246 246
q-159 90 -340 90t-340 -90q-155 -88 -245 -246q-90 -159 -90 -340t90 -340q89 -156 245 -245q160 -91 340 -91t340 91zM883 1245h245v-934h-299v557h-200v238h14q100 0 154 31q52 30 80 96z" />
    <glyph glyph-name="uni2461" unicode="&#x2461;" horiz-adv-x="1912" 
d="M1386 1522q197 -115 312 -312q114 -197 114 -430q0 -234 -114 -430t-312 -311t-430 -115t-430 115q-197 114 -311 311q-115 198 -115 430t115 430t311 312q197 114 430 114q234 0 430 -114zM1294 193q158 90 246 245q90 159 90 340t-90 340q-89 157 -246 246
q-159 90 -340 90t-340 -90q-155 -88 -245 -246q-90 -159 -90 -340t90 -340q89 -156 245 -245q160 -91 340 -91t340 91zM911 549l437 -6v-238h-793v299l420 289q31 24 41 39q12 18 12 39q0 29 -20 43q-22 16 -58 16q-38 0 -61 -20q-25 -22 -25 -56h-307q3 91 55 158
q53 68 142 109q85 39 198 39t203 -35q87 -34 137 -99q49 -64 49 -149q0 -82 -41 -141q-42 -60 -135 -121z" />
    <glyph glyph-name="uni2462" unicode="&#x2462;" horiz-adv-x="1912" 
d="M1386 1522q197 -115 312 -312q114 -197 114 -430q0 -234 -114 -430t-312 -311t-430 -115t-430 115q-197 114 -311 311q-115 198 -115 430t115 430t311 312q197 114 430 114q234 0 430 -114zM1294 193q158 90 246 245q90 159 90 340t-90 340q-89 157 -246 246
q-159 90 -340 90t-340 -90q-155 -88 -245 -246q-90 -159 -90 -340t90 -340q89 -156 245 -245q160 -91 340 -91t340 91zM1276 725l-4 -6q76 -55 76 -158q0 -85 -50 -147t-141 -92q-95 -31 -217 -31q-193 0 -297 84q-102 82 -111 227h306q3 -43 28 -65q26 -23 72 -23
q45 0 72 18q28 19 28 54q0 43 -43 61q-46 19 -116 19h-64v237h64q74 0 106 19q31 19 31 49q0 27 -23 43q-22 16 -55 16q-41 0 -61 -20q-21 -21 -21 -49h-307q6 87 59 155q51 66 140 105q82 36 190 36q106 0 195 -30q88 -30 141 -86t53 -129q0 -103 -61 -152
q-60 -48 -174 -69q105 -9 184 -66z" />
    <glyph glyph-name="uni2463" unicode="&#x2463;" horiz-adv-x="1912" 
d="M1386 1522q197 -115 312 -312q114 -197 114 -430q0 -234 -114 -430t-312 -311t-430 -115t-430 115q-197 114 -311 311q-115 198 -115 430t115 430t311 312q197 114 430 114q234 0 430 -114zM1294 193q158 90 246 245q90 159 90 340t-90 340q-89 157 -246 246
q-159 90 -340 90t-340 -90q-155 -88 -245 -246q-90 -159 -90 -340t90 -340q89 -156 245 -245q160 -91 340 -91t340 91zM1247 1245v-493h119v-238h-119v-203h-301v203h-432v297l201 434h532zM946 1133l-182 -381h182v381z" />
    <glyph glyph-name="uni2464" unicode="&#x2464;" horiz-adv-x="1912" 
d="M1386 1522q197 -115 312 -312q114 -197 114 -430q0 -234 -114 -430t-312 -311t-430 -115t-430 115q-197 114 -311 311q-115 198 -115 430t115 430t311 312q197 114 430 114q234 0 430 -114zM1294 193q158 90 246 245q90 159 90 340t-90 340q-89 157 -246 246
q-159 90 -340 90t-340 -90q-155 -88 -245 -246q-90 -159 -90 -340t90 -340q89 -156 245 -245q160 -91 340 -91t340 91zM1217 909l-3 -2q66 -35 105 -106t39 -180q0 -112 -51 -183q-51 -72 -144 -110q-90 -37 -209 -37q-115 0 -202 37q-90 38 -142 108q-53 71 -59 170h305
q3 -39 27 -63q25 -25 71 -25q45 0 72 27q29 29 29 76q0 53 -27 77q-28 25 -74 25q-36 0 -61 -14q-28 -15 -37 -43l-297 24l45 553h688v-237h-413l-15 -187q22 49 80 88q55 37 127 37q81 0 146 -35z" />
    <glyph glyph-name="uni2465" unicode="&#x2465;" horiz-adv-x="1912" 
d="M1386 1522q197 -115 312 -312q114 -197 114 -430q0 -234 -114 -430t-312 -311t-430 -115t-430 115q-197 114 -311 311q-115 198 -115 430t115 430t311 312q197 114 430 114q234 0 430 -114zM1294 193q158 90 246 245q90 159 90 340t-90 340q-89 157 -246 246
q-159 90 -340 90t-340 -90q-155 -88 -245 -246q-90 -159 -90 -340t90 -340q89 -156 245 -245q160 -91 340 -91t340 91zM1208 895q73 -37 117 -109q43 -70 43 -165t-51 -166q-52 -73 -148 -117q-93 -43 -217 -43q-130 0 -225 53q-93 52 -149 160q-56 109 -56 270
q0 162 56 271q54 105 151 159t221 54q117 0 201 -37q87 -38 135 -101q50 -65 62 -141h-308q-9 24 -30 39q-20 14 -56 14q-129 0 -141 -231q23 51 84 90q58 37 141 37q97 0 170 -37zM1028 545l2 -6q31 28 31 73q0 47 -31 72t-84 25q-50 0 -86 -25q-33 -23 -33 -70
q0 -41 31 -69q30 -27 86 -27q54 0 84 27z" />
    <glyph glyph-name="uni2466" unicode="&#x2466;" horiz-adv-x="1912" 
d="M1386 1522q197 -115 312 -312q114 -197 114 -430q0 -234 -114 -430t-312 -311t-430 -115t-430 115q-197 114 -311 311q-115 198 -115 430t115 430t311 312q197 114 430 114q234 0 430 -114zM1294 193q158 90 246 245q90 159 90 340t-90 340q-89 157 -246 246
q-159 90 -340 90t-340 -90q-155 -88 -245 -246q-90 -159 -90 -340t90 -340q89 -156 245 -245q160 -91 340 -91t340 91zM1006 1008h-404v237h698v-299l-315 -635h-364z" />
    <glyph glyph-name="uni2467" unicode="&#x2467;" horiz-adv-x="1912" 
d="M1386 1522q197 -115 312 -312q114 -197 114 -430q0 -234 -114 -430t-312 -311t-430 -115t-430 115q-197 114 -311 311q-115 198 -115 430t115 430t311 312q197 114 430 114q234 0 430 -114zM1294 193q158 90 246 245q90 159 90 340t-90 340q-89 157 -246 246
q-159 90 -340 90t-340 -90q-155 -88 -245 -246q-90 -159 -90 -340t90 -340q89 -156 245 -245q160 -91 340 -91t340 91zM1313 721l-4 -4q67 -55 67 -150q0 -84 -49 -145q-50 -62 -147 -96q-95 -33 -230 -33q-129 0 -229 35q-98 34 -148 96q-49 61 -49 145q0 96 68 152t176 74
q-104 27 -162 79q-57 51 -57 142q0 79 51 133q54 57 143 86q95 31 209 31t209 -31q91 -30 144 -86q51 -54 51 -133q0 -90 -58 -142q-59 -53 -161 -79q108 -18 176 -74zM872 1010h-8q-26 -20 -26 -52q0 -29 28 -51q26 -20 78 -20t78 20q29 23 29 51q0 31 -27 52
q-26 20 -76 20t-76 -20zM1028 535v-3q33 20 33 62q0 39 -33 59q-38 23 -88 23t-88 -23q-33 -20 -33 -59q0 -42 33 -62t88 -20q50 0 88 23z" />
    <glyph glyph-name="uni2468" unicode="&#x2468;" horiz-adv-x="1912" 
d="M1386 1522q197 -115 312 -312q114 -197 114 -430q0 -234 -114 -430t-312 -311t-430 -115t-430 115q-197 114 -311 311q-115 198 -115 430t115 430t311 312q197 114 430 114q234 0 430 -114zM1294 193q158 90 246 245q90 159 90 340t-90 340q-89 157 -246 246
q-159 90 -340 90t-340 -90q-155 -88 -245 -246q-90 -159 -90 -340t90 -340q89 -156 245 -245q160 -91 340 -91t340 91zM1184 1208l-10 -2q97 -54 151 -159q55 -107 55 -271q0 -163 -55 -270t-151 -160q-95 -53 -222 -53q-114 0 -198 37q-89 39 -136 100q-49 64 -61 141h307
q9 -23 31 -39q20 -14 55 -14q130 0 142 232q-25 -54 -82 -91q-56 -36 -142 -36q-99 0 -170 36t-116 109q-43 70 -43 166q0 92 53 166q52 74 147 117q93 43 219 43q132 0 226 -52zM1038 864l-4 -2q33 23 33 72q0 44 -31 72t-86 28q-53 0 -82 -26q-30 -27 -30 -74
q0 -46 30 -70t84 -24q52 0 86 24z" />
    <glyph glyph-name="uni24EA" unicode="&#x24ea;" horiz-adv-x="1912" 
d="M524 35q-197 114 -311 311q-115 198 -115 430t115 430t311 312t430 114t430 -114q197 -115 312 -312q114 -196 114 -430t-114 -430t-312 -311t-430 -115t-430 115zM1294 193q158 90 246 245q90 159 90 340t-90 340q-89 157 -246 246q-159 90 -340 90t-340 -90
q-155 -88 -245 -246q-90 -159 -90 -340t90 -340q89 -156 245 -245q160 -91 340 -91t340 91zM639 418q-111 123 -111 360q0 238 111 361t315 123q205 0 316 -123q110 -122 110 -361q0 -238 -110 -360q-111 -123 -316 -123q-204 0 -315 123zM1042 582q27 62 27 196
q0 136 -27 197t-92 61t-92 -61t-27 -197q0 -134 27 -196t92 -62t92 62z" />
    <glyph glyph-name="uni24FF" unicode="&#x24ff;" horiz-adv-x="1912" 
d="M524 35q-197 114 -311 311q-115 198 -115 430t115 430t311 312t430 114t430 -114q197 -115 312 -312q114 -196 114 -430t-114 -430t-312 -311t-430 -115t-430 115zM1270 418q110 122 110 360q0 239 -110 361q-111 123 -316 123q-204 0 -315 -123t-111 -361
q0 -237 111 -360t315 -123q205 0 316 123zM864 582q-26 59 -26 196q0 138 26 197q27 61 92 61q66 0 93 -61q26 -59 26 -197q0 -137 -26 -196q-27 -62 -93 -62q-65 0 -92 62z" />
    <glyph glyph-name="filledbox" unicode="&#x25a0;" horiz-adv-x="1353" 
d="M1241 0h-1128v1128h1128v-1128z" />
    <glyph glyph-name="uni25A1" unicode="&#x25a1;" horiz-adv-x="1353" 
d="M1241 0h-1128v1128h1128v-1128zM449 793v-457h456v457h-456z" />
    <glyph glyph-name="lozenge" unicode="&#x25ca;" horiz-adv-x="1507" 
d="M483 1556h543l408 -778l-408 -778h-543l-409 778zM463 778l293 -555l291 555l-291 553z" />
    <glyph glyph-name="circle" unicode="&#x25cb;" horiz-adv-x="1372" 
d="M383 41l-2 -2q-139 80 -219 219t-80 305q0 162 80 301t219 219t301 80q166 0 305 -80t219 -219t80 -301q0 -164 -80 -303t-219 -219t-303 -80q-162 0 -301 80zM809 342l-6 -6q58 34 92 92q35 59 35 127t-35 127q-34 58 -92 92q-59 35 -125 35q-69 0 -125 -33
q-58 -34 -92 -92q-33 -56 -33 -125q0 -66 35 -125q34 -58 92 -92q59 -35 127 -35t127 35z" />
    <glyph glyph-name="uni25CF" unicode="&#x25cf;" horiz-adv-x="1372" 
d="M383 41l-2 -2q-139 80 -219 219t-80 305q0 162 80 301t219 219t301 80q166 0 305 -80t219 -219t80 -301q0 -164 -80 -303t-219 -219t-303 -80q-162 0 -301 80z" />
    <glyph glyph-name="uni2776" unicode="&#x2776;" horiz-adv-x="1912" 
d="M524 35q-197 114 -311 311q-115 198 -115 430t115 430t311 312t430 114t430 -114q197 -115 312 -312q114 -196 114 -430t-114 -430t-312 -311t-430 -115t-430 115zM827 311l297 -2v934h-243l-7 -12q-27 -64 -79 -94q-54 -31 -154 -31h-14v-238h200v-557z" />
    <glyph glyph-name="uni2777" unicode="&#x2777;" horiz-adv-x="1912" 
d="M524 35q-197 114 -311 311q-115 198 -115 430t115 430t311 312t430 114t430 -114q197 -115 312 -312q114 -196 114 -430t-114 -430t-312 -311t-430 -115t-430 115zM561 311l795 -2v238h-441l252 166q95 62 136 121q40 58 40 141q0 87 -49 151q-50 65 -137 99
q-90 35 -203 35t-198 -39q-91 -42 -142 -107q-52 -67 -55 -156h307q0 34 25 56t61 22q38 0 60 -16t22 -43q0 -21 -12 -39q-10 -15 -41 -39l-420 -289v-299z" />
    <glyph glyph-name="uni2778" unicode="&#x2778;" horiz-adv-x="1912" 
d="M524 35q-197 114 -311 311q-115 198 -115 430t115 430t311 312t430 114t430 -114q197 -115 312 -312q114 -196 114 -430t-114 -430t-312 -311t-430 -115t-430 115zM1161 326h-6q91 30 141 92t50 147q0 105 -76 160q-79 57 -185 66q115 21 177 71q61 49 61 152
q0 75 -51 129q-53 56 -142 86q-91 31 -192 31q-106 0 -190 -37q-89 -39 -140 -105q-53 -68 -59 -155h307q0 26 23 49q22 22 61 22q33 0 55 -16q23 -16 23 -43q0 -30 -31 -49q-32 -19 -106 -19h-64v-237h64q70 0 116 -19q43 -18 43 -61q0 -34 -28 -53t-72 -19t-70 23
q-25 22 -28 65h-305q9 -145 110 -227q104 -84 297 -84q122 0 217 31z" />
    <glyph glyph-name="uni2779" unicode="&#x2779;" horiz-adv-x="1912" 
d="M524 35q-197 114 -311 311q-115 198 -115 430t115 430t311 312t430 114t430 -114q197 -115 312 -312q114 -196 114 -430t-114 -430t-312 -311t-430 -115t-430 115zM514 811v-297h432v-203h301v203h119v238h-119v493h-532zM946 752h-182l182 376v-376z" />
    <glyph glyph-name="uni277A" unicode="&#x277a;" horiz-adv-x="1912" 
d="M524 35q-197 114 -311 311q-115 198 -115 430t115 430t311 312t430 114t430 -114q197 -115 312 -312q114 -196 114 -430t-114 -430t-312 -311t-430 -115t-430 115zM1165 330l-4 -13q91 37 144 111t53 182q0 110 -39 181q-41 73 -105 108q-65 35 -143 35q-72 0 -127 -37
q-58 -39 -80 -88l15 190h413v238h-688l-45 -553l297 -25q9 28 37 43q31 17 61 17q46 0 74 -25q29 -26 29 -76q0 -46 -29 -75q-27 -27 -72 -27q-46 0 -71 25q-24 24 -27 65h-305q6 -97 59 -168q52 -70 142 -108q87 -37 202 -37q119 0 209 37z" />
    <glyph glyph-name="uni277B" unicode="&#x277b;" horiz-adv-x="1912" 
d="M524 35q-197 114 -311 311q-115 198 -115 430t115 430t311 312t430 114t430 -114q197 -115 312 -312q114 -196 114 -430t-114 -430t-312 -311t-430 -115t-430 115zM1169 336l-10 -2q96 44 148 117q53 74 53 165q0 96 -43 166q-44 72 -117 109t-170 37q-83 0 -141 -37
q-60 -38 -80 -92q3 97 35 166q30 65 104 65q36 0 56 -14q21 -15 30 -39h307q-12 77 -61 141q-48 63 -135 101q-82 36 -199 36q-129 0 -221 -51q-98 -54 -152 -160q-55 -107 -55 -270t55 -270q54 -106 152 -160q92 -51 225 -51q126 0 219 43zM850 545l-4 -2q-31 28 -31 71
q0 49 33 72q36 25 86 25q53 0 84 -25t31 -70t-31 -73q-30 -27 -82 -27q-54 0 -86 29z" />
    <glyph glyph-name="uni277C" unicode="&#x277c;" horiz-adv-x="1912" 
d="M524 35q-197 114 -311 311q-115 198 -115 430t115 430t311 312t430 114t430 -114q197 -115 312 -312q114 -196 114 -430t-114 -430t-312 -311t-430 -115t-430 115zM1004 1008l-383 -697h364l315 635v299h-698v-237h402z" />
    <glyph glyph-name="uni277D" unicode="&#x277d;" horiz-adv-x="1912" 
d="M524 35q-197 114 -311 311q-115 198 -115 430t115 430t311 312t430 114t430 -114q197 -115 312 -312q114 -196 114 -430t-114 -430t-312 -311t-430 -115t-430 115zM1186 328v-4q97 34 147 96q49 61 49 145q0 97 -67 152q-68 56 -176 74q102 26 161 79q58 52 58 142
q0 79 -51 133q-53 56 -144 86q-95 31 -209 31t-209 -31q-89 -29 -143 -86q-51 -54 -51 -133q0 -91 57 -142q58 -52 162 -79q-108 -18 -176 -74t-68 -150q0 -84 49 -145q50 -62 148 -96q95 -33 231 -33q132 0 232 35zM879 907h-9q-26 20 -26 51q0 30 28 52q26 20 78 20
t78 -20q29 -23 29 -52q0 -30 -27 -51q-26 -20 -76 -20q-49 0 -75 20zM858 535v-3q-33 20 -33 62q0 39 33 59q38 23 88 23t88 -23q33 -20 33 -59q0 -42 -33 -62t-88 -20q-50 0 -88 23z" />
    <glyph glyph-name="uni277E" unicode="&#x277e;" horiz-adv-x="1912" 
d="M524 35q-197 114 -311 311q-115 198 -115 430t115 430t311 312t430 114t430 -114q197 -115 312 -312q114 -196 114 -430t-114 -430t-312 -311t-430 -115t-430 115zM741 1219v-2q-95 -43 -147 -117q-51 -71 -51 -166q0 -96 43 -166q45 -73 116 -109t170 -36q86 0 142 36
q59 38 80 93q-3 -101 -33 -166q-31 -66 -105 -66q-34 0 -55 15q-23 16 -31 38h-307q12 -76 62 -141q47 -61 135 -100q84 -37 201 -37q126 0 221 53q96 53 151 160q56 109 56 270q0 162 -56 271q-55 107 -149 159q-97 54 -226 54q-124 0 -217 -43zM1051 1006l2 -7
q30 -27 30 -69q0 -48 -32 -70q-35 -24 -86 -24q-54 0 -84 24q-31 25 -31 72q0 46 31 74q29 26 84 26q57 0 86 -26z" />
    <glyph glyph-name="uniF8FF" unicode="&#xf8ff;" horiz-adv-x="1695" 
d="M1298 868h357v-180h-359l332 -137l-69 -164l-336 139l258 -258l-125 -125l-254 256l137 -333l-168 -66l-133 324v-353h-180v359l-137 -332l-164 70l137 331l-256 -256l-125 127l254 254l-332 -137l-65 164l331 137h-360v180h358l-331 138l69 163l334 -139l-256 258
l125 123l254 -256l-137 336l166 68l135 -328v354h180v-354l135 328l164 -70l-137 -332l256 256l125 -127l-256 -256l336 139l65 -165z" />
    <glyph glyph-name="uniFEFF" unicode="&#xfeff;" horiz-adv-x="0" 
 />
    <glyph glyph-name="NULL" horiz-adv-x="0" 
 />
    <glyph glyph-name="uni004A0301" horiz-adv-x="901" 
d="M33 0l2 371h160q52 0 79 12q28 13 41 41q13 29 13 80v1052h456v-1142q0 -207 -112 -310q-113 -104 -350 -104h-289zM780 1661h-434l240 326h616z" />
    <glyph glyph-name="G.ss03" horiz-adv-x="1736" 
d="M809 930l864 -6v-209q0 -232 -98 -400q-99 -170 -277 -258q-182 -90 -419 -90q-241 0 -428 96q-184 94 -287 277t-103 430q0 246 103 432q102 184 289 283q186 98 430 98q301 0 497 -129q199 -131 275 -393h-477q-40 83 -111 129q-68 45 -184 45q-108 0 -187 -55
q-80 -56 -123 -160t-43 -248q0 -145 43 -246q43 -100 123 -153q82 -54 189 -54q99 0 174 35q74 35 115 97q40 61 43 137h-408v342z" />
    <glyph glyph-name="Gbreve.ss03" horiz-adv-x="1736" 
d="M809 930l864 -6v-209q0 -232 -98 -400q-99 -170 -277 -258q-182 -90 -419 -90q-241 0 -428 96q-184 94 -287 277t-103 430q0 246 103 432q102 184 289 283q186 98 430 98q301 0 497 -129q199 -131 275 -393h-477q-40 83 -111 129q-68 45 -184 45q-108 0 -187 -55
q-80 -56 -123 -160t-43 -248q0 -145 43 -246q43 -100 123 -153q82 -54 189 -54q99 0 174 35q74 35 115 97q40 61 43 137h-408v342zM645 1694h-4q-101 43 -156 116t-55 168h295q6 -37 47 -61q42 -25 105 -25q62 0 104 25q41 24 47 61h295q0 -95 -55 -168t-156 -116t-233 -43
q-133 0 -234 43z" />
    <glyph glyph-name="Gcaron.ss03" horiz-adv-x="1736" 
d="M809 930l864 -6v-209q0 -232 -98 -400q-99 -170 -277 -258q-182 -90 -419 -90q-241 0 -428 96q-184 94 -287 277t-103 430q0 246 103 432q102 184 289 283q186 98 430 98q301 0 497 -129q199 -131 275 -393h-477q-40 83 -111 129q-68 45 -184 45q-108 0 -187 -55
q-80 -56 -123 -160t-43 -248q0 -145 43 -246q43 -100 123 -153q82 -54 189 -54q99 0 174 35q74 35 115 97q40 61 43 137h-408v342zM879 1841l149 137h402l-271 -325h-563l-268 325h399z" />
    <glyph glyph-name="Gcircumflex.ss03" horiz-adv-x="1736" 
d="M809 930l864 -6v-209q0 -232 -98 -400q-99 -170 -277 -258q-182 -90 -419 -90q-241 0 -428 96q-184 94 -287 277t-103 430q0 246 103 432q102 184 289 283q186 98 430 98q301 0 497 -129q199 -131 275 -393h-477q-40 83 -111 129q-68 45 -184 45q-108 0 -187 -55
q-80 -56 -123 -160t-43 -248q0 -145 43 -246q43 -100 123 -153q82 -54 189 -54q99 0 174 35q74 35 115 97q40 61 43 137h-408v342zM1159 1978l271 -325h-402l-149 139l-152 -139h-399l268 325h563z" />
    <glyph glyph-name="uni0122.ss03" horiz-adv-x="1736" 
d="M809 930l864 -6v-209q0 -232 -98 -400q-99 -170 -277 -258q-182 -90 -419 -90q-241 0 -428 96q-184 94 -287 277t-103 430q0 246 103 432q102 184 289 283q186 98 430 98q301 0 497 -129q199 -131 275 -393h-477q-40 83 -111 129q-68 45 -184 45q-108 0 -187 -55
q-80 -56 -123 -160t-43 -248q0 -145 43 -246q43 -100 123 -153q82 -54 189 -54q99 0 174 35q74 35 115 97q40 61 43 137h-408v342zM666 -434v323h458v-362l-166 -209h-282l135 248h-145z" />
    <glyph glyph-name="Gdotaccent.ss03" horiz-adv-x="1736" 
d="M809 930l864 -6v-209q0 -232 -98 -400q-99 -170 -277 -258q-182 -90 -419 -90q-241 0 -428 96q-184 94 -287 277t-103 430q0 246 103 432q102 184 289 283q186 98 430 98q301 0 497 -129q199 -131 275 -393h-477q-40 83 -111 129q-68 45 -184 45q-108 0 -187 -55
q-80 -56 -123 -160t-43 -248q0 -145 43 -246q43 -100 123 -153q82 -54 189 -54q99 0 174 35q74 35 115 97q40 61 43 137h-408v342zM1108 1653h-459v325h459v-325z" />
    <glyph glyph-name="Adieresis.titl" horiz-adv-x="1697" 
d="M1710 0h-477l-98 360h-572l-98 -360h-477l469 1556h786zM850 1409l-186 -680h370zM315 1231h-368v325h368v-325zM1755 1231h-369v325h369v-325z" />
    <glyph glyph-name="Odieresis.titl" horiz-adv-x="1759" 
d="M1812 1556l3 -325h-230q117 -187 117 -453q0 -248 -105 -430q-104 -180 -290 -278q-187 -99 -430 -99q-239 0 -426 99q-186 98 -291 280t-105 430q0 266 117 453h-229v326h368v-162q108 91 252 141q143 49 314 49q170 0 313 -49q144 -50 252 -141v159h370zM1067 375v-4
q80 56 123 157t43 246t-43 246q-44 103 -123 158t-186 55t-187 -53t-123 -156q-43 -104 -43 -248t43 -248q42 -102 123 -155q82 -54 187 -54q106 0 186 56z" />
    <glyph glyph-name="Udieresis.titl" horiz-adv-x="1595" 
d="M276 139l-4 -4q-168 168 -168 486v4v929h457v-981v-4q0 -119 62 -184q60 -63 174 -63q112 0 174 65q61 64 61 188v981h455v-929q0 -656 -688 -656q-355 0 -523 168zM946 1227h-305v325h305v-325zM946 842h-305v325h305v-325z" />
    <glyph glyph-name="I_J.loclNLD" horiz-adv-x="1404" 
d="M123 0l-4 371h573q54 0 84 12t43 41q12 27 12 80v1052h457v-1142q0 -207 -112 -310q-113 -104 -351 -104h-702zM575 553h-456v1006h456v-1006z" />
    <glyph glyph-name="A.inferior" horiz-adv-x="903" 
d="M891 -233h-273l-40 170h-252l-43 -170h-271l209 778h459zM451 449l-74 -306h149z" />
    <glyph glyph-name="B.inferior" horiz-adv-x="827" 
d="M731 113v2q62 -44 62 -125q0 -103 -86 -162q-83 -57 -248 -57h-387v778h381q109 0 182 -31q72 -31 102 -80q31 -51 31 -106q0 -74 -55 -117q-54 -43 -146 -55q102 -3 164 -47zM479 334v2q-18 12 -53 12h-94v-98h94q35 0 53 12q19 13 19 37q0 22 -19 35zM436 -33l-2 2
q39 0 62 13q22 13 22 41q0 29 -20 40q-23 13 -62 13h-106v-109h106z" />
    <glyph glyph-name="C.inferior" horiz-adv-x="870" 
d="M238 -201l-7 -14q-95 49 -147 141q-53 92 -53 217t53 217t145 142q91 49 209 49q106 0 185 -33q85 -36 141 -100q58 -67 76 -166h-269q-18 46 -49 74t-84 28q-69 0 -104 -53q-33 -50 -33 -151q0 -100 37 -152q38 -53 106 -53q45 0 84 28q37 26 52 80h268
q-35 -157 -141 -229q-109 -74 -258 -74q-117 0 -211 49z" />
    <glyph glyph-name="D.inferior" horiz-adv-x="851" 
d="M389 545h-2q200 0 313 -94q115 -95 115 -295q0 -201 -113 -295t-313 -94h-317v778h317zM393 -27q70 0 111 47q39 45 39 136q0 90 -39 135q-41 47 -111 47h-63v-365h63z" />
    <glyph glyph-name="E.inferior" horiz-adv-x="720" 
d="M332 59v-86h334v-206h-594v778h585v-207h-325v-72h317v-207h-317z" />
    <glyph glyph-name="F.inferior" horiz-adv-x="692" 
d="M641 545v-207h-309v-82h303v-207h-303v-282h-260v778h569z" />
    <glyph glyph-name="G.inferior" horiz-adv-x="913" 
d="M416 236l430 -11v-469h-211v152q-24 -71 -82 -117q-59 -47 -154 -47q-98 0 -184 47q-83 45 -137 139q-51 89 -51 220q0 123 53 215q52 91 147 141q94 49 222 49q152 0 258 -68q105 -67 139 -198h-273q-14 31 -43 51q-27 18 -73 18q-71 0 -111 -55q-39 -53 -39 -149
q0 -101 39 -152q41 -53 119 -53q61 0 100 28q38 27 41 74h-190v185z" />
    <glyph glyph-name="H.inferior" horiz-adv-x="854" 
d="M522 276v269h260v-778h-260v276h-190v-276h-260v778h260v-269h190z" />
    <glyph glyph-name="I.inferior" horiz-adv-x="403" 
d="M332 -233h-260v778h260v-778z" />
    <glyph glyph-name="J.inferior" horiz-adv-x="493" 
d="M27 -233v206h65q38 0 58 13q18 12 18 49v510h260v-549q0 -113 -59 -172q-57 -57 -195 -57h-147z" />
    <glyph glyph-name="K.inferior" horiz-adv-x="827" 
d="M592 174l246 -407h-308l-198 352v-352h-260v778h260v-324l180 324h295z" />
    <glyph glyph-name="L.inferior" horiz-adv-x="669" 
d="M332 545v-572h311v-206h-571v778h260z" />
    <glyph glyph-name="M.inferior" horiz-adv-x="1193" 
d="M1122 545v-778h-225v692l-98 -692h-404l-96 690v-690h-227v778h432l92 -701l94 701h432z" />
    <glyph glyph-name="N.inferior" horiz-adv-x="940" 
d="M643 -154v699h225v-778h-428l-141 688v-688h-227v778h430z" />
    <glyph glyph-name="O.inferior" horiz-adv-x="903" 
d="M233 -201h-2q-94 49 -147 142q-51 89 -51 215q0 123 53 215q52 91 147 141q94 49 218 49q123 0 217 -49q94 -50 147 -141q53 -92 53 -215t-53 -215q-53 -93 -147 -142t-217 -49q-124 0 -218 49zM557 2q37 52 37 152q0 99 -37 151q-38 53 -108 53q-71 0 -109 -53
q-37 -52 -37 -151q0 -100 37 -152q38 -53 109 -53q70 0 108 53z" />
    <glyph glyph-name="P.inferior" horiz-adv-x="796" 
d="M434 545v2q164 0 250 -74t86 -199q0 -82 -37 -143q-37 -60 -112 -94q-73 -33 -187 -33h-100v-237h-262v778h362zM412 209v-4q41 0 65 18q25 19 25 51q0 33 -25 52q-24 18 -65 18h-78v-135h78z" />
    <glyph glyph-name="Q.inferior" horiz-adv-x="919" 
d="M948 -233l-274 -3l-23 27q-93 -41 -202 -41q-124 0 -218 49t-147 142q-51 89 -51 215q0 123 53 215q52 91 147 141q94 49 218 49q123 0 217 -49q94 -50 147 -141q53 -92 53 -215q0 -133 -59 -228zM506 -41l-117 133h201q4 50 4 62q0 99 -37 151q-38 53 -108 53
q-71 0 -109 -53q-37 -52 -37 -151q0 -100 37 -152q38 -53 109 -53q27 0 57 10z" />
    <glyph glyph-name="R.inferior" horiz-adv-x="833" 
d="M530 -233l-141 247h-59v-250h-262v779h354q112 0 188 -33q82 -35 123 -94q43 -61 43 -137q0 -70 -33 -123t-92 -88l176 -301h-297zM477 326l-2 -2q-21 18 -61 18h-86v-137h86q37 0 61 18q25 19 25 51t-23 52z" />
    <glyph glyph-name="S.inferior" horiz-adv-x="796" 
d="M141 -182l-2 -2q-95 68 -110 194h268q6 -33 31 -55q24 -21 71 -21q54 0 78 15q25 16 25 37q0 20 -21 32q-26 15 -73 23l-136 31q-109 21 -168 80q-57 57 -57 151q0 78 45 135q48 61 123 90q79 31 170 31q162 0 246 -63q86 -65 104 -168h-268q-9 22 -31 34q-23 13 -51 13
q-32 0 -55 -13q-21 -12 -21 -32q0 -21 21 -33q23 -13 80 -25l133 -30q109 -21 164 -82t55 -156q0 -125 -100 -188q-104 -66 -277 -66q-149 0 -244 68z" />
    <glyph glyph-name="T.inferior" horiz-adv-x="751" 
d="M29 545h692v-207h-215v-571h-260v571h-217v207z" />
    <glyph glyph-name="U.inferior" horiz-adv-x="833" 
d="M63 76l-2 4v465h261v-498v-4q0 -43 22 -68q21 -24 72 -24q92 0 92 96v498h262v-465q0 -328 -354 -328q-353 0 -353 324z" />
    <glyph glyph-name="V.inferior" horiz-adv-x="860" 
d="M430 -145l135 690h281l-176 -778h-480l-176 778h281z" />
    <glyph glyph-name="W.inferior" horiz-adv-x="1216" 
d="M879 -143l75 688h232l-92 -778h-426l-60 704l-59 -704h-426l-92 778h231l76 -688l65 688h412z" />
    <glyph glyph-name="X.inferior" horiz-adv-x="864" 
d="M610 174l258 -407h-311l-125 215l-125 -215h-311l256 407l-242 371h314l108 -187l109 187h311z" />
    <glyph glyph-name="Y.inferior" horiz-adv-x="823" 
d="M528 545h295l-282 -490v-288h-260v292l-281 486h295l117 -236z" />
    <glyph glyph-name="Z.inferior" horiz-adv-x="768" 
d="M709 270l-357 -297h375v-206h-680v274l356 297h-348v207h654v-275z" />
    <glyph glyph-name="G.ss03.inferior" horiz-adv-x="897" 
d="M416 236h424v-121q0 -103 -43 -185q-42 -80 -133 -131q-88 -49 -218 -49q-125 0 -221 47q-95 47 -147 135q-53 89 -53 220q0 123 53 215q52 91 147 141q94 49 221 49q153 0 259 -68q105 -67 139 -198h-273q-14 31 -43 51q-27 18 -73 18q-73 0 -113 -55q-39 -53 -39 -149
q0 -101 39 -152q41 -53 119 -53q61 0 98 29q34 27 37 71h-180v185z" />
    <glyph glyph-name="A.superior" horiz-adv-x="903" 
d="M891 778h-273l-40 170h-252l-43 -170h-271l209 778h459zM451 1460l-74 -305h149z" />
    <glyph glyph-name="B.superior" horiz-adv-x="827" 
d="M731 1124v2q62 -44 62 -125q0 -102 -86 -161q-85 -58 -248 -58h-387v779h381q109 0 182 -31q72 -31 102 -80q31 -51 31 -107q0 -73 -55 -116q-56 -44 -146 -56q102 -3 164 -47zM479 1346v2q-18 12 -53 12h-94v-98h94q35 0 53 12q19 13 19 37q0 22 -19 35zM436 979l-2 2
q41 0 62 12q22 13 22 41q0 30 -20 41q-21 12 -62 12h-106v-108h106z" />
    <glyph glyph-name="C.superior" horiz-adv-x="870" 
d="M236 811l-7 -14q-95 49 -147 141q-53 92 -53 217t53 217q52 91 145 141q92 50 209 50q106 0 185 -33q85 -36 141 -100q58 -67 76 -166h-269q-17 44 -49 73t-84 29q-69 0 -104 -53q-33 -50 -33 -152q0 -99 37 -151q39 -54 106 -54q44 0 84 29q37 26 52 80h268
q-35 -157 -141 -229q-109 -74 -259 -74q-116 0 -210 49z" />
    <glyph glyph-name="D.superior" horiz-adv-x="851" 
d="M389 1556h-2q200 0 313 -94q115 -95 115 -295q0 -201 -113 -295t-313 -94h-317v778h317zM393 985q70 0 111 47q39 45 39 135q0 91 -39 136q-41 47 -111 47h-63v-365h63z" />
    <glyph glyph-name="E.superior" horiz-adv-x="720" 
d="M332 1071v-86h334v-207h-594v778h585v-206h-325v-72h317v-207h-317z" />
    <glyph glyph-name="F.superior" horiz-adv-x="692" 
d="M641 1556v-206h-309v-82h303v-207h-303v-283h-260v778h569z" />
    <glyph glyph-name="G.superior" horiz-adv-x="913" 
d="M416 1247l430 -10v-469h-211v152q-24 -71 -82 -117q-59 -47 -154 -47q-98 0 -184 47q-83 45 -137 139q-51 89 -51 219q0 123 53 215q53 93 147 142t222 49q152 0 258 -68q105 -67 139 -199h-273q-14 33 -43 52q-27 18 -73 18q-71 0 -111 -55q-39 -53 -39 -150
q0 -100 39 -151q41 -53 119 -53q61 0 100 28q38 27 41 74h-190v184z" />
    <glyph glyph-name="H.superior" horiz-adv-x="854" 
d="M522 1288v268h260v-778h-260v277h-190v-277h-260v778h260v-268h190z" />
    <glyph glyph-name="I.superior" horiz-adv-x="403" 
d="M332 778h-260v778h260v-778z" />
    <glyph glyph-name="J.superior" horiz-adv-x="493" 
d="M27 778v207h65q40 0 58 12t18 50v509h260v-548q0 -113 -59 -172q-58 -58 -195 -58h-147z" />
    <glyph glyph-name="K.superior" horiz-adv-x="827" 
d="M592 1186l246 -408h-308l-198 352v-352h-260v778h260v-323l180 323h295z" />
    <glyph glyph-name="L.superior" horiz-adv-x="669" 
d="M332 1556v-571h311v-207h-571v778h260z" />
    <glyph glyph-name="M.superior" horiz-adv-x="1193" 
d="M1122 1556v-778h-225v692l-98 -692h-404l-96 690v-690h-227v778h432l92 -700l94 700h432z" />
    <glyph glyph-name="N.superior" horiz-adv-x="940" 
d="M643 858v698h225v-778h-428l-141 688v-688h-227v778h430z" />
    <glyph glyph-name="O.superior" horiz-adv-x="903" 
d="M233 811h-2q-95 49 -147 141q-51 89 -51 215q0 123 53 215q53 93 147 142t218 49q123 0 217 -49t147 -142q53 -92 53 -215t-53 -215t-147 -141t-217 -49q-124 0 -218 49zM557 1014q37 52 37 151q0 100 -37 152q-38 53 -108 53q-71 0 -109 -53q-37 -52 -37 -152
q0 -99 37 -151q38 -53 109 -53q70 0 108 53z" />
    <glyph glyph-name="P.superior" horiz-adv-x="796" 
d="M434 1556v3q164 0 250 -74t86 -199q0 -82 -37 -143q-37 -60 -112 -94q-73 -33 -187 -33h-100v-238h-262v778h362zM412 1221v-4q41 0 65 18q25 19 25 51t-25 51t-65 19h-78v-135h78z" />
    <glyph glyph-name="Q.superior" horiz-adv-x="919" 
d="M948 778l-274 -2l-23 27q-93 -41 -202 -41q-124 0 -218 49q-95 49 -147 141q-51 89 -51 215q0 123 53 215q53 93 147 142t218 49q123 0 217 -49t147 -142q53 -92 53 -215q0 -132 -59 -227zM506 971l-117 133h201q4 50 4 61q0 100 -37 152q-38 53 -108 53q-71 0 -109 -53
q-37 -52 -37 -152q0 -99 37 -151q38 -53 109 -53q27 0 57 10z" />
    <glyph glyph-name="R.superior" horiz-adv-x="833" 
d="M530 778l-141 248h-59v-250h-262v778h354q114 0 188 -32q81 -35 123 -95q43 -61 43 -137q0 -70 -33 -123t-92 -88l176 -301h-297zM477 1337l-2 -2q-22 19 -61 19h-86v-137h86q37 0 61 18q25 19 25 51q0 31 -23 51z" />
    <glyph glyph-name="S.superior" horiz-adv-x="796" 
d="M141 829l-2 -2q-95 68 -110 195h268q6 -33 31 -55q24 -21 71 -21q54 0 78 15q25 16 25 36q0 21 -21 33q-26 15 -73 23l-136 30q-109 21 -168 80q-57 57 -57 152q0 78 45 135q48 61 123 90q79 31 170 31q161 0 246 -64q86 -65 104 -168h-268q-10 23 -31 35t-51 12
q-34 0 -55 -12t-21 -33q0 -20 21 -32q23 -13 80 -25l133 -31q109 -21 164 -82t55 -155q0 -126 -100 -189q-103 -65 -277 -65q-150 0 -244 67z" />
    <glyph glyph-name="T.superior" horiz-adv-x="751" 
d="M31 1556h692v-206h-215v-572h-260v572h-217v206z" />
    <glyph glyph-name="U.superior" horiz-adv-x="833" 
d="M63 1087l-2 5v464h261v-497v-4q0 -43 22 -68q21 -24 72 -24q92 0 92 96v497h262v-464q0 -328 -354 -328q-353 0 -353 323z" />
    <glyph glyph-name="V.superior" horiz-adv-x="860" 
d="M430 866l135 690h281l-176 -778h-480l-176 778h281z" />
    <glyph glyph-name="W.superior" horiz-adv-x="1216" 
d="M879 868l75 688h232l-92 -778h-426l-60 705l-59 -705h-426l-92 778h231l76 -688l65 688h412z" />
    <glyph glyph-name="X.superior" horiz-adv-x="864" 
d="M610 1186l258 -408h-311l-125 215l-125 -215h-311l256 408l-242 370h314l108 -186l109 186h311z" />
    <glyph glyph-name="Y.superior" horiz-adv-x="823" 
d="M528 1556h295l-282 -489v-289h-260v293l-281 485h295l117 -235z" />
    <glyph glyph-name="Z.superior" horiz-adv-x="768" 
d="M709 1282l-357 -297h375v-207h-680v275l356 297h-348v206h654v-274z" />
    <glyph glyph-name="G.ss03.superior" horiz-adv-x="899" 
d="M418 1247h424v-121q0 -102 -43 -184q-42 -80 -133 -131q-88 -49 -217 -49q-126 0 -222 47q-95 47 -147 135q-53 89 -53 219q0 123 53 215q53 93 147 142t222 49q152 0 258 -68q105 -67 139 -198h-273q-14 31 -43 51q-27 18 -73 18q-73 0 -113 -55q-39 -53 -39 -150
q0 -100 39 -151q41 -53 119 -53q62 0 98 28q34 27 37 72h-180v184z" />
    <glyph glyph-name="i.loclTRK" horiz-adv-x="643" 
d="M543 0h-443v1128h443v-1128zM543 1231h-445v325h445v-325z" />
    <glyph glyph-name="uni006A0301" horiz-adv-x="643" 
d="M-68 -401v315h54q60 0 88 25q26 23 26 81v1108h443v-1163q0 -115 -56 -198q-55 -82 -153 -125t-223 -43h-179zM532 1221h-411l219 333h592z" />
    <glyph glyph-name="germandbls.calt" horiz-adv-x="1626" 
d="M1190 870q114 -24 199 -82q88 -60 133 -143q47 -86 47 -194q0 -152 -68 -261q-66 -105 -190 -161t-291 -56q-82 0 -152 13q-57 11 -129 34v310q58 -28 86 -37q37 -12 90 -12q87 0 136 43t49 122t-74 123q-73 43 -192 43h-54v338l262 238h-462v-1188h-457v1556h1345v-436z
" />
    <glyph glyph-name="a.ss04" horiz-adv-x="1388" 
d="M854 1128h432v-1128h-434v199q-44 -102 -131 -166q-88 -64 -215 -64q-136 0 -240 78q-97 73 -155 213q-56 136 -56 301t56 301q57 139 155 215q103 80 240 80q132 0 221 -74q90 -74 127 -188v233zM821 338v-2q43 79 43 225t-43 225q-44 80 -135 80q-90 0 -137 -80
q-45 -77 -45 -225q0 -146 45 -223q47 -80 137 -80q91 0 135 80z" />
    <glyph glyph-name="aacute.ss04" horiz-adv-x="1388" 
d="M854 1128h432v-1128h-434v199q-44 -102 -131 -166q-88 -64 -215 -64q-136 0 -240 78q-97 73 -155 213q-56 136 -56 301t56 301q57 139 155 215q103 80 240 80q132 0 221 -74q90 -74 127 -188v233zM821 338v-2q43 79 43 225t-43 225q-44 80 -135 80q-90 0 -137 -80
q-45 -77 -45 -225q0 -146 45 -223q47 -80 137 -80q91 0 135 80zM874 1219h-411l219 333h592z" />
    <glyph glyph-name="abreve.ss04" horiz-adv-x="1388" 
d="M854 1128h432v-1128h-434v199q-44 -102 -131 -166q-88 -64 -215 -64q-136 0 -240 78q-97 73 -155 213q-56 136 -56 301t56 301q57 139 155 215q103 80 240 80q132 0 221 -74q90 -74 127 -188v233zM821 338v-2q43 79 43 225t-43 225q-44 80 -135 80q-90 0 -137 -80
q-45 -77 -45 -225q0 -146 45 -223q47 -80 137 -80q91 0 135 80zM465 1255v-4q-98 46 -154 123q-55 76 -55 172h299q0 -49 37 -76q36 -26 98 -26q58 0 98 29q37 27 37 77h299q0 -96 -55 -172q-56 -77 -154 -123q-96 -45 -225 -45t-225 45z" />
    <glyph glyph-name="acircumflex.ss04" horiz-adv-x="1388" 
d="M854 1128h432v-1128h-434v199q-44 -102 -131 -166q-88 -64 -215 -64q-136 0 -240 78q-97 73 -155 213q-56 136 -56 301t56 301q57 139 155 215q103 80 240 80q132 0 221 -74q90 -74 127 -188v233zM821 338v-2q43 79 43 225t-43 225q-44 80 -135 80q-90 0 -137 -80
q-45 -77 -45 -225q0 -146 45 -223q47 -80 137 -80q91 0 135 80zM963 1552l260 -333h-385l-148 151l-147 -151h-383l260 333h543z" />
    <glyph glyph-name="adieresis.ss04" horiz-adv-x="1388" 
d="M854 1128h432v-1128h-434v199q-44 -102 -131 -166q-88 -64 -215 -64q-136 0 -240 78q-97 73 -155 213q-56 136 -56 301t56 301q57 139 155 215q103 80 240 80q132 0 221 -74q90 -74 127 -188v233zM821 338v-2q43 79 43 225t-43 225q-44 80 -135 80q-90 0 -137 -80
q-45 -77 -45 -225q0 -146 45 -223q47 -80 137 -80q91 0 135 80zM643 1227h-444v325h444v-325zM1184 1227h-445v325h445v-325z" />
    <glyph glyph-name="uni1EA1.ss04" horiz-adv-x="1388" 
d="M854 1128h432v-1128h-434v199q-44 -102 -131 -166q-88 -64 -215 -64q-136 0 -240 78q-97 73 -155 213q-56 136 -56 301t56 301q57 139 155 215q103 80 240 80q132 0 221 -74q90 -74 127 -188v233zM821 338v-2q43 79 43 225t-43 225q-44 80 -135 80q-90 0 -137 -80
q-45 -77 -45 -225q0 -146 45 -223q47 -80 137 -80q91 0 135 80zM967 -434h-445v325h445v-325z" />
    <glyph glyph-name="agrave.ss04" horiz-adv-x="1388" 
d="M854 1128h432v-1128h-434v199q-44 -102 -131 -166q-88 -64 -215 -64q-136 0 -240 78q-97 73 -155 213q-56 136 -56 301t56 301q57 139 155 215q103 80 240 80q132 0 221 -74q90 -74 127 -188v233zM821 338v-2q43 79 43 225t-43 225q-44 80 -135 80q-90 0 -137 -80
q-45 -77 -45 -225q0 -146 45 -223q47 -80 137 -80q91 0 135 80zM922 1219h-412l-399 333h591z" />
    <glyph glyph-name="amacron.ss04" horiz-adv-x="1388" 
d="M854 1128h432v-1128h-434v199q-44 -102 -131 -166q-88 -64 -215 -64q-136 0 -240 78q-97 73 -155 213q-56 136 -56 301t56 301q57 139 155 215q103 80 240 80q132 0 221 -74q90 -74 127 -188v233zM821 338v-2q43 79 43 225t-43 225q-44 80 -135 80q-90 0 -137 -80
q-45 -77 -45 -225q0 -146 45 -223q47 -80 137 -80q91 0 135 80zM1122 1235h-862v299h862v-299z" />
    <glyph glyph-name="aogonek.ss04" horiz-adv-x="1388" 
d="M1288 0h-2q-182 -44 -182 -106q0 -26 24 -35q29 -11 78 -11h82v-272h-147q-201 0 -307 53q-105 53 -105 166q0 58 31 109q30 49 92 96v199q-44 -102 -131 -166q-88 -64 -215 -64q-136 0 -240 78q-97 73 -155 213q-56 136 -56 301t56 301q57 139 155 215q103 80 240 80
q132 0 221 -74q90 -74 127 -188v233h434v-1128zM821 338v-2q43 79 43 225t-43 225q-44 80 -135 80q-90 0 -137 -80q-45 -77 -45 -225q0 -146 45 -223q47 -80 137 -80q91 0 135 80z" />
    <glyph glyph-name="aring.ss04" horiz-adv-x="1388" 
d="M854 1128h432v-1128h-434v199q-44 -102 -131 -166q-88 -64 -215 -64q-136 0 -240 78q-97 73 -155 213q-56 136 -56 301t56 301q57 139 155 215q103 80 240 80q132 0 221 -74q90 -74 127 -188v233zM821 338v-2q43 79 43 225t-43 225q-44 80 -135 80q-90 0 -137 -80
q-45 -77 -45 -225q0 -146 45 -223q47 -80 137 -80q91 0 135 80zM553 1247q-62 36 -100 101q-37 64 -37 141q0 73 37 137q37 63 100 100q64 37 141 37q73 0 137 -37q65 -38 101 -100q37 -64 37 -137q0 -77 -37 -141t-101 -101t-137 -37q-77 0 -141 37zM739 1438q19 22 19 49
q0 28 -19 47q-18 18 -47 18q-31 0 -49 -18t-18 -47q0 -28 18 -49t49 -21q29 0 47 21z" />
    <glyph glyph-name="atilde.ss04" horiz-adv-x="1388" 
d="M854 1128h432v-1128h-434v199q-44 -102 -131 -166q-88 -64 -215 -64q-136 0 -240 78q-97 73 -155 213q-56 136 -56 301t56 301q57 139 155 215q103 80 240 80q132 0 221 -74q90 -74 127 -188v233zM821 338v-2q43 79 43 225t-43 225q-44 80 -135 80q-90 0 -137 -80
q-45 -77 -45 -225q0 -146 45 -223q47 -80 137 -80q91 0 135 80zM307 1229h2q0 176 62 268t174 92q75 0 166 -45q70 -33 123 -33q44 0 75 25q30 24 39 61h131q-3 -179 -63 -268q-62 -92 -172 -92q-47 0 -90 14q-45 15 -78 31q-70 33 -123 33q-45 0 -76 -25q-30 -24 -39 -61
h-131z" />
    <glyph glyph-name="y.ss05" horiz-adv-x="1257" 
d="M623 436l178 692h477l-498 -1529h-477l109 338l-441 1191h455z" />
    <glyph glyph-name="yacute.ss05" horiz-adv-x="1257" 
d="M623 436l178 692h477l-498 -1529h-477l109 338l-441 1191h455zM795 1223h-412l219 333h592z" />
    <glyph glyph-name="ycircumflex.ss05" horiz-adv-x="1257" 
d="M623 436l178 692h477l-498 -1529h-477l109 338l-441 1191h455zM885 1556l260 -333h-385l-148 151l-147 -151h-383l260 333h543z" />
    <glyph glyph-name="ydieresis.ss05" horiz-adv-x="1257" 
d="M623 436l178 692h477l-498 -1529h-477l109 338l-441 1191h455zM565 1231h-444v325h444v-325zM1106 1231h-444v325h444v-325z" />
    <glyph glyph-name="ygrave.ss05" horiz-adv-x="1257" 
d="M623 436l178 692h477l-498 -1529h-477l109 338l-441 1191h455zM844 1223h-412l-399 333h592z" />
    <glyph glyph-name="uni0233.ss05" horiz-adv-x="1257" 
d="M623 436l178 692h477l-498 -1529h-477l109 338l-441 1191h455zM1044 1239h-862v299h862v-299z" />
    <glyph glyph-name="uni1EF9.ss05" horiz-adv-x="1257" 
d="M623 436l178 692h477l-498 -1529h-477l109 338l-441 1191h455zM229 1233h2q0 176 62 268t174 92q75 0 166 -45q68 -32 123 -32q45 0 75 24t39 62h131q-3 -180 -63 -269q-62 -92 -172 -92q-47 0 -90 14q-45 15 -78 31q-70 33 -123 33q-45 0 -76 -25q-30 -24 -39 -61h-131z
" />
    <glyph glyph-name="i_j.loclNLD" horiz-adv-x="1282" 
d="M543 1231h-445v325h445v-325zM1184 1231h-445v325h445v-325zM100 -401v254h518q62 0 93 28q30 27 30 86v1161h443v-1163q0 -115 -56 -198q-55 -82 -153 -125t-223 -43h-652zM543 -2h-443v1128h443v-1128z" />
    <glyph glyph-name="a.inferior" horiz-adv-x="712" 
d="M588 285l-2 -9q73 -64 73 -170v-4v-344h-249v74q-19 -37 -66 -63q-45 -25 -106 -25q-49 0 -101 25q-49 24 -76 67q-28 45 -28 103q0 88 65 129q64 40 166 49l144 12v4v4q0 27 -13 43q-14 17 -35 17q-19 0 -32 -13q-12 -12 -15 -34h-256q9 60 49 106t105 70t147 24
q156 0 230 -65zM383 -90l4 -2q16 29 19 74l-54 -5q-28 -3 -47 -16q-18 -12 -18 -33q0 -20 12 -32q13 -13 37 -13q32 0 47 27z" />
    <glyph glyph-name="b.inferior" horiz-adv-x="724" 
d="M588 309v-4q50 -41 74 -108t24 -152q0 -83 -24 -151q-23 -66 -74 -107q-48 -39 -121 -39q-49 0 -94 25t-66 71v-82h-248v779h248v-318q14 50 58 88q43 37 102 37q73 0 121 -39zM418 -51l-8 -2q16 32 16 96q0 66 -14 98q-14 33 -52 33q-37 0 -51 -33q-14 -32 -14 -98
q0 -62 16 -94q15 -31 54 -31q37 0 53 31z" />
    <glyph glyph-name="c.inferior" horiz-adv-x="690" 
d="M184 -211l-6 -2q-70 37 -110 104q-41 68 -41 156q0 90 41 158q40 67 110 104t164 37q82 0 154 -29q67 -27 110 -79q42 -50 51 -123h-256q-3 25 -16 45q-12 18 -39 18q-59 0 -59 -131q0 -64 16 -96q15 -31 47 -31q51 0 60 57h256q-9 -71 -56 -124t-112 -76
q-70 -25 -148 -25q-96 0 -166 37z" />
    <glyph glyph-name="d.inferior" horiz-adv-x="724" 
d="M418 545l246 2v-778h-248v81q-19 -40 -66 -69q-44 -27 -92 -27q-73 0 -121 39q-51 41 -74 107q-24 68 -24 151q0 85 24 152t74 108t121 41q59 0 102 -37q44 -38 58 -88v318zM408 -45l-9 -2q17 34 17 96q0 63 -15 98q-14 33 -51 33t-51 -33q-14 -32 -14 -98q0 -62 16 -94
q15 -31 53 -31t54 31z" />
    <glyph glyph-name="e.inferior" horiz-adv-x="690" 
d="M655 -14h-374q15 -84 61 -84q36 0 45 37h258q-30 -88 -110 -138q-79 -49 -193 -49q-98 0 -166 39q-70 40 -108 109q-37 67 -37 151q0 89 39 154t110 106q68 39 166 39q90 0 160 -37q71 -38 110 -106q41 -71 41 -172q0 -39 -2 -49zM283 123h127q-3 32 -19 55t-43 23
q-53 0 -65 -78z" />
    <glyph glyph-name="f.inferior" horiz-adv-x="487" 
d="M414 385l-4 -4q-26 0 -39 -10t-13 -31v-6h99v-182h-99v-388h-252v388h-77v182h77v12q0 95 68 148q66 51 174 51h111v-160h-45z" />
    <glyph glyph-name="g.inferior" horiz-adv-x="724" 
d="M422 336l246 -2v-535q0 -138 -93 -194q-92 -56 -210 -56q-64 0 -132 19q-62 17 -112 61q-49 43 -58 111h256q12 -27 48 -27q55 0 55 80v76q-21 -43 -66 -68q-44 -24 -94 -24q-72 0 -121 37t-73 102q-25 67 -25 147q0 81 25 148q24 65 73 102t121 37q59 0 103 -35
q42 -33 57 -84v105zM412 -29h4q16 29 16 86q0 119 -67 119q-68 0 -68 -119q0 -57 16 -86q16 -28 49 -28q34 0 50 28z" />
    <glyph glyph-name="h.inferior" horiz-adv-x="712" 
d="M623 291v-4q36 -56 36 -160v-4v-361h-251v310v4q0 45 -11 71q-10 23 -37 23q-23 0 -36 -23t-13 -73v-310h-252v779h248v-324q49 129 178 129q101 0 138 -57z" />
    <glyph glyph-name="i.inferior" horiz-adv-x="370" 
d="M311 377h-252v168h252v-168zM311 -233h-252v569h252v-569z" />
    <glyph glyph-name="j.inferior" horiz-adv-x="370" 
d="M311 377h-252v168h252v-168zM-18 -434l4 172h22q28 0 41 10q12 9 12 35v551h252v-574q0 -96 -67 -145t-174 -49h-90z" />
    <glyph glyph-name="k.inferior" horiz-adv-x="731" 
d="M551 82l176 -315h-283l-133 258v-258h-252v778h252v-420l131 211h277z" />
    <glyph glyph-name="l.inferior" horiz-adv-x="370" 
d="M311 -233h-252v778h252v-778z" />
    <glyph glyph-name="m.inferior" horiz-adv-x="1044" 
d="M952 291h-2q37 -58 37 -160v-4v-360h-252v309v4q0 49 -10 72q-9 22 -31 22q-21 0 -30 -24q-11 -29 -11 -76v-310h-254v310v4q0 49 -10 72q-9 22 -31 22q-20 0 -32 -25q-13 -26 -13 -75v-310h-252v570h248v-121q20 59 62 98q40 37 114 37q65 0 105 -37q41 -38 55 -94
q21 59 64 96t108 37q98 0 135 -57z" />
    <glyph glyph-name="n.inferior" horiz-adv-x="712" 
d="M623 291v-4q36 -56 36 -160v-4v-361h-251v310v4q0 45 -11 71q-10 23 -37 23q-23 0 -36 -23t-13 -73v-310h-252v570h248v-115q49 129 178 129q101 0 138 -57z" />
    <glyph glyph-name="o.inferior" horiz-adv-x="710" 
d="M182 -211v-2q-71 36 -112 104q-39 65 -39 154t39 154q41 69 112 108t174 39t174 -39q74 -41 113 -106t39 -154q0 -88 -39 -153q-41 -68 -113 -105q-73 -37 -174 -37t-174 37zM408 -51h-5q15 30 15 96q0 68 -15 98q-15 31 -51 31q-37 0 -51 -33q-14 -32 -14 -98
q0 -62 16 -94q15 -31 53 -31q36 0 52 31z" />
    <glyph glyph-name="p.inferior" horiz-adv-x="724" 
d="M588 309v-4q50 -41 74 -108t24 -152q0 -83 -24 -151q-23 -66 -74 -107q-48 -39 -121 -39q-49 0 -94 25t-66 71v-282h-248v770h248v-109q14 50 58 88q43 37 102 37q73 0 121 -39zM418 -51l-8 -2q16 32 16 96q0 66 -14 98q-14 33 -52 33q-37 0 -51 -33q-14 -32 -14 -98
q0 -62 16 -94q15 -31 54 -31q37 0 53 31z" />
    <glyph glyph-name="q.inferior" horiz-adv-x="724" 
d="M418 336l246 2v-770h-248v282q-19 -40 -66 -69q-44 -27 -92 -27q-73 0 -121 39q-51 41 -74 107q-24 68 -24 151q0 85 24 152t74 108t121 41q59 0 102 -37q44 -38 58 -88v109zM408 -45l-9 -2q17 34 17 96q0 63 -15 98q-14 33 -51 33t-51 -33q-14 -32 -14 -98q0 -62 16 -94
q15 -31 53 -31t54 31z" />
    <glyph glyph-name="r.inferior" horiz-adv-x="509" 
d="M307 166l-4 2q15 76 62 129t120 53v-244h-61q-60 0 -86 -26q-27 -27 -27 -80v-233h-252v569h248v-170z" />
    <glyph glyph-name="s.inferior" horiz-adv-x="665" 
d="M123 -203l-2 -8q-80 47 -92 141h256q9 -51 57 -51q22 0 35 10q12 9 12 25t-12 25q-11 8 -43 18l-135 31q-83 18 -123 55q-39 36 -39 104q0 60 37 103t102 67q67 25 141 25q121 0 203 -43q83 -44 101 -127h-256q0 15 -13 25t-33 10q-18 0 -30 -6q-13 -7 -13 -19t13 -18
q11 -6 37 -12l135 -31q85 -18 129 -62q43 -43 43 -116q0 -94 -86 -144q-85 -49 -217 -49q-127 0 -207 47z" />
    <glyph glyph-name="t.inferior" horiz-adv-x="499" 
d="M358 154v-160v-4q0 -21 13 -31q11 -8 41 -8h39v-182h-107q-105 0 -172 49q-68 50 -68 141v4v191h-81v182h81v133h254v-133h93v-182h-93z" />
    <glyph glyph-name="u.inferior" horiz-adv-x="710" 
d="M399 336l248 -4v-570h-248v107q-44 -121 -176 -121q-92 0 -133 53t-41 166v4v363h252v-311v-5q0 -48 12 -69t37 -21q24 0 37 23q12 21 12 74v311z" />
    <glyph glyph-name="v.inferior" horiz-adv-x="692" 
d="M346 -160l82 496h250l-105 -569h-454l-103 569h248z" />
    <glyph glyph-name="w.inferior" horiz-adv-x="983" 
d="M707 -158l51 494h196l-65 -569h-365l-32 505l-33 -505h-367l-63 569h194l53 -494l41 494h349z" />
    <glyph glyph-name="x.inferior" horiz-adv-x="692" 
d="M506 61l182 -294h-266l-76 149l-76 -149h-268l182 294l-172 275h267l67 -133l68 133h264z" />
    </font>
</defs>
</svg>
