<?xml version="1.0" standalone="no"?>
<!DOCTYPE svg PUBLIC "-//W3C//DTD SVG 1.1//EN" "http://www.w3.org/Graphics/SVG/1.1/DTD/svg11.dtd" >
<svg xmlns="http://www.w3.org/2000/svg" xmlns:xlink="http://www.w3.org/1999/xlink" version="1.1">
<metadata>
Created by FontForge 20170731 at Fri Apr 21 21:41:35 2023
 By Aleksey,,,
(c) 2014-2020. Copyright by TYPE.WELTKERN :. All rights reserved.
</metadata>
<defs>
<font id="TWKEverett-Thin" horiz-adv-x="1536" >
  <font-face 
    font-family="TWK Everett"
    font-weight="250"
    font-stretch="normal"
    units-per-em="2048"
    panose-1="2 11 2 4 0 0 0 0 0 0"
    ascent="1638"
    descent="-410"
    x-height="1079"
    cap-height="1556"
    bbox="-1661 -563 6713 2085"
    underline-thickness="45"
    underline-position="-460"
    unicode-range="U+000D-FEFF"
  />
<missing-glyph horiz-adv-x="1468" 
d="M1221 0h-973v1556h973v-1556zM307 1503v-1450h852v1450h-852z" />
    <glyph glyph-name="fi" unicode="fi" horiz-adv-x="1126" 
d="M938 0l-57 -2v1030h-537v-1030h-57v1030h-260v49h260v226q0 123 65 188t189 65h127v-49h-125q-101 0 -150 -49t-49 -153v-226h594v-1079zM879 1309v245h59v-245h-59z" />
    <glyph glyph-name="fl" unicode="fl" horiz-adv-x="1126" 
d="M938 0l-57 -2v1507h-338q-101 0 -150 -49t-49 -153v-226h324v-49h-324v-1030h-57v1030h-260v49h260v226q0 123 65 188t189 65h397v-1556z" />
    <glyph glyph-name="W_W_W" unicode="WWW" horiz-adv-x="6752" 
d="M600 0h-65l-496 1556h65zM700 0h-65l422 1556h65zM1645 0h-66l-422 1556h66zM1745 0h-66l496 1556h66zM2836 0h-65l-496 1556h66zM2937 0h-66l422 1556h66zM3881 0h-66l-421 1556h65zM3981 0h-65l495 1556h66zM5073 0h-66l-495 1556h65zM5173 0h-65l422 1556h65zM6117 0
h-65l-422 1556h65zM6218 0h-66l496 1556h65z" />
    <glyph glyph-name="f_f" unicode="ff" horiz-adv-x="1378" 
d="M1233 1507v-4q-101 0 -150 -49t-49 -154v-225h324v-49h-324v-1030h-57v1030h-633v-1030h-57v1030h-260v49h260v225q0 124 65 189t189 65h127v-49h-125q-101 0 -150 -49t-49 -153v-226h633v226q0 123 65 188t189 65h127v-49h-125z" />
    <glyph glyph-name="f_f_i" unicode="ffi" horiz-adv-x="1816" 
d="M1626 1079v-1083h-57v1030h-535v-1030h-57v1030h-633v-1030h-57v1030h-260v49h260v225q0 124 65 189t189 65h127v-49h-125q-101 0 -150 -49t-49 -153v-226h633v226q0 123 65 188t189 65h127v-49h-125q-101 0 -150 -49t-49 -153v-226h592zM1567 1307v245h59v-245h-59z" />
    <glyph glyph-name="f_f_l" unicode="ffl" horiz-adv-x="1816" 
d="M1569 1556l57 -4v-1556h-57v1030h-535v-1030h-57v1030h-633v-1030h-57v1030h-260v49h260v225q0 124 65 189t189 65h127v-49h-125q-101 0 -150 -49t-49 -153v-226h633v226q0 123 65 188t189 65h127v-49h-125q-101 0 -150 -49t-49 -153v-226h535v477z" />
    <glyph glyph-name="f_j" unicode="fj" horiz-adv-x="1126" 
d="M938 1079v-1233q0 -120 -66 -186q-63 -63 -188 -63h-47v49h43q102 0 151 49q50 50 50 153v1180h-537v-1030h-57v1030h-260v49h260v226q0 123 65 188t189 65h127v-49h-125q-101 0 -150 -49t-49 -153v-226h594zM879 1307v245h59v-245h-59z" />
    <glyph glyph-name="f_t" unicode="ft" horiz-adv-x="1386" 
d="M1026 1030l2 -780v-4q0 -101 49 -150t148 -49h129v-49h-131q-121 0 -187 63q-67 64 -67 185v4v778h-625v-1030h-57v1030h-260v49h260v226q0 123 65 188t189 65h127v-49h-125q-101 0 -150 -49t-49 -153v-226h625v256h57v-256h328v-49h-328z" />
    <glyph glyph-name="t_f" unicode="tf" horiz-adv-x="1386" 
d="M1239 1507v-2q-100 0 -149 -49q-50 -50 -50 -153v-226h324v-49h-324v-1030h-57v1030h-645v-778v-4q0 -101 49 -150t150 -49h127v-49h-129q-126 0 -189 63q-65 65 -65 185v4v778h-261v49h261v256h57v-256h645v226q0 122 66 188q65 65 188 65h127v-49h-125z" />
    <glyph glyph-name="t_t" unicode="tt" horiz-adv-x="1392" 
d="M1032 1030v-778v-4q0 -101 49 -150t152 -49h127v-49h-131q-121 0 -187 63q-67 64 -67 185v4v778h-637v-778v-4q0 -101 49 -150t150 -49h127v-49h-129q-126 0 -189 63q-65 65 -65 185v4v778h-261v49h261v256h57v-256h637v256h57v-256h328v-49h-328z" />
    <glyph glyph-name="w_w_w" unicode="www" horiz-adv-x="5242" 
d="M475 0h-59l-369 1079h57zM567 0h-57l307 1079h60zM1278 0h-59l-308 1079h58zM1372 0h-59l368 1079h60zM2204 0h-60l-368 1079h57zM2296 0h-58l308 1079h59zM3006 0h-59l-307 1079h57zM3101 0h-60l369 1079h59zM3932 0h-59l-369 1079h57zM4024 0h-57l307 1079h60zM4735 0
h-59l-308 1079h58zM4829 0h-59l368 1079h60z" />
    <glyph glyph-name=".notdef" horiz-adv-x="1468" 
d="M1221 0h-973v1556h973v-1556zM307 1503v-1450h852v1450h-852z" />
    <glyph glyph-name=".null" horiz-adv-x="0" 
 />
    <glyph glyph-name="nonmarkingreturn" unicode="&#xd;" horiz-adv-x="565" 
 />
    <glyph glyph-name="space" unicode=" " horiz-adv-x="565" 
 />
    <glyph glyph-name="exclam" unicode="!" horiz-adv-x="501" 
d="M279 483h-56l-2 1073h60zM283 0h-64v233h64v-233z" />
    <glyph glyph-name="quotedbl" unicode="&#x22;" horiz-adv-x="583" 
d="M209 1073h-47l-8 483h63zM424 1073h-47l-8 483h63z" />
    <glyph glyph-name="numbersign" unicode="#" horiz-adv-x="1570" 
d="M1491 1079v-47h-361l-104 -504h354v-47h-362l-100 -481h-56l101 481h-480l-100 -481h-53l100 481h-352v47h360l105 504h-353v47h363l98 477h54l-99 -477h479l99 477h55l-98 -477h350zM492 528h479l104 504h-479z" />
    <glyph glyph-name="dollar" unicode="$" horiz-adv-x="1292" 
d="M1110 209l-8 6q-61 -104 -176 -166t-271 -65v-246h-57v246q-133 6 -240 67q-108 61 -178 166q-71 106 -86 240h62q15 -122 75 -211q61 -91 158 -148q91 -54 209 -63v780l-72 16q-109 24 -190 64q-85 42 -139 113q-56 74 -56 188q0 100 60 188t164 140t237 55v236h57v-236
q130 -6 232 -57q104 -52 172 -144q67 -91 82 -215h-62q-15 106 -73 185q-57 77 -148 125q-85 45 -200 51v-670l86 -20q147 -35 237 -84q93 -50 139 -123q47 -74 47 -181q0 -133 -61 -237zM596 874l-4 656q-118 -3 -207 -47q-90 -44 -139 -117t-49 -166q0 -96 45 -156
t129 -98q66 -30 215 -69zM649 35l-4 -2q135 3 238 59q100 55 157 148q56 92 56 211q0 104 -56 172q-54 65 -145 104q-90 38 -221 68l-25 6v-766z" />
    <glyph glyph-name="percent" unicode="%" horiz-adv-x="1822" 
d="M231 752l-2 -9q-70 52 -108 152q-37 98 -37 238q0 139 37 237q38 100 108 152q71 53 170 53q102 0 170 -51q72 -53 109 -152q37 -98 37 -235q0 -138 -37 -236q-36 -94 -109 -149q-70 -52 -170 -52q-98 0 -168 52zM506 -8h-62l865 1556h61zM590 838v-2q69 100 69 292
q0 195 -69 295q-71 103 -193 103q-123 0 -190 -101q-68 -103 -68 -295q0 -191 68 -294q67 -101 190 -101q122 0 193 103zM1247 16l-2 -8q-70 52 -108 152q-37 98 -37 237q0 140 37 238t108 151q73 54 170 54q100 0 170 -52q72 -54 109 -151q37 -98 37 -236q0 -137 -37 -235
q-36 -96 -109 -150q-68 -51 -168 -51q-102 0 -170 51zM1606 102v-6q67 101 67 295t-67 295q-68 102 -191 102t-192 -100q-70 -101 -70 -295q0 -190 70 -291q69 -100 192 -100q125 0 191 100z" />
    <glyph glyph-name="ampersand" unicode="&#x26;" horiz-adv-x="1488" 
d="M1446 0l-78 -4l-272 303q-89 -144 -215 -233q-130 -91 -301 -91q-133 0 -246 52q-112 52 -180 151q-68 100 -68 238q0 135 57 227q60 96 150 160q93 65 231 133l4 2l-32 35q-79 88 -115 153q-37 67 -37 154q0 79 41 150q40 70 113 110q74 41 168 41q97 0 168 -39
t112 -110t41 -160q0 -76 -43 -137q-44 -63 -110 -105q-56 -36 -175 -94l-36 -18l469 -523l237 400h62l-263 -443zM580 954l38 19q132 68 173 94q60 38 96 86q37 49 37 117q0 125 -74 190q-75 66 -186 66q-74 0 -134 -31q-57 -29 -92 -88q-32 -54 -32 -135q0 -52 18 -98
q16 -41 49 -89q20 -29 84 -104zM786 66l-4 2q94 46 152 110q61 67 121 164l-492 547q-144 -70 -227 -131q-89 -65 -139 -148t-50 -196q0 -120 62 -209t160 -135q100 -47 209 -47q121 0 208 43z" />
    <glyph glyph-name="quotesingle" unicode="'" horiz-adv-x="370" 
d="M209 1073h-47l-8 483h63z" />
    <glyph glyph-name="parenleft" unicode="(" horiz-adv-x="552" 
d="M453 -401h-2q-334 466 -334 987q0 284 92 522q88 228 244 448h65q-157 -217 -246 -448q-92 -238 -92 -522q0 -520 338 -987h-65z" />
    <glyph glyph-name="parenright" unicode=")" horiz-adv-x="552" 
d="M37 -401h-2q338 473 338 987q0 284 -92 522q-89 231 -246 451h63q155 -219 244 -449q92 -238 92 -522q0 -526 -334 -989h-63z" />
    <glyph glyph-name="asterisk" unicode="*" horiz-adv-x="919" 
d="M803 1565l14 -43l-321 -109l211 -283l-37 -26l-211 282l-211 -282l-37 26l213 283l-322 109l15 43l319 -109v330h45v-330z" />
    <glyph glyph-name="plus" unicode="+" horiz-adv-x="1294" 
d="M676 578h512v-52h-512v-526h-58v526h-512v52h512v501h58v-501z" />
    <glyph glyph-name="comma" unicode="," horiz-adv-x="419" 
d="M178 233h64v-243l-123 -244h-56l115 252v235z" />
    <glyph glyph-name="hyphen" unicode="-" horiz-adv-x="843" 
d="M733 547h-620v51h620v-51z" />
    <glyph glyph-name="period" unicode="." horiz-adv-x="419" 
d="M242 0h-64v233h64v-233z" />
    <glyph glyph-name="slash" unicode="/" horiz-adv-x="890" 
d="M133 0h-61l684 1556h61z" />
    <glyph glyph-name="zero" unicode="0" horiz-adv-x="1415" 
d="M406 72v-9q-127 95 -195 275t-68 434t68 434t195 275q125 94 301 94q175 0 303 -94t196 -273q68 -180 68 -432t-68 -432q-67 -178 -196 -272q-130 -95 -303 -95q-174 0 -301 95zM975 106q112 81 174 252q61 168 61 412t-61 412q-62 171 -174 252q-116 84 -270 84
q-151 0 -267 -84q-112 -81 -174 -252q-61 -168 -61 -412t61 -412q62 -171 174 -252q115 -83 267 -83q155 0 270 83z" />
    <glyph glyph-name="one" unicode="1" horiz-adv-x="688" 
d="M397 1556l52 3v-1557h-60v1286h-334v53h236q43 0 67 7q23 7 29 22q7 18 10 47v139z" />
    <glyph glyph-name="two" unicode="2" horiz-adv-x="1275" 
d="M162 53l1014 -4v-53h-1074v80l680 622q90 81 154 152q54 60 94 141q37 75 37 166q0 96 -49 178q-50 83 -148 135t-235 52q-129 0 -227 -43q-97 -43 -156 -123t-68 -180h-63q12 124 80 213q69 90 178 139q110 49 252 49q154 0 262 -57q111 -58 170 -154q59 -95 59 -205
q0 -97 -37 -178q-39 -85 -98 -156q-50 -60 -158 -161z" />
    <glyph glyph-name="three" unicode="3" horiz-adv-x="1312" 
d="M944 780l-12 4q98 -43 168 -125q69 -81 69 -213q0 -152 -77 -258q-74 -101 -203 -155q-122 -51 -277 -51q-135 0 -245 43t-181 129t-86 206h62q21 -158 141 -243q121 -86 307 -86q136 0 246 45q112 46 184 139q70 91 70 227q0 119 -72 203q-71 83 -184 123
q-115 41 -233 41h-70v53h70q115 0 213 43q97 43 157 121t60 172q0 92 -56 166t-153 117q-98 43 -232 43q-117 0 -207 -41q-89 -41 -141 -111t-61 -160h-62q9 106 74 189q65 84 168 129q106 47 231 47q148 0 258 -45q114 -46 179 -133q65 -86 65 -201t-57 -190
q-58 -76 -142 -117t-165 -53q97 -15 194 -58z" />
    <glyph glyph-name="four" unicode="4" horiz-adv-x="1304" 
d="M989 569h250v-53h-250v-516h-59v516h-875v80l770 960h70l-786 -987h821v987h59v-987z" />
    <glyph glyph-name="five" unicode="5" horiz-adv-x="1316" 
d="M952 981h-4q118 -65 185 -184t67 -279q0 -163 -67 -285t-191 -190t-278 -68q-128 0 -246 48q-112 46 -187 133q-73 85 -94 200h62q15 -98 80 -172t165 -114q103 -41 222 -41q138 0 245 61q109 62 170 172q62 112 62 256q0 141 -60 252q-59 108 -165 166q-105 57 -242 57
q-166 0 -287 -80q-120 -79 -184 -211l-60 9l86 843h889v-53h-835l-74 -729q60 120 178 195q121 77 295 77q154 0 268 -63z" />
    <glyph glyph-name="six" unicode="6" horiz-adv-x="1372" 
d="M999 952l-10 -10q122 -66 185 -180q65 -118 65 -275q0 -156 -70 -272t-192 -180t-270 -64q-180 0 -308 88q-126 86 -198 269q-70 177 -70 446q0 253 72 438q70 181 200 273t299 92q195 0 320 -98q126 -99 184 -273h-61q-51 148 -160 232q-112 86 -278 86t-279 -94
t-172 -261q-57 -162 -57 -385q0 -60 8 -159q27 120 104 209q76 88 185 135t221 47q163 0 282 -64zM944 80l4 -6q110 63 170 168q62 109 62 239q0 134 -56 240t-161 166q-107 61 -258 61q-140 0 -248 -63q-112 -65 -172 -162q-62 -100 -62 -197q0 -119 53 -237
q54 -120 160 -195q107 -76 264 -76q135 0 244 62z" />
    <glyph glyph-name="seven" unicode="7" horiz-adv-x="1042" 
d="M47 1503v53h952v-79l-772 -1477h-69l788 1503h-899z" />
    <glyph glyph-name="eight" unicode="8" horiz-adv-x="1376" 
d="M1022 782l-2 -10q90 -47 154 -135q65 -89 65 -221q0 -138 -76 -242q-75 -103 -202 -156t-275 -53q-147 0 -274 53q-126 53 -203 158q-76 104 -76 244q0 130 66 221q65 89 153 135q86 45 170 58q-75 18 -153 59q-75 40 -129 115q-54 76 -54 184t62 194q62 87 176 136
q113 49 264 49t264 -49q114 -49 176 -136q62 -86 62 -192q0 -110 -53 -184q-54 -75 -129 -115q-74 -39 -154 -55q81 -12 168 -58zM293 1016l-4 -2q50 -74 147 -117q98 -43 244 -43t244 43q97 43 147 117q49 73 49 170q0 95 -51 166q-52 72 -151 116q-98 43 -236 43t-236 -43
q-99 -44 -151 -116q-51 -71 -51 -166t49 -168zM922 63l-9 -2q112 47 183 136q69 87 69 215t-67 213q-69 87 -178 127q-112 41 -242 41t-242 -41q-109 -40 -178 -127q-68 -86 -68 -213q0 -126 68 -215q68 -90 182 -136q110 -45 242 -45q128 0 240 47z" />
    <glyph glyph-name="nine" unicode="9" horiz-adv-x="1372" 
d="M963 1491l-2 -6q127 -87 198 -266q70 -177 70 -445q0 -253 -72 -438q-71 -182 -199 -273q-130 -92 -296 -92q-194 0 -320 99t-184 272h63q46 -143 158 -229t280 -86t281 94t172 262q57 162 57 385q0 61 -8 160q-27 -120 -104 -209q-76 -88 -185 -135q-105 -45 -221 -45
q-165 0 -282 63q-120 65 -185 182q-63 114 -63 275q0 155 72 274q73 120 192 183q120 63 270 63q180 0 308 -88zM905 651l-10 4q112 65 172 162q61 98 61 197q0 119 -53 237q-54 120 -160 195q-110 78 -264 78q-132 0 -241 -62q-107 -61 -168 -168q-62 -109 -62 -239
q0 -134 56 -240t161 -166q107 -61 258 -61q142 0 250 63z" />
    <glyph glyph-name="colon" unicode=":" horiz-adv-x="419" 
d="M242 0h-64v233h64v-233zM242 678h-64v233h64v-233z" />
    <glyph glyph-name="semicolon" unicode=";" horiz-adv-x="421" 
d="M178 233h64v-243l-123 -244h-56l115 252v235zM244 678h-64v233h64v-233z" />
    <glyph glyph-name="less" unicode="&#x3c;" horiz-adv-x="1169" 
d="M106 580l924 448v-57l-883 -428l883 -430v-56l-924 447v76z" />
    <glyph glyph-name="equal" unicode="=" horiz-adv-x="1300" 
d="M1133 725h-965v51h965v-51zM1133 330h-965v51h965v-51z" />
    <glyph glyph-name="greater" unicode="&#x3e;" horiz-adv-x="1169" 
d="M139 971v57l924 -448v-76l-924 -447v56l883 430z" />
    <glyph glyph-name="question" unicode="?" horiz-adv-x="1042" 
d="M451 483v2q0 139 45 228q50 98 149 176l72 57q74 63 102 94q42 45 60 88q22 52 22 113q0 71 -43 135q-45 66 -129 109q-85 43 -215 43q-102 0 -186 -37q-87 -38 -138 -107q-52 -70 -61 -165h-59q9 115 71 198t160 123q100 41 213 41q133 0 234 -43q102 -44 157 -119
q56 -77 56 -178q0 -71 -27 -129q-25 -53 -68 -100q-31 -34 -102 -94l-70 -58q-72 -59 -110 -112q-40 -54 -58 -117q-18 -62 -18 -148h-57zM510 2h-61v234h61v-234z" />
    <glyph glyph-name="at" unicode="@" horiz-adv-x="2021" 
d="M1450 1235l-4 -29q206 -120 326 -323t120 -445q0 -172 -39 -276q-42 -111 -106 -158q-67 -49 -156 -49q-69 0 -133 31q-59 29 -98 90q-36 56 -39 139q-46 -113 -141 -184q-97 -72 -242 -72q-102 0 -176 39q-78 41 -121 111t-43 155q0 100 66 160q67 61 153 84
q95 26 219 43l285 35v24v4q0 90 -33 160q-34 73 -104 119q-71 47 -178 47q-101 0 -168 -33q-71 -35 -107 -88q-37 -55 -43 -119h-61q9 83 55 150q45 66 129 104q81 37 195 37q124 0 206 -49q82 -50 123 -129q41 -80 41 -168v-4v-381v-4q0 -112 62 -174t159 -62
q115 0 179 101q65 103 65 338q0 230 -112 420q-113 192 -308 307q-190 112 -420 112q-229 0 -419 -112q-195 -115 -308 -307q-112 -190 -112 -420t112 -420q113 -192 308 -307q192 -113 419 -113q205 0 410 111l29 -47q-210 -115 -439 -115q-241 0 -448 121t-326 325
q-121 207 -121 449t121 446t326 324q207 121 448 121q245 0 449 -119zM1145 49h-2q83 50 127 139q43 87 43 199v139l-236 -26q-137 -18 -223 -39q-85 -21 -143 -70q-60 -51 -60 -137q0 -79 39 -135q40 -58 107 -88q70 -31 147 -31q119 0 201 49z" />
    <glyph glyph-name="A" unicode="A" horiz-adv-x="1480" 
d="M1464 0h-67l-221 539h-871l-221 -539h-68l641 1556h66l-395 -960h825l-395 960h67z" />
    <glyph glyph-name="B" unicode="B" horiz-adv-x="1435" 
d="M1104 750v-5q98 -49 151 -135q54 -88 54 -198q0 -132 -68 -224q-67 -91 -197 -141q-128 -49 -315 -49h-502v1556h502q157 0 275 -47q117 -46 182 -133q63 -84 63 -203q0 -154 -104 -245q-106 -92 -279 -119q143 -9 238 -57zM1133 1339l-5 -4q-58 76 -155 115
q-103 41 -244 41h-438v-664h438q138 0 244 41q104 40 160 117q55 76 55 178q0 103 -55 176zM729 47h-2q252 0 383 96q129 94 129 265q0 170 -129 264q-131 96 -381 96h-440v-721h440z" />
    <glyph glyph-name="C" unicode="C" horiz-adv-x="1583" 
d="M469 78l-2 -10q-162 106 -250 284q-92 186 -92 416q0 234 92 416q90 178 252 282q161 103 356 103q166 0 301 -66q134 -65 222 -176t135 -252h-66q-71 198 -221 318t-369 120q-172 0 -321 -96t-234 -264q-86 -170 -86 -381t86 -381q85 -169 230 -264q146 -96 309 -96
q235 0 387 116t229 324h66q-83 -244 -254 -369q-174 -127 -426 -127q-186 0 -344 103z" />
    <glyph glyph-name="D" unicode="D" horiz-adv-x="1617" 
d="M727 1556v-4q228 0 401 -92q172 -91 267 -268q94 -175 94 -416t-94 -416q-95 -177 -267 -268q-173 -92 -401 -92h-496v1556h496zM727 53l-2 -4q208 0 367 84q158 84 243 246q86 164 86 393t-86 393q-85 162 -243 246q-159 84 -365 84h-432v-1442h432z" />
    <glyph glyph-name="E" unicode="E" horiz-adv-x="1310" 
d="M295 778v-721h897v-57h-961v1556h943v-57h-879v-663h864v-58h-864z" />
    <glyph glyph-name="F" unicode="F" horiz-adv-x="1249" 
d="M1157 1556v-57h-862v-688h850v-57h-850v-754h-64v1556h926z" />
    <glyph glyph-name="G" unicode="G" horiz-adv-x="1677" 
d="M795 780l706 -16v-780h-59v462q-26 -117 -105 -231q-78 -113 -204 -182q-132 -72 -306 -72q-199 0 -358 102q-162 104 -252 285q-92 186 -92 416t92 416q89 179 252 284q161 103 354 103q170 0 301 -64q136 -67 222 -174q88 -111 135 -252h-66q-71 200 -221 320
q-149 119 -371 119q-171 0 -319 -97q-145 -95 -230 -264q-86 -170 -86 -381q0 -209 86 -383q84 -170 234 -266q146 -94 326 -94q174 0 311 82q140 84 219 239q80 157 80 369v2h-649v57z" />
    <glyph glyph-name="H" unicode="H" horiz-adv-x="1611" 
d="M1319 836v720h61v-1556h-61v778h-1024v-778h-64v1556h64v-720h1024z" />
    <glyph glyph-name="I" unicode="I" horiz-adv-x="526" 
d="M295 0h-64v1556h64v-1556z" />
    <glyph glyph-name="J" unicode="J" horiz-adv-x="688" 
d="M41 0l-4 59h106q81 0 140 19q56 18 86 65t30 129v1284h62v-1288q0 -145 -80 -207q-79 -61 -229 -61h-111z" />
    <glyph glyph-name="K" unicode="K" horiz-adv-x="1388" 
d="M379 823l1016 -823h-90l-1010 819v-819h-64v1556h64v-729l928 729h90z" />
    <glyph glyph-name="L" unicode="L" horiz-adv-x="1077" 
d="M295 1556v-1499h741v-57h-805v1556h64z" />
    <glyph glyph-name="M" unicode="M" horiz-adv-x="2105" 
d="M295 0h-64v1556h64v-1556zM1034 0h-65l-639 1556h65zM1137 0h-68l639 1556h68zM1872 0h-62v1556h62v-1556z" />
    <glyph glyph-name="N" unicode="N" horiz-adv-x="1691" 
d="M295 0h-64v1556h64v-1556zM1364 0h-70l-964 1556h69zM1460 0h-61v1556h61v-1556z" />
    <glyph glyph-name="O" unicode="O" horiz-adv-x="1697" 
d="M477 78v-4q-166 104 -256 282q-92 182 -92 416t92 416q90 178 256 282q165 103 373 103q209 0 369 -100q165 -103 256 -283q92 -182 92 -416t-92 -416q-90 -178 -256 -282q-162 -101 -369 -101q-208 0 -373 103zM1186 123v-4q149 94 235 264t86 385t-86 385t-235 264
q-152 96 -338 96q-189 0 -338 -94q-151 -95 -236 -264q-86 -170 -86 -385t86 -385q85 -169 236 -264q149 -94 338 -94q186 0 338 96z" />
    <glyph glyph-name="P" unicode="P" horiz-adv-x="1380" 
d="M702 1556q186 0 314 -51q137 -54 207 -155q73 -104 73 -254t-73 -254q-71 -102 -207 -156q-128 -51 -314 -51h-407v-635h-64v1556h471zM702 692h-2q250 0 392 103q141 102 141 301q0 198 -139 301q-138 102 -392 102h-407v-807h407z" />
    <glyph glyph-name="Q" unicode="Q" horiz-adv-x="1705" 
d="M1751 0l-96 -2l-297 188q-90 -97 -225 -155q-130 -56 -279 -56q-208 0 -373 103q-166 104 -256 282q-92 182 -92 416t92 416q91 180 256 283q164 102 373 102t369 -100q165 -103 256 -283q92 -182 92 -416q0 -160 -47 -303q-45 -137 -133 -248zM1100 80v-4
q116 49 205 141l-433 272h99l368 -233q85 105 127 233q43 130 43 283q0 215 -86 385t-235 264q-154 97 -338 97q-187 0 -338 -95t-236 -264q-86 -170 -86 -385t86 -385q85 -169 236 -264q149 -94 338 -94q134 0 250 49z" />
    <glyph glyph-name="R" unicode="R" horiz-adv-x="1409" 
d="M1333 0l-76 -2l-477 713h-30h-457v-713h-64v1556h521q152 0 268 -49q114 -48 180 -145q64 -94 64 -227q0 -175 -111 -283q-110 -107 -297 -131zM293 768h452q135 0 236 43q100 43 156 123q55 79 55 196q0 115 -55 197q-57 84 -154 127q-98 43 -233 43h-457v-729z" />
    <glyph glyph-name="S" unicode="S" horiz-adv-x="1374" 
d="M403 37h-8q-123 58 -202 166q-80 109 -101 246h66q15 -125 90 -222q74 -95 184 -147q108 -51 240 -51q156 0 274 53q116 52 178 147t62 215q0 96 -47 158q-46 61 -146 105q-92 41 -266 79l-164 35q-126 28 -215 70q-92 43 -147 117q-56 74 -56 186q0 104 66 195
q65 89 184 141q121 53 271 53q145 0 264 -49t196 -141t95 -222h-64q-18 111 -86 191t-172 123t-233 43q-132 0 -236 -43t-162 -119q-57 -75 -57 -172q0 -96 45 -156t135 -98q76 -32 240 -70l162 -34q174 -38 270 -88q100 -51 147 -123q47 -71 47 -172q0 -140 -69 -246
t-203 -168q-133 -62 -307 -62q-149 0 -275 60z" />
    <glyph glyph-name="T" unicode="T" horiz-adv-x="1243" 
d="M41 1556h1161v-57h-549v-1499h-61v1499h-551v57z" />
    <glyph glyph-name="U" unicode="U" horiz-adv-x="1595" 
d="M356 143v2q-143 165 -143 478v4v932h61v-934v-4q0 -287 132 -437q131 -149 393 -149q260 0 393 151q131 149 131 437v933h61v-931q0 -312 -143 -480t-442 -168t-443 166z" />
    <glyph glyph-name="V" unicode="V" horiz-adv-x="1454" 
d="M711 0h-68l-625 1556h70zM811 0h-66l621 1556h68z" />
    <glyph glyph-name="W" unicode="W" horiz-adv-x="2279" 
d="M600 0h-65l-496 1556h65zM700 0h-65l422 1556h65zM1645 0h-66l-422 1556h66zM1745 0h-66l496 1556h66z" />
    <glyph glyph-name="X" unicode="X" horiz-adv-x="1511" 
d="M797 844l702 -844h-78l-665 801l-666 -801h-78l703 842l-596 714h76l561 -669l561 669h76z" />
    <glyph glyph-name="Y" unicode="Y" horiz-adv-x="1312" 
d="M1231 1556h72l-615 -854v-702h-63v702l-615 854h72l575 -796z" />
    <glyph glyph-name="Z" unicode="Z" horiz-adv-x="1333" 
d="M1245 1473l-1116 -1416h1153v-57h-1212v84l1118 1415h-1106v57h1163v-83z" />
    <glyph glyph-name="bracketleft" unicode="[" horiz-adv-x="577" 
d="M528 1556v-49h-249v-1859h249v-49h-307v1957h307z" />
    <glyph glyph-name="backslash" unicode="\" horiz-adv-x="890" 
d="M817 0h-61l-684 1556h61z" />
    <glyph glyph-name="bracketright" unicode="]" horiz-adv-x="577" 
d="M49 1507v49h307v-1957h-307v49h250v1859h-250z" />
    <glyph glyph-name="asciicircum" unicode="^" horiz-adv-x="1085" 
d="M586 1556l403 -784h-63l-383 752l-385 -752h-60l402 784h86z" />
    <glyph glyph-name="underscore" unicode="_" horiz-adv-x="1019" 
d="M969 -47h-918v47h918v-47z" />
    <glyph glyph-name="grave" unicode="`" horiz-adv-x="464" 
d="M399 1255h-57l-276 301h75z" />
    <glyph glyph-name="a" unicode="a" horiz-adv-x="1148" 
d="M797 1044l2 -4q91 -55 135 -145q43 -87 43 -184v-4v-711h-57v258q-50 -127 -154 -203q-107 -78 -266 -78q-108 0 -193 43q-86 44 -135 119q-49 76 -49 172q0 112 67 176q68 65 170 92q108 29 240 43l315 39v25v4q0 99 -36 178q-37 82 -117 135q-79 52 -199 52
q-111 0 -186 -37q-77 -38 -117 -99q-39 -59 -45 -133h-61q9 89 59 160t139 115q87 43 213 43q140 0 232 -56zM731 76v-4q95 60 139 155q48 102 48 224v151l-265 -33q-152 -17 -252 -43q-92 -23 -155 -77q-62 -53 -62 -148q0 -85 43 -149t117 -99q75 -35 162 -35
q134 0 225 58z" />
    <glyph glyph-name="b" unicode="b" horiz-adv-x="1298" 
d="M948 1032l-2 -2q111 -70 172 -199q62 -130 62 -294q0 -165 -62 -295q-61 -129 -172 -199q-110 -70 -252 -70q-113 0 -200 43q-89 44 -154 121q-63 75 -94 172v-311h-58v1556h58v-790q31 94 92 170t154 123q89 45 204 45q142 0 252 -70zM915 90l-2 -2q98 64 154 182
q55 116 55 267q0 150 -55 266q-56 118 -154 182q-101 66 -229 66q-129 0 -233 -66q-101 -64 -156 -180t-55 -266q0 -151 55 -267q56 -119 156 -182q103 -65 233 -65q131 0 231 65z" />
    <glyph glyph-name="c" unicode="c" horiz-adv-x="1173" 
d="M354 47l-6 -2q-114 70 -178 199q-64 128 -64 295t64 295q64 127 178 198q113 70 262 70q172 0 291 -101q120 -102 166 -276h-59q-41 153 -142 240q-101 88 -252 88q-131 0 -235 -66q-101 -64 -156 -180t-55 -266q0 -151 55 -267q56 -119 156 -182q103 -65 235 -65
q148 0 258 90q107 88 154 239h59q-30 -114 -98 -200q-69 -87 -162 -133q-98 -48 -209 -48q-146 0 -262 72z" />
    <glyph glyph-name="d" unicode="d" horiz-adv-x="1298" 
d="M1051 1556l59 -4v-1556h-57v311q-30 -95 -95 -172q-63 -75 -153 -119q-87 -43 -201 -43q-139 0 -252 72q-111 70 -172 199q-61 128 -61 295t61 295q61 127 172 198q110 70 252 70q117 0 203 -45q90 -47 151 -123q64 -80 93 -168v790zM844 88l-2 -2q98 62 155 182
q56 118 56 267q0 148 -56 266q-57 120 -155 182q-104 66 -234 66q-128 0 -229 -66q-99 -65 -154 -180q-55 -116 -55 -266q0 -151 55 -267q56 -118 154 -182q100 -65 231 -65t234 65z" />
    <glyph glyph-name="e" unicode="e" horiz-adv-x="1198" 
d="M1090 532l-924 3q3 -156 61 -269q59 -114 158 -176q98 -61 225 -61q154 0 252 73q99 73 146 213h59q-47 -167 -166 -252q-121 -86 -289 -86q-141 0 -256 68q-113 67 -178 197t-65 301q0 168 65 295q64 125 176 196q110 70 250 70q134 0 246 -68t176 -190q66 -126 66 -285
zM381 995l-2 -2q-95 -59 -150 -166t-61 -245h858v2q-3 130 -59 239t-154 170q-100 62 -217 62q-118 0 -215 -60z" />
    <glyph glyph-name="f" unicode="f" horiz-adv-x="690" 
d="M543 1507v-2q-101 0 -150 -49t-49 -153v-226h324v-49h-324v-1030h-57v1030h-260v49h260v226q0 123 65 188t189 65h127v-49h-125z" />
    <glyph glyph-name="g" unicode="g" horiz-adv-x="1298" 
d="M1055 1079l55 -2v-1120q0 -118 -61 -203q-63 -88 -168 -133t-242 -45q-132 0 -236 43q-103 43 -165 123t-68 188h59q9 -101 68 -172q58 -70 149 -104q88 -33 201 -33q120 0 213 41q94 42 146 117q53 77 53 178v371q-27 -91 -92 -168q-63 -75 -156 -119q-90 -43 -203 -43
q-142 0 -254 68q-110 67 -172 194q-61 125 -61 293q0 166 61 291q61 124 172 192q112 68 252 68q116 0 205 -45q93 -47 154 -123q64 -79 90 -168v311zM844 109q97 63 153 178t56 264t-56 264q-56 116 -153 176q-100 62 -232 62q-131 0 -231 -62q-99 -62 -152 -176
q-53 -115 -53 -264t53 -264q52 -113 152 -178q98 -64 231 -64q134 0 232 64z" />
    <glyph glyph-name="h" unicode="h" horiz-adv-x="1175" 
d="M803 1051h-6q91 -54 145 -150q55 -98 55 -227v-4v-672h-57v659v5q0 122 -45 208q-48 91 -125 136q-80 47 -178 47q-101 0 -178 -45t-125 -136q-45 -86 -45 -208v-664h-58v1556h58v-706q46 116 141 184t221 68q111 0 197 -51z" />
    <glyph glyph-name="i" unicode="i" horiz-adv-x="438" 
d="M248 0h-58v1079h58v-1079zM248 1311h-60v245h60v-245z" />
    <glyph glyph-name="j" unicode="j" horiz-adv-x="438" 
d="M-51 -401v47h43q100 0 149 49t49 153v1229h58v-1229q0 -120 -66 -186q-63 -63 -188 -63h-45zM248 1309h-60v245h60v-245z" />
    <glyph glyph-name="k" unicode="k" horiz-adv-x="1005" 
d="M322 602l671 -602h-78l-667 598v-598h-58v1556h58v-948l635 471h84z" />
    <glyph glyph-name="l" unicode="l" horiz-adv-x="438" 
d="M248 0h-58v1556h58v-1556z" />
    <glyph glyph-name="m" unicode="m" horiz-adv-x="1845" 
d="M1485 1051h-2q85 -52 135 -148q49 -94 49 -227v-4v-672h-57v659v5q0 117 -43 204q-43 88 -117 138q-73 49 -168 49q-93 0 -166 -49q-74 -50 -117 -138q-43 -87 -43 -204v-664h-57v659v5q0 117 -43 204q-44 88 -117 138q-73 49 -168 49q-92 0 -165 -49q-74 -50 -117 -138
q-43 -87 -43 -204v-664h-58v1079h58v-231q26 73 78 135q49 58 116 88q70 31 142 31q93 0 166 -37q72 -37 122 -102q51 -66 72 -146q21 74 68 139q46 64 120 105t166 41q106 0 189 -51z" />
    <glyph glyph-name="n" unicode="n" horiz-adv-x="1175" 
d="M803 1051h-6q91 -54 145 -150q55 -98 55 -227v-4v-672h-57v659v5q0 122 -45 208q-48 91 -125 136q-80 47 -178 47q-101 0 -178 -45t-125 -136q-45 -86 -45 -208v-664h-58v1079h58v-229q46 116 141 184t221 68q111 0 197 -51z" />
    <glyph glyph-name="o" unicode="o" horiz-adv-x="1222" 
d="M352 47v-2q-114 70 -178 199q-63 126 -63 295t63 295q64 127 178 198q113 70 258 70t258 -70q116 -72 179 -198t63 -295t-63 -295q-64 -128 -179 -199q-113 -70 -258 -70q-142 0 -258 72zM842 88l-2 -2q96 63 153 182q56 118 56 267q0 148 -56 266q-57 119 -153 182
q-101 66 -230 66t-233 -66q-101 -64 -156 -180t-55 -266q0 -151 55 -267q56 -119 156 -182q103 -65 233 -65q132 0 232 65z" />
    <glyph glyph-name="p" unicode="p" horiz-adv-x="1298" 
d="M948 1032l-2 -2q111 -70 172 -199q62 -130 62 -294q0 -165 -62 -295q-61 -129 -172 -199q-110 -70 -252 -70q-113 0 -200 43q-89 44 -154 121q-63 75 -94 172v-712h-58v1480h58v-313q31 94 92 170t154 123q89 45 204 45q142 0 252 -70zM915 90l-2 -2q98 64 154 182
q55 116 55 267q0 150 -55 266q-56 118 -154 182q-101 66 -229 66q-129 0 -233 -66q-101 -64 -156 -180t-55 -266q0 -151 55 -267q56 -119 156 -182q103 -65 233 -65q131 0 231 65z" />
    <glyph glyph-name="q" unicode="q" horiz-adv-x="1298" 
d="M1051 1079l59 -4v-1481h-57v713q-30 -95 -95 -172q-63 -75 -153 -119q-87 -43 -201 -43q-139 0 -252 72q-111 70 -172 199q-61 128 -61 295t61 295q61 127 172 198q110 70 252 70q117 0 203 -45q90 -47 151 -123q64 -80 93 -168v313zM844 88l-2 -2q98 62 155 182
q56 118 56 267q0 148 -56 266q-57 120 -155 182q-104 66 -234 66q-128 0 -229 -66q-99 -65 -154 -180q-55 -116 -55 -266q0 -151 55 -267q56 -118 154 -182q100 -65 231 -65t234 65z" />
    <glyph glyph-name="r" unicode="r" horiz-adv-x="686" 
d="M248 848l-2 -2q47 124 141 188q97 66 258 66v-56h-12q-120 0 -205 -43q-87 -44 -133 -129q-47 -86 -47 -206v-666h-58v1079h58v-231z" />
    <glyph glyph-name="s" unicode="s" horiz-adv-x="1015" 
d="M317 16l-2 -2q-89 40 -147 117q-58 76 -76 178h60q21 -89 73 -153q53 -64 129 -99q71 -32 166 -32q105 0 178 36q76 37 117 99t41 129q0 79 -33 121q-36 45 -98 71q-65 27 -178 51l-96 21q-151 30 -240 92q-88 61 -88 178q0 82 49 146q47 61 135 100q84 37 191 37
q95 0 174 -33q84 -35 141 -98q59 -65 74 -156h-60q-15 77 -61 129q-47 53 -117 80q-76 29 -147 29q-82 0 -156 -27q-71 -26 -119 -80q-45 -51 -45 -123q0 -69 37 -112q39 -45 98 -68q65 -25 158 -43l96 -20q120 -25 191 -58q70 -33 112 -90q39 -53 39 -139q0 -91 -51 -162
q-52 -73 -141 -117q-87 -43 -201 -43q-113 0 -203 41z" />
    <glyph glyph-name="t" unicode="t" horiz-adv-x="696" 
d="M338 1030v-778v-4q0 -101 49 -150t150 -49h127v-49h-129q-126 0 -189 63q-65 65 -65 185v4v778h-261v49h261v256h57v-256h326v-49h-326z" />
    <glyph glyph-name="u" unicode="u" horiz-adv-x="1165" 
d="M918 1079h53v-1079h-58v227q-47 -117 -137 -184q-92 -68 -215 -68q-102 0 -190 52q-91 54 -144 149q-55 98 -55 230v4v669h57v-659v-4q0 -120 47 -209t125 -135q80 -47 174 -47q96 0 173 47q75 46 122 135q48 91 48 209v663z" />
    <glyph glyph-name="v" unicode="v" horiz-adv-x="1128" 
d="M547 0h-60l-450 1079h61zM643 0h-61l448 1079h62z" />
    <glyph glyph-name="w" unicode="w" horiz-adv-x="1787" 
d="M475 0h-59l-369 1079h57zM567 0h-57l307 1079h60zM1278 0h-59l-308 1079h58zM1372 0h-59l368 1079h60z" />
    <glyph glyph-name="x" unicode="x" horiz-adv-x="1054" 
d="M567 590l459 -590h-70l-428 549l-430 -549h-69l458 590l-405 489h70l376 -450l375 450h70z" />
    <glyph glyph-name="y" unicode="y" horiz-adv-x="1103" 
d="M559 111h-61l-471 968h61zM444 -401h-61l625 1480h61z" />
    <glyph glyph-name="z" unicode="z" horiz-adv-x="978" 
d="M881 1004l-758 -955h803v-49h-852v76l753 954h-735v49h789v-75z" />
    <glyph glyph-name="braceleft" unicode="{" horiz-adv-x="585" 
d="M328 881l-2 -2q0 -104 -25 -168q-24 -62 -68 -86t-106 -33q62 -9 106 -33q44 -25 68 -82q25 -61 25 -166v-4v-463v-4q0 -192 155 -192h27v-49h-29q-101 0 -155 57q-56 59 -56 174v4v461v4q0 113 -24 168q-24 56 -64 74t-117 24v60q77 6 117 24q42 19 66 74t24 170v432
q0 115 56 174q54 57 155 57h29v-49h-27q-70 0 -112 -45q-43 -46 -43 -149v-432z" />
    <glyph glyph-name="bar" unicode="|" horiz-adv-x="495" 
d="M274 -463h-53v2142h53v-2142z" />
    <glyph glyph-name="braceright" unicode="}" horiz-adv-x="583" 
d="M338 723l-4 -4q24 -56 67 -74t117 -24v-60q-74 -6 -117 -24t-67 -74q-25 -58 -25 -168v-467q0 -116 -55 -174q-54 -57 -156 -57h-28v49h26q73 0 115 45q43 46 43 149v469q0 105 25 166t67 84q49 27 107 35q-61 9 -105 33q-42 23 -67 84t-25 166v4v428v4q0 192 -156 192
h-26v49h28q102 0 156 -57q55 -58 55 -174v-4v-424v-4q0 -110 25 -168z" />
    <glyph glyph-name="asciitilde" unicode="~" horiz-adv-x="1333" 
d="M125 516l-8 -2q148 148 289 148q53 0 110 -13q55 -13 141 -49q77 -33 138 -49q55 -14 116 -14q73 0 129 30q54 29 127 99l37 -35q-148 -148 -289 -148q-49 0 -106 13q-53 12 -143 49q-89 35 -136 47q-62 16 -116 16q-72 0 -127 -30q-46 -25 -125 -97z" />
    <glyph glyph-name="uni00A0" unicode="&#xa0;" horiz-adv-x="565" 
 />
    <glyph glyph-name="exclamdown" unicode="&#xa1;" horiz-adv-x="446" 
d="M254 846h-61v233h61v-233zM254 -401h-61l4 997h53z" />
    <glyph glyph-name="cent" unicode="&#xa2;" horiz-adv-x="1232" 
d="M1118 358l-2 2q-30 -111 -94 -196q-64 -86 -156 -135q-91 -49 -198 -52v-245h-56v245q-138 9 -245 82q-108 73 -166 199q-60 129 -60 285q0 155 60 284q59 127 166 197q109 71 245 80v237h56v-237q162 -9 276 -111t160 -270h-62q-41 146 -135 231q-97 88 -239 97v-1026
q142 9 245 98q100 87 144 235h61zM250 287l-2 4q49 -112 141 -180q91 -67 219 -76v1022q-125 -6 -217 -74t-141 -180q-49 -113 -49 -258t49 -258z" />
    <glyph glyph-name="sterling" unicode="&#xa3;" horiz-adv-x="1181" 
d="M1096 53l-9 -57h-960v80q118 75 190 141q71 65 109 133q37 67 37 152q0 132 -70 233h-287v53h246q-82 103 -131 197q-45 86 -45 195q0 118 55 209q56 92 154 141t219 49q122 0 215 -43q95 -44 154 -121t74 -178h-62q-27 142 -125 215q-100 74 -254 74q-106 0 -188 -43
t-131 -119t-49 -184q0 -70 24 -131q25 -65 57 -113q35 -52 93 -123l8 -8q8 -8 10 -14h504v-54h-469q65 -112 65 -231q0 -91 -36 -162q-37 -73 -113 -143q-81 -75 -199 -148h914z" />
    <glyph glyph-name="currency" unicode="&#xa4;" horiz-adv-x="1374" 
d="M1155 575l-8 -4q-35 -85 -96 -153l141 -144l-37 -34l-141 141q-63 -57 -154 -94q-82 -33 -180 -33q-93 0 -180 35q-90 36 -154 92l-141 -141l-37 34l141 144q-61 68 -96 153q-35 87 -35 183q0 95 35 182q37 91 98 158l-141 141l37 37l141 -144q69 63 154 97q87 35 182 35
q100 0 182 -33q91 -37 154 -94l141 141l37 -37l-141 -141q63 -69 98 -156t35 -182q0 -96 -35 -183zM291 530l-4 -6q60 -103 166 -162t225 -59q118 0 221 59q102 59 164 164q61 104 61 226q0 121 -61 225q-62 106 -162 166q-101 61 -221 61q-119 0 -223 -61
q-105 -61 -166 -166q-62 -106 -62 -223q0 -118 62 -224z" />
    <glyph glyph-name="yen" unicode="&#xa5;" horiz-adv-x="1423" 
d="M1286 1556h70l-592 -821h448v-53h-471v-240h471v-53h-471v-389h-59v389h-471v53h471v240h-471v53h448l-593 821h71l576 -796z" />
    <glyph glyph-name="brokenbar" unicode="&#xa6;" horiz-adv-x="512" 
d="M283 874h-54v805h54v-805zM283 -463h-54v805h54v-805z" />
    <glyph glyph-name="section" unicode="&#xa7;" horiz-adv-x="1153" 
d="M942 199v-9q27 -50 27 -114q0 -79 -45 -144t-136 -110q-87 -43 -208 -43q-119 0 -209 37q-93 38 -150 104q-59 68 -74 164h62q27 -117 125 -184q100 -68 250 -68q101 0 176 35q72 34 110 90q37 55 37 119q0 69 -35 119q-31 44 -90 81q-51 32 -157 80l-287 133
q-219 106 -219 304q0 77 41 145q42 69 129 133q-49 40 -76 90q-27 49 -27 113q0 75 47 143q45 66 134 111q85 43 206 43q119 0 209 -37q96 -39 152 -104q59 -68 74 -160h-62q-27 117 -125 184q-100 68 -248 68q-106 0 -176 -33q-74 -35 -110 -88q-37 -55 -37 -119
q0 -69 35 -119q32 -46 90 -82q51 -32 157 -80l287 -133q221 -105 221 -303q0 -78 -43 -145t-131 -131q49 -40 76 -90zM670 395h-4q97 -44 159 -84q150 111 150 244q0 86 -43 150t-156 116l-289 135q-96 44 -157 86q-80 -58 -117 -120q-37 -61 -37 -125q0 -88 45 -150
q47 -65 160 -117z" />
    <glyph glyph-name="dieresis" unicode="&#xa8;" horiz-adv-x="520" 
d="M125 1311h-59v245h59v-245zM455 1311h-60v245h60v-245z" />
    <glyph glyph-name="copyright" unicode="&#xa9;" horiz-adv-x="1953" 
d="M555 49h-4q-193 114 -307 307q-113 192 -113 424q0 229 115 424q114 193 307 307q192 113 424 113t424 -113q193 -114 307 -307q115 -195 115 -424q0 -232 -113 -424q-114 -193 -307 -307q-190 -112 -424 -112t-424 112zM1368 92l-4 4q182 105 287 287q104 180 104 397
q0 218 -104 398t-287 286q-182 105 -395 105q-216 0 -396 -107q-181 -107 -288 -288q-107 -180 -107 -396q0 -215 107 -395q108 -182 288 -289q178 -106 398 -106q217 0 397 104zM735 326l8 -4q-104 67 -165 186q-62 121 -62 270q0 150 62 271q60 117 170 186q109 68 237 68
q110 0 195 -43q87 -44 145 -117q59 -74 86 -168h-55q-46 126 -142 203q-95 77 -233 77q-115 0 -209 -61q-93 -60 -149 -170q-56 -109 -56 -246t56 -246t147 -170t199 -61q145 0 245 74q99 73 146 207h53q-53 -158 -166 -240q-116 -84 -282 -84q-124 0 -230 68z" />
    <glyph glyph-name="ordfeminine" unicode="&#xaa;" horiz-adv-x="610" 
d="M420 1540l-10 -8q49 -27 71 -72q23 -48 23 -94v-4v-354h-51v122q-24 -58 -74 -96q-49 -37 -129 -37q-48 0 -96 23q-45 22 -68 61q-25 42 -25 88q0 80 68 115q69 35 172 47l156 17v10v4q0 78 -43 121t-117 43q-70 0 -111 -35t-47 -86h-53q6 71 64 117q59 47 149 47
q68 0 121 -29zM401 1090l2 -7q50 59 50 148v65l-125 -14q-99 -8 -160 -35q-55 -24 -55 -88q0 -58 43 -92q44 -35 106 -35q90 0 139 58z" />
    <glyph glyph-name="guillemotleft" unicode="&#xab;" horiz-adv-x="1048" 
d="M500 1006h67l-389 -447l389 -473h-67l-391 471zM864 1006h68l-389 -447l389 -473h-68l-391 471z" />
    <glyph glyph-name="logicalnot" unicode="&#xac;" horiz-adv-x="1304" 
d="M1124 248h-55v516h-936v51h991v-567z" />
    <glyph glyph-name="uni00AD" unicode="&#xad;" horiz-adv-x="843" 
d="M733 547h-620v51h620v-51z" />
    <glyph glyph-name="registered" unicode="&#xae;" horiz-adv-x="1953" 
d="M1399 1507h-4q193 -114 307 -307q115 -195 115 -424q0 -232 -113 -424q-114 -193 -307 -307q-192 -113 -424 -113t-424 113q-193 114 -307 307q-113 192 -113 424q0 229 115 424q114 193 307 307q192 113 424 113t424 -113zM1368 92l-4 4q182 105 287 287
q104 180 104 397q0 218 -104 398t-287 286q-182 105 -395 105q-216 0 -396 -107q-181 -107 -288 -288q-107 -180 -107 -396q0 -215 107 -395q108 -182 288 -289q178 -106 398 -106q217 0 397 104zM1264 823h-4q-71 -71 -193 -86l307 -465h-61l-301 461h-19h-295v-461h-51
v1020h346q107 0 178 -32q75 -34 119 -99q43 -64 43 -153q0 -116 -69 -185zM696 778l299 -2q126 0 203 62q78 63 78 170q0 75 -37 127q-38 53 -100 79q-69 29 -148 29h-295v-465z" />
    <glyph glyph-name="macron" unicode="&#xaf;" horiz-adv-x="749" 
d="M684 1370h-618v49h618v-49z" />
    <glyph glyph-name="degree" unicode="&#xb0;" horiz-adv-x="761" 
d="M246 1075q-62 37 -99 99q-36 59 -36 135q0 74 36 133q37 60 99 98q61 37 135 37q72 0 133 -37t98 -98t37 -133q0 -74 -37 -135q-38 -62 -98 -99q-61 -37 -133 -37q-74 0 -135 37zM489 1120q50 30 80 80q31 51 31 109q0 57 -31 108q-30 50 -80 80q-51 31 -108 31t-111 -31
q-51 -29 -82 -80q-30 -49 -30 -108t30 -109q31 -51 82 -80q52 -30 111 -30t108 30z" />
    <glyph glyph-name="plusminus" unicode="&#xb1;" horiz-adv-x="1349" 
d="M702 1079v-415h512v-54h-512v-436h-55v436h-512v54h512v415h55zM1214 0h-1079v51h1079v-51z" />
    <glyph glyph-name="uni00B2" unicode="&#xb2;" horiz-adv-x="645" 
d="M106 1059l490 -6v-45h-551v63l340 303q62 53 98 105q35 50 35 108q0 45 -22 84q-21 38 -68 62q-46 24 -106 24q-93 0 -148 -43q-54 -42 -63 -119h-56q9 99 82 154t185 55q76 0 135 -30q57 -29 88 -80q30 -50 30 -105q0 -70 -36 -123q-32 -48 -109 -118z" />
    <glyph glyph-name="uni00B3" unicode="&#xb3;" horiz-adv-x="661" 
d="M535 1370l-3 -10q68 -47 68 -135q0 -78 -39 -129q-43 -55 -104 -78q-67 -25 -142 -25q-109 0 -182 54q-72 54 -84 147h57q9 -69 62 -113q52 -43 145 -43q59 0 111 21q53 21 86 63t33 105q0 55 -33 94q-36 42 -86 59q-55 19 -111 19h-39v45h39q59 0 103 20q46 21 73 58
q29 40 29 80q0 42 -24 77q-24 34 -72 56q-44 20 -105 20q-84 0 -135 -39q-52 -40 -61 -104h-55q3 56 36 98q36 46 88 68q56 24 123 24q71 0 129 -24t93 -68q34 -43 34 -100q0 -82 -55 -125t-129 -58q85 -12 150 -57z" />
    <glyph glyph-name="acute" unicode="&#xb4;" horiz-adv-x="464" 
d="M123 1255h-57l258 301h75z" />
    <glyph glyph-name="uni00B5" unicode="&#xb5;" horiz-adv-x="1288" 
d="M1223 49l-9 -55h-90q-80 0 -123 43q-44 44 -47 119v71q-43 -116 -135 -184t-215 -68q-98 0 -192 54q-93 53 -142 147v-579h-57v1480h57v-659v-4q0 -120 47 -209t125 -135q80 -47 174 -47q95 0 172 47q76 46 123 135t47 209v663h58v-905v-4q0 -57 31 -88t90 -31h86z" />
    <glyph glyph-name="paragraph" unicode="&#xb6;" horiz-adv-x="1185" 
d="M481 735v-4q-115 0 -209 55q-91 54 -149 152q-55 94 -55 209q0 111 55 205t149 149t209 55h465v-1746h-59v1693h-346v-1693h-60v925z" />
    <glyph glyph-name="periodcentered" unicode="&#xb7;" horiz-adv-x="382" 
d="M223 489h-63v232h63v-232z" />
    <glyph glyph-name="cedilla" unicode="&#xb8;" horiz-adv-x="364" 
d="M135 -98v-4q44 -3 82 -21q39 -19 59 -51q23 -38 23 -76q0 -67 -49 -110t-123 -43h-61v43h57q57 0 94 30t37 82q0 50 -37 80q-39 31 -86 31h-41v137h45v-98z" />
    <glyph glyph-name="uni00B9" unicode="&#xb9;" horiz-adv-x="360" 
d="M193 1792h49v-778h-56v624h-166v45h99q37 0 55 11q16 10 19 41v57z" />
    <glyph glyph-name="ordmasculine" unicode="&#xba;" horiz-adv-x="638" 
d="M184 1036q-58 37 -92 101q-33 62 -33 147q0 86 33 148t92 100q58 37 135 37q78 0 136 -37q59 -38 92 -100t33 -148q0 -85 -33 -147q-34 -64 -92 -101t-136 -37q-77 0 -135 37zM426 1071h-6q48 31 72 86t24 127q0 70 -24 125q-24 57 -70 86q-48 31 -107 31q-58 0 -106 -31
q-46 -29 -70 -86q-24 -55 -24 -125q0 -72 24 -127t72 -86t106 -31q61 0 109 31z" />
    <glyph glyph-name="guillemotright" unicode="&#xbb;" horiz-adv-x="1048" 
d="M115 1006h67l391 -449l-391 -471h-67l391 473zM479 1006h68l391 -449l-391 -471h-68l391 473z" />
    <glyph glyph-name="onequarter" unicode="&#xbc;" horiz-adv-x="1345" 
d="M1126 293h123v-45h-123v-248h-53v248h-428v63l354 467h62l-367 -485h379v485h53v-485zM309 1556h49v-778h-55v625h-166v45h99q38 0 55 10q15 9 18 41v57zM137 0h-63l1048 1556h64z" />
    <glyph glyph-name="onehalf" unicode="&#xbd;" horiz-adv-x="1404" 
d="M813 45l490 -6v-45h-551v63l340 303q62 53 98 105q35 50 35 108q0 43 -23 84q-22 39 -67 62q-47 24 -107 24q-92 0 -147 -43t-64 -118h-55q9 98 82 153q74 56 184 56q75 0 135 -31q57 -29 88 -80t31 -105q0 -67 -37 -122q-36 -53 -108 -119zM305 1550h49v-778h-55v625
h-166v45h98q39 0 56 10q15 9 18 41v57zM133 -6h-63l1048 1556h64z" />
    <glyph glyph-name="threequarters" unicode="&#xbe;" horiz-adv-x="1523" 
d="M578 1135l-3 -11q68 -47 68 -135q0 -78 -39 -129q-43 -55 -104 -78q-64 -24 -142 -24q-111 0 -182 53q-72 54 -84 147h58q9 -69 61 -112t145 -43q61 0 111 20q52 21 86 64q33 42 33 104q0 55 -33 94q-37 43 -86 60q-53 18 -111 18h-39v45h39q56 0 103 21t73 57
q29 40 29 80q0 44 -24 78q-23 33 -72 55q-47 21 -105 21q-84 0 -135 -39q-52 -40 -61 -105h-55q3 58 36 99q35 44 88 67q58 25 123 25q68 0 129 -25q59 -24 93 -67t34 -101q0 -82 -55 -125q-53 -41 -129 -57q85 -12 150 -57zM317 -12h-63l1049 1556h63zM1309 281h123v-45
h-123v-248h-54v248h-428v63l355 467h61l-366 -485h378v485h54v-485z" />
    <glyph glyph-name="questiondown" unicode="&#xbf;" horiz-adv-x="1030" 
d="M588 846h-62v233h62v-233zM287 -381l-8 -6q-103 44 -158 117t-55 166q0 62 28 116q25 49 68 92q40 39 104 89l72 53q73 57 111 104q40 49 55 107q16 62 16 137h58q0 -86 -19 -154q-17 -62 -59 -116q-40 -52 -111 -105l-70 -53q-65 -50 -104 -86q-40 -37 -61 -80
q-23 -48 -23 -98q0 -65 43 -129q44 -65 129 -105q87 -41 215 -41q108 0 189 37q84 38 135 107q52 70 61 168h60q-9 -114 -72 -199q-62 -83 -160 -123q-100 -41 -211 -41q-132 0 -233 43z" />
    <glyph glyph-name="Agrave" unicode="&#xc0;" horiz-adv-x="1480" 
d="M1464 0h-67l-221 539h-871l-221 -539h-68l641 1556h66l-395 -960h825l-395 960h67zM770 1694h-61l-287 243h82z" />
    <glyph glyph-name="Aacute" unicode="&#xc1;" horiz-adv-x="1480" 
d="M1464 0h-67l-221 539h-871l-221 -539h-68l641 1556h66l-395 -960h825l-395 960h67zM776 1694h-63l268 243h80z" />
    <glyph glyph-name="Acircumflex" unicode="&#xc2;" horiz-adv-x="1480" 
d="M1464 0h-67l-221 539h-871l-221 -539h-68l641 1556h66l-395 -960h825l-395 960h67zM786 1937l283 -243h-63l-263 213l-264 -213h-63l280 243h90z" />
    <glyph glyph-name="Atilde" unicode="&#xc3;" horiz-adv-x="1480" 
d="M1464 0h-67l-221 539h-871l-221 -539h-68l641 1556h66l-395 -960h825l-395 960h67zM436 1749l-6 -2q15 60 66 96q50 35 102 35q36 0 74 -10q26 -7 76 -31q67 -33 124 -33q96 0 136 82h34q-15 -63 -63 -96q-50 -35 -100 -35q-36 0 -74 10q-29 7 -74 31q-75 35 -125 35
q-95 0 -135 -82h-35z" />
    <glyph glyph-name="Adieresis" unicode="&#xc4;" horiz-adv-x="1480" 
d="M1464 0h-67l-221 539h-871l-221 -539h-68l641 1556h66l-395 -960h825l-395 960h67zM610 1694h-63v243h63v-243zM936 1694h-64v243h64v-243z" />
    <glyph glyph-name="Aring" unicode="&#xc5;" horiz-adv-x="1480" 
d="M1464 0h-67l-221 539h-871l-221 -539h-68l641 1556h66l-395 -960h825l-395 960h67zM641 1712l-4 -4q-47 27 -74 74q-26 45 -26 102q0 50 28 98q27 47 74 74q46 27 98 27q57 0 103 -27q45 -26 73 -74q27 -46 27 -98q0 -54 -27 -100q-28 -48 -73 -74q-46 -27 -101 -27
q-48 0 -98 29zM811 1749v-2q35 21 55 57q21 38 21 78t-21 74t-55 55q-35 21 -74 21t-73 -21q-36 -22 -56 -55t-20 -74q0 -40 20 -76q19 -35 56 -57q33 -20 73 -20q41 0 74 20z" />
    <glyph glyph-name="AE" unicode="&#xc6;" horiz-adv-x="2027" 
d="M1145 778l297 -721h467v-57h-512l-221 539h-871l-221 -539h-68l641 1556h66l-395 -960h825l-395 960h1132v-57h-1042l274 -663h754v-58h-731z" />
    <glyph glyph-name="Ccedilla" unicode="&#xc7;" horiz-adv-x="1583" 
d="M1497 473l6 -12q-83 -237 -246 -363q-164 -126 -405 -135v-74q47 -3 82 -20q38 -18 59 -53q23 -38 23 -76q0 -70 -49 -113t-125 -43h-64v45h58q56 0 92 31q35 30 35 82q0 50 -37 80q-39 31 -88 31h-39v114q-184 3 -338 109q-156 107 -242 284q-90 185 -90 410
q0 234 92 416q90 178 252 282q161 103 356 103q166 0 301 -66q134 -65 222 -176t135 -252h-66q-71 198 -221 318q-151 121 -369 121q-170 0 -321 -97q-149 -96 -234 -264q-86 -170 -86 -381t86 -381q85 -169 230 -264q146 -96 309 -96q234 0 387 117t230 323h65z" />
    <glyph glyph-name="Egrave" unicode="&#xc8;" horiz-adv-x="1310" 
d="M295 778v-721h897v-57h-961v1556h943v-57h-879v-663h864v-58h-864zM784 1694h-61l-287 243h82z" />
    <glyph glyph-name="Eacute" unicode="&#xc9;" horiz-adv-x="1310" 
d="M295 778v-721h897v-57h-961v1556h943v-57h-879v-663h864v-58h-864zM694 1694h-63l268 243h80z" />
    <glyph glyph-name="Ecircumflex" unicode="&#xca;" horiz-adv-x="1310" 
d="M295 778v-721h897v-57h-961v1556h943v-57h-879v-663h864v-58h-864zM750 1937l282 -243h-63l-262 213l-265 -213h-63l280 243h91z" />
    <glyph glyph-name="Edieresis" unicode="&#xcb;" horiz-adv-x="1310" 
d="M295 778v-721h897v-57h-961v1556h943v-57h-879v-663h864v-58h-864zM573 1694h-63v243h63v-243zM899 1694h-63v243h63v-243z" />
    <glyph glyph-name="Igrave" unicode="&#xcc;" horiz-adv-x="526" 
d="M295 0h-64v1556h64v-1556zM287 1694h-62l-286 243h81z" />
    <glyph glyph-name="Iacute" unicode="&#xcd;" horiz-adv-x="526" 
d="M295 0h-64v1556h64v-1556zM303 1694h-63l268 243h80z" />
    <glyph glyph-name="Icircumflex" unicode="&#xce;" horiz-adv-x="526" 
d="M295 0h-64v1556h64v-1556zM309 1937l283 -243h-64l-262 213l-264 -213h-63l280 243h90z" />
    <glyph glyph-name="Idieresis" unicode="&#xcf;" horiz-adv-x="526" 
d="M295 0h-64v1556h64v-1556zM133 1694h-63v243h63v-243zM459 1694h-64v243h64v-243z" />
    <glyph glyph-name="Eth" unicode="&#xd0;" horiz-adv-x="1617" 
d="M727 1556v-4q228 0 401 -92q172 -91 267 -268q94 -175 94 -416t-94 -416q-95 -177 -267 -268q-173 -92 -401 -92h-496v780h-190v51h190v725h496zM727 53l-2 -4q208 0 367 84q158 84 243 246q86 164 86 393t-86 393q-85 162 -243 246q-159 84 -365 84h-432v-668h469v-51
h-469v-723h432z" />
    <glyph glyph-name="Ntilde" unicode="&#xd1;" horiz-adv-x="1691" 
d="M295 0h-64v1556h64v-1556zM1364 0h-70l-964 1556h69zM1460 0h-61v1556h61v-1556zM571 1749l-6 -2q15 60 66 96q50 35 102 35q36 0 74 -10q26 -7 76 -31q67 -33 125 -33q95 0 135 82h35q-15 -62 -64 -96q-50 -35 -100 -35q-36 0 -74 10q-29 7 -74 31q-75 35 -125 35
q-95 0 -135 -82h-35z" />
    <glyph glyph-name="Ograve" unicode="&#xd2;" horiz-adv-x="1697" 
d="M477 78v-4q-166 104 -256 282q-92 182 -92 416t92 416q90 178 256 282q165 103 373 103q209 0 369 -100q165 -103 256 -283q92 -182 92 -416t-92 -416q-90 -178 -256 -282q-162 -101 -369 -101q-208 0 -373 103zM1186 123v-4q149 94 235 264t86 385t-86 385t-235 264
q-152 96 -338 96q-189 0 -338 -94q-151 -95 -236 -264q-86 -170 -86 -385t86 -385q85 -169 236 -264q149 -94 338 -94q186 0 338 96zM928 1683h-62l-286 244h82z" />
    <glyph glyph-name="Oacute" unicode="&#xd3;" horiz-adv-x="1697" 
d="M477 78v-4q-166 104 -256 282q-92 182 -92 416t92 416q90 178 256 282q165 103 373 103q209 0 369 -100q165 -103 256 -283q92 -182 92 -416t-92 -416q-90 -178 -256 -282q-162 -101 -369 -101q-208 0 -373 103zM1186 123v-4q149 94 235 264t86 385t-86 385t-235 264
q-152 96 -338 96q-189 0 -338 -94q-151 -95 -236 -264q-86 -170 -86 -385t86 -385q85 -169 236 -264q149 -94 338 -94q186 0 338 96zM838 1683h-64l268 244h80z" />
    <glyph glyph-name="Ocircumflex" unicode="&#xd4;" horiz-adv-x="1697" 
d="M477 78v-4q-166 104 -256 282q-92 182 -92 416t92 416q90 178 256 282q165 103 373 103q209 0 369 -100q165 -103 256 -283q92 -182 92 -416t-92 -416q-90 -178 -256 -282q-162 -101 -369 -101q-208 0 -373 103zM1186 123v-4q149 94 235 264t86 385t-86 385t-235 264
q-152 96 -338 96q-189 0 -338 -94q-151 -95 -236 -264q-86 -170 -86 -385t86 -385q85 -169 236 -264q149 -94 338 -94q186 0 338 96zM893 1927l283 -244h-64l-262 213l-264 -213h-64l281 244h90z" />
    <glyph glyph-name="Otilde" unicode="&#xd5;" horiz-adv-x="1697" 
d="M477 78v-4q-166 104 -256 282q-92 182 -92 416t92 416q90 178 256 282q165 103 373 103q209 0 369 -100q165 -103 256 -283q92 -182 92 -416t-92 -416q-90 -178 -256 -282q-162 -101 -369 -101q-208 0 -373 103zM1186 123v-4q149 94 235 264t86 385t-86 385t-235 264
q-152 96 -338 96q-189 0 -338 -94q-151 -95 -236 -264q-86 -170 -86 -385t86 -385q85 -169 236 -264q149 -94 338 -94q186 0 338 96zM543 1739l-6 -2q15 61 65 96t103 35q35 0 73 -10q26 -7 76 -31q67 -33 125 -33q95 0 135 82h35q-15 -62 -64 -96q-50 -35 -100 -35
q-36 0 -74 10q-27 7 -73 31q-75 35 -125 35q-95 0 -135 -82h-35z" />
    <glyph glyph-name="Odieresis" unicode="&#xd6;" horiz-adv-x="1697" 
d="M477 78v-4q-166 104 -256 282q-92 182 -92 416t92 416q90 178 256 282q165 103 373 103q209 0 369 -100q165 -103 256 -283q92 -182 92 -416t-92 -416q-90 -178 -256 -282q-162 -101 -369 -101q-208 0 -373 103zM1186 123v-4q149 94 235 264t86 385t-86 385t-235 264
q-152 96 -338 96q-189 0 -338 -94q-151 -95 -236 -264q-86 -170 -86 -385t86 -385q85 -169 236 -264q149 -94 338 -94q186 0 338 96zM717 1683h-64v244h64v-244zM1042 1683h-63v244h63v-244z" />
    <glyph glyph-name="multiply" unicode="&#xd7;" horiz-adv-x="1144" 
d="M979 981l37 -35l-408 -407l408 -406l-37 -37l-408 408l-407 -408l-35 37l408 406l-408 407l35 35l407 -406z" />
    <glyph glyph-name="Oslash" unicode="&#xd8;" horiz-adv-x="1697" 
d="M1632 1556l-229 -245q81 -103 125 -240q43 -133 43 -295q0 -234 -92 -416q-90 -178 -256 -282q-162 -101 -369 -101q-156 0 -289 56q-128 54 -229 164l-186 -197h-82l229 242q-81 104 -125 239q-43 133 -43 295q0 234 92 416q91 180 256 283q163 102 373 102
q154 0 285 -55t229 -162l186 196h82zM231 506v-2q41 -127 111 -221l977 1026q-85 97 -209 155q-121 56 -258 56q-187 0 -338 -95q-149 -94 -235 -264t-86 -385q0 -152 38 -270zM1468 1040h-2q-42 131 -110 222l-979 -1026q86 -99 209 -156q119 -55 262 -55q186 0 338 96
q149 94 235 264t86 385q0 149 -39 270z" />
    <glyph glyph-name="Ugrave" unicode="&#xd9;" horiz-adv-x="1595" 
d="M356 143v2q-143 165 -143 478v4v932h61v-934v-4q0 -287 132 -437q131 -149 393 -149q260 0 393 151q131 149 131 437v933h61v-931q0 -312 -143 -480t-442 -168t-443 166zM879 1694h-62l-287 243h82z" />
    <glyph glyph-name="Uacute" unicode="&#xda;" horiz-adv-x="1595" 
d="M356 143v2q-143 165 -143 478v4v932h61v-934v-4q0 -287 132 -437q131 -149 393 -149q260 0 393 151q131 149 131 437v933h61v-931q0 -312 -143 -480t-442 -168t-443 166zM788 1694h-63l268 243h80z" />
    <glyph glyph-name="Ucircumflex" unicode="&#xdb;" horiz-adv-x="1595" 
d="M356 143v2q-143 165 -143 478v4v932h61v-934v-4q0 -287 132 -437q131 -149 393 -149q260 0 393 151q131 149 131 437v933h61v-931q0 -312 -143 -480t-442 -168t-443 166zM844 1937l282 -243h-63l-262 213l-264 -213h-64l281 243h90z" />
    <glyph glyph-name="Udieresis" unicode="&#xdc;" horiz-adv-x="1595" 
d="M356 143v2q-143 165 -143 478v4v932h61v-934v-4q0 -287 132 -437q131 -149 393 -149q260 0 393 151q131 149 131 437v933h61v-931q0 -312 -143 -480t-442 -168t-443 166zM668 1694h-64v243h64v-243zM993 1694h-63v243h63v-243z" />
    <glyph glyph-name="Yacute" unicode="&#xdd;" horiz-adv-x="1312" 
d="M1231 1556h72l-615 -854v-702h-63v702l-615 854h72l575 -796zM647 1694h-63l268 243h80z" />
    <glyph glyph-name="Thorn" unicode="&#xde;" horiz-adv-x="1411" 
d="M702 1262q183 0 314 -52q137 -54 207 -155q73 -104 73 -254t-73 -254q-71 -102 -207 -156q-128 -51 -314 -51h-407v-340h-64v1556h64v-294h407zM702 397h-2q250 0 392 103q141 102 141 301q0 198 -139 301q-138 102 -392 102h-407v-807h407z" />
    <glyph glyph-name="germandbls" unicode="&#xdf;" horiz-adv-x="1222" 
d="M907 848l-4 2q91 -54 148 -150t57 -239q0 -140 -53 -252q-52 -109 -148 -172q-95 -62 -221 -62q-60 0 -131 11q-59 9 -117 30v54q74 -28 117 -35q58 -10 127 -10q119 0 201 55q85 57 127 153q43 98 43 226q0 206 -119 313q-121 109 -338 109h-27v49h27q188 0 276 82
q91 85 91 217q0 97 -43 164t-121 102t-178 35q-123 0 -203 -57q-84 -60 -127 -160q-43 -101 -43 -236v-1077h-58v1075q0 154 54 271q52 112 151 174q98 61 228 61q123 0 213 -43q92 -44 141 -123t49 -184q0 -138 -86 -221q-87 -84 -223 -105q104 -6 190 -57z" />
    <glyph glyph-name="agrave" unicode="&#xe0;" horiz-adv-x="1148" 
d="M797 1044l2 -4q91 -55 135 -145q43 -87 43 -184v-4v-711h-57v258q-50 -127 -154 -203q-107 -78 -266 -78q-108 0 -193 43q-86 44 -135 119q-49 76 -49 172q0 112 67 176q68 65 170 92q108 29 240 43l315 39v25v4q0 99 -36 178q-37 82 -117 135q-79 52 -199 52
q-111 0 -186 -37q-77 -38 -117 -99q-39 -59 -45 -133h-61q9 89 59 160t139 115q87 43 213 43q140 0 232 -56zM731 76v-4q95 60 139 155q48 102 48 224v151l-265 -33q-152 -17 -252 -43q-92 -23 -155 -77q-62 -53 -62 -148q0 -85 43 -149t117 -99q75 -35 162 -35
q134 0 225 58zM631 1245h-58l-276 301h76z" />
    <glyph glyph-name="aacute" unicode="&#xe1;" horiz-adv-x="1148" 
d="M797 1044l2 -4q91 -55 135 -145q43 -87 43 -184v-4v-711h-57v258q-50 -127 -154 -203q-107 -78 -266 -78q-108 0 -193 43q-86 44 -135 119q-49 76 -49 172q0 112 67 176q68 65 170 92q108 29 240 43l315 39v25v4q0 99 -36 178q-37 82 -117 135q-79 52 -199 52
q-111 0 -186 -37q-77 -38 -117 -99q-39 -59 -45 -133h-61q9 89 59 160t139 115q87 43 213 43q140 0 232 -56zM731 76v-4q95 60 139 155q48 102 48 224v151l-265 -33q-152 -17 -252 -43q-92 -23 -155 -77q-62 -53 -62 -148q0 -85 43 -149t117 -99q75 -35 162 -35
q134 0 225 58zM561 1245h-57l258 301h76z" />
    <glyph glyph-name="acircumflex" unicode="&#xe2;" horiz-adv-x="1148" 
d="M797 1044l2 -4q91 -55 135 -145q43 -87 43 -184v-4v-711h-57v258q-50 -127 -154 -203q-107 -78 -266 -78q-108 0 -193 43q-86 44 -135 119q-49 76 -49 172q0 112 67 176q68 65 170 92q108 29 240 43l315 39v25v4q0 99 -36 178q-37 82 -117 135q-79 52 -199 52
q-111 0 -186 -37q-77 -38 -117 -99q-39 -59 -45 -133h-61q9 89 59 160t139 115q87 43 213 43q140 0 232 -56zM731 76v-4q95 60 139 155q48 102 48 224v151l-265 -33q-152 -17 -252 -43q-92 -23 -155 -77q-62 -53 -62 -148q0 -85 43 -149t117 -99q75 -35 162 -35
q134 0 225 58zM608 1546l287 -301h-59l-267 268l-268 -268h-59l284 301h82z" />
    <glyph glyph-name="atilde" unicode="&#xe3;" horiz-adv-x="1148" 
d="M797 1044l2 -4q91 -55 135 -145q43 -87 43 -184v-4v-711h-57v258q-50 -127 -154 -203q-107 -78 -266 -78q-108 0 -193 43q-86 44 -135 119q-49 76 -49 172q0 112 67 176q68 65 170 92q108 29 240 43l315 39v25v4q0 99 -36 178q-37 82 -117 135q-79 52 -199 52
q-111 0 -186 -37q-77 -38 -117 -99q-39 -59 -45 -133h-61q9 89 59 160t139 115q87 43 213 43q140 0 232 -56zM731 76v-4q95 60 139 155q48 102 48 224v151l-265 -33q-152 -17 -252 -43q-92 -23 -155 -77q-62 -53 -62 -148q0 -85 43 -149t117 -99q75 -35 162 -35
q134 0 225 58zM274 1317h-4q15 63 62 98t98 35q36 0 70 -12q11 -4 80 -35q65 -35 116 -35q47 0 80 23q31 22 49 65h33q-15 -64 -61 -98q-47 -35 -99 -35q-62 0 -145 45q-65 35 -117 35q-92 0 -127 -86h-35z" />
    <glyph glyph-name="adieresis" unicode="&#xe4;" horiz-adv-x="1148" 
d="M797 1044l2 -4q91 -55 135 -145q43 -87 43 -184v-4v-711h-57v258q-50 -127 -154 -203q-107 -78 -266 -78q-108 0 -193 43q-86 44 -135 119q-49 76 -49 172q0 112 67 176q68 65 170 92q108 29 240 43l315 39v25v4q0 99 -36 178q-37 82 -117 135q-79 52 -199 52
q-111 0 -186 -37q-77 -38 -117 -99q-39 -59 -45 -133h-61q9 89 59 160t139 115q87 43 213 43q140 0 232 -56zM731 76v-4q95 60 139 155q48 102 48 224v151l-265 -33q-152 -17 -252 -43q-92 -23 -155 -77q-62 -53 -62 -148q0 -85 43 -149t117 -99q75 -35 162 -35
q134 0 225 58zM432 1300h-59v246h59v-246zM762 1300h-60v246h60v-246z" />
    <glyph glyph-name="aring" unicode="&#xe5;" horiz-adv-x="1148" 
d="M797 1044l2 -4q91 -55 135 -145q43 -87 43 -184v-4v-711h-57v258q-50 -127 -154 -203q-107 -78 -266 -78q-108 0 -193 43q-86 44 -135 119q-49 76 -49 172q0 112 67 176q68 65 170 92q108 29 240 43l315 39v25v4q0 99 -36 178q-37 82 -117 135q-79 52 -199 52
q-111 0 -186 -37q-77 -38 -117 -99q-39 -59 -45 -133h-61q9 89 59 160t139 115q87 43 213 43q140 0 232 -56zM731 76v-4q95 60 139 155q48 102 48 224v151l-265 -33q-152 -17 -252 -43q-92 -23 -155 -77q-62 -53 -62 -148q0 -85 43 -149t117 -99q75 -35 162 -35
q134 0 225 58zM483 1264q-40 23 -63 63q-25 42 -25 86t25 86t63 62q42 22 86 22t86 -22q41 -21 62 -62q22 -42 22 -86t-22 -86q-20 -38 -62 -63t-86 -25t-86 25zM659 1323q37 37 37 90t-37 90t-90 37t-90 -37t-37 -90t37 -90t90 -37t90 37z" />
    <glyph glyph-name="ae" unicode="&#xe6;" horiz-adv-x="2002" 
d="M1896 532l-929 -10q3 -155 61 -268q59 -114 158 -176q100 -62 225 -62q153 0 254 76q99 74 143 215h62q-47 -167 -166 -252q-121 -86 -289 -86q-115 0 -211 45q-98 46 -166 129q-70 85 -96 193q-23 -94 -84 -180q-60 -84 -153 -136q-92 -51 -226 -51q-104 0 -184 41
q-78 40 -125 111q-45 68 -45 160q0 119 68 184q70 67 178 90q116 25 268 25h276v102v4q0 99 -36 178q-37 82 -117 135q-82 54 -199 54q-111 0 -186 -37q-77 -38 -117 -98q-39 -59 -45 -134h-61q9 89 59 160t139 115q87 43 213 43t209 -45q84 -46 131 -117q47 -72 62 -149
q36 95 98 163q64 70 154 111q85 39 190 39q134 0 246 -68t176 -190q65 -124 65 -285v-29zM1182 983h-4q-95 -59 -150 -166t-61 -246h860q-3 129 -60 240q-57 110 -153 170q-98 61 -217 61q-120 0 -215 -59zM903 522l-266 -6q-150 0 -252 -18q-101 -18 -160 -74t-59 -156
q0 -73 37 -131t104 -92q65 -33 164 -33q129 0 229 62q98 61 150 168q53 109 53 245v35z" />
    <glyph glyph-name="ccedilla" unicode="&#xe7;" horiz-adv-x="1173" 
d="M604 -23l-8 -81q44 -3 82 -21q39 -19 59 -51q23 -38 23 -76q0 -67 -49 -110q-50 -44 -123 -44h-62v44h58q56 0 94 30q37 30 37 82q0 50 -37 80q-39 31 -86 31h-41v116q-131 15 -234 89q-99 71 -155 196q-56 124 -56 279q0 167 64 295q64 127 178 198q113 70 262 70
q173 0 291 -100q120 -102 166 -277h-59q-41 153 -142 240q-101 88 -252 88q-131 0 -235 -66q-101 -64 -156 -180t-55 -266q0 -151 55 -267q56 -119 156 -182q103 -65 235 -65q148 0 258 90q107 88 154 239h59q-30 -114 -98 -200q-69 -87 -162 -133q-98 -48 -209 -48h-12z
" />
    <glyph glyph-name="egrave" unicode="&#xe8;" horiz-adv-x="1198" 
d="M1090 532l-924 3q3 -156 61 -269q59 -114 158 -176q98 -61 225 -61q154 0 252 73q99 73 146 213h59q-47 -167 -166 -252q-121 -86 -289 -86q-141 0 -256 68q-113 67 -178 197t-65 301q0 168 65 295q64 125 176 196q110 70 250 70q134 0 246 -68t176 -190q66 -126 66 -285
zM381 995l-2 -2q-95 -59 -150 -166t-61 -245h858v2q-3 130 -59 239t-154 170q-100 62 -217 62q-118 0 -215 -60zM657 1255h-57l-276 301h75z" />
    <glyph glyph-name="eacute" unicode="&#xe9;" horiz-adv-x="1198" 
d="M1090 532l-924 3q3 -156 61 -269q59 -114 158 -176q98 -61 225 -61q154 0 252 73q99 73 146 213h59q-47 -167 -166 -252q-121 -86 -289 -86q-141 0 -256 68q-113 67 -178 197t-65 301q0 168 65 295q64 125 176 196q110 70 250 70q134 0 246 -68t176 -190q66 -126 66 -285
zM381 995l-2 -2q-95 -59 -150 -166t-61 -245h858v2q-3 130 -59 239t-154 170q-100 62 -217 62q-118 0 -215 -60zM588 1255h-58l258 301h76z" />
    <glyph glyph-name="ecircumflex" unicode="&#xea;" horiz-adv-x="1198" 
d="M1090 532l-924 3q3 -156 61 -269q59 -114 158 -176q98 -61 225 -61q154 0 252 73q99 73 146 213h59q-47 -167 -166 -252q-121 -86 -289 -86q-141 0 -256 68q-113 67 -178 197t-65 301q0 168 65 295q64 125 176 196q110 70 250 70q134 0 246 -68t176 -190q66 -126 66 -285
zM381 995l-2 -2q-95 -59 -150 -166t-61 -245h858v2q-3 130 -59 239t-154 170q-100 62 -217 62q-118 0 -215 -60zM635 1556l287 -301h-60l-266 269l-268 -269h-60l285 301h82z" />
    <glyph glyph-name="edieresis" unicode="&#xeb;" horiz-adv-x="1198" 
d="M1090 532l-924 3q3 -156 61 -269q59 -114 158 -176q98 -61 225 -61q154 0 252 73q99 73 146 213h59q-47 -167 -166 -252q-121 -86 -289 -86q-141 0 -256 68q-113 67 -178 197t-65 301q0 168 65 295q64 125 176 196q110 70 250 70q134 0 246 -68t176 -190q66 -126 66 -285
zM381 995l-2 -2q-95 -59 -150 -166t-61 -245h858v2q-3 130 -59 239t-154 170q-100 62 -217 62q-118 0 -215 -60zM459 1311h-60v245h60v-245zM788 1311h-59v245h59v-245z" />
    <glyph glyph-name="igrave" unicode="&#xec;" horiz-adv-x="438" 
d="M248 0h-58v1079h58v-1079zM246 1255h-58l-276 301h76z" />
    <glyph glyph-name="iacute" unicode="&#xed;" horiz-adv-x="438" 
d="M248 0h-58v1079h58v-1079zM250 1255h-57l258 301h75z" />
    <glyph glyph-name="icircumflex" unicode="&#xee;" horiz-adv-x="438" 
d="M248 0h-58v1079h58v-1079zM260 1556l287 -301h-60l-266 269l-268 -269h-59l284 301h82z" />
    <glyph glyph-name="idieresis" unicode="&#xef;" horiz-adv-x="438" 
d="M248 0h-58v1079h58v-1079zM84 1311h-59v245h59v-245zM414 1311h-60v245h60v-245z" />
    <glyph glyph-name="eth" unicode="&#xf0;" horiz-adv-x="1226" 
d="M762 1350l-2 -7q169 -156 258 -356q90 -203 90 -430q0 -180 -66 -315t-178 -201q-115 -68 -254 -68q-142 0 -258 72q-114 70 -178 199q-63 126 -63 295t63 295t176 198q110 70 256 70q147 0 256 -80q108 -79 160 -199q-29 123 -111 260q-80 133 -202 246l-252 -96l-15 43
l228 88q-130 112 -303 192h106q141 -76 250 -172l258 99l12 -45zM840 86l-2 -2q96 63 153 182q56 118 56 266q0 149 -56 267q-57 119 -153 182q-101 66 -230 66t-233 -66q-101 -64 -156 -180t-55 -266q0 -151 55 -267q56 -119 156 -182q104 -66 233 -66q131 0 232 66z" />
    <glyph glyph-name="ntilde" unicode="&#xf1;" horiz-adv-x="1175" 
d="M803 1051h-6q91 -54 145 -150q55 -98 55 -227v-4v-672h-57v659v5q0 122 -45 208q-48 91 -125 136q-80 47 -178 47q-101 0 -178 -45t-125 -136q-45 -86 -45 -208v-664h-58v1079h58v-229q46 116 141 184t221 68q111 0 197 -51zM293 1327h-4q15 64 61 98q47 35 99 35
q35 0 69 -12q11 -4 80 -35q65 -35 117 -35q47 0 80 23q31 22 49 65h33q-15 -63 -62 -98t-98 -35q-63 0 -146 45q-65 35 -116 35q-92 0 -127 -86h-35z" />
    <glyph glyph-name="ograve" unicode="&#xf2;" horiz-adv-x="1222" 
d="M352 47v-2q-114 70 -178 199q-63 126 -63 295t63 295q64 127 178 198q113 70 258 70t258 -70q116 -72 179 -198t63 -295t-63 -295q-64 -128 -179 -199q-113 -70 -258 -70q-142 0 -258 72zM842 88l-2 -2q96 63 153 182q56 118 56 267q0 148 -56 266q-57 119 -153 182
q-101 66 -230 66t-233 -66q-101 -64 -156 -180t-55 -266q0 -151 55 -267q56 -119 156 -182q103 -65 233 -65q132 0 232 65zM672 1249h-58l-276 301h76z" />
    <glyph glyph-name="oacute" unicode="&#xf3;" horiz-adv-x="1222" 
d="M352 47v-2q-114 70 -178 199q-63 126 -63 295t63 295q64 127 178 198q113 70 258 70t258 -70q116 -72 179 -198t63 -295t-63 -295q-64 -128 -179 -199q-113 -70 -258 -70q-142 0 -258 72zM842 88l-2 -2q96 63 153 182q56 118 56 267q0 148 -56 266q-57 119 -153 182
q-101 66 -230 66t-233 -66q-101 -64 -156 -180t-55 -266q0 -151 55 -267q56 -119 156 -182q103 -65 233 -65q132 0 232 65zM602 1249h-57l258 301h76z" />
    <glyph glyph-name="ocircumflex" unicode="&#xf4;" horiz-adv-x="1222" 
d="M352 47v-2q-114 70 -178 199q-63 126 -63 295t63 295q64 127 178 198q113 70 258 70t258 -70q116 -72 179 -198t63 -295t-63 -295q-64 -128 -179 -199q-113 -70 -258 -70q-142 0 -258 72zM842 88l-2 -2q96 63 153 182q56 118 56 267q0 148 -56 266q-57 119 -153 182
q-101 66 -230 66t-233 -66q-101 -64 -156 -180t-55 -266q0 -151 55 -267q56 -119 156 -182q103 -65 233 -65q132 0 232 65zM649 1550l287 -301h-59l-267 269l-268 -269h-59l284 301h82z" />
    <glyph glyph-name="otilde" unicode="&#xf5;" horiz-adv-x="1222" 
d="M352 47v-2q-114 70 -178 199q-63 126 -63 295t63 295q64 127 178 198q113 70 258 70t258 -70q116 -72 179 -198t63 -295t-63 -295q-64 -128 -179 -199q-113 -70 -258 -70q-142 0 -258 72zM842 88l-2 -2q96 63 153 182q56 118 56 267q0 148 -56 266q-57 119 -153 182
q-101 66 -230 66t-233 -66q-101 -64 -156 -180t-55 -266q0 -151 55 -267q56 -119 156 -182q103 -65 233 -65q132 0 232 65zM315 1321h-4q15 63 62 98t98 35q35 0 70 -12q11 -4 80 -35q65 -35 116 -35q47 0 80 23q31 22 49 65h33q-15 -64 -61 -98q-47 -35 -99 -35
q-62 0 -145 45q-65 35 -117 35q-92 0 -127 -86h-35z" />
    <glyph glyph-name="odieresis" unicode="&#xf6;" horiz-adv-x="1222" 
d="M352 47v-2q-114 70 -178 199q-63 126 -63 295t63 295q64 127 178 198q113 70 258 70t258 -70q116 -72 179 -198t63 -295t-63 -295q-64 -128 -179 -199q-113 -70 -258 -70q-142 0 -258 72zM842 88l-2 -2q96 63 153 182q56 118 56 267q0 148 -56 266q-57 119 -153 182
q-101 66 -230 66t-233 -66q-101 -64 -156 -180t-55 -266q0 -151 55 -267q56 -119 156 -182q103 -65 233 -65q132 0 232 65zM473 1305h-59v245h59v-245zM803 1305h-60v245h60v-245z" />
    <glyph glyph-name="divide" unicode="&#xf7;" horiz-adv-x="1411" 
d="M737 846h-63v233h63v-233zM1245 526h-1079v52h1079v-52zM737 0h-63v233h63v-233z" />
    <glyph glyph-name="oslash" unicode="&#xf8;" horiz-adv-x="1222" 
d="M1153 1079l-154 -172q57 -73 84 -166q29 -101 29 -204q0 -169 -63 -295q-64 -128 -179 -199q-113 -70 -258 -70q-107 0 -194 37q-90 38 -158 109l-119 -125h-71l155 166q-57 75 -84 170q-28 98 -28 207q0 168 63 294q64 129 178 199q113 70 258 70q108 0 195 -37
q90 -38 158 -109l116 125h72zM197 352v-2q26 -88 69 -151l664 708q-61 67 -137 103q-78 37 -177 37q-129 0 -233 -66q-101 -64 -156 -180t-55 -266q0 -97 25 -183zM1028 715v4q-24 84 -70 147l-661 -706q58 -67 139 -105q78 -37 176 -37q131 0 232 66q96 63 153 182
q56 118 56 266q0 97 -25 183z" />
    <glyph glyph-name="ugrave" unicode="&#xf9;" horiz-adv-x="1165" 
d="M918 1079h53v-1079h-58v227q-47 -117 -137 -184q-92 -68 -215 -68q-102 0 -190 52q-91 54 -144 149q-55 98 -55 230v4v669h57v-659v-4q0 -120 47 -209t125 -135q80 -47 174 -47q96 0 173 47q75 46 122 135q48 91 48 209v663zM635 1255h-57l-277 301h76z" />
    <glyph glyph-name="uacute" unicode="&#xfa;" horiz-adv-x="1165" 
d="M918 1079h53v-1079h-58v227q-47 -117 -137 -184q-92 -68 -215 -68q-102 0 -190 52q-91 54 -144 149q-55 98 -55 230v4v669h57v-659v-4q0 -120 47 -209t125 -135q80 -47 174 -47q96 0 173 47q75 46 122 135q48 91 48 209v663zM567 1255h-57l258 301h76z" />
    <glyph glyph-name="ucircumflex" unicode="&#xfb;" horiz-adv-x="1165" 
d="M918 1079h53v-1079h-58v227q-47 -117 -137 -184q-92 -68 -215 -68q-102 0 -190 52q-91 54 -144 149q-55 98 -55 230v4v669h57v-659v-4q0 -120 47 -209t125 -135q80 -47 174 -47q96 0 173 47q75 46 122 135q48 91 48 209v663zM612 1556l287 -301h-59l-267 269l-268 -269
h-59l284 301h82z" />
    <glyph glyph-name="udieresis" unicode="&#xfc;" horiz-adv-x="1165" 
d="M918 1079h53v-1079h-58v227q-47 -117 -137 -184q-92 -68 -215 -68q-102 0 -190 52q-91 54 -144 149q-55 98 -55 230v4v669h57v-659v-4q0 -120 47 -209t125 -135q80 -47 174 -47q96 0 173 47q75 46 122 135q48 91 48 209v663zM436 1311h-59v245h59v-245zM766 1311h-59v245
h59v-245z" />
    <glyph glyph-name="yacute" unicode="&#xfd;" horiz-adv-x="1103" 
d="M559 111h-61l-471 968h61zM444 -401h-61l625 1480h61zM545 1255h-58l258 301h76z" />
    <glyph glyph-name="thorn" unicode="&#xfe;" horiz-adv-x="1298" 
d="M948 1032l-2 -2q111 -70 172 -199q62 -130 62 -294q0 -165 -62 -295q-61 -129 -172 -199q-110 -70 -252 -70q-113 0 -200 43q-89 44 -154 121q-63 75 -94 172v-712h-58v1957h58v-790q31 94 92 170t154 123q89 45 204 45q142 0 252 -70zM915 90l-2 -2q98 64 154 182
q55 116 55 267q0 150 -55 266q-56 118 -154 182q-101 66 -229 66q-129 0 -233 -66q-101 -64 -156 -180t-55 -266q0 -151 55 -267q56 -119 156 -182q103 -65 233 -65q131 0 231 65z" />
    <glyph glyph-name="ydieresis" unicode="&#xff;" horiz-adv-x="1103" 
d="M559 111h-61l-471 968h61zM444 -401h-61l625 1480h61zM414 1311h-60v245h60v-245zM743 1311h-59v245h59v-245z" />
    <glyph glyph-name="Amacron" unicode="&#x100;" horiz-adv-x="1480" 
d="M1464 0h-67l-221 539h-871l-221 -539h-68l641 1556h66l-395 -960h825l-395 960h67zM1073 1794h-663v51h663v-51z" />
    <glyph glyph-name="amacron" unicode="&#x101;" horiz-adv-x="1148" 
d="M797 1044l2 -4q91 -55 135 -145q43 -87 43 -184v-4v-711h-57v258q-50 -127 -154 -203q-107 -78 -266 -78q-108 0 -193 43q-86 44 -135 119q-49 76 -49 172q0 112 67 176q68 65 170 92q108 29 240 43l315 39v25v4q0 99 -36 178q-37 82 -117 135q-79 52 -199 52
q-111 0 -186 -37q-77 -38 -117 -99q-39 -59 -45 -133h-61q9 89 59 160t139 115q87 43 213 43q140 0 232 -56zM731 76v-4q95 60 139 155q48 102 48 224v151l-265 -33q-152 -17 -252 -43q-92 -23 -155 -77q-62 -53 -62 -148q0 -85 43 -149t117 -99q75 -35 162 -35
q134 0 225 58zM877 1360h-619v49h619v-49z" />
    <glyph glyph-name="Abreve" unicode="&#x102;" horiz-adv-x="1480" 
d="M1464 0h-67l-221 539h-871l-221 -539h-68l641 1556h66l-395 -960h825l-395 960h67zM598 1718l2 2q-58 34 -88 90q-31 57 -31 127h51q0 -98 56 -151t151 -53q98 0 154 53q55 52 55 151h51q0 -71 -30 -129q-29 -57 -88 -92q-56 -33 -142 -33q-82 0 -141 35z" />
    <glyph glyph-name="abreve" unicode="&#x103;" horiz-adv-x="1148" 
d="M797 1044l2 -4q91 -55 135 -145q43 -87 43 -184v-4v-711h-57v258q-50 -127 -154 -203q-107 -78 -266 -78q-108 0 -193 43q-86 44 -135 119q-49 76 -49 172q0 112 67 176q68 65 170 92q108 29 240 43l315 39v25v4q0 99 -36 178q-37 82 -117 135q-79 52 -199 52
q-111 0 -186 -37q-77 -38 -117 -99q-39 -59 -45 -133h-61q9 89 59 160t139 115q87 43 213 43q140 0 232 -56zM731 76v-4q95 60 139 155q48 102 48 224v151l-265 -33q-152 -17 -252 -43q-92 -23 -155 -77q-62 -53 -62 -148q0 -85 43 -149t117 -99q75 -35 162 -35
q134 0 225 58zM426 1280l-2 -4q-61 42 -90 110q-31 73 -31 156h49q0 -76 27 -135q28 -61 76 -90q51 -31 112 -31q64 0 115 31q48 29 76 90q26 56 26 137h50q0 -82 -31 -155q-30 -70 -92 -111q-59 -39 -144 -39q-82 0 -141 41z" />
    <glyph glyph-name="Aogonek" unicode="&#x104;" horiz-adv-x="1480" 
d="M1325 -319l-4 -3q43 -34 109 -34h30v-47h-33q-56 0 -100 20q-48 22 -74 61t-26 97q0 71 43 123t125 98l-221 539h-871l-221 -539h-68l641 1556h66l-395 -960h825l-395 960h67l639 -1556q-92 -54 -137 -105q-43 -49 -43 -112q0 -64 43 -98z" />
    <glyph glyph-name="aogonek" unicode="&#x105;" horiz-adv-x="1148" 
d="M838 -322l2 -4q42 -36 108 -36h31v-46h-33q-54 0 -100 21q-48 22 -74 61q-27 41 -27 97q0 71 46 123t131 98h-2v258q-50 -127 -154 -203q-107 -78 -266 -78q-108 0 -193 43q-86 44 -135 119q-49 76 -49 172q0 112 67 176q68 65 170 92q108 29 240 43l315 39v25v4
q0 99 -36 178q-37 82 -117 135q-79 52 -199 52q-111 0 -186 -37q-77 -38 -117 -99q-39 -59 -45 -133h-61q9 89 59 160t139 115q87 43 213 43q140 0 232 -56q91 -55 135 -145q43 -87 43 -184v-4v-711h2q-97 -57 -139 -105q-43 -49 -43 -112q0 -64 43 -101zM731 76v-4
q95 60 139 155q48 102 48 224v151l-265 -33q-152 -17 -252 -43q-92 -23 -155 -77q-62 -53 -62 -148q0 -85 43 -149t117 -99q75 -35 162 -35q134 0 225 58z" />
    <glyph glyph-name="Cacute" unicode="&#x106;" horiz-adv-x="1583" 
d="M469 78l-2 -10q-162 106 -250 284q-92 186 -92 416q0 234 92 416q90 178 252 282q161 103 356 103q166 0 301 -66q134 -65 222 -176t135 -252h-66q-71 198 -221 318t-369 120q-172 0 -321 -96t-234 -264q-86 -170 -86 -381t86 -381q85 -169 230 -264q146 -96 309 -96
q235 0 387 116t229 324h66q-83 -244 -254 -369q-174 -127 -426 -127q-186 0 -344 103zM819 1681h-63l268 244h80z" />
    <glyph glyph-name="cacute" unicode="&#x107;" horiz-adv-x="1173" 
d="M354 47l-6 -2q-114 70 -178 199q-64 128 -64 295t64 295q64 127 178 198q113 70 262 70q172 0 291 -101q120 -102 166 -276h-59q-41 153 -142 240q-101 88 -252 88q-131 0 -235 -66q-101 -64 -156 -180t-55 -266q0 -151 55 -267q56 -119 156 -182q103 -65 235 -65
q148 0 258 90q107 88 154 239h59q-30 -114 -98 -200q-69 -87 -162 -133q-98 -48 -209 -48q-146 0 -262 72zM604 1251h-57l258 301h76z" />
    <glyph glyph-name="Ccircumflex" unicode="&#x108;" horiz-adv-x="1583" 
d="M469 78l-2 -10q-162 106 -250 284q-92 186 -92 416q0 234 92 416q90 178 252 282q161 103 356 103q166 0 301 -66q134 -65 222 -176t135 -252h-66q-71 198 -221 318t-369 120q-172 0 -321 -96t-234 -264q-86 -170 -86 -381t86 -381q85 -169 230 -264q146 -96 309 -96
q235 0 387 116t229 324h66q-83 -244 -254 -369q-174 -127 -426 -127q-186 0 -344 103zM872 1925l283 -244h-63l-263 213l-264 -213h-63l280 244h90z" />
    <glyph glyph-name="ccircumflex" unicode="&#x109;" horiz-adv-x="1173" 
d="M354 47l-6 -2q-114 70 -178 199q-64 128 -64 295t64 295q64 127 178 198q113 70 262 70q172 0 291 -101q120 -102 166 -276h-59q-41 153 -142 240q-101 88 -252 88q-131 0 -235 -66q-101 -64 -156 -180t-55 -266q0 -151 55 -267q56 -119 156 -182q103 -65 235 -65
q148 0 258 90q107 88 154 239h59q-30 -114 -98 -200q-69 -87 -162 -133q-98 -48 -209 -48q-146 0 -262 72zM651 1552l287 -301h-59l-267 269l-268 -269h-59l284 301h82z" />
    <glyph glyph-name="Cdotaccent" unicode="&#x10a;" horiz-adv-x="1583" 
d="M469 78l-2 -10q-162 106 -250 284q-92 186 -92 416q0 234 92 416q90 178 252 282q161 103 356 103q166 0 301 -66q134 -65 222 -176t135 -252h-66q-71 198 -221 318t-369 120q-172 0 -321 -96t-234 -264q-86 -170 -86 -381t86 -381q85 -169 230 -264q146 -96 309 -96
q235 0 387 116t229 324h66q-83 -244 -254 -369q-174 -127 -426 -127q-186 0 -344 103zM858 1681h-63v244h63v-244z" />
    <glyph glyph-name="cdotaccent" unicode="&#x10b;" horiz-adv-x="1173" 
d="M354 47l-6 -2q-114 70 -178 199q-64 128 -64 295t64 295q64 127 178 198q113 70 262 70q172 0 291 -101q120 -102 166 -276h-59q-41 153 -142 240q-101 88 -252 88q-131 0 -235 -66q-101 -64 -156 -180t-55 -266q0 -151 55 -267q56 -119 156 -182q103 -65 235 -65
q148 0 258 90q107 88 154 239h59q-30 -114 -98 -200q-69 -87 -162 -133q-98 -48 -209 -48q-146 0 -262 72zM639 1307h-59v245h59v-245z" />
    <glyph glyph-name="Ccaron" unicode="&#x10c;" horiz-adv-x="1583" 
d="M469 78l-2 -10q-162 106 -250 284q-92 186 -92 416q0 234 92 416q90 178 252 282q161 103 356 103q166 0 301 -66q134 -65 222 -176t135 -252h-66q-71 198 -221 318t-369 120q-172 0 -321 -96t-234 -264q-86 -170 -86 -381t86 -381q85 -169 230 -264q146 -96 309 -96
q235 0 387 116t229 324h66q-83 -244 -254 -369q-174 -127 -426 -127q-186 0 -344 103zM827 1712l263 213h63l-283 -244h-90l-280 244h63z" />
    <glyph glyph-name="ccaron" unicode="&#x10d;" horiz-adv-x="1173" 
d="M354 47l-6 -2q-114 70 -178 199q-64 128 -64 295t64 295q64 127 178 198q113 70 262 70q172 0 291 -101q120 -102 166 -276h-59q-41 153 -142 240q-101 88 -252 88q-131 0 -235 -66q-101 -64 -156 -180t-55 -266q0 -151 55 -267q56 -119 156 -182q103 -65 235 -65
q148 0 258 90q107 88 154 239h59q-30 -114 -98 -200q-69 -87 -162 -133q-98 -48 -209 -48q-146 0 -262 72zM610 1286l267 266h59l-287 -301h-82l-284 301h59z" />
    <glyph glyph-name="Dcaron" unicode="&#x10e;" horiz-adv-x="1617" 
d="M727 1556v-4q228 0 401 -92q172 -91 267 -268q94 -175 94 -416t-94 -416q-95 -177 -267 -268q-173 -92 -401 -92h-496v1556h496zM727 53l-2 -4q208 0 367 84q158 84 243 246q86 164 86 393t-86 393q-85 162 -243 246q-159 84 -365 84h-432v-1442h432zM762 1716l262 213
h63l-282 -243h-90l-281 243h64z" />
    <glyph glyph-name="dcaron" unicode="&#x10f;" horiz-adv-x="1298" 
d="M1051 1556l59 -4v-1556h-57v311q-30 -95 -95 -172q-63 -75 -153 -119q-87 -43 -201 -43q-139 0 -252 72q-111 70 -172 199q-61 128 -61 295t61 295q61 127 172 198q110 70 252 70q117 0 203 -45q90 -47 151 -123q64 -80 93 -168v790zM844 88l-2 -2q98 62 155 182
q56 118 56 267q0 148 -56 266q-57 120 -155 182q-104 66 -234 66q-128 0 -229 -66q-99 -65 -154 -180q-55 -116 -55 -266q0 -151 55 -267q56 -118 154 -182q100 -65 231 -65t234 65zM1260 1182h-46l37 368h58z" />
    <glyph glyph-name="Dcroat" unicode="&#x110;" horiz-adv-x="1617" 
d="M727 1556v-4q228 0 401 -92q172 -91 267 -268q94 -175 94 -416t-94 -416q-95 -177 -267 -268q-173 -92 -401 -92h-496v780h-190v51h190v725h496zM727 53l-2 -4q208 0 367 84q158 84 243 246q86 164 86 393t-86 393q-85 162 -243 246q-159 84 -365 84h-432v-668h469v-51
h-469v-723h432z" />
    <glyph glyph-name="dcroat" unicode="&#x111;" horiz-adv-x="1298" 
d="M1268 1358l2 -51h-160v-1311h-57v311q-30 -95 -95 -172q-63 -75 -153 -119q-87 -43 -201 -43q-139 0 -252 72q-111 70 -172 199q-61 128 -61 295t61 295q61 127 172 198q110 70 252 70q117 0 203 -45q90 -47 151 -123q64 -80 93 -168v545h-224v47h224v198h57v-198h160z
M844 88l-2 -2q98 62 155 182q56 118 56 267q0 148 -56 266q-57 120 -155 182q-104 66 -234 66q-128 0 -229 -66q-99 -65 -154 -180q-55 -116 -55 -266q0 -151 55 -267q56 -118 154 -182q100 -65 231 -65t234 65z" />
    <glyph glyph-name="Emacron" unicode="&#x112;" horiz-adv-x="1310" 
d="M295 778v-721h897v-57h-961v1556h943v-57h-879v-663h864v-58h-864zM1036 1794h-663v51h663v-51z" />
    <glyph glyph-name="emacron" unicode="&#x113;" horiz-adv-x="1198" 
d="M1090 532l-924 3q3 -156 61 -269q59 -114 158 -176q98 -61 225 -61q154 0 252 73q99 73 146 213h59q-47 -167 -166 -252q-121 -86 -289 -86q-141 0 -256 68q-113 67 -178 197t-65 301q0 168 65 295q64 125 176 196q110 70 250 70q134 0 246 -68t176 -190q66 -126 66 -285
zM381 995l-2 -2q-95 -59 -150 -166t-61 -245h858v2q-3 130 -59 239t-154 170q-100 62 -217 62q-118 0 -215 -60zM903 1370h-618v49h618v-49z" />
    <glyph glyph-name="Ebreve" unicode="&#x114;" horiz-adv-x="1310" 
d="M295 778v-721h897v-57h-961v1556h943v-57h-879v-663h864v-58h-864zM563 1718l2 2q-58 34 -88 90q-31 57 -31 127h52q0 -99 55 -151q56 -53 152 -53q97 0 153 53q55 52 55 151h52q0 -69 -31 -129q-29 -57 -88 -92q-56 -33 -141 -33q-83 0 -142 35z" />
    <glyph glyph-name="ebreve" unicode="&#x115;" horiz-adv-x="1198" 
d="M1090 532l-924 3q3 -156 61 -269q59 -114 158 -176q98 -61 225 -61q154 0 252 73q99 73 146 213h59q-47 -167 -166 -252q-121 -86 -289 -86q-141 0 -256 68q-113 67 -178 197t-65 301q0 168 65 295q64 125 176 196q110 70 250 70q134 0 246 -68t176 -190q66 -126 66 -285
zM381 995l-2 -2q-95 -59 -150 -166t-61 -245h858v2q-3 130 -59 239t-154 170q-100 62 -217 62q-118 0 -215 -60zM453 1290l-2 -4q-62 43 -91 111q-30 71 -30 155h49q0 -76 27 -135q29 -62 75 -90q51 -31 113 -31q64 0 115 31q46 28 75 90q27 59 27 137h49q0 -82 -31 -155
q-30 -70 -92 -111q-59 -39 -143 -39q-82 0 -141 41z" />
    <glyph glyph-name="Edotaccent" unicode="&#x116;" horiz-adv-x="1310" 
d="M295 778v-721h897v-57h-961v1556h943v-57h-879v-663h864v-58h-864zM735 1694h-63v243h63v-243z" />
    <glyph glyph-name="edotaccent" unicode="&#x117;" horiz-adv-x="1198" 
d="M1090 532l-924 3q3 -156 61 -269q59 -114 158 -176q98 -61 225 -61q154 0 252 73q99 73 146 213h59q-47 -167 -166 -252q-121 -86 -289 -86q-141 0 -256 68q-113 67 -178 197t-65 301q0 168 65 295q64 125 176 196q110 70 250 70q134 0 246 -68t176 -190q66 -126 66 -285
zM381 995l-2 -2q-95 -59 -150 -166t-61 -245h858v2q-3 130 -59 239t-154 170q-100 62 -217 62q-118 0 -215 -60zM623 1311h-60v245h60v-245z" />
    <glyph glyph-name="Eogonek" unicode="&#x118;" horiz-adv-x="1310" 
d="M1192 0v-2q-94 -55 -137 -104t-43 -113t43 -98q44 -35 108 -35h29v-47h-31q-56 0 -100 20q-47 21 -74 62q-26 39 -26 96q0 71 43 123q42 51 126 98h-899v1556h943v-57h-879v-663h864v-58h-864v-721h897v-57z" />
    <glyph glyph-name="eogonek" unicode="&#x119;" horiz-adv-x="1198" 
d="M1090 532l-920 3q3 -156 61 -269q59 -114 158 -176q98 -61 225 -61q154 0 252 73q99 73 146 213h59q-50 -171 -174 -258q-76 -62 -119 -104q-43 -43 -61 -84q-19 -43 -19 -86q0 -63 43 -100t109 -37h31v-45h-33q-84 0 -143 47q-58 46 -58 129q0 67 33 117q34 52 104 110
q-76 -27 -172 -27q-141 0 -256 68q-113 67 -178 197t-65 301q0 168 65 295q64 125 176 196q110 70 250 70q134 0 246 -68t176 -190q66 -126 66 -285zM385 995l-2 -2q-95 -59 -150 -166t-61 -245h858v2q-3 130 -59 239t-154 170q-100 62 -217 62q-118 0 -215 -60z" />
    <glyph glyph-name="Ecaron" unicode="&#x11a;" horiz-adv-x="1310" 
d="M295 778v-721h897v-57h-961v1556h943v-57h-879v-663h864v-58h-864zM705 1724l262 213h63l-282 -243h-91l-280 243h63z" />
    <glyph glyph-name="ecaron" unicode="&#x11b;" horiz-adv-x="1198" 
d="M1090 532l-924 3q3 -156 61 -269q59 -114 158 -176q98 -61 225 -61q154 0 252 73q99 73 146 213h59q-47 -167 -166 -252q-121 -86 -289 -86q-141 0 -256 68q-113 67 -178 197t-65 301q0 168 65 295q64 125 176 196q110 70 250 70q134 0 246 -68t176 -190q66 -126 66 -285
zM381 995l-2 -2q-95 -59 -150 -166t-61 -245h858v2q-3 130 -59 239t-154 170q-100 62 -217 62q-118 0 -215 -60zM594 1290l266 266h60l-287 -301h-82l-285 301h60z" />
    <glyph glyph-name="Gcircumflex" unicode="&#x11c;" horiz-adv-x="1677" 
d="M795 780l706 -16v-780h-59v462q-26 -117 -105 -231q-78 -113 -204 -182q-132 -72 -306 -72q-199 0 -358 102q-162 104 -252 285q-92 186 -92 416t92 416q89 179 252 284q161 103 354 103q170 0 301 -64q136 -67 222 -174q88 -111 135 -252h-66q-71 200 -221 320
q-149 119 -371 119q-171 0 -319 -97q-145 -95 -230 -264q-86 -170 -86 -381q0 -209 86 -383q84 -170 234 -266q146 -94 326 -94q174 0 311 82q140 84 219 239q80 157 80 369v2h-649v57zM866 1921l283 -244h-64l-262 213l-264 -213h-63l280 244h90z" />
    <glyph glyph-name="gcircumflex" unicode="&#x11d;" horiz-adv-x="1298" 
d="M1055 1079l55 -2v-1120q0 -118 -61 -203q-63 -88 -168 -133t-242 -45q-132 0 -236 43q-103 43 -165 123t-68 188h59q9 -101 68 -172q58 -70 149 -104q88 -33 201 -33q120 0 213 41q94 42 146 117q53 77 53 178v371q-27 -91 -92 -168q-63 -75 -156 -119q-90 -43 -203 -43
q-142 0 -254 68q-110 67 -172 194q-61 125 -61 293q0 166 61 291q61 124 172 192q112 68 252 68q116 0 205 -45q93 -47 154 -123q64 -79 90 -168v311zM844 109q97 63 153 178t56 264t-56 264q-56 116 -153 176q-100 62 -232 62q-131 0 -231 -62q-99 -62 -152 -176
q-53 -115 -53 -264t53 -264q52 -113 152 -178q98 -64 231 -64q134 0 232 64zM651 1554l287 -301h-59l-267 269l-268 -269h-59l284 301h82z" />
    <glyph glyph-name="Gbreve" unicode="&#x11e;" horiz-adv-x="1677" 
d="M795 780l706 -16v-780h-59v462q-26 -117 -105 -231q-78 -113 -204 -182q-132 -72 -306 -72q-199 0 -358 102q-162 104 -252 285q-92 186 -92 416t92 416q89 179 252 284q161 103 354 103q170 0 301 -64q136 -67 222 -174q88 -111 135 -252h-66q-71 200 -221 320
q-149 119 -371 119q-171 0 -319 -97q-145 -95 -230 -264q-86 -170 -86 -381q0 -209 86 -383q84 -170 234 -266q146 -94 326 -94q174 0 311 82q140 84 219 239q80 157 80 369v2h-649v57zM678 1702l2 2q-58 34 -88 90q-31 57 -31 127h51q0 -99 56 -152t151 -53q98 0 154 53
q55 52 55 152h51q0 -71 -30 -129q-29 -57 -88 -92q-56 -33 -142 -33q-82 0 -141 35z" />
    <glyph glyph-name="gbreve" unicode="&#x11f;" horiz-adv-x="1298" 
d="M1055 1079l55 -2v-1120q0 -118 -61 -203q-63 -88 -168 -133t-242 -45q-132 0 -236 43q-103 43 -165 123t-68 188h59q9 -101 68 -172q58 -70 149 -104q88 -33 201 -33q120 0 213 41q94 42 146 117q53 77 53 178v371q-27 -91 -92 -168q-63 -75 -156 -119q-90 -43 -203 -43
q-142 0 -254 68q-110 67 -172 194q-61 125 -61 293q0 166 61 291q61 124 172 192q112 68 252 68q116 0 205 -45q93 -47 154 -123q64 -79 90 -168v311zM844 109q97 63 153 178t56 264t-56 264q-56 116 -153 176q-100 62 -232 62q-131 0 -231 -62q-99 -62 -152 -176
q-53 -115 -53 -264t53 -264q52 -113 152 -178q98 -64 231 -64q134 0 232 64zM469 1288l-2 -4q-61 42 -90 111q-31 73 -31 155h49q0 -76 27 -135q28 -61 76 -90q51 -31 112 -31q64 0 115 31q48 29 76 90q26 56 26 137h50q0 -82 -31 -155q-30 -70 -92 -111q-59 -39 -144 -39
q-82 0 -141 41z" />
    <glyph glyph-name="Gdotaccent" unicode="&#x120;" horiz-adv-x="1677" 
d="M795 780l706 -16v-780h-59v462q-26 -117 -105 -231q-78 -113 -204 -182q-132 -72 -306 -72q-199 0 -358 102q-162 104 -252 285q-92 186 -92 416t92 416q89 179 252 284q161 103 354 103q170 0 301 -64q136 -67 222 -174q88 -111 135 -252h-66q-71 200 -221 320
q-149 119 -371 119q-171 0 -319 -97q-145 -95 -230 -264q-86 -170 -86 -381q0 -209 86 -383q84 -170 234 -266q146 -94 326 -94q174 0 311 82q140 84 219 239q80 157 80 369v2h-649v57zM852 1677h-64v244h64v-244z" />
    <glyph glyph-name="gdotaccent" unicode="&#x121;" horiz-adv-x="1298" 
d="M1055 1079l55 -2v-1120q0 -118 -61 -203q-63 -88 -168 -133t-242 -45q-132 0 -236 43q-103 43 -165 123t-68 188h59q9 -101 68 -172q58 -70 149 -104q88 -33 201 -33q120 0 213 41q94 42 146 117q53 77 53 178v371q-27 -91 -92 -168q-63 -75 -156 -119q-90 -43 -203 -43
q-142 0 -254 68q-110 67 -172 194q-61 125 -61 293q0 166 61 291q61 124 172 192q112 68 252 68q116 0 205 -45q93 -47 154 -123q64 -79 90 -168v311zM844 109q97 63 153 178t56 264t-56 264q-56 116 -153 176q-100 62 -232 62q-131 0 -231 -62q-99 -62 -152 -176
q-53 -115 -53 -264t53 -264q52 -113 152 -178q98 -64 231 -64q134 0 232 64zM639 1309h-59v245h59v-245z" />
    <glyph glyph-name="uni0122" unicode="&#x122;" horiz-adv-x="1677" 
d="M795 780l706 -16v-780h-59v462q-26 -117 -105 -231q-78 -113 -204 -182q-132 -72 -306 -72q-199 0 -358 102q-162 104 -252 285q-92 186 -92 416t92 416q89 179 252 284q161 103 354 103q170 0 301 -64q136 -67 222 -174q88 -111 135 -252h-66q-71 200 -221 320
q-149 119 -371 119q-171 0 -319 -97q-145 -95 -230 -264q-86 -170 -86 -381q0 -209 86 -383q84 -170 234 -266q146 -94 326 -94q174 0 311 82q140 84 219 239q80 157 80 369v2h-649v57zM805 -412v240h63v-244l-73 -147h-62z" />
    <glyph glyph-name="uni0123" unicode="&#x123;" horiz-adv-x="1298" 
d="M1055 1079l55 -2v-1120q0 -118 -61 -203q-63 -88 -168 -133t-242 -45q-132 0 -236 43q-103 43 -165 123t-68 188h59q9 -101 68 -172q58 -70 149 -104q88 -33 201 -33q120 0 213 41q94 42 146 117q53 77 53 178v371q-27 -91 -92 -168q-63 -75 -156 -119q-90 -43 -203 -43
q-142 0 -254 68q-110 67 -172 194q-61 125 -61 293q0 166 61 291q61 124 172 192q112 68 252 68q116 0 205 -45q93 -47 154 -123q64 -79 90 -168v311zM844 109q97 63 153 178t56 264t-56 264q-56 116 -153 176q-100 62 -232 62q-131 0 -231 -62q-99 -62 -152 -176
q-53 -115 -53 -264t53 -264q52 -113 152 -178q98 -64 231 -64q134 0 232 64zM653 1700h58l-72 -152v-239h-59v243z" />
    <glyph glyph-name="Hcircumflex" unicode="&#x124;" horiz-adv-x="1611" 
d="M1319 836v720h61v-1556h-61v778h-1024v-778h-64v1556h64v-720h1024zM852 1937l283 -243h-64l-262 213l-264 -213h-64l281 243h90z" />
    <glyph glyph-name="hcircumflex" unicode="&#x125;" horiz-adv-x="1175" 
d="M803 1051h-6q91 -54 145 -150q55 -98 55 -227v-4v-672h-57v659v5q0 122 -45 208q-48 91 -125 136q-80 47 -178 47q-101 0 -178 -45t-125 -136q-45 -86 -45 -208v-664h-58v1556h58v-706q46 116 141 184t221 68q111 0 197 -51zM258 1937l283 -243h-64l-262 213l-264 -213
h-64l281 243h90z" />
    <glyph glyph-name="Hbar" unicode="&#x126;" horiz-adv-x="1611" 
d="M1380 1214h224v-53h-224v-1161h-61v778h-1024v-778h-64v1161h-223v53h223v342h64v-342h1024v342h61v-342zM295 836h1024v325h-1024v-325z" />
    <glyph glyph-name="hbar" unicode="&#x127;" horiz-adv-x="1175" 
d="M803 1051h-6q91 -54 145 -150q55 -98 55 -227v-4v-672h-57v659v5q0 122 -45 208q-48 91 -125 136q-80 47 -178 47q-101 0 -178 -45t-125 -136q-45 -86 -45 -208v-664h-58v1311h-159v47h159v198h58v-198h221v-47h-221v-461q46 116 141 184t221 68q111 0 197 -51z" />
    <glyph glyph-name="Itilde" unicode="&#x128;" horiz-adv-x="526" 
d="M295 0h-64v1556h64v-1556zM-41 1749l-6 -2q15 61 65 96t103 35q36 0 74 -10q23 -6 75 -31q67 -33 125 -33q95 0 135 82h35q-15 -63 -63 -96q-50 -35 -101 -35q-35 0 -73 10q-29 7 -74 31q-75 35 -125 35q-95 0 -135 -82h-35z" />
    <glyph glyph-name="itilde" unicode="&#x129;" horiz-adv-x="438" 
d="M248 0h-58v1079h58v-1079zM-74 1327h-4q15 63 62 98t98 35q36 0 70 -12q7 -2 79 -35q65 -35 117 -35q47 0 80 23q31 22 49 65h33q-15 -64 -61 -98q-47 -35 -99 -35q-62 0 -145 45q-65 35 -117 35q-92 0 -127 -86h-35z" />
    <glyph glyph-name="Imacron" unicode="&#x12a;" horiz-adv-x="526" 
d="M295 0h-64v1556h64v-1556zM594 1794h-664v51h664v-51z" />
    <glyph glyph-name="imacron" unicode="&#x12b;" horiz-adv-x="438" 
d="M248 0h-58v1079h58v-1079zM528 1370h-618v49h618v-49z" />
    <glyph glyph-name="Ibreve" unicode="&#x12c;" horiz-adv-x="526" 
d="M295 0h-64v1556h64v-1556zM121 1718l2 2q-58 34 -88 90q-31 57 -31 127h51q0 -98 56 -151t151 -53q98 0 154 53q55 52 55 151h51q0 -71 -30 -129q-29 -57 -89 -92q-56 -33 -141 -33q-82 0 -141 35z" />
    <glyph glyph-name="ibreve" unicode="&#x12d;" horiz-adv-x="438" 
d="M248 0h-58v1079h58v-1079zM78 1290l-2 -4q-61 42 -90 111q-31 73 -31 155h49q0 -76 27 -135q29 -62 75 -90q51 -31 113 -31q64 0 115 31q48 29 76 90q26 56 26 137h49q0 -84 -30 -155q-29 -69 -93 -111q-59 -39 -143 -39q-82 0 -141 41z" />
    <glyph glyph-name="Iogonek" unicode="&#x12e;" horiz-adv-x="526" 
d="M295 0h-64v1556h64v-1556zM262 -401l-2 -2q-56 0 -100 20q-48 22 -74 61q-27 40 -27 97q0 71 43 123q42 51 129 98h62q-92 -54 -137 -105q-43 -49 -43 -112q0 -64 43 -98q44 -35 108 -35h31v-47h-33z" />
    <glyph glyph-name="iogonek" unicode="&#x12f;" horiz-adv-x="438" 
d="M188 1311v245h60v-245h-60zM190 1079h62v-1079q-98 -58 -139 -104q-43 -49 -43 -113q0 -63 43 -100t108 -37h31v-45h-33q-56 0 -100 20q-47 21 -74 62t-27 96q0 71 43 123q42 51 129 98v1079z" />
    <glyph glyph-name="Idotaccent" unicode="&#x130;" horiz-adv-x="526" 
d="M295 0h-64v1556h64v-1556zM295 1694h-64v243h64v-243z" />
    <glyph glyph-name="dotlessi" unicode="&#x131;" horiz-adv-x="438" 
d="M248 0h-58v1079h58v-1079z" />
    <glyph glyph-name="Jcircumflex" unicode="&#x134;" horiz-adv-x="688" 
d="M41 0l-4 59h106q81 0 140 19q56 18 86 65t30 129v1284h62v-1288q0 -145 -80 -207q-79 -61 -229 -61h-111zM475 1939l283 -243h-64l-262 213l-264 -213h-64l281 243h90z" />
    <glyph glyph-name="jcircumflex" unicode="&#x135;" horiz-adv-x="438" 
d="M-51 -401v47h43q100 0 149 49t49 153v1229h58v-1229q0 -120 -66 -186q-63 -63 -188 -63h-45zM260 1554l287 -301h-60l-266 269l-268 -269h-59l284 301h82z" />
    <glyph glyph-name="uni0136" unicode="&#x136;" horiz-adv-x="1388" 
d="M379 823l1016 -823h-90l-1010 819v-819h-64v1556h64v-729l928 729h90zM707 -395v239h63v-243l-74 -148h-61z" />
    <glyph glyph-name="uni0137" unicode="&#x137;" horiz-adv-x="1005" 
d="M322 602l671 -602h-78l-667 598v-598h-58v1556h58v-948l635 471h84zM530 -395v239h60v-243l-74 -148h-57z" />
    <glyph glyph-name="kgreenlandic" unicode="&#x138;" horiz-adv-x="1005" 
d="M319 578l676 -578h-77l-670 573v-573h-58v1079h58v-493l637 493h84z" />
    <glyph glyph-name="Lacute" unicode="&#x139;" horiz-adv-x="1077" 
d="M295 1556v-1499h741v-57h-805v1556h64zM303 1694h-63l268 243h80z" />
    <glyph glyph-name="lacute" unicode="&#x13a;" horiz-adv-x="438" 
d="M248 0h-58v1556h58v-1556zM262 1694h-63l268 243h80z" />
    <glyph glyph-name="uni013B" unicode="&#x13b;" horiz-adv-x="1077" 
d="M295 1556v-1499h741v-57h-805v1556h64zM604 -395v239h64v-243l-74 -148h-62z" />
    <glyph glyph-name="uni013C" unicode="&#x13c;" horiz-adv-x="438" 
d="M248 0h-58v1556h58v-1556zM188 -395v239h60v-243l-74 -148h-57z" />
    <glyph glyph-name="Lcaron" unicode="&#x13d;" horiz-adv-x="1077" 
d="M295 1556v-1499h741v-57h-805v1556h64zM637 1081h-51l57 478h64z" />
    <glyph glyph-name="lcaron" unicode="&#x13e;" horiz-adv-x="438" 
d="M248 0h-58v1556h58v-1556zM399 1188h-45l37 368h58z" />
    <glyph glyph-name="Ldot" unicode="&#x13f;" horiz-adv-x="1099" 
d="M295 1556v-1499h741v-57h-805v1556h64zM844 739h-64v234h64v-234z" />
    <glyph glyph-name="ldot" unicode="&#x140;" horiz-adv-x="462" 
d="M248 0h-58v1556h58v-1556zM481 684h-63v231h63v-231z" />
    <glyph glyph-name="Lslash" unicode="&#x141;" horiz-adv-x="1077" 
d="M295 729v-672h741v-57h-805v692l-188 -114v59l188 113v806h64v-768l379 228v-58z" />
    <glyph glyph-name="lslash" unicode="&#x142;" horiz-adv-x="456" 
d="M256 823l201 131v-57l-201 -133v-764h-57v727l-158 -104v59l158 102v772h57v-733z" />
    <glyph glyph-name="Nacute" unicode="&#x143;" horiz-adv-x="1691" 
d="M295 0h-64v1556h64v-1556zM1364 0h-70l-964 1556h69zM1460 0h-61v1556h61v-1556zM866 1694h-63l268 243h80z" />
    <glyph glyph-name="nacute" unicode="&#x144;" horiz-adv-x="1175" 
d="M803 1051h-6q91 -54 145 -150q55 -98 55 -227v-4v-672h-57v659v5q0 122 -45 208q-48 91 -125 136q-80 47 -178 47q-101 0 -178 -45t-125 -136q-45 -86 -45 -208v-664h-58v1079h58v-229q46 116 141 184t221 68q111 0 197 -51zM580 1255h-58l258 301h76z" />
    <glyph glyph-name="uni0145" unicode="&#x145;" horiz-adv-x="1691" 
d="M295 0h-64v1556h64v-1556zM1364 0h-70l-964 1556h69zM1460 0h-61v1556h61v-1556zM803 -395v239h63v-243l-73 -148h-62z" />
    <glyph glyph-name="uni0146" unicode="&#x146;" horiz-adv-x="1175" 
d="M803 1051h-6q91 -54 145 -150q55 -98 55 -227v-4v-672h-57v659v5q0 122 -45 208q-48 91 -125 136q-80 47 -178 47q-101 0 -178 -45t-125 -136q-45 -86 -45 -208v-664h-58v1079h58v-229q46 116 141 184t221 68q111 0 197 -51zM559 -395v239h59v-243l-73 -148h-58z" />
    <glyph glyph-name="Ncaron" unicode="&#x147;" horiz-adv-x="1691" 
d="M295 0h-64v1556h64v-1556zM1364 0h-70l-964 1556h69zM1460 0h-61v1556h61v-1556zM877 1724l262 213h63l-282 -243h-91l-280 243h63z" />
    <glyph glyph-name="ncaron" unicode="&#x148;" horiz-adv-x="1175" 
d="M803 1051h-6q91 -54 145 -150q55 -98 55 -227v-4v-672h-57v659v5q0 122 -45 208q-48 91 -125 136q-80 47 -178 47q-101 0 -178 -45t-125 -136q-45 -86 -45 -208v-664h-58v1079h58v-229q46 116 141 184t221 68q111 0 197 -51zM586 1290l266 266h59l-286 -301h-82l-285 301
h59z" />
    <glyph glyph-name="Eng" unicode="&#x14a;" horiz-adv-x="1691" 
d="M295 0h-64v1556h64v-1556zM399 1556l965 -1556h-70l-964 1556h69zM1460 1556l-2 -1687q0 -145 -80 -207q-79 -61 -231 -61h-109v57h107q81 0 137 18q55 18 86 66t31 129v1685h61z" />
    <glyph glyph-name="eng" unicode="&#x14b;" horiz-adv-x="1175" 
d="M803 1051h-6q91 -54 145 -150q55 -98 55 -227v-4v-672h-57v659v5q0 122 -45 208q-48 91 -125 136q-80 47 -178 47q-101 0 -178 -45t-125 -136q-45 -86 -45 -208v-664h-58v1079h58v-229q46 116 141 184t221 68q111 0 197 -51zM696 -401v47h43q101 0 150 49t49 153v150h57
v-150q0 -121 -65 -186q-63 -63 -189 -63h-45z" />
    <glyph glyph-name="Omacron" unicode="&#x14c;" horiz-adv-x="1697" 
d="M477 78v-4q-166 104 -256 282q-92 182 -92 416t92 416q90 178 256 282q165 103 373 103q209 0 369 -100q165 -103 256 -283q92 -182 92 -416t-92 -416q-90 -178 -256 -282q-162 -101 -369 -101q-208 0 -373 103zM1186 123v-4q149 94 235 264t86 385t-86 385t-235 264
q-152 96 -338 96q-189 0 -338 -94q-151 -95 -236 -264q-86 -170 -86 -385t86 -385q85 -169 236 -264q149 -94 338 -94q186 0 338 96zM1180 1784h-664v51h664v-51z" />
    <glyph glyph-name="omacron" unicode="&#x14d;" horiz-adv-x="1222" 
d="M352 47v-2q-114 70 -178 199q-63 126 -63 295t63 295q64 127 178 198q113 70 258 70t258 -70q116 -72 179 -198t63 -295t-63 -295q-64 -128 -179 -199q-113 -70 -258 -70q-142 0 -258 72zM842 88l-2 -2q96 63 153 182q56 118 56 267q0 148 -56 266q-57 119 -153 182
q-101 66 -230 66t-233 -66q-101 -64 -156 -180t-55 -266q0 -151 55 -267q56 -119 156 -182q103 -65 233 -65q132 0 232 65zM918 1364h-619v49h619v-49z" />
    <glyph glyph-name="Obreve" unicode="&#x14e;" horiz-adv-x="1697" 
d="M477 78v-4q-166 104 -256 282q-92 182 -92 416t92 416q90 178 256 282q165 103 373 103q209 0 369 -100q165 -103 256 -283q92 -182 92 -416t-92 -416q-90 -178 -256 -282q-162 -101 -369 -101q-208 0 -373 103zM1186 123v-4q149 94 235 264t86 385t-86 385t-235 264
q-152 96 -338 96q-189 0 -338 -94q-151 -95 -236 -264q-86 -170 -86 -385t86 -385q85 -169 236 -264q149 -94 338 -94q186 0 338 96zM707 1710l2 2q-58 34 -88 90q-31 57 -31 127h51q0 -99 55 -151q57 -54 152 -54q96 0 153 54q56 53 56 151h51q0 -69 -31 -129
q-29 -57 -88 -92q-56 -33 -141 -33q-82 0 -141 35z" />
    <glyph glyph-name="obreve" unicode="&#x14f;" horiz-adv-x="1222" 
d="M352 47v-2q-114 70 -178 199q-63 126 -63 295t63 295q64 127 178 198q113 70 258 70t258 -70q116 -72 179 -198t63 -295t-63 -295q-64 -128 -179 -199q-113 -70 -258 -70q-142 0 -258 72zM842 88l-2 -2q96 63 153 182q56 118 56 267q0 148 -56 266q-57 119 -153 182
q-101 66 -230 66t-233 -66q-101 -64 -156 -180t-55 -266q0 -151 55 -267q56 -119 156 -182q103 -65 233 -65q132 0 232 65zM467 1284l-2 -4q-61 42 -90 111q-31 73 -31 155h49q0 -76 27 -135q28 -61 76 -90q51 -31 112 -31q64 0 115 31q48 29 76 90q26 56 26 137h49
q0 -84 -30 -155q-30 -70 -92 -111q-59 -39 -144 -39q-82 0 -141 41z" />
    <glyph glyph-name="Ohungarumlaut" unicode="&#x150;" horiz-adv-x="1697" 
d="M477 78v-4q-166 104 -256 282q-92 182 -92 416t92 416q90 178 256 282q165 103 373 103q209 0 369 -100q165 -103 256 -283q92 -182 92 -416t-92 -416q-90 -178 -256 -282q-162 -101 -369 -101q-208 0 -373 103zM1186 123v-4q149 94 235 264t86 385t-86 385t-235 264
q-152 96 -338 96q-189 0 -338 -94q-151 -95 -236 -264q-86 -170 -86 -385t86 -385q85 -169 236 -264q149 -94 338 -94q186 0 338 96zM678 1683h-64l283 244h82zM961 1683h-66l285 244h82z" />
    <glyph glyph-name="ohungarumlaut" unicode="&#x151;" horiz-adv-x="1222" 
d="M352 47v-2q-114 70 -178 199q-63 126 -63 295t63 295q64 127 178 198q113 70 258 70t258 -70q116 -72 179 -198t63 -295t-63 -295q-64 -128 -179 -199q-113 -70 -258 -70q-142 0 -258 72zM842 88l-2 -2q96 63 153 182q56 118 56 267q0 148 -56 266q-57 119 -153 182
q-101 66 -230 66t-233 -66q-101 -64 -156 -180t-55 -266q0 -151 55 -267q56 -119 156 -182q103 -65 233 -65q132 0 232 65zM473 1249h-57l268 301h76zM754 1249h-58l269 301h77z" />
    <glyph glyph-name="OE" unicode="&#x152;" horiz-adv-x="2299" 
d="M2181 57l-2 -59h-1280q-204 0 -383 92q-175 90 -285 268q-108 176 -108 418q0 244 108 422q109 180 287 268q182 90 383 90h1262v-57h-879v-663h864v-58h-864v-721h897zM1219 55l-2 1438h-320q-181 0 -346 -80q-160 -78 -264 -244q-101 -162 -101 -395t101 -395
q104 -166 264 -244q165 -80 348 -80h320z" />
    <glyph glyph-name="oe" unicode="&#x153;" horiz-adv-x="2134" 
d="M2028 532l-924 -4q3 -155 61 -268q59 -115 160 -176t227 -61q152 0 252 75q102 77 146 215h59q-47 -167 -166 -252q-121 -86 -289 -86q-115 0 -208 43q-98 45 -164 123q-65 77 -101 195q-36 -113 -100 -191q-66 -81 -162 -125q-93 -43 -209 -43q-142 0 -258 72
q-114 70 -178 199q-63 126 -63 295t63 295q64 127 178 198q113 70 258 70q116 0 209 -43q96 -44 162 -125q64 -79 100 -190q35 112 101 190q68 80 159 123q90 43 199 43q134 0 246 -68t176 -190q66 -126 66 -285v-29zM838 88l-2 -2q96 63 153 182q55 116 55 267
q0 150 -55 266q-57 119 -153 182q-101 66 -230 66t-233 -66q-101 -64 -156 -180t-55 -266q0 -151 55 -267q56 -119 156 -182q103 -65 233 -65q132 0 232 65zM1315 987l-4 -2q-95 -59 -150 -166t-61 -246h860v2q-3 131 -59 240t-154 170q-100 62 -217 62q-118 0 -215 -60z
" />
    <glyph glyph-name="Racute" unicode="&#x154;" horiz-adv-x="1409" 
d="M1333 0l-76 -2l-477 713h-30h-457v-713h-64v1556h521q152 0 268 -49q114 -48 180 -145q64 -94 64 -227q0 -175 -111 -283q-110 -107 -297 -131zM293 768h452q135 0 236 43q100 43 156 123q55 79 55 196q0 115 -55 197q-57 84 -154 127q-98 43 -233 43h-457v-729z
M662 1692h-64l268 243h80z" />
    <glyph glyph-name="racute" unicode="&#x155;" horiz-adv-x="686" 
d="M248 848l-2 -2q47 124 141 188q97 66 258 66v-56h-12q-120 0 -205 -43q-87 -44 -133 -129q-47 -86 -47 -206v-666h-58v1079h58v-231zM434 1253h-57l258 301h76z" />
    <glyph glyph-name="uni0156" unicode="&#x156;" horiz-adv-x="1409" 
d="M1333 0l-76 -2l-477 713h-30h-457v-713h-64v1556h521q152 0 268 -49q114 -48 180 -145q64 -94 64 -227q0 -175 -111 -283q-110 -107 -297 -131zM293 768h452q135 0 236 43q100 43 156 123q55 79 55 196q0 115 -55 197q-57 84 -154 127q-98 43 -233 43h-457v-729z
M692 -397v239h64v-243l-74 -148h-61z" />
    <glyph glyph-name="uni0157" unicode="&#x157;" horiz-adv-x="686" 
d="M248 848l-2 -2q47 124 141 188q97 66 258 66v-56h-12q-120 0 -205 -43q-87 -44 -133 -129q-47 -86 -47 -206v-666h-58v1079h58v-231zM186 -397v239h60v-243l-74 -148h-57z" />
    <glyph glyph-name="Rcaron" unicode="&#x158;" horiz-adv-x="1409" 
d="M1333 0l-76 -2l-477 713h-30h-457v-713h-64v1556h521q152 0 268 -49q114 -48 180 -145q64 -94 64 -227q0 -175 -111 -283q-110 -107 -297 -131zM293 768h452q135 0 236 43q100 43 156 123q55 79 55 196q0 115 -55 197q-57 84 -154 127q-98 43 -233 43h-457v-729z
M672 1722l262 213h63l-282 -243h-90l-281 243h64z" />
    <glyph glyph-name="rcaron" unicode="&#x159;" horiz-adv-x="686" 
d="M248 848l-2 -2q47 124 141 188q97 66 258 66v-56h-12q-120 0 -205 -43q-87 -44 -133 -129q-47 -86 -47 -206v-666h-58v1079h58v-231zM440 1288l267 266h59l-287 -301h-82l-284 301h59z" />
    <glyph glyph-name="Sacute" unicode="&#x15a;" horiz-adv-x="1374" 
d="M403 37h-8q-123 58 -202 166q-80 109 -101 246h66q15 -125 90 -222q74 -95 184 -147q108 -51 240 -51q156 0 274 53q116 52 178 147t62 215q0 96 -47 158q-46 61 -146 105q-92 41 -266 79l-164 35q-126 28 -215 70q-92 43 -147 117q-56 74 -56 186q0 104 66 195
q65 89 184 141q121 53 271 53q145 0 264 -49t196 -141t95 -222h-64q-18 111 -86 191t-172 123t-233 43q-132 0 -236 -43t-162 -119q-57 -75 -57 -172q0 -96 45 -156t135 -98q76 -32 240 -70l162 -34q174 -38 270 -88q100 -51 147 -123q47 -71 47 -172q0 -140 -69 -246
t-203 -168q-133 -62 -307 -62q-149 0 -275 60zM653 1694h-63l268 243h80z" />
    <glyph glyph-name="sacute" unicode="&#x15b;" horiz-adv-x="1015" 
d="M317 16l-2 -2q-89 40 -147 117q-58 76 -76 178h60q21 -89 73 -153q53 -64 129 -99q71 -32 166 -32q105 0 178 36q76 37 117 99t41 129q0 79 -33 121q-36 45 -98 71q-65 27 -178 51l-96 21q-151 30 -240 92q-88 61 -88 178q0 82 49 146q47 61 135 100q84 37 191 37
q95 0 174 -33q84 -35 141 -98q59 -65 74 -156h-60q-15 77 -61 129q-47 53 -117 80q-76 29 -147 29q-82 0 -156 -27q-71 -26 -119 -80q-45 -51 -45 -123q0 -69 37 -112q39 -45 98 -68q65 -25 158 -43l96 -20q120 -25 191 -58q70 -33 112 -90q39 -53 39 -139q0 -91 -51 -162
q-52 -73 -141 -117q-87 -43 -201 -43q-113 0 -203 41zM492 1251h-58l258 301h76z" />
    <glyph glyph-name="Scircumflex" unicode="&#x15c;" horiz-adv-x="1374" 
d="M403 37h-8q-123 58 -202 166q-80 109 -101 246h66q15 -125 90 -222q74 -95 184 -147q108 -51 240 -51q156 0 274 53q116 52 178 147t62 215q0 96 -47 158q-46 61 -146 105q-92 41 -266 79l-164 35q-126 28 -215 70q-92 43 -147 117q-56 74 -56 186q0 104 66 195
q65 89 184 141q121 53 271 53q145 0 264 -49t196 -141t95 -222h-64q-18 111 -86 191t-172 123t-233 43q-132 0 -236 -43t-162 -119q-57 -75 -57 -172q0 -96 45 -156t135 -98q76 -32 240 -70l162 -34q174 -38 270 -88q100 -51 147 -123q47 -71 47 -172q0 -140 -69 -246
t-203 -168q-133 -62 -307 -62q-149 0 -275 60zM707 1937l282 -243h-63l-262 213l-265 -213h-63l280 243h91z" />
    <glyph glyph-name="scircumflex" unicode="&#x15d;" horiz-adv-x="1015" 
d="M317 16l-2 -2q-89 40 -147 117q-58 76 -76 178h60q21 -89 73 -153q53 -64 129 -99q71 -32 166 -32q105 0 178 36q76 37 117 99t41 129q0 79 -33 121q-36 45 -98 71q-65 27 -178 51l-96 21q-151 30 -240 92q-88 61 -88 178q0 82 49 146q47 61 135 100q84 37 191 37
q95 0 174 -33q84 -35 141 -98q59 -65 74 -156h-60q-15 77 -61 129q-47 53 -117 80q-76 29 -147 29q-82 0 -156 -27q-71 -26 -119 -80q-45 -51 -45 -123q0 -69 37 -112q39 -45 98 -68q65 -25 158 -43l96 -20q120 -25 191 -58q70 -33 112 -90q39 -53 39 -139q0 -91 -51 -162
q-52 -73 -141 -117q-87 -43 -201 -43q-113 0 -203 41zM537 1552l286 -301h-59l-266 269l-269 -269h-59l285 301h82z" />
    <glyph glyph-name="Scedilla" unicode="&#x15e;" horiz-adv-x="1374" 
d="M1190 209l-8 -10q-67 -105 -193 -166q-129 -63 -295 -66v-73q44 -3 82 -21q39 -19 60 -53q22 -36 22 -76q0 -70 -49 -113t-125 -43h-63v45h57q56 0 92 31q35 30 35 82q0 50 -37 80q-39 31 -88 31h-39v114q-142 3 -262 66q-117 61 -193 166q-76 104 -94 239h66
q15 -124 90 -221q74 -95 184 -147q108 -51 240 -51q156 0 274 53q116 52 178 147t62 215q0 96 -47 158q-45 60 -146 104q-97 43 -266 80l-164 35q-126 28 -215 70q-93 44 -147 116q-56 74 -56 187q0 103 66 194q66 90 184 142q121 53 271 53q145 0 264 -49q118 -49 196 -142
q77 -92 95 -221h-64q-18 111 -86 191t-172 123t-233 43q-132 0 -236 -43t-162 -119q-57 -75 -57 -172q0 -96 45 -156t135 -98q76 -32 240 -70l162 -35q174 -38 270 -88q100 -51 147 -123q47 -71 47 -172q0 -133 -67 -237z" />
    <glyph glyph-name="scedilla" unicode="&#x15f;" horiz-adv-x="1015" 
d="M510 -23l2 -81q44 -3 82 -21q39 -19 59 -51q23 -38 23 -76q0 -67 -49 -110q-50 -44 -123 -44h-62v44h58q56 0 94 30q37 30 37 82q0 50 -37 80q-39 31 -86 31h-41v116q-147 15 -248 105q-98 88 -125 229h60q21 -89 73 -153q53 -64 129 -99q71 -32 166 -32q105 0 178 36
q76 37 117 99t41 129q0 79 -33 121q-36 45 -98 71q-70 29 -178 52l-96 20q-151 30 -240 92q-88 61 -88 178q0 82 49 146q47 61 135 100q84 37 191 37q95 0 174 -33q84 -35 141 -98q59 -65 74 -156h-60q-15 77 -61 129q-47 53 -117 80q-76 29 -147 29q-82 0 -156 -27
q-71 -26 -119 -80q-45 -51 -45 -123q0 -69 37 -112q39 -45 98 -68q65 -25 158 -43l96 -20q120 -25 191 -58q72 -34 113 -90q38 -52 38 -139q0 -91 -51 -162q-52 -73 -141 -117q-87 -43 -201 -43h-12z" />
    <glyph glyph-name="Scaron" unicode="&#x160;" horiz-adv-x="1374" 
d="M403 37h-8q-123 58 -202 166q-80 109 -101 246h66q15 -125 90 -222q74 -95 184 -147q108 -51 240 -51q156 0 274 53q116 52 178 147t62 215q0 96 -47 158q-46 61 -146 105q-92 41 -266 79l-164 35q-126 28 -215 70q-92 43 -147 117q-56 74 -56 186q0 104 66 195
q65 89 184 141q121 53 271 53q145 0 264 -49t196 -141t95 -222h-64q-18 111 -86 191t-172 123t-233 43q-132 0 -236 -43t-162 -119q-57 -75 -57 -172q0 -96 45 -156t135 -98q76 -32 240 -70l162 -34q174 -38 270 -88q100 -51 147 -123q47 -71 47 -172q0 -140 -69 -246
t-203 -168q-133 -62 -307 -62q-149 0 -275 60zM662 1724l262 213h63l-282 -243h-91l-280 243h63z" />
    <glyph glyph-name="scaron" unicode="&#x161;" horiz-adv-x="1015" 
d="M317 16l-2 -2q-89 40 -147 117q-58 76 -76 178h60q21 -89 73 -153q53 -64 129 -99q71 -32 166 -32q105 0 178 36q76 37 117 99t41 129q0 79 -33 121q-36 45 -98 71q-65 27 -178 51l-96 21q-151 30 -240 92q-88 61 -88 178q0 82 49 146q47 61 135 100q84 37 191 37
q95 0 174 -33q84 -35 141 -98q59 -65 74 -156h-60q-15 77 -61 129q-47 53 -117 80q-76 29 -147 29q-82 0 -156 -27q-71 -26 -119 -80q-45 -51 -45 -123q0 -69 37 -112q39 -45 98 -68q65 -25 158 -43l96 -20q120 -25 191 -58q70 -33 112 -90q39 -53 39 -139q0 -91 -51 -162
q-52 -73 -141 -117q-87 -43 -201 -43q-113 0 -203 41zM496 1286l266 266h59l-286 -301h-82l-285 301h59z" />
    <glyph glyph-name="uni0162" unicode="&#x162;" horiz-adv-x="1243" 
d="M41 1556h1161v-57h-549v-1499h-61v1499h-551v57zM590 -395v239h63v-243l-73 -148h-62z" />
    <glyph glyph-name="uni0163" unicode="&#x163;" horiz-adv-x="696" 
d="M338 1030v-778v-4q0 -101 49 -150t150 -49h127v-49h-129q-126 0 -189 63q-65 65 -65 185v4v778h-261v49h261v256h57v-256h326v-49h-326zM416 -395v239h59v-243l-74 -148h-57z" />
    <glyph glyph-name="Tcaron" unicode="&#x164;" horiz-adv-x="1243" 
d="M41 1556h1161v-57h-549v-1499h-61v1499h-551v57zM623 1724l262 213h63l-282 -243h-91l-280 243h63z" />
    <glyph glyph-name="tcaron" unicode="&#x165;" horiz-adv-x="696" 
d="M338 1030v-778v-4q0 -101 49 -150t150 -49h127v-49h-129q-126 0 -189 63q-65 65 -65 185v4v778h-261v49h261v256h57v-256h326v-49h-326zM487 1188h-45l37 368h58z" />
    <glyph glyph-name="Tbar" unicode="&#x166;" horiz-adv-x="1302" 
d="M1233 1556v-57h-551v-678h420v-53h-420v-768h-61v768h-420v53h420v678h-551v57h1163z" />
    <glyph glyph-name="tbar" unicode="&#x167;" horiz-adv-x="696" 
d="M664 1030h-326v-346h188v-47h-188v-385v-4q0 -101 49 -150t150 -49h127v-49h-129q-126 0 -189 63q-65 65 -65 185v4v385h-193v47h193v346h-261v49h261v256h57v-256h326v-49z" />
    <glyph glyph-name="Utilde" unicode="&#x168;" horiz-adv-x="1595" 
d="M356 143v2q-143 165 -143 478v4v932h61v-934v-4q0 -287 132 -437q131 -149 393 -149q260 0 393 151q131 149 131 437v933h61v-931q0 -312 -143 -480t-442 -168t-443 166zM494 1749l-7 -2q15 60 66 96q50 35 102 35q36 0 74 -10q26 -7 76 -31q67 -33 125 -33q95 0 135 82
h35q-15 -62 -64 -96q-50 -35 -100 -35q-36 0 -74 10q-29 7 -74 31q-75 35 -124 35q-96 0 -136 -82h-34z" />
    <glyph glyph-name="utilde" unicode="&#x169;" horiz-adv-x="1165" 
d="M918 1079h53v-1079h-58v227q-47 -117 -137 -184q-92 -68 -215 -68q-102 0 -190 52q-91 54 -144 149q-55 98 -55 230v4v669h57v-659v-4q0 -120 47 -209t125 -135q80 -47 174 -47q96 0 173 47q75 46 122 135q48 91 48 209v663zM279 1327h-5q15 63 62 98t98 35q35 0 70 -12
q11 -4 80 -35q65 -35 116 -35q47 0 80 23q31 22 49 65h33q-15 -64 -61 -98q-47 -35 -99 -35q-62 0 -145 45q-65 35 -117 35q-92 0 -127 -86h-34z" />
    <glyph glyph-name="Umacron" unicode="&#x16a;" horiz-adv-x="1595" 
d="M356 143v2q-143 165 -143 478v4v932h61v-934v-4q0 -287 132 -437q131 -149 393 -149q260 0 393 151q131 149 131 437v933h61v-931q0 -312 -143 -480t-442 -168t-443 166zM1130 1794h-663v51h663v-51z" />
    <glyph glyph-name="umacron" unicode="&#x16b;" horiz-adv-x="1165" 
d="M918 1079h53v-1079h-58v227q-47 -117 -137 -184q-92 -68 -215 -68q-102 0 -190 52q-91 54 -144 149q-55 98 -55 230v4v669h57v-659v-4q0 -120 47 -209t125 -135q80 -47 174 -47q96 0 173 47q75 46 122 135q48 91 48 209v663zM881 1370h-619v49h619v-49z" />
    <glyph glyph-name="Ubreve" unicode="&#x16c;" horiz-adv-x="1595" 
d="M356 143v2q-143 165 -143 478v4v932h61v-934v-4q0 -287 132 -437q131 -149 393 -149q260 0 393 151q131 149 131 437v933h61v-931q0 -312 -143 -480t-442 -168t-443 166zM655 1720l2 2q-58 34 -88 90t-30 127h51q0 -99 55 -151q56 -53 152 -53q97 0 153 53t56 151h51
q0 -69 -31 -129q-29 -57 -88 -92q-54 -32 -141 -32q-84 0 -142 34z" />
    <glyph glyph-name="ubreve" unicode="&#x16d;" horiz-adv-x="1165" 
d="M918 1079h53v-1079h-58v227q-47 -117 -137 -184q-92 -68 -215 -68q-102 0 -190 52q-91 54 -144 149q-55 98 -55 230v4v669h57v-659v-4q0 -120 47 -209t125 -135q80 -47 174 -47q96 0 173 47q75 46 122 135q48 91 48 209v663zM430 1290l-2 -4q-61 42 -90 111
q-31 73 -31 155h49q0 -76 27 -135q28 -61 76 -90q51 -31 112 -31q64 0 115 31q48 29 76 90q26 56 26 137h50q0 -82 -31 -155q-30 -70 -92 -111q-59 -39 -144 -39q-82 0 -141 41z" />
    <glyph glyph-name="Uring" unicode="&#x16e;" horiz-adv-x="1595" 
d="M356 143v2q-143 165 -143 478v4v932h61v-934v-4q0 -287 132 -437q131 -149 393 -149q260 0 393 151q131 149 131 437v933h61v-931q0 -312 -143 -480t-442 -168t-443 166zM698 1714l-4 -4q-45 26 -73 74q-27 46 -27 102q0 49 29 99q27 46 73 73t99 27q55 0 102 -27
q48 -28 74 -73t26 -99q0 -55 -26 -100q-27 -47 -74 -74q-45 -26 -100 -26q-51 0 -99 28zM868 1751v-2q37 22 56 57q20 36 20 78q0 41 -20 74t-56 55q-35 21 -73 21q-39 0 -74 -21q-34 -21 -55 -55t-21 -74q0 -39 21 -76q20 -36 55 -57q33 -20 74 -20q40 0 73 20z" />
    <glyph glyph-name="uring" unicode="&#x16f;" horiz-adv-x="1165" 
d="M918 1079h53v-1079h-58v227q-47 -117 -137 -184q-92 -68 -215 -68q-102 0 -190 52q-91 54 -144 149q-55 98 -55 230v4v669h57v-659v-4q0 -120 47 -209t125 -135q80 -47 174 -47q96 0 173 47q75 46 122 135q48 91 48 209v663zM485 1274q-40 23 -63 63q-25 42 -25 86t25 86
t63 62q42 22 86 22t86 -22q41 -21 62 -62q22 -42 22 -86t-22 -86q-20 -38 -62 -63t-86 -25t-86 25zM662 1333q36 36 36 90t-36 90q-37 37 -91 37q-53 0 -90 -37t-37 -90t37 -90t90 -37q54 0 91 37z" />
    <glyph glyph-name="Uhungarumlaut" unicode="&#x170;" horiz-adv-x="1595" 
d="M356 143v2q-143 165 -143 478v4v932h61v-934v-4q0 -287 132 -437q131 -149 393 -149q260 0 393 151q131 149 131 437v933h61v-931q0 -312 -143 -480t-442 -168t-443 166zM629 1694h-64l283 243h82zM911 1694h-65l284 243h82z" />
    <glyph glyph-name="uhungarumlaut" unicode="&#x171;" horiz-adv-x="1165" 
d="M918 1079h53v-1079h-58v227q-47 -117 -137 -184q-92 -68 -215 -68q-102 0 -190 52q-91 54 -144 149q-55 98 -55 230v4v669h57v-659v-4q0 -120 47 -209t125 -135q80 -47 174 -47q96 0 173 47q75 46 122 135q48 91 48 209v663zM436 1255h-57l268 301h76zM717 1255h-58
l269 301h78z" />
    <glyph glyph-name="Uogonek" unicode="&#x172;" horiz-adv-x="1595" 
d="M1321 1556l57 -4v-931q0 -201 -57 -338q-60 -145 -178 -220h2q-119 -82 -166 -147t-47 -135q0 -63 43 -100t108 -37h31v-47h-33q-56 0 -100 20q-48 22 -74 61t-26 97q0 120 131 233q-98 -28 -215 -28q-300 0 -443 165t-143 478v4v932h61v-934v-4q0 -288 131 -437
t394 -149q260 0 393 151q131 149 131 437v933z" />
    <glyph glyph-name="uogonek" unicode="&#x173;" horiz-adv-x="1165" 
d="M838 -322h-4q42 -36 108 -36h31v-45h-33q-56 0 -100 20q-48 22 -74 61q-27 41 -27 97q0 72 45 123q46 52 131 98h-2v227q-47 -117 -137 -184q-92 -68 -215 -68q-102 0 -190 52q-91 54 -144 149q-55 98 -55 229v5v669h57v-659v-4q0 -120 47 -209t125 -135q82 -48 174 -48
q94 0 173 48q75 46 122 135q48 91 48 209v663h57v-1079h2q-97 -57 -139 -105q-43 -49 -43 -112q0 -64 43 -101z" />
    <glyph glyph-name="Wcircumflex" unicode="&#x174;" horiz-adv-x="2279" 
d="M600 0h-65l-496 1556h65zM700 0h-65l422 1556h65zM1645 0h-66l-422 1556h66zM1745 0h-66l496 1556h66zM1186 1937l282 -243h-63l-262 213l-264 -213h-64l281 243h90z" />
    <glyph glyph-name="wcircumflex" unicode="&#x175;" horiz-adv-x="1787" 
d="M475 0h-59l-369 1079h57zM567 0h-57l307 1079h60zM1278 0h-59l-308 1079h58zM1372 0h-59l368 1079h60zM934 1556l287 -301h-60l-266 269l-268 -269h-60l285 301h82z" />
    <glyph glyph-name="Ycircumflex" unicode="&#x176;" horiz-adv-x="1312" 
d="M1231 1556h72l-615 -854v-702h-63v702l-615 854h72l575 -796zM702 1937l283 -243h-63l-263 213l-264 -213h-63l280 243h90z" />
    <glyph glyph-name="ycircumflex" unicode="&#x177;" horiz-adv-x="1103" 
d="M559 111h-61l-471 968h61zM444 -401h-61l625 1480h61zM590 1556l287 -301h-60l-266 269l-268 -269h-60l285 301h82z" />
    <glyph glyph-name="Ydieresis" unicode="&#x178;" horiz-adv-x="1312" 
d="M1231 1556h72l-615 -854v-702h-63v702l-615 854h72l575 -796zM524 1694h-63v243h63v-243zM850 1694h-64v243h64v-243z" />
    <glyph glyph-name="Zacute" unicode="&#x179;" horiz-adv-x="1333" 
d="M1245 1473l-1116 -1416h1153v-57h-1212v84l1118 1415h-1106v57h1163v-83zM655 1694h-63l268 243h80z" />
    <glyph glyph-name="zacute" unicode="&#x17a;" horiz-adv-x="978" 
d="M881 1004l-758 -955h803v-49h-852v76l753 954h-735v49h789v-75zM479 1255h-57l258 301h76z" />
    <glyph glyph-name="Zdotaccent" unicode="&#x17b;" horiz-adv-x="1333" 
d="M1245 1473l-1116 -1416h1153v-57h-1212v84l1118 1415h-1106v57h1163v-83zM696 1694h-63v243h63v-243z" />
    <glyph glyph-name="zdotaccent" unicode="&#x17c;" horiz-adv-x="978" 
d="M881 1004l-758 -955h803v-49h-852v76l753 954h-735v49h789v-75zM514 1311h-59v245h59v-245z" />
    <glyph glyph-name="Zcaron" unicode="&#x17d;" horiz-adv-x="1333" 
d="M1245 1473l-1116 -1416h1153v-57h-1212v84l1118 1415h-1106v57h1163v-83zM666 1724l262 213h63l-282 -243h-91l-280 243h63z" />
    <glyph glyph-name="zcaron" unicode="&#x17e;" horiz-adv-x="978" 
d="M881 1004l-758 -955h803v-49h-852v76l753 954h-735v49h789v-75zM485 1290l267 266h59l-287 -301h-82l-284 301h59z" />
    <glyph glyph-name="uni018F" unicode="&#x18f;" horiz-adv-x="1681" 
d="M1188 1483l-2 -4q164 -93 264 -277q98 -180 98 -430q0 -238 -96 -422q-94 -181 -258 -280t-360 -99q-200 0 -365 103q-166 104 -256 282q-92 182 -92 412v35h1368q-6 218 -94 381q-89 164 -240 250t-338 86q-228 0 -381 -111q-155 -113 -219 -313h-63q46 156 141 264
q92 105 227 162q131 55 293 55q207 0 373 -94zM1165 121h-6q148 92 234 256q87 166 90 368h-1305v-8q9 -197 92 -362q81 -161 228 -254q145 -92 336 -92q183 0 331 92z" />
    <glyph glyph-name="florin" unicode="&#x192;" horiz-adv-x="1146" 
d="M911 1503l-2 -2q-106 0 -161 -49t-70 -162l-62 -405h392v-54h-400l-86 -581q-38 -252 -284 -252h-170v53h161q107 0 162 49q57 51 72 162l86 569h-375v54h381l63 418q18 129 93 192q73 61 192 61h172v-53h-164z" />
    <glyph glyph-name="uni019D" unicode="&#x19d;" horiz-adv-x="1691" 
d="M295 0h-64v1556h64v-1556zM1364 0h-70l-964 1556h69zM1460 0h-61v1556h61v-1556zM-129 -401l-4 59h106q85 0 140 18t86 66q30 46 30 129v129h62v-133q0 -145 -80 -207q-79 -61 -229 -61h-111z" />
    <glyph glyph-name="uni01B5" unicode="&#x1b5;" horiz-adv-x="1380" 
d="M717 776l-567 -719h1155v-57h-1213v84l547 692h-483v51h522l530 672h-1104v57h1164v-83l-510 -646h479v-51h-520z" />
    <glyph glyph-name="uni01B6" unicode="&#x1b6;" horiz-adv-x="1007" 
d="M528 543l-391 -494h801v-49h-850v76l369 467h-312v49h351l346 438h-738v49h789v-75l-326 -412h316v-49h-355z" />
    <glyph glyph-name="uni01E2" unicode="&#x1e2;" horiz-adv-x="2027" 
d="M1145 778l297 -721h467v-57h-512l-221 539h-871l-221 -539h-68l641 1556h66l-395 -960h825l-395 960h1132v-57h-1042l274 -663h754v-58h-731zM1530 1794h-664v51h664v-51z" />
    <glyph glyph-name="uni01E3" unicode="&#x1e3;" horiz-adv-x="2002" 
d="M1896 532l-929 -10q3 -155 61 -268q59 -114 158 -176q100 -62 225 -62q153 0 254 76q99 74 143 215h62q-47 -167 -166 -252q-121 -86 -289 -86q-115 0 -211 45q-98 46 -166 129q-70 85 -96 193q-23 -94 -84 -180q-60 -84 -153 -136q-92 -51 -226 -51q-104 0 -184 41
q-78 40 -125 111q-45 68 -45 160q0 119 68 184q70 67 178 90q116 25 268 25h276v102v4q0 99 -36 178q-37 82 -117 135q-82 54 -199 54q-111 0 -186 -37q-77 -38 -117 -98q-39 -59 -45 -134h-61q9 89 59 160t139 115q87 43 213 43t209 -45q84 -46 131 -117q47 -72 62 -149
q36 95 98 163q64 70 154 111q85 39 190 39q134 0 246 -68t176 -190q65 -124 65 -285v-29zM1182 983h-4q-95 -59 -150 -166t-61 -246h860q-3 129 -60 240q-57 110 -153 170q-98 61 -217 61q-120 0 -215 -59zM903 522l-266 -6q-150 0 -252 -18q-101 -18 -160 -74t-59 -156
q0 -73 37 -131t104 -92q65 -33 164 -33q129 0 229 62q98 61 150 168q53 109 53 245v35zM1292 1354h-618v49h618v-49z" />
    <glyph glyph-name="Gcaron" unicode="&#x1e6;" horiz-adv-x="1677" 
d="M795 780l706 -16v-780h-59v462q-26 -117 -105 -231q-78 -113 -204 -182q-132 -72 -306 -72q-199 0 -358 102q-162 104 -252 285q-92 186 -92 416t92 416q89 179 252 284q161 103 354 103q170 0 301 -64q136 -67 222 -174q88 -111 135 -252h-66q-71 200 -221 320
q-149 119 -371 119q-171 0 -319 -97q-145 -95 -230 -264q-86 -170 -86 -381q0 -209 86 -383q84 -170 234 -266q146 -94 326 -94q174 0 311 82q140 84 219 239q80 157 80 369v2h-649v57zM821 1708l262 213h64l-283 -244h-90l-280 244h63z" />
    <glyph glyph-name="gcaron" unicode="&#x1e7;" horiz-adv-x="1298" 
d="M1055 1079l55 -2v-1120q0 -118 -61 -203q-63 -88 -168 -133t-242 -45q-132 0 -236 43q-103 43 -165 123t-68 188h59q9 -101 68 -172q58 -70 149 -104q88 -33 201 -33q120 0 213 41q94 42 146 117q53 77 53 178v371q-27 -91 -92 -168q-63 -75 -156 -119q-90 -43 -203 -43
q-142 0 -254 68q-110 67 -172 194q-61 125 -61 293q0 166 61 291q61 124 172 192q112 68 252 68q116 0 205 -45q93 -47 154 -123q64 -79 90 -168v311zM844 109q97 63 153 178t56 264t-56 264q-56 116 -153 176q-100 62 -232 62q-131 0 -231 -62q-99 -62 -152 -176
q-53 -115 -53 -264t53 -264q52 -113 152 -178q98 -64 231 -64q134 0 232 64zM610 1288l267 266h59l-287 -301h-82l-284 301h59z" />
    <glyph glyph-name="uni01EA" unicode="&#x1ea;" horiz-adv-x="1697" 
d="M1036 -80v-6q-47 -65 -47 -135q0 -64 43 -101q42 -36 109 -36h30v-48h-32q-55 0 -101 21t-73 61t-27 97q0 122 137 235q-103 -33 -221 -33q-208 0 -373 103q-166 104 -256 282q-92 182 -92 416t92 416q91 180 256 283q164 102 373 102t369 -100q165 -103 256 -283
q92 -182 92 -416q0 -167 -45 -301t-129 -241q-80 -102 -197 -168q-117 -82 -164 -148zM276 387v-4q85 -169 236 -264q149 -94 338 -94q186 0 338 96q149 94 235 264t86 385t-86 385t-235 264q-154 97 -338 97q-187 0 -338 -95t-236 -264q-86 -170 -86 -385t86 -385z" />
    <glyph glyph-name="uni01EB" unicode="&#x1eb;" horiz-adv-x="1222" 
d="M1055 262l-6 -2q-57 -125 -156 -197q-82 -64 -125 -110t-61 -86q-19 -43 -19 -90q0 -64 43 -101q42 -36 109 -36h30v-46h-32q-84 0 -144 48q-57 45 -57 129q0 65 33 118q34 55 104 113q-70 -27 -164 -27q-142 0 -258 72q-114 70 -178 199q-63 126 -63 295t63 295
q64 127 178 198q113 70 258 70t258 -70q116 -72 179 -198t63 -295q0 -157 -55 -279zM836 88l-2 -2q96 63 153 182q55 116 55 267q0 150 -55 266q-57 119 -153 182q-101 66 -230 66t-233 -66q-101 -64 -156 -180t-55 -266q0 -151 55 -267q56 -119 156 -182q103 -65 233 -65
q132 0 232 65z" />
    <glyph glyph-name="AEacute" unicode="&#x1fc;" horiz-adv-x="2027" 
d="M1145 778l297 -721h467v-57h-512l-221 539h-871l-221 -539h-68l641 1556h66l-395 -960h825l-395 960h1132v-57h-1042l274 -663h754v-58h-731zM1188 1694h-64l269 243h80z" />
    <glyph glyph-name="aeacute" unicode="&#x1fd;" horiz-adv-x="2002" 
d="M1896 532l-929 -10q3 -155 61 -268q59 -114 158 -176q100 -62 225 -62q153 0 254 76q99 74 143 215h62q-47 -167 -166 -252q-121 -86 -289 -86q-115 0 -211 45q-98 46 -166 129q-70 85 -96 193q-23 -94 -84 -180q-60 -84 -153 -136q-92 -51 -226 -51q-104 0 -184 41
q-78 40 -125 111q-45 68 -45 160q0 119 68 184q70 67 178 90q116 25 268 25h276v102v4q0 99 -36 178q-37 82 -117 135q-82 54 -199 54q-111 0 -186 -37q-77 -38 -117 -98q-39 -59 -45 -134h-61q9 89 59 160t139 115q87 43 213 43t209 -45q84 -46 131 -117q47 -72 62 -149
q36 95 98 163q64 70 154 111q85 39 190 39q134 0 246 -68t176 -190q65 -124 65 -285v-29zM1182 983h-4q-95 -59 -150 -166t-61 -246h860q-3 129 -60 240q-57 110 -153 170q-98 61 -217 61q-120 0 -215 -59zM903 522l-266 -6q-150 0 -252 -18q-101 -18 -160 -74t-59 -156
q0 -73 37 -131t104 -92q65 -33 164 -33q129 0 229 62q98 61 150 168q53 109 53 245v35zM979 1239h-57l258 301h75z" />
    <glyph glyph-name="Oslashacute" unicode="&#x1fe;" horiz-adv-x="1697" 
d="M1632 1556l-229 -245q81 -103 125 -240q43 -133 43 -295q0 -234 -92 -416q-90 -178 -256 -282q-162 -101 -369 -101q-156 0 -289 56q-128 54 -229 164l-186 -197h-82l229 242q-81 104 -125 239q-43 133 -43 295q0 234 92 416q91 180 256 283q163 102 373 102
q154 0 285 -55t229 -162l186 196h82zM231 506v-2q41 -127 111 -221l977 1026q-85 97 -209 155q-121 56 -258 56q-187 0 -338 -95q-149 -94 -235 -264t-86 -385q0 -152 38 -270zM1468 1040h-2q-42 131 -110 222l-979 -1026q86 -99 209 -156q119 -55 262 -55q186 0 338 96
q149 94 235 264t86 385q0 149 -39 270zM838 1688h-64l268 243h80z" />
    <glyph glyph-name="oslashacute" unicode="&#x1ff;" horiz-adv-x="1222" 
d="M1153 1079l-154 -172q57 -73 84 -166q29 -101 29 -204q0 -169 -63 -295q-64 -128 -179 -199q-113 -70 -258 -70q-107 0 -194 37q-90 38 -158 109l-119 -125h-71l155 166q-57 75 -84 170q-28 98 -28 207q0 168 63 294q64 129 178 199q113 70 258 70q108 0 195 -37
q90 -38 158 -109l116 125h72zM197 352v-2q26 -88 69 -151l664 708q-61 67 -137 103q-78 37 -177 37q-129 0 -233 -66q-101 -64 -156 -180t-55 -266q0 -97 25 -183zM1028 715v4q-24 84 -70 147l-661 -706q58 -67 139 -105q78 -37 176 -37q131 0 232 66q96 63 153 182
q56 118 56 266q0 97 -25 183zM606 1251h-57l258 301h76z" />
    <glyph glyph-name="uni0218" unicode="&#x218;" horiz-adv-x="1374" 
d="M403 37h-8q-123 58 -202 166q-80 109 -101 246h66q15 -125 90 -222q74 -95 184 -147q108 -51 240 -51q156 0 274 53q116 52 178 147t62 215q0 96 -47 158q-46 61 -146 105q-92 41 -266 79l-164 35q-126 28 -215 70q-92 43 -147 117q-56 74 -56 186q0 104 66 195
q65 89 184 141q121 53 271 53q145 0 264 -49t196 -141t95 -222h-64q-18 111 -86 191t-172 123t-233 43q-132 0 -236 -43t-162 -119q-57 -75 -57 -172q0 -96 45 -156t135 -98q76 -32 240 -70l162 -34q174 -38 270 -88q100 -51 147 -123q47 -71 47 -172q0 -140 -69 -246
t-203 -168q-133 -62 -307 -62q-149 0 -275 60zM659 -395v239h64v-243l-74 -148h-61z" />
    <glyph glyph-name="uni0219" unicode="&#x219;" horiz-adv-x="1015" 
d="M317 16l-2 -2q-89 40 -147 117q-58 76 -76 178h60q21 -89 73 -153q53 -64 129 -99q71 -32 166 -32q105 0 178 36q76 37 117 99t41 129q0 79 -33 121q-36 45 -98 71q-65 27 -178 51l-96 21q-151 30 -240 92q-88 61 -88 178q0 82 49 146q47 61 135 100q84 37 191 37
q95 0 174 -33q84 -35 141 -98q59 -65 74 -156h-60q-15 77 -61 129q-47 53 -117 80q-76 29 -147 29q-82 0 -156 -27q-71 -26 -119 -80q-45 -51 -45 -123q0 -69 37 -112q39 -45 98 -68q65 -25 158 -43l96 -20q120 -25 191 -58q70 -33 112 -90q39 -53 39 -139q0 -91 -51 -162
q-52 -73 -141 -117q-87 -43 -201 -43q-113 0 -203 41zM494 -399v239h59v-243l-74 -148h-57z" />
    <glyph glyph-name="uni021A" unicode="&#x21a;" horiz-adv-x="1243" 
d="M41 1556h1161v-57h-549v-1499h-61v1499h-551v57zM590 -395v239h63v-243l-73 -148h-62z" />
    <glyph glyph-name="uni021B" unicode="&#x21b;" horiz-adv-x="696" 
d="M338 1030v-778v-4q0 -101 49 -150t150 -49h127v-49h-129q-126 0 -189 63q-65 65 -65 185v4v778h-261v49h261v256h57v-256h326v-49h-326zM416 -395v239h59v-243l-74 -148h-57z" />
    <glyph glyph-name="uni022E" unicode="&#x22e;" horiz-adv-x="1697" 
d="M477 78v-4q-166 104 -256 282q-92 182 -92 416t92 416q90 178 256 282q165 103 373 103q209 0 369 -100q165 -103 256 -283q92 -182 92 -416t-92 -416q-90 -178 -256 -282q-162 -101 -369 -101q-208 0 -373 103zM1186 123v-4q149 94 235 264t86 385t-86 385t-235 264
q-152 96 -338 96q-189 0 -338 -94q-151 -95 -236 -264q-86 -170 -86 -385t86 -385q85 -169 236 -264q149 -94 338 -94q186 0 338 96zM879 1683h-64v244h64v-244z" />
    <glyph glyph-name="uni022F" unicode="&#x22f;" horiz-adv-x="1222" 
d="M352 47v-2q-114 70 -178 199q-63 126 -63 295t63 295q64 127 178 198q113 70 258 70t258 -70q116 -72 179 -198t63 -295t-63 -295q-64 -128 -179 -199q-113 -70 -258 -70q-142 0 -258 72zM842 88l-2 -2q96 63 153 182q56 118 56 267q0 148 -56 266q-57 119 -153 182
q-101 66 -230 66t-233 -66q-101 -64 -156 -180t-55 -266q0 -151 55 -267q56 -119 156 -182q103 -65 233 -65q132 0 232 65zM637 1305h-59v245h59v-245z" />
    <glyph glyph-name="uni0232" unicode="&#x232;" horiz-adv-x="1312" 
d="M1231 1556h72l-615 -854v-702h-63v702l-615 854h72l575 -796zM987 1794h-663v51h663v-51z" />
    <glyph glyph-name="uni0233" unicode="&#x233;" horiz-adv-x="1103" 
d="M559 111h-61l-471 968h61zM444 -401h-61l625 1480h61zM858 1370h-618v49h618v-49z" />
    <glyph glyph-name="uni0237" unicode="&#x237;" horiz-adv-x="438" 
d="M-51 -401v47h43q100 0 149 49t49 153v1229h58v-1229q0 -120 -66 -186q-63 -63 -188 -63h-45z" />
    <glyph glyph-name="uni0259" unicode="&#x259;" horiz-adv-x="1198" 
d="M840 1034l8 -4q114 -67 178 -196q66 -132 66 -302q0 -169 -64 -294q-65 -126 -176 -197q-110 -70 -248 -70q-131 0 -246 68q-114 67 -178 190q-65 124 -65 285v14v17h919q-3 155 -61 268q-59 115 -160 176q-103 62 -227 62q-151 0 -254 -74q-99 -72 -144 -213h-59
q47 167 166 252q121 86 289 86q141 0 256 -68zM819 82v-4q99 64 152 168q55 107 61 246h-860v-3q3 -130 59 -239q55 -106 154 -168q100 -62 219 -62q120 0 215 62z" />
    <glyph glyph-name="uni0272" unicode="&#x272;" horiz-adv-x="1175" 
d="M803 1051h-6q91 -54 145 -150q55 -98 55 -227v-4v-672h-57v659v5q0 122 -45 208q-48 91 -125 136q-80 47 -178 47q-101 0 -178 -45t-125 -136q-45 -86 -45 -208v-664h-58v1079h58v-229q46 116 141 184t221 68q111 0 197 -51zM-57 -401v47h43q100 0 149 49t49 153v150h58
v-150q0 -120 -66 -186q-63 -63 -188 -63h-45z" />
    <glyph glyph-name="circumflex" unicode="&#x2c6;" horiz-adv-x="784" 
d="M432 1556l287 -301h-60l-266 269l-268 -269h-59l284 301h82z" />
    <glyph glyph-name="caron" unicode="&#x2c7;" horiz-adv-x="784" 
d="M393 1290l266 266h60l-287 -301h-82l-284 301h59z" />
    <glyph glyph-name="breve" unicode="&#x2d8;" horiz-adv-x="661" 
d="M188 1290l-2 -4q-61 42 -90 111q-30 71 -30 155h49q0 -79 26 -135q28 -61 76 -90q51 -31 113 -31q63 0 114 31q48 29 76 90q27 59 27 137h49q0 -82 -31 -155q-30 -70 -92 -111q-59 -39 -143 -39q-83 0 -142 41z" />
    <glyph glyph-name="dotaccent" unicode="&#x2d9;" horiz-adv-x="190" 
d="M125 1311h-59v245h59v-245z" />
    <glyph glyph-name="ring" unicode="&#x2da;" horiz-adv-x="477" 
d="M152 1274q-41 24 -64 63q-25 42 -25 86t25 86t64 62q42 22 86 22t86 -22q39 -20 61 -62q23 -44 23 -86t-23 -86q-20 -39 -61 -63q-42 -25 -86 -25t-86 25zM328 1333q37 37 37 90t-37 90t-90 37q-54 0 -91 -37q-36 -36 -36 -90t36 -90q37 -37 91 -37q53 0 90 37z" />
    <glyph glyph-name="ogonek" unicode="&#x2db;" horiz-adv-x="364" 
d="M266 -401q-56 0 -100 20q-47 21 -74 62q-26 39 -26 96q0 72 45 123q46 52 131 98h57q-98 -58 -139 -104q-43 -49 -43 -113q0 -63 43 -100t108 -37h31v-45h-33z" />
    <glyph glyph-name="tilde" unicode="&#x2dc;" horiz-adv-x="714" 
d="M66 1327h-5q15 63 62 98t98 35q35 0 70 -12q11 -4 80 -35q65 -35 116 -35q47 0 80 23q31 22 49 65h33q-15 -64 -61 -98q-47 -35 -99 -35q-62 0 -145 45q-65 35 -117 35q-92 0 -127 -86h-34z" />
    <glyph glyph-name="hungarumlaut" unicode="&#x2dd;" horiz-adv-x="757" 
d="M123 1255h-57l268 301h76zM403 1255h-57l268 301h78z" />
    <glyph glyph-name="gravecomb" unicode="&#x300;" horiz-adv-x="0" 
d="M-66 1255h-57l-276 301h75z" />
    <glyph glyph-name="acutecomb" unicode="&#x301;" horiz-adv-x="0" 
d="M-342 1255h-57l258 301h75z" />
    <glyph glyph-name="uni0302" unicode="&#x302;" horiz-adv-x="0" 
d="M-352 1556l286 -301h-59l-266 269l-268 -269h-60l285 301h82z" />
    <glyph glyph-name="tildecomb" unicode="&#x303;" horiz-adv-x="0" 
d="M-649 1327h-4q15 64 61 98q47 35 98 35q36 0 70 -12q11 -4 80 -35q65 -35 117 -35q47 0 80 23q31 22 49 65h32q-15 -64 -61 -98q-47 -35 -98 -35q-63 0 -146 45q-65 35 -116 35q-92 0 -127 -86h-35z" />
    <glyph glyph-name="uni0304" unicode="&#x304;" horiz-adv-x="0" 
d="M-66 1370h-618v49h618v-49z" />
    <glyph glyph-name="uni0306" unicode="&#x306;" horiz-adv-x="0" 
d="M-473 1290l-2 -4q-61 42 -90 111q-31 73 -31 155h49q0 -76 27 -135q28 -61 76 -90q51 -31 112 -31q64 0 115 31q48 29 76 90q26 56 26 137h49q0 -84 -30 -155q-30 -70 -92 -111q-59 -39 -144 -39q-82 0 -141 41z" />
    <glyph glyph-name="uni0307" unicode="&#x307;" horiz-adv-x="0" 
d="M-66 1311h-59v245h59v-245z" />
    <glyph glyph-name="uni0308" unicode="&#x308;" horiz-adv-x="0" 
d="M-395 1311h-60v245h60v-245zM-66 1311h-59v245h59v-245z" />
    <glyph glyph-name="uni030A" unicode="&#x30a;" horiz-adv-x="0" 
d="M-326 1274q-40 23 -63 63q-25 42 -25 86t25 86t63 62q42 22 86 22t86 -22q41 -21 62 -62q22 -42 22 -86t-22 -86q-20 -38 -62 -63t-86 -25t-86 25zM-150 1333q37 37 37 90t-37 90t-90 37t-90 -37t-37 -90t37 -90t90 -37t90 37z" />
    <glyph glyph-name="uni030B" unicode="&#x30b;" horiz-adv-x="0" 
d="M-635 1255h-57l268 301h76zM-354 1255h-58l269 301h77z" />
    <glyph glyph-name="uni030C" unicode="&#x30c;" horiz-adv-x="0" 
d="M-391 1290l266 266h59l-286 -301h-82l-285 301h60z" />
    <glyph glyph-name="uni0312" unicode="&#x312;" horiz-adv-x="0" 
d="M-51 1702h57l-72 -152v-239h-59v243z" />
    <glyph glyph-name="dotbelowcomb" unicode="&#x323;" horiz-adv-x="0" 
d="M-66 -401h-59v245h59v-245z" />
    <glyph glyph-name="uni0326" unicode="&#x326;" horiz-adv-x="0" 
d="M-125 -395v239h59v-243l-73 -148h-58z" />
    <glyph glyph-name="uni0327" unicode="&#x327;" horiz-adv-x="0" 
d="M-229 -98v-4q44 -3 82 -21q39 -19 59 -51q22 -36 22 -76q0 -67 -49 -110t-123 -43h-61v43h57q57 0 95 30q36 29 36 82q0 51 -36 80q-39 31 -86 31h-41v137h45v-98z" />
    <glyph glyph-name="uni0328" unicode="&#x328;" horiz-adv-x="0" 
d="M-98 -401q-57 0 -101 20q-45 20 -73 62q-27 41 -27 96q0 72 45 123q46 52 131 98h57q-98 -58 -139 -104q-43 -49 -43 -113q0 -63 43 -100t109 -37h30v-45h-32z" />
    <glyph glyph-name="uni0335" unicode="&#x335;" horiz-adv-x="0" 
d="M-709 1311h-438v47h438v-47z" />
    <glyph glyph-name="uni0336" unicode="&#x336;" horiz-adv-x="0" 
d="M-66 1163h-1595v54h1595v-54z" />
    <glyph glyph-name="uni0337" unicode="&#x337;" horiz-adv-x="0" 
d="M-66 897l-415 -274v59l415 272v-57z" />
    <glyph glyph-name="uni0338" unicode="&#x338;" horiz-adv-x="0" 
d="M-1077 0h-72l1012 1079h71z" />
    <glyph glyph-name="uni0394" unicode="&#x394;" horiz-adv-x="1480" 
d="M758 1556h67l639 -1556h-1448l641 1556h66l-614 -1499h1265z" />
    <glyph glyph-name="uni03A9" unicode="&#x3a9;" horiz-adv-x="1714" 
d="M1520 561h-9q-63 -138 -180 -258q-120 -123 -303 -248h543v-57h-598v84q177 120 297 240q118 118 178 247q61 131 61 283q0 216 -92 367q-91 150 -243 227q-149 76 -322 76q-175 0 -324 -76q-152 -77 -243 -227q-92 -151 -92 -369q0 -152 61 -283t178 -248t297 -239v-84
h-598v57h545q-183 125 -303 248q-117 120 -180 258q-62 136 -62 293q0 233 100 393q103 165 267 246q170 84 360 84q191 0 361 -84q164 -81 264 -246q98 -162 98 -393q0 -157 -61 -291z" />
    <glyph glyph-name="uni03BC" unicode="&#x3bc;" horiz-adv-x="1230" 
d="M1196 49l-6 -57h-90q-80 0 -123 43q-44 44 -47 119v71q-43 -116 -135 -184t-215 -68q-101 0 -193 56q-91 55 -141 151v-583h-58v1480h58v-659v-4q0 -120 47 -209t125 -135q80 -47 174 -47q95 0 172 47q76 46 123 135t47 209v663h57v-905v-4q0 -57 31 -88t88 -31h86z" />
    <glyph glyph-name="pi" unicode="&#x3c0;" horiz-adv-x="1253" 
d="M952 1030v-778v-4q0 -101 49 -150t150 -49h27v-49h-29q-120 0 -186 63q-68 65 -68 185v4v778h-582v-1030h-57v1030h-225v49h1147v-49h-226z" />
    <glyph glyph-name="uni0E3F" unicode="&#xe3f;" horiz-adv-x="1355" 
d="M1167 201l-4 -4q-62 -92 -178 -144q-113 -51 -287 -57v-268h-57v268h-405v1556h405v258h57v-260q145 -6 252 -55q106 -49 166 -133q58 -82 58 -195q0 -158 -111 -249q-115 -95 -285 -115q137 -6 238 -55q102 -49 158 -136q55 -85 55 -196q0 -123 -62 -215zM293 827h346
v670h-346v-670zM1055 1331q-50 71 -142 115q-90 43 -217 49v-666q124 6 217 50q94 45 142 116q49 73 49 170q0 96 -49 166zM291 774v-727h346v727h-346zM694 49l-4 -2q228 9 350 105q119 94 119 258t-119 258q-121 95 -346 104v-723z" />
    <glyph glyph-name="Wgrave" unicode="&#x1e80;" horiz-adv-x="2279" 
d="M600 0h-65l-496 1556h65zM700 0h-65l422 1556h65zM1645 0h-66l-422 1556h66zM1745 0h-66l496 1556h66zM1161 1694h-61l-287 243h82z" />
    <glyph glyph-name="wgrave" unicode="&#x1e81;" horiz-adv-x="1787" 
d="M475 0h-59l-369 1079h57zM567 0h-57l307 1079h60zM1278 0h-59l-308 1079h58zM1372 0h-59l368 1079h60zM909 1255h-57l-277 301h76z" />
    <glyph glyph-name="Wacute" unicode="&#x1e82;" horiz-adv-x="2279" 
d="M600 0h-65l-496 1556h65zM700 0h-65l422 1556h65zM1645 0h-66l-422 1556h66zM1745 0h-66l496 1556h66zM1182 1694h-64l268 243h80z" />
    <glyph glyph-name="wacute" unicode="&#x1e83;" horiz-adv-x="1787" 
d="M475 0h-59l-369 1079h57zM567 0h-57l307 1079h60zM1278 0h-59l-308 1079h58zM1372 0h-59l368 1079h60zM934 1255h-57l258 301h75z" />
    <glyph glyph-name="Wdieresis" unicode="&#x1e84;" horiz-adv-x="2279" 
d="M600 0h-65l-496 1556h65zM700 0h-65l422 1556h65zM1645 0h-66l-422 1556h66zM1745 0h-66l496 1556h66zM1008 1694h-64v243h64v-243zM1333 1694h-63v243h63v-243z" />
    <glyph glyph-name="wdieresis" unicode="&#x1e85;" horiz-adv-x="1787" 
d="M475 0h-59l-369 1079h57zM567 0h-57l307 1079h60zM1278 0h-59l-308 1079h58zM1372 0h-59l368 1079h60zM758 1311h-60v245h60v-245zM1087 1311h-59v245h59v-245z" />
    <glyph glyph-name="uni1E9E" unicode="&#x1e9e;" horiz-adv-x="1531" 
d="M813 969l2 -8q186 0 326 -58q143 -59 221 -168q80 -112 80 -266q0 -133 -62 -248q-61 -112 -178 -180q-118 -68 -276 -68q-78 0 -148 13q-53 10 -141 34v60q87 -27 137 -37q62 -12 144 -12q141 0 245 61t160 164q55 101 55 219q0 147 -75 244t-205 147q-128 49 -293 49
h-49v74l424 510h-885v-1499h-64v1556h1006v-77z" />
    <glyph glyph-name="uni1EA0" unicode="&#x1ea0;" horiz-adv-x="1480" 
d="M1464 0h-67l-221 539h-871l-221 -539h-68l641 1556h66l-395 -960h825l-395 960h67zM772 -401h-63v243h63v-243z" />
    <glyph glyph-name="uni1EA1" unicode="&#x1ea1;" horiz-adv-x="1148" 
d="M797 1044l2 -4q91 -55 135 -145q43 -87 43 -184v-4v-711h-57v258q-50 -127 -154 -203q-107 -78 -266 -78q-108 0 -193 43q-86 44 -135 119q-49 76 -49 172q0 112 67 176q68 65 170 92q108 29 240 43l315 39v25v4q0 99 -36 178q-37 82 -117 135q-79 52 -199 52
q-111 0 -186 -37q-77 -38 -117 -99q-39 -59 -45 -133h-61q9 89 59 160t139 115q87 43 213 43q140 0 232 -56zM731 76v-4q95 60 139 155q48 102 48 224v151l-265 -33q-152 -17 -252 -43q-92 -23 -155 -77q-62 -53 -62 -148q0 -85 43 -149t117 -99q75 -35 162 -35
q134 0 225 58zM602 -412h-59v246h59v-246z" />
    <glyph glyph-name="uni1EB8" unicode="&#x1eb8;" horiz-adv-x="1310" 
d="M295 778v-721h897v-57h-961v1556h943v-57h-879v-663h864v-58h-864zM743 -401h-63v243h63v-243z" />
    <glyph glyph-name="uni1EB9" unicode="&#x1eb9;" horiz-adv-x="1198" 
d="M1090 532l-924 3q3 -156 61 -269q59 -114 158 -176q98 -61 225 -61q154 0 252 73q99 73 146 213h59q-47 -167 -166 -252q-121 -86 -289 -86q-141 0 -256 68q-113 67 -178 197t-65 301q0 168 65 295q64 125 176 196q110 70 250 70q134 0 246 -68t176 -190q66 -126 66 -285
zM381 995l-2 -2q-95 -59 -150 -166t-61 -245h858v2q-3 130 -59 239t-154 170q-100 62 -217 62q-118 0 -215 -60zM637 -401h-59v245h59v-245z" />
    <glyph glyph-name="uni1EBC" unicode="&#x1ebc;" horiz-adv-x="1310" 
d="M295 778v-721h897v-57h-961v1556h943v-57h-879v-663h864v-58h-864zM399 1749l-6 -2q15 60 66 96q50 35 102 35q36 0 74 -10q26 -7 76 -31q67 -33 125 -33q95 0 135 82h35q-15 -62 -64 -96q-50 -35 -100 -35q-36 0 -74 10q-29 7 -74 31q-75 35 -125 35q-95 0 -135 -82h-35
z" />
    <glyph glyph-name="uni1EBD" unicode="&#x1ebd;" horiz-adv-x="1198" 
d="M1090 532l-924 3q3 -156 61 -269q59 -114 158 -176q98 -61 225 -61q154 0 252 73q99 73 146 213h59q-47 -167 -166 -252q-121 -86 -289 -86q-141 0 -256 68q-113 67 -178 197t-65 301q0 168 65 295q64 125 176 196q110 70 250 70q134 0 246 -68t176 -190q66 -126 66 -285
zM381 995l-2 -2q-95 -59 -150 -166t-61 -245h858v2q-3 130 -59 239t-154 170q-100 62 -217 62q-118 0 -215 -60zM301 1327h-4q15 64 61 98q47 35 99 35q35 0 69 -12q11 -4 80 -35q65 -35 117 -35q47 0 80 23q31 22 49 65h33q-15 -63 -62 -98t-98 -35q-62 0 -145 45
q-65 35 -117 35q-92 0 -127 -86h-35z" />
    <glyph glyph-name="uni1ECA" unicode="&#x1eca;" horiz-adv-x="526" 
d="M295 0h-64v1556h64v-1556zM295 -401h-64v243h64v-243z" />
    <glyph glyph-name="uni1ECB" unicode="&#x1ecb;" horiz-adv-x="438" 
d="M248 0h-58v1079h58v-1079zM248 1311h-60v245h60v-245zM248 -401h-60v245h60v-245z" />
    <glyph glyph-name="uni1ECC" unicode="&#x1ecc;" horiz-adv-x="1697" 
d="M477 78v-4q-166 104 -256 282q-92 182 -92 416t92 416q90 178 256 282q165 103 373 103q209 0 369 -100q165 -103 256 -283q92 -182 92 -416t-92 -416q-90 -178 -256 -282q-162 -101 -369 -101q-208 0 -373 103zM1186 123v-4q149 94 235 264t86 385t-86 385t-235 264
q-152 96 -338 96q-189 0 -338 -94q-151 -95 -236 -264q-86 -170 -86 -385t86 -385q85 -169 236 -264q149 -94 338 -94q186 0 338 96zM879 -412h-64v244h64v-244z" />
    <glyph glyph-name="uni1ECD" unicode="&#x1ecd;" horiz-adv-x="1222" 
d="M352 47v-2q-114 70 -178 199q-63 126 -63 295t63 295q64 127 178 198q113 70 258 70t258 -70q116 -72 179 -198t63 -295t-63 -295q-64 -128 -179 -199q-113 -70 -258 -70q-142 0 -258 72zM842 88l-2 -2q96 63 153 182q56 118 56 267q0 148 -56 266q-57 119 -153 182
q-101 66 -230 66t-233 -66q-101 -64 -156 -180t-55 -266q0 -151 55 -267q56 -119 156 -182q103 -65 233 -65q132 0 232 65zM637 -408h-59v246h59v-246z" />
    <glyph glyph-name="uni1EE4" unicode="&#x1ee4;" horiz-adv-x="1595" 
d="M356 143v2q-143 165 -143 478v4v932h61v-934v-4q0 -287 132 -437q131 -149 393 -149q260 0 393 151q131 149 131 437v933h61v-931q0 -312 -143 -480t-442 -168t-443 166zM829 -401h-63v243h63v-243z" />
    <glyph glyph-name="uni1EE5" unicode="&#x1ee5;" horiz-adv-x="1165" 
d="M918 1079h53v-1079h-58v227q-47 -117 -137 -184q-92 -68 -215 -68q-102 0 -190 52q-91 54 -144 149q-55 98 -55 230v4v669h57v-659v-4q0 -120 47 -209t125 -135q80 -47 174 -47q96 0 173 47q75 46 122 135q48 91 48 209v663zM602 -401h-59v245h59v-245z" />
    <glyph glyph-name="Ygrave" unicode="&#x1ef2;" horiz-adv-x="1312" 
d="M1231 1556h72l-615 -854v-702h-63v702l-615 854h72l575 -796zM737 1694h-61l-287 243h82z" />
    <glyph glyph-name="ygrave" unicode="&#x1ef3;" horiz-adv-x="1103" 
d="M559 111h-61l-471 968h61zM444 -401h-61l625 1480h61zM612 1255h-57l-276 301h75z" />
    <glyph glyph-name="uni1EF8" unicode="&#x1ef8;" horiz-adv-x="1312" 
d="M1231 1556h72l-615 -854v-702h-63v702l-615 854h72l575 -796zM352 1749l-6 -2q15 60 66 96q50 35 102 35q36 0 74 -10q26 -7 76 -31q67 -33 124 -33q96 0 136 82h34q-15 -63 -63 -96q-50 -35 -100 -35q-36 0 -74 10q-29 7 -74 31q-75 35 -125 35q-95 0 -135 -82h-35z" />
    <glyph glyph-name="uni1EF9" unicode="&#x1ef9;" horiz-adv-x="1103" 
d="M559 111h-61l-471 968h61zM444 -401h-61l625 1480h61zM256 1327h-4q15 64 61 98q47 35 99 35q34 0 69 -12q11 -4 80 -35q65 -35 117 -35q47 0 80 23q31 22 49 65h33q-15 -63 -62 -98t-98 -35q-62 0 -145 45q-65 35 -117 35q-92 0 -127 -86h-35z" />
    <glyph glyph-name="uni2009" unicode="&#x2009;" horiz-adv-x="256" 
 />
    <glyph glyph-name="uni2011" unicode="&#x2011;" horiz-adv-x="843" 
d="M733 547h-620v51h620v-51z" />
    <glyph glyph-name="endash" unicode="&#x2013;" horiz-adv-x="1075" 
d="M965 547h-852v51h852v-51z" />
    <glyph glyph-name="emdash" unicode="&#x2014;" horiz-adv-x="1669" 
d="M1556 547h-1443v51h1443v-51z" />
    <glyph glyph-name="quoteleft" unicode="&#x2018;" horiz-adv-x="407" 
d="M268 1556h58l-117 -251v-236h-64v244z" />
    <glyph glyph-name="quoteright" unicode="&#x2019;" horiz-adv-x="411" 
d="M223 1556h64v-243l-123 -244h-55l114 252v235z" />
    <glyph glyph-name="quotesinglbase" unicode="&#x201a;" horiz-adv-x="419" 
d="M178 233h64v-243l-123 -244h-56l115 252v235z" />
    <glyph glyph-name="quotedblleft" unicode="&#x201c;" horiz-adv-x="673" 
d="M131 1313l121 243h57l-116 -256v-231h-62v244zM520 1556h58l-117 -256v-231h-62v244z" />
    <glyph glyph-name="quotedblright" unicode="&#x201d;" horiz-adv-x="679" 
d="M508 1556h63v-243l-122 -244h-56l115 252v235zM240 1556h63v-243l-123 -244h-55l115 252v235z" />
    <glyph glyph-name="quotedblbase" unicode="&#x201e;" horiz-adv-x="688" 
d="M446 233h64v-243l-123 -244h-55l114 252v235zM178 233h64v-243l-123 -244h-56l115 252v235z" />
    <glyph glyph-name="dagger" unicode="&#x2020;" horiz-adv-x="1214" 
d="M637 1083h446v-49h-446v-1034h-57v1034h-449v49h449v473h57v-473z" />
    <glyph glyph-name="daggerdbl" unicode="&#x2021;" horiz-adv-x="1214" 
d="M1083 1083v-49h-446v-420h446v-49h-446v-565h-57v565h-449v49h449v420h-449v49h449v473h57v-473h446z" />
    <glyph glyph-name="bullet" unicode="&#x2022;" horiz-adv-x="710" 
d="M283 459h-2q-33 17 -52 53q-18 34 -18 74q0 38 18 73q19 35 54 54q35 18 73 18q40 0 74 -18t53 -54t19 -73q0 -38 -19 -74q-18 -35 -53 -53q-36 -19 -74 -19q-37 0 -73 19z" />
    <glyph glyph-name="ellipsis" unicode="&#x2026;" horiz-adv-x="1261" 
d="M242 0h-64v233h64v-233zM662 0h-64v233h64v-233zM1083 0h-63v233h63v-233z" />
    <glyph glyph-name="perthousand" unicode="&#x2030;" horiz-adv-x="2400" 
d="M680 901l-2 -8q-36 -96 -109 -150q-68 -51 -170 -51q-100 0 -168 51q-70 52 -108 152q-37 98 -37 238q0 139 37 237q38 100 108 152q71 53 170 53q102 0 170 -51q72 -53 109 -152q37 -98 37 -235q0 -138 -37 -236zM444 -10l865 1556h61l-864 -1556h-62zM590 836v-2
q69 100 69 292q0 195 -69 295q-71 103 -193 103q-123 0 -190 -101q-68 -103 -68 -295q0 -191 68 -294q67 -101 190 -101q122 0 193 103zM2163 791l4 -9q71 -53 108 -151t37 -236q0 -137 -37 -235q-37 -97 -108 -150q-68 -51 -166 -51q-104 0 -180 61q-77 62 -111 175
q-34 -113 -108 -175q-73 -61 -179 -61q-102 0 -170 51q-70 52 -108 152q-37 98 -37 237q0 140 37 238t108 151q73 54 170 54q105 0 179 -62t108 -174q34 111 109 174q74 62 178 62q98 0 166 -51zM1612 100v-6q67 101 67 295t-67 295q-68 102 -191 102t-192 -100
q-70 -101 -70 -295q0 -190 70 -291q69 -100 192 -100q125 0 191 100zM2189 94v-6q68 103 68 295t-68 295q-67 102 -190 102q-124 0 -193 -100t-69 -295q0 -191 69 -291t193 -100t190 100z" />
    <glyph glyph-name="minute" unicode="&#x2032;" horiz-adv-x="376" 
d="M178 1069h-43l70 487h63z" />
    <glyph glyph-name="second" unicode="&#x2033;" horiz-adv-x="589" 
d="M178 1069h-43l70 487h63zM391 1069h-43l70 487h63z" />
    <glyph glyph-name="guilsinglleft" unicode="&#x2039;" horiz-adv-x="684" 
d="M500 1006h67l-389 -447l389 -473h-67l-391 471z" />
    <glyph glyph-name="guilsinglright" unicode="&#x203a;" horiz-adv-x="684" 
d="M115 1006h67l391 -449l-391 -471h-67l391 473z" />
    <glyph glyph-name="uni2042" unicode="&#x2042;" horiz-adv-x="1763" 
d="M1225 1335l14 -43l-321 -108l210 -283l-36 -27l-211 283l-211 -283l-37 27l213 283l-322 108l15 43l319 -108v329h45v-329zM743 485l15 -43l-322 -108l211 -283l-37 -26l-211 282l-211 -282l-36 26l213 283l-322 108l14 43l320 -108v330h45v-330zM1706 485l14 -43
l-321 -108l211 -283l-37 -26l-211 282l-211 -282l-37 26l213 283l-321 108l14 43l319 -108v330h45v-330z" />
    <glyph glyph-name="fraction" unicode="&#x2044;" horiz-adv-x="276" 
d="M-354 0h-64l1049 1556h63z" />
    <glyph glyph-name="uni2070" unicode="&#x2070;" horiz-adv-x="708" 
d="M199 1049q-65 47 -99 135q-34 87 -34 215t34 215q34 88 99 135t153 47q89 0 154 -47q63 -45 98 -135t35 -215t-35 -215t-98 -135q-67 -48 -154 -48q-86 0 -153 48zM524 1137q62 92 62 266t-62 266t-170 92q-110 0 -172 -92q-61 -91 -61 -266t61 -266q63 -93 172 -93
q107 0 170 93z" />
    <glyph glyph-name="uni2074" unicode="&#x2074;" horiz-adv-x="661" 
d="M506 1307h123v-45h-123v-248h-53v248h-428v63l354 467h61l-366 -485h379v485h53v-485z" />
    <glyph glyph-name="uni2075" unicode="&#x2075;" horiz-adv-x="675" 
d="M492 1507l-5 -4q58 -30 93 -92q34 -61 34 -143q0 -85 -36 -144q-36 -58 -99 -94q-59 -33 -139 -33q-66 0 -127 25q-55 23 -98 72q-40 46 -49 104h55q12 -69 74 -113q61 -43 145 -43q62 0 115 29q50 27 77 80q29 56 29 119q0 68 -26 116q-28 50 -78 78q-49 27 -113 27
q-78 0 -133 -37q-58 -39 -84 -96l-53 6l41 426h460v-45h-409l-35 -340q25 52 86 94q56 39 141 39q74 0 134 -31z" />
    <glyph glyph-name="uni2076" unicode="&#x2076;" horiz-adv-x="700" 
d="M514 1491h-2q61 -30 92 -90t31 -139q0 -78 -37 -136q-38 -59 -100 -92t-142 -33q-138 0 -215 103q-78 104 -78 301q0 132 37 219q38 88 105 135q68 47 153 47q103 0 166 -51q65 -53 92 -141h-55q-20 63 -72 106q-48 39 -129 39q-117 0 -178 -98t-61 -254q0 -52 2 -66
q16 59 51 97q38 41 88 61q57 23 111 23q77 0 141 -31zM473 1073l-2 -4q50 28 78 78q29 53 29 110q0 97 -58 158q-59 62 -160 62q-62 0 -116 -31t-80 -76q-29 -50 -29 -92q0 -53 25 -111q23 -53 76 -88t124 -35q60 0 113 29z" />
    <glyph glyph-name="uni2077" unicode="&#x2077;" horiz-adv-x="528" 
d="M25 1747v45h485v-63l-371 -715h-65l387 733h-436z" />
    <glyph glyph-name="uni2078" unicode="&#x2078;" horiz-adv-x="692" 
d="M522 1403l-12 -4q43 -19 80 -66q33 -42 33 -106q0 -72 -39 -123q-41 -53 -105 -80q-65 -27 -141 -27q-72 0 -141 29q-64 27 -105 80q-39 51 -39 123q0 66 33 108q37 47 80 66q54 24 86 29q-64 15 -117 59q-51 42 -51 121q0 54 33 96q36 45 92 68q59 24 135 24t135 -24
q56 -23 92 -68q33 -42 33 -96q0 -80 -49 -123q-48 -42 -119 -57q32 -5 86 -29zM180 1491h-4q52 -43 154 -43q101 0 153 43q54 45 54 111q0 41 -25 77t-70 56q-44 20 -110 20q-67 0 -111 -20t-69 -56t-25 -77q0 -67 53 -111zM442 1063l-6 -4q53 21 86 63t33 103q0 59 -33 98
q-36 42 -86 59q-55 19 -112 19q-56 0 -111 -19q-50 -17 -86 -59q-33 -39 -33 -98t33 -101t86 -63t115 -21q56 0 114 23z" />
    <glyph glyph-name="uni2079" unicode="&#x2079;" horiz-adv-x="700" 
d="M553 1702l6 -8q78 -104 78 -301q0 -132 -37 -219q-39 -91 -104 -136t-154 -45q-103 0 -166 51q-65 53 -92 142h55q20 -65 72 -107q48 -39 129 -39q115 0 176 99q62 100 62 256q0 44 -3 65q-15 -52 -51 -94q-37 -42 -88 -63q-57 -23 -106 -23q-123 0 -195 72t-72 190
q0 77 37 135q36 57 99 92q59 33 139 33q140 0 215 -100zM459 1348h-2q55 31 80 75q28 48 28 93q0 58 -24 110t-76 86q-53 35 -123 35q-64 0 -113 -27q-51 -28 -77 -75q-29 -53 -29 -111q0 -62 24 -111q24 -50 74 -77q53 -29 121 -29q63 0 117 31z" />
    <glyph glyph-name="uni207A" unicode="&#x207a;" horiz-adv-x="671" 
d="M358 1407h250v-41h-250v-256h-45v256h-247v41h247v246h45v-246z" />
    <glyph glyph-name="uni207B" unicode="&#x207b;" horiz-adv-x="649" 
d="M569 1366h-487v41h487v-41z" />
    <glyph glyph-name="uni207C" unicode="&#x207c;" horiz-adv-x="665" 
d="M578 1466h-490v43h490v-43zM578 1266h-490v43h490v-43z" />
    <glyph glyph-name="uni207D" unicode="&#x207d;" horiz-adv-x="389" 
d="M264 909h-2q-166 233 -166 494q0 145 45 258q47 117 123 225h58q-78 -111 -123 -223q-45 -113 -45 -260q0 -262 168 -494h-58z" />
    <glyph glyph-name="uni207E" unicode="&#x207e;" horiz-adv-x="387" 
d="M68 909q165 232 165 494q0 144 -45 260q-47 121 -122 227h55q77 -109 123 -227q45 -116 45 -260q0 -258 -166 -494h-55z" />
    <glyph glyph-name="uni2080" unicode="&#x2080;" horiz-adv-x="708" 
d="M199 -199q-64 46 -99 136q-34 87 -34 215t34 215q34 89 99 135q65 47 153 47q89 0 154 -47q63 -45 98 -135t35 -215t-35 -215q-35 -91 -98 -136q-65 -47 -154 -47q-88 0 -153 47zM524 -111q62 92 62 267q0 174 -62 266t-170 92q-110 0 -172 -92q-61 -91 -61 -266
q0 -176 61 -267q62 -92 172 -92q108 0 170 92z" />
    <glyph glyph-name="uni2081" unicode="&#x2081;" horiz-adv-x="360" 
d="M193 545h49v-778h-56v624h-166v45h99q38 0 55 10q16 10 19 41v58z" />
    <glyph glyph-name="uni2082" unicode="&#x2082;" horiz-adv-x="645" 
d="M106 -188l490 -7v-45h-551v64l340 303q64 55 98 104q35 50 35 109q0 45 -22 84q-20 36 -68 61t-106 25q-93 0 -148 -43q-54 -42 -63 -119h-56q9 99 82 154t185 55q75 0 135 -31q57 -29 88 -80q30 -50 30 -104q0 -70 -36 -123q-34 -50 -109 -119z" />
    <glyph glyph-name="uni2083" unicode="&#x2083;" horiz-adv-x="661" 
d="M535 123l-3 -10q68 -47 68 -136q0 -78 -39 -129q-41 -54 -104 -77q-67 -25 -142 -25q-111 0 -182 53q-72 54 -84 148h57q9 -69 62 -113q52 -43 145 -43q59 0 111 21q53 21 86 63t33 105q0 55 -33 94q-36 42 -86 59q-55 19 -111 19h-39v45h39q59 0 103 20q47 21 73 57
q29 40 29 80q0 44 -24 78q-23 33 -72 55q-46 21 -105 21q-84 0 -135 -39q-52 -40 -61 -104h-55q3 56 36 98q35 44 88 67q58 25 123 25q68 0 129 -25q59 -24 93 -67t34 -101q0 -81 -55 -124t-129 -58q85 -12 150 -57z" />
    <glyph glyph-name="uni2084" unicode="&#x2084;" horiz-adv-x="661" 
d="M506 59h123v-45h-123v-247h-53v247h-428v64l354 467h61l-366 -486h379v486h53v-486z" />
    <glyph glyph-name="uni2085" unicode="&#x2085;" horiz-adv-x="675" 
d="M492 260l-5 -4q58 -30 93 -92q34 -61 34 -144q0 -84 -36 -143q-36 -58 -99 -94q-59 -33 -139 -33q-66 0 -127 25q-56 23 -98 71q-40 46 -49 105h55q12 -69 74 -113q61 -43 145 -43q62 0 115 29q50 27 77 80q29 56 29 119q0 68 -26 116q-28 50 -78 78q-49 27 -113 27
q-78 0 -133 -37q-58 -39 -84 -96l-53 6l41 426h460v-45h-409l-35 -340q25 52 86 94q56 39 141 39q74 0 134 -31z" />
    <glyph glyph-name="uni2086" unicode="&#x2086;" horiz-adv-x="700" 
d="M514 244h-2q61 -30 92 -90t31 -140q0 -77 -37 -135q-38 -59 -100 -92t-142 -33q-138 0 -215 103q-78 104 -78 301q0 132 37 219q38 89 105 135q68 47 153 47q103 0 166 -51q65 -53 92 -141h-55q-20 63 -72 106q-48 39 -129 39q-117 0 -178 -98t-61 -254q0 -52 2 -66
q16 58 51 96q39 43 88 62q55 22 111 22q79 0 141 -30zM473 -174l-2 -4q50 28 78 78q29 53 29 110q0 97 -58 158t-160 61q-64 0 -116 -30q-54 -31 -80 -76q-29 -50 -29 -92q0 -53 25 -111q23 -53 76 -88t124 -35q60 0 113 29z" />
    <glyph glyph-name="uni2087" unicode="&#x2087;" horiz-adv-x="528" 
d="M25 500v45h485v-64l-371 -714h-65l387 733h-436z" />
    <glyph glyph-name="uni2088" unicode="&#x2088;" horiz-adv-x="692" 
d="M522 156l-12 -4q43 -19 80 -66q33 -42 33 -106q0 -72 -39 -123q-41 -53 -105 -80q-65 -27 -141 -27q-72 0 -141 29q-64 27 -105 80q-39 51 -39 123q0 66 33 108q37 47 80 66q50 23 86 28q-62 14 -117 60q-51 42 -51 121q0 54 33 96q34 43 92 67q61 25 135 25t135 -25
q58 -24 92 -67q33 -42 33 -96q0 -80 -49 -123t-119 -58q36 -5 86 -28zM180 244h-4q52 -43 154 -43q101 0 153 43q54 45 54 110q0 42 -25 78q-24 34 -70 55t-110 21t-111 -21q-45 -20 -69 -55q-25 -36 -25 -78q0 -66 53 -110zM442 -184l-6 -4q53 21 86 63t33 102t-33 99
q-36 42 -86 59q-55 19 -112 19q-56 0 -111 -19q-50 -17 -86 -59q-33 -39 -33 -99q0 -58 33 -100t86 -63t115 -21q56 0 114 23z" />
    <glyph glyph-name="uni2089" unicode="&#x2089;" horiz-adv-x="700" 
d="M553 455l6 -9q78 -104 78 -301q0 -132 -37 -219q-38 -89 -104 -135q-65 -45 -154 -45q-103 0 -166 51q-65 53 -92 142h55q20 -65 72 -107q48 -39 129 -39q115 0 176 98q62 100 62 256q0 45 -3 66q-15 -52 -51 -94q-38 -44 -88 -64q-55 -22 -106 -22q-124 0 -195 71
q-72 72 -72 191q0 77 37 135q36 57 99 92q59 33 139 33q140 0 215 -100zM459 100h-2q54 31 80 76q28 48 28 92q0 58 -24 111q-24 52 -76 86q-53 35 -123 35q-64 0 -113 -27q-51 -28 -77 -76q-29 -53 -29 -110q0 -61 24 -111q25 -51 74 -78q51 -28 121 -28q64 0 117 30z" />
    <glyph glyph-name="uni208A" unicode="&#x208a;" horiz-adv-x="671" 
d="M358 160h250v-41h-250v-256h-45v256h-247v41h247v246h45v-246z" />
    <glyph glyph-name="uni208B" unicode="&#x208b;" horiz-adv-x="649" 
d="M569 119h-487v41h487v-41z" />
    <glyph glyph-name="uni208C" unicode="&#x208c;" horiz-adv-x="665" 
d="M578 219h-490v43h490v-43zM578 18h-490v43h490v-43z" />
    <glyph glyph-name="uni208D" unicode="&#x208d;" horiz-adv-x="389" 
d="M264 -338h-2q-166 233 -166 494q0 145 45 258q47 117 123 225h58q-78 -111 -123 -223q-45 -113 -45 -260q0 -262 168 -494h-58z" />
    <glyph glyph-name="uni208E" unicode="&#x208e;" horiz-adv-x="387" 
d="M68 -338q165 232 165 494q0 144 -45 260q-47 121 -122 227h55q77 -109 123 -227q45 -116 45 -260q0 -258 -166 -494h-55z" />
    <glyph glyph-name="uni20A9" unicode="&#x20a9;" horiz-adv-x="2029" 
d="M1944 981v-53h-242l-60 -301h256v-54h-266l-112 -573h-60l113 573h-266l118 -573h-59l-119 573h-444l-119 -573h-59l118 573h-266l113 -573h-60l-112 573h-287v54h277l-60 301h-262v53h250l-113 575h60l112 -575h434l119 575h60l-119 -575h272l-119 575h60l119 -575h434
l112 575h60l-113 -575h230zM408 928l59 -301h289l61 301h-409zM877 928l-62 -301h420l-61 301h-297zM1294 627h289l59 301h-409z" />
    <glyph glyph-name="Euro" unicode="&#x20ac;" horiz-adv-x="1632" 
d="M1501 406v-9q-64 -199 -205 -313q-142 -115 -344 -115q-154 0 -282 78q-125 76 -209 219q-84 144 -111 330h-250l21 53h223q-6 58 -6 121q0 64 6 123h-213l19 53h200q24 186 105 330q80 142 207 219q128 78 278 78q202 0 344 -115q141 -114 205 -313h-62
q-58 174 -184 276q-125 101 -303 101q-138 0 -248 -70q-112 -71 -182 -199q-73 -133 -96 -303h733l-19 -53h-720q-7 -68 -7 -123q0 -53 7 -121h634l-18 -53h-610q24 -172 98 -303q74 -130 186 -199t252 -69q181 0 305 100q127 103 185 277h61z" />
    <glyph glyph-name="uni20B8" unicode="&#x20b8;" horiz-adv-x="1273" 
d="M82 1503v53h1110v-53h-1110zM608 1210h-526v54h1110v-54h-524v-1210h-60v1210z" />
    <glyph glyph-name="uni20B9" unicode="&#x20b9;" horiz-adv-x="1331" 
d="M1255 1503l-446 -8q107 -49 168 -137t70 -209h204v-53h-204q-6 -126 -68 -215q-63 -91 -174 -136q-115 -47 -264 -47h-320l799 -700h-92l-772 676v78h385q204 0 323 90q116 88 125 258h-831v53h831q-9 167 -125 258q-118 92 -321 92h-385v53h1097v-53z" />
    <glyph glyph-name="uni20BA" unicode="&#x20ba;" horiz-adv-x="1245" 
d="M1155 643l-2 2q0 -332 -162 -487q-163 -156 -469 -156h-198v676l-220 -66v54l220 65v250l-220 -66v54l220 65v525h59v-506l487 147v-55l-487 -146v-251l487 145v-53l-487 -146v-639h139q280 0 428 142t148 446h57z" />
    <glyph glyph-name="uni20BD" unicode="&#x20bd;" horiz-adv-x="1384" 
d="M393 705v-240h447v-53h-447v-412h-59v412h-228v53h228v240h-228v53h228v798h366q280 0 430 -100q154 -103 154 -326q0 -222 -154 -325q-150 -100 -430 -100h-307zM393 1503v-745h309q256 0 390 88q135 88 135 284t-135 285q-134 88 -390 88h-309z" />
    <glyph glyph-name="uni20BF" unicode="&#x20bf;" horiz-adv-x="1363" 
d="M1124 145v-4q-109 -106 -307 -133v-280h-57v272q-94 -4 -107 -4h-80v-268h-57v268h-274v1556h274v258h57v-258h80q53 0 105 -6v264h57v-272q172 -35 264 -131q97 -102 97 -242q0 -161 -111 -252t-285 -112q135 -6 238 -56t158 -135t55 -196q0 -165 -107 -269zM1055 1341
v2q-57 75 -160 115q-106 41 -244 41h-352v-670h352q138 0 244 41q104 40 160 117q55 76 55 178q0 103 -55 176zM651 49h-2q171 0 287 43q114 42 174 127q57 80 57 197t-57 194q-59 80 -174 123q-116 43 -285 43h-352v-727h352z" />
    <glyph glyph-name="uni2113" unicode="&#x2113;" horiz-adv-x="839" 
d="M365 66h6q39 -39 116 -39q64 0 117 26q56 27 111 82v-55q-49 -49 -111 -76t-123 -27q-104 0 -157 56q-54 57 -54 166v4v266l-145 -117l-33 41l178 146v587q0 140 33 238q36 105 94 158q61 55 148 55q114 0 172 -82q59 -83 59 -246q0 -133 -49 -252q-49 -120 -147 -235
q-101 -120 -254 -246l-2 -2v-313v-4q0 -90 41 -131zM432 1479h4q-48 -48 -76 -142q-26 -88 -26 -211v-540q203 179 293 332q92 157 92 331q0 149 -43 213q-45 66 -129 66q-66 0 -115 -49z" />
    <glyph glyph-name="uni2116" unicode="&#x2116;" horiz-adv-x="2422" 
d="M1825 860v-4q-78 49 -125 135q-45 83 -45 201t45 201q47 86 125 135q79 49 178 49t178 -49q78 -49 125 -135q45 -83 45 -199t-45 -199q-47 -86 -125 -135q-79 -49 -178 -49t-178 49zM295 -6h-62v1556h62v-1556zM1364 -6h-70l-964 1556h69zM1462 -6h-63v1556h63v-1556z
M2152 895l-4 -8q65 44 103 121q37 75 37 176t-37 176q-39 79 -101 121q-64 43 -151 43q-88 0 -152 -43q-62 -42 -100 -119q-37 -75 -37 -174t37 -174t102 -119q64 -43 152 -43q87 0 151 43z" />
    <glyph glyph-name="uni2117" unicode="&#x2117;" horiz-adv-x="1953" 
d="M1399 1507h-4q193 -114 307 -307q115 -195 115 -424q0 -232 -113 -424q-114 -193 -307 -307q-192 -113 -424 -113t-424 113q-193 114 -307 307q-113 192 -113 424q0 229 115 424q114 193 307 307q192 113 424 113t424 -113zM1368 92l-4 4q182 105 287 287
q104 180 104 397q0 218 -104 398t-287 286q-182 105 -395 105q-216 0 -396 -107q-181 -107 -288 -288q-107 -180 -107 -396q0 -215 107 -395q108 -182 288 -289q178 -106 398 -106q217 0 397 104zM995 1290l-2 2q181 0 287 -80q104 -79 104 -227q0 -149 -104 -225
q-107 -78 -285 -78h-262v-412h-51v1020h313zM993 731l-4 -2q159 0 250 66q90 66 90 190q0 126 -88 193t-248 67h-262v-514h262z" />
    <glyph glyph-name="uni2120" unicode="&#x2120;" horiz-adv-x="1665" 
d="M467 1237l-8 -8q108 -21 157 -64q50 -44 50 -116q0 -60 -31 -111q-29 -49 -92 -76q-59 -26 -142 -26q-73 0 -129 26t-94 76t-47 115h51q9 -78 72 -129q62 -50 147 -50q61 0 115 23q49 21 76 61q26 39 26 89q0 44 -24 71q-26 29 -64 43q-50 19 -106 31l-78 16
q-85 20 -141 60q-51 36 -51 114q0 50 30 91t86 65q58 25 125 25q104 0 174 -52q71 -53 86 -137h-51q-15 72 -69 111q-56 41 -136 41q-52 0 -98 -19q-43 -18 -68 -49q-24 -30 -24 -69q0 -57 43 -84q49 -30 137 -50zM1470 1548v-704h-47v688l-254 -688h-92l-256 694v-694h-47
v704h92l258 -696l256 696h90z" />
    <glyph glyph-name="trademark" unicode="&#x2122;" horiz-adv-x="1558" 
d="M315 1513h-243v43h536v-43h-246v-661h-47v661zM1364 1556v-704h-47v688l-254 -688h-92l-256 694v-694h-47v704h92l258 -696l256 696h90z" />
    <glyph glyph-name="uni2150" unicode="&#x2150;" horiz-adv-x="1390" 
d="M825 733v45h486v-63l-371 -715h-66l388 733h-437zM309 1556h49v-778h-55v625h-166v45h99q38 0 55 10q15 9 18 41v57zM137 0h-63l1048 1556h64z" />
    <glyph glyph-name="uni2151" unicode="&#x2151;" horiz-adv-x="1435" 
d="M1260 688l6 -8q77 -103 77 -301q0 -134 -36 -219q-37 -88 -105 -135q-65 -45 -153 -45q-103 0 -166 51q-65 53 -92 141h55q20 -63 72 -106q48 -39 129 -39q115 0 176 98t61 256q0 51 -2 65q-15 -52 -51 -94q-37 -42 -88 -63q-57 -23 -107 -23q-122 0 -194 72t-72 190
q0 78 37 136t98 92q57 32 139 32q141 0 216 -100zM1165 334h-2q54 31 80 76q29 50 29 92q0 55 -25 110q-24 52 -76 86q-53 35 -122 35q-65 0 -113 -26q-52 -28 -78 -76q-29 -53 -29 -111t25 -110q25 -51 74 -78q53 -29 121 -29q62 0 116 31zM313 1546h49v-778h-55v625h-166
v45h99q38 0 55 10q15 9 18 41v57zM141 -10h-63l1048 1556h64z" />
    <glyph glyph-name="uni2152" unicode="&#x2152;" horiz-adv-x="1814" 
d="M952 778h49v-778h-55v625h-166v45h99q38 0 55 10q15 9 18 41v57zM1282 35q-63 45 -98 135t-35 215t35 215t98 135q65 47 154 47q88 0 153 -47t99 -135q34 -87 34 -215t-34 -215q-34 -88 -99 -135t-153 -47q-89 0 -154 47zM1608 123q61 91 61 266t-61 266q-63 93 -170 93
q-109 0 -172 -93q-62 -92 -62 -266t62 -266t172 -92q108 0 170 92zM309 1554h49v-778h-55v625h-166v45h99q38 0 55 10q15 9 18 41v57zM137 -2h-63l1048 1556h64z" />
    <glyph glyph-name="uni2153" unicode="&#x2153;" horiz-adv-x="1417" 
d="M309 1556h49v-778h-55v625h-166v45h99q38 0 55 10q15 9 18 41v57zM137 0h-63l1048 1556h64zM1245 356l-2 -10q68 -47 68 -135q0 -78 -39 -129q-42 -55 -105 -78q-65 -24 -141 -24q-111 0 -182 53q-72 54 -84 147h57q9 -68 62 -112q52 -43 145 -43q61 0 111 20
q52 21 86 64q32 40 32 104q0 56 -32 94q-37 43 -86 60q-53 18 -111 18h-39v45h39q56 0 102 21q49 22 74 57q29 40 29 80q0 42 -25 78q-23 33 -71 55q-44 20 -105 20q-84 0 -135 -39q-53 -41 -62 -104h-55q3 55 37 98q36 46 88 68q55 24 123 24q70 0 129 -24q56 -23 92 -68
q35 -44 35 -100q0 -82 -55 -125q-53 -41 -129 -57q82 -12 149 -58z" />
    <glyph glyph-name="uni2154" unicode="&#x2154;" horiz-adv-x="1630" 
d="M162 823l489 -6v-45h-551v64l340 303q66 57 99 104q34 49 34 109q0 45 -22 84q-20 36 -68 61t-106 25q-93 0 -148 -43q-54 -42 -63 -119h-55q9 98 82 153q74 56 184 56q75 0 135 -31q57 -29 88 -80t31 -104q0 -68 -37 -123q-34 -50 -109 -119zM352 -6h-63l1048 1556h64z
M1460 350l-2 -10q68 -47 68 -135q0 -78 -39 -129q-42 -55 -105 -78q-67 -25 -141 -25q-109 0 -182 54q-72 54 -84 147h57q9 -69 62 -113q52 -43 145 -43q59 0 111 21q53 21 86 63q32 40 32 105q0 56 -32 94q-36 42 -86 59q-55 19 -111 19h-39v45h39q58 0 102 20q48 22 74 58
q29 40 29 80q0 41 -25 77q-24 35 -71 56q-44 20 -105 20q-84 0 -135 -39q-52 -40 -61 -104h-56q3 55 37 98q36 46 88 68q56 24 123 24q71 0 129 -24q56 -23 92 -68q35 -44 35 -100q0 -82 -55 -125q-53 -41 -129 -57q82 -12 149 -58z" />
    <glyph glyph-name="uni2155" unicode="&#x2155;" horiz-adv-x="1443" 
d="M1208 494l-4 -5q57 -29 92 -92q35 -62 35 -143q0 -82 -37 -143t-98 -95q-57 -32 -139 -32q-69 0 -127 24q-56 23 -99 72q-40 46 -49 104h56q12 -69 73 -112t146 -43q63 0 114 28t78 80q29 56 29 119q0 68 -27 117q-28 51 -77 78q-48 26 -113 26q-78 0 -133 -37
q-58 -39 -84 -96l-53 6l40 426h461v-45h-409l-35 -340q25 52 86 94q56 39 141 39q75 0 133 -30zM303 1550h49v-778h-55v625h-166v45h98q39 0 56 10q15 9 18 41v57zM131 -6h-63l1048 1556h64z" />
    <glyph glyph-name="uni2156" unicode="&#x2156;" horiz-adv-x="1656" 
d="M162 823l489 -6v-45h-551v64l340 303q66 57 99 104q34 49 34 109q0 45 -22 84q-20 36 -68 61t-106 25q-93 0 -148 -43q-54 -42 -63 -119h-55q9 98 82 153q74 56 184 56q75 0 135 -31q57 -29 88 -80t31 -104q0 -68 -37 -123q-34 -50 -109 -119zM352 -6h-63l1048 1556h64z
M1425 487l-4 -4q57 -29 92 -92q35 -62 35 -143q0 -83 -37 -144q-36 -59 -98 -94q-59 -33 -139 -33q-66 0 -127 25q-55 23 -98 72q-41 47 -50 104h56q12 -69 73 -112t146 -43q64 0 115 28q50 27 77 80q29 56 29 119q0 68 -27 117q-27 50 -77 77t-113 27q-78 0 -133 -37
q-58 -39 -84 -96l-53 6l41 426h460v-45h-409l-35 -340q25 52 86 94q56 39 141 39q73 0 133 -31z" />
    <glyph glyph-name="uni2157" unicode="&#x2157;" horiz-adv-x="1624" 
d="M578 1135l-3 -11q68 -47 68 -135q0 -78 -39 -129q-43 -55 -104 -78q-64 -24 -142 -24q-111 0 -182 53q-72 54 -84 147h58q9 -69 61 -112t145 -43q61 0 111 20q52 21 86 64q33 42 33 104q0 55 -33 94q-37 43 -86 60q-53 18 -111 18h-39v45h39q56 0 103 21t73 57
q29 40 29 80q0 44 -24 78q-23 33 -72 55q-47 21 -105 21q-84 0 -135 -39q-52 -40 -61 -105h-55q3 58 36 99q35 44 88 67q58 25 123 25q68 0 129 -25q59 -24 93 -67t34 -101q0 -82 -55 -125q-53 -41 -129 -57q85 -12 150 -57zM317 -12h-63l1049 1556h63zM1391 481l-5 -4
q58 -30 93 -92q34 -61 34 -143q0 -85 -36 -144q-36 -58 -99 -94q-59 -33 -139 -33q-66 0 -127 25q-55 23 -98 72q-40 46 -49 104h55q12 -69 74 -113q61 -43 145 -43q62 0 115 29q51 28 78 80q28 54 28 119q0 68 -26 116q-28 50 -78 78q-50 27 -113 27q-78 0 -133 -37
q-58 -39 -84 -96l-53 6l41 426h461v-45h-410l-35 -340q25 52 86 94q56 39 141 39q74 0 134 -31z" />
    <glyph glyph-name="uni2158" unicode="&#x2158;" horiz-adv-x="1675" 
d="M551 1071h123v-45h-123v-248h-53v248h-428v64l354 466h61l-366 -485h379v485h53v-485zM365 0h-64l1049 1556h63zM1438 494l-4 -5q57 -29 92 -92q35 -62 35 -143q0 -82 -37 -143q-37 -60 -99 -95q-57 -32 -139 -32q-68 0 -127 24q-55 23 -98 72q-40 46 -49 104h55
q12 -68 74 -112q61 -43 145 -43q64 0 115 28t78 80q28 54 28 119q0 69 -26 117q-28 50 -78 78q-48 26 -113 26q-78 0 -133 -37q-58 -39 -84 -96l-53 6l41 426h461v-45h-410l-35 -340q25 52 86 94q56 39 142 39q75 0 133 -30z" />
    <glyph glyph-name="uni2159" unicode="&#x2159;" horiz-adv-x="1431" 
d="M1200 477h-2q61 -30 92 -90t31 -139q0 -77 -37 -135q-39 -60 -100 -93q-60 -32 -142 -32q-139 0 -215 102q-77 103 -77 301q0 134 36 219q38 88 105 135q70 48 153 48q102 0 166 -52q66 -54 93 -141h-56q-20 66 -71 107q-46 38 -129 38q-118 0 -179 -98t-61 -254
q0 -51 2 -65q16 58 51 96q38 41 88 61q58 23 111 23q77 0 141 -31zM1159 59l-2 -4q50 28 78 78q29 53 29 111q0 96 -58 157q-59 62 -159 62q-63 0 -117 -31t-80 -76q-29 -50 -29 -92q0 -52 25 -110q23 -53 76 -88t125 -35q61 0 112 28zM303 1550h49v-778h-55v625h-166v45h98
q39 0 56 10q15 9 18 41v57zM131 -6h-63l1048 1556h64z" />
    <glyph glyph-name="uni215A" unicode="&#x215a;" horiz-adv-x="1599" 
d="M524 1272l-4 -4q57 -29 92 -92q35 -62 35 -144t-37 -143q-36 -59 -98 -94q-59 -33 -139 -33q-69 0 -127 24q-56 23 -99 72q-40 46 -49 105h56q12 -70 73 -113t146 -43q61 0 114 29q52 28 78 79q29 56 29 119q0 68 -27 117q-28 50 -78 78q-48 26 -112 26q-80 0 -133 -36
q-57 -39 -84 -97l-54 6l41 426h461v-45h-409l-35 -340q26 53 86 95q56 39 141 39q73 0 133 -31zM305 -6h-63l1048 1556h64zM1370 471h-2q61 -30 92 -90t31 -139q0 -78 -37 -136q-38 -59 -100 -92q-60 -32 -142 -32q-138 0 -215 102q-77 103 -77 301q0 134 36 219
q38 88 105 135q68 47 153 47q103 0 166 -51q66 -54 93 -141h-56q-20 64 -71 106q-48 39 -129 39q-118 0 -179 -98t-61 -254q0 -51 2 -65q16 58 51 96q38 41 88 61q58 23 111 23q77 0 141 -31zM1329 53l-2 -4q50 28 78 78q29 53 29 111q0 96 -58 157q-59 62 -159 62
q-63 0 -117 -31t-80 -76q-29 -50 -29 -92q0 -53 25 -111q23 -53 76 -88q52 -34 125 -34q61 0 112 28z" />
    <glyph glyph-name="oneeighth" unicode="&#x215b;" horiz-adv-x="1445" 
d="M1233 389l-12 -4q42 -19 79 -66q33 -42 33 -106q0 -72 -39 -123q-42 -54 -104 -80t-141 -26q-75 0 -142 28q-62 26 -104 80q-39 51 -39 123q0 67 33 109q36 45 80 65q54 24 86 29q-64 15 -117 59q-51 42 -51 121q0 56 32 96q35 44 93 68t135 24t135 -24q56 -23 92 -68
q33 -42 33 -96q0 -80 -49 -123q-48 -42 -119 -57q32 -5 86 -29zM891 477h-4q52 -43 153 -43q102 0 154 43q53 44 53 111q0 44 -24 78t-70 55q-44 20 -111 20q-66 0 -110 -20q-46 -21 -70 -55t-24 -78q0 -67 53 -111zM1153 49l-6 -4q52 21 86 64q33 42 33 102q0 59 -33 98
q-37 43 -86 60q-53 18 -113 18q-58 0 -110 -18q-49 -17 -86 -60q-33 -39 -33 -98q0 -58 33 -100q34 -43 86 -64q50 -20 114 -20q60 0 115 22zM285 1546h49v-778h-55v625h-166v45h98q38 0 55 10q16 10 19 41v57zM113 -10h-64l1049 1556h63z" />
    <glyph glyph-name="threeeighths" unicode="&#x215c;" horiz-adv-x="1626" 
d="M578 1135l-3 -11q68 -47 68 -135q0 -78 -39 -129q-43 -55 -104 -78q-64 -24 -142 -24q-111 0 -182 53q-72 54 -84 147h58q9 -69 61 -112t145 -43q61 0 111 20q52 21 86 64q33 42 33 104q0 55 -33 94q-37 43 -86 60q-53 18 -111 18h-39v45h39q56 0 103 21t73 57
q29 40 29 80q0 44 -24 78q-23 33 -72 55q-47 21 -105 21q-84 0 -135 -39q-52 -40 -61 -105h-55q3 58 36 99q35 44 88 67q58 25 123 25q68 0 129 -25q59 -24 93 -67t34 -101q0 -82 -55 -125q-53 -41 -129 -57q85 -12 150 -57zM317 -12h-63l1049 1556h63zM1415 377l-12 -4
q43 -19 80 -66q33 -42 33 -106q0 -72 -39 -123q-41 -53 -105 -80t-141 -27q-72 0 -141 29q-64 27 -105 80q-39 51 -39 123q0 66 33 108q37 47 80 66q54 24 86 29q-64 15 -117 59q-51 42 -51 121q0 54 33 96q36 45 92 68q58 24 135 24t135 -24q56 -23 92 -68q33 -42 33 -96
q0 -80 -49 -123q-48 -42 -119 -57q32 -5 86 -29zM1073 465h-4q52 -43 154 -43q101 0 153 43q54 45 54 110q0 42 -25 78t-70 56q-44 20 -110 20q-67 0 -111 -20q-45 -20 -70 -56q-24 -35 -24 -78q0 -66 53 -110zM1335 37l-6 -4q53 21 86 63t33 103q0 59 -33 98q-36 42 -86 59
q-55 19 -112 19q-56 0 -111 -19q-50 -17 -86 -59q-33 -39 -33 -98t33 -101t86 -63q52 -21 115 -21q57 0 114 23z" />
    <glyph glyph-name="fiveeighths" unicode="&#x215d;" horiz-adv-x="1615" 
d="M524 1272l-4 -4q57 -29 92 -92q35 -62 35 -144t-37 -143q-36 -59 -98 -94q-59 -33 -139 -33q-69 0 -127 24q-56 23 -99 72q-40 46 -49 105h56q12 -70 73 -113t146 -43q61 0 114 29q52 28 78 79q29 56 29 119q0 68 -27 117q-28 50 -78 78q-48 26 -112 26q-80 0 -133 -36
q-57 -39 -84 -97l-54 6l41 426h461v-45h-409l-35 -340q26 53 86 95q56 39 141 39q73 0 133 -31zM305 -6h-63l1048 1556h64zM1403 383l-12 -4q42 -19 79 -66q33 -42 33 -106q0 -72 -39 -123q-42 -54 -104 -80q-64 -27 -141 -27q-73 0 -142 29q-62 26 -104 80q-39 51 -39 123
q0 66 33 108q37 47 80 66q54 24 86 29q-64 15 -117 59q-51 42 -51 121q0 56 32 96q35 44 93 68t135 24t135 -24q56 -23 92 -68q33 -42 33 -96q0 -80 -49 -123q-48 -42 -119 -57q32 -5 86 -29zM1061 471h-4q52 -43 153 -43q102 0 154 43q53 44 53 111q0 42 -24 77
q-25 36 -70 56q-44 20 -111 20q-66 0 -110 -20q-45 -20 -70 -56q-24 -35 -24 -77q0 -67 53 -111zM1323 43l-6 -4q53 21 86 63t33 103q0 59 -33 98q-36 42 -86 59q-55 19 -113 19q-55 0 -110 -19q-50 -17 -86 -59q-33 -39 -33 -98t33 -101t86 -63q52 -21 114 -21q58 0 115 23
z" />
    <glyph glyph-name="seveneighths" unicode="&#x215e;" horiz-adv-x="1447" 
d="M117 1511v45h485v-63l-371 -715h-65l387 733h-436zM145 0h-63l1048 1556h64zM1241 389l-12 -4q43 -19 80 -66q32 -40 32 -106q0 -74 -38 -123q-41 -53 -105 -80q-62 -26 -141 -26q-75 0 -142 28q-62 26 -104 80q-39 51 -39 123q0 67 33 109q36 45 80 65q54 24 86 29
q-64 15 -117 59q-51 42 -51 121q0 54 33 96q36 45 92 68q58 24 135 24t135 -24q56 -23 92 -68q33 -42 33 -96q0 -80 -49 -123q-48 -42 -119 -57q32 -5 86 -29zM899 477h-4q52 -43 154 -43q101 0 153 43q53 44 53 111q0 44 -24 78t-70 55q-44 20 -110 20q-67 0 -111 -20
q-46 -21 -70 -55t-24 -78q0 -67 53 -111zM1161 49l-6 -4q52 21 86 64q33 42 33 102q0 59 -33 98q-37 43 -86 60q-53 18 -113 18q-58 0 -110 -18q-49 -17 -86 -60q-33 -39 -33 -98q0 -58 33 -100q34 -43 86 -64q50 -20 115 -20q59 0 114 22z" />
    <glyph glyph-name="uni215F" unicode="&#x215f;" horiz-adv-x="1259" 
d="M336 1556h49v-778h-55v625h-166v45h98q38 0 55 10q16 10 19 41v57zM164 0h-64l1049 1556h63z" />
    <glyph glyph-name="uni2189" unicode="&#x2189;" horiz-adv-x="1593" 
d="M229 813q-63 45 -98 135t-35 215t35 215t98 135q67 48 154 48t154 -48q63 -45 98 -135t35 -215t-35 -215t-98 -135q-65 -47 -154 -47t-154 47zM555 901q61 91 61 266q0 176 -61 267q-62 92 -170 92q-110 0 -172 -92q-61 -91 -61 -267q0 -175 61 -266q62 -92 172 -92
q108 0 170 92zM317 -2h-63l1049 1556h63zM1425 354l-2 -10q68 -47 68 -135q0 -78 -39 -129q-43 -55 -104 -78q-67 -25 -142 -25q-109 0 -182 54q-72 54 -84 147h57q9 -68 62 -112q52 -43 145 -43q61 0 111 20q53 21 86 63t33 105q0 55 -33 94q-37 43 -86 60q-53 18 -111 18
h-39v45h39q56 0 103 21t73 57q29 40 29 80q0 42 -25 78q-23 33 -71 55q-44 20 -105 20q-84 0 -135 -39q-52 -40 -61 -104h-56q3 55 37 98q36 46 88 68q55 24 123 24q70 0 129 -24q56 -23 92 -68q35 -44 35 -100q0 -82 -55 -125q-53 -41 -129 -57q82 -12 149 -58z" />
    <glyph glyph-name="arrowleft" unicode="&#x2190;" horiz-adv-x="1576" 
d="M256 805h1225v-55h-1223l551 -533h-82l-573 561l573 561h82z" />
    <glyph glyph-name="arrowup" unicode="&#x2191;" horiz-adv-x="1576" 
d="M788 1436l562 -574v-80l-533 551v-1224h-55v1226l-535 -553v80z" />
    <glyph glyph-name="arrowright" unicode="&#x2192;" horiz-adv-x="1576" 
d="M770 1339h80l573 -561l-573 -561h-80l549 533h-1223v55h1225z" />
    <glyph glyph-name="arrowdown" unicode="&#x2193;" horiz-adv-x="1576" 
d="M817 1448v-1223l533 549v-80l-562 -573l-561 573v80l535 -551v1225h55z" />
    <glyph glyph-name="uni2196" unicode="&#x2196;" horiz-adv-x="1576" 
d="M406 1223l952 -955l-39 -39l-957 957v-760l-51 59v791h789l59 -53h-753z" />
    <glyph glyph-name="uni2197" unicode="&#x2197;" horiz-adv-x="1576" 
d="M418 1223l59 53h791v-791l-54 -59v760l-956 -957l-39 39l952 955h-753z" />
    <glyph glyph-name="uni2198" unicode="&#x2198;" horiz-adv-x="1576" 
d="M1214 373v757l54 -59v-788h-791l-59 51h753l-952 954l39 39z" />
    <glyph glyph-name="uni2199" unicode="&#x2199;" horiz-adv-x="1576" 
d="M1319 1327l39 -39l-952 -954h753l-59 -51h-789v788l51 59v-757z" />
    <glyph glyph-name="uni21A4" unicode="&#x21a4;" horiz-adv-x="1576" 
d="M1313 805v534h53v-1122h-53v533h-1157l551 -533h-82l-574 561l574 561h82l-553 -534h1159z" />
    <glyph glyph-name="uni21A5" unicode="&#x21a5;" horiz-adv-x="1576" 
d="M1350 907v-82l-533 551v-1151h533v-53h-1123v53h535v1153l-535 -553v82l561 574z" />
    <glyph glyph-name="uni21A6" unicode="&#x21a6;" horiz-adv-x="1576" 
d="M870 1339h82l574 -561l-574 -561h-82l551 533h-1157v-533h-53v1122h53v-534h1159z" />
    <glyph glyph-name="uni21A7" unicode="&#x21a7;" horiz-adv-x="1576" 
d="M1350 1384v-53h-533v-1151l533 551v-82l-562 -573l-561 573v82l535 -553v1153h-535v53h1123z" />
    <glyph glyph-name="uni21B0" unicode="&#x21b0;" horiz-adv-x="1576" 
d="M176 805h1221v-805h-58v750h-1161l551 -533h-80l-573 561l573 561h80z" />
    <glyph glyph-name="uni21B1" unicode="&#x21b1;" horiz-adv-x="1576" 
d="M848 1339h82l573 -561l-573 -561h-82l551 533h-1161v-750h-58v805h1221z" />
    <glyph glyph-name="uni21B2" unicode="&#x21b2;" horiz-adv-x="1576" 
d="M1339 807v749h58v-804h-1221l553 -535h-80l-573 561l573 561h80l-551 -532h1161z" />
    <glyph glyph-name="uni21B3" unicode="&#x21b3;" horiz-adv-x="1576" 
d="M848 1339h82l573 -561l-573 -561h-82l553 535h-1221v804h58v-749h1161z" />
    <glyph glyph-name="partialdiff" unicode="&#x2202;" horiz-adv-x="1275" 
d="M285 1567l-2 -4q467 -50 663 -295q197 -247 197 -609q0 -367 -150 -526q-151 -160 -389 -160q-142 0 -260 62q-115 61 -186 178q-70 116 -70 272t68 271t184 176t262 61q140 0 246 -53t164 -135q60 -85 78 -172q9 412 -197 624q-207 213 -608 256v54zM850 82l4 -2
q102 62 158 170q55 107 55 246q0 138 -61 239q-61 102 -166 154q-106 53 -236 53q-131 0 -235 -55q-103 -55 -162 -160q-60 -108 -60 -246q0 -139 62 -245q62 -105 168 -160q109 -56 239 -56q131 0 234 62z" />
    <glyph glyph-name="product" unicode="&#x220f;" horiz-adv-x="1857" 
d="M1800 1556v-57h-321v-1775h-62v1775h-977v-1775h-63v1775h-320v57h1743z" />
    <glyph glyph-name="summation" unicode="&#x2211;" horiz-adv-x="1419" 
d="M922 664l-764 -883h1173v-57h-1235v83l740 857l-740 809v83h1202v-57h-1142z" />
    <glyph glyph-name="minus" unicode="&#x2212;" horiz-adv-x="1251" 
d="M1108 526h-965v52h965v-52z" />
    <glyph glyph-name="radical" unicode="&#x221a;" horiz-adv-x="1292" 
d="M647 -242l574 1798h61l-584 -1832h-98l-305 749h-275v57h314z" />
    <glyph glyph-name="infinity" unicode="&#x221e;" horiz-adv-x="2238" 
d="M1892 958h13q97 -60 153 -172t56 -245q0 -135 -56 -244q-57 -110 -153 -170q-98 -61 -224 -61q-104 0 -196 53t-160 127q-54 59 -137 170l-60 84l-61 -84q-83 -111 -137 -170q-68 -74 -160 -127t-197 -53q-125 0 -223 61q-96 60 -153 170q-56 109 -56 244q0 133 56 245
t153 172q100 62 225 62q106 0 197 -55q94 -57 160 -129q65 -71 133 -164l57 -78l56 78q68 93 133 164q67 74 159 129q91 55 197 55q125 0 225 -62zM1098 545l-64 80q-75 100 -135 166q-62 68 -147 122q-82 52 -172 52q-111 0 -197 -56q-87 -56 -135 -153q-49 -98 -49 -217
q0 -122 49 -220q48 -97 135 -153q85 -55 197 -55q92 0 172 51q82 52 147 123q57 62 131 166zM1872 164q87 56 135 153q49 98 49 220q0 121 -49 219q-48 97 -135 153q-86 56 -197 56q-89 0 -172 -50q-83 -49 -147 -120q-60 -66 -135 -166l-64 -88l68 -92q74 -104 131 -166
q64 -71 147 -123q80 -51 172 -51q112 0 197 55z" />
    <glyph glyph-name="integral" unicode="&#x222b;" horiz-adv-x="712" 
d="M-14 -401l-6 49h124q103 0 160 63q58 64 58 174v1389q0 89 32 149q35 65 95 99q61 34 143 34h127v-49h-125q-102 0 -156 -63q-55 -64 -55 -174v-1389q0 -87 -33 -149q-35 -66 -94 -99q-61 -34 -143 -34h-127z" />
    <glyph glyph-name="approxequal" unicode="&#x2248;" horiz-adv-x="1421" 
d="M170 686l-8 -2q147 147 289 147q57 0 110 -12q55 -13 141 -49q77 -33 138 -49q55 -14 116 -14q74 0 129 30q54 29 127 99l37 -35q-148 -148 -288 -148q-50 0 -107 13q-53 12 -143 49q-89 35 -136 47q-62 16 -116 16q-71 0 -127 -30q-46 -25 -125 -97zM162 303l-8 -2
q148 148 288 148q54 0 111 -13q55 -13 141 -49q78 -34 137 -49q55 -14 117 -14q74 0 129 30q54 29 127 99l37 -35q-148 -148 -289 -148q-49 0 -106 13q-55 13 -144 49q-91 36 -135 47q-62 16 -116 16q-71 0 -127 -30q-46 -25 -125 -97z" />
    <glyph glyph-name="notequal" unicode="&#x2260;" horiz-adv-x="1300" 
d="M1133 776v-51h-345l-200 -344h545v-51h-574l-192 -330h-62l191 330h-328v51h358l201 344h-559v51h588l176 303h63l-176 -303h314z" />
    <glyph glyph-name="lessequal" unicode="&#x2264;" horiz-adv-x="1212" 
d="M137 670l924 383v-56l-881 -364l881 -365v-53l-924 381v74zM1061 0h-924v51h924v-51z" />
    <glyph glyph-name="greaterequal" unicode="&#x2265;" horiz-adv-x="1212" 
d="M152 997v56l923 -383v-74l-923 -381v53l880 365zM1075 0h-923v51h923v-51z" />
    <glyph glyph-name="uni2300" unicode="&#x2300;" horiz-adv-x="1368" 
d="M1096 920l-2 -5q70 -76 110 -174q39 -95 39 -204q0 -153 -76 -281q-77 -130 -204 -205q-128 -76 -281 -76q-106 0 -199 37q-96 38 -172 105l-125 -129l-41 41l125 129q-68 74 -110 176q-39 95 -39 207q0 152 76 280q77 130 204 205q128 76 281 76q108 0 201 -37
q98 -39 172 -104l127 129l41 -39zM211 352v-4q37 -91 98 -158l705 721q-65 59 -154 95q-79 32 -180 32q-136 0 -252 -67t-184 -185t-68 -251q0 -96 35 -183zM934 92l2 -4q118 71 184 186q68 118 68 252q0 95 -35 185t-98 159l-705 -720q65 -59 154 -95q79 -32 178 -32
q137 0 252 69z" />
    <glyph glyph-name="uni2460" unicode="&#x2460;" horiz-adv-x="1912" 
d="M1386 1522q197 -115 312 -312q114 -197 114 -430q0 -234 -114 -430t-312 -311t-430 -115t-430 115q-197 114 -311 311q-115 198 -115 430t115 430t311 312q197 114 430 114q234 0 430 -114zM1360 80q185 108 293 293q108 184 108 403t-108 404t-293 293
q-184 108 -404 108q-218 0 -403 -108t-293 -293t-108 -404q0 -218 108 -403t293 -293q186 -109 403 -109q218 0 404 109zM940 1245h49v-934h-55v752h-201v51h127q45 0 60 12t18 48z" />
    <glyph glyph-name="uni2461" unicode="&#x2461;" horiz-adv-x="1912" 
d="M1386 1522q197 -115 312 -312q114 -197 114 -430q0 -234 -114 -430t-312 -311t-430 -115t-430 115q-197 114 -311 311q-115 198 -115 430t115 430t311 312q197 114 430 114q234 0 430 -114zM1360 80q185 108 293 293q108 184 108 403t-108 404t-293 293
q-184 108 -404 108q-218 0 -403 -108t-293 -293t-108 -404q0 -218 108 -403t293 -293q186 -109 403 -109q218 0 404 109zM686 360h594v-49h-657v70l409 367q52 46 86 83q37 40 56 80q20 41 20 95q0 48 -29 98q-27 46 -84 74q-58 28 -131 28q-111 0 -178 -55
q-69 -57 -78 -143h-57q6 78 49 133q45 57 113 86q71 30 155 30q93 0 160 -34q68 -35 105 -93q36 -56 36 -124q0 -57 -22 -109q-20 -46 -59 -92q-33 -39 -95 -94z" />
    <glyph glyph-name="uni2462" unicode="&#x2462;" horiz-adv-x="1912" 
d="M524 35q-197 114 -311 311q-115 198 -115 430t115 430t311 312t430 114t430 -114q197 -115 312 -312q114 -196 114 -430t-114 -430t-312 -311t-430 -115t-430 115zM1360 80q185 108 293 293q108 184 108 403t-108 404t-293 293q-184 108 -404 108q-218 0 -403 -108
t-293 -293t-108 -404q0 -218 108 -403t293 -293q186 -109 403 -109q218 0 404 109zM721 358l-6 -6q-88 63 -103 176h60q12 -87 80 -137q67 -49 176 -49q74 0 141 25q64 24 105 77q40 52 40 129q0 69 -40 115q-42 49 -105 72q-65 24 -135 24h-45v50h45q68 0 123 24t90 68
t35 96q0 51 -31 96q-30 44 -86 68q-55 24 -129 24q-66 0 -119 -24q-54 -25 -80 -64q-29 -44 -35 -90h-59q6 66 47 119t105 80q69 29 141 29q80 0 156 -29q69 -26 110 -80q41 -53 41 -123q0 -71 -37 -117t-88 -69q-53 -24 -104 -33q54 -6 116 -31q61 -25 103 -76
q43 -52 43 -129q0 -91 -47 -153t-123 -92q-79 -31 -172 -31q-128 0 -213 61z" />
    <glyph glyph-name="uni2463" unicode="&#x2463;" horiz-adv-x="1912" 
d="M1386 1522q197 -115 312 -312q114 -197 114 -430q0 -234 -114 -430t-312 -311t-430 -115t-430 115q-197 114 -311 311q-115 198 -115 430t115 430t311 312q197 114 430 114q234 0 430 -114zM1360 80q185 108 293 293q108 184 108 403t-108 404t-293 293
q-184 108 -404 108q-218 0 -403 -108t-293 -293t-108 -404q0 -218 108 -403t293 -293q186 -109 403 -109q218 0 404 109zM1096 1245v-583h147v-52h-147v-299h-58v299h-518v68l459 567h117zM1038 1243l-465 -581h465v581z" />
    <glyph glyph-name="uni2464" unicode="&#x2464;" horiz-adv-x="1912" 
d="M1386 1522q197 -115 312 -312q114 -197 114 -430q0 -234 -114 -430t-312 -311t-430 -115t-430 115q-197 114 -311 311q-115 198 -115 430t115 430t311 312q197 114 430 114q234 0 430 -114zM1360 80q185 108 293 293q108 184 108 403t-108 404t-293 293
q-184 108 -404 108q-218 0 -403 -108t-293 -293t-108 -404q0 -218 108 -403t293 -293q186 -109 403 -109q218 0 404 109zM1128 903h-4q72 -41 111 -112q41 -74 41 -168q0 -99 -43 -172q-43 -72 -117 -113q-71 -39 -168 -39q-73 0 -149 29q-70 27 -117 80q-44 50 -57 127h59
q9 -55 47 -99q37 -43 92 -67q58 -25 123 -25q77 0 139 35q63 35 97 96q35 62 35 146q0 83 -35 145q-35 63 -95 92q-64 31 -137 31q-92 0 -159 -43q-68 -44 -105 -119l-57 4l51 512h547v-49h-494l-41 -414q35 69 105 115q71 47 172 47q91 0 159 -39z" />
    <glyph glyph-name="uni2465" unicode="&#x2465;" horiz-adv-x="1912" 
d="M1386 1522q197 -115 312 -312q114 -197 114 -430q0 -234 -114 -430t-312 -311t-430 -115t-430 115q-197 114 -311 311q-115 198 -115 430t115 430t311 312q197 114 430 114q234 0 430 -114zM1360 80q185 108 293 293q108 184 108 403t-108 404t-293 293
q-184 108 -404 108q-218 0 -403 -108t-293 -293t-108 -404q0 -218 108 -403t293 -293q186 -109 403 -109q218 0 404 109zM1135 885l8 -6q68 -36 110 -109q39 -68 39 -166q0 -94 -43 -164t-119 -110q-74 -39 -165 -39q-167 0 -258 123q-93 125 -93 360q0 157 43 264
q43 108 121 164q76 55 183 55q120 0 196 -61q77 -62 111 -168h-58q-26 81 -92 131q-64 49 -160 49q-95 0 -159 -55q-63 -55 -99 -152q-32 -88 -32 -221q0 -8 4 -86q15 65 59 119q44 53 105 80q66 29 133 29q96 0 166 -37zM1102 373l-6 -4q60 34 98 96q37 61 37 135
q0 73 -31 137q-28 58 -92 94q-62 35 -145 35q-81 0 -142 -37q-63 -38 -96 -92q-35 -56 -35 -112q0 -69 31 -136q30 -64 92 -108q61 -43 152 -43q75 0 137 35z" />
    <glyph glyph-name="uni2466" unicode="&#x2466;" horiz-adv-x="1912" 
d="M1386 1522q197 -115 312 -312q114 -197 114 -430q0 -234 -114 -430t-312 -311t-430 -115t-430 115q-197 114 -311 311q-115 198 -115 430t115 430t311 312q197 114 430 114q234 0 430 -114zM1360 80q185 108 293 293q108 184 108 403t-108 404t-293 293
q-184 108 -404 108q-218 0 -403 -108t-293 -293t-108 -404q0 -218 108 -403t293 -293q186 -109 403 -109q218 0 404 109zM1206 1196h-526v49h582v-69l-451 -865h-70z" />
    <glyph glyph-name="uni2467" unicode="&#x2467;" horiz-adv-x="1912" 
d="M524 35q-197 114 -311 311q-115 198 -115 430t115 430t311 312t430 114t430 -114q197 -115 312 -312q114 -196 114 -430t-114 -430t-312 -311t-430 -115t-430 115zM1360 80q185 108 293 293q108 184 108 403t-108 404t-293 293q-184 108 -404 108q-218 0 -403 -108
t-293 -293t-108 -404q0 -218 108 -403t293 -293q186 -109 403 -109q218 0 404 109zM786 330h-12q-79 36 -123 94q-45 60 -45 145q0 80 41 133q42 55 96 78q59 25 105 31q-50 9 -96 33q-44 23 -80 71q-33 44 -33 111q0 66 39 117q43 55 110 84q70 30 164 30t164 -30
q72 -31 109 -82q37 -52 37 -117q0 -95 -66 -149q-65 -53 -145 -68q45 -5 104 -31q54 -23 96 -78q41 -53 41 -133q0 -85 -45 -145q-44 -58 -123 -94q-73 -33 -168 -33q-97 0 -170 33zM1081 864h-4q57 25 84 68q29 47 29 94q0 49 -31 94q-30 44 -86 68q-55 24 -133 24
q-76 0 -135 -24q-57 -24 -88 -68q-31 -45 -31 -94q0 -47 29 -94q27 -44 86 -68t141 -24q84 0 139 24zM1075 371l-4 -2q64 24 105 77t41 123q0 73 -39 121q-41 50 -105 74q-65 24 -137 24t-137 -24q-64 -24 -105 -74q-39 -48 -39 -121q0 -70 41 -123q39 -50 105 -75
q67 -25 139 -25q68 0 135 25z" />
    <glyph glyph-name="uni2468" unicode="&#x2468;" horiz-adv-x="1912" 
d="M1386 1522q197 -115 312 -312q114 -197 114 -430q0 -234 -114 -430t-312 -311t-430 -115t-430 115q-197 114 -311 311q-115 198 -115 430t115 430t311 312q197 114 430 114q234 0 430 -114zM1360 80q185 108 293 293q108 184 108 403t-108 404t-293 293
q-184 108 -404 108q-218 0 -403 -108t-293 -293t-108 -404q0 -218 108 -403t293 -293q186 -109 403 -109q218 0 404 109zM1212 1137l-4 2q92 -124 92 -359q0 -157 -43 -264t-122 -162t-185 -55q-120 0 -196 61q-77 62 -111 168h59q26 -78 91 -131q61 -49 157 -49t160 55
q62 53 98 152q33 90 33 221q0 8 -4 86q-15 -65 -59 -119q-43 -52 -105 -79q-66 -29 -131 -29q-96 0 -166 37q-69 37 -110 108q-39 68 -39 166q0 94 43 164q44 72 118 111t166 39q166 0 258 -123zM1092 719v-4q63 38 96 92q35 56 35 115q0 68 -31 135q-30 64 -92 108
q-61 43 -150 43q-80 0 -137 -32q-62 -35 -96 -95q-35 -62 -35 -135t31 -137q28 -58 92 -94q59 -33 145 -33q81 0 142 37z" />
    <glyph glyph-name="uni24EA" unicode="&#x24ea;" horiz-adv-x="1912" 
d="M524 35q-197 114 -311 311q-115 198 -115 430t115 430t311 312t430 114t430 -114q197 -115 312 -312q114 -196 114 -430t-114 -430t-312 -311t-430 -115t-430 115zM1360 80q185 108 293 293q108 184 108 403t-108 404t-293 293q-184 108 -404 108q-218 0 -403 -108
t-293 -293t-108 -404q0 -218 108 -403t293 -293q186 -109 403 -109q218 0 404 109zM770 352l-4 -2q-75 54 -119 164q-43 107 -43 258q0 155 43 262q43 108 121 164q76 55 184 55q109 0 185 -55t120 -164q43 -107 43 -260q0 -151 -43 -258q-45 -111 -118 -164
q-76 -55 -185 -55q-108 0 -184 55zM1161 453l-2 -2q76 110 76 321q0 214 -76 324t-211 110q-133 0 -209 -110q-75 -109 -75 -322q0 -144 34 -237q36 -97 99 -146q64 -49 153 -49q134 0 211 111z" />
    <glyph glyph-name="uni24FF" unicode="&#x24ff;" horiz-adv-x="1912" 
d="M524 35q-197 114 -311 311q-115 198 -115 430t115 430t311 312t430 114t430 -114q197 -115 312 -312q114 -196 114 -430t-114 -430t-312 -311t-430 -115t-430 115zM1139 352l-4 -2q76 55 120 164q43 107 43 258q0 155 -43 262q-45 111 -118 164q-76 55 -185 55
q-108 0 -184 -55q-75 -54 -119 -164q-43 -107 -43 -260q0 -151 43 -258q43 -108 121 -164q76 -55 184 -55q109 0 185 55zM797 391q-63 49 -99 146q-34 93 -34 237q0 210 77 322q76 110 209 110q135 0 211 -110t76 -322q0 -211 -76 -321q-77 -111 -211 -111q-89 0 -153 49z
" />
    <glyph glyph-name="filledbox" unicode="&#x25a0;" horiz-adv-x="1509" 
d="M1294 0h-1079v1079h1079v-1079z" />
    <glyph glyph-name="uni25A1" unicode="&#x25a1;" horiz-adv-x="1509" 
d="M1294 0h-1079v1079h1079v-1079zM268 1026v-973h973v973h-973z" />
    <glyph glyph-name="lozenge" unicode="&#x25ca;" horiz-adv-x="1300" 
d="M614 1556h72l504 -778l-504 -778h-72l-503 778zM172 778l479 -741l479 739l-479 744z" />
    <glyph glyph-name="circle" unicode="&#x25cb;" horiz-adv-x="1411" 
d="M416 41v-2q-132 77 -209 209q-78 135 -78 289q0 153 78 288q77 132 209 209q135 78 289 78q157 0 288 -76q132 -77 209 -209q78 -135 78 -288q0 -154 -78 -289q-77 -132 -209 -209q-135 -78 -288 -78q-154 0 -289 78zM967 86l-2 -2q120 70 190 190q70 119 70 265
q0 141 -70 260q-70 120 -190 190q-119 70 -260 70q-146 0 -265 -70q-120 -70 -190 -190q-70 -119 -70 -260q0 -146 70 -265q70 -120 190 -190q119 -70 265 -70q139 0 262 72z" />
    <glyph glyph-name="uni25CF" unicode="&#x25cf;" horiz-adv-x="1411" 
d="M416 41v-2q-132 77 -209 209q-78 135 -78 289q0 153 78 288q77 132 209 209q135 78 289 78q157 0 288 -76q132 -77 209 -209q78 -135 78 -288q0 -154 -78 -289q-77 -132 -209 -209q-135 -78 -288 -78q-154 0 -289 78z" />
    <glyph glyph-name="uni2776" unicode="&#x2776;" horiz-adv-x="1912" 
d="M524 35q-197 114 -311 311q-115 198 -115 430t115 430t311 312t430 114t430 -114q197 -115 312 -312q114 -196 114 -430t-114 -430t-312 -311t-430 -115t-430 115zM934 311h55v934h-49l-2 -71q-3 -36 -18 -48t-60 -12h-127v-51h201v-752z" />
    <glyph glyph-name="uni2777" unicode="&#x2777;" horiz-adv-x="1912" 
d="M524 35q-197 114 -311 311q-115 198 -115 430t115 430t311 312t430 114t430 -114q197 -115 312 -312q114 -196 114 -430t-114 -430t-312 -311t-430 -115t-430 115zM629 311l663 -8v49h-598l391 350q50 45 95 97q39 46 59 92q23 54 23 108q0 69 -37 127t-105 93
q-67 34 -159 34q-85 0 -156 -30q-68 -29 -113 -86q-43 -55 -49 -131h57q9 88 78 145q67 55 178 55q73 0 131 -28q57 -28 84 -74q29 -50 29 -98q0 -54 -20 -95q-19 -40 -56 -80q-34 -37 -86 -83l-409 -367v-70z" />
    <glyph glyph-name="uni2778" unicode="&#x2778;" horiz-adv-x="1912" 
d="M524 35q-197 114 -311 311q-115 198 -115 430t115 430t311 312t430 114t430 -114q197 -115 312 -312q114 -196 114 -430t-114 -430t-312 -311t-430 -115t-430 115zM1106 328q76 30 123 92t47 153q0 77 -41 127q-42 51 -98 74q-66 27 -117 35q86 15 154 68q67 52 67 149
q0 70 -41 123q-41 54 -110 80q-73 28 -156 28q-74 0 -141 -28q-64 -27 -105 -80q-39 -50 -45 -119h59q6 46 35 90q28 42 80 66q53 24 119 24q74 0 129 -24q56 -24 86 -68q31 -45 31 -94q0 -54 -33 -96q-35 -44 -90 -68t-123 -24h-45v-50h45q70 0 135 -24t105 -70
q41 -47 41 -114q0 -78 -39 -129q-42 -55 -105 -78q-67 -25 -141 -25q-107 0 -174 49q-68 50 -80 140h-60q15 -114 103 -177q85 -61 213 -61q93 0 172 31z" />
    <glyph glyph-name="uni2779" unicode="&#x2779;" horiz-adv-x="1912" 
d="M524 35q-197 114 -311 311q-115 198 -115 430t115 430t311 312t430 114t430 -114q197 -115 312 -312q114 -196 114 -430t-114 -430t-312 -311t-430 -115t-430 115zM520 678v-68h518v-299h58v299h147v52h-147v583h-117zM1038 662h-469l469 579v-579z" />
    <glyph glyph-name="uni277A" unicode="&#x277a;" horiz-adv-x="1912" 
d="M524 35q-197 114 -311 311q-115 198 -115 430t115 430t311 312t430 114t430 -114q197 -115 312 -312q114 -196 114 -430t-114 -430t-312 -311t-430 -115t-430 115zM1120 336l-6 -14q74 40 117 114q43 73 43 172t-39 170q-40 72 -111 113q-68 39 -159 39q-104 0 -172 -45
q-71 -47 -105 -113l41 414h494v49h-547l-51 -512l57 -4q39 79 104 121q67 43 160 43q73 0 137 -31q62 -30 97 -92q34 -61 34 -146q0 -84 -34 -145t-97 -96q-59 -33 -139 -33q-65 0 -123 25q-55 24 -92 67q-36 42 -45 98h-59q12 -74 59 -127q46 -52 117 -79q76 -29 149 -29
q96 0 170 41z" />
    <glyph glyph-name="uni277B" unicode="&#x277b;" horiz-adv-x="1912" 
d="M524 35q-197 114 -311 311q-115 198 -115 430t115 430t311 312t430 114t430 -114q197 -115 312 -312q114 -196 114 -430t-114 -430t-312 -311t-430 -115t-430 115zM1122 336h-10q76 40 119 110t43 164q0 98 -39 166q-41 72 -111 109t-166 37q-65 0 -131 -29
q-59 -26 -104 -80q-44 -54 -59 -119q-1 18 -3 48t-2 40q0 132 33 222q35 96 99 151t159 55q96 0 160 -49q66 -50 92 -131h58q-34 106 -111 168t-197 62q-105 0 -182 -56q-79 -57 -121 -162q-43 -107 -43 -264q0 -234 92 -358q92 -123 258 -123q92 0 166 39zM795 389l4 -2
q-62 44 -92 109q-31 67 -31 135q0 58 35 114q35 55 96 93q59 36 141 36q89 0 146 -32q64 -36 92 -94q31 -64 31 -138t-37 -135q-36 -58 -99 -94q-62 -35 -137 -35q-88 0 -149 43z" />
    <glyph glyph-name="uni277C" unicode="&#x277c;" horiz-adv-x="1912" 
d="M524 35q-197 114 -311 311q-115 198 -115 430t115 430t311 312t430 114t430 -114q197 -115 312 -312q114 -196 114 -430t-114 -430t-312 -311t-430 -115t-430 115zM1208 1196l-467 -885h70l451 865v69h-582v-49h528z" />
    <glyph glyph-name="uni277D" unicode="&#x277d;" horiz-adv-x="1912" 
d="M524 35q-197 114 -311 311q-115 198 -115 430t115 430t311 312t430 114t430 -114q197 -115 312 -312q114 -196 114 -430t-114 -430t-312 -311t-430 -115t-430 115zM1126 330l11 -2q79 36 123 94q47 62 47 145q0 113 -74 172q-72 58 -160 76q45 9 92 33q49 25 78 70
q31 48 31 110q0 66 -39 117q-42 55 -111 84q-73 31 -161 31q-89 0 -162 -31q-71 -30 -111 -82q-39 -51 -39 -117q0 -62 31 -110q29 -45 78 -70q47 -24 92 -33q-89 -18 -162 -76q-74 -59 -74 -172q0 -82 48 -145q45 -59 122 -94q73 -33 170 -33t170 33zM827 862
q-59 24 -86 68q-26 42 -26 94q0 50 30 94t89 68q58 24 135 24t135 -24q57 -24 88 -68q31 -45 31 -94q0 -50 -27 -94t-86 -68q-58 -24 -141 -24t-142 24zM827 369l-8 -2q-63 23 -104 77q-39 51 -39 123q0 71 41 121q42 51 104 74q65 24 140 24t139 -24q62 -23 104 -74
q41 -50 41 -121q0 -72 -39 -123t-104 -75q-67 -25 -137 -25q-71 0 -138 25z" />
    <glyph glyph-name="uni277E" unicode="&#x277e;" horiz-adv-x="1912" 
d="M524 35q-197 114 -311 311q-115 198 -115 430t115 430t311 312t430 114t430 -114q197 -115 312 -312q114 -196 114 -430t-114 -430t-312 -311t-430 -115t-430 115zM786 1221v-9q-74 -39 -118 -110q-43 -70 -43 -162q0 -98 39 -166q41 -71 110 -108q70 -37 166 -37
q69 0 133 28q61 27 105 80q44 54 59 119q4 -82 4 -88q0 -131 -33 -221q-35 -96 -98 -150q-64 -55 -160 -55t-157 49t-88 131h-60q34 -106 111 -168q76 -61 196 -61q106 0 185 55t123 164q43 107 43 264q0 236 -93 361q-92 123 -258 123q-92 0 -166 -39zM1102 1159l-4 -4
q62 -44 92 -108q31 -67 31 -136q0 -56 -35 -112q-33 -54 -96 -92q-61 -37 -142 -37t-143 35q-64 36 -92 94q-31 64 -31 139q0 73 35 135q33 59 96 94q62 35 137 35q91 0 152 -43z" />
    <glyph glyph-name="uniF8FF" unicode="&#xf8ff;" horiz-adv-x="1732" 
d="M948 797h719v-33h-719l664 -275l-10 -30l-666 274l508 -508l-23 -24l-508 508l275 -662l-31 -14l-272 657v-713h-35v721l-277 -665l-30 14l274 660l-506 -506l-22 24l508 508l-666 -274l-12 30l663 275h-719v33h719l-663 274l12 31l666 -275l-508 508l22 25l506 -506
l-274 659l32 15l275 -664v715h35v-709l272 658l31 -15l-275 -663l508 510l23 -25l-506 -508l661 275l13 -31z" />
    <glyph glyph-name="uniFEFF" unicode="&#xfeff;" horiz-adv-x="0" 
 />
    <glyph glyph-name="NULL" horiz-adv-x="0" 
 />
    <glyph glyph-name="uni004A0301" horiz-adv-x="688" 
d="M41 0l-4 59h106q81 0 140 19q56 18 86 65t30 129v1284h62v-1288q0 -145 -80 -207q-79 -61 -229 -61h-111zM469 1696h-63l268 243h80z" />
    <glyph glyph-name="G.ss03" horiz-adv-x="1628" 
d="M795 780l708 -12v-45q0 -217 -84 -393q-83 -174 -237 -269q-155 -96 -353 -96q-199 0 -360 103q-162 104 -252 282q-92 182 -92 416q0 230 92 416q89 179 252 284q161 103 354 103q170 0 301 -64q136 -67 222 -174q88 -111 135 -252h-66q-71 200 -221 320
q-149 119 -371 119q-171 0 -319 -97q-145 -95 -230 -264q-86 -170 -86 -381q0 -209 86 -383q84 -170 234 -266q146 -94 326 -94q178 0 315 88q138 88 215 246q77 157 80 356h-649v57z" />
    <glyph glyph-name="Gbreve.ss03" horiz-adv-x="1628" 
d="M795 780l708 -12v-45q0 -217 -84 -393q-83 -174 -237 -269q-155 -96 -353 -96q-199 0 -360 103q-162 104 -252 282q-92 182 -92 416q0 230 92 416q89 179 252 284q161 103 354 103q170 0 301 -64q136 -67 222 -174q88 -111 135 -252h-66q-71 200 -221 320
q-149 119 -371 119q-171 0 -319 -97q-145 -95 -230 -264q-86 -170 -86 -381q0 -209 86 -383q84 -170 234 -266q146 -94 326 -94q178 0 315 88q138 88 215 246q77 157 80 356h-649v57zM680 1706l2 2q-58 34 -88 90q-31 57 -31 127h51q0 -98 56 -151q57 -54 151 -54
q97 0 154 54q55 52 55 151h51q0 -71 -30 -129q-29 -57 -88 -92q-56 -33 -142 -33q-82 0 -141 35z" />
    <glyph glyph-name="Gcaron.ss03" horiz-adv-x="1628" 
d="M795 780l708 -12v-45q0 -217 -84 -393q-83 -174 -237 -269q-155 -96 -353 -96q-199 0 -360 103q-162 104 -252 282q-92 182 -92 416q0 230 92 416q89 179 252 284q161 103 354 103q170 0 301 -64q136 -67 222 -174q88 -111 135 -252h-66q-71 200 -221 320
q-149 119 -371 119q-171 0 -319 -97q-145 -95 -230 -264q-86 -170 -86 -381q0 -209 86 -383q84 -170 234 -266q146 -94 326 -94q178 0 315 88q138 88 215 246q77 157 80 356h-649v57zM823 1712l262 213h64l-283 -244h-90l-280 244h63z" />
    <glyph glyph-name="Gcircumflex.ss03" horiz-adv-x="1628" 
d="M795 780l708 -12v-45q0 -217 -84 -393q-83 -174 -237 -269q-155 -96 -353 -96q-199 0 -360 103q-162 104 -252 282q-92 182 -92 416q0 230 92 416q89 179 252 284q161 103 354 103q170 0 301 -64q136 -67 222 -174q88 -111 135 -252h-66q-71 200 -221 320
q-149 119 -371 119q-171 0 -319 -97q-145 -95 -230 -264q-86 -170 -86 -381q0 -209 86 -383q84 -170 234 -266q146 -94 326 -94q178 0 315 88q138 88 215 246q77 157 80 356h-649v57zM868 1925l283 -244h-64l-262 213l-264 -213h-63l280 244h90z" />
    <glyph glyph-name="uni0122.ss03" horiz-adv-x="1628" 
d="M795 780l708 -12v-45q0 -217 -84 -393q-83 -174 -237 -269q-155 -96 -353 -96q-199 0 -360 103q-162 104 -252 282q-92 182 -92 416q0 230 92 416q89 179 252 284q161 103 354 103q170 0 301 -64q136 -67 222 -174q88 -111 135 -252h-66q-71 200 -221 320
q-149 119 -371 119q-171 0 -319 -97q-145 -95 -230 -264q-86 -170 -86 -381q0 -209 86 -383q84 -170 234 -266q146 -94 326 -94q178 0 315 88q138 88 215 246q77 157 80 356h-649v57zM805 -408v240h63v-244l-73 -147h-62z" />
    <glyph glyph-name="Gdotaccent.ss03" horiz-adv-x="1628" 
d="M795 780l708 -12v-45q0 -217 -84 -393q-83 -174 -237 -269q-155 -96 -353 -96q-199 0 -360 103q-162 104 -252 282q-92 182 -92 416q0 230 92 416q89 179 252 284q161 103 354 103q170 0 301 -64q136 -67 222 -174q88 -111 135 -252h-66q-71 200 -221 320
q-149 119 -371 119q-171 0 -319 -97q-145 -95 -230 -264q-86 -170 -86 -381q0 -209 86 -383q84 -170 234 -266q146 -94 326 -94q178 0 315 88q138 88 215 246q77 157 80 356h-649v57zM854 1681h-63v244h63v-244z" />
    <glyph glyph-name="Adieresis.titl" horiz-adv-x="1480" 
d="M1464 0h-67l-221 539h-871l-221 -539h-68l641 1556h66l-395 -960h825l-395 960h67zM303 1311h-63v245h63v-245zM1262 1311h-64v245h64v-245z" />
    <glyph glyph-name="Odieresis.titl" horiz-adv-x="1697" 
d="M477 78v-4q-166 104 -256 282q-92 182 -92 416t92 416q90 178 256 282q165 103 373 103q209 0 369 -100q165 -103 256 -283q92 -182 92 -416t-92 -416q-90 -178 -256 -282q-162 -101 -369 -101q-208 0 -373 103zM1186 123v-4q149 94 235 264t86 385t-86 385t-235 264
q-152 96 -338 96q-189 0 -338 -94q-151 -95 -236 -264q-86 -170 -86 -385t86 -385q85 -169 236 -264q149 -94 338 -94q186 0 338 96zM127 1300h-64v246h64v-246zM1630 1300h-63v246h63v-246z" />
    <glyph glyph-name="Udieresis.titl" horiz-adv-x="1595" 
d="M645 1311h-63v245h63v-245zM1014 1311h-64v245h64v-245zM356 143v2q-143 165 -143 478v4v932h61v-934v-4q0 -287 132 -437q131 -149 393 -149q260 0 393 151q131 149 131 437v933h61v-931q0 -312 -143 -480t-442 -168t-443 166z" />
    <glyph glyph-name="I_J.loclNLD" horiz-adv-x="1009" 
d="M170 0l-2 59h301q78 0 137 19q56 18 86 65q31 48 31 129v1284h61v-1288q0 -146 -79 -207t-232 -61h-303zM229 461h-61v1098h61v-1098z" />
    <glyph glyph-name="A.inferior" horiz-adv-x="763" 
d="M752 -233h-60l-100 258h-420l-100 -258h-60l305 778h60l-184 -471h380l-184 471h60z" />
    <glyph glyph-name="B.inferior" horiz-adv-x="739" 
d="M614 113v-2q62 -53 62 -138q0 -98 -76 -153q-77 -56 -217 -56h-264v779h264q80 0 141 -25t90 -67q31 -45 31 -101q0 -78 -51 -123t-141 -57q101 -6 161 -57zM532 453v-2q-56 41 -151 41h-209v-302h209q95 0 151 41t56 111t-56 111zM381 -188q118 0 176 43q59 44 59 122
q0 77 -59 121q-58 43 -176 43h-209v-329h209z" />
    <glyph glyph-name="C.inferior" horiz-adv-x="808" 
d="M240 -195l-7 -6q-81 53 -127 144q-47 92 -47 209q0 116 47 208t130 142q82 49 180 49q128 0 213 -70q87 -72 121 -184h-58q-36 98 -104 152q-70 55 -172 55q-85 0 -150 -45q-68 -47 -108 -125q-39 -77 -39 -182q0 -103 41 -183q40 -78 108 -125q65 -45 146 -45
q108 0 182 56q76 57 109 153h57q-41 -124 -129 -188q-91 -66 -217 -66q-99 0 -176 51z" />
    <glyph glyph-name="D.inferior" horiz-adv-x="823" 
d="M375 545v-4q117 0 200 -45q87 -47 134 -134q47 -86 47 -208q0 -123 -47 -209q-46 -85 -134 -133q-83 -45 -200 -45h-256v778h256zM375 -188l-2 -5q98 0 172 41q73 40 114 117t41 185q0 107 -41 184q-41 78 -112 117q-74 41 -172 41h-201v-680h201z" />
    <glyph glyph-name="E.inferior" horiz-adv-x="675" 
d="M174 145v-329h438v-49h-493v778h483v-49h-428v-301h422v-50h-422z" />
    <glyph glyph-name="F.inferior" horiz-adv-x="643" 
d="M594 545v-49h-420v-314h414v-49h-414v-366h-55v778h475z" />
    <glyph glyph-name="G.inferior" horiz-adv-x="858" 
d="M403 168l365 2v-401h-49v219q-15 -57 -53 -111q-36 -51 -99 -86q-62 -35 -145 -35q-99 0 -178 49q-80 50 -127 142t-47 211q0 117 47 209q47 91 129 141q82 49 184 49q128 0 213 -70q87 -72 121 -180h-57q-36 91 -105 146q-70 55 -174 55q-86 0 -154 -45t-110 -127
q-39 -77 -39 -180t41 -183q40 -79 110 -125q68 -45 154 -45q81 0 145 37q65 38 103 109q37 70 37 170h-312v49z" />
    <glyph glyph-name="H.inferior" horiz-adv-x="827" 
d="M653 195v350h56v-778h-56v378h-479v-378h-55v778h55v-350h479z" />
    <glyph glyph-name="I.inferior" horiz-adv-x="292" 
d="M174 -233h-55v778h55v-778z" />
    <glyph glyph-name="J.inferior" horiz-adv-x="372" 
d="M25 -233v49h57q57 0 86 20q31 22 31 82v627h55v-635q0 -69 -41 -107q-39 -36 -123 -36h-65z" />
    <glyph glyph-name="K.inferior" horiz-adv-x="720" 
d="M248 178l477 -411h-78l-471 407v-407h-55v778h55v-363l432 363h76z" />
    <glyph glyph-name="L.inferior" horiz-adv-x="563" 
d="M174 545v-729h365v-49h-420v778h55z" />
    <glyph glyph-name="M.inferior" horiz-adv-x="1081" 
d="M174 -233h-55v778h55v-778zM535 -233h-58l-291 778h58zM604 -233h-57l291 778h57zM963 -233h-54v778h54v-778z" />
    <glyph glyph-name="N.inferior" horiz-adv-x="872" 
d="M174 -233h-55v778h55v-778zM684 -233h-57l-441 778h60zM754 -233h-56v778h56v-778z" />
    <glyph glyph-name="O.inferior" horiz-adv-x="864" 
d="M242 -197q-82 49 -129 142q-47 92 -47 211t47 211q47 91 129 141q82 49 190 49q109 0 191 -49q83 -50 129 -141q47 -92 47 -211t-47 -211q-47 -93 -129 -142t-191 -49q-108 0 -190 49zM590 -156l-4 -4q68 45 110 127q41 80 41 183q0 105 -39 182q-42 82 -110 127t-160 45
t-160 -45q-70 -46 -110 -125q-39 -77 -39 -182q0 -103 41 -183q40 -79 110 -125q68 -45 160 -45t160 45z" />
    <glyph glyph-name="P.inferior" horiz-adv-x="710" 
d="M367 545v-2q139 0 221 -60q80 -59 80 -172q0 -112 -80 -174q-79 -61 -221 -61h-193v-309h-55v778h248zM367 123v2q115 0 180 47q63 45 63 135q0 94 -63 139q-67 48 -180 48h-193v-371h193z" />
    <glyph glyph-name="Q.inferior" horiz-adv-x="866" 
d="M887 -233l-78 -5l-127 86q-47 -47 -111 -71q-67 -25 -141 -25q-108 0 -190 49t-129 142q-48 94 -48 211t48 211q47 91 129 141q82 49 190 49q109 0 191 -49q83 -50 129 -141q47 -92 47 -211q0 -74 -23 -148q-22 -70 -61 -121zM543 -182l2 -6q52 21 92 61l-205 139h80
l156 -106q35 48 53 108q18 62 18 131q0 106 -39 183q-42 82 -110 127t-160 45t-160 -45q-70 -46 -110 -125q-39 -77 -39 -183q0 -102 41 -182q40 -79 110 -125q68 -45 160 -45q54 0 111 23z" />
    <glyph glyph-name="R.inferior" horiz-adv-x="731" 
d="M690 -233l-61 -5l-226 344h-14h-213v-344h-55v779h268q121 0 191 -58q71 -59 71 -159q0 -84 -51 -138t-141 -69zM176 156l213 2q95 0 150 43t55 121t-55 124t-148 46h-215v-336z" />
    <glyph glyph-name="S.inferior" horiz-adv-x="706" 
d="M207 -217l2 -16q-64 30 -105 86q-40 54 -49 127h58q12 -89 80 -142q66 -51 161 -51q69 0 127 25t84 67q29 47 29 98q0 44 -23 74q-22 29 -67 49q-50 23 -123 37l-88 19q-95 21 -154 65q-57 42 -57 127q0 56 35 103q34 46 96 73q61 27 137 27q116 0 195 -55t94 -154h-57
q-15 77 -80 121q-64 43 -154 43q-58 0 -110 -19q-48 -18 -76 -53q-27 -34 -27 -76q0 -45 25 -73t65 -43q46 -17 109 -31l88 -21q120 -27 172 -73q53 -47 53 -123q0 -70 -37 -125q-38 -57 -104 -86q-70 -31 -158 -31q-74 0 -141 31z" />
    <glyph glyph-name="T.inferior" horiz-adv-x="638" 
d="M23 545h593v-49h-270v-729h-55v729h-268v49z" />
    <glyph glyph-name="U.inferior" horiz-adv-x="815" 
d="M182 -162l-2 -4q-74 83 -74 238v4v465h56v-469v-4q0 -134 61 -201q62 -68 183 -68t182 70t61 205v469h56v-465q0 -157 -74 -240q-75 -84 -225 -84q-149 0 -224 84z" />
    <glyph glyph-name="V.inferior" horiz-adv-x="747" 
d="M367 -233h-60l-295 778h62zM440 -233h-59l293 778h61z" />
    <glyph glyph-name="W.inferior" horiz-adv-x="1161" 
d="M311 -233h-57l-229 778h57zM383 -233h-57l190 778h57zM836 -233h-58l-190 778h57zM905 -233h-57l229 778h58z" />
    <glyph glyph-name="X.inferior" horiz-adv-x="776" 
d="M426 186l340 -419h-68l-309 380l-311 -380h-68l340 419l-291 359h68l260 -320l262 320h68z" />
    <glyph glyph-name="Y.inferior" horiz-adv-x="679" 
d="M608 545h64l-303 -432v-346h-56v344l-305 434h64l268 -383z" />
    <glyph glyph-name="Z.inferior" horiz-adv-x="686" 
d="M637 479l-539 -663h557v-49h-614v65l539 664h-533v49h590v-66z" />
    <glyph glyph-name="G.ss03.inferior" horiz-adv-x="831" 
d="M401 168l359 2v-35q0 -111 -43 -196q-45 -88 -119 -136q-76 -49 -178 -49t-184 49q-83 50 -130 142t-47 209q0 116 47 208t130 142q82 49 184 49q127 0 213 -68q87 -69 121 -178h-58q-37 94 -100 146q-67 55 -174 55q-86 0 -154 -45t-110 -127q-39 -77 -39 -180t41 -183
q40 -79 110 -125q68 -45 154 -45q82 0 147 41q66 41 103 111t37 164h-310v49z" />
    <glyph glyph-name="A.superior" horiz-adv-x="763" 
d="M752 780h-60l-100 258h-420l-100 -258h-60l305 779h60l-184 -472h380l-184 472h60z" />
    <glyph glyph-name="B.superior" horiz-adv-x="739" 
d="M614 1124v-2q62 -53 62 -137q0 -99 -76 -154t-217 -55h-264v778h264q83 0 141 -24q60 -25 90 -68q31 -45 31 -100q0 -78 -51 -123t-141 -57q100 -6 161 -58zM532 1464v-2q-56 41 -151 41h-209v-301h209q95 0 151 41t56 111q0 69 -56 110zM381 823q118 0 176 43
q59 44 59 123q0 77 -59 121q-58 43 -176 43h-209v-330h209z" />
    <glyph glyph-name="C.superior" horiz-adv-x="808" 
d="M240 817l-7 -6q-82 54 -127 143q-47 92 -47 209t47 209q46 91 130 141q83 50 180 50q128 0 213 -70q87 -72 121 -184h-58q-35 97 -104 151q-71 56 -172 56q-83 0 -150 -46q-69 -48 -108 -124q-39 -77 -39 -183q0 -102 41 -182q40 -78 108 -125q65 -45 146 -45
q109 0 182 55q75 57 109 154h57q-41 -125 -129 -189q-89 -65 -217 -65q-99 0 -176 51z" />
    <glyph glyph-name="D.superior" horiz-adv-x="823" 
d="M375 1556v-4q117 0 200 -45q88 -48 134 -133q47 -86 47 -209t-47 -209q-46 -85 -134 -133q-83 -45 -200 -45h-256v778h256zM375 823l-2 -4q98 0 172 41q73 40 114 117t41 184q0 108 -41 185t-112 116q-74 41 -172 41h-201v-680h201z" />
    <glyph glyph-name="E.superior" horiz-adv-x="675" 
d="M174 1157v-330h438v-49h-493v778h483v-49h-428v-301h422v-49h-422z" />
    <glyph glyph-name="F.superior" horiz-adv-x="643" 
d="M594 1556v-49h-420v-313h414v-49h-414v-367h-55v778h475z" />
    <glyph glyph-name="G.superior" horiz-adv-x="858" 
d="M403 1180l365 2v-402h-49v219q-14 -56 -53 -110q-36 -51 -99 -86q-62 -35 -145 -35q-99 0 -178 49q-81 50 -127 141q-47 92 -47 211q0 117 47 209q47 93 129 142t184 49q128 0 213 -70q87 -72 121 -180h-57q-35 90 -105 145q-71 56 -174 56q-86 0 -154 -45t-110 -127
q-39 -77 -39 -181q0 -102 41 -182q40 -79 110 -125q68 -45 154 -45q81 0 145 37q65 38 103 109q37 70 37 169h-312v50z" />
    <glyph glyph-name="H.superior" horiz-adv-x="827" 
d="M653 1206v350h56v-778h-56v379h-479v-379h-55v778h55v-350h479z" />
    <glyph glyph-name="I.superior" horiz-adv-x="292" 
d="M174 778h-55v778h55v-778z" />
    <glyph glyph-name="J.superior" horiz-adv-x="372" 
d="M27 778v49h57q56 0 86 21q31 22 31 82v626h55v-634q0 -69 -41 -107q-40 -37 -123 -37h-65z" />
    <glyph glyph-name="K.superior" horiz-adv-x="720" 
d="M246 1190l477 -412h-78l-471 408v-408h-55v778h55v-362l432 362h76z" />
    <glyph glyph-name="L.superior" horiz-adv-x="563" 
d="M174 1556v-729h365v-49h-420v778h55z" />
    <glyph glyph-name="M.superior" horiz-adv-x="1081" 
d="M174 778h-55v778h55v-778zM535 778h-58l-291 778h58zM604 778h-57l291 778h57zM963 778h-54v778h54v-778z" />
    <glyph glyph-name="N.superior" horiz-adv-x="872" 
d="M174 778h-55v778h55v-778zM684 778h-57l-441 778h60zM754 778h-56v778h56v-778z" />
    <glyph glyph-name="O.superior" horiz-adv-x="864" 
d="M242 815q-82 49 -129 141t-47 211t47 211q47 93 129 142t190 49q109 0 191 -49t129 -142q47 -92 47 -211t-47 -211q-46 -92 -129 -141q-82 -49 -191 -49q-108 0 -190 49zM590 856l-4 -4q68 45 110 127q41 80 41 182q0 105 -39 182q-42 82 -110 127q-70 46 -160 46
t-160 -46q-71 -47 -110 -124t-39 -183q0 -102 41 -182q40 -79 110 -125q68 -45 160 -45t160 45z" />
    <glyph glyph-name="P.superior" horiz-adv-x="710" 
d="M367 1556v-2q141 0 221 -59t80 -172q0 -112 -80 -174t-221 -62h-193v-309h-55v778h248zM367 1135v2q115 0 180 47q63 45 63 135q0 94 -63 139q-65 47 -180 47h-193v-370h193z" />
    <glyph glyph-name="Q.superior" horiz-adv-x="866" 
d="M887 778l-78 -4l-127 86q-49 -49 -111 -72q-65 -24 -141 -24q-108 0 -190 49t-129 141q-48 94 -48 211t48 211q47 93 129 142t190 49q109 0 191 -49t129 -142q47 -92 47 -211q0 -73 -23 -147q-22 -70 -61 -121zM543 829l2 -6q50 20 92 62l-205 139h80l156 -106
q35 48 53 108q18 62 18 131q0 105 -39 182q-42 82 -110 127t-160 45t-160 -45q-70 -46 -110 -125q-39 -77 -39 -182q0 -102 41 -182q40 -79 110 -125q68 -45 160 -45q56 0 111 22z" />
    <glyph glyph-name="R.superior" horiz-adv-x="731" 
d="M690 778l-61 -4l-226 344h-14h-213v-344h-55v778h268q122 0 191 -57q71 -59 71 -160q0 -83 -51 -137q-52 -55 -141 -70zM176 1167l213 2q95 0 150 43t55 121q0 79 -55 125q-54 45 -148 45h-215v-336z" />
    <glyph glyph-name="S.superior" horiz-adv-x="706" 
d="M207 795l2 -17q-64 30 -105 86q-40 54 -49 127h58q12 -88 80 -141q66 -51 161 -51q72 0 127 24q57 25 84 68q29 47 29 98q0 44 -23 74q-22 29 -67 49q-50 23 -123 37l-88 18q-93 21 -154 66q-57 42 -57 127q0 55 35 102t96 74t137 27q115 0 195 -56q79 -55 94 -153h-57
q-15 77 -80 121q-64 43 -154 43q-58 0 -110 -19q-48 -18 -76 -53q-27 -34 -27 -76q0 -46 25 -74t65 -43q39 -14 109 -30l88 -21q119 -27 172 -74t53 -122q0 -70 -37 -125q-38 -57 -104 -86q-70 -31 -158 -31q-74 0 -141 31z" />
    <glyph glyph-name="T.superior" horiz-adv-x="638" 
d="M23 1556h593v-49h-270v-729h-55v729h-268v49z" />
    <glyph glyph-name="U.superior" horiz-adv-x="813" 
d="M182 850l-2 -4q-74 83 -74 237v4v465h56v-469v-4q0 -133 61 -200q62 -68 183 -68t182 70t61 204v469h56v-464q0 -157 -74 -240q-75 -84 -225 -84q-149 0 -224 84z" />
    <glyph glyph-name="V.superior" horiz-adv-x="747" 
d="M367 778h-60l-295 778h62zM440 778h-59l293 778h61z" />
    </font>
</defs>
</svg>
