<?xml version="1.0" standalone="no"?>
<!DOCTYPE svg PUBLIC "-//W3C//DTD SVG 1.1//EN" "http://www.w3.org/Graphics/SVG/1.1/DTD/svg11.dtd" >
<svg xmlns="http://www.w3.org/2000/svg" xmlns:xlink="http://www.w3.org/1999/xlink" version="1.1">
<metadata>
Created by FontForge 20170731 at Fri Apr 21 21:41:28 2023
 By Aleksey,,,
(c) 2014-2020. Copyright by TYPE.WELTKERN :. All rights reserved.
</metadata>
<defs>
<font id="TWKEverett-BoldItalic" horiz-adv-x="1536" >
  <font-face 
    font-family="TWK Everett"
    font-weight="700"
    font-style="italic"
    font-stretch="normal"
    units-per-em="2048"
    panose-1="2 11 2 4 0 0 0 0 0 0"
    ascent="1638"
    descent="-410"
    x-height="1112"
    cap-height="1556"
    bbox="-2001 -649 7047 2241"
    underline-thickness="223"
    underline-position="-701"
    slope="-12"
    unicode-range="U+000D-FEFF"
  />
<missing-glyph horiz-adv-x="1527" 
d="M1241 0h-1192l332 1556h1192zM645 1300l-219 -1044h551l221 1044h-553z" />
    <glyph glyph-name="fi" unicode="fi" horiz-adv-x="1411" 
d="M1399 1112l-234 -1114h-321l188 883h-407l-187 -883h-319l186 883h-199l50 229h198l31 145q30 145 139 222t289 77h203l-47 -223h-117q-78 0 -111 -26q-35 -28 -47 -88l-22 -105h727zM1108 1260l63 294h330l-63 -294h-330z" />
    <glyph glyph-name="fl" unicode="fl" horiz-adv-x="1411" 
d="M1163 0l-319 -2l284 1333h-274q-78 0 -111 -26q-35 -28 -47 -88l-22 -105h248l-50 -229h-247l-187 -883h-319l186 883h-199l50 229h198l31 145q30 145 139 222t289 77h680z" />
    <glyph glyph-name="W_W_W" unicode="WWW" horiz-adv-x="6856" 
d="M6109 59l606 1497h332l-645 -1556h-598l88 1497l-549 -1497h-600l19 1485l-615 -1485h-600l88 1491l-549 -1491h-600l19 1481l-615 -1481h-598l88 1497l-549 -1497h-600l19 1556h317l-28 -1493l555 1493h583l-80 -1493l607 1493h618l-29 -1493l555 1493h586l-82 -1499
l609 1499h618l-29 -1493l555 1493h586z" />
    <glyph glyph-name="f_f" unicode="ff" horiz-adv-x="1658" 
d="M1681 1333l5 -4q-78 0 -111 -26q-35 -27 -47 -89l-23 -104h250l-49 -229h-250l-186 -883h-320l187 883h-510l-187 -883h-319l186 883h-198l49 229h198l31 145q30 145 139 222t289 77h203l-47 -223h-117q-78 0 -111 -26q-35 -28 -47 -88l-22 -105h510l30 145
q30 144 140 222q109 77 288 77h203l-47 -223h-117z" />
    <glyph glyph-name="f_f_i" unicode="ffi" horiz-adv-x="2242" 
d="M2228 1112l-231 -1116h-320l187 883h-408l-186 -883h-320l187 883h-510l-187 -883h-319l186 883h-198l49 229h198l31 145q30 145 139 222t289 77h203l-47 -223h-117q-78 0 -111 -26q-35 -27 -47 -89l-22 -104h510l30 145q30 144 140 222q109 77 288 77h203l-47 -223h-117
q-77 0 -110 -26q-35 -28 -47 -88l-23 -105h727zM1939 1257l64 295h330l-64 -295h-330z" />
    <glyph glyph-name="f_f_l" unicode="ffl" horiz-adv-x="2242" 
d="M2003 1556l324 -4l-330 -1556h-320l187 883h-408l-186 -883h-320l187 883h-510l-187 -883h-319l186 883h-198l49 229h198l31 145q30 145 139 222t289 77h203l-47 -223h-117q-78 0 -111 -26q-35 -27 -47 -89l-22 -104h510l30 145q30 144 140 222q109 77 288 77h203
l-47 -223h-117q-77 0 -110 -26q-35 -28 -47 -88l-23 -105h408z" />
    <glyph glyph-name="f_j" unicode="fj" horiz-adv-x="1411" 
d="M1399 1112l-258 -1221q-30 -145 -137 -221t-289 -76h-144l50 230h55q73 0 110 29q36 28 48 90l198 938h-407l-187 -883h-319l186 883h-199l50 229h198l31 145q30 145 139 222t289 77h203l-47 -223h-117q-78 0 -111 -26q-35 -28 -47 -88l-22 -105h727zM1106 1257l63 295
h330l-63 -295h-330z" />
    <glyph glyph-name="f_t" unicode="ft" horiz-adv-x="1683" 
d="M1452 883l-109 -531q-6 -24 -6 -49q0 -42 31 -61q32 -19 94 -19h99l-50 -229h-174q-96 0 -172 31q-73 30 -114 86t-41 129q0 56 8 92l117 549h-510l-187 -883h-319l186 883h-199l50 229h198l31 145q30 145 139 222t289 77h203l-47 -223h-117q-78 0 -111 -26
q-35 -28 -47 -88l-22 -105h510l55 262h319l-55 -262h244l-49 -229h-244z" />
    <glyph glyph-name="t_f" unicode="tf" horiz-adv-x="1675" 
d="M1696 1333l4 -6q-76 0 -111 -27q-35 -28 -47 -88l-22 -104h249l-49 -229h-250l-186 -883h-319l188 883h-535l-110 -525q-6 -24 -6 -49q0 -43 30 -61q32 -19 95 -19h98l-49 -229h-174q-96 0 -172 31q-74 30 -115 86t-41 129q0 56 8 92l117 549h-205l49 229h205l55 262h320
l-55 -262h534l31 145q27 146 135 222q109 77 289 77h203l-48 -223h-116z" />
    <glyph glyph-name="t_t" unicode="tt" horiz-adv-x="1691" 
d="M1458 883l-112 -533q-7 -28 -7 -49q0 -42 31 -61q32 -19 96 -19h97l-50 -229h-172q-96 0 -172 31q-73 30 -114 86t-41 129q0 56 8 92l117 549h-525l-110 -525q-6 -24 -6 -49q0 -43 30 -61q32 -19 95 -19h98l-49 -229h-174q-96 0 -172 31q-74 30 -115 86t-41 129
q0 56 8 92l117 549h-205l49 229h205l55 262h320l-55 -262h524l55 262h320l-56 -262h246l-51 -229h-244z" />
    <glyph glyph-name="w_w_w" unicode="www" horiz-adv-x="5390" 
d="M4774 49l420 1063h293l-445 -1112h-534l71 1061l-372 -1061h-539l16 1016l-407 -1016h-535l72 1055l-371 -1055h-540l16 1016l-406 -1016h-534l72 1055l-373 -1055h-539l19 1112h284l-22 -1057l377 1057h514l-66 -1063l420 1063h541l-23 -1057l377 1057h514l-63 -1057
l417 1057h543l-22 -1057l376 1057h514z" />
    <glyph glyph-name=".notdef" horiz-adv-x="1527" 
d="M1241 0h-1192l332 1556h1192zM645 1300l-219 -1044h551l221 1044h-553z" />
    <glyph glyph-name=".null" horiz-adv-x="0" 
 />
    <glyph glyph-name="nonmarkingreturn" unicode="&#xd;" horiz-adv-x="475" 
 />
    <glyph glyph-name="space" unicode=" " horiz-adv-x="475" 
 />
    <glyph glyph-name="exclam" unicode="!" horiz-adv-x="634" 
d="M442 528h-266l170 1028h365zM377 0h-346l67 313h346z" />
    <glyph glyph-name="quotedbl" unicode="&#x22;" horiz-adv-x="921" 
d="M449 926h-238l92 630h322zM860 926h-237l92 630h321z" />
    <glyph glyph-name="numbersign" unicode="#" horiz-adv-x="1667" 
d="M1704 1112l-43 -205h-334l-129 -309h291l-45 -205h-332l-166 -393h-248l166 393h-315l-166 -393h-246l166 393h-256l45 205h297l129 309h-256l45 205h297l187 444h245l-186 -444h315l187 444h247l-186 -444h291zM635 598h315l129 309h-315z" />
    <glyph glyph-name="dollar" unicode="$" horiz-adv-x="1415" 
d="M983 905l4 -4q109 -35 180 -94q74 -62 111 -137t37 -160q0 -152 -74 -270q-74 -117 -203 -185q-128 -67 -299 -82l-53 -247h-313l57 272q-164 50 -258 172q-95 124 -104 303h327q9 -131 86 -199q76 -67 205 -67q78 0 154 29q71 27 114 79t43 127q0 56 -30 93
q-28 35 -80 57q-70 30 -125 47l-201 61q-148 44 -239 142q-93 101 -93 254q0 125 68 231q66 102 188 168q121 65 277 80l49 237h313l-55 -264q149 -45 234 -149q89 -109 116 -260h-327q-15 94 -88 149t-189 55q-73 0 -135 -24q-59 -23 -98 -68q-37 -43 -37 -100
q0 -45 24 -80q23 -33 74 -55q55 -23 139 -49z" />
    <glyph glyph-name="percent" unicode="%" horiz-adv-x="2035" 
d="M258 782h-2q-82 82 -82 238q0 144 49 272q50 129 152 209q103 80 256 80q143 0 227 -84t84 -237q0 -145 -49 -273q-50 -130 -154 -209q-106 -80 -254 -80q-143 0 -227 84zM606 0h-301l1211 1556h301zM618 940l-6 2q50 68 74 160q25 95 25 166q0 70 -27 104q-27 35 -80 35
q-68 0 -115 -68q-44 -64 -69 -159t-25 -168q0 -70 27 -105t80 -35q66 0 116 68zM1257 59l-6 -2q-82 82 -82 238q0 144 50 274q50 131 153 209q106 80 258 80q144 0 228 -84t84 -237q0 -143 -50 -273q-50 -131 -153 -209q-106 -80 -254 -80q-144 0 -228 84zM1616 213h-6
q48 66 73 160q25 95 25 166q0 69 -27 104t-79 35q-68 0 -115 -68q-46 -66 -70 -159q-24 -92 -24 -166q0 -72 26 -105q27 -35 80 -35q67 0 117 68z" />
    <glyph glyph-name="ampersand" unicode="&#x26;" horiz-adv-x="1585" 
d="M1268 391l-45 -53l235 -344h-348l-98 145q-238 -170 -492 -170q-146 0 -256 49q-108 48 -172 140q-61 88 -61 207q0 127 55 221q57 97 158 170q108 78 254 145q-56 83 -80 148q-25 67 -25 129q0 110 68 202q67 91 188 144t271 53q132 0 223 -39q93 -40 143 -111
q49 -70 49 -159q0 -95 -51 -166q-51 -72 -141 -131q-86 -57 -225 -117l-27 -12l207 -303l235 295h287zM786 1335l-6 6q-42 -26 -63 -67q-21 -40 -21 -86q0 -34 17 -80q11 -31 47 -86l12 6q76 36 139 72q54 31 80 67q29 40 29 86q0 53 -37 80q-40 29 -94 29q-60 0 -103 -27z
M887 322l-273 397q-101 -53 -163 -109q-62 -55 -84 -104q-25 -55 -25 -117q0 -56 29 -106q26 -46 80 -70q55 -25 116 -25q154 0 320 134z" />
    <glyph glyph-name="quotesingle" unicode="'" horiz-adv-x="512" 
d="M449 926h-238l92 630h322z" />
    <glyph glyph-name="parenleft" unicode="(" horiz-adv-x="724" 
d="M203 -401l-2 -2q-72 172 -111 331q-39 157 -39 351q0 348 146 663q143 308 411 614h340q-278 -316 -426 -622q-149 -308 -149 -651q0 -193 37 -357q37 -165 104 -327h-311z" />
    <glyph glyph-name="parenright" unicode=")" horiz-adv-x="722" 
d="M-217 -401l-2 2q281 316 430 624q151 313 151 652q0 202 -38 358q-42 173 -107 326h313q72 -176 111 -334q39 -157 39 -350q0 -356 -143 -664q-142 -306 -412 -614h-342z" />
    <glyph glyph-name="asterisk" unicode="*" horiz-adv-x="960" 
d="M1024 1552l20 -186l-245 -27l106 -233l-176 -80l-111 240l-196 -172l-129 143l192 170l-213 123l97 162l215 -123l49 229l192 -41l-49 -231z" />
    <glyph glyph-name="plus" unicode="+" horiz-adv-x="1316" 
d="M780 678h434v-236h-434v-442h-243v442h-435v236h435v434h243v-434z" />
    <glyph glyph-name="comma" unicode="," horiz-adv-x="610" 
d="M14 0l68 313h346l-76 -354l-209 -246h-211l193 287h-111z" />
    <glyph glyph-name="hyphen" unicode="-" horiz-adv-x="915" 
d="M774 457h-676l54 258h677z" />
    <glyph glyph-name="period" unicode="." horiz-adv-x="610" 
d="M360 0h-346l68 313h346z" />
    <glyph glyph-name="slash" unicode="/" horiz-adv-x="1155" 
d="M295 0h-356l1015 1556h359z" />
    <glyph glyph-name="zero" unicode="0" horiz-adv-x="1480" 
d="M369 39v-4q-116 64 -181 194q-63 126 -63 320q0 251 84 489q83 235 264 385q184 152 455 152q164 0 280 -64q119 -65 183 -194q63 -126 63 -320q0 -252 -86 -487q-86 -237 -266 -385q-184 -152 -455 -152q-158 0 -278 66zM934 346l-2 -2q100 129 147 320q47 190 47 346
q0 170 -57 245q-58 76 -178 76q-151 0 -252 -131q-100 -129 -147 -319q-48 -194 -48 -346q0 -168 60 -246q58 -76 178 -76q149 0 252 133z" />
    <glyph glyph-name="one" unicode="1" horiz-adv-x="860" 
d="M639 1556h268l-329 -1556h-328l227 1073h-332l54 258h49q101 0 178 23q71 21 117 61q44 38 80 109z" />
    <glyph glyph-name="two" unicode="2" horiz-adv-x="1390" 
d="M436 256h817l-53 -256h-1225l70 328l795 538q122 85 182 154q59 68 59 141q0 84 -63 129q-65 47 -168 47q-120 0 -199 -61t-106 -176h-328q26 146 121 258q91 107 227 166q132 57 293 57q159 0 283 -47q122 -46 190 -135t68 -215q0 -107 -41 -197t-115 -164
q-76 -76 -188 -151z" />
    <glyph glyph-name="three" unicode="3" horiz-adv-x="1388" 
d="M1321 1006l-10 -7q-64 -79 -168 -125q-103 -46 -234 -67q154 -30 258 -117q103 -86 103 -225q0 -132 -78 -248q-75 -112 -227 -180q-151 -68 -363 -68q-171 0 -293 58q-124 59 -194 163q-71 106 -80 250h330q9 -114 77 -170q67 -55 181 -55q96 0 172 31q73 30 114 92
t41 141q0 99 -80 152t-227 53h-96l51 256h92q130 0 209 33q84 35 121 84t37 108q0 76 -62 123t-174 47q-107 0 -178 -51q-73 -52 -100 -154h-330q30 136 123 240q88 99 225 156q131 55 283 55t274 -49q126 -51 195 -137q71 -89 71 -203q0 -108 -63 -186z" />
    <glyph glyph-name="four" unicode="4" horiz-adv-x="1431" 
d="M1186 666h215l-53 -256h-218l-86 -410h-325l86 410h-785l70 327l668 819h616zM1036 1495l-674 -829h498z" />
    <glyph glyph-name="five" unicode="5" horiz-adv-x="1400" 
d="M1382 1300l-743 -8l-145 -479q71 108 176 176q106 68 237 68q124 0 213 -51q96 -55 146 -150q53 -100 53 -235q0 -182 -86 -330t-246 -234t-375 -86q-168 0 -290 58q-124 59 -191 166q-69 111 -72 251h328q6 -114 70 -172q63 -57 184 -57q100 0 180 51q81 51 129 140
q47 86 47 188q0 113 -65 172t-172 59q-105 0 -185 -51q-84 -54 -139 -141l-315 31l270 890h1047z" />
    <glyph glyph-name="six" unicode="6" horiz-adv-x="1443" 
d="M1151 975l-4 -6q106 -59 158 -160q53 -103 53 -227q0 -167 -92 -306q-91 -138 -252 -221q-158 -82 -357 -82q-154 0 -278 62q-123 62 -197 188q-73 125 -73 320q0 251 98 489q99 239 287 393q189 154 440 154q225 0 356 -113q133 -115 160 -313h-330q-12 85 -63 133
q-52 49 -154 49q-118 0 -209 -73q-92 -74 -153 -205q-64 -137 -90 -307q39 86 106 147q66 60 160 100q87 37 184 37q144 0 250 -59zM862 260h-4q81 50 127 129q45 77 45 172q0 61 -29 117q-28 54 -83 84q-57 31 -136 31q-107 0 -190 -50t-129 -125q-47 -77 -47 -155
q0 -116 71 -184t191 -68q105 0 184 49z" />
    <glyph glyph-name="seven" unicode="7" horiz-adv-x="1173" 
d="M197 1300l53 256h1083l-69 -327l-865 -1229h-401l946 1300h-747z" />
    <glyph glyph-name="eight" unicode="8" horiz-adv-x="1456" 
d="M1391 1010l2 -2q-59 -81 -156 -129q-101 -50 -221 -68q90 -21 164 -68q75 -47 120 -116q46 -70 46 -160q0 -131 -86 -246q-83 -111 -246 -180q-160 -68 -377 -68q-170 0 -301 52q-130 52 -205 145q-74 92 -74 215q0 125 68 217q69 94 180 148q115 56 246 71
q-131 43 -211 117t-80 197q0 115 78 219q77 102 221 164q143 61 338 61q166 0 291 -49q124 -49 192 -135t68 -199q0 -109 -57 -186zM995 969l-2 -4q76 36 109 86q35 53 35 104q0 78 -64 127t-184 49q-106 0 -178 -35q-71 -35 -105 -86q-33 -50 -33 -108q0 -75 60 -123
q57 -45 172 -45t190 35zM836 242l2 2q83 30 133 92q49 61 49 143q0 58 -35 105q-36 48 -94 71q-64 25 -137 25q-115 0 -197 -33q-84 -34 -131 -96t-47 -141q0 -96 76 -148q74 -51 196 -51q100 0 185 31z" />
    <glyph glyph-name="nine" unicode="9" horiz-adv-x="1443" 
d="M1153 1520q124 -62 197 -187t73 -319q0 -250 -98 -488q-99 -239 -287 -393q-188 -153 -440 -153q-224 0 -356 114q-133 115 -160 314h330q9 -85 61 -134t154 -49q117 0 209 74t153 205q64 137 90 307q-39 -86 -106 -147q-68 -62 -160 -101q-87 -37 -184 -37
q-140 0 -248 60q-104 58 -156 159q-53 103 -53 228q0 166 92 305q91 138 252 221q158 82 356 82q159 0 281 -61zM936 807l2 -2q83 50 129 125q47 77 47 155q0 118 -70 185t-190 67q-105 0 -184 -49q-78 -49 -125 -129q-45 -77 -45 -172q0 -63 28 -117q26 -51 84 -82
q56 -30 133 -30q109 0 191 49z" />
    <glyph glyph-name="colon" unicode=":" horiz-adv-x="612" 
d="M360 0h-346l68 313h346zM508 694h-346l67 314h346z" />
    <glyph glyph-name="semicolon" unicode=";" horiz-adv-x="612" 
d="M14 0l68 313h346l-76 -354l-209 -246h-211l193 287h-111zM510 694h-346l67 314h347z" />
    <glyph glyph-name="less" unicode="&#x3c;" horiz-adv-x="1286" 
d="M125 756l995 317v-252l-844 -262l844 -264v-250l-995 317v394z" />
    <glyph glyph-name="equal" unicode="=" horiz-adv-x="1388" 
d="M1223 666h-1055v237h1055v-237zM1223 223h-1055v238h1055v-238z" />
    <glyph glyph-name="greater" unicode="&#x3e;" horiz-adv-x="1286" 
d="M166 821v252l995 -317v-394l-995 -317v250l844 264z" />
    <glyph glyph-name="question" unicode="?" horiz-adv-x="1220" 
d="M412 528l-13 -4q28 123 82 207q56 86 152 158l127 94q81 59 117 92q36 34 57 68q18 30 18 65q0 61 -51 97q-50 36 -137 36q-102 0 -172 -49t-88 -139h-324q27 136 111 233t213 146q128 49 289 49q155 0 262 -39q113 -41 172 -112q61 -73 61 -173q0 -116 -61 -204
q-65 -94 -178 -179l-129 -96q-98 -69 -134 -116q-39 -51 -55 -134h-319zM631 -4h-344l65 313h346z" />
    <glyph glyph-name="at" unicode="@" horiz-adv-x="1968" 
d="M1528 1284l-4 -10q174 -95 268 -264q96 -172 96 -375q0 -168 -59 -316q-58 -146 -176 -235q-119 -90 -279 -90q-243 0 -289 199q-48 -85 -131 -142t-206 -57q-80 0 -142 33q-65 35 -102 92q-37 58 -37 135q0 160 111 233q116 77 319 97l252 26l4 17q8 31 8 55
q0 55 -33 84q-36 31 -100 31q-78 0 -125 -33q-50 -35 -67 -100h-261q26 99 97 170q68 68 159 102q93 35 201 35q180 0 283 -74q102 -74 102 -211q0 -44 -10 -92l-53 -258q-8 -21 -8 -51q0 -47 24 -68q23 -20 74 -20q78 0 129 63t76 160q24 95 24 190q0 159 -69 285
q-71 131 -203 207q-135 78 -311 78q-234 0 -428 -117q-196 -119 -306 -307q-110 -189 -110 -408q0 -175 71 -305q69 -127 201 -199q126 -69 303 -69q186 0 355 88l73 -174q-233 -115 -461 -115q-218 0 -389 98t-266 269q-94 169 -94 374q0 285 147 531q145 243 398 389
q251 145 546 145q223 0 398 -96zM1016 233q70 70 94 191l4 22l-153 -16q-113 -9 -173 -43q-61 -34 -61 -111q0 -59 37 -86q36 -26 86 -26q97 0 166 69z" />
    <glyph glyph-name="A" unicode="A" horiz-adv-x="1622" 
d="M1507 0h-333l-44 420h-677l-224 -420h-352l848 1556h598zM1020 1491l-424 -801h506z" />
    <glyph glyph-name="B" unicode="B" horiz-adv-x="1521" 
d="M1319 694l-4 -4q104 -85 104 -235q0 -130 -80 -236q-78 -103 -239 -162q-160 -59 -393 -59h-668l330 1556h635q164 0 274 -49t166 -135q55 -85 55 -192q0 -113 -63 -191q-66 -81 -166 -127q-101 -46 -221 -61q163 -18 270 -105zM1110 1241v-2q-56 41 -147 41h-322
l-76 -352h314q94 0 161 28q65 27 95 74q30 46 30 100q0 71 -55 111zM758 264h-2q176 0 250 62q73 61 73 153q0 81 -57 129q-58 49 -166 49h-348l-82 -393h332z" />
    <glyph glyph-name="C" unicode="C" horiz-adv-x="1630" 
d="M430 49l-6 -2q-150 75 -231 217q-84 147 -84 346q0 242 108 467t313 363q207 139 482 139q185 0 327 -68q146 -70 226 -192q83 -127 98 -295h-344q-18 143 -105 221t-233 78q-163 0 -285 -98q-125 -100 -188 -264q-66 -170 -66 -357q0 -121 43 -203q44 -84 123 -127
t185 -43q136 0 258 84q118 81 190 222h344q-65 -170 -178 -295q-115 -127 -277 -197t-362 -70q-190 0 -338 74z" />
    <glyph glyph-name="D" unicode="D" horiz-adv-x="1626" 
d="M922 1556v-4q202 0 352 -69q154 -71 239 -211q86 -142 86 -340q0 -281 -120 -492t-340 -325q-222 -115 -510 -115h-584l330 1556h547zM666 266l-2 -2q190 0 327 90q134 88 203 238q68 148 68 323q0 183 -95 275t-272 92h-248l-215 -1016h234z" />
    <glyph glyph-name="E" unicode="E" horiz-adv-x="1355" 
d="M1450 1556l-57 -270h-746l-74 -352h730l-58 -270h-729l-84 -394h762l-57 -270h-1092l330 1556h1075z" />
    <glyph glyph-name="F" unicode="F" horiz-adv-x="1298" 
d="M1421 1556l-57 -270h-717l-80 -377h705l-60 -270h-702l-135 -639h-330l330 1556h1046z" />
    <glyph glyph-name="G" unicode="G" horiz-adv-x="1732" 
d="M813 623l49 245h811l-186 -880h-273l80 374q-82 -163 -223 -280t-358 -117q-162 0 -301 74t-222 219q-81 141 -81 344q0 242 108 467q107 224 318 363q210 139 491 139q190 0 332 -62q143 -62 225 -176q86 -118 109 -270h-344q-53 256 -344 256q-170 0 -295 -98
q-127 -100 -193 -260q-67 -162 -67 -351q0 -121 47 -207q46 -85 133 -129q85 -43 198 -43t213 50q97 48 166 139q70 91 99 203h-492z" />
    <glyph glyph-name="H" unicode="H" horiz-adv-x="1634" 
d="M1223 940l131 616h329l-329 -1556h-330l137 649h-649l-137 -649h-330l330 1556h330l-132 -616h650z" />
    <glyph glyph-name="I" unicode="I" horiz-adv-x="655" 
d="M375 0h-330l330 1556h330z" />
    <glyph glyph-name="J" unicode="J" horiz-adv-x="841" 
d="M-76 0l56 268h159q87 0 129 33q45 36 60 111l243 1142h328l-254 -1206q-38 -178 -153 -262q-118 -86 -334 -86h-234z" />
    <glyph glyph-name="K" unicode="K" horiz-adv-x="1488" 
d="M1262 1556h421l-784 -757l510 -799h-379l-489 782l-166 -782h-330l330 1556h330l-146 -690z" />
    <glyph glyph-name="L" unicode="L" horiz-adv-x="1189" 
d="M705 1556l-275 -1286h670l-58 -270h-997l330 1556h330z" />
    <glyph glyph-name="M" unicode="M" horiz-adv-x="2234" 
d="M2284 1556l-330 -1556h-330l315 1493l-649 -1493h-581l-19 1493l-315 -1493h-330l330 1556h620l11 -1495l639 1495h639z" />
    <glyph glyph-name="N" unicode="N" horiz-adv-x="1792" 
d="M1194 59l317 1497h330l-330 -1556h-616l-205 1491l-315 -1491h-330l330 1556h616z" />
    <glyph glyph-name="O" unicode="O" horiz-adv-x="1726" 
d="M438 49h-2q-152 73 -239 219q-86 145 -86 348q0 246 110 465q113 224 320 361q210 139 489 139q194 0 348 -74q156 -75 240 -217q86 -145 86 -350q0 -245 -111 -465q-112 -223 -319 -360q-212 -140 -490 -140q-192 0 -346 74zM1104 330v-2q127 100 194 262q68 165 68 356
q0 124 -45 207q-47 85 -129 129q-82 43 -191 43q-169 0 -294 -98q-129 -101 -195 -262q-68 -165 -68 -357q0 -122 45 -205q47 -85 129 -129q82 -43 191 -43q169 0 295 99z" />
    <glyph glyph-name="P" unicode="P" horiz-adv-x="1460" 
d="M963 1556q166 0 288 -51q127 -53 197 -151t70 -240q0 -171 -82 -299q-83 -130 -248 -203t-402 -73h-297l-114 -539h-330l330 1556h588zM831 809q113 0 191 35q76 34 117 96t41 145q0 101 -60 152q-58 49 -182 49h-291l-100 -477h284z" />
    <glyph glyph-name="Q" unicode="Q" horiz-adv-x="1738" 
d="M1645 588h-3q-62 -173 -178 -307l238 -281h-381l-80 94q-204 -119 -457 -119q-192 0 -346 74q-152 73 -239 219q-86 145 -86 348q0 246 110 465q113 224 320 361q210 139 489 139q194 0 348 -74q156 -75 240 -217q86 -145 86 -350q0 -181 -61 -352zM1065 301l-238 279
h381l56 -66q47 86 75 203q27 111 27 227q0 124 -45 207q-47 85 -129 129q-82 43 -191 43q-169 0 -294 -98q-129 -101 -195 -262q-68 -165 -68 -357q0 -122 45 -205q47 -85 129 -129q82 -43 191 -43q137 0 256 72z" />
    <glyph glyph-name="R" unicode="R" horiz-adv-x="1525" 
d="M1409 817v2q-101 -130 -295 -192l264 -625h-362l-228 580h-288l-123 -580h-330l330 1557h608q147 0 270 -54t189 -151q67 -98 67 -230q0 -175 -102 -307zM645 1288l-96 -438h299q109 0 182 37t107 92t34 121q0 54 -26 96q-28 45 -76 68q-49 24 -117 24h-307z" />
    <glyph glyph-name="S" unicode="S" horiz-adv-x="1458" 
d="M346 33l-8 -15q-141 60 -219 172q-79 113 -82 275h342q6 -119 92 -184q85 -64 225 -64q152 0 248 51q98 52 98 154q0 55 -28 94t-82 62q-60 26 -148 49l-211 59q-174 47 -268 145q-96 101 -96 256q0 136 86 248q85 110 233 172t332 62q273 0 426 -117q155 -119 182 -324
h-344q-15 87 -90 138q-73 49 -205 49q-81 0 -155 -23q-69 -22 -105 -63q-37 -43 -37 -94q0 -43 29 -80q26 -33 84 -58q61 -26 150 -49l211 -59q180 -50 270 -150q92 -103 92 -245q0 -163 -86 -281q-84 -115 -246 -178q-160 -62 -370 -62q-178 0 -320 60z" />
    <glyph glyph-name="T" unicode="T" horiz-adv-x="1357" 
d="M246 1556h1290l-57 -270h-482l-272 -1286h-330l273 1286h-482z" />
    <glyph glyph-name="U" unicode="U" horiz-adv-x="1599" 
d="M399 33l-4 -6q-129 59 -192 161q-64 104 -64 244q0 85 23 203l194 917h330l-207 -974q-14 -60 -14 -117q0 -116 67 -174t197 -58q162 0 264 99t142 282l200 946h330l-199 -940q-67 -308 -243 -475q-175 -166 -508 -166q-188 0 -316 58z" />
    <glyph glyph-name="V" unicode="V" horiz-adv-x="1558" 
d="M664 61l741 1495h362l-800 -1556h-609l-145 1556h336z" />
    <glyph glyph-name="W" unicode="W" horiz-adv-x="2357" 
d="M1597 63l607 1493h331l-645 -1556h-598l88 1497l-549 -1497h-600l19 1556h317l-28 -1493l555 1493h583z" />
    <glyph glyph-name="X" unicode="X" horiz-adv-x="1585" 
d="M1346 1556h411l-686 -733l418 -823h-371l-303 602l-539 -602h-413l766 846l-359 710h361l252 -503z" />
    <glyph glyph-name="Y" unicode="Y" horiz-adv-x="1437" 
d="M1282 1556h387l-774 -940l-131 -616h-330l137 649l-387 907h344l263 -626z" />
    <glyph glyph-name="Z" unicode="Z" horiz-adv-x="1427" 
d="M301 1556h1241l-74 -352l-1054 -934h893l-58 -270h-1290l76 352l1055 934h-844z" />
    <glyph glyph-name="bracketleft" unicode="[" horiz-adv-x="749" 
d="M907 1556l-49 -229h-223l-318 -1499h224l-49 -229h-541l416 1957h540z" />
    <glyph glyph-name="backslash" unicode="\" horiz-adv-x="1081" 
d="M928 0h-322l-356 1556h319z" />
    <glyph glyph-name="bracketright" unicode="]" horiz-adv-x="749" 
d="M219 1327l49 229h541l-416 -1957h-540l49 229h221l317 1499h-221z" />
    <glyph glyph-name="asciicircum" unicode="^" horiz-adv-x="1212" 
d="M897 1556l297 -808h-297l-225 682l-223 -682h-299l299 808h448z" />
    <glyph glyph-name="underscore" unicode="_" horiz-adv-x="1183" 
d="M942 -229h-1028l49 229h1028z" />
    <glyph glyph-name="grave" unicode="`" horiz-adv-x="735" 
d="M838 1237h-297l-285 319h420z" />
    <glyph glyph-name="a" unicode="a" horiz-adv-x="1259" 
d="M1055 1049l-6 -2q122 -88 122 -254q0 -51 -12 -109l-145 -686h-316l43 207q-60 -104 -155 -166q-101 -66 -230 -66q-91 0 -166 37q-74 36 -122 109q-45 68 -45 164q0 183 129 274q132 93 389 117l307 28l4 21q8 36 8 61q0 65 -41 103q-40 37 -121 37q-90 0 -143 -39
q-57 -42 -78 -111h-319q34 116 114 199q79 82 195 123q115 41 246 41q220 0 342 -88zM686 248l-2 2q81 87 111 233l6 27l-187 -18q-130 -15 -202 -56t-72 -129q0 -71 43 -108t109 -37q114 0 194 86z" />
    <glyph glyph-name="b" unicode="b" horiz-adv-x="1347" 
d="M1110 1083v-2q83 -53 129 -151q47 -100 47 -230q0 -183 -67 -348q-66 -163 -201 -270q-132 -105 -309 -105q-122 0 -209 72t-121 184l-49 -231h-316l330 1557h318l-146 -685q60 117 160 189q103 74 237 74q112 0 197 -54zM809 260l2 -4q76 73 117 188t41 232
q0 115 -56 180q-55 64 -149 64q-107 0 -184 -74t-117 -187q-39 -110 -39 -229q0 -115 53 -180q52 -64 148 -64q107 0 184 74z" />
    <glyph glyph-name="c" unicode="c" horiz-adv-x="1253" 
d="M295 31l-8 -2q-112 56 -172 159q-62 106 -62 246q0 176 78 338q76 158 231 258q151 98 369 98q145 0 252 -49q108 -49 170 -145q63 -97 66 -227h-320q-6 104 -53 157q-48 54 -139 54q-102 0 -179 -74q-75 -72 -116 -187q-39 -110 -39 -229q0 -115 53 -180q52 -64 147 -64
t166 56t111 153h321q-70 -195 -227 -307q-156 -111 -393 -111q-144 0 -256 56z" />
    <glyph glyph-name="d" unicode="d" horiz-adv-x="1349" 
d="M1114 1556l316 5l-330 -1557h-316l45 211q-55 -101 -153 -168t-227 -67q-117 0 -203 51q-89 53 -137 149q-50 100 -50 238q0 176 68 344q66 163 201 270q132 105 313 105q93 0 160 -43q69 -44 108 -107q42 -66 56 -137zM766 266l2 -4q76 73 117 189q41 115 41 231
q0 120 -56 182t-149 62q-107 0 -184 -74t-117 -186q-39 -110 -39 -230q0 -115 53 -180q51 -63 148 -63q108 0 184 73z" />
    <glyph glyph-name="e" unicode="e" horiz-adv-x="1275" 
d="M371 463l-2 -25q0 -119 55 -180t156 -61q83 0 141 34q57 34 98 105h320q-85 -177 -236 -266q-149 -88 -346 -88q-150 0 -260 55q-111 55 -172 160q-62 106 -62 245q0 176 78 338q75 155 232 260q151 101 368 101q147 0 252 -51q108 -52 166 -154q60 -105 60 -246
q0 -115 -37 -227h-811zM530 860l-4 4q-74 -68 -118 -184h487q8 27 8 59q0 93 -49 142t-143 49q-105 0 -181 -70z" />
    <glyph glyph-name="f" unicode="f" horiz-adv-x="829" 
d="M852 1333l2 -2q-78 0 -111 -26q-35 -28 -47 -88l-22 -105h248l-50 -229h-247l-187 -883h-319l186 883h-199l50 229h198l31 145q30 145 139 222t289 77h203l-47 -223h-117z" />
    <glyph glyph-name="g" unicode="g" horiz-adv-x="1349" 
d="M1026 1112l311 -4l-237 -1122q-30 -144 -119 -236q-88 -91 -215 -135q-125 -43 -272 -43q-148 0 -258 43q-109 43 -175 127q-64 82 -73 197h319q9 -74 62 -115t131 -41q113 0 190 59t98 164l46 213q-59 -96 -156 -153q-102 -60 -217 -60q-110 0 -199 53q-88 52 -141 152
q-51 96 -51 229q0 174 67 332q68 160 197 262q130 103 311 103q95 0 162 -43q67 -44 108 -111q42 -69 56 -137zM772 287v-4q76 67 117 176q39 104 39 217q0 115 -54 178q-52 61 -151 61q-108 0 -184 -67q-77 -68 -117 -174q-39 -104 -39 -217q0 -115 55 -176q56 -62 150 -62
q107 0 184 68z" />
    <glyph glyph-name="h" unicode="h" horiz-adv-x="1298" 
d="M1141 1053l2 -6q82 -82 82 -222q0 -65 -15 -135l-147 -694h-320l136 639q14 66 14 123q0 77 -39 116q-41 41 -111 41q-100 0 -172 -75q-74 -77 -104 -222l-133 -618h-320l330 1556h318l-144 -671q65 115 166 182q103 68 221 68q154 0 236 -82z" />
    <glyph glyph-name="i" unicode="i" horiz-adv-x="581" 
d="M332 0h-320l238 1112h319zM606 1262h-330l64 294h330z" />
    <glyph glyph-name="j" unicode="j" horiz-adv-x="581" 
d="M-260 -401l47 227h55q74 0 111 29q35 27 47 90l248 1167h319l-258 -1216q-31 -147 -137 -222t-289 -75h-143zM604 1260h-330l64 294h330z" />
    <glyph glyph-name="k" unicode="k" horiz-adv-x="1212" 
d="M932 1112h385l-537 -518l326 -594h-350l-303 567l-121 -567h-320l330 1556h320l-191 -897z" />
    <glyph glyph-name="l" unicode="l" horiz-adv-x="581" 
d="M332 0h-320l330 1556h320z" />
    <glyph glyph-name="m" unicode="m" horiz-adv-x="1968" 
d="M1753 1098l6 -2q69 -38 103 -105t34 -157q0 -66 -14 -140l-147 -696h-320l135 641q15 65 15 119q0 76 -37 116q-38 41 -101 41q-89 0 -159 -79q-71 -80 -101 -222l-131 -618h-321l137 641q14 60 14 119q0 76 -37 116q-38 41 -100 41q-90 0 -160 -79q-69 -78 -100 -222
l-133 -618h-320l238 1112h315l-49 -227q64 113 164 184q98 70 215 70q90 0 154 -37t98 -101q35 -66 41 -141q39 79 98 141q62 65 140 103q75 37 159 37q97 0 164 -37z" />
    <glyph glyph-name="n" unicode="n" horiz-adv-x="1298" 
d="M1141 1053v-9q82 -82 82 -221q0 -65 -15 -135l-147 -694h-320l136 639q14 66 14 123q0 77 -39 116q-41 41 -111 41q-100 0 -172 -75q-74 -77 -104 -222l-133 -618h-320l238 1112h315l-47 -225q65 115 166 182q103 68 221 68q154 0 236 -82z" />
    <glyph glyph-name="o" unicode="o" horiz-adv-x="1302" 
d="M297 29h-4q-112 56 -172 159q-62 106 -62 250q0 176 78 338q75 157 232 258q153 99 374 99q144 0 256 -56q114 -57 177 -159q63 -103 63 -250q0 -176 -78 -338q-76 -159 -233 -258q-156 -99 -375 -99q-144 0 -256 56zM760 260l2 -4q76 73 117 188t41 232q0 115 -56 180
q-55 64 -149 64q-108 0 -185 -74q-75 -72 -116 -187q-39 -110 -39 -229q0 -115 53 -180q52 -64 147 -64q108 0 185 74z" />
    <glyph glyph-name="p" unicode="p" horiz-adv-x="1347" 
d="M1110 1083l2 -6q83 -53 129 -151q47 -100 47 -230q0 -183 -67 -348q-66 -163 -201 -270q-132 -105 -309 -105q-122 0 -209 72q-84 70 -119 184l-133 -630h-318l322 1513h315l-49 -235q58 112 160 186q103 74 233 74q112 0 197 -54zM811 256l2 -4q76 73 117 188t41 232
q0 115 -56 180q-54 63 -149 63q-108 0 -184 -73q-77 -74 -117 -187q-39 -110 -39 -229q0 -115 53 -180q52 -64 148 -64q107 0 184 74z" />
    <glyph glyph-name="q" unicode="q" horiz-adv-x="1347" 
d="M1020 1112h313l-319 -1513h-316l131 612q-57 -99 -153 -168q-95 -68 -225 -68q-115 0 -203 52q-89 53 -137 149q-50 100 -50 238q0 176 68 344q66 163 201 270q132 105 313 105q92 0 160 -41q64 -39 106 -105q41 -66 56 -135zM766 262l2 -4q76 73 117 188t41 232
q0 120 -56 182t-149 62q-107 0 -184 -74t-117 -186q-39 -110 -39 -230q0 -115 53 -180q52 -64 148 -64q107 0 184 74z" />
    <glyph glyph-name="r" unicode="r" horiz-adv-x="854" 
d="M504 817v-4q66 144 172 231q111 91 264 91l-66 -308h-79q-153 0 -230 -57q-82 -60 -108 -192l-125 -578h-320l238 1112h315z" />
    <glyph glyph-name="s" unicode="s" horiz-adv-x="1159" 
d="M262 16l-10 -4q-110 43 -178 123q-67 79 -76 195h319q15 -148 209 -148q94 0 154 31q59 30 59 88q0 33 -16 55q-15 21 -53 39q-39 19 -107 39l-164 47q-278 82 -278 295q0 104 63 185q65 83 181 129q118 47 268 47q125 0 229 -37t172 -111q67 -73 82 -174h-319
q-12 53 -62 80q-53 29 -131 29q-80 0 -133 -27t-53 -80q0 -31 18 -49t56 -33q52 -21 104 -37l164 -49q145 -41 213 -121q67 -79 67 -190q0 -110 -63 -191q-65 -83 -184 -129q-116 -45 -283 -45q-138 0 -248 43z" />
    <glyph glyph-name="t" unicode="t" horiz-adv-x="845" 
d="M614 883l-110 -529q-6 -24 -6 -49q0 -43 30 -61q32 -19 95 -19h98l-49 -229h-174q-96 0 -172 31q-74 30 -115 86t-41 129q0 56 8 92l117 549h-205l49 229h205l55 262h320l-55 -262h243l-49 -229h-244z" />
    <glyph glyph-name="u" unicode="u" horiz-adv-x="1290" 
d="M956 1112h322l-236 -1112h-315l47 227q-65 -115 -166 -182q-103 -68 -227 -68q-150 0 -229 82q-80 83 -80 224q0 49 16 137l148 694h319l-135 -639q-17 -80 -17 -123q0 -82 37 -119q36 -36 109 -36q98 0 172 77t104 222z" />
    <glyph glyph-name="v" unicode="v" horiz-adv-x="1251" 
d="M514 53l506 1059h326l-541 -1112h-586l-86 1112h309z" />
    <glyph glyph-name="w" unicode="w" horiz-adv-x="1882" 
d="M1245 49l420 1063h293l-445 -1112h-534l72 1055l-373 -1055h-539l19 1112h284l-22 -1057l377 1057h514z" />
    <glyph glyph-name="x" unicode="x" horiz-adv-x="1206" 
d="M956 1112h344l-485 -530l281 -582h-332l-182 399l-346 -399h-359l535 604l-256 508h331l160 -348z" />
    <glyph glyph-name="y" unicode="y" horiz-adv-x="1222" 
d="M522 176l465 936h336l-760 -1513h-327l256 516h-256l-113 997h307z" />
    <glyph glyph-name="z" unicode="z" horiz-adv-x="1130" 
d="M207 1112h942l-64 -299l-704 -584h618l-49 -229h-991l64 299l706 584h-571z" />
    <glyph glyph-name="braceleft" unicode="{" horiz-adv-x="800" 
d="M946 1556l-51 -223h-29q-70 0 -110 -37q-41 -38 -56 -116l-49 -232q-27 -118 -80 -190q-53 -70 -129 -105q-78 -35 -196 -53q122 -21 196 -80t74 -155q0 -62 -14 -117l-56 -262q-8 -36 -8 -68q0 -41 25 -63q24 -21 80 -21h30l-49 -229h-100q-96 0 -166 30t-108 86
q-37 55 -37 129q0 40 12 93l53 250q15 71 15 118q0 48 -19 80t-51 43q-38 13 -96 19l61 288q76 6 123 27q45 20 80 74q34 52 55 153l47 219q34 165 146 254q110 88 307 88h100z" />
    <glyph glyph-name="bar" unicode="|" horiz-adv-x="614" 
d="M244 -463h-307l454 2142h307z" />
    <glyph glyph-name="braceright" unicode="}" horiz-adv-x="800" 
d="M643 801l-4 -10q20 -29 53 -41q38 -13 96 -19l-61 -289q-77 -6 -123 -24q-44 -17 -80 -72q-34 -52 -55 -153l-55 -259q-34 -166 -144 -253q-112 -89 -307 -89h-100l49 230h31q70 0 108 35q37 34 55 116l58 271q27 118 80 190q52 70 129 105q78 35 196 53q-122 21 -196 80
t-74 155q0 63 12 115l49 232q9 40 9 67q0 42 -25 64q-23 20 -80 20h-31l50 229h100q95 0 166 -30q70 -30 108 -86q37 -55 37 -129q0 -47 -10 -95l-47 -221q-12 -59 -12 -114q0 -51 18 -78z" />
    <glyph glyph-name="asciitilde" unicode="~" horiz-adv-x="1372" 
d="M90 551h-8q71 105 164 166q89 59 190 59q58 0 111 -12q52 -12 139 -47q73 -33 129 -49q53 -15 105 -15q62 0 116 31q50 28 111 96l145 -151q-70 -107 -162 -166q-94 -60 -190 -60q-56 0 -113 13q-50 11 -135 47q-95 37 -129 47q-56 16 -104 16q-68 0 -117 -32
q-52 -34 -104 -95z" />
    <glyph glyph-name="uni00A0" unicode="&#xa0;" horiz-adv-x="475" 
 />
    <glyph glyph-name="exclamdown" unicode="&#xa1;" horiz-adv-x="602" 
d="M520 799h-346l68 313h346zM281 -401h-365l262 1003h268z" />
    <glyph glyph-name="cent" unicode="&#xa2;" horiz-adv-x="1327" 
d="M784 242l-2 -9q71 56 111 154h321q-58 -168 -184 -276q-128 -109 -313 -136l-53 -251h-308l58 268q-146 47 -228 160t-82 280q0 159 62 307t184 252q124 106 299 133l53 246h306l-56 -258q144 -41 224 -143q82 -104 88 -260h-320q-6 104 -53 157q-48 54 -139 54
q-102 0 -179 -74q-75 -72 -116 -187q-39 -110 -39 -229q0 -115 53 -180q52 -64 147 -64t166 56z" />
    <glyph glyph-name="sterling" unicode="&#xa3;" horiz-adv-x="1308" 
d="M737 647l2 -2q-21 -117 -137 -215q-119 -101 -309 -176h883l-54 -256h-1116l66 319q118 55 196 105t117 104q40 55 49 119h-313l47 229h203v3v2q-43 56 -68 118q-27 67 -27 148q0 128 72 229q69 97 201 154q128 55 301 55q149 0 260 -51q114 -53 178 -143q65 -92 74 -211
h-328q-12 76 -61 122t-139 46q-110 0 -172 -62t-62 -162q0 -52 18 -104q15 -44 50 -98q2 -2 24 -43h451l-47 -230h-359z" />
    <glyph glyph-name="currency" unicode="&#xa4;" horiz-adv-x="1458" 
d="M1210 504l136 -139l-187 -185l-139 139q-119 -67 -252 -67q-134 0 -250 67l-139 -139l-189 185l142 139q-72 123 -72 258t72 258l-142 137l189 184l139 -137q123 66 252 66t252 -66l141 137l187 -184l-140 -139q70 -113 70 -256q0 -142 -70 -258zM543 627v-4
q34 -61 92 -95q54 -32 129 -32q71 0 129 34t92 95q35 62 35 135t-35 135q-33 59 -92 94t-129 35q-73 0 -129 -33q-59 -35 -92 -94q-35 -62 -35 -135t35 -135z" />
    <glyph glyph-name="yen" unicode="&#xa5;" horiz-adv-x="1579" 
d="M1348 1556h381l-588 -696h289l-50 -229h-419l-27 -125h420l-49 -230h-420l-58 -276h-325l59 276h-422l49 230h422l27 125h-422l49 229h303l-303 696h352l240 -641z" />
    <glyph glyph-name="brokenbar" unicode="&#xa6;" horiz-adv-x="628" 
d="M524 825h-307l182 854h308zM252 -463h-307l180 854h307z" />
    <glyph glyph-name="section" unicode="&#xa7;" horiz-adv-x="1296" 
d="M1032 942l-4 -6q107 -58 156 -131t49 -156q0 -102 -64 -178q-65 -77 -178 -141q60 -82 60 -180q0 -101 -66 -185q-66 -85 -186 -133q-122 -49 -285 -49q-127 0 -229 45q-104 46 -172 129t-80 184h329q9 -65 62 -106q51 -39 127 -39q77 0 129 37q53 38 53 94q0 47 -37 84
q-34 34 -110 76l-271 143q-202 105 -202 287q0 103 63 178q65 77 178 141q-59 80 -59 181t65 184t189 133q122 49 285 49q127 0 229 -45q104 -46 172 -129t80 -184h-330q-9 68 -61 108q-53 41 -125 41q-76 0 -131 -37q-56 -38 -56 -94q0 -45 37 -82q33 -33 111 -76zM817 457
v-2q51 38 72 71q24 38 24 80q0 83 -127 154l-264 139q-46 -34 -69 -70q-25 -39 -25 -79q0 -83 127 -154z" />
    <glyph glyph-name="dieresis" unicode="&#xa8;" horiz-adv-x="901" 
d="M522 1262h-329l63 294h330zM1010 1262h-330l63 294h330z" />
    <glyph glyph-name="copyright" unicode="&#xa9;" horiz-adv-x="1931" 
d="M590 49l-4 -8q-193 114 -307 307q-113 192 -113 422q0 227 115 422q114 193 307 307q195 115 424 115q232 0 424 -113q193 -114 307 -307q115 -195 115 -420q0 -228 -113 -420q-114 -193 -307 -307q-192 -113 -424 -113q-229 0 -424 115zM1337 199v-2q152 90 240 239
t88 332t-88 332t-240 239q-154 91 -331 91q-181 0 -332 -89q-152 -90 -240 -239t-88 -332t88 -332t240 -239q149 -88 332 -88q182 0 331 88zM778 350l-8 -16q-106 59 -164 166q-59 109 -59 252q0 140 59 249q58 107 164 166q108 60 236 60q110 0 198 -39q92 -40 156 -117
q65 -77 86 -184h-258q-41 145 -178 145q-92 0 -146 -69q-55 -70 -55 -205q0 -133 55 -203q57 -72 148 -72q67 0 116 37q51 39 66 111h258q-21 -109 -82 -185q-60 -75 -153 -116q-88 -39 -201 -39q-132 0 -238 59z" />
    <glyph glyph-name="ordfeminine" unicode="&#xaa;" horiz-adv-x="698" 
d="M735 1524h-4q70 -46 70 -135q0 -27 -8 -60l-70 -334h-205l21 92q-34 -46 -82 -75q-51 -31 -113 -31q-47 0 -88 20q-45 22 -68 58q-24 37 -24 82q0 94 72 141q71 47 200 59l154 15l2 8q2 6 2 29t-14 34q-16 13 -45 13q-32 0 -56 -17q-21 -15 -30 -43h-211q27 92 110 142
q82 49 195 49q121 0 192 -47zM518 1133h2q32 39 43 98l-78 -6q-52 -3 -79 -21t-27 -51q0 -28 18 -43q17 -14 47 -14q44 0 74 37z" />
    <glyph glyph-name="guillemotleft" unicode="&#xab;" horiz-adv-x="1431" 
d="M498 1016h381l-430 -463l217 -457h-361l-219 471zM1075 1016h381l-430 -463l217 -457h-360l-219 471z" />
    <glyph glyph-name="logicalnot" unicode="&#xac;" horiz-adv-x="1312" 
d="M1155 213h-244v453h-776v237h1020v-690z" />
    <glyph glyph-name="uni00AD" unicode="&#xad;" horiz-adv-x="915" 
d="M774 457h-676l54 258h677z" />
    <glyph glyph-name="registered" unicode="&#xae;" horiz-adv-x="1929" 
d="M1434 1505l-4 -8q193 -114 307 -307t114 -420q0 -230 -112 -420q-114 -193 -307 -307q-192 -113 -424 -113q-229 0 -424 115t-308 307q-112 190 -112 422q0 227 115 422q114 193 307 307q195 115 424 115q232 0 424 -113zM1337 199v-2q152 90 240 239t88 332t-88 332
t-240 239q-154 91 -331 91q-181 0 -332 -89q-152 -90 -240 -239t-88 -332t88 -332t240 -239q149 -88 332 -88q182 0 331 88zM1366 768l-2 2q-46 -68 -135 -102l201 -367h-259l-170 332h-118v-332h-230v926h379q119 0 203 -37t131 -105t47 -157q0 -92 -47 -160zM883 1040
v-217h143q68 0 111 29q39 26 39 80t-39 80q-42 28 -111 28h-143z" />
    <glyph glyph-name="macron" unicode="&#xaf;" horiz-adv-x="864" 
d="M977 1282h-780l47 219h780z" />
    <glyph glyph-name="degree" unicode="&#xb0;" horiz-adv-x="874" 
d="M385 889q-85 49 -135 135q-49 85 -49 186q0 102 49 187q50 85 135 135q85 49 186 49q102 0 187 -49q86 -50 135 -135t49 -187q0 -101 -49 -186q-49 -86 -135 -135q-85 -49 -187 -49q-101 0 -186 49zM647 1077v-2q34 21 55 55t21 74t-21 78q-20 36 -55 57t-74 21
q-43 0 -77 -21q-37 -22 -56 -57q-20 -36 -20 -76t20 -73q21 -35 56 -56q33 -20 77 -20q41 0 74 20z" />
    <glyph glyph-name="plusminus" unicode="&#xb1;" horiz-adv-x="1411" 
d="M805 1112v-276h434v-230h-434v-287h-246v287h-432v230h432v276h246zM1239 0h-1112v229h1112v-229z" />
    <glyph glyph-name="uni00B2" unicode="&#xb2;" horiz-adv-x="724" 
d="M420 1159l397 -4l-37 -166h-641l43 209l406 252q39 25 67 53q21 21 21 53q0 31 -25 50q-24 18 -63 18q-45 0 -76 -25q-30 -24 -39 -65h-211q15 77 62 133q48 57 116 86q73 31 154 31q87 0 154 -25q61 -23 100 -71q37 -46 37 -111q0 -83 -49 -141t-131 -107z" />
    <glyph glyph-name="uni00B3" unicode="&#xb3;" horiz-adv-x="722" 
d="M807 1460l-10 -14q-69 -47 -166 -62q77 -15 129 -61q53 -47 53 -111q0 -65 -37 -120q-38 -57 -114 -91q-71 -32 -191 -32q-139 0 -221 67t-88 187h213q6 -95 110 -95q49 0 86 29q33 26 33 72q0 40 -37 61q-38 21 -98 21h-57l34 162h62q70 0 110 24q41 24 41 62
q0 29 -24 47t-66 18q-40 0 -71 -25q-33 -26 -41 -61h-211q12 73 59 129t117 86q73 31 160 31q81 0 151 -25q67 -24 105 -71q36 -45 36 -105q0 -77 -67 -123z" />
    <glyph glyph-name="acute" unicode="&#xb4;" horiz-adv-x="747" 
d="M489 1237h-305l297 319h439z" />
    <glyph glyph-name="uni00B5" unicode="&#xb5;" horiz-adv-x="1562" 
d="M1403 229l-6 -231h-113q-161 0 -248 41q-84 40 -118 141q-5 25 -7 43q-40 -113 -125 -180q-86 -68 -225 -68q-21 0 -53 7v-383h-313v1513h313v-635v-4q0 -276 201 -276q198 0 198 282v633h314v-772v-4q0 -63 30 -84q33 -23 101 -23h51z" />
    <glyph glyph-name="paragraph" unicode="&#xb6;" horiz-adv-x="1515" 
d="M518 674l2 -6q-102 0 -182 47q-78 46 -125 129q-45 80 -45 184q0 126 72 252q70 122 194 199t268 77h842l-370 -1746h-295l319 1505h-248l-321 -1505h-293z" />
    <glyph glyph-name="periodcentered" unicode="&#xb7;" horiz-adv-x="583" 
d="M416 449h-295l67 313h295z" />
    <glyph glyph-name="cedilla" unicode="&#xb8;" horiz-adv-x="456" 
d="M106 -66l3 3q64 -9 104 -46q39 -36 39 -94q0 -66 -33 -110q-36 -48 -92 -74q-59 -27 -135 -27h-154l31 142h88q40 0 66 16q24 15 24 43q0 26 -18 35q-20 10 -52 10h-55l35 168h164z" />
    <glyph glyph-name="uni00B9" unicode="&#xb9;" horiz-adv-x="477" 
d="M483 1772h172l-166 -779h-213l107 500h-170l35 166h24q81 0 127 22q44 21 74 74z" />
    <glyph glyph-name="ordmasculine" unicode="&#xba;" horiz-adv-x="706" 
d="M315 1008l-6 -2q-57 25 -94 84q-33 53 -33 129q0 91 43 170q44 80 125 129q82 49 201 49q75 0 141 -29q62 -27 96 -82q35 -56 35 -129q0 -91 -43 -170q-44 -80 -125 -129q-82 -49 -196 -49q-78 0 -144 29zM547 1149l-6 -2q33 38 47 86q16 56 16 104t-20 68q-22 22 -58 22
q-47 0 -75 -32q-35 -40 -48 -86q-16 -56 -16 -105q0 -44 23 -67t59 -23q48 0 78 35z" />
    <glyph glyph-name="guillemotright" unicode="&#xbb;" horiz-adv-x="1431" 
d="M188 1016h361l219 -471l-412 -449h-381l431 463zM766 1016h360l220 -471l-412 -449h-381l430 463z" />
    <glyph glyph-name="onequarter" unicode="&#xbc;" horiz-adv-x="1669" 
d="M1464 350h105l-37 -164h-102l-39 -186h-213l39 186h-377l45 209l280 383h391zM1333 727l-278 -377h196zM483 1556h172l-166 -778h-213l107 500h-170l35 166h24q81 0 127 22q44 21 74 74zM356 0h-280l1159 1556h278z" />
    <glyph glyph-name="onehalf" unicode="&#xbd;" horiz-adv-x="1687" 
d="M1147 166l397 -4l-37 -166h-641l43 209l406 252q39 25 67 53q21 21 21 53q0 30 -25 49t-63 19q-45 0 -76 -25q-30 -24 -39 -65h-211q15 77 62 133q48 57 116 86q73 31 154 31q87 0 154 -25q60 -22 100 -72q37 -46 37 -110q0 -84 -49 -142q-47 -56 -131 -106zM485 1552
h172l-165 -778h-213l106 500h-170l35 166h24q81 0 127 22q44 21 74 74zM358 -4h-280l1159 1556h279z" />
    <glyph glyph-name="threequarters" unicode="&#xbe;" horiz-adv-x="1865" 
d="M795 1245l-11 -14q-69 -47 -166 -62q79 -15 130 -61q53 -47 53 -111q0 -65 -37 -120q-38 -56 -115 -91q-71 -32 -190 -32q-139 0 -221 67t-88 187h212q6 -95 111 -95q49 0 86 29q33 26 33 72q0 40 -37 61q-38 21 -98 21h-58l35 161h62q68 0 110 25q41 24 41 61
q0 30 -24 48t-66 18q-41 0 -72 -25q-33 -26 -41 -61h-211q12 71 60 129q47 56 117 86q73 31 159 31q82 0 152 -25q66 -23 104 -71q37 -46 37 -105q0 -77 -67 -123zM539 -14h-281l1159 1556h279zM1647 336h104l-37 -164h-102l-39 -186h-213l39 186h-377l45 209l281 383h391z
M1516 713l-279 -377h197z" />
    <glyph glyph-name="questiondown" unicode="&#xbf;" horiz-adv-x="1210" 
d="M852 799h-346l67 313h347zM158 -389l-2 -8q-108 38 -166 110q-60 75 -60 174q0 117 60 205q61 90 178 164l131 88q62 39 100 74q41 38 56 69q18 37 30 91h320q-24 -114 -80 -197q-54 -81 -150 -143l-131 -91q-56 -38 -104 -77q-35 -28 -57 -64q-21 -34 -21 -74
q0 -54 43 -88q40 -32 133 -32q107 0 178 51q75 54 99 141h323q-30 -133 -116 -233q-85 -99 -217 -148q-131 -49 -291 -49q-149 0 -256 37z" />
    <glyph glyph-name="Agrave" unicode="&#xc0;" horiz-adv-x="1622" 
d="M1507 0h-333l-44 420h-677l-224 -420h-352l848 1556h598zM1020 1491l-424 -801h506zM1192 1673h-303l-311 297h423z" />
    <glyph glyph-name="Aacute" unicode="&#xc1;" horiz-adv-x="1622" 
d="M1507 0h-333l-44 420h-677l-224 -420h-352l848 1556h598zM1020 1491l-424 -801h506zM1186 1673h-328l311 297h459z" />
    <glyph glyph-name="Acircumflex" unicode="&#xc2;" horiz-adv-x="1622" 
d="M1507 0h-333l-44 420h-677l-224 -420h-352l848 1556h598zM1020 1491l-424 -801h506zM1300 1970l201 -297h-272l-156 164l-203 -164h-297l316 297h411z" />
    <glyph glyph-name="Atilde" unicode="&#xc3;" horiz-adv-x="1622" 
d="M1507 0h-333l-44 420h-677l-224 -420h-352l848 1556h598zM1020 1491l-424 -801h506zM662 1690v-2q35 140 110 215t176 75q42 0 86 -12q36 -10 74 -29q25 -14 59 -24q27 -8 60 -8q50 0 86 20q38 21 55 57h107q-35 -139 -111 -215q-75 -75 -174 -75q-42 0 -86 12
q-25 7 -76 29q-57 32 -121 32q-48 0 -84 -20q-37 -21 -55 -55h-106z" />
    <glyph glyph-name="Adieresis" unicode="&#xc4;" horiz-adv-x="1622" 
d="M1507 0h-333l-44 420h-677l-224 -420h-352l848 1556h598zM1020 1491l-424 -801h506zM967 1673h-340l63 297h340zM1438 1673h-340l63 297h340z" />
    <glyph glyph-name="Aring" unicode="&#xc5;" horiz-adv-x="1622" 
d="M1507 0h-333l-44 420h-677l-224 -420h-352l848 1556h598zM1020 1491l-424 -801h506zM932 1694h-6q-56 29 -92 90q-33 56 -33 135q0 89 43 162q44 73 117 117q73 43 159 43q73 0 133 -31q59 -30 93 -88t34 -137q0 -89 -43 -162q-44 -74 -116 -117q-73 -43 -160 -43
q-69 0 -129 31zM1159 1882l2 2q35 35 35 86q0 38 -27 62t-63 24q-51 0 -86 -35q-33 -33 -33 -86q0 -38 25 -63t61 -25q51 0 86 35z" />
    <glyph glyph-name="AE" unicode="&#xc6;" horiz-adv-x="2148" 
d="M2243 1556l-58 -270h-829l41 -352h698l-57 -270h-608l45 -394h512l-58 -270h-755l-44 420h-677l-224 -420h-352l848 1556h1518zM1020 1491l-424 -801h506z" />
    <glyph glyph-name="Ccedilla" unicode="&#xc7;" horiz-adv-x="1630" 
d="M1055 313l-2 -6q119 82 190 221h344q-65 -160 -172 -282q-110 -126 -258 -195q-151 -71 -338 -80l-8 -41q63 -9 104 -47t41 -94q0 -67 -32 -113q-33 -48 -95 -75q-61 -27 -137 -27h-160l31 152h90q86 0 86 53q0 43 -65 43h-58l33 153q-156 21 -280 103q-122 81 -189 215
t-67 315q0 242 108 467t314 363q207 139 481 139q185 0 327 -68q146 -70 226 -192q83 -127 98 -295h-344q-18 144 -104 221q-87 78 -234 78q-163 0 -285 -98q-124 -100 -188 -265q-66 -170 -66 -356q0 -121 43 -203q44 -84 123 -127t185 -43q136 0 258 84z" />
    <glyph glyph-name="Egrave" unicode="&#xc8;" horiz-adv-x="1355" 
d="M1450 1556l-57 -270h-746l-74 -352h730l-58 -270h-729l-84 -394h762l-57 -270h-1092l330 1556h1075zM1087 1673h-303l-311 297h424z" />
    <glyph glyph-name="Eacute" unicode="&#xc9;" horiz-adv-x="1355" 
d="M1450 1556l-57 -270h-746l-74 -352h730l-58 -270h-729l-84 -394h762l-57 -270h-1092l330 1556h1075zM1059 1673h-328l311 297h459z" />
    <glyph glyph-name="Ecircumflex" unicode="&#xca;" horiz-adv-x="1355" 
d="M1450 1556l-57 -270h-746l-74 -352h730l-58 -270h-729l-84 -394h762l-57 -270h-1092l330 1556h1075zM1188 1970l201 -297h-273l-155 164l-203 -164h-297l315 297h412z" />
    <glyph glyph-name="Edieresis" unicode="&#xcb;" horiz-adv-x="1355" 
d="M1450 1556l-57 -270h-746l-74 -352h730l-58 -270h-729l-84 -394h762l-57 -270h-1092l330 1556h1075zM852 1673h-340l63 297h340zM1323 1673h-340l64 297h339z" />
    <glyph glyph-name="Igrave" unicode="&#xcc;" horiz-adv-x="655" 
d="M375 0h-330l330 1556h330zM690 1673h-303l-311 297h424z" />
    <glyph glyph-name="Iacute" unicode="&#xcd;" horiz-adv-x="655" 
d="M375 0h-330l330 1556h330zM739 1673h-327l311 297h459z" />
    <glyph glyph-name="Icircumflex" unicode="&#xce;" horiz-adv-x="655" 
d="M375 0h-330l330 1556h330zM831 1970l201 -297h-272l-156 164l-203 -164h-297l316 297h411z" />
    <glyph glyph-name="Idieresis" unicode="&#xcf;" horiz-adv-x="655" 
d="M375 0h-330l330 1556h330zM496 1673h-340l63 297h340zM967 1673h-340l63 297h340z" />
    <glyph glyph-name="Eth" unicode="&#xd0;" horiz-adv-x="1646" 
d="M942 1556l2 -4q202 0 352 -69q156 -72 240 -211q86 -142 86 -340q0 -280 -123 -492q-123 -211 -340 -325q-219 -115 -508 -115h-585l145 682h-170l51 236h168l135 638h547zM688 266l-2 -2q191 0 328 90q134 88 203 238q67 146 67 323q0 184 -94 275q-95 92 -272 92h-248
l-78 -369h348l-49 -235h-348l-88 -412h233z" />
    <glyph glyph-name="Ntilde" unicode="&#xd1;" horiz-adv-x="1792" 
d="M1194 59l317 1497h330l-330 -1556h-616l-205 1491l-315 -1491h-330l330 1556h616zM764 1690v-2q35 140 110 215t177 75q43 0 86 -12q33 -9 73 -29q23 -13 60 -24q27 -8 59 -8q50 0 86 20q38 21 55 57h107q-35 -139 -111 -215q-75 -75 -174 -75q-42 0 -86 12q-25 7 -76 29
q-57 32 -120 32q-48 0 -84 -20q-39 -22 -56 -55h-106z" />
    <glyph glyph-name="Ograve" unicode="&#xd2;" horiz-adv-x="1726" 
d="M438 49h-2q-152 73 -239 219q-86 145 -86 348q0 246 110 465q113 224 320 361q210 139 489 139q194 0 348 -74q156 -75 240 -217q86 -145 86 -350q0 -245 -111 -465q-112 -223 -319 -360q-212 -140 -490 -140q-192 0 -346 74zM1104 330v-2q127 100 194 262q68 165 68 356
q0 124 -45 207q-47 85 -129 129q-82 43 -191 43q-169 0 -294 -98q-129 -101 -195 -262q-68 -165 -68 -357q0 -122 45 -205q47 -85 129 -129q82 -43 191 -43q169 0 295 99zM1251 1671h-303l-311 297h424z" />
    <glyph glyph-name="Oacute" unicode="&#xd3;" horiz-adv-x="1726" 
d="M438 49h-2q-152 73 -239 219q-86 145 -86 348q0 246 110 465q113 224 320 361q210 139 489 139q194 0 348 -74q156 -75 240 -217q86 -145 86 -350q0 -245 -111 -465q-112 -223 -319 -360q-212 -140 -490 -140q-192 0 -346 74zM1104 330v-2q127 100 194 262q68 165 68 356
q0 124 -45 207q-47 85 -129 129q-82 43 -191 43q-169 0 -294 -98q-129 -101 -195 -262q-68 -165 -68 -357q0 -122 45 -205q47 -85 129 -129q82 -43 191 -43q169 0 295 99zM1223 1671h-328l311 297h459z" />
    <glyph glyph-name="Ocircumflex" unicode="&#xd4;" horiz-adv-x="1726" 
d="M438 49h-2q-152 73 -239 219q-86 145 -86 348q0 246 110 465q113 224 320 361q210 139 489 139q194 0 348 -74q156 -75 240 -217q86 -145 86 -350q0 -245 -111 -465q-112 -223 -319 -360q-212 -140 -490 -140q-192 0 -346 74zM1104 330v-2q127 100 194 262q68 165 68 356
q0 124 -45 207q-47 85 -129 129q-82 43 -191 43q-169 0 -294 -98q-129 -101 -195 -262q-68 -165 -68 -357q0 -122 45 -205q47 -85 129 -129q82 -43 191 -43q169 0 295 99zM1350 1968l200 -297h-272l-156 164l-202 -164h-297l315 297h412z" />
    <glyph glyph-name="Otilde" unicode="&#xd5;" horiz-adv-x="1726" 
d="M438 49h-2q-152 73 -239 219q-86 145 -86 348q0 246 110 465q113 224 320 361q210 139 489 139q194 0 348 -74q156 -75 240 -217q86 -145 86 -350q0 -245 -111 -465q-112 -223 -319 -360q-212 -140 -490 -140q-192 0 -346 74zM1104 330v-2q127 100 194 262q68 165 68 356
q0 124 -45 207q-47 85 -129 129q-82 43 -191 43q-169 0 -294 -98q-129 -101 -195 -262q-68 -165 -68 -357q0 -122 45 -205q47 -85 129 -129q82 -43 191 -43q169 0 295 99zM711 1688v-2q35 140 110 215t176 75q43 0 86 -12q36 -10 74 -29q23 -13 60 -24q27 -8 59 -8
q50 0 86 20q38 21 55 57h107q-35 -139 -111 -215q-75 -75 -174 -75q-43 0 -86 12q-25 7 -76 29q-57 32 -121 32q-48 0 -84 -20q-37 -21 -55 -55h-106z" />
    <glyph glyph-name="Odieresis" unicode="&#xd6;" horiz-adv-x="1726" 
d="M438 49h-2q-152 73 -239 219q-86 145 -86 348q0 246 110 465q113 224 320 361q210 139 489 139q194 0 348 -74q156 -75 240 -217q86 -145 86 -350q0 -245 -111 -465q-112 -223 -319 -360q-212 -140 -490 -140q-192 0 -346 74zM1104 330v-2q127 100 194 262q68 165 68 356
q0 124 -45 207q-47 85 -129 129q-82 43 -191 43q-169 0 -294 -98q-129 -101 -195 -262q-68 -165 -68 -357q0 -122 45 -205q47 -85 129 -129q82 -43 191 -43q169 0 295 99zM1016 1671h-340l63 297h340zM1487 1671h-340l63 297h340z" />
    <glyph glyph-name="multiply" unicode="&#xd7;" horiz-adv-x="1284" 
d="M997 1075l162 -162l-354 -354l354 -356l-162 -162l-354 354l-354 -354l-164 162l356 356l-356 354l164 162l354 -354z" />
    <glyph glyph-name="Oslash" unicode="&#xd8;" horiz-adv-x="1726" 
d="M2007 1556l-360 -313q61 -134 61 -301q0 -245 -111 -465q-112 -223 -319 -360q-212 -140 -490 -140q-129 0 -245 35q-115 35 -203 99l-123 -109h-407l362 315q-61 131 -61 299q0 246 110 465q113 224 320 361q210 139 489 139q137 0 246 -33q117 -35 203 -98l123 106h405
zM453 557l792 692q-49 39 -106 56q-61 18 -131 18q-170 0 -295 -98q-129 -101 -195 -262q-67 -162 -67 -357q0 -39 2 -49zM1366 999l-795 -688q96 -78 240 -78q169 0 295 99q127 100 194 262q68 165 68 356q0 39 -2 49z" />
    <glyph glyph-name="Ugrave" unicode="&#xd9;" horiz-adv-x="1599" 
d="M399 33l-4 -6q-129 59 -192 161q-64 104 -64 244q0 85 23 203l194 917h330l-207 -974q-14 -60 -14 -117q0 -116 67 -174t197 -58q162 0 264 99t142 282l200 946h330l-199 -940q-67 -308 -243 -475q-175 -166 -508 -166q-188 0 -316 58zM1188 1667h-303l-312 297h424z" />
    <glyph glyph-name="Uacute" unicode="&#xda;" horiz-adv-x="1599" 
d="M399 33l-4 -6q-129 59 -192 161q-64 104 -64 244q0 85 23 203l194 917h330l-207 -974q-14 -60 -14 -117q0 -116 67 -174t197 -58q162 0 264 99t142 282l200 946h330l-199 -940q-67 -308 -243 -475q-175 -166 -508 -166q-188 0 -316 58zM1159 1667h-328l312 297h459z" />
    <glyph glyph-name="Ucircumflex" unicode="&#xdb;" horiz-adv-x="1599" 
d="M399 33l-4 -6q-129 59 -192 161q-64 104 -64 244q0 85 23 203l194 917h330l-207 -974q-14 -60 -14 -117q0 -116 67 -174t197 -58q162 0 264 99t142 282l200 946h330l-199 -940q-67 -308 -243 -475q-175 -166 -508 -166q-188 0 -316 58zM1286 1964l201 -297h-273l-155 164
l-203 -164h-297l315 297h412z" />
    <glyph glyph-name="Udieresis" unicode="&#xdc;" horiz-adv-x="1599" 
d="M399 33l-4 -6q-129 59 -192 161q-64 104 -64 244q0 85 23 203l194 917h330l-207 -974q-14 -60 -14 -117q0 -116 67 -174t197 -58q162 0 264 99t142 282l200 946h330l-199 -940q-67 -308 -243 -475q-175 -166 -508 -166q-188 0 -316 58zM952 1667h-340l64 297h340z
M1423 1667h-340l64 297h340z" />
    <glyph glyph-name="Yacute" unicode="&#xdd;" horiz-adv-x="1437" 
d="M1282 1556h387l-774 -940l-131 -616h-330l137 649l-387 907h344l263 -626zM1057 1673h-328l311 297h459z" />
    <glyph glyph-name="Thorn" unicode="&#xde;" horiz-adv-x="1476" 
d="M909 1313v2q167 0 289 -51q127 -53 197 -154q69 -100 69 -242q0 -169 -82 -297q-83 -130 -247 -202q-168 -74 -402 -74h-295l-63 -295h-330l330 1556h330l-52 -243h256zM778 567v-2q112 0 193 35q78 34 119 96q40 61 40 146q0 102 -61 151t-184 49h-289l-102 -475h284z
" />
    <glyph glyph-name="germandbls" unicode="&#xdf;" horiz-adv-x="1329" 
d="M1061 788l-10 7q75 -40 125 -117q49 -76 49 -180q0 -147 -62 -265q-61 -116 -182 -184q-119 -67 -289 -67q-139 0 -246 43l43 208q42 -22 74 -30q31 -8 74 -8q88 0 149 43q64 45 93 116q30 74 30 156q0 67 -26 115q-27 50 -80 77q-56 29 -123 29h-21l46 215h14
q102 0 164 41t86 103t24 124q0 73 -45 115q-46 43 -119 43q-110 0 -178 -80q-67 -79 -94 -215l-229 -1073h-320l223 1047q56 262 222 397q167 135 417 135q139 0 240 -43t154 -123t53 -186q0 -173 -115 -268q-118 -98 -301 -127q80 -6 160 -48z" />
    <glyph glyph-name="agrave" unicode="&#xe0;" horiz-adv-x="1259" 
d="M1055 1049l-6 -2q122 -88 122 -254q0 -51 -12 -109l-145 -686h-316l43 207q-60 -104 -155 -166q-101 -66 -230 -66q-91 0 -166 37q-74 36 -122 109q-45 68 -45 164q0 183 129 274q132 93 389 117l307 28l4 21q8 36 8 61q0 65 -41 103q-40 37 -121 37q-90 0 -143 -39
q-57 -42 -78 -111h-319q34 116 114 199q79 82 195 123q115 41 246 41q220 0 342 -88zM686 248l-2 2q81 87 111 233l6 27l-187 -18q-130 -15 -202 -56t-72 -129q0 -71 43 -108t109 -37q114 0 194 86zM893 1235h-297l-285 319h420z" />
    <glyph glyph-name="aacute" unicode="&#xe1;" horiz-adv-x="1259" 
d="M1055 1049l-6 -2q122 -88 122 -254q0 -51 -12 -109l-145 -686h-316l43 207q-60 -104 -155 -166q-101 -66 -230 -66q-91 0 -166 37q-74 36 -122 109q-45 68 -45 164q0 183 129 274q132 93 389 117l307 28l4 21q8 36 8 61q0 65 -41 103q-40 37 -121 37q-90 0 -143 -39
q-57 -42 -78 -111h-319q34 116 114 199q79 82 195 123q115 41 246 41q220 0 342 -88zM686 248l-2 2q81 87 111 233l6 27l-187 -18q-130 -15 -202 -56t-72 -129q0 -71 43 -108t109 -37q114 0 194 86zM864 1235h-305l297 319h438z" />
    <glyph glyph-name="acircumflex" unicode="&#xe2;" horiz-adv-x="1259" 
d="M1055 1049l-6 -2q122 -88 122 -254q0 -51 -12 -109l-145 -686h-316l43 207q-60 -104 -155 -166q-101 -66 -230 -66q-91 0 -166 37q-74 36 -122 109q-45 68 -45 164q0 183 129 274q132 93 389 117l307 28l4 21q8 36 8 61q0 65 -41 103q-40 37 -121 37q-90 0 -143 -39
q-57 -42 -78 -111h-319q34 116 114 199q79 82 195 123q115 41 246 41q220 0 342 -88zM686 248l-2 2q81 87 111 233l6 27l-187 -18q-130 -15 -202 -56t-72 -129q0 -71 43 -108t109 -37q114 0 194 86zM989 1554l199 -319h-268l-146 184l-217 -184h-287l324 319h395z" />
    <glyph glyph-name="atilde" unicode="&#xe3;" horiz-adv-x="1259" 
d="M1055 1049l-6 -2q122 -88 122 -254q0 -51 -12 -109l-145 -686h-316l43 207q-60 -104 -155 -166q-101 -66 -230 -66q-91 0 -166 37q-74 36 -122 109q-45 68 -45 164q0 183 129 274q132 93 389 117l307 28l4 21q8 36 8 61q0 65 -41 103q-40 37 -121 37q-90 0 -143 -39
q-57 -42 -78 -111h-319q34 116 114 199q79 82 195 123q115 41 246 41q220 0 342 -88zM686 248l-2 2q81 87 111 233l6 27l-187 -18q-130 -15 -202 -56t-72 -129q0 -71 43 -108t109 -37q114 0 194 86zM379 1262q30 139 104 213q73 73 168 73q75 0 152 -45q62 -33 110 -33
t84 25q37 26 54 61h98q-30 -138 -105 -213q-73 -73 -167 -73q-75 0 -152 45q-62 33 -111 33q-48 0 -84 -25t-53 -61h-98z" />
    <glyph glyph-name="adieresis" unicode="&#xe4;" horiz-adv-x="1259" 
d="M1055 1049l-6 -2q122 -88 122 -254q0 -51 -12 -109l-145 -686h-316l43 207q-60 -104 -155 -166q-101 -66 -230 -66q-91 0 -166 37q-74 36 -122 109q-45 68 -45 164q0 183 129 274q132 93 389 117l307 28l4 21q8 36 8 61q0 65 -41 103q-40 37 -121 37q-90 0 -143 -39
q-57 -42 -78 -111h-319q34 116 114 199q79 82 195 123q115 41 246 41q220 0 342 -88zM686 248l-2 2q81 87 111 233l6 27l-187 -18q-130 -15 -202 -56t-72 -129q0 -71 43 -108t109 -37q114 0 194 86zM641 1260h-330l64 294h330zM1128 1260h-329l63 294h330z" />
    <glyph glyph-name="aring" unicode="&#xe5;" horiz-adv-x="1259" 
d="M1055 1049l-6 -2q122 -88 122 -254q0 -51 -12 -109l-145 -686h-316l43 207q-60 -104 -155 -166q-101 -66 -230 -66q-91 0 -166 37q-74 36 -122 109q-45 68 -45 164q0 183 129 274q132 93 389 117l307 28l4 21q8 36 8 61q0 65 -41 103q-40 37 -121 37q-90 0 -143 -39
q-57 -42 -78 -111h-319q34 116 114 199q79 82 195 123q115 41 246 41q220 0 342 -88zM686 248l-2 2q81 87 111 233l6 27l-187 -18q-130 -15 -202 -56t-72 -129q0 -71 43 -108t109 -37q114 0 194 86zM641 1253l-8 -6q-50 26 -82 78q-31 51 -31 121q0 79 39 141q41 66 105 103
q62 36 139 36q64 0 115 -26t81 -76q31 -51 31 -119q0 -77 -37 -141q-36 -61 -102 -100q-64 -37 -137 -37q-62 0 -113 26zM829 1413v-2q29 32 29 72q0 36 -20 53q-21 18 -52 18q-43 0 -71 -28q-29 -29 -29 -68q0 -32 23 -55q21 -21 53 -21q39 0 67 31z" />
    <glyph glyph-name="ae" unicode="&#xe6;" horiz-adv-x="2029" 
d="M1126 463l-6 -27q0 -119 56 -184q55 -64 153 -64q83 0 141 37t99 109h319q-85 -178 -235 -266q-149 -88 -344 -88q-164 0 -265 61q-98 59 -155 182q-75 -112 -199 -180t-289 -68q-102 0 -186 37q-83 36 -137 109q-51 68 -51 170q0 123 63 207q65 86 184 129t287 43h285
l12 53q8 36 8 61q0 63 -41 101q-40 37 -123 37q-90 0 -143 -39q-55 -40 -76 -111h-321q35 119 114 201t195 123q115 41 246 41q132 0 221 -47t133 -127q77 83 184 129q109 47 240 47q145 0 252 -52q108 -53 166 -153q59 -103 59 -246q0 -110 -37 -225h-809zM1282 856v2
q-78 -72 -121 -184h490q0 1 0.5 3.5t1.5 8t2 10.5q4 24 4 37q0 90 -51 141q-52 52 -144 52q-106 0 -182 -70zM684 262l2 -4q76 70 111 203h-170q-148 0 -215 -33q-70 -34 -70 -111q0 -60 43 -94q42 -33 115 -33q106 0 184 72z" />
    <glyph glyph-name="ccedilla" unicode="&#xe7;" horiz-adv-x="1253" 
d="M743 242l-4 -2q71 56 111 153h321q-68 -189 -217 -299t-374 -119l-9 -41q66 -9 105 -45t39 -94q0 -66 -33 -110q-36 -48 -92 -74q-58 -27 -135 -27h-154l31 142h88q39 0 65 16q25 16 25 43q0 26 -18 35q-20 10 -52 10h-55l33 156q-108 20 -193 84q-81 60 -125 153
q-43 90 -43 213q0 176 78 338q75 157 232 258q151 98 368 98q145 0 252 -49q108 -49 170 -145q63 -97 66 -227h-320q-6 104 -53 157q-48 54 -139 54q-102 0 -179 -74q-75 -72 -116 -187q-39 -110 -39 -229q0 -115 53 -180q52 -64 148 -64q94 0 165 56z" />
    <glyph glyph-name="egrave" unicode="&#xe8;" horiz-adv-x="1275" 
d="M371 463l-2 -25q0 -119 55 -180t156 -61q83 0 141 34q57 34 98 105h320q-85 -177 -236 -266q-149 -88 -346 -88q-150 0 -260 55q-111 55 -172 160q-62 106 -62 245q0 176 78 338q75 155 232 260q151 101 368 101q147 0 252 -51q108 -52 166 -154q60 -105 60 -246
q0 -115 -37 -227h-811zM530 860l-4 4q-74 -68 -118 -184h487q8 27 8 59q0 93 -49 142t-143 49q-105 0 -181 -70zM897 1247h-297l-285 320h420z" />
    <glyph glyph-name="eacute" unicode="&#xe9;" horiz-adv-x="1275" 
d="M371 463l-2 -25q0 -119 55 -180t156 -61q83 0 141 34q57 34 98 105h320q-85 -177 -236 -266q-149 -88 -346 -88q-150 0 -260 55q-111 55 -172 160q-62 106 -62 245q0 176 78 338q75 155 232 260q151 101 368 101q147 0 252 -51q108 -52 166 -154q60 -105 60 -246
q0 -115 -37 -227h-811zM530 860l-4 4q-74 -68 -118 -184h487q8 27 8 59q0 93 -49 142t-143 49q-105 0 -181 -70zM885 1247h-305l297 320h438z" />
    <glyph glyph-name="ecircumflex" unicode="&#xea;" horiz-adv-x="1275" 
d="M371 463l-2 -25q0 -119 55 -180t156 -61q83 0 141 34q57 34 98 105h320q-85 -177 -236 -266q-149 -88 -346 -88q-150 0 -260 55q-111 55 -172 160q-62 106 -62 245q0 176 78 338q75 155 232 260q151 101 368 101q147 0 252 -51q108 -52 166 -154q60 -105 60 -246
q0 -115 -37 -227h-811zM530 860l-4 4q-74 -68 -118 -184h487q8 27 8 59q0 93 -49 142t-143 49q-105 0 -181 -70zM1012 1567l198 -320h-268l-145 185l-217 -185h-287l323 320h396z" />
    <glyph glyph-name="edieresis" unicode="&#xeb;" horiz-adv-x="1275" 
d="M371 463l-2 -25q0 -119 55 -180t156 -61q83 0 141 34q57 34 98 105h320q-85 -177 -236 -266q-149 -88 -346 -88q-150 0 -260 55q-111 55 -172 160q-62 106 -62 245q0 176 78 338q75 155 232 260q151 101 368 101q147 0 252 -51q108 -52 166 -154q60 -105 60 -246
q0 -115 -37 -227h-811zM530 860l-4 4q-74 -68 -118 -184h487q8 27 8 59q0 93 -49 142t-143 49q-105 0 -181 -70zM662 1272h-330l63 295h330zM1149 1272h-330l64 295h329z" />
    <glyph glyph-name="igrave" unicode="&#xec;" horiz-adv-x="581" 
d="M332 0h-320l238 1112h319zM573 1237h-297l-284 319h420z" />
    <glyph glyph-name="iacute" unicode="&#xed;" horiz-adv-x="581" 
d="M332 0h-320l238 1112h319zM598 1237h-305l297 319h438z" />
    <glyph glyph-name="icircumflex" unicode="&#xee;" horiz-adv-x="581" 
d="M332 0h-320l238 1112h319zM694 1556l199 -319h-268l-146 184l-217 -184h-287l324 319h395z" />
    <glyph glyph-name="idieresis" unicode="&#xef;" horiz-adv-x="581" 
d="M332 0h-320l238 1112h319zM344 1262h-330l64 294h330zM831 1262h-329l63 294h330z" />
    <glyph glyph-name="eth" unicode="&#xf0;" horiz-adv-x="1304" 
d="M1087 1337l-8 -4q86 -119 127 -235q43 -122 43 -271q0 -250 -82 -442q-81 -191 -239 -303q-156 -111 -379 -111q-144 0 -256 56t-172 159q-62 106 -62 250q0 167 72 326q70 154 203 254q131 98 303 98q127 0 203 -76t100 -184q3 104 -35 207q-40 108 -106 194l-277 -77
l-10 153l174 49q-106 98 -242 176h439l96 -92l266 76l10 -156zM758 256h2q76 70 117 182t41 224q0 114 -56 176q-55 61 -149 61q-107 0 -185 -72q-75 -69 -116 -182q-39 -107 -39 -221q0 -116 53 -178t147 -62q107 0 185 72z" />
    <glyph glyph-name="ntilde" unicode="&#xf1;" horiz-adv-x="1298" 
d="M1141 1053v-9q82 -82 82 -221q0 -65 -15 -135l-147 -694h-320l136 639q14 66 14 123q0 77 -39 116q-41 41 -111 41q-100 0 -172 -75q-74 -77 -104 -222l-133 -618h-320l238 1112h315l-47 -225q65 115 166 182q103 68 221 68q154 0 236 -82zM438 1253q30 138 105 213
q74 74 168 74q74 0 151 -45q62 -33 111 -33q48 0 84 25t53 61h98q-30 -139 -104 -213q-73 -73 -168 -73q-75 0 -152 45q-60 32 -110 32t-84 -24q-35 -24 -53 -62h-99z" />
    <glyph glyph-name="ograve" unicode="&#xf2;" horiz-adv-x="1302" 
d="M297 29h-4q-112 56 -172 159q-62 106 -62 250q0 176 78 338q75 157 232 258q153 99 374 99q144 0 256 -56q114 -57 177 -159q63 -103 63 -250q0 -176 -78 -338q-76 -159 -233 -258q-156 -99 -375 -99q-144 0 -256 56zM760 260l2 -4q76 73 117 188t41 232q0 115 -56 180
q-55 64 -149 64q-108 0 -185 -74q-75 -72 -116 -187q-39 -110 -39 -229q0 -115 53 -180q52 -64 147 -64q108 0 185 74zM932 1231h-297l-285 319h420z" />
    <glyph glyph-name="oacute" unicode="&#xf3;" horiz-adv-x="1302" 
d="M297 29h-4q-112 56 -172 159q-62 106 -62 250q0 176 78 338q75 157 232 258q153 99 374 99q144 0 256 -56q114 -57 177 -159q63 -103 63 -250q0 -176 -78 -338q-76 -159 -233 -258q-156 -99 -375 -99q-144 0 -256 56zM760 260l2 -4q76 73 117 188t41 232q0 115 -56 180
q-55 64 -149 64q-108 0 -185 -74q-75 -72 -116 -187q-39 -110 -39 -229q0 -115 53 -180q52 -64 147 -64q108 0 185 74zM903 1231h-305l297 319h438z" />
    <glyph glyph-name="ocircumflex" unicode="&#xf4;" horiz-adv-x="1302" 
d="M297 29h-4q-112 56 -172 159q-62 106 -62 250q0 176 78 338q75 157 232 258q153 99 374 99q144 0 256 -56q114 -57 177 -159q63 -103 63 -250q0 -176 -78 -338q-76 -159 -233 -258q-156 -99 -375 -99q-144 0 -256 56zM760 260l2 -4q76 73 117 188t41 232q0 115 -56 180
q-55 64 -149 64q-108 0 -185 -74q-75 -72 -116 -187q-39 -110 -39 -229q0 -115 53 -180q52 -64 147 -64q108 0 185 74zM1030 1550l199 -319h-268l-146 184l-217 -184h-287l324 319h395z" />
    <glyph glyph-name="otilde" unicode="&#xf5;" horiz-adv-x="1302" 
d="M297 29h-4q-112 56 -172 159q-62 106 -62 250q0 176 78 338q75 157 232 258q153 99 374 99q144 0 256 -56q114 -57 177 -159q63 -103 63 -250q0 -176 -78 -338q-76 -159 -233 -258q-156 -99 -375 -99q-144 0 -256 56zM760 260l2 -4q76 73 117 188t41 232q0 115 -56 180
q-55 64 -149 64q-108 0 -185 -74q-75 -72 -116 -187q-39 -110 -39 -229q0 -115 53 -180q52 -64 147 -64q108 0 185 74zM418 1257q30 139 104 213t168 74q75 0 152 -45q62 -33 110 -33t84 25q37 26 54 61h98q-30 -138 -105 -213q-73 -73 -168 -73q-74 0 -151 45
q-60 32 -111 32q-49 0 -84 -24t-53 -62h-98z" />
    <glyph glyph-name="odieresis" unicode="&#xf6;" horiz-adv-x="1302" 
d="M297 29h-4q-112 56 -172 159q-62 106 -62 250q0 176 78 338q75 157 232 258q153 99 374 99q144 0 256 -56q114 -57 177 -159q63 -103 63 -250q0 -176 -78 -338q-76 -159 -233 -258q-156 -99 -375 -99q-144 0 -256 56zM760 260l2 -4q76 73 117 188t41 232q0 115 -56 180
q-55 64 -149 64q-108 0 -185 -74q-75 -72 -116 -187q-39 -110 -39 -229q0 -115 53 -180q52 -64 147 -64q108 0 185 74zM680 1255h-330l64 295h329zM1167 1255h-329l63 295h330z" />
    <glyph glyph-name="divide" unicode="&#xf7;" horiz-adv-x="1349" 
d="M819 831h-289v281h289v-281zM1231 442h-1112v236h1112v-236zM819 0h-289v281h289v-281z" />
    <glyph glyph-name="oslash" unicode="&#xf8;" horiz-adv-x="1302" 
d="M1462 1112l-264 -227q43 -90 43 -213q0 -176 -78 -338q-76 -159 -233 -258q-156 -99 -375 -99q-85 0 -172 23q-76 20 -141 66l-74 -64h-330l266 227q-43 90 -43 213q0 176 78 338q75 157 232 258q153 99 374 99q86 0 173 -23q77 -20 143 -65l74 63h327zM543 856v-2
q-74 -68 -117 -172t-49 -217l477 407q-52 52 -137 52q-100 0 -174 -68zM756 254q72 66 116 172t50 219l-478 -409q53 -50 136 -50q102 0 176 68z" />
    <glyph glyph-name="ugrave" unicode="&#xf9;" horiz-adv-x="1290" 
d="M956 1112h322l-236 -1112h-315l47 227q-65 -115 -166 -182q-103 -68 -227 -68q-150 0 -229 82q-80 83 -80 224q0 49 16 137l148 694h319l-135 -639q-17 -80 -17 -123q0 -82 37 -119q36 -36 109 -36q98 0 172 77t104 222zM946 1237h-297l-284 319h419z" />
    <glyph glyph-name="uacute" unicode="&#xfa;" horiz-adv-x="1290" 
d="M956 1112h322l-236 -1112h-315l47 227q-65 -115 -166 -182q-103 -68 -227 -68q-150 0 -229 82q-80 83 -80 224q0 49 16 137l148 694h319l-135 -639q-17 -80 -17 -123q0 -82 37 -119q36 -36 109 -36q98 0 172 77t104 222zM918 1237h-306l297 319h439z" />
    <glyph glyph-name="ucircumflex" unicode="&#xfb;" horiz-adv-x="1290" 
d="M956 1112h322l-236 -1112h-315l47 227q-65 -115 -166 -182q-103 -68 -227 -68q-150 0 -229 82q-80 83 -80 224q0 49 16 137l148 694h319l-135 -639q-17 -80 -17 -123q0 -82 37 -119q36 -36 109 -36q98 0 172 77t104 222zM1044 1556l199 -319h-268l-146 184l-217 -184
h-286l323 319h395z" />
    <glyph glyph-name="udieresis" unicode="&#xfc;" horiz-adv-x="1290" 
d="M956 1112h322l-236 -1112h-315l47 227q-65 -115 -166 -182q-103 -68 -227 -68q-150 0 -229 82q-80 83 -80 224q0 49 16 137l148 694h319l-135 -639q-17 -80 -17 -123q0 -82 37 -119q36 -36 109 -36q98 0 172 77t104 222zM694 1262h-329l63 294h330zM1182 1262h-330
l63 294h330z" />
    <glyph glyph-name="yacute" unicode="&#xfd;" horiz-adv-x="1222" 
d="M522 176l465 936h336l-760 -1513h-327l256 516h-256l-113 997h307zM862 1237h-305l297 319h438z" />
    <glyph glyph-name="thorn" unicode="&#xfe;" horiz-adv-x="1347" 
d="M1110 1083l2 -6q83 -53 129 -151q47 -100 47 -230q0 -183 -67 -348q-66 -163 -201 -270q-132 -105 -309 -105q-122 0 -209 72q-84 70 -119 184l-133 -630h-318l322 1513l94 444h316l-95 -444l-49 -235q58 112 160 186q103 74 233 74q112 0 197 -54zM811 256l2 -4
q76 73 117 188t41 232q0 115 -56 180q-54 63 -149 63q-108 0 -184 -73q-77 -74 -117 -187q-39 -110 -39 -229q0 -115 53 -180q52 -64 148 -64q107 0 184 74z" />
    <glyph glyph-name="ydieresis" unicode="&#xff;" horiz-adv-x="1222" 
d="M522 176l465 936h336l-760 -1513h-327l256 516h-256l-113 997h307zM639 1262h-330l64 294h329zM1126 1262h-329l63 294h330z" />
    <glyph glyph-name="Amacron" unicode="&#x100;" horiz-adv-x="1622" 
d="M1507 0h-333l-44 420h-677l-224 -420h-352l848 1556h598zM1020 1491l-424 -801h506zM1468 1708h-854l50 229h854z" />
    <glyph glyph-name="amacron" unicode="&#x101;" horiz-adv-x="1259" 
d="M1055 1049l-6 -2q122 -88 122 -254q0 -51 -12 -109l-145 -686h-316l43 207q-60 -104 -155 -166q-101 -66 -230 -66q-91 0 -166 37q-74 36 -122 109q-45 68 -45 164q0 183 129 274q132 93 389 117l307 28l4 21q8 36 8 61q0 65 -41 103q-40 37 -121 37q-90 0 -143 -39
q-57 -42 -78 -111h-319q34 116 114 199q79 82 195 123q115 41 246 41q220 0 342 -88zM686 248l-2 2q81 87 111 233l6 27l-187 -18q-130 -15 -202 -56t-72 -129q0 -71 43 -108t109 -37q114 0 194 86zM1126 1280h-780l47 219h781z" />
    <glyph glyph-name="Abreve" unicode="&#x102;" horiz-adv-x="1622" 
d="M1507 0h-333l-44 420h-677l-224 -420h-352l848 1556h598zM1020 1491l-424 -801h506zM860 1698l8 -2q-76 30 -123 86q-45 54 -45 131q0 23 7 55h225q-2 -6 -2 -24q0 -47 37 -74q40 -29 98 -29q70 0 123 35q52 34 61 90h226q-21 -90 -80 -158q-57 -66 -150 -104
q-90 -37 -209 -37q-97 0 -176 31z" />
    <glyph glyph-name="abreve" unicode="&#x103;" horiz-adv-x="1259" 
d="M1055 1049l-6 -2q122 -88 122 -254q0 -51 -12 -109l-145 -686h-316l43 207q-60 -104 -155 -166q-101 -66 -230 -66q-91 0 -166 37q-74 36 -122 109q-45 68 -45 164q0 183 129 274q132 93 389 117l307 28l4 21q8 36 8 61q0 65 -41 103q-40 37 -121 37q-90 0 -143 -39
q-57 -42 -78 -111h-319q34 116 114 199q79 82 195 123q115 41 246 41q220 0 342 -88zM686 248l-2 2q81 87 111 233l6 27l-187 -18q-130 -15 -202 -56t-72 -129q0 -71 43 -108t109 -37q114 0 194 86zM557 1260h4q-72 29 -117 90q-43 58 -43 135q0 37 9 67h227q-6 -24 -6 -45
q0 -46 31 -71t90 -25q70 0 116 37q48 38 62 106h229q-21 -91 -80 -165t-149 -117t-205 -43q-92 0 -168 31z" />
    <glyph glyph-name="Aogonek" unicode="&#x104;" horiz-adv-x="1622" 
d="M1311 -195v-4q22 -14 75 -14h74l-43 -207h-112q-148 0 -224 49q-75 49 -75 135q0 134 168 232l-44 420h-677l-224 -420h-352l848 1556h598l184 -1556q-113 -35 -166 -68q-55 -34 -55 -78q0 -29 25 -45zM1020 1485l-424 -801h506z" />
    <glyph glyph-name="aogonek" unicode="&#x105;" horiz-adv-x="1259" 
d="M1055 1049l-4 -2q123 -88 123 -254q0 -46 -13 -109l-145 -686q-225 -64 -225 -152q0 -63 110 -63h70l-43 -201h-115q-145 0 -221 49t-76 136q0 133 180 231h2l43 207q-60 -104 -155 -166q-101 -66 -230 -66q-91 0 -166 37q-74 36 -122 109q-45 68 -45 164q0 183 129 274
q132 93 389 117l307 28l4 21q8 36 8 61q0 65 -41 103q-40 37 -121 37q-90 0 -143 -39q-57 -42 -78 -111h-319q34 116 114 199q79 82 195 123q115 41 246 41q220 0 342 -88zM688 248l-2 2q81 87 111 233l6 27l-187 -18q-130 -15 -202 -56t-72 -129q0 -71 43 -108t109 -37
q114 0 194 86z" />
    <glyph glyph-name="Cacute" unicode="&#x106;" horiz-adv-x="1630" 
d="M430 49l-6 -2q-150 75 -231 217q-84 147 -84 346q0 242 108 467t313 363q207 139 482 139q185 0 327 -68q146 -70 226 -192q83 -127 98 -295h-344q-18 143 -105 221t-233 78q-163 0 -285 -98q-125 -100 -188 -264q-66 -170 -66 -357q0 -121 43 -203q44 -84 123 -127
t185 -43q136 0 258 84q118 81 190 222h344q-65 -170 -178 -295q-115 -127 -277 -197t-362 -70q-190 0 -338 74zM1184 1671h-328l311 297h459z" />
    <glyph glyph-name="cacute" unicode="&#x107;" horiz-adv-x="1253" 
d="M295 31l-8 -2q-112 56 -172 159q-62 106 -62 246q0 176 78 338q76 158 231 258q151 98 369 98q145 0 252 -49q108 -49 170 -145q63 -97 66 -227h-320q-6 104 -53 157q-48 54 -139 54q-102 0 -179 -74q-75 -72 -116 -187q-39 -110 -39 -229q0 -115 53 -180q52 -64 147 -64
t166 56t111 153h321q-70 -195 -227 -307q-156 -111 -393 -111q-144 0 -256 56zM879 1233h-306l297 319h439z" />
    <glyph glyph-name="Ccircumflex" unicode="&#x108;" horiz-adv-x="1630" 
d="M430 49l-6 -2q-150 75 -231 217q-84 147 -84 346q0 242 108 467t313 363q207 139 482 139q185 0 327 -68q146 -70 226 -192q83 -127 98 -295h-344q-18 143 -105 221t-233 78q-163 0 -285 -98q-125 -100 -188 -264q-66 -170 -66 -357q0 -121 43 -203q44 -84 123 -127
t185 -43q136 0 258 84q118 81 190 222h344q-65 -170 -178 -295q-115 -127 -277 -197t-362 -70q-190 0 -338 74zM1313 1968l200 -297h-272l-156 164l-202 -164h-297l315 297h412z" />
    <glyph glyph-name="ccircumflex" unicode="&#x109;" horiz-adv-x="1253" 
d="M295 31l-8 -2q-112 56 -172 159q-62 106 -62 246q0 176 78 338q76 158 231 258q151 98 369 98q145 0 252 -49q108 -49 170 -145q63 -97 66 -227h-320q-6 104 -53 157q-48 54 -139 54q-102 0 -179 -74q-75 -72 -116 -187q-39 -110 -39 -229q0 -115 53 -180q52 -64 147 -64
t166 56t111 153h321q-70 -195 -227 -307q-156 -111 -393 -111q-144 0 -256 56zM1004 1552l198 -319h-268l-146 184l-217 -184h-286l323 319h396z" />
    <glyph glyph-name="Cdotaccent" unicode="&#x10a;" horiz-adv-x="1630" 
d="M430 49l-6 -2q-150 75 -231 217q-84 147 -84 346q0 242 108 467t313 363q207 139 482 139q185 0 327 -68q146 -70 226 -192q83 -127 98 -295h-344q-18 143 -105 221t-233 78q-163 0 -285 -98q-125 -100 -188 -264q-66 -170 -66 -357q0 -121 43 -203q44 -84 123 -127
t185 -43q136 0 258 84q118 81 190 222h344q-65 -170 -178 -295q-115 -127 -277 -197t-362 -70q-190 0 -338 74zM1214 1671h-340l64 297h340z" />
    <glyph glyph-name="cdotaccent" unicode="&#x10b;" horiz-adv-x="1253" 
d="M295 31l-8 -2q-112 56 -172 159q-62 106 -62 246q0 176 78 338q76 158 231 258q151 98 369 98q145 0 252 -49q108 -49 170 -145q63 -97 66 -227h-320q-6 104 -53 157q-48 54 -139 54q-102 0 -179 -74q-75 -72 -116 -187q-39 -110 -39 -229q0 -115 53 -180q52 -64 147 -64
t166 56t111 153h321q-70 -195 -227 -307q-156 -111 -393 -111q-144 0 -256 56zM911 1257h-329l63 295h330z" />
    <glyph glyph-name="Ccaron" unicode="&#x10c;" horiz-adv-x="1630" 
d="M430 49l-6 -2q-150 75 -231 217q-84 147 -84 346q0 242 108 467t313 363q207 139 482 139q185 0 327 -68q146 -70 226 -192q83 -127 98 -295h-344q-18 143 -105 221t-233 78q-163 0 -285 -98q-125 -100 -188 -264q-66 -170 -66 -357q0 -121 43 -203q44 -84 123 -127
t185 -43q136 0 258 84q118 81 190 222h344q-65 -170 -178 -295q-115 -127 -277 -197t-362 -70q-190 0 -338 74zM1065 1804l205 164h297l-316 -297h-411l-201 297h272z" />
    <glyph glyph-name="ccaron" unicode="&#x10d;" horiz-adv-x="1253" 
d="M295 31l-8 -2q-112 56 -172 159q-62 106 -62 246q0 176 78 338q76 158 231 258q151 98 369 98q145 0 252 -49q108 -49 170 -145q63 -97 66 -227h-320q-6 104 -53 157q-48 54 -139 54q-102 0 -179 -74q-75 -72 -116 -187q-39 -110 -39 -229q0 -115 53 -180q52 -64 147 -64
t166 56t111 153h321q-70 -195 -227 -307q-156 -111 -393 -111q-144 0 -256 56zM764 1364l217 188h285l-324 -319h-395l-197 319h266z" />
    <glyph glyph-name="Dcaron" unicode="&#x10e;" horiz-adv-x="1626" 
d="M922 1556v-4q202 0 352 -69q154 -71 239 -211q86 -142 86 -340q0 -281 -120 -492t-340 -325q-222 -115 -510 -115h-584l330 1556h547zM666 266l-2 -2q190 0 327 90q134 88 203 238q68 148 68 323q0 183 -95 275t-272 92h-248l-215 -1016h234zM958 1800l205 164h297
l-315 -297h-412l-201 297h273z" />
    <glyph glyph-name="dcaron" unicode="&#x10f;" horiz-adv-x="1349" 
d="M1114 1556l316 5l-330 -1557h-316l45 211q-55 -101 -153 -168t-227 -67q-117 0 -203 51q-89 53 -137 149q-50 100 -50 238q0 176 68 344q66 163 201 270q132 105 313 105q93 0 160 -43q69 -44 108 -107q42 -66 56 -137zM766 266l2 -4q76 73 117 189q41 115 41 231
q0 120 -56 182t-149 62q-107 0 -184 -74t-117 -186q-39 -110 -39 -230q0 -115 53 -180q51 -63 148 -63q108 0 184 73zM1681 1180h-223l109 376h280z" />
    <glyph glyph-name="Dcroat" unicode="&#x110;" horiz-adv-x="1646" 
d="M942 1556l2 -4q202 0 352 -69q156 -72 240 -211q86 -142 86 -340q0 -280 -123 -492q-123 -211 -340 -325q-219 -115 -508 -115h-585l145 682h-170l51 236h168l135 638h547zM688 266l-2 -2q191 0 328 90q134 88 203 238q67 146 67 323q0 184 -94 275q-95 92 -272 92h-248
l-78 -369h348l-49 -235h-348l-88 -412h233z" />
    <glyph glyph-name="dcroat" unicode="&#x111;" horiz-adv-x="1349" 
d="M1518 1427l-35 -196h-123l-260 -1227h-316l45 211q-55 -101 -153 -168t-227 -67q-117 0 -203 51q-89 53 -137 149q-50 100 -50 238q0 176 68 344q66 163 201 270q132 105 313 105q93 0 160 -43q69 -44 108 -107q42 -66 56 -137l79 377h-188l37 200h194l27 129h316
l-27 -129h115zM766 266l2 -4q76 73 117 189q41 115 41 231q0 120 -56 182t-149 62q-107 0 -184 -74t-117 -186q-39 -110 -39 -230q0 -115 53 -180q51 -63 148 -63q108 0 184 73z" />
    <glyph glyph-name="Emacron" unicode="&#x112;" horiz-adv-x="1355" 
d="M1450 1556l-57 -270h-746l-74 -352h730l-58 -270h-729l-84 -394h762l-57 -270h-1092l330 1556h1075zM1354 1708h-854l49 229h854z" />
    <glyph glyph-name="emacron" unicode="&#x113;" horiz-adv-x="1275" 
d="M371 463l-2 -25q0 -119 55 -180t156 -61q83 0 141 34q57 34 98 105h320q-85 -177 -236 -266q-149 -88 -346 -88q-150 0 -260 55q-111 55 -172 160q-62 106 -62 245q0 176 78 338q75 155 232 260q151 101 368 101q147 0 252 -51q108 -52 166 -154q60 -105 60 -246
q0 -115 -37 -227h-811zM530 860l-4 4q-74 -68 -118 -184h487q8 27 8 59q0 93 -49 142t-143 49q-105 0 -181 -70zM1147 1292h-780l47 219h780z" />
    <glyph glyph-name="Ebreve" unicode="&#x114;" horiz-adv-x="1355" 
d="M1450 1556l-57 -270h-746l-74 -352h730l-58 -270h-729l-84 -394h762l-57 -270h-1092l330 1556h1075zM745 1698l9 -2q-76 30 -123 86q-45 54 -45 131q0 28 6 55h225q-2 -6 -2 -24q0 -47 37 -74q40 -29 98 -29q70 0 123 35t62 90h225q-21 -90 -80 -158q-57 -66 -150 -104
q-90 -37 -208 -37q-98 0 -177 31z" />
    <glyph glyph-name="ebreve" unicode="&#x115;" horiz-adv-x="1275" 
d="M371 463l-2 -25q0 -119 55 -180t156 -61q83 0 141 34q57 34 98 105h320q-85 -177 -236 -266q-149 -88 -346 -88q-150 0 -260 55q-111 55 -172 160q-62 106 -62 245q0 176 78 338q75 155 232 260q151 101 368 101q147 0 252 -51q108 -52 166 -154q60 -105 60 -246
q0 -115 -37 -227h-811zM530 860l-4 4q-74 -68 -118 -184h487q8 27 8 59q0 93 -49 142t-143 49q-105 0 -181 -70zM578 1270h4q-72 29 -117 90q-43 58 -43 135q0 41 8 68h227q-6 -24 -6 -45q0 -47 31 -72t90 -25q71 0 117 37t61 107h230q-21 -92 -80 -166q-58 -73 -150 -117
q-90 -43 -205 -43q-91 0 -167 31z" />
    <glyph glyph-name="Edotaccent" unicode="&#x116;" horiz-adv-x="1355" 
d="M1450 1556l-57 -270h-746l-74 -352h730l-58 -270h-729l-84 -394h762l-57 -270h-1092l330 1556h1075zM1090 1673h-340l63 297h340z" />
    <glyph glyph-name="edotaccent" unicode="&#x117;" horiz-adv-x="1275" 
d="M371 463l-2 -25q0 -119 55 -180t156 -61q83 0 141 34q57 34 98 105h320q-85 -177 -236 -266q-149 -88 -346 -88q-150 0 -260 55q-111 55 -172 160q-62 106 -62 245q0 176 78 338q75 155 232 260q151 101 368 101q147 0 252 -51q108 -52 166 -154q60 -105 60 -246
q0 -115 -37 -227h-811zM530 860l-4 4q-74 -68 -118 -184h487q8 27 8 59q0 93 -49 142t-143 49q-105 0 -181 -70zM920 1272h-330l63 295h330z" />
    <glyph glyph-name="Eogonek" unicode="&#x118;" horiz-adv-x="1355" 
d="M1393 1286l-746 -6l-74 -352h730l-58 -271h-729l-84 -393h762l-57 -270q-112 -36 -164 -68q-55 -34 -55 -78q0 -30 24 -45q22 -14 76 -14h76l-45 -207h-111q-147 0 -223 49t-76 136q0 77 55 135q54 57 154 98h-803l330 1556h1075z" />
    <glyph glyph-name="eogonek" unicode="&#x119;" horiz-adv-x="1275" 
d="M371 463l-9 -31q0 -118 56 -180t155 -62q83 0 142 35q57 34 98 105h320q-89 -189 -252 -277q-94 -65 -136 -110q-47 -50 -47 -90q0 -66 105 -66h67l-43 -201h-108q-140 0 -217 47q-76 46 -76 134q0 63 39 116q41 57 110 99h-18q-150 0 -260 55q-111 55 -172 160
q-62 106 -62 245q0 176 78 338q75 155 232 260q151 101 368 101q147 0 252 -51q108 -52 166 -154q60 -105 60 -246q0 -115 -37 -227h-811zM524 854l-4 4q-75 -69 -119 -184h488q8 27 8 59q0 92 -49 141q-50 50 -143 50q-105 0 -181 -70z" />
    <glyph glyph-name="Ecaron" unicode="&#x11a;" horiz-adv-x="1355" 
d="M1450 1556l-57 -270h-746l-74 -352h730l-58 -270h-729l-84 -394h762l-57 -270h-1092l330 1556h1075zM938 1806l205 164h297l-316 -297h-411l-201 297h272z" />
    <glyph glyph-name="ecaron" unicode="&#x11b;" horiz-adv-x="1275" 
d="M371 463l-2 -25q0 -119 55 -180t156 -61q83 0 141 34q57 34 98 105h320q-85 -177 -236 -266q-149 -88 -346 -88q-150 0 -260 55q-111 55 -172 160q-62 106 -62 245q0 176 78 338q75 155 232 260q151 101 368 101q147 0 252 -51q108 -52 166 -154q60 -105 60 -246
q0 -115 -37 -227h-811zM530 860l-4 4q-74 -68 -118 -184h487q8 27 8 59q0 93 -49 142t-143 49q-105 0 -181 -70zM772 1378l217 189h285l-324 -320h-395l-197 320h267z" />
    <glyph glyph-name="Gcircumflex" unicode="&#x11c;" horiz-adv-x="1732" 
d="M813 623l49 245h811l-186 -880h-273l80 374q-82 -163 -223 -280t-358 -117q-162 0 -301 74t-222 219q-81 141 -81 344q0 242 108 467q107 224 318 363q210 139 491 139q190 0 332 -62q143 -62 225 -176q86 -118 109 -270h-344q-53 256 -344 256q-170 0 -295 -98
q-127 -100 -193 -260q-67 -162 -67 -351q0 -121 47 -207q46 -85 133 -129q85 -43 198 -43t213 50q97 48 166 139q70 91 99 203h-492zM1307 1958l200 -297h-272l-156 164l-202 -164h-297l315 297h412z" />
    <glyph glyph-name="gcircumflex" unicode="&#x11d;" horiz-adv-x="1349" 
d="M1026 1112l311 -4l-237 -1122q-30 -144 -119 -236q-88 -91 -215 -135q-125 -43 -272 -43q-148 0 -258 43q-109 43 -175 127q-64 82 -73 197h319q9 -74 62 -115t131 -41q113 0 190 59t98 164l46 213q-59 -96 -156 -153q-102 -60 -217 -60q-110 0 -199 53q-88 52 -141 152
q-51 96 -51 229q0 174 67 332q68 160 197 262q130 103 311 103q95 0 162 -43q67 -44 108 -111q42 -69 56 -137zM772 287v-4q76 67 117 176q39 104 39 217q0 115 -54 178q-52 61 -151 61q-108 0 -184 -67q-77 -68 -117 -174q-39 -104 -39 -217q0 -115 55 -176q56 -62 150 -62
q107 0 184 68zM1034 1546l199 -319h-268l-146 184l-217 -184h-287l324 319h395z" />
    <glyph glyph-name="Gbreve" unicode="&#x11e;" horiz-adv-x="1732" 
d="M813 623l49 245h811l-186 -880h-273l80 374q-82 -163 -223 -280t-358 -117q-162 0 -301 74t-222 219q-81 141 -81 344q0 242 108 467q107 224 318 363q210 139 491 139q190 0 332 -62q143 -62 225 -176q86 -118 109 -270h-344q-53 256 -344 256q-170 0 -295 -98
q-127 -100 -193 -260q-67 -162 -67 -351q0 -121 47 -207q46 -85 133 -129q85 -43 198 -43t213 50q97 48 166 139q70 91 99 203h-492zM864 1686l8 -3q-74 29 -122 86q-45 54 -45 132q0 28 6 55h225q-2 -6 -2 -25q0 -46 37 -73q40 -29 98 -29q70 0 123 35q52 34 61 90h226
q-21 -90 -80 -158q-57 -66 -150 -104q-90 -37 -209 -37q-97 0 -176 31z" />
    <glyph glyph-name="gbreve" unicode="&#x11f;" horiz-adv-x="1349" 
d="M1026 1112l311 -4l-237 -1122q-30 -144 -119 -236q-88 -91 -215 -135q-125 -43 -272 -43q-148 0 -258 43q-109 43 -175 127q-64 82 -73 197h319q9 -74 62 -115t131 -41q113 0 190 59t98 164l46 213q-59 -96 -156 -153q-102 -60 -217 -60q-110 0 -199 53q-88 52 -141 152
q-51 96 -51 229q0 174 67 332q68 160 197 262q130 103 311 103q95 0 162 -43q67 -44 108 -111q42 -69 56 -137zM772 287v-4q76 67 117 176q39 104 39 217q0 115 -54 178q-52 61 -151 61q-108 0 -184 -67q-77 -68 -117 -174q-39 -104 -39 -217q0 -115 55 -176q56 -62 150 -62
q107 0 184 68zM600 1251h4q-72 29 -117 90q-43 58 -43 136q0 37 9 67h227q-6 -24 -6 -45q0 -47 31 -72q30 -24 90 -24q70 0 116 37q48 38 62 106h229q-21 -92 -80 -166q-58 -73 -149 -116q-90 -43 -205 -43q-94 0 -168 30z" />
    <glyph glyph-name="Gdotaccent" unicode="&#x120;" horiz-adv-x="1732" 
d="M813 623l49 245h811l-186 -880h-273l80 374q-82 -163 -223 -280t-358 -117q-162 0 -301 74t-222 219q-81 141 -81 344q0 242 108 467q107 224 318 363q210 139 491 139q190 0 332 -62q143 -62 225 -176q86 -118 109 -270h-344q-53 256 -344 256q-170 0 -295 -98
q-127 -100 -193 -260q-67 -162 -67 -351q0 -121 47 -207q46 -85 133 -129q85 -43 198 -43t213 50q97 48 166 139q70 91 99 203h-492zM1208 1661h-340l64 297h340z" />
    <glyph glyph-name="gdotaccent" unicode="&#x121;" horiz-adv-x="1349" 
d="M1026 1112l311 -4l-237 -1122q-30 -144 -119 -236q-88 -91 -215 -135q-125 -43 -272 -43q-148 0 -258 43q-109 43 -175 127q-64 82 -73 197h319q9 -74 62 -115t131 -41q113 0 190 59t98 164l46 213q-59 -96 -156 -153q-102 -60 -217 -60q-110 0 -199 53q-88 52 -141 152
q-51 96 -51 229q0 174 67 332q68 160 197 262q130 103 311 103q95 0 162 -43q67 -44 108 -111q42 -69 56 -137zM772 287v-4q76 67 117 176q39 104 39 217q0 115 -54 178q-52 61 -151 61q-108 0 -184 -67q-77 -68 -117 -174q-39 -104 -39 -217q0 -115 55 -176q56 -62 150 -62
q107 0 184 68zM942 1251h-330l64 295h330z" />
    <glyph glyph-name="uni0122" unicode="&#x122;" horiz-adv-x="1732" 
d="M813 623l49 245h811l-186 -880h-273l80 374q-82 -163 -223 -280t-358 -117q-162 0 -301 74t-222 219q-81 141 -81 344q0 242 108 467q107 224 318 363q210 139 491 139q190 0 332 -62q143 -62 225 -176q86 -118 109 -270h-344q-53 256 -344 256q-170 0 -295 -98
q-127 -100 -193 -260q-67 -162 -67 -351q0 -121 47 -207q46 -85 133 -129q85 -43 198 -43t213 50q97 48 166 139q70 91 99 203h-492zM514 -426l64 295h340l-70 -322l-178 -192h-207l160 219h-109z" />
    <glyph glyph-name="uni0123" unicode="&#x123;" horiz-adv-x="1349" 
d="M1026 1112l311 -4l-237 -1122q-30 -144 -119 -236q-88 -91 -215 -135q-125 -43 -272 -43q-148 0 -258 43q-109 43 -175 127q-64 82 -73 197h319q9 -74 62 -115t131 -41q113 0 190 59t98 164l46 213q-59 -96 -156 -153q-102 -60 -217 -60q-110 0 -199 53q-88 52 -141 152
q-51 96 -51 229q0 174 67 332q68 160 197 262q130 103 311 103q95 0 162 -43q67 -44 108 -111q42 -69 56 -137zM772 287v-4q76 67 117 176q39 104 39 217q0 115 -54 178q-52 61 -151 61q-108 0 -184 -67q-77 -68 -117 -174q-39 -104 -39 -217q0 -115 55 -176q56 -62 150 -62
q107 0 184 68zM858 1772h197l-158 -220h107l-64 -297h-330l70 324z" />
    <glyph glyph-name="Hcircumflex" unicode="&#x124;" horiz-adv-x="1634" 
d="M1223 940l131 616h329l-329 -1556h-330l137 649h-649l-137 -649h-330l330 1556h330l-132 -616h650zM1305 1970l200 -297h-272l-156 164l-203 -164h-296l315 297h412z" />
    <glyph glyph-name="hcircumflex" unicode="&#x125;" horiz-adv-x="1298" 
d="M1141 1053l2 -6q82 -82 82 -222q0 -65 -15 -135l-147 -694h-320l136 639q14 66 14 123q0 77 -39 116q-41 41 -111 41q-100 0 -172 -75q-74 -77 -104 -222l-133 -618h-320l330 1556h318l-144 -671q65 115 166 182q103 68 221 68q154 0 236 -82zM782 1962l201 -297h-272
l-156 164l-203 -164h-297l316 297h411z" />
    <glyph glyph-name="Hbar" unicode="&#x126;" horiz-adv-x="1634" 
d="M1636 1331h166l-47 -229h-168l-233 -1102h-330l137 649h-649l-137 -649h-330l234 1102h-168l49 229h168l47 225h330l-48 -225h650l47 225h329zM573 940h650l34 162h-649z" />
    <glyph glyph-name="hbar" unicode="&#x127;" horiz-adv-x="1298" 
d="M1141 1053l2 -6q82 -82 82 -222q0 -65 -15 -135l-147 -694h-320l136 639q14 66 14 123q0 77 -39 116q-41 41 -111 41q-100 0 -172 -75q-74 -77 -104 -222l-133 -618h-320l260 1227h-116l37 200h122l27 129h318l-27 -129h184l-35 -200h-192l-74 -342q65 115 166 182
q103 68 221 68q154 0 236 -82z" />
    <glyph glyph-name="Itilde" unicode="&#x128;" horiz-adv-x="655" 
d="M375 0h-330l330 1556h330zM193 1690v-2q35 140 110 215t176 75q43 0 86 -12q36 -10 74 -29q25 -14 59 -24q27 -8 60 -8q50 0 86 20q38 21 55 57h107q-35 -139 -111 -215q-75 -75 -174 -75q-43 0 -86 12q-25 7 -76 29q-57 32 -121 32q-48 0 -84 -20q-37 -21 -55 -55h-106z
" />
    <glyph glyph-name="itilde" unicode="&#x129;" horiz-adv-x="581" 
d="M332 0h-320l238 1112h319zM84 1264q30 139 104 213q73 73 168 73q75 0 152 -45q60 -32 110 -32t84 24q36 25 54 62h98q-30 -139 -104 -213t-168 -74q-75 0 -152 45q-62 33 -111 33q-47 0 -83 -25q-37 -26 -54 -61h-98z" />
    <glyph glyph-name="Imacron" unicode="&#x12a;" horiz-adv-x="655" 
d="M375 0h-330l330 1556h330zM999 1708h-854l50 229h854z" />
    <glyph glyph-name="imacron" unicode="&#x12b;" horiz-adv-x="581" 
d="M332 0h-320l238 1112h319zM831 1282h-780l47 219h781z" />
    <glyph glyph-name="Ibreve" unicode="&#x12c;" horiz-adv-x="655" 
d="M375 0h-330l330 1556h330zM391 1698l8 -2q-76 30 -123 86q-45 54 -45 131q0 23 7 55h225q-2 -6 -2 -24q0 -47 37 -74q40 -29 98 -29q70 0 123 35q52 34 61 90h226q-21 -90 -80 -158q-57 -66 -150 -104q-90 -37 -209 -37q-97 0 -176 31z" />
    <glyph glyph-name="ibreve" unicode="&#x12d;" horiz-adv-x="581" 
d="M332 0h-320l238 1112h319zM262 1260h4q-70 29 -116 90q-44 59 -44 135q0 37 9 67h227q-6 -24 -6 -45q0 -46 31 -71t90 -25q70 0 116 37q48 38 62 106h229q-21 -91 -80 -165t-149 -117t-205 -43q-92 0 -168 31z" />
    <glyph glyph-name="Iogonek" unicode="&#x12e;" horiz-adv-x="655" 
d="M375 0h-330l330 1556h330zM172 -416l-2 -4q-147 0 -223 49t-76 135q0 137 170 232h330q-112 -36 -164 -68q-55 -34 -55 -78q0 -30 24 -45q22 -14 76 -14h76l-43 -207h-113z" />
    <glyph glyph-name="iogonek" unicode="&#x12f;" horiz-adv-x="581" 
d="M276 1262l62 294h332l-64 -294h-330zM250 1112l321 -2l-237 -1112q-225 -64 -225 -152q0 -33 28 -49q25 -14 84 -14h70l-45 -201h-113q-145 0 -221 49t-76 136q0 131 176 233z" />
    <glyph glyph-name="Idotaccent" unicode="&#x130;" horiz-adv-x="655" 
d="M375 0h-330l330 1556h330zM733 1673h-340l64 297h340z" />
    <glyph glyph-name="dotlessi" unicode="&#x131;" horiz-adv-x="581" 
d="M332 0h-320l238 1112h319z" />
    <glyph glyph-name="Jcircumflex" unicode="&#x134;" horiz-adv-x="841" 
d="M-76 0l56 268h159q87 0 129 33q45 36 60 111l243 1142h328l-254 -1206q-38 -178 -153 -262q-118 -86 -334 -86h-234zM1028 1968l201 -297h-273l-155 164l-203 -164h-297l315 297h412z" />
    <glyph glyph-name="jcircumflex" unicode="&#x135;" horiz-adv-x="581" 
d="M-260 -401l47 227h55q74 0 111 29q35 27 47 90l248 1167h319l-258 -1216q-31 -147 -137 -222t-289 -75h-143zM688 1554l199 -319h-269l-145 184l-217 -184h-287l324 319h395z" />
    <glyph glyph-name="uni0136" unicode="&#x136;" horiz-adv-x="1488" 
d="M1262 1556h421l-784 -757l510 -799h-379l-489 782l-166 -782h-330l330 1556h330l-146 -690zM446 -414l64 295h340l-70 -321l-178 -193h-207l160 219h-109z" />
    <glyph glyph-name="uni0137" unicode="&#x137;" horiz-adv-x="1212" 
d="M932 1112h385l-537 -518l326 -594h-350l-303 567l-121 -567h-320l330 1556h320l-191 -897zM283 -414l63 295h330l-70 -321l-178 -193h-197l160 219h-108z" />
    <glyph glyph-name="kgreenlandic" unicode="&#x138;" horiz-adv-x="1228" 
d="M954 1112h387l-573 -537l360 -575h-354l-330 543l-114 -543h-318l236 1112h317l-98 -467z" />
    <glyph glyph-name="Lacute" unicode="&#x139;" horiz-adv-x="1189" 
d="M705 1556l-275 -1286h670l-58 -270h-997l330 1556h330zM739 1673h-327l311 297h459z" />
    <glyph glyph-name="lacute" unicode="&#x13a;" horiz-adv-x="581" 
d="M332 0h-320l330 1556h320zM705 1673h-328l311 297h459z" />
    <glyph glyph-name="uni013B" unicode="&#x13b;" horiz-adv-x="1189" 
d="M705 1556l-275 -1286h670l-58 -270h-997l330 1556h330zM295 -414l63 295h340l-69 -321l-178 -193h-207l159 219h-108z" />
    <glyph glyph-name="uni013C" unicode="&#x13c;" horiz-adv-x="581" 
d="M332 0h-320l330 1556h320zM-82 -414l64 295h329l-69 -321l-179 -193h-196l160 219h-109z" />
    <glyph glyph-name="Lcaron" unicode="&#x13d;" horiz-adv-x="1189" 
d="M705 1556l-275 -1286h670l-58 -270h-997l330 1556h330zM952 1042h-227l186 514h297z" />
    <glyph glyph-name="lcaron" unicode="&#x13e;" horiz-adv-x="581" 
d="M332 0h-320l330 1556h320zM913 1180h-223l109 376h280z" />
    <glyph glyph-name="Ldot" unicode="&#x13f;" horiz-adv-x="1210" 
d="M705 1556l-275 -1286h670l-58 -270h-997l330 1556h330zM1141 735h-346l67 314h346z" />
    <glyph glyph-name="ldot" unicode="&#x140;" horiz-adv-x="849" 
d="M332 0h-320l330 1556h320zM883 653h-295l67 314h295z" />
    <glyph glyph-name="Lslash" unicode="&#x141;" horiz-adv-x="1226" 
d="M561 711l-94 -441h670l-58 -270h-999l113 532l-187 -90l57 273l187 90l160 751h329l-121 -573l345 168l-58 -272z" />
    <glyph glyph-name="lslash" unicode="&#x142;" horiz-adv-x="727" 
d="M623 1032l157 88l-59 -286l-160 -91l-158 -743h-319l115 541l-150 -84l60 286l151 84l154 729h319z" />
    <glyph glyph-name="Nacute" unicode="&#x143;" horiz-adv-x="1792" 
d="M1194 59l317 1497h330l-330 -1556h-616l-205 1491l-315 -1491h-330l330 1556h616zM1274 1673h-328l311 297h459z" />
    <glyph glyph-name="nacute" unicode="&#x144;" horiz-adv-x="1298" 
d="M1141 1053v-9q82 -82 82 -221q0 -65 -15 -135l-147 -694h-320l136 639q14 66 14 123q0 77 -39 116q-41 41 -111 41q-100 0 -172 -75q-74 -77 -104 -222l-133 -618h-320l238 1112h315l-47 -225q65 115 166 182q103 68 221 68q154 0 236 -82zM924 1227h-306l297 319h439z
" />
    <glyph glyph-name="uni0145" unicode="&#x145;" horiz-adv-x="1792" 
d="M1194 59l317 1497h330l-330 -1556h-616l-205 1491l-315 -1491h-330l330 1556h616zM524 -414l64 295h340l-70 -321l-178 -193h-207l160 219h-109z" />
    <glyph glyph-name="uni0146" unicode="&#x146;" horiz-adv-x="1298" 
d="M1141 1053v-9q82 -82 82 -221q0 -65 -15 -135l-147 -694h-320l136 639q14 66 14 123q0 77 -39 116q-41 41 -111 41q-100 0 -172 -75q-74 -77 -104 -222l-133 -618h-320l238 1112h315l-47 -225q65 115 166 182q103 68 221 68q154 0 236 -82zM299 -424l63 295h330l-69 -322
l-179 -192h-196l160 219h-109z" />
    <glyph glyph-name="Ncaron" unicode="&#x147;" horiz-adv-x="1792" 
d="M1194 59l317 1497h330l-330 -1556h-616l-205 1491l-315 -1491h-330l330 1556h616zM1155 1806l205 164h297l-316 -297h-411l-201 297h272z" />
    <glyph glyph-name="ncaron" unicode="&#x148;" horiz-adv-x="1298" 
d="M1141 1053v-9q82 -82 82 -221q0 -65 -15 -135l-147 -694h-320l136 639q14 66 14 123q0 77 -39 116q-41 41 -111 41q-100 0 -172 -75q-74 -77 -104 -222l-133 -618h-320l238 1112h315l-47 -225q65 115 166 182q103 68 221 68q154 0 236 -82zM811 1358l217 188h285
l-324 -319h-395l-197 319h267z" />
    <glyph glyph-name="Eng" unicode="&#x14a;" horiz-adv-x="1777" 
d="M1841 1556l-334 -1558h-14l-14 -68q-35 -161 -150 -245q-118 -86 -325 -86h-222l49 235h158q88 0 133 31t60 108l6 27h-293l-205 1491l-315 -1491h-330l330 1556h616l203 -1497l317 1497h330z" />
    <glyph glyph-name="eng" unicode="&#x14b;" horiz-adv-x="1298" 
d="M1141 1053l-4 -11q82 -82 82 -221q0 -65 -15 -135l-147 -694h-2l-23 -105q-30 -145 -137 -221t-289 -76h-143l51 230h55q78 0 111 26t49 93l21 98l127 596q14 66 14 123q0 77 -39 116q-41 41 -111 41q-100 0 -172 -75q-74 -77 -104 -222l-133 -618h-320l238 1112h315
l-47 -225q65 115 166 182q103 68 221 68q154 0 236 -82z" />
    <glyph glyph-name="Omacron" unicode="&#x14c;" horiz-adv-x="1726" 
d="M438 49h-2q-152 73 -239 219q-86 145 -86 348q0 246 110 465q113 224 320 361q210 139 489 139q194 0 348 -74q156 -75 240 -217q86 -145 86 -350q0 -245 -111 -465q-112 -223 -319 -360q-212 -140 -490 -140q-192 0 -346 74zM1104 330v-2q127 100 194 262q68 165 68 356
q0 124 -45 207q-47 85 -129 129q-82 43 -191 43q-169 0 -294 -98q-129 -101 -195 -262q-68 -165 -68 -357q0 -122 45 -205q47 -85 129 -129q82 -43 191 -43q169 0 295 99zM1518 1706h-854l49 229h854z" />
    <glyph glyph-name="omacron" unicode="&#x14d;" horiz-adv-x="1302" 
d="M297 29h-4q-112 56 -172 159q-62 106 -62 250q0 176 78 338q75 157 232 258q153 99 374 99q144 0 256 -56q114 -57 177 -159q63 -103 63 -250q0 -176 -78 -338q-76 -159 -233 -258q-156 -99 -375 -99q-144 0 -256 56zM760 260l2 -4q76 73 117 188t41 232q0 115 -56 180
q-55 64 -149 64q-108 0 -185 -74q-75 -72 -116 -187q-39 -110 -39 -229q0 -115 53 -180q52 -64 147 -64q108 0 185 74zM1165 1276h-780l47 219h780z" />
    <glyph glyph-name="Obreve" unicode="&#x14e;" horiz-adv-x="1726" 
d="M438 49h-2q-152 73 -239 219q-86 145 -86 348q0 246 110 465q113 224 320 361q210 139 489 139q194 0 348 -74q156 -75 240 -217q86 -145 86 -350q0 -245 -111 -465q-112 -223 -319 -360q-212 -140 -490 -140q-192 0 -346 74zM1104 330v-2q127 100 194 262q68 165 68 356
q0 124 -45 207q-47 85 -129 129q-82 43 -191 43q-169 0 -294 -98q-129 -101 -195 -262q-68 -165 -68 -357q0 -122 45 -205q47 -85 129 -129q82 -43 191 -43q169 0 295 99zM909 1696l9 -2q-76 30 -123 86q-45 54 -45 131q0 28 6 55h225q-2 -6 -2 -24q0 -47 37 -74
q40 -29 98 -29q70 0 123 35q52 34 61 90h226q-21 -90 -80 -158q-57 -66 -150 -104q-90 -37 -209 -37q-97 0 -176 31z" />
    <glyph glyph-name="obreve" unicode="&#x14f;" horiz-adv-x="1302" 
d="M297 29h-4q-112 56 -172 159q-62 106 -62 250q0 176 78 338q75 157 232 258q153 99 374 99q144 0 256 -56q114 -57 177 -159q63 -103 63 -250q0 -176 -78 -338q-76 -159 -233 -258q-156 -99 -375 -99q-144 0 -256 56zM760 260l2 -4q76 73 117 188t41 232q0 115 -56 180
q-55 64 -149 64q-108 0 -185 -74q-75 -72 -116 -187q-39 -110 -39 -229q0 -115 53 -180q52 -64 147 -64q108 0 185 74zM596 1253h4q-72 29 -117 90q-43 58 -43 136q0 37 9 67h227q-6 -24 -6 -45q0 -47 30 -71q31 -25 91 -25q70 0 116 37q48 38 62 106h229q-21 -92 -80 -166
q-58 -73 -149 -116q-90 -43 -205 -43q-94 0 -168 30z" />
    <glyph glyph-name="Ohungarumlaut" unicode="&#x150;" horiz-adv-x="1726" 
d="M438 49h-2q-152 73 -239 219q-86 145 -86 348q0 246 110 465q113 224 320 361q210 139 489 139q194 0 348 -74q156 -75 240 -217q86 -145 86 -350q0 -245 -111 -465q-112 -223 -319 -360q-212 -140 -490 -140q-192 0 -346 74zM1104 330v-2q127 100 194 262q68 165 68 356
q0 124 -45 207q-47 85 -129 129q-82 43 -191 43q-169 0 -294 -98q-129 -101 -195 -262q-68 -165 -68 -357q0 -122 45 -205q47 -85 129 -129q82 -43 191 -43q169 0 295 99zM991 1671h-303l334 297h408zM1477 1671h-303l333 297h408z" />
    <glyph glyph-name="ohungarumlaut" unicode="&#x151;" horiz-adv-x="1302" 
d="M297 29h-4q-112 56 -172 159q-62 106 -62 250q0 176 78 338q75 157 232 258q153 99 374 99q144 0 256 -56q114 -57 177 -159q63 -103 63 -250q0 -176 -78 -338q-76 -159 -233 -258q-156 -99 -375 -99q-144 0 -256 56zM760 260l2 -4q76 73 117 188t41 232q0 115 -56 180
q-55 64 -149 64q-108 0 -185 -74q-75 -72 -116 -187q-39 -110 -39 -229q0 -115 53 -180q52 -64 147 -64q108 0 185 74zM715 1231h-285l291 319h375zM1182 1231h-283l289 319h375z" />
    <glyph glyph-name="OE" unicode="&#x152;" horiz-adv-x="2344" 
d="M2382 1286l-744 -4l-73 -352h729l-58 -271h-729l-84 -393h764l-59 -270h-1327q-201 0 -355 80q-153 80 -239 227q-86 148 -86 336q0 267 135 475t367 326q229 116 503 116h1313zM1094 266l211 1014h-234q-173 0 -317 -78q-143 -77 -222 -215q-79 -137 -79 -313
q0 -128 51 -217q54 -94 143 -142q91 -49 209 -49h238z" />
    <glyph glyph-name="oe" unicode="&#x153;" horiz-adv-x="2119" 
d="M1217 463l-9 -23q0 -115 56 -180q54 -63 153 -63q87 0 146 36t98 109h315q-82 -178 -233 -270t-344 -92q-132 0 -228 51q-98 52 -157 141q-81 -87 -201 -141q-114 -51 -260 -51t-256 55q-111 55 -172 160q-62 106 -62 249q0 176 78 338q75 157 232 258q153 99 375 99
q127 0 225 -49t160 -138q86 92 196 140q113 49 256 49q147 0 252 -51q108 -52 166 -154q59 -103 59 -246q0 -115 -37 -227h-808zM756 270l2 -4q74 71 116 189q41 115 41 231t-55 180t-149 64q-108 0 -185 -74q-76 -73 -116 -186q-39 -110 -39 -230q0 -115 53 -180
q51 -63 147 -63q109 0 185 73zM1372 858l-2 2q-75 -69 -119 -184h488l4 24q4 24 4 35q0 91 -51 142t-144 51q-104 0 -180 -70z" />
    <glyph glyph-name="Racute" unicode="&#x154;" horiz-adv-x="1525" 
d="M1409 817v2q-101 -130 -295 -192l264 -625h-362l-228 580h-288l-123 -580h-330l330 1557h608q147 0 270 -54t189 -151q67 -98 67 -230q0 -175 -102 -307zM645 1288l-96 -438h299q109 0 182 37t107 92t34 121q0 54 -26 96q-28 45 -76 68q-49 24 -117 24h-307zM1034 1673
h-327l311 297h459z" />
    <glyph glyph-name="racute" unicode="&#x155;" horiz-adv-x="854" 
d="M504 817v-4q66 144 172 231q111 91 264 91l-66 -308h-79q-153 0 -230 -57q-82 -60 -108 -192l-125 -578h-320l238 1112h315zM784 1233h-305l297 319h438z" />
    <glyph glyph-name="uni0156" unicode="&#x156;" horiz-adv-x="1525" 
d="M1409 817v2q-101 -130 -295 -192l264 -625h-362l-228 580h-288l-123 -580h-330l330 1557h608q147 0 270 -54t189 -151q67 -98 67 -230q0 -175 -102 -307zM645 1288l-96 -438h299q109 0 182 37t107 92t34 121q0 54 -26 96q-28 45 -76 68q-49 24 -117 24h-307zM432 -414
l64 295h340l-70 -321l-178 -193h-207l160 219h-109z" />
    <glyph glyph-name="uni0157" unicode="&#x157;" horiz-adv-x="854" 
d="M504 817v-4q66 144 172 231q111 91 264 91l-66 -308h-79q-153 0 -230 -57q-82 -60 -108 -192l-125 -578h-320l238 1112h315zM-82 -418l64 295h329l-69 -321l-179 -193h-196l160 219h-109z" />
    <glyph glyph-name="Rcaron" unicode="&#x158;" horiz-adv-x="1525" 
d="M1409 817v2q-101 -130 -295 -192l264 -625h-362l-228 580h-288l-123 -580h-330l330 1557h608q147 0 270 -54t189 -151q67 -98 67 -230q0 -175 -102 -307zM645 1288l-96 -438h299q109 0 182 37t107 92t34 121q0 54 -26 96q-28 45 -76 68q-49 24 -117 24h-307zM915 1806
l205 164h297l-315 -297h-412l-201 297h273z" />
    <glyph glyph-name="rcaron" unicode="&#x159;" horiz-adv-x="854" 
d="M504 817v-4q66 144 172 231q111 91 264 91l-66 -308h-79q-153 0 -230 -57q-82 -60 -108 -192l-125 -578h-320l238 1112h315zM670 1364l217 188h284l-323 -319h-395l-197 319h266z" />
    <glyph glyph-name="Sacute" unicode="&#x15a;" horiz-adv-x="1458" 
d="M346 33l-8 -15q-141 60 -219 172q-79 113 -82 275h342q6 -119 92 -184q85 -64 225 -64q152 0 248 51q98 52 98 154q0 55 -28 94t-82 62q-60 26 -148 49l-211 59q-174 47 -268 145q-96 101 -96 256q0 136 86 248q85 110 233 172t332 62q273 0 426 -117q155 -119 182 -324
h-344q-15 87 -90 138q-73 49 -205 49q-81 0 -155 -23q-69 -22 -105 -63q-37 -43 -37 -94q0 -43 29 -80q26 -33 84 -58q61 -26 150 -49l211 -59q180 -50 270 -150q92 -103 92 -245q0 -163 -86 -281q-84 -115 -246 -178q-160 -62 -370 -62q-178 0 -320 60zM1008 1657h-328
l311 297h459z" />
    <glyph glyph-name="sacute" unicode="&#x15b;" horiz-adv-x="1159" 
d="M262 16l-10 -4q-110 43 -178 123q-67 79 -76 195h319q15 -148 209 -148q94 0 154 31q59 30 59 88q0 33 -16 55q-15 21 -53 39q-39 19 -107 39l-164 47q-278 82 -278 295q0 104 63 185q65 83 181 129q118 47 268 47q125 0 229 -37t172 -111q67 -73 82 -174h-319
q-12 53 -62 80q-53 29 -131 29q-80 0 -133 -27t-53 -80q0 -31 18 -49t56 -33q52 -21 104 -37l164 -49q145 -41 213 -121q67 -79 67 -190q0 -110 -63 -191q-65 -83 -184 -129q-116 -45 -283 -45q-138 0 -248 43zM786 1231h-305l297 319h439z" />
    <glyph glyph-name="Scircumflex" unicode="&#x15c;" horiz-adv-x="1458" 
d="M346 33l-8 -15q-141 60 -219 172q-79 113 -82 275h342q6 -119 92 -184q85 -64 225 -64q152 0 248 51q98 52 98 154q0 55 -28 94t-82 62q-60 26 -148 49l-211 59q-174 47 -268 145q-96 101 -96 256q0 136 86 248q85 110 233 172t332 62q273 0 426 -117q155 -119 182 -324
h-344q-15 87 -90 138q-73 49 -205 49q-81 0 -155 -23q-69 -22 -105 -63q-37 -43 -37 -94q0 -43 29 -80q26 -33 84 -58q61 -26 150 -49l211 -59q180 -50 270 -150q92 -103 92 -245q0 -163 -86 -281q-84 -115 -246 -178q-160 -62 -370 -62q-178 0 -320 60zM1137 1954l200 -297
h-272l-156 164l-202 -164h-297l315 297h412z" />
    <glyph glyph-name="scircumflex" unicode="&#x15d;" horiz-adv-x="1159" 
d="M262 16l-10 -4q-110 43 -178 123q-67 79 -76 195h319q15 -148 209 -148q94 0 154 31q59 30 59 88q0 33 -16 55q-15 21 -53 39q-39 19 -107 39l-164 47q-278 82 -278 295q0 104 63 185q65 83 181 129q118 47 268 47q125 0 229 -37t172 -111q67 -73 82 -174h-319
q-12 53 -62 80q-53 29 -131 29q-80 0 -133 -27t-53 -80q0 -31 18 -49t56 -33q52 -21 104 -37l164 -49q145 -41 213 -121q67 -79 67 -190q0 -110 -63 -191q-65 -83 -184 -129q-116 -45 -283 -45q-138 0 -248 43zM911 1550l199 -319h-268l-146 184l-217 -184h-286l323 319h395
z" />
    <glyph glyph-name="Scedilla" unicode="&#x15e;" horiz-adv-x="1458" 
d="M1010 895l-11 -8q182 -50 271 -150q92 -103 92 -245q0 -153 -78 -269q-75 -112 -219 -178q-142 -65 -334 -74l-8 -41q63 -9 104 -47t41 -94q0 -67 -32 -113q-33 -48 -95 -75t-137 -27h-160l31 152h90q86 0 86 53q0 43 -65 43h-58l33 149q-151 15 -272 78
q-114 60 -180 170q-65 109 -68 252h342q6 -119 92 -184q85 -64 225 -64q152 0 248 51q99 52 99 154q0 54 -29 94q-28 39 -82 62q-60 26 -148 49l-210 59q-175 47 -269 146q-96 101 -96 256q0 135 86 247q85 110 233 172t332 62q273 0 426 -117q156 -119 183 -323h-345
q-15 86 -90 137q-73 49 -204 49q-82 0 -156 -23q-69 -22 -105 -63q-36 -42 -36 -94q0 -44 28 -80q24 -31 84 -57q67 -29 150 -50z" />
    <glyph glyph-name="scedilla" unicode="&#x15f;" horiz-adv-x="1159" 
d="M764 653v-4q145 -41 213 -121q67 -79 67 -190q0 -104 -59 -184q-60 -81 -172 -127q-115 -47 -270 -50l-8 -40q64 -9 104 -46q39 -36 39 -94q0 -66 -33 -110q-36 -48 -92 -74q-59 -27 -135 -27h-154l31 142h88q40 0 66 16q24 15 24 43q0 26 -18 35q-20 10 -52 10h-55
l31 154q-160 23 -264 114q-101 87 -113 234h320q15 -148 208 -148q94 0 154 31q59 30 59 88q0 33 -16 55q-15 21 -53 39q-39 19 -107 39l-164 47q-278 82 -278 295q0 104 63 185q65 83 181 129q118 47 268 47q125 0 229 -37t172 -111q67 -73 82 -174h-319q-12 53 -62 80
q-53 29 -131 29q-81 0 -133 -27q-53 -27 -53 -80q0 -31 18 -49t56 -33q52 -21 104 -37z" />
    <glyph glyph-name="Scaron" unicode="&#x160;" horiz-adv-x="1458" 
d="M346 33l-8 -15q-141 60 -219 172q-79 113 -82 275h342q6 -119 92 -184q85 -64 225 -64q152 0 248 51q98 52 98 154q0 55 -28 94t-82 62q-60 26 -148 49l-211 59q-174 47 -268 145q-96 101 -96 256q0 136 86 248q85 110 233 172t332 62q273 0 426 -117q155 -119 182 -324
h-344q-15 87 -90 138q-73 49 -205 49q-81 0 -155 -23q-69 -22 -105 -63q-37 -43 -37 -94q0 -43 29 -80q26 -33 84 -58q61 -26 150 -49l211 -59q180 -50 270 -150q92 -103 92 -245q0 -163 -86 -281q-84 -115 -246 -178q-160 -62 -370 -62q-178 0 -320 60zM887 1790l205 164
h297l-316 -297h-411l-201 297h272z" />
    <glyph glyph-name="scaron" unicode="&#x161;" horiz-adv-x="1159" 
d="M262 16l-10 -4q-110 43 -178 123q-67 79 -76 195h319q15 -148 209 -148q94 0 154 31q59 30 59 88q0 33 -16 55q-15 21 -53 39q-39 19 -107 39l-164 47q-278 82 -278 295q0 104 63 185q65 83 181 129q118 47 268 47q125 0 229 -37t172 -111q67 -73 82 -174h-319
q-12 53 -62 80q-53 29 -131 29q-80 0 -133 -27t-53 -80q0 -31 18 -49t56 -33q52 -21 104 -37l164 -49q145 -41 213 -121q67 -79 67 -190q0 -110 -63 -191q-65 -83 -184 -129q-116 -45 -283 -45q-138 0 -248 43zM672 1362l217 188h285l-324 -319h-395l-197 319h266z" />
    <glyph glyph-name="uni0162" unicode="&#x162;" horiz-adv-x="1357" 
d="M246 1556h1290l-57 -270h-482l-272 -1286h-330l273 1286h-482zM303 -414l64 295h340l-70 -321l-178 -193h-207l160 219h-109z" />
    <glyph glyph-name="uni0163" unicode="&#x163;" horiz-adv-x="845" 
d="M614 883l-110 -529q-6 -24 -6 -49q0 -43 30 -61q32 -19 95 -19h98l-49 -229h-174q-96 0 -172 31q-74 30 -115 86t-41 129q0 56 8 92l117 549h-205l49 229h205l55 262h320l-55 -262h243l-49 -229h-244zM137 -418l64 295h329l-69 -321l-178 -193h-197l160 219h-109z" />
    <glyph glyph-name="Tcaron" unicode="&#x164;" horiz-adv-x="1357" 
d="M246 1556h1290l-57 -270h-482l-272 -1286h-330l273 1286h-482zM918 1806l204 164h297l-315 -297h-412l-200 297h272z" />
    <glyph glyph-name="tcaron" unicode="&#x165;" horiz-adv-x="845" 
d="M788 1192l109 364h279l-164 -364h-224zM719 1374l-55 -266h243l-49 -229h-244l-110 -525q-6 -24 -6 -49q0 -43 30 -61q32 -19 95 -19h98l-49 -229h-174q-96 0 -172 31q-74 30 -115 86t-41 129q0 56 8 92l117 549h-205l49 229h205l55 262h320z" />
    <glyph glyph-name="Tbar" unicode="&#x166;" horiz-adv-x="1417" 
d="M1565 1556l-58 -270h-481l-82 -389h367l-54 -250h-366l-137 -647h-330l137 647h-368l53 250h368l82 389h-481l57 270h1293z" />
    <glyph glyph-name="tbar" unicode="&#x167;" horiz-adv-x="845" 
d="M858 883l-244 -4l-32 -156h151l-35 -201h-159l-35 -168q-6 -24 -6 -49q0 -43 30 -61q32 -19 95 -19h98l-49 -229h-174q-96 0 -172 31q-74 30 -115 86t-41 129q0 56 8 92l41 192h-147l37 201h153l33 156h-205l49 229h205l55 262h320l-55 -262h243z" />
    <glyph glyph-name="Utilde" unicode="&#x168;" horiz-adv-x="1599" 
d="M399 33l-4 -6q-129 59 -192 161q-64 104 -64 244q0 85 23 203l194 917h330l-207 -974q-14 -60 -14 -117q0 -116 67 -174t197 -58q162 0 264 99t142 282l200 946h330l-199 -940q-67 -308 -243 -475q-175 -166 -508 -166q-188 0 -316 58zM647 1683v-2q35 139 111 215
t176 76q42 0 86 -12q36 -10 74 -29q25 -14 59 -24q30 -9 59 -9q48 0 86 21q39 22 56 57h106q-35 -140 -110 -215t-174 -75q-42 0 -86 12q-32 9 -76 28q-59 33 -121 33q-48 0 -84 -20t-55 -56h-107z" />
    <glyph glyph-name="utilde" unicode="&#x169;" horiz-adv-x="1290" 
d="M956 1112h322l-236 -1112h-315l47 227q-65 -115 -166 -182q-103 -68 -227 -68q-150 0 -229 82q-80 83 -80 224q0 49 16 137l148 694h319l-135 -639q-17 -80 -17 -123q0 -82 37 -119q36 -36 109 -36q98 0 172 77t104 222zM432 1264q30 138 105 213q73 73 168 73
q74 0 151 -45q60 -32 111 -32q49 0 84 24t53 62h98q-30 -139 -104 -213t-168 -74q-75 0 -152 45q-62 33 -110 33t-84 -25q-37 -26 -54 -61h-98z" />
    <glyph glyph-name="Umacron" unicode="&#x16a;" horiz-adv-x="1599" 
d="M399 33l-4 -6q-129 59 -192 161q-64 104 -64 244q0 85 23 203l194 917h330l-207 -974q-14 -60 -14 -117q0 -116 67 -174t197 -58q162 0 264 99t142 282l200 946h330l-199 -940q-67 -308 -243 -475q-175 -166 -508 -166q-188 0 -316 58zM1454 1702h-854l49 229h854z" />
    <glyph glyph-name="umacron" unicode="&#x16b;" horiz-adv-x="1290" 
d="M956 1112h322l-236 -1112h-315l47 227q-65 -115 -166 -182q-103 -68 -227 -68q-150 0 -229 82q-80 83 -80 224q0 49 16 137l148 694h319l-135 -639q-17 -80 -17 -123q0 -82 37 -119q36 -36 109 -36q98 0 172 77t104 222zM1180 1282h-781l47 219h781z" />
    <glyph glyph-name="Ubreve" unicode="&#x16c;" horiz-adv-x="1599" 
d="M399 33l-4 -6q-129 59 -192 161q-64 104 -64 244q0 85 23 203l194 917h330l-207 -974q-14 -60 -14 -117q0 -116 67 -174t197 -58q162 0 264 99t142 282l200 946h330l-199 -940q-67 -308 -243 -475q-175 -166 -508 -166q-188 0 -316 58zM846 1692l8 -2q-76 30 -123 86
q-45 54 -45 131q0 28 6 55h226q-3 -9 -3 -25q0 -46 37 -73q40 -29 99 -29q70 0 123 35q52 34 61 90h225q-21 -90 -80 -158q-58 -67 -149 -104q-90 -37 -209 -37q-97 0 -176 31z" />
    <glyph glyph-name="ubreve" unicode="&#x16d;" horiz-adv-x="1290" 
d="M956 1112h322l-236 -1112h-315l47 227q-65 -115 -166 -182q-103 -68 -227 -68q-150 0 -229 82q-80 83 -80 224q0 49 16 137l148 694h319l-135 -639q-17 -80 -17 -123q0 -82 37 -119q36 -36 109 -36q98 0 172 77t104 222zM610 1260h4q-70 29 -116 90q-43 58 -43 135
q0 40 8 67h227q-6 -24 -6 -45q0 -46 31 -71t90 -25q71 0 117 37t61 106h229q-21 -92 -79 -165q-59 -73 -150 -117q-90 -43 -205 -43q-92 0 -168 31z" />
    <glyph glyph-name="Uring" unicode="&#x16e;" horiz-adv-x="1599" 
d="M399 33l-4 -6q-129 59 -192 161q-64 104 -64 244q0 85 23 203l194 917h330l-207 -974q-14 -60 -14 -117q0 -116 67 -174t197 -58q162 0 264 99t142 282l200 946h330l-199 -940q-67 -308 -243 -475q-175 -166 -508 -166q-188 0 -316 58zM918 1688h-7q-56 29 -92 90
q-33 56 -33 135q0 89 43 162q43 72 117 116q73 43 160 43q74 0 133 -30q57 -29 92 -88t35 -138q0 -88 -43 -161t-117 -117q-73 -43 -159 -43q-69 0 -129 31zM1145 1876l2 2q35 35 35 86q0 37 -27 61q-28 25 -63 25q-51 0 -86 -35q-33 -33 -33 -86q0 -39 24 -63
q25 -25 62 -25q51 0 86 35z" />
    <glyph glyph-name="uring" unicode="&#x16f;" horiz-adv-x="1290" 
d="M956 1112h322l-236 -1112h-315l47 227q-65 -115 -166 -182q-103 -68 -227 -68q-150 0 -229 82q-80 83 -80 224q0 49 16 137l148 694h319l-135 -639q-17 -80 -17 -123q0 -82 37 -119q36 -36 109 -36q98 0 172 77t104 222zM692 1255l-8 -6q-50 26 -82 78q-31 51 -31 121
q0 79 39 141q41 66 105 103t139 37q62 0 115 -27q52 -27 82 -76q30 -50 30 -119q0 -77 -37 -141q-36 -61 -102 -100q-64 -37 -137 -37q-62 0 -113 26zM881 1415v-2q28 31 28 72q0 36 -20 53q-21 18 -51 18q-44 0 -72 -28q-29 -29 -29 -68q0 -32 23 -55q21 -21 53 -21
q40 0 68 31z" />
    <glyph glyph-name="Uhungarumlaut" unicode="&#x170;" horiz-adv-x="1599" 
d="M399 33l-4 -6q-129 59 -192 161q-64 104 -64 244q0 85 23 203l194 917h330l-207 -974q-14 -60 -14 -117q0 -116 67 -174t197 -58q162 0 264 99t142 282l200 946h330l-199 -940q-67 -308 -243 -475q-175 -166 -508 -166q-188 0 -316 58zM928 1667h-303l333 297h408z
M1413 1667h-303l334 297h407z" />
    <glyph glyph-name="uhungarumlaut" unicode="&#x171;" horiz-adv-x="1290" 
d="M956 1112h322l-236 -1112h-315l47 227q-65 -115 -166 -182q-103 -68 -227 -68q-150 0 -229 82q-80 83 -80 224q0 49 16 137l148 694h319l-135 -639q-17 -80 -17 -123q0 -82 37 -119q36 -36 109 -36q98 0 172 77t104 222zM729 1237h-285l291 319h375zM1196 1237h-283
l289 319h375z" />
    <glyph glyph-name="Uogonek" unicode="&#x172;" horiz-adv-x="1599" 
d="M1335 1556l328 -4l-199 -940q-42 -187 -112 -313q-73 -132 -193 -211q-109 -77 -160 -131t-51 -100q0 -68 96 -68h70l-45 -207h-106q-146 0 -222 43q-75 43 -75 133q0 112 145 215q-82 -4 -100 -4q-188 0 -316 58q-129 59 -192 161q-64 104 -64 244q0 85 23 203l194 917
h330l-207 -974q-14 -60 -14 -117q0 -116 67 -174t197 -58q162 0 264 99t142 282z" />
    <glyph glyph-name="uogonek" unicode="&#x173;" horiz-adv-x="1290" 
d="M1040 0h4q-225 -64 -225 -152q0 -63 111 -63h69l-43 -201h-114q-145 0 -221 49t-76 136q0 133 180 231h2l47 227q-65 -115 -166 -182q-103 -68 -227 -68q-150 0 -229 82q-80 83 -80 224q0 49 16 137l148 694h319l-135 -639q-17 -80 -17 -123q0 -82 37 -119
q36 -36 109 -36q98 0 172 77t104 222l131 616h320z" />
    <glyph glyph-name="Wcircumflex" unicode="&#x174;" horiz-adv-x="2357" 
d="M1597 63l607 1493h331l-645 -1556h-598l88 1497l-549 -1497h-600l19 1556h317l-28 -1493l555 1493h583zM1665 1970l201 -297h-273l-155 164l-203 -164h-297l315 297h412z" />
    <glyph glyph-name="wcircumflex" unicode="&#x175;" horiz-adv-x="1882" 
d="M1245 49l420 1063h293l-445 -1112h-534l72 1055l-373 -1055h-539l19 1112h284l-22 -1057l377 1057h514zM1331 1556l199 -319h-268l-146 184l-217 -184h-287l324 319h395z" />
    <glyph glyph-name="Ycircumflex" unicode="&#x176;" horiz-adv-x="1437" 
d="M1282 1556h387l-774 -940l-131 -616h-330l137 649l-387 907h344l263 -626zM1184 1970l200 -297h-272l-156 164l-202 -164h-297l315 297h412z" />
    <glyph glyph-name="ycircumflex" unicode="&#x177;" horiz-adv-x="1222" 
d="M522 176l465 936h336l-760 -1513h-327l256 516h-256l-113 997h307zM989 1556l199 -319h-268l-146 184l-217 -184h-287l324 319h395z" />
    <glyph glyph-name="Ydieresis" unicode="&#x178;" horiz-adv-x="1437" 
d="M1282 1556h387l-774 -940l-131 -616h-330l137 649l-387 907h344l263 -626zM850 1673h-340l63 297h340zM1321 1673h-340l63 297h340z" />
    <glyph glyph-name="Zacute" unicode="&#x179;" horiz-adv-x="1427" 
d="M301 1556h1241l-74 -352l-1054 -934h893l-58 -270h-1290l76 352l1055 934h-844zM1030 1673h-328l312 297h459z" />
    <glyph glyph-name="zacute" unicode="&#x17a;" horiz-adv-x="1130" 
d="M207 1112h942l-64 -299l-704 -584h618l-49 -229h-991l64 299l706 584h-571zM817 1237h-305l297 319h438z" />
    <glyph glyph-name="Zdotaccent" unicode="&#x17b;" horiz-adv-x="1427" 
d="M301 1556h1241l-74 -352l-1054 -934h893l-58 -270h-1290l76 352l1055 934h-844zM1061 1673h-340l63 297h340z" />
    <glyph glyph-name="zdotaccent" unicode="&#x17c;" horiz-adv-x="1130" 
d="M207 1112h942l-64 -299l-704 -584h618l-49 -229h-991l64 299l706 584h-571zM850 1262h-330l64 294h329z" />
    <glyph glyph-name="Zcaron" unicode="&#x17d;" horiz-adv-x="1427" 
d="M301 1556h1241l-74 -352l-1054 -934h893l-58 -270h-1290l76 352l1055 934h-844zM911 1806l205 164h297l-315 -297h-412l-201 297h273z" />
    <glyph glyph-name="zcaron" unicode="&#x17e;" horiz-adv-x="1130" 
d="M207 1112h942l-64 -299l-704 -584h618l-49 -229h-991l64 299l706 584h-571zM702 1368l218 188h284l-323 -319h-396l-196 319h266z" />
    <glyph glyph-name="uni018F" unicode="&#x18f;" horiz-adv-x="1701" 
d="M1376 1505l2 -6q149 -77 228 -215q80 -139 80 -323q0 -272 -117 -500q-116 -227 -328 -359q-213 -133 -491 -133q-189 0 -336 78q-146 78 -226 219q-79 140 -79 324q0 70 12 153q10 70 35 164h1198v29q0 128 -49 213q-50 86 -131 129q-82 43 -185 43q-139 0 -246 -61
q-108 -61 -178 -175h-344q121 238 332 367t483 129q194 0 340 -76zM1018 279v-3q103 52 176 146q70 90 111 213h-869q-2 -10 -2 -43q0 -115 43 -197q44 -84 123 -127t184 -43q126 0 234 54z" />
    <glyph glyph-name="florin" unicode="&#x192;" horiz-adv-x="1232" 
d="M1368 1556l-57 -256h-131q-60 0 -103 -16q-40 -15 -67 -55q-34 -51 -54 -107l-55 -151h279l-54 -256h-319l-119 -326q-54 -147 -119 -227q-69 -84 -166 -121q-98 -37 -249 -37h-199l57 256h129q60 0 103 16q39 15 67 56q35 52 54 106l102 281h-246l55 256h285l72 196
q53 145 121 228q69 84 166 121q95 36 249 36h199z" />
    <glyph glyph-name="uni019D" unicode="&#x19d;" horiz-adv-x="1777" 
d="M1511 1556l326 -2l-330 -1556h-616l-205 1491l-315 -1491h-21l-14 -68q-35 -161 -150 -245q-118 -86 -325 -86h-221l49 235h157q89 0 134 31q44 30 59 108l20 90l316 1493h616l203 -1497z" />
    <glyph glyph-name="uni01B5" unicode="&#x1b5;" horiz-adv-x="1458" 
d="M315 1556h1241l-73 -352l-363 -321h303l-51 -244h-528l-416 -369h891l-57 -270h-1289l74 352l402 357h-299l53 243h522l377 334h-844z" />
    <glyph glyph-name="uni01B6" unicode="&#x1b6;" horiz-adv-x="1148" 
d="M215 1112h942l-63 -299l-205 -170h194l-43 -197h-391l-262 -217h621l-50 -229h-991l64 299l241 201h-170l41 196h367l225 187h-569z" />
    <glyph glyph-name="uni01E2" unicode="&#x1e2;" horiz-adv-x="2148" 
d="M2243 1556l-58 -270h-829l41 -352h698l-57 -270h-608l45 -394h512l-58 -270h-755l-44 420h-677l-224 -420h-352l848 1556h1518zM1020 1491l-424 -801h506zM1853 1708h-854l50 229h854z" />
    <glyph glyph-name="uni01E3" unicode="&#x1e3;" horiz-adv-x="2029" 
d="M1126 463l-6 -27q0 -119 56 -184q55 -64 153 -64q83 0 141 37t99 109h319q-85 -178 -235 -266q-149 -88 -344 -88q-164 0 -265 61q-98 59 -155 182q-75 -112 -199 -180t-289 -68q-102 0 -186 37q-83 36 -137 109q-51 68 -51 170q0 123 63 207q65 86 184 129t287 43h285
l12 53q8 36 8 61q0 63 -41 101q-40 37 -123 37q-90 0 -143 -39q-55 -40 -76 -111h-321q35 119 114 201t195 123q115 41 246 41q132 0 221 -47t133 -127q77 83 184 129q109 47 240 47q145 0 252 -52q108 -53 166 -153q59 -103 59 -246q0 -110 -37 -225h-809zM1282 856v2
q-78 -72 -121 -184h490q0 1 0.5 3.5t1.5 8t2 10.5q4 24 4 37q0 90 -51 141q-52 52 -144 52q-106 0 -182 -70zM684 262l2 -4q76 70 111 203h-170q-148 0 -215 -33q-70 -34 -70 -111q0 -60 43 -94q42 -33 115 -33q106 0 184 72zM1526 1280h-781l48 219h780z" />
    <glyph glyph-name="Gcaron" unicode="&#x1e6;" horiz-adv-x="1732" 
d="M813 623l49 245h811l-186 -880h-273l80 374q-82 -163 -223 -280t-358 -117q-162 0 -301 74t-222 219q-81 141 -81 344q0 242 108 467q107 224 318 363q210 139 491 139q190 0 332 -62q143 -62 225 -176q86 -118 109 -270h-344q-53 256 -344 256q-170 0 -295 -98
q-127 -100 -193 -260q-67 -162 -67 -351q0 -121 47 -207q46 -85 133 -129q85 -43 198 -43t213 50q97 48 166 139q70 91 99 203h-492zM1057 1794l205 164h297l-316 -297h-412l-200 297h272z" />
    <glyph glyph-name="gcaron" unicode="&#x1e7;" horiz-adv-x="1349" 
d="M1026 1112l311 -4l-237 -1122q-30 -144 -119 -236q-88 -91 -215 -135q-125 -43 -272 -43q-148 0 -258 43q-109 43 -175 127q-64 82 -73 197h319q9 -74 62 -115t131 -41q113 0 190 59t98 164l46 213q-59 -96 -156 -153q-102 -60 -217 -60q-110 0 -199 53q-88 52 -141 152
q-51 96 -51 229q0 174 67 332q68 160 197 262q130 103 311 103q95 0 162 -43q67 -44 108 -111q42 -69 56 -137zM772 287v-4q76 67 117 176q39 104 39 217q0 115 -54 178q-52 61 -151 61q-108 0 -184 -67q-77 -68 -117 -174q-39 -104 -39 -217q0 -115 55 -176q56 -62 150 -62
q107 0 184 68zM795 1358l217 188h284l-323 -319h-395l-197 319h266z" />
    <glyph glyph-name="uni01EA" unicode="&#x1ea;" horiz-adv-x="1726" 
d="M1079 -39l2 4q-49 -52 -49 -102q0 -68 96 -68h68l-43 -207h-106q-146 0 -222 43q-75 43 -75 133q0 119 149 220q-65 -7 -113 -7q-192 0 -346 74q-152 73 -239 219q-86 145 -86 348q0 246 110 465q113 224 320 361q210 139 489 139q194 0 348 -74q156 -75 240 -217
q86 -145 86 -350q0 -170 -55 -332t-160 -297q-107 -138 -252 -219q-107 -75 -162 -133zM496 408v-2q47 -87 129 -130t190 -43q169 0 295 99q129 101 195 262q67 162 67 356q0 124 -45 207q-47 85 -129 129q-82 43 -190 43q-170 0 -295 -98q-129 -101 -195 -262
q-67 -162 -67 -357q0 -121 45 -204z" />
    <glyph glyph-name="uni01EB" unicode="&#x1eb;" horiz-adv-x="1302" 
d="M1163 336l-10 -2q-77 -159 -221 -254h4q-112 -72 -172 -129q-57 -54 -57 -103q0 -65 104 -65h68l-43 -201h-109q-140 0 -217 47q-76 46 -76 133q0 59 41 115q38 52 109 98h-35q-144 0 -256 56t-172 159q-62 106 -62 250q0 176 78 338q75 157 232 258q153 99 374 99
q144 0 256 -56q114 -57 177 -159q63 -103 63 -250q0 -176 -76 -334zM420 248l2 -4q52 -64 147 -64q108 0 185 74q75 72 116 188q41 115 41 232q0 116 -55 180t-149 64q-108 0 -185 -74q-75 -72 -116 -187q-39 -110 -39 -229q0 -115 53 -180z" />
    <glyph glyph-name="AEacute" unicode="&#x1fc;" horiz-adv-x="2148" 
d="M2243 1556l-58 -270h-829l41 -352h698l-57 -270h-608l45 -394h512l-58 -270h-755l-44 420h-677l-224 -420h-352l848 1556h1518zM1020 1491l-424 -801h506zM1556 1673h-327l311 297h459z" />
    <glyph glyph-name="aeacute" unicode="&#x1fd;" horiz-adv-x="2029" 
d="M1126 463l-6 -27q0 -119 56 -184q55 -64 153 -64q83 0 141 37t99 109h319q-85 -178 -235 -266q-149 -88 -344 -88q-164 0 -265 61q-98 59 -155 182q-75 -112 -199 -180t-289 -68q-102 0 -186 37q-83 36 -137 109q-51 68 -51 170q0 123 63 207q65 86 184 129t287 43h285
l12 53q8 36 8 61q0 63 -41 101q-40 37 -123 37q-90 0 -143 -39q-55 -40 -76 -111h-321q35 119 114 201t195 123q115 41 246 41q132 0 221 -47t133 -127q77 83 184 129q109 47 240 47q145 0 252 -52q108 -53 166 -153q59 -103 59 -246q0 -110 -37 -225h-809zM1282 856v2
q-78 -72 -121 -184h490q0 1 0.5 3.5t1.5 8t2 10.5q4 24 4 37q0 90 -51 141q-52 52 -144 52q-106 0 -182 -70zM684 262l2 -4q76 70 111 203h-170q-148 0 -215 -33q-70 -34 -70 -111q0 -60 43 -94q42 -33 115 -33q106 0 184 72zM1264 1235h-306l297 319h439z" />
    <glyph glyph-name="Oslashacute" unicode="&#x1fe;" horiz-adv-x="1726" 
d="M2007 1556l-360 -313q61 -134 61 -301q0 -245 -111 -465q-112 -223 -319 -360q-212 -140 -490 -140q-129 0 -245 35q-115 35 -203 99l-123 -109h-407l362 315q-61 131 -61 299q0 246 110 465q113 224 320 361q210 139 489 139q137 0 246 -33q117 -35 203 -98l123 106h405
zM453 557l792 692q-49 39 -106 56q-61 18 -131 18q-170 0 -295 -98q-129 -101 -195 -262q-67 -162 -67 -357q0 -39 2 -49zM1366 999l-795 -688q96 -78 240 -78q169 0 295 99q127 100 194 262q68 165 68 356q0 39 -2 49zM1225 1675h-328l311 297h459z" />
    <glyph glyph-name="oslashacute" unicode="&#x1ff;" horiz-adv-x="1302" 
d="M1462 1112l-264 -227q43 -90 43 -213q0 -176 -78 -338q-76 -159 -233 -258q-156 -99 -375 -99q-85 0 -172 23q-76 20 -141 66l-74 -64h-330l266 227q-43 90 -43 213q0 176 78 338q75 157 232 258q153 99 374 99q86 0 173 -23q77 -20 143 -65l74 63h327zM543 856v-2
q-74 -68 -117 -172t-49 -217l477 407q-52 52 -137 52q-100 0 -174 -68zM756 254q72 66 116 172t50 219l-478 -409q53 -50 136 -50q102 0 176 68zM905 1235h-305l297 319h438z" />
    <glyph glyph-name="uni0218" unicode="&#x218;" horiz-adv-x="1458" 
d="M346 33l-8 -15q-141 60 -219 172q-79 113 -82 275h342q6 -119 92 -184q85 -64 225 -64q152 0 248 51q98 52 98 154q0 55 -28 94t-82 62q-60 26 -148 49l-211 59q-174 47 -268 145q-96 101 -96 256q0 136 86 248q85 110 233 172t332 62q273 0 426 -117q155 -119 182 -324
h-344q-15 87 -90 138q-73 49 -205 49q-81 0 -155 -23q-69 -22 -105 -63q-37 -43 -37 -94q0 -43 29 -80q26 -33 84 -58q61 -26 150 -49l211 -59q180 -50 270 -150q92 -103 92 -245q0 -163 -86 -281q-84 -115 -246 -178q-160 -62 -370 -62q-178 0 -320 60zM420 -430l63 295
h340l-69 -322l-179 -192h-206l159 219h-108z" />
    <glyph glyph-name="uni0219" unicode="&#x219;" horiz-adv-x="1159" 
d="M262 16l-10 -4q-110 43 -178 123q-67 79 -76 195h319q15 -148 209 -148q94 0 154 31q59 30 59 88q0 33 -16 55q-15 21 -53 39q-39 19 -107 39l-164 47q-278 82 -278 295q0 104 63 185q65 83 181 129q118 47 268 47q125 0 229 -37t172 -111q67 -73 82 -174h-319
q-12 53 -62 80q-53 29 -131 29q-80 0 -133 -27t-53 -80q0 -31 18 -49t56 -33q52 -21 104 -37l164 -49q145 -41 213 -121q67 -79 67 -190q0 -110 -63 -191q-65 -83 -184 -129q-116 -45 -283 -45q-138 0 -248 43zM250 -420l63 295h330l-70 -321l-178 -193h-196l159 219h-108z
" />
    <glyph glyph-name="uni021A" unicode="&#x21a;" horiz-adv-x="1357" 
d="M246 1556h1290l-57 -270h-482l-272 -1286h-330l273 1286h-482zM303 -414l64 295h340l-70 -321l-178 -193h-207l160 219h-109z" />
    <glyph glyph-name="uni021B" unicode="&#x21b;" horiz-adv-x="845" 
d="M614 883l-110 -529q-6 -24 -6 -49q0 -43 30 -61q32 -19 95 -19h98l-49 -229h-174q-96 0 -172 31q-74 30 -115 86t-41 129q0 56 8 92l117 549h-205l49 229h205l55 262h320l-55 -262h243l-49 -229h-244zM137 -418l64 295h329l-69 -321l-178 -193h-197l160 219h-109z" />
    <glyph glyph-name="uni022E" unicode="&#x22e;" horiz-adv-x="1726" 
d="M438 49h-2q-152 73 -239 219q-86 145 -86 348q0 246 110 465q113 224 320 361q210 139 489 139q194 0 348 -74q156 -75 240 -217q86 -145 86 -350q0 -245 -111 -465q-112 -223 -319 -360q-212 -140 -490 -140q-192 0 -346 74zM1104 330v-2q127 100 194 262q68 165 68 356
q0 124 -45 207q-47 85 -129 129q-82 43 -191 43q-169 0 -294 -98q-129 -101 -195 -262q-68 -165 -68 -357q0 -122 45 -205q47 -85 129 -129q82 -43 191 -43q169 0 295 99zM1253 1671h-340l64 297h340z" />
    <glyph glyph-name="uni022F" unicode="&#x22f;" horiz-adv-x="1302" 
d="M297 29h-4q-112 56 -172 159q-62 106 -62 250q0 176 78 338q75 157 232 258q153 99 374 99q144 0 256 -56q114 -57 177 -159q63 -103 63 -250q0 -176 -78 -338q-76 -159 -233 -258q-156 -99 -375 -99q-144 0 -256 56zM760 260l2 -4q76 73 117 188t41 232q0 115 -56 180
q-55 64 -149 64q-108 0 -185 -74q-75 -72 -116 -187q-39 -110 -39 -229q0 -115 53 -180q52 -64 147 -64q108 0 185 74zM938 1255h-330l64 295h329z" />
    <glyph glyph-name="uni0232" unicode="&#x232;" horiz-adv-x="1437" 
d="M1282 1556h387l-774 -940l-131 -616h-330l137 649l-387 907h344l263 -626zM1352 1708h-854l49 229h854z" />
    <glyph glyph-name="uni0233" unicode="&#x233;" horiz-adv-x="1222" 
d="M522 176l465 936h336l-760 -1513h-327l256 516h-256l-113 997h307zM1124 1282h-780l47 219h780z" />
    <glyph glyph-name="uni0237" unicode="&#x237;" horiz-adv-x="581" 
d="M-260 -401l47 227h55q74 0 111 29q35 27 47 90l248 1167h319l-258 -1216q-31 -147 -137 -222t-289 -75h-143z" />
    <glyph glyph-name="uni0259" unicode="&#x259;" horiz-adv-x="1275" 
d="M979 1079l-4 -8q111 -55 172 -160q61 -104 61 -245q0 -176 -78 -338q-75 -156 -231 -260q-152 -101 -369 -101q-146 0 -251 51q-108 52 -166 154q-60 105 -60 246q0 115 37 227h811v31q0 121 -55 182q-56 62 -156 62q-82 0 -141 -35q-57 -34 -98 -105h-320
q85 176 238 267q149 88 348 88q150 0 262 -56zM737 248l-2 -2q78 72 121 184h-487q-9 -30 -9 -59q0 -90 52 -142q51 -51 143 -51q106 0 182 70z" />
    <glyph glyph-name="uni0272" unicode="&#x272;" horiz-adv-x="1298" 
d="M1141 1053l-2 -11q82 -82 82 -221q0 -65 -15 -135l-147 -694h-320l135 639q15 71 15 123q0 77 -39 116q-41 41 -111 41q-100 0 -172 -75q-74 -77 -104 -222l-123 -575l-33 -148q-30 -145 -137 -221t-289 -76h-143l49 230h55q74 0 111 29q35 27 47 90l12 55l238 1112h315
l-47 -225q65 115 166 182q103 68 221 68q154 0 236 -82z" />
    <glyph glyph-name="circumflex" unicode="&#x2c6;" horiz-adv-x="999" 
d="M903 1556l199 -319h-268l-146 184l-217 -184h-287l324 319h395z" />
    <glyph glyph-name="caron" unicode="&#x2c7;" horiz-adv-x="999" 
d="M670 1368l217 188h284l-323 -319h-395l-197 319h266z" />
    <glyph glyph-name="breve" unicode="&#x2d8;" horiz-adv-x="835" 
d="M406 1260h4q-72 29 -117 90q-43 58 -43 135q0 40 8 67h227q-6 -24 -6 -45q0 -46 31 -71t90 -25q71 0 117 37t61 106h230q-21 -91 -80 -165q-58 -73 -150 -117q-90 -43 -205 -43q-91 0 -167 31z" />
    <glyph glyph-name="dotaccent" unicode="&#x2d9;" horiz-adv-x="413" 
d="M522 1262h-329l63 294h330z" />
    <glyph glyph-name="ring" unicode="&#x2da;" horiz-adv-x="587" 
d="M350 1255l-8 -6q-50 26 -82 78q-31 51 -31 121q0 79 39 141q41 66 105 103t139 37q62 0 115 -27q52 -27 82 -76q30 -50 30 -119q0 -77 -37 -141q-36 -61 -102 -100q-64 -37 -137 -37q-62 0 -113 26zM539 1415v-2q28 31 28 72q0 36 -20 53q-21 18 -51 18q-44 0 -72 -28
q-29 -29 -29 -68q0 -32 23 -55q21 -21 53 -21q40 0 68 31z" />
    <glyph glyph-name="ogonek" unicode="&#x2db;" horiz-adv-x="536" 
d="M174 -416h2q-145 0 -221 49t-76 136q0 133 180 231h318q-225 -64 -225 -152q0 -63 110 -63h70l-43 -201h-115z" />
    <glyph glyph-name="tilde" unicode="&#x2dc;" horiz-adv-x="792" 
d="M193 1264q30 139 104 213q73 73 168 73q74 0 151 -45q60 -32 111 -32q49 0 84 24t53 62h99q-30 -138 -105 -213q-74 -74 -168 -74q-74 0 -151 45q-62 33 -111 33q-48 0 -84 -25t-53 -61h-98z" />
    <glyph glyph-name="hungarumlaut" unicode="&#x2dd;" horiz-adv-x="1144" 
d="M469 1237h-285l291 319h375zM936 1237h-283l289 319h375z" />
    <glyph glyph-name="gravecomb" unicode="&#x300;" horiz-adv-x="0" 
d="M102 1237h-297l-284 319h420z" />
    <glyph glyph-name="acutecomb" unicode="&#x301;" horiz-adv-x="0" 
d="M-258 1237h-305l297 319h438z" />
    <glyph glyph-name="uni0302" unicode="&#x302;" horiz-adv-x="0" 
d="M-96 1556l198 -319h-268l-145 184l-217 -184h-287l323 319h396z" />
    <glyph glyph-name="tildecomb" unicode="&#x303;" horiz-adv-x="0" 
d="M-600 1264q30 139 104 213q73 73 168 73q75 0 152 -45q60 -32 110 -32t84 24q36 25 54 62h98q-30 -139 -104 -213t-168 -74q-75 0 -152 45q-62 33 -111 33q-48 0 -84 -25t-53 -61h-98z" />
    <glyph glyph-name="uni0304" unicode="&#x304;" horiz-adv-x="0" 
d="M113 1282h-781l47 219h781z" />
    <glyph glyph-name="uni0306" unicode="&#x306;" horiz-adv-x="0" 
d="M-430 1260h4q-72 29 -117 90q-43 58 -43 135q0 40 8 67h228q-6 -24 -6 -45q0 -47 30 -71q31 -25 90 -25q71 0 117 37q48 38 62 106h229q-21 -91 -80 -165t-149 -117t-205 -43q-92 0 -168 31z" />
    <glyph glyph-name="uni0307" unicode="&#x307;" horiz-adv-x="0" 
d="M109 1262h-330l63 294h330z" />
    <glyph glyph-name="uni0308" unicode="&#x308;" horiz-adv-x="0" 
d="M-379 1262h-330l64 294h330zM109 1262h-330l63 294h330z" />
    <glyph glyph-name="uni030A" unicode="&#x30a;" horiz-adv-x="0" 
d="M-238 1255l-8 -6q-50 26 -82 78q-30 49 -30 121q0 79 39 141q42 67 104 103q64 37 139 37q62 0 115 -27q52 -27 82 -76q31 -51 31 -119q0 -77 -37 -141q-35 -61 -103 -100q-64 -37 -137 -37q-62 0 -113 26zM-49 1415v-2q29 32 29 72q0 35 -21 53t-51 18q-44 0 -72 -28
q-29 -29 -29 -68q0 -32 23 -55q21 -21 53 -21q40 0 68 31z" />
    <glyph glyph-name="uni030B" unicode="&#x30b;" horiz-adv-x="0" 
d="M-676 1237h-285l291 319h375zM-209 1237h-283l289 319h375z" />
    <glyph glyph-name="uni030C" unicode="&#x30c;" horiz-adv-x="0" 
d="M-330 1368l217 188h285l-324 -319h-395l-196 319h266z" />
    <glyph glyph-name="uni0312" unicode="&#x312;" horiz-adv-x="0" 
d="M27 1782h196l-157 -219h106l-63 -297h-330l69 323z" />
    <glyph glyph-name="dotbelowcomb" unicode="&#x323;" horiz-adv-x="0" 
d="M-248 -414h-330l64 295h330z" />
    <glyph glyph-name="uni0326" unicode="&#x326;" horiz-adv-x="0" 
d="M-580 -414l64 295h330l-70 -321l-178 -193h-197l160 219h-109z" />
    <glyph glyph-name="uni0327" unicode="&#x327;" horiz-adv-x="0" 
d="M-350 -66l2 3q64 -9 104 -46q39 -36 39 -94q0 -66 -33 -110q-36 -48 -92 -74q-58 -27 -135 -27h-153l30 142h88q40 0 66 16q24 15 24 43q0 26 -18 35q-20 10 -51 10h-56l35 168h164z" />
    <glyph glyph-name="uni0328" unicode="&#x328;" horiz-adv-x="0" 
d="M-362 -416h2q-146 0 -222 49q-75 49 -75 136q0 133 180 231h317q-225 -64 -225 -152q0 -63 111 -63h69l-43 -201h-114z" />
    <glyph glyph-name="uni0335" unicode="&#x335;" horiz-adv-x="0" 
d="M-535 1227h-626l37 200h624z" />
    <glyph glyph-name="uni0336" unicode="&#x336;" horiz-adv-x="0" 
d="M76 1108h-1645l49 229h1643z" />
    <glyph glyph-name="uni0337" unicode="&#x337;" horiz-adv-x="0" 
d="M18 834l-671 -377l61 286l672 377z" />
    <glyph glyph-name="uni0338" unicode="&#x338;" horiz-adv-x="0" 
d="M-1194 0h-330l1297 1112h327z" />
    <glyph glyph-name="uni0394" unicode="&#x394;" horiz-adv-x="1613" 
d="M1321 1556l182 -1556h-1630l848 1556h600zM1143 270l-127 1223l-649 -1223h776z" />
    <glyph glyph-name="uni03A9" unicode="&#x3a9;" horiz-adv-x="1728" 
d="M1554 580l-2 -9q-165 -180 -487 -309h485l-57 -270h-666l76 352q246 125 365 277q116 149 116 350q0 107 -45 184q-47 79 -129 123q-82 43 -190 43q-158 0 -277 -70t-186 -192q-68 -124 -68 -273q0 -123 60 -231q56 -101 194 -205l-75 -352h-664l57 270h482
q-185 93 -289 228q-100 129 -100 301q0 220 116 397q117 179 320 281t459 102q205 0 356 -68q150 -68 233 -200q82 -131 82 -316q0 -232 -166 -413z" />
    <glyph glyph-name="uni03BC" unicode="&#x3bc;" horiz-adv-x="1384" 
d="M1141 240l-2 -2q26 -13 69 -13h66l-49 -229h-133q-139 0 -222 47q-82 46 -94 154q0 18 2 24q-63 -112 -166 -180t-221 -68q-30 0 -65 7l-80 -383h-320l322 1513h319l-137 -639q-14 -71 -14 -123q0 -158 141 -158q99 0 174 78t105 226l131 616h319l-166 -780
q-4 -24 -4 -45q0 -33 25 -45z" />
    <glyph glyph-name="pi" unicode="&#x3c0;" horiz-adv-x="1429" 
d="M1233 883l-113 -529q-4 -46 -4 -49q0 -42 31 -61q32 -19 94 -19h39l-49 -229h-115q-96 0 -172 31q-74 30 -115 86t-41 129q0 35 11 92l114 549h-303l-186 -883h-320l187 883h-187l50 229h1319l-50 -229h-190z" />
    <glyph glyph-name="uni0E3F" unicode="&#xe3f;" horiz-adv-x="1464" 
d="M1159 743l-8 -2q83 -41 131 -112q49 -73 49 -174q0 -119 -61 -217t-191 -160q-128 -61 -323 -76l-60 -272h-313l57 268h-383l330 1556h385l55 258h314l-60 -268q172 -27 258 -127t86 -237q0 -120 -65 -203q-64 -81 -166 -125q-104 -44 -219 -59q100 -9 184 -50zM791 907
l4 2q102 0 172 31q68 30 98 80q31 51 31 108q0 48 -27 89q-27 40 -76 61q-52 22 -114 22h-226l-84 -393h222zM666 250q122 0 200 35q77 35 111 86q35 53 35 114q0 88 -64 140q-65 53 -178 53h-244l-92 -428h232z" />
    <glyph glyph-name="Wgrave" unicode="&#x1e80;" horiz-adv-x="2357" 
d="M1597 63l607 1493h331l-645 -1556h-598l88 1497l-549 -1497h-600l19 1556h317l-28 -1493l555 1493h583zM1559 1673h-304l-311 297h424z" />
    <glyph glyph-name="wgrave" unicode="&#x1e81;" horiz-adv-x="1882" 
d="M1245 49l420 1063h293l-445 -1112h-534l72 1055l-373 -1055h-539l19 1112h284l-22 -1057l377 1057h514zM1214 1237h-296l-285 319h420z" />
    <glyph glyph-name="Wacute" unicode="&#x1e82;" horiz-adv-x="2357" 
d="M1597 63l607 1493h331l-645 -1556h-598l88 1497l-549 -1497h-600l19 1556h317l-28 -1493l555 1493h583zM1571 1673h-328l311 297h459z" />
    <glyph glyph-name="wacute" unicode="&#x1e83;" horiz-adv-x="1882" 
d="M1245 49l420 1063h293l-445 -1112h-534l72 1055l-373 -1055h-539l19 1112h284l-22 -1057l377 1057h514zM1239 1237h-305l297 319h438z" />
    <glyph glyph-name="Wdieresis" unicode="&#x1e84;" horiz-adv-x="2357" 
d="M1597 63l607 1493h331l-645 -1556h-598l88 1497l-549 -1497h-600l19 1556h317l-28 -1493l555 1493h583zM1329 1673h-340l64 297h340zM1800 1673h-340l64 297h340z" />
    <glyph glyph-name="wdieresis" unicode="&#x1e85;" horiz-adv-x="1882" 
d="M1245 49l420 1063h293l-445 -1112h-534l72 1055l-373 -1055h-539l19 1112h284l-22 -1057l377 1057h514zM983 1262h-330l64 294h330zM1470 1262h-329l63 294h330z" />
    <glyph glyph-name="uni1E9E" unicode="&#x1e9e;" horiz-adv-x="1607" 
d="M1610 1556l-70 -325l-371 -330q101 -18 179 -67q81 -50 127 -129q47 -80 47 -185q0 -171 -82 -293q-83 -123 -230 -188q-146 -64 -340 -64q-146 0 -270 48l49 239q54 -26 99 -37q50 -12 108 -12q100 0 170 33q74 34 117 96q43 61 43 145q0 109 -84 166q-83 56 -228 56
h-61l55 262l357 315h-578l-272 -1286h-330l330 1556h1235z" />
    <glyph glyph-name="uni1EA0" unicode="&#x1ea0;" horiz-adv-x="1622" 
d="M1507 0h-333l-44 420h-677l-224 -420h-352l848 1556h598zM1020 1491l-424 -801h506zM795 -414h-340l63 297h340z" />
    <glyph glyph-name="uni1EA1" unicode="&#x1ea1;" horiz-adv-x="1259" 
d="M1055 1049l-6 -2q122 -88 122 -254q0 -51 -12 -109l-145 -686h-316l43 207q-60 -104 -155 -166q-101 -66 -230 -66q-91 0 -166 37q-74 36 -122 109q-45 68 -45 164q0 183 129 274q132 93 389 117l307 28l4 21q8 36 8 61q0 65 -41 103q-40 37 -121 37q-90 0 -143 -39
q-57 -42 -78 -111h-319q34 116 114 199q79 82 195 123q115 41 246 41q220 0 342 -88zM686 248l-2 2q81 87 111 233l6 27l-187 -18q-130 -15 -202 -56t-72 -129q0 -71 43 -108t109 -37q114 0 194 86zM608 -416h-329l63 295h330z" />
    <glyph glyph-name="uni1EB8" unicode="&#x1eb8;" horiz-adv-x="1355" 
d="M1450 1556l-57 -270h-746l-74 -352h730l-58 -270h-729l-84 -394h762l-57 -270h-1092l330 1556h1075zM672 -414h-340l63 297h340z" />
    <glyph glyph-name="uni1EB9" unicode="&#x1eb9;" horiz-adv-x="1275" 
d="M371 463l-2 -25q0 -119 55 -180t156 -61q83 0 141 34q57 34 98 105h320q-85 -177 -236 -266q-149 -88 -346 -88q-150 0 -260 55q-111 55 -172 160q-62 106 -62 245q0 176 78 338q75 155 232 260q151 101 368 101q147 0 252 -51q108 -52 166 -154q60 -105 60 -246
q0 -115 -37 -227h-811zM530 860l-4 4q-74 -68 -118 -184h487q8 27 8 59q0 93 -49 142t-143 49q-105 0 -181 -70zM612 -403h-329l63 294h330z" />
    <glyph glyph-name="uni1EBC" unicode="&#x1ebc;" horiz-adv-x="1355" 
d="M1450 1556l-57 -270h-746l-74 -352h730l-58 -270h-729l-84 -394h762l-57 -270h-1092l330 1556h1075zM547 1690v-2q35 140 110 215t177 75q42 0 86 -12q33 -9 73 -29q23 -13 60 -24q27 -8 59 -8q50 0 86 20q38 21 55 57h107q-35 -139 -111 -215q-75 -75 -174 -75
q-43 0 -86 12q-25 7 -76 29q-57 32 -120 32q-48 0 -84 -20q-39 -22 -56 -55h-106z" />
    <glyph glyph-name="uni1EBD" unicode="&#x1ebd;" horiz-adv-x="1275" 
d="M371 463l-2 -25q0 -119 55 -180t156 -61q83 0 141 34q57 34 98 105h320q-85 -177 -236 -266q-149 -88 -346 -88q-150 0 -260 55q-111 55 -172 160q-62 106 -62 245q0 176 78 338q75 155 232 260q151 101 368 101q147 0 252 -51q108 -52 166 -154q60 -105 60 -246
q0 -115 -37 -227h-811zM530 860l-4 4q-74 -68 -118 -184h487q8 27 8 59q0 93 -49 142t-143 49q-105 0 -181 -70zM399 1274q30 138 105 213q74 74 168 74q74 0 151 -45q62 -33 111 -33q50 0 84 24q35 24 53 62h98q-30 -139 -104 -213t-168 -74q-75 0 -152 45q-62 33 -110 33
t-84 -25t-53 -61h-99z" />
    <glyph glyph-name="uni1ECA" unicode="&#x1eca;" horiz-adv-x="655" 
d="M375 0h-330l330 1556h330zM289 -414h-340l63 297h340z" />
    <glyph glyph-name="uni1ECB" unicode="&#x1ecb;" horiz-adv-x="581" 
d="M332 0h-320l238 1112h319zM606 1262h-330l64 294h330zM250 -414h-330l64 295h329z" />
    <glyph glyph-name="uni1ECC" unicode="&#x1ecc;" horiz-adv-x="1726" 
d="M438 49h-2q-152 73 -239 219q-86 145 -86 348q0 246 110 465q113 224 320 361q210 139 489 139q194 0 348 -74q156 -75 240 -217q86 -145 86 -350q0 -245 -111 -465q-112 -223 -319 -360q-212 -140 -490 -140q-192 0 -346 74zM1104 330v-2q127 100 194 262q68 165 68 356
q0 124 -45 207q-47 85 -129 129q-82 43 -191 43q-169 0 -294 -98q-129 -101 -195 -262q-68 -165 -68 -357q0 -122 45 -205q47 -85 129 -129q82 -43 191 -43q169 0 295 99zM846 -416h-340l63 297h340z" />
    <glyph glyph-name="uni1ECD" unicode="&#x1ecd;" horiz-adv-x="1302" 
d="M297 29h-4q-112 56 -172 159q-62 106 -62 250q0 176 78 338q75 157 232 258q153 99 374 99q144 0 256 -56q114 -57 177 -159q63 -103 63 -250q0 -176 -78 -338q-76 -159 -233 -258q-156 -99 -375 -99q-144 0 -256 56zM760 260l2 -4q76 73 117 188t41 232q0 115 -56 180
q-55 64 -149 64q-108 0 -185 -74q-75 -72 -116 -187q-39 -110 -39 -229q0 -115 53 -180q52 -64 147 -64q108 0 185 74zM627 -420h-330l63 295h330z" />
    <glyph glyph-name="uni1EE4" unicode="&#x1ee4;" horiz-adv-x="1599" 
d="M399 33l-4 -6q-129 59 -192 161q-64 104 -64 244q0 85 23 203l194 917h330l-207 -974q-14 -60 -14 -117q0 -116 67 -174t197 -58q162 0 264 99t142 282l200 946h330l-199 -940q-67 -308 -243 -475q-175 -166 -508 -166q-188 0 -316 58zM776 -420h-340l64 297h340z" />
    <glyph glyph-name="uni1EE5" unicode="&#x1ee5;" horiz-adv-x="1290" 
d="M956 1112h322l-236 -1112h-315l47 227q-65 -115 -166 -182q-103 -68 -227 -68q-150 0 -229 82q-80 83 -80 224q0 49 16 137l148 694h319l-135 -639q-17 -80 -17 -123q0 -82 37 -119q36 -36 109 -36q98 0 172 77t104 222zM608 -414h-329l63 295h330z" />
    <glyph glyph-name="Ygrave" unicode="&#x1ef2;" horiz-adv-x="1437" 
d="M1282 1556h387l-774 -940l-131 -616h-330l137 649l-387 907h344l263 -626zM1085 1673h-303l-311 297h424z" />
    <glyph glyph-name="ygrave" unicode="&#x1ef3;" horiz-adv-x="1222" 
d="M522 176l465 936h336l-760 -1513h-327l256 516h-256l-113 997h307zM891 1237h-297l-285 319h420z" />
    <glyph glyph-name="uni1EF8" unicode="&#x1ef8;" horiz-adv-x="1437" 
d="M1282 1556h387l-774 -940l-131 -616h-330l137 649l-387 907h344l263 -626zM545 1690v-2q35 140 110 215t176 75q43 0 87 -12q33 -9 73 -29q23 -13 60 -24q27 -8 59 -8q50 0 86 20q38 21 55 57h107q-35 -139 -111 -215q-75 -75 -174 -75q-43 0 -86 12q-25 7 -76 29
q-57 32 -120 32q-48 0 -84 -20q-39 -22 -56 -55h-106z" />
    <glyph glyph-name="uni1EF9" unicode="&#x1ef9;" horiz-adv-x="1222" 
d="M522 176l465 936h336l-760 -1513h-327l256 516h-256l-113 997h307zM377 1264q30 139 104 213q73 73 168 73q75 0 152 -45q60 -32 110 -32q49 0 84 24q36 25 54 62h98q-30 -138 -105 -213q-74 -74 -168 -74q-74 0 -151 45q-62 33 -111 33q-48 0 -84 -25t-53 -61h-98z" />
    <glyph glyph-name="uni2009" unicode="&#x2009;" horiz-adv-x="256" 
 />
    <glyph glyph-name="uni2011" unicode="&#x2011;" horiz-adv-x="915" 
d="M774 457h-676l54 258h677z" />
    <glyph glyph-name="endash" unicode="&#x2013;" horiz-adv-x="1146" 
d="M1006 457h-908l54 258h909z" />
    <glyph glyph-name="emdash" unicode="&#x2014;" horiz-adv-x="1748" 
d="M1608 457h-1510l54 258h1511z" />
    <glyph glyph-name="quoteleft" unicode="&#x2018;" horiz-adv-x="563" 
d="M469 1556h211l-195 -286h111l-68 -314h-344l76 355z" />
    <glyph glyph-name="quoteright" unicode="&#x2019;" horiz-adv-x="550" 
d="M264 1243l68 313h346l-76 -354l-209 -246h-211l193 287h-111z" />
    <glyph glyph-name="quotesinglbase" unicode="&#x201a;" horiz-adv-x="610" 
d="M14 0l68 313h346l-76 -354l-209 -246h-211l193 287h-111z" />
    <glyph glyph-name="quotedblleft" unicode="&#x201c;" horiz-adv-x="1028" 
d="M453 1556h211l-193 -286h111l-68 -314h-346l76 355zM920 1556h210l-194 -286h113l-68 -314h-346l76 355z" />
    <glyph glyph-name="quotedblright" unicode="&#x201d;" horiz-adv-x="1017" 
d="M745 1243l68 313h346l-76 -354l-209 -246h-210l192 287h-111zM279 1243l67 313h346l-76 -354l-208 -246h-211l192 287h-110z" />
    <glyph glyph-name="quotedblbase" unicode="&#x201e;" horiz-adv-x="1077" 
d="M481 0l68 313h346l-76 -354l-209 -246h-211l193 287h-111zM14 0l68 313h346l-76 -354l-209 -246h-211l193 287h-111z" />
    <glyph glyph-name="dagger" unicode="&#x2020;" horiz-adv-x="1249" 
d="M913 1159h353l-54 -254h-354l-192 -905h-320l193 905h-355l56 254h354l84 397h319z" />
    <glyph glyph-name="daggerdbl" unicode="&#x2021;" horiz-adv-x="1249" 
d="M1266 1159l-54 -254h-354l-47 -223h354l-55 -254h-352l-92 -428h-320l92 428h-354l53 254h355l47 223h-355l56 254h354l84 397h319l-84 -397h353z" />
    <glyph glyph-name="bullet" unicode="&#x2022;" horiz-adv-x="974" 
d="M328 303l-4 -4q-74 43 -117 117q-43 73 -43 164q0 90 43 163t117 117q73 43 163 43t166 -43q78 -44 121 -117t43 -161q0 -89 -43 -162q-44 -74 -119 -117q-76 -43 -166 -43q-88 0 -161 43z" />
    <glyph glyph-name="ellipsis" unicode="&#x2026;" horiz-adv-x="1830" 
d="M360 0h-346l68 313h346zM971 0h-346l67 313h346zM1581 0h-346l68 313h346z" />
    <glyph glyph-name="perthousand" unicode="&#x2030;" horiz-adv-x="2560" 
d="M895 987h-2q-50 -130 -154 -209q-106 -80 -254 -80q-143 0 -227 84q-82 82 -82 238q0 144 49 272q50 129 152 209q103 80 256 80q143 0 227 -84t84 -237q0 -145 -49 -273zM305 -2l1211 1556h301l-1211 -1556h-301zM426 905l-6 2q27 -35 80 -35q66 0 116 68t74 160
q25 95 25 166q0 70 -27 104q-27 35 -80 35q-67 0 -114 -68q-46 -66 -70 -159q-25 -95 -25 -168q0 -70 27 -105zM2382 774l-4 -4q84 -84 84 -238q0 -144 -49 -272q-50 -129 -152 -209q-103 -80 -252 -80q-75 0 -137 35q-59 33 -100 92q-115 -127 -289 -127q-144 0 -228 84
q-81 81 -81 238q0 146 49 274q50 130 151 209q103 80 252 80q80 0 139 -33q64 -36 103 -92q118 127 286 127q144 0 228 -84zM1618 211h-6q50 68 74 160q24 91 24 166q0 69 -27 104t-79 35q-68 0 -115 -68q-46 -66 -70 -159q-24 -92 -24 -166q0 -72 26 -105q27 -35 80 -35
q67 0 117 68zM2132 211h-4q48 70 72 160q24 91 24 166q0 71 -26 104q-27 35 -80 35q-68 0 -115 -68q-46 -66 -70 -159q-24 -92 -24 -166q0 -69 28 -105q27 -35 80 -35q68 0 115 68z" />
    <glyph glyph-name="minute" unicode="&#x2032;" horiz-adv-x="548" 
d="M424 961h-250l203 595h336z" />
    <glyph glyph-name="second" unicode="&#x2033;" horiz-adv-x="974" 
d="M424 961h-250l203 595h336zM850 961h-250l203 595h336z" />
    <glyph glyph-name="guilsinglleft" unicode="&#x2039;" horiz-adv-x="854" 
d="M498 1016h381l-430 -463l217 -457h-361l-219 471z" />
    <glyph glyph-name="guilsinglright" unicode="&#x203a;" horiz-adv-x="854" 
d="M188 1016h361l219 -471l-412 -449h-381l431 463z" />
    <glyph glyph-name="uni2042" unicode="&#x2042;" horiz-adv-x="1759" 
d="M1292 1323l21 -186l-246 -27l107 -233l-177 -80l-110 239l-197 -172l-129 144l193 170l-213 122l96 162l215 -123l49 230l193 -41l-50 -232zM737 489l21 -186l-246 -27l106 -233l-176 -80l-110 240l-197 -172l-129 143l193 170l-213 123l96 162l215 -123l49 229l193 -41
l-50 -231zM1700 489l20 -186l-245 -27l106 -233l-176 -80l-111 240l-196 -172l-129 143l192 170l-213 123l96 162l216 -123l49 229l192 -41l-49 -231z" />
    <glyph glyph-name="fraction" unicode="&#x2044;" horiz-adv-x="415" 
d="M-184 0h-281l1159 1556h279z" />
    <glyph glyph-name="uni2070" unicode="&#x2070;" horiz-adv-x="772" 
d="M285 1055h-4q-76 76 -76 217q0 137 45 250q46 116 141 190t238 74q133 0 209 -76q77 -77 77 -217q0 -137 -45 -250q-46 -116 -141 -190t-235 -74q-133 0 -209 76zM614 1198h-2q45 64 66 148q22 90 22 155q0 63 -24 98q-23 33 -70 33q-61 0 -104 -61q-42 -60 -64 -148
q-20 -81 -20 -155q0 -64 24 -99q22 -32 68 -32q61 0 104 61z" />
    <glyph glyph-name="uni2074" unicode="&#x2074;" horiz-adv-x="757" 
d="M786 1343h105l-37 -163h-102l-39 -187h-213l39 187h-377l45 209l280 383h392zM655 1720l-278 -377h196z" />
    <glyph glyph-name="uni2075" unicode="&#x2075;" horiz-adv-x="745" 
d="M874 1606h-362l-57 -189q31 48 84 78q54 31 114 31q59 0 105 -27q45 -26 73 -80q27 -53 27 -123q0 -97 -45 -168t-129 -112q-79 -39 -195 -39q-87 0 -157 31q-67 30 -107 88t-43 135h215q3 -42 31 -70q26 -26 74 -26q61 0 102 41t41 102q0 42 -29 68q-27 24 -73 24
q-44 0 -74 -18q-31 -18 -49 -49l-209 18l135 451h565z" />
    <glyph glyph-name="uni2076" unicode="&#x2076;" horiz-adv-x="759" 
d="M762 1485l-2 -2q53 -27 80 -80q28 -54 28 -117q0 -89 -47 -160q-46 -69 -129 -110q-79 -39 -190 -39q-85 0 -150 33q-66 34 -106 100q-39 65 -39 166q0 128 49 244q50 118 147 190q100 74 232 74q120 0 194 -62q75 -63 84 -161h-211q-7 29 -30 47q-24 18 -60 18
q-68 0 -116 -63q-49 -63 -70 -179q29 54 90 93q56 36 123 36q69 0 123 -28zM586 1153h-4q31 16 51 49q18 30 18 66q0 42 -26 65q-28 25 -74 25q-40 0 -76 -19q-32 -17 -51 -45q-18 -27 -18 -59q0 -47 30 -74q29 -26 76 -26q40 0 74 18z" />
    <glyph glyph-name="uni2077" unicode="&#x2077;" horiz-adv-x="616" 
d="M248 1606l35 166h565l-45 -211l-400 -568h-258l453 613h-350z" />
    <glyph glyph-name="uni2078" unicode="&#x2078;" horiz-adv-x="765" 
d="M854 1458h-10q-59 -48 -160 -63q77 -15 127 -62q49 -46 49 -108q0 -71 -45 -125q-44 -53 -131 -88q-82 -33 -199 -33q-90 0 -163 25q-71 24 -111 73q-39 48 -39 115q0 86 68 139t178 68q-75 29 -109 63q-37 37 -37 99q0 58 43 110q42 51 121 82t178 31q90 0 160 -25
q67 -24 105 -71q36 -45 36 -105q0 -76 -61 -125zM666 1491l6 -2q30 24 30 65q0 35 -26 52q-27 18 -74 18q-58 0 -92 -27q-33 -26 -33 -63q0 -30 25 -49t71 -19q62 0 93 25zM608 1163l-4 -2q43 30 43 74q0 33 -31 55q-30 21 -77 21q-67 0 -111 -27q-43 -27 -43 -70
q0 -39 31 -61q29 -20 84 -20q64 0 108 30z" />
    <glyph glyph-name="uni2079" unicode="&#x2079;" horiz-adv-x="757" 
d="M758 1753l-8 -2q66 -34 106 -100q39 -65 39 -166q0 -130 -51 -244q-53 -118 -150 -190q-100 -74 -231 -74q-120 0 -191 59q-72 60 -84 164h211q10 -30 33 -47q24 -18 60 -18q67 0 120 65t74 178q-29 -54 -92 -92q-61 -37 -125 -37q-67 0 -123 29q-53 27 -80 80
q-26 51 -26 117q0 88 47 159q47 70 129 111q84 41 190 41q87 0 152 -33zM621 1421v-6q30 16 51 47q18 27 18 60q0 45 -31 73q-30 27 -73 27q-40 0 -74 -18q-31 -16 -51 -50q-19 -32 -19 -63q0 -38 29 -64q27 -24 74 -24q41 0 76 18z" />
    <glyph glyph-name="uni207A" unicode="&#x207a;" horiz-adv-x="673" 
d="M606 1450h201l-33 -154h-201l-43 -206h-161l43 206h-201l33 154h200l43 203h162z" />
    <glyph glyph-name="uni207B" unicode="&#x207b;" horiz-adv-x="641" 
d="M727 1296h-504l33 154h504z" />
    <glyph glyph-name="uni207C" unicode="&#x207c;" horiz-adv-x="679" 
d="M788 1411h-538l33 154h538zM741 1182h-540l32 153h541z" />
    <glyph glyph-name="uni207D" unicode="&#x207d;" horiz-adv-x="487" 
d="M303 889h2q-74 168 -74 336q0 176 72 338q71 160 203 307h223q-137 -155 -215 -314q-76 -155 -76 -329q0 -171 72 -338h-207z" />
    <glyph glyph-name="uni207E" unicode="&#x207e;" horiz-adv-x="487" 
d="M111 889l-2 -4q138 156 215 313q75 153 75 332q0 168 -71 336h207q36 -85 53 -162q18 -80 18 -172q0 -183 -69 -336q-71 -157 -203 -307h-223z" />
    <glyph glyph-name="uni2080" unicode="&#x2080;" horiz-adv-x="772" 
d="M25 -172h-5q-75 75 -75 217q0 137 45 250q46 116 141 190t238 74q133 0 209 -76q77 -77 77 -217q0 -137 -45 -250q-46 -116 -141 -190t-236 -74q-132 0 -208 76zM354 -29h-2q45 64 66 148q22 90 22 155q0 64 -24 99q-23 33 -70 33q-60 0 -104 -62q-43 -60 -64 -147
q-20 -81 -20 -156q0 -63 24 -98q23 -33 68 -33q61 0 104 61z" />
    <glyph glyph-name="uni2081" unicode="&#x2081;" horiz-adv-x="477" 
d="M223 545h172l-166 -778h-213l107 499h-170l35 166h24q79 0 127 23q45 22 74 73z" />
    <glyph glyph-name="uni2082" unicode="&#x2082;" horiz-adv-x="724" 
d="M160 -68l397 -4l-37 -166h-641l43 209l406 252q39 25 67 53q21 21 21 54q0 30 -25 49q-24 18 -63 18q-46 0 -76 -24t-39 -66h-211q15 79 61 133q47 56 117 86q73 31 154 31q86 0 153 -25q62 -23 101 -71q37 -46 37 -111q0 -82 -50 -141q-49 -58 -131 -107z" />
    <glyph glyph-name="uni2083" unicode="&#x2083;" horiz-adv-x="722" 
d="M547 233l-10 -14q-67 -46 -166 -61q76 -15 129 -62t53 -110q0 -66 -37 -121t-115 -90q-73 -33 -190 -33q-138 0 -221 68q-82 67 -88 186h213q6 -94 110 -94q50 0 86 28q33 26 33 72q0 40 -37 61t-98 21h-57l34 162h62q70 0 110 24q41 24 41 62q0 29 -24 47t-66 18
q-41 0 -71 -24q-32 -26 -41 -62h-211q12 73 59 129t117 86q73 31 160 31q81 0 151 -25q67 -24 105 -71q36 -45 36 -105q0 -77 -67 -123z" />
    <glyph glyph-name="uni2084" unicode="&#x2084;" horiz-adv-x="757" 
d="M526 117h105l-37 -164h-102l-39 -186h-213l39 186h-377l45 209l280 383h391zM395 494l-278 -377h196z" />
    <glyph glyph-name="uni2085" unicode="&#x2085;" horiz-adv-x="745" 
d="M614 379h-362l-57 -189q31 48 84 78q54 31 114 31q59 0 105 -27t73 -79q27 -53 27 -123q0 -97 -45 -168q-46 -72 -129 -113q-79 -39 -195 -39q-87 0 -157 31q-67 30 -107 88t-43 135h215q3 -42 31 -70q26 -26 74 -26q61 0 102 41t41 102q0 42 -29 68q-27 24 -73 24
q-44 0 -74 -18q-31 -18 -49 -49l-209 18l135 451h565z" />
    <glyph glyph-name="uni2086" unicode="&#x2086;" horiz-adv-x="759" 
d="M502 258l-2 -2q53 -27 80 -80q28 -54 28 -117q0 -88 -47 -159q-47 -70 -129 -111q-79 -39 -190 -39q-85 0 -150 33q-66 34 -106 100q-39 65 -39 166q0 128 49 244q50 118 147 190q100 74 232 74q121 0 194 -61q75 -63 84 -162h-211q-7 29 -30 47q-24 18 -60 18
q-68 0 -116 -63q-49 -64 -70 -178q28 52 90 92q58 37 123 37q67 0 123 -29zM326 -74h-4q31 16 51 49q18 30 18 66q0 42 -26 65q-28 25 -74 25q-41 0 -76 -18q-32 -17 -51 -45q-19 -29 -19 -60q0 -46 31 -74q29 -26 76 -26q40 0 74 18z" />
    <glyph glyph-name="uni2087" unicode="&#x2087;" horiz-adv-x="616" 
d="M-12 379l35 166h565l-45 -211l-400 -567h-258l453 612h-350z" />
    <glyph glyph-name="uni2088" unicode="&#x2088;" horiz-adv-x="765" 
d="M594 231h-10q-59 -48 -160 -63q77 -15 127 -62q49 -46 49 -108q0 -71 -45 -125q-44 -53 -131 -88q-82 -33 -199 -33q-91 0 -164 25q-70 24 -110 73q-39 48 -39 115q0 86 68 139t178 68q-73 28 -109 64q-37 37 -37 98q0 58 43 110q42 51 121 82t178 31q90 0 160 -25
q66 -23 104 -71q37 -46 37 -105q0 -76 -61 -125zM406 264l6 -2q30 24 30 66q0 34 -26 51q-27 18 -74 18q-59 0 -92 -26t-33 -64q0 -30 25 -49q24 -18 71 -18q63 0 93 24zM348 -63l-4 -3q43 30 43 74q0 33 -31 55q-30 21 -77 21q-67 0 -111 -27q-43 -27 -43 -69q0 -40 31 -62
q29 -20 84 -20q63 0 108 31z" />
    <glyph glyph-name="uni2089" unicode="&#x2089;" horiz-adv-x="757" 
d="M498 526l-9 -2q68 -35 107 -100t39 -166q0 -130 -51 -244q-53 -118 -150 -190q-100 -74 -231 -74q-119 0 -191 60t-84 163h211q10 -30 33 -47q24 -18 59 -18q68 0 121 65t74 179q-30 -55 -92 -93q-59 -36 -125 -36q-69 0 -123 28q-53 27 -80 80q-26 51 -26 117
q0 89 47 160q46 69 129 110q84 41 190 41q87 0 152 -33zM360 195v-7q31 16 52 48q18 27 18 59q0 46 -31 74q-29 26 -73 26q-40 0 -74 -18q-31 -16 -51 -49q-19 -32 -19 -64q0 -37 29 -63q28 -25 74 -25q39 0 75 19z" />
    <glyph glyph-name="uni208A" unicode="&#x208a;" horiz-adv-x="673" 
d="M346 223h201l-33 -153h-201l-43 -207h-161l43 207h-201l33 153h200l43 203h162z" />
    <glyph glyph-name="uni208B" unicode="&#x208b;" horiz-adv-x="641" 
d="M467 70h-504l33 153h504z" />
    <glyph glyph-name="uni208C" unicode="&#x208c;" horiz-adv-x="679" 
d="M528 184h-538l33 154h538zM481 -45h-540l32 154h541z" />
    <glyph glyph-name="uni208D" unicode="&#x208d;" horiz-adv-x="487" 
d="M41 -338h2q-74 168 -74 336q0 176 72 338q71 160 203 307h223q-138 -156 -215 -313q-76 -155 -76 -330q0 -171 72 -338h-207z" />
    <glyph glyph-name="uni208E" unicode="&#x208e;" horiz-adv-x="487" 
d="M-147 -338l-3 -4q140 159 216 313q75 153 75 332q0 168 -71 336h206q38 -90 54 -162q18 -79 18 -172q0 -183 -69 -336q-71 -157 -203 -307h-223z" />
    <glyph glyph-name="uni20A9" unicode="&#x20a9;" horiz-adv-x="2074" 
d="M2099 1083l-51 -229h-225l-51 -166h196l-49 -229h-219l-141 -459h-494l182 1534l-467 -1534h-499l53 459h-225l49 229h202l21 166h-234l50 229h211l55 473h262l-180 -1513l467 1513h473l-174 -1513l463 1513h266l-146 -473h205z" />
    <glyph glyph-name="Euro" unicode="&#x20ac;" horiz-adv-x="1697" 
d="M1096 272l2 -6q85 61 153 170h328q-77 -145 -186 -248t-242 -159t-272 -56q-167 0 -291 68t-191 190q-66 120 -75 291h-254l110 195h152q5 44 22 117h-192l110 194h148q71 165 184 287q114 123 262 194q146 70 312 70q157 0 268 -57q116 -60 182 -162q67 -104 88 -242
h-330q-9 107 -71 166t-168 59q-112 0 -215 -86q-101 -84 -172 -227h588l-111 -194h-553q-17 -64 -25 -119h512l-112 -195h-410q9 -147 76 -229t184 -82q104 0 189 61z" />
    <glyph glyph-name="uni20B8" unicode="&#x20b8;" horiz-adv-x="1329" 
d="M227 1327l49 229h1194l-49 -229h-1194zM588 973h-436l49 229h1194l-47 -229h-435l-208 -973h-324z" />
    <glyph glyph-name="uni20B9" unicode="&#x20b9;" horiz-adv-x="1431" 
d="M1522 1327l-336 -2q34 -69 37 -158h258l-49 -229h-261q-50 -96 -141 -166q-86 -67 -219 -106q-124 -37 -276 -37h-48l643 -631h-440l-567 565l70 322h397q104 0 176 35q71 35 104 88t33 116q0 54 -26 93q-27 40 -76 61q-52 22 -117 22h-401l55 256h1233z" />
    <glyph glyph-name="uni20BA" unicode="&#x20ba;" horiz-adv-x="1468" 
d="M1411 647q-61 -340 -258 -493q-198 -154 -537 -154h-450l113 526l-175 -49l50 230l174 49l28 135l-174 -49l47 229l177 51l92 434h323l-71 -335l424 120l-48 -229l-424 -121l-28 -135l424 121l-49 -229l-424 -121l-78 -371h88q194 0 301 94t151 297h324z" />
    <glyph glyph-name="uni20BD" unicode="&#x20bd;" horiz-adv-x="1546" 
d="M637 625l-27 -129h375l-51 -230h-373l-57 -270h-326l58 270h-181l49 230h181l26 125h-180l49 229h180l150 702h512q162 0 289 -47q126 -46 194 -139q68 -92 68 -223q0 -161 -80 -279q-79 -116 -236 -178q-155 -61 -387 -61h-233zM782 1296l-94 -448h201q176 0 268 65
t92 191q0 99 -67 145q-68 47 -199 47h-201z" />
    <glyph glyph-name="uni20BF" unicode="&#x20bf;" horiz-adv-x="1460" 
d="M1157 743l-2 -2q83 -41 131 -112q49 -73 49 -174q0 -161 -106 -273t-320 -159l-63 -295h-277l58 268h-105l-59 -268h-275l58 268h-191l332 1556h188l56 258h274l-55 -258h88h18l56 258h276l-65 -311q101 -46 151 -129q49 -82 49 -190q0 -120 -65 -203q-64 -81 -166 -125
q-104 -44 -219 -59q100 -9 184 -50zM1075 1217v2q-27 40 -76 61q-54 23 -114 23h-228l-84 -394h222q102 0 172 31q67 30 102 80q33 47 33 108q0 48 -27 89zM668 250h-2q122 0 200 35q77 35 111 86q35 53 35 114q0 88 -64 140q-65 53 -178 53h-244l-92 -428h234z" />
    <glyph glyph-name="uni2113" unicode="&#x2113;" horiz-adv-x="1177" 
d="M598 545l-43 -221q-6 -24 -6 -45q0 -45 31 -70t88 -25q122 0 252 80l-46 -211q-78 -44 -159 -63t-166 -19q-157 0 -240 68q-82 67 -82 188q0 48 13 111l2 10l-123 -67l-78 194l258 141l113 533q27 123 94 221t176 154q107 55 246 55q116 0 194 -37q79 -37 119 -98
q39 -59 39 -146q0 -365 -551 -682zM836 1337l-2 -4q-40 -29 -66 -76q-29 -54 -43 -118l-68 -318q169 117 252 234q82 116 82 219q0 90 -82 90q-35 0 -73 -27z" />
    <glyph glyph-name="uni2116" unicode="&#x2116;" horiz-adv-x="2678" 
d="M2591 1542l-2 -2q79 -38 123 -108q43 -70 43 -166q0 -128 -62 -240q-61 -109 -172 -174q-114 -66 -256 -66q-108 0 -186 37q-79 37 -123 109q-43 70 -43 166q0 129 61 239q62 112 172 176q114 66 256 66q111 0 189 -37zM1010 1552l202 -1497l318 1497h330l-330 -1556
h-617l-204 1491l-316 -1491h-330l330 1556h617zM2394 1006l-2 -2q49 49 72 116q24 71 24 146q0 60 -30 98q-30 37 -84 37q-60 0 -105 -45q-44 -44 -69 -117t-25 -145q0 -60 31 -99q30 -37 84 -37q56 0 104 48z" />
    <glyph glyph-name="uni2117" unicode="&#x2117;" horiz-adv-x="1931" 
d="M1434 1505l-4 -8q193 -114 307 -307t114 -420q0 -230 -112 -420q-114 -193 -307 -307q-192 -113 -424 -113q-229 0 -424 115t-308 307q-112 190 -112 422q0 227 115 422q114 193 307 307q195 115 424 115q232 0 424 -113zM1337 199v-2q152 90 240 239t88 332t-88 332
t-240 239q-154 91 -331 91q-181 0 -332 -89q-152 -90 -240 -239t-88 -332t88 -332t240 -239q149 -88 332 -88q182 0 331 88zM1067 1225l-4 2q125 0 207 -39q87 -41 133 -111q47 -71 47 -162q0 -93 -45 -161q-46 -70 -133 -111q-82 -39 -205 -39h-152v-305h-229v926h381z
M1051 795v4q75 0 116 30t41 91q0 60 -41 90t-116 30h-140v-245h140z" />
    <glyph glyph-name="uni2120" unicode="&#x2120;" horiz-adv-x="1933" 
d="M694 1255l-8 -4q107 -21 160 -77t53 -148q0 -76 -43 -131t-117 -82q-79 -29 -174 -29q-92 0 -168 31q-70 28 -118 86q-47 56 -56 129h209q9 -53 47 -80q36 -26 96 -26q57 0 93 22q34 21 34 55t-30 52q-28 17 -94 32l-117 23q-217 46 -217 221q0 67 41 123q41 57 110 86
q73 31 160 31q144 0 227 -62q85 -63 105 -159h-211q-9 37 -43 55t-80 18q-48 0 -78 -18q-31 -19 -31 -49q0 -27 29 -43t105 -31zM1884 1552v-764h-190v715l-119 -715h-313l-117 703v-703h-191v764h357l108 -686l107 686h358z" />
    <glyph glyph-name="trademark" unicode="&#x2122;" horiz-adv-x="1953" 
d="M487 1386h-225v170h656v-170h-226v-593h-205v593zM1894 1556v-763h-190v714l-119 -714h-313l-119 702v-702h-190v763h356l108 -686l107 686h360z" />
    <glyph glyph-name="uni2150" unicode="&#x2150;" horiz-adv-x="1652" 
d="M1038 612l35 166h565l-45 -211l-399 -567h-258l453 612h-351zM483 1556h172l-166 -778h-213l107 500h-170l35 166h24q81 0 127 22q44 21 74 74zM356 0h-280l1159 1556h278z" />
    <glyph glyph-name="uni2151" unicode="&#x2151;" horiz-adv-x="1703" 
d="M1475 760l-9 -2q67 -34 107 -101q39 -65 39 -165q0 -130 -51 -244q-54 -119 -150 -191q-98 -73 -231 -73q-120 0 -191 59q-72 60 -84 164h211q10 -30 33 -47q25 -19 59 -19q67 0 121 66q53 65 74 178q-29 -54 -92 -92q-61 -37 -125 -37q-67 0 -123 29q-53 27 -80 80
t-27 116q0 87 48 160q46 71 129 111q84 41 190 41q87 0 152 -33zM1337 428v-6q32 17 52 47q18 27 18 59q0 46 -31 74q-30 27 -73 27q-38 0 -74 -19q-31 -16 -51 -49q-19 -32 -19 -63q0 -38 29 -64q27 -24 74 -24q40 0 75 18zM471 1546h172l-166 -778h-213l107 500h-170
l35 166h24q81 0 127 22q44 21 74 74zM344 -10h-281l1160 1556h278z" />
    <glyph glyph-name="uni2152" unicode="&#x2152;" horiz-adv-x="2217" 
d="M1257 778h173l-166 -778h-213l106 500h-170l35 166h25q81 0 127 22q42 20 73 74zM1503 61h-4q-76 76 -76 218q0 136 45 249q46 117 142 191q95 74 237 74q133 0 209 -76q78 -78 78 -217q0 -137 -45 -250q-47 -118 -141 -191t-236 -73q-134 0 -209 75zM1833 205h-2
q44 63 65 147q23 94 23 156t-25 98q-23 33 -69 33q-62 0 -105 -61q-41 -58 -63 -148q-21 -86 -21 -156q0 -62 25 -98q23 -33 68 -33q60 0 104 62zM481 1556h172l-166 -778h-213l107 500h-170l35 166h24q81 0 127 22q44 21 74 74zM354 0h-280l1159 1556h278z" />
    <glyph glyph-name="uni2153" unicode="&#x2153;" horiz-adv-x="1669" 
d="M481 1556h172l-166 -778h-213l107 500h-170l35 166h24q81 0 127 22q44 21 74 74zM354 0h-280l1159 1556h278zM1522 467l-11 -14q-69 -47 -165 -62q77 -15 129 -61q53 -47 53 -111q0 -66 -37 -121t-115 -90q-73 -33 -190 -33q-138 0 -221 68q-82 67 -88 186h213
q6 -94 110 -94q49 0 86 29q33 26 33 72q0 40 -37 61q-36 20 -98 20h-58l35 162h62q68 0 110 25q41 24 41 61q0 29 -24 47q-25 19 -66 19t-72 -25q-33 -26 -41 -61h-210q12 73 59 129t117 86q73 31 159 31q82 0 152 -25q64 -23 104 -72q37 -46 37 -104q0 -77 -67 -123z" />
    <glyph glyph-name="uni2154" unicode="&#x2154;" horiz-adv-x="1908" 
d="M403 944l398 -4l-37 -166h-641l43 209l405 252q42 27 68 53q20 20 20 53q0 32 -24 50t-64 18q-44 0 -75 -25q-30 -24 -39 -65h-211q15 79 61 133q47 56 117 86q73 31 154 31q86 0 153 -25q61 -23 100 -71q37 -46 37 -111q0 -83 -49 -141t-131 -107zM598 -4h-281
l1160 1556h278zM1763 463l-10 -14q-69 -47 -166 -62q77 -15 129 -61q53 -47 53 -111q0 -68 -36 -121q-37 -55 -115 -90q-73 -33 -191 -33q-138 0 -221 68q-82 67 -88 186h213q6 -94 111 -94q49 0 86 29q33 26 33 71q0 41 -37 62q-36 20 -99 20h-57l35 162h61q69 0 111 25
q41 24 41 61q0 28 -25 47t-65 19q-41 0 -72 -25q-33 -26 -41 -61h-211q12 71 60 129q48 57 116 86q70 30 160 30q84 0 152 -24q64 -23 104 -72q37 -46 37 -104q0 -76 -68 -123z" />
    <glyph glyph-name="uni2155" unicode="&#x2155;" horiz-adv-x="1726" 
d="M1618 612h-363l-57 -188q31 48 84 78q52 30 115 30q59 0 104 -26q47 -27 74 -80q27 -52 27 -123q0 -95 -46 -168q-45 -71 -129 -112q-79 -39 -194 -39q-91 0 -158 30q-65 29 -106 88q-40 58 -43 136h215q3 -43 30 -70t74 -27q62 0 103 41t41 103q0 41 -29 67
q-28 25 -74 25q-42 0 -74 -19q-31 -18 -49 -49l-209 19l136 450h565zM479 1556h172l-166 -778h-213l107 500h-170l35 166h24q81 0 127 22q44 21 74 74zM352 0h-280l1159 1556h278z" />
    <glyph glyph-name="uni2156" unicode="&#x2156;" horiz-adv-x="1966" 
d="M403 944l398 -4l-37 -166h-641l43 209l405 252q42 27 68 53q20 20 20 53q0 32 -24 50t-64 18q-44 0 -75 -25q-30 -24 -39 -65h-211q15 79 61 133q47 56 117 86q73 31 154 31q86 0 153 -25q61 -23 100 -71q37 -46 37 -111q0 -83 -49 -141t-131 -107zM598 -4h-281
l1160 1556h278zM1862 608h-363l-57 -188q31 48 84 78q52 30 114 30q60 0 105 -26q47 -27 74 -80q26 -51 26 -123q0 -97 -45 -168q-46 -72 -129 -113q-77 -38 -194 -38q-91 0 -158 30t-107 88t-43 135h215q3 -41 31 -69q27 -27 74 -27q61 0 102 41t41 103q0 42 -28 67t-74 25
q-42 0 -74 -19q-31 -18 -49 -49l-209 19l135 450h565z" />
    <glyph glyph-name="uni2157" unicode="&#x2157;" horiz-adv-x="1923" 
d="M795 1245l-11 -14q-69 -47 -166 -62q79 -15 130 -61q53 -47 53 -111q0 -65 -37 -120q-38 -56 -115 -91q-71 -32 -190 -32q-139 0 -221 67t-88 187h212q6 -95 111 -95q49 0 86 29q33 26 33 72q0 40 -37 61q-38 21 -98 21h-58l35 161h62q68 0 110 25q41 24 41 61
q0 30 -24 48t-66 18q-41 0 -72 -25q-33 -26 -41 -61h-211q12 71 60 129q47 56 117 86q73 31 159 31q82 0 152 -25q66 -23 104 -71q37 -46 37 -105q0 -77 -67 -123zM539 -14h-281l1159 1556h279zM1802 598h-362l-58 -188q30 46 84 77t115 31q60 0 105 -26t73 -80
q27 -52 27 -123q0 -97 -45 -168q-46 -72 -129 -113q-79 -39 -195 -39q-87 0 -157 31q-67 30 -107 88t-43 135h215q3 -41 31 -69q27 -27 74 -27q61 0 102 41t41 102q0 42 -29 68q-27 24 -74 24q-43 0 -73 -18q-31 -18 -49 -49l-209 18l135 451h565z" />
    <glyph glyph-name="uni2158" unicode="&#x2158;" horiz-adv-x="1959" 
d="M768 1128h104l-36 -163h-103l-39 -187h-213l39 187h-377l45 209l281 382h391zM637 1505l-279 -377h197zM586 0h-281l1159 1556h279zM1849 612h-362l-57 -188q31 48 83 78q53 30 115 30q60 0 105 -26t73 -80q27 -52 27 -123q0 -97 -45 -168t-129 -112q-79 -39 -195 -39
q-90 0 -157 30t-107 88t-43 136h215q3 -42 31 -70q27 -27 74 -27q61 0 102 41t41 103q0 41 -29 67q-28 25 -73 25q-42 0 -74 -19q-31 -18 -49 -49l-209 19l135 450h565z" />
    <glyph glyph-name="uni2159" unicode="&#x2159;" horiz-adv-x="1695" 
d="M1464 492l-2 -3q54 -28 80 -79q29 -56 29 -117q0 -89 -47 -160q-46 -69 -129 -110q-79 -39 -191 -39q-86 0 -149 32q-67 34 -107 101q-39 65 -39 166q0 127 49 243q50 118 148 191q100 74 231 74q121 0 195 -62q75 -63 84 -162h-211q-6 28 -31 47t-59 19q-68 0 -117 -64
t-70 -178q28 52 91 92q58 37 122 37q69 0 123 -28zM1288 160h-4q31 16 51 49q19 32 19 65q0 42 -27 66q-28 25 -74 25q-39 0 -75 -19q-34 -18 -52 -45t-18 -59q0 -46 31 -74q30 -27 75 -27q38 0 74 19zM475 1554h172l-166 -778h-213l107 500h-170l35 166h24q81 0 127 22
q44 21 74 74zM348 -2h-280l1159 1556h278z" />
    <glyph glyph-name="uni215A" unicode="&#x215a;" horiz-adv-x="1890" 
d="M850 1391h-363l-57 -189q31 48 84 78q54 31 115 31q57 0 104 -27t74 -80q27 -52 27 -123q0 -95 -46 -168q-45 -71 -129 -112q-79 -39 -194 -39q-88 0 -158 31q-65 29 -106 88q-40 58 -43 135h215q3 -43 30 -70q26 -26 74 -26q62 0 103 41t41 102q0 41 -29 67
q-28 25 -74 25q-44 0 -74 -18t-49 -50l-209 19l136 450h565zM547 0h-281l1159 1556h279zM1659 492l-2 -3q54 -28 80 -79q28 -54 28 -117q0 -89 -47 -160q-46 -69 -129 -110q-79 -39 -190 -39q-87 0 -150 32q-65 33 -106 101q-39 65 -39 166q0 127 49 243q50 119 147 191
q100 74 232 74q120 0 194 -62q75 -63 84 -162h-211q-7 29 -30 47q-25 19 -60 19q-67 0 -116 -64t-70 -178q28 52 90 92q58 37 123 37q69 0 123 -28zM1483 160h-4q31 16 51 49q18 30 18 65q0 43 -26 66q-28 25 -74 25q-40 0 -76 -19q-32 -17 -51 -45q-18 -27 -18 -59
q0 -47 30 -74t76 -27q38 0 74 19z" />
    <glyph glyph-name="oneeighth" unicode="&#x215b;" horiz-adv-x="1708" 
d="M1563 465h-11q-61 -49 -159 -64q78 -15 127 -61t49 -109q0 -71 -45 -125q-44 -53 -131 -88q-79 -32 -199 -32q-94 0 -164 24q-69 23 -110 74q-39 48 -39 115q0 87 67 139q68 53 178 68q-73 28 -108 63q-37 37 -37 98q0 59 43 111q42 51 121 82t178 31q90 0 160 -25
q64 -23 104 -72q37 -46 37 -104q0 -76 -61 -125zM1374 498l6 -2q31 25 31 65q0 33 -27 51q-29 19 -73 19q-57 0 -92 -27q-33 -26 -33 -63q0 -31 24 -49q25 -19 72 -19q61 0 92 25zM1317 170l-4 -2q43 30 43 74q0 33 -31 55q-29 20 -78 20q-68 0 -110 -26q-43 -27 -43 -70
q0 -40 30 -61t84 -21q64 0 109 31zM471 1550h172l-166 -778h-213l107 500h-170l35 166h24q81 0 127 22q44 21 74 74zM344 -6h-281l1160 1556h278z" />
    <glyph glyph-name="threeeighths" unicode="&#x215c;" horiz-adv-x="1906" 
d="M795 1245l-11 -14q-69 -47 -166 -62q79 -15 130 -61q53 -47 53 -111q0 -65 -37 -120q-38 -56 -115 -91q-71 -32 -190 -32q-139 0 -221 67t-88 187h212q6 -95 111 -95q49 0 86 29q33 26 33 72q0 40 -37 61q-38 21 -98 21h-58l35 161h62q68 0 110 25q41 24 41 61
q0 30 -24 48t-66 18q-41 0 -72 -25q-33 -26 -41 -61h-211q12 71 60 129q47 56 117 86q73 31 159 31q82 0 152 -25q66 -23 104 -71q37 -46 37 -105q0 -77 -67 -123zM539 -14h-281l1159 1556h279zM1747 451h-10q-61 -49 -160 -64q78 -15 127 -61t49 -109q0 -71 -45 -125
q-44 -53 -131 -88q-82 -33 -199 -33q-91 0 -164 25q-69 23 -110 74q-39 48 -39 114q0 87 68 140q67 52 178 67q-73 28 -109 64q-37 37 -37 98q0 59 43 111q41 50 121 81q79 31 178 31q93 0 160 -24q66 -23 105 -72q36 -45 36 -105q0 -75 -61 -124zM1559 483l6 -2
q30 24 30 66q0 34 -26 51q-27 18 -74 18q-59 0 -92 -26t-33 -64q0 -30 25 -49q24 -18 71 -18q63 0 93 24zM1501 156l-4 -2q43 30 43 73q0 34 -31 56q-29 20 -77 20q-68 0 -111 -27t-43 -69q0 -40 31 -62q29 -20 84 -20q63 0 108 31z" />
    <glyph glyph-name="fiveeighths" unicode="&#x215d;" horiz-adv-x="1902" 
d="M850 1391h-363l-57 -189q31 48 84 78q54 31 115 31q57 0 104 -27t74 -80q27 -52 27 -123q0 -95 -46 -168q-45 -71 -129 -112q-79 -39 -194 -39q-88 0 -158 31q-65 29 -106 88q-40 58 -43 135h215q3 -43 30 -70q26 -26 74 -26q62 0 103 41t41 102q0 41 -29 67
q-28 25 -74 25q-44 0 -74 -18t-49 -50l-209 19l136 450h565zM547 0h-281l1159 1556h279zM1755 465h-10q-61 -49 -160 -64q78 -15 127 -61t49 -109q0 -71 -45 -125q-44 -53 -131 -88q-79 -32 -199 -32q-92 0 -163 24q-70 24 -111 74q-39 48 -39 115q0 86 68 139t178 68
q-75 29 -109 63q-36 36 -36 98q0 59 43 111t120 82q79 31 179 31q89 0 159 -25q66 -23 105 -72q37 -46 37 -104q0 -75 -62 -125zM1567 498l6 -2q31 25 31 65q0 33 -27 51q-29 19 -74 19q-57 0 -92 -27q-33 -26 -33 -63q0 -30 25 -49t72 -19q61 0 92 25zM1509 170l-4 -2
q43 30 43 74q0 34 -30 55q-29 20 -78 20q-69 0 -111 -26q-43 -27 -43 -70q0 -39 31 -61q30 -21 84 -21q63 0 108 31z" />
    <glyph glyph-name="seveneighths" unicode="&#x215e;" horiz-adv-x="1775" 
d="M246 1391l35 165h565l-45 -210l-400 -568h-258l453 613h-350zM422 0h-281l1159 1556h279zM1630 465h-10q-61 -49 -160 -64q78 -15 127 -61t49 -109q0 -71 -45 -125q-44 -53 -131 -88q-79 -32 -198 -32q-94 0 -164 24t-111 74q-39 48 -39 115q0 86 68 139t178 68
q-75 29 -109 63q-36 36 -36 98q0 59 43 111t120 82q79 31 179 31q89 0 159 -25q66 -23 105 -72q37 -46 37 -104q0 -75 -62 -125zM1442 498l6 -2q31 25 31 65q0 33 -27 51q-28 19 -74 19q-58 0 -92 -27q-33 -26 -33 -63q0 -30 25 -49t72 -19q61 0 92 25zM1384 170l-4 -2
q43 30 43 74q0 34 -30 55q-29 20 -78 20q-69 0 -111 -26q-43 -27 -43 -70q0 -39 31 -61q30 -21 84 -21q63 0 108 31z" />
    <glyph glyph-name="uni215F" unicode="&#x215f;" horiz-adv-x="1384" 
d="M516 1556h172l-166 -778h-213l107 500h-170l35 166h24q81 0 127 22q44 21 74 74zM389 0h-280l1159 1556h278z" />
    <glyph glyph-name="uni2189" unicode="&#x2189;" horiz-adv-x="1863" 
d="M258 840h-4q-76 76 -76 217q0 137 45 250q46 115 142 190q95 74 237 74q133 0 209 -76q78 -78 78 -217q0 -137 -45 -250q-46 -115 -142 -190q-95 -74 -235 -74q-133 0 -209 76zM588 983h-2q44 63 65 147q23 94 23 156t-25 98q-23 33 -69 33q-62 0 -105 -61
q-41 -58 -63 -148q-21 -86 -21 -155q0 -63 25 -99q22 -32 67 -32q62 0 105 61zM543 0h-281l1159 1556h279zM1708 467l-10 -14q-69 -47 -166 -62q77 -15 129 -61q53 -47 53 -111q0 -66 -37 -121q-37 -56 -114 -90q-73 -33 -191 -33q-138 0 -221 68q-82 67 -88 186h213
q6 -94 110 -94q50 0 87 29q32 25 32 72q0 40 -37 61q-36 20 -98 20h-57l35 162h61q69 0 111 25q41 24 41 61q0 28 -25 47t-66 19q-40 0 -71 -25q-33 -26 -41 -61h-211q12 73 59 129t117 86q73 31 160 31q81 0 151 -25q66 -23 105 -72q37 -46 37 -104q0 -76 -68 -123z" />
    <glyph glyph-name="arrowleft" unicode="&#x2190;" horiz-adv-x="1576" 
d="M590 918h954v-279h-952l405 -436h-360l-471 575l471 578h360z" />
    <glyph glyph-name="arrowup" unicode="&#x2191;" horiz-adv-x="1576" 
d="M836 1468l577 -471v-360l-436 405v-952h-281v952l-436 -405v360z" />
    <glyph glyph-name="arrowright" unicode="&#x2192;" horiz-adv-x="1576" 
d="M676 1356h358l471 -578l-471 -575h-358l403 436h-952v279h954z" />
    <glyph glyph-name="arrowdown" unicode="&#x2193;" horiz-adv-x="1576" 
d="M977 1468v-954l436 406v-359l-577 -473l-576 473v359l436 -406v954h281z" />
    <glyph glyph-name="uni2196" unicode="&#x2196;" horiz-adv-x="1576" 
d="M758 1059l710 -711l-192 -194l-713 710v-626l-254 243v832h834l243 -254h-628z" />
    <glyph glyph-name="uni2197" unicode="&#x2197;" horiz-adv-x="1576" 
d="M268 1059l242 254h833v-832l-253 -243v626l-713 -710l-193 194l711 711h-627z" />
    <glyph glyph-name="uni2198" unicode="&#x2198;" horiz-adv-x="1576" 
d="M1108 694v625l254 -244v-831h-832l-243 254h626l-710 710l194 195z" />
    <glyph glyph-name="uni2199" unicode="&#x2199;" horiz-adv-x="1576" 
d="M1294 1403l195 -195l-711 -710h627l-244 -254h-831v831l254 244v-627z" />
    <glyph glyph-name="uni21A4" unicode="&#x21a4;" horiz-adv-x="1576" 
d="M1210 918v438h279v-1155h-279v438h-714l407 -438h-360l-471 577l471 578h360l-407 -438h714z" />
    <glyph glyph-name="uni21A5" unicode="&#x21a5;" horiz-adv-x="1576" 
d="M1427 1110v-358l-436 405v-762h436v-280h-1153v280h439v764l-439 -407v358l576 473z" />
    <glyph glyph-name="uni21A6" unicode="&#x21a6;" horiz-adv-x="1576" 
d="M770 1356h358l474 -578l-474 -577h-358l408 438h-715v-438h-281v1155h281v-438h715z" />
    <glyph glyph-name="uni21A7" unicode="&#x21a7;" horiz-adv-x="1576" 
d="M1399 1442v-281h-436v-762l436 406v-359l-578 -473l-577 473v359l438 -406v762h-438v281h1155z" />
    <glyph glyph-name="uni21B0" unicode="&#x21b0;" horiz-adv-x="1576" 
d="M467 918h975v-918h-279v639h-696l407 -438h-360l-471 577l471 578h360z" />
    <glyph glyph-name="uni21B1" unicode="&#x21b1;" horiz-adv-x="1576" 
d="M756 1356h358l471 -578l-471 -577h-358l405 438h-696v-639h-277v918h973z" />
    <glyph glyph-name="uni21B2" unicode="&#x21b2;" horiz-adv-x="1576" 
d="M1206 918v638h279v-917h-975l408 -438h-359l-473 577l473 578h359l-408 -438h696z" />
    <glyph glyph-name="uni21B3" unicode="&#x21b3;" horiz-adv-x="1576" 
d="M797 1356h358l473 -578l-473 -577h-358l407 438h-975v917h279v-638h696z" />
    <glyph glyph-name="partialdiff" unicode="&#x2202;" horiz-adv-x="1292" 
d="M307 1579l4 -8q306 -35 506 -156q203 -123 301 -315q99 -194 99 -443q0 -334 -146 -512q-143 -174 -434 -174q-150 0 -277 62q-126 61 -202 178q-76 116 -76 281q0 161 65 276q64 114 177 170q110 55 249 55q154 0 252 -73q97 -72 148 -183q-9 161 -82 289
q-74 129 -221 215q-152 88 -363 109v229zM772 219l2 -10q57 41 86 110q31 73 31 166q0 87 -31 154q-29 63 -86 98q-56 35 -129 35t-129 -35q-57 -35 -86 -98q-31 -67 -31 -154q0 -88 31 -161q29 -69 86 -107q55 -37 129 -37t127 39z" />
    <glyph glyph-name="product" unicode="&#x220f;" horiz-adv-x="2066" 
d="M2071 1556v-270h-285v-1562h-322v1562h-606v-1562h-323v1562h-285v270h1821z" />
    <glyph glyph-name="summation" unicode="&#x2211;" horiz-adv-x="1722" 
d="M1276 662l-653 -668h882v-270h-1245v350l576 583l-576 549v350h1235v-270h-872z" />
    <glyph glyph-name="minus" unicode="&#x2212;" horiz-adv-x="1198" 
d="M1098 442h-996v236h996v-236z" />
    <glyph glyph-name="radical" unicode="&#x221a;" horiz-adv-x="1355" 
d="M698 -51l432 1607h326l-495 -1832h-517l-206 671h-236v271h485z" />
    <glyph glyph-name="infinity" unicode="&#x221e;" horiz-adv-x="2353" 
d="M1970 1022l-4 -2q122 -67 197 -189q73 -119 73 -270t-73 -270q-75 -122 -197 -189t-266 -67q-165 0 -295 80q-128 79 -231 221q-216 -303 -527 -303q-146 0 -268 67t-197 189q-73 119 -73 270t73 270q75 122 197 189t268 67q171 0 295 -81q127 -83 232 -224
q105 146 231 226q131 84 297 84q144 0 268 -68zM981 504l37 49l-37 55q-70 101 -150 166q-79 64 -174 64q-78 0 -137 -33q-61 -34 -98 -98t-37 -150q0 -85 37 -149q38 -65 98 -99q62 -35 137 -35q169 0 324 230zM1821 305l-2 -2q62 35 96 98q35 65 35 152t-35 152t-94 98
q-62 35 -138 35q-95 0 -174 -64q-78 -63 -149 -166l-39 -55l37 -53q155 -230 325 -230q76 0 138 35z" />
    <glyph glyph-name="integral" unicode="&#x222b;" horiz-adv-x="751" 
d="M-61 -401l2 227h104q94 0 137 43t43 145v1145q0 211 111 303q112 92 336 92h147v-229h-106q-95 0 -135 -43q-41 -44 -41 -145v-1145q0 -210 -113 -301q-115 -92 -338 -92h-147z" />
    <glyph glyph-name="approxequal" unicode="&#x2248;" horiz-adv-x="1452" 
d="M125 754h-8q71 105 164 166q89 59 190 59q59 0 111 -12t139 -47q80 -36 129 -50t104 -14q63 0 117 31q50 28 111 96l145 -152q-69 -105 -162 -165q-94 -60 -190 -60q-61 0 -113 12q-45 10 -135 48q-95 37 -129 47q-56 16 -104 16q-67 0 -117 -33q-56 -37 -105 -94z
M117 295h-8q72 106 163 166q89 59 191 59q57 0 110 -12q54 -12 140 -47q73 -33 129 -49q52 -15 104 -15q63 0 117 31q50 28 111 96l145 -151q-70 -107 -162 -166q-94 -60 -190 -60q-56 0 -113 13q-50 11 -135 47q-95 37 -129 47q-56 16 -105 16q-67 0 -116 -32
q-54 -36 -105 -95z" />
    <glyph glyph-name="notequal" unicode="&#x2260;" horiz-adv-x="1388" 
d="M1223 903v-237h-318l-117 -205h435v-238h-570l-127 -223h-295l127 223h-190v238h326l116 205h-442v237h577l119 209h295l-119 -209h183z" />
    <glyph glyph-name="lessequal" unicode="&#x2264;" horiz-adv-x="1320" 
d="M154 893l987 221v-227l-834 -174l834 -176v-226l-987 221v361zM1141 0h-987v229h987v-229z" />
    <glyph glyph-name="greaterequal" unicode="&#x2265;" horiz-adv-x="1355" 
d="M180 887v227l987 -221v-361l-987 -221v226l836 176zM1167 0h-987v229h987v-229z" />
    <glyph glyph-name="uni2300" unicode="&#x2300;" horiz-adv-x="1335" 
d="M1278 1020l-133 -135q48 -68 76 -154q26 -79 26 -172q0 -153 -78 -291q-77 -136 -211 -215q-136 -80 -290 -80q-92 0 -174 27q-86 28 -154 76l-133 -133l-150 149l131 133q-46 65 -75 158q-27 85 -27 176q0 154 78 289q76 131 213 209q138 78 293 78q86 0 172 -25
q81 -24 153 -74l131 131zM365 399l450 453q-67 37 -151 37q-91 0 -168 -45q-78 -46 -125 -123q-45 -74 -45 -166q0 -85 39 -156zM967 705l-457 -457q67 -37 152 -37q89 0 169 47q78 46 125 123q48 79 48 170q0 79 -37 154z" />
    <glyph glyph-name="uni2460" unicode="&#x2460;" horiz-adv-x="1912" 
d="M1434 1522q196 -114 311 -312t115 -430t-115 -430q-114 -197 -311 -311q-198 -115 -430 -115q-233 0 -431 115q-197 114 -311 311q-115 198 -115 430t115 430t311 312q197 114 431 114t430 -114zM1350 180l-2 -4q158 91 251 252q93 162 93 348t-93 348q-93 161 -251 252
q-160 92 -347 92t-344 -92t-249 -252q-93 -162 -93 -346t93 -346q92 -160 249 -252t344 -92q189 0 349 92zM940 1241l199 -2v-934h-244v604h-201v193h29q90 0 141 31q52 31 72 94z" />
    <glyph glyph-name="uni2461" unicode="&#x2461;" horiz-adv-x="1912" 
d="M1434 1522q196 -114 311 -312t115 -430t-115 -430q-114 -197 -311 -311q-198 -115 -430 -115q-233 0 -431 115q-197 114 -311 311q-115 198 -115 430t115 430t311 312q197 114 431 114t430 -114zM1350 180l-2 -4q158 91 251 252q93 162 93 348t-93 348q-93 161 -251 252
q-160 92 -347 92t-344 -92t-249 -252q-93 -162 -93 -346t93 -346q92 -160 249 -252t344 -92q189 0 349 92zM903 502l483 -6v-195h-761v246l417 307q43 32 60 57q18 27 18 62q0 43 -33 69q-35 27 -88 27q-48 0 -88 -29q-36 -26 -39 -79h-247q3 87 53 155q49 67 133 105
q79 36 188 36q112 0 191 -36q82 -37 129 -99t47 -143q0 -82 -43 -143t-131 -125z" />
    <glyph glyph-name="uni2462" unicode="&#x2462;" horiz-adv-x="1912" 
d="M1434 1522q196 -114 311 -312t115 -430t-115 -430q-114 -197 -311 -311q-198 -115 -430 -115q-233 0 -431 115q-197 114 -311 311q-115 198 -115 430t115 430t311 312q197 114 431 114t430 -114zM1350 180l-2 -4q158 91 251 252q93 162 93 348t-93 348q-93 161 -251 252
q-160 92 -347 92t-344 -92t-249 -252q-93 -162 -93 -346t93 -346q92 -160 249 -252t344 -92q189 0 349 92zM1245 760l4 -6q58 -24 99 -74q38 -46 38 -121q0 -88 -49 -149q-52 -64 -137 -93q-88 -30 -209 -30q-178 0 -278 80q-98 79 -107 219h248q3 -56 37 -86q36 -31 98 -31
q54 0 101 29q43 27 43 80q0 110 -189 110h-61v193h61q86 0 125 26t39 70q0 42 -33 65q-36 25 -86 25q-56 0 -86 -27t-33 -69h-249q6 83 55 147t131 101q79 36 184 36q103 0 185 -30q83 -30 133 -86q49 -55 49 -127q0 -103 -64 -152q-62 -48 -172 -69q61 -6 123 -31z" />
    <glyph glyph-name="uni2463" unicode="&#x2463;" horiz-adv-x="1912" 
d="M1434 1522q196 -114 311 -312t115 -430t-115 -430q-114 -197 -311 -311q-198 -115 -430 -115q-233 0 -431 115q-197 114 -311 311q-115 198 -115 430t115 430t311 312q197 114 431 114t430 -114zM1350 180l-2 -4q158 91 251 252q93 162 93 348t-93 348q-93 161 -251 252
q-160 92 -347 92t-344 -92t-249 -252q-93 -162 -93 -346t93 -346q92 -160 249 -252t344 -92q189 0 349 92zM1253 1241v-516h127v-195h-127v-223h-241v223h-455v244l258 467h438zM1012 1176l-250 -451h250v451z" />
    <glyph glyph-name="uni2464" unicode="&#x2464;" horiz-adv-x="1912" 
d="M1434 1522q196 -114 311 -312t115 -430t-115 -430q-114 -197 -311 -311q-198 -115 -430 -115q-233 0 -431 115q-197 114 -311 311q-115 198 -115 430t115 430t311 312q197 114 431 114t430 -114zM1350 180l-2 -4q158 91 251 252q93 162 93 348t-93 348q-93 161 -251 252
q-160 92 -347 92t-344 -92t-249 -252q-93 -162 -93 -346t93 -346q92 -160 249 -252t344 -92q189 0 349 92zM1241 907v-2q70 -39 109 -110q41 -74 41 -179q0 -106 -50 -180q-49 -73 -137 -110q-87 -37 -198 -37q-109 0 -193 37q-85 37 -137 104q-53 68 -62 162h250
q3 -51 41 -86q36 -33 99 -33q59 0 98 39t39 106q0 69 -39 105q-40 37 -98 37q-45 0 -86 -23q-40 -22 -54 -61l-239 20l45 543h657v-195h-434l-21 -245q21 58 80 102q58 43 142 43q80 0 147 -37z" />
    <glyph glyph-name="uni2465" unicode="&#x2465;" horiz-adv-x="1912" 
d="M1434 1522q196 -114 311 -312t115 -430t-115 -430q-114 -197 -311 -311q-198 -115 -430 -115q-233 0 -431 115q-197 114 -311 311q-115 198 -115 430t115 430t311 312q197 114 431 114t430 -114zM1350 180l-2 -4q158 91 251 252q93 162 93 348t-93 348q-93 161 -251 252
q-160 92 -347 92t-344 -92t-249 -252q-93 -162 -93 -346t93 -346q92 -160 249 -252t344 -92q189 0 349 92zM1239 893h-2q76 -42 115 -113q41 -74 41 -168q0 -92 -50 -166q-49 -74 -141 -114q-93 -41 -209 -41q-123 0 -215 53q-90 52 -143 160q-51 105 -51 270q0 159 53 268
q52 107 145 160q92 53 213 53q109 0 187 -34q81 -35 129 -95q48 -59 63 -137h-248q-12 40 -43 62t-79 22q-92 0 -136 -84q-42 -80 -39 -215q21 64 86 111t154 47q99 0 170 -39zM1100 512l4 -2q43 37 43 98q0 63 -41 101q-39 36 -111 36q-70 0 -112 -36q-43 -37 -43 -97
q0 -57 41 -98q39 -39 110 -39q66 0 109 37z" />
    <glyph glyph-name="uni2466" unicode="&#x2466;" horiz-adv-x="1912" 
d="M1434 1522q196 -114 311 -312t115 -430t-115 -430q-114 -197 -311 -311q-198 -115 -430 -115q-233 0 -431 115q-197 114 -311 311q-115 198 -115 430t115 430t311 312q197 114 431 114t430 -114zM1350 180l-2 -4q158 91 251 252q93 162 93 348t-93 348q-93 161 -251 252
q-160 92 -347 92t-344 -92t-249 -252q-93 -162 -93 -346t93 -346q92 -160 249 -252t344 -92q189 0 349 92zM1094 1047h-430v194h671v-246l-348 -688h-295z" />
    <glyph glyph-name="uni2467" unicode="&#x2467;" horiz-adv-x="1912" 
d="M1434 1522q196 -114 311 -312t115 -430t-115 -430q-114 -197 -311 -311q-198 -115 -430 -115q-233 0 -431 115q-197 114 -311 311q-115 198 -115 430t115 430t311 312q197 114 431 114t430 -114zM1350 180l-2 -4q158 91 251 252q93 162 93 348t-93 348q-93 161 -251 252
q-160 92 -347 92t-344 -92t-249 -252q-93 -162 -93 -346t93 -346q92 -160 249 -252t344 -92q189 0 349 92zM1337 721h-6q72 -57 72 -156q0 -84 -49 -145t-142 -96q-88 -33 -215 -33q-122 0 -215 35q-92 34 -141 96q-49 61 -49 145q0 99 72 156q73 57 172 72q-104 24 -160 75
q-58 52 -58 142q0 73 50 129t135 86t196 30q113 0 199 -30t133 -86t47 -129q0 -91 -57 -142t-156 -75q101 -18 172 -74zM895 1042l4 -2q-37 -27 -37 -67q0 -41 35 -68q33 -26 98 -26q63 0 99 28q34 27 34 68q0 40 -34 67q-37 29 -99 29q-60 0 -100 -29zM1112 502l-2 -4
q47 30 47 84q0 53 -45 82q-46 30 -117 30q-67 0 -112 -28q-43 -27 -43 -80q0 -55 45 -84q48 -31 112 -31q67 0 115 31z" />
    <glyph glyph-name="uni2468" unicode="&#x2468;" horiz-adv-x="1912" 
d="M1434 1522q196 -114 311 -312t115 -430t-115 -430q-114 -197 -311 -311q-198 -115 -430 -115q-233 0 -431 115q-197 114 -311 311q-115 198 -115 430t115 430t311 312q197 114 431 114t430 -114zM1350 180l-2 -4q158 91 251 252q93 162 93 348t-93 348q-93 161 -251 252
q-160 92 -347 92t-344 -92t-249 -252q-93 -162 -93 -346t93 -346q92 -160 249 -252t344 -92q189 0 349 92zM1221 1204l2 -10q93 -53 145 -160q51 -105 51 -270q0 -159 -53 -268q-52 -107 -145 -160q-92 -53 -213 -53q-109 0 -187 34t-129 97q-47 59 -63 139h250
q12 -39 43 -61q33 -23 79 -23q90 0 134 84q44 83 41 215q-21 -64 -86 -111q-62 -45 -154 -45q-99 0 -170 39q-76 42 -115 113q-41 74 -41 170q0 93 49 166q49 72 140 114q90 41 207 41q126 0 215 -51zM1120 825q43 37 43 97q0 58 -43 98q-44 41 -112 41q-66 0 -109 -37
t-43 -98q0 -63 41 -101q40 -37 111 -37q69 0 112 37z" />
    <glyph glyph-name="uni24EA" unicode="&#x24ea;" horiz-adv-x="1912" 
d="M571 35q-197 114 -311 311q-115 198 -115 430t115 430t311 312q197 114 430 114q235 0 431 -114t311 -312t115 -430t-115 -430q-114 -197 -311 -311q-198 -115 -431 -115q-232 0 -430 115zM1350 180l-2 -4q158 91 251 252q93 162 93 348t-93 348q-93 161 -251 252
q-160 92 -347 92t-344 -92t-249 -252q-93 -162 -93 -346t93 -346q92 -160 249 -252t344 -92q189 0 349 92zM700 414v-4q-104 122 -104 360t104 360q105 123 299 123t299 -123t105 -358t-105 -358t-299 -123t-299 123zM1116 543q37 73 37 225t-37 225q-38 74 -117 74
q-78 0 -116 -74q-37 -73 -37 -225t37 -225q38 -74 116 -74q79 0 117 74z" />
    <glyph glyph-name="uni24FF" unicode="&#x24ff;" horiz-adv-x="1912" 
d="M571 35q-197 114 -311 311q-115 198 -115 430t115 430t311 312q197 114 430 114q235 0 431 -114t311 -312t115 -430t-115 -430q-114 -197 -311 -311q-198 -115 -431 -115q-232 0 -430 115zM1303 418v-4q104 122 104 360q0 239 -104 361t-299 122t-299 -122
q-105 -123 -105 -359q0 -235 105 -358t299 -123t299 123zM885 547q-37 73 -37 225t37 225q38 74 116 74q79 0 117 -74q37 -73 37 -225t-37 -225q-38 -74 -117 -74q-78 0 -116 74z" />
    <glyph glyph-name="filledbox" unicode="&#x25a0;" horiz-adv-x="1486" 
d="M1298 0h-1112v1112h1112v-1112z" />
    <glyph glyph-name="uni25A1" unicode="&#x25a1;" horiz-adv-x="1486" 
d="M1298 0h-1112v1112h1112v-1112zM432 866v-620h621v620h-621z" />
    <glyph glyph-name="lozenge" unicode="&#x25ca;" horiz-adv-x="1441" 
d="M571 1556h394l434 -778l-434 -778h-394l-432 778zM424 778l346 -614l344 614l-344 615z" />
    <glyph glyph-name="circle" unicode="&#x25cb;" horiz-adv-x="1415" 
d="M408 43l-2 -2q-137 81 -216 215t-79 299q0 163 79 297t216 215q136 80 299 80q162 0 301 -80q137 -79 217 -215t80 -297t-80 -297t-217 -215q-139 -80 -301 -80q-161 0 -297 80zM872 262l-2 -2q76 46 123 123t47 170q0 96 -45 170q-47 77 -123 123q-74 45 -170 45
t-170 -45q-75 -46 -122 -123q-45 -74 -45 -168q0 -96 45 -170q47 -77 122 -123q74 -45 170 -45t170 45z" />
    <glyph glyph-name="uni25CF" unicode="&#x25cf;" horiz-adv-x="1415" 
d="M408 43l-2 -2q-137 81 -216 215t-79 299q0 163 79 297t216 215q136 80 299 80q162 0 301 -80q137 -79 217 -215t80 -297t-80 -297t-217 -215q-139 -80 -301 -80q-161 0 -297 80z" />
    <glyph glyph-name="uni2776" unicode="&#x2776;" horiz-adv-x="1912" 
d="M571 35q-197 114 -311 311q-115 198 -115 430t115 430t311 312q197 114 430 114q235 0 431 -114t311 -312t115 -430t-115 -430q-114 -197 -311 -311q-198 -115 -431 -115q-232 0 -430 115zM899 311l244 2v934h-201l-4 -14q-21 -64 -70 -94q-51 -31 -141 -31h-29v-193h201
v-604z" />
    <glyph glyph-name="uni2777" unicode="&#x2777;" horiz-adv-x="1912" 
d="M571 35q-197 114 -311 311q-115 198 -115 430t115 430t311 312q197 114 430 114q235 0 431 -114t311 -312t115 -430t-115 -430q-114 -197 -311 -311q-198 -115 -431 -115q-232 0 -430 115zM623 311l753 4v195h-481l291 209q88 64 131 125t43 143q0 86 -45 146t-129 98
q-81 37 -191 37q-107 0 -188 -37q-84 -38 -133 -105q-50 -68 -53 -155h247q3 54 39 80q39 28 90 28q55 0 88 -26t33 -70q0 -34 -18 -61t-60 -58l-417 -307v-246z" />
    <glyph glyph-name="uni2778" unicode="&#x2778;" horiz-adv-x="1912" 
d="M571 35q-197 114 -311 311q-115 198 -115 430t115 430t311 312q197 114 430 114q235 0 431 -114t311 -312t115 -430t-115 -430q-114 -197 -311 -311q-198 -115 -431 -115q-232 0 -430 115zM1200 326h-6q87 29 137 92q49 61 49 149q0 106 -75 160q-79 57 -185 66
q110 18 172 69q64 52 64 154q0 72 -49 127q-50 56 -133 86q-85 31 -185 31q-103 0 -184 -37q-82 -37 -131 -101q-50 -65 -56 -147h250q3 45 33 72q31 28 86 28q51 0 86 -24q33 -23 33 -66q0 -44 -39 -70t-125 -26h-61v-193h61q188 0 188 -110q0 -53 -43 -80
q-47 -29 -100 -29q-62 0 -98 31q-34 30 -37 86h-248q9 -139 109 -219t278 -80q118 0 209 31z" />
    <glyph glyph-name="uni2779" unicode="&#x2779;" horiz-adv-x="1912" 
d="M571 35q-197 114 -311 311q-115 198 -115 430t115 430t311 312q197 114 430 114q235 0 431 -114t311 -312t115 -430t-115 -430q-114 -197 -311 -311q-198 -115 -431 -115q-232 0 -430 115zM559 778v-243h455v-224h241v224h127v194h-127v516h-440zM1014 729h-250l250 442
v-442z" />
    <glyph glyph-name="uni277A" unicode="&#x277a;" horiz-adv-x="1912" 
d="M571 35q-197 114 -311 311q-115 198 -115 430t115 430t311 312q197 114 430 114q235 0 431 -114t311 -312t115 -430t-115 -430q-114 -197 -311 -311q-198 -115 -431 -115q-232 0 -430 115zM1202 332l-6 2q91 38 139 110q49 73 49 183q0 109 -38 178q-40 73 -107 110
t-147 37q-82 0 -140 -43q-62 -46 -84 -100l23 242h432v194h-657l-45 -543l239 -20q15 40 53 61q41 23 86 23q59 0 99 -37q41 -38 41 -104q0 -68 -39 -107t-99 -39q-62 0 -98 33q-38 35 -41 86h-250q9 -94 62 -162q52 -67 137 -104q84 -37 193 -37q111 0 198 37z" />
    <glyph glyph-name="uni277B" unicode="&#x277b;" horiz-adv-x="1912" 
d="M571 35q-197 114 -311 311q-115 198 -115 430t115 430t311 312q197 114 430 114q235 0 431 -114t311 -312t115 -430t-115 -430q-114 -197 -311 -311q-198 -115 -431 -115q-232 0 -430 115zM1206 336l-2 -8q93 41 142 114t49 166q0 96 -41 170q-39 71 -115 113
q-71 39 -170 39q-92 0 -154 -45q-65 -47 -86 -111q-3 135 39 215q44 84 136 84q48 0 79 -22t43 -62h248q-16 80 -63 139q-51 63 -129 97q-81 35 -187 35q-119 0 -213 -54t-145 -159q-53 -109 -53 -271q0 -161 53 -270q52 -107 145 -160q89 -51 215 -51q116 0 209 41z
M881 510h-4q-41 41 -41 98q0 60 43 97q42 36 112 36q72 0 111 -36q41 -38 41 -101q0 -61 -43 -98t-109 -37q-69 0 -110 41z" />
    <glyph glyph-name="uni277C" unicode="&#x277c;" horiz-adv-x="1912" 
d="M571 35q-197 114 -311 311q-115 198 -115 430t115 430t311 312q197 114 430 114q235 0 431 -114t311 -312t115 -430t-115 -430q-114 -197 -311 -311q-198 -115 -431 -115q-232 0 -430 115zM1096 1051l-402 -740h295l348 688v246h-671v-194h430z" />
    <glyph glyph-name="uni277D" unicode="&#x277d;" horiz-adv-x="1912" 
d="M571 35q-197 114 -311 311q-115 198 -115 430t115 430t311 312q197 114 430 114q235 0 431 -114t311 -312t115 -430t-115 -430q-114 -197 -311 -311q-198 -115 -431 -115q-232 0 -430 115zM1217 328l2 -2q91 34 141 96q49 61 49 145q0 101 -70 156q-72 56 -174 74
q102 25 158 75q59 53 59 142q0 73 -47 129t-133 86q-88 31 -198 31q-109 0 -197 -31q-85 -30 -135 -86q-49 -55 -49 -129q0 -89 59 -142q56 -50 158 -75q-102 -18 -174 -74q-70 -55 -70 -156q0 -84 49 -145q49 -62 141 -96q88 -33 215 -33q123 0 216 35zM903 907l-4 -2
q-35 27 -35 68q0 40 37 67q40 29 100 29q62 0 99 -29q35 -27 35 -67q0 -41 -35 -68q-33 -26 -99 -26q-62 0 -98 28zM887 504l-4 4q-45 29 -45 84q0 53 43 80q45 28 114 28q71 0 117 -30q45 -29 45 -82q0 -55 -45 -84q-48 -31 -113 -31q-64 0 -112 31z" />
    <glyph glyph-name="uni277E" unicode="&#x277e;" horiz-adv-x="1912" 
d="M571 35q-197 114 -311 311q-115 198 -115 430t115 430t311 312q197 114 430 114q235 0 431 -114t311 -312t115 -430t-115 -430q-114 -197 -311 -311q-198 -115 -431 -115q-232 0 -430 115zM799 1221h-6q-90 -41 -140 -115q-49 -73 -49 -166q0 -94 41 -168
q39 -71 115 -113q69 -38 170 -38q88 0 153 47q66 47 86 110q3 -135 -39 -215q-44 -84 -135 -84q-47 0 -80 23q-31 22 -43 61h-249q15 -74 65 -137q47 -58 129 -94q81 -35 187 -35q121 0 213 53q93 53 145 160q53 109 53 268q0 166 -51 271q-52 107 -143 159q-94 54 -215 54
q-117 0 -207 -41zM1114 1036l-2 -2q43 -40 43 -98q0 -59 -43 -96t-113 -37t-110 37q-41 38 -41 100q0 61 43 98t108 37q73 0 115 -39z" />
    <glyph glyph-name="uniF8FF" unicode="&#xf8ff;" horiz-adv-x="1740" 
d="M1262 848h460v-139h-460l424 -177l-52 -124l-428 178l328 -330l-94 -94l-334 334l180 -437l-125 -49l-174 422v-457h-137v465l-178 -432l-125 53l178 433l-332 -332l-92 94l330 330l-432 -178l-49 124l423 177h-458v139h458l-423 176l51 125l434 -180l-334 334l96 94
l326 -328l-176 428l127 49l176 -428v463h137v-455l174 420l125 -51l-176 -428l328 330l96 -97l-332 -331l432 180l52 -125z" />
    <glyph glyph-name="uniFEFF" unicode="&#xfeff;" horiz-adv-x="0" 
 />
    <glyph glyph-name="NULL" horiz-adv-x="0" 
 />
    <glyph glyph-name="uni004A0301" horiz-adv-x="841" 
d="M-76 0l56 268h159q87 0 129 33q45 36 60 111l243 1142h328l-254 -1206q-38 -178 -153 -262q-118 -86 -334 -86h-234zM936 1671h-328l312 297h458z" />
    <glyph glyph-name="G.ss03" horiz-adv-x="1695" 
d="M813 623l49 243h811l-37 -180q-49 -230 -166 -393q-117 -164 -292 -246q-179 -84 -404 -84q-193 0 -344 74q-150 73 -235 217q-86 145 -86 346q0 244 110 467q111 225 320 363q210 139 489 139q190 0 332 -62q143 -62 225 -176q86 -118 109 -270h-344q-53 256 -344 256
q-170 0 -295 -98q-126 -99 -193 -261t-67 -350q0 -123 47 -209q46 -85 129 -129q82 -43 200 -43q119 0 213 49q96 50 160 138q67 91 96 209h-483z" />
    <glyph glyph-name="Gbreve.ss03" horiz-adv-x="1695" 
d="M813 623l49 243h811l-37 -180q-49 -230 -166 -393q-117 -164 -292 -246q-179 -84 -404 -84q-193 0 -344 74q-150 73 -235 217q-86 145 -86 346q0 244 110 467q111 225 320 363q210 139 489 139q190 0 332 -62q143 -62 225 -176q86 -118 109 -270h-344q-53 256 -344 256
q-170 0 -295 -98q-126 -99 -193 -261t-67 -350q0 -123 47 -209q46 -85 129 -129q82 -43 200 -43q119 0 213 49q96 50 160 138q67 91 96 209h-483zM864 1683l8 -2q-74 29 -122 86q-45 54 -45 131q0 29 6 56h225q-2 -6 -2 -25q0 -47 37 -74q39 -28 98 -28q70 0 123 35
q52 34 61 90h226q-21 -90 -80 -158q-57 -66 -150 -104q-90 -37 -209 -37q-100 0 -176 30z" />
    <glyph glyph-name="Gcaron.ss03" horiz-adv-x="1695" 
d="M813 623l49 243h811l-37 -180q-49 -230 -166 -393q-117 -164 -292 -246q-179 -84 -404 -84q-193 0 -344 74q-150 73 -235 217q-86 145 -86 346q0 244 110 467q111 225 320 363q210 139 489 139q190 0 332 -62q143 -62 225 -176q86 -118 109 -270h-344q-53 256 -344 256
q-170 0 -295 -98q-126 -99 -193 -261t-67 -350q0 -123 47 -209q46 -85 129 -129q82 -43 200 -43q119 0 213 49q96 50 160 138q67 91 96 209h-483zM1057 1792l205 164h297l-316 -297h-412l-200 297h272z" />
    <glyph glyph-name="Gcircumflex.ss03" horiz-adv-x="1695" 
d="M813 623l49 243h811l-37 -180q-49 -230 -166 -393q-117 -164 -292 -246q-179 -84 -404 -84q-193 0 -344 74q-150 73 -235 217q-86 145 -86 346q0 244 110 467q111 225 320 363q210 139 489 139q190 0 332 -62q143 -62 225 -176q86 -118 109 -270h-344q-53 256 -344 256
q-170 0 -295 -98q-126 -99 -193 -261t-67 -350q0 -123 47 -209q46 -85 129 -129q82 -43 200 -43q119 0 213 49q96 50 160 138q67 91 96 209h-483zM1307 1956l200 -297h-272l-156 164l-202 -164h-297l315 297h412z" />
    <glyph glyph-name="uni0122.ss03" horiz-adv-x="1695" 
d="M813 623l49 243h811l-37 -180q-49 -230 -166 -393q-117 -164 -292 -246q-179 -84 -404 -84q-193 0 -344 74q-150 73 -235 217q-86 145 -86 346q0 244 110 467q111 225 320 363q210 139 489 139q190 0 332 -62q143 -62 225 -176q86 -118 109 -270h-344q-53 256 -344 256
q-170 0 -295 -98q-126 -99 -193 -261t-67 -350q0 -123 47 -209q46 -85 129 -129q82 -43 200 -43q119 0 213 49q96 50 160 138q67 91 96 209h-483zM539 -428l63 295h340l-70 -322l-178 -192h-207l160 219h-108z" />
    <glyph glyph-name="Gdotaccent.ss03" horiz-adv-x="1695" 
d="M813 623l49 243h811l-37 -180q-49 -230 -166 -393q-117 -164 -292 -246q-179 -84 -404 -84q-193 0 -344 74q-150 73 -235 217q-86 145 -86 346q0 244 110 467q111 225 320 363q210 139 489 139q190 0 332 -62q143 -62 225 -176q86 -118 109 -270h-344q-53 256 -344 256
q-170 0 -295 -98q-126 -99 -193 -261t-67 -350q0 -123 47 -209q46 -85 129 -129q82 -43 200 -43q119 0 213 49q96 50 160 138q67 91 96 209h-483zM1208 1659h-340l64 297h340z" />
    <glyph glyph-name="Adieresis.titl" horiz-adv-x="1622" 
d="M1507 0h-333l-44 420h-677l-224 -420h-352l848 1556h598zM1020 1491l-424 -801h506zM494 1262h-297l63 294h297zM1731 1262h-297l63 294h297z" />
    <glyph glyph-name="Odieresis.titl" horiz-adv-x="1726" 
d="M1960 1556l-68 -296h-262q72 -135 72 -320q0 -245 -111 -465q-112 -223 -319 -360q-212 -140 -490 -140q-192 0 -346 74q-152 73 -239 219q-86 145 -86 348q0 174 59 345q58 168 170 301h-274l61 294h297l-53 -260q125 134 288 209q165 76 373 76q193 0 342 -70
q155 -73 238 -204l51 249h297zM1100 328v-2q127 100 194 262q68 165 68 356q0 124 -45 207q-47 85 -129 129q-82 43 -191 43q-170 0 -295 -98q-127 -100 -194 -262q-68 -165 -68 -357q0 -122 45 -205q47 -85 129 -129q82 -43 191 -43q169 0 295 99z" />
    <glyph glyph-name="Udieresis.titl" horiz-adv-x="1599" 
d="M401 33l-4 -6q-132 60 -194 161q-66 107 -66 244q0 85 23 203l194 917h330l-207 -974q-12 -58 -12 -117q0 -116 67 -174t197 -58q162 0 264 99t142 282l200 946h330l-201 -940q-64 -309 -239 -475t-508 -166q-188 0 -316 58zM1114 1255h-328l62 295h330zM1030 854h-330
l64 297h328z" />
    <glyph glyph-name="I_J.loclNLD" horiz-adv-x="1306" 
d="M45 0l55 268h504q89 0 131 33q45 36 60 111l241 1142h330l-256 -1206q-38 -177 -154 -262q-118 -86 -333 -86h-578zM481 512h-329l221 1042h329z" />
    <glyph glyph-name="A.inferior" horiz-adv-x="868" 
d="M692 -233h-215l-12 190h-303l-94 -190h-228l398 778h389zM428 494l-182 -369h207z" />
    <glyph glyph-name="B.inferior" horiz-adv-x="815" 
d="M602 109l-4 4q53 -44 53 -117q0 -107 -94 -168t-272 -61h-369l166 778h350q132 0 195 -51q65 -53 65 -142q0 -83 -67 -129q-68 -47 -162 -59q87 -12 139 -55zM446 365l3 -3q-25 19 -68 19h-121l-29 -139h119q60 0 90 18q31 19 31 57q0 29 -25 48zM295 -68l-2 -2
q68 0 104 25q35 24 35 63q0 33 -26 50q-27 18 -74 18h-133l-35 -154h131z" />
    <glyph glyph-name="C.inferior" horiz-adv-x="860" 
d="M119 -213v-8q-79 37 -125 110q-45 71 -45 179q0 118 59 233q58 114 166 184q110 72 246 72q103 0 178 -37t119 -102q43 -63 49 -152h-219q-9 59 -45 92q-38 35 -101 35q-69 0 -120 -45q-54 -48 -80 -119q-29 -79 -29 -159q0 -75 39 -117q40 -43 104 -43q59 0 111 37
t82 96h221q-50 -139 -160 -215q-113 -78 -272 -78q-100 0 -178 37z" />
    <glyph glyph-name="D.inferior" horiz-adv-x="854" 
d="M367 545h-7q104 0 185 -37q82 -37 131 -107t49 -172q0 -149 -66 -256q-62 -101 -176 -155q-108 -51 -252 -51h-313l166 778h283zM246 -63h-2q85 0 141 36q57 37 88 103q31 67 31 141q0 77 -43 117q-44 41 -117 41h-86l-94 -438h82z" />
    <glyph glyph-name="E.inferior" horiz-adv-x="714" 
d="M645 545l-35 -170h-348l-26 -127h339l-34 -168h-340l-31 -143h356l-37 -170h-571l166 778h561z" />
    <glyph glyph-name="F.inferior" horiz-adv-x="684" 
d="M631 545l-37 -170h-332l-29 -137h324l-35 -170h-325l-64 -301h-215l166 778h547z" />
    <glyph glyph-name="G.inferior" horiz-adv-x="907" 
d="M315 66l39 149h426l-98 -459h-174l37 170q-43 -79 -113 -131q-68 -51 -172 -51q-79 0 -149 37t-113 110t-43 177q0 118 59 233q58 114 166 184q110 72 252 72q153 0 242 -74q88 -73 106 -190h-219q-12 48 -49 74q-36 26 -94 26q-74 0 -129 -43q-56 -44 -86 -117
q-31 -76 -31 -159q0 -76 43 -119t117 -43q72 0 127 43q56 44 71 111h-215z" />
    <glyph glyph-name="H.inferior" horiz-adv-x="860" 
d="M494 258l61 287h217l-166 -778h-217l64 301h-256l-64 -301h-215l166 778h215l-61 -287h256z" />
    <glyph glyph-name="I.inferior" horiz-adv-x="389" 
d="M133 -233h-215l166 778h215z" />
    <glyph glyph-name="J.inferior" horiz-adv-x="475" 
d="M-139 -233l33 170h65q46 0 68 16q21 15 30 55l115 537h217l-125 -586q-21 -99 -82 -145q-62 -47 -186 -47h-135z" />
    <glyph glyph-name="K.inferior" horiz-adv-x="794" 
d="M530 545h250l-348 -379l209 -399h-235l-191 374l-80 -374h-215l166 778h215l-72 -336z" />
    <glyph glyph-name="L.inferior" horiz-adv-x="641" 
d="M299 545l-129 -608h315l-34 -170h-533l166 778h215z" />
    <glyph glyph-name="M.inferior" horiz-adv-x="1179" 
d="M1090 545l-166 -778h-195l156 733l-291 -733h-346l20 722l-153 -722h-197l166 778h367l-23 -733l285 733h377z" />
    <glyph glyph-name="N.inferior" horiz-adv-x="942" 
d="M500 -197l157 742h197l-166 -778h-375l-43 733l-155 -733h-197l166 778h373z" />
    <glyph glyph-name="O.inferior" horiz-adv-x="901" 
d="M121 -213l-6 -4q-78 37 -125 111q-45 71 -45 178q0 119 59 231t166 182q110 72 250 72q106 0 184 -37q82 -39 127 -110q47 -74 47 -179q0 -121 -57 -229q-59 -112 -166 -182t-250 -70q-106 0 -184 37zM440 -47q56 44 86 117q31 76 31 161q0 78 -39 117q-41 41 -110 41
q-74 0 -129 -43q-56 -44 -86 -117q-31 -76 -31 -161q0 -78 39 -117q41 -41 110 -41q74 0 129 43z" />
    <glyph glyph-name="P.inferior" horiz-adv-x="778" 
d="M393 545l2 -2q87 0 154 -27q65 -26 106 -82q39 -53 39 -129q0 -83 -43 -147q-44 -66 -129 -103q-84 -37 -209 -37h-125l-55 -251h-215l166 778h309zM330 184l2 -4q65 0 104 31q37 30 37 82q0 40 -27 61t-75 21h-105l-41 -191h105z" />
    <glyph glyph-name="Q.inferior" horiz-adv-x="909" 
d="M748 63h-9q-30 -86 -88 -153l109 -146h-228l-24 33q-103 -47 -211 -47q-104 0 -182 37t-125 111q-45 71 -45 178q0 119 59 231t166 182q110 72 252 72q104 0 182 -37q82 -39 127 -110q47 -74 47 -178q0 -87 -30 -173zM403 -66l-108 144h227v-2q29 79 29 157t-39 117
q-41 41 -111 41q-72 0 -127 -43q-56 -44 -86 -117t-30 -161q0 -76 41 -117t110 -41q45 0 94 22z" />
    <glyph glyph-name="R.inferior" horiz-adv-x="819" 
d="M647 166l4 -2q-48 -63 -141 -98l129 -302h-240l-100 271h-106l-58 -271h-215l166 779h326q80 0 145 -27q64 -27 102 -80q37 -52 37 -123q0 -83 -49 -147zM266 375l-39 -182h121q60 0 96 28q35 27 35 78q0 34 -24 55t-68 21h-121z" />
    <glyph glyph-name="S.inferior" horiz-adv-x="770" 
d="M10 -182l-8 -8q-89 68 -92 190h221q3 -52 37 -76q35 -24 98 -24q56 0 92 22q35 21 35 62q0 32 -20 49q-21 18 -74 33l-117 32q-186 49 -186 203q0 71 43 129q42 57 123 92t180 35q142 0 221 -61t94 -164h-221q-3 31 -33 49t-81 18q-50 0 -80 -18q-31 -19 -31 -49
q0 -27 25 -43q24 -15 88 -33l116 -33q84 -21 127 -76t43 -127q0 -82 -43 -143q-41 -59 -123 -94q-76 -33 -194 -33q-151 0 -240 68z" />
    <glyph glyph-name="T.inferior" horiz-adv-x="718" 
d="M23 545h665l-35 -170h-225l-129 -608h-215l129 608h-225z" />
    <glyph glyph-name="U.inferior" horiz-adv-x="843" 
d="M47 -184l-2 -4q-80 65 -80 176q0 33 10 98l99 457h215l-105 -494q-6 -24 -6 -45q0 -44 29 -70q27 -24 78 -24q68 0 104 39q39 42 53 112l103 480h215l-101 -471q-35 -163 -124 -240q-92 -80 -261 -80q-146 0 -227 66z" />
    <glyph glyph-name="V.inferior" horiz-adv-x="825" 
d="M248 -186l327 731h236l-365 -778h-399l-41 778h219z" />
    <glyph glyph-name="W.inferior" horiz-adv-x="1214" 
d="M721 -188l264 733h199l-283 -778h-375l70 743l-240 -743h-374l43 778h194l-43 -740l242 740h368z" />
    <glyph glyph-name="X.inferior" horiz-adv-x="843" 
d="M553 545h268l-338 -371l199 -407h-246l-117 262l-221 -262h-266l363 415l-170 363h237l100 -221z" />
    <glyph glyph-name="Y.inferior" horiz-adv-x="786" 
d="M526 545h254l-389 -488l-59 -290h-215l65 317l-186 461h223l107 -281z" />
    <glyph glyph-name="Z.inferior" horiz-adv-x="749" 
d="M51 545h637l-47 -221l-461 -387h398l-37 -170h-660l45 221l461 387h-373z" />
    <glyph glyph-name="G.ss03.inferior" horiz-adv-x="890" 
d="M315 66l35 149h426l-22 -109q-37 -175 -152 -270q-113 -94 -299 -94q-102 0 -180 37q-79 37 -125 110q-45 71 -45 179q0 118 59 233q58 114 166 184q110 72 252 72q153 0 242 -74q88 -73 106 -190h-219q-12 48 -49 74q-36 26 -94 26q-74 0 -129 -43q-56 -44 -86 -117
q-31 -76 -31 -159q0 -76 43 -119t121 -43t127 43q48 42 63 111h-209z" />
    <glyph glyph-name="A.superior" horiz-adv-x="868" 
d="M907 778h-215l-12 191h-303l-94 -191h-228l398 778h389zM643 1505l-182 -368h207z" />
    <glyph glyph-name="B.superior" horiz-adv-x="815" 
d="M817 1120l-4 4q53 -44 53 -116q0 -107 -94 -168q-95 -62 -272 -62h-369l166 778h350q132 0 195 -51q65 -53 65 -141q0 -83 -67 -129q-68 -47 -162 -59q86 -12 139 -56zM662 1376l2 -2q-25 19 -68 19h-121l-29 -140h119q58 0 90 19q31 19 31 57q0 29 -24 47zM510 944
l-2 -2q68 0 104 25q35 24 35 63q0 32 -26 49q-29 19 -74 19h-133l-35 -154h131z" />
    <glyph glyph-name="C.superior" horiz-adv-x="860" 
d="M334 799v-8q-79 37 -125 110q-45 71 -45 178q0 119 59 234q58 114 166 184q110 72 246 72q103 0 178 -37t119 -102q43 -63 49 -152h-219q-9 59 -45 92q-38 35 -101 35q-69 0 -120 -45q-54 -48 -80 -119q-29 -79 -29 -160q0 -74 39 -116q40 -43 104 -43q61 0 111 36
q51 36 82 97h221q-50 -139 -160 -215q-113 -78 -272 -78q-100 0 -178 37z" />
    <glyph glyph-name="D.superior" horiz-adv-x="854" 
d="M582 1556h-7q106 0 185 -36q82 -37 131 -107t49 -172q0 -149 -66 -256q-63 -103 -176 -156q-108 -51 -252 -51h-313l166 778h283zM461 948h-2q83 0 141 37t88 102q31 67 31 142q0 77 -43 117t-117 40h-86l-94 -438h82z" />
    <glyph glyph-name="E.superior" horiz-adv-x="714" 
d="M860 1556l-35 -170h-348l-26 -126h340l-35 -168h-340l-31 -144h356l-36 -170h-572l166 778h561z" />
    <glyph glyph-name="F.superior" horiz-adv-x="684" 
d="M846 1556l-37 -170h-332l-28 -137h323l-35 -170h-325l-64 -301h-215l166 778h547z" />
    <glyph glyph-name="G.superior" horiz-adv-x="907" 
d="M530 1077l39 150h426l-98 -459h-174l37 170q-43 -79 -113 -131q-68 -51 -172 -51q-79 0 -149 37t-113 110t-43 176q0 119 59 234q58 114 166 184q110 72 252 72q153 0 242 -74q88 -73 106 -190h-219q-12 46 -49 73t-94 27q-74 0 -129 -43q-56 -44 -86 -117
q-31 -76 -31 -160q0 -75 43 -118t117 -43q72 0 127 43q56 44 71 110h-215z" />
    <glyph glyph-name="H.superior" horiz-adv-x="860" 
d="M709 1270l61 286h217l-166 -778h-217l64 301h-256l-64 -301h-215l166 778h215l-61 -286h256z" />
    <glyph glyph-name="I.superior" horiz-adv-x="389" 
d="M348 778h-215l166 778h215z" />
    <glyph glyph-name="J.superior" horiz-adv-x="475" 
d="M76 778l33 170h65q44 0 68 17q21 15 30 55l115 536h217l-125 -585q-21 -100 -82 -146q-62 -47 -186 -47h-135z" />
    <glyph glyph-name="K.superior" horiz-adv-x="794" 
d="M743 1556h250l-348 -378l209 -400h-236l-190 375l-80 -375h-215l166 778h215l-72 -335z" />
    <glyph glyph-name="L.superior" horiz-adv-x="641" 
d="M514 1556l-129 -608h315l-34 -170h-533l166 778h215z" />
    <glyph glyph-name="M.superior" horiz-adv-x="1179" 
d="M1305 1556l-166 -778h-195l156 733l-291 -733h-346l20 723l-153 -723h-197l166 778h367l-23 -733l285 733h377z" />
    <glyph glyph-name="N.superior" horiz-adv-x="942" 
d="M715 815l157 741h197l-166 -778h-375l-43 733l-155 -733h-197l166 778h373z" />
    <glyph glyph-name="O.superior" horiz-adv-x="901" 
d="M336 799l-6 -4q-79 37 -125 110q-45 71 -45 178q0 120 59 232t166 182q110 72 250 72q106 0 184 -37q81 -38 127 -111q47 -74 47 -178q0 -121 -57 -229q-60 -114 -166 -183t-250 -69q-106 0 -184 37zM655 965q57 45 86 116q31 76 31 162q0 78 -39 117q-41 41 -110 41
q-74 0 -129 -43q-56 -44 -86 -117q-31 -76 -31 -162q0 -77 39 -116q41 -41 110 -41q74 0 129 43z" />
    <glyph glyph-name="P.superior" horiz-adv-x="778" 
d="M608 1556l2 -2q89 0 154 -26t106 -82q39 -53 39 -129q0 -84 -43 -148q-44 -65 -129 -102q-84 -37 -209 -37h-125l-55 -252h-215l166 778h309zM545 1196l2 -4q65 0 104 31q37 30 37 82q0 41 -26 61t-76 20h-105l-41 -190h105z" />
    <glyph glyph-name="Q.superior" horiz-adv-x="909" 
d="M963 1075h-9q-30 -86 -88 -153l109 -146h-227l-25 33q-103 -47 -211 -47q-104 0 -182 37q-79 37 -125 110q-45 71 -45 178q0 120 59 232t166 182q110 72 252 72q104 0 182 -37q81 -38 127 -111q47 -74 47 -178q0 -87 -30 -172zM618 946l-108 144h227v-3q29 79 29 158
q0 78 -39 117q-41 41 -111 41q-72 0 -127 -43q-56 -44 -86 -117t-30 -162q0 -75 41 -116t110 -41q45 0 94 22z" />
    <glyph glyph-name="R.superior" horiz-adv-x="819" 
d="M862 1178l4 -2q-50 -64 -141 -99l129 -301h-240l-100 271h-106l-58 -271h-215l166 778h326q83 0 145 -26q64 -27 102 -80q37 -52 37 -123q0 -83 -49 -147zM481 1386l-39 -182h121q59 0 96 29q35 27 35 78q0 34 -24 55q-23 20 -68 20h-121z" />
    <glyph glyph-name="S.superior" horiz-adv-x="770" 
d="M225 829l-8 -8q-89 68 -92 191h221q3 -52 37 -76q36 -25 98 -25q54 0 92 23q35 21 35 61q0 32 -20 49q-21 18 -74 33l-117 33q-186 49 -186 203q0 71 43 129q42 57 123 92t180 35q141 0 221 -62q79 -61 94 -164h-221q-3 32 -33 50t-81 18q-50 0 -80 -18q-31 -19 -31 -50
q0 -27 25 -43q22 -13 88 -32l116 -33q84 -21 127 -76t43 -127q0 -82 -43 -143q-41 -59 -123 -94q-76 -33 -194 -33q-152 0 -240 67z" />
    <glyph glyph-name="T.superior" horiz-adv-x="718" 
d="M238 1556h665l-35 -170h-225l-129 -608h-215l129 608h-225z" />
    <glyph glyph-name="U.superior" horiz-adv-x="843" 
d="M262 827l-2 -4q-80 65 -80 176q0 34 10 99l99 456h215l-105 -493q-6 -24 -6 -45q0 -44 29 -70q27 -24 78 -24q68 0 104 39q39 42 53 112l103 479h215l-101 -471q-35 -162 -124 -239q-92 -80 -261 -80q-147 0 -227 65z" />
    <glyph glyph-name="V.superior" horiz-adv-x="825" 
d="M463 825l328 731h235l-364 -778h-400l-41 778h219z" />
    <glyph glyph-name="W.superior" horiz-adv-x="1214" 
d="M936 823l264 733h199l-283 -778h-375l70 744l-240 -744h-374l43 778h194l-43 -739l242 739h368z" />
    <glyph glyph-name="X.superior" horiz-adv-x="843" 
d="M768 1556h268l-338 -370l199 -408h-246l-116 262l-222 -262h-266l363 416l-170 362h237l101 -221z" />
    <glyph glyph-name="Y.superior" horiz-adv-x="786" 
d="M741 1556h254l-389 -487l-59 -291h-215l65 318l-186 460h223l107 -280z" />
    <glyph glyph-name="Z.superior" horiz-adv-x="749" 
d="M266 1556h637l-47 -221l-461 -387h398l-37 -170h-660l45 221l461 387h-373z" />
    <glyph glyph-name="G.ss03.superior" horiz-adv-x="890" 
d="M530 1077l35 150h426l-22 -109q-37 -175 -152 -270q-113 -94 -299 -94q-102 0 -180 37q-79 37 -125 110q-45 71 -45 178q0 119 59 234q58 114 166 184q110 72 252 72q153 0 242 -74q88 -73 106 -190h-219q-12 46 -49 73t-94 27q-74 0 -129 -43q-56 -44 -86 -117
q-31 -76 -31 -160q0 -75 43 -118t121 -43t127 43q48 42 63 110h-209z" />
    <glyph glyph-name="i.loclTRK" horiz-adv-x="581" 
d="M332 0h-320l238 1112h319zM606 1262h-330l64 294h330z" />
    <glyph glyph-name="uni006A0301" horiz-adv-x="581" 
d="M-260 -401l47 227h55q74 0 111 29q35 27 47 90l248 1167h319l-258 -1216q-31 -147 -137 -222t-289 -75h-143zM596 1235h-305l297 319h438z" />
    </font>
</defs>
</svg>
