<?xml version="1.0" standalone="no"?>
<!DOCTYPE svg PUBLIC "-//W3C//DTD SVG 1.1//EN" "http://www.w3.org/Graphics/SVG/1.1/DTD/svg11.dtd" >
<svg xmlns="http://www.w3.org/2000/svg" xmlns:xlink="http://www.w3.org/1999/xlink" version="1.1">
<metadata>
Created by FontForge 20170731 at Fri Apr 21 21:41:37 2023
 By Aleksey,,,
(c) 2014-2020. Copyright by TYPE.WELTKERN :. All rights reserved.
</metadata>
<defs>
<font id="TWKEverett-Regular" horiz-adv-x="1536" >
  <font-face 
    font-family="TWK Everett"
    font-weight="400"
    font-stretch="normal"
    units-per-em="2048"
    panose-1="2 11 2 4 0 0 0 0 0 0"
    ascent="1638"
    descent="-410"
    x-height="1098"
    cap-height="1556"
    bbox="-1810 -606 6752 2193"
    underline-thickness="147"
    underline-position="-597"
    unicode-range="U+000D-FEFF"
  />
<missing-glyph horiz-adv-x="1503" 
d="M1298 0h-1093v1556h1093v-1556zM410 1389v-1221h684v1221h-684z" />
    <glyph glyph-name="fi" unicode="fi" horiz-adv-x="1290" 
d="M1130 0l-202 -2v946h-469v-946h-201v946h-227v152h227v153q0 152 94 228q95 77 246 77h143v-151h-123q-79 0 -118 -33t-39 -119v-153h669v-1098zM920 1284v270h217v-270h-217z" />
    <glyph glyph-name="fl" unicode="fl" horiz-adv-x="1290" 
d="M1130 0l-202 -2v1405h-310q-79 0 -118 -33t-39 -119v-153h282v-152h-282v-946h-201v946h-227v152h227v153q0 152 94 228q95 77 246 77h530v-1556z" />
    <glyph glyph-name="W_W_W" unicode="WWW" horiz-adv-x="6791" 
d="M6152 8l381 1548h219l-383 -1556h-430l-307 1546l-307 -1546h-430l-381 1548l-381 -1548h-430l-307 1546l-308 -1546h-430l-381 1548l-381 -1548h-430l-307 1546l-307 -1546h-430l-383 1556h219l381 -1548l307 1548h426l307 -1548l381 1548h434l381 -1548l308 1548h426
l307 -1548l381 1548h434l381 -1548l307 1548h426z" />
    <glyph glyph-name="f_f" unicode="ff" horiz-adv-x="1540" 
d="M1391 1405l-5 -4q-79 0 -118 -33t-39 -119v-153h282v-152h-282v-946h-201v946h-569v-946h-201v946h-227v152h227v153q0 152 94 228q95 77 246 77h143v-151h-123q-79 0 -118 -33t-39 -119v-153h569v153q0 152 94 228q95 77 246 77h143v-151h-122z" />
    <glyph glyph-name="f_f_i" unicode="ffi" horiz-adv-x="2060" 
d="M1901 1098l-5 -1102h-200v946h-469v-946h-201v946h-569v-946h-201v946h-227v152h227v153q0 152 94 228q95 77 246 77h143v-151h-123q-79 0 -118 -33t-39 -119v-153h569v153q0 152 94 228q95 77 246 77h143v-151h-122q-80 0 -119 -33t-39 -119v-153h670zM1688 1282v270
h217v-270h-217z" />
    <glyph glyph-name="f_f_l" unicode="ffl" horiz-adv-x="2060" 
d="M1700 1556l196 -4v-1556h-200v946h-469v-946h-201v946h-569v-946h-201v946h-227v152h227v153q0 152 94 228q95 77 246 77h143v-151h-123q-79 0 -118 -33t-39 -119v-153h569v153q0 152 94 228q95 77 246 77h143v-151h-122q-80 0 -119 -33t-39 -119v-153h469v458z" />
    <glyph glyph-name="f_j" unicode="fj" horiz-adv-x="1290" 
d="M1130 1098l-4 -1200q0 -152 -94 -228t-246 -76h-75v152h55q80 0 121 35t41 121v1042h-469v-946h-201v946h-227v152h227v153q0 152 94 228q95 77 246 77h143v-151h-123q-79 0 -118 -33t-39 -119v-153h669zM918 1280v270h217v-270h-217z" />
    <glyph glyph-name="f_t" unicode="ft" horiz-adv-x="1564" 
d="M1511 152l-6 -154h-143q-101 0 -174 33q-80 36 -121 100q-43 67 -43 168v4v641h-567v-946h-201v946h-227v152h227v153q0 152 94 228q95 77 246 77h143v-151h-123q-79 0 -118 -33t-39 -119v-153h567v260h201v-260h278v-152h-278v-641v-4q0 -82 41 -117q38 -32 121 -32h122
z" />
    <glyph glyph-name="t_f" unicode="tf" horiz-adv-x="1564" 
d="M1415 1405l-6 -2q-80 0 -119 -33t-39 -119v-153h283v-152h-283v-946h-200v946h-596v-641v-4q0 -82 41 -117q38 -32 120 -32h123v-152h-143q-101 0 -174 33q-80 36 -121 100q-43 67 -43 168v4v641h-231v152h231v260h201v-260h596v153q0 152 94 228q95 77 246 77h143v-151
h-123z" />
    <glyph glyph-name="t_t" unicode="tt" horiz-adv-x="1589" 
d="M1536 152l-8 -152h-144q-101 0 -174 33q-78 35 -120 100q-43 67 -43 168v4v641h-594v-641v-4q0 -82 41 -117q38 -32 120 -32h123v-152h-143q-101 0 -174 33q-80 36 -121 100q-43 67 -43 168v4v641h-231v152h231v260h201v-260h594v260h200v-260h281v-152h-281v-641v-4
q0 -82 41 -117q38 -32 121 -32h123z" />
    <glyph glyph-name="w_w_w" unicode="www" horiz-adv-x="5275" 
d="M4768 10l268 1088h195l-271 -1098h-383l-213 1087l-213 -1087h-383l-266 1085l-268 -1085h-383l-213 1087l-213 -1087h-383l-266 1085l-269 -1085h-383l-213 1087l-213 -1087h-383l-270 1098h195l268 -1088l213 1088h381l213 -1088l268 1088h383l268 -1088l213 1088h381
l213 -1088l269 1088h383l268 -1088l213 1088h381z" />
    <glyph glyph-name=".notdef" horiz-adv-x="1503" 
d="M1298 0h-1093v1556h1093v-1556zM410 1389v-1221h684v1221h-684z" />
    <glyph glyph-name=".null" horiz-adv-x="0" 
 />
    <glyph glyph-name="nonmarkingreturn" unicode="&#xd;" horiz-adv-x="512" 
 />
    <glyph glyph-name="space" unicode=" " horiz-adv-x="512" 
 />
    <glyph glyph-name="exclam" unicode="!" horiz-adv-x="573" 
d="M375 516h-176l-23 1040h221zM408 0h-242v246h242v-246z" />
    <glyph glyph-name="quotedbl" unicode="&#x22;" horiz-adv-x="776" 
d="M303 991h-151l-31 565h213zM625 991h-152l-31 565h213z" />
    <glyph glyph-name="numbersign" unicode="#" horiz-adv-x="1636" 
d="M1552 1098v-152h-346l-76 -371h314v-151h-344l-88 -424h-174l88 424h-377l-88 -424h-174l88 424h-291v151h322l75 371h-288v152h321l94 458h174l-94 -458h377l94 458h174l-94 -458h313zM580 575h376l76 371h-377z" />
    <glyph glyph-name="dollar" unicode="$" horiz-adv-x="1355" 
d="M1194 221h-2q-57 -100 -166 -162t-252 -77v-250h-188v252q-133 15 -240 79t-174 168t-82 238h209q15 -130 92 -213q79 -85 197 -109v596l-51 13q-193 52 -301 141q-107 88 -107 252q0 113 59 205q57 90 164 149q108 60 238 72v240h188v-242q195 -27 314 -137
q120 -111 141 -285h-209q-21 101 -86 166t-164 86v-510l70 -19q208 -59 307 -155q100 -97 100 -268q0 -131 -57 -230zM362 1065l5 -2q29 -43 79 -66t142 -51v463q-80 -13 -135 -45q-59 -35 -88 -86q-31 -54 -31 -113q0 -58 28 -100zM778 143l-2 -2q126 21 197 95t71 190
q0 97 -61 158q-60 60 -205 104v-545z" />
    <glyph glyph-name="percent" unicode="%" horiz-adv-x="1892" 
d="M158 813l4 -2q-92 115 -92 326q0 210 92 325t258 115q167 0 258 -113q92 -115 92 -325q0 -211 -92 -326q-91 -113 -260 -113t-260 113zM608 -2h-198l878 1556h199zM553 903h-4q47 77 47 234q0 158 -45 235q-47 80 -135 80t-135 -80q-45 -77 -45 -235q0 -157 47 -234
q47 -78 135 -78t135 78zM1212 88l5 -2q-93 116 -93 326q0 209 93 325q92 115 258 115q167 0 258 -113q92 -115 92 -325q0 -211 -92 -326q-91 -113 -260 -113q-170 0 -261 113zM1610 178h-4q47 77 47 234q0 158 -45 235q-47 80 -135 80q-89 0 -136 -80q-45 -77 -45 -235
q0 -157 47 -234q47 -78 136 -78q88 0 135 78z" />
    <glyph glyph-name="ampersand" unicode="&#x26;" horiz-adv-x="1560" 
d="M1534 0l-250 -6l-176 199q-101 -104 -223 -162t-264 -58q-154 0 -277 54q-121 53 -190 153q-70 101 -70 246q0 169 102 283q103 115 283 206q-86 99 -131 175q-43 73 -43 153q0 92 51 166q53 77 143 123q92 47 211 47q122 0 209 -43q89 -44 138 -117t49 -162
q0 -115 -84 -202q-80 -83 -244 -162l-16 -8l356 -402l199 334h194l-266 -446l-12 -19zM604 1403l-6 -10q-47 -21 -74 -62q-26 -39 -26 -98q0 -51 30 -98q29 -45 95 -117l18 -21l6 2q119 58 182 115q62 56 62 129q0 86 -53 133t-136 47q-54 0 -98 -20zM836 158h2
q88 52 159 141l-424 481q-95 -49 -161 -102q-60 -48 -95 -111q-32 -57 -32 -143q0 -102 43 -172q44 -71 121 -109q75 -37 172 -37q127 0 215 52z" />
    <glyph glyph-name="quotesingle" unicode="'" horiz-adv-x="454" 
d="M303 991h-151l-31 565h213z" />
    <glyph glyph-name="parenleft" unicode="(" horiz-adv-x="641" 
d="M422 -401l-4 -2q-147 216 -234 458q-90 250 -90 531q0 277 90 518q86 230 238 455h203q-148 -219 -236 -455t-88 -518t90 -529q87 -239 234 -458h-203z" />
    <glyph glyph-name="parenright" unicode=")" horiz-adv-x="641" 
d="M16 -401h-4q147 219 234 458q90 247 90 529t-88 518t-236 455h203q152 -225 238 -455q90 -241 90 -518q0 -281 -90 -531q-86 -238 -234 -456h-203z" />
    <glyph glyph-name="asterisk" unicode="*" horiz-adv-x="911" 
d="M797 1604l41 -136l-267 -86l170 -231l-112 -82l-172 236l-174 -236l-113 82l170 231l-266 86l41 136l270 -86v268h141v-268z" />
    <glyph glyph-name="plus" unicode="+" horiz-adv-x="1290" 
d="M725 631h469v-156h-469v-475h-160v475h-469v156h469v467h160v-467z" />
    <glyph glyph-name="comma" unicode="," horiz-adv-x="552" 
d="M156 0v246h241v-271l-145 -247h-139l120 272h-77z" />
    <glyph glyph-name="hyphen" unicode="-" horiz-adv-x="921" 
d="M784 496h-647v168h647v-168z" />
    <glyph glyph-name="period" unicode="." horiz-adv-x="552" 
d="M397 0h-241v246h241v-246z" />
    <glyph glyph-name="slash" unicode="/" horiz-adv-x="997" 
d="M264 0h-217l686 1556h217z" />
    <glyph glyph-name="zero" unicode="0" horiz-adv-x="1449" 
d="M397 70q-136 92 -209 272t-73 436t73 436q73 181 209 273t326 92t326 -92q134 -91 208 -273q74 -183 74 -436t-74 -436q-73 -181 -208 -272q-137 -93 -326 -93t-326 93zM1020 301q104 162 104 479q0 318 -104 480q-103 161 -297 161t-297 -161q-104 -162 -104 -480
q0 -317 104 -479t297 -162t297 162z" />
    <glyph glyph-name="one" unicode="1" horiz-adv-x="782" 
d="M432 1556l154 -2v-1556h-205v1161h-330v168h70q95 0 160 19q62 18 92 59q33 45 47 104z" />
    <glyph glyph-name="two" unicode="2" horiz-adv-x="1343" 
d="M336 168h915v-168h-1149v225l680 580q105 86 166 166q58 76 58 159q0 84 -39 146q-41 64 -117 102q-75 37 -180 37q-154 0 -246 -74q-93 -75 -105 -219h-208q9 149 86 252q76 101 200 154q119 51 269 51q157 0 282 -55q128 -56 197 -156q72 -104 72 -235q0 -123 -68 -226
q-67 -101 -205 -221z" />
    <glyph glyph-name="three" unicode="3" horiz-adv-x="1339" 
d="M1008 768l-7 -2q96 -46 158 -125q66 -84 66 -205q0 -146 -80 -252q-77 -101 -215 -155q-134 -52 -297 -52q-156 0 -279 54q-120 52 -190 151q-71 100 -86 232h209q15 -124 102 -199q86 -74 244 -74q87 0 178 31q88 30 147 98q58 67 58 176q0 94 -53 162q-51 65 -146 101
q-85 32 -207 32h-96v168h96q108 0 189 35t123 92q43 58 43 133q0 70 -41 129q-43 61 -115 91q-74 30 -174 30q-140 0 -219 -67q-81 -69 -90 -183h-209q12 128 86 220q73 91 188 141q113 49 246 49q148 0 270 -49q123 -49 197 -139q74 -89 74 -207q0 -164 -105 -246
q-109 -86 -256 -115q101 -12 191 -55z" />
    <glyph glyph-name="four" unicode="4" horiz-adv-x="1370" 
d="M1081 623h232v-168h-232v-455h-204v455h-820v225l609 876h415v-933zM877 1548l-641 -925h641v925z" />
    <glyph glyph-name="five" unicode="5" horiz-adv-x="1323" 
d="M975 997l-8 -8q114 -61 184 -184q72 -126 72 -293q0 -173 -76 -295t-203 -184t-276 -62q-152 0 -271 52q-122 53 -196 149q-77 100 -92 236h208q9 -80 56 -142t123 -96q78 -35 172 -35q101 0 180 43q81 44 127 129q47 86 47 209q0 126 -49 211t-129 129q-79 43 -170 43
q-126 0 -217 -61q-92 -62 -138 -168l-196 20l78 864h938v-168h-754l-51 -575q30 68 88 123q59 56 137 90q81 35 176 35q125 0 240 -62z" />
    <glyph glyph-name="six" unicode="6" horiz-adv-x="1413" 
d="M1061 963l-8 2q123 -65 188 -185q66 -123 66 -278q0 -158 -76 -277t-209 -184q-135 -66 -295 -66q-188 0 -330 91q-138 89 -215 268q-76 177 -76 442q0 251 78 436t217 275q142 92 328 92q218 0 358 -104q141 -105 187 -297h-209q-30 107 -113 172t-221 65
q-141 0 -233 -86q-93 -87 -136 -229t-43 -332l3 -61q26 89 96 165q65 71 160 113q93 41 196 41q167 0 287 -63zM915 184l-2 -2q87 47 136 129t49 191q0 108 -43 190t-127 129q-80 45 -201 45q-117 0 -203 -45q-88 -46 -137 -125t-49 -176q0 -111 43 -196q44 -87 129 -136
t213 -49q109 0 192 45z" />
    <glyph glyph-name="seven" unicode="7" horiz-adv-x="1118" 
d="M49 1389v167h1022v-225l-700 -1331h-236l742 1389h-828z" />
    <glyph glyph-name="eight" unicode="8" horiz-adv-x="1400" 
d="M1087 768v-4q89 -48 146 -129q57 -80 57 -199q0 -143 -78 -250q-75 -103 -208 -159t-302 -56q-168 0 -301 56t-208 159q-78 107 -78 250q0 121 57 201q58 82 145 129q84 46 185 61q-152 38 -246 117t-94 232q0 125 67 213q68 90 191 139q122 49 282 49q161 0 283 -49
q123 -49 191 -139q67 -88 67 -213q0 -151 -94 -230t-246 -117q100 -15 184 -61zM446 977v-2q82 -70 252 -70t252 70t82 184q0 73 -37 131q-39 62 -112 90q-79 31 -185 31q-105 0 -184 -31q-76 -30 -113 -88q-36 -56 -36 -131q0 -115 81 -184zM883 164h-9q88 36 142 104
q55 70 55 178q0 93 -49 160q-50 68 -135 105q-84 37 -193 37q-108 0 -192 -37q-86 -37 -135 -105q-50 -68 -50 -160q0 -107 56 -178q54 -69 141 -104q82 -33 184 -33q103 0 185 33z" />
    <glyph glyph-name="nine" unicode="9" horiz-adv-x="1413" 
d="M1006 1489l-5 -10q139 -89 216 -269t77 -442q0 -258 -75 -436q-76 -181 -218 -273t-327 -92q-218 0 -359 105q-140 104 -186 297h209q29 -105 115 -172q84 -66 221 -66q141 0 233 86t135 229q43 142 43 332l-2 62q-28 -94 -94 -166q-65 -71 -160 -113q-88 -39 -196 -39
q-159 0 -285 66q-121 64 -186 184q-66 123 -66 279q0 157 76 276t209 184q135 66 295 66q193 0 330 -88zM879 723v2q88 46 137 125t49 176q0 112 -43 197q-44 85 -129 135q-85 49 -211 49q-110 0 -193 -45q-85 -46 -135 -129q-49 -82 -49 -191q0 -108 43 -190t127 -129
q80 -45 201 -45q117 0 203 45z" />
    <glyph glyph-name="colon" unicode=":" horiz-adv-x="552" 
d="M397 0h-241v246h241v-246zM397 688h-241v246h241v-246z" />
    <glyph glyph-name="semicolon" unicode=";" horiz-adv-x="552" 
d="M156 0v246h241v-271l-145 -247h-139l120 272h-77zM397 688h-241v246h241v-246z" />
    <glyph glyph-name="less" unicode="&#x3c;" horiz-adv-x="1200" 
d="M106 680l965 373v-168l-864 -334l864 -334v-166l-965 373v256z" />
    <glyph glyph-name="equal" unicode="=" horiz-adv-x="1318" 
d="M1174 690h-1029v156h1029v-156zM1174 266h-1029v156h1029v-156z" />
    <glyph glyph-name="greater" unicode="&#x3e;" horiz-adv-x="1200" 
d="M129 885v168l965 -373v-256l-965 -373v166l864 334z" />
    <glyph glyph-name="question" unicode="?" horiz-adv-x="1138" 
d="M430 516l-6 -2q0 120 43 205q44 86 133 166l90 78q58 53 92 86q34 34 52 71q18 38 18 84q0 62 -33 109q-36 52 -98 78q-67 28 -154 28q-90 0 -155 -33q-67 -34 -107 -92t-43 -135h-205q6 133 76 227q71 95 184 144t250 49q155 0 262 -45q110 -46 172 -129t62 -191
q0 -68 -25 -129q-24 -58 -63 -100q-34 -37 -98 -94l-93 -80q-55 -47 -94 -96q-36 -45 -47 -88q-12 -47 -12 -111h-201zM651 -2h-241v246h241v-246z" />
    <glyph glyph-name="at" unicode="@" horiz-adv-x="1990" 
d="M1442 1257l8 -4q207 -121 326 -325q120 -206 120 -453q0 -177 -51 -282q-52 -107 -135 -154t-182 -47q-84 0 -154 31q-67 30 -110 79t-58 111q-24 -60 -69 -107q-46 -49 -111 -79q-67 -31 -145 -31q-91 0 -166 37q-78 38 -123 104q-45 65 -45 158q0 139 108 207
q111 69 306 90l243 26v39v5q0 94 -57 139q-59 47 -150 47q-88 0 -143 -43q-56 -44 -68 -119h-204q12 96 67 166q52 66 146 106q87 37 200 37q127 0 215 -39q94 -42 142 -116q49 -76 49 -189v-4v-319v-4q0 -75 41 -119q40 -43 104 -43q84 0 133 67q50 68 50 250
q0 201 -101 369q-102 170 -270 268t-369 98q-200 0 -368 -98q-171 -100 -269 -268t-98 -369q0 -200 98 -368q99 -170 269 -269q168 -98 368 -98q93 0 185 25q96 26 172 69l86 -141q-206 -117 -443 -117q-245 0 -452 121q-206 120 -326 326q-121 207 -121 452q0 246 121 453
q119 204 326 325t452 121q246 0 453 -121zM1079 170l-2 -4q57 34 92 96q33 59 33 137v76l-168 -18q-135 -15 -209 -54q-71 -38 -71 -118q0 -71 55 -111q53 -39 137 -39q74 0 133 35z" />
    <glyph glyph-name="A" unicode="A" horiz-adv-x="1554" 
d="M1548 0h-221l-168 471h-764l-168 -471h-221l559 1556h424zM778 1548l-317 -893h633z" />
    <glyph glyph-name="B" unicode="B" horiz-adv-x="1458" 
d="M1245 700h-2q111 -91 111 -268q0 -138 -68 -233q-70 -98 -196 -146q-128 -49 -312 -49h-585v1557h585q181 0 299 -56q116 -55 172 -147t56 -205q0 -101 -50 -178q-49 -76 -137 -119q-87 -43 -203 -55q218 -9 330 -101zM1006 1313v2q-80 59 -230 59h-379v-477h379
q309 0 309 238q0 120 -79 178zM782 186l-4 -4q180 0 269 68q90 69 90 196q0 132 -88 199q-89 68 -267 68h-385v-527h385z" />
    <glyph glyph-name="C" unicode="C" horiz-adv-x="1597" 
d="M455 78v-2q-165 103 -258 282q-95 182 -95 418t95 418t260 283q163 100 374 100q176 0 318 -68q145 -70 237 -186q96 -122 136 -276h-215q-58 163 -179 258q-122 96 -297 96q-150 0 -268 -80q-114 -78 -180 -221q-64 -140 -64 -324q0 -179 66 -323t178 -222
q113 -79 258 -79q188 0 312 92t182 264h215q-76 -260 -258 -395q-183 -136 -449 -136q-206 0 -368 101z" />
    <glyph glyph-name="D" unicode="D" horiz-adv-x="1601" 
d="M725 1556h-2q229 0 407 -90q177 -89 271 -264q96 -178 96 -424q0 -249 -94 -424q-95 -176 -270 -264q-178 -90 -408 -90h-530v1556h530zM729 184l-4 4q175 0 299 68q123 67 188 201q66 135 66 323q0 189 -64 320q-65 132 -188 203q-120 69 -297 69h-330v-1188h330z" />
    <glyph glyph-name="E" unicode="E" horiz-adv-x="1343" 
d="M401 711v-527h826v-184h-1032v1556h1013v-184h-807v-477h793v-184h-793z" />
    <glyph glyph-name="F" unicode="F" horiz-adv-x="1277" 
d="M1188 1556v-184h-787v-502h775v-184h-775v-686h-206v1556h993z" />
    <glyph glyph-name="G" unicode="G" horiz-adv-x="1691" 
d="M774 838l758 4v-838h-180v393q-34 -112 -103 -209q-68 -95 -178 -153t-260 -58q-197 0 -362 103q-166 104 -259 282q-94 181 -94 416q0 236 92 418q91 181 258 283q163 100 379 100q180 0 320 -61q142 -62 233 -175q93 -116 133 -270h-215q-56 154 -172 242t-297 88
q-150 0 -268 -80q-117 -80 -182 -221q-64 -140 -64 -324q0 -181 66 -325t184 -222q119 -79 277 -79q142 0 254 59q109 58 174 172q64 113 67 270h-561v185z" />
    <glyph glyph-name="H" unicode="H" horiz-adv-x="1617" 
d="M1217 895v661h206v-1556h-206v711h-816v-711h-206v1556h206v-661h816z" />
    <glyph glyph-name="I" unicode="I" horiz-adv-x="595" 
d="M401 0h-206v1556h206v-1556z" />
    <glyph glyph-name="J" unicode="J" horiz-adv-x="768" 
d="M41 0l2 186h166q90 0 129 39q41 41 41 119v1215h207v-1246q0 -153 -92 -233t-261 -80h-192z" />
    <glyph glyph-name="K" unicode="K" horiz-adv-x="1423" 
d="M651 819l799 -819h-274l-775 797v-797h-206v1556h206v-718l703 718h268z" />
    <glyph glyph-name="L" unicode="L" horiz-adv-x="1150" 
d="M401 1556v-1372h713v-184h-919v1556h206z" />
    <glyph glyph-name="M" unicode="M" horiz-adv-x="2154" 
d="M1960 1556v-1556h-207v1550l-461 -1550h-430l-461 1550v-1550h-206v1556h421l461 -1550l461 1550h422z" />
    <glyph glyph-name="N" unicode="N" horiz-adv-x="1726" 
d="M1325 8v1548h207v-1556h-428l-703 1548v-1548h-206v1556h428z" />
    <glyph glyph-name="O" unicode="O" horiz-adv-x="1687" 
d="M459 78q-171 103 -264 282q-95 182 -95 418t95 418q94 181 264 283q166 100 387 100t387 -100q170 -102 264 -283t94 -418t-94 -418q-93 -179 -264 -282q-168 -101 -387 -101t-387 101zM1118 231q118 78 187 222q67 140 67 323q0 184 -67 324q-68 142 -187 221
q-121 80 -276 80q-156 0 -277 -80q-117 -78 -186 -221q-68 -142 -68 -324q0 -181 68 -323q69 -145 186 -222q119 -79 277 -79q157 0 276 79z" />
    <glyph glyph-name="P" unicode="P" horiz-adv-x="1425" 
d="M768 1556h-2q186 0 317 -55q133 -56 203 -166q72 -113 72 -266q0 -156 -70 -266t-203 -166q-131 -55 -317 -55h-367v-582h-206v1556h573zM772 766q183 0 277 76t94 227t-94 227t-277 76h-373v-606h373z" />
    <glyph glyph-name="Q" unicode="Q" horiz-adv-x="1695" 
d="M1737 0l-297 -4l-148 123q-92 -68 -209 -107q-112 -37 -243 -37q-219 0 -387 101q-172 104 -265 282q-94 181 -94 418t94 418q94 180 265 283q166 100 387 100t387 -100q170 -102 264 -283t94 -418q0 -150 -41 -284q-40 -132 -117 -234zM1141 246l-332 280h293l170 -143
q51 81 74 178q24 99 24 211q0 184 -67 324q-68 142 -187 221q-121 80 -276 80q-156 0 -277 -80q-117 -78 -186 -221q-68 -142 -68 -324q0 -181 68 -323q69 -145 186 -222q121 -80 277 -80q175 0 301 99z" />
    <glyph glyph-name="R" unicode="R" horiz-adv-x="1456" 
d="M1391 0l-240 -4l-375 635h-6h-367v-635h-206v1556h573q170 0 295 -55q129 -57 195 -160q67 -104 67 -243q0 -161 -88 -271t-246 -157zM403 1368v-549h371q160 0 250 72t90 203q0 130 -90 202t-250 72h-371z" />
    <glyph glyph-name="S" unicode="S" horiz-adv-x="1417" 
d="M397 37h-8q-132 59 -215 170q-83 112 -104 262h215q15 -104 69 -172t142 -107q82 -36 192 -36q139 0 232 34q95 35 145 97q49 61 49 145q0 83 -39 131q-42 52 -117 78q-90 32 -221 59l-194 43q-195 44 -307 144q-113 101 -113 266q0 119 74 219q73 99 202 154
q128 55 285 55q162 0 289 -53q130 -54 207 -150q82 -102 102 -223h-215q-34 129 -133 190q-100 62 -246 62q-96 0 -178 -31q-80 -30 -127 -86t-47 -125q0 -72 35 -116q36 -45 104 -74q74 -31 201 -58l194 -43q162 -34 260 -86q97 -52 148 -133q49 -79 49 -200
q0 -137 -80 -246q-78 -106 -223 -168t-332 -62q-160 0 -295 60z" />
    <glyph glyph-name="T" unicode="T" horiz-adv-x="1316" 
d="M37 1556h1243v-184h-518v-1372h-207v1372h-518v184z" />
    <glyph glyph-name="U" unicode="U" horiz-adv-x="1579" 
d="M326 141l-2 -4q-148 168 -148 479v5v931h207v-944v-4q0 -230 102 -344q101 -113 306 -113q200 0 303 115q100 112 100 348v944h207v-931q0 -314 -148 -482q-147 -166 -462 -166q-318 0 -465 166z" />
    <glyph glyph-name="V" unicode="V" horiz-adv-x="1517" 
d="M760 8l520 1548h227l-532 -1556h-432l-533 1556h228z" />
    <glyph glyph-name="W" unicode="W" horiz-adv-x="2318" 
d="M1679 8l381 1548h219l-383 -1556h-430l-307 1546l-307 -1546h-430l-383 1556h219l381 -1548l307 1548h426z" />
    <glyph glyph-name="X" unicode="X" horiz-adv-x="1507" 
d="M883 831l626 -831h-245l-510 676l-510 -676h-246l627 831l-547 725h246l430 -569l430 569h246z" />
    <glyph glyph-name="Y" unicode="Y" horiz-adv-x="1382" 
d="M1149 1556h237l-591 -888v-668h-207v668l-592 888h235l459 -690z" />
    <glyph glyph-name="Z" unicode="Z" horiz-adv-x="1411" 
d="M1307 1311l-1004 -1127h1043v-184h-1262v246l1003 1126h-989v184h1209v-245z" />
    <glyph glyph-name="bracketleft" unicode="[" horiz-adv-x="677" 
d="M623 1556v-151h-236v-1655h236v-151h-437v1957h437z" />
    <glyph glyph-name="backslash" unicode="\" horiz-adv-x="997" 
d="M950 0h-217l-686 1556h217z" />
    <glyph glyph-name="bracketright" unicode="]" horiz-adv-x="677" 
d="M55 1405v151h437v-1957h-437v151h236v1655h-236z" />
    <glyph glyph-name="asciicircum" unicode="^" horiz-adv-x="1128" 
d="M709 1556l344 -798h-193l-295 706l-297 -706h-192l346 798h287z" />
    <glyph glyph-name="underscore" unicode="_" horiz-adv-x="1167" 
d="M1073 -154h-979v154h979v-154z" />
    <glyph glyph-name="grave" unicode="`" horiz-adv-x="616" 
d="M565 1247h-186l-328 309h277z" />
    <glyph glyph-name="a" unicode="a" horiz-adv-x="1193" 
d="M852 1061l-4 -12q98 -56 147 -152q47 -92 47 -203v-4v-702h-200v225q-42 -85 -86 -135q-47 -53 -117 -80q-76 -29 -172 -29q-101 0 -184 47t-133 127t-50 181q0 120 68 188q69 69 164 96q105 30 221 41l295 31v18v4q0 74 -27 136q-27 61 -86 96t-141 35q-74 0 -129 -27
q-56 -27 -86 -74t-39 -98h-205q12 102 74 182t160 123t225 43q159 0 258 -57zM702 143v-6q68 47 103 127q35 81 35 182v82l-219 -22q-94 -8 -166 -25q-65 -15 -111 -55q-45 -39 -45 -115q0 -65 31 -116q30 -50 86 -74q58 -25 121 -25q97 0 165 47z" />
    <glyph glyph-name="b" unicode="b" horiz-adv-x="1306" 
d="M985 1047l6 4q105 -72 168 -203q62 -130 62 -295t-62 -295q-63 -131 -168 -203q-107 -73 -239 -73q-89 0 -160 32q-77 35 -137 92q-59 56 -95 136v-240h-200v1557h200v-725q27 75 80 141q51 63 129 104q77 41 176 41q133 0 240 -73zM864 180l-2 -8q72 51 113 147
q39 91 39 226q0 134 -39 225q-42 97 -113 148q-74 53 -176 53q-105 0 -176 -51t-113 -148q-39 -91 -39 -223t39 -223q41 -95 115 -148q71 -51 176 -51q102 0 176 53z" />
    <glyph glyph-name="c" unicode="c" horiz-adv-x="1200" 
d="M342 49l-10 -4q-121 69 -187 201q-65 130 -65 299t65 299q64 128 189 200q126 72 282 72q134 0 238 -49q105 -49 170 -139q67 -92 90 -205h-205q-24 107 -98 178q-73 70 -193 70q-105 0 -176 -51q-70 -50 -112 -148q-39 -91 -39 -223t39 -223q41 -96 114 -148
q71 -51 177 -51q233 0 303 242h204q-27 -121 -98 -211q-70 -88 -176 -135q-104 -46 -229 -46q-157 0 -283 72z" />
    <glyph glyph-name="d" unicode="d" horiz-adv-x="1306" 
d="M946 1556l207 -6v-1556h-201v239q-36 -80 -94 -135q-60 -57 -137 -92q-73 -33 -160 -33q-130 0 -239 74q-105 72 -168 203q-62 130 -62 295t62 295t168 202q109 74 239 74q102 0 176 -39q78 -41 129 -104q53 -65 80 -142v725zM807 170l-2 -8q75 54 115 147q38 89 38 226
q0 136 -38 225q-41 96 -113 147q-76 54 -176 54q-103 0 -176 -52q-72 -51 -113 -147q-39 -91 -39 -223q0 -133 39 -224q41 -96 113 -147q71 -51 176 -51q102 0 176 53z" />
    <glyph glyph-name="e" unicode="e" horiz-adv-x="1218" 
d="M1124 489l-831 -4q12 -174 96 -270q82 -94 221 -94q116 0 183 49t102 145h205q-47 -173 -172 -258q-127 -86 -316 -86q-160 0 -278 74q-116 73 -178 203t-62 295q0 167 62 297q61 129 178 202q118 74 276 74q155 0 271 -67q117 -67 182 -195q65 -127 65 -291q0 -4 -4 -74
zM395 883l-2 2q-82 -85 -100 -248h627q-6 99 -46 172t-108 117q-67 43 -156 43q-132 0 -215 -86z" />
    <glyph glyph-name="f" unicode="f" horiz-adv-x="770" 
d="M621 1405l-3 -2q-79 0 -118 -33t-39 -119v-153h282v-152h-282v-946h-201v946h-227v152h227v153q0 152 94 228q95 77 246 77h143v-151h-122z" />
    <glyph glyph-name="g" unicode="g" horiz-adv-x="1306" 
d="M950 1098l203 -8v-1102q0 -140 -70 -234q-71 -95 -184 -141q-110 -45 -248 -45q-132 0 -239 43q-110 44 -176 125q-68 83 -80 198h204q9 -69 52 -118q45 -51 104 -74q64 -25 139 -25q84 0 154 31q68 30 109 92q38 58 38 150v270q-36 -80 -94 -135q-65 -62 -137 -90
q-79 -31 -160 -31q-132 0 -239 70q-106 69 -168 196t-62 293t62 293q63 128 168 197q106 69 239 69q102 0 176 -39q78 -41 129 -104q53 -66 80 -141v260zM809 193v-9q71 48 113 142q39 88 39 221t-39 221q-41 92 -113 141q-73 49 -178 49q-158 0 -242 -106
q-86 -109 -86 -301t86 -301q85 -107 242 -107q104 0 178 50z" />
    <glyph glyph-name="h" unicode="h" horiz-adv-x="1232" 
d="M911 1063h-2q86 -59 129 -156q43 -98 43 -223v-4v-680h-200v649v4q0 162 -68 242t-192 80q-125 0 -193 -80t-68 -244v-649h-200v1557h200v-682q40 108 127 176q85 67 218 67q123 0 206 -57z" />
    <glyph glyph-name="i" unicode="i" horiz-adv-x="520" 
d="M360 0h-200v1098h200v-1098zM369 1286h-217v270h217v-270z" />
    <glyph glyph-name="j" unicode="j" horiz-adv-x="520" 
d="M-55 -401l-2 147h55q80 0 121 35t41 121v1194h200v-1194q0 -152 -94 -228q-93 -75 -246 -75h-75zM367 1282h-217v270h217v-270z" />
    <glyph glyph-name="k" unicode="k" horiz-adv-x="1128" 
d="M592 612l538 -612h-249l-521 592v-592h-200v1556h200v-927l500 469h250z" />
    <glyph glyph-name="l" unicode="l" horiz-adv-x="520" 
d="M360 0h-200v1556h200v-1556z" />
    <glyph glyph-name="m" unicode="m" horiz-adv-x="1892" 
d="M1579 1065l-6 2q81 -55 125 -154q43 -98 43 -227v-4v-680h-201v649v4q0 164 -61 240q-63 78 -183 78q-122 0 -184 -80q-61 -79 -61 -246v-649h-201v649v4q0 163 -62 240q-63 78 -182 78q-122 0 -184 -80t-62 -246v-649h-200v1098h200v-224q40 110 121 179q79 67 207 67
q90 0 160 -37q72 -38 117 -98q46 -60 67 -135q40 115 127 196q86 80 221 80q117 0 199 -55z" />
    <glyph glyph-name="n" unicode="n" horiz-adv-x="1232" 
d="M911 1063h-2q86 -59 129 -156q43 -98 43 -223v-4v-680h-200v649v4q0 162 -68 242t-192 80q-125 0 -193 -80t-68 -244v-649h-200v1098h200v-223q40 108 127 176q85 67 218 67q123 0 206 -57z" />
    <glyph glyph-name="o" unicode="o" horiz-adv-x="1247" 
d="M342 49h-2q-120 69 -186 201t-66 299t66 299q65 131 188 201q124 71 283 71t280 -71q120 -70 185 -201q65 -130 65 -299t-65 -299q-65 -131 -185 -201q-123 -72 -280 -72t-283 72zM797 176l-2 -8q71 50 112 147q39 91 39 226q0 134 -39 225q-41 97 -112 147
q-76 54 -177 54q-103 0 -176 -52q-71 -50 -112 -147q-39 -91 -39 -223t39 -223q41 -96 114 -148q71 -51 177 -51q102 0 176 53z" />
    <glyph glyph-name="p" unicode="p" horiz-adv-x="1306" 
d="M985 1047l6 4q105 -72 168 -203q62 -130 62 -295t-62 -295q-63 -131 -168 -203q-107 -73 -239 -73q-89 0 -160 32q-77 35 -137 92q-59 56 -95 136v-641h-200v1499h200v-266q27 75 80 141q51 63 129 104q77 41 176 41q133 0 240 -73zM864 180l-2 -8q72 51 113 147
q39 91 39 226q0 134 -39 225q-42 97 -113 148q-74 53 -176 53q-105 0 -176 -51t-113 -148q-39 -91 -39 -223t39 -223q41 -95 115 -148q71 -51 176 -51q102 0 176 53z" />
    <glyph glyph-name="q" unicode="q" horiz-adv-x="1306" 
d="M946 1098l207 -6v-1500h-201v641q-36 -80 -94 -135q-60 -57 -137 -92q-73 -33 -160 -33q-130 0 -239 74q-105 72 -168 203q-62 130 -62 295t62 295t168 202q109 74 239 74q102 0 176 -39q78 -41 129 -104q53 -65 80 -142v267zM807 170l-2 -8q75 54 115 147q38 89 38 226
q0 136 -38 225q-41 96 -113 147q-76 54 -176 54q-103 0 -176 -52q-72 -51 -113 -147q-39 -91 -39 -223q0 -133 39 -224q41 -96 113 -147q71 -51 176 -51q102 0 176 53z" />
    <glyph glyph-name="r" unicode="r" horiz-adv-x="763" 
d="M360 862h-2q82 258 363 258v-198h-62q-100 0 -167 -25q-65 -24 -99 -82q-33 -56 -33 -153v-662h-200v1098h200v-236z" />
    <glyph glyph-name="s" unicode="s" horiz-adv-x="1085" 
d="M317 16l-6 -8q-101 40 -166 117q-64 76 -79 188h204q21 -106 92 -153q68 -45 166 -45q128 0 195 43q68 44 68 121q0 49 -21 83q-21 35 -68 56q-55 25 -129 41l-153 33q-152 35 -236 104q-86 71 -86 190q0 95 58 168q60 75 157 115q100 41 219 41q113 0 201 -33
q94 -36 156 -100q64 -67 88 -162h-205q-21 71 -88 111q-68 41 -149 41q-60 0 -115 -19q-50 -17 -86 -53q-33 -33 -33 -80q0 -42 25 -70t69 -45q41 -16 127 -32l154 -33q168 -37 246 -115q77 -77 77 -207q0 -105 -57 -180q-59 -77 -162 -117q-106 -41 -239 -41
q-121 0 -224 41z" />
    <glyph glyph-name="t" unicode="t" horiz-adv-x="794" 
d="M741 152l-4 -152h-143q-101 0 -174 33q-80 36 -121 100q-43 67 -43 168v4v641h-231v152h231v260h201v-260h278v-152h-278v-641v-4q0 -82 41 -117q38 -32 120 -32h123z" />
    <glyph glyph-name="u" unicode="u" horiz-adv-x="1222" 
d="M862 1098l199 2v-1098h-201v219q-41 -105 -125 -172q-85 -67 -213 -67q-120 0 -205 55q-86 56 -129 153q-43 98 -43 226v4v680h201v-649v-5q0 -161 68 -241t190 -80q123 0 191 80q67 79 67 244v649z" />
    <glyph glyph-name="v" unicode="v" horiz-adv-x="1177" 
d="M590 10l356 1088h205l-367 -1098h-391l-366 1098h204z" />
    <glyph glyph-name="w" unicode="w" horiz-adv-x="1822" 
d="M1315 10l268 1088h195l-271 -1098h-383l-213 1087l-213 -1087h-383l-270 1098h195l268 -1088l213 1088h381z" />
    <glyph glyph-name="x" unicode="x" horiz-adv-x="1126" 
d="M682 590l432 -590h-217l-334 457l-334 -457h-217l432 590l-389 508h217l291 -381l291 381h217z" />
    <glyph glyph-name="y" unicode="y" horiz-adv-x="1146" 
d="M590 139l321 959h209l-504 -1499h-208l176 522h-195l-381 977h207z" />
    <glyph glyph-name="z" unicode="z" horiz-adv-x="1054" 
d="M948 895l-653 -743h696v-152h-905v203l653 743h-641v152h850v-203z" />
    <glyph glyph-name="braceleft" unicode="{" horiz-adv-x="702" 
d="M463 958l2 -10q0 -123 -31 -196q-29 -69 -86 -107q-52 -35 -145 -57q86 -23 145 -60q57 -35 86 -104q31 -73 31 -195v-4v-295v-4q0 -182 141 -182h23v-152h-47q-161 0 -240 82q-80 83 -80 224v4v293v4q0 120 -20 176q-21 58 -64 82q-41 23 -123 32v203q79 9 123 33
q42 23 64 84q20 56 20 178v258q0 144 78 228q77 83 240 83h47v-151h-23q-141 0 -141 -186v-261z" />
    <glyph glyph-name="bar" unicode="|" horiz-adv-x="565" 
d="M379 -463h-193v2142h193v-2142z" />
    <glyph glyph-name="braceright" unicode="}" horiz-adv-x="702" 
d="M461 809l-2 2q21 -59 63 -82q44 -24 123 -33v-202q-79 -9 -123 -33q-42 -23 -63 -82t-21 -178v-293q0 -143 -78 -227q-76 -82 -239 -82h-47v151h22q142 0 142 187v294q0 127 30 197q30 71 86 109q53 36 146 61q-93 22 -146 55q-56 35 -86 105q-30 71 -30 194v4v261v4
q0 182 -142 182h-22v151h47q161 0 239 -81q80 -83 80 -224v-4v-258v-4q0 -115 21 -174z" />
    <glyph glyph-name="asciitilde" unicode="~" horiz-adv-x="1363" 
d="M104 541l-4 -6q68 88 154 143q80 51 172 51q56 0 109 -12q55 -13 141 -49q78 -35 133 -50q52 -14 106 -14q71 0 121 33q58 38 117 100l102 -102q-71 -89 -153 -141t-172 -52q-50 0 -107 13q-55 13 -141 49q-79 33 -135 49t-105 16q-72 0 -123 -32t-112 -99z" />
    <glyph glyph-name="uni00A0" unicode="&#xa0;" horiz-adv-x="512" 
 />
    <glyph glyph-name="exclamdown" unicode="&#xa1;" horiz-adv-x="532" 
d="M387 852h-242v246h242v-246zM377 -401h-221l22 983h176z" />
    <glyph glyph-name="cent" unicode="&#xa2;" horiz-adv-x="1265" 
d="M1167 367h-6q-38 -166 -147 -263q-111 -99 -269 -120v-252h-184v252q-130 21 -233 98q-101 76 -154 197t-53 270t53 270t154 197q103 77 233 98v244h184v-244q163 -24 271 -129q107 -104 137 -260h-205q-21 87 -69 149q-51 66 -129 87v-826q157 44 213 232h204zM385 276
q61 -107 174 -141v823q-113 -34 -174 -141t-61 -270q0 -164 61 -271z" />
    <glyph glyph-name="sterling" unicode="&#xa3;" horiz-adv-x="1269" 
d="M1184 168l-6 -164h-1049v225q106 61 174 117q67 55 96 111q31 60 31 133q0 46 -12 86h-316v168h205q-68 74 -110 153q-39 74 -39 172q0 122 67 213q69 94 185 146q114 51 256 51q136 0 245 -47q105 -45 174 -133q67 -84 82 -201h-209q-18 109 -94 164t-192 55
q-77 0 -150 -31q-68 -29 -110 -90q-41 -59 -41 -139q0 -77 37 -141q39 -67 108 -142l33 -36h479v-168h-389q6 -30 6 -68q0 -95 -37 -168q-38 -74 -114 -135q-71 -57 -203 -131h893z" />
    <glyph glyph-name="currency" unicode="&#xa4;" horiz-adv-x="1347" 
d="M1151 610h2q-23 -70 -68 -137l140 -139l-125 -125l-137 137q-59 -42 -136 -67t-151 -25q-75 0 -152 25q-75 24 -135 67l-137 -137l-125 125l137 137q-43 60 -69 139q-25 77 -25 152q0 76 25 153t69 138l-139 137l125 123l139 -137q59 42 133 67q73 25 152 25
q78 0 151 -25q74 -25 133 -67l140 137l125 -123l-140 -137q93 -137 93 -291q0 -75 -25 -152zM397 596q43 -74 117 -117q73 -43 162 -43t162 43q72 43 116 117q43 73 43 166t-43 166q-44 74 -116 114q-74 41 -162 41t-162 -41q-74 -40 -117 -114q-43 -73 -43 -166t43 -166z
" />
    <glyph glyph-name="yen" unicode="&#xa5;" horiz-adv-x="1501" 
d="M1214 1556h232l-502 -747h352v-168h-442v-145h442v-168h-442v-328h-205v328h-446v168h446v145h-446v168h356l-502 747h232l463 -698z" />
    <glyph glyph-name="brokenbar" unicode="&#xa6;" horiz-adv-x="577" 
d="M385 848h-192v831h192v-831zM385 -463h-192v832h192v-832z" />
    <glyph glyph-name="section" unicode="&#xa7;" horiz-adv-x="1216" 
d="M1024 223l-6 -4q22 -52 22 -106q0 -92 -51 -166q-53 -77 -149 -119q-98 -43 -238 -43q-132 0 -233 43q-103 44 -166 119q-64 76 -82 178h209q18 -81 96 -129q77 -47 178 -47q73 0 123 20q53 21 80 56q29 37 29 79q0 40 -25 76t-68 60q-51 28 -118 61l-299 141
q-128 61 -187 138q-57 75 -57 178q0 83 43 153q46 74 135 140q-46 43 -67 92q-23 54 -23 106q0 92 51 166q54 79 150 121q98 43 237 43q133 0 234 -43q103 -44 166 -119q67 -79 84 -178h-209q-18 81 -97 129q-77 47 -178 47q-73 0 -123 -20q-51 -20 -79 -56q-27 -35 -27 -79
q0 -42 24 -76q23 -33 68 -58q27 -15 121 -61l299 -141q127 -60 186 -138q58 -76 58 -178q0 -83 -43 -153q-45 -73 -136 -140q48 -45 68 -92zM772 422l45 -25q52 46 74 88q24 46 24 88q0 67 -36 115q-36 47 -131 94l-318 152l-47 22q-52 -46 -74 -88q-24 -46 -24 -88
q0 -63 37 -112q36 -47 133 -95z" />
    <glyph glyph-name="dieresis" unicode="&#xa8;" horiz-adv-x="747" 
d="M268 1286h-217v270h217v-270zM696 1286h-217v270h217v-270z" />
    <glyph glyph-name="copyright" unicode="&#xa9;" horiz-adv-x="1916" 
d="M537 49l-5 -8q-193 114 -307 307q-112 190 -112 422q0 228 114 422q113 192 308 307t423 115q232 0 424 -113q195 -115 308 -307q114 -193 114 -420q0 -230 -112 -420q-113 -192 -308 -307q-192 -113 -423 -113q-229 0 -424 115zM1296 178v-2q156 92 248 248
q92 157 92 344t-92 344q-93 159 -248 250q-157 92 -344 92t-344 -92q-156 -92 -248 -248q-92 -157 -92 -344t92 -344q92 -156 248 -248q157 -92 344 -92t344 92zM725 342l-6 -4q-106 62 -164 172q-59 112 -59 252t59 252q58 110 164 172q104 61 235 61q102 0 195 -41
t154 -114q60 -72 81 -174h-174q-27 91 -92 141q-64 49 -157 49q-80 0 -142 -39t-100 -117q-37 -75 -37 -188q0 -114 37 -189t102 -116q62 -39 142 -39q96 0 163 49q71 52 91 143h176q-18 -98 -80 -172q-59 -71 -154 -116q-90 -43 -198 -43q-132 0 -236 61z" />
    <glyph glyph-name="ordfeminine" unicode="&#xaa;" horiz-adv-x="688" 
d="M492 1540l4 -8q59 -30 86 -80q28 -51 28 -109v-4v-350h-159v103q-20 -47 -70 -82q-47 -33 -123 -33q-51 0 -100 22q-46 21 -74 66q-27 43 -27 96q0 83 64 123t174 49l147 15v6v4q0 50 -28 72t-72 22q-42 0 -66 -18q-23 -17 -26 -48h-168q9 86 80 136q70 49 182 49
q88 0 148 -31zM414 1118q30 40 30 109v14l-86 -8q-131 -12 -131 -80q0 -34 27 -55t70 -21q60 0 90 41z" />
    <glyph glyph-name="guillemotleft" unicode="&#xab;" horiz-adv-x="1255" 
d="M446 1012h238l-350 -449l350 -471h-238l-350 471zM926 1012h237l-350 -449l350 -471h-237l-351 471z" />
    <glyph glyph-name="logicalnot" unicode="&#xac;" horiz-adv-x="1259" 
d="M1106 227h-160v482h-846v155h1006v-637z" />
    <glyph glyph-name="uni00AD" unicode="&#xad;" horiz-adv-x="921" 
d="M784 496h-647v168h647v-168z" />
    <glyph glyph-name="registered" unicode="&#xae;" horiz-adv-x="1916" 
d="M1380 1505l-4 -8q193 -114 307 -307q115 -195 115 -420q0 -230 -112 -420q-113 -192 -308 -307q-192 -113 -424 -113q-229 0 -424 115q-193 114 -307 307q-112 190 -112 422q0 229 114 422t307 307q195 115 424 115q232 0 424 -113zM1296 178v-2q156 92 248 248
q92 157 92 344t-92 344q-93 159 -248 250q-157 92 -344 92t-344 -92q-156 -92 -248 -248q-92 -157 -92 -344t92 -344q92 -156 248 -248q157 -92 344 -92t344 92zM1294 780l2 -2q-56 -71 -155 -100l229 -395h-194l-207 374h-185v-374h-172v956h371q116 0 197 -37
q86 -39 127 -100q43 -64 43 -154q0 -97 -56 -168zM784 1098v-297h197q89 0 141 37t52 108t-52 111q-53 41 -141 41h-197z" />
    <glyph glyph-name="macron" unicode="&#xaf;" horiz-adv-x="813" 
d="M762 1319h-711v151h711v-151z" />
    <glyph glyph-name="degree" unicode="&#xb0;" horiz-adv-x="835" 
d="M252 961q-77 47 -123 122q-45 74 -45 166t45 166q47 77 123 123q74 45 166 45t166 -45q76 -46 123 -123q45 -74 45 -166t-45 -166q-46 -75 -123 -122q-76 -46 -166 -46t-166 46zM508 1092l-4 -5q40 24 65 66t25 90t-25 90q-26 44 -63 66q-40 24 -90 24t-90 -24t-64 -64
q-24 -41 -24 -90t24 -90q22 -37 66 -63q42 -25 90 -25t90 25z" />
    <glyph glyph-name="plusminus" unicode="&#xb1;" horiz-adv-x="1339" 
d="M750 1098v-340h469v-156h-469v-352h-160v352h-469v156h469v340h160zM1219 0h-1098v156h1098v-156z" />
    <glyph glyph-name="uni00B2" unicode="&#xb2;" horiz-adv-x="716" 
d="M260 1133l408 -3v-133h-619v168l340 269q51 41 68 63q22 28 22 68q0 45 -33 71q-37 29 -92 29q-56 0 -92 -31q-34 -30 -37 -82h-172q3 67 41 123t105 86q70 31 155 31q88 0 158 -31q67 -30 104 -82t37 -110q0 -78 -32 -129q-35 -57 -107 -111z" />
    <glyph glyph-name="uni00B3" unicode="&#xb3;" horiz-adv-x="724" 
d="M608 1350l-2 -7q68 -47 68 -135q0 -111 -86 -170t-236 -59q-142 0 -221 61q-80 62 -92 177h172q3 -52 41 -82q39 -31 100 -31q62 0 107 31q43 30 43 84q0 60 -51 86t-125 26h-50v133h50q65 0 112 29q43 27 43 72q0 40 -37 67t-92 27q-54 0 -88 -27t-37 -73h-172
q3 63 41 116q37 52 105 82q70 31 151 31q82 0 152 -25q69 -25 108 -69q39 -45 39 -105q0 -154 -202 -184q92 -9 159 -55z" />
    <glyph glyph-name="acute" unicode="&#xb4;" horiz-adv-x="616" 
d="M238 1247h-187l238 309h276z" />
    <glyph glyph-name="uni00B5" unicode="&#xb5;" horiz-adv-x="1351" 
d="M1286 152l-6 -152h-104q-127 0 -191 43q-65 44 -86 137l-6 41q-40 -107 -125 -174t-215 -67q-45 0 -92 12q-41 10 -82 37v-428h-201v1499h201v-651v-5q0 -160 67 -239q68 -80 191 -80q122 0 190 80t68 244v649h201v-832v-4q0 -61 28 -86q27 -24 93 -24h69z" />
    <glyph glyph-name="paragraph" unicode="&#xb6;" horiz-adv-x="1361" 
d="M487 700l-2 2q-117 0 -215 58q-96 57 -153 158q-56 100 -56 215t56 215q55 98 153 153t217 55h666v-1746h-188v1587h-289v-1587h-189v890z" />
    <glyph glyph-name="periodcentered" unicode="&#xb7;" horiz-adv-x="516" 
d="M379 481h-242v246h242v-246z" />
    <glyph glyph-name="cedilla" unicode="&#xb8;" horiz-adv-x="415" 
d="M205 -72l4 -2q74 -9 117 -55t43 -113q0 -76 -56 -123t-149 -47h-111v117h92q40 0 62 16t22 50q0 30 -22 49q-21 18 -55 18h-70v162h123v-72z" />
    <glyph glyph-name="uni00B9" unicode="&#xb9;" horiz-adv-x="458" 
d="M227 1778h131v-779h-168v537h-170v133h29q50 0 88 10q32 8 53 29q19 19 31 53z" />
    <glyph glyph-name="ordmasculine" unicode="&#xba;" horiz-adv-x="696" 
d="M190 1022h-4q-67 37 -104 104t-37 154t37 154t104 104t158 37t158 -37t104 -104t37 -154t-37 -154t-104 -104t-156 -37t-156 37zM440 1147h-4q35 47 35 129q0 85 -33 129q-35 47 -98 47t-98 -47q-33 -44 -33 -129q0 -82 35 -129t98 -47t98 47z" />
    <glyph glyph-name="guillemotright" unicode="&#xbb;" horiz-adv-x="1255" 
d="M92 1012h238l350 -449l-350 -471h-238l350 471zM571 1012h238l350 -449l-350 -471h-238l351 471z" />
    <glyph glyph-name="onequarter" unicode="&#xbc;" horiz-adv-x="1511" 
d="M1337 336h109v-133h-109v-203h-168v203h-393v168l238 407h323v-442zM1169 758l-241 -422h241v422zM281 1556h131v-778h-168v537h-170v133h28q50 0 88 10q34 9 54 29q18 18 30 53zM285 0h-201l981 1556h201z" />
    <glyph glyph-name="onehalf" unicode="&#xbd;" horiz-adv-x="1544" 
d="M1065 133l408 -2v-133h-619v168l340 268q49 39 68 64q22 28 22 67q0 46 -33 72q-37 29 -92 29q-56 0 -92 -31q-34 -30 -37 -82h-172q3 67 41 123t105 86q70 31 155 31q88 0 158 -31q67 -30 104 -82t37 -111q0 -76 -33 -129q-35 -56 -106 -110zM274 1554h132v-778h-168
v537h-170v133h28q50 0 88 10q34 9 54 29q18 18 30 53zM279 -2h-201l981 1556h201z" />
    <glyph glyph-name="threequarters" unicode="&#xbe;" horiz-adv-x="1720" 
d="M637 1128l-2 -6q67 -46 67 -135q0 -111 -86 -170t-235 -59q-142 0 -221 61q-80 62 -92 176h172q3 -52 41 -82q37 -30 100 -30t106 30t43 84q0 60 -51 86q-52 27 -125 27h-49v133h49q66 0 113 29q43 27 43 71q0 41 -37 68q-38 27 -92 27q-53 0 -88 -27q-34 -27 -37 -74
h-172q3 64 41 117q37 52 104 82q70 31 152 31q81 0 151 -25q71 -25 109 -69q39 -45 39 -105q0 -154 -203 -184q92 -9 160 -56zM489 -6h-200l981 1556h200zM1542 330h109v-133h-109v-203h-168v203h-393v168l238 407h323v-442zM1374 752l-241 -422h241v422z" />
    <glyph glyph-name="questiondown" unicode="&#xbf;" horiz-adv-x="1126" 
d="M717 852h-242v246h242v-246zM299 -381h-2q-110 43 -172 123t-62 186q0 68 25 123q24 52 62 90q43 43 98 90l96 78q73 60 96 88q34 42 47 78q15 41 15 103h200q0 -115 -43 -191q-44 -77 -133 -151l-94 -76q-58 -47 -90 -78q-31 -31 -49 -68q-19 -40 -19 -82q0 -56 31 -104
q30 -46 96 -74q62 -26 154 -26q95 0 158 32q67 34 108 93q40 58 43 135h205q-6 -130 -76 -221q-72 -93 -184 -142q-113 -49 -250 -49q-150 0 -260 43z" />
    <glyph glyph-name="Agrave" unicode="&#xc0;" horiz-adv-x="1554" 
d="M1548 0h-221l-168 471h-764l-168 -471h-221l559 1556h424zM778 1548l-317 -893h633zM877 1686h-199l-342 270h289z" />
    <glyph glyph-name="Aacute" unicode="&#xc1;" horiz-adv-x="1554" 
d="M1548 0h-221l-168 471h-764l-168 -471h-221l559 1556h424zM778 1548l-317 -893h633zM877 1686h-199l252 270h289z" />
    <glyph glyph-name="Acircumflex" unicode="&#xc2;" horiz-adv-x="1554" 
d="M1548 0h-221l-168 471h-764l-168 -471h-221l559 1556h424zM778 1548l-317 -893h633zM915 1956l256 -270h-192l-203 176l-203 -176h-192l256 270h278z" />
    <glyph glyph-name="Atilde" unicode="&#xc3;" horiz-adv-x="1554" 
d="M1548 0h-221l-168 471h-764l-168 -471h-221l559 1556h424zM778 1548l-317 -893h633zM430 1710v-4q3 68 31 123q28 54 74 78t98 24q78 0 162 -41q27 -15 61 -24q31 -8 62 -8q48 0 81 20t45 55h80q-3 -71 -30 -123q-26 -50 -74 -75t-98 -25q-78 0 -162 41q-30 17 -62 25
q-38 10 -61 10q-47 0 -82 -21q-33 -20 -45 -55h-80z" />
    <glyph glyph-name="Adieresis" unicode="&#xc4;" horiz-adv-x="1554" 
d="M1548 0h-221l-168 471h-764l-168 -471h-221l559 1556h424zM778 1548l-317 -893h633zM676 1686h-223v270h223v-270zM1100 1686h-223v270h223v-270z" />
    <glyph glyph-name="Aring" unicode="&#xc5;" horiz-adv-x="1554" 
d="M1548 0h-221l-168 471h-764l-168 -471h-221l559 1556h424zM778 1548l-317 -893h633zM643 1708l-4 -2q-59 36 -94 98t-35 133q0 70 35 129q35 58 96 93q61 34 133 34q71 0 129 -34q57 -34 92 -93t35 -129q0 -69 -35 -131q-34 -61 -92 -98t-129 -37q-70 0 -131 37z
M829 1829q29 19 43 45q17 31 17 61q0 49 -35 84t-84 35q-48 0 -86 -35q-37 -34 -37 -84q0 -30 17 -61q14 -26 43 -45t61 -19t61 19z" />
    <glyph glyph-name="AE" unicode="&#xc6;" horiz-adv-x="2078" 
d="M1292 711l191 -527h479v-184h-635l-168 471h-764l-168 -471h-221l559 1556h1379v-184h-889l172 -477h702v-184h-637zM778 1548l-317 -893h633z" />
    <glyph glyph-name="Ccedilla" unicode="&#xc7;" horiz-adv-x="1597" 
d="M1532 508v-10q-70 -243 -234 -375q-165 -133 -399 -154v-49q76 -9 119 -55t43 -113q0 -77 -55 -123q-54 -45 -152 -45h-115v123h90q38 0 62 17q22 16 22 47q0 27 -22 43t-55 16h-66v143q-192 12 -342 117q-154 108 -238 283q-86 180 -86 403q0 236 95 418t260 283
q163 100 375 100q175 0 317 -68q147 -70 238 -186q95 -120 135 -276h-215q-58 163 -179 258q-122 96 -296 96q-151 0 -269 -80q-114 -78 -180 -221q-63 -138 -63 -324q0 -181 65 -323q66 -144 178 -222q113 -79 258 -79q188 0 312 92t182 264h215z" />
    <glyph glyph-name="Egrave" unicode="&#xc8;" horiz-adv-x="1343" 
d="M401 711v-527h826v-184h-1032v1556h1013v-184h-807v-477h793v-184h-793zM840 1686h-199l-342 270h289z" />
    <glyph glyph-name="Eacute" unicode="&#xc9;" horiz-adv-x="1343" 
d="M401 711v-527h826v-184h-1032v1556h1013v-184h-807v-477h793v-184h-793zM764 1686h-199l252 270h289z" />
    <glyph glyph-name="Ecircumflex" unicode="&#xca;" horiz-adv-x="1343" 
d="M401 711v-527h826v-184h-1032v1556h1013v-184h-807v-477h793v-184h-793zM842 1956l256 -270h-193l-203 176l-202 -176h-193l256 270h279z" />
    <glyph glyph-name="Edieresis" unicode="&#xcb;" horiz-adv-x="1343" 
d="M401 711v-527h826v-184h-1032v1556h1013v-184h-807v-477h793v-184h-793zM602 1686h-223v270h223v-270zM1026 1686h-223v270h223v-270z" />
    <glyph glyph-name="Igrave" unicode="&#xcc;" horiz-adv-x="595" 
d="M401 0h-206v1556h206v-1556zM383 1686h-199l-342 270h289z" />
    <glyph glyph-name="Iacute" unicode="&#xcd;" horiz-adv-x="595" 
d="M401 0h-206v1556h206v-1556zM408 1686h-199l252 270h289z" />
    <glyph glyph-name="Icircumflex" unicode="&#xce;" horiz-adv-x="595" 
d="M401 0h-206v1556h206v-1556zM438 1956l256 -270h-192l-203 176l-203 -176h-192l256 270h278z" />
    <glyph glyph-name="Idieresis" unicode="&#xcf;" horiz-adv-x="595" 
d="M401 0h-206v1556h206v-1556zM199 1686h-224v270h224v-270zM623 1686h-224v270h224v-270z" />
    <glyph glyph-name="Eth" unicode="&#xd0;" horiz-adv-x="1601" 
d="M725 1556h-2q229 0 407 -90q177 -89 271 -264q96 -178 96 -424q0 -249 -94 -424q-95 -176 -270 -264q-178 -90 -408 -90h-530v715h-183v180h183v661h530zM729 184l-4 4q175 0 299 68q123 67 188 201q66 135 66 323q0 189 -64 320q-65 132 -188 203q-120 69 -297 69h-330
v-477h404v-180h-404v-531h330z" />
    <glyph glyph-name="Ntilde" unicode="&#xd1;" horiz-adv-x="1726" 
d="M1325 8v1548h207v-1556h-428l-703 1548v-1548h-206v1556h428zM563 1710v-4q3 68 31 123q28 54 74 78t98 24q78 0 162 -41q27 -15 61 -24q31 -8 62 -8q49 0 82 20t45 55h79q-3 -71 -30 -123q-26 -50 -74 -75t-98 -25q-78 0 -162 41q-30 17 -62 25q-38 10 -61 10
q-48 0 -82 -21q-33 -20 -45 -55h-80z" />
    <glyph glyph-name="Ograve" unicode="&#xd2;" horiz-adv-x="1687" 
d="M459 78q-171 103 -264 282q-95 182 -95 418t95 418q94 181 264 283q166 100 387 100t387 -100q170 -102 264 -283t94 -418t-94 -418q-93 -179 -264 -282q-168 -101 -387 -101t-387 101zM1118 231q118 78 187 222q67 140 67 323q0 184 -67 324q-68 142 -187 221
q-121 80 -276 80q-156 0 -277 -80q-117 -78 -186 -221q-68 -142 -68 -324q0 -181 68 -323q69 -145 186 -222q119 -79 277 -79q157 0 276 79zM981 1686h-199l-342 270h289z" />
    <glyph glyph-name="Oacute" unicode="&#xd3;" horiz-adv-x="1687" 
d="M459 78q-171 103 -264 282q-95 182 -95 418t95 418q94 181 264 283q166 100 387 100t387 -100q170 -102 264 -283t94 -418t-94 -418q-93 -179 -264 -282q-168 -101 -387 -101t-387 101zM1118 231q118 78 187 222q67 140 67 323q0 184 -67 324q-68 142 -187 221
q-121 80 -276 80q-156 0 -277 -80q-117 -78 -186 -221q-68 -142 -68 -324q0 -181 68 -323q69 -145 186 -222q119 -79 277 -79q157 0 276 79zM905 1686h-198l251 270h289z" />
    <glyph glyph-name="Ocircumflex" unicode="&#xd4;" horiz-adv-x="1687" 
d="M459 78q-171 103 -264 282q-95 182 -95 418t95 418q94 181 264 283q166 100 387 100t387 -100q170 -102 264 -283t94 -418t-94 -418q-93 -179 -264 -282q-168 -101 -387 -101t-387 101zM1118 231q118 78 187 222q67 140 67 323q0 184 -67 324q-68 142 -187 221
q-121 80 -276 80q-156 0 -277 -80q-117 -78 -186 -221q-68 -142 -68 -324q0 -181 68 -323q69 -145 186 -222q119 -79 277 -79q157 0 276 79zM983 1956l256 -270h-192l-203 176l-203 -176h-192l256 270h278z" />
    <glyph glyph-name="Otilde" unicode="&#xd5;" horiz-adv-x="1687" 
d="M459 78q-171 103 -264 282q-95 182 -95 418t95 418q94 181 264 283q166 100 387 100t387 -100q170 -102 264 -283t94 -418t-94 -418q-93 -179 -264 -282q-168 -101 -387 -101t-387 101zM1118 231q118 78 187 222q67 140 67 323q0 184 -67 324q-68 142 -187 221
q-121 80 -276 80q-156 0 -277 -80q-117 -78 -186 -221q-68 -142 -68 -324q0 -181 68 -323q69 -145 186 -222q119 -79 277 -79q157 0 276 79zM498 1710v-4q3 70 30 123q28 54 74 78q47 24 98 24q78 0 162 -41q27 -15 62 -24q31 -8 61 -8q49 0 82 20t45 55h80q-3 -68 -31 -123
q-26 -50 -74 -75t-98 -25q-78 0 -162 41q-31 17 -61 25q-38 10 -61 10q-47 0 -82 -21q-33 -20 -45 -55h-80z" />
    <glyph glyph-name="Odieresis" unicode="&#xd6;" horiz-adv-x="1687" 
d="M459 78q-171 103 -264 282q-95 182 -95 418t95 418q94 181 264 283q166 100 387 100t387 -100q170 -102 264 -283t94 -418t-94 -418q-93 -179 -264 -282q-168 -101 -387 -101t-387 101zM1118 231q118 78 187 222q67 140 67 323q0 184 -67 324q-68 142 -187 221
q-121 80 -276 80q-156 0 -277 -80q-117 -78 -186 -221q-68 -142 -68 -324q0 -181 68 -323q69 -145 186 -222q119 -79 277 -79q157 0 276 79zM743 1686h-223v270h223v-270zM1167 1686h-223v270h223v-270z" />
    <glyph glyph-name="multiply" unicode="&#xd7;" horiz-adv-x="1171" 
d="M963 1034l108 -106l-377 -377l377 -379l-108 -106l-377 376l-377 -376l-109 106l379 379l-379 377l109 106l377 -377z" />
    <glyph glyph-name="Oslash" unicode="&#xd8;" horiz-adv-x="1687" 
d="M1722 1556l-278 -286q68 -103 102 -223q35 -125 35 -267q0 -237 -94 -418q-93 -179 -264 -282q-166 -100 -387 -100q-139 0 -258 43q-125 45 -216 122l-137 -143h-268l276 289q-68 103 -102 223q-35 125 -35 266q0 237 94 418q94 180 265 283q166 100 387 100
q138 0 260 -43t217 -123l135 141h268zM385 444l799 826q-65 62 -154 98q-87 35 -186 35q-156 0 -277 -80q-117 -78 -186 -221q-68 -142 -68 -324q0 -187 72 -334zM1298 1110l-798 -831q64 -64 151 -99q82 -33 189 -33q155 0 276 80q118 78 187 222q67 140 67 323
q0 191 -72 338z" />
    <glyph glyph-name="Ugrave" unicode="&#xd9;" horiz-adv-x="1579" 
d="M326 141l-2 -4q-148 168 -148 479v5v931h207v-944v-4q0 -230 102 -344q101 -113 306 -113q200 0 303 115q100 112 100 348v944h207v-931q0 -314 -148 -482q-147 -166 -462 -166q-318 0 -465 166zM926 1679h-199l-342 271h289z" />
    <glyph glyph-name="Uacute" unicode="&#xda;" horiz-adv-x="1579" 
d="M326 141l-2 -4q-148 168 -148 479v5v931h207v-944v-4q0 -230 102 -344q101 -113 306 -113q200 0 303 115q100 112 100 348v944h207v-931q0 -314 -148 -482q-147 -166 -462 -166q-318 0 -465 166zM850 1679h-199l252 271h289z" />
    <glyph glyph-name="Ucircumflex" unicode="&#xdb;" horiz-adv-x="1579" 
d="M326 141l-2 -4q-148 168 -148 479v5v931h207v-944v-4q0 -230 102 -344q101 -113 306 -113q200 0 303 115q100 112 100 348v944h207v-931q0 -314 -148 -482q-147 -166 -462 -166q-318 0 -465 166zM928 1950l256 -271h-193l-203 176l-202 -176h-193l256 271h279z" />
    <glyph glyph-name="Udieresis" unicode="&#xdc;" horiz-adv-x="1579" 
d="M326 141l-2 -4q-148 168 -148 479v5v931h207v-944v-4q0 -230 102 -344q101 -113 306 -113q200 0 303 115q100 112 100 348v944h207v-931q0 -314 -148 -482q-147 -166 -462 -166q-318 0 -465 166zM688 1679h-223v271h223v-271zM1112 1679h-223v271h223v-271z" />
    <glyph glyph-name="Yacute" unicode="&#xdd;" horiz-adv-x="1382" 
d="M1149 1556h237l-591 -888v-668h-207v668l-592 888h235l459 -690zM752 1686h-199l252 270h289z" />
    <glyph glyph-name="Thorn" unicode="&#xde;" horiz-adv-x="1449" 
d="M768 1290h-2q186 0 317 -55q133 -56 203 -166q72 -113 72 -266q0 -156 -70 -266t-203 -166t-317 -56h-367v-315h-206v1556h206v-266h367zM772 500q184 0 277 75q94 76 94 228q0 151 -94 227t-277 76h-373v-606h373z" />
    <glyph glyph-name="germandbls" unicode="&#xdf;" horiz-adv-x="1277" 
d="M983 803l-12 -4q88 -48 149 -140q58 -88 58 -215q0 -141 -52 -245q-53 -106 -151 -164t-236 -58q-127 0 -243 43v152q59 -27 98 -37q46 -12 98 -12q143 0 215 90q70 88 70 246q0 99 -43 172t-127 117q-82 43 -201 43h-20v147h22q150 0 221 68q72 69 72 190q0 76 -35 129
q-36 55 -92 78q-58 24 -129 24q-151 0 -221 -94q-72 -97 -72 -258v-1081h-198v1065q0 162 61 278q62 118 172 179t262 61q132 0 238 -47q105 -46 164 -133q59 -86 59 -195q0 -141 -84 -219q-82 -76 -240 -117q109 -16 197 -63z" />
    <glyph glyph-name="agrave" unicode="&#xe0;" horiz-adv-x="1193" 
d="M852 1061l-4 -12q98 -56 147 -152q47 -92 47 -203v-4v-702h-200v225q-42 -85 -86 -135q-47 -53 -117 -80q-76 -29 -172 -29q-101 0 -184 47t-133 127t-50 181q0 120 68 188q69 69 164 96q105 30 221 41l295 31v18v4q0 74 -27 136q-27 61 -86 96t-141 35q-74 0 -129 -27
q-56 -27 -86 -74t-39 -98h-205q12 102 74 182t160 123t225 43q159 0 258 -57zM702 143v-6q68 47 103 127q35 81 35 182v82l-219 -22q-94 -8 -166 -25q-65 -15 -111 -55q-45 -39 -45 -115q0 -65 31 -116q30 -50 86 -74q58 -25 121 -25q97 0 165 47zM698 1227h-186l-328 309
h277z" />
    <glyph glyph-name="aacute" unicode="&#xe1;" horiz-adv-x="1193" 
d="M852 1061l-4 -12q98 -56 147 -152q47 -92 47 -203v-4v-702h-200v225q-42 -85 -86 -135q-47 -53 -117 -80q-76 -29 -172 -29q-101 0 -184 47t-133 127t-50 181q0 120 68 188q69 69 164 96q105 30 221 41l295 31v18v4q0 74 -27 136q-27 61 -86 96t-141 35q-74 0 -129 -27
q-56 -27 -86 -74t-39 -98h-205q12 102 74 182t160 123t225 43q159 0 258 -57zM702 143v-6q68 47 103 127q35 81 35 182v82l-219 -22q-94 -8 -166 -25q-65 -15 -111 -55q-45 -39 -45 -115q0 -65 31 -116q30 -50 86 -74q58 -25 121 -25q97 0 165 47zM659 1227h-186l238 309
h276z" />
    <glyph glyph-name="acircumflex" unicode="&#xe2;" horiz-adv-x="1193" 
d="M852 1061l-4 -12q98 -56 147 -152q47 -92 47 -203v-4v-702h-200v225q-42 -85 -86 -135q-47 -53 -117 -80q-76 -29 -172 -29q-101 0 -184 47t-133 127t-50 181q0 120 68 188q69 69 164 96q105 30 221 41l295 31v18v4q0 74 -27 136q-27 61 -86 96t-141 35q-74 0 -129 -27
q-56 -27 -86 -74t-39 -98h-205q12 102 74 182t160 123t225 43q159 0 258 -57zM702 143v-6q68 47 103 127q35 81 35 182v82l-219 -22q-94 -8 -166 -25q-65 -15 -111 -55q-45 -39 -45 -115q0 -65 31 -116q30 -50 86 -74q58 -25 121 -25q97 0 165 47zM719 1536l262 -309h-184
l-211 217l-211 -217h-185l263 309h266z" />
    <glyph glyph-name="atilde" unicode="&#xe3;" horiz-adv-x="1193" 
d="M852 1061l-4 -12q98 -56 147 -152q47 -92 47 -203v-4v-702h-200v225q-42 -85 -86 -135q-47 -53 -117 -80q-76 -29 -172 -29q-101 0 -184 47t-133 127t-50 181q0 120 68 188q69 69 164 96q105 30 221 41l295 31v18v4q0 74 -27 136q-27 61 -86 96t-141 35q-74 0 -129 -27
q-56 -27 -86 -74t-39 -98h-205q12 102 74 182t160 123t225 43q159 0 258 -57zM702 143v-6q68 47 103 127q35 81 35 182v82l-219 -22q-94 -8 -166 -25q-65 -15 -111 -55q-45 -39 -45 -115q0 -65 31 -116q30 -50 86 -74q58 -25 121 -25q97 0 165 47zM256 1270h-2q3 70 31 121
q27 50 69 73q45 25 95 25q37 0 75 -12t78 -33q62 -33 117 -33q49 0 82 23q31 22 43 61h71q-3 -72 -30 -121q-28 -51 -70 -74q-44 -24 -94 -24q-39 0 -76 12q-32 10 -76 33q-62 33 -116 33q-49 0 -82 -23q-31 -22 -43 -61h-72z" />
    <glyph glyph-name="adieresis" unicode="&#xe4;" horiz-adv-x="1193" 
d="M852 1061l-4 -12q98 -56 147 -152q47 -92 47 -203v-4v-702h-200v225q-42 -85 -86 -135q-47 -53 -117 -80q-76 -29 -172 -29q-101 0 -184 47t-133 127t-50 181q0 120 68 188q69 69 164 96q105 30 221 41l295 31v18v4q0 74 -27 136q-27 61 -86 96t-141 35q-74 0 -129 -27
q-56 -27 -86 -74t-39 -98h-205q12 102 74 182t160 123t225 43q159 0 258 -57zM702 143v-6q68 47 103 127q35 81 35 182v82l-219 -22q-94 -8 -166 -25q-65 -15 -111 -55q-45 -39 -45 -115q0 -65 31 -116q30 -50 86 -74q58 -25 121 -25q97 0 165 47zM479 1266h-217v270h217
v-270zM907 1266h-217v270h217v-270z" />
    <glyph glyph-name="aring" unicode="&#xe5;" horiz-adv-x="1193" 
d="M852 1061l-4 -12q98 -56 147 -152q47 -92 47 -203v-4v-702h-200v225q-42 -85 -86 -135q-47 -53 -117 -80q-76 -29 -172 -29q-101 0 -184 47t-133 127t-50 181q0 120 68 188q69 69 164 96q105 30 221 41l295 31v18v4q0 74 -27 136q-27 61 -86 96t-141 35q-74 0 -129 -27
q-56 -27 -86 -74t-39 -98h-205q12 102 74 182t160 123t225 43q159 0 258 -57zM702 143v-6q68 47 103 127q35 81 35 182v82l-219 -22q-94 -8 -166 -25q-65 -15 -111 -55q-45 -39 -45 -115q0 -65 31 -116q30 -50 86 -74q58 -25 121 -25q97 0 165 47zM471 1249l-4 -4
q-53 31 -84 84q-31 54 -31 117q0 61 31 115q31 53 84 84q53 30 117 30t116 -30q55 -32 84 -82q31 -54 31 -113q0 -63 -31 -117q-31 -53 -84 -84q-52 -30 -114 -30t-115 30zM653 1374h-2q31 31 31 72q0 39 -31 67q-32 29 -71 29q-38 0 -70 -29q-31 -28 -31 -67q0 -41 31 -72
t72 -31q40 0 71 31z" />
    <glyph glyph-name="ae" unicode="&#xe6;" horiz-adv-x="1970" 
d="M1876 489l-829 -10q12 -174 96 -270q82 -94 221 -94q115 0 182 49q68 50 103 145h204q-47 -173 -172 -258q-127 -86 -315 -86q-163 0 -276 70t-168 192q-35 -78 -95 -135t-147 -92q-82 -33 -191 -33q-115 0 -204 47q-87 46 -138 121q-49 73 -49 164q0 179 133 256
q135 78 375 78h238v63v4q0 70 -29 136q-27 61 -86 96t-141 35q-74 0 -129 -27q-56 -27 -86 -74q-31 -49 -37 -98h-205q9 100 72 182q62 80 162 123q101 43 227 43q142 0 233 -55q94 -57 140 -141q134 198 397 198q154 0 270 -67q119 -69 183 -193q65 -127 65 -295
q0 -4 -4 -74zM1149 877l-2 2q-82 -85 -100 -248h624q-6 101 -45 174q-41 78 -106 117q-68 41 -156 41q-132 0 -215 -86zM762 211h4q80 95 80 270h-209q-168 0 -250 -43q-84 -44 -84 -139q0 -85 62 -135q61 -49 165 -49q151 0 232 96z" />
    <glyph glyph-name="ccedilla" unicode="&#xe7;" horiz-adv-x="1200" 
d="M1133 367l2 -9q-26 -117 -95 -204q-67 -84 -166 -131q-103 -48 -217 -54v-49q74 -9 117 -55t43 -113q0 -77 -55 -123q-56 -47 -150 -47h-110v117h92q39 0 61 16q23 16 23 49q0 30 -23 50q-21 18 -55 18h-70v145q-132 18 -235 95q-100 75 -156 196q-55 119 -55 275
q0 167 66 299q65 129 188 200q126 72 283 72q133 0 237 -49q105 -49 170 -139q67 -92 90 -205h-205q-24 107 -98 178q-73 70 -192 70q-106 0 -177 -51q-70 -50 -112 -148q-39 -91 -39 -223t39 -223q41 -95 115 -148q71 -51 176 -51q233 0 303 242h205z" />
    <glyph glyph-name="egrave" unicode="&#xe8;" horiz-adv-x="1218" 
d="M1124 489l-831 -4q12 -174 96 -270q82 -94 221 -94q116 0 183 49t102 145h205q-47 -173 -172 -258q-127 -86 -316 -86q-160 0 -278 74q-116 73 -178 203t-62 295q0 167 62 297q61 129 178 202q118 74 276 74q155 0 271 -67q117 -67 182 -195q65 -127 65 -291q0 -4 -4 -74
zM395 883l-2 2q-82 -85 -100 -248h627q-6 99 -46 172t-108 117q-67 43 -156 43q-132 0 -215 -86zM721 1243h-186l-328 309h276z" />
    <glyph glyph-name="eacute" unicode="&#xe9;" horiz-adv-x="1218" 
d="M1124 489l-831 -4q12 -174 96 -270q82 -94 221 -94q116 0 183 49t102 145h205q-47 -173 -172 -258q-127 -86 -316 -86q-160 0 -278 74q-116 73 -178 203t-62 295q0 167 62 297q61 129 178 202q118 74 276 74q155 0 271 -67q117 -67 182 -195q65 -127 65 -291q0 -4 -4 -74
zM395 883l-2 2q-82 -85 -100 -248h627q-6 99 -46 172t-108 117q-67 43 -156 43q-132 0 -215 -86zM682 1243h-186l237 309h277z" />
    <glyph glyph-name="ecircumflex" unicode="&#xea;" horiz-adv-x="1218" 
d="M1124 489l-831 -4q12 -174 96 -270q82 -94 221 -94q116 0 183 49t102 145h205q-47 -173 -172 -258q-127 -86 -316 -86q-160 0 -278 74q-116 73 -178 203t-62 295q0 167 62 297q61 129 178 202q118 74 276 74q155 0 271 -67q117 -67 182 -195q65 -127 65 -291q0 -4 -4 -74
zM395 883l-2 2q-82 -85 -100 -248h627q-6 99 -46 172t-108 117q-67 43 -156 43q-132 0 -215 -86zM741 1552l263 -309h-185l-211 217l-211 -217h-184l262 309h266z" />
    <glyph glyph-name="edieresis" unicode="&#xeb;" horiz-adv-x="1218" 
d="M1124 489l-831 -4q12 -174 96 -270q82 -94 221 -94q116 0 183 49t102 145h205q-47 -173 -172 -258q-127 -86 -316 -86q-160 0 -278 74q-116 73 -178 203t-62 295q0 167 62 297q61 129 178 202q118 74 276 74q155 0 271 -67q117 -67 182 -195q65 -127 65 -291q0 -4 -4 -74
zM395 883l-2 2q-82 -85 -100 -248h627q-6 99 -46 172t-108 117q-67 43 -156 43q-132 0 -215 -86zM502 1282h-217v270h217v-270zM930 1282h-217v270h217v-270z" />
    <glyph glyph-name="igrave" unicode="&#xec;" horiz-adv-x="520" 
d="M360 0h-200v1098h200v-1098zM344 1247h-186l-328 309h276z" />
    <glyph glyph-name="iacute" unicode="&#xed;" horiz-adv-x="520" 
d="M360 0h-200v1098h200v-1098zM362 1247h-186l238 309h276z" />
    <glyph glyph-name="icircumflex" unicode="&#xee;" horiz-adv-x="520" 
d="M360 0h-200v1098h200v-1098zM393 1556l262 -309h-184l-211 217l-211 -217h-184l262 309h266z" />
    <glyph glyph-name="idieresis" unicode="&#xef;" horiz-adv-x="520" 
d="M360 0h-200v1098h200v-1098zM154 1286h-217v270h217v-270zM582 1286h-217v270h217v-270z" />
    <glyph glyph-name="eth" unicode="&#xf0;" horiz-adv-x="1255" 
d="M870 1337l-2 -2q144 -150 215 -336q72 -188 72 -421q0 -184 -65 -320q-65 -135 -185 -209q-121 -74 -282 -74q-157 0 -283 72q-120 69 -186 201t-66 299q0 169 62 299q63 132 172 201q112 71 249 71q87 0 154 -33q72 -35 123 -92q54 -60 80 -131q-15 99 -74 209
q-58 107 -160 209l-245 -82l-41 121l176 57q-122 99 -289 180h309q102 -67 162 -120l250 84l41 -121zM799 174l-2 -8q71 50 112 147q39 91 39 226q0 134 -39 225q-41 97 -112 147q-76 54 -176 54q-104 0 -177 -52q-71 -50 -112 -147q-39 -91 -39 -223q0 -133 39 -224
q40 -95 114 -147q71 -51 177 -51q102 0 176 53z" />
    <glyph glyph-name="ntilde" unicode="&#xf1;" horiz-adv-x="1232" 
d="M911 1063h-2q86 -59 129 -156q43 -98 43 -223v-4v-680h-200v649v4q0 162 -68 242t-192 80q-125 0 -193 -80t-68 -244v-649h-200v1098h200v-223q40 108 127 176q85 67 218 67q123 0 206 -57zM307 1290h-2q3 70 31 121t70 74q44 24 94 24q38 0 75 -12t78 -33
q60 -32 117 -32q51 0 82 22t43 62h72q-3 -70 -31 -121t-70 -74q-45 -25 -94 -25q-35 0 -76 13q-35 11 -75 32q-62 33 -117 33q-51 0 -82 -22t-43 -62h-72z" />
    <glyph glyph-name="ograve" unicode="&#xf2;" horiz-adv-x="1247" 
d="M342 49h-2q-120 69 -186 201t-66 299t66 299q65 131 188 201q124 71 283 71t280 -71q120 -70 185 -201q65 -130 65 -299t-65 -299q-65 -131 -185 -201q-123 -72 -280 -72t-283 72zM797 176l-2 -8q71 50 112 147q39 91 39 226q0 134 -39 225q-41 97 -112 147
q-76 54 -177 54q-103 0 -176 -52q-71 -50 -112 -147q-39 -91 -39 -223t39 -223q41 -96 114 -148q71 -51 177 -51q102 0 176 53zM731 1237h-186l-328 309h277z" />
    <glyph glyph-name="oacute" unicode="&#xf3;" horiz-adv-x="1247" 
d="M342 49h-2q-120 69 -186 201t-66 299t66 299q65 131 188 201q124 71 283 71t280 -71q120 -70 185 -201q65 -130 65 -299t-65 -299q-65 -131 -185 -201q-123 -72 -280 -72t-283 72zM797 176l-2 -8q71 50 112 147q39 91 39 226q0 134 -39 225q-41 97 -112 147
q-76 54 -177 54q-103 0 -176 -52q-71 -50 -112 -147q-39 -91 -39 -223t39 -223q41 -96 114 -148q71 -51 177 -51q102 0 176 53zM692 1237h-186l237 309h277z" />
    <glyph glyph-name="ocircumflex" unicode="&#xf4;" horiz-adv-x="1247" 
d="M342 49h-2q-120 69 -186 201t-66 299t66 299q65 131 188 201q124 71 283 71t280 -71q120 -70 185 -201q65 -130 65 -299t-65 -299q-65 -131 -185 -201q-123 -72 -280 -72t-283 72zM797 176l-2 -8q71 50 112 147q39 91 39 226q0 134 -39 225q-41 97 -112 147
q-76 54 -177 54q-103 0 -176 -52q-71 -50 -112 -147q-39 -91 -39 -223t39 -223q41 -96 114 -148q71 -51 177 -51q102 0 176 53zM752 1546l262 -309h-185l-211 217l-210 -217h-185l262 309h267z" />
    <glyph glyph-name="otilde" unicode="&#xf5;" horiz-adv-x="1247" 
d="M342 49h-2q-120 69 -186 201t-66 299t66 299q65 131 188 201q124 71 283 71t280 -71q120 -70 185 -201q65 -130 65 -299t-65 -299q-65 -131 -185 -201q-123 -72 -280 -72t-283 72zM797 176l-2 -8q71 50 112 147q39 91 39 226q0 134 -39 225q-41 97 -112 147
q-76 54 -177 54q-103 0 -176 -52q-71 -50 -112 -147q-39 -91 -39 -223t39 -223q41 -96 114 -148q71 -51 177 -51q102 0 176 53zM289 1280h-2q3 72 30 121q28 51 70 74q43 24 94 24q39 0 76 -12t78 -33q62 -33 117 -33q49 0 82 23q31 22 43 61h71q-3 -72 -30 -121t-70 -73
q-45 -25 -94 -25q-38 0 -76 12q-32 10 -76 33q-62 33 -117 33q-49 0 -82 -23q-31 -22 -43 -61h-71z" />
    <glyph glyph-name="odieresis" unicode="&#xf6;" horiz-adv-x="1247" 
d="M342 49h-2q-120 69 -186 201t-66 299t66 299q65 131 188 201q124 71 283 71t280 -71q120 -70 185 -201q65 -130 65 -299t-65 -299q-65 -131 -185 -201q-123 -72 -280 -72t-283 72zM797 176l-2 -8q71 50 112 147q39 91 39 226q0 134 -39 225q-41 97 -112 147
q-76 54 -177 54q-103 0 -176 -52q-71 -50 -112 -147q-39 -91 -39 -223t39 -223q41 -96 114 -148q71 -51 177 -51q102 0 176 53zM512 1276h-217v270h217v-270zM940 1276h-217v270h217v-270z" />
    <glyph glyph-name="divide" unicode="&#xf7;" horiz-adv-x="1339" 
d="M778 838h-217v260h217v-260zM1219 475h-1098v156h1098v-156zM778 0h-217v260h217v-260z" />
    <glyph glyph-name="oslash" unicode="&#xf8;" horiz-adv-x="1247" 
d="M1260 1098l-199 -205q92 -145 92 -344q0 -167 -66 -299t-184 -201q-123 -72 -280 -72q-97 0 -179 27q-84 27 -147 76l-76 -80h-231l192 205q-92 145 -92 344q0 167 66 299q65 131 188 201q124 71 283 71q99 0 178 -26q84 -27 147 -76l76 80h232zM319 352l508 539
q-83 80 -209 80q-105 0 -176 -51q-70 -50 -112 -148q-39 -91 -39 -223q0 -105 28 -197zM915 741l-507 -540q83 -80 208 -80q103 0 177 53q70 50 112 148q39 91 39 225q0 102 -29 194z" />
    <glyph glyph-name="ugrave" unicode="&#xf9;" horiz-adv-x="1222" 
d="M862 1098l199 2v-1098h-201v219q-41 -105 -125 -172q-85 -67 -213 -67q-120 0 -205 55q-86 56 -129 153q-43 98 -43 226v4v680h201v-649v-5q0 -161 68 -241t190 -80q123 0 191 80q67 79 67 244v649zM715 1249h-187l-327 310h276z" />
    <glyph glyph-name="uacute" unicode="&#xfa;" horiz-adv-x="1222" 
d="M862 1098l199 2v-1098h-201v219q-41 -105 -125 -172q-85 -67 -213 -67q-120 0 -205 55q-86 56 -129 153q-43 98 -43 226v4v680h201v-649v-5q0 -161 68 -241t190 -80q123 0 191 80q67 79 67 244v649zM676 1249h-187l238 310h277z" />
    <glyph glyph-name="ucircumflex" unicode="&#xfb;" horiz-adv-x="1222" 
d="M862 1098l199 2v-1098h-201v219q-41 -105 -125 -172q-85 -67 -213 -67q-120 0 -205 55q-86 56 -129 153q-43 98 -43 226v4v680h201v-649v-5q0 -161 68 -241t190 -80q123 0 191 80q67 79 67 244v649zM735 1559l262 -310h-184l-211 217l-211 -217h-184l262 310h266z" />
    <glyph glyph-name="udieresis" unicode="&#xfc;" horiz-adv-x="1222" 
d="M862 1098l199 2v-1098h-201v219q-41 -105 -125 -172q-85 -67 -213 -67q-120 0 -205 55q-86 56 -129 153q-43 98 -43 226v4v680h201v-649v-5q0 -161 68 -241t190 -80q123 0 191 80q67 79 67 244v649zM496 1288h-217v271h217v-271zM924 1288h-217v271h217v-271z" />
    <glyph glyph-name="yacute" unicode="&#xfd;" horiz-adv-x="1146" 
d="M590 139l321 959h209l-504 -1499h-208l176 522h-195l-381 977h207zM637 1247h-186l237 309h277z" />
    <glyph glyph-name="thorn" unicode="&#xfe;" horiz-adv-x="1306" 
d="M985 1047l6 4q105 -72 168 -203q62 -130 62 -295t-62 -295q-63 -131 -168 -203q-107 -73 -239 -73q-89 0 -160 32q-77 35 -137 92q-59 56 -95 136v-641h-200v1958h200v-725q27 75 80 141q51 63 129 104q77 41 176 41q133 0 240 -73zM864 180l-2 -8q72 51 113 147
q39 91 39 226q0 134 -39 225q-42 97 -113 148q-74 53 -176 53q-105 0 -176 -51t-113 -148q-39 -91 -39 -223t39 -223q41 -95 115 -148q71 -51 176 -51q102 0 176 53z" />
    <glyph glyph-name="ydieresis" unicode="&#xff;" horiz-adv-x="1146" 
d="M590 139l321 959h209l-504 -1499h-208l176 522h-195l-381 977h207zM457 1286h-217v270h217v-270zM885 1286h-217v270h217v-270z" />
    <glyph glyph-name="Amacron" unicode="&#x100;" horiz-adv-x="1554" 
d="M1548 0h-221l-168 471h-764l-168 -471h-221l559 1556h424zM778 1548l-317 -893h633zM1163 1739h-776v166h776v-166z" />
    <glyph glyph-name="amacron" unicode="&#x101;" horiz-adv-x="1193" 
d="M852 1061l-4 -12q98 -56 147 -152q47 -92 47 -203v-4v-702h-200v225q-42 -85 -86 -135q-47 -53 -117 -80q-76 -29 -172 -29q-101 0 -184 47t-133 127t-50 181q0 120 68 188q69 69 164 96q105 30 221 41l295 31v18v4q0 74 -27 136q-27 61 -86 96t-141 35q-74 0 -129 -27
q-56 -27 -86 -74t-39 -98h-205q12 102 74 182t160 123t225 43q159 0 258 -57zM702 143v-6q68 47 103 127q35 81 35 182v82l-219 -22q-94 -8 -166 -25q-65 -15 -111 -55q-45 -39 -45 -115q0 -65 31 -116q30 -50 86 -74q58 -25 121 -25q97 0 165 47zM940 1298h-711v152h711
v-152z" />
    <glyph glyph-name="Abreve" unicode="&#x102;" horiz-adv-x="1554" 
d="M1548 0h-221l-168 471h-764l-168 -471h-221l559 1556h424zM778 1548l-317 -893h633zM598 1714v-2q-76 37 -117 103q-41 65 -41 139h166q0 -69 47 -113q46 -43 123 -43t123 43q47 44 47 113h166q0 -72 -41 -137q-41 -66 -117 -103q-75 -37 -178 -37t-178 37z" />
    <glyph glyph-name="abreve" unicode="&#x103;" horiz-adv-x="1193" 
d="M852 1061l-4 -12q98 -56 147 -152q47 -92 47 -203v-4v-702h-200v225q-42 -85 -86 -135q-47 -53 -117 -80q-76 -29 -172 -29q-101 0 -184 47t-133 127t-50 181q0 120 68 188q69 69 164 96q105 30 221 41l295 31v18v4q0 74 -27 136q-27 61 -86 96t-141 35q-74 0 -129 -27
q-56 -27 -86 -74t-39 -98h-205q12 102 74 182t160 123t225 43q159 0 258 -57zM702 143v-6q68 47 103 127q35 81 35 182v82l-219 -22q-94 -8 -166 -25q-65 -15 -111 -55q-45 -39 -45 -115q0 -65 31 -116q30 -50 86 -74q58 -25 121 -25q97 0 165 47zM412 1260h-4
q-73 43 -113 116q-39 71 -39 162h162q0 -85 43 -131q42 -45 123 -45t123 45q43 46 43 131h161q0 -91 -39 -162q-41 -74 -112 -116q-73 -43 -174 -43t-174 43z" />
    <glyph glyph-name="Aogonek" unicode="&#x104;" horiz-adv-x="1554" 
d="M1405 -244l4 4q29 -20 86 -20h55v-143h-73q-130 0 -207 47q-78 47 -78 135q0 71 37 123t98 98l-168 471h-764l-168 -471h-221l559 1556h424l559 -1556q-174 -73 -174 -180q0 -42 31 -64zM780 1552l-317 -893h633z" />
    <glyph glyph-name="aogonek" unicode="&#x105;" horiz-adv-x="1193" 
d="M852 1061l-8 -8q98 -56 147 -152q47 -92 47 -203v-4v-702q-87 -38 -131 -82q-45 -45 -45 -98q0 -47 35 -68q33 -20 92 -20h53v-140h-71q-128 0 -205 47q-76 46 -76 136q0 69 41 122t111 99v225q-42 -85 -86 -135q-47 -53 -117 -80q-76 -29 -172 -29q-101 0 -184 47
t-133 127t-50 181q0 120 68 188q69 69 164 96q105 30 221 41l295 31v18v4q0 74 -27 136q-27 61 -86 96t-141 35q-74 0 -129 -27q-56 -27 -86 -74t-39 -98h-205q12 102 74 182t160 123t225 43q159 0 258 -57zM698 147v-6q68 47 103 127q35 81 35 183v81l-220 -22
q-93 -8 -165 -25q-65 -15 -111 -55q-45 -39 -45 -115q0 -65 31 -116q30 -50 86 -74q58 -25 120 -25q98 0 166 47z" />
    <glyph glyph-name="Cacute" unicode="&#x106;" horiz-adv-x="1597" 
d="M455 78v-2q-165 103 -258 282q-95 182 -95 418t95 418t260 283q163 100 374 100q176 0 318 -68q145 -70 237 -186q96 -122 136 -276h-215q-58 163 -179 258q-122 96 -297 96q-150 0 -268 -80q-114 -78 -180 -221q-64 -140 -64 -324q0 -179 66 -323t178 -222
q113 -79 258 -79q188 0 312 92t182 264h215q-76 -260 -258 -395q-183 -136 -449 -136q-206 0 -368 101zM891 1683h-199l252 271h289z" />
    <glyph glyph-name="cacute" unicode="&#x107;" horiz-adv-x="1200" 
d="M342 49l-10 -4q-121 69 -187 201q-65 130 -65 299t65 299q64 128 189 200q126 72 282 72q134 0 238 -49q105 -49 170 -139q67 -92 90 -205h-205q-24 107 -98 178q-73 70 -193 70q-105 0 -176 -51q-70 -50 -112 -148q-39 -91 -39 -223t39 -223q41 -96 114 -148
q71 -51 177 -51q233 0 303 242h204q-27 -121 -98 -211q-70 -88 -176 -135q-104 -46 -229 -46q-157 0 -283 72zM686 1243h-186l237 309h277z" />
    <glyph glyph-name="Ccircumflex" unicode="&#x108;" horiz-adv-x="1597" 
d="M455 78v-2q-165 103 -258 282q-95 182 -95 418t95 418t260 283q163 100 374 100q176 0 318 -68q145 -70 237 -186q96 -122 136 -276h-215q-58 163 -179 258q-122 96 -297 96q-150 0 -268 -80q-114 -78 -180 -221q-64 -140 -64 -324q0 -179 66 -323t178 -222
q113 -79 258 -79q188 0 312 92t182 264h215q-76 -260 -258 -395q-183 -136 -449 -136q-206 0 -368 101zM969 1954l256 -271h-193l-203 177l-202 -177h-193l256 271h279z" />
    <glyph glyph-name="ccircumflex" unicode="&#x109;" horiz-adv-x="1200" 
d="M342 49l-10 -4q-121 69 -187 201q-65 130 -65 299t65 299q64 128 189 200q126 72 282 72q134 0 238 -49q105 -49 170 -139q67 -92 90 -205h-205q-24 107 -98 178q-73 70 -193 70q-105 0 -176 -51q-70 -50 -112 -148q-39 -91 -39 -223t39 -223q41 -96 114 -148
q71 -51 177 -51q233 0 303 242h204q-27 -121 -98 -211q-70 -88 -176 -135q-104 -46 -229 -46q-157 0 -283 72zM745 1552l263 -309h-185l-211 217l-211 -217h-184l262 309h266z" />
    <glyph glyph-name="Cdotaccent" unicode="&#x10a;" horiz-adv-x="1597" 
d="M455 78v-2q-165 103 -258 282q-95 182 -95 418t95 418t260 283q163 100 374 100q176 0 318 -68q145 -70 237 -186q96 -122 136 -276h-215q-58 163 -179 258q-122 96 -297 96q-150 0 -268 -80q-114 -78 -180 -221q-64 -140 -64 -324q0 -179 66 -323t178 -222
q113 -79 258 -79q188 0 312 92t182 264h215q-76 -260 -258 -395q-183 -136 -449 -136q-206 0 -368 101zM940 1683h-223v271h223v-271z" />
    <glyph glyph-name="cdotaccent" unicode="&#x10b;" horiz-adv-x="1200" 
d="M342 49l-10 -4q-121 69 -187 201q-65 130 -65 299t65 299q64 128 189 200q126 72 282 72q134 0 238 -49q105 -49 170 -139q67 -92 90 -205h-205q-24 107 -98 178q-73 70 -193 70q-105 0 -176 -51q-70 -50 -112 -148q-39 -91 -39 -223t39 -223q41 -96 114 -148
q71 -51 177 -51q233 0 303 242h204q-27 -121 -98 -211q-70 -88 -176 -135q-104 -46 -229 -46q-157 0 -283 72zM721 1282h-217v270h217v-270z" />
    <glyph glyph-name="Ccaron" unicode="&#x10c;" horiz-adv-x="1597" 
d="M455 78v-2q-165 103 -258 282q-95 182 -95 418t95 418t260 283q163 100 374 100q176 0 318 -68q145 -70 237 -186q96 -122 136 -276h-215q-58 163 -179 258q-122 96 -297 96q-150 0 -268 -80q-114 -78 -180 -221q-64 -140 -64 -324q0 -179 66 -323t178 -222
q113 -79 258 -79q188 0 312 92t182 264h215q-76 -260 -258 -395q-183 -136 -449 -136q-206 0 -368 101zM829 1778l203 176h193l-256 -271h-279l-256 271h193z" />
    <glyph glyph-name="ccaron" unicode="&#x10d;" horiz-adv-x="1200" 
d="M342 49l-10 -4q-121 69 -187 201q-65 130 -65 299t65 299q64 128 189 200q126 72 282 72q134 0 238 -49q105 -49 170 -139q67 -92 90 -205h-205q-24 107 -98 178q-73 70 -193 70q-105 0 -176 -51q-70 -50 -112 -148q-39 -91 -39 -223t39 -223q41 -96 114 -148
q71 -51 177 -51q233 0 303 242h204q-27 -121 -98 -211q-70 -88 -176 -135q-104 -46 -229 -46q-157 0 -283 72zM612 1335l211 217h185l-263 -309h-266l-262 309h184z" />
    <glyph glyph-name="Dcaron" unicode="&#x10e;" horiz-adv-x="1601" 
d="M725 1556h-2q229 0 407 -90q177 -89 271 -264q96 -178 96 -424q0 -249 -94 -424q-95 -176 -270 -264q-178 -90 -408 -90h-530v1556h530zM729 184l-4 4q175 0 299 68q123 67 188 201q66 135 66 323q0 189 -64 320q-65 132 -188 203q-120 69 -297 69h-330v-1188h330z
M733 1784l203 176h192l-256 -270h-278l-256 270h192z" />
    <glyph glyph-name="dcaron" unicode="&#x10f;" horiz-adv-x="1306" 
d="M946 1556l207 -6v-1556h-201v239q-36 -80 -94 -135q-60 -57 -137 -92q-73 -33 -160 -33q-130 0 -239 74q-105 72 -168 203q-62 130 -62 295t62 295t168 202q109 74 239 74q102 0 176 -39q78 -41 129 -104q53 -65 80 -142v725zM807 170l-2 -8q75 54 115 147q38 89 38 226
q0 136 -38 225q-41 96 -113 147q-76 54 -176 54q-103 0 -176 -52q-72 -51 -113 -147q-39 -91 -39 -223q0 -133 39 -224q41 -96 113 -147q71 -51 176 -51q102 0 176 53zM1415 1171h-149l28 369h189z" />
    <glyph glyph-name="Dcroat" unicode="&#x110;" horiz-adv-x="1601" 
d="M725 1556h-2q229 0 407 -90q177 -89 271 -264q96 -178 96 -424q0 -249 -94 -424q-95 -176 -270 -264q-178 -90 -408 -90h-530v715h-183v180h183v661h530zM729 184l-4 4q175 0 299 68q123 67 188 201q66 135 66 323q0 189 -64 320q-65 132 -188 203q-120 69 -297 69h-330
v-477h404v-180h-404v-531h330z" />
    <glyph glyph-name="dcroat" unicode="&#x111;" horiz-adv-x="1306" 
d="M1278 1403l6 -158h-131v-1251h-201v239q-36 -80 -94 -135q-60 -57 -137 -92q-73 -33 -160 -33q-130 0 -239 74q-105 72 -168 203q-62 130 -62 295t62 295t168 202q109 74 239 74q102 0 176 -39q78 -41 129 -104q53 -65 80 -142v420h-192v152h192v153h201v-153h131z
M807 170l-2 -8q75 54 115 147q38 89 38 226q0 136 -38 225q-41 96 -113 147q-76 54 -176 54q-103 0 -176 -52q-72 -51 -113 -147q-39 -91 -39 -223q0 -133 39 -224q41 -96 113 -147q71 -51 176 -51q102 0 176 53z" />
    <glyph glyph-name="Emacron" unicode="&#x112;" horiz-adv-x="1343" 
d="M401 711v-527h826v-184h-1032v1556h1013v-184h-807v-477h793v-184h-793zM1090 1739h-777v166h777v-166z" />
    <glyph glyph-name="emacron" unicode="&#x113;" horiz-adv-x="1218" 
d="M1124 489l-831 -4q12 -174 96 -270q82 -94 221 -94q116 0 183 49t102 145h205q-47 -173 -172 -258q-127 -86 -316 -86q-160 0 -278 74q-116 73 -178 203t-62 295q0 167 62 297q61 129 178 202q118 74 276 74q155 0 271 -67q117 -67 182 -195q65 -127 65 -291q0 -4 -4 -74
zM395 883l-2 2q-82 -85 -100 -248h627q-6 99 -46 172t-108 117q-67 43 -156 43q-132 0 -215 -86zM963 1315h-711v151h711v-151z" />
    <glyph glyph-name="Ebreve" unicode="&#x114;" horiz-adv-x="1343" 
d="M401 711v-527h826v-184h-1032v1556h1013v-184h-807v-477h793v-184h-793zM524 1714v-2q-74 36 -116 103q-41 65 -41 139h165q0 -68 48 -113q46 -43 122 -43q77 0 123 43q47 44 47 113h166q0 -72 -41 -137q-42 -67 -116 -103q-75 -37 -179 -37q-103 0 -178 37z" />
    <glyph glyph-name="ebreve" unicode="&#x115;" horiz-adv-x="1218" 
d="M1124 489l-831 -4q12 -174 96 -270q82 -94 221 -94q116 0 183 49t102 145h205q-47 -173 -172 -258q-127 -86 -316 -86q-160 0 -278 74q-116 73 -178 203t-62 295q0 167 62 297q61 129 178 202q118 74 276 74q155 0 271 -67q117 -67 182 -195q65 -127 65 -291q0 -4 -4 -74
zM395 883l-2 2q-82 -85 -100 -248h627q-6 99 -46 172t-108 117q-67 43 -156 43q-132 0 -215 -86zM434 1278h-4q-72 43 -113 117q-38 69 -38 161h161q0 -85 43 -131q42 -45 123 -45t123 45q43 46 43 131h162q0 -90 -39 -161q-41 -74 -113 -117q-73 -43 -174 -43t-174 43z" />
    <glyph glyph-name="Edotaccent" unicode="&#x116;" horiz-adv-x="1343" 
d="M401 711v-527h826v-184h-1032v1556h1013v-184h-807v-477h793v-184h-793zM813 1686h-223v270h223v-270z" />
    <glyph glyph-name="edotaccent" unicode="&#x117;" horiz-adv-x="1218" 
d="M1124 489l-831 -4q12 -174 96 -270q82 -94 221 -94q116 0 183 49t102 145h205q-47 -173 -172 -258q-127 -86 -316 -86q-160 0 -278 74q-116 73 -178 203t-62 295q0 167 62 297q61 129 178 202q118 74 276 74q155 0 271 -67q117 -67 182 -195q65 -127 65 -291q0 -4 -4 -74
zM395 883l-2 2q-82 -85 -100 -248h627q-6 99 -46 172t-108 117q-67 43 -156 43q-132 0 -215 -86zM717 1282h-217v270h217v-270z" />
    <glyph glyph-name="Eogonek" unicode="&#x118;" horiz-adv-x="1343" 
d="M1227 0h2q-174 -73 -174 -180q0 -43 30 -64q29 -20 86 -20h56v-144h-74q-130 0 -209 48q-76 46 -76 135q0 71 41 127q39 54 111 98h-825v1556h1013v-184h-807v-477h793v-184h-793v-527h826v-184z" />
    <glyph glyph-name="eogonek" unicode="&#x119;" horiz-adv-x="1218" 
d="M1124 489l-829 -2q12 -174 96 -270q82 -94 221 -94q116 0 183 49t102 145h205q-46 -163 -166 -251q-88 -74 -123 -129q-35 -56 -35 -113q0 -96 125 -96h55v-140h-73q-128 0 -205 47q-76 46 -76 136q0 52 23 106q21 49 73 98q-78 -4 -88 -4q-160 0 -278 74
q-116 73 -178 203t-62 295q0 167 62 297q61 129 178 202q118 74 276 74q155 0 271 -67q117 -67 182 -195q65 -127 65 -291q0 -4 -4 -74zM397 885l-2 2q-82 -85 -100 -248h627q-6 101 -45 172q-40 73 -109 117q-67 43 -156 43q-132 0 -215 -86z" />
    <glyph glyph-name="Ecaron" unicode="&#x11a;" horiz-adv-x="1343" 
d="M401 711v-527h826v-184h-1032v1556h1013v-184h-807v-477h793v-184h-793zM702 1780l203 176h193l-256 -270h-279l-256 270h193z" />
    <glyph glyph-name="ecaron" unicode="&#x11b;" horiz-adv-x="1218" 
d="M1124 489l-831 -4q12 -174 96 -270q82 -94 221 -94q116 0 183 49t102 145h205q-47 -173 -172 -258q-127 -86 -316 -86q-160 0 -278 74q-116 73 -178 203t-62 295q0 167 62 297q61 129 178 202q118 74 276 74q155 0 271 -67q117 -67 182 -195q65 -127 65 -291q0 -4 -4 -74
zM395 883l-2 2q-82 -85 -100 -248h627q-6 99 -46 172t-108 117q-67 43 -156 43q-132 0 -215 -86zM608 1335l211 217h185l-263 -309h-266l-262 309h184z" />
    <glyph glyph-name="Gcircumflex" unicode="&#x11c;" horiz-adv-x="1691" 
d="M774 838l758 4v-838h-180v393q-34 -112 -103 -209q-68 -95 -178 -153t-260 -58q-197 0 -362 103q-166 104 -259 282q-94 181 -94 416q0 236 92 418q91 181 258 283q163 100 379 100q180 0 320 -61q142 -62 233 -175q93 -116 133 -270h-215q-56 154 -172 242t-297 88
q-150 0 -268 -80q-117 -80 -182 -221q-64 -140 -64 -324q0 -181 66 -325t184 -222q119 -79 277 -79q142 0 254 59q109 58 174 172q64 113 67 270h-561v185zM963 1960l256 -270h-193l-203 176l-202 -176h-193l256 270h279z" />
    <glyph glyph-name="gcircumflex" unicode="&#x11d;" horiz-adv-x="1306" 
d="M950 1098l203 -8v-1102q0 -140 -70 -234q-71 -95 -184 -141q-110 -45 -248 -45q-132 0 -239 43q-110 44 -176 125q-68 83 -80 198h204q9 -69 52 -118q45 -51 104 -74q64 -25 139 -25q84 0 154 31q68 30 109 92q38 58 38 150v270q-36 -80 -94 -135q-65 -62 -137 -90
q-79 -31 -160 -31q-132 0 -239 70q-106 69 -168 196t-62 293t62 293q63 128 168 197q106 69 239 69q102 0 176 -39q78 -41 129 -104q53 -66 80 -141v260zM809 193v-9q71 48 113 142q39 88 39 221t-39 221q-41 92 -113 141q-73 49 -178 49q-158 0 -242 -106
q-86 -109 -86 -301t86 -301q85 -107 242 -107q104 0 178 50zM762 1538l262 -309h-184l-211 217l-211 -217h-185l263 309h266z" />
    <glyph glyph-name="Gbreve" unicode="&#x11e;" horiz-adv-x="1691" 
d="M774 838l758 4v-838h-180v393q-34 -112 -103 -209q-68 -95 -178 -153t-260 -58q-197 0 -362 103q-166 104 -259 282q-94 181 -94 416q0 236 92 418q91 181 258 283q163 100 379 100q180 0 320 -61q142 -62 233 -175q93 -116 133 -270h-215q-56 154 -172 242t-297 88
q-150 0 -268 -80q-117 -80 -182 -221q-64 -140 -64 -324q0 -181 66 -325t184 -222q119 -79 277 -79q142 0 254 59q109 58 174 172q64 113 67 270h-561v185zM645 1718v-2q-76 37 -117 103q-41 65 -41 139h166q0 -69 47 -113q46 -43 123 -43t123 43q47 44 47 113h166
q0 -72 -41 -137q-41 -66 -117 -103q-75 -37 -178 -37t-178 37z" />
    <glyph glyph-name="gbreve" unicode="&#x11f;" horiz-adv-x="1306" 
d="M950 1098l203 -8v-1102q0 -140 -70 -234q-71 -95 -184 -141q-110 -45 -248 -45q-132 0 -239 43q-110 44 -176 125q-68 83 -80 198h204q9 -69 52 -118q45 -51 104 -74q64 -25 139 -25q84 0 154 31q68 30 109 92q38 58 38 150v270q-36 -80 -94 -135q-65 -62 -137 -90
q-79 -31 -160 -31q-132 0 -239 70q-106 69 -168 196t-62 293t62 293q63 128 168 197q106 69 239 69q102 0 176 -39q78 -41 129 -104q53 -66 80 -141v260zM809 193v-9q71 48 113 142q39 88 39 221t-39 221q-41 92 -113 141q-73 49 -178 49q-158 0 -242 -106
q-86 -109 -86 -301t86 -301q85 -107 242 -107q104 0 178 50zM455 1264h-4q-73 43 -113 116q-39 71 -39 162h162q0 -85 43 -131q42 -45 123 -45t123 45q43 46 43 131h161q0 -91 -39 -162q-41 -74 -112 -116q-73 -43 -174 -43t-174 43z" />
    <glyph glyph-name="Gdotaccent" unicode="&#x120;" horiz-adv-x="1691" 
d="M774 838l758 4v-838h-180v393q-34 -112 -103 -209q-68 -95 -178 -153t-260 -58q-197 0 -362 103q-166 104 -259 282q-94 181 -94 416q0 236 92 418q91 181 258 283q163 100 379 100q180 0 320 -61q142 -62 233 -175q93 -116 133 -270h-215q-56 154 -172 242t-297 88
q-150 0 -268 -80q-117 -80 -182 -221q-64 -140 -64 -324q0 -181 66 -325t184 -222q119 -79 277 -79q142 0 254 59q109 58 174 172q64 113 67 270h-561v185zM934 1690h-223v270h223v-270z" />
    <glyph glyph-name="gdotaccent" unicode="&#x121;" horiz-adv-x="1306" 
d="M950 1098l203 -8v-1102q0 -140 -70 -234q-71 -95 -184 -141q-110 -45 -248 -45q-132 0 -239 43q-110 44 -176 125q-68 83 -80 198h204q9 -69 52 -118q45 -51 104 -74q64 -25 139 -25q84 0 154 31q68 30 109 92q38 58 38 150v270q-36 -80 -94 -135q-65 -62 -137 -90
q-79 -31 -160 -31q-132 0 -239 70q-106 69 -168 196t-62 293t62 293q63 128 168 197q106 69 239 69q102 0 176 -39q78 -41 129 -104q53 -66 80 -141v260zM809 193v-9q71 48 113 142q39 88 39 221t-39 221q-41 92 -113 141q-73 49 -178 49q-158 0 -242 -106
q-86 -109 -86 -301t86 -301q85 -107 242 -107q104 0 178 50zM737 1268h-217v270h217v-270z" />
    <glyph glyph-name="uni0122" unicode="&#x122;" horiz-adv-x="1691" 
d="M774 838l758 4v-838h-180v393q-34 -112 -103 -209q-68 -95 -178 -153t-260 -58q-197 0 -362 103q-166 104 -259 282q-94 181 -94 416q0 236 92 418q91 181 258 283q163 100 379 100q180 0 320 -61q142 -62 233 -175q93 -116 133 -270h-215q-56 154 -172 242t-297 88
q-150 0 -268 -80q-117 -80 -182 -221q-64 -140 -64 -324q0 -181 66 -325t184 -222q119 -79 277 -79q142 0 254 59q109 58 174 172q64 113 67 270h-561v185zM713 -397v270h223v-287l-115 -178h-135l96 195h-69z" />
    <glyph glyph-name="uni0123" unicode="&#x123;" horiz-adv-x="1306" 
d="M950 1098l203 -8v-1102q0 -140 -70 -234q-71 -95 -184 -141q-110 -45 -248 -45q-132 0 -239 43q-110 44 -176 125q-68 83 -80 198h204q9 -69 52 -118q45 -51 104 -74q64 -25 139 -25q84 0 154 31q68 30 109 92q38 58 38 150v270q-36 -80 -94 -135q-65 -62 -137 -90
q-79 -31 -160 -31q-132 0 -239 70q-106 69 -168 196t-62 293t62 293q63 128 168 197q106 69 239 69q102 0 176 -39q78 -41 129 -104q53 -66 80 -141v260zM809 193v-9q71 48 113 142q39 88 39 221t-39 221q-41 92 -113 141q-73 49 -178 49q-158 0 -242 -106
q-86 -109 -86 -301t86 -301q85 -107 242 -107q104 0 178 50zM635 1733h129l-96 -195h69v-270h-217v286z" />
    <glyph glyph-name="Hcircumflex" unicode="&#x124;" horiz-adv-x="1617" 
d="M1217 895v661h206v-1556h-206v711h-816v-711h-206v1556h206v-661h816zM948 1956l256 -270h-192l-203 176l-203 -176h-192l256 270h278z" />
    <glyph glyph-name="hcircumflex" unicode="&#x125;" horiz-adv-x="1232" 
d="M911 1063h-2q86 -59 129 -156q43 -98 43 -223v-4v-680h-200v649v4q0 162 -68 242t-192 80q-125 0 -193 -80t-68 -244v-649h-200v1557h200v-682q40 108 127 176q85 67 218 67q123 0 206 -57zM397 1956l256 -270h-192l-203 176l-203 -176h-192l256 270h278z" />
    <glyph glyph-name="Hbar" unicode="&#x126;" horiz-adv-x="1617" 
d="M1423 1278h197v-180h-197v-1098h-206v711h-816v-711h-206v1098h-197v180h197v278h206v-278h816v278h206v-278zM401 895h816v203h-816v-203z" />
    <glyph glyph-name="hbar" unicode="&#x127;" horiz-adv-x="1232" 
d="M911 1063h-2q86 -59 129 -156q43 -98 43 -223v-4v-680h-200v649v4q0 162 -68 242t-192 80q-125 0 -193 -80t-68 -244v-649h-200v1251h-131v152h131v154h200v-154h193v-152h-193v-376q40 108 127 176q85 67 218 67q123 0 206 -57z" />
    <glyph glyph-name="Itilde" unicode="&#x128;" horiz-adv-x="595" 
d="M401 0h-206v1556h206v-1556zM-47 1710v-4q3 68 31 123t73 78q47 24 99 24q77 0 161 -41q27 -15 62 -24q31 -8 61 -8q49 0 82 20t45 55h80q-3 -68 -31 -123q-26 -51 -73 -75q-48 -25 -99 -25q-77 0 -161 41q-30 17 -62 25q-38 10 -61 10q-48 0 -82 -21q-33 -20 -45 -55
h-80z" />
    <glyph glyph-name="itilde" unicode="&#x129;" horiz-adv-x="520" 
d="M360 0h-200v1098h200v-1098zM-70 1290h-2q3 70 31 121t70 74q43 24 94 24q39 0 76 -12q35 -11 77 -33q60 -32 117 -32q51 0 82 22t43 62h72q-3 -70 -31 -121t-70 -74q-45 -25 -94 -25q-35 0 -76 13q-35 11 -75 32q-62 33 -117 33q-51 0 -82 -22t-43 -62h-72z" />
    <glyph glyph-name="Imacron" unicode="&#x12a;" horiz-adv-x="595" 
d="M401 0h-206v1556h206v-1556zM686 1739h-776v166h776v-166z" />
    <glyph glyph-name="imacron" unicode="&#x12b;" horiz-adv-x="520" 
d="M360 0h-200v1098h200v-1098zM614 1319h-710v151h710v-151z" />
    <glyph glyph-name="Ibreve" unicode="&#x12c;" horiz-adv-x="595" 
d="M401 0h-206v1556h206v-1556zM121 1714v-2q-76 37 -117 103q-41 65 -41 139h166q0 -69 47 -113q46 -43 123 -43t123 43q47 44 47 113h166q0 -72 -41 -137q-41 -66 -117 -103q-75 -37 -178 -37t-178 37z" />
    <glyph glyph-name="ibreve" unicode="&#x12d;" horiz-adv-x="520" 
d="M360 0h-200v1098h200v-1098zM86 1280h-4q-72 43 -113 117q-39 71 -39 162h162q0 -86 43 -132q42 -45 123 -45t123 45q43 46 43 132h162q0 -91 -39 -162q-41 -74 -113 -117q-73 -43 -174 -43t-174 43z" />
    <glyph glyph-name="Iogonek" unicode="&#x12e;" horiz-adv-x="595" 
d="M401 0h-206v1556h206v-1556zM328 -408h2q-130 0 -209 48q-76 46 -76 135q0 71 41 127q39 54 111 98h206q-174 -73 -174 -180q0 -42 31 -64q29 -20 86 -20h55v-144h-73z" />
    <glyph glyph-name="iogonek" unicode="&#x12f;" horiz-adv-x="520" 
d="M152 1286v270h217v-270h-217zM160 1098l196 4v-1098q-87 -38 -131 -82q-45 -45 -45 -98q0 -47 35 -68q33 -20 92 -20h53v-139h-71q-128 0 -205 47q-76 46 -76 135q0 70 41 123q39 50 111 98v1098z" />
    <glyph glyph-name="Idotaccent" unicode="&#x130;" horiz-adv-x="595" 
d="M401 0h-206v1556h206v-1556zM410 1686h-224v270h224v-270z" />
    <glyph glyph-name="dotlessi" unicode="&#x131;" horiz-adv-x="520" 
d="M360 0h-200v1098h200v-1098z" />
    <glyph glyph-name="Jcircumflex" unicode="&#x134;" horiz-adv-x="768" 
d="M41 0l2 186h166q90 0 129 39q41 41 41 119v1215h207v-1246q0 -153 -92 -233t-261 -80h-192zM623 1958l256 -270h-193l-203 176l-202 -176h-193l256 270h279z" />
    <glyph glyph-name="jcircumflex" unicode="&#x135;" horiz-adv-x="520" 
d="M-55 -401l-2 147h55q80 0 121 35t41 121v1194h200v-1194q0 -152 -94 -228q-93 -75 -246 -75h-75zM391 1552l262 -309h-184l-211 217l-211 -217h-184l262 309h266z" />
    <glyph glyph-name="uni0136" unicode="&#x136;" horiz-adv-x="1423" 
d="M651 819l799 -819h-274l-775 797v-797h-206v1556h206v-718l703 718h268zM653 -401v270h224v-287l-115 -178h-135l96 195h-70z" />
    <glyph glyph-name="uni0137" unicode="&#x137;" horiz-adv-x="1128" 
d="M592 612l538 -612h-249l-521 592v-592h-200v1556h200v-927l500 469h250zM494 -401v270h217v-287l-115 -178h-129l96 195h-69z" />
    <glyph glyph-name="kgreenlandic" unicode="&#x138;" horiz-adv-x="1140" 
d="M578 588l567 -588h-248l-539 559v-559h-198v1098h198v-482l512 482h250z" />
    <glyph glyph-name="Lacute" unicode="&#x139;" horiz-adv-x="1150" 
d="M401 1556v-1372h713v-184h-919v1556h206zM408 1686h-199l252 270h289z" />
    <glyph glyph-name="lacute" unicode="&#x13a;" horiz-adv-x="520" 
d="M360 0h-200v1556h200v-1556zM375 1686h-199l252 270h289z" />
    <glyph glyph-name="uni013B" unicode="&#x13b;" horiz-adv-x="1150" 
d="M401 1556v-1372h713v-184h-919v1556h206zM545 -401v270h223v-287l-115 -178h-135l96 195h-69z" />
    <glyph glyph-name="uni013C" unicode="&#x13c;" horiz-adv-x="520" 
d="M360 0h-200v1556h200v-1556zM152 -401v270h217v-287l-115 -178h-129l96 195h-69z" />
    <glyph glyph-name="Lcaron" unicode="&#x13d;" horiz-adv-x="1150" 
d="M401 1556v-1372h713v-184h-919v1556h206zM770 1044h-156l41 512h215z" />
    <glyph glyph-name="lcaron" unicode="&#x13e;" horiz-adv-x="520" 
d="M360 0h-200v1556h200v-1556zM627 1188h-150l29 368h188z" />
    <glyph glyph-name="Ldot" unicode="&#x13f;" horiz-adv-x="1171" 
d="M401 1556v-1372h713v-184h-919v1556h206zM1006 731h-242v246h242v-246z" />
    <glyph glyph-name="ldot" unicode="&#x140;" horiz-adv-x="720" 
d="M360 0h-200v1556h200v-1556zM741 686h-241v246h241v-246z" />
    <glyph glyph-name="Lslash" unicode="&#x141;" horiz-adv-x="1150" 
d="M401 717v-533h713v-184h-919v594l-181 -107v185l181 106v778h206v-655l349 205v-184z" />
    <glyph glyph-name="lslash" unicode="&#x142;" horiz-adv-x="665" 
d="M432 942l164 107v-187l-164 -106v-756h-201v625l-151 -99v187l151 98v745h201v-614z" />
    <glyph glyph-name="Nacute" unicode="&#x143;" horiz-adv-x="1726" 
d="M1325 8v1548h207v-1556h-428l-703 1548v-1548h-206v1556h428zM971 1686h-199l252 270h289z" />
    <glyph glyph-name="nacute" unicode="&#x144;" horiz-adv-x="1232" 
d="M911 1063h-2q86 -59 129 -156q43 -98 43 -223v-4v-680h-200v649v4q0 162 -68 242t-192 80q-125 0 -193 -80t-68 -244v-649h-200v1098h200v-223q40 108 127 176q85 67 218 67q123 0 206 -57zM711 1247h-187l238 309h276z" />
    <glyph glyph-name="uni0145" unicode="&#x145;" horiz-adv-x="1726" 
d="M1325 8v1548h207v-1556h-428l-703 1548v-1548h-206v1556h428zM729 -401v270h223v-287l-114 -178h-136l97 195h-70z" />
    <glyph glyph-name="uni0146" unicode="&#x146;" horiz-adv-x="1232" 
d="M911 1063h-2q86 -59 129 -156q43 -98 43 -223v-4v-680h-200v649v4q0 162 -68 242t-192 80q-125 0 -193 -80t-68 -244v-649h-200v1098h200v-223q40 108 127 176q85 67 218 67q123 0 206 -57zM512 -401v270h217v-287l-115 -178h-129l97 195h-70z" />
    <glyph glyph-name="Ncaron" unicode="&#x147;" horiz-adv-x="1726" 
d="M1325 8v1548h207v-1556h-428l-703 1548v-1548h-206v1556h428zM909 1780l203 176h193l-256 -270h-279l-256 270h193z" />
    <glyph glyph-name="ncaron" unicode="&#x148;" horiz-adv-x="1232" 
d="M911 1063h-2q86 -59 129 -156q43 -98 43 -223v-4v-680h-200v649v4q0 162 -68 242t-192 80q-125 0 -193 -80t-68 -244v-649h-200v1098h200v-223q40 108 127 176q85 67 218 67q123 0 206 -57zM637 1339l211 217h184l-262 -309h-266l-262 309h184z" />
    <glyph glyph-name="Eng" unicode="&#x14a;" horiz-adv-x="1726" 
d="M1325 1556l209 3v-1647q0 -154 -92 -234q-91 -79 -260 -79h-193v184h166q90 0 129 39q41 41 41 119v59h-221l-703 1548v-1548h-206v1556h428l702 -1548v1548z" />
    <glyph glyph-name="eng" unicode="&#x14b;" horiz-adv-x="1232" 
d="M911 1063h-2q86 -59 129 -156q43 -98 43 -223v-4v-680h-200v649v4q0 162 -68 242t-192 80q-125 0 -193 -80t-68 -244v-649h-200v1098h200v-223q40 108 127 176q85 67 218 67q123 0 206 -57zM668 -401l-2 147h55q80 0 121 35t41 121v96h200v-96q0 -152 -94 -228
q-93 -75 -246 -75h-75z" />
    <glyph glyph-name="Omacron" unicode="&#x14c;" horiz-adv-x="1687" 
d="M459 78q-171 103 -264 282q-95 182 -95 418t95 418q94 181 264 283q166 100 387 100t387 -100q170 -102 264 -283t94 -418t-94 -418q-93 -179 -264 -282q-168 -101 -387 -101t-387 101zM1118 231q118 78 187 222q67 140 67 323q0 184 -67 324q-68 142 -187 221
q-121 80 -276 80q-156 0 -277 -80q-117 -78 -186 -221q-68 -142 -68 -324q0 -181 68 -323q69 -145 186 -222q119 -79 277 -79q157 0 276 79zM1231 1739h-776v166h776v-166z" />
    <glyph glyph-name="omacron" unicode="&#x14d;" horiz-adv-x="1247" 
d="M342 49h-2q-120 69 -186 201t-66 299t66 299q65 131 188 201q124 71 283 71t280 -71q120 -70 185 -201q65 -130 65 -299t-65 -299q-65 -131 -185 -201q-123 -72 -280 -72t-283 72zM797 176l-2 -8q71 50 112 147q39 91 39 226q0 134 -39 225q-41 97 -112 147
q-76 54 -177 54q-103 0 -176 -52q-71 -50 -112 -147q-39 -91 -39 -223t39 -223q41 -96 114 -148q71 -51 177 -51q102 0 176 53zM973 1309h-711v151h711v-151z" />
    <glyph glyph-name="Obreve" unicode="&#x14e;" horiz-adv-x="1687" 
d="M459 78q-171 103 -264 282q-95 182 -95 418t95 418q94 181 264 283q166 100 387 100t387 -100q170 -102 264 -283t94 -418t-94 -418q-93 -179 -264 -282q-168 -101 -387 -101t-387 101zM1118 231q118 78 187 222q67 140 67 323q0 184 -67 324q-68 142 -187 221
q-121 80 -276 80q-156 0 -277 -80q-117 -78 -186 -221q-68 -142 -68 -324q0 -181 68 -323q69 -145 186 -222q119 -79 277 -79q157 0 276 79zM666 1714v-2q-76 37 -117 103q-41 65 -41 139h166q0 -69 47 -113q46 -43 123 -43t123 43q47 44 47 113h166q0 -72 -41 -137
q-41 -66 -117 -103q-75 -37 -178 -37t-178 37z" />
    <glyph glyph-name="obreve" unicode="&#x14f;" horiz-adv-x="1247" 
d="M342 49h-2q-120 69 -186 201t-66 299t66 299q65 131 188 201q124 71 283 71t280 -71q120 -70 185 -201q65 -130 65 -299t-65 -299q-65 -131 -185 -201q-123 -72 -280 -72t-283 72zM797 176l-2 -8q71 50 112 147q39 91 39 226q0 134 -39 225q-41 97 -112 147
q-76 54 -177 54q-103 0 -176 -52q-71 -50 -112 -147q-39 -91 -39 -223t39 -223q41 -96 114 -148q71 -51 177 -51q102 0 176 53zM444 1272h-4q-71 42 -112 117q-39 71 -39 161h162q0 -85 43 -131q42 -45 122 -45q81 0 123 45q43 46 43 131h162q0 -90 -39 -161
q-41 -75 -112 -117q-73 -43 -175 -43q-101 0 -174 43z" />
    <glyph glyph-name="Ohungarumlaut" unicode="&#x150;" horiz-adv-x="1687" 
d="M459 78q-171 103 -264 282q-95 182 -95 418t95 418q94 181 264 283q166 100 387 100t387 -100q170 -102 264 -283t94 -418t-94 -418q-93 -179 -264 -282q-168 -101 -387 -101t-387 101zM1118 231q118 78 187 222q67 140 67 323q0 184 -67 324q-68 142 -187 221
q-121 80 -276 80q-156 0 -277 -80q-117 -78 -186 -221q-68 -142 -68 -324q0 -181 68 -323q69 -145 186 -222q119 -79 277 -79q157 0 276 79zM717 1686h-199l275 270h280zM1102 1686h-199l275 270h280z" />
    <glyph glyph-name="ohungarumlaut" unicode="&#x151;" horiz-adv-x="1247" 
d="M342 49h-2q-120 69 -186 201t-66 299t66 299q65 131 188 201q124 71 283 71t280 -71q120 -70 185 -201q65 -130 65 -299t-65 -299q-65 -131 -185 -201q-123 -72 -280 -72t-283 72zM797 176l-2 -8q71 50 112 147q39 91 39 226q0 134 -39 225q-41 97 -112 147
q-76 54 -177 54q-103 0 -176 -52q-71 -50 -112 -147q-39 -91 -39 -223t39 -223q41 -96 114 -148q71 -51 177 -51q102 0 176 53zM522 1237h-186l254 309h268zM905 1237h-186l254 309h268z" />
    <glyph glyph-name="OE" unicode="&#x152;" horiz-adv-x="2347" 
d="M1405 184h823v-184h-1325q-219 0 -405 92q-182 90 -291 270t-109 416t109 416q108 178 293 270q186 92 405 92h1307v-184h-807v-477h793v-184h-793v-527zM1196 184v1194h-293q-161 0 -295 -67q-135 -68 -215 -203q-80 -136 -80 -326q0 -191 80 -327q80 -135 215 -203
q136 -68 295 -68h293z" />
    <glyph glyph-name="oe" unicode="&#x153;" horiz-adv-x="2064" 
d="M1970 489l-840 -2q12 -172 97 -270q82 -94 221 -94q115 0 182 49q68 50 103 145h204q-47 -173 -172 -258q-127 -86 -315 -86q-138 0 -244 62q-102 60 -168 170q-69 -110 -174 -170q-109 -62 -246 -62q-156 0 -282 72q-120 69 -186 201t-66 299t66 299q65 129 188 200
q126 72 283 72q138 0 245 -61q108 -62 176 -170q65 108 170 170q104 61 244 61q154 0 270 -67q118 -68 183 -195t65 -291q0 -4 -4 -74zM791 174l-3 -8q72 51 113 147q39 91 39 226q0 134 -39 225q-41 96 -113 147q-76 54 -176 54q-103 0 -176 -52q-71 -50 -112 -147
q-39 -91 -39 -223q0 -133 39 -224q40 -95 114 -147q71 -51 176 -51q103 0 177 53zM1231 877l-2 2q-83 -86 -101 -248h627q-6 101 -45 172q-40 73 -108 117q-67 43 -156 43q-132 0 -215 -86z" />
    <glyph glyph-name="Racute" unicode="&#x154;" horiz-adv-x="1456" 
d="M1391 0l-240 -4l-375 635h-6h-367v-635h-206v1556h573q170 0 295 -55q129 -57 195 -160q67 -104 67 -243q0 -161 -88 -271t-246 -157zM403 1368v-549h371q160 0 250 72t90 203q0 130 -90 202t-250 72h-371zM754 1686h-199l252 270h289z" />
    <glyph glyph-name="racute" unicode="&#x155;" horiz-adv-x="763" 
d="M360 862h-2q82 258 363 258v-198h-62q-100 0 -167 -25q-65 -24 -99 -82q-33 -56 -33 -153v-662h-200v1098h200v-236zM541 1247h-187l238 309h276z" />
    <glyph glyph-name="uni0156" unicode="&#x156;" horiz-adv-x="1456" 
d="M1391 0l-240 -4l-375 635h-6h-367v-635h-206v1556h573q170 0 295 -55q129 -57 195 -160q67 -104 67 -243q0 -161 -88 -271t-246 -157zM403 1368v-549h371q160 0 250 72t90 203q0 130 -90 202t-250 72h-371zM635 -401v270h223v-287l-115 -178h-135l97 195h-70z" />
    <glyph glyph-name="uni0157" unicode="&#x157;" horiz-adv-x="763" 
d="M360 862h-2q82 258 363 258v-198h-62q-100 0 -167 -25q-65 -24 -99 -82q-33 -56 -33 -153v-662h-200v1098h200v-236zM147 -401v270h218v-287l-115 -178h-129l96 195h-70z" />
    <glyph glyph-name="Rcaron" unicode="&#x158;" horiz-adv-x="1456" 
d="M1391 0l-240 -4l-375 635h-6h-367v-635h-206v1556h573q170 0 295 -55q129 -57 195 -160q67 -104 67 -243q0 -161 -88 -271t-246 -157zM403 1368v-549h371q160 0 250 72t90 203q0 130 -90 202t-250 72h-371zM692 1780l203 176h192l-256 -270h-278l-256 270h192z" />
    <glyph glyph-name="rcaron" unicode="&#x159;" horiz-adv-x="763" 
d="M360 862h-2q82 258 363 258v-198h-62q-100 0 -167 -25q-65 -24 -99 -82q-33 -56 -33 -153v-662h-200v1098h200v-236zM467 1339l211 217h184l-262 -309h-266l-262 309h184z" />
    <glyph glyph-name="Sacute" unicode="&#x15a;" horiz-adv-x="1417" 
d="M397 37h-8q-132 59 -215 170q-83 112 -104 262h215q15 -104 69 -172t142 -107q82 -36 192 -36q139 0 232 34q95 35 145 97q49 61 49 145q0 83 -39 131q-42 52 -117 78q-90 32 -221 59l-194 43q-195 44 -307 144q-113 101 -113 266q0 119 74 219q73 99 202 154
q128 55 285 55q162 0 289 -53q130 -54 207 -150q82 -102 102 -223h-215q-34 129 -133 190q-100 62 -246 62q-96 0 -178 -31q-80 -30 -127 -86t-47 -125q0 -72 35 -116q36 -45 104 -74q74 -31 201 -58l194 -43q162 -34 260 -86q97 -52 148 -133q49 -79 49 -200
q0 -137 -80 -246q-78 -106 -223 -168t-332 -62q-160 0 -295 60zM741 1686h-198l252 270h288z" />
    <glyph glyph-name="sacute" unicode="&#x15b;" horiz-adv-x="1085" 
d="M317 16l-6 -8q-101 40 -166 117q-64 76 -79 188h204q21 -106 92 -153q68 -45 166 -45q128 0 195 43q68 44 68 121q0 49 -21 83q-21 35 -68 56q-55 25 -129 41l-153 33q-152 35 -236 104q-86 71 -86 190q0 95 58 168q60 75 157 115q100 41 219 41q113 0 201 -33
q94 -36 156 -100q64 -67 88 -162h-205q-21 71 -88 111q-68 41 -149 41q-60 0 -115 -19q-50 -17 -86 -53q-33 -33 -33 -80q0 -42 25 -70t69 -45q41 -16 127 -32l154 -33q168 -37 246 -115q77 -77 77 -207q0 -105 -57 -180q-59 -77 -162 -117q-106 -41 -239 -41
q-121 0 -224 41zM598 1237h-186l237 309h277z" />
    <glyph glyph-name="Scircumflex" unicode="&#x15c;" horiz-adv-x="1417" 
d="M397 37h-8q-132 59 -215 170q-83 112 -104 262h215q15 -104 69 -172t142 -107q82 -36 192 -36q139 0 232 34q95 35 145 97q49 61 49 145q0 83 -39 131q-42 52 -117 78q-90 32 -221 59l-194 43q-195 44 -307 144q-113 101 -113 266q0 119 74 219q73 99 202 154
q128 55 285 55q162 0 289 -53q130 -54 207 -150q82 -102 102 -223h-215q-34 129 -133 190q-100 62 -246 62q-96 0 -178 -31q-80 -30 -127 -86t-47 -125q0 -72 35 -116q36 -45 104 -74q74 -31 201 -58l194 -43q162 -34 260 -86q97 -52 148 -133q49 -79 49 -200
q0 -137 -80 -246q-78 -106 -223 -168t-332 -62q-160 0 -295 60zM819 1956l256 -270h-192l-203 176l-203 -176h-192l256 270h278z" />
    <glyph glyph-name="scircumflex" unicode="&#x15d;" horiz-adv-x="1085" 
d="M317 16l-6 -8q-101 40 -166 117q-64 76 -79 188h204q21 -106 92 -153q68 -45 166 -45q128 0 195 43q68 44 68 121q0 49 -21 83q-21 35 -68 56q-55 25 -129 41l-153 33q-152 35 -236 104q-86 71 -86 190q0 95 58 168q60 75 157 115q100 41 219 41q113 0 201 -33
q94 -36 156 -100q64 -67 88 -162h-205q-21 71 -88 111q-68 41 -149 41q-60 0 -115 -19q-50 -17 -86 -53q-33 -33 -33 -80q0 -42 25 -70t69 -45q41 -16 127 -32l154 -33q168 -37 246 -115q77 -77 77 -207q0 -105 -57 -180q-59 -77 -162 -117q-106 -41 -239 -41
q-121 0 -224 41zM657 1546l263 -309h-185l-211 217l-211 -217h-184l262 309h266z" />
    <glyph glyph-name="Scedilla" unicode="&#x15e;" horiz-adv-x="1417" 
d="M1255 219l-14 -10q-69 -104 -192 -164q-127 -62 -295 -74v-49q75 -9 118 -55t43 -113q0 -77 -55 -123q-54 -45 -151 -45h-115v123h90q37 0 61 17q23 16 23 47q0 27 -23 43q-22 16 -55 16h-65v143q-148 9 -271 72q-119 61 -192 168q-75 111 -96 252h215q15 -104 69 -172
t142 -107q82 -36 192 -36q138 0 231 34q96 35 146 97q49 61 49 145q0 83 -39 131q-42 52 -117 78q-90 32 -221 59l-194 43q-196 44 -308 144t-112 266q0 119 74 219q73 99 202 154q128 55 285 55q162 0 289 -53q130 -54 207 -150q82 -102 102 -223h-215q-34 129 -133 190
q-100 62 -246 62q-96 0 -178 -31q-80 -30 -127 -86t-47 -125q0 -73 35 -117q34 -43 104 -73q74 -31 201 -58l194 -43q162 -34 260 -86q97 -52 148 -133q49 -79 49 -200q0 -129 -68 -232z" />
    <glyph glyph-name="scedilla" unicode="&#x15f;" horiz-adv-x="1085" 
d="M946 143l-10 -4q-51 -71 -145 -116q-93 -44 -216 -50v-51q74 -9 117 -55t43 -113q0 -77 -55 -123q-56 -47 -150 -47h-110v117h92q39 0 61 16q23 16 23 50q0 29 -23 49q-21 18 -55 18h-69v143q-156 18 -263 105q-105 85 -123 233h205q21 -106 92 -153q68 -45 166 -45
q128 0 195 43t67 121q0 51 -20 84t-68 55q-55 25 -129 41l-153 33q-152 35 -236 104q-86 71 -86 190q0 95 58 168q60 75 157 115q100 41 219 41q113 0 201 -33q94 -36 156 -100q64 -67 88 -162h-205q-21 71 -88 111q-68 41 -150 41q-59 0 -114 -19q-50 -17 -86 -53
q-33 -33 -33 -80q0 -41 25 -69q26 -29 69 -46q41 -16 127 -32l154 -33q168 -37 246 -115q77 -77 77 -207q0 -101 -51 -172z" />
    <glyph glyph-name="Scaron" unicode="&#x160;" horiz-adv-x="1417" 
d="M397 37h-8q-132 59 -215 170q-83 112 -104 262h215q15 -104 69 -172t142 -107q82 -36 192 -36q139 0 232 34q95 35 145 97q49 61 49 145q0 83 -39 131q-42 52 -117 78q-90 32 -221 59l-194 43q-195 44 -307 144q-113 101 -113 266q0 119 74 219q73 99 202 154
q128 55 285 55q162 0 289 -53q130 -54 207 -150q82 -102 102 -223h-215q-34 129 -133 190q-100 62 -246 62q-96 0 -178 -31q-80 -30 -127 -86t-47 -125q0 -72 35 -116q36 -45 104 -74q74 -31 201 -58l194 -43q162 -34 260 -86q97 -52 148 -133q49 -79 49 -200
q0 -137 -80 -246q-78 -106 -223 -168t-332 -62q-160 0 -295 60zM680 1780l203 176h192l-256 -270h-278l-256 270h192z" />
    <glyph glyph-name="scaron" unicode="&#x161;" horiz-adv-x="1085" 
d="M317 16l-6 -8q-101 40 -166 117q-64 76 -79 188h204q21 -106 92 -153q68 -45 166 -45q128 0 195 43q68 44 68 121q0 49 -21 83q-21 35 -68 56q-55 25 -129 41l-153 33q-152 35 -236 104q-86 71 -86 190q0 95 58 168q60 75 157 115q100 41 219 41q113 0 201 -33
q94 -36 156 -100q64 -67 88 -162h-205q-21 71 -88 111q-68 41 -149 41q-60 0 -115 -19q-50 -17 -86 -53q-33 -33 -33 -80q0 -42 25 -70t69 -45q41 -16 127 -32l154 -33q168 -37 246 -115q77 -77 77 -207q0 -105 -57 -180q-59 -77 -162 -117q-106 -41 -239 -41
q-121 0 -224 41zM524 1329l211 217h185l-263 -309h-266l-262 309h184z" />
    <glyph glyph-name="uni0162" unicode="&#x162;" horiz-adv-x="1316" 
d="M37 1556h1243v-184h-518v-1372h-207v1372h-518v184zM547 -401v270h223v-287l-115 -178h-135l96 195h-69z" />
    <glyph glyph-name="uni0163" unicode="&#x163;" horiz-adv-x="794" 
d="M741 152l-4 -152h-143q-101 0 -174 33q-80 36 -121 100q-43 67 -43 168v4v641h-231v152h231v260h201v-260h278v-152h-278v-641v-4q0 -82 41 -117q38 -32 120 -32h123zM346 -401v270h217v-287l-114 -178h-130l97 195h-70z" />
    <glyph glyph-name="Tcaron" unicode="&#x164;" horiz-adv-x="1316" 
d="M37 1556h1243v-184h-518v-1372h-207v1372h-518v184zM657 1780l203 176h193l-256 -270h-279l-256 270h193z" />
    <glyph glyph-name="tcaron" unicode="&#x165;" horiz-adv-x="794" 
d="M741 152l-4 -152h-143q-101 0 -174 33q-80 36 -121 100q-43 67 -43 168v4v641h-231v152h231v260h201v-260h278v-152h-278v-641v-4q0 -82 41 -117q38 -32 120 -32h123zM721 1188h-150l29 368h188z" />
    <glyph glyph-name="Tbar" unicode="&#x166;" horiz-adv-x="1382" 
d="M1313 1556v-184h-518v-500h393v-180h-393v-692h-207v692h-393v180h393v500h-518v184h1243z" />
    <glyph glyph-name="tbar" unicode="&#x167;" horiz-adv-x="794" 
d="M741 152l-4 -152h-143q-101 0 -174 33q-80 36 -121 100q-43 67 -43 168v4v275h-156v151h156v215h-231v152h231v260h201v-260h278v-152h-278v-215h168v-151h-168v-275v-4q0 -82 41 -117q38 -32 120 -32h123z" />
    <glyph glyph-name="Utilde" unicode="&#x168;" horiz-adv-x="1579" 
d="M326 141l-2 -4q-148 168 -148 479v5v931h207v-944v-4q0 -230 102 -344q101 -113 306 -113q200 0 303 115q100 112 100 348v944h207v-931q0 -314 -148 -482q-147 -166 -462 -166q-318 0 -465 166zM442 1704v-4q3 68 31 123q28 54 74 78t98 24q78 0 162 -41q27 -15 61 -24
t62 -9q47 0 82 21q33 20 45 55h80q-3 -68 -31 -123q-26 -50 -74 -75t-98 -25q-78 0 -162 41q-27 15 -61 24q-42 11 -62 11q-47 0 -82 -21q-33 -20 -45 -55h-80z" />
    <glyph glyph-name="utilde" unicode="&#x169;" horiz-adv-x="1222" 
d="M862 1098l199 2v-1098h-201v219q-41 -105 -125 -172q-85 -67 -213 -67q-120 0 -205 55q-86 56 -129 153q-43 98 -43 226v4v680h201v-649v-5q0 -161 68 -241t190 -80q123 0 191 80q67 79 67 244v649zM272 1292h-2q3 70 31 121t70 74q43 24 94 24q39 0 76 -12
q35 -11 77 -33q60 -32 117 -32q51 0 82 22t43 62h72q-3 -70 -31 -121t-70 -74q-45 -25 -94 -25q-34 0 -75 13q-37 12 -76 32q-62 33 -117 33q-51 0 -82 -22t-43 -62h-72z" />
    <glyph glyph-name="Umacron" unicode="&#x16a;" horiz-adv-x="1579" 
d="M326 141l-2 -4q-148 168 -148 479v5v931h207v-944v-4q0 -230 102 -344q101 -113 306 -113q200 0 303 115q100 112 100 348v944h207v-931q0 -314 -148 -482q-147 -166 -462 -166q-318 0 -465 166zM1176 1733h-777v165h777v-165z" />
    <glyph glyph-name="umacron" unicode="&#x16b;" horiz-adv-x="1222" 
d="M862 1098l199 2v-1098h-201v219q-41 -105 -125 -172q-85 -67 -213 -67q-120 0 -205 55q-86 56 -129 153q-43 98 -43 226v4v680h201v-649v-5q0 -161 68 -241t190 -80q123 0 191 80q67 79 67 244v649zM956 1321h-710v152h710v-152z" />
    <glyph glyph-name="Ubreve" unicode="&#x16c;" horiz-adv-x="1579" 
d="M326 141l-2 -4q-148 168 -148 479v5v931h207v-944v-4q0 -230 102 -344q101 -113 306 -113q200 0 303 115q100 112 100 348v944h207v-931q0 -314 -148 -482q-147 -166 -462 -166q-318 0 -465 166zM610 1710v-2q-75 37 -116 102t-41 140h165q0 -68 48 -113q46 -43 122 -43
q77 0 123 43q47 44 47 113h166q0 -73 -41 -138t-116 -102t-179 -37q-103 0 -178 37z" />
    <glyph glyph-name="ubreve" unicode="&#x16d;" horiz-adv-x="1222" 
d="M862 1098l199 2v-1098h-201v219q-41 -105 -125 -172q-85 -67 -213 -67q-120 0 -205 55q-86 56 -129 153q-43 98 -43 226v4v680h201v-649v-5q0 -161 68 -241t190 -80q123 0 191 80q67 79 67 244v649zM428 1282h-4q-72 43 -113 117q-39 71 -39 162h162q0 -85 43 -131
t123 -46t123 46t43 131h162q0 -91 -39 -162q-41 -74 -113 -117q-73 -43 -174 -43t-174 43z" />
    <glyph glyph-name="Uring" unicode="&#x16e;" horiz-adv-x="1579" 
d="M326 141l-2 -4q-148 168 -148 479v5v931h207v-944v-4q0 -230 102 -344q101 -113 306 -113q200 0 303 115q100 112 100 348v944h207v-931q0 -314 -148 -482q-147 -166 -462 -166q-318 0 -465 166zM655 1704l-4 -2q-59 36 -94 98t-35 133q0 70 35 129q34 57 96 92t133 35
q70 0 129 -35t93 -92q34 -58 34 -129q0 -70 -34 -131q-34 -60 -93 -98q-58 -37 -129 -37q-70 0 -131 37zM842 1825q29 19 43 45q16 29 16 61q0 49 -35 84t-84 35q-48 0 -86 -35q-37 -34 -37 -84q0 -30 17 -61q14 -26 43 -45t61 -19q33 0 62 19z" />
    <glyph glyph-name="uring" unicode="&#x16f;" horiz-adv-x="1222" 
d="M862 1098l199 2v-1098h-201v219q-41 -105 -125 -172q-85 -67 -213 -67q-120 0 -205 55q-86 56 -129 153q-43 98 -43 226v4v680h201v-649v-5q0 -161 68 -241t190 -80q123 0 191 80q67 79 67 244v649zM487 1272l-4 -4q-53 31 -84 84q-30 52 -30 116q0 62 30 115
q31 53 84 84q54 31 117 31t117 -31q55 -32 84 -82q30 -52 30 -112q0 -65 -30 -117q-31 -53 -84 -84q-54 -31 -115 -31t-115 31zM670 1397h-2q30 30 30 71t-30 68q-32 29 -72 29q-38 0 -70 -29q-30 -27 -30 -68t30 -71q31 -31 72 -31t72 31z" />
    <glyph glyph-name="Uhungarumlaut" unicode="&#x170;" horiz-adv-x="1579" 
d="M326 141l-2 -4q-148 168 -148 479v5v931h207v-944v-4q0 -230 102 -344q101 -113 306 -113q200 0 303 115q100 112 100 348v944h207v-931q0 -314 -148 -482q-147 -166 -462 -166q-318 0 -465 166zM662 1679h-199l274 271h281zM1047 1679h-199l274 271h281z" />
    <glyph glyph-name="uhungarumlaut" unicode="&#x171;" horiz-adv-x="1222" 
d="M862 1098l199 2v-1098h-201v219q-41 -105 -125 -172q-85 -67 -213 -67q-120 0 -205 55q-86 56 -129 153q-43 98 -43 226v4v680h201v-649v-5q0 -161 68 -241t190 -80q123 0 191 80q67 79 67 244v649zM506 1249h-187l254 310h269zM889 1249h-187l254 310h269z" />
    <glyph glyph-name="Uogonek" unicode="&#x172;" horiz-adv-x="1579" 
d="M1194 1556l203 -2v-931q0 -199 -56 -338q-56 -138 -176 -215q-90 -66 -125 -123q-32 -51 -32 -113q0 -52 30 -76t86 -24h56v-144h-72q-130 0 -209 48q-78 47 -78 135q0 115 105 209q-58 -9 -138 -9q-317 0 -464 166q-148 168 -148 479v5v931h207v-944v-4q0 -230 102 -344
q100 -112 306 -112q201 0 303 114q100 112 100 348v944z" />
    <glyph glyph-name="uogonek" unicode="&#x173;" horiz-adv-x="1222" 
d="M1063 0l-6 6q-87 -38 -131 -82q-45 -45 -45 -98q0 -47 34 -68q33 -20 93 -20h53v-139h-72q-128 0 -205 47q-75 46 -75 135q0 70 41 123q40 52 110 98v219q-41 -105 -125 -172q-85 -67 -213 -67q-120 0 -205 55q-86 56 -129 153q-43 98 -43 226v4v680h201v-649v-5
q0 -161 68 -241t190 -80q123 0 191 80q67 79 67 244v649h201v-1098z" />
    <glyph glyph-name="Wcircumflex" unicode="&#x174;" horiz-adv-x="2318" 
d="M1679 8l381 1548h219l-383 -1556h-430l-307 1546l-307 -1546h-430l-383 1556h219l381 -1548l307 1548h426zM1298 1956l256 -270h-192l-203 176l-203 -176h-192l256 270h278z" />
    <glyph glyph-name="wcircumflex" unicode="&#x175;" horiz-adv-x="1822" 
d="M1315 10l268 1088h195l-271 -1098h-383l-213 1087l-213 -1087h-383l-270 1098h195l268 -1088l213 1088h381zM1044 1556l263 -309h-185l-211 217l-211 -217h-184l262 309h266z" />
    <glyph glyph-name="Ycircumflex" unicode="&#x176;" horiz-adv-x="1382" 
d="M1149 1556h237l-591 -888v-668h-207v668l-592 888h235l459 -690zM829 1956l256 -270h-192l-203 176l-203 -176h-192l256 270h278z" />
    <glyph glyph-name="ycircumflex" unicode="&#x177;" horiz-adv-x="1146" 
d="M590 139l321 959h209l-504 -1499h-208l176 522h-195l-381 977h207zM696 1556l262 -309h-184l-211 217l-211 -217h-184l262 309h266z" />
    <glyph glyph-name="Ydieresis" unicode="&#x178;" horiz-adv-x="1382" 
d="M1149 1556h237l-591 -888v-668h-207v668l-592 888h235l459 -690zM590 1686h-223v270h223v-270zM1014 1686h-223v270h223v-270z" />
    <glyph glyph-name="Zacute" unicode="&#x179;" horiz-adv-x="1411" 
d="M1307 1311l-1004 -1127h1043v-184h-1262v246l1003 1126h-989v184h1209v-245zM764 1686h-199l252 270h289z" />
    <glyph glyph-name="zacute" unicode="&#x17a;" horiz-adv-x="1054" 
d="M948 895l-653 -743h696v-152h-905v203l653 743h-641v152h850v-203zM596 1247h-186l237 309h277z" />
    <glyph glyph-name="Zdotaccent" unicode="&#x17b;" horiz-adv-x="1411" 
d="M1307 1311l-1004 -1127h1043v-184h-1262v246l1003 1126h-989v184h1209v-245zM813 1686h-223v270h223v-270z" />
    <glyph glyph-name="zdotaccent" unicode="&#x17c;" horiz-adv-x="1054" 
d="M948 895l-653 -743h696v-152h-905v203l653 743h-641v152h850v-203zM631 1286h-217v270h217v-270z" />
    <glyph glyph-name="Zcaron" unicode="&#x17d;" horiz-adv-x="1411" 
d="M1307 1311l-1004 -1127h1043v-184h-1262v246l1003 1126h-989v184h1209v-245zM702 1780l203 176h193l-256 -270h-279l-256 270h193z" />
    <glyph glyph-name="zcaron" unicode="&#x17e;" horiz-adv-x="1054" 
d="M948 895l-653 -743h696v-152h-905v203l653 743h-641v152h850v-203zM522 1339l211 217h185l-263 -309h-266l-262 309h184z" />
    <glyph glyph-name="uni018F" unicode="&#x18f;" horiz-adv-x="1673" 
d="M1202 1483l-6 -4q170 -93 270 -277q99 -182 99 -426q0 -242 -99 -424q-98 -179 -270 -278q-173 -99 -377 -99q-215 0 -383 109q-165 107 -254 301q-88 192 -88 440v43h1256q-15 176 -90 299q-73 120 -189 179q-115 59 -248 59q-170 0 -295 -84q-122 -82 -178 -231h-215
q47 158 141 268q93 109 234 166q137 55 311 55q206 0 381 -96zM1063 205v4q114 58 190 178q78 123 93 295h-1035q15 -142 80 -266q65 -123 176 -197q112 -74 250 -74q129 0 246 60z" />
    <glyph glyph-name="florin" unicode="&#x192;" horiz-adv-x="1177" 
d="M987 1389q-107 0 -166 -50q-58 -49 -73 -157l-37 -246h331v-168h-356l-63 -420q-24 -170 -129 -258q-104 -88 -289 -88h-144v168h123q108 0 166 49q59 50 74 158l57 389h-303v168h330l41 276q24 170 129 258q104 88 289 88h143v-167h-123z" />
    <glyph glyph-name="uni019D" unicode="&#x19d;" horiz-adv-x="1726" 
d="M1325 8v1548h207v-1556h-428l-703 1548v-1548h-206v1556h428zM-141 -401l2 186h166q90 0 129 39q41 41 41 119v59h206v-90q0 -154 -92 -234q-91 -79 -260 -79h-192z" />
    <glyph glyph-name="uni01B5" unicode="&#x1b5;" horiz-adv-x="1447" 
d="M788 711l-469 -527h1043v-184h-1262v246l414 465h-371v180h533l428 481h-989v184h1208v-245l-375 -420h369v-180h-529z" />
    <glyph glyph-name="uni01B6" unicode="&#x1b6;" horiz-adv-x="1081" 
d="M604 494l-301 -342h696v-152h-905v203l256 291h-213v151h346l265 301h-642v152h850v-203l-219 -250h246v-151h-379z" />
    <glyph glyph-name="uni01E2" unicode="&#x1e2;" horiz-adv-x="2078" 
d="M1292 711l191 -527h479v-184h-635l-168 471h-764l-168 -471h-221l559 1556h1379v-184h-889l172 -477h702v-184h-637zM778 1548l-317 -893h633zM1522 1739h-777v166h777v-166z" />
    <glyph glyph-name="uni01E3" unicode="&#x1e3;" horiz-adv-x="1970" 
d="M1876 489l-829 -10q12 -174 96 -270q82 -94 221 -94q115 0 182 49q68 50 103 145h204q-47 -173 -172 -258q-127 -86 -315 -86q-163 0 -276 70t-168 192q-35 -78 -95 -135t-147 -92q-82 -33 -191 -33q-115 0 -204 47q-87 46 -138 121q-49 73 -49 164q0 179 133 256
q135 78 375 78h238v63v4q0 70 -29 136q-27 61 -86 96t-141 35q-74 0 -129 -27q-56 -27 -86 -74q-31 -49 -37 -98h-205q9 100 72 182q62 80 162 123q101 43 227 43q142 0 233 -55q94 -57 140 -141q134 198 397 198q154 0 270 -67q119 -69 183 -193q65 -127 65 -295
q0 -4 -4 -74zM1149 877l-2 2q-82 -85 -100 -248h624q-6 101 -45 174q-41 78 -106 117q-68 41 -156 41q-132 0 -215 -86zM762 211h4q80 95 80 270h-209q-168 0 -250 -43q-84 -44 -84 -139q0 -85 62 -135q61 -49 165 -49q151 0 232 96zM1341 1309h-710v151h710v-151z" />
    <glyph glyph-name="Gcaron" unicode="&#x1e6;" horiz-adv-x="1691" 
d="M774 838l758 4v-838h-180v393q-34 -112 -103 -209q-68 -95 -178 -153t-260 -58q-197 0 -362 103q-166 104 -259 282q-94 181 -94 416q0 236 92 418q91 181 258 283q163 100 379 100q180 0 320 -61q142 -62 233 -175q93 -116 133 -270h-215q-56 154 -172 242t-297 88
q-150 0 -268 -80q-117 -80 -182 -221q-64 -140 -64 -324q0 -181 66 -325t184 -222q119 -79 277 -79q142 0 254 59q109 58 174 172q64 113 67 270h-561v185zM823 1784l203 176h193l-256 -270h-279l-256 270h193z" />
    <glyph glyph-name="gcaron" unicode="&#x1e7;" horiz-adv-x="1306" 
d="M950 1098l203 -8v-1102q0 -140 -70 -234q-71 -95 -184 -141q-110 -45 -248 -45q-132 0 -239 43q-110 44 -176 125q-68 83 -80 198h204q9 -69 52 -118q45 -51 104 -74q64 -25 139 -25q84 0 154 31q68 30 109 92q38 58 38 150v270q-36 -80 -94 -135q-65 -62 -137 -90
q-79 -31 -160 -31q-132 0 -239 70q-106 69 -168 196t-62 293t62 293q63 128 168 197q106 69 239 69q102 0 176 -39q78 -41 129 -104q53 -66 80 -141v260zM809 193v-9q71 48 113 142q39 88 39 221t-39 221q-41 92 -113 141q-73 49 -178 49q-158 0 -242 -106
q-86 -109 -86 -301t86 -301q85 -107 242 -107q104 0 178 50zM629 1321l211 217h184l-262 -309h-266l-263 309h185z" />
    <glyph glyph-name="uni01EA" unicode="&#x1ea;" horiz-adv-x="1687" 
d="M1096 -49l-2 6q-37 -58 -37 -117q0 -52 30 -76t87 -24h55v-143h-72q-132 0 -209 47q-78 47 -78 135q0 117 107 211q-85 -10 -137 -10q-221 0 -387 100q-172 104 -265 282q-94 181 -94 418t94 418q94 180 265 283q166 100 387 100t387 -100q170 -102 264 -283t94 -418
t-94 -418q-94 -180 -260 -282q-96 -69 -135 -129zM381 459q69 -143 186 -221q121 -80 277 -80q155 0 276 80q119 79 187 221q67 140 67 323q0 184 -67 324q-68 142 -187 221q-121 80 -276 80q-156 0 -277 -80q-117 -78 -186 -221q-68 -142 -68 -324q0 -181 68 -323z" />
    <glyph glyph-name="uni01EB" unicode="&#x1eb;" horiz-adv-x="1247" 
d="M811 -63v4q-33 -53 -33 -111q0 -96 125 -96h55v-140h-73q-126 0 -205 48q-76 46 -76 135q0 52 23 106q21 49 71 99q-12 -1 -27.5 -2t-26.5 -2t-19 -1q-157 0 -283 72q-120 69 -186 201t-66 299t66 299q65 131 188 201q124 71 283 71t280 -71q120 -70 185 -201
q65 -130 65 -299q0 -162 -57 -285q-58 -126 -166 -196q-90 -78 -123 -131zM332 328l-2 -9q40 -95 114 -147q71 -51 177 -51q102 0 176 53q70 50 112 148q39 91 39 225t-39 225q-42 98 -112 148q-74 53 -176 53q-106 0 -177 -51q-70 -50 -112 -148q-39 -91 -39 -223t39 -223z
" />
    <glyph glyph-name="AEacute" unicode="&#x1fc;" horiz-adv-x="2078" 
d="M1292 711l191 -527h479v-184h-635l-168 471h-764l-168 -471h-221l559 1556h1379v-184h-889l172 -477h702v-184h-637zM778 1548l-317 -893h633zM1196 1686h-199l252 270h289z" />
    <glyph glyph-name="aeacute" unicode="&#x1fd;" horiz-adv-x="1970" 
d="M1876 489l-829 -10q12 -174 96 -270q82 -94 221 -94q115 0 182 49q68 50 103 145h204q-47 -173 -172 -258q-127 -86 -315 -86q-163 0 -276 70t-168 192q-35 -78 -95 -135t-147 -92q-82 -33 -191 -33q-115 0 -204 47q-87 46 -138 121q-49 73 -49 164q0 179 133 256
q135 78 375 78h238v63v4q0 70 -29 136q-27 61 -86 96t-141 35q-74 0 -129 -27q-56 -27 -86 -74q-31 -49 -37 -98h-205q9 100 72 182q62 80 162 123q101 43 227 43q142 0 233 -55q94 -57 140 -141q134 198 397 198q154 0 270 -67q119 -69 183 -193q65 -127 65 -295
q0 -4 -4 -74zM1149 877l-2 2q-82 -85 -100 -248h624q-6 101 -45 174q-41 78 -106 117q-68 41 -156 41q-132 0 -215 -86zM762 211h4q80 95 80 270h-209q-168 0 -250 -43q-84 -44 -84 -139q0 -85 62 -135q61 -49 165 -49q151 0 232 96zM1061 1237h-187l238 309h277z" />
    <glyph glyph-name="Oslashacute" unicode="&#x1fe;" horiz-adv-x="1687" 
d="M1722 1556l-278 -286q68 -103 102 -223q35 -125 35 -267q0 -237 -94 -418q-93 -179 -264 -282q-166 -100 -387 -100q-139 0 -258 43q-125 45 -216 122l-137 -143h-268l276 289q-68 103 -102 223q-35 125 -35 266q0 237 94 418q94 180 265 283q166 100 387 100
q138 0 260 -43t217 -123l135 141h268zM385 444l799 826q-65 62 -154 98q-87 35 -186 35q-156 0 -277 -80q-117 -78 -186 -221q-68 -142 -68 -324q0 -187 72 -334zM1298 1110l-798 -831q64 -64 151 -99q82 -33 189 -33q155 0 276 80q118 78 187 222q67 140 67 323
q0 191 -72 338zM901 1679h-199l252 271h289z" />
    <glyph glyph-name="oslashacute" unicode="&#x1ff;" horiz-adv-x="1247" 
d="M1260 1098l-199 -205q92 -145 92 -344q0 -167 -66 -299t-184 -201q-123 -72 -280 -72q-97 0 -179 27q-84 27 -147 76l-76 -80h-231l192 205q-92 145 -92 344q0 167 66 299q65 131 188 201q124 71 283 71q99 0 178 -26q84 -27 147 -76l76 80h232zM319 352l508 539
q-83 80 -209 80q-105 0 -176 -51q-70 -50 -112 -148q-39 -91 -39 -223q0 -105 28 -197zM915 741l-507 -540q83 -80 208 -80q103 0 177 53q70 50 112 148q39 91 39 225q0 102 -29 194zM692 1243h-186l237 309h277z" />
    <glyph glyph-name="uni0218" unicode="&#x218;" horiz-adv-x="1417" 
d="M397 37h-8q-132 59 -215 170q-83 112 -104 262h215q15 -104 69 -172t142 -107q82 -36 192 -36q139 0 232 34q95 35 145 97q49 61 49 145q0 83 -39 131q-42 52 -117 78q-90 32 -221 59l-194 43q-195 44 -307 144q-113 101 -113 266q0 119 74 219q73 99 202 154
q128 55 285 55q162 0 289 -53q130 -54 207 -150q82 -102 102 -223h-215q-34 129 -133 190q-100 62 -246 62q-96 0 -178 -31q-80 -30 -127 -86t-47 -125q0 -72 35 -116q36 -45 104 -74q74 -31 201 -58l194 -43q162 -34 260 -86q97 -52 148 -133q49 -79 49 -200
q0 -137 -80 -246q-78 -106 -223 -168t-332 -62q-160 0 -295 60zM623 -401v270h223v-287l-115 -178h-135l96 195h-69z" />
    <glyph glyph-name="uni0219" unicode="&#x219;" horiz-adv-x="1085" 
d="M317 16l-6 -8q-101 40 -166 117q-64 76 -79 188h204q21 -106 92 -153q68 -45 166 -45q128 0 195 43q68 44 68 121q0 49 -21 83q-21 35 -68 56q-55 25 -129 41l-153 33q-152 35 -236 104q-86 71 -86 190q0 95 58 168q60 75 157 115q100 41 219 41q113 0 201 -33
q94 -36 156 -100q64 -67 88 -162h-205q-21 71 -88 111q-68 41 -149 41q-60 0 -115 -19q-50 -17 -86 -53q-33 -33 -33 -80q0 -42 25 -70t69 -45q41 -16 127 -32l154 -33q168 -37 246 -115q77 -77 77 -207q0 -105 -57 -180q-59 -77 -162 -117q-106 -41 -239 -41
q-121 0 -224 41zM446 -412v271h218v-287l-115 -178h-129l96 194h-70z" />
    <glyph glyph-name="uni021A" unicode="&#x21a;" horiz-adv-x="1316" 
d="M37 1556h1243v-184h-518v-1372h-207v1372h-518v184zM547 -401v270h223v-287l-115 -178h-135l96 195h-69z" />
    <glyph glyph-name="uni021B" unicode="&#x21b;" horiz-adv-x="794" 
d="M741 152l-4 -152h-143q-101 0 -174 33q-80 36 -121 100q-43 67 -43 168v4v641h-231v152h231v260h201v-260h278v-152h-278v-641v-4q0 -82 41 -117q38 -32 120 -32h123zM346 -401v270h217v-287l-114 -178h-130l97 195h-70z" />
    <glyph glyph-name="uni022E" unicode="&#x22e;" horiz-adv-x="1687" 
d="M459 78q-171 103 -264 282q-95 182 -95 418t95 418q94 181 264 283q166 100 387 100t387 -100q170 -102 264 -283t94 -418t-94 -418q-93 -179 -264 -282q-168 -101 -387 -101t-387 101zM1118 231q118 78 187 222q67 140 67 323q0 184 -67 324q-68 142 -187 221
q-121 80 -276 80q-156 0 -277 -80q-117 -78 -186 -221q-68 -142 -68 -324q0 -181 68 -323q69 -145 186 -222q119 -79 277 -79q157 0 276 79zM954 1686h-223v270h223v-270z" />
    <glyph glyph-name="uni022F" unicode="&#x22f;" horiz-adv-x="1247" 
d="M342 49h-2q-120 69 -186 201t-66 299t66 299q65 131 188 201q124 71 283 71t280 -71q120 -70 185 -201q65 -130 65 -299t-65 -299q-65 -131 -185 -201q-123 -72 -280 -72t-283 72zM797 176l-2 -8q71 50 112 147q39 91 39 226q0 134 -39 225q-41 97 -112 147
q-76 54 -177 54q-103 0 -176 -52q-71 -50 -112 -147q-39 -91 -39 -223t39 -223q41 -96 114 -148q71 -51 177 -51q102 0 176 53zM727 1276h-217v270h217v-270z" />
    <glyph glyph-name="uni0232" unicode="&#x232;" horiz-adv-x="1382" 
d="M1149 1556h237l-591 -888v-668h-207v668l-592 888h235l459 -690zM1077 1739h-776v166h776v-166z" />
    <glyph glyph-name="uni0233" unicode="&#x233;" horiz-adv-x="1146" 
d="M590 139l321 959h209l-504 -1499h-208l176 522h-195l-381 977h207zM918 1319h-711v151h711v-151z" />
    <glyph glyph-name="uni0237" unicode="&#x237;" horiz-adv-x="520" 
d="M-55 -401l-2 147h55q80 0 121 35t41 121v1194h200v-1194q0 -152 -94 -228q-93 -75 -246 -75h-75z" />
    <glyph glyph-name="uni0259" unicode="&#x259;" horiz-adv-x="1218" 
d="M883 1047l-9 2q117 -74 179 -203q61 -128 61 -295q0 -169 -61 -297q-62 -129 -179 -203q-118 -74 -276 -74q-152 0 -270 68q-115 66 -181 195q-63 123 -63 292q0 4 4 74h830q-12 173 -97 271q-82 94 -221 94q-115 0 -182 -49q-65 -48 -101 -146h-204q47 173 172 258
q127 86 317 86q165 0 281 -73zM811 211l-2 -2q82 85 100 248h-626q6 -97 47 -172q40 -73 108 -117q67 -43 158 -43q132 0 215 86z" />
    <glyph glyph-name="uni0272" unicode="&#x272;" horiz-adv-x="1232" 
d="M911 1063h-2q86 -59 129 -156q43 -98 43 -223v-4v-680h-200v649v4q0 162 -68 242t-192 80q-125 0 -193 -80t-68 -244v-649h-200v1098h200v-223q40 108 127 176q85 67 218 67q123 0 206 -57zM-57 -401l-2 147h55q80 0 121 35t41 121v96h200v-96q0 -152 -94 -228
q-93 -75 -246 -75h-75z" />
    <glyph glyph-name="circumflex" unicode="&#x2c6;" horiz-adv-x="892" 
d="M580 1556l262 -309h-185l-211 217l-210 -217h-185l262 309h267z" />
    <glyph glyph-name="caron" unicode="&#x2c7;" horiz-adv-x="892" 
d="M446 1339l211 217h185l-262 -309h-267l-262 309h185z" />
    <glyph glyph-name="breve" unicode="&#x2d8;" horiz-adv-x="753" 
d="M203 1280h-4q-72 43 -113 117q-39 71 -39 162h162q0 -86 43 -132q42 -45 123 -45t123 45q43 46 43 132h161q0 -93 -38 -162q-41 -74 -113 -117q-73 -43 -174 -43t-174 43z" />
    <glyph glyph-name="dotaccent" unicode="&#x2d9;" horiz-adv-x="319" 
d="M268 1286h-217v270h217v-270z" />
    <glyph glyph-name="ring" unicode="&#x2da;" horiz-adv-x="563" 
d="M166 1270l-4 -4q-53 31 -84 84q-31 54 -31 116q0 61 31 115q31 53 84 84q54 31 117 31q62 0 116 -31q55 -32 84 -82q31 -54 31 -113q0 -62 -31 -116q-31 -53 -84 -84q-54 -31 -114 -31q-61 0 -115 31zM348 1395h-2q31 31 31 71t-31 68q-32 29 -72 29q-37 0 -69 -29
q-31 -28 -31 -68t31 -71t71 -31q41 0 72 31z" />
    <glyph glyph-name="ogonek" unicode="&#x2db;" horiz-adv-x="456" 
d="M334 -408l-4 5q-128 0 -205 47q-76 46 -76 135q0 70 41 123q39 50 111 98h200q-87 -38 -131 -82q-45 -45 -45 -98q0 -47 35 -68q33 -20 92 -20h54v-140h-72z" />
    <glyph glyph-name="tilde" unicode="&#x2dc;" horiz-adv-x="759" 
d="M51 1290h-2q3 70 31 121t70 74q43 24 94 24q38 0 75 -12t78 -33q60 -32 117 -32q51 0 82 22t43 62h72q-3 -70 -31 -121t-70 -74q-45 -25 -94 -25q-35 0 -76 13q-35 11 -75 32q-62 33 -117 33q-51 0 -82 -22t-43 -62h-72z" />
    <glyph glyph-name="hungarumlaut" unicode="&#x2dd;" horiz-adv-x="1007" 
d="M238 1247h-187l254 309h268zM621 1247h-187l254 309h268z" />
    <glyph glyph-name="gravecomb" unicode="&#x300;" horiz-adv-x="0" 
d="M-51 1247h-187l-327 309h276z" />
    <glyph glyph-name="acutecomb" unicode="&#x301;" horiz-adv-x="0" 
d="M-379 1247h-186l237 309h277z" />
    <glyph glyph-name="uni0302" unicode="&#x302;" horiz-adv-x="0" 
d="M-313 1556l262 -309h-185l-210 217l-211 -217h-185l262 309h267z" />
    <glyph glyph-name="tildecomb" unicode="&#x303;" horiz-adv-x="0" 
d="M-709 1290h-2q3 70 31 121t70 74q43 24 94 24q38 0 76 -12t78 -33q60 -32 116 -32q51 0 82 22t43 62h72q-3 -70 -31 -121t-70 -74q-45 -25 -94 -25q-34 0 -75 13q-37 12 -76 32q-62 33 -117 33q-51 0 -82 -22t-43 -62h-72z" />
    <glyph glyph-name="uni0304" unicode="&#x304;" horiz-adv-x="0" 
d="M-51 1319h-711v151h711v-151z" />
    <glyph glyph-name="uni0306" unicode="&#x306;" horiz-adv-x="0" 
d="M-551 1280h-4q-72 43 -113 117q-39 71 -39 162h162q0 -86 43 -132q42 -45 123 -45t123 45q43 46 43 132h162q0 -91 -39 -162q-41 -74 -113 -117q-73 -43 -174 -43t-174 43z" />
    <glyph glyph-name="uni0307" unicode="&#x307;" horiz-adv-x="0" 
d="M-51 1286h-217v270h217v-270z" />
    <glyph glyph-name="uni0308" unicode="&#x308;" horiz-adv-x="0" 
d="M-479 1286h-217v270h217v-270zM-51 1286h-217v270h217v-270z" />
    <glyph glyph-name="uni030A" unicode="&#x30a;" horiz-adv-x="0" 
d="M-397 1270l-4 -4q-53 31 -84 84q-31 54 -31 116q0 61 31 115q31 53 84 84q54 31 116 31q63 0 117 -31q55 -32 84 -82q31 -54 31 -113q0 -62 -31 -116q-31 -53 -84 -84q-54 -31 -115 -31q-60 0 -114 31zM-215 1395h-2q31 31 31 71t-31 68q-32 29 -72 29q-37 0 -69 -29
q-31 -28 -31 -68t31 -71t71 -31q41 0 72 31z" />
    <glyph glyph-name="uni030B" unicode="&#x30b;" horiz-adv-x="0" 
d="M-770 1247h-186l254 309h268zM-387 1247h-186l254 309h268z" />
    <glyph glyph-name="uni030C" unicode="&#x30c;" horiz-adv-x="0" 
d="M-446 1339l210 217h185l-262 -309h-267l-262 309h185z" />
    <glyph glyph-name="uni0312" unicode="&#x312;" horiz-adv-x="0" 
d="M-154 1751h129l-96 -195h70v-270h-217v287z" />
    <glyph glyph-name="dotbelowcomb" unicode="&#x323;" horiz-adv-x="0" 
d="M-51 -401h-217v270h217v-270z" />
    <glyph glyph-name="uni0326" unicode="&#x326;" horiz-adv-x="0" 
d="M-268 -401v270h217v-287l-115 -178h-129l96 195h-69z" />
    <glyph glyph-name="uni0327" unicode="&#x327;" horiz-adv-x="0" 
d="M-211 -72l4 -2q74 -9 117 -55t43 -113q0 -77 -55 -123q-56 -47 -150 -47h-110v117h92q39 0 61 16q23 16 23 50q0 29 -23 49q-21 18 -55 18h-70v162h123v-72z" />
    <glyph glyph-name="uni0328" unicode="&#x328;" horiz-adv-x="0" 
d="M-123 -408l-4 5q-128 0 -205 47q-76 46 -76 135q0 70 41 123q39 50 111 98h201q-87 -38 -131 -82q-45 -45 -45 -98q0 -47 34 -68q33 -20 93 -20h53v-140h-72z" />
    <glyph glyph-name="uni0335" unicode="&#x335;" horiz-adv-x="0" 
d="M-700 1251h-525v152h525v-152z" />
    <glyph glyph-name="uni0336" unicode="&#x336;" horiz-adv-x="0" 
d="M-51 1104h-1622v180h1622v-180z" />
    <glyph glyph-name="uni0337" unicode="&#x337;" horiz-adv-x="0" 
d="M-51 862l-516 -336v187l516 336v-187z" />
    <glyph glyph-name="uni0338" unicode="&#x338;" horiz-adv-x="0" 
d="M-1090 0h-231l1038 1098h232z" />
    <glyph glyph-name="uni0394" unicode="&#x394;" horiz-adv-x="1554" 
d="M989 1556l559 -1556h-1542l559 1556h424zM1262 184l-484 1364l-485 -1364h969z" />
    <glyph glyph-name="uni03A9" unicode="&#x3a9;" horiz-adv-x="1732" 
d="M1559 610h-9q-58 -116 -168 -217q-109 -100 -286 -209h510v-184h-645v246q214 147 325 299q109 148 109 323q0 176 -70 295q-70 120 -190 178q-123 60 -271 60q-147 0 -270 -60q-121 -59 -191 -178q-69 -117 -69 -295q0 -176 108 -323q110 -150 326 -299v-246h-645v184
h510q-180 111 -287 209q-110 101 -168 217q-57 114 -57 260q0 220 102 379q105 163 271 244q173 84 374 84q202 0 375 -84q165 -80 270 -244q103 -161 103 -379q0 -146 -57 -260z" />
    <glyph glyph-name="uni03BC" unicode="&#x3bc;" horiz-adv-x="1304" 
d="M1266 152l-6 -152h-105q-126 0 -190 43q-65 44 -86 137l-7 41q-41 -108 -124 -174q-85 -67 -216 -67q-46 0 -92 12q-41 10 -82 37v-428h-200v1499h200v-651v-5q0 -159 68 -239t190 -80q123 0 191 80q67 79 67 244v649h201v-832v-4q0 -60 29 -86q27 -24 92 -24h70z" />
    <glyph glyph-name="pi" unicode="&#x3c0;" horiz-adv-x="1349" 
d="M1061 946l-4 -641v-4q0 -82 41 -117q38 -32 121 -32h45v-152h-66q-101 0 -174 33q-80 36 -121 100q-43 67 -43 168v4v641h-418v-946h-200v946h-205v152h1229v-152h-205z" />
    <glyph glyph-name="uni0E3F" unicode="&#xe3f;" horiz-adv-x="1413" 
d="M1165 127l-2 -4q-131 -110 -370 -125v-270h-189v268h-399v1556h399v258h189v-260q157 -12 258 -67q100 -55 151 -142q49 -85 49 -188q0 -110 -51 -184q-51 -75 -141 -119t-197 -53q119 -3 219 -47q98 -43 156 -125q59 -83 59 -197q0 -191 -131 -301zM408 877h194v505
h-194v-505zM973 1296v2q-68 65 -185 80v-493q116 15 185 78q67 61 67 165t-67 168zM406 711v-547h194v547h-194zM788 168l-4 -4q142 18 220 90q77 71 77 182q0 116 -75 185q-77 71 -218 86v-539z" />
    <glyph glyph-name="Wgrave" unicode="&#x1e80;" horiz-adv-x="2318" 
d="M1679 8l381 1548h219l-383 -1556h-430l-307 1546l-307 -1546h-430l-383 1556h219l381 -1548l307 1548h426zM1268 1686h-199l-342 270h289z" />
    <glyph glyph-name="wgrave" unicode="&#x1e81;" horiz-adv-x="1822" 
d="M1315 10l268 1088h195l-271 -1098h-383l-213 1087l-213 -1087h-383l-270 1098h195l268 -1088l213 1088h381zM999 1247h-186l-328 309h277z" />
    <glyph glyph-name="Wacute" unicode="&#x1e82;" horiz-adv-x="2318" 
d="M1679 8l381 1548h219l-383 -1556h-430l-307 1546l-307 -1546h-430l-383 1556h219l381 -1548l307 1548h426zM1247 1686h-198l251 270h289z" />
    <glyph glyph-name="wacute" unicode="&#x1e83;" horiz-adv-x="1822" 
d="M1315 10l268 1088h195l-271 -1098h-383l-213 1087l-213 -1087h-383l-270 1098h195l268 -1088l213 1088h381zM1010 1247h-187l238 309h276z" />
    <glyph glyph-name="Wdieresis" unicode="&#x1e84;" horiz-adv-x="2318" 
d="M1679 8l381 1548h219l-383 -1556h-430l-307 1546l-307 -1546h-430l-383 1556h219l381 -1548l307 1548h426zM1059 1686h-223v270h223v-270zM1483 1686h-223v270h223v-270z" />
    <glyph glyph-name="wdieresis" unicode="&#x1e85;" horiz-adv-x="1822" 
d="M1315 10l268 1088h195l-271 -1098h-383l-213 1087l-213 -1087h-383l-270 1098h195l268 -1088l213 1088h381zM805 1286h-217v270h217v-270zM1233 1286h-217v270h217v-270z" />
    <glyph glyph-name="uni1E9E" unicode="&#x1e9e;" horiz-adv-x="1576" 
d="M975 942l-2 -6q137 -9 258 -66q115 -55 186 -157q70 -101 70 -246q0 -154 -70 -264q-72 -113 -192 -170q-122 -58 -279 -58q-76 0 -143 13q-44 9 -129 35v178q63 -26 117 -37q59 -12 135 -12q107 0 182 38q80 41 123 113q43 73 43 170q0 109 -57 178q-59 71 -160 105
q-103 35 -228 35h-63v198l352 383h-717v-1372h-206v1556h1134v-229z" />
    <glyph glyph-name="uni1EA0" unicode="&#x1ea0;" horiz-adv-x="1554" 
d="M1548 0h-221l-168 471h-764l-168 -471h-221l559 1556h424zM778 1548l-317 -893h633zM887 -401h-223v270h223v-270z" />
    <glyph glyph-name="uni1EA1" unicode="&#x1ea1;" horiz-adv-x="1193" 
d="M852 1061l-4 -12q98 -56 147 -152q47 -92 47 -203v-4v-702h-200v225q-42 -85 -86 -135q-47 -53 -117 -80q-76 -29 -172 -29q-101 0 -184 47t-133 127t-50 181q0 120 68 188q69 69 164 96q105 30 221 41l295 31v18v4q0 74 -27 136q-27 61 -86 96t-141 35q-74 0 -129 -27
q-56 -27 -86 -74t-39 -98h-205q12 102 74 182t160 123t225 43q159 0 258 -57zM702 143v-6q68 47 103 127q35 81 35 182v82l-219 -22q-94 -8 -166 -25q-65 -15 -111 -55q-45 -39 -45 -115q0 -65 31 -116q30 -50 86 -74q58 -25 121 -25q97 0 165 47zM715 -422h-217v270h217
v-270z" />
    <glyph glyph-name="uni1EB8" unicode="&#x1eb8;" horiz-adv-x="1343" 
d="M401 711v-527h826v-184h-1032v1556h1013v-184h-807v-477h793v-184h-793zM821 -401h-223v270h223v-270z" />
    <glyph glyph-name="uni1EB9" unicode="&#x1eb9;" horiz-adv-x="1218" 
d="M1124 489l-831 -4q12 -174 96 -270q82 -94 221 -94q116 0 183 49t102 145h205q-47 -173 -172 -258q-127 -86 -316 -86q-160 0 -278 74q-116 73 -178 203t-62 295q0 167 62 297q61 129 178 202q118 74 276 74q155 0 271 -67q117 -67 182 -195q65 -127 65 -291q0 -4 -4 -74
zM395 883l-2 2q-82 -85 -100 -248h627q-6 99 -46 172t-108 117q-67 43 -156 43q-132 0 -215 -86zM719 -406h-217v271h217v-271z" />
    <glyph glyph-name="uni1EBC" unicode="&#x1ebc;" horiz-adv-x="1343" 
d="M401 711v-527h826v-184h-1032v1556h1013v-184h-807v-477h793v-184h-793zM356 1710v-4q3 68 31 123q28 54 74 78q47 24 98 24q78 0 162 -41q27 -15 61 -24q31 -8 62 -8q49 0 82 20t45 55h80q-3 -68 -31 -123q-26 -50 -74 -75t-98 -25q-78 0 -162 41q-31 17 -61 25
q-38 10 -62 10q-47 0 -82 -21q-33 -20 -45 -55h-80z" />
    <glyph glyph-name="uni1EBD" unicode="&#x1ebd;" horiz-adv-x="1218" 
d="M1124 489l-831 -4q12 -174 96 -270q82 -94 221 -94q116 0 183 49t102 145h205q-47 -173 -172 -258q-127 -86 -316 -86q-160 0 -278 74q-116 73 -178 203t-62 295q0 167 62 297q61 129 178 202q118 74 276 74q155 0 271 -67q117 -67 182 -195q65 -127 65 -291q0 -4 -4 -74
zM395 883l-2 2q-82 -85 -100 -248h627q-6 99 -46 172t-108 117q-67 43 -156 43q-132 0 -215 -86zM279 1286h-3q3 70 31 121t70 74q43 24 94 24q38 0 76 -12q37 -12 78 -33q62 -33 116 -33q49 0 82 23q31 22 43 61h72q-3 -69 -31 -120t-69 -74q-45 -25 -95 -25q-34 0 -75 13
q-37 12 -76 32q-62 33 -117 33q-51 0 -82 -22t-43 -62h-71z" />
    <glyph glyph-name="uni1ECA" unicode="&#x1eca;" horiz-adv-x="595" 
d="M401 0h-206v1556h206v-1556zM410 -401h-224v270h224v-270z" />
    <glyph glyph-name="uni1ECB" unicode="&#x1ecb;" horiz-adv-x="520" 
d="M360 0h-200v1098h200v-1098zM369 1286h-217v270h217v-270zM369 -401h-217v270h217v-270z" />
    <glyph glyph-name="uni1ECC" unicode="&#x1ecc;" horiz-adv-x="1687" 
d="M459 78q-171 103 -264 282q-95 182 -95 418t95 418q94 181 264 283q166 100 387 100t387 -100q170 -102 264 -283t94 -418t-94 -418q-93 -179 -264 -282q-168 -101 -387 -101t-387 101zM1118 231q118 78 187 222q67 140 67 323q0 184 -67 324q-68 142 -187 221
q-121 80 -276 80q-156 0 -277 -80q-117 -78 -186 -221q-68 -142 -68 -324q0 -181 68 -323q69 -145 186 -222q119 -79 277 -79q157 0 276 79zM954 -401h-223v270h223v-270z" />
    <glyph glyph-name="uni1ECD" unicode="&#x1ecd;" horiz-adv-x="1247" 
d="M342 49h-2q-120 69 -186 201t-66 299t66 299q65 131 188 201q124 71 283 71t280 -71q120 -70 185 -201q65 -130 65 -299t-65 -299q-65 -131 -185 -201q-123 -72 -280 -72t-283 72zM797 176l-2 -8q71 50 112 147q39 91 39 226q0 134 -39 225q-41 97 -112 147
q-76 54 -177 54q-103 0 -176 -52q-71 -50 -112 -147q-39 -91 -39 -223t39 -223q41 -96 114 -148q71 -51 177 -51q102 0 176 53zM727 -412h-217v271h217v-271z" />
    <glyph glyph-name="uni1EE4" unicode="&#x1ee4;" horiz-adv-x="1579" 
d="M326 141l-2 -4q-148 168 -148 479v5v931h207v-944v-4q0 -230 102 -344q101 -113 306 -113q200 0 303 115q100 112 100 348v944h207v-931q0 -314 -148 -482q-147 -166 -462 -166q-318 0 -465 166zM899 -408h-223v271h223v-271z" />
    <glyph glyph-name="uni1EE5" unicode="&#x1ee5;" horiz-adv-x="1222" 
d="M862 1098l199 2v-1098h-201v219q-41 -105 -125 -172q-85 -67 -213 -67q-120 0 -205 55q-86 56 -129 153q-43 98 -43 226v4v680h201v-649v-5q0 -161 68 -241t190 -80q123 0 191 80q67 79 67 244v649zM723 -399h-217v270h217v-270z" />
    <glyph glyph-name="Ygrave" unicode="&#x1ef2;" horiz-adv-x="1382" 
d="M1149 1556h237l-591 -888v-668h-207v668l-592 888h235l459 -690zM827 1686h-198l-342 270h288z" />
    <glyph glyph-name="ygrave" unicode="&#x1ef3;" horiz-adv-x="1146" 
d="M590 139l321 959h209l-504 -1499h-208l176 522h-195l-381 977h207zM676 1247h-187l-327 309h276z" />
    <glyph glyph-name="uni1EF8" unicode="&#x1ef8;" horiz-adv-x="1382" 
d="M1149 1556h237l-591 -888v-668h-207v668l-592 888h235l459 -690zM344 1710v-4q3 68 31 123q28 54 74 78q47 24 98 24q78 0 162 -41q27 -15 61 -24q31 -8 61 -8q49 0 82 20t45 55h80q-3 -71 -30 -123q-26 -50 -74 -75t-98 -25q-78 0 -162 41q-30 17 -62 25q-38 10 -61 10
q-47 0 -82 -21q-33 -20 -45 -55h-80z" />
    <glyph glyph-name="uni1EF9" unicode="&#x1ef9;" horiz-adv-x="1146" 
d="M590 139l321 959h209l-504 -1499h-208l176 522h-195l-381 977h207zM233 1290h-2q3 70 31 121t70 74q44 24 94 24q39 0 76 -12q38 -12 78 -33q60 -32 116 -32q51 0 82 22t43 62h72q-3 -70 -31 -121t-69 -74q-45 -25 -95 -25q-34 0 -75 13q-37 12 -76 32q-62 33 -117 33
q-51 0 -82 -22t-43 -62h-72z" />
    <glyph glyph-name="uni2009" unicode="&#x2009;" horiz-adv-x="256" 
 />
    <glyph glyph-name="uni2011" unicode="&#x2011;" horiz-adv-x="921" 
d="M784 496h-647v168h647v-168z" />
    <glyph glyph-name="endash" unicode="&#x2013;" horiz-adv-x="1153" 
d="M1016 496h-879v168h879v-168z" />
    <glyph glyph-name="emdash" unicode="&#x2014;" horiz-adv-x="1755" 
d="M1618 496h-1481v168h1481v-168z" />
    <glyph glyph-name="quoteleft" unicode="&#x2018;" horiz-adv-x="499" 
d="M264 1556h139l-120 -272h77v-246h-241v271z" />
    <glyph glyph-name="quoteright" unicode="&#x2019;" horiz-adv-x="489" 
d="M150 1311v245h241v-270l-145 -248h-140l121 273h-77z" />
    <glyph glyph-name="quotesinglbase" unicode="&#x201a;" horiz-adv-x="552" 
d="M156 0v246h241v-271l-145 -247h-139l120 272h-77z" />
    <glyph glyph-name="quotedblleft" unicode="&#x201c;" horiz-adv-x="880" 
d="M98 1309l146 247h139l-121 -272h78v-246h-242v271zM625 1556h139l-121 -272h78v-246h-242v271z" />
    <glyph glyph-name="quotedblright" unicode="&#x201d;" horiz-adv-x="870" 
d="M551 1311v245h242v-270l-146 -248h-139l121 273h-78zM170 1311v245h242v-270l-146 -248h-139l121 273h-78z" />
    <glyph glyph-name="quotedblbase" unicode="&#x201e;" horiz-adv-x="933" 
d="M537 0v246h241v-271l-145 -247h-139l120 272h-77zM156 0v246h241v-271l-145 -247h-139l120 272h-77z" />
    <glyph glyph-name="dagger" unicode="&#x2020;" horiz-adv-x="1232" 
d="M717 1120h397v-164h-397v-956h-201v956h-397v164h397v436h201v-436z" />
    <glyph glyph-name="daggerdbl" unicode="&#x2021;" horiz-adv-x="1232" 
d="M1114 1120v-164h-397v-299h397v-163h-397v-494h-201v494h-397v163h397v299h-397v164h397v436h201v-436h397z" />
    <glyph glyph-name="bullet" unicode="&#x2022;" horiz-adv-x="860" 
d="M301 365l-2 -3q-57 34 -92 93q-33 56 -33 129q0 70 35 129q34 58 92 92q59 35 129 35q73 0 129 -33q58 -34 92 -92q35 -59 35 -129t-35 -129q-34 -58 -92 -92q-59 -35 -129 -35t-129 35z" />
    <glyph glyph-name="ellipsis" unicode="&#x2026;" horiz-adv-x="1658" 
d="M397 0h-241v246h241v-246zM950 0h-241v246h241v-246zM1503 0h-241v246h241v-246z" />
    <glyph glyph-name="perthousand" unicode="&#x2030;" horiz-adv-x="2422" 
d="M676 813l4 -2q-91 -113 -260 -113t-260 113q-92 115 -92 326q0 210 92 325t258 115q167 0 258 -113q92 -115 92 -325q0 -211 -92 -326zM410 -2l878 1556h199l-879 -1556h-198zM285 903h-4q47 -78 135 -78t135 78q47 77 47 234q0 158 -45 235q-47 80 -135 80t-135 -80
q-45 -77 -45 -235q0 -157 47 -234zM2259 739h2q92 -115 92 -325q0 -211 -92 -326q-91 -113 -260 -113q-81 0 -148 37q-66 37 -114 103q-47 -67 -117 -105q-70 -37 -149 -37q-170 0 -261 113q-92 115 -92 326q0 210 92 325t258 115q85 0 152 -37q70 -39 115 -104
q45 66 114 104q67 37 150 37q167 0 258 -113zM1606 178h-4q47 77 47 234q0 158 -45 235q-47 80 -136 80q-88 0 -135 -80q-45 -77 -45 -235q0 -157 47 -234q47 -78 135 -78q89 0 136 78zM2132 178h-4q47 77 47 234q0 158 -45 235q-47 80 -135 80t-135 -80q-45 -77 -45 -235
q0 -157 47 -234q47 -78 135 -78t135 78z" />
    <glyph glyph-name="minute" unicode="&#x2032;" horiz-adv-x="466" 
d="M264 1008h-151l69 548h213z" />
    <glyph glyph-name="second" unicode="&#x2033;" horiz-adv-x="788" 
d="M264 1008h-151l69 548h213zM586 1008h-152l70 548h213z" />
    <glyph glyph-name="guilsinglleft" unicode="&#x2039;" horiz-adv-x="776" 
d="M446 1012h238l-350 -449l350 -471h-238l-350 471z" />
    <glyph glyph-name="guilsinglright" unicode="&#x203a;" horiz-adv-x="776" 
d="M92 1012h238l350 -449l-350 -471h-238l350 471z" />
    <glyph glyph-name="uni2042" unicode="&#x2042;" horiz-adv-x="1763" 
d="M1223 1374l41 -135l-267 -86l170 -231l-112 -82l-172 235l-174 -235l-113 82l170 231l-266 86l41 135l270 -86v268h141v-268zM741 535l41 -136l-266 -86l170 -231l-113 -82l-172 236l-174 -236l-112 82l170 231l-267 86l41 136l271 -86v268h141v-268zM1704 535l41 -136
l-266 -86l170 -231l-113 -82l-172 236l-174 -236l-113 82l170 231l-266 86l41 136l270 -86v268h142v-268z" />
    <glyph glyph-name="fraction" unicode="&#x2044;" horiz-adv-x="348" 
d="M-217 0h-201l981 1556h201z" />
    <glyph glyph-name="uni2070" unicode="&#x2070;" horiz-adv-x="761" 
d="M139 1090q-86 106 -86 299t86 299q85 104 242 104t242 -104q86 -106 86 -299t-86 -299q-85 -105 -242 -105t-242 105zM498 1182q39 68 39 209q0 140 -39 208q-40 70 -117 70t-117 -70q-39 -68 -39 -208q0 -141 39 -209q40 -70 117 -70t117 70z" />
    <glyph glyph-name="uni2074" unicode="&#x2074;" horiz-adv-x="743" 
d="M594 1335h108v-133h-108v-203h-168v203h-393v168l237 408h324v-443zM426 1757l-242 -422h242v422z" />
    <glyph glyph-name="uni2075" unicode="&#x2075;" horiz-adv-x="745" 
d="M575 1501l3 -8q62 -37 90 -94q30 -61 30 -146q0 -88 -39 -147q-39 -60 -112 -94q-70 -33 -168 -33q-78 0 -154 29q-69 26 -114 84q-43 55 -52 131h172q9 -52 50 -82q42 -31 98 -31q64 0 104 43q41 44 41 109q0 67 -39 106t-106 39q-50 0 -92 -25q-40 -24 -58 -67l-166 14
l41 449h543v-133h-387l-20 -234q21 49 73 86t127 37q79 0 135 -33z" />
    <glyph glyph-name="uni2076" unicode="&#x2076;" horiz-adv-x="761" 
d="M580 1487l-5 -2q65 -36 97 -94q35 -62 35 -142q0 -75 -41 -137t-113 -96q-75 -35 -168 -35q-152 0 -240 102q-88 101 -88 301q0 138 43 228q44 92 117 135t170 43q129 0 205 -61t100 -154h-172q-30 88 -129 88q-59 0 -98 -39t-57 -106q-19 -70 -13 -150q21 65 80 109
q58 43 135 43q83 0 142 -33zM489 1149l-6 2q43 40 43 102q0 67 -39 103q-40 37 -110 37q-42 0 -78 -19q-34 -18 -53 -49q-19 -32 -19 -68q0 -37 19 -73q18 -35 53 -56q33 -20 80 -20q66 0 110 41z" />
    <glyph glyph-name="uni2077" unicode="&#x2077;" horiz-adv-x="600" 
d="M31 1645v133h542v-168l-305 -611h-207l347 646h-377z" />
    <glyph glyph-name="uni2078" unicode="&#x2078;" horiz-adv-x="765" 
d="M655 1348l-4 -2q62 -47 62 -136q0 -66 -43 -118q-44 -54 -119 -80q-82 -29 -174 -29t-174 29q-75 26 -119 80q-43 52 -43 118q0 90 61 136t144 61q-79 19 -129 63q-51 45 -51 123q0 61 38 105q41 47 111 71q73 25 164 25t164 -25q71 -24 110 -69t39 -105q0 -77 -51 -122
q-52 -46 -129 -64q82 -15 143 -61zM276 1634l-4 -2q-36 -26 -36 -71q0 -48 36 -74q38 -27 105 -27q64 0 104 29q37 27 37 74q0 44 -37 71q-40 29 -102 29q-63 0 -103 -29zM489 1139h-4q47 30 47 84t-45 80q-48 28 -116 28q-69 0 -117 -28q-45 -26 -45 -80t47 -84
q48 -31 117 -31q68 0 116 31z" />
    <glyph glyph-name="uni2079" unicode="&#x2079;" horiz-adv-x="761" 
d="M616 1690l-6 -4q90 -104 90 -302q0 -137 -43 -227q-44 -92 -116 -135q-73 -43 -170 -43q-129 0 -205 61t-100 154h172q30 -88 129 -88q57 0 98 41q39 39 57 106q19 71 13 152q-21 -65 -80 -109q-58 -43 -136 -43q-82 0 -141 33q-60 34 -94 94q-33 59 -33 142q0 75 41 137
q40 61 115 96t170 35q152 0 239 -100zM446 1397l3 -8q34 18 53 49q18 30 18 67q0 39 -18 74t-51 55q-35 21 -80 21q-69 0 -111 -39q-43 -40 -43 -100q0 -63 41 -101q40 -37 111 -37q41 0 77 19z" />
    <glyph glyph-name="uni207A" unicode="&#x207a;" horiz-adv-x="671" 
d="M399 1440h215v-123h-215v-221h-127v221h-215v123h215v213h127v-213z" />
    <glyph glyph-name="uni207B" unicode="&#x207b;" horiz-adv-x="653" 
d="M575 1317h-497v123h497v-123z" />
    <glyph glyph-name="uni207C" unicode="&#x207c;" horiz-adv-x="671" 
d="M596 1427h-520v123h520v-123zM596 1206h-520v123h520v-123z" />
    <glyph glyph-name="uni207D" unicode="&#x207d;" horiz-adv-x="452" 
d="M238 895l-2 -4q-164 238 -164 493q0 145 45 261q47 121 119 227h170q-75 -110 -117 -223q-43 -116 -43 -263t45 -266q47 -123 117 -225h-170z" />
    <glyph glyph-name="uni207E" unicode="&#x207e;" horiz-adv-x="454" 
d="M47 895l-4 -4q162 232 162 493q0 144 -43 263q-44 120 -117 225h168q78 -114 121 -223q47 -118 47 -260q0 -258 -166 -494h-168z" />
    <glyph glyph-name="uni2080" unicode="&#x2080;" horiz-adv-x="761" 
d="M139 -143q-86 106 -86 299t86 299q85 104 242 104t242 -104q86 -106 86 -299t-86 -299q-85 -105 -242 -105t-242 105zM498 -51q39 68 39 209t-39 209q-40 69 -117 69t-117 -69q-39 -68 -39 -209t39 -209q40 -70 117 -70t117 70z" />
    <glyph glyph-name="uni2081" unicode="&#x2081;" horiz-adv-x="458" 
d="M227 545h131v-778h-168v536h-170v133h29q50 0 88 10q32 8 53 29q19 19 31 53z" />
    <glyph glyph-name="uni2082" unicode="&#x2082;" horiz-adv-x="716" 
d="M260 -100l408 -2v-134h-619v168l340 269q51 41 68 63q22 28 22 68q0 45 -33 71q-37 29 -92 29q-56 0 -92 -31q-34 -30 -37 -82h-172q3 67 41 123t105 86q70 31 155 31q88 0 158 -31q67 -30 104 -82t37 -110q0 -78 -32 -129q-35 -57 -107 -111z" />
    <glyph glyph-name="uni2083" unicode="&#x2083;" horiz-adv-x="724" 
d="M608 117l-2 -6q68 -47 68 -136q0 -111 -86 -170t-236 -59q-142 0 -221 61q-80 62 -92 177h172q3 -52 41 -82q39 -31 100 -31q62 0 107 31q43 30 43 84q0 60 -51 86t-125 26h-50v133h50q65 0 112 29q43 27 43 72q0 40 -37 67t-92 27q-54 0 -88 -27t-37 -73h-172
q3 63 41 116q37 52 105 82q70 31 151 31q82 0 152 -25q69 -25 108 -69q39 -45 39 -105q0 -154 -202 -184q92 -9 159 -55z" />
    <glyph glyph-name="uni2084" unicode="&#x2084;" horiz-adv-x="743" 
d="M594 102h108v-133h-108v-202h-168v202h-393v168l237 408h324v-443zM426 524l-242 -422h242v422z" />
    <glyph glyph-name="uni2085" unicode="&#x2085;" horiz-adv-x="745" 
d="M575 268l3 -8q62 -37 90 -94q30 -61 30 -146q0 -88 -39 -147q-39 -60 -112 -94q-70 -33 -168 -33q-78 0 -154 29q-69 26 -114 84q-43 55 -52 131h172q9 -52 50 -82q42 -31 98 -31q64 0 104 43q41 44 41 109q0 67 -39 106t-106 39q-51 0 -92 -24q-40 -23 -58 -68l-166 14
l41 449h543v-133h-387l-20 -234q21 49 73 86t127 37q79 0 135 -33z" />
    <glyph glyph-name="uni2086" unicode="&#x2086;" horiz-adv-x="761" 
d="M580 254l-5 -2q65 -36 97 -94q35 -62 35 -142q0 -75 -41 -137t-113 -96q-75 -35 -168 -35q-152 0 -240 102q-88 101 -88 302q0 137 43 227q44 91 117 135q73 43 170 43q129 0 205 -61t100 -154h-172q-30 88 -129 88q-59 0 -98 -39t-57 -106q-19 -70 -13 -150
q21 65 80 109q58 43 135 43q83 0 142 -33zM489 -84l-6 2q43 40 43 102q0 67 -39 103q-40 37 -110 37q-42 0 -78 -19q-34 -18 -53 -49q-19 -32 -19 -67q0 -38 19 -74q17 -33 53 -55q35 -21 80 -21q66 0 110 41z" />
    <glyph glyph-name="uni2087" unicode="&#x2087;" horiz-adv-x="600" 
d="M31 412v133h542v-168l-305 -610h-207l347 645h-377z" />
    <glyph glyph-name="uni2088" unicode="&#x2088;" horiz-adv-x="765" 
d="M655 115l-4 -2q62 -47 62 -136q0 -66 -43 -118q-44 -54 -119 -80q-82 -29 -174 -29t-174 29q-75 26 -119 80q-43 52 -43 118q0 90 61 136t144 61q-77 18 -129 64q-51 45 -51 122q0 61 38 105q42 49 111 72q70 24 164 24q93 0 164 -24q70 -24 110 -70q39 -45 39 -105
q0 -77 -51 -122q-52 -46 -129 -64q82 -15 143 -61zM276 401l-4 -2q-36 -26 -36 -71q0 -48 36 -74q38 -27 105 -27q64 0 104 29q37 27 37 74q0 44 -37 71q-40 29 -102 29q-63 0 -103 -29zM489 -94h-4q47 30 47 84t-45 80q-48 28 -116 28q-69 0 -117 -28q-45 -26 -45 -80
t47 -84q48 -31 117 -31q68 0 116 31z" />
    <glyph glyph-name="uni2089" unicode="&#x2089;" horiz-adv-x="761" 
d="M616 457l-6 -4q90 -104 90 -301q0 -138 -43 -228q-44 -92 -116 -135q-73 -43 -170 -43q-129 0 -205 61t-100 154h172q30 -88 129 -88q57 0 98 41q39 39 57 106q19 71 13 152q-21 -65 -80 -109q-58 -43 -136 -43q-82 0 -141 33q-60 34 -94 94q-33 59 -33 142q0 75 41 137
q40 61 115 96t170 35q152 0 239 -100zM446 164l3 -8q34 18 53 49q18 30 18 67q0 40 -18 74q-18 35 -51 55q-35 21 -80 21q-69 0 -111 -39q-43 -40 -43 -100q0 -63 41 -101q40 -37 111 -37q41 0 77 19z" />
    <glyph glyph-name="uni208A" unicode="&#x208a;" horiz-adv-x="671" 
d="M399 207h215v-123h-215v-221h-127v221h-215v123h215v213h127v-213z" />
    <glyph glyph-name="uni208B" unicode="&#x208b;" horiz-adv-x="653" 
d="M575 84h-497v123h497v-123z" />
    <glyph glyph-name="uni208C" unicode="&#x208c;" horiz-adv-x="671" 
d="M596 195h-520v122h520v-122zM596 -27h-520v123h520v-123z" />
    <glyph glyph-name="uni208D" unicode="&#x208d;" horiz-adv-x="452" 
d="M236 -338l-3 -4q-163 236 -163 494q0 144 45 260q48 125 118 227h170q-73 -107 -116 -223t-43 -262q0 -148 45 -267q47 -123 117 -225h-170z" />
    <glyph glyph-name="uni208E" unicode="&#x208e;" horiz-adv-x="454" 
d="M47 -338l-4 -4q162 232 162 494q0 143 -43 262q-44 120 -117 225h168q78 -114 121 -223q47 -118 47 -260q0 -258 -166 -494h-168z" />
    <glyph glyph-name="uni20A9" unicode="&#x20a9;" horiz-adv-x="2021" 
d="M1935 1047v-168h-227l-27 -209h209v-168h-229l-62 -502h-389l-194 1548l-197 -1548h-389l-61 502h-238v168h217l-26 209h-236v168h215l-63 509h196l193 -1548l194 1548h387l195 -1548l192 1548h197l-63 -509h206z" />
    <glyph glyph-name="Euro" unicode="&#x20ac;" horiz-adv-x="1667" 
d="M1559 434l-3 2q-46 -133 -129 -239q-82 -104 -198 -162t-258 -58q-151 0 -283 72q-128 70 -217 197q-87 124 -125 293h-262l59 168h179q-3 21 -3 71t3 74h-211l59 168h176q41 171 125 295t213 196q125 70 277 70q144 0 258 -57q120 -60 200 -162q83 -105 129 -240h-209
q-53 140 -153 215q-104 78 -223 78q-151 0 -258 -104t-150 -291h653l-59 -168h-617q-2 -16 -2 -74q0 -57 2 -71h566l-60 -168h-483q47 -190 156 -293q111 -105 262 -105q124 0 225 78q99 77 152 215h209z" />
    <glyph glyph-name="uni20B8" unicode="&#x20b8;" horiz-adv-x="1294" 
d="M68 1389v167h1159v-167h-1159zM545 1075h-477v168h1159v-168h-477v-1075h-205v1075z" />
    <glyph glyph-name="uni20B9" unicode="&#x20b9;" horiz-adv-x="1382" 
d="M1307 1389l-336 -5q83 -86 104 -196h230v-168h-230q-21 -115 -94 -197q-72 -81 -190 -125q-116 -43 -259 -43h-151l766 -659h-303l-707 608v219h393q136 0 222 51q89 53 116 148h-727v168h727q-27 94 -116 147q-88 52 -222 52h-393v167h1170v-167z" />
    <glyph glyph-name="uni20BA" unicode="&#x20ba;" horiz-adv-x="1384" 
d="M1294 649v-2q0 -335 -166 -491q-167 -156 -485 -156h-336v575l-180 -55v172l180 53v152l-180 -55v172l180 53v489h205v-428l442 134v-170l-442 -134v-151l442 133v-170l-442 -133v-469h121q230 0 344 117q113 116 113 364h204z" />
    <glyph glyph-name="uni20BD" unicode="&#x20bd;" horiz-adv-x="1480" 
d="M526 647v-141h406v-168h-406v-334h-204v334h-199v168h199v145h-199v168h199v742h440q299 0 461 -113q163 -114 163 -344t-163 -344q-162 -113 -461 -113h-236zM526 1393v-574h242q410 0 410 287t-410 287h-242z" />
    <glyph glyph-name="uni20BF" unicode="&#x20bf;" horiz-adv-x="1413" 
d="M1202 162h2q-93 -103 -274 -144v-288h-176v268h-45h-99v-268h-176v268h-225v1556h225v258h176v-258h107h37v258h176v-282q166 -41 244 -141q79 -101 79 -236q0 -110 -51 -184q-51 -75 -141 -119t-197 -53q119 -3 219 -47q98 -43 156 -125q59 -83 59 -197q0 -159 -96 -266
zM1006 1270h-2q-40 57 -115 88q-76 31 -172 31h-303v-506h303q150 0 239 65q91 66 91 185q0 78 -41 137zM707 166q124 0 206 33q84 34 131 96q46 61 46 145q0 131 -101 201q-104 72 -282 72h-295v-547h295z" />
    <glyph glyph-name="uni2113" unicode="&#x2113;" horiz-adv-x="1015" 
d="M612 125h-2q121 0 236 92v-151q-115 -89 -264 -89q-155 0 -232 80q-78 81 -78 234v4v80l-118 -82l-95 139l213 148v573q0 119 41 215q41 95 121 154q77 57 197 57q173 0 252 -94q80 -95 80 -271q0 -181 -107 -346q-107 -164 -307 -303l-76 -53v-236v-4q0 -147 139 -147z
M549 1399h2q-35 -28 -57 -92q-21 -61 -21 -150v-436q287 239 287 500q0 112 -33 159q-35 50 -98 50q-41 0 -80 -31z" />
    <glyph glyph-name="uni2116" unicode="&#x2116;" horiz-adv-x="2564" 
d="M2318 1530v-4q88 -51 133 -137q48 -91 48 -205t-48 -205q-45 -86 -133 -137q-85 -49 -200 -49q-116 0 -201 49q-86 50 -135 137q-49 88 -49 207t49 207q49 87 135 137q85 49 201 49q115 0 200 -49zM631 1550l702 -1548v1548h207v-1556h-428l-702 1548v-1548h-207v1556
h428zM2259 991h-4q51 66 51 189q0 122 -51 188q-53 68 -144 68q-90 0 -143 -68q-51 -66 -51 -188q0 -121 53 -189q52 -67 146 -67q91 0 143 67z" />
    <glyph glyph-name="uni2117" unicode="&#x2117;" horiz-adv-x="1916" 
d="M1380 1505l-4 -8q193 -114 307 -307q115 -195 115 -420q0 -230 -112 -420q-113 -192 -308 -307q-192 -113 -424 -113q-229 0 -424 115q-193 114 -307 307q-112 190 -112 422q0 229 114 422t307 307q195 115 424 115q232 0 424 -113zM1296 178v-2q156 92 248 248
q92 157 92 344t-92 344q-93 159 -248 250q-157 92 -344 92t-344 -92q-156 -92 -248 -248q-92 -157 -92 -344t92 -344q92 -156 248 -248q157 -92 344 -92t344 92zM999 1241v2q124 0 209 -39q90 -41 138 -110q49 -70 49 -160t-49 -160q-48 -69 -138 -110q-85 -39 -209 -39
h-188v-340h-172v956h360zM991 768v-2q115 0 170 43q56 44 56 127q0 166 -226 166h-180v-334h180z" />
    <glyph glyph-name="uni2120" unicode="&#x2120;" horiz-adv-x="1757" 
d="M510 1253l-12 -10q110 -24 157 -74t47 -133q0 -73 -36 -123q-37 -52 -105 -79t-155 -27q-84 0 -154 31q-64 29 -107 84q-40 52 -49 120h144q9 -62 55 -96q47 -35 117 -35q69 0 114 31q43 30 43 80q0 46 -37 70q-43 27 -110 41l-98 20q-101 21 -154 68q-51 45 -51 129
q0 59 37 108q38 50 100 76q69 29 143 29q130 0 207 -56q78 -57 90 -147h-143q-16 48 -57 74q-42 26 -101 26t-98 -26t-39 -68q0 -35 35 -53q38 -20 117 -37zM1587 1546v-737h-133v719l-154 -719h-241l-152 709v-709h-133v737h254l152 -708l149 708h258z" />
    <glyph glyph-name="trademark" unicode="&#x2122;" horiz-adv-x="1708" 
d="M305 1446h-242v110h617v-110h-242v-627h-133v627zM1542 1556v-737h-133v719l-154 -719h-241l-152 709v-709h-133v737h254l152 -708l149 708h258z" />
    <glyph glyph-name="uni2150" unicode="&#x2150;" horiz-adv-x="1521" 
d="M911 645v133h543v-168l-305 -610h-207l346 645h-377zM283 1556h131v-778h-168v537h-170v133h28q51 0 89 10q32 8 53 29q18 18 30 53zM287 0h-201l981 1556h201z" />
    <glyph glyph-name="uni2151" unicode="&#x2151;" horiz-adv-x="1560" 
d="M1407 690l-6 -4q90 -104 90 -301q0 -137 -43 -227q-44 -92 -117 -135t-170 -43q-129 0 -205 61t-100 154h172q30 -89 129 -89q57 0 98 41q40 40 58 107q18 68 12 152q-21 -65 -80 -109q-58 -43 -135 -43q-82 0 -141 33q-62 35 -95 94q-32 57 -32 141q0 75 41 137
q41 63 114 97q75 35 170 35q152 0 240 -101zM1237 397l2 -8q34 18 53 49q19 32 19 68q0 38 -19 74q-18 35 -51 55t-80 20q-68 0 -110 -39q-43 -40 -43 -100q0 -62 41 -100q40 -37 110 -37q43 0 78 18zM274 1542h132v-778h-168v536h-170v134h28q50 0 88 10q34 9 54 29
q18 18 30 53zM279 -14h-201l981 1556h201z" />
    <glyph glyph-name="uni2152" unicode="&#x2152;" horiz-adv-x="2033" 
d="M1094 778h131v-778h-168v537h-170v133h28q51 0 89 10q32 8 53 29q18 18 30 53zM1399 90q-86 106 -86 299t86 299q85 105 241 105t242 -105q86 -106 86 -299t-86 -299q-85 -104 -242 -104q-156 0 -241 104zM1757 182q39 68 39 209t-39 209q-40 70 -117 70q-76 0 -116 -70
q-39 -68 -39 -209t39 -209q40 -69 116 -69q77 0 117 69zM285 1556h131v-778h-168v537h-170v133h28q51 0 89 10q32 8 53 29q19 19 31 53zM289 0h-201l981 1556h201z" />
    <glyph glyph-name="uni2153" unicode="&#x2153;" horiz-adv-x="1523" 
d="M279 1556h131v-778h-168v537h-170v133h28q50 0 88 10q34 9 54 29q18 18 30 53zM283 0h-201l981 1556h201zM1386 350l-2 -6q68 -47 68 -135q0 -111 -86 -170t-236 -59q-142 0 -221 61q-80 62 -92 176h172q3 -52 41 -82q39 -31 100 -31q62 0 107 31q43 30 43 84
q0 60 -51 86q-53 27 -125 27h-49v133h49q66 0 113 29q43 27 43 71q0 41 -37 68q-36 26 -93 26q-55 0 -88 -26t-36 -74h-172q3 65 40 117t105 82q67 30 151 30t152 -24q70 -25 109 -70t39 -104q0 -154 -203 -184q91 -9 159 -56z" />
    <glyph glyph-name="uni2154" unicode="&#x2154;" horiz-adv-x="1771" 
d="M293 911l407 -2v-133h-618v168l340 268q46 37 67 64q23 30 23 67q0 46 -33 72q-37 29 -92 29q-56 0 -92 -31q-34 -30 -37 -82h-172q3 67 41 123q38 57 104 86q70 31 156 31q88 0 158 -31q67 -30 104 -82t37 -110q0 -76 -33 -129q-36 -58 -106 -111zM528 -2h-200l981 1556
h200zM1632 348l-2 -6q68 -47 68 -135q0 -111 -86 -170q-88 -60 -236 -60q-141 0 -221 62t-92 176h172q3 -52 41 -82q39 -31 100 -31q62 0 107 31q43 30 43 84q0 60 -51 86q-53 27 -125 27h-50v133h50q65 0 112 29q43 27 43 71q0 41 -37 68q-36 26 -92 26q-55 0 -88 -26
q-34 -27 -37 -74h-172q3 64 41 117q37 52 105 82q67 30 151 30t152 -24t108 -70q39 -45 39 -104q0 -155 -202 -185q92 -9 159 -55z" />
    <glyph glyph-name="uni2155" unicode="&#x2155;" horiz-adv-x="1595" 
d="M1403 502l2 -8q61 -36 90 -95q31 -64 31 -145q0 -89 -39 -148t-113 -94q-68 -32 -168 -32q-80 0 -153 28q-70 27 -115 84q-42 53 -51 131h172q9 -52 49 -82t98 -30q65 0 105 43q41 44 41 108q0 68 -39 107t-107 39q-50 0 -92 -25q-38 -23 -57 -68l-166 15l41 448h543
v-133h-388l-20 -233q20 48 74 86q52 37 127 37q79 0 135 -33zM279 1548h131v-778h-168v537h-170v133h28q50 0 88 10q34 9 54 29q18 18 30 53zM283 -8h-201l981 1556h201z" />
    <glyph glyph-name="uni2156" unicode="&#x2156;" horiz-adv-x="1843" 
d="M293 911l407 -2v-133h-618v168l340 268q46 37 67 64q23 30 23 67q0 46 -33 72q-37 29 -92 29q-56 0 -92 -31q-34 -30 -37 -82h-172q3 67 41 123q38 57 104 86q70 31 156 31q88 0 158 -31q67 -30 104 -82t37 -110q0 -76 -33 -129q-36 -58 -106 -111zM528 -2h-200l981 1556
h200zM1649 500l2 -8q61 -36 90 -95q31 -64 31 -145q0 -89 -39 -148t-113 -94q-70 -33 -168 -33q-78 0 -154 29q-69 26 -114 84q-42 53 -51 131h172q9 -52 49 -82q41 -30 98 -30q64 0 104 43q41 44 41 108q0 69 -38 107q-39 39 -107 39q-50 0 -92 -25q-38 -23 -57 -68
l-166 15l41 448h542v-133h-387l-20 -233q21 49 73 86q50 36 127 36q82 0 136 -32z" />
    <glyph glyph-name="uni2157" unicode="&#x2157;" horiz-adv-x="1804" 
d="M635 1128l-2 -6q67 -46 67 -135q0 -111 -86 -170t-235 -59q-142 0 -221 61q-80 62 -92 176h172q3 -52 41 -82t100 -30t106 30q43 30 43 84q0 60 -51 86q-53 27 -125 27h-49v133h49q66 0 113 29q43 27 43 71q0 41 -37 68q-38 27 -92 27q-53 0 -88 -27q-34 -27 -37 -74
h-172q3 64 41 117q37 52 104 82q70 31 152 31q81 0 151 -25q71 -25 109 -69q39 -45 39 -105q0 -154 -203 -184q92 -9 160 -56zM487 -6h-200l981 1556h200zM1608 496l2 -9q62 -37 90 -94q31 -64 31 -145q0 -89 -39 -148t-113 -94q-70 -33 -168 -33q-78 0 -154 29
q-69 26 -114 84q-42 53 -51 131h172q9 -52 49 -82q42 -31 98 -31q65 0 105 43t40 109q0 68 -38 106q-39 39 -107 39q-51 0 -92 -24q-38 -23 -57 -68l-166 15l41 448h542v-133h-387l-20 -233q20 48 74 86q50 36 127 36q81 0 135 -32z" />
    <glyph glyph-name="uni2158" unicode="&#x2158;" horiz-adv-x="1837" 
d="M625 1114h108v-133h-108v-203h-168v203h-394v168l238 407h324v-442zM457 1536l-242 -422h242v422zM516 0h-201l981 1556h201zM1636 502l2 -8q63 -37 91 -95q30 -62 30 -145q0 -89 -39 -148q-39 -60 -112 -94q-68 -32 -168 -32q-81 0 -154 28q-70 27 -115 84
q-42 53 -51 131h172q9 -52 49 -82q41 -30 99 -30q64 0 104 43q41 44 41 108q0 68 -39 107t-106 39q-50 0 -92 -25q-40 -23 -58 -68l-166 15l41 448h543v-133h-387l-21 -233q20 48 74 86q52 37 127 37q79 0 135 -33z" />
    <glyph glyph-name="uni2159" unicode="&#x2159;" horiz-adv-x="1570" 
d="M1372 487l-4 -2q63 -35 96 -94q35 -62 35 -141q0 -75 -41 -137q-42 -64 -112 -97q-72 -34 -168 -34q-152 0 -240 102q-88 101 -88 301q0 137 43 227q44 93 117 136t170 43q127 0 204 -62t101 -154h-172q-30 89 -129 89q-60 0 -99 -39t-57 -107q-18 -67 -12 -149
q21 64 80 108q58 43 135 43q82 0 141 -33zM1282 150l-6 2q43 40 43 102q0 66 -39 102q-40 37 -111 37q-43 0 -77 -18q-36 -19 -54 -49t-18 -68q0 -40 18 -74q17 -32 54 -55q33 -20 79 -20q67 0 111 41zM268 1554h131v-778h-168v537h-170v133h29q50 0 88 10q32 8 53 29
q19 19 31 53zM272 -2h-200l981 1556h200z" />
    <glyph glyph-name="uni215A" unicode="&#x215a;" horiz-adv-x="1765" 
d="M590 1280l2 -8q62 -37 90 -94q31 -64 31 -146q0 -88 -39 -147t-113 -94q-70 -33 -168 -33q-80 0 -153 28q-70 27 -115 84q-42 53 -51 131h172q9 -51 49 -81q42 -31 98 -31q65 0 105 43q41 44 41 108q0 68 -39 107t-107 39q-50 0 -92 -25q-39 -23 -57 -67l-166 14l41 448
h543v-133h-388l-20 -233q20 48 74 86q52 37 127 37q79 0 135 -33zM479 -8h-200l981 1556h200zM1567 479l-4 -2q63 -35 96 -94q35 -62 35 -141q0 -76 -41 -138t-113 -96q-75 -35 -168 -35q-150 0 -239 103t-89 301q0 137 43 227q43 92 117 135q73 43 170 43q129 0 205 -61
t100 -154h-172q-30 88 -129 88q-59 0 -98 -39t-57 -106q-19 -70 -13 -150q21 65 80 109q58 43 135 43q83 0 142 -33zM1477 141l-7 2q43 40 43 103q0 67 -38 102q-40 37 -111 37q-44 0 -78 -18q-33 -17 -53 -50q-19 -32 -19 -67q0 -38 19 -74q17 -33 53 -55q34 -21 80 -21
q67 0 111 41z" />
    <glyph glyph-name="oneeighth" unicode="&#x215b;" horiz-adv-x="1574" 
d="M1446 348l-4 -2q61 -46 61 -135q0 -67 -43 -119q-44 -54 -119 -80q-79 -28 -174 -28t-174 28q-75 26 -119 80q-43 52 -43 119q0 88 62 135q63 47 143 62q-79 19 -129 63q-51 45 -51 123q0 59 39 104q42 49 111 72q73 25 163 25q91 0 164 -25q71 -24 111 -70
q39 -45 39 -104q0 -78 -51 -123q-50 -44 -129 -63q80 -15 143 -62zM1067 635l-4 -2q-37 -27 -37 -72q0 -47 37 -74q36 -26 104 -26q66 0 105 28q37 27 37 74q0 45 -37 72q-40 29 -103 29q-62 0 -102 -29zM1280 139h-4q47 30 47 84t-45 80q-50 29 -117 29t-117 -29
q-45 -26 -45 -80q0 -53 48 -84q47 -30 116 -30q71 0 117 30zM264 1552h131v-778h-168v537h-170v133h29q50 0 88 10q32 8 53 29q19 19 31 53zM268 -4h-200l981 1556h200z" />
    <glyph glyph-name="threeeighths" unicode="&#x215c;" horiz-adv-x="1785" 
d="M635 1128l-2 -6q67 -46 67 -135q0 -111 -86 -170t-235 -59q-142 0 -221 61q-80 62 -92 176h172q3 -52 41 -82t100 -30t106 30q43 30 43 84q0 60 -51 86q-53 27 -125 27h-49v133h49q66 0 113 29q43 27 43 71q0 41 -37 68q-38 27 -92 27q-53 0 -88 -27q-34 -27 -37 -74
h-172q3 64 41 117q37 52 104 82q70 31 152 31q81 0 151 -25q71 -25 109 -69q39 -45 39 -105q0 -154 -203 -184q92 -9 160 -56zM487 -6h-200l981 1556h200zM1651 342l-4 -2q61 -46 61 -135q0 -67 -43 -119q-44 -54 -119 -80q-82 -29 -174 -29t-174 29q-75 26 -119 80
q-43 52 -43 119q0 88 62 135q61 46 143 61q-77 18 -129 64q-51 45 -51 123q0 59 39 104q43 49 110 72q70 24 164 24t164 -24q71 -24 111 -70q39 -45 39 -104q0 -77 -52 -123t-129 -64q83 -15 144 -61zM1272 629l-4 -2q-37 -27 -37 -72q0 -47 37 -74q36 -26 104 -26
q66 0 105 28q36 26 36 74q0 46 -36 72q-39 28 -103 28q-63 0 -102 -28zM1485 133h-4q47 30 47 84t-45 80q-50 29 -117 29t-117 -29q-45 -26 -45 -80t47 -84q48 -31 117 -31t117 31z" />
    <glyph glyph-name="fiveeighths" unicode="&#x215d;" horiz-adv-x="1771" 
d="M590 1280l2 -8q62 -37 90 -94q31 -64 31 -146q0 -88 -39 -147t-113 -94q-70 -33 -168 -33q-80 0 -153 28q-70 27 -115 84q-42 53 -51 131h172q9 -51 49 -81q42 -31 98 -31q65 0 105 43q41 44 41 108q0 68 -39 107t-107 39q-50 0 -92 -25q-39 -23 -57 -67l-166 14l41 448
h543v-133h-388l-20 -233q20 48 74 86q52 37 127 37q79 0 135 -33zM479 -8h-200l981 1556h200zM1642 340l-4 -2q62 -47 62 -135q0 -67 -43 -119q-44 -54 -119 -80q-82 -29 -174 -29t-174 29q-75 26 -119 80q-43 52 -43 119q0 88 62 135q61 46 143 61q-77 18 -129 64
q-51 45 -51 123q0 59 39 104q43 49 110 72q70 24 164 24t164 -24t110 -70q39 -45 39 -104q0 -78 -51 -123q-52 -46 -129 -64q82 -15 143 -61zM1264 627l-4 -2q-37 -27 -37 -72q0 -47 37 -74q36 -26 104 -26q65 0 104 28q37 27 37 74q0 45 -37 72q-39 28 -102 28t-102 -28z
M1477 131h-4q47 30 47 84t-45 80q-50 29 -117 29t-117 -29q-45 -26 -45 -80t47 -84q48 -31 117 -31t117 31z" />
    <glyph glyph-name="seveneighths" unicode="&#x215e;" horiz-adv-x="1609" 
d="M86 1423v133h543v-167l-305 -611h-207l346 645h-377zM317 0h-200l981 1556h200zM1481 348l-4 -2q61 -46 61 -135q0 -67 -43 -119q-44 -54 -119 -80q-79 -28 -174 -28t-174 28q-75 26 -119 80q-43 52 -43 119q0 88 62 135q63 47 143 62q-79 19 -129 63q-51 45 -51 123
q0 59 39 104q43 49 110 72q73 25 164 25t164 -25q71 -24 111 -70q39 -45 39 -104q0 -77 -52 -123q-50 -44 -129 -63q82 -15 144 -62zM1102 635l-4 -2q-37 -27 -37 -72q0 -47 37 -74q36 -26 104 -26q66 0 105 28q36 26 36 74q0 46 -36 72q-40 29 -103 29q-62 0 -102 -29z
M1315 139h-4q47 30 47 84t-45 80q-50 29 -117 29t-117 -29q-45 -26 -45 -80t47 -84t117 -30t117 30z" />
    <glyph glyph-name="uni215F" unicode="&#x215f;" horiz-adv-x="1343" 
d="M317 1556h132v-778h-168v537h-170v133h28q50 0 88 10q34 9 54 29q18 18 30 53zM322 0h-201l981 1556h201z" />
    <glyph glyph-name="uni2189" unicode="&#x2189;" horiz-adv-x="1708" 
d="M156 868q-86 106 -86 299t86 299q85 105 241 105q157 0 242 -105q86 -106 86 -299t-86 -299q-85 -104 -242 -104q-156 0 -241 104zM514 961q39 68 39 208q0 141 -39 209q-40 70 -117 70q-76 0 -116 -70q-39 -68 -39 -209q0 -140 39 -208q40 -70 116 -70q77 0 117 70z
M465 0h-201l981 1556h201zM1569 350l-2 -6q67 -46 67 -135q0 -111 -86 -170t-235 -59q-142 0 -221 61q-81 63 -93 176h172q3 -52 41 -82q39 -31 101 -31q61 0 106 31q43 30 43 84q0 60 -51 86q-53 27 -125 27h-49v133h49q66 0 113 29q43 27 43 71q0 41 -37 68q-36 26 -92 26
q-55 0 -88 -26q-34 -27 -37 -74h-172q3 64 41 117q37 52 104 82t152 30q83 0 151 -24q70 -25 109 -70t39 -104q0 -154 -203 -184q92 -9 160 -56z" />
    <glyph glyph-name="arrowleft" unicode="&#x2190;" horiz-adv-x="1576" 
d="M434 868h1059v-182h-1057l465 -477h-248l-516 569l516 570h248z" />
    <glyph glyph-name="arrowup" unicode="&#x2191;" horiz-adv-x="1576" 
d="M788 1456l570 -516v-248l-477 465v-1057h-183v1059l-479 -467v248z" />
    <glyph glyph-name="arrowright" unicode="&#x2192;" horiz-adv-x="1576" 
d="M676 1348h248l516 -570l-516 -569h-248l465 477h-1057v182h1059z" />
    <glyph glyph-name="arrowdown" unicode="&#x2193;" horiz-adv-x="1576" 
d="M881 1456v-1057l477 465v-248l-570 -516l-569 516v248l479 -467v1059h183z" />
    <glyph glyph-name="uni2196" unicode="&#x2196;" horiz-adv-x="1576" 
d="M588 1124l811 -813l-127 -127l-811 811v-682l-172 170v813h813l170 -172h-684z" />
    <glyph glyph-name="uni2197" unicode="&#x2197;" horiz-adv-x="1576" 
d="M305 1124l170 172h813v-813l-172 -170v682l-811 -811l-127 127l811 813h-684z" />
    <glyph glyph-name="uni2198" unicode="&#x2198;" horiz-adv-x="1576" 
d="M1116 561v682l172 -170v-813h-813l-170 172h684l-811 813l127 127z" />
    <glyph glyph-name="uni2199" unicode="&#x2199;" horiz-adv-x="1576" 
d="M1272 1372l127 -127l-811 -813h684l-170 -172h-813v813l172 170v-682z" />
    <glyph glyph-name="uni21A4" unicode="&#x21a4;" horiz-adv-x="1576" 
d="M1227 868v480h182v-1139h-182v477h-875l465 -477h-248l-516 569l516 570h248l-467 -480h877z" />
    <glyph glyph-name="uni21A5" unicode="&#x21a5;" horiz-adv-x="1576" 
d="M1358 1022v-248l-477 465v-917h477v-183h-1139v183h479v919l-479 -467v248l569 516z" />
    <glyph glyph-name="uni21A6" unicode="&#x21a6;" horiz-adv-x="1576" 
d="M760 1348h248l516 -570l-516 -569h-248l465 477h-875v-477h-182v1139h182v-480h877z" />
    <glyph glyph-name="uni21A7" unicode="&#x21a7;" horiz-adv-x="1576" 
d="M1358 1417v-182h-477v-918l477 465v-247l-570 -517l-569 517v247l479 -467v920h-479v182h1139z" />
    <glyph glyph-name="uni21B0" unicode="&#x21b0;" horiz-adv-x="1576" 
d="M336 868h1059v-868h-178v686h-879l465 -477h-248l-516 569l516 570h248z" />
    <glyph glyph-name="uni21B1" unicode="&#x21b1;" horiz-adv-x="1576" 
d="M774 1348h248l516 -570l-516 -569h-248l465 477h-879v-686h-178v868h1059z" />
    <glyph glyph-name="uni21B2" unicode="&#x21b2;" horiz-adv-x="1576" 
d="M1217 870v686h178v-868h-1059l467 -479h-248l-516 569l516 570h248l-465 -478h879z" />
    <glyph glyph-name="uni21B3" unicode="&#x21b3;" horiz-adv-x="1576" 
d="M774 1348h248l516 -570l-516 -569h-248l467 479h-1059v868h178v-686h879z" />
    <glyph glyph-name="partialdiff" unicode="&#x2202;" horiz-adv-x="1265" 
d="M281 1573v2q461 -50 669 -289q209 -241 209 -620q0 -334 -141 -510q-140 -174 -420 -174q-144 0 -266 61q-124 62 -197 178q-74 118 -74 275q0 155 68 270q67 114 184 172q118 59 260 59q111 0 193 -39q89 -42 141 -100q58 -64 84 -127q-3 186 -80 334q-77 149 -233 240
q-159 93 -397 114v154zM780 174v-8q74 45 119 133q43 85 43 197q0 109 -43 188q-45 82 -119 121q-77 41 -172 41q-96 0 -172 -43q-78 -44 -121 -123t-43 -188t43 -191t121 -129q74 -45 172 -45q95 0 172 47z" />
    <glyph glyph-name="product" unicode="&#x220f;" horiz-adv-x="1894" 
d="M1839 1556v-184h-299v-1648h-207v1648h-772v-1648h-207v1648h-299v184h1784z" />
    <glyph glyph-name="summation" unicode="&#x2211;" horiz-adv-x="1396" 
d="M1032 664l-698 -756h995v-184h-1241v245l643 693l-643 649v245h1221v-184h-973z" />
    <glyph glyph-name="minus" unicode="&#x2212;" horiz-adv-x="1200" 
d="M1092 475h-983v156h983v-156z" />
    <glyph glyph-name="radical" unicode="&#x221a;" horiz-adv-x="1376" 
d="M674 -131l497 1687h211l-540 -1832h-332l-236 698h-258v184h410z" />
    <glyph glyph-name="infinity" unicode="&#x221e;" horiz-adv-x="2293" 
d="M1933 995h-8q114 -67 178 -184q66 -120 66 -256q0 -142 -64 -258q-64 -117 -178 -184q-115 -68 -254 -68q-161 0 -291 92q-124 88 -233 244l-10 14l-11 -14q-109 -156 -233 -244q-130 -92 -291 -92q-139 0 -254 68q-114 67 -178 184q-63 114 -63 258q0 138 65 256
q64 117 178 184q115 68 256 68q165 0 293 -94q129 -94 232 -246l10 -14l10 14q104 153 231 246q128 94 293 94q141 0 256 -68zM1028 555l-53 61q-82 119 -172 197t-197 78q-89 0 -162 -43q-71 -42 -112 -119t-41 -178t41 -178q40 -75 114 -119q73 -43 162 -43q106 0 199 78
q92 77 174 196zM1817 246h-7q74 44 115 121t41 178t-41 178q-42 79 -113 121q-73 43 -161 43q-109 0 -197 -76q-90 -78 -172 -197l-47 -69l47 -70q82 -119 174 -196q91 -76 199 -76q89 0 162 43z" />
    <glyph glyph-name="integral" unicode="&#x222b;" horiz-adv-x="808" 
d="M-6 -401v149h123q64 0 108 23q43 22 60 67q18 47 18 127v1241q0 181 92 264q93 84 271 84h143v-151h-123q-66 0 -106 -21t-58 -67q-18 -47 -18 -127v-1241q0 -182 -94 -264q-96 -84 -273 -84h-143z" />
    <glyph glyph-name="approxequal" unicode="&#x2248;" horiz-adv-x="1425" 
d="M135 721l-4 -6q68 88 154 143q80 51 172 51q55 0 108 -12q57 -13 142 -49q72 -33 133 -49q56 -15 106 -15q71 0 121 33q55 36 117 101l102 -103q-70 -89 -153 -141q-80 -51 -172 -51q-55 0 -107 12q-55 13 -141 49q-79 33 -135 49q-60 17 -105 17q-70 0 -123 -33
q-51 -32 -112 -99zM131 291l-4 -6q68 88 154 143q80 51 172 51q55 0 108 -12q55 -13 141 -49q71 -32 134 -49q55 -15 106 -15q71 0 121 33q58 38 117 100l102 -102q-69 -87 -154 -141q-80 -51 -172 -51q-54 0 -106 12q-55 13 -141 49q-77 32 -136 49q-56 16 -104 16
q-72 0 -123 -32q-53 -33 -113 -99z" />
    <glyph glyph-name="notequal" unicode="&#x2260;" horiz-adv-x="1318" 
d="M1174 846v-156h-336l-156 -268h492v-156h-582l-156 -266h-194l155 266h-252v156h342l156 268h-498v156h588l148 252h194l-147 -252h246z" />
    <glyph glyph-name="lessequal" unicode="&#x2264;" horiz-adv-x="1224" 
d="M127 803l960 291v-162l-837 -252l837 -252v-160l-960 291v244zM1087 0h-960v156h960v-156z" />
    <glyph glyph-name="greaterequal" unicode="&#x2265;" horiz-adv-x="1224" 
d="M137 932v162l961 -291v-244l-961 -291v160l838 252zM1098 0h-961v156h961v-156z" />
    <glyph glyph-name="uni2300" unicode="&#x2300;" horiz-adv-x="1366" 
d="M1272 1022l-135 -137q56 -74 86 -160q30 -85 30 -180q0 -160 -75 -289q-77 -132 -209 -209q-135 -78 -289 -78q-88 0 -180 29q-84 26 -160 84l-131 -133l-119 119l131 133q-52 72 -82 159q-30 86 -30 183q0 155 77 288q77 132 209 209q135 78 289 78q91 0 180 -28
q88 -28 158 -80l131 131zM344 324l555 559q-97 63 -217 63q-110 0 -201 -55t-147 -148q-55 -91 -55 -200q0 -116 65 -219zM1018 764l-555 -559q98 -64 217 -64q109 0 201 56q91 55 147 147q55 91 55 201q0 116 -65 219z" />
    <glyph glyph-name="uni2460" unicode="&#x2460;" horiz-adv-x="1912" 
d="M1386 1522q197 -115 312 -312q114 -197 114 -430q0 -234 -114 -430t-312 -311t-430 -115t-430 115q-197 114 -311 311q-115 198 -115 430t115 430t311 312q197 114 430 114q234 0 430 -114zM1307 170q163 94 258 258q94 163 94 352q0 190 -94 353q-95 163 -258 258
q-163 94 -353 94q-189 0 -352 -94q-164 -95 -258 -258t-94 -353q0 -189 94 -352q94 -164 258 -258q163 -94 352 -94q190 0 353 94zM905 1245l162 -2v-934h-195v643h-200v156h39q79 0 129 29q46 27 61 92z" />
    <glyph glyph-name="uni2461" unicode="&#x2461;" horiz-adv-x="1912" 
d="M1386 1522q197 -115 312 -312q114 -197 114 -430q0 -234 -114 -430t-312 -311t-430 -115t-430 115q-197 114 -311 311q-115 198 -115 430t115 430t311 312q197 114 430 114q234 0 430 -114zM1307 170q163 94 258 258q94 163 94 352q0 190 -94 353q-95 163 -258 258
q-163 94 -353 94q-189 0 -352 -94q-164 -95 -258 -258t-94 -353q0 -189 94 -352q94 -164 258 -258q163 -94 352 -94q190 0 353 94zM809 467h512v-156h-735v199l415 324q55 43 76 75q25 39 25 78q0 55 -43 92t-113 37q-69 0 -112 -37q-45 -39 -48 -104h-198q3 88 53 153
q49 64 129 99q81 35 180 35q107 0 185 -37t122 -99q43 -61 43 -139q0 -84 -43 -145q-44 -62 -127 -127z" />
    <glyph glyph-name="uni2462" unicode="&#x2462;" horiz-adv-x="1912" 
d="M1386 1522q197 -115 312 -312q114 -197 114 -430q0 -234 -114 -430t-312 -311t-430 -115t-430 115q-197 114 -311 311q-115 198 -115 430t115 430t311 312q197 114 430 114q234 0 430 -114zM1307 170q163 94 258 258q94 163 94 352q0 190 -94 353q-95 163 -258 258
q-163 94 -353 94q-189 0 -352 -94q-164 -95 -258 -258t-94 -353q0 -189 94 -352q94 -164 258 -258q163 -94 352 -94q190 0 353 94zM1188 766l-2 -6q56 -23 98 -74q39 -48 39 -121q0 -88 -49 -149q-50 -62 -135 -92q-88 -31 -199 -31q-167 0 -258 76q-92 77 -107 209h199
q3 -63 47 -101q43 -37 121 -37q40 0 86 17q39 14 68 47q26 29 26 78q0 70 -57 104q-56 33 -156 33h-61v155h61q95 0 142 35t47 86q0 54 -43 84q-45 31 -111 31q-70 0 -106 -33q-38 -35 -41 -86h-199q6 77 53 139q48 63 123 97q78 35 172 35t176 -31q80 -30 127 -86t47 -125
q0 -101 -65 -154q-62 -51 -166 -69q61 -6 123 -31z" />
    <glyph glyph-name="uni2463" unicode="&#x2463;" horiz-adv-x="1912" 
d="M1386 1522q197 -115 312 -312q114 -197 114 -430q0 -234 -114 -430t-312 -311t-430 -115t-430 115q-197 114 -311 311q-115 198 -115 430t115 430t311 312q197 114 430 114q234 0 430 -114zM1307 170q163 94 258 258q94 163 94 352q0 190 -94 353q-95 163 -258 258
q-163 94 -353 94q-189 0 -352 -94q-164 -95 -258 -258t-94 -353q0 -189 94 -352q94 -164 258 -258q163 -94 352 -94q190 0 353 94zM1176 1245v-534h131v-156h-131v-244h-195v244h-471v195l305 495h361zM981 1208l-305 -497h305v497z" />
    <glyph glyph-name="uni2464" unicode="&#x2464;" horiz-adv-x="1912" 
d="M1386 1522q197 -115 312 -312q114 -197 114 -430q0 -234 -114 -430t-312 -311t-430 -115t-430 115q-197 114 -311 311q-115 198 -115 430t115 430t311 312q197 114 430 114q234 0 430 -114zM1307 170q163 94 258 258q94 163 94 352q0 190 -94 353q-95 163 -258 258
q-163 94 -353 94q-189 0 -352 -94q-164 -95 -258 -258t-94 -353q0 -189 94 -352q94 -164 258 -258q163 -94 352 -94q190 0 353 94zM1178 915l-4 -10q69 -41 108 -112q41 -74 41 -175q0 -104 -49 -180q-47 -73 -133 -112q-81 -37 -189 -37q-100 0 -184 35q-82 34 -131 98
q-48 62 -57 153h198q9 -60 56 -98q46 -37 120 -37q76 0 125 49t49 134q0 55 -24 96q-24 40 -64 61q-41 21 -86 21q-54 0 -104 -29q-47 -27 -68 -80l-190 17l47 534h629v-156h-451l-24 -288q24 61 86 108t147 47q87 0 152 -39z" />
    <glyph glyph-name="uni2465" unicode="&#x2465;" horiz-adv-x="1912" 
d="M1386 1522q197 -115 312 -312q114 -197 114 -430q0 -234 -114 -430t-312 -311t-430 -115t-430 115q-197 114 -311 311q-115 198 -115 430t115 430t311 312q197 114 430 114q234 0 430 -114zM1307 170q163 94 258 258q94 163 94 352q0 190 -94 353q-95 163 -258 258
q-163 94 -353 94q-189 0 -352 -94q-164 -95 -258 -258t-94 -353q0 -189 94 -352q94 -164 258 -258q163 -94 352 -94q190 0 353 94zM1176 897l-9 2q76 -42 115 -113q41 -74 41 -168q0 -92 -49 -165q-50 -75 -135 -115q-87 -41 -197 -41q-120 0 -209 53q-87 52 -137 160
q-49 107 -49 270q0 164 51 269q51 106 141 159q91 54 207 54q149 0 240 -70q93 -71 119 -186h-199q-15 52 -55 79q-44 29 -101 29q-108 0 -157 -100q-49 -101 -43 -258q24 76 92 129q66 51 164 51q99 0 170 -39zM1034 467l-2 -4q45 22 68 61q24 40 24 92q0 77 -49 123
q-50 47 -133 47q-57 0 -98 -20q-45 -22 -68 -61q-24 -41 -24 -87q0 -44 22 -86q20 -39 64 -63q45 -25 102 -25q46 0 94 23z" />
    <glyph glyph-name="uni2466" unicode="&#x2466;" horiz-adv-x="1912" 
d="M1386 1522q197 -115 312 -312q114 -197 114 -430q0 -234 -114 -430t-312 -311t-430 -115t-430 115q-197 114 -311 311q-115 198 -115 430t115 430t311 312q197 114 430 114q234 0 430 -114zM1307 170q163 94 258 258q94 163 94 352q0 190 -94 353q-95 163 -258 258
q-163 94 -353 94q-189 0 -352 -94q-164 -95 -258 -258t-94 -353q0 -189 94 -352q94 -164 258 -258q163 -94 352 -94q190 0 353 94zM1087 1090h-454v155h647v-198l-375 -736h-235z" />
    <glyph glyph-name="uni2467" unicode="&#x2467;" horiz-adv-x="1912" 
d="M1386 1522q197 -115 312 -312q114 -197 114 -430q0 -234 -114 -430t-312 -311t-430 -115t-430 115q-197 114 -311 311q-115 198 -115 430t115 430t311 312q197 114 430 114q234 0 430 -114zM1307 170q163 94 258 258q94 163 94 352q0 190 -94 353q-95 163 -258 258
q-163 94 -353 94q-189 0 -352 -94q-164 -95 -258 -258t-94 -353q0 -189 94 -352q94 -164 258 -258q163 -94 352 -94q190 0 353 94zM1272 729l-8 -2q71 -56 71 -158q0 -84 -49 -145q-50 -62 -137 -96q-85 -33 -203 -33q-113 0 -203 35q-87 34 -137 96q-49 61 -49 145
q0 101 72 158q73 57 170 72q-213 53 -213 215q0 75 45 129q47 56 129 86q85 31 190 31q106 0 191 -31q82 -30 129 -86q45 -54 45 -129q0 -162 -213 -215q97 -15 170 -72zM825 1073v-4q-43 -34 -43 -86q0 -47 41 -82q39 -33 121 -33q80 0 121 35t41 84q0 52 -43 86
q-44 35 -119 35t-119 -35zM1079 473h4q56 38 56 105q0 62 -56 100q-55 37 -137 37t-137 -37t-55 -100q0 -68 55 -105t135 -37t135 37z" />
    <glyph glyph-name="uni2468" unicode="&#x2468;" horiz-adv-x="1912" 
d="M1386 1522q197 -115 312 -312q114 -197 114 -430q0 -234 -114 -430t-312 -311t-430 -115t-430 115q-197 114 -311 311q-115 198 -115 430t115 430t311 312q197 114 430 114q234 0 430 -114zM1307 170q163 94 258 258q94 163 94 352q0 190 -94 353q-95 163 -258 258
q-163 94 -353 94q-189 0 -352 -94q-164 -95 -258 -258t-94 -353q0 -189 94 -352q94 -164 258 -258q163 -94 352 -94q190 0 353 94zM1165 1208v-10q92 -54 140 -160q49 -107 49 -270t-51 -268q-52 -106 -142 -160q-89 -53 -205 -53q-147 0 -239 71t-119 189h199
q15 -54 55 -80q44 -29 102 -29q109 0 158 101t43 258q-24 -76 -92 -129q-67 -52 -162 -52q-99 0 -170 39q-76 42 -115 113q-41 74 -41 170q0 92 50 166q50 75 135 115q87 41 196 41q121 0 209 -52zM1055 780l-2 -2q42 20 67 62t25 86q0 46 -21 86t-63 63q-45 25 -100 25
q-51 0 -95 -21q-43 -21 -67 -61q-25 -42 -25 -92q0 -77 49 -123q48 -45 133 -45q53 0 99 22z" />
    <glyph glyph-name="uni24EA" unicode="&#x24ea;" horiz-adv-x="1912" 
d="M524 35q-197 114 -311 311q-115 198 -115 430t115 430t311 312t430 114t430 -114q197 -115 312 -312q114 -196 114 -430t-114 -430t-312 -311t-430 -115t-430 115zM1307 170q163 94 258 258q94 163 94 352q0 190 -94 353q-95 163 -258 258q-163 94 -353 94
q-189 0 -352 -94q-164 -95 -258 -258t-94 -353q0 -189 94 -352q94 -164 258 -258q163 -94 352 -94q190 0 353 94zM743 350h-4q-87 56 -133 164q-45 105 -45 264q0 155 47 264q46 108 133 164q86 56 209 56t209 -56q87 -56 133 -164q47 -109 47 -264q0 -159 -45 -264
q-46 -108 -133 -164q-85 -55 -209 -55t-209 55zM1092 528q49 82 49 250t-49 250q-50 84 -144 84q-93 0 -143 -84q-49 -82 -49 -250t49 -250q50 -84 143 -84q94 0 144 84z" />
    <glyph glyph-name="uni24FF" unicode="&#x24ff;" horiz-adv-x="1912" 
d="M524 35q-197 114 -311 311q-115 198 -115 430t115 430t311 312t430 114t430 -114q197 -115 312 -312q114 -196 114 -430t-114 -430t-312 -311t-430 -115t-430 115zM1165 350h-4q87 56 133 164q47 109 47 264q0 159 -45 264q-46 108 -133 164q-86 56 -209 56t-209 -56
q-87 -56 -133 -164q-45 -105 -45 -264q0 -155 47 -264q46 -107 134 -164q85 -55 208 -55q124 0 209 55zM809 528q-49 82 -49 250t49 250q50 84 143 84q94 0 144 -84q49 -82 49 -250t-49 -250q-50 -84 -144 -84q-93 0 -143 84z" />
    <glyph glyph-name="filledbox" unicode="&#x25a0;" horiz-adv-x="1458" 
d="M1278 0h-1098v1098h1098v-1098z" />
    <glyph glyph-name="uni25A1" unicode="&#x25a1;" horiz-adv-x="1458" 
d="M1278 0h-1098v1098h1098v-1098zM348 930v-762h762v762h-762z" />
    <glyph glyph-name="lozenge" unicode="&#x25ca;" horiz-adv-x="1374" 
d="M555 1556h264l455 -778l-455 -778h-264l-455 778zM297 778l391 -669l389 669l-389 670z" />
    <glyph glyph-name="circle" unicode="&#x25cb;" horiz-adv-x="1398" 
d="M403 41q-135 80 -215 215q-79 134 -79 295t79 295q80 135 215 215q136 80 295 80t295 -80q135 -80 215 -215q80 -136 80 -295t-80 -295q-80 -135 -215 -215q-136 -80 -295 -80t-295 80zM905 190h-2q98 57 152 150q55 94 55 209t-55 209q-55 93 -150 149t-209 56t-209 -56
q-94 -55 -149 -149t-55 -209t55 -209q56 -95 149 -150q94 -55 209 -55t209 55z" />
    <glyph glyph-name="uni25CF" unicode="&#x25cf;" horiz-adv-x="1398" 
d="M403 41q-135 80 -215 215q-79 134 -79 295t79 295q80 135 215 215q136 80 295 80t295 -80q135 -80 215 -215q80 -136 80 -295t-80 -295q-80 -135 -215 -215q-136 -80 -295 -80t-295 80z" />
    <glyph glyph-name="uni2776" unicode="&#x2776;" horiz-adv-x="1912" 
d="M524 35q-197 114 -311 311q-115 198 -115 430t115 430t311 312t430 114t430 -114q197 -115 312 -312q114 -196 114 -430t-114 -430t-312 -311t-430 -115t-430 115zM872 311h195v934h-162l-4 -16q-15 -65 -61 -92t-129 -27h-39v-156h200v-643z" />
    <glyph glyph-name="uni2777" unicode="&#x2777;" horiz-adv-x="1912" 
d="M524 35q-197 114 -311 311q-115 198 -115 430t115 430t311 312t430 114t430 -114q197 -115 312 -312q114 -196 114 -430t-114 -430t-312 -311t-430 -115t-430 115zM588 311l733 -2v156h-514l321 248q83 65 127 127q43 61 43 145q0 78 -43 139q-44 62 -122 99t-185 37
q-99 0 -180 -35q-80 -35 -129 -99q-48 -62 -51 -153h198q3 65 48 104q43 37 114 37q70 0 113 -37t43 -92q0 -37 -25 -76q-22 -34 -75 -75l-416 -324v-199z" />
    <glyph glyph-name="uni2778" unicode="&#x2778;" horiz-adv-x="1912" 
d="M524 35q-197 114 -311 311q-115 198 -115 430t115 430t311 312t430 114t430 -114q197 -115 312 -312q114 -196 114 -430t-114 -430t-312 -311t-430 -115t-430 115zM1145 326l-8 -9q84 29 135 93q49 61 49 151q0 73 -39 121q-42 51 -98 74q-58 24 -123 30q102 18 166 70
q65 53 65 154q0 71 -47 127t-127 86t-176 30q-97 0 -172 -34t-123 -97q-45 -59 -51 -139h199q3 51 41 86t108 35q66 0 111 -31q43 -30 43 -82q0 -53 -45 -86q-44 -33 -142 -33h-61v-155h61q100 0 156 -33q57 -34 57 -104q0 -47 -26 -76q-29 -33 -68 -47q-40 -15 -86 -15
q-76 0 -119 37q-44 38 -47 101h-198q15 -131 108 -209q91 -76 258 -76q111 0 199 31z" />
    <glyph glyph-name="uni2779" unicode="&#x2779;" horiz-adv-x="1912" 
d="M524 35q-197 114 -311 311q-115 198 -115 430t115 430t311 312t430 114t430 -114q197 -115 312 -312q114 -196 114 -430t-114 -430t-312 -311t-430 -115t-430 115zM510 750v-195h471v-244h195v244h131v156h-131v534h-363zM981 711h-305l305 497v-497z" />
    <glyph glyph-name="uni277A" unicode="&#x277a;" horiz-adv-x="1912" 
d="M524 35q-197 114 -311 311q-115 198 -115 430t115 430t311 312t430 114t430 -114q197 -115 312 -312q114 -196 114 -430t-114 -430t-312 -311t-430 -115t-430 115zM1145 332h-4q84 38 133 114t49 181t-39 176q-41 75 -108 115q-63 38 -152 38q-87 0 -147 -45
q-63 -48 -86 -106l24 289h451v155h-629l-47 -534l190 -17q21 53 68 80q50 29 104 29q46 0 86 -21t64 -61q24 -41 24 -96q0 -84 -49 -133q-50 -50 -125 -50q-72 0 -118 37q-47 38 -56 99h-198q9 -89 59 -154q48 -62 133 -98q84 -35 184 -35q108 0 189 37z" />
    <glyph glyph-name="uni277B" unicode="&#x277b;" horiz-adv-x="1912" 
d="M524 35q-197 114 -311 311q-115 198 -115 430t115 430t311 312t430 114t430 -114q197 -115 312 -312q114 -196 114 -430t-114 -430t-312 -311t-430 -115t-430 115zM1149 336v-8q85 40 135 114q49 73 49 166q0 96 -41 170q-40 72 -114 113q-71 39 -170 39q-96 0 -162 -51
q-68 -53 -92 -129q-6 157 43 258q49 100 157 100q60 0 103 -29q40 -26 55 -80h199q-27 118 -119 189q-93 72 -240 72q-113 0 -204 -54t-142 -159t-51 -271q0 -163 49 -270q49 -106 139 -160q86 -51 209 -51q110 0 197 41zM850 459l-2 -2q-44 24 -64 63t-20 86q0 46 24 86
q24 41 68 62q46 22 98 22q85 0 133 -45q50 -47 50 -123q0 -50 -25 -92q-23 -39 -68 -61q-44 -21 -94 -21q-55 0 -100 25z" />
    <glyph glyph-name="uni277C" unicode="&#x277c;" horiz-adv-x="1912" 
d="M524 35q-197 114 -311 311q-115 198 -115 430t115 430t311 312t430 114t430 -114q197 -115 312 -312q114 -196 114 -430t-114 -430t-312 -311t-430 -115t-430 115zM1087 1090l-417 -779h235l375 736v198h-647v-155h454z" />
    <glyph glyph-name="uni277D" unicode="&#x277d;" horiz-adv-x="1912" 
d="M524 35q-197 114 -311 311q-115 198 -115 430t115 430t311 312t430 114t430 -114q197 -115 312 -312q114 -196 114 -430t-114 -430t-312 -311t-430 -115t-430 115zM1157 328l8 -2q89 34 138 96q49 61 49 145q0 101 -72 158q-73 57 -170 72q213 53 213 215q0 75 -45 129
q-47 56 -129 86q-83 30 -191 30t-190 -30t-129 -86q-45 -54 -45 -129q0 -162 213 -215q-97 -15 -170 -72q-72 -57 -72 -158q0 -84 49 -145q50 -62 138 -96q85 -33 202 -33q113 0 203 35zM842 905l-4 -4q-41 35 -41 84q0 52 43 86q44 35 121 35q76 0 120 -35q43 -34 43 -86
q0 -47 -41 -82q-39 -33 -120 -33q-80 0 -121 35zM823 475h-4q-55 37 -55 105q0 63 55 100t137 37q83 0 138 -37t55 -100q0 -68 -55 -105t-136 -37q-80 0 -135 37z" />
    <glyph glyph-name="uni277E" unicode="&#x277e;" horiz-adv-x="1912" 
d="M524 35q-197 114 -311 311q-115 198 -115 430t115 430t311 312t430 114t430 -114q197 -115 312 -312q114 -196 114 -430t-114 -430t-312 -311t-430 -115t-430 115zM762 1221l-8 2q-86 -41 -136 -115q-49 -73 -49 -166q0 -94 41 -168q38 -70 115 -112q71 -39 170 -39
q98 0 164 51q68 53 92 129q6 -157 -43 -258t-158 -101q-56 0 -100 29q-40 26 -55 80h-199q26 -115 119 -186q91 -70 239 -70q118 0 207 53q90 54 142 160q51 105 51 268q0 164 -49 271q-49 106 -138 159q-91 54 -209 54q-109 0 -196 -41zM1053 1090l-2 -5q42 -23 63 -63
q23 -44 23 -86q0 -44 -25 -86q-24 -41 -68 -62q-41 -20 -98 -20q-83 0 -133 47q-49 46 -49 123q0 52 24 92q24 41 68 62q46 22 94 22q60 0 103 -24z" />
    <glyph glyph-name="uniF8FF" unicode="&#xf8ff;" horiz-adv-x="1714" 
d="M1100 827h559v-100h-551l506 -211l-35 -90l-516 213l393 -395l-65 -66l-400 400l215 -523l-88 -37l-211 510v-551h-100v560l-215 -519l-88 37l215 523l-400 -400l-65 66l393 395l-516 -213l-35 90l506 211h-547v100h555l-514 213l39 93l514 -215l-395 395l72 69l391 -393
l-213 512l92 35l211 -512v555h100v-545l207 502l92 -35l-213 -512l391 393l72 -69l-395 -395l514 215l39 -93z" />
    <glyph glyph-name="uniFEFF" unicode="&#xfeff;" horiz-adv-x="0" 
 />
    <glyph glyph-name="NULL" horiz-adv-x="0" 
 />
    <glyph glyph-name="uni004A0301" horiz-adv-x="768" 
d="M41 0l2 186h166q90 0 129 39q41 41 41 119v1215h207v-1246q0 -153 -92 -233t-261 -80h-192zM594 1688h-199l252 270h289z" />
    <glyph glyph-name="G.ss03" horiz-adv-x="1646" 
d="M774 838l762 -4v-134q0 -217 -88 -383q-88 -165 -248 -254q-158 -88 -371 -88q-215 0 -380 101q-169 104 -259 282q-92 182 -92 418t92 418q91 180 259 283q163 100 378 100q180 0 320 -61q142 -62 233 -175q93 -116 133 -270h-215q-56 154 -172 242t-297 88
q-150 0 -268 -80q-117 -80 -182 -221q-64 -140 -64 -324q0 -179 66 -323q65 -143 182 -222q116 -79 268 -79q146 0 259 61t178 176q64 113 67 264h-561v185z" />
    <glyph glyph-name="Gbreve.ss03" horiz-adv-x="1646" 
d="M774 838l762 -4v-134q0 -217 -88 -383q-88 -165 -248 -254q-158 -88 -371 -88q-215 0 -380 101q-169 104 -259 282q-92 182 -92 418t92 418q91 180 259 283q163 100 378 100q180 0 320 -61q142 -62 233 -175q93 -116 133 -270h-215q-56 154 -172 242t-297 88
q-150 0 -268 -80q-117 -80 -182 -221q-64 -140 -64 -324q0 -179 66 -323q65 -143 182 -222q116 -79 268 -79q146 0 259 61t178 176q64 113 67 264h-561v185zM649 1710v-2q-77 38 -117 102t-40 140h165q0 -68 48 -113q46 -43 122 -43q77 0 123 43q47 44 47 113h166
q0 -73 -41 -138t-116 -102t-179 -37q-103 0 -178 37z" />
    <glyph glyph-name="Gcaron.ss03" horiz-adv-x="1646" 
d="M774 838l762 -4v-134q0 -217 -88 -383q-88 -165 -248 -254q-158 -88 -371 -88q-215 0 -380 101q-169 104 -259 282q-92 182 -92 418t92 418q91 180 259 283q163 100 378 100q180 0 320 -61q142 -62 233 -175q93 -116 133 -270h-215q-56 154 -172 242t-297 88
q-150 0 -268 -80q-117 -80 -182 -221q-64 -140 -64 -324q0 -179 66 -323q65 -143 182 -222q116 -79 268 -79q146 0 259 61t178 176q64 113 67 264h-561v185zM827 1776l203 176h193l-256 -271h-279l-256 271h193z" />
    <glyph glyph-name="Gcircumflex.ss03" horiz-adv-x="1646" 
d="M774 838l762 -4v-134q0 -217 -88 -383q-88 -165 -248 -254q-158 -88 -371 -88q-215 0 -380 101q-169 104 -259 282q-92 182 -92 418t92 418q91 180 259 283q163 100 378 100q180 0 320 -61q142 -62 233 -175q93 -116 133 -270h-215q-56 154 -172 242t-297 88
q-150 0 -268 -80q-117 -80 -182 -221q-64 -140 -64 -324q0 -179 66 -323q65 -143 182 -222q116 -79 268 -79q146 0 259 61t178 176q64 113 67 264h-561v185zM967 1952l256 -271h-193l-203 177l-202 -177h-193l256 271h279z" />
    <glyph glyph-name="uni0122.ss03" horiz-adv-x="1646" 
d="M774 838l762 -4v-134q0 -217 -88 -383q-88 -165 -248 -254q-158 -88 -371 -88q-215 0 -380 101q-169 104 -259 282q-92 182 -92 418t92 418q91 180 259 283q163 100 378 100q180 0 320 -61q142 -62 233 -175q93 -116 133 -270h-215q-56 154 -172 242t-297 88
q-150 0 -268 -80q-117 -80 -182 -221q-64 -140 -64 -324q0 -179 66 -323q65 -143 182 -222q116 -79 268 -79q146 0 259 61t178 176q64 113 67 264h-561v185zM723 -406v271h223v-287l-115 -178h-135l97 194h-70z" />
    <glyph glyph-name="Gdotaccent.ss03" horiz-adv-x="1646" 
d="M774 838l762 -4v-134q0 -217 -88 -383q-88 -165 -248 -254q-158 -88 -371 -88q-215 0 -380 101q-169 104 -259 282q-92 182 -92 418t92 418q91 180 259 283q163 100 378 100q180 0 320 -61q142 -62 233 -175q93 -116 133 -270h-215q-56 154 -172 242t-297 88
q-150 0 -268 -80q-117 -80 -182 -221q-64 -140 -64 -324q0 -179 66 -323q65 -143 182 -222q116 -79 268 -79q146 0 259 61t178 176q64 113 67 264h-561v185zM938 1681h-223v271h223v-271z" />
    <glyph glyph-name="Adieresis.titl" horiz-adv-x="1554" 
d="M1548 0h-221l-168 471h-764l-168 -471h-221l559 1556h424zM778 1548l-317 -893h633zM377 1286h-223v270h223v-270zM1421 1286h-223v270h223v-270z" />
    <glyph glyph-name="Odieresis.titl" horiz-adv-x="1687" 
d="M459 78q-171 103 -264 282q-95 182 -95 418t95 418q94 181 264 283q166 100 387 100t387 -100q170 -102 264 -283t94 -418t-94 -418q-93 -179 -264 -282q-168 -101 -387 -101t-387 101zM1118 231q118 78 187 222q67 140 67 323q0 184 -67 324q-68 142 -187 221
q-121 80 -276 80q-156 0 -277 -80q-117 -78 -186 -221q-68 -142 -68 -324q0 -181 68 -323q69 -145 186 -222q119 -79 277 -79q157 0 276 79zM176 1286h-223v270h223v-270zM1735 1286h-224v270h224v-270z" />
    <glyph glyph-name="Udieresis.titl" horiz-adv-x="1576" 
d="M729 1286h-223v270h223v-270zM1073 1286h-223v270h223v-270zM326 141l-2 -4q-148 168 -148 479v5v931h207v-944v-4q0 -230 102 -344q101 -113 306 -113q200 0 303 115q100 112 100 348v944h207v-931q0 -314 -148 -482q-147 -166 -462 -166q-318 0 -465 166z" />
    <glyph glyph-name="I_J.loclNLD" horiz-adv-x="1198" 
d="M195 0l2 186h442q90 0 129 39q41 41 41 119v1215h207v-1246q0 -153 -92 -233t-260 -80h-469zM403 483h-206v1076h206v-1076z" />
    <glyph glyph-name="A.inferior" horiz-adv-x="839" 
d="M829 -233h-176l-63 206h-340l-64 -206h-176l246 778h328zM420 524l-127 -413h254z" />
    <glyph glyph-name="B.inferior" horiz-adv-x="802" 
d="M637 139h-2q56 -22 84 -63q31 -45 31 -101q0 -95 -82 -153t-240 -58h-328v779h322q94 0 164 -25q69 -25 102 -69q35 -47 35 -105q0 -145 -201 -180q60 -3 115 -25zM512 383l-4 -2q-36 25 -92 25h-150v-175h150q62 0 96 21q35 21 35 63q0 44 -35 68zM424 -100v2
q70 0 108 24q37 24 37 74q0 92 -145 92h-160v-192h160z" />
    <glyph glyph-name="C.inferior" horiz-adv-x="856" 
d="M244 -199l-6 -10q-90 50 -142 141q-51 89 -51 215t51 215q53 92 142 142q88 49 196 49q139 0 242 -74q100 -72 135 -207h-174q-21 67 -72 109q-50 41 -129 41q-61 0 -108 -33q-50 -35 -76 -94q-27 -62 -27 -143q0 -78 29 -144q25 -57 78 -94q47 -33 108 -33q81 0 129 39
q51 41 74 113h174q-38 -142 -135 -211q-98 -70 -242 -70q-108 0 -196 49z" />
    <glyph glyph-name="D.inferior" horiz-adv-x="854" 
d="M397 545v-4q122 0 209 -43q90 -44 139 -129q50 -86 50 -215t-50 -215q-49 -85 -139 -129q-87 -43 -209 -43h-295v778h295zM399 -100v4q104 0 166 65t62 185q0 119 -62 184t-166 65h-127v-503h127z" />
    <glyph glyph-name="E.inferior" horiz-adv-x="716" 
d="M272 96v-192h379v-137h-549v778h541v-137h-371v-175h363v-137h-363z" />
    <glyph glyph-name="F.inferior" horiz-adv-x="684" 
d="M629 545v-137h-357v-187h351v-137h-351v-317h-170v778h527z" />
    <glyph glyph-name="G.inferior" horiz-adv-x="909" 
d="M420 215l407 -2v-449h-137v191q-27 -86 -92 -145q-66 -60 -184 -60q-89 0 -172 47q-82 46 -136 140q-51 89 -51 217q0 122 49 213q49 90 140 141q88 49 202 49q143 0 238 -68t135 -192h-174q-26 59 -76 94q-47 33 -125 33q-65 0 -112 -33q-53 -37 -78 -94
q-29 -66 -29 -143q0 -78 29 -144q26 -58 80 -94q50 -33 121 -33q56 0 104 25t74 67q28 45 31 103h-244v137z" />
    <glyph glyph-name="H.inferior" horiz-adv-x="866" 
d="M594 242v303h170v-778h-170v321h-322v-321h-170v778h170v-303h322z" />
    <glyph glyph-name="I.inferior" horiz-adv-x="374" 
d="M272 -233h-170v778h170v-778z" />
    <glyph glyph-name="J.inferior" horiz-adv-x="454" 
d="M31 -233l-2 135h65q31 0 49 6q19 6 31 24t12 56v557h170v-592q0 -88 -49 -137t-162 -49h-114z" />
    <glyph glyph-name="K.inferior" horiz-adv-x="806" 
d="M463 180l354 -413h-215l-328 385v-385h-170v778h170v-350l301 350h203z" />
    <glyph glyph-name="L.inferior" horiz-adv-x="630" 
d="M272 545v-641h330v-137h-500v778h170z" />
    <glyph glyph-name="M.inferior" horiz-adv-x="1167" 
d="M1065 545v-778h-164v759l-160 -759h-315l-160 759v-759h-164v778h322l160 -760l159 760h322z" />
    <glyph glyph-name="N.inferior" horiz-adv-x="935" 
d="M670 -215v760h164v-778h-328l-240 759v-759h-164v778h328z" />
    <glyph glyph-name="O.inferior" horiz-adv-x="903" 
d="M246 -199h-4q-91 49 -144 142q-51 89 -51 215t51 215q52 91 144 141q91 49 207 49q115 0 206 -49q93 -50 142 -141t49 -215t-49 -215q-50 -92 -142 -142q-91 -49 -204 -49q-114 0 -205 49zM563 -84h-2q54 36 80 94q29 66 29 146q0 84 -27 145q-26 58 -80 94
q-50 33 -117 33q-66 0 -116 -33q-54 -36 -80 -94q-29 -66 -29 -145q0 -80 29 -146q26 -58 80 -94q50 -33 116 -33q67 0 117 33z" />
    <glyph glyph-name="P.inferior" horiz-adv-x="768" 
d="M399 545q160 0 246 -68t86 -188q0 -121 -86 -189q-85 -67 -246 -67h-127v-266h-170v778h297zM399 170q74 0 119 31q43 30 43 88t-43 88q-45 31 -119 31h-127v-238h127z" />
    <glyph glyph-name="Q.inferior" horiz-adv-x="907" 
d="M924 -233l-197 -3l-49 48q-95 -62 -227 -62q-114 0 -205 49t-144 142q-51 89 -51 215t51 215q52 91 144 141q91 49 207 49q115 0 206 -49q93 -50 142 -141t49 -215q0 -147 -74 -250zM569 -86l-161 154h194l49 -48q23 67 23 134q0 84 -27 145q-26 58 -80 94
q-50 33 -116 33q-67 0 -117 -33q-54 -36 -80 -94q-29 -66 -29 -145q0 -80 29 -146q26 -58 80 -94q50 -33 117 -33q65 0 118 33z" />
    <glyph glyph-name="R.inferior" horiz-adv-x="808" 
d="M592 -233l-176 284h-142v-287h-170v779h314q93 0 166 -31q70 -30 108 -86q37 -55 37 -129q0 -76 -39 -129q-42 -58 -110 -84l204 -317h-192zM274 406v-218h142q62 0 102 29q37 27 37 80t-37 80q-40 29 -102 29h-142z" />
    <glyph glyph-name="S.inferior" horiz-adv-x="770" 
d="M213 -217l-12 -4q-74 30 -117 88q-42 56 -51 135h174q9 -64 55 -94q48 -31 115 -31q72 0 119 29q43 27 43 74q0 38 -33 61q-37 25 -117 43l-113 25q-102 21 -161 73q-58 52 -58 144q0 63 41 116q40 52 111 82q73 31 160 31q144 0 227 -59t98 -160h-174q-6 43 -49 67
q-45 25 -104 25q-63 0 -99 -20q-37 -21 -37 -62q0 -25 17 -45q15 -18 47 -31q31 -12 88 -24l113 -25q106 -21 163 -78q56 -56 56 -141q0 -119 -92 -184q-94 -66 -248 -66q-86 0 -162 31z" />
    <glyph glyph-name="T.inferior" horiz-adv-x="700" 
d="M29 545h643v-137h-236v-641h-170v641h-237v137z" />
    <glyph glyph-name="U.inferior" horiz-adv-x="851" 
d="M176 -164l2 2q-82 82 -82 240v4v465h170v-486v-4q0 -83 43 -129q42 -45 121 -45q80 0 121 47t41 129v486h170v-465q0 -157 -82 -242q-83 -86 -252 -86q-168 0 -252 84z" />
    <glyph glyph-name="V.inferior" horiz-adv-x="817" 
d="M410 -215l213 760h180l-228 -778h-333l-228 778h181z" />
    <glyph glyph-name="W.inferior" horiz-adv-x="1224" 
d="M885 -215l137 760h172l-141 -778h-336l-105 763l-104 -763h-336l-141 778h172l137 -760l104 760h336z" />
    <glyph glyph-name="X.inferior" horiz-adv-x="847" 
d="M541 180l303 -413h-207l-213 292l-215 -292h-205l303 413l-270 365h203l184 -252l184 252h203z" />
    <glyph glyph-name="Y.inferior" horiz-adv-x="763" 
d="M567 545h193l-293 -471v-307h-170v305l-293 473h191l186 -314z" />
    <glyph glyph-name="Z.inferior" horiz-adv-x="749" 
d="M686 371l-426 -467h445v-137h-652v174l426 467h-420v137h627v-174z" />
    <glyph glyph-name="G.ss03.inferior" horiz-adv-x="884" 
d="M420 215l407 2v-82q0 -115 -47 -201t-133 -133t-201 -47q-114 0 -202 49q-91 51 -140 142t-49 215q0 122 49 213q49 90 140 141q88 49 202 49q144 0 238 -67q95 -68 135 -193h-174q-26 59 -76 94q-47 33 -125 33q-65 0 -112 -33q-53 -37 -78 -94q-29 -66 -29 -143
q0 -80 29 -146q26 -58 80 -94q50 -33 117 -33q60 0 108 25t72 68q25 46 28 98h-239v137z" />
    <glyph glyph-name="A.superior" horiz-adv-x="839" 
d="M829 778h-176l-63 207h-340l-64 -207h-176l246 778h328zM420 1536l-127 -414h254z" />
    <glyph glyph-name="B.superior" horiz-adv-x="802" 
d="M637 1151h-2q55 -22 84 -64q31 -45 31 -100q0 -95 -82 -153t-240 -58h-328v778h322q96 0 164 -24t102 -70q35 -47 35 -104q0 -145 -201 -180q60 -3 115 -25zM512 1395l-4 -2q-35 24 -92 24h-150v-174h150q62 0 96 21q35 21 35 63q0 44 -35 68zM424 911v2q69 0 108 25
q37 24 37 74q0 92 -145 92h-160v-193h160z" />
    <glyph glyph-name="C.superior" horiz-adv-x="856" 
d="M244 813l-6 -10q-90 50 -142 141q-51 89 -51 215t51 215q53 92 142 142q88 49 196 49q139 0 242 -74q100 -72 135 -207h-174q-21 67 -72 109q-50 41 -129 41q-61 0 -108 -33q-50 -35 -76 -94q-27 -61 -27 -144q0 -77 29 -143q25 -57 78 -94q47 -33 108 -33q81 0 129 39
q51 42 74 112h174q-37 -140 -135 -210t-242 -70q-108 0 -196 49z" />
    <glyph glyph-name="D.superior" horiz-adv-x="854" 
d="M397 1556v-4q122 0 209 -43q90 -44 139 -129q50 -86 50 -215t-50 -215q-49 -85 -139 -129q-87 -43 -209 -43h-295v778h295zM399 911v4q103 0 166 66q62 65 62 184q0 120 -62 185t-166 65h-127v-504h127z" />
    <glyph glyph-name="E.superior" horiz-adv-x="716" 
d="M272 1108v-193h379v-137h-549v778h541v-137h-371v-174h363v-137h-363z" />
    <glyph glyph-name="F.superior" horiz-adv-x="684" 
d="M629 1556v-137h-357v-186h351v-137h-351v-318h-170v778h527z" />
    <glyph glyph-name="G.superior" horiz-adv-x="909" 
d="M420 1227l407 -2v-449h-137v191q-28 -88 -92 -146q-65 -59 -184 -59q-89 0 -172 47t-136 139q-51 89 -51 217q0 122 49 213t140 142q88 49 202 49q143 0 238 -68t135 -192h-174q-26 59 -76 94q-47 33 -125 33q-65 0 -112 -33q-53 -37 -78 -94q-29 -66 -29 -144
q0 -77 29 -143q26 -58 80 -94q50 -33 121 -33q56 0 104 25t74 67q28 45 31 103h-244v137z" />
    <glyph glyph-name="H.superior" horiz-adv-x="866" 
d="M594 1253v303h170v-778h-170v322h-322v-322h-170v778h170v-303h322z" />
    <glyph glyph-name="I.superior" horiz-adv-x="374" 
d="M272 778h-170v778h170v-778z" />
    <glyph glyph-name="J.superior" horiz-adv-x="454" 
d="M31 778l-2 135h65q28 0 49 7q19 6 31 24t12 55v557h170v-591q0 -89 -49 -138t-162 -49h-114z" />
    <glyph glyph-name="K.superior" horiz-adv-x="806" 
d="M461 1192l354 -414h-215l-328 385v-385h-170v778h170v-350l301 350h203z" />
    <glyph glyph-name="L.superior" horiz-adv-x="630" 
d="M272 1556v-641h330v-137h-500v778h170z" />
    <glyph glyph-name="M.superior" horiz-adv-x="1167" 
d="M1065 1556v-778h-164v760l-160 -760h-315l-160 760v-760h-164v778h322l160 -759l159 759h322z" />
    <glyph glyph-name="N.superior" horiz-adv-x="935" 
d="M670 797v759h164v-778h-328l-240 760v-760h-164v778h328z" />
    <glyph glyph-name="O.superior" horiz-adv-x="903" 
d="M246 813h-4q-92 49 -144 141q-51 89 -51 215t51 215q53 93 144 142t207 49q115 0 206 -49q92 -50 142 -142q49 -91 49 -215t-49 -215t-142 -141q-91 -49 -204 -49q-114 0 -205 49zM563 928h-2q54 36 80 94q29 66 29 145q0 85 -27 146q-26 58 -80 94q-50 33 -117 33
q-66 0 -116 -33q-54 -36 -80 -94q-29 -66 -29 -146q0 -79 29 -145q26 -58 80 -94q50 -33 116 -33q67 0 117 33z" />
    <glyph glyph-name="P.superior" horiz-adv-x="768" 
d="M399 1556q161 0 246 -67q86 -68 86 -189q0 -120 -86 -188t-246 -68h-127v-266h-170v778h297zM399 1182q75 0 119 30q43 30 43 88q0 59 -43 89t-119 30h-127v-237h127z" />
    <glyph glyph-name="Q.superior" horiz-adv-x="907" 
d="M924 778l-197 -2l-49 47q-94 -61 -227 -61q-114 0 -205 49q-92 49 -144 141q-51 89 -51 215t51 215q53 93 144 142t207 49q115 0 206 -49q92 -50 142 -142q49 -91 49 -215q0 -146 -74 -249zM569 926l-161 153h194l49 -47q23 67 23 133q0 85 -27 146q-26 58 -80 94
q-50 33 -116 33q-67 0 -117 -33q-54 -36 -80 -94q-29 -66 -29 -146q0 -79 29 -145q26 -58 80 -94q50 -33 117 -33q65 0 118 33z" />
    <glyph glyph-name="R.superior" horiz-adv-x="808" 
d="M592 778l-176 285h-142v-287h-170v778h314q96 0 166 -30t108 -86q37 -55 37 -129q0 -76 -39 -129q-42 -58 -110 -84l204 -318h-192zM274 1417v-217h142q62 0 102 29q37 27 37 80t-37 80q-39 28 -102 28h-142z" />
    <glyph glyph-name="S.superior" horiz-adv-x="770" 
d="M213 795l-12 -4q-74 30 -117 88q-42 56 -51 135h174q9 -64 55 -94q48 -31 115 -31q72 0 119 29q43 27 43 73q0 39 -33 62q-37 25 -117 43l-113 24q-101 20 -161 74q-58 52 -58 143q0 64 41 117q40 52 111 82q73 31 160 31q142 0 227 -60q83 -59 98 -159h-174
q-6 43 -49 67q-45 25 -104 25q-61 0 -99 -21q-37 -21 -37 -61q0 -25 17 -45q15 -18 47 -31q36 -14 88 -25l113 -24q106 -21 163 -78q56 -56 56 -141q0 -120 -92 -185t-248 -65q-86 0 -162 31z" />
    <glyph glyph-name="T.superior" horiz-adv-x="700" 
d="M29 1556h643v-137h-236v-641h-170v641h-237v137z" />
    <glyph glyph-name="U.superior" horiz-adv-x="851" 
d="M176 848l2 2q-82 82 -82 240v4v465h170v-486v-4q0 -83 43 -129q42 -45 121 -45q80 0 121 47t41 129v485h170v-464q0 -157 -82 -242q-83 -86 -252 -86q-168 0 -252 84z" />
    <glyph glyph-name="V.superior" horiz-adv-x="817" 
d="M410 797l213 759h180l-228 -778h-333l-228 778h181z" />
    <glyph glyph-name="W.superior" horiz-adv-x="1224" 
d="M885 797l137 759h172l-141 -778h-336l-105 764l-104 -764h-336l-141 778h172l137 -759l104 759h336z" />
    <glyph glyph-name="X.superior" horiz-adv-x="847" 
d="M541 1192l303 -414h-207l-213 293l-215 -293h-205l303 414l-270 364h203l184 -251l184 251h203z" />
    <glyph glyph-name="Y.superior" horiz-adv-x="763" 
d="M567 1556h193l-293 -471v-307h-170v305l-293 473h191l186 -313z" />
    <glyph glyph-name="Z.superior" horiz-adv-x="749" 
d="M686 1382l-426 -467h445v-137h-652v174l426 467h-420v137h627v-174z" />
    <glyph glyph-name="G.ss03.superior" horiz-adv-x="884" 
d="M420 1227l407 2v-82q0 -115 -47 -201t-133 -133t-201 -47q-114 0 -202 49q-91 51 -140 141q-49 91 -49 215q0 122 49 213t140 142q88 49 202 49q143 0 238 -68t135 -192h-174q-26 59 -76 94q-47 33 -125 33q-65 0 -112 -33q-53 -37 -78 -94q-29 -66 -29 -144
q0 -79 29 -145q26 -58 80 -94q50 -33 117 -33q60 0 108 25q49 25 72 67q25 46 28 99h-239v137z" />
    <glyph glyph-name="i.loclTRK" horiz-adv-x="520" 
d="M360 0h-200v1098h200v-1098zM369 1286h-217v270h217v-270z" />
    <glyph glyph-name="uni006A0301" horiz-adv-x="520" 
d="M-55 -401l-2 147h55q80 0 121 35t41 121v1194h200v-1194q0 -152 -94 -228q-93 -75 -246 -75h-75zM360 1243h-186l238 309h276z" />
    <glyph glyph-name="germandbls.calt" horiz-adv-x="1576" 
d="M975 942l-2 -6q137 -9 258 -66q115 -55 186 -157q70 -101 70 -246q0 -154 -70 -264q-72 -113 -192 -170q-122 -58 -279 -58q-76 0 -143 13q-44 9 -129 35v178q63 -26 117 -37q59 -12 135 -12q107 0 182 38q80 41 123 113q43 73 43 170q0 109 -57 178q-59 71 -160 105
q-103 35 -228 35h-63v198l352 383h-717v-1372h-206v1556h1134v-229z" />
    <glyph glyph-name="a.ss04" horiz-adv-x="1306" 
d="M946 1098l207 -6v-1098h-201v239q-36 -80 -94 -135q-60 -57 -137 -92q-73 -33 -160 -33q-130 0 -239 74q-105 72 -168 203q-62 130 -62 295t62 295t168 202q109 74 239 74q102 0 176 -39q78 -41 129 -104q53 -65 80 -142v267zM807 170l-2 -8q75 54 115 147q38 89 38 226
q0 136 -38 225q-41 96 -113 147q-76 54 -176 54q-103 0 -176 -52q-72 -51 -113 -147q-39 -91 -39 -223q0 -133 39 -224q41 -96 113 -147q71 -51 176 -51q102 0 176 53z" />
    <glyph glyph-name="aacute.ss04" horiz-adv-x="1306" 
d="M946 1098l207 -6v-1098h-201v239q-36 -80 -94 -135q-60 -57 -137 -92q-73 -33 -160 -33q-130 0 -239 74q-105 72 -168 203q-62 130 -62 295t62 295t168 202q109 74 239 74q102 0 176 -39q78 -41 129 -104q53 -65 80 -142v267zM807 170l-2 -8q75 54 115 147q38 89 38 226
q0 136 -38 225q-41 96 -113 147q-76 54 -176 54q-103 0 -176 -52q-72 -51 -113 -147q-39 -91 -39 -223q0 -133 39 -224q41 -96 113 -147q71 -51 176 -51q102 0 176 53zM680 1231h-186l237 309h277z" />
    <glyph glyph-name="abreve.ss04" horiz-adv-x="1306" 
d="M946 1098l207 -6v-1098h-201v239q-36 -80 -94 -135q-60 -57 -137 -92q-73 -33 -160 -33q-130 0 -239 74q-105 72 -168 203q-62 130 -62 295t62 295t168 202q109 74 239 74q102 0 176 -39q78 -41 129 -104q53 -65 80 -142v267zM807 170l-2 -8q75 54 115 147q38 89 38 226
q0 136 -38 225q-41 96 -113 147q-76 54 -176 54q-103 0 -176 -52q-72 -51 -113 -147q-39 -91 -39 -223q0 -133 39 -224q41 -96 113 -147q71 -51 176 -51q102 0 176 53zM432 1266h-4q-73 43 -113 116q-39 71 -39 162h162q0 -85 43 -131q42 -45 123 -45t123 45q43 46 43 131
h162q0 -91 -39 -162q-40 -73 -113 -116t-174 -43t-174 43z" />
    <glyph glyph-name="acircumflex.ss04" horiz-adv-x="1306" 
d="M946 1098l207 -6v-1098h-201v239q-36 -80 -94 -135q-60 -57 -137 -92q-73 -33 -160 -33q-130 0 -239 74q-105 72 -168 203q-62 130 -62 295t62 295t168 202q109 74 239 74q102 0 176 -39q78 -41 129 -104q53 -65 80 -142v267zM807 170l-2 -8q75 54 115 147q38 89 38 226
q0 136 -38 225q-41 96 -113 147q-76 54 -176 54q-103 0 -176 -52q-72 -51 -113 -147q-39 -91 -39 -223q0 -133 39 -224q41 -96 113 -147q71 -51 176 -51q102 0 176 53zM739 1540l262 -309h-184l-211 217l-211 -217h-184l262 309h266z" />
    <glyph glyph-name="adieresis.ss04" horiz-adv-x="1306" 
d="M946 1098l207 -6v-1098h-201v239q-36 -80 -94 -135q-60 -57 -137 -92q-73 -33 -160 -33q-130 0 -239 74q-105 72 -168 203q-62 130 -62 295t62 295t168 202q109 74 239 74q102 0 176 -39q78 -41 129 -104q53 -65 80 -142v267zM807 170l-2 -8q75 54 115 147q38 89 38 226
q0 136 -38 225q-41 96 -113 147q-76 54 -176 54q-103 0 -176 -52q-72 -51 -113 -147q-39 -91 -39 -223q0 -133 39 -224q41 -96 113 -147q71 -51 176 -51q102 0 176 53zM500 1270h-217v270h217v-270zM928 1270h-217v270h217v-270z" />
    <glyph glyph-name="uni1EA1.ss04" horiz-adv-x="1306" 
d="M946 1098l207 -6v-1098h-201v239q-36 -80 -94 -135q-60 -57 -137 -92q-73 -33 -160 -33q-130 0 -239 74q-105 72 -168 203q-62 130 -62 295t62 295t168 202q109 74 239 74q102 0 176 -39q78 -41 129 -104q53 -65 80 -142v267zM807 170l-2 -8q75 54 115 147q38 89 38 226
q0 136 -38 225q-41 96 -113 147q-76 54 -176 54q-103 0 -176 -52q-72 -51 -113 -147q-39 -91 -39 -223q0 -133 39 -224q41 -96 113 -147q71 -51 176 -51q102 0 176 53zM758 -418h-217v271h217v-271z" />
    </font>
</defs>
</svg>
