<?xml version="1.0" standalone="no"?>
<!DOCTYPE svg PUBLIC "-//W3C//DTD SVG 1.1//EN" "http://www.w3.org/Graphics/SVG/1.1/DTD/svg11.dtd" >
<svg xmlns="http://www.w3.org/2000/svg" xmlns:xlink="http://www.w3.org/1999/xlink" version="1.1">
<metadata>
Created by FontForge 20170731 at Fri Apr 21 21:41:29 2023
 By Aleksey,,,
(c) 2014-2020. Copyright by TYPE.WELTKERN :. All rights reserved.
</metadata>
<defs>
<font id="TWKEverett-Extrabold" horiz-adv-x="1536" >
  <font-face 
    font-family="TWK Everett"
    font-weight="750"
    font-stretch="normal"
    units-per-em="2048"
    panose-1="2 11 2 4 0 0 0 0 0 0"
    ascent="1638"
    descent="-410"
    x-height="1120"
    cap-height="1556"
    bbox="-1915 -666 6834 2265"
    underline-thickness="266"
    underline-position="-763"
    unicode-range="U+000D-FEFF"
  />
<missing-glyph horiz-adv-x="1542" 
d="M1397 0h-1250v1556h1250v-1556zM532 1249v-942h478v942h-478z" />
    <glyph glyph-name="fi" unicode="fi" horiz-adv-x="1476" 
d="M1362 0l-381 -4v846h-379v-846h-379v846h-186v274h186v86q0 113 53 193q50 75 146 118q93 41 211 41h203v-264h-107q-64 0 -94 -24q-31 -25 -31 -90v-56h758v-1120zM975 1241v311h387v-311h-387z" />
    <glyph glyph-name="fl" unicode="fl" horiz-adv-x="1474" 
d="M1362 0l-381 -4v1292h-254q-64 0 -94 -24q-31 -25 -31 -90v-56h232v-274h-232v-846h-379v846h-186v274h186v86q0 113 53 193q51 77 146 119q90 40 211 40h729v-1556z" />
    <glyph glyph-name="W_W_W" unicode="WWW" horiz-adv-x="6860" 
d="M6224 104l239 1452h371l-270 -1556h-694l-181 1450l-180 -1450h-692l-254 1462l-254 -1462h-692l-180 1442l-181 -1442h-694l-252 1456l-254 -1456h-694l-180 1442l-181 -1442h-694l-270 1556h371l239 -1445l191 1445h688l190 -1445l240 1445h706l240 -1452l190 1452h689
l188 -1452l242 1452h704l242 -1454l190 1454h686z" />
    <glyph glyph-name="f_f" unicode="ff" horiz-adv-x="1732" 
d="M1595 1292l-4 -8q-64 0 -94 -24q-31 -25 -31 -91v-55h232v-274h-232v-846h-379v846h-487v-846h-379v846h-186v274h186v86q0 113 53 193q50 75 146 118q93 41 211 41h203v-264h-107q-64 0 -94 -24q-31 -25 -31 -90v-56h488v86q0 113 53 193q51 77 145 119q90 40 211 40
h203v-264h-107z" />
    <glyph glyph-name="f_f_i" unicode="ffi" horiz-adv-x="2342" 
d="M2228 1120l-4 -1128h-379v846h-379v-846h-379v846h-487v-846h-379v846h-186v274h186v86q0 113 53 193q50 75 146 118q93 41 211 41h203v-264h-107q-64 0 -94 -24q-31 -25 -31 -91v-55h488v86q0 113 53 193q50 76 145 118q93 41 211 41h203v-264h-107q-64 0 -94 -24
q-31 -25 -31 -90v-56h758zM1839 1237v311h387v-311h-387z" />
    <glyph glyph-name="f_f_l" unicode="ffl" horiz-adv-x="2340" 
d="M1849 1556l375 -8v-1556h-379v846h-379v-846h-379v846h-487v-846h-379v846h-186v274h186v86q0 113 53 193q50 75 146 118q93 41 211 41h203v-264h-107q-64 0 -94 -24q-31 -25 -31 -91v-55h488v86q0 113 53 193q50 76 145 118q93 41 211 41h203v-264h-107q-64 0 -94 -24
q-31 -25 -31 -90v-56h379v436z" />
    <glyph glyph-name="f_j" unicode="fj" horiz-adv-x="1476" 
d="M1362 1120l-6 -1173q0 -116 -51 -193t-146 -119q-86 -38 -211 -38h-149v274h53q67 0 98 25t31 90v856h-379v-846h-379v846h-186v274h186v86q0 113 53 193q50 75 146 118q93 41 211 41h203v-264h-107q-64 0 -94 -24q-31 -25 -31 -90v-56h758zM971 1243v311h387v-311h-387z
" />
    <glyph glyph-name="f_t" unicode="ft" horiz-adv-x="1751" 
d="M1694 274l-6 -278h-199q-118 0 -211 41q-90 40 -143 117q-52 76 -52 188v4v496h-483v-846h-379v846h-186v274h186v86q0 113 53 193q50 75 146 118q93 41 211 41h203v-264h-107q-64 0 -94 -24q-31 -25 -31 -90v-56h483v264h379v-264h226v-274h-226v-455v-4q0 -63 31 -88
t98 -25h101z" />
    <glyph glyph-name="t_f" unicode="tf" horiz-adv-x="1751" 
d="M1614 1292l-6 -4q-65 0 -95 -24t-30 -90v-56h231v-274h-231v-846h-379v846h-510v-455v-4q0 -63 31 -88t98 -25h100v-274h-198q-118 0 -211 41q-92 41 -144 117q-51 74 -51 188v4v496h-190v274h190v264h379v-264h510v86q0 113 53 193q51 77 146 119q90 40 211 40h202v-264
h-106z" />
    <glyph glyph-name="t_t" unicode="tt" horiz-adv-x="1769" 
d="M1712 274l-8 -274h-199q-118 0 -211 41q-90 40 -143 117q-51 74 -51 188v4v496h-506v-455v-4q0 -63 31 -88t98 -25h100v-274h-198q-118 0 -211 41q-92 41 -144 117q-51 74 -51 188v4v496h-190v274h190v264h379v-264h506v264h379v-264h225v-274h-225v-455v-4q0 -64 30 -88
q31 -25 99 -25h100z" />
    <glyph glyph-name="w_w_w" unicode="www" horiz-adv-x="5474" 
d="M4964 102l148 1018h338l-168 -1120h-635l-111 1024l-108 -1024h-637l-150 985l-149 -985h-635l-111 1024l-108 -1024h-637l-150 991l-149 -991h-635l-109 1024l-110 -1024h-635l-170 1120h340l145 -1024l117 1024h625l116 -1024l148 1024h637l147 -1024l117 1024h625
l116 -1024l146 1024h639l147 -1018l117 1018h623z" />
    <glyph glyph-name=".notdef" horiz-adv-x="1542" 
d="M1397 0h-1250v1556h1250v-1556zM532 1249v-942h478v942h-478z" />
    <glyph glyph-name=".null" horiz-adv-x="0" 
 />
    <glyph glyph-name="nonmarkingreturn" unicode="&#xd;" horiz-adv-x="452" 
 />
    <glyph glyph-name="space" unicode=" " horiz-adv-x="452" 
 />
    <glyph glyph-name="exclam" unicode="!" horiz-adv-x="659" 
d="M487 537h-315l-66 1019h445zM528 0h-397v352h397v-352z" />
    <glyph glyph-name="quotedbl" unicode="&#x22;" horiz-adv-x="999" 
d="M410 889h-279l-49 667h377zM868 889h-278l-49 667h377z" />
    <glyph glyph-name="numbersign" unicode="#" horiz-adv-x="1669" 
d="M1593 1120v-235h-329l-56 -273h281v-235h-330l-78 -377h-280l78 377h-287l-78 -377h-283l78 377h-235v235h284l56 273h-234v235h283l90 436h283l-91 -436h287l90 436h281l-90 -436h280zM641 612h287l55 273h-287z" />
    <glyph glyph-name="dollar" unicode="$" horiz-adv-x="1427" 
d="M1292 250l-8 -10q-56 -100 -156 -166q-101 -67 -239 -94v-261h-379v265q-121 30 -217 98q-97 69 -154 166q-58 98 -73 221h393q15 -106 86 -168q70 -61 178 -61q110 0 172 47q61 46 61 129q0 68 -55 108q-54 40 -180 74l-213 57q-198 52 -307 158t-109 289q0 115 53 207
q51 89 148 155q95 65 221 92v250h379v-254q180 -41 287 -151q110 -113 139 -273h-393q-21 81 -80 125q-58 43 -154 43q-62 0 -112 -18t-74 -53q-25 -36 -25 -76q0 -41 29 -70q26 -26 78 -45q71 -26 151 -47l213 -59q193 -52 295 -166q101 -113 101 -295q0 -117 -56 -217z
" />
    <glyph glyph-name="percent" unicode="%" horiz-adv-x="2013" 
d="M233 748l-4 -5q-87 53 -133 152q-45 96 -45 244q0 141 47 241q45 96 133 150q83 51 207 51t207 -51q88 -54 133 -150q47 -100 47 -241q0 -146 -45 -242q-44 -95 -133 -149q-85 -52 -207 -52t-207 52zM721 -4h-332l893 1556h330zM522 950l-4 2q29 63 29 187q0 129 -27 184
t-86 55q-60 0 -86 -57q-26 -56 -26 -184q0 -126 28 -187q26 -57 86 -57t86 57zM1274 84l-4 -8q-103 115 -103 330q0 143 47 243q46 98 134 152q83 51 206 51q124 0 207 -51q88 -54 133 -150q48 -102 48 -241q0 -213 -103 -328q-101 -113 -283 -113q-179 0 -282 115z
M1640 219h-4q29 60 29 184q0 129 -27 187q-26 57 -86 57t-86 -57q-26 -56 -26 -187q0 -126 28 -184q27 -55 86 -55t86 55z" />
    <glyph glyph-name="ampersand" unicode="&#x26;" horiz-adv-x="1628" 
d="M1630 0l-440 2l-107 121q-106 -73 -215 -109q-112 -37 -233 -37q-175 0 -311 54q-134 53 -203 153q-72 104 -72 242q0 158 94 268q96 113 265 201q-54 59 -101 121q-37 49 -55 98q-19 52 -19 105q0 99 62 182q63 84 178 133q116 49 268 49t265 -49q111 -48 174 -133
q61 -82 61 -182q0 -113 -86 -199q-85 -86 -264 -174l-6 -2l237 -269l158 271h324l-248 -422q-11 -24 -41 -68zM643 1300l-4 3q-37 -34 -37 -89q0 -36 25 -75q18 -28 78 -95q77 40 116 80q41 41 41 93q0 56 -37 86t-88 30q-58 0 -94 -33zM909 315l-327 373q-76 -52 -113 -110
t-37 -132q0 -99 66 -159q64 -58 172 -58q127 0 239 86z" />
    <glyph glyph-name="quotesingle" unicode="'" horiz-adv-x="540" 
d="M410 889h-279l-49 667h377z" />
    <glyph glyph-name="parenleft" unicode="(" horiz-adv-x="763" 
d="M393 -401l-4 -2q-145 212 -233 458q-90 250 -90 531q0 277 90 518q87 233 237 455h383q-145 -215 -235 -455q-88 -236 -88 -518t90 -529q88 -242 233 -458h-383z" />
    <glyph glyph-name="parenright" unicode=")" horiz-adv-x="763" 
d="M-12 -401h-4q145 216 233 458q90 247 90 529t-88 518q-90 240 -235 455h383q150 -222 237 -455q90 -241 90 -518q0 -281 -90 -531q-87 -241 -233 -456h-383z" />
    <glyph glyph-name="asterisk" unicode="*" horiz-adv-x="935" 
d="M799 1642l71 -206l-217 -70l144 -190l-181 -134l-147 195l-150 -195l-182 134l146 190l-217 70l71 206l215 -69v213h230v-213z" />
    <glyph glyph-name="plus" unicode="+" horiz-adv-x="1284" 
d="M788 707h414v-285h-414v-422h-292v422h-414v285h414v413h292v-413z" />
    <glyph glyph-name="comma" unicode="," horiz-adv-x="632" 
d="M119 0v352h395v-395l-162 -252h-246l142 295h-129z" />
    <glyph glyph-name="hyphen" unicode="-" horiz-adv-x="909" 
d="M803 432h-694v311h694v-311z" />
    <glyph glyph-name="period" unicode="." horiz-adv-x="632" 
d="M514 0h-395v352h395v-352z" />
    <glyph glyph-name="slash" unicode="/" horiz-adv-x="1167" 
d="M440 0h-403l690 1556h403z" />
    <glyph glyph-name="zero" unicode="0" horiz-adv-x="1507" 
d="M391 63q-149 91 -229 271t-80 440t80 443q79 181 229 272q151 92 363 92q211 0 362 -92t230 -272t79 -443t-79 -440q-80 -179 -230 -271q-151 -92 -362 -92q-212 0 -363 92zM958 389l-2 -2q68 127 68 387t-68 387t-204 127q-140 0 -207 -125q-68 -127 -68 -387t68 -387
q67 -125 207 -125q139 0 206 125z" />
    <glyph glyph-name="one" unicode="1" horiz-adv-x="903" 
d="M432 1556h324v-1556h-387v1024h-338v307h37q101 0 178 23q68 20 110 65q41 44 68 111z" />
    <glyph glyph-name="two" unicode="2" horiz-adv-x="1419" 
d="M539 307l796 -8v-307h-1261v389l692 520q70 55 108 105q37 49 37 104q0 52 -24 92q-24 41 -74 62q-52 22 -113 22q-106 0 -163 -51q-59 -53 -62 -150h-393q6 151 86 263q78 109 219 172q137 61 320 61q178 0 317 -59q140 -59 215 -162q76 -104 76 -236q0 -135 -68 -241
q-65 -101 -213 -209z" />
    <glyph glyph-name="three" unicode="3" horiz-adv-x="1419" 
d="M1118 752h-2q97 -42 162 -123q63 -78 63 -199q0 -148 -79 -252q-76 -101 -228 -155q-146 -52 -344 -52q-296 0 -454 131q-161 134 -185 363h393q6 -95 68 -148t176 -53q59 0 123 23q58 21 96 65q37 43 37 105q0 104 -90 151q-89 47 -233 47h-109v310h109q137 0 208 47
q72 47 72 123q0 74 -57 116q-58 43 -154 43q-98 0 -153 -49q-56 -50 -62 -131h-393q9 137 92 246q82 108 217 166q136 59 301 59q173 0 307 -51q143 -54 220 -143q79 -91 79 -211q0 -170 -106 -254t-283 -119q111 -12 209 -55z" />
    <glyph glyph-name="four" unicode="4" horiz-adv-x="1468" 
d="M1198 690h215v-307h-215v-383h-385v383h-764v389l451 784h698v-866zM813 1458l-436 -768h436v768z" />
    <glyph glyph-name="five" unicode="5" horiz-adv-x="1435" 
d="M1118 1004l-8 -9q112 -61 180 -184q68 -124 68 -295q0 -178 -82 -303q-81 -124 -227 -186q-145 -62 -330 -62q-175 0 -320 60q-142 59 -227 172t-100 270h393q12 -91 80 -150q66 -57 174 -57q70 0 127 31q55 30 86 90t31 139q0 86 -33 142q-35 59 -88 88q-55 30 -125 30
q-90 0 -154 -43q-63 -43 -94 -121l-379 33l78 903h1089v-307h-731l-37 -422q24 64 76 119q49 52 129 88q78 35 168 35q143 0 256 -61z" />
    <glyph glyph-name="six" unicode="6" horiz-adv-x="1490" 
d="M1159 975l10 -4q123 -65 191 -185q67 -119 67 -282q0 -156 -81 -277q-80 -120 -234 -192q-149 -70 -344 -70q-204 0 -358 86t-240 268q-86 183 -86 451q0 266 86 449q85 180 240 270q152 88 352 88q178 0 307 -57q131 -58 211 -158q81 -100 104 -223h-393q-20 68 -78 110
q-53 39 -143 39q-109 0 -178 -69t-100 -189t-25 -262q24 74 82 135q57 60 141 98q81 37 184 37q165 0 285 -63zM905 293l-4 2q57 29 92 86q35 56 35 129q0 70 -31 127q-30 55 -90 86t-139 31q-77 0 -141 -31q-60 -29 -95 -86q-32 -51 -32 -125q0 -72 30 -131q29 -57 93 -88
t147 -31q75 0 135 31z" />
    <glyph glyph-name="seven" unicode="7" horiz-adv-x="1196" 
d="M43 1249v307h1108v-389l-588 -1167h-469l676 1249h-727z" />
    <glyph glyph-name="eight" unicode="8" horiz-adv-x="1503" 
d="M1219 752l-11 -2q93 -47 150 -125q59 -80 59 -195q0 -138 -82 -242q-81 -103 -235 -159t-359 -56q-204 0 -358 56q-155 56 -236 159t-81 242q0 117 59 197q58 79 149 125q90 46 201 61q-360 89 -360 363q0 125 80 217q79 91 221 141q140 49 329 49q190 0 330 -49
q142 -50 221 -141q80 -92 80 -217q0 -151 -98 -236q-102 -88 -260 -127q111 -15 201 -61zM557 1243l2 -2q-63 -45 -63 -123q0 -77 61 -123q60 -45 182 -45q121 0 183 47q61 46 61 123t-61 123q-60 45 -181 45q-122 0 -184 -45zM940 311q80 50 80 146q0 58 -35 102
q-35 45 -98 68q-65 24 -148 24t-147 -24q-63 -23 -98 -68q-35 -44 -35 -102q0 -96 80 -146q79 -49 200 -49q122 0 201 49z" />
    <glyph glyph-name="nine" unicode="9" horiz-adv-x="1490" 
d="M1085 1495l-12 -4q156 -87 240 -266q86 -183 86 -451q0 -265 -86 -448q-86 -182 -240 -271q-152 -88 -352 -88q-172 0 -307 60q-132 58 -211 157q-81 101 -105 226h394q21 -70 77 -111q53 -39 144 -39q106 0 178 72q70 70 100 188q31 120 25 262q-24 -74 -82 -135
q-57 -60 -141 -98q-81 -37 -185 -37q-164 0 -284 63q-123 65 -191 185q-67 119 -67 282q0 152 84 277q81 120 233 192q149 70 344 70q204 0 358 -86zM858 823l-2 -4q61 30 96 86t35 125q0 71 -31 131t-92 90q-64 31 -147 31q-75 0 -135 -31q-58 -30 -93 -86
q-32 -51 -32 -129q0 -72 30 -127q29 -54 91 -86q58 -30 139 -30q79 0 141 30z" />
    <glyph glyph-name="colon" unicode=":" horiz-adv-x="632" 
d="M514 0h-395v352h395v-352zM514 698h-395v353h395v-353z" />
    <glyph glyph-name="semicolon" unicode=";" horiz-adv-x="632" 
d="M119 0v352h395v-395l-162 -252h-246l142 295h-129zM514 698h-395v353h395v-353z" />
    <glyph glyph-name="less" unicode="&#x3c;" horiz-adv-x="1218" 
d="M96 801l1014 282v-299l-829 -221l829 -223v-297l-1014 283v475z" />
    <glyph glyph-name="equal" unicode="=" horiz-adv-x="1308" 
d="M1190 651h-1069v285h1069v-285zM1190 199h-1069v284h1069v-284z" />
    <glyph glyph-name="greater" unicode="&#x3e;" horiz-adv-x="1218" 
d="M109 784v299l1013 -282v-475l-1013 -283v297l829 223z" />
    <glyph glyph-name="question" unicode="?" horiz-adv-x="1259" 
d="M406 537l-9 -2q0 115 37 196q38 83 115 154l115 106q76 66 102 103q29 40 29 80q0 51 -47 86q-46 34 -127 34q-79 0 -132 -41q-51 -39 -57 -108h-391q9 133 86 233t205 152q130 53 293 53q179 0 307 -49q129 -50 196 -137q68 -89 68 -209q0 -102 -43 -172
q-45 -72 -125 -144l-117 -104q-67 -61 -94 -111q-26 -48 -26 -120h-385zM793 -2h-396v352h396v-352z" />
    <glyph glyph-name="at" unicode="@" horiz-adv-x="1937" 
d="M1417 1260l-4 -5q210 -124 332 -331q123 -209 123 -455q0 -168 -60 -276q-58 -104 -151 -148q-90 -43 -197 -43q-121 0 -203 49q-84 50 -127 135q-40 -79 -116 -131q-74 -51 -197 -51q-91 0 -166 37q-78 38 -123 106t-45 160q0 139 105 201q106 62 282 80l234 22v21v4
q0 68 -39 104q-40 37 -104 37q-62 0 -101 -33t-45 -86h-297q12 97 74 168q61 69 158 105q96 35 213 35q145 0 241 -45q99 -47 148 -125q49 -79 49 -187v-4v-244v-4q0 -60 29 -100q27 -37 79 -37q67 0 105 60q37 58 37 190q0 185 -92 342q-92 158 -250 250q-157 92 -342 92
q-187 0 -344 -92q-156 -92 -248 -248q-92 -157 -92 -344q0 -185 92 -342q93 -159 248 -250q157 -92 344 -92q95 0 176 20q82 20 155 62l113 -186q-108 -59 -215 -87q-114 -30 -233 -30q-247 0 -455 123q-210 124 -332 331q-123 209 -123 455t123 455t332 332
q207 122 455 122q247 0 454 -122zM1016 217l-4 2q43 27 65 78q23 54 23 115v26l-129 -12q-90 -9 -142 -37q-49 -27 -49 -86q0 -55 39 -84q42 -31 101 -31q49 0 96 29z" />
    <glyph glyph-name="A" unicode="A" horiz-adv-x="1660" 
d="M1667 0h-410l-114 389h-627l-115 -389h-407l491 1556h691zM829 1456l-219 -745h439z" />
    <glyph glyph-name="B" unicode="B" horiz-adv-x="1529" 
d="M1343 694l-4 -6q121 -89 121 -258q0 -131 -71 -231q-71 -99 -215 -152q-145 -53 -351 -53h-686v1556h674q202 0 336 -55t199 -147t65 -209q0 -156 -106 -240q-108 -85 -285 -106q201 -9 323 -99zM528 1229l-2 -281h301q84 0 131 35q46 34 46 102q0 70 -46 107t-129 37
h-301zM850 313q101 0 154 41t53 115q0 76 -53 117t-154 41h-324v-314h324z" />
    <glyph glyph-name="C" unicode="C" horiz-adv-x="1654" 
d="M453 70l-7 -7q-177 98 -280 281t-103 428t103 428t280 281t400 98q191 0 348 -68t264 -196t148 -311h-408q-92 270 -352 270q-113 0 -199 -62q-88 -63 -133 -174q-47 -115 -47 -266q0 -153 49 -266q49 -112 135 -174t201 -62q132 0 225 72q93 71 133 203h408
q-70 -292 -272 -432q-204 -142 -492 -142q-222 0 -401 99z" />
    <glyph glyph-name="D" unicode="D" horiz-adv-x="1617" 
d="M741 1556l-2 5q239 0 424 -84q182 -83 281 -258q98 -174 98 -437q0 -262 -98 -436q-99 -175 -279 -260q-183 -86 -424 -86h-600v1556h600zM748 326v4q187 0 288 116q103 118 103 338t-103 338q-102 117 -288 117h-218v-913h218z" />
    <glyph glyph-name="E" unicode="E" horiz-adv-x="1361" 
d="M532 635v-313h736v-322h-1127v1556h1108v-321h-717v-279h703v-321h-703z" />
    <glyph glyph-name="F" unicode="F" horiz-adv-x="1304" 
d="M1221 1556v-321h-689v-303h676v-322h-676v-610h-391v1556h1080z" />
    <glyph glyph-name="G" unicode="G" horiz-adv-x="1746" 
d="M801 905l841 4v-905h-319v358q-55 -165 -178 -276t-344 -111q-181 0 -352 97q-166 94 -271 276q-104 180 -104 430t100 428q103 183 283 281t417 98q295 0 484 -131q190 -132 264 -387h-408q-89 215 -342 215q-120 0 -208 -61q-89 -62 -138 -174q-49 -113 -49 -271
q0 -153 49 -266q48 -111 142 -174q92 -62 217 -62q108 0 192 41q82 40 129 115q46 73 49 174h-454v301z" />
    <glyph glyph-name="H" unicode="H" horiz-adv-x="1634" 
d="M1100 971v585h391v-1556h-391v616h-568v-616h-391v1556h391v-585h568z" />
    <glyph glyph-name="I" unicode="I" horiz-adv-x="675" 
d="M532 0h-391v1556h391v-1556z" />
    <glyph glyph-name="J" unicode="J" horiz-adv-x="866" 
d="M35 0v324h162q84 0 114 30q31 31 31 109v1093h391v-1169q0 -387 -434 -387h-264z" />
    <glyph glyph-name="K" unicode="K" 
d="M954 815l625 -815h-483l-564 756v-756h-391v1556h391v-686l515 686h469z" />
    <glyph glyph-name="L" unicode="L" horiz-adv-x="1218" 
d="M532 1556v-1234h654v-322h-1045v1556h391z" />
    <glyph glyph-name="M" unicode="M" horiz-adv-x="2269" 
d="M2126 1556v-1556h-391v1438l-271 -1438h-659l-273 1448v-1448h-391v1556h748l246 -1454l243 1454h748z" />
    <glyph glyph-name="N" unicode="N" horiz-adv-x="1818" 
d="M1286 96v1460h389v-1556h-741l-402 1452v-1452h-391v1556h744z" />
    <glyph glyph-name="O" unicode="O" horiz-adv-x="1740" 
d="M453 72h-7q-180 98 -282 280q-101 180 -101 424q0 241 103 424t283 281t417 98q236 0 416 -98t283 -281q102 -182 102 -424q0 -246 -100 -424q-102 -181 -283 -280q-182 -99 -414 -99q-236 0 -417 99zM1071 336l-2 -4q91 63 139 174q49 113 49 268t-49 268
q-49 112 -139 175q-88 61 -209 61t-209 -61q-87 -61 -137 -175q-49 -113 -49 -266t49 -266q48 -111 139 -174q89 -62 209 -62t209 62z" />
    <glyph glyph-name="P" unicode="P" horiz-adv-x="1478" 
d="M780 1556q215 0 359 -63q148 -65 223 -180q76 -116 76 -279q0 -160 -76 -276q-75 -115 -223 -180q-146 -64 -359 -64h-248v-514h-391v1556h639zM788 836l5 -2q120 0 182 53q61 52 61 147q0 97 -63 148q-65 53 -185 53h-256v-399h256z" />
    <glyph glyph-name="Q" unicode="Q" horiz-adv-x="1757" 
d="M1858 0l-455 2l-88 90q-193 -117 -449 -117q-236 0 -417 99t-283 280q-100 178 -100 424q0 242 102 424q103 183 283 281t417 98q236 0 416 -98t283 -281q102 -181 102 -424q0 -270 -123 -463zM1073 336l-274 278h450q17 87 17 164q0 156 -49 269q-48 110 -140 174
q-88 61 -209 61t-209 -61t-137 -174t-49 -267q0 -153 49 -266q48 -110 140 -174q88 -61 208 -61q117 0 203 57z" />
    <glyph glyph-name="R" unicode="R" horiz-adv-x="1544" 
d="M1085 0l-315 543h-235v-547h-392v1556h645q195 0 338 -61q146 -62 222 -176q77 -115 77 -264q0 -146 -71 -258q-69 -109 -207 -175l381 -618h-443zM535 1231v-367h264q108 0 166 49q59 50 59 136q0 83 -59 133q-58 49 -166 49h-264z" />
    <glyph glyph-name="S" unicode="S" horiz-adv-x="1490" 
d="M395 33v-8q-147 61 -235 178q-89 118 -107 276h408q15 -99 92 -155t195 -56q138 0 217 43t79 117q0 51 -26 80t-84 51q-61 23 -158 43l-237 53q-441 95 -441 447q0 139 82 246q80 105 228 168q143 61 319 61q202 0 342 -55q143 -56 221 -156q83 -106 103 -236h-408
q-53 146 -262 146q-62 0 -121 -16q-48 -13 -88 -48q-33 -29 -33 -71q0 -47 27 -74q28 -28 84 -49q55 -21 164 -45l237 -53q217 -47 326 -156q111 -111 111 -291q0 -156 -87 -272q-85 -113 -245 -172q-158 -58 -371 -58q-184 0 -332 62z" />
    <glyph glyph-name="T" unicode="T" horiz-adv-x="1384" 
d="M33 1556h1319v-321h-465v-1235h-389v1235h-465v321z" />
    <glyph glyph-name="U" unicode="U" horiz-adv-x="1591" 
d="M127 623l-4 2v929h391v-970v-4q0 -150 72 -228t209 -78q138 0 209 80q69 78 69 232v970h391v-929q0 -654 -667 -654q-670 0 -670 650z" />
    <glyph glyph-name="V" unicode="V" horiz-adv-x="1587" 
d="M795 100l372 1456h420l-436 -1556h-715l-436 1556h420z" />
    <glyph glyph-name="W" unicode="W" horiz-adv-x="2363" 
d="M1716 111l240 1445h371l-271 -1556h-694l-180 1442l-181 -1442h-694l-270 1556h371l239 -1445l191 1445h688z" />
    <glyph glyph-name="X" unicode="X" horiz-adv-x="1624" 
d="M1073 823l574 -823h-469l-365 539l-367 -539h-469l574 825l-520 731h465l317 -464l315 464h465z" />
    <glyph glyph-name="Y" unicode="Y" horiz-adv-x="1480" 
d="M1069 1556h442l-575 -948v-608h-391v608l-576 948h443l329 -579z" />
    <glyph glyph-name="Z" unicode="Z" horiz-adv-x="1458" 
d="M1360 1145l-828 -823h865v-322h-1319v412l825 823h-813v321h1270v-411z" />
    <glyph glyph-name="bracketleft" unicode="[" horiz-adv-x="792" 
d="M737 1556v-274h-223v-1409h223v-274h-602v1957h602z" />
    <glyph glyph-name="backslash" unicode="\" horiz-adv-x="1167" 
d="M1130 0h-403l-690 1556h403z" />
    <glyph glyph-name="bracketright" unicode="]" horiz-adv-x="792" 
d="M55 1282v274h602v-1957h-602v274h224v1409h-224z" />
    <glyph glyph-name="asciicircum" unicode="^" horiz-adv-x="1208" 
d="M874 1556l273 -815h-361l-182 658l-182 -658h-361l273 815h540z" />
    <glyph glyph-name="underscore" unicode="_" horiz-adv-x="1202" 
d="M1128 -274h-1054v274h1054v-274z" />
    <glyph glyph-name="grave" unicode="`" horiz-adv-x="804" 
d="M770 1229h-352l-383 327h510z" />
    <glyph glyph-name="a" unicode="a" horiz-adv-x="1300" 
d="M948 1092l-8 -2q122 -55 186 -156t64 -240v-4v-692h-373v195q-50 -102 -137 -160q-91 -60 -227 -60q-111 0 -203 47q-91 46 -144 130q-51 80 -51 190q0 176 129 252q130 77 338 98l291 29v8v4q0 75 -43 121q-44 47 -123 47q-72 0 -115 -37q-44 -38 -53 -88h-379
q15 121 88 203q75 84 193 127q119 43 270 43q175 0 297 -55zM715 227l-6 -4q48 39 71 101q25 67 25 143v25l-154 -17q-101 -9 -157 -39t-56 -100q0 -68 45 -107t117 -39q69 0 115 37z" />
    <glyph glyph-name="b" unicode="b" horiz-adv-x="1368" 
d="M1085 1069l2 -2q105 -76 160 -211q56 -136 56 -301q0 -166 -56 -299t-160 -209t-241 -76q-124 0 -221 66q-95 65 -138 172v-211h-372v1556h372v-675q41 114 131 190q91 76 228 76q135 0 239 -76zM860 309v-2q55 88 55 246q0 160 -55 248t-164 88t-164 -88t-55 -246
t55 -246t164 -88t164 88z" />
    <glyph glyph-name="c" unicode="c" horiz-adv-x="1280" 
d="M348 45l4 -12q-134 73 -211 209q-75 132 -75 309q0 174 77 307t213 207t308 74q151 0 274 -54q121 -53 197 -151q77 -100 98 -236h-379q-18 87 -68 140t-124 53q-103 0 -158 -88t-55 -246q0 -163 55 -248q56 -86 158 -86q149 0 196 189h381q-24 -140 -104 -240
q-76 -95 -203 -149q-122 -52 -273 -52q-175 0 -311 74z" />
    <glyph glyph-name="d" unicode="d" horiz-adv-x="1368" 
d="M879 1556l370 3v-1557h-372v211q-43 -107 -138 -172q-97 -66 -221 -66q-135 0 -242 78q-103 75 -159 209q-56 133 -56 299q0 165 56 301t159 211q107 78 242 78q91 0 164 -37q75 -38 123 -98q50 -63 74 -135v675zM831 315l-2 -2q56 89 56 246t-56 246q-56 90 -161 90
q-109 0 -164 -88t-55 -246t55 -246t164 -88q108 0 163 88z" />
    <glyph glyph-name="e" unicode="e" horiz-adv-x="1298" 
d="M1231 446l-782 -2q18 -112 71 -168q52 -55 133 -55q71 0 111 27q39 26 67 86h379q-59 -178 -204 -268q-149 -93 -359 -93q-174 0 -307 74q-134 74 -207 209q-74 136 -74 307q0 172 74 305q74 134 209 207q136 74 307 74q183 0 314 -76t202 -215q72 -141 72 -315
q0 -45 -6 -97zM522 842l-4 -4q-55 -51 -72 -156h400q-12 97 -66 154q-52 55 -129 55t-129 -49z" />
    <glyph glyph-name="f" unicode="f" horiz-adv-x="866" 
d="M729 1292l-2 -4q-64 0 -94 -24q-31 -25 -31 -90v-56h232v-274h-232v-846h-379v846h-186v274h186v86q0 113 53 193q51 77 146 119q90 40 211 40h203v-264h-107z" />
    <glyph glyph-name="g" unicode="g" horiz-adv-x="1368" 
d="M885 1120l370 -6v-1083q0 -166 -84 -273q-80 -102 -213 -147q-128 -43 -274 -43q-144 0 -262 39q-122 40 -205 123t-98 209h379q18 -59 67 -89t121 -30q89 0 143 51q56 53 56 154v227q-43 -107 -137 -174q-95 -68 -224 -68q-134 0 -241 72q-103 69 -160 201
q-55 128 -55 295q0 166 55 294q57 132 160 201q107 72 241 72q139 0 230 -76t131 -192v243zM838 342q55 82 55 233q0 152 -55 234t-164 82t-164 -82t-55 -234q0 -151 55 -233t164 -82t164 82z" />
    <glyph glyph-name="h" unicode="h" horiz-adv-x="1318" 
d="M1126 1030l4 -2q87 -119 87 -315v-4v-713h-379v622v5q0 132 -43 196t-129 64t-129 -64t-43 -198v-623h-379v1556h372v-669q46 118 136 190t227 72q190 0 276 -117z" />
    <glyph glyph-name="i" unicode="i" horiz-adv-x="610" 
d="M496 0h-379v1120h379v-1120zM498 1245h-387v311h387v-311z" />
    <glyph glyph-name="j" unicode="j" horiz-adv-x="610" 
d="M-63 -401l-5 276h54q67 0 98 25t31 90v1130h379v-1171q0 -114 -52 -193q-50 -76 -145 -118q-88 -39 -211 -39h-149zM494 1247h-388v312h388v-312z" />
    <glyph glyph-name="k" unicode="k" horiz-adv-x="1282" 
d="M874 623l424 -623h-446l-360 545v-545h-379v1556h379v-870l346 434h440z" />
    <glyph glyph-name="l" unicode="l" horiz-adv-x="610" 
d="M496 0h-379v1556h379v-1556z" />
    <glyph glyph-name="m" unicode="m" horiz-adv-x="1984" 
d="M1794 1030l-4 2q86 -118 86 -315v-4v-713h-379v623v4q0 133 -37 194q-38 62 -119 62q-80 0 -118 -62q-37 -61 -37 -198v-623h-379v623v4q0 133 -37 194q-38 62 -119 62t-119 -62q-36 -59 -36 -198v-623h-379v1120h372v-229q102 256 351 256q139 0 221 -76
q83 -77 117 -192q39 114 127 192q85 76 221 76q182 0 268 -117z" />
    <glyph glyph-name="n" unicode="n" horiz-adv-x="1318" 
d="M1126 1030l4 -2q87 -119 87 -315v-4v-713h-379v622v5q0 132 -43 196t-129 64t-129 -64t-43 -198v-623h-379v1120h372v-233q46 118 136 190t227 72q190 0 276 -117z" />
    <glyph glyph-name="o" unicode="o" horiz-adv-x="1333" 
d="M346 47v-2q-136 72 -211 207q-74 133 -74 301q0 169 74 305t211 209q139 74 322 74q182 0 321 -74q137 -73 211 -209t74 -303q0 -168 -74 -301q-75 -135 -211 -207q-139 -74 -321 -74q-183 0 -322 74zM831 309v-2q56 89 56 246q0 159 -56 248q-55 88 -163 88
q-109 0 -164 -88t-55 -246t55 -246t164 -88q108 0 163 88z" />
    <glyph glyph-name="p" unicode="p" horiz-adv-x="1368" 
d="M1085 1069l2 -2q105 -76 160 -211q56 -136 56 -301q0 -166 -56 -299t-160 -209t-241 -76q-124 0 -221 66q-95 65 -138 172v-612h-372v1521h372v-239q41 114 131 190q91 76 228 76q135 0 239 -76zM860 309v-2q55 88 55 246q0 160 -55 248t-164 88t-164 -88t-55 -246
t55 -246t164 -88t164 88z" />
    <glyph glyph-name="q" unicode="q" horiz-adv-x="1368" 
d="M879 1120l370 2v-1521h-372v612q-43 -107 -138 -172q-97 -66 -221 -66q-135 0 -242 78q-103 75 -159 209q-56 133 -56 299q0 165 56 301t159 211q107 78 242 78q91 0 164 -37q75 -38 123 -98q50 -63 74 -135v239zM831 315l-2 -2q56 89 56 246t-56 246q-56 90 -161 90
q-109 0 -164 -88t-55 -246t55 -246t164 -88q108 0 163 88z" />
    <glyph glyph-name="r" unicode="r" horiz-adv-x="901" 
d="M489 799v-4q35 153 129 252q94 98 252 98v-371h-92q-149 0 -215 -57q-67 -58 -67 -193v-524h-379v1120h372v-321z" />
    <glyph glyph-name="s" unicode="s" horiz-adv-x="1218" 
d="M229 66v6q-146 93 -176 276h379q12 -63 64 -90q56 -29 125 -29q83 0 137 23q49 21 49 61q0 28 -14 45q-17 21 -56 35q-49 18 -112 31l-222 49q-165 37 -245 117t-80 203q0 109 67 188t185 123q116 43 258 43q143 0 258 -37q116 -37 192 -113q78 -78 99 -184h-379
q-15 40 -62 61q-51 23 -106 23q-73 0 -117 -20q-45 -20 -45 -62q0 -35 37 -53q40 -19 121 -37l221 -49q180 -41 264 -119q86 -80 86 -219q0 -114 -74 -197q-73 -82 -198 -125t-283 -43q-227 0 -373 93z" />
    <glyph glyph-name="t" unicode="t" horiz-adv-x="884" 
d="M827 274l-4 -274h-198q-118 0 -211 41q-92 41 -144 117q-51 74 -51 188v4v496h-190v274h190v264h379v-264h225v-274h-225v-455v-4q0 -63 31 -88t98 -25h100z" />
    <glyph glyph-name="u" unicode="u" horiz-adv-x="1312" 
d="M817 1120l379 -6v-1120h-373v217q-89 -244 -356 -244q-189 0 -274 117q-87 119 -87 315v4v713h379v-622v-5q0 -130 41 -192q40 -61 123 -61q86 0 127 65t41 197v622z" />
    <glyph glyph-name="v" unicode="v" horiz-adv-x="1288" 
d="M645 96l252 1024h373l-287 -1120h-678l-287 1120h373z" />
    <glyph glyph-name="w" unicode="w" horiz-adv-x="1914" 
d="M1386 96l148 1024h338l-170 -1120h-635l-109 1024l-110 -1024h-635l-170 1120h340l145 -1024l117 1024h625z" />
    <glyph glyph-name="x" unicode="x" horiz-adv-x="1247" 
d="M864 594l393 -594h-403l-231 367l-232 -367h-403l395 594l-367 526h402l205 -319l204 319h402z" />
    <glyph glyph-name="y" unicode="y" horiz-adv-x="1280" 
d="M631 209l233 911h400l-402 -1521h-387l131 512h-305l-295 1009h377z" />
    <glyph glyph-name="z" unicode="z" horiz-adv-x="1179" 
d="M1083 770l-567 -496h604v-274h-1042v352l569 494h-559v274h995v-350z" />
    <glyph glyph-name="braceleft" unicode="{" horiz-adv-x="860" 
d="M629 938l-8 -10q0 -117 -43 -187q-43 -69 -123 -104q-78 -34 -203 -49q124 -15 201 -49q78 -34 125 -105q45 -68 45 -184v-4v-246v-4q0 -70 32 -98q36 -31 99 -31h32v-275h-129q-201 0 -309 97q-104 94 -104 262v4v229v4q0 90 -21 140t-63 67q-51 21 -119 29v334
q75 9 119 30t65 70q23 54 23 141v195q0 170 104 264q107 96 312 96h129v-274h-33q-62 0 -98 -31q-33 -29 -33 -100v-211z" />
    <glyph glyph-name="bar" unicode="|" horiz-adv-x="634" 
d="M500 -463h-365v2142h365v-2142z" />
    <glyph glyph-name="braceright" unicode="}" horiz-adv-x="860" 
d="M631 858v-4q21 -50 65 -68q40 -17 117 -26v-334q-72 -9 -119 -31q-42 -20 -63 -69q-21 -50 -21 -142v-229q0 -169 -102 -264q-105 -97 -311 -97h-129v275h34q66 0 97 31q30 30 30 102v246q0 116 43 186q43 69 123 107t201 53q-124 15 -201 49q-78 34 -125 105
q-45 68 -45 184v4v211v4q0 68 -30 98q-31 31 -97 31h-35v274h130q207 0 311 -94t104 -260v-4v-195v-4q0 -85 23 -139z" />
    <glyph glyph-name="asciitilde" unicode="~" horiz-adv-x="1398" 
d="M80 557l-6 -10q74 113 172 180q94 64 198 64q60 0 117 -13q62 -14 133 -45q76 -30 129 -45q49 -14 105 -14q66 0 116 33q52 34 101 92l176 -181q-74 -113 -172 -180q-92 -63 -197 -63q-60 0 -112 12q-50 11 -135 47q-93 36 -130 47q-60 17 -104 17q-63 0 -117 -31
q-46 -26 -100 -90z" />
    <glyph glyph-name="uni00A0" unicode="&#xa0;" horiz-adv-x="452" 
 />
    <glyph glyph-name="exclamdown" unicode="&#xa1;" horiz-adv-x="630" 
d="M512 768h-395v352h395v-352zM537 -401h-443l64 985h315z" />
    <glyph glyph-name="cent" unicode="&#xa2;" horiz-adv-x="1357" 
d="M1280 414v-11q-26 -162 -133 -272q-103 -106 -264 -147v-263h-373v267q-125 34 -217 114q-90 79 -141 195q-50 115 -50 256q0 137 50 252t141 194q93 81 215 115v258h373v-256q162 -41 262 -147q102 -108 129 -271h-379q-18 87 -68 140t-125 53q-100 0 -155 -88
q-56 -89 -56 -246q0 -162 56 -248t157 -86q81 0 127 49q48 51 72 142h379z" />
    <glyph glyph-name="sterling" unicode="&#xa3;" horiz-adv-x="1335" 
d="M1268 307v-311h-1157v375q128 60 202 121q70 58 82 135h-303v264h197q-71 67 -111 135q-41 68 -41 156q0 120 74 209t201 139q125 49 282 49q173 0 295 -51q126 -52 197 -148q70 -94 82 -221h-394q-9 65 -53 103q-42 36 -116 36t-123 -43q-50 -44 -50 -112q0 -47 25 -92
q22 -40 78 -99q27 -27 51 -57h414v-264h-342q-21 -100 -123 -180q-104 -81 -264 -144h897z" />
    <glyph glyph-name="currency" unicode="&#xa4;" horiz-adv-x="1374" 
d="M1139 524l141 -143l-223 -221l-142 141q-115 -53 -229 -53q-112 0 -227 53l-144 -141l-223 221l141 141q-59 115 -59 240q0 128 59 237l-141 140l223 221l144 -141q103 53 227 53q114 0 229 -53l142 141l223 -221l-141 -142q57 -108 57 -235q0 -130 -57 -238zM801 561h-2
q52 30 82 82q30 53 30 117t-30 117q-29 51 -82 81q-54 31 -117 31q-59 0 -113 -31q-53 -30 -82 -81q-30 -53 -30 -117t30 -117q30 -52 82 -82q54 -31 115 -31q63 0 117 31z" />
    <glyph glyph-name="yen" unicode="&#xa5;" horiz-adv-x="1609" 
d="M1126 1556h435l-426 -667h274v-264h-410v-113h410v-266h-410v-246h-387v246h-411v266h411v113h-411v264h274l-424 667h434l322 -591z" />
    <glyph glyph-name="brokenbar" unicode="&#xa6;" horiz-adv-x="651" 
d="M508 813h-365v866h365v-866zM508 -463h-365v866h365v-866z" />
    <glyph glyph-name="section" unicode="&#xa7;" horiz-adv-x="1345" 
d="M1192 139h2q0 -103 -61 -182q-60 -78 -179 -125q-113 -45 -266 -45q-160 0 -282 49q-124 50 -193 131q-71 83 -86 187h393q9 -59 55 -93t111 -34q62 0 98 26q37 27 37 68q0 40 -37 67q-44 32 -118 68l-320 147q-145 65 -207 142q-61 76 -61 178q0 87 49 154
q50 69 143 129q-110 91 -110 223q0 103 61 182q63 81 178 127q113 45 269 45q161 0 280 -49q122 -50 191 -131q71 -84 86 -186h-394q-9 58 -55 92t-110 34q-63 0 -99 -26q-37 -27 -37 -68q0 -39 37 -69q40 -32 119 -68l320 -147q144 -64 206 -142q62 -77 62 -178
q0 -86 -49 -153q-51 -69 -144 -130q111 -91 111 -223zM840 496h-2q57 45 57 104q0 48 -31 84q-30 35 -106 72l-252 116q-55 -46 -55 -104q0 -50 30 -84q28 -32 109 -72z" />
    <glyph glyph-name="dieresis" unicode="&#xa8;" horiz-adv-x="968" 
d="M422 1245h-387v311h387v-311zM934 1245h-387v311h387v-311z" />
    <glyph glyph-name="copyright" unicode="&#xa9;" horiz-adv-x="1873" 
d="M516 49l-4 -8q-193 114 -307 307q-113 192 -113 422q0 227 115 422q114 193 307 307q195 115 424 115q232 0 424 -113q193 -114 307 -307q115 -195 115 -420q0 -228 -113 -420q-114 -193 -307 -307q-192 -113 -424 -113q-229 0 -424 115zM1255 213l-2 -2q149 87 234 233
q86 148 86 322q0 176 -86 324q-85 146 -234 233q-148 86 -321 86q-174 0 -322 -86q-147 -86 -233 -233q-86 -148 -86 -322t86 -322q86 -147 233 -233q148 -86 324 -86q173 0 321 86zM700 356l-8 4q-106 56 -164 160q-59 106 -59 250q0 139 59 248q59 108 164 164
q104 55 236 55q111 0 202 -39q97 -42 160 -119q66 -81 86 -192h-305q-34 119 -141 119q-73 0 -115 -60q-41 -59 -41 -178q0 -120 43 -178q45 -60 121 -60q48 0 88 29q37 27 49 92h307q-20 -111 -86 -192q-64 -79 -155 -119q-88 -39 -201 -39q-136 0 -240 55z" />
    <glyph glyph-name="ordfeminine" unicode="&#xaa;" horiz-adv-x="706" 
d="M575 1507l-4 -4q72 -66 72 -166v-4v-346h-225v84q-24 -47 -68 -74q-42 -26 -108 -26q-56 0 -103 24q-45 23 -73 68q-27 43 -27 98q0 88 65 129q63 40 170 49l146 13v4v4q0 32 -19 51t-45 19q-28 0 -43 -15t-18 -37h-234q12 89 93 142q77 51 200 51q151 0 221 -64z
M389 1133v2q22 31 25 84l-64 -7q-40 -3 -61 -18t-21 -39q0 -22 17 -39q14 -14 43 -14q39 0 61 31z" />
    <glyph glyph-name="guillemotleft" unicode="&#xab;" horiz-adv-x="1531" 
d="M377 1018h448l-307 -449l307 -471h-448l-299 471zM1010 1018h448l-307 -449l307 -471h-448l-299 471z" />
    <glyph glyph-name="logicalnot" unicode="&#xac;" horiz-adv-x="1220" 
d="M1100 203h-293v440h-733v283h1026v-723z" />
    <glyph glyph-name="uni00AD" unicode="&#xad;" horiz-adv-x="909" 
d="M803 432h-694v311h694v-311z" />
    <glyph glyph-name="registered" unicode="&#xae;" horiz-adv-x="1873" 
d="M1360 1505l-4 -8q193 -114 307 -307q115 -195 115 -420q0 -228 -113 -420q-114 -193 -307 -307q-192 -113 -424 -113q-229 0 -424 115q-193 114 -307 307q-113 192 -113 422q0 227 115 422q114 193 307 307q195 115 424 115q232 0 424 -113zM1255 213l-2 -2
q149 87 234 233q86 148 86 322q0 176 -86 324q-85 146 -234 233q-148 86 -321 86q-174 0 -322 -86q-147 -86 -233 -233q-86 -148 -86 -322t86 -322q86 -147 233 -233q148 -86 324 -86q173 0 321 86zM1300 762l-4 2q-44 -68 -125 -105l189 -348h-297l-152 307h-77v-307h-265
v908h383q122 0 209 -37q89 -38 135 -105q47 -68 47 -159q0 -89 -43 -156zM831 1006v-177h115q53 0 86 23q31 22 31 66q0 43 -31 65q-33 23 -86 23h-115z" />
    <glyph glyph-name="macron" unicode="&#xaf;" horiz-adv-x="892" 
d="M858 1260h-823v260h823v-260z" />
    <glyph glyph-name="degree" unicode="&#xb0;" horiz-adv-x="890" 
d="M248 848h-2q-92 52 -144 141q-53 89 -53 197q0 107 53 196q52 88 146 142q92 53 198 53q108 0 197 -53q88 -52 141 -142q54 -91 54 -196q0 -106 -54 -197q-52 -89 -141 -141q-89 -53 -197 -53q-106 0 -198 53zM512 1069l-2 -2q31 18 49 49q19 32 19 72q0 35 -19 67
t-49 50t-68 18q-39 0 -69 -18t-49 -50t-19 -67q0 -38 19 -70q18 -31 49 -49q30 -18 71 -18q38 0 68 18z" />
    <glyph glyph-name="plusminus" unicode="&#xb1;" horiz-adv-x="1331" 
d="M813 1120v-239h412v-273h-412v-246h-295v246h-414v273h414v239h295zM1225 0h-1121v272h1121v-272z" />
    <glyph glyph-name="uni00B2" unicode="&#xb2;" horiz-adv-x="739" 
d="M317 1176l375 -7v-184h-651v234l350 245q30 23 41 37q12 15 12 37q0 28 -20 45q-22 19 -57 19q-39 0 -62 -23q-21 -21 -24 -55h-240q3 77 45 133q42 57 117 92q70 33 162 33q94 0 170 -31q71 -29 112 -82q39 -51 39 -123q0 -66 -35 -119q-34 -52 -104 -98z" />
    <glyph glyph-name="uni00B3" unicode="&#xb3;" horiz-adv-x="733" 
d="M631 1335l-2 -4q61 -46 61 -131q0 -108 -88 -166q-89 -59 -246 -59q-152 0 -239 72q-85 70 -94 190h239q3 -38 25 -63t67 -25q42 0 68 20q29 23 29 56q0 75 -142 75h-59v181h59q62 0 92 18q31 19 31 49q0 27 -20 41q-24 17 -56 17q-34 0 -55 -21q-22 -22 -25 -51h-237
q3 71 47 127t115 86q73 31 157 31q91 0 164 -25q69 -23 111 -72q41 -47 41 -108q0 -81 -53 -125q-50 -41 -148 -57q96 -9 158 -56z" />
    <glyph glyph-name="acute" unicode="&#xb4;" horiz-adv-x="804" 
d="M389 1229h-354l225 327h510z" />
    <glyph glyph-name="uni00B5" unicode="&#xb5;" horiz-adv-x="1456" 
d="M1399 274l-2 -282h-117q-128 0 -205 14q-82 15 -137 55t-82 111q-8 16 -8 41q-40 -107 -123 -172t-217 -68v-376h-379v1521h379v-624v-5q0 -129 43 -190t125 -61q87 0 127 63q41 65 41 197v622h379v-737v-4q0 -46 14 -66q15 -21 43 -30q27 -9 78 -9h41z" />
    <glyph glyph-name="paragraph" unicode="&#xb6;" horiz-adv-x="1583" 
d="M500 659h-4q-125 0 -228 62q-99 60 -159 164q-60 105 -60 227q0 120 60 225q58 102 163 160q106 59 228 59h917v-1746h-346v1458h-225v-1458h-346v849z" />
    <glyph glyph-name="periodcentered" unicode="&#xb7;" horiz-adv-x="540" 
d="M420 428h-316v352h316v-352z" />
    <glyph glyph-name="cedilla" unicode="&#xb8;" horiz-adv-x="456" 
d="M252 -61v-7q77 -9 123 -55q47 -47 47 -117q0 -83 -62 -133q-61 -49 -161 -49h-164v156h90q63 0 63 47q0 22 -16 35q-15 12 -43 12h-57v172h180v-61z" />
    <glyph glyph-name="uni00B9" unicode="&#xb9;" horiz-adv-x="493" 
d="M231 1769h187v-778h-234v479h-170v185h21q83 0 127 24q43 24 65 78z" />
    <glyph glyph-name="ordmasculine" unicode="&#xba;" horiz-adv-x="706" 
d="M184 1014q-71 38 -108 104q-37 67 -37 154q0 86 37 153q38 67 108 105q70 37 170 37t170 -37q72 -38 109 -105t37 -153q0 -87 -37 -154q-36 -65 -109 -104q-70 -37 -170 -37t-170 37zM438 1272q0 141 -84 141t-84 -141q0 -142 84 -142t84 142z" />
    <glyph glyph-name="guillemotright" unicode="&#xbb;" horiz-adv-x="1531" 
d="M74 1018h448l299 -449l-299 -471h-448l305 471zM707 1018h448l299 -449l-299 -471h-448l305 471z" />
    <glyph glyph-name="onequarter" unicode="&#xbc;" horiz-adv-x="1685" 
d="M1528 360h102v-184h-102v-176h-234v176h-366v234l174 368h426v-418zM1294 707l-166 -347h166v347zM274 1556h187v-778h-234v479h-170v185h21q84 0 127 24t65 78zM428 0h-303l967 1556h303z" />
    <glyph glyph-name="onehalf" unicode="&#xbd;" horiz-adv-x="1695" 
d="M1253 184l375 -6v-184h-651v233l350 246q30 23 41 37q12 15 12 37q0 28 -20 45q-21 18 -57 18q-40 0 -62 -22q-21 -21 -24 -56h-240q3 78 45 134q42 57 117 92q70 33 161 33q94 0 170 -31q73 -30 113 -82q39 -51 39 -123q0 -66 -35 -119q-34 -52 -104 -98zM268 1550h187
v-778h-234v479h-170v185h21q84 0 127 24t65 78zM422 -6h-303l966 1556h304z" />
    <glyph glyph-name="threequarters" unicode="&#xbe;" horiz-adv-x="1847" 
d="M659 1122l-2 -4q62 -47 62 -131q0 -108 -88 -166q-89 -59 -246 -59q-153 0 -240 72q-85 70 -94 190h240q3 -39 24 -63q22 -25 68 -25q42 0 68 20q28 22 28 56q0 75 -141 75h-59v181h59q62 0 92 18q31 19 31 49q0 26 -21 41q-24 17 -55 17q-34 0 -55 -21q-22 -22 -25 -51
h-237q3 71 47 127t114 86q73 31 158 31q91 0 164 -25q69 -23 111 -72q40 -46 40 -108q0 -81 -53 -125q-50 -42 -147 -57q95 -9 157 -56zM588 -6h-303l966 1556h303zM1686 354h102v-184h-102v-176h-234v176h-367v233l175 369h426v-418zM1452 700l-166 -346h166v346z" />
    <glyph glyph-name="questiondown" unicode="&#xbf;" horiz-adv-x="1247" 
d="M846 768h-395v352h395v-352zM317 -379l2 -4q-127 49 -196 139q-68 89 -68 203q0 63 23 121q21 52 55 92t86 86l119 104q66 58 94 105q27 47 27 115h385q0 -109 -37 -187t-115 -147l-117 -103q-70 -62 -77 -69q-25 -25 -37 -49t-12 -52q0 -53 45 -86q43 -32 129 -32
q78 0 131 41q52 40 61 110h391q-9 -131 -86 -231t-205 -152q-130 -53 -290 -53q-180 0 -308 49z" />
    <glyph glyph-name="Agrave" unicode="&#xc0;" horiz-adv-x="1660" 
d="M1667 0h-410l-114 389h-627l-115 -389h-407l491 1556h691zM829 1456l-219 -745h439zM1042 1667h-372l-402 309h531z" />
    <glyph glyph-name="Aacute" unicode="&#xc1;" horiz-adv-x="1660" 
d="M1667 0h-410l-114 389h-627l-115 -389h-407l491 1556h691zM829 1456l-219 -745h439zM1016 1667h-375l244 309h530z" />
    <glyph glyph-name="Acircumflex" unicode="&#xc2;" horiz-adv-x="1660" 
d="M1667 0h-410l-114 389h-627l-115 -389h-407l491 1556h691zM829 1456l-219 -745h439zM1073 1976l264 -309h-344l-164 148l-165 -148h-347l267 309h489z" />
    <glyph glyph-name="Atilde" unicode="&#xc3;" horiz-adv-x="1660" 
d="M1667 0h-410l-114 389h-627l-115 -389h-407l491 1556h691zM829 1456l-219 -745h439zM438 1677h8q3 160 66 244t170 84q46 0 92 -12q33 -8 80 -29q73 -33 129 -33q45 0 78 23q32 23 41 59h123q-3 -161 -64 -246q-62 -86 -170 -86q-38 0 -92 13q-41 10 -86 28
q-62 33 -129 33q-44 0 -80 -22q-34 -21 -43 -56h-123z" />
    <glyph glyph-name="Adieresis" unicode="&#xc4;" horiz-adv-x="1660" 
d="M1667 0h-410l-114 389h-627l-115 -389h-407l491 1556h691zM829 1456l-219 -745h439zM772 1667h-399v309h399v-309zM1288 1667h-399v309h399v-309z" />
    <glyph glyph-name="Aring" unicode="&#xc5;" horiz-adv-x="1660" 
d="M1667 0h-410l-114 389h-627l-115 -389h-407l491 1556h691zM829 1456l-219 -745h439zM676 1698v-2q-71 41 -111 110q-41 71 -41 154t41 154q40 69 111 110t153 41q86 0 154 -39q71 -41 111 -110q41 -71 41 -154t-41 -154q-40 -69 -111 -110t-154 -41q-82 0 -153 41z
M895 1892h-4q29 29 29 68q0 41 -27 68q-26 26 -68 26q-41 0 -67 -26q-27 -27 -27 -68q0 -39 29 -68q28 -28 67 -28q40 0 68 28z" />
    <glyph glyph-name="AE" unicode="&#xc6;" horiz-adv-x="2187" 
d="M1466 635l99 -313h528v-322h-836l-114 389h-627l-115 -389h-407l491 1556h1590v-321h-797l88 -279h694v-321h-594zM829 1456l-219 -745h439z" />
    <glyph glyph-name="Ccedilla" unicode="&#xc7;" horiz-adv-x="1654" 
d="M1618 549l-6 -2q-68 -269 -246 -410q-180 -142 -436 -160v-36q76 -9 123 -56t47 -121q0 -85 -62 -135q-61 -49 -164 -49h-172v166h91q26 0 43 10q16 10 16 31t-16 31q-17 10 -41 10h-56v154q-199 21 -350 122q-153 102 -239 275q-87 176 -87 397q0 245 103 428t280 281
t400 98q193 0 348 -67t264 -197q107 -128 148 -311h-408q-92 270 -352 270q-114 0 -199 -61q-87 -63 -133 -175q-47 -115 -47 -266q0 -153 49 -266q49 -112 135 -174t201 -62q132 0 225 72q93 71 133 203h408z" />
    <glyph glyph-name="Egrave" unicode="&#xc8;" horiz-adv-x="1361" 
d="M532 635v-313h736v-322h-1127v1556h1108v-321h-717v-279h703v-321h-703zM920 1667h-373l-402 309h531z" />
    <glyph glyph-name="Eacute" unicode="&#xc9;" horiz-adv-x="1361" 
d="M532 635v-313h736v-322h-1127v1556h1108v-321h-717v-279h703v-321h-703zM846 1667h-375l244 309h530z" />
    <glyph glyph-name="Ecircumflex" unicode="&#xca;" horiz-adv-x="1361" 
d="M532 635v-313h736v-322h-1127v1556h1108v-321h-717v-279h703v-321h-703zM940 1976l264 -309h-344l-164 148l-166 -148h-346l267 309h489z" />
    <glyph glyph-name="Edieresis" unicode="&#xcb;" horiz-adv-x="1361" 
d="M532 635v-313h736v-322h-1127v1556h1108v-321h-717v-279h703v-321h-703zM637 1667h-399v309h399v-309zM1153 1667h-399v309h399v-309z" />
    <glyph glyph-name="Igrave" unicode="&#xcc;" horiz-adv-x="675" 
d="M532 0h-391v1556h391v-1556zM514 1667h-373l-401 309h530z" />
    <glyph glyph-name="Iacute" unicode="&#xcd;" horiz-adv-x="675" 
d="M532 0h-391v1556h391v-1556zM530 1667h-374l243 309h531z" />
    <glyph glyph-name="Icircumflex" unicode="&#xce;" horiz-adv-x="675" 
d="M532 0h-391v1556h391v-1556zM582 1976l264 -309h-344l-164 148l-166 -148h-346l266 309h490z" />
    <glyph glyph-name="Idieresis" unicode="&#xcf;" horiz-adv-x="675" 
d="M532 0h-391v1556h391v-1556zM281 1667h-400v309h400v-309zM797 1667h-400v309h400v-309z" />
    <glyph glyph-name="Eth" unicode="&#xd0;" horiz-adv-x="1654" 
d="M778 1556l-2 5q240 0 422 -84q179 -83 281 -258q100 -172 100 -437q0 -264 -100 -436q-102 -175 -279 -260q-180 -86 -422 -86h-600v662h-160v272h160v622h600zM784 326l-2 4q188 0 289 116q103 118 103 338q0 222 -101 338q-102 117 -289 117h-217v-301h328v-272h-328
v-340h217z" />
    <glyph glyph-name="Ntilde" unicode="&#xd1;" horiz-adv-x="1818" 
d="M1286 96v1460h389v-1556h-741l-402 1452v-1452h-391v1556h744zM555 1677h8q3 160 66 244t170 84q45 0 92 -12q33 -8 80 -29q73 -33 129 -33q45 0 78 23q32 23 41 59h122q-3 -163 -63 -246q-62 -86 -170 -86q-38 0 -92 13q-41 10 -86 28q-62 33 -129 33q-44 0 -80 -22
q-34 -21 -43 -56h-123z" />
    <glyph glyph-name="Ograve" unicode="&#xd2;" horiz-adv-x="1740" 
d="M453 72h-7q-180 98 -282 280q-101 180 -101 424q0 241 103 424t283 281t417 98q236 0 416 -98t283 -281q102 -182 102 -424q0 -246 -100 -424q-102 -181 -283 -280q-182 -99 -414 -99q-236 0 -417 99zM1071 336l-2 -4q91 63 139 174q49 113 49 268t-49 268
q-49 112 -139 175q-88 61 -209 61t-209 -61q-87 -61 -137 -175q-49 -113 -49 -266t49 -266q48 -111 139 -174q89 -62 209 -62t209 62zM1083 1661h-372l-402 309h531z" />
    <glyph glyph-name="Oacute" unicode="&#xd3;" horiz-adv-x="1740" 
d="M453 72h-7q-180 98 -282 280q-101 180 -101 424q0 241 103 424t283 281t417 98q236 0 416 -98t283 -281q102 -182 102 -424q0 -246 -100 -424q-102 -181 -283 -280q-182 -99 -414 -99q-236 0 -417 99zM1071 336l-2 -4q91 63 139 174q49 113 49 268t-49 268
q-49 112 -139 175q-88 61 -209 61t-209 -61q-87 -61 -137 -175q-49 -113 -49 -266t49 -266q48 -111 139 -174q89 -62 209 -62t209 62zM1010 1661h-375l244 309h530z" />
    <glyph glyph-name="Ocircumflex" unicode="&#xd4;" horiz-adv-x="1740" 
d="M453 72h-7q-180 98 -282 280q-101 180 -101 424q0 241 103 424t283 281t417 98q236 0 416 -98t283 -281q102 -182 102 -424q0 -246 -100 -424q-102 -181 -283 -280q-182 -99 -414 -99q-236 0 -417 99zM1071 336l-2 -4q91 63 139 174q49 113 49 268t-49 268
q-49 112 -139 175q-88 61 -209 61t-209 -61q-87 -61 -137 -175q-49 -113 -49 -266t49 -266q48 -111 139 -174q89 -62 209 -62t209 62zM1104 1970l264 -309h-344l-164 147l-166 -147h-346l266 309h490z" />
    <glyph glyph-name="Otilde" unicode="&#xd5;" horiz-adv-x="1740" 
d="M453 72h-7q-180 98 -282 280q-101 180 -101 424q0 241 103 424t283 281t417 98q236 0 416 -98t283 -281q102 -182 102 -424q0 -246 -100 -424q-102 -181 -283 -280q-182 -99 -414 -99q-236 0 -417 99zM1071 336l-2 -4q91 63 139 174q49 113 49 268t-49 268
q-49 112 -139 175q-88 61 -209 61t-209 -61q-87 -61 -137 -175q-49 -113 -49 -266t49 -266q48 -111 139 -174q89 -62 209 -62t209 62zM467 1671h8q3 160 66 244t170 84q45 0 92 -12q33 -8 80 -29q73 -33 129 -33q45 0 78 23q31 22 40 59h123q-3 -163 -63 -246
q-62 -86 -170 -86q-38 0 -92 13q-41 10 -86 28q-62 33 -129 33q-42 0 -80 -23q-34 -21 -43 -55h-123z" />
    <glyph glyph-name="Odieresis" unicode="&#xd6;" horiz-adv-x="1740" 
d="M453 72h-7q-180 98 -282 280q-101 180 -101 424q0 241 103 424t283 281t417 98q236 0 416 -98t283 -281q102 -182 102 -424q0 -246 -100 -424q-102 -181 -283 -280q-182 -99 -414 -99q-236 0 -417 99zM1071 336l-2 -4q91 63 139 174q49 113 49 268t-49 268
q-49 112 -139 175q-88 61 -209 61t-209 -61q-87 -61 -137 -175q-49 -113 -49 -266t49 -266q48 -111 139 -174q89 -62 209 -62t209 62zM801 1661h-400v309h400v-309zM1317 1661h-399v309h399v-309z" />
    <glyph glyph-name="multiply" unicode="&#xd7;" horiz-adv-x="1214" 
d="M948 1098l195 -195l-340 -340l340 -342l-195 -194l-340 342l-342 -342l-194 194l342 342l-342 340l194 195l342 -340z" />
    <glyph glyph-name="Oslash" unicode="&#xd8;" horiz-adv-x="1740" 
d="M1825 1556l-289 -305q63 -92 98 -215q33 -115 33 -258q0 -246 -100 -424q-102 -181 -283 -280q-182 -99 -414 -99q-122 0 -233 27q-109 26 -199 80l-76 -80h-450l287 305q-64 94 -99 215q-32 111 -32 258q0 243 102 424q103 183 283 281t417 98q249 0 430 -106l76 79h449
zM485 612l576 613q-89 53 -197 53q-121 0 -209 -61q-87 -61 -137 -175q-49 -113 -49 -266q0 -82 16 -164zM1245 944l-579 -618q91 -54 198 -54q120 0 209 62q91 63 139 174q50 115 50 268q0 75 -17 168z" />
    <glyph glyph-name="Ugrave" unicode="&#xd9;" horiz-adv-x="1591" 
d="M127 623l-4 2v929h391v-970v-4q0 -150 72 -228t209 -78q138 0 209 80q69 78 69 232v970h391v-929q0 -654 -667 -654q-670 0 -670 650zM1016 1665h-373l-401 309h530z" />
    <glyph glyph-name="Uacute" unicode="&#xda;" horiz-adv-x="1591" 
d="M127 623l-4 2v929h391v-970v-4q0 -150 72 -228t209 -78q138 0 209 80q69 78 69 232v970h391v-929q0 -654 -667 -654q-670 0 -670 650zM942 1665h-375l244 309h530z" />
    <glyph glyph-name="Ucircumflex" unicode="&#xdb;" horiz-adv-x="1591" 
d="M127 623l-4 2v929h391v-970v-4q0 -150 72 -228t209 -78q138 0 209 80q69 78 69 232v970h391v-929q0 -654 -667 -654q-670 0 -670 650zM1036 1974l264 -309h-344l-163 147l-166 -147h-346l266 309h489z" />
    <glyph glyph-name="Udieresis" unicode="&#xdc;" horiz-adv-x="1591" 
d="M127 623l-4 2v929h391v-970v-4q0 -150 72 -228t209 -78q138 0 209 80q69 78 69 232v970h391v-929q0 -654 -667 -654q-670 0 -670 650zM733 1665h-399v309h399v-309zM1249 1665h-399v309h399v-309z" />
    <glyph glyph-name="Yacute" unicode="&#xdd;" horiz-adv-x="1480" 
d="M1069 1556h442l-575 -948v-608h-391v608l-576 948h443l329 -579zM891 1667h-375l244 309h530z" />
    <glyph glyph-name="Thorn" unicode="&#xde;" horiz-adv-x="1495" 
d="M780 1325v-2q215 0 359 -63q147 -64 223 -181q76 -116 76 -276q0 -161 -76 -277q-75 -115 -223 -180q-144 -63 -359 -63h-248v-283h-391v1556h391v-231h248zM788 600q120 0 185 53q63 51 63 148q0 96 -63 147q-65 53 -185 53h-256v-401h256z" />
    <glyph glyph-name="germandbls" unicode="&#xdf;" horiz-adv-x="1366" 
d="M1100 760l-4 -4q92 -47 147 -131q55 -85 55 -203q0 -147 -55 -248q-56 -102 -156 -154q-99 -51 -239 -51q-52 0 -135 11q-66 9 -119 30v244q59 -33 127 -33q92 0 141 64t49 172q0 110 -63 170q-64 61 -184 61h-33v252h22q97 0 146 55t49 152q0 85 -45 133q-46 49 -119 49
q-101 0 -147 -67q-45 -65 -45 -181v-1085h-377v1038q0 179 67 301q68 123 197 185q128 61 309 61q169 0 291 -51q123 -51 192 -148q68 -95 68 -221q0 -140 -90 -227q-87 -84 -252 -119q113 -9 203 -55z" />
    <glyph glyph-name="agrave" unicode="&#xe0;" horiz-adv-x="1300" 
d="M948 1092l-8 -2q122 -55 186 -156t64 -240v-4v-692h-373v195q-50 -102 -137 -160q-91 -60 -227 -60q-111 0 -203 47q-91 46 -144 130q-51 80 -51 190q0 176 129 252q130 77 338 98l291 29v8v4q0 75 -43 121q-44 47 -123 47q-72 0 -115 -37q-44 -38 -53 -88h-379
q15 121 88 203q75 84 193 127q119 43 270 43q175 0 297 -55zM715 227l-6 -4q48 39 71 101q25 67 25 143v25l-154 -17q-101 -9 -157 -39t-56 -100q0 -68 45 -107t117 -39q69 0 115 37zM836 1221h-353l-383 327h510z" />
    <glyph glyph-name="aacute" unicode="&#xe1;" horiz-adv-x="1300" 
d="M948 1092l-8 -2q122 -55 186 -156t64 -240v-4v-692h-373v195q-50 -102 -137 -160q-91 -60 -227 -60q-111 0 -203 47q-91 46 -144 130q-51 80 -51 190q0 176 129 252q130 77 338 98l291 29v8v4q0 75 -43 121q-44 47 -123 47q-72 0 -115 -37q-44 -38 -53 -88h-379
q15 121 88 203q75 84 193 127q119 43 270 43q175 0 297 -55zM715 227l-6 -4q48 39 71 101q25 67 25 143v25l-154 -17q-101 -9 -157 -39t-56 -100q0 -68 45 -107t117 -39q69 0 115 37zM788 1221h-354l225 327h510z" />
    <glyph glyph-name="acircumflex" unicode="&#xe2;" horiz-adv-x="1300" 
d="M948 1092l-8 -2q122 -55 186 -156t64 -240v-4v-692h-373v195q-50 -102 -137 -160q-91 -60 -227 -60q-111 0 -203 47q-91 46 -144 130q-51 80 -51 190q0 176 129 252q130 77 338 98l291 29v8v4q0 75 -43 121q-44 47 -123 47q-72 0 -115 -37q-44 -38 -53 -88h-379
q15 121 88 203q75 84 193 127q119 43 270 43q175 0 297 -55zM715 227l-6 -4q48 39 71 101q25 67 25 143v25l-154 -17q-101 -9 -157 -39t-56 -100q0 -68 45 -107t117 -39q69 0 115 37zM868 1548l260 -327h-329l-164 168l-166 -168h-332l262 327h469z" />
    <glyph glyph-name="atilde" unicode="&#xe3;" horiz-adv-x="1300" 
d="M948 1092l-8 -2q122 -55 186 -156t64 -240v-4v-692h-373v195q-50 -102 -137 -160q-91 -60 -227 -60q-111 0 -203 47q-91 46 -144 130q-51 80 -51 190q0 176 129 252q130 77 338 98l291 29v8v4q0 75 -43 121q-44 47 -123 47q-72 0 -115 -37q-44 -38 -53 -88h-379
q15 121 88 203q75 84 193 127q119 43 270 43q175 0 297 -55zM715 227l-6 -4q48 39 71 101q25 67 25 143v25l-154 -17q-101 -9 -157 -39t-56 -100q0 -68 45 -107t117 -39q69 0 115 37zM264 1239v-4q3 161 62 244q60 84 159 84q43 0 86 -15t78 -30q70 -33 123 -33q46 0 76 24
q32 26 41 62h115q-3 -157 -62 -240q-60 -84 -160 -84q-42 0 -86 15t-78 30q-62 33 -122 33q-45 0 -76 -25q-30 -24 -39 -61h-117z" />
    <glyph glyph-name="adieresis" unicode="&#xe4;" horiz-adv-x="1300" 
d="M948 1092l-8 -2q122 -55 186 -156t64 -240v-4v-692h-373v195q-50 -102 -137 -160q-91 -60 -227 -60q-111 0 -203 47q-91 46 -144 130q-51 80 -51 190q0 176 129 252q130 77 338 98l291 29v8v4q0 75 -43 121q-44 47 -123 47q-72 0 -115 -37q-44 -38 -53 -88h-379
q15 121 88 203q75 84 193 127q119 43 270 43q175 0 297 -55zM715 227l-6 -4q48 39 71 101q25 67 25 143v25l-154 -17q-101 -9 -157 -39t-56 -100q0 -68 45 -107t117 -39q69 0 115 37zM571 1237h-387v311h387v-311zM1083 1237h-387v311h387v-311z" />
    <glyph glyph-name="aring" unicode="&#xe5;" horiz-adv-x="1300" 
d="M948 1092l-8 -2q122 -55 186 -156t64 -240v-4v-692h-373v195q-50 -102 -137 -160q-91 -60 -227 -60q-111 0 -203 47q-91 46 -144 130q-51 80 -51 190q0 176 129 252q130 77 338 98l291 29v8v4q0 75 -43 121q-44 47 -123 47q-72 0 -115 -37q-44 -38 -53 -88h-379
q15 121 88 203q75 84 193 127q119 43 270 43q175 0 297 -55zM715 227l-6 -4q48 39 71 101q25 67 25 143v25l-154 -17q-101 -9 -157 -39t-56 -100q0 -68 45 -107t117 -39q69 0 115 37zM502 1247l-2 -2q-62 38 -99 98q-36 59 -36 134q0 74 36 133q37 62 99 96q62 35 133 35
t133 -35q62 -34 96 -96q35 -62 35 -133q0 -69 -35 -131q-34 -62 -96 -99q-61 -37 -133 -37q-70 0 -131 37zM686 1419q23 26 23 56q0 32 -23 55q-22 22 -55 22q-34 0 -56 -22t-22 -55q0 -31 22 -56q21 -24 56 -24q34 0 55 24z" />
    <glyph glyph-name="ae" unicode="&#xe6;" horiz-adv-x="2054" 
d="M1987 446l-789 5q17 -110 72 -168q53 -56 129 -56q69 0 110 27t68 86h379q-59 -177 -205 -268q-148 -92 -358 -92q-153 0 -263 61q-109 60 -174 166q-58 -105 -172 -166q-113 -61 -278 -61q-124 0 -230 47q-101 45 -161 129q-60 85 -60 190q0 188 142 268t385 80h229v41
v4q0 71 -43 117q-42 45 -123 45q-72 0 -115 -37q-44 -38 -53 -88h-379q15 121 88 203q75 84 187 127q113 43 245 43q142 0 242 -47q98 -46 154 -123q66 85 162 127q98 43 229 43q182 0 313 -76q132 -77 203 -215q72 -141 72 -315q0 -45 -6 -97zM1270 848l-2 -4
q-52 -49 -70 -156h399q-12 98 -65 154q-52 55 -133 55q-77 0 -129 -49zM750 281v2q53 56 59 163h-156q-213 0 -213 -108q0 -52 43 -82q45 -31 113 -31q101 0 154 56z" />
    <glyph glyph-name="ccedilla" unicode="&#xe7;" horiz-adv-x="1280" 
d="M1239 414v-19q-21 -132 -92 -227q-71 -96 -182 -148q-110 -52 -248 -61v-37q77 -9 123 -55q47 -47 47 -117q0 -83 -62 -133q-61 -49 -161 -49h-164v156h90q63 0 63 47q0 21 -16 34t-43 13h-57v155q-135 23 -248 103q-107 76 -166 200q-57 120 -57 277q0 174 77 307
t213 207t308 74q151 0 274 -54q121 -53 197 -151q77 -100 98 -236h-379q-18 87 -68 140t-124 53q-103 0 -158 -88t-55 -246q0 -163 55 -248q56 -86 158 -86q149 0 196 189h381z" />
    <glyph glyph-name="egrave" unicode="&#xe8;" horiz-adv-x="1298" 
d="M1231 446l-782 -2q18 -112 71 -168q52 -55 133 -55q71 0 111 27q39 26 67 86h379q-59 -178 -204 -268q-149 -93 -359 -93q-174 0 -307 74q-134 74 -207 209q-74 136 -74 307q0 172 74 305q74 134 209 207q136 74 307 74q183 0 314 -76t202 -215q72 -141 72 -315
q0 -45 -6 -97zM522 842l-4 -4q-55 -51 -72 -156h400q-12 97 -66 154q-52 55 -129 55t-129 -49zM846 1221h-352l-383 327h510z" />
    <glyph glyph-name="eacute" unicode="&#xe9;" horiz-adv-x="1298" 
d="M1231 446l-782 -2q18 -112 71 -168q52 -55 133 -55q71 0 111 27q39 26 67 86h379q-59 -178 -204 -268q-149 -93 -359 -93q-174 0 -307 74q-134 74 -207 209q-74 136 -74 307q0 172 74 305q74 134 209 207q136 74 307 74q183 0 314 -76t202 -215q72 -141 72 -315
q0 -45 -6 -97zM522 842l-4 -4q-55 -51 -72 -156h400q-12 97 -66 154q-52 55 -129 55t-129 -49zM801 1221h-355l226 327h510z" />
    <glyph glyph-name="ecircumflex" unicode="&#xea;" horiz-adv-x="1298" 
d="M1231 446l-782 -2q18 -112 71 -168q52 -55 133 -55q71 0 111 27q39 26 67 86h379q-59 -178 -204 -268q-149 -93 -359 -93q-174 0 -307 74q-134 74 -207 209q-74 136 -74 307q0 172 74 305q74 134 209 207q136 74 307 74q183 0 314 -76t202 -215q72 -141 72 -315
q0 -45 -6 -97zM522 842l-4 -4q-55 -51 -72 -156h400q-12 97 -66 154q-52 55 -129 55t-129 -49zM881 1548l260 -327h-330l-164 168l-166 -168h-331l262 327h469z" />
    <glyph glyph-name="edieresis" unicode="&#xeb;" horiz-adv-x="1298" 
d="M1231 446l-782 -2q18 -112 71 -168q52 -55 133 -55q71 0 111 27q39 26 67 86h379q-59 -178 -204 -268q-149 -93 -359 -93q-174 0 -307 74q-134 74 -207 209q-74 136 -74 307q0 172 74 305q74 134 209 207q136 74 307 74q183 0 314 -76t202 -215q72 -141 72 -315
q0 -45 -6 -97zM522 842l-4 -4q-55 -51 -72 -156h400q-12 97 -66 154q-52 55 -129 55t-129 -49zM584 1237h-387v311h387v-311zM1096 1237h-387v311h387v-311z" />
    <glyph glyph-name="igrave" unicode="&#xec;" horiz-adv-x="610" 
d="M496 0h-379v1120h379v-1120zM477 1229h-352l-383 327h510z" />
    <glyph glyph-name="iacute" unicode="&#xed;" horiz-adv-x="610" 
d="M496 0h-379v1120h379v-1120zM487 1229h-354l225 327h510z" />
    <glyph glyph-name="icircumflex" unicode="&#xee;" horiz-adv-x="610" 
d="M496 0h-379v1120h379v-1120zM539 1556l260 -327h-330l-164 168l-166 -168h-332l263 327h469z" />
    <glyph glyph-name="idieresis" unicode="&#xef;" horiz-adv-x="610" 
d="M496 0h-379v1120h379v-1120zM242 1245h-387v311h387v-311zM754 1245h-387v311h387v-311z" />
    <glyph glyph-name="eth" unicode="&#xf0;" horiz-adv-x="1347" 
d="M1008 1333l-2 4q135 -144 202 -315q68 -174 68 -401q0 -202 -74 -347t-211 -221t-325 -76q-183 0 -322 74q-136 72 -211 207q-74 133 -74 301q0 166 62 293q62 128 170 195q107 67 235 67q126 0 209 -74q85 -76 127 -180q-16 94 -63 184q-52 99 -135 191l-254 -74
l-50 168l154 43q-125 101 -289 184h529q76 -58 104 -83l242 69l49 -168zM831 311v-6q56 83 56 234q0 154 -56 237q-57 84 -163 84q-107 0 -164 -84q-55 -82 -55 -233q0 -152 55 -234t164 -82q106 0 163 84z" />
    <glyph glyph-name="ntilde" unicode="&#xf1;" horiz-adv-x="1318" 
d="M1126 1030l4 -2q87 -119 87 -315v-4v-713h-379v622v5q0 132 -43 196t-129 64t-129 -64t-43 -198v-623h-379v1120h372v-233q46 118 136 190t227 72q190 0 276 -117zM319 1243v-4q3 161 62 244q60 84 160 84q43 0 86 -15t78 -30q70 -33 122 -33q46 0 76 24q32 26 41 62h115
q-3 -157 -62 -240q-60 -84 -159 -84q-42 0 -86 15t-78 30q-62 33 -123 33q-46 0 -76 -24t-39 -62h-117z" />
    <glyph glyph-name="ograve" unicode="&#xf2;" horiz-adv-x="1333" 
d="M346 47v-2q-136 72 -211 207q-74 133 -74 301q0 169 74 305t211 209q139 74 322 74q182 0 321 -74q137 -73 211 -209t74 -303q0 -168 -74 -301q-75 -135 -211 -207q-139 -74 -321 -74q-183 0 -322 74zM831 309v-2q56 89 56 246q0 159 -56 248q-55 88 -163 88
q-109 0 -164 -88t-55 -246t55 -246t164 -88q108 0 163 88zM866 1223h-352l-383 327h510z" />
    <glyph glyph-name="oacute" unicode="&#xf3;" horiz-adv-x="1333" 
d="M346 47v-2q-136 72 -211 207q-74 133 -74 301q0 169 74 305t211 209q139 74 322 74q182 0 321 -74q137 -73 211 -209t74 -303q0 -168 -74 -301q-75 -135 -211 -207q-139 -74 -321 -74q-183 0 -322 74zM831 309v-2q56 89 56 246q0 159 -56 248q-55 88 -163 88
q-109 0 -164 -88t-55 -246t55 -246t164 -88q108 0 163 88zM821 1223h-354l225 327h510z" />
    <glyph glyph-name="ocircumflex" unicode="&#xf4;" horiz-adv-x="1333" 
d="M346 47v-2q-136 72 -211 207q-74 133 -74 301q0 169 74 305t211 209q139 74 322 74q182 0 321 -74q137 -73 211 -209t74 -303q0 -168 -74 -301q-75 -135 -211 -207q-139 -74 -321 -74q-183 0 -322 74zM831 309v-2q56 89 56 246q0 159 -56 248q-55 88 -163 88
q-109 0 -164 -88t-55 -246t55 -246t164 -88q108 0 163 88zM901 1550l260 -327h-330l-163 168l-166 -168h-332l262 327h469z" />
    <glyph glyph-name="otilde" unicode="&#xf5;" horiz-adv-x="1333" 
d="M346 47v-2q-136 72 -211 207q-74 133 -74 301q0 169 74 305t211 209q139 74 322 74q182 0 321 -74q137 -73 211 -209t74 -303q0 -168 -74 -301q-75 -135 -211 -207q-139 -74 -321 -74q-183 0 -322 74zM831 309v-2q56 89 56 246q0 159 -56 248q-55 88 -163 88
q-109 0 -164 -88t-55 -246t55 -246t164 -88q108 0 163 88zM297 1241v-4q3 162 61 244q60 84 160 84q42 0 86 -15t78 -30q70 -33 123 -33q46 0 76 24q32 26 41 62h114q-3 -158 -61 -240q-60 -84 -160 -84q-43 0 -86 15t-78 30q-62 33 -123 33q-45 0 -75 -24t-39 -62h-117z
" />
    <glyph glyph-name="odieresis" unicode="&#xf6;" horiz-adv-x="1333" 
d="M346 47v-2q-136 72 -211 207q-74 133 -74 301q0 169 74 305t211 209q139 74 322 74q182 0 321 -74q137 -73 211 -209t74 -303q0 -168 -74 -301q-75 -135 -211 -207q-139 -74 -321 -74q-183 0 -322 74zM831 309v-2q56 89 56 246q0 159 -56 248q-55 88 -163 88
q-109 0 -164 -88t-55 -246t55 -246t164 -88q108 0 163 88zM604 1239h-387v311h387v-311zM1116 1239h-387v311h387v-311z" />
    <glyph glyph-name="divide" unicode="&#xf7;" horiz-adv-x="1310" 
d="M821 827h-332v293h332v-293zM1214 422h-1120v285h1120v-285zM821 0h-332v293h332v-293z" />
    <glyph glyph-name="oslash" unicode="&#xf8;" horiz-adv-x="1333" 
d="M1382 1120l-211 -219q99 -150 99 -346q0 -168 -74 -301q-75 -135 -211 -207q-139 -74 -321 -74q-181 0 -320 74l-45 -47h-352l209 217q-48 73 -72 158q-25 89 -25 184q0 169 74 305t211 209q139 74 322 74q180 0 319 -74l45 47h352zM444 512l328 342q-47 35 -110 35
q-109 0 -164 -88q-56 -89 -56 -246q0 -33 2 -43zM877 598l-332 -344q47 -35 114 -35q109 0 164 88q56 89 56 246q0 35 -2 45z" />
    <glyph glyph-name="ugrave" unicode="&#xf9;" horiz-adv-x="1312" 
d="M817 1120l379 -6v-1120h-373v217q-89 -244 -356 -244q-189 0 -274 117q-87 119 -87 315v4v713h379v-622v-5q0 -130 41 -192q40 -61 123 -61q86 0 127 65t41 197v622zM850 1223h-352l-383 327h510z" />
    <glyph glyph-name="uacute" unicode="&#xfa;" horiz-adv-x="1312" 
d="M817 1120l379 -6v-1120h-373v217q-89 -244 -356 -244q-189 0 -274 117q-87 119 -87 315v4v713h379v-622v-5q0 -130 41 -192q40 -61 123 -61q86 0 127 65t41 197v622zM805 1223h-354l225 327h510z" />
    <glyph glyph-name="ucircumflex" unicode="&#xfb;" horiz-adv-x="1312" 
d="M817 1120l379 -6v-1120h-373v217q-89 -244 -356 -244q-189 0 -274 117q-87 119 -87 315v4v713h379v-622v-5q0 -130 41 -192q40 -61 123 -61q86 0 127 65t41 197v622zM885 1550l260 -327h-330l-164 168l-166 -168h-331l262 327h469z" />
    <glyph glyph-name="udieresis" unicode="&#xfc;" horiz-adv-x="1312" 
d="M817 1120l379 -6v-1120h-373v217q-89 -244 -356 -244q-189 0 -274 117q-87 119 -87 315v4v713h379v-622v-5q0 -130 41 -192q40 -61 123 -61q86 0 127 65t41 197v622zM588 1239h-387v311h387v-311zM1100 1239h-387v311h387v-311z" />
    <glyph glyph-name="yacute" unicode="&#xfd;" horiz-adv-x="1280" 
d="M631 209l233 911h400l-402 -1521h-387l131 512h-305l-295 1009h377zM776 1229h-354l225 327h510z" />
    <glyph glyph-name="thorn" unicode="&#xfe;" horiz-adv-x="1368" 
d="M1085 1069l2 -2q105 -76 160 -211q56 -136 56 -301q0 -166 -56 -299t-160 -209t-241 -76q-124 0 -221 66q-95 65 -138 172v-612h-372v1957h372v-675q41 114 131 190q91 76 228 76q135 0 239 -76zM860 309v-2q55 88 55 246q0 160 -55 248t-164 88t-164 -88t-55 -246
t55 -246t164 -88t164 88z" />
    <glyph glyph-name="ydieresis" unicode="&#xff;" horiz-adv-x="1280" 
d="M631 209l233 911h400l-402 -1521h-387l131 512h-305l-295 1009h377zM559 1245h-387v311h387v-311zM1071 1245h-387v311h387v-311z" />
    <glyph glyph-name="Amacron" unicode="&#x100;" horiz-adv-x="1660" 
d="M1667 0h-410l-114 389h-627l-115 -389h-407l491 1556h691zM829 1456l-219 -745h439zM1278 1690h-897v266h897v-266z" />
    <glyph glyph-name="amacron" unicode="&#x101;" horiz-adv-x="1300" 
d="M948 1092l-8 -2q122 -55 186 -156t64 -240v-4v-692h-373v195q-50 -102 -137 -160q-91 -60 -227 -60q-111 0 -203 47q-91 46 -144 130q-51 80 -51 190q0 176 129 252q130 77 338 98l291 29v8v4q0 75 -43 121q-44 47 -123 47q-72 0 -115 -37q-44 -38 -53 -88h-379
q15 121 88 203q75 84 193 127q119 43 270 43q175 0 297 -55zM715 227l-6 -4q48 39 71 101q25 67 25 143v25l-154 -17q-101 -9 -157 -39t-56 -100q0 -68 45 -107t117 -39q69 0 115 37zM1044 1251h-823v260h823v-260z" />
    <glyph glyph-name="Abreve" unicode="&#x102;" horiz-adv-x="1660" 
d="M1667 0h-410l-114 389h-627l-115 -389h-407l491 1556h691zM829 1456l-219 -745h439zM610 1704l6 -2q-96 41 -147 110q-51 68 -51 160h262q3 -47 47 -74q45 -28 109 -28q63 0 108 28q44 27 47 74h260q0 -92 -51 -160q-51 -69 -147 -110q-91 -39 -222 -39q-125 0 -221 41z
" />
    <glyph glyph-name="abreve" unicode="&#x103;" horiz-adv-x="1300" 
d="M948 1092l-8 -2q122 -55 186 -156t64 -240v-4v-692h-373v195q-50 -102 -137 -160q-91 -60 -227 -60q-111 0 -203 47q-91 46 -144 130q-51 80 -51 190q0 176 129 252q130 77 338 98l291 29v8v4q0 75 -43 121q-44 47 -123 47q-72 0 -115 -37q-44 -38 -53 -88h-379
q15 121 88 203q75 84 193 127q119 43 270 43q175 0 297 -55zM715 227l-6 -4q48 39 71 101q25 67 25 143v25l-154 -17q-101 -9 -157 -39t-56 -100q0 -68 45 -107t117 -39q69 0 115 37zM424 1257q-90 46 -143 123q-52 76 -52 170h265q0 -61 36 -90q38 -30 103 -30q67 0 104 30
t37 92h264q0 -96 -49 -172t-141 -123q-89 -45 -213 -45q-122 0 -211 45z" />
    <glyph glyph-name="Aogonek" unicode="&#x104;" horiz-adv-x="1660" 
d="M1593 -176l72 -2v-244h-127q-379 0 -379 215q0 57 25 109q22 46 71 98l-114 389h-627l-115 -389h-407l491 1556h691l491 -1556q-88 -23 -131 -55q-39 -29 -39 -66q0 -55 98 -55zM827 1454l-219 -745h439z" />
    <glyph glyph-name="aogonek" unicode="&#x105;" horiz-adv-x="1300" 
d="M1044 -170l-12 -6q27 -12 80 -12h76v-238h-129q-189 0 -281 51q-96 53 -96 160q0 60 35 113q34 52 98 98v194q-49 -101 -137 -159q-91 -60 -227 -60q-111 0 -203 47q-92 46 -144 129q-51 80 -51 191q0 176 129 252q130 77 338 98l291 29v8v4q0 75 -43 121q-44 47 -123 47
q-72 0 -115 -37q-44 -38 -53 -88h-379q15 121 88 203q75 84 193 127q119 43 270 43q175 0 297 -55q124 -56 187 -156t63 -240v-4v-692h2q-93 -27 -137 -57q-43 -30 -43 -68q0 -31 26 -43zM713 223l-6 -4q48 39 71 100q25 67 25 144v24l-154 -16q-101 -9 -157 -39t-56 -100
q0 -68 45 -107t117 -39q69 0 115 37z" />
    <glyph glyph-name="Cacute" unicode="&#x106;" horiz-adv-x="1654" 
d="M453 70l-7 -7q-177 98 -280 281t-103 428t103 428t280 281t400 98q191 0 348 -68t264 -196t148 -311h-408q-92 270 -352 270q-113 0 -199 -62q-88 -63 -133 -174q-47 -115 -47 -266q0 -153 49 -266q49 -112 135 -174t201 -62q132 0 225 72q93 71 133 203h408
q-70 -292 -272 -432q-204 -142 -492 -142q-222 0 -401 99zM995 1659h-374l243 309h531z" />
    <glyph glyph-name="cacute" unicode="&#x107;" horiz-adv-x="1280" 
d="M348 45l4 -12q-134 73 -211 209q-75 132 -75 309q0 174 77 307t213 207t308 74q151 0 274 -54q121 -53 197 -151q77 -100 98 -236h-379q-18 87 -68 140t-124 53q-103 0 -158 -88t-55 -246q0 -163 55 -248q56 -86 158 -86q149 0 196 189h381q-24 -140 -104 -240
q-76 -95 -203 -149q-122 -52 -273 -52q-175 0 -311 74zM817 1214h-354l225 328h510z" />
    <glyph glyph-name="Ccircumflex" unicode="&#x108;" horiz-adv-x="1654" 
d="M453 70l-7 -7q-177 98 -280 281t-103 428t103 428t280 281t400 98q191 0 348 -68t264 -196t148 -311h-408q-92 270 -352 270q-113 0 -199 -62q-88 -63 -133 -174q-47 -115 -47 -266q0 -153 49 -266q49 -112 135 -174t201 -62q132 0 225 72q93 71 133 203h408
q-70 -292 -272 -432q-204 -142 -492 -142q-222 0 -401 99zM1090 1968l264 -309h-344l-164 147l-166 -147h-346l266 309h490z" />
    <glyph glyph-name="ccircumflex" unicode="&#x109;" horiz-adv-x="1280" 
d="M348 45l4 -12q-134 73 -211 209q-75 132 -75 309q0 174 77 307t213 207t308 74q151 0 274 -54q121 -53 197 -151q77 -100 98 -236h-379q-18 87 -68 140t-124 53q-103 0 -158 -88t-55 -246q0 -163 55 -248q56 -86 158 -86q149 0 196 189h381q-24 -140 -104 -240
q-76 -95 -203 -149q-122 -52 -273 -52q-175 0 -311 74zM897 1542l260 -328h-330l-163 168l-166 -168h-332l262 328h469z" />
    <glyph glyph-name="Cdotaccent" unicode="&#x10a;" horiz-adv-x="1654" 
d="M453 70l-7 -7q-177 98 -280 281t-103 428t103 428t280 281t400 98q191 0 348 -68t264 -196t148 -311h-408q-92 270 -352 270q-113 0 -199 -62q-88 -63 -133 -174q-47 -115 -47 -266q0 -153 49 -266q49 -112 135 -174t201 -62q132 0 225 72q93 71 133 203h408
q-70 -292 -272 -432q-204 -142 -492 -142q-222 0 -401 99zM1044 1659h-399v309h399v-309z" />
    <glyph glyph-name="cdotaccent" unicode="&#x10b;" horiz-adv-x="1280" 
d="M348 45l4 -12q-134 73 -211 209q-75 132 -75 309q0 174 77 307t213 207t308 74q151 0 274 -54q121 -53 197 -151q77 -100 98 -236h-379q-18 87 -68 140t-124 53q-103 0 -158 -88t-55 -246q0 -163 55 -248q56 -86 158 -86q149 0 196 189h381q-24 -140 -104 -240
q-76 -95 -203 -149q-122 -52 -273 -52q-175 0 -311 74zM856 1231h-387v311h387v-311z" />
    <glyph glyph-name="Ccaron" unicode="&#x10c;" horiz-adv-x="1654" 
d="M453 70l-7 -7q-177 98 -280 281t-103 428t103 428t280 281t400 98q191 0 348 -68t264 -196t148 -311h-408q-92 270 -352 270q-113 0 -199 -62q-88 -63 -133 -174q-47 -115 -47 -266q0 -153 49 -266q49 -112 135 -174t201 -62q132 0 225 72q93 71 133 203h408
q-70 -292 -272 -432q-204 -142 -492 -142q-222 0 -401 99zM846 1821l164 147h344l-264 -309h-490l-266 309h346z" />
    <glyph glyph-name="ccaron" unicode="&#x10d;" horiz-adv-x="1280" 
d="M348 45l4 -12q-134 73 -211 209q-75 132 -75 309q0 174 77 307t213 207t308 74q151 0 274 -54q121 -53 197 -151q77 -100 98 -236h-379q-18 87 -68 140t-124 53q-103 0 -158 -88t-55 -246q0 -163 55 -248q56 -86 158 -86q149 0 196 189h381q-24 -140 -104 -240
q-76 -95 -203 -149q-122 -52 -273 -52q-175 0 -311 74zM664 1374l163 168h330l-260 -328h-469l-262 328h332z" />
    <glyph glyph-name="Dcaron" unicode="&#x10e;" horiz-adv-x="1617" 
d="M741 1556l-2 5q239 0 424 -84q182 -83 281 -258q98 -174 98 -437q0 -262 -98 -436q-99 -175 -279 -260q-183 -86 -424 -86h-600v1556h600zM748 326v4q187 0 288 116q103 118 103 338t-103 338q-102 117 -288 117h-218v-913h218zM739 1837l164 148h344l-264 -310h-489
l-267 310h346z" />
    <glyph glyph-name="dcaron" unicode="&#x10f;" horiz-adv-x="1368" 
d="M879 1556l370 3v-1557h-372v211q-43 -107 -138 -172q-97 -66 -221 -66q-135 0 -242 78q-103 75 -159 209q-56 133 -56 299q0 165 56 301t159 211q107 78 242 78q91 0 164 -37q75 -38 123 -98q50 -63 74 -135v675zM831 315l-2 -2q56 89 56 246t-56 246q-56 90 -161 90
q-109 0 -164 -88t-55 -246t55 -246t164 -88q108 0 163 88zM1604 1174h-265l29 382h332z" />
    <glyph glyph-name="Dcroat" unicode="&#x110;" horiz-adv-x="1654" 
d="M778 1556l-2 5q240 0 422 -84q179 -83 281 -258q100 -172 100 -437q0 -264 -100 -436q-102 -175 -279 -260q-180 -86 -422 -86h-600v662h-160v272h160v622h600zM784 326l-2 4q188 0 289 116q103 118 103 338q0 222 -101 338q-102 117 -289 117h-217v-301h328v-272h-328
v-340h217z" />
    <glyph glyph-name="dcroat" unicode="&#x111;" horiz-adv-x="1368" 
d="M1362 1442l-2 -230h-111v-1210h-372v211q-43 -107 -138 -172q-97 -66 -221 -66q-135 0 -242 78q-103 75 -159 209q-56 133 -56 299q0 165 56 301t159 211q107 78 242 78q91 0 164 -37q75 -38 123 -98q50 -63 74 -135v329h-195v232h195v114h372v-114h111zM831 315l-2 -2
q56 89 56 246t-56 246q-56 90 -161 90q-109 0 -164 -88t-55 -246t55 -246t164 -88q108 0 163 88z" />
    <glyph glyph-name="Emacron" unicode="&#x112;" horiz-adv-x="1361" 
d="M532 635v-313h736v-322h-1127v1556h1108v-321h-717v-279h703v-321h-703zM1143 1690h-897v266h897v-266z" />
    <glyph glyph-name="emacron" unicode="&#x113;" horiz-adv-x="1298" 
d="M1231 446l-782 -2q18 -112 71 -168q52 -55 133 -55q71 0 111 27q39 26 67 86h379q-59 -178 -204 -268q-149 -93 -359 -93q-174 0 -307 74q-134 74 -207 209q-74 136 -74 307q0 172 74 305q74 134 209 207q136 74 307 74q183 0 314 -76t202 -215q72 -141 72 -315
q0 -45 -6 -97zM522 842l-4 -4q-55 -51 -72 -156h400q-12 97 -66 154q-52 55 -129 55t-129 -49zM1057 1251h-824v260h824v-260z" />
    <glyph glyph-name="Ebreve" unicode="&#x114;" horiz-adv-x="1361" 
d="M532 635v-313h736v-322h-1127v1556h1108v-321h-717v-279h703v-321h-703zM477 1704l6 -2q-96 41 -147 110q-51 68 -51 160h262q3 -47 47 -74q45 -28 108 -28q64 0 109 28q44 27 47 74h260q0 -92 -51 -160q-51 -69 -147 -110q-91 -39 -222 -39q-125 0 -221 41z" />
    <glyph glyph-name="ebreve" unicode="&#x115;" horiz-adv-x="1298" 
d="M1231 446l-782 -2q18 -112 71 -168q52 -55 133 -55q71 0 111 27q39 26 67 86h379q-59 -178 -204 -268q-149 -93 -359 -93q-174 0 -307 74q-134 74 -207 209q-74 136 -74 307q0 172 74 305q74 134 209 207q136 74 307 74q183 0 314 -76t202 -215q72 -141 72 -315
q0 -45 -6 -97zM522 842l-4 -4q-55 -51 -72 -156h400q-12 97 -66 154q-52 55 -129 55t-129 -49zM434 1257q-90 46 -143 123q-51 74 -51 170h264q0 -60 37 -90t102 -30q67 0 105 30q36 29 36 92h265q0 -95 -50 -172q-49 -76 -141 -123q-89 -45 -213 -45q-122 0 -211 45z" />
    <glyph glyph-name="Edotaccent" unicode="&#x116;" horiz-adv-x="1361" 
d="M532 635v-313h736v-322h-1127v1556h1108v-321h-717v-279h703v-321h-703zM895 1667h-399v309h399v-309z" />
    <glyph glyph-name="edotaccent" unicode="&#x117;" horiz-adv-x="1298" 
d="M1231 446l-782 -2q18 -112 71 -168q52 -55 133 -55q71 0 111 27q39 26 67 86h379q-59 -178 -204 -268q-149 -93 -359 -93q-174 0 -307 74q-134 74 -207 209q-74 136 -74 307q0 172 74 305q74 134 209 207q136 74 307 74q183 0 314 -76t202 -215q72 -141 72 -315
q0 -45 -6 -97zM522 842l-4 -4q-55 -51 -72 -156h400q-12 97 -66 154q-52 55 -129 55t-129 -49zM840 1237h-387v311h387v-311z" />
    <glyph glyph-name="Eogonek" unicode="&#x118;" horiz-adv-x="1361" 
d="M1268 0v-2q-174 -46 -174 -121q0 -55 98 -55h76v-244h-127q-187 0 -283 51q-98 52 -98 160q0 68 45 125q47 59 129 86h-793v1556h1108v-321h-717v-279h703v-321h-703v-313h736v-322z" />
    <glyph glyph-name="eogonek" unicode="&#x119;" horiz-adv-x="1298" 
d="M1231 446l-782 -4q18 -112 71 -168q52 -55 133 -55q71 0 111 27q39 26 67 86h379q-53 -158 -174 -248h2q-157 -121 -157 -203q0 -35 26 -49q25 -14 82 -14h76v-238h-129q-377 0 -377 209q0 50 31 98q28 44 86 86h-29q-174 0 -307 74q-134 74 -207 209q-74 136 -74 307
q0 172 74 305q74 134 209 207q136 74 307 74q183 0 314 -76t202 -215q72 -141 72 -315q0 -45 -6 -97zM522 840l-4 -4q-55 -51 -72 -156h400q-12 97 -66 154q-52 55 -129 55t-129 -49z" />
    <glyph glyph-name="Ecaron" unicode="&#x11a;" horiz-adv-x="1361" 
d="M532 635v-313h736v-322h-1127v1556h1108v-321h-717v-279h703v-321h-703zM696 1829l164 147h344l-264 -309h-489l-267 309h346z" />
    <glyph glyph-name="ecaron" unicode="&#x11b;" horiz-adv-x="1298" 
d="M1231 446l-782 -2q18 -112 71 -168q52 -55 133 -55q71 0 111 27q39 26 67 86h379q-59 -178 -204 -268q-149 -93 -359 -93q-174 0 -307 74q-134 74 -207 209q-74 136 -74 307q0 172 74 305q74 134 209 207q136 74 307 74q183 0 314 -76t202 -215q72 -141 72 -315
q0 -45 -6 -97zM522 842l-4 -4q-55 -51 -72 -156h400q-12 97 -66 154q-52 55 -129 55t-129 -49zM647 1380l164 168h330l-260 -327h-469l-262 327h331z" />
    <glyph glyph-name="Gcircumflex" unicode="&#x11c;" horiz-adv-x="1746" 
d="M801 905l841 4v-905h-319v358q-55 -165 -178 -276t-344 -111q-181 0 -352 97q-166 94 -271 276q-104 180 -104 430t100 428q103 183 283 281t417 98q295 0 484 -131q190 -132 264 -387h-408q-89 215 -342 215q-120 0 -208 -61q-89 -62 -138 -174q-49 -113 -49 -271
q0 -153 49 -266q48 -111 142 -174q92 -62 217 -62q108 0 192 41q82 40 129 115q46 73 49 174h-454v301zM1116 1980l264 -309h-344l-164 148l-165 -148h-347l267 309h489z" />
    <glyph glyph-name="gcircumflex" unicode="&#x11d;" horiz-adv-x="1368" 
d="M885 1120l370 -6v-1083q0 -166 -84 -273q-80 -102 -213 -147q-128 -43 -274 -43q-144 0 -262 39q-122 40 -205 123t-98 209h379q18 -59 67 -89t121 -30q89 0 143 51q56 53 56 154v227q-43 -107 -137 -174q-95 -68 -224 -68q-134 0 -241 72q-103 69 -160 201
q-55 128 -55 295q0 166 55 294q57 132 160 201q107 72 241 72q139 0 230 -76t131 -192v243zM838 342q55 82 55 233q0 152 -55 234t-164 82t-164 -82t-55 -234q0 -151 55 -233t164 -82t164 82zM922 1550l260 -327h-330l-164 168l-166 -168h-332l263 327h469z" />
    <glyph glyph-name="Gbreve" unicode="&#x11e;" horiz-adv-x="1746" 
d="M801 905l841 4v-905h-319v358q-55 -165 -178 -276t-344 -111q-181 0 -352 97q-166 94 -271 276q-104 180 -104 430t100 428q103 183 283 281t417 98q295 0 484 -131q190 -132 264 -387h-408q-89 215 -342 215q-120 0 -208 -61q-89 -62 -138 -174q-49 -113 -49 -271
q0 -153 49 -266q48 -111 142 -174q92 -62 217 -62q108 0 192 41q82 40 129 115q46 73 49 174h-454v301zM651 1708l6 -2q-95 40 -147 111q-51 68 -51 159h262q3 -46 47 -73q47 -29 109 -29q61 0 108 29q44 27 47 73h260q0 -91 -51 -159q-53 -71 -147 -111q-91 -39 -222 -39
q-125 0 -221 41z" />
    <glyph glyph-name="gbreve" unicode="&#x11f;" horiz-adv-x="1368" 
d="M885 1120l370 -6v-1083q0 -166 -84 -273q-80 -102 -213 -147q-128 -43 -274 -43q-144 0 -262 39q-122 40 -205 123t-98 209h379q18 -59 67 -89t121 -30q89 0 143 51q56 53 56 154v227q-43 -107 -137 -174q-95 -68 -224 -68q-134 0 -241 72q-103 69 -160 201
q-55 128 -55 295q0 166 55 294q57 132 160 201q107 72 241 72q139 0 230 -76t131 -192v243zM838 342q55 82 55 233q0 152 -55 234t-164 82t-164 -82t-55 -234q0 -151 55 -233t164 -82t164 82zM477 1260q-91 46 -143 122q-51 74 -51 170h264q0 -60 37 -90q38 -30 102 -30
q68 0 105 30q36 29 36 92h265q0 -95 -50 -172q-49 -75 -141 -122q-91 -46 -213 -46q-120 0 -211 46z" />
    <glyph glyph-name="Gdotaccent" unicode="&#x120;" horiz-adv-x="1746" 
d="M801 905l841 4v-905h-319v358q-55 -165 -178 -276t-344 -111q-181 0 -352 97q-166 94 -271 276q-104 180 -104 430t100 428q103 183 283 281t417 98q295 0 484 -131q190 -132 264 -387h-408q-89 215 -342 215q-120 0 -208 -61q-89 -62 -138 -174q-49 -113 -49 -271
q0 -153 49 -266q48 -111 142 -174q92 -62 217 -62q108 0 192 41q82 40 129 115q46 73 49 174h-454v301zM1069 1671h-399v309h399v-309z" />
    <glyph glyph-name="gdotaccent" unicode="&#x121;" horiz-adv-x="1368" 
d="M885 1120l370 -6v-1083q0 -166 -84 -273q-80 -102 -213 -147q-128 -43 -274 -43q-144 0 -262 39q-122 40 -205 123t-98 209h379q18 -59 67 -89t121 -30q89 0 143 51q56 53 56 154v227q-43 -107 -137 -174q-95 -68 -224 -68q-134 0 -241 72q-103 69 -160 201
q-55 128 -55 295q0 166 55 294q57 132 160 201q107 72 241 72q139 0 230 -76t131 -192v243zM838 342q55 82 55 233q0 152 -55 234t-164 82t-164 -82t-55 -234q0 -151 55 -233t164 -82t164 82zM881 1239h-387v311h387v-311z" />
    <glyph glyph-name="uni0122" unicode="&#x122;" horiz-adv-x="1746" 
d="M801 905l841 4v-905h-319v358q-55 -165 -178 -276t-344 -111q-181 0 -352 97q-166 94 -271 276q-104 180 -104 430t100 428q103 183 283 281t417 98q295 0 484 -131q190 -132 264 -387h-408q-89 215 -342 215q-120 0 -208 -61q-89 -62 -138 -174q-49 -113 -49 -271
q0 -153 49 -266q48 -111 142 -174q92 -62 217 -62q108 0 192 41q82 40 129 115q46 73 49 174h-454v301zM666 -418v312h399v-345l-154 -200h-243l125 233h-127z" />
    <glyph glyph-name="uni0123" unicode="&#x123;" horiz-adv-x="1368" 
d="M885 1120l370 -6v-1083q0 -166 -84 -273q-80 -102 -213 -147q-128 -43 -274 -43q-144 0 -262 39q-122 40 -205 123t-98 209h379q18 -59 67 -89t121 -30q89 0 143 51q56 53 56 154v227q-43 -107 -137 -174q-95 -68 -224 -68q-134 0 -241 72q-103 69 -160 201
q-55 128 -55 295q0 166 55 294q57 132 160 201q107 72 241 72q139 0 230 -76t131 -192v243zM838 342q55 82 55 233q0 152 -55 234t-164 82t-164 -82t-55 -234q0 -151 55 -233t164 -82t164 82zM879 1794l-125 -233h127v-312h-387v344l153 201h232z" />
    <glyph glyph-name="Hcircumflex" unicode="&#x124;" horiz-adv-x="1634" 
d="M1100 971v585h391v-1556h-391v616h-568v-616h-391v1556h391v-585h568zM1061 1976l264 -309h-344l-164 148l-166 -148h-346l266 309h490z" />
    <glyph glyph-name="hcircumflex" unicode="&#x125;" horiz-adv-x="1318" 
d="M1126 1030l4 -2q87 -119 87 -315v-4v-713h-379v622v5q0 132 -43 196t-129 64t-129 -64t-43 -198v-623h-379v1556h372v-669q46 118 136 190t227 72q190 0 276 -117zM549 1972l264 -309h-344l-164 147l-166 -147h-346l266 309h490z" />
    <glyph glyph-name="Hbar" unicode="&#x126;" horiz-adv-x="1634" 
d="M1491 1364h151v-258h-151v-1106h-391v616h-568v-616h-391v1106h-151v258h151v192h391v-192h568v192h391v-192zM532 971h568v135h-568v-135z" />
    <glyph glyph-name="hbar" unicode="&#x127;" horiz-adv-x="1318" 
d="M1126 1030l4 -2q87 -119 87 -315v-4v-713h-379v622v5q0 132 -43 196t-129 64t-129 -64t-43 -198v-623h-379v1210h-111v232h111v114h372v-114h195v-232h-195v-323q46 118 136 190t227 72q190 0 276 -117z" />
    <glyph glyph-name="Itilde" unicode="&#x128;" horiz-adv-x="675" 
d="M532 0h-391v1556h391v-1556zM-53 1677h8q3 161 65 244q63 84 170 84q46 0 93 -12q30 -8 79 -29q73 -33 130 -33q44 0 77 23q32 23 41 59h123q-3 -163 -63 -246q-62 -86 -170 -86q-38 0 -92 13q-41 10 -86 28q-62 33 -129 33q-44 0 -80 -22q-34 -21 -43 -56h-123z" />
    <glyph glyph-name="itilde" unicode="&#x129;" horiz-adv-x="610" 
d="M496 0h-379v1120h379v-1120zM-66 1247v-4q3 161 62 244q60 84 160 84q42 0 86 -15q39 -13 77 -30q70 -33 123 -33q45 0 76 25q33 26 41 61h115q-3 -157 -62 -240q-60 -84 -159 -84q-43 0 -86 15t-78 30q-62 33 -123 33q-46 0 -76 -24t-39 -62h-117z" />
    <glyph glyph-name="Imacron" unicode="&#x12a;" horiz-adv-x="675" 
d="M532 0h-391v1556h391v-1556zM786 1690h-897v266h897v-266z" />
    <glyph glyph-name="imacron" unicode="&#x12b;" horiz-adv-x="610" 
d="M496 0h-379v1120h379v-1120zM715 1260h-824v260h824v-260z" />
    <glyph glyph-name="Ibreve" unicode="&#x12c;" horiz-adv-x="675" 
d="M532 0h-391v1556h391v-1556zM119 1704l6 -2q-97 42 -148 110t-51 160h262q3 -46 48 -74t108 -28q64 0 109 28q44 27 47 74h260q0 -92 -51 -160t-148 -110q-91 -39 -221 -39q-125 0 -221 41z" />
    <glyph glyph-name="ibreve" unicode="&#x12d;" horiz-adv-x="610" 
d="M496 0h-379v1120h379v-1120zM94 1266q-90 46 -143 123q-51 74 -51 170h264q0 -61 37 -91t102 -30q67 0 105 30q36 29 36 93h265q0 -95 -50 -172q-49 -77 -141 -123q-89 -45 -213 -45q-122 0 -211 45z" />
    <glyph glyph-name="Iogonek" unicode="&#x12e;" horiz-adv-x="675" 
d="M532 0h-391v1556h391v-1556zM406 -420l2 -2q-183 0 -283 53q-98 52 -98 158q0 117 114 211h391q-172 -46 -172 -121q0 -55 99 -55h73v-244h-126z" />
    <glyph glyph-name="iogonek" unicode="&#x12f;" horiz-adv-x="610" 
d="M111 1245v311h387v-311h-387zM117 1120l379 -2v-1120q-94 -27 -138 -57q-43 -30 -43 -68q0 -31 27 -43t80 -12h76v-238h-127q-377 0 -377 209q0 59 31 113q29 50 92 98v1120z" />
    <glyph glyph-name="Idotaccent" unicode="&#x130;" horiz-adv-x="675" 
d="M532 0h-391v1556h391v-1556zM537 1667h-400v309h400v-309z" />
    <glyph glyph-name="dotlessi" unicode="&#x131;" horiz-adv-x="610" 
d="M496 0h-379v1120h379v-1120z" />
    <glyph glyph-name="Jcircumflex" unicode="&#x134;" horiz-adv-x="866" 
d="M35 0v324h162q84 0 114 30q31 31 31 109v1093h391v-1169q0 -387 -434 -387h-264zM782 1978l265 -309h-345l-163 148l-166 -148h-346l266 309h489z" />
    <glyph glyph-name="jcircumflex" unicode="&#x135;" horiz-adv-x="610" 
d="M-63 -401l-5 276h54q67 0 98 25t31 90v1130h379v-1171q0 -114 -52 -193q-50 -76 -145 -118q-88 -39 -211 -39h-149zM535 1559l260 -328h-330l-164 168l-166 -168h-332l263 328h469z" />
    <glyph glyph-name="uni0136" unicode="&#x136;" 
d="M954 815l625 -815h-483l-564 756v-756h-391v1556h391v-686l515 686h469zM610 -422v311h400v-344l-154 -200h-244l125 233h-127z" />
    <glyph glyph-name="uni0137" unicode="&#x137;" horiz-adv-x="1282" 
d="M874 623l424 -623h-446l-360 545v-545h-379v1556h379v-870l346 434h440zM465 -422v311h387v-344l-154 -200h-231l125 233h-127z" />
    <glyph glyph-name="kgreenlandic" unicode="&#x138;" horiz-adv-x="1290" 
d="M872 604l435 -604h-449l-364 522v-522h-377v1120h377v-446l350 446h442z" />
    <glyph glyph-name="Lacute" unicode="&#x139;" horiz-adv-x="1218" 
d="M532 1556v-1234h654v-322h-1045v1556h391zM530 1667h-374l243 309h531z" />
    <glyph glyph-name="lacute" unicode="&#x13a;" horiz-adv-x="610" 
d="M496 0h-379v1556h379v-1556zM508 1667h-375l244 309h530z" />
    <glyph glyph-name="uni013B" unicode="&#x13b;" horiz-adv-x="1218" 
d="M532 1556v-1234h654v-322h-1045v1556h391zM465 -422v311h399v-344l-153 -200h-244l125 233h-127z" />
    <glyph glyph-name="uni013C" unicode="&#x13c;" horiz-adv-x="610" 
d="M496 0h-379v1556h379v-1556zM111 -422v311h387v-344l-154 -200h-231l125 233h-127z" />
    <glyph glyph-name="Lcaron" unicode="&#x13d;" horiz-adv-x="1218" 
d="M532 1556v-1234h654v-322h-1045v1556h391zM944 1042h-266l31 514h344z" />
    <glyph glyph-name="lcaron" unicode="&#x13e;" horiz-adv-x="610" 
d="M496 0h-379v1556h379v-1556zM852 1174h-264l28 382h332z" />
    <glyph glyph-name="Ldot" unicode="&#x13f;" horiz-adv-x="1239" 
d="M532 1556v-1234h654v-322h-1045v1556h391zM1153 735h-395v352h395v-352z" />
    <glyph glyph-name="ldot" unicode="&#x140;" horiz-adv-x="907" 
d="M496 0h-379v1556h379v-1556zM915 631h-315v352h315v-352z" />
    <glyph glyph-name="Lslash" unicode="&#x141;" horiz-adv-x="1273" 
d="M588 709v-387h651v-322h-1042v506l-162 -84v303l162 84v747h391v-546l311 161v-301z" />
    <glyph glyph-name="lslash" unicode="&#x142;" horiz-adv-x="772" 
d="M575 1059l144 88v-313l-144 -89v-745h-378v514l-134 -82v313l134 82v729h378v-497z" />
    <glyph glyph-name="Nacute" unicode="&#x143;" horiz-adv-x="1818" 
d="M1286 96v1460h389v-1556h-741l-402 1452v-1452h-391v1556h744zM1098 1667h-375l244 309h530z" />
    <glyph glyph-name="nacute" unicode="&#x144;" horiz-adv-x="1318" 
d="M1126 1030l4 -2q87 -119 87 -315v-4v-713h-379v622v5q0 132 -43 196t-129 64t-129 -64t-43 -198v-623h-379v1120h372v-233q46 118 136 190t227 72q190 0 276 -117zM846 1225h-354l225 327h510z" />
    <glyph glyph-name="uni0145" unicode="&#x145;" horiz-adv-x="1818" 
d="M1286 96v1460h389v-1556h-741l-402 1452v-1452h-391v1556h744zM692 -422v311h400v-344l-154 -200h-244l125 233h-127z" />
    <glyph glyph-name="uni0146" unicode="&#x146;" horiz-adv-x="1318" 
d="M1126 1030l4 -2q87 -119 87 -315v-4v-713h-379v622v5q0 132 -43 196t-129 64t-129 -64t-43 -198v-623h-379v1120h372v-233q46 118 136 190t227 72q190 0 276 -117zM473 -426v311h387v-344l-153 -200h-232l125 233h-127z" />
    <glyph glyph-name="Ncaron" unicode="&#x147;" horiz-adv-x="1818" 
d="M1286 96v1460h389v-1556h-741l-402 1452v-1452h-391v1556h744zM948 1829l164 147h344l-264 -309h-490l-266 309h346z" />
    <glyph glyph-name="ncaron" unicode="&#x148;" horiz-adv-x="1318" 
d="M1126 1030l4 -2q87 -119 87 -315v-4v-713h-379v622v5q0 132 -43 196t-129 64t-129 -64t-43 -198v-623h-379v1120h372v-233q46 118 136 190t227 72q190 0 276 -117zM692 1384l164 168h330l-260 -327h-469l-262 327h331z" />
    <glyph glyph-name="Eng" unicode="&#x14a;" horiz-adv-x="1794" 
d="M1675 1556l2 -1556h-22v-37q0 -175 -111 -270q-110 -94 -327 -94h-232v264h162q77 0 113 31q32 28 32 106h-358l-402 1452v-1452h-391v1556h744l401 -1460v1460h389z" />
    <glyph glyph-name="eng" unicode="&#x14b;" horiz-adv-x="1318" 
d="M1126 1030v-2q86 -118 86 -315v-4v-754q0 -122 -51 -199q-54 -82 -143 -121q-86 -38 -211 -38h-152v274h54q67 0 98 25t31 90v632v5q0 132 -43 196t-129 64t-129 -64t-43 -198v-623h-379v1120h372v-233q46 118 136 190t227 72q190 0 276 -117z" />
    <glyph glyph-name="Omacron" unicode="&#x14c;" horiz-adv-x="1740" 
d="M453 72h-7q-180 98 -282 280q-101 180 -101 424q0 241 103 424t283 281t417 98q236 0 416 -98t283 -281q102 -182 102 -424q0 -246 -100 -424q-102 -181 -283 -280q-182 -99 -414 -99q-236 0 -417 99zM1071 336l-2 -4q91 63 139 174q49 113 49 268t-49 268
q-49 112 -139 175q-88 61 -209 61t-209 -61q-87 -61 -137 -175q-49 -113 -49 -266t49 -266q48 -111 139 -174q89 -62 209 -62t209 62zM1307 1683h-897v267h897v-267z" />
    <glyph glyph-name="omacron" unicode="&#x14d;" horiz-adv-x="1333" 
d="M346 47v-2q-136 72 -211 207q-74 133 -74 301q0 169 74 305t211 209q139 74 322 74q182 0 321 -74q137 -73 211 -209t74 -303q0 -168 -74 -301q-75 -135 -211 -207q-139 -74 -321 -74q-183 0 -322 74zM831 309v-2q56 89 56 246q0 159 -56 248q-55 88 -163 88
q-109 0 -164 -88t-55 -246t55 -246t164 -88q108 0 163 88zM1077 1253h-823v260h823v-260z" />
    <glyph glyph-name="Obreve" unicode="&#x14e;" horiz-adv-x="1740" 
d="M453 72h-7q-180 98 -282 280q-101 180 -101 424q0 241 103 424t283 281t417 98q236 0 416 -98t283 -281q102 -182 102 -424q0 -246 -100 -424q-102 -181 -283 -280q-182 -99 -414 -99q-236 0 -417 99zM1071 336l-2 -4q91 63 139 174q49 113 49 268t-49 268
q-49 112 -139 175q-88 61 -209 61t-209 -61q-87 -61 -137 -175q-49 -113 -49 -266t49 -266q48 -111 139 -174q89 -62 209 -62t209 62zM641 1700l6 -2q-96 41 -147 110q-51 68 -51 160h262q3 -47 47 -74q45 -28 108 -28q64 0 109 28q44 27 47 74h260q0 -92 -51 -160
t-148 -110q-91 -39 -221 -39q-125 0 -221 41z" />
    <glyph glyph-name="obreve" unicode="&#x14f;" horiz-adv-x="1333" 
d="M346 47v-2q-136 72 -211 207q-74 133 -74 301q0 169 74 305t211 209q139 74 322 74q182 0 321 -74q137 -73 211 -209t74 -303q0 -168 -74 -301q-75 -135 -211 -207q-139 -74 -321 -74q-183 0 -322 74zM831 309v-2q56 89 56 246q0 159 -56 248q-55 88 -163 88
q-109 0 -164 -88t-55 -246t55 -246t164 -88q108 0 163 88zM457 1260q-93 47 -144 122q-51 74 -51 170h264q0 -60 37 -90q38 -30 103 -30q66 0 104 30q37 30 37 92h264q0 -96 -49 -172q-49 -75 -141 -122q-91 -46 -213 -46q-120 0 -211 46z" />
    <glyph glyph-name="Ohungarumlaut" unicode="&#x150;" horiz-adv-x="1740" 
d="M453 72h-7q-180 98 -282 280q-101 180 -101 424q0 241 103 424t283 281t417 98q236 0 416 -98t283 -281q102 -182 102 -424q0 -246 -100 -424q-102 -181 -283 -280q-182 -99 -414 -99q-236 0 -417 99zM1071 336l-2 -4q91 63 139 174q49 113 49 268t-49 268
q-49 112 -139 175q-88 61 -209 61t-209 -61q-87 -61 -137 -175q-49 -113 -49 -266t49 -266q48 -111 139 -174q89 -62 209 -62t209 62zM758 1661h-344l266 309h459zM1280 1661h-344l266 309h459z" />
    <glyph glyph-name="ohungarumlaut" unicode="&#x151;" horiz-adv-x="1333" 
d="M346 47v-2q-136 72 -211 207q-74 133 -74 301q0 169 74 305t211 209q139 74 322 74q182 0 321 -74q137 -73 211 -209t74 -303q0 -168 -74 -301q-75 -135 -211 -207q-139 -74 -321 -74q-183 0 -322 74zM831 309v-2q56 89 56 246q0 159 -56 248q-55 88 -163 88
q-109 0 -164 -88t-55 -246t55 -246t164 -88q108 0 163 88zM590 1223h-318l213 327h430zM1085 1223h-315l211 327h430z" />
    <glyph glyph-name="OE" unicode="&#x152;" horiz-adv-x="2336" 
d="M1509 322l732 -5v-321h-1334q-238 0 -432 96q-189 94 -299 275q-108 179 -108 409q0 232 108 410q109 180 299 274q194 96 434 96h1315v-321h-715v-279h701v-321h-701v-313zM1116 317v914h-209q-127 0 -225 -55q-99 -55 -154 -160q-55 -104 -55 -242t55 -242
q55 -103 154 -159q100 -56 225 -56h209z" />
    <glyph glyph-name="oe" unicode="&#x153;" horiz-adv-x="2125" 
d="M2056 446l-778 5q17 -110 72 -168q53 -56 133 -56q69 0 110 27t68 86h381q-59 -176 -207 -268t-356 -92q-121 0 -224 47q-99 45 -174 129q-74 -83 -178 -129q-106 -47 -233 -47q-185 0 -322 73q-136 72 -211 207q-74 133 -74 301q0 169 74 305t211 209q139 74 322 74
q127 0 233 -47q104 -46 176 -133q75 87 176 133q103 47 222 47q182 0 313 -76q132 -77 203 -215q71 -139 71 -315q0 -56 -8 -97zM836 317v-2q55 88 55 246q0 160 -55 248t-164 88t-164 -88t-55 -246t55 -246t164 -88t164 88zM1352 846l-2 -4q-55 -51 -72 -156h401
q-12 99 -67 154t-131 55q-77 0 -129 -49z" />
    <glyph glyph-name="Racute" unicode="&#x154;" horiz-adv-x="1544" 
d="M1085 0l-315 543h-235v-547h-392v1556h645q195 0 338 -61q146 -62 222 -176q77 -115 77 -264q0 -146 -71 -258q-69 -109 -207 -175l381 -618h-443zM535 1231v-367h264q108 0 166 49q59 50 59 136q0 83 -59 133q-58 49 -166 49h-264zM874 1663h-374l243 309h531z" />
    <glyph glyph-name="racute" unicode="&#x155;" horiz-adv-x="901" 
d="M489 799v-4q35 153 129 252q94 98 252 98v-371h-92q-149 0 -215 -57q-67 -58 -67 -193v-524h-379v1120h372v-321zM682 1225h-354l225 327h510z" />
    <glyph glyph-name="uni0156" unicode="&#x156;" horiz-adv-x="1544" 
d="M1085 0l-315 543h-235v-547h-392v1556h645q195 0 338 -61q146 -62 222 -176q77 -115 77 -264q0 -146 -71 -258q-69 -109 -207 -175l381 -618h-443zM535 1231v-367h264q108 0 166 49q59 50 59 136q0 83 -59 133q-58 49 -166 49h-264zM592 -426v311h399v-344l-153 -200
h-244l125 233h-127z" />
    <glyph glyph-name="uni0157" unicode="&#x157;" horiz-adv-x="901" 
d="M489 799v-4q35 153 129 252q94 98 252 98v-371h-92q-149 0 -215 -57q-67 -58 -67 -193v-524h-379v1120h372v-321zM111 -426v311h387v-344l-154 -200h-231l125 233h-127z" />
    <glyph glyph-name="Rcaron" unicode="&#x158;" horiz-adv-x="1544" 
d="M1085 0l-315 543h-235v-547h-392v1556h645q195 0 338 -61q146 -62 222 -176q77 -115 77 -264q0 -146 -71 -258q-69 -109 -207 -175l381 -618h-443zM535 1231v-367h264q108 0 166 49q59 50 59 136q0 83 -59 133q-58 49 -166 49h-264zM725 1825l164 147h344l-264 -309h-490
l-266 309h346z" />
    <glyph glyph-name="rcaron" unicode="&#x159;" horiz-adv-x="901" 
d="M489 799v-4q35 153 129 252q94 98 252 98v-371h-92q-149 0 -215 -57q-67 -58 -67 -193v-524h-379v1120h372v-321zM528 1384l164 168h330l-260 -327h-469l-262 327h331z" />
    <glyph glyph-name="Sacute" unicode="&#x15a;" horiz-adv-x="1490" 
d="M395 33v-8q-147 61 -235 178q-89 118 -107 276h408q15 -99 92 -155t195 -56q138 0 217 43t79 117q0 51 -26 80t-84 51q-61 23 -158 43l-237 53q-441 95 -441 447q0 139 82 246q80 105 228 168q143 61 319 61q202 0 342 -55q143 -56 221 -156q83 -106 103 -236h-408
q-53 146 -262 146q-62 0 -121 -16q-48 -13 -88 -48q-33 -29 -33 -71q0 -47 27 -74q28 -28 84 -49q55 -21 164 -45l237 -53q217 -47 326 -156q111 -111 111 -291q0 -156 -87 -272q-85 -113 -245 -172q-158 -58 -371 -58q-184 0 -332 62zM868 1657h-374l243 309h531z" />
    <glyph glyph-name="sacute" unicode="&#x15b;" horiz-adv-x="1218" 
d="M229 66v6q-146 93 -176 276h379q12 -63 64 -90q56 -29 125 -29q83 0 137 23q49 21 49 61q0 28 -14 45q-17 21 -56 35q-49 18 -112 31l-222 49q-165 37 -245 117t-80 203q0 109 67 188t185 123q116 43 258 43q143 0 258 -37q116 -37 192 -113q78 -78 99 -184h-379
q-15 40 -62 61q-51 23 -106 23q-73 0 -117 -20q-45 -20 -45 -62q0 -35 37 -53q40 -19 121 -37l221 -49q180 -41 264 -119q86 -80 86 -219q0 -114 -74 -197q-73 -82 -198 -125t-283 -43q-227 0 -373 93zM737 1233h-354l225 328h510z" />
    <glyph glyph-name="Scircumflex" unicode="&#x15c;" horiz-adv-x="1490" 
d="M395 33v-8q-147 61 -235 178q-89 118 -107 276h408q15 -99 92 -155t195 -56q138 0 217 43t79 117q0 51 -26 80t-84 51q-61 23 -158 43l-237 53q-441 95 -441 447q0 139 82 246q80 105 228 168q143 61 319 61q202 0 342 -55q143 -56 221 -156q83 -106 103 -236h-408
q-53 146 -262 146q-62 0 -121 -16q-48 -13 -88 -48q-33 -29 -33 -71q0 -47 27 -74q28 -28 84 -49q55 -21 164 -45l237 -53q217 -47 326 -156q111 -111 111 -291q0 -156 -87 -272q-85 -113 -245 -172q-158 -58 -371 -58q-184 0 -332 62zM965 1966l264 -309h-344l-164 147
l-166 -147h-346l266 309h490z" />
    <glyph glyph-name="scircumflex" unicode="&#x15d;" horiz-adv-x="1218" 
d="M229 66v6q-146 93 -176 276h379q12 -63 64 -90q56 -29 125 -29q83 0 137 23q49 21 49 61q0 28 -14 45q-17 21 -56 35q-49 18 -112 31l-222 49q-165 37 -245 117t-80 203q0 109 67 188t185 123q116 43 258 43q143 0 258 -37q116 -37 192 -113q78 -78 99 -184h-379
q-15 40 -62 61q-51 23 -106 23q-73 0 -117 -20q-45 -20 -45 -62q0 -35 37 -53q40 -19 121 -37l221 -49q180 -41 264 -119q86 -80 86 -219q0 -114 -74 -197q-73 -82 -198 -125t-283 -43q-227 0 -373 93zM817 1561l260 -328h-329l-164 168l-166 -168h-332l262 328h469z" />
    <glyph glyph-name="Scedilla" unicode="&#x15e;" horiz-adv-x="1490" 
d="M1354 223l-11 -12q-73 -107 -204 -168t-314 -76v-37q77 -9 123 -55q47 -47 47 -121q0 -86 -61 -135t-164 -49h-172v166h90q26 0 43 10t17 31q0 20 -17 30q-18 11 -41 11h-55v151q-162 15 -289 80q-128 66 -203 174q-77 112 -92 258h408q15 -99 92 -155t194 -56
q139 0 218 43t79 117q0 51 -26 80t-84 51q-61 23 -158 43l-237 53q-441 95 -441 447q0 139 82 246q80 105 228 168q143 61 319 61q202 0 342 -55q143 -56 221 -156q83 -107 103 -235h-408q-53 145 -262 145q-62 0 -121 -16q-48 -13 -88 -48q-33 -29 -33 -71q0 -47 27 -74
q28 -28 84 -49q55 -21 164 -45l237 -53q217 -47 326 -156q110 -110 110 -291q0 -145 -73 -252z" />
    <glyph glyph-name="scedilla" unicode="&#x15f;" horiz-adv-x="1218" 
d="M1096 150l4 -7q-65 -80 -174 -123q-107 -42 -254 -51v-37q77 -9 123 -55q47 -47 47 -117q0 -83 -62 -133q-61 -49 -162 -49h-163v156h90q63 0 63 47q0 22 -16 35q-15 12 -43 12h-57v152q-179 21 -295 114q-115 92 -142 252h379q12 -63 64 -90q56 -29 125 -29q83 0 137 23
q49 21 49 61q0 28 -14 45q-17 21 -56 35q-49 18 -112 31l-221 49q-166 37 -246 117t-80 203q0 109 67 188t185 123q116 43 258 43q143 0 258 -37q116 -37 192 -113q78 -78 99 -184h-379q-15 40 -62 61q-51 23 -106 23q-70 0 -117 -21q-45 -20 -45 -61q0 -35 37 -53
q40 -19 121 -37l221 -49q180 -41 264 -119q86 -80 86 -219q0 -108 -63 -186z" />
    <glyph glyph-name="Scaron" unicode="&#x160;" horiz-adv-x="1490" 
d="M395 33v-8q-147 61 -235 178q-89 118 -107 276h408q15 -99 92 -155t195 -56q138 0 217 43t79 117q0 51 -26 80t-84 51q-61 23 -158 43l-237 53q-441 95 -441 447q0 139 82 246q80 105 228 168q143 61 319 61q202 0 342 -55q143 -56 221 -156q83 -106 103 -236h-408
q-53 146 -262 146q-62 0 -121 -16q-48 -13 -88 -48q-33 -29 -33 -71q0 -47 27 -74q28 -28 84 -49q55 -21 164 -45l237 -53q217 -47 326 -156q111 -111 111 -291q0 -156 -87 -272q-85 -113 -245 -172q-158 -58 -371 -58q-184 0 -332 62zM721 1819l164 147h344l-264 -309h-490
l-266 309h346z" />
    <glyph glyph-name="scaron" unicode="&#x161;" horiz-adv-x="1218" 
d="M229 66v6q-146 93 -176 276h379q12 -63 64 -90q56 -29 125 -29q83 0 137 23q49 21 49 61q0 28 -14 45q-17 21 -56 35q-49 18 -112 31l-222 49q-165 37 -245 117t-80 203q0 109 67 188t185 123q116 43 258 43q143 0 258 -37q116 -37 192 -113q78 -78 99 -184h-379
q-15 40 -62 61q-51 23 -106 23q-73 0 -117 -20q-45 -20 -45 -62q0 -35 37 -53q40 -19 121 -37l221 -49q180 -41 264 -119q86 -80 86 -219q0 -114 -74 -197q-73 -82 -198 -125t-283 -43q-227 0 -373 93zM584 1393l164 168h329l-260 -328h-469l-262 328h332z" />
    <glyph glyph-name="uni0162" unicode="&#x162;" horiz-adv-x="1384" 
d="M33 1556h1319v-321h-465v-1235h-389v1235h-465v321zM492 -422v311h399v-344l-154 -200h-243l124 233h-126z" />
    <glyph glyph-name="uni0163" unicode="&#x163;" horiz-adv-x="884" 
d="M827 274l-4 -274h-198q-118 0 -211 41q-92 41 -144 117q-51 74 -51 188v4v496h-190v274h190v264h379v-264h225v-274h-225v-455v-4q0 -63 31 -88t98 -25h100zM303 -422v311h387v-344l-153 -200h-232l125 233h-127z" />
    <glyph glyph-name="Tcaron" unicode="&#x164;" horiz-adv-x="1384" 
d="M33 1556h1319v-321h-465v-1235h-389v1235h-465v321zM692 1829l164 147h344l-264 -309h-490l-266 309h346z" />
    <glyph glyph-name="tcaron" unicode="&#x165;" horiz-adv-x="884" 
d="M694 1196l29 360h332l-97 -360h-264zM629 299h-4q31 -25 98 -25h100v-274h-198q-118 0 -211 41q-92 41 -144 117q-51 74 -51 188v4v496h-190v274h190v264h379v-264h225v-274h-225v-455v-4q0 -63 31 -88z" />
    <glyph glyph-name="Tbar" unicode="&#x166;" horiz-adv-x="1439" 
d="M1378 1556v-321h-463v-324h359v-288h-359v-623h-391v623h-356v288h356v324h-463v321h1317z" />
    <glyph glyph-name="tbar" unicode="&#x167;" horiz-adv-x="884" 
d="M827 274l-4 -274h-198q-118 0 -211 41q-92 41 -144 117q-51 74 -51 188v4v142h-149v231h149v123h-190v274h190v264h379v-264h225v-274h-225v-123h150v-231h-150v-101v-4q0 -63 31 -88t98 -25h100z" />
    <glyph glyph-name="Utilde" unicode="&#x168;" horiz-adv-x="1591" 
d="M127 623l-4 2v929h391v-970v-4q0 -150 72 -228t209 -78q138 0 209 80q69 78 69 232v970h391v-929q0 -654 -667 -654q-670 0 -670 650zM399 1675h9q3 161 65 244q63 84 170 84q45 0 92 -12q33 -8 80 -29q73 -33 129 -33q45 0 78 23q32 23 41 59h123q-3 -161 -64 -246
q-62 -86 -170 -86q-38 0 -92 13q-41 10 -86 28q-62 33 -129 33q-44 0 -80 -22q-34 -21 -43 -56h-123z" />
    <glyph glyph-name="utilde" unicode="&#x169;" horiz-adv-x="1312" 
d="M817 1120l379 -6v-1120h-373v217q-89 -244 -356 -244q-189 0 -274 117q-87 119 -87 315v4v713h379v-622v-5q0 -130 41 -192q40 -61 123 -61q86 0 127 65t41 197v622zM279 1241v-4q3 162 61 244q60 84 160 84q42 0 86 -15t78 -30q70 -33 122 -33q46 0 76 24q32 26 41 62
h115q-3 -157 -62 -240q-60 -84 -159 -84q-42 0 -86 15q-43 15 -78 30q-62 33 -123 33q-46 0 -76 -24t-39 -62h-116z" />
    <glyph glyph-name="Umacron" unicode="&#x16a;" horiz-adv-x="1591" 
d="M127 623l-4 2v929h391v-970v-4q0 -150 72 -228t209 -78q138 0 209 80q69 78 69 232v970h391v-929q0 -654 -667 -654q-670 0 -670 650zM1239 1688h-897v266h897v-266z" />
    <glyph glyph-name="umacron" unicode="&#x16b;" horiz-adv-x="1312" 
d="M817 1120l379 -6v-1120h-373v217q-89 -244 -356 -244q-189 0 -274 117q-87 119 -87 315v4v713h379v-622v-5q0 -130 41 -192q40 -61 123 -61q86 0 127 65t41 197v622zM1061 1253h-823v260h823v-260z" />
    <glyph glyph-name="Ubreve" unicode="&#x16c;" horiz-adv-x="1591" 
d="M127 623l-4 2v929h391v-970v-4q0 -150 72 -228t209 -78q138 0 209 80q69 78 69 232v970h391v-929q0 -654 -667 -654q-670 0 -670 650zM573 1702l7 -2q-97 42 -148 110t-51 160h262q3 -47 47 -74q45 -28 109 -28q63 0 108 28q44 27 47 74h260q0 -92 -51 -160
q-51 -69 -147 -110q-91 -39 -221 -39q-126 0 -222 41z" />
    <glyph glyph-name="ubreve" unicode="&#x16d;" horiz-adv-x="1312" 
d="M817 1120l379 -6v-1120h-373v217q-89 -244 -356 -244q-189 0 -274 117q-87 119 -87 315v4v713h379v-622v-5q0 -130 41 -192q40 -61 123 -61q86 0 127 65t41 197v622zM438 1260q-91 46 -143 122q-51 74 -51 170h264q0 -60 37 -90t102 -30q67 0 105 30q36 29 36 92h265
q0 -96 -49 -172q-48 -74 -142 -122q-91 -46 -213 -46q-120 0 -211 46z" />
    <glyph glyph-name="Uring" unicode="&#x16e;" horiz-adv-x="1591" 
d="M127 623l-4 2v929h391v-970v-4q0 -150 72 -228t209 -78q138 0 209 80q69 78 69 232v970h391v-929q0 -654 -667 -654q-670 0 -670 650zM639 1696v-2q-71 41 -111 110q-41 71 -41 154q0 82 41 153q40 71 111 111q71 41 154 41q85 0 153 -39q71 -41 111 -110q41 -71 41 -154
t-41 -154q-40 -69 -111 -110t-153 -41q-83 0 -154 41zM858 1890h-4q29 29 29 68q0 40 -27 67t-68 27q-40 0 -67 -27t-27 -67q0 -39 29 -68q28 -28 68 -28q39 0 67 28z" />
    <glyph glyph-name="uring" unicode="&#x16f;" horiz-adv-x="1312" 
d="M817 1120l379 -6v-1120h-373v217q-89 -244 -356 -244q-189 0 -274 117q-87 119 -87 315v4v713h379v-622v-5q0 -130 41 -192q40 -61 123 -61q86 0 127 65t41 197v622zM516 1249l-2 -2q-60 37 -98 99q-37 61 -37 133t37 133q38 62 98 96q62 35 133 35t133 -35
q63 -35 97 -96t34 -133q0 -70 -34 -131t-97 -99q-61 -37 -133 -37q-70 0 -131 37zM700 1421q23 26 23 56q0 32 -23 55q-22 22 -55 22t-55 -22q-23 -23 -23 -55q0 -30 23 -56q21 -24 55 -24t55 24z" />
    <glyph glyph-name="Uhungarumlaut" unicode="&#x170;" horiz-adv-x="1591" 
d="M127 623l-4 2v929h391v-970v-4q0 -150 72 -228t209 -78q138 0 209 80q69 78 69 232v970h391v-929q0 -654 -667 -654q-670 0 -670 650zM690 1665h-344l266 309h459zM1212 1665h-344l267 309h458z" />
    <glyph glyph-name="uhungarumlaut" unicode="&#x171;" horiz-adv-x="1312" 
d="M817 1120l379 -6v-1120h-373v217q-89 -244 -356 -244q-189 0 -274 117q-87 119 -87 315v4v713h379v-622v-5q0 -130 41 -192q40 -61 123 -61q86 0 127 65t41 197v622zM573 1223h-317l213 327h430zM1069 1223h-315l211 327h430z" />
    <glyph glyph-name="Uogonek" unicode="&#x172;" horiz-adv-x="1591" 
d="M1073 1556l387 -6v-929q0 -374 -217 -533q-81 -62 -113 -106q-32 -43 -32 -86q0 -38 24 -56t74 -18h76v-244h-127q-185 0 -281 51q-98 52 -98 150q0 105 119 196q-78 -4 -92 -4q-670 0 -670 650v4v929h391v-970v-4q0 -150 72 -228t209 -78q138 0 209 80q69 78 69 232v970
z" />
    <glyph glyph-name="uogonek" unicode="&#x173;" horiz-adv-x="1312" 
d="M1196 0l-4 -10q-90 -26 -137 -58q-43 -30 -43 -67q0 -31 26 -43q27 -12 80 -12h76v-238h-129q-189 0 -281 51q-96 53 -96 160q0 60 35 113q34 52 98 98h2v217q-89 -244 -356 -244q-189 0 -274 117q-87 119 -87 315v4v713h379v-622v-5q0 -130 41 -192q40 -61 123 -61
q86 0 127 65t41 197v622h379v-1120z" />
    <glyph glyph-name="Wcircumflex" unicode="&#x174;" horiz-adv-x="2363" 
d="M1716 111l240 1445h371l-271 -1556h-694l-180 1442l-181 -1442h-694l-270 1556h371l239 -1445l191 1445h688zM1425 1976l265 -309h-344l-164 148l-166 -148h-346l266 309h489z" />
    <glyph glyph-name="wcircumflex" unicode="&#x175;" horiz-adv-x="1914" 
d="M1386 96l148 1024h338l-170 -1120h-635l-109 1024l-110 -1024h-635l-170 1120h340l145 -1024l117 1024h625zM1192 1556l260 -327h-330l-164 168l-165 -168h-332l262 327h469z" />
    <glyph glyph-name="Ycircumflex" unicode="&#x176;" horiz-adv-x="1480" 
d="M1069 1556h442l-575 -948v-608h-391v608l-576 948h443l329 -579zM985 1976l264 -309h-344l-164 148l-166 -148h-346l267 309h489z" />
    <glyph glyph-name="ycircumflex" unicode="&#x177;" horiz-adv-x="1280" 
d="M631 209l233 911h400l-402 -1521h-387l131 512h-305l-295 1009h377zM856 1556l260 -327h-330l-163 168l-166 -168h-332l262 327h469z" />
    <glyph glyph-name="Ydieresis" unicode="&#x178;" horiz-adv-x="1480" 
d="M1069 1556h442l-575 -948v-608h-391v608l-576 948h443l329 -579zM682 1667h-399v309h399v-309zM1198 1667h-399v309h399v-309z" />
    <glyph glyph-name="Zacute" unicode="&#x179;" horiz-adv-x="1458" 
d="M1360 1145l-828 -823h865v-322h-1319v412l825 823h-813v321h1270v-411zM874 1667h-374l243 309h531z" />
    <glyph glyph-name="zacute" unicode="&#x17a;" horiz-adv-x="1179" 
d="M1083 770l-567 -496h604v-274h-1042v352l569 494h-559v274h995v-350zM739 1229h-354l225 327h510z" />
    <glyph glyph-name="Zdotaccent" unicode="&#x17b;" horiz-adv-x="1458" 
d="M1360 1145l-828 -823h865v-322h-1319v412l825 823h-813v321h1270v-411zM924 1667h-400v309h400v-309z" />
    <glyph glyph-name="zdotaccent" unicode="&#x17c;" horiz-adv-x="1179" 
d="M1083 770l-567 -496h604v-274h-1042v352l569 494h-559v274h995v-350zM778 1245h-387v311h387v-311z" />
    <glyph glyph-name="Zcaron" unicode="&#x17d;" horiz-adv-x="1458" 
d="M1360 1145l-828 -823h865v-322h-1319v412l825 823h-813v321h1270v-411zM725 1829l164 147h344l-264 -309h-490l-266 309h346z" />
    <glyph glyph-name="zcaron" unicode="&#x17e;" horiz-adv-x="1179" 
d="M1083 770l-567 -496h604v-274h-1042v352l569 494h-559v274h995v-350zM586 1389l164 167h329l-260 -327h-469l-262 327h332z" />
    <glyph glyph-name="uni018F" unicode="&#x18f;" horiz-adv-x="1714" 
d="M1262 1485l2 -2q179 -98 282 -281t103 -424t-103 -424q-102 -182 -282 -280q-182 -99 -412 -99q-243 0 -420 113q-178 114 -270 311q-92 198 -92 449q0 68 2 86h1171q-35 181 -141 262q-110 84 -252 84q-122 0 -205 -51q-85 -53 -129 -144h-414q47 158 152 269
q106 112 258 170q154 59 338 59q232 0 412 -98zM1022 309v4q81 35 139 111q59 77 80 197h-766q15 -100 68 -181q52 -79 133 -123q79 -43 176 -43q89 0 170 35z" />
    <glyph glyph-name="florin" unicode="&#x192;" horiz-adv-x="1230" 
d="M1028 1249h-4q-75 0 -119 -41q-41 -39 -57 -127l-14 -90h256v-307h-302l-40 -264q-35 -222 -154 -320t-334 -98h-205v307h133q79 0 123 41t56 127l32 209h-217v307h264l23 146q34 220 154 319q119 98 335 98h205v-307h-135z" />
    <glyph glyph-name="uni019D" unicode="&#x19d;" horiz-adv-x="1794" 
d="M1286 1556l391 3v-1557h-741l-401 1452v-1452h-31v-37q0 -175 -109 -270q-107 -94 -325 -94h-232v264h162q56 0 86 12q31 12 43 43q12 30 12 84v1552h744l401 -1460v1460z" />
    <glyph glyph-name="uni01B5" unicode="&#x1b5;" horiz-adv-x="1480" 
d="M862 639l-319 -317h864v-322h-1319v412l336 336h-311v198h512l288 289h-813v321h1270v-411l-309 -307h328v-199h-527z" />
    <glyph glyph-name="uni01B6" unicode="&#x1b6;" horiz-adv-x="1196" 
d="M727 455l-207 -181h604v-274h-1042v352l217 189h-193v147h363l182 158h-557v274h993v-350l-190 -166h221v-149h-391z" />
    <glyph glyph-name="uni01E2" unicode="&#x1e2;" horiz-adv-x="2187" 
d="M1466 635l99 -313h528v-322h-836l-114 389h-627l-115 -389h-407l491 1556h1590v-321h-797l88 -279h694v-321h-594zM829 1456l-219 -745h439zM1591 1690h-897v266h897v-266z" />
    <glyph glyph-name="uni01E3" unicode="&#x1e3;" horiz-adv-x="2054" 
d="M1987 446l-789 5q17 -110 72 -168q53 -56 129 -56q69 0 110 27t68 86h379q-59 -177 -205 -268q-148 -92 -358 -92q-153 0 -263 61q-109 60 -174 166q-58 -105 -172 -166q-113 -61 -278 -61q-124 0 -230 47q-101 45 -161 129q-60 85 -60 190q0 188 142 268t385 80h229v41
v4q0 71 -43 117q-42 45 -123 45q-72 0 -115 -37q-44 -38 -53 -88h-379q15 121 88 203q75 84 187 127q113 43 245 43q142 0 242 -47q98 -46 154 -123q66 85 162 127q98 43 229 43q182 0 313 -76q132 -77 203 -215q72 -141 72 -315q0 -45 -6 -97zM1270 848l-2 -4
q-52 -49 -70 -156h399q-12 98 -65 154q-52 55 -133 55q-77 0 -129 -49zM750 281v2q53 56 59 163h-156q-213 0 -213 -108q0 -52 43 -82q45 -31 113 -31q101 0 154 56zM1409 1260h-823v260h823v-260z" />
    <glyph glyph-name="Gcaron" unicode="&#x1e6;" horiz-adv-x="1746" 
d="M801 905l841 4v-905h-319v358q-55 -165 -178 -276t-344 -111q-181 0 -352 97q-166 94 -271 276q-104 180 -104 430t100 428q103 183 283 281t417 98q295 0 484 -131q190 -132 264 -387h-408q-89 215 -342 215q-120 0 -208 -61q-89 -62 -138 -174q-49 -113 -49 -271
q0 -153 49 -266q48 -111 142 -174q92 -62 217 -62q108 0 192 41q82 40 129 115q46 73 49 174h-454v301zM872 1833l164 147h344l-264 -309h-489l-267 309h347z" />
    <glyph glyph-name="gcaron" unicode="&#x1e7;" horiz-adv-x="1368" 
d="M885 1120l370 -6v-1083q0 -166 -84 -273q-80 -102 -213 -147q-128 -43 -274 -43q-144 0 -262 39q-122 40 -205 123t-98 209h379q18 -59 67 -89t121 -30q89 0 143 51q56 53 56 154v227q-43 -107 -137 -174q-95 -68 -224 -68q-134 0 -241 72q-103 69 -160 201
q-55 128 -55 295q0 166 55 294q57 132 160 201q107 72 241 72q139 0 230 -76t131 -192v243zM838 342q55 82 55 233q0 152 -55 234t-164 82t-164 -82t-55 -234q0 -151 55 -233t164 -82t164 82zM688 1382l164 168h330l-260 -327h-469l-263 327h332z" />
    <glyph glyph-name="uni01EA" unicode="&#x1ea;" horiz-adv-x="1740" 
d="M1581 377l-8 -2q-87 -173 -246 -277q-85 -64 -119 -110q-32 -43 -32 -88q0 -38 24 -56t74 -18h76v-244h-127q-185 0 -281 51q-98 52 -98 150q0 108 121 197q-16 -1 -38 -2t-36.5 -2t-24.5 -1q-236 0 -417 99t-283 280q-100 178 -100 424q0 242 102 424q103 183 283 281
t417 98q236 0 416 -98t283 -281q102 -181 102 -424q0 -226 -88 -401zM514 508l-2 -4q48 -111 139 -174q89 -62 209 -62t209 62q91 63 139 174q49 113 49 268t-49 268q-48 111 -139 174q-89 62 -209 62t-209 -62q-88 -61 -137 -174t-49 -266t49 -266z" />
    <glyph glyph-name="uni01EB" unicode="&#x1eb;" horiz-adv-x="1333" 
d="M1217 287l2 -2q-58 -123 -166 -199h2q-158 -122 -158 -203q0 -34 27 -49q25 -14 82 -14h75v-238h-129q-377 0 -377 209q0 50 31 98q28 44 86 86h-24q-183 0 -322 74q-136 72 -211 207q-74 133 -74 301q0 169 74 305t211 209q139 74 322 74q182 0 321 -74
q137 -73 211 -209t74 -303q0 -152 -57 -272zM504 309v-2q55 -88 164 -88q108 0 163 88q56 89 56 246q0 159 -56 248q-55 88 -163 88q-109 0 -164 -88t-55 -246t55 -246z" />
    <glyph glyph-name="AEacute" unicode="&#x1fc;" horiz-adv-x="2187" 
d="M1466 635l99 -313h528v-322h-836l-114 389h-627l-115 -389h-407l491 1556h1590v-321h-797l88 -279h694v-321h-594zM829 1456l-219 -745h439zM1292 1667h-374l243 309h531z" />
    <glyph glyph-name="aeacute" unicode="&#x1fd;" horiz-adv-x="2054" 
d="M1987 446l-789 5q17 -110 72 -168q53 -56 129 -56q69 0 110 27t68 86h379q-59 -177 -205 -268q-148 -92 -358 -92q-153 0 -263 61q-109 60 -174 166q-58 -105 -172 -166q-113 -61 -278 -61q-124 0 -230 47q-101 45 -161 129q-60 85 -60 190q0 188 142 268t385 80h229v41
v4q0 71 -43 117q-42 45 -123 45q-72 0 -115 -37q-44 -38 -53 -88h-379q15 121 88 203q75 84 187 127q113 43 245 43q142 0 242 -47q98 -46 154 -123q66 85 162 127q98 43 229 43q182 0 313 -76q132 -77 203 -215q72 -141 72 -315q0 -45 -6 -97zM1270 848l-2 -4
q-52 -49 -70 -156h399q-12 98 -65 154q-52 55 -133 55q-77 0 -129 -49zM750 281v2q53 56 59 163h-156q-213 0 -213 -108q0 -52 43 -82q45 -31 113 -31q101 0 154 56zM1153 1229h-354l225 327h510z" />
    <glyph glyph-name="Oslashacute" unicode="&#x1fe;" horiz-adv-x="1740" 
d="M1825 1556l-289 -305q63 -92 98 -215q33 -115 33 -258q0 -246 -100 -424q-102 -181 -283 -280q-182 -99 -414 -99q-122 0 -233 27q-109 26 -199 80l-76 -80h-450l287 305q-64 94 -99 215q-32 111 -32 258q0 243 102 424q103 183 283 281t417 98q249 0 430 -106l76 79h449
zM485 612l576 613q-89 53 -197 53q-121 0 -209 -61q-87 -61 -137 -175q-49 -113 -49 -266q0 -82 16 -164zM1245 944l-579 -618q91 -54 198 -54q120 0 209 62q91 63 139 174q50 115 50 268q0 75 -17 168zM1014 1663h-375l244 309h530z" />
    <glyph glyph-name="oslashacute" unicode="&#x1ff;" horiz-adv-x="1333" 
d="M1382 1120l-211 -219q99 -150 99 -346q0 -168 -74 -301q-75 -135 -211 -207q-139 -74 -321 -74q-181 0 -320 74l-45 -47h-352l209 217q-48 73 -72 158q-25 89 -25 184q0 169 74 305t211 209q139 74 322 74q180 0 319 -74l45 47h352zM444 512l328 342q-47 35 -110 35
q-109 0 -164 -88q-56 -89 -56 -246q0 -33 2 -43zM877 598l-332 -344q47 -35 114 -35q109 0 164 88q56 89 56 246q0 35 -2 45zM813 1223h-354l225 327h510z" />
    <glyph glyph-name="uni0218" unicode="&#x218;" horiz-adv-x="1490" 
d="M395 33v-8q-147 61 -235 178q-89 118 -107 276h408q15 -99 92 -155t195 -56q138 0 217 43t79 117q0 51 -26 80t-84 51q-61 23 -158 43l-237 53q-441 95 -441 447q0 139 82 246q80 105 228 168q143 61 319 61q202 0 342 -55q143 -56 221 -156q83 -106 103 -236h-408
q-53 146 -262 146q-62 0 -121 -16q-48 -13 -88 -48q-33 -29 -33 -71q0 -47 27 -74q28 -28 84 -49q55 -21 164 -45l237 -53q217 -47 326 -156q111 -111 111 -291q0 -156 -87 -272q-85 -113 -245 -172q-158 -58 -371 -58q-184 0 -332 62zM575 -432v311h400v-344l-154 -201
h-243l124 234h-127z" />
    <glyph glyph-name="uni0219" unicode="&#x219;" horiz-adv-x="1218" 
d="M229 66v6q-146 93 -176 276h379q12 -63 64 -90q56 -29 125 -29q83 0 137 23q49 21 49 61q0 28 -14 45q-17 21 -56 35q-49 18 -112 31l-222 49q-165 37 -245 117t-80 203q0 109 67 188t185 123q116 43 258 43q143 0 258 -37q116 -37 192 -113q78 -78 99 -184h-379
q-15 40 -62 61q-51 23 -106 23q-73 0 -117 -20q-45 -20 -45 -62q0 -35 37 -53q40 -19 121 -37l221 -49q180 -41 264 -119q86 -80 86 -219q0 -114 -74 -197q-73 -82 -198 -125t-283 -43q-227 0 -373 93zM430 -418v312h387v-345l-153 -200h-232l125 233h-127z" />
    <glyph glyph-name="uni021A" unicode="&#x21a;" horiz-adv-x="1384" 
d="M33 1556h1319v-321h-465v-1235h-389v1235h-465v321zM492 -422v311h399v-344l-154 -200h-243l124 233h-126z" />
    <glyph glyph-name="uni021B" unicode="&#x21b;" horiz-adv-x="884" 
d="M827 274l-4 -274h-198q-118 0 -211 41q-92 41 -144 117q-51 74 -51 188v4v496h-190v274h190v264h379v-264h225v-274h-225v-455v-4q0 -63 31 -88t98 -25h100zM303 -422v311h387v-344l-153 -200h-232l125 233h-127z" />
    <glyph glyph-name="uni022E" unicode="&#x22e;" horiz-adv-x="1740" 
d="M453 72h-7q-180 98 -282 280q-101 180 -101 424q0 241 103 424t283 281t417 98q236 0 416 -98t283 -281q102 -182 102 -424q0 -246 -100 -424q-102 -181 -283 -280q-182 -99 -414 -99q-236 0 -417 99zM1071 336l-2 -4q91 63 139 174q49 113 49 268t-49 268
q-49 112 -139 175q-88 61 -209 61t-209 -61q-87 -61 -137 -175q-49 -113 -49 -266t49 -266q48 -111 139 -174q89 -62 209 -62t209 62zM1059 1661h-400v309h400v-309z" />
    <glyph glyph-name="uni022F" unicode="&#x22f;" horiz-adv-x="1333" 
d="M346 47v-2q-136 72 -211 207q-74 133 -74 301q0 169 74 305t211 209q139 74 322 74q182 0 321 -74q137 -73 211 -209t74 -303q0 -168 -74 -301q-75 -135 -211 -207q-139 -74 -321 -74q-183 0 -322 74zM831 309v-2q56 89 56 246q0 159 -56 248q-55 88 -163 88
q-109 0 -164 -88t-55 -246t55 -246t164 -88q108 0 163 88zM860 1239h-387v311h387v-311z" />
    <glyph glyph-name="uni0232" unicode="&#x232;" horiz-adv-x="1480" 
d="M1069 1556h442l-575 -948v-608h-391v608l-576 948h443l329 -579zM1188 1690h-897v266h897v-266z" />
    <glyph glyph-name="uni0233" unicode="&#x233;" horiz-adv-x="1280" 
d="M631 209l233 911h400l-402 -1521h-387l131 512h-305l-295 1009h377zM1032 1260h-823v260h823v-260z" />
    <glyph glyph-name="uni0237" unicode="&#x237;" horiz-adv-x="610" 
d="M-63 -401l-5 276h54q67 0 98 25t31 90v1130h379v-1171q0 -114 -52 -193q-50 -76 -145 -118q-88 -39 -211 -39h-149z" />
    <glyph glyph-name="uni0259" unicode="&#x259;" horiz-adv-x="1300" 
d="M956 1073h-2q134 -74 207 -209q74 -136 74 -307q0 -172 -74 -305q-74 -134 -209 -207q-136 -74 -307 -74q-182 0 -313 76q-132 77 -203 215q-70 137 -70 316q0 37 7 98h782q-17 110 -72 168q-52 55 -133 55q-71 0 -111 -27q-39 -26 -67 -86h-379q59 178 205 269
q148 92 358 92q174 0 307 -74zM774 276l4 3q55 55 72 155h-399q12 -97 65 -153t129 -56q78 0 129 51z" />
    <glyph glyph-name="uni0272" unicode="&#x272;" horiz-adv-x="1318" 
d="M1126 1030v-2q86 -118 86 -315v-4v-713h-378v622v5q0 132 -43 196t-129 64q-87 0 -130 -64t-43 -198v-664q0 -122 -51 -199q-53 -80 -143 -120q-88 -39 -213 -39h-150v274h54q67 0 98 25t31 90v1130h372v-233q46 118 136 190t227 72q190 0 276 -117z" />
    <glyph glyph-name="circumflex" unicode="&#x2c6;" horiz-adv-x="1062" 
d="M766 1556l260 -327h-330l-164 168l-165 -168h-332l262 327h469z" />
    <glyph glyph-name="caron" unicode="&#x2c7;" horiz-adv-x="1062" 
d="M532 1389l164 167h330l-260 -327h-469l-262 327h332z" />
    <glyph glyph-name="breve" unicode="&#x2d8;" horiz-adv-x="882" 
d="M229 1266q-90 46 -143 123q-51 74 -51 170h264q0 -61 37 -91q38 -30 102 -30q68 0 105 30t37 93h264q0 -96 -49 -172t-142 -123q-89 -45 -213 -45q-122 0 -211 45z" />
    <glyph glyph-name="dotaccent" unicode="&#x2d9;" horiz-adv-x="456" 
d="M422 1245h-387v311h387v-311z" />
    <glyph glyph-name="ring" unicode="&#x2da;" horiz-adv-x="598" 
d="M166 1255l-2 -2q-60 37 -98 99q-37 61 -37 133t37 133q38 62 98 96q62 35 133 35t133 -35q62 -34 96 -96q35 -62 35 -133q0 -69 -35 -131q-34 -62 -96 -99q-59 -36 -133 -36q-72 0 -131 36zM350 1427q23 26 23 56q0 32 -23 55t-55 23t-55 -23t-23 -55q0 -30 23 -56
q21 -24 55 -24t55 24z" />
    <glyph glyph-name="ogonek" unicode="&#x2db;" horiz-adv-x="575" 
d="M412 -420l-4 -4q-189 0 -281 51q-96 53 -96 160q0 60 35 113q34 52 98 98h375q-95 -27 -138 -57t-43 -68q0 -31 27 -43t80 -12h76v-238h-129z" />
    <glyph glyph-name="tilde" unicode="&#x2dc;" horiz-adv-x="811" 
d="M35 1247v-4q3 162 61 244q60 84 160 84q42 0 86 -15t78 -30q70 -33 123 -33q44 0 75 25q33 26 41 61h115q-3 -158 -61 -240q-60 -84 -160 -84q-43 0 -86 15t-78 30q-62 33 -123 33q-46 0 -76 -24q-29 -23 -38 -62h-117z" />
    <glyph glyph-name="hungarumlaut" unicode="&#x2dd;" horiz-adv-x="1210" 
d="M352 1229h-317l213 327h430zM848 1229h-316l211 327h431z" />
    <glyph glyph-name="gravecomb" unicode="&#x300;" horiz-adv-x="0" 
d="M-35 1229h-352l-383 327h510z" />
    <glyph glyph-name="acutecomb" unicode="&#x301;" horiz-adv-x="0" 
d="M-416 1229h-354l225 327h510z" />
    <glyph glyph-name="uni0302" unicode="&#x302;" horiz-adv-x="0" 
d="M-297 1556l260 -327h-330l-163 168l-166 -168h-332l262 327h469z" />
    <glyph glyph-name="tildecomb" unicode="&#x303;" horiz-adv-x="0" 
d="M-776 1247v-4q3 162 61 244q60 84 160 84q43 0 86 -15t78 -30q70 -33 123 -33q44 0 75 25q33 26 41 61h115q-3 -158 -61 -240q-60 -84 -160 -84q-42 0 -86 15t-78 30q-62 33 -123 33q-46 0 -76 -24q-29 -23 -38 -62h-117z" />
    <glyph glyph-name="uni0304" unicode="&#x304;" horiz-adv-x="0" 
d="M-35 1260h-823v260h823v-260z" />
    <glyph glyph-name="uni0306" unicode="&#x306;" horiz-adv-x="0" 
d="M-653 1266q-91 46 -144 123q-51 74 -51 170h264q0 -61 37 -91q38 -30 103 -30q66 0 104 30q37 30 37 93h264q0 -96 -49 -172q-50 -77 -141 -123q-89 -45 -213 -45q-122 0 -211 45z" />
    <glyph glyph-name="uni0307" unicode="&#x307;" horiz-adv-x="0" 
d="M-35 1245h-387v311h387v-311z" />
    <glyph glyph-name="uni0308" unicode="&#x308;" horiz-adv-x="0" 
d="M-547 1245h-387v311h387v-311zM-35 1245h-387v311h387v-311z" />
    <glyph glyph-name="uni030A" unicode="&#x30a;" horiz-adv-x="0" 
d="M-432 1255l-2 -2q-60 37 -98 99q-37 61 -37 133t37 133q38 62 98 96q62 35 133 35t133 -35q62 -34 96 -96q35 -62 35 -133q0 -69 -35 -131q-34 -62 -96 -99q-59 -36 -133 -36q-72 0 -131 36zM-248 1427q23 26 23 56q0 32 -23 55t-55 23t-55 -23t-23 -55q0 -30 23 -56
q21 -24 55 -24t55 24z" />
    <glyph glyph-name="uni030B" unicode="&#x30b;" horiz-adv-x="0" 
d="M-858 1229h-318l213 327h431zM-362 1229h-316l211 327h430z" />
    <glyph glyph-name="uni030C" unicode="&#x30c;" horiz-adv-x="0" 
d="M-530 1389l163 167h330l-260 -327h-469l-262 327h332z" />
    <glyph glyph-name="uni0312" unicode="&#x312;" horiz-adv-x="0" 
d="M-37 1800l-125 -233h127v-312h-387v344l154 201h231z" />
    <glyph glyph-name="dotbelowcomb" unicode="&#x323;" horiz-adv-x="0" 
d="M-35 -422h-387v311h387v-311z" />
    <glyph glyph-name="uni0326" unicode="&#x326;" horiz-adv-x="0" 
d="M-422 -422v311h387v-344l-153 -200h-232l125 233h-127z" />
    <glyph glyph-name="uni0327" unicode="&#x327;" horiz-adv-x="0" 
d="M-205 -61v-7q77 -9 123 -55q47 -47 47 -117q0 -84 -61 -133t-162 -49h-164v156h90q64 0 64 47q0 21 -17 35q-15 12 -43 12h-57v172h180v-61z" />
    <glyph glyph-name="uni0328" unicode="&#x328;" horiz-adv-x="0" 
d="M-164 -420l-4 -4q-189 0 -281 51q-96 53 -96 160q0 60 35 113q34 52 98 98h375q-93 -27 -137 -57q-43 -30 -43 -68q0 -31 27 -43t79 -12h76v-238h-129z" />
    <glyph glyph-name="uni0335" unicode="&#x335;" horiz-adv-x="0" 
d="M-653 1210h-678v232h678v-232z" />
    <glyph glyph-name="uni0336" unicode="&#x336;" horiz-adv-x="0" 
d="M-35 1110h-1653v258h1653v-258z" />
    <glyph glyph-name="uni0337" unicode="&#x337;" horiz-adv-x="0" 
d="M-37 834l-655 -402v313l655 402v-313z" />
    <glyph glyph-name="uni0338" unicode="&#x338;" horiz-adv-x="0" 
d="M-1079 0h-353l1080 1120h352z" />
    <glyph glyph-name="uni0394" unicode="&#x394;" horiz-adv-x="1648" 
d="M1169 1556l492 -1556h-1673l491 1556h690zM1159 322l-336 1134l-336 -1134h672z" />
    <glyph glyph-name="uni03A9" unicode="&#x3a9;" horiz-adv-x="1720" 
d="M1128 322h465v-322h-675v412q159 93 237 217q80 127 80 264q0 120 -45 203q-47 86 -131 135q-85 49 -203 49q-116 0 -201 -49q-84 -49 -131 -135q-45 -83 -45 -203q0 -136 78 -264q75 -124 234 -217v-412h-676v322h473q-514 200 -514 604q0 201 102 348t281 227
q180 80 401 80q222 0 402 -80q177 -79 280 -227q102 -147 102 -348q0 -404 -514 -604z" />
    <glyph glyph-name="uni03BC" unicode="&#x3bc;" horiz-adv-x="1421" 
d="M1380 274l2 -282h-116q-128 0 -205 14q-82 15 -137 55q-56 41 -80 111q-8 16 -8 41q-40 -106 -123 -174q-82 -67 -217 -70v-375h-379v1522h379v-624v-5q0 -128 41 -190q40 -61 122 -61q86 0 127 65t41 197v622h379v-737v-4q0 -45 15 -66t43 -30q27 -9 77 -9h39z" />
    <glyph glyph-name="pi" unicode="&#x3c0;" horiz-adv-x="1486" 
d="M1223 846v-465v-4q0 -61 37 -82q38 -21 104 -21h47v-274h-147q-122 0 -215 37t-150 115q-55 76 -55 186v4v504h-242v-846h-379v846h-184v274h1370v-274h-186z" />
    <glyph glyph-name="uni0E3F" unicode="&#xe3f;" horiz-adv-x="1468" 
d="M1257 152l-4 -7q-115 -106 -342 -141v-280h-379v268h-376v1556h376v258h379v-270q143 -21 238 -80t141 -137q47 -80 47 -176q0 -152 -104 -240q-107 -90 -268 -117q113 -9 206 -53q92 -44 148 -121q55 -76 55 -184q0 -168 -117 -276zM745 918h5q89 0 141 43q53 44 53 120
q0 73 -55 119q-54 45 -144 45h-204v-327h204zM745 295v-2q111 0 175 49q63 48 63 129q0 83 -63 131q-64 49 -175 49h-200v-356h200z" />
    <glyph glyph-name="Wgrave" unicode="&#x1e80;" horiz-adv-x="2363" 
d="M1716 111l240 1445h371l-271 -1556h-694l-180 1442l-181 -1442h-694l-270 1556h371l239 -1445l191 1445h688zM1368 1667h-373l-401 309h530z" />
    <glyph glyph-name="wgrave" unicode="&#x1e81;" horiz-adv-x="1914" 
d="M1386 96l148 1024h338l-170 -1120h-635l-109 1024l-110 -1024h-635l-170 1120h340l145 -1024l117 1024h625zM1124 1229h-352l-383 327h510z" />
    <glyph glyph-name="Wacute" unicode="&#x1e82;" horiz-adv-x="2363" 
d="M1716 111l240 1445h371l-271 -1556h-694l-180 1442l-181 -1442h-694l-270 1556h371l239 -1445l191 1445h688zM1356 1667h-375l244 309h530z" />
    <glyph glyph-name="wacute" unicode="&#x1e83;" horiz-adv-x="1914" 
d="M1386 96l148 1024h338l-170 -1120h-635l-109 1024l-110 -1024h-635l-170 1120h340l145 -1024l117 1024h625zM1126 1229h-354l225 327h510z" />
    <glyph glyph-name="Wdieresis" unicode="&#x1e84;" horiz-adv-x="2363" 
d="M1716 111l240 1445h371l-271 -1556h-694l-180 1442l-181 -1442h-694l-270 1556h371l239 -1445l191 1445h688zM1124 1667h-399v309h399v-309zM1640 1667h-399v309h399v-309z" />
    <glyph glyph-name="wdieresis" unicode="&#x1e85;" horiz-adv-x="1914" 
d="M1386 96l148 1024h338l-170 -1120h-635l-109 1024l-110 -1024h-635l-170 1120h340l145 -1024l117 1024h625zM895 1245h-387v311h387v-311zM1407 1245h-387v311h387v-311z" />
    <glyph glyph-name="uni1E9E" unicode="&#x1e9e;" horiz-adv-x="1611" 
d="M1135 891h-2q121 -21 213 -80q94 -60 145 -149q53 -92 53 -209q0 -156 -67 -263t-191 -163t-287 -56q-79 0 -149 13q-57 11 -129 34v275q73 -29 94 -35q43 -12 100 -12q105 0 166 55q62 56 62 152q0 100 -86 153t-226 53h-55v302l283 274h-527v-1235h-391v1556h1291v-380
z" />
    <glyph glyph-name="uni1EA0" unicode="&#x1ea0;" horiz-adv-x="1660" 
d="M1667 0h-410l-114 389h-627l-115 -389h-407l491 1556h691zM829 1456l-219 -745h439zM1028 -422h-399v309h399v-309z" />
    <glyph glyph-name="uni1EA1" unicode="&#x1ea1;" horiz-adv-x="1300" 
d="M948 1092l-8 -2q122 -55 186 -156t64 -240v-4v-692h-373v195q-50 -102 -137 -160q-91 -60 -227 -60q-111 0 -203 47q-91 46 -144 130q-51 80 -51 190q0 176 129 252q130 77 338 98l291 29v8v4q0 75 -43 121q-44 47 -123 47q-72 0 -115 -37q-44 -38 -53 -88h-379
q15 121 88 203q75 84 193 127q119 43 270 43q175 0 297 -55zM715 227l-6 -4q48 39 71 101q25 67 25 143v25l-154 -17q-101 -9 -157 -39t-56 -100q0 -68 45 -107t117 -39q69 0 115 37zM856 -430h-387v311h387v-311z" />
    <glyph glyph-name="uni1EB8" unicode="&#x1eb8;" horiz-adv-x="1361" 
d="M532 635v-313h736v-322h-1127v1556h1108v-321h-717v-279h703v-321h-703zM909 -422h-399v309h399v-309z" />
    <glyph glyph-name="uni1EB9" unicode="&#x1eb9;" horiz-adv-x="1298" 
d="M1231 446l-782 -2q18 -112 71 -168q52 -55 133 -55q71 0 111 27q39 26 67 86h379q-59 -178 -204 -268q-149 -93 -359 -93q-174 0 -307 74q-134 74 -207 209q-74 136 -74 307q0 172 74 305q74 134 209 207q136 74 307 74q183 0 314 -76t202 -215q72 -141 72 -315
q0 -45 -6 -97zM522 842l-4 -4q-55 -51 -72 -156h400q-12 97 -66 154q-52 55 -129 55t-129 -49zM848 -430h-387v311h387v-311z" />
    <glyph glyph-name="uni1EBC" unicode="&#x1ebc;" horiz-adv-x="1361" 
d="M532 635v-313h736v-322h-1127v1556h1108v-321h-717v-279h703v-321h-703zM303 1677h8q3 160 66 244t170 84q45 0 92 -12q33 -8 80 -29q73 -33 129 -33q45 0 78 23q32 23 41 59h123q-3 -161 -64 -246q-62 -86 -170 -86q-38 0 -92 13q-41 10 -86 28q-62 33 -129 33
q-44 0 -80 -22q-34 -21 -43 -56h-123z" />
    <glyph glyph-name="uni1EBD" unicode="&#x1ebd;" horiz-adv-x="1298" 
d="M1231 446l-782 -2q18 -112 71 -168q52 -55 133 -55q71 0 111 27q39 26 67 86h379q-59 -178 -204 -268q-149 -93 -359 -93q-174 0 -307 74q-134 74 -207 209q-74 136 -74 307q0 172 74 305q74 134 209 207q136 74 307 74q183 0 314 -76t202 -215q72 -141 72 -315
q0 -45 -6 -97zM522 842l-4 -4q-55 -51 -72 -156h400q-12 97 -66 154q-52 55 -129 55t-129 -49zM274 1239v-4q3 161 62 244q60 84 160 84q42 0 86 -15q39 -13 77 -30q70 -33 123 -33q46 0 76 24q32 26 41 62h115q-3 -157 -62 -240q-60 -84 -159 -84q-43 0 -86 15t-78 30
q-62 33 -123 33q-45 0 -76 -25q-30 -24 -39 -61h-117z" />
    <glyph glyph-name="uni1ECA" unicode="&#x1eca;" horiz-adv-x="675" 
d="M532 0h-391v1556h391v-1556zM537 -422h-400v309h400v-309z" />
    <glyph glyph-name="uni1ECB" unicode="&#x1ecb;" horiz-adv-x="610" 
d="M496 0h-379v1120h379v-1120zM498 1245h-387v311h387v-311zM500 -422h-387v311h387v-311z" />
    <glyph glyph-name="uni1ECC" unicode="&#x1ecc;" horiz-adv-x="1740" 
d="M453 72h-7q-180 98 -282 280q-101 180 -101 424q0 241 103 424t283 281t417 98q236 0 416 -98t283 -281q102 -182 102 -424q0 -246 -100 -424q-102 -181 -283 -280q-182 -99 -414 -99q-236 0 -417 99zM1071 336l-2 -4q91 63 139 174q49 113 49 268t-49 268
q-49 112 -139 175q-88 61 -209 61t-209 -61q-87 -61 -137 -175q-49 -113 -49 -266t49 -266q48 -111 139 -174q89 -62 209 -62t209 62zM1059 -428h-400v309h400v-309z" />
    <glyph glyph-name="uni1ECD" unicode="&#x1ecd;" horiz-adv-x="1333" 
d="M346 47v-2q-136 72 -211 207q-74 133 -74 301q0 169 74 305t211 209q139 74 322 74q182 0 321 -74q137 -73 211 -209t74 -303q0 -168 -74 -301q-75 -135 -211 -207q-139 -74 -321 -74q-183 0 -322 74zM831 309v-2q56 89 56 246q0 159 -56 248q-55 88 -163 88
q-109 0 -164 -88t-55 -246t55 -246t164 -88q108 0 163 88zM860 -428h-387v311h387v-311z" />
    <glyph glyph-name="uni1EE4" unicode="&#x1ee4;" horiz-adv-x="1591" 
d="M127 623l-4 2v929h391v-970v-4q0 -150 72 -228t209 -78q138 0 209 80q69 78 69 232v970h391v-929q0 -654 -667 -654q-670 0 -670 650zM991 -424h-399v309h399v-309z" />
    <glyph glyph-name="uni1EE5" unicode="&#x1ee5;" horiz-adv-x="1312" 
d="M817 1120l379 -6v-1120h-373v217q-89 -244 -356 -244q-189 0 -274 117q-87 119 -87 315v4v713h379v-622v-5q0 -130 41 -192q40 -61 123 -61q86 0 127 65t41 197v622zM852 -428h-387v311h387v-311z" />
    <glyph glyph-name="Ygrave" unicode="&#x1ef2;" horiz-adv-x="1480" 
d="M1069 1556h442l-575 -948v-608h-391v608l-576 948h443l329 -579zM965 1667h-373l-402 309h531z" />
    <glyph glyph-name="ygrave" unicode="&#x1ef3;" horiz-adv-x="1280" 
d="M631 209l233 911h400l-402 -1521h-387l131 512h-305l-295 1009h377zM823 1229h-352l-383 327h510z" />
    <glyph glyph-name="uni1EF8" unicode="&#x1ef8;" horiz-adv-x="1480" 
d="M1069 1556h442l-575 -948v-608h-391v608l-576 948h443l329 -579zM348 1677h8q3 160 66 244t170 84q46 0 92 -12q33 -8 80 -29q73 -33 129 -33q45 0 78 23q32 23 41 59h123q-3 -161 -64 -246q-62 -86 -170 -86q-38 0 -92 13q-41 10 -86 28q-62 33 -129 33q-44 0 -80 -22
q-34 -21 -43 -56h-123z" />
    <glyph glyph-name="uni1EF9" unicode="&#x1ef9;" horiz-adv-x="1280" 
d="M631 209l233 911h400l-402 -1521h-387l131 512h-305l-295 1009h377zM252 1247v-4q3 162 61 244q60 84 160 84q43 0 86 -15t78 -30q70 -33 123 -33q45 0 76 25q33 26 41 61h114q-3 -158 -61 -240q-60 -84 -160 -84q-42 0 -86 15t-78 30q-62 33 -123 33q-45 0 -75 -24
t-39 -62h-117z" />
    <glyph glyph-name="uni2009" unicode="&#x2009;" horiz-adv-x="256" 
 />
    <glyph glyph-name="uni2011" unicode="&#x2011;" horiz-adv-x="909" 
d="M803 432h-694v311h694v-311z" />
    <glyph glyph-name="endash" unicode="&#x2013;" horiz-adv-x="1140" 
d="M1032 432h-923v311h923v-311z" />
    <glyph glyph-name="emdash" unicode="&#x2014;" horiz-adv-x="1755" 
d="M1649 432h-1540v311h1540v-311z" />
    <glyph glyph-name="quoteleft" unicode="&#x2018;" horiz-adv-x="589" 
d="M254 1556h246l-142 -294h129v-353h-395v396z" />
    <glyph glyph-name="quoteright" unicode="&#x2019;" horiz-adv-x="577" 
d="M106 1204v352h396v-395l-162 -252h-246l142 295h-130z" />
    <glyph glyph-name="quotesinglbase" unicode="&#x201a;" horiz-adv-x="632" 
d="M119 0v352h395v-395l-162 -252h-246l142 295h-129z" />
    <glyph glyph-name="quotedblleft" unicode="&#x201c;" horiz-adv-x="1093" 
d="M78 1305l162 251h245l-141 -294h129v-353h-395v396zM745 1556h246l-141 -294h129v-353h-397v396z" />
    <glyph glyph-name="quotedblright" unicode="&#x201d;" horiz-adv-x="1083" 
d="M627 1204v352h395v-395l-162 -252h-246l142 295h-129zM121 1204v352h395v-395l-162 -252h-245l141 295h-129z" />
    <glyph glyph-name="quotedblbase" unicode="&#x201e;" horiz-adv-x="1138" 
d="M625 0v352h395v-395l-162 -252h-246l142 295h-129zM119 0v352h395v-395l-162 -252h-246l142 295h-129z" />
    <glyph glyph-name="dagger" unicode="&#x2020;" horiz-adv-x="1257" 
d="M817 1182h336v-308h-336v-874h-379v874h-332v308h332v374h379v-374z" />
    <glyph glyph-name="daggerdbl" unicode="&#x2021;" horiz-adv-x="1257" 
d="M1153 1182v-308h-336v-178h336v-307h-336v-389h-379v389h-334v307h334v178h-332v308h332v374h379v-374h336z" />
    <glyph glyph-name="bullet" unicode="&#x2022;" horiz-adv-x="1021" 
d="M326 266q-83 50 -133 133t-50 185q0 101 50 184t133 133q82 49 184 49t184 -49q83 -50 133 -133t50 -184q0 -102 -50 -185t-133 -133q-82 -49 -184 -49t-184 49z" />
    <glyph glyph-name="ellipsis" unicode="&#x2026;" horiz-adv-x="1900" 
d="M514 0h-395v352h395v-352zM1147 0h-395v352h395v-352zM1782 0h-396v352h396v-352z" />
    <glyph glyph-name="perthousand" unicode="&#x2030;" horiz-adv-x="2514" 
d="M782 897l-4 -4q-45 -96 -133 -150q-83 -51 -207 -51t-207 51q-87 53 -133 152q-45 96 -45 244q0 141 47 241q45 96 133 150q83 51 207 51t207 -51q88 -54 133 -150q47 -100 47 -241q0 -146 -45 -242zM389 -6l893 1556h330l-891 -1556h-332zM348 948l-4 2q26 -57 86 -57
t86 57q29 63 29 187q0 129 -27 184t-86 55q-60 0 -86 -57q-27 -59 -27 -184q0 -124 29 -187zM2269 805l-4 -8q88 -54 133 -150q47 -100 47 -241q0 -214 -102 -328q-101 -113 -283 -113q-74 0 -141 31q-64 30 -111 86q-48 -57 -110 -86q-67 -31 -142 -31q-179 0 -282 115
t-103 330q0 141 48 243q46 99 133 152q83 51 207 51q74 0 141 -31q62 -29 110 -86q47 56 111 86q67 31 141 31q124 0 207 -51zM1642 217h-4q29 60 29 184q0 129 -27 187q-26 57 -86 57t-86 -57q-26 -56 -26 -187q0 -126 28 -184q27 -55 86 -55t86 55zM2140 217h-4
q27 55 27 184t-27 187q-26 57 -86 57t-86 -57q-27 -58 -27 -187q0 -124 29 -184q27 -55 86 -55q61 0 88 55z" />
    <glyph glyph-name="minute" unicode="&#x2032;" horiz-adv-x="579" 
d="M373 932h-295l80 624h395z" />
    <glyph glyph-name="second" unicode="&#x2033;" horiz-adv-x="1056" 
d="M373 932h-295l80 624h395zM848 932h-295l80 624h395z" />
    <glyph glyph-name="guilsinglleft" unicode="&#x2039;" horiz-adv-x="899" 
d="M377 1018h448l-307 -449l307 -471h-448l-299 471z" />
    <glyph glyph-name="guilsinglright" unicode="&#x203a;" horiz-adv-x="899" 
d="M74 1018h448l299 -449l-299 -471h-448l305 471z" />
    <glyph glyph-name="uni2042" unicode="&#x2042;" horiz-adv-x="1744" 
d="M1204 1413l72 -207l-217 -69l143 -191l-180 -133l-148 195l-149 -195l-182 133l145 191l-217 69l72 207l215 -70v213h229v-213zM723 584l72 -207l-217 -70l143 -190l-180 -133l-148 194l-149 -194l-183 133l146 190l-217 70l71 207l215 -70v213h230v-213zM1686 584
l71 -207l-217 -70l143 -190l-180 -133l-147 194l-150 -194l-182 133l145 190l-217 70l72 207l215 -70v213h229v-213z" />
    <glyph glyph-name="fraction" unicode="&#x2044;" horiz-adv-x="454" 
d="M-104 0h-304l967 1556h303z" />
    <glyph glyph-name="uni2070" unicode="&#x2070;" horiz-adv-x="776" 
d="M131 1079q-90 104 -90 301t90 301q89 103 256 103q169 0 258 -103q90 -104 90 -301t-90 -301q-89 -102 -258 -102q-167 0 -256 102zM471 1208h-2q25 58 25 172t-25 172q-24 56 -84 56q-58 0 -82 -56t-24 -172t24 -172q24 -55 84 -55t84 55z" />
    <glyph glyph-name="uni2074" unicode="&#x2074;" horiz-adv-x="770" 
d="M633 1352h102v-185h-102v-176h-234v176h-366v234l174 368h426v-417zM399 1698l-166 -346h166v346z" />
    <glyph glyph-name="uni2075" unicode="&#x2075;" horiz-adv-x="755" 
d="M594 1493h-8q57 -29 92 -92q35 -62 35 -148q0 -89 -43 -153q-43 -63 -121 -94q-79 -31 -172 -31q-92 0 -168 31q-73 30 -121 90q-45 56 -51 141h242q3 -38 28 -63t68 -25q45 0 74 29q28 28 28 73q0 48 -26 74q-27 27 -74 27q-36 0 -60 -15q-25 -16 -34 -43l-234 21
l39 454h576v-184h-359l-14 -172q21 51 67 80q48 31 111 31q65 0 125 -31z" />
    <glyph glyph-name="uni2076" unicode="&#x2076;" horiz-adv-x="778" 
d="M606 1479l-4 -6q59 -29 96 -91q35 -59 35 -139q0 -78 -43 -139q-42 -59 -121 -98q-75 -37 -178 -37q-165 0 -258 100q-96 104 -96 303q0 136 45 225q48 94 125 136q79 43 184 43q93 0 166 -31q71 -30 111 -82q41 -53 53 -117h-240q-10 27 -30 41q-24 17 -52 17
q-64 0 -98 -64t-31 -154q15 49 68 87q50 36 123 36q83 0 145 -30zM465 1171v-4q31 28 31 68q0 42 -29 68q-27 24 -80 24q-50 0 -80 -24q-31 -25 -31 -64t29 -68q26 -26 80 -26q51 0 80 26z" />
    <glyph glyph-name="uni2077" unicode="&#x2077;" horiz-adv-x="630" 
d="M27 1585v184h573v-233l-272 -545h-283l326 594h-344z" />
    <glyph glyph-name="uni2078" unicode="&#x2078;" horiz-adv-x="784" 
d="M688 1333l-8 -6q59 -50 59 -125q0 -69 -43 -121q-44 -53 -123 -80q-82 -28 -188 -28t-188 28q-79 27 -123 80q-43 52 -43 121q0 79 57 127q59 50 150 62q-88 22 -136 67q-49 46 -49 117q0 64 43 113t119 73q80 25 172 25t172 -25q74 -23 119 -71q43 -46 43 -111
q0 -71 -49 -117t-135 -67q92 -12 151 -62zM309 1581h8q-26 -17 -26 -47q0 -31 24 -49q25 -19 72 -19t72 19q24 18 24 49q0 30 -26 47q-27 18 -74 18t-74 -18zM473 1167l-2 -2q33 20 33 56q0 37 -33 57t-86 20t-82 -20q-31 -22 -31 -57q0 -34 31 -56q29 -20 84 -20
q50 0 86 22z" />
    <glyph glyph-name="uni2079" unicode="&#x2079;" horiz-adv-x="778" 
d="M641 1683h-2q96 -104 96 -303q0 -134 -45 -223q-47 -92 -125 -135q-79 -43 -184 -43q-93 0 -166 31q-69 29 -111 84q-40 52 -49 116h238q9 -27 31 -43q20 -14 51 -14q63 0 98 66q34 64 31 153q-14 -48 -68 -86q-52 -37 -123 -37q-77 0 -141 31q-60 29 -96 90
q-35 59 -35 139q0 79 43 140q42 59 121 98q75 37 178 37q164 0 258 -101zM463 1446q31 25 31 65q0 39 -29 68t-80 29q-50 0 -80 -27q-31 -28 -31 -68q0 -41 29 -67q28 -25 80 -25q49 0 80 25z" />
    <glyph glyph-name="uni207A" unicode="&#x207a;" horiz-adv-x="671" 
d="M424 1454h194v-170h-194v-201h-176v201h-195v170h195v197h176v-197z" />
    <glyph glyph-name="uni207B" unicode="&#x207b;" horiz-adv-x="632" 
d="M569 1284h-506v170h506v-170z" />
    <glyph glyph-name="uni207C" unicode="&#x207c;" horiz-adv-x="686" 
d="M618 1401h-550v172h550v-172zM618 1167h-550v170h550v-170z" />
    <glyph glyph-name="uni207D" unicode="&#x207d;" horiz-adv-x="487" 
d="M221 885h2q-162 241 -162 493q0 142 43 258q44 117 117 228h232q-73 -115 -115 -228q-43 -116 -43 -258q0 -253 158 -493h-232z" />
    <glyph glyph-name="uni207E" unicode="&#x207e;" horiz-adv-x="487" 
d="M35 885v2q74 113 115 227q43 119 43 264q0 139 -43 258q-42 117 -115 228h231q70 -111 117 -228q45 -113 45 -258q0 -252 -162 -493h-231z" />
    <glyph glyph-name="uni2080" unicode="&#x2080;" horiz-adv-x="776" 
d="M131 -145q-90 104 -90 301t90 301q89 102 256 102q169 0 258 -102q90 -104 90 -301t-90 -301q-89 -103 -258 -103q-167 0 -256 103zM471 -16h-2q25 58 25 172t-25 172q-24 55 -84 55q-58 0 -82 -55q-24 -56 -24 -172t24 -172t84 -56t84 56z" />
    <glyph glyph-name="uni2081" unicode="&#x2081;" horiz-adv-x="493" 
d="M231 545h187v-778h-234v479h-170v184h21q82 0 127 25q44 24 65 77z" />
    <glyph glyph-name="uni2082" unicode="&#x2082;" horiz-adv-x="739" 
d="M317 -49l375 -6v-185h-651v234l350 246q32 25 41 36q12 15 12 37q0 28 -20 45q-22 19 -57 19q-39 0 -62 -23q-21 -21 -24 -55h-240q3 77 45 133q42 57 117 92q70 33 162 33q94 0 170 -31q71 -29 112 -82q39 -51 39 -122q0 -66 -35 -119q-35 -54 -104 -99z" />
    <glyph glyph-name="uni2083" unicode="&#x2083;" horiz-adv-x="733" 
d="M631 111l-2 -5q61 -46 61 -131q0 -107 -88 -165q-91 -60 -246 -60q-152 0 -239 72q-85 70 -94 190h239q3 -38 25 -63t67 -25q41 0 68 21q29 23 29 55q0 76 -142 76h-59v180h59q62 0 92 18q31 19 31 50q0 27 -20 41q-22 16 -56 16t-55 -21q-22 -22 -25 -51h-237
q3 71 47 127t115 86q73 31 157 31q91 0 164 -25q70 -24 111 -71t41 -109q0 -81 -53 -125q-50 -41 -148 -57q98 -9 158 -55z" />
    <glyph glyph-name="uni2084" unicode="&#x2084;" horiz-adv-x="770" 
d="M633 127h102v-184h-102v-176h-234v176h-366v233l174 369h426v-418zM399 473l-166 -346h166v346z" />
    <glyph glyph-name="uni2085" unicode="&#x2085;" horiz-adv-x="755" 
d="M594 268h-8q57 -29 92 -92q35 -62 35 -147q0 -90 -43 -154q-43 -63 -121 -94q-79 -31 -172 -31q-92 0 -168 31q-73 30 -121 90q-45 56 -51 141h242q3 -38 28 -63t68 -25q45 0 74 29q28 28 28 74q0 47 -26 73q-27 27 -74 27q-38 0 -60 -14q-25 -16 -34 -43l-234 20l39 455
h576v-185h-359l-14 -172q21 51 67 80q48 31 111 31q65 0 125 -31z" />
    <glyph glyph-name="uni2086" unicode="&#x2086;" horiz-adv-x="778" 
d="M606 254l-4 -6q60 -29 96 -90q35 -59 35 -140q0 -78 -43 -139q-42 -59 -121 -98q-75 -37 -178 -37q-165 0 -258 100q-96 104 -96 303q0 137 45 226q47 92 125 135q79 43 184 43q93 0 166 -31q71 -30 111 -82q41 -54 53 -116h-240q-10 25 -30 40q-24 17 -52 17
q-64 0 -98 -64t-31 -153q14 48 68 86q52 37 123 37q81 0 145 -31zM465 -53v-4q31 28 31 67q0 42 -29 68q-27 24 -80 24q-50 0 -80 -24q-31 -25 -31 -64q0 -38 29 -67q27 -27 80 -27q50 0 80 27z" />
    <glyph glyph-name="uni2087" unicode="&#x2087;" horiz-adv-x="630" 
d="M27 360v185h573v-234l-272 -544h-283l326 593h-344z" />
    <glyph glyph-name="uni2088" unicode="&#x2088;" horiz-adv-x="784" 
d="M688 109l-8 -7q59 -50 59 -125q0 -68 -43 -120q-44 -53 -123 -80q-85 -29 -188 -29t-188 29q-79 27 -123 80q-43 52 -43 120q0 79 57 127q59 50 150 62q-88 22 -136 67q-49 46 -49 117q0 64 43 113q44 51 119 74q76 24 172 24q95 0 172 -24q73 -23 119 -72
q43 -46 43 -111q0 -70 -49 -116q-50 -47 -135 -68q93 -12 151 -61zM309 356h8q-26 -17 -26 -47q0 -31 24 -49t72 -18t72 18t24 49q0 30 -26 47q-29 19 -74 19t-74 -19zM473 -57l-2 -2q33 20 33 55q0 37 -33 57q-35 21 -86 21q-52 0 -82 -21q-31 -22 -31 -57q0 -33 31 -55
q30 -21 84 -21q48 0 86 23z" />
    <glyph glyph-name="uni2089" unicode="&#x2089;" horiz-adv-x="778" 
d="M641 459h-2q96 -104 96 -303q0 -135 -45 -224q-47 -92 -125 -135q-79 -43 -184 -43q-93 0 -166 31q-69 29 -111 84q-40 52 -49 117h238q9 -27 31 -43q21 -15 51 -15q63 0 98 66q34 64 31 153q-14 -48 -68 -86q-50 -36 -123 -36q-79 0 -141 30q-60 29 -96 90
q-35 59 -35 140q0 78 43 139q42 59 121 98q75 37 178 37q165 0 258 -100zM463 221q31 25 31 66q0 38 -29 67t-80 29q-50 0 -80 -27q-31 -28 -31 -67q0 -42 29 -68q27 -24 80 -24q50 0 80 24z" />
    <glyph glyph-name="uni208A" unicode="&#x208a;" horiz-adv-x="671" 
d="M424 231h194v-170h-194v-200h-176v200h-195v170h195v197h176v-197z" />
    <glyph glyph-name="uni208B" unicode="&#x208b;" horiz-adv-x="632" 
d="M569 61h-506v170h506v-170z" />
    <glyph glyph-name="uni208C" unicode="&#x208c;" horiz-adv-x="686" 
d="M618 178h-550v172h550v-172zM618 -55h-550v170h550v-170z" />
    <glyph glyph-name="uni208D" unicode="&#x208d;" horiz-adv-x="487" 
d="M219 -338h2q-162 241 -162 494q0 142 43 258q43 115 117 227h232q-74 -116 -115 -227q-43 -116 -43 -258q0 -254 158 -494h-232z" />
    <glyph glyph-name="uni208E" unicode="&#x208e;" horiz-adv-x="487" 
d="M37 -338v2q74 113 115 227q43 119 43 265q0 139 -43 258q-41 114 -115 227h231q72 -113 117 -227q45 -113 45 -258q0 -253 -162 -494h-231z" />
    <glyph glyph-name="uni20A9" unicode="&#x20a9;" horiz-adv-x="2097" 
d="M2015 1104v-266h-235l-11 -140h199v-266h-221l-37 -432h-547l-112 1501l-113 -1501h-547l-37 432h-225v266h203l-10 140h-240v266h217l-39 452h299l117 -1490l119 1490h512l118 -1490l117 1490h299l-39 -452h213z" />
    <glyph glyph-name="Euro" unicode="&#x20ac;" horiz-adv-x="1718" 
d="M1630 444h12q-77 -232 -241 -350q-168 -121 -395 -121q-160 0 -301 66q-138 65 -236 186q-97 121 -141 291h-246l74 211h141q-2 12 -2 53v49h-189l74 211h146q42 165 139 291q95 124 231 189t295 65q152 0 277 -55q129 -57 219 -160q91 -104 141 -250h-393
q-36 85 -98 133q-65 50 -150 50q-100 0 -168 -68q-67 -67 -102 -195h555l-76 -211h-508v-49q0 -43 2 -53h471l-76 -211h-366q34 -125 104 -192q71 -68 172 -68q81 0 142 49q58 46 100 139h393z" />
    <glyph glyph-name="uni20B8" unicode="&#x20b8;" horiz-adv-x="1341" 
d="M61 1290v266h1219v-266h-1219zM477 913h-416v265h1219v-265h-416v-913h-387v913z" />
    <glyph glyph-name="uni20B9" unicode="&#x20b9;" horiz-adv-x="1456" 
d="M1384 1290l-305 2q31 -61 43 -135h258v-266h-295q-58 -129 -196 -199q-139 -71 -332 -80l741 -612h-557l-628 541v381h405q103 0 158 43t55 120q0 78 -55 121t-156 43h-405v307h1269v-266z" />
    <glyph glyph-name="uni20BA" unicode="&#x20ba;" horiz-adv-x="1513" 
d="M1448 647v-2q0 -335 -170 -491t-504 -156h-508v508l-153 -47v266l153 47v117l-153 -47v266l153 47v399h385v-282l381 117v-267l-381 -116v-115l381 117v-267l-381 -116v-320h94q117 0 187 37t100 111q31 76 31 194h385z" />
    <glyph glyph-name="uni20BD" unicode="&#x20bd;" horiz-adv-x="1572" 
d="M670 612v-112h360v-267h-360v-233h-387v233h-174v267h174v112h-174v267h174v677h546q323 0 494 -122q172 -123 172 -357q0 -231 -172 -348q-173 -117 -494 -117h-159zM670 1249l-2 -372h176q125 0 190 47q66 48 66 139q0 93 -64 139q-65 47 -190 47h-176z" />
    <glyph glyph-name="uni20BF" unicode="&#x20bf;" horiz-adv-x="1460" 
d="M1294 195l2 -7q-77 -96 -229 -149v-313h-326v268h-10h-78v-268h-325v268h-168v1556h168v258h325v-258h82h6v258h326v-309q135 -52 203 -145q67 -91 67 -209q0 -152 -104 -240q-107 -90 -268 -117q113 -9 206 -53q92 -44 148 -121q55 -76 55 -184q0 -135 -80 -235z
M543 1247l4 -327h207q89 0 141 43q53 44 53 120q0 73 -55 119q-54 45 -143 45h-207zM547 297l203 -2q110 0 174 49q63 48 63 129q0 83 -63 131q-64 49 -174 49h-203v-356z" />
    <glyph glyph-name="uni2113" unicode="&#x2113;" horiz-adv-x="1255" 
d="M668 565v-215v-4q0 -66 37 -96q39 -31 110 -31q118 0 234 72v-242q-84 -43 -162 -61q-81 -19 -172 -19q-203 0 -314 97q-106 93 -112 276l-105 -61l-129 219l234 137v500q0 126 55 227t164 160t258 59q157 0 256 -51q101 -52 147 -137q48 -88 48 -195q0 -169 -105 -301
q-104 -131 -307 -254zM700 1278l-2 -2q-32 -43 -32 -131v-283q98 74 157 158q56 80 56 166q0 66 -25 102q-24 35 -72 35q-49 0 -82 -45z" />
    <glyph glyph-name="uni2116" unicode="&#x2116;" horiz-adv-x="2729" 
d="M2478 1532q97 -48 150 -141q51 -89 51 -209q0 -121 -51 -207q-54 -91 -150 -139q-100 -50 -227 -50q-128 0 -228 50q-95 47 -149 139q-51 86 -51 207q0 120 51 209q54 93 149 141q98 49 228 49q129 0 227 -49zM903 1554l402 -1452v1452h389v-1556h-742l-401 1452v-1452
h-389v1556h741zM2337 1036q30 52 30 148q0 94 -30 147q-29 51 -88 51t-88 -51q-31 -54 -31 -147q0 -94 31 -148q29 -51 88 -51t88 51z" />
    <glyph glyph-name="uni2117" unicode="&#x2117;" horiz-adv-x="1873" 
d="M1360 1505l-4 -8q193 -114 307 -307q115 -195 115 -420q0 -228 -113 -420q-114 -193 -307 -307q-192 -113 -424 -113q-229 0 -424 115q-193 114 -307 307q-113 192 -113 422q0 227 115 422q114 193 307 307q195 115 424 115q232 0 424 -113zM1255 213l-2 -2
q149 87 234 233q86 148 86 322q0 176 -86 324q-85 146 -234 233q-148 86 -321 86q-174 0 -322 -86q-147 -86 -233 -233q-86 -148 -86 -322t86 -322q86 -147 233 -233q148 -86 324 -86q173 0 321 86zM1001 1217h-2q125 0 207 -39q86 -40 129 -111q43 -70 43 -162t-43 -162
q-43 -69 -129 -110q-82 -39 -205 -39h-131v-285h-264v908h395zM983 809q57 0 88 25t31 71q0 47 -31 72q-30 24 -88 24h-115v-192h115z" />
    <glyph glyph-name="uni2120" unicode="&#x2120;" horiz-adv-x="1984" 
d="M590 1257l-19 -4q215 -47 215 -237q0 -123 -96 -189q-95 -65 -258 -65q-97 0 -176 31q-76 30 -125 88q-48 57 -57 137h248q21 -88 129 -88q50 0 79 16t29 43t-29 43q-32 18 -84 29l-124 24q-228 47 -228 234q0 74 43 129q45 57 119 86q79 31 172 31q159 0 244 -64
q87 -66 108 -166h-248q-9 28 -36 43q-31 17 -68 17q-41 0 -68 -15q-26 -14 -26 -37q0 -15 12 -24q14 -11 39 -19q26 -9 80 -18zM1835 1552v-778h-225v705l-99 -705h-356l-96 690v-690h-225v778h415l84 -649l82 649h420z" />
    <glyph glyph-name="trademark" unicode="&#x2122;" horiz-adv-x="1910" 
d="M272 1352h-215v204h678v-204h-215v-574h-248v574zM1778 1556v-778h-224v707l-100 -707h-354l-99 705v-705h-223v778h416l84 -649l82 649h418z" />
    <glyph glyph-name="uni2150" unicode="&#x2150;" horiz-adv-x="1665" 
d="M1032 594v184h574v-233l-273 -545h-282l325 594h-344zM274 1556h187v-778h-234v479h-170v185h21q84 0 127 24t65 78zM428 0h-303l967 1556h303z" />
    <glyph glyph-name="uni2151" unicode="&#x2151;" horiz-adv-x="1701" 
d="M1554 692h-2q97 -105 97 -303q0 -134 -45 -223q-47 -92 -125 -135q-79 -43 -185 -43q-96 0 -166 30q-67 29 -110 84q-40 52 -49 117h237q9 -27 31 -43q20 -14 51 -14q63 0 98 65q34 64 31 154q-15 -49 -67 -86t-123 -37q-78 0 -142 31q-60 29 -96 90q-35 59 -35 139
q0 78 43 139t121 99q75 37 178 37q164 0 258 -101zM1376 455q31 25 31 65q0 39 -29 68q-28 28 -80 28q-50 0 -79 -26q-31 -28 -31 -68q0 -41 29 -67q28 -25 79 -25q49 0 80 25zM270 1554h187v-778h-234v479h-170v185h21q84 0 127 24t65 78zM424 -2h-303l966 1556h304z" />
    <glyph glyph-name="uni2152" unicode="&#x2152;" horiz-adv-x="2234" 
d="M1219 778h186v-778h-234v479h-170v185h21q84 0 127 24t65 78zM1575 88q-90 104 -90 301t90 301q89 103 256 103q169 0 258 -103q90 -104 90 -301t-90 -301q-89 -102 -258 -102q-167 0 -256 102zM1915 217h-2q24 56 24 172q0 117 -24 172t-84 55q-58 0 -82 -55
q-25 -58 -25 -172t25 -172q24 -55 84 -55t84 55zM268 1556h187v-778h-234v479h-170v185h21q84 0 127 24t65 78zM422 0h-303l966 1556h304z" />
    <glyph glyph-name="uni2153" unicode="&#x2153;" horiz-adv-x="1660" 
d="M272 1556h187v-778h-234v479h-170v185h21q84 0 127 24t65 78zM426 0h-303l967 1556h303zM1536 344l-2 -4q61 -46 61 -131q0 -108 -88 -166q-89 -59 -245 -59q-154 0 -240 71q-85 70 -94 191h239q3 -39 25 -64q21 -24 68 -24q41 0 67 20q29 23 29 55q0 76 -142 76h-59v180
h59q61 0 93 19q30 18 30 49q0 27 -20 41q-22 16 -55 16q-36 0 -56 -20q-21 -21 -24 -51h-238q3 71 47 127t115 86q70 30 158 30q92 0 163 -24q69 -23 111 -72q41 -47 41 -108q0 -81 -53 -125q-52 -43 -148 -58q98 -9 158 -55z" />
    <glyph glyph-name="uni2154" unicode="&#x2154;" horiz-adv-x="1888" 
d="M342 963l375 -7v-184h-651v234l350 245q30 23 41 37q12 15 12 37q0 28 -20 45q-22 19 -58 19q-38 0 -61 -23q-22 -22 -25 -55h-239q3 77 45 133q43 58 116 92q70 33 162 33q94 0 170 -31q73 -30 113 -82q39 -51 39 -123q0 -66 -35 -119q-33 -51 -105 -98zM653 -6h-303
l967 1556h303zM1763 338l-2 -4q62 -47 62 -131q0 -108 -88 -166q-91 -60 -246 -60q-153 0 -240 72q-85 70 -94 191h240q3 -40 24 -64t68 -24q41 0 67 20q29 23 29 55q0 76 -141 76h-60v180h60q60 0 92 19q31 19 31 49q0 26 -21 41q-22 16 -55 16q-35 0 -55 -20
q-22 -22 -25 -51h-238q3 70 48 127q44 56 114 86t158 30q93 0 164 -24q67 -23 110 -72q41 -47 41 -109q0 -80 -53 -124q-52 -43 -147 -58q96 -9 157 -55z" />
    <glyph glyph-name="uni2155" unicode="&#x2155;" horiz-adv-x="1732" 
d="M1548 502h-8q57 -29 92 -92q35 -62 35 -148q0 -89 -43 -153q-44 -65 -121 -95t-172 -30t-168 30t-121 90q-45 56 -51 142h242q3 -38 29 -64q24 -24 67 -24q46 0 74 28q29 29 29 74q0 47 -27 74q-26 26 -74 26q-37 0 -59 -14q-26 -16 -35 -43l-233 21l38 454h576v-184
h-358l-15 -172q21 50 68 80t110 30q67 0 125 -30zM264 1556h187v-778h-234v479h-170v185h21q84 0 127 24t65 78zM418 0h-303l966 1556h303z" />
    <glyph glyph-name="uni2156" unicode="&#x2156;" horiz-adv-x="1961" 
d="M344 963l375 -7v-184h-651v234l350 245q30 23 41 37q12 15 12 37q0 28 -20 45q-22 19 -58 19q-38 0 -61 -23q-22 -22 -25 -55h-239q3 77 45 133q43 58 116 92q70 33 162 33q94 0 170 -31q73 -30 113 -82q39 -51 39 -123q0 -66 -35 -119q-33 -51 -105 -98zM655 -6h-303
l967 1556h303zM1776 496h-9q57 -29 93 -93q34 -61 34 -147q0 -90 -43 -154t-120 -94q-79 -31 -172 -31q-92 0 -168 31q-73 30 -121 90q-45 56 -51 142h241q3 -38 29 -64q24 -24 67 -24q46 0 74 28q29 29 29 74q0 47 -27 74q-26 26 -73 26q-38 0 -60 -14q-26 -16 -35 -43
l-233 20l39 455h575v-184h-358l-14 -172q21 51 67 80q46 30 111 30q67 0 125 -30z" />
    <glyph glyph-name="uni2157" unicode="&#x2157;" horiz-adv-x="1896" 
d="M659 1122l-2 -4q62 -47 62 -131q0 -108 -88 -166q-89 -59 -246 -59q-153 0 -240 72q-85 70 -94 190h240q3 -39 24 -63q22 -25 68 -25q42 0 68 20q28 22 28 56q0 75 -141 75h-59v181h59q62 0 92 18q31 19 31 49q0 26 -21 41q-24 17 -55 17q-34 0 -55 -21q-22 -22 -25 -51
h-237q3 71 47 127t114 86q73 31 158 31q91 0 164 -25q69 -23 111 -72q40 -46 40 -108q0 -81 -53 -125q-50 -42 -147 -57q95 -9 157 -56zM588 -6h-303l966 1556h303zM1708 496h-8q56 -29 92 -93q35 -62 35 -147q0 -90 -43 -154q-43 -63 -121 -94q-79 -31 -172 -31
q-92 0 -168 31q-73 30 -121 90q-45 56 -51 142h242q3 -39 28 -64q24 -24 68 -24q46 0 74 28t28 74q0 48 -26 74t-74 26q-37 0 -59 -14q-26 -16 -35 -43l-234 20l39 455h576v-184h-359l-14 -172q21 50 68 80t110 30q67 0 125 -30z" />
    <glyph glyph-name="uni2158" unicode="&#x2158;" horiz-adv-x="1951" 
d="M653 1139h103v-185h-103v-176h-233v176h-367v234l174 368h426v-417zM420 1485l-166 -346h166v346zM645 0h-303l967 1556h303zM1765 502h-8q57 -29 92 -92q35 -62 35 -148q0 -89 -43 -153q-44 -65 -121 -95q-76 -30 -172 -30q-94 0 -168 30q-72 29 -120 90q-46 58 -52 142
h242q3 -38 29 -64q24 -24 67 -24q46 0 74 28q29 29 29 74q0 47 -27 74q-26 26 -74 26q-37 0 -59 -14q-26 -16 -35 -43l-233 21l39 454h575v-184h-358l-15 -172q21 50 68 80q46 30 110 30q66 0 125 -30z" />
    <glyph glyph-name="uni2159" unicode="&#x2159;" horiz-adv-x="1687" 
d="M1499 487l-4 -6q60 -29 96 -90q35 -59 35 -139q0 -78 -43 -139t-121 -99q-75 -37 -178 -37q-164 0 -258 101q-96 104 -96 303q0 136 45 225q47 92 125 135q79 43 184 43q96 0 166 -30q71 -30 111 -82q41 -53 53 -117h-240q-10 26 -31 41q-22 16 -51 16q-64 0 -98 -63
q-34 -64 -31 -154q14 48 68 86q52 37 123 37q81 0 145 -31zM1358 180v-4q31 28 31 68q0 41 -29 67q-28 25 -80 25q-49 0 -80 -25t-31 -63q0 -39 29 -68q26 -26 80 -26q51 0 80 26zM266 1544h187v-778h-234v479h-170v185h21q84 0 127 24t65 78zM420 -12h-303l966 1556h303z
" />
    <glyph glyph-name="uni215A" unicode="&#x215a;" horiz-adv-x="1847" 
d="M610 1280h-8q57 -29 92 -92q35 -62 35 -148q0 -89 -43 -153q-43 -63 -121 -94q-79 -31 -172 -31q-92 0 -168 31q-73 30 -121 90q-45 56 -51 141h242q3 -37 29 -63q25 -25 67 -25q45 0 74 29t29 73q0 47 -27 74t-74 27q-35 0 -59 -15q-26 -16 -35 -43l-233 21l38 454h576
v-184h-358l-15 -172q21 50 68 80q48 31 110 31q65 0 125 -31zM580 0h-304l967 1556h303zM1651 487l-4 -6q60 -29 96 -90q35 -59 35 -139q0 -78 -43 -139t-121 -99q-75 -37 -178 -37q-164 0 -258 101q-97 105 -97 303q0 136 45 225q47 92 125 135q79 43 185 43q96 0 166 -30
t110 -82q41 -53 53 -117h-239q-10 26 -31 41q-22 16 -51 16q-64 0 -98 -63q-34 -64 -31 -154q15 49 67 86t123 37q82 0 146 -31zM1509 180v-4q31 28 31 68q0 41 -29 67q-28 25 -79 25q-49 0 -80 -25t-31 -63q0 -39 29 -68q26 -26 80 -26q50 0 79 26z" />
    <glyph glyph-name="oneeighth" unicode="&#x215b;" horiz-adv-x="1714" 
d="M1602 342l-9 -6q60 -51 60 -125q0 -69 -43 -121q-44 -53 -123 -80q-82 -28 -189 -28q-106 0 -188 28q-79 27 -123 80q-43 52 -43 121q0 79 57 127q58 49 150 61q-85 21 -135 68q-49 46 -49 117q0 63 43 112q45 51 118 74q80 25 172 25q93 0 173 -25q72 -22 118 -72
q43 -46 43 -110q0 -71 -49 -117q-50 -47 -135 -68q95 -12 152 -61zM1223 590h8q-27 -18 -27 -47q0 -30 25 -49t71 -19q47 0 72 19t25 49q0 29 -27 47t-74 18q-46 0 -73 -18zM1386 176l-2 -2q33 20 33 55q0 38 -33 58t-86 20q-52 0 -81 -20q-31 -22 -31 -58q0 -33 31 -55
q29 -20 83 -20q50 0 86 22zM268 1546h187v-778h-234v479h-170v185h21q84 0 127 24t65 78zM422 -10h-303l966 1556h304z" />
    <glyph glyph-name="threeeighths" unicode="&#x215c;" horiz-adv-x="1880" 
d="M659 1122l-2 -4q62 -47 62 -131q0 -108 -88 -166q-89 -59 -246 -59q-153 0 -240 72q-85 70 -94 190h240q3 -39 24 -63q22 -25 68 -25q42 0 68 20q28 22 28 56q0 75 -141 75h-59v181h59q62 0 92 18q31 19 31 49q0 26 -21 41q-24 17 -55 17q-34 0 -55 -21q-22 -22 -25 -51
h-237q3 71 47 127t114 86q73 31 158 31q91 0 164 -25q69 -23 111 -72q40 -46 40 -108q0 -81 -53 -125q-50 -42 -147 -57q95 -9 157 -56zM588 -6h-303l966 1556h303zM1761 336l-8 -6q59 -50 59 -125q0 -69 -43 -121q-44 -54 -122 -80q-85 -29 -189 -29q-103 0 -188 29
q-79 27 -123 80q-43 52 -43 121q0 79 57 127q58 49 150 61q-85 21 -135 68t-50 117q0 63 43 112q44 51 119 74q76 24 172 24t172 -24q73 -23 119 -72q43 -46 43 -110q0 -71 -49 -117q-50 -47 -135 -68q93 -12 151 -61zM1382 584h9q-27 -18 -27 -47q0 -31 25 -50
q24 -18 71 -18q48 0 72 18t24 50q0 30 -26 47q-27 18 -74 18t-74 -18zM1546 170l-2 -2q33 20 33 55q0 38 -33 58t-86 20t-82 -20q-30 -21 -30 -58q0 -34 30 -55t84 -21q48 0 86 23z" />
    <glyph glyph-name="fiveeighths" unicode="&#x215d;" horiz-adv-x="1875" 
d="M610 1280h-8q57 -29 92 -92q35 -62 35 -148q0 -89 -43 -153q-43 -63 -121 -94q-79 -31 -172 -31q-92 0 -168 31q-73 30 -121 90q-45 56 -51 141h242q3 -37 29 -63q25 -25 67 -25q45 0 74 29t29 73q0 47 -27 74t-74 27q-35 0 -59 -15q-26 -16 -35 -43l-233 21l38 454h576
v-184h-358l-15 -172q21 50 68 80q48 31 110 31q65 0 125 -31zM580 0h-304l967 1556h303zM1753 342l-8 -6q59 -50 59 -125q0 -69 -43 -121q-44 -53 -123 -80q-82 -28 -188 -28t-188 28q-79 27 -123 80q-43 52 -43 121q0 79 57 127q58 49 150 61q-86 21 -136 68
q-49 46 -49 117q0 63 43 112q44 51 119 74q80 25 172 25t172 -25q73 -23 119 -72q43 -46 43 -110q0 -71 -49 -117q-50 -47 -135 -68q93 -12 151 -61zM1374 590h8q-26 -17 -26 -47q0 -31 24 -49q25 -19 72 -19t72 19q24 18 24 49q0 30 -26 47q-27 18 -74 18t-74 -18z
M1538 176l-2 -2q33 20 33 55q0 38 -33 58t-86 20t-82 -20q-31 -22 -31 -58q0 -33 31 -55q29 -20 84 -20q50 0 86 22z" />
    <glyph glyph-name="seveneighths" unicode="&#x215e;" horiz-adv-x="1761" 
d="M72 1372v184h573v-233l-272 -545h-283l326 594h-344zM473 0h-303l967 1556h303zM1647 342l-9 -6q60 -51 60 -125q0 -69 -43 -121q-44 -53 -123 -80q-82 -28 -189 -28q-106 0 -188 28q-79 27 -123 80q-43 52 -43 121q0 78 58 127t149 61q-85 21 -135 68q-49 46 -49 117
q0 63 43 112q44 51 119 74q80 25 172 25t172 -25q72 -22 118 -72q43 -46 43 -110q0 -71 -49 -117q-50 -47 -135 -68q95 -12 152 -61zM1268 590h8q-27 -18 -27 -47q0 -30 25 -49t72 -19q46 0 71 19t25 49q0 29 -27 47t-74 18q-46 0 -73 -18zM1432 176l-2 -2q32 19 32 55
q0 39 -32 58q-33 20 -87 20q-52 0 -81 -20q-31 -22 -31 -58q0 -33 31 -55q29 -20 84 -20q50 0 86 22z" />
    <glyph glyph-name="uni215F" unicode="&#x215f;" horiz-adv-x="1464" 
d="M309 1556h187v-778h-234v479h-170v185h21q84 0 127 24t65 78zM463 0h-303l966 1556h304z" />
    <glyph glyph-name="uni2189" unicode="&#x2189;" horiz-adv-x="1824" 
d="M147 866q-90 104 -90 301t90 301q89 103 256 103q170 0 259 -103q90 -104 90 -301t-90 -301q-88 -102 -259 -102q-167 0 -256 102zM487 995h-2q25 58 25 172t-25 172q-24 56 -84 56q-58 0 -82 -56q-24 -55 -24 -172t24 -172t84 -55t84 55zM586 0h-303l966 1556h303z
M1696 344l-2 -4q61 -46 61 -131q0 -108 -88 -166q-89 -59 -246 -59q-153 0 -239 71t-95 191h240q3 -39 25 -64q21 -24 67 -24q42 0 68 20q29 23 29 55q0 76 -142 76h-59v180h59q60 0 92 19q31 19 31 49q0 27 -20 41q-22 16 -56 16q-35 0 -55 -20q-22 -22 -25 -51h-237
q3 71 47 127t115 86q70 30 157 30q93 0 164 -24q69 -23 111 -72q41 -47 41 -108q0 -81 -53 -125q-52 -43 -148 -58q98 -9 158 -55z" />
    <glyph glyph-name="arrowleft" unicode="&#x2190;" horiz-adv-x="1576" 
d="M602 946h897v-336h-895l373 -411h-424l-444 581l444 580h424z" />
    <glyph glyph-name="arrowup" unicode="&#x2191;" horiz-adv-x="1576" 
d="M788 1475l582 -445v-424l-414 371v-895h-335v895l-414 -371v424z" />
    <glyph glyph-name="arrowright" unicode="&#x2192;" horiz-adv-x="1576" 
d="M600 1360h424l446 -580l-446 -581h-424l373 411h-895v336h897z" />
    <glyph glyph-name="arrowdown" unicode="&#x2193;" horiz-adv-x="1576" 
d="M956 1475v-895l414 370v-422l-582 -446l-581 446v422l414 -370v895h335z" />
    <glyph glyph-name="uni2196" unicode="&#x2196;" horiz-adv-x="1576" 
d="M797 1022l653 -653l-233 -234l-654 653v-593l-301 286v842h844l287 -301h-596z" />
    <glyph glyph-name="uni2197" unicode="&#x2197;" horiz-adv-x="1576" 
d="M184 1022l287 301h844v-842l-301 -286v591l-654 -651l-233 234l653 653h-596z" />
    <glyph glyph-name="uni2198" unicode="&#x2198;" horiz-adv-x="1576" 
d="M1014 770v592l301 -287v-842h-844l-287 302h596l-653 653l233 233z" />
    <glyph glyph-name="uni2199" unicode="&#x2199;" horiz-adv-x="1576" 
d="M1217 1421l233 -233l-653 -653h596l-287 -302h-844v842l301 287v-594z" />
    <glyph glyph-name="uni21A4" unicode="&#x21a4;" horiz-adv-x="1576" 
d="M1124 946v414h336v-1163h-336v413h-620l373 -413h-424l-447 581l447 582h424l-373 -414h620z" />
    <glyph glyph-name="uni21A5" unicode="&#x21a5;" horiz-adv-x="1576" 
d="M1370 1161v-422l-414 371v-674h414v-336h-1163v336h414v674l-414 -371v422l581 447z" />
    <glyph glyph-name="uni21A6" unicode="&#x21a6;" horiz-adv-x="1576" 
d="M700 1360h424l447 -582l-447 -581h-424l373 413h-620v-413h-336v1163h336v-414h620z" />
    <glyph glyph-name="uni21A7" unicode="&#x21a7;" horiz-adv-x="1576" 
d="M1370 1456v-336h-414v-674l414 371v-422l-582 -446l-581 446v422l414 -371v674h-414v336h1163z" />
    <glyph glyph-name="uni21B0" unicode="&#x21b0;" horiz-adv-x="1576" 
d="M502 946h925v-946h-335v610h-590l372 -413h-423l-447 581l447 582h423z" />
    <glyph glyph-name="uni21B1" unicode="&#x21b1;" horiz-adv-x="1576" 
d="M702 1360h424l447 -582l-447 -581h-424l373 413h-590v-610h-335v946h925z" />
    <glyph glyph-name="uni21B2" unicode="&#x21b2;" horiz-adv-x="1576" 
d="M1092 946v610h335v-946h-925l372 -413h-423l-447 581l447 582h423l-372 -414h590z" />
    <glyph glyph-name="uni21B3" unicode="&#x21b3;" horiz-adv-x="1576" 
d="M702 1360h424l447 -582l-447 -581h-424l373 413h-925v946h335v-610h590z" />
    <glyph glyph-name="partialdiff" unicode="&#x2202;" horiz-adv-x="1267" 
d="M276 1583v2q304 -35 504 -155q207 -124 312 -320q104 -195 104 -448q0 -342 -147 -517q-146 -174 -443 -174q-151 0 -284 62q-132 61 -211 178q-80 118 -80 287q0 163 65 278q63 112 176 168q110 55 242 55q149 0 246 -69q98 -70 147 -174q-12 138 -84 258
q-71 117 -209 194q-141 78 -338 99v276zM750 301l-5 2q52 73 52 201q0 118 -49 182q-51 66 -140 66q-88 0 -141 -68q-51 -66 -51 -184q0 -128 51 -199q53 -74 141 -74q89 0 142 74z" />
    <glyph glyph-name="product" unicode="&#x220f;" horiz-adv-x="1937" 
d="M1888 1556v-321h-272v-1511h-391v1511h-510v-1511h-391v1511h-275v321h1839z" />
    <glyph glyph-name="summation" unicode="&#x2211;" horiz-adv-x="1402" 
d="M1145 659l-631 -614h821v-321h-1249v411l539 520l-539 490v411h1245v-321h-815z" />
    <glyph glyph-name="minus" unicode="&#x2212;" horiz-adv-x="1193" 
d="M1098 422h-1002v285h1002v-285z" />
    <glyph glyph-name="radical" unicode="&#x221a;" horiz-adv-x="1509" 
d="M729 2l393 1554h391l-469 -1832h-622l-193 655h-223v321h531z" />
    <glyph glyph-name="infinity" unicode="&#x221e;" horiz-adv-x="2349" 
d="M1970 1036q132 -69 207 -190q78 -125 78 -281q0 -155 -78 -280q-77 -124 -205 -191t-272 -67q-167 0 -297 71q-125 68 -229 203q-206 -274 -523 -274q-146 0 -274 67q-131 68 -207 191q-78 125 -78 280q0 156 78 281q75 121 207 190q130 68 274 68q168 0 295 -74
q125 -73 228 -209q103 137 227 209q127 74 295 74q144 0 274 -68zM827 369l4 12q76 57 136 147l28 43l-30 47q-66 94 -138 148q-73 55 -159 55q-68 0 -123 -30q-56 -30 -86 -89q-31 -60 -31 -135t31 -135q29 -57 86 -88t123 -31q85 0 159 56zM1804 354v-8q57 31 86 88
q31 60 31 135q0 76 -31 136q-29 57 -86 88q-56 30 -123 30q-157 0 -292 -205l-33 -49l28 -41q140 -204 297 -204q67 0 123 30z" />
    <glyph glyph-name="integral" unicode="&#x222b;" horiz-adv-x="901" 
d="M-8 -401l-2 272h94q89 0 133 41q43 40 43 135v1088q0 154 55 245q56 93 166 133q112 41 279 41h147v-274h-94q-89 0 -131 -39q-43 -40 -43 -135v-1088q0 -154 -55 -245q-56 -93 -166 -133q-112 -41 -279 -41h-147z" />
    <glyph glyph-name="approxequal" unicode="&#x2248;" horiz-adv-x="1421" 
d="M92 772l-6 -10q74 113 172 180q94 64 199 64q59 0 116 -13q64 -15 134 -45q77 -30 129 -45q49 -14 104 -14q67 0 117 33t100 92l176 -180q-75 -115 -172 -181q-92 -63 -196 -63q-61 0 -113 12q-50 11 -135 47q-95 37 -129 47q-60 17 -105 17q-62 0 -116 -31
q-48 -27 -101 -90zM86 283l-6 -11q75 115 172 181q92 63 199 63q63 0 116 -12q62 -14 133 -45q76 -30 129 -45t105 -15q67 0 117 33t100 92l176 -180q-74 -113 -172 -180q-94 -64 -197 -64q-55 0 -112 13q-50 11 -135 47q-95 37 -129 47q-56 16 -105 16q-65 0 -117 -30
q-45 -25 -100 -91z" />
    <glyph glyph-name="notequal" unicode="&#x2260;" horiz-adv-x="1308" 
d="M1190 936v-285h-307l-95 -168h402v-284h-561l-113 -199h-352l112 199h-155v284h315l94 168h-409v285h569l105 184h352l-105 -184h148z" />
    <glyph glyph-name="lessequal" unicode="&#x2264;" horiz-adv-x="1218" 
d="M106 946l1002 180v-264l-827 -131l827 -131v-262l-1002 180v428zM1108 0h-1002v272h1002v-272z" />
    <glyph glyph-name="greaterequal" unicode="&#x2265;" horiz-adv-x="1218" 
d="M111 862v264l1003 -180v-428l-1003 -180v262l827 131zM1114 0h-1003v272h1003v-272z" />
    <glyph glyph-name="uni2300" unicode="&#x2300;" horiz-adv-x="1351" 
d="M1298 1018l-131 -135q49 -74 72 -154q25 -86 25 -172q0 -159 -80 -295q-80 -135 -215 -215q-136 -80 -295 -80q-86 0 -172 25q-83 24 -154 71l-131 -131l-170 166l133 133q-98 143 -98 326q0 159 80 295q80 135 215 215q136 80 295 80q86 0 172 -25q87 -25 153 -69
l131 131zM395 444l393 396q-58 22 -110 22q-79 0 -150 -41q-68 -39 -112 -110q-43 -70 -43 -150q0 -56 22 -117zM958 674l-393 -395q61 -23 111 -23q79 0 149 43t113 113t43 149q0 52 -23 113z" />
    <glyph glyph-name="uni2460" unicode="&#x2460;" horiz-adv-x="1912" 
d="M1386 1522q197 -115 312 -312q114 -197 114 -430q0 -234 -114 -430t-312 -311t-430 -115t-430 115q-197 114 -311 311q-115 198 -115 430t115 430t311 312q197 114 430 114q234 0 430 -114zM1298 186l-4 -4q158 92 250 250q92 157 92 344t-92 344q-93 159 -248 250
q-157 92 -344 92t-344 -92q-156 -92 -248 -248q-92 -157 -92 -344t92 -344q91 -155 250 -248q157 -92 344 -92t344 92zM885 1241l223 -2v-934h-270v580h-201v217h20q97 0 148 31q50 31 74 94z" />
    <glyph glyph-name="uni2461" unicode="&#x2461;" horiz-adv-x="1912" 
d="M1386 1522q197 -115 312 -312q114 -197 114 -430q0 -234 -114 -430t-312 -311t-430 -115t-430 115q-197 114 -311 311q-115 198 -115 430t115 430t311 312q197 114 430 114q234 0 430 -114zM1298 186l-4 -4q158 92 250 250q92 157 92 344t-92 344q-93 159 -248 250
q-157 92 -344 92t-344 -92q-156 -92 -248 -248q-92 -157 -92 -344t92 -344q91 -155 250 -248q157 -92 344 -92t344 92zM881 524l462 -2v-217h-778v273l420 299q32 25 49 49t17 49q0 34 -27 55q-30 23 -74 23q-45 0 -76 -25q-29 -23 -32 -67h-277q3 87 56 155t137 105
q82 36 194 36q113 0 197 -34q87 -35 133 -99q47 -65 47 -147t-43 -143q-44 -62 -135 -123z" />
    <glyph glyph-name="uni2462" unicode="&#x2462;" horiz-adv-x="1912" 
d="M1386 1522q197 -115 312 -312q114 -197 114 -430q0 -234 -114 -430t-312 -311t-430 -115t-430 115q-197 114 -311 311q-115 198 -115 430t115 430t311 312q197 114 430 114q234 0 430 -114zM1298 186l-4 -4q158 92 250 250q92 157 92 344t-92 344q-93 159 -248 250
q-157 92 -344 92t-344 -92q-156 -92 -248 -248q-92 -157 -92 -344t92 -344q91 -155 250 -248q157 -92 344 -92t344 92zM1262 725l-11 -12q80 -56 80 -160q0 -86 -49 -147q-52 -64 -137 -93q-89 -30 -211 -30q-189 0 -287 79q-99 79 -108 226h278q3 -45 35 -74q30 -27 84 -27
q47 0 86 25q37 24 37 68q0 53 -45 73q-51 23 -125 23h-62v217h62q149 0 149 80q0 35 -26 55q-27 21 -70 21q-47 0 -72 -25q-23 -23 -26 -61h-279q6 87 58 151q54 66 135 103q79 36 184 36q106 0 191 -30t135 -86q49 -55 49 -129q0 -103 -64 -152q-65 -50 -178 -68
q110 -9 187 -63z" />
    <glyph glyph-name="uni2463" unicode="&#x2463;" horiz-adv-x="1912" 
d="M1386 1522q197 -115 312 -312q114 -197 114 -430q0 -234 -114 -430t-312 -311t-430 -115t-430 115q-197 114 -311 311q-115 198 -115 430t115 430t311 312q197 114 430 114q234 0 430 -114zM1298 186l-4 -4q158 92 250 250q92 157 92 344t-92 344q-93 159 -248 250
q-157 92 -344 92t-344 -92q-156 -92 -248 -248q-92 -157 -92 -344t92 -344q91 -155 250 -248q157 -92 344 -92t344 92zM1225 1241v-504h121v-217h-121v-213h-273v213h-444v271l229 450h488zM952 1153l-215 -416h215v416z" />
    <glyph glyph-name="uni2464" unicode="&#x2464;" horiz-adv-x="1912" 
d="M1386 1522q197 -115 312 -312q114 -197 114 -430q0 -234 -114 -430t-312 -311t-430 -115t-430 115q-197 114 -311 311q-115 198 -115 430t115 430t311 312q197 114 430 114q234 0 430 -114zM1298 186l-4 -4q158 92 250 250q92 157 92 344t-92 344q-93 159 -248 250
q-157 92 -344 92t-344 -92q-156 -92 -248 -248q-92 -157 -92 -344t92 -344q91 -155 250 -248q157 -92 344 -92t344 92zM1204 907h-10q65 -36 106 -110q39 -71 39 -179q0 -111 -51 -182q-51 -72 -141 -110q-87 -37 -203 -37q-112 0 -196 37q-90 39 -140 104q-52 66 -61 164
h278q3 -45 35 -74q31 -28 84 -28q54 0 86 32q35 35 35 92q0 60 -33 93q-32 32 -86 32q-39 0 -69 -18q-31 -19 -46 -53l-270 22l45 549h674v-217h-424l-16 -211q26 50 86 92q56 39 131 39q80 0 147 -37z" />
    <glyph glyph-name="uni2465" unicode="&#x2465;" horiz-adv-x="1912" 
d="M1386 1522q197 -115 312 -312q114 -197 114 -430q0 -234 -114 -430t-312 -311t-430 -115t-430 115q-197 114 -311 311q-115 198 -115 430t115 430t311 312q197 114 430 114q234 0 430 -114zM1298 186l-4 -4q158 92 250 250q92 157 92 344t-92 344q-93 159 -248 250
q-157 92 -344 92t-344 -92q-156 -92 -248 -248q-92 -157 -92 -344t92 -344q91 -155 250 -248q157 -92 344 -92t344 92zM1198 891l-4 -8q74 -38 115 -109t41 -166t-52 -168q-53 -74 -143 -114q-93 -41 -213 -41q-126 0 -221 53q-96 53 -148 160q-53 109 -53 270q0 163 55 270
t150 160t221 53q112 0 193 -37q82 -37 131 -98q47 -59 63 -139h-278q-8 31 -35 51q-25 19 -68 19q-80 0 -118 -74q-37 -73 -37 -191q21 58 84 103q61 43 147 43q97 0 170 -37zM1034 518v-2q37 34 37 86q0 54 -37 84q-39 31 -98 31t-98 -31q-37 -30 -37 -82t37 -86
q36 -33 100 -33q60 0 96 33z" />
    <glyph glyph-name="uni2466" unicode="&#x2466;" horiz-adv-x="1912" 
d="M1386 1522q197 -115 312 -312q114 -197 114 -430q0 -234 -114 -430t-312 -311t-430 -115t-430 115q-197 114 -311 311q-115 198 -115 430t115 430t311 312q197 114 430 114q234 0 430 -114zM1298 186l-4 -4q158 92 250 250q92 157 92 344t-92 344q-93 159 -248 250
q-157 92 -344 92t-344 -92q-156 -92 -248 -248q-92 -157 -92 -344t92 -344q91 -155 250 -248q157 -92 344 -92t344 92zM1022 1024h-416v217h686v-272l-334 -662h-327z" />
    <glyph glyph-name="uni2467" unicode="&#x2467;" horiz-adv-x="1912" 
d="M1386 1522q197 -115 312 -312q114 -197 114 -430q0 -234 -114 -430t-312 -311t-430 -115t-430 115q-197 114 -311 311q-115 198 -115 430t115 430t311 312q197 114 430 114q234 0 430 -114zM1298 186l-4 -4q158 92 250 250q92 157 92 344t-92 344q-93 159 -248 250
q-157 92 -344 92t-344 -92q-156 -92 -248 -248q-92 -157 -92 -344t92 -344q91 -155 250 -248q157 -92 344 -92t344 92zM1298 719l-10 -4q70 -55 70 -154q0 -82 -49 -143q-49 -62 -144 -96q-96 -35 -223 -35t-223 35q-95 34 -144 96q-49 61 -49 145q0 99 70 154q71 56 178 74
q-104 24 -160 75q-57 51 -57 142q0 78 49 133q51 57 137 86q89 30 203 30t203 -30t139 -86q49 -55 49 -131q0 -91 -57 -142q-56 -51 -160 -75q107 -18 178 -74zM852 1022v-2q-31 -25 -31 -62q0 -32 31 -57q30 -24 88 -24t88 24q31 25 31 60q0 36 -31 61t-88 25t-88 -25z
M1040 512v-2q39 23 39 72q0 48 -39 71q-42 25 -100 25t-100 -25q-39 -23 -39 -69q0 -49 39 -72q42 -25 100 -25t100 25z" />
    <glyph glyph-name="uni2468" unicode="&#x2468;" horiz-adv-x="1912" 
d="M1386 1522q197 -115 312 -312q114 -197 114 -430q0 -234 -114 -430t-312 -311t-430 -115t-430 115q-197 114 -311 311q-115 198 -115 430t115 430t311 312q197 114 430 114q234 0 430 -114zM1298 186l-4 -4q158 92 250 250q92 157 92 344t-92 344q-93 159 -248 250
q-157 92 -344 92t-344 -92q-156 -92 -248 -248q-92 -157 -92 -344t92 -344q91 -155 250 -248q157 -92 344 -92t344 92zM1176 1204l4 4q95 -53 147 -159q53 -109 53 -271q0 -163 -55 -270q-56 -108 -149 -160q-95 -53 -222 -53q-111 0 -192 37q-82 37 -131 98q-49 60 -64 139
h279q8 -31 35 -51q24 -18 67 -18q82 0 119 73t37 191q-20 -54 -84 -100q-61 -43 -148 -43q-99 0 -170 36q-73 37 -114 109q-41 71 -41 166q0 97 51 168q53 74 143 114q93 41 213 41q130 0 222 -51zM1061 854v-2q37 30 37 84q0 52 -37 86q-38 35 -100 35q-61 0 -97 -33
q-37 -34 -37 -86q0 -54 37 -84q39 -31 99 -31q59 0 98 31z" />
    <glyph glyph-name="uni24EA" unicode="&#x24ea;" horiz-adv-x="1912" 
d="M524 35q-197 114 -311 311q-115 198 -115 430t115 430t311 312t430 114t430 -114q197 -115 312 -312q114 -196 114 -430t-114 -430t-312 -311t-430 -115t-430 115zM1298 186l-4 -4q158 92 250 250q92 157 92 344t-92 344q-93 159 -248 250q-157 92 -344 92t-344 -92
q-156 -92 -248 -248q-92 -157 -92 -344t92 -344q91 -155 250 -248q157 -92 344 -92t344 92zM645 414l-4 -4q-106 121 -106 360q0 237 108 360t307 123t307 -123q109 -124 109 -358q0 -237 -106 -358q-108 -123 -308 -123q-199 0 -307 123zM1051 557q30 67 30 211t-30 211
q-30 68 -103 68q-72 0 -102 -68q-31 -70 -31 -211t31 -211q30 -68 102 -68q73 0 103 68z" />
    <glyph glyph-name="uni24FF" unicode="&#x24ff;" horiz-adv-x="1912" 
d="M524 35q-197 114 -311 311q-115 198 -115 430t115 430t311 312t430 114t430 -114q197 -115 312 -312q114 -196 114 -430t-114 -430t-312 -311t-430 -115t-430 115zM1262 418l-5 -4q109 124 109 360q0 240 -106 361q-107 122 -308 122q-200 0 -307 -122
q-106 -121 -106 -359q0 -235 108 -358t307 -123q200 0 308 123zM848 561q-31 70 -31 211t31 211q30 68 102 68q73 0 103 -68q30 -67 30 -211t-30 -211t-103 -67q-72 0 -102 67z" />
    <glyph glyph-name="filledbox" unicode="&#x25a0;" horiz-adv-x="1380" 
d="M1251 0h-1120v1120h1120v-1120z" />
    <glyph glyph-name="uni25A1" unicode="&#x25a1;" horiz-adv-x="1380" 
d="M1251 0h-1120v1120h1120v-1120zM422 829v-538h536v538h-536z" />
    <glyph glyph-name="lozenge" unicode="&#x25ca;" horiz-adv-x="1472" 
d="M502 1556h469l420 -778l-420 -778h-469l-420 778zM420 780l317 -587l318 587l-318 584z" />
    <glyph glyph-name="circle" unicode="&#x25cb;" horiz-adv-x="1380" 
d="M389 41v-2q-136 78 -217 219q-80 139 -80 301t80 301q79 138 217 217q139 80 301 80t301 -80q138 -79 217 -217q80 -139 80 -301t-80 -301q-79 -138 -217 -217q-139 -80 -301 -80t-301 80zM838 303l-9 -4q68 41 109 109t41 147q0 82 -39 147q-41 68 -106 107t-148 39
q-82 0 -147 -39q-67 -40 -107 -107q-39 -65 -39 -147q0 -79 41 -147q39 -65 109 -107q65 -39 147 -39q80 0 148 41z" />
    <glyph glyph-name="uni25CF" unicode="&#x25cf;" horiz-adv-x="1380" 
d="M389 41v-2q-136 78 -217 219q-80 139 -80 301t80 301q79 138 217 217q139 80 301 80t301 -80q138 -79 217 -217q80 -139 80 -301t-80 -301q-79 -138 -217 -217q-139 -80 -301 -80t-301 80z" />
    <glyph glyph-name="uni2776" unicode="&#x2776;" horiz-adv-x="1912" 
d="M524 35q-197 114 -311 311q-115 198 -115 430t115 430t311 312t430 114t430 -114q197 -115 312 -312q114 -196 114 -430t-114 -430t-312 -311t-430 -115t-430 115zM840 311l268 2v934h-221l-6 -14q-24 -63 -74 -94q-51 -31 -148 -31h-20v-217h201v-580z" />
    <glyph glyph-name="uni2777" unicode="&#x2777;" horiz-adv-x="1912" 
d="M524 35q-197 114 -311 311q-115 198 -115 430t115 430t311 312t430 114t430 -114q197 -115 312 -312q114 -196 114 -430t-114 -430t-312 -311t-430 -115t-430 115zM567 311h774v217h-460l270 187q91 61 135 123q43 61 43 143t-47 147q-46 64 -133 99t-197 35t-194 -37
t-137 -105t-56 -155h277q3 44 32 67q31 25 76 25q47 0 74 -21t27 -55q0 -28 -15 -49q-17 -24 -49 -49l-420 -299v-273z" />
    <glyph glyph-name="uni2778" unicode="&#x2778;" horiz-adv-x="1912" 
d="M524 35q-197 114 -311 311q-115 198 -115 430t115 430t311 312t430 114t430 -114q197 -115 312 -312q114 -196 114 -430t-114 -430t-312 -311t-430 -115t-430 115zM1157 326l-12 2q89 30 139 92q49 61 49 147q0 105 -76 160q-79 57 -180 66q110 18 172 69q64 52 64 154
q0 74 -49 129q-50 56 -136 86q-88 31 -190 31q-103 0 -184 -37q-83 -38 -136 -103q-51 -62 -57 -151h279q3 36 28 61t72 25q45 0 72 -21q28 -22 28 -55q0 -80 -149 -80h-62v-217h62q83 0 127 -20q47 -21 47 -74q0 -44 -37 -68q-38 -24 -86 -24q-53 0 -82 26q-30 27 -33 74
h-278q9 -143 108 -223q100 -80 287 -80q122 0 213 31z" />
    <glyph glyph-name="uni2779" unicode="&#x2779;" horiz-adv-x="1912" 
d="M524 35q-197 114 -311 311q-115 198 -115 430t115 430t311 312t430 114t430 -114q197 -115 312 -312q114 -196 114 -430t-114 -430t-312 -311t-430 -115t-430 115zM512 795v-271h444v-213h273v213h121v217h-121v504h-488zM956 741h-215l215 408v-408z" />
    <glyph glyph-name="uni277A" unicode="&#x277a;" horiz-adv-x="1912" 
d="M524 35q-197 114 -311 311q-115 198 -115 430t115 430t311 312t430 114t430 -114q197 -115 312 -312q114 -196 114 -430t-114 -430t-312 -311t-430 -115t-430 115zM1161 330v-2q91 39 142 110t51 183q0 107 -39 178q-40 73 -107 110t-147 37q-79 0 -135 -39
q-60 -42 -80 -94l16 215h424v217h-674l-45 -549l271 -22q15 34 47 53q30 18 71 18q54 0 86 -32q35 -35 35 -92q0 -60 -33 -93q-32 -32 -86 -32q-53 0 -84 28t-34 74h-279q9 -96 62 -164q51 -65 139 -104q84 -37 196 -37q116 0 203 37z" />
    <glyph glyph-name="uni277B" unicode="&#x277b;" horiz-adv-x="1912" 
d="M524 35q-197 114 -311 311q-115 198 -115 430t115 430t311 312t430 114t430 -114q197 -115 312 -312q114 -196 114 -430t-114 -430t-312 -311t-430 -115t-430 115zM1163 336l4 2q90 40 144 115q51 71 51 168q0 94 -41 165t-115 109q-73 37 -170 37q-86 0 -147 -43
q-64 -45 -84 -101q0 118 37 191q38 74 119 74q42 0 67 -19q27 -20 35 -51h278q-16 80 -63 139q-50 62 -131 99q-79 36 -193 36q-129 0 -221 -51q-94 -52 -149 -159q-56 -109 -56 -271q0 -159 54 -270q52 -107 147 -160q92 -51 221 -51q120 0 213 41zM850 535v-3
q-37 34 -37 86q0 54 37 84q39 31 98 31q60 0 99 -31q36 -29 36 -84q0 -53 -36 -86q-35 -32 -97 -32t-100 35z" />
    <glyph glyph-name="uni277C" unicode="&#x277c;" horiz-adv-x="1912" 
d="M524 35q-197 114 -311 311q-115 198 -115 430t115 430t311 312t430 114t430 -114q197 -115 312 -312q114 -196 114 -430t-114 -430t-312 -311t-430 -115t-430 115zM1026 1028l-391 -717h328l333 662v272h-686v-217h416z" />
    <glyph glyph-name="uni277D" unicode="&#x277d;" horiz-adv-x="1912" 
d="M524 35q-197 114 -311 311q-115 198 -115 430t115 430t311 312t430 114t430 -114q197 -115 312 -312q114 -196 114 -430t-114 -430t-312 -311t-430 -115t-430 115zM1178 330l2 -6q96 35 145 96t49 145q0 100 -69 154q-71 56 -179 74q101 24 160 77q60 54 60 142
q0 77 -50 133q-51 57 -137 86q-91 31 -203 31q-111 0 -202 -31q-88 -30 -138 -86q-49 -55 -49 -131q0 -90 58 -142q57 -51 159 -75q-107 -18 -178 -74q-69 -54 -69 -154q0 -82 49 -143t145 -96t223 -35q128 0 224 35zM868 905v-2q-30 24 -30 60q0 37 30 61q31 25 88 25
t88 -25t31 -61q0 -33 -31 -58q-30 -24 -88 -24t-88 24zM856 516v-2q-39 23 -39 72q0 48 39 71q42 25 100 25q59 0 101 -25q39 -23 39 -69q0 -49 -39 -72q-41 -24 -101 -24t-100 24z" />
    <glyph glyph-name="uni277E" unicode="&#x277e;" horiz-adv-x="1912" 
d="M524 35q-197 114 -311 311q-115 198 -115 430t115 430t311 312t430 114t430 -114q197 -115 312 -312q114 -196 114 -430t-114 -430t-312 -311t-430 -115t-430 115zM745 1221l-4 -9q-90 -40 -143 -114q-51 -71 -51 -168q0 -95 41 -166q41 -72 114 -109t170 -37
q86 0 148 44q64 45 84 102q0 -118 -37 -191t-119 -73q-43 0 -67 18q-27 20 -35 51h-279q15 -79 64 -139q49 -61 131 -98q81 -37 192 -37q127 0 222 53q93 52 149 160q55 107 55 270q0 162 -53 271q-52 106 -147 159q-97 54 -222 54q-120 0 -213 -41zM1057 1014v-2
q37 -34 37 -86t-37 -82q-39 -31 -99 -31q-59 0 -98 31q-37 30 -37 84q0 52 37 86q36 33 96 33q65 0 101 -33z" />
    <glyph glyph-name="uniF8FF" unicode="&#xf8ff;" horiz-adv-x="1701" 
d="M1247 858h410v-160h-412l379 -157l-61 -144l-381 158l293 -293l-111 -108l-291 292l158 -385l-148 -57l-153 373v-404h-160v410l-158 -381l-143 61l160 388l-297 -297l-107 108l293 295l-385 -160l-57 146l377 155h-408v160h410l-379 158l61 143l381 -158l-293 293
l111 109l291 -293l-158 385l147 57l154 -372v403h160v-407l155 376l144 -59l-158 -383l293 295l111 -111l-295 -295l385 160l59 -145z" />
    <glyph glyph-name="uniFEFF" unicode="&#xfeff;" horiz-adv-x="0" 
 />
    <glyph glyph-name="NULL" horiz-adv-x="0" 
 />
    <glyph glyph-name="uni004A0301" horiz-adv-x="866" 
d="M35 0v324h162q84 0 114 30q31 31 31 109v1093h391v-1169q0 -387 -434 -387h-264zM731 1669h-375l244 309h530z" />
    <glyph glyph-name="G.ss03" horiz-adv-x="1712" 
d="M801 905l844 4v-188q0 -229 -95 -399q-95 -171 -270 -259t-408 -88q-236 0 -417 99t-283 280q-100 178 -100 424q0 250 100 428q103 183 283 281t417 98q295 0 484 -131q190 -132 264 -387h-408q-89 215 -342 215q-120 0 -208 -61q-89 -62 -138 -174q-49 -113 -49 -271
q0 -153 49 -266q48 -110 140 -174q89 -62 208 -62q115 0 197 43q83 43 129 117q46 73 49 170h-446v301z" />
    <glyph glyph-name="Gbreve.ss03" horiz-adv-x="1712" 
d="M801 905l844 4v-188q0 -229 -95 -399q-95 -171 -270 -259t-408 -88q-236 0 -417 99t-283 280q-100 178 -100 424q0 250 100 428q103 183 283 281t417 98q295 0 484 -131q190 -132 264 -387h-408q-89 215 -342 215q-120 0 -208 -61q-89 -62 -138 -174q-49 -113 -49 -271
q0 -153 49 -266q48 -110 140 -174q89 -62 208 -62q115 0 197 43q83 43 129 117q46 73 49 170h-446v301zM653 1708l6 -2q-95 40 -147 111q-51 68 -51 159h262q3 -46 47 -73q47 -29 109 -29q61 0 108 29q44 27 47 73h260q0 -91 -51 -159q-53 -71 -147 -111q-91 -39 -222 -39
q-125 0 -221 41z" />
    <glyph glyph-name="Gcaron.ss03" horiz-adv-x="1712" 
d="M801 905l844 4v-188q0 -229 -95 -399q-95 -171 -270 -259t-408 -88q-236 0 -417 99t-283 280q-100 178 -100 424q0 250 100 428q103 183 283 281t417 98q295 0 484 -131q190 -132 264 -387h-408q-89 215 -342 215q-120 0 -208 -61q-89 -62 -138 -174q-49 -113 -49 -271
q0 -153 49 -266q48 -110 140 -174q89 -62 208 -62q115 0 197 43q83 43 129 117q46 73 49 170h-446v301zM874 1833l164 147h344l-264 -309h-489l-267 309h347z" />
    <glyph glyph-name="Gcircumflex.ss03" horiz-adv-x="1712" 
d="M801 905l844 4v-188q0 -229 -95 -399q-95 -171 -270 -259t-408 -88q-236 0 -417 99t-283 280q-100 178 -100 424q0 250 100 428q103 183 283 281t417 98q295 0 484 -131q190 -132 264 -387h-408q-89 215 -342 215q-120 0 -208 -61q-89 -62 -138 -174q-49 -113 -49 -271
q0 -153 49 -266q48 -110 140 -174q89 -62 208 -62q115 0 197 43q83 43 129 117q46 73 49 170h-446v301zM1118 1980l264 -309h-344l-164 148l-165 -148h-347l267 309h489z" />
    <glyph glyph-name="uni0122.ss03" horiz-adv-x="1712" 
d="M801 905l844 4v-188q0 -229 -95 -399q-95 -171 -270 -259t-408 -88q-236 0 -417 99t-283 280q-100 178 -100 424q0 250 100 428q103 183 283 281t417 98q295 0 484 -131q190 -132 264 -387h-408q-89 215 -342 215q-120 0 -208 -61q-89 -62 -138 -174q-49 -113 -49 -271
q0 -153 49 -266q48 -110 140 -174q89 -62 208 -62q115 0 197 43q83 43 129 117q46 73 49 170h-446v301zM686 -418v312h399v-345l-153 -200h-244l125 233h-127z" />
    <glyph glyph-name="Gdotaccent.ss03" horiz-adv-x="1712" 
d="M801 905l844 4v-188q0 -229 -95 -399q-95 -171 -270 -259t-408 -88q-236 0 -417 99t-283 280q-100 178 -100 424q0 250 100 428q103 183 283 281t417 98q295 0 484 -131q190 -132 264 -387h-408q-89 215 -342 215q-120 0 -208 -61q-89 -62 -138 -174q-49 -113 -49 -271
q0 -153 49 -266q48 -110 140 -174q89 -62 208 -62q115 0 197 43q83 43 129 117q46 73 49 170h-446v301zM1071 1671h-399v309h399v-309z" />
    <glyph glyph-name="Adieresis.titl" horiz-adv-x="1660" 
d="M1667 0h-410l-114 389h-627l-115 -389h-407l491 1556h691zM829 1456l-219 -745h439zM330 1245h-332v311h332v-311zM1667 1245h-332v311h332v-311z" />
    <glyph glyph-name="Odieresis.titl" horiz-adv-x="1740" 
d="M1792 1556l4 -315h-248q63 -96 92 -211q31 -121 31 -254q0 -246 -100 -424q-102 -181 -283 -280q-182 -99 -414 -99q-236 0 -417 99t-283 280q-100 178 -100 424q0 139 30 256q30 116 93 213h-246v311h330v-204q107 113 258 172t331 59q181 0 332 -59t258 -172v204h332z
M1083 332l-2 -4q92 64 140 174q49 113 49 268t-49 268q-48 110 -140 174q-89 62 -209 62q-119 0 -208 -62t-138 -174q-49 -113 -49 -266t49 -266q48 -110 140 -174q89 -62 208 -62q120 0 209 62z" />
    <glyph glyph-name="Udieresis.titl" horiz-adv-x="1591" 
d="M127 623l-4 2v929h391v-970v-4q0 -150 72 -228t209 -78q138 0 209 80q69 78 69 232v970h391v-929q0 -654 -667 -654q-670 0 -670 650zM952 1243h-315v311h315v-311zM952 852h-315v309h315v-309z" />
    <glyph glyph-name="I_J.loclNLD" horiz-adv-x="1349" 
d="M141 0l4 324h539q56 0 86 12q31 12 43 43q12 30 12 84v1093h392v-1169q0 -387 -433 -387h-643zM537 535h-392v1024h392v-1024z" />
    <glyph glyph-name="A.inferior" horiz-adv-x="886" 
d="M874 -233h-245l-47 180h-277l-47 -180h-246l219 778h424zM442 475l-88 -340h178z" />
    <glyph glyph-name="B.inferior" horiz-adv-x="821" 
d="M719 113h2q61 -43 61 -129q0 -101 -86 -160q-83 -57 -247 -57h-371v778h364q103 0 179 -29q70 -27 104 -76q33 -47 33 -106q0 -75 -56 -119q-55 -43 -147 -55q102 -3 164 -47zM489 344v2q-22 16 -65 16h-109v-118h109q88 0 88 57q0 27 -23 43zM436 -51q101 0 101 67
q0 64 -101 64h-121v-131h121z" />
    <glyph glyph-name="C.inferior" horiz-adv-x="866" 
d="M240 -201l-4 -6q-94 51 -146 141q-53 92 -53 216q0 123 53 215t143 141q91 49 207 49q102 0 181 -33q87 -36 139 -100q58 -70 78 -162h-244q-38 117 -152 117q-71 0 -116 -60q-43 -58 -43 -163q0 -106 43 -164q45 -60 118 -60q55 0 97 31q40 30 55 88h244
q-35 -151 -140 -225q-106 -74 -254 -74q-115 0 -206 49z" />
    <glyph glyph-name="D.inferior" horiz-adv-x="851" 
d="M391 545q191 0 307 -96q113 -94 113 -293t-113 -293q-116 -96 -307 -96h-311v778h311zM397 -45q80 0 125 51t45 150q0 98 -45 149t-125 51h-82v-401h82z" />
    <glyph glyph-name="E.inferior" horiz-adv-x="718" 
d="M315 70v-115h347v-188h-582v778h573v-189h-338v-98h330v-188h-330z" />
    <glyph glyph-name="F.inferior" horiz-adv-x="690" 
d="M639 545v-189h-324v-108h316v-189h-316v-292h-235v778h559z" />
    <glyph glyph-name="G.inferior" horiz-adv-x="913" 
d="M418 231l426 -4v-465h-191v162q-23 -75 -86 -125q-61 -49 -161 -49q-99 0 -185 47q-82 45 -137 140q-51 89 -51 219q0 126 51 215q52 91 145 141q91 49 215 49q151 0 252 -67q100 -66 138 -199h-246q-18 41 -51 61q-38 23 -86 23q-76 0 -123 -62t-47 -161q0 -105 47 -164
q48 -60 133 -60q68 0 112 35q45 36 48 92h-203v172z" />
    <glyph glyph-name="H.inferior" horiz-adv-x="858" 
d="M541 268v277h237v-778h-237v288h-226v-288h-235v778h235v-277h226z" />
    <glyph glyph-name="I.inferior" horiz-adv-x="395" 
d="M315 -233h-235v778h235v-778z" />
    <glyph glyph-name="J.inferior" horiz-adv-x="483" 
d="M27 -233l-2 190h67q42 0 60 12t18 54v522h238v-559q0 -108 -56 -164q-55 -55 -186 -55h-139z" />
    <glyph glyph-name="K.inferior" horiz-adv-x="823" 
d="M557 178l277 -411h-285l-232 364v-364h-237v778h237v-332l211 332h271z" />
    <glyph glyph-name="L.inferior" horiz-adv-x="659" 
d="M315 545v-590h318v-188h-553v778h235z" />
    <glyph glyph-name="M.inferior" horiz-adv-x="1187" 
d="M1108 545v-778h-211v714l-115 -714h-379l-112 712v-712h-211v778h403l111 -719l111 719h403z" />
    <glyph glyph-name="N.inferior" horiz-adv-x="940" 
d="M649 -172v717h211v-778h-403l-166 716v-716h-211v778h403z" />
    <glyph glyph-name="O.inferior" horiz-adv-x="903" 
d="M236 -201h-5q-89 48 -143 142q-51 89 -51 215t51 215q52 91 145 141q91 49 213 49t213 -49q94 -51 146 -141q53 -92 53 -215q0 -126 -51 -215q-53 -92 -145 -142q-91 -49 -213 -49t-213 49zM569 -10q43 58 43 164q0 105 -43 163q-45 60 -123 60q-75 0 -120 -60
q-43 -58 -43 -163q0 -106 43 -164q45 -60 120 -60q78 0 123 60z" />
    <glyph glyph-name="P.inferior" horiz-adv-x="788" 
d="M426 545h-2q163 0 250 -72q86 -71 86 -194q0 -124 -86 -195q-87 -72 -248 -72h-109v-245h-237v778h346zM408 197v-4q49 0 77 22q29 23 29 61q0 39 -29 62q-26 20 -77 20h-93v-161h93z" />
    <glyph glyph-name="Q.inferior" horiz-adv-x="915" 
d="M942 -233l-254 -3l-29 33q-96 -47 -210 -47q-122 0 -213 49t-144 142q-51 89 -51 215t51 215q52 90 146 141q91 49 213 49t213 -49q93 -50 145 -141q53 -92 53 -215q0 -133 -61 -234zM522 -53l-129 139h215q6 30 6 68q0 105 -43 163q-45 60 -122 60q-76 0 -121 -60
q-43 -58 -43 -163q0 -106 43 -164q45 -60 121 -60q34 0 73 17z" />
    <glyph glyph-name="R.inferior" horiz-adv-x="827" 
d="M547 -233l-146 260h-82v-260h-237v778h342q109 0 182 -33q78 -35 117 -92q41 -59 41 -135q0 -72 -33 -125t-98 -88l184 -305h-270zM319 362l-2 -159h101q48 0 74 20q28 22 28 58q0 41 -26 61t-74 20h-101z" />
    <glyph glyph-name="S.inferior" horiz-adv-x="788" 
d="M143 -182l9 -11q-96 69 -111 193h244q6 -38 37 -63t79 -25q117 0 117 63q0 26 -24 41q-28 18 -84 29l-127 29q-226 50 -226 227q0 73 43 131t117 88q76 31 164 31q158 0 244 -62q87 -63 102 -163h-244q-9 28 -37 43q-25 14 -67 14q-44 0 -66 -14q-24 -15 -24 -39
q0 -19 10 -29q8 -8 35 -18q31 -12 69 -19l127 -26q108 -21 164 -80t56 -154q0 -124 -99 -188q-101 -66 -268 -66q-145 0 -240 68z" />
    <glyph glyph-name="T.inferior" horiz-adv-x="739" 
d="M29 545h680v-189h-222v-589h-237v589h-221v189z" />
    <glyph glyph-name="U.inferior" horiz-adv-x="837" 
d="M156 -164l-2 2q-86 83 -86 240v4v465h235v-494v-4q0 -52 29 -84q28 -31 86 -31t86 31q26 29 26 86v494h236v-465q0 -328 -346 -328q-177 0 -264 84z" />
    <glyph glyph-name="V.inferior" horiz-adv-x="849" 
d="M424 -168l158 713h254l-191 -778h-442l-189 778h254z" />
    <glyph glyph-name="W.inferior" horiz-adv-x="1218" 
d="M881 -172l92 717h215l-105 -778h-403l-70 725l-71 -725h-404l-104 778h215l92 -717l76 717h391z" />
    <glyph glyph-name="X.inferior" horiz-adv-x="860" 
d="M592 176l270 -409h-284l-148 235l-149 -235h-283l268 409l-248 369h283l129 -205l129 205h283z" />
    <glyph glyph-name="Y.inferior" horiz-adv-x="806" 
d="M539 545h268l-285 -482v-296h-237v296l-285 482h268l135 -256z" />
    <glyph glyph-name="Z.inferior" horiz-adv-x="761" 
d="M702 297l-374 -342h393v-188h-672v247l375 342h-369v189h647v-248z" />
    <glyph glyph-name="G.ss03.inferior" horiz-adv-x="894" 
d="M416 231l434 -8v-110q0 -111 -45 -191q-47 -82 -135 -129q-89 -47 -215 -47q-121 0 -217 47q-95 47 -148 139q-51 89 -51 220q0 126 51 215q52 90 146 141q91 49 213 49q148 0 251 -68q102 -67 136 -196h-246q-18 41 -51 61q-38 23 -86 23q-76 0 -123 -62
q-45 -60 -45 -161q0 -107 45 -164q48 -60 129 -60q70 0 110 37t43 92h-196v172z" />
    <glyph glyph-name="A.superior" horiz-adv-x="886" 
d="M874 778h-245l-47 180h-277l-47 -180h-246l219 778h424zM442 1487l-88 -340h178z" />
    <glyph glyph-name="B.superior" horiz-adv-x="821" 
d="M719 1124h2q61 -43 61 -129q0 -100 -86 -159q-85 -58 -247 -58h-371v778h364q106 0 179 -28q70 -27 104 -76q33 -47 33 -106q0 -75 -56 -119t-147 -56q102 -3 164 -47zM489 1356v2q-22 16 -65 16h-109v-119h109q88 0 88 58q0 27 -23 43zM436 961q101 0 101 67
q0 64 -101 64h-121v-131h121z" />
    <glyph glyph-name="C.superior" horiz-adv-x="866" 
d="M238 811l-5 -6q-93 50 -145 141q-53 92 -53 215t53 215q54 94 143 142q91 49 207 49q101 0 180 -33q88 -37 140 -100q58 -70 78 -162h-244q-38 117 -152 117q-71 0 -116 -60q-43 -58 -43 -164t43 -164q44 -59 118 -59q55 0 97 31q40 30 55 88h244q-35 -151 -140 -225
q-106 -74 -254 -74q-115 0 -206 49z" />
    <glyph glyph-name="D.superior" horiz-adv-x="851" 
d="M391 1556q191 0 307 -96q113 -94 113 -293t-113 -293q-116 -96 -307 -96h-311v778h311zM397 967q80 0 125 51t45 149q0 99 -45 150t-125 51h-82v-401h82z" />
    <glyph glyph-name="E.superior" horiz-adv-x="718" 
d="M315 1081v-114h347v-189h-582v778h573v-188h-338v-98h330v-189h-330z" />
    <glyph glyph-name="F.superior" horiz-adv-x="690" 
d="M639 1556v-188h-324v-108h316v-189h-316v-293h-235v778h559z" />
    <glyph glyph-name="G.superior" horiz-adv-x="913" 
d="M418 1243l426 -4v-465h-191v162q-23 -75 -86 -125q-61 -49 -161 -49q-99 0 -185 47q-83 45 -137 139q-51 89 -51 219q0 126 51 215q53 92 145 142q91 49 215 49q149 0 252 -68q101 -67 138 -198h-246q-18 41 -51 61q-38 23 -86 23q-76 0 -123 -62t-47 -162
q0 -104 47 -163q48 -60 133 -60q68 0 112 35q45 36 48 92h-203v172z" />
    <glyph glyph-name="H.superior" horiz-adv-x="858" 
d="M541 1280v276h237v-778h-237v289h-226v-289h-235v778h235v-276h226z" />
    <glyph glyph-name="I.superior" horiz-adv-x="395" 
d="M315 778h-235v778h235v-778z" />
    <glyph glyph-name="J.superior" horiz-adv-x="483" 
d="M27 778l-2 191h67q42 0 60 12t18 53v522h238v-559q0 -107 -56 -163t-186 -56h-139z" />
    <glyph glyph-name="K.superior" horiz-adv-x="823" 
d="M557 1190l277 -412h-285l-232 365v-365h-237v778h237v-331l211 331h271z" />
    <glyph glyph-name="L.superior" horiz-adv-x="659" 
d="M315 1556v-589h318v-189h-553v778h235z" />
    <glyph glyph-name="M.superior" horiz-adv-x="1187" 
d="M1108 1556v-778h-211v715l-115 -715h-379l-112 713v-713h-211v778h403l111 -718l111 718h403z" />
    <glyph glyph-name="N.superior" horiz-adv-x="940" 
d="M649 840v716h211v-778h-403l-166 717v-717h-211v778h403z" />
    <glyph glyph-name="O.superior" horiz-adv-x="903" 
d="M236 811h-5q-90 49 -143 141q-51 89 -51 215t51 215q53 92 145 142q91 49 213 49t213 -49q94 -51 146 -142q53 -92 53 -215q0 -126 -51 -215q-52 -91 -145 -141q-91 -49 -213 -49t-213 49zM569 1001q43 58 43 164t-43 164q-45 60 -123 60q-75 0 -120 -60
q-43 -58 -43 -164t43 -164q44 -59 120 -59q79 0 123 59z" />
    <glyph glyph-name="P.superior" horiz-adv-x="788" 
d="M426 1556h-2q164 0 250 -71t86 -195q0 -123 -86 -194q-87 -72 -248 -72h-109v-246h-237v778h346zM408 1208v-4q47 0 77 23q29 23 29 61q0 39 -29 62q-26 20 -77 20h-93v-162h93z" />
    <glyph glyph-name="Q.superior" horiz-adv-x="915" 
d="M942 778l-254 -2l-29 33q-96 -47 -210 -47q-122 0 -213 49q-92 49 -144 141q-51 89 -51 215t51 215q52 91 146 142q91 49 213 49t213 -49q92 -50 145 -142t53 -215q0 -132 -61 -233zM522 958l-129 140h215q6 30 6 67q0 106 -43 164q-45 60 -122 60q-76 0 -121 -60
q-43 -58 -43 -164t43 -164q44 -59 121 -59q36 0 73 16z" />
    <glyph glyph-name="R.superior" horiz-adv-x="827" 
d="M547 778l-146 260h-82v-260h-237v778h342q111 0 182 -32q78 -35 117 -92q41 -59 41 -136q0 -72 -33 -125t-98 -88l184 -305h-270zM319 1374l-2 -160h101q47 0 74 21q28 22 28 57q0 42 -26 62t-74 20h-101z" />
    <glyph glyph-name="S.superior" horiz-adv-x="788" 
d="M143 829l9 -10q-96 69 -111 193h244q6 -39 37 -64q30 -24 79 -24q117 0 117 63q0 26 -24 41q-28 18 -84 29l-127 28q-226 50 -226 228q0 73 43 131t117 88q76 31 164 31q158 0 244 -62q87 -63 102 -164h-244q-9 28 -37 43q-27 15 -67 15q-42 0 -66 -15t-24 -39
q0 -18 10 -28q9 -9 35 -19t69 -18l127 -27q108 -21 164 -80t56 -153q0 -124 -99 -189q-100 -65 -268 -65q-146 0 -240 67z" />
    <glyph glyph-name="T.superior" horiz-adv-x="739" 
d="M31 1556h680v-188h-222v-590h-237v590h-221v188z" />
    <glyph glyph-name="U.superior" horiz-adv-x="837" 
d="M156 848l-2 2q-86 83 -86 240v4v465h235v-494v-4q0 -52 29 -84q28 -31 86 -31t86 31q26 29 26 86v493h236v-464q0 -328 -346 -328q-177 0 -264 84z" />
    <glyph glyph-name="V.superior" horiz-adv-x="849" 
d="M424 844l158 712h254l-191 -778h-442l-189 778h254z" />
    <glyph glyph-name="W.superior" horiz-adv-x="1218" 
d="M881 840l92 716h215l-105 -778h-403l-70 725l-71 -725h-404l-104 778h215l92 -716l76 716h391z" />
    <glyph glyph-name="X.superior" horiz-adv-x="860" 
d="M592 1188l270 -410h-284l-148 236l-149 -236h-283l268 410l-248 368h283l129 -204l129 204h283z" />
    <glyph glyph-name="Y.superior" horiz-adv-x="806" 
d="M539 1556h268l-285 -481v-297h-237v297l-285 481h268l135 -256z" />
    <glyph glyph-name="Z.superior" horiz-adv-x="761" 
d="M702 1309l-374 -342h393v-189h-672v248l375 342h-369v188h647v-247z" />
    <glyph glyph-name="G.ss03.superior" horiz-adv-x="894" 
d="M418 1243l434 -8v-111q0 -110 -45 -190q-47 -82 -135 -129q-89 -47 -215 -47q-121 0 -217 47q-95 47 -148 139q-51 89 -51 219q0 126 51 215q52 91 146 142q91 49 213 49q148 0 251 -68q102 -67 136 -196h-246q-18 41 -51 61q-38 23 -86 23q-76 0 -123 -62
q-45 -60 -45 -162q0 -107 45 -164q47 -59 129 -59q70 0 110 37t43 92h-196v172z" />
    <glyph glyph-name="i.loclTRK" horiz-adv-x="610" 
d="M496 0h-379v1120h379v-1120zM498 1245h-387v311h387v-311z" />
    <glyph glyph-name="uni006A0301" horiz-adv-x="610" 
d="M-63 -401l-5 276h54q67 0 98 25t31 90v1130h379v-1171q0 -114 -52 -193q-50 -76 -145 -118q-88 -39 -211 -39h-149zM483 1231h-354l225 328h510z" />
    <glyph glyph-name="germandbls.calt" horiz-adv-x="1611" 
d="M1135 891h-2q121 -21 213 -80q94 -60 145 -149q53 -92 53 -209q0 -156 -67 -263t-191 -163t-287 -56q-79 0 -149 13q-57 11 -129 34v275q73 -29 94 -35q43 -12 100 -12q105 0 166 55q62 56 62 152q0 100 -86 153t-226 53h-55v302l283 274h-527v-1235h-391v1556h1291v-380
z" />
    <glyph glyph-name="a.ss04" horiz-adv-x="1368" 
d="M879 1120l370 2v-1120h-372v211q-43 -107 -138 -172q-97 -66 -221 -66q-135 0 -242 78q-103 75 -159 209q-56 133 -56 299q0 165 56 301t159 211q107 78 242 78q91 0 164 -37q75 -38 123 -98q50 -63 74 -135v239zM831 315l-2 -2q56 89 56 246t-56 246q-56 90 -161 90
q-109 0 -164 -88t-55 -246t55 -246t164 -88q108 0 163 88z" />
    <glyph glyph-name="aacute.ss04" horiz-adv-x="1368" 
d="M879 1120l370 2v-1120h-372v211q-43 -107 -138 -172q-97 -66 -221 -66q-135 0 -242 78q-103 75 -159 209q-56 133 -56 299q0 165 56 301t159 211q107 78 242 78q91 0 164 -37q75 -38 123 -98q50 -63 74 -135v239zM831 315l-2 -2q56 89 56 246t-56 246q-56 90 -161 90
q-109 0 -164 -88t-55 -246t55 -246t164 -88q108 0 163 88zM819 1229h-354l225 327h510z" />
    <glyph glyph-name="abreve.ss04" horiz-adv-x="1368" 
d="M879 1120l370 2v-1120h-372v211q-43 -107 -138 -172q-97 -66 -221 -66q-135 0 -242 78q-103 75 -159 209q-56 133 -56 299q0 165 56 301t159 211q107 78 242 78q91 0 164 -37q75 -38 123 -98q50 -63 74 -135v239zM831 315l-2 -2q56 89 56 246t-56 246q-56 90 -161 90
q-109 0 -164 -88t-55 -246t55 -246t164 -88q108 0 163 88zM455 1266q-91 46 -144 123q-51 74 -51 170h264q0 -61 37 -91t103 -30q67 0 104 30t37 93h264q0 -96 -49 -172q-50 -77 -141 -123q-89 -45 -213 -45q-122 0 -211 45z" />
    <glyph glyph-name="acircumflex.ss04" horiz-adv-x="1368" 
d="M879 1120l370 2v-1120h-372v211q-43 -107 -138 -172q-97 -66 -221 -66q-135 0 -242 78q-103 75 -159 209q-56 133 -56 299q0 165 56 301t159 211q107 78 242 78q91 0 164 -37q75 -38 123 -98q50 -63 74 -135v239zM831 315l-2 -2q56 89 56 246t-56 246q-56 90 -161 90
q-109 0 -164 -88t-55 -246t55 -246t164 -88q108 0 163 88zM899 1556l260 -327h-330l-163 168l-166 -168h-332l262 327h469z" />
    <glyph glyph-name="adieresis.ss04" horiz-adv-x="1368" 
d="M879 1120l370 2v-1120h-372v211q-43 -107 -138 -172q-97 -66 -221 -66q-135 0 -242 78q-103 75 -159 209q-56 133 -56 299q0 165 56 301t159 211q107 78 242 78q91 0 164 -37q75 -38 123 -98q50 -63 74 -135v239zM831 315l-2 -2q56 89 56 246t-56 246q-56 90 -161 90
q-109 0 -164 -88t-55 -246t55 -246t164 -88q108 0 163 88zM602 1245h-387v311h387v-311zM1114 1245h-387v311h387v-311z" />
    <glyph glyph-name="uni1EA1.ss04" horiz-adv-x="1368" 
d="M879 1120l370 2v-1120h-372v211q-43 -107 -138 -172q-97 -66 -221 -66q-135 0 -242 78q-103 75 -159 209q-56 133 -56 299q0 165 56 301t159 211q107 78 242 78q91 0 164 -37q75 -38 123 -98q50 -63 74 -135v239zM831 315l-2 -2q56 89 56 246t-56 246q-56 90 -161 90
q-109 0 -164 -88t-55 -246t55 -246t164 -88q108 0 163 88zM909 -422h-387v311h387v-311z" />
    <glyph glyph-name="agrave.ss04" horiz-adv-x="1368" 
d="M879 1120l370 2v-1120h-372v211q-43 -107 -138 -172q-97 -66 -221 -66q-135 0 -242 78q-103 75 -159 209q-56 133 -56 299q0 165 56 301t159 211q107 78 242 78q91 0 164 -37q75 -38 123 -98q50 -63 74 -135v239zM831 315l-2 -2q56 89 56 246t-56 246q-56 90 -161 90
q-109 0 -164 -88t-55 -246t55 -246t164 -88q108 0 163 88zM866 1229h-352l-383 327h510z" />
    <glyph glyph-name="amacron.ss04" horiz-adv-x="1368" 
d="M879 1120l370 2v-1120h-372v211q-43 -107 -138 -172q-97 -66 -221 -66q-135 0 -242 78q-103 75 -159 209q-56 133 -56 299q0 165 56 301t159 211q107 78 242 78q91 0 164 -37q75 -38 123 -98q50 -63 74 -135v239zM831 315l-2 -2q56 89 56 246t-56 246q-56 90 -161 90
q-109 0 -164 -88t-55 -246t55 -246t164 -88q108 0 163 88zM1075 1260h-823v260h823v-260z" />
    <glyph glyph-name="aogonek.ss04" horiz-adv-x="1368" 
d="M1251 0l-6 -2q-93 -27 -137 -57q-43 -30 -43 -68q0 -31 27 -43t79 -12h76v-238h-129q-188 0 -280 51q-97 54 -97 160q0 60 35 113q34 52 98 98h3v211q-43 -107 -138 -172q-97 -66 -221 -66q-135 0 -242 78q-103 75 -159 209q-56 133 -56 299q0 165 56 301t159 211
q107 78 242 78q91 0 164 -37q75 -38 123 -98q50 -63 74 -135v239h372v-1120zM827 311l-2 -2q56 89 56 246t-56 246q-56 90 -161 90q-109 0 -164 -88q-56 -89 -56 -246t56 -246q55 -88 164 -88q108 0 163 88z" />
    <glyph glyph-name="aring.ss04" horiz-adv-x="1368" 
d="M879 1120l370 2v-1120h-372v211q-43 -107 -138 -172q-97 -66 -221 -66q-135 0 -242 78q-103 75 -159 209q-56 133 -56 299q0 165 56 301t159 211q107 78 242 78q91 0 164 -37q75 -38 123 -98q50 -63 74 -135v239zM831 315l-2 -2q56 89 56 246t-56 246q-56 90 -161 90
q-109 0 -164 -88t-55 -246t55 -246t164 -88q108 0 163 88zM535 1255l-3 -2q-60 37 -98 99q-37 61 -37 133t37 133q38 62 98 96q62 35 134 35q71 0 133 -35q61 -34 96 -96t35 -133q0 -69 -35 -131t-96 -99q-59 -36 -133 -36q-72 0 -131 36zM719 1427q22 25 22 56q0 33 -22 55
q-23 23 -55 23q-33 0 -56 -23q-22 -22 -22 -55q0 -31 22 -56q21 -24 56 -24q34 0 55 24z" />
    <glyph glyph-name="atilde.ss04" horiz-adv-x="1368" 
d="M879 1120l370 2v-1120h-372v211q-43 -107 -138 -172q-97 -66 -221 -66q-135 0 -242 78q-103 75 -159 209q-56 133 -56 299q0 165 56 301t159 211q107 78 242 78q91 0 164 -37q75 -38 123 -98q50 -63 74 -135v239zM831 315l-2 -2q56 89 56 246t-56 246q-56 90 -161 90
q-109 0 -164 -88t-55 -246t55 -246t164 -88q108 0 163 88zM295 1247v-4q3 162 61 244q60 84 160 84q42 0 86 -15t78 -30q70 -33 123 -33q45 0 76 25q33 26 41 61h114q-3 -158 -61 -240q-60 -84 -160 -84q-42 0 -86 15q-43 15 -78 30q-62 33 -123 33q-45 0 -75 -24t-39 -62
h-117z" />
    <glyph glyph-name="y.ss05" horiz-adv-x="1228" 
d="M616 387l218 733h405l-520 -1521h-406l123 354l-459 1167h396z" />
    <glyph glyph-name="yacute.ss05" horiz-adv-x="1228" 
d="M616 387l218 733h405l-520 -1521h-406l123 354l-459 1167h396zM758 1229h-355l226 327h510z" />
    <glyph glyph-name="ycircumflex.ss05" horiz-adv-x="1228" 
d="M616 387l218 733h405l-520 -1521h-406l123 354l-459 1167h396zM838 1556l260 -327h-330l-164 168l-166 -168h-332l263 327h469z" />
    <glyph glyph-name="ydieresis.ss05" horiz-adv-x="1228" 
d="M616 387l218 733h405l-520 -1521h-406l123 354l-459 1167h396zM541 1245h-387v311h387v-311zM1053 1245h-387v311h387v-311z" />
    <glyph glyph-name="ygrave.ss05" horiz-adv-x="1228" 
d="M616 387l218 733h405l-520 -1521h-406l123 354l-459 1167h396zM803 1229h-352l-383 327h510z" />
    <glyph glyph-name="uni0233.ss05" horiz-adv-x="1228" 
d="M616 387l218 733h405l-520 -1521h-406l123 354l-459 1167h396zM1014 1260h-824v260h824v-260z" />
    <glyph glyph-name="uni1EF9.ss05" horiz-adv-x="1228" 
d="M616 387l218 733h405l-520 -1521h-406l123 354l-459 1167h396zM231 1247v-4q3 161 62 244q60 84 160 84q43 0 86 -15q39 -13 77 -30q70 -33 123 -33q45 0 76 25q33 26 41 61h115q-3 -157 -62 -240q-60 -84 -159 -84q-42 0 -86 15t-78 30q-62 33 -123 33q-46 0 -76 -24
t-39 -62h-117z" />
    <glyph glyph-name="i_j.loclNLD" horiz-adv-x="1216" 
d="M498 1245h-387v311h387v-311zM1104 1245h-387v311h387v-311zM117 -401l-2 227h473q62 0 98 31q33 29 33 94v1169h379v-1171q0 -116 -51 -193t-144 -118q-88 -39 -211 -39h-575zM494 -2h-379v1120h379v-1120z" />
    <glyph glyph-name="a.inferior" horiz-adv-x="706" 
d="M575 283l-4 -4q72 -66 72 -166v-4v-347h-225v84q-23 -45 -68 -73q-44 -27 -108 -27q-55 0 -103 25q-46 24 -73 67q-27 44 -27 99q0 88 65 129q63 40 170 49l146 12v4v4q0 32 -19 51t-45 19q-28 0 -43 -15t-18 -36h-234q12 87 93 141q77 51 200 51q152 0 221 -63zM389 -92
v2q22 31 25 84l-64 -6q-38 -3 -61 -19q-21 -15 -21 -39q0 -22 17 -39q14 -14 43 -14q39 0 61 31z" />
    <glyph glyph-name="b.inferior" horiz-adv-x="724" 
d="M582 307l-9 -2q54 -42 80 -106q27 -67 27 -152q0 -81 -25 -151q-24 -68 -75 -107t-123 -39q-53 0 -101 31q-46 29 -67 80v-94h-223v778h223v-328q18 55 61 92t109 37q72 0 123 -39zM444 47q0 141 -84 141t-84 -141t84 -141t84 141z" />
    <glyph glyph-name="c.inferior" horiz-adv-x="686" 
d="M186 -211l-2 -2q-70 37 -110 104q-39 65 -39 156q0 86 41 154q40 67 110 104t160 37q84 0 148 -27t104 -79t49 -123h-233q-3 34 -21 55q-17 20 -49 20q-40 0 -57 -36q-19 -40 -19 -105q0 -141 80 -141q60 0 72 69h233q-9 -69 -53 -122q-43 -52 -108 -76q-67 -25 -142 -25
q-94 0 -164 37z" />
    <glyph glyph-name="d.inferior" horiz-adv-x="724" 
d="M434 545l223 2v-778h-223v94q-21 -51 -67 -80q-48 -31 -101 -31q-72 0 -123 39q-54 42 -80 107t-26 151q0 87 26 152q26 64 80 106q51 39 123 39q64 0 107 -37t61 -92v328zM440 51q0 142 -84 142t-84 -142q0 -141 84 -141t84 141z" />
    <glyph glyph-name="e.inferior" horiz-adv-x="684" 
d="M645 -12l-395 4q15 -96 80 -96q46 0 61 45h234q-30 -89 -107 -136t-190 -47q-91 0 -158 37q-66 37 -104 105q-37 67 -37 153q0 89 39 154q40 67 110 104t160 37t160 -37q71 -38 110 -106q41 -71 41 -168q0 -3 -4 -49zM250 121l160 -2q-3 42 -25 67t-55 25q-62 0 -80 -90z
" />
    <glyph glyph-name="f.inferior" horiz-adv-x="475" 
d="M401 395l2 -2q-28 0 -45 -10q-14 -8 -14 -37v-14h107v-166h-107v-399h-229v399h-82v166h82v24q0 91 61 140t164 49h109v-150h-48z" />
    <glyph glyph-name="g.inferior" horiz-adv-x="724" 
d="M438 332l224 -6v-537q0 -132 -89 -188t-208 -56q-64 0 -132 19q-64 18 -110 61t-55 109h233q9 -39 61 -39q35 0 54 22q18 21 18 68v90q-21 -48 -67 -74q-48 -28 -101 -28q-71 0 -123 37q-53 38 -77 102q-25 67 -25 147q0 83 27 148t79 102t123 37q66 0 109 -37
q44 -38 59 -90v113zM444 53h-4q0 66 -20 99q-19 32 -62 32q-42 0 -61 -32q-21 -34 -21 -99q0 -129 84 -129t84 129z" />
    <glyph glyph-name="h.inferior" horiz-adv-x="710" 
d="M608 287h-4q41 -59 41 -156v-4v-360h-229v311v4q0 54 -15 78t-45 24q-63 0 -63 -108v-312h-227v779h223v-334q47 135 184 135q96 0 135 -57z" />
    <glyph glyph-name="i.inferior" horiz-adv-x="362" 
d="M295 381h-227v164h227v-164zM295 -233h-227v565h227v-565z" />
    <glyph glyph-name="j.inferior" horiz-adv-x="362" 
d="M295 381h-227v164h227v-164zM-16 -434l-2 160h24q60 0 60 51v555h227v-578q0 -89 -62 -139q-61 -49 -161 -49h-86z" />
    <glyph glyph-name="k.inferior" horiz-adv-x="710" 
d="M516 80l193 -313h-260l-152 264v-264h-229v778h229v-424l149 211h252z" />
    <glyph glyph-name="l.inferior" horiz-adv-x="362" 
d="M295 -233h-227v778h227v-778z" />
    <glyph glyph-name="m.inferior" horiz-adv-x="1042" 
d="M981 131v-4v-360h-229v311v4q0 104 -58 104q-57 0 -57 -108v-311h-227v311v4q0 104 -58 104q-57 0 -57 -108v-311h-227v565h223v-119q53 133 178 133q69 0 109 -37t55 -96q22 60 63 96q43 37 111 37q174 0 174 -215z" />
    <glyph glyph-name="n.inferior" horiz-adv-x="710" 
d="M608 287h-4q41 -59 41 -156v-4v-360h-229v311v4q0 54 -15 78t-45 24q-63 0 -63 -108v-312h-227v566h223v-121q47 135 184 135q96 0 135 -57z" />
    <glyph glyph-name="o.inferior" horiz-adv-x="706" 
d="M184 -211q-70 37 -108 105q-37 67 -37 153q0 87 37 154q37 66 108 104q70 37 170 37t170 -37q73 -39 109 -104q37 -67 37 -154q0 -86 -37 -153t-109 -105q-70 -37 -170 -37t-170 37zM438 47q0 141 -84 141t-84 -141t84 -141t84 141z" />
    <glyph glyph-name="p.inferior" horiz-adv-x="724" 
d="M582 307l-9 -2q54 -42 80 -106q27 -67 27 -152q0 -81 -25 -151q-24 -68 -75 -107t-123 -39q-53 0 -101 31q-46 29 -67 80v-295h-223v766h223v-115q18 55 61 92t109 37q72 0 123 -39zM444 47q0 141 -84 141t-84 -141t84 -141t84 141z" />
    <glyph glyph-name="q.inferior" horiz-adv-x="724" 
d="M434 332l223 2v-766h-223v295q-21 -51 -67 -80q-48 -31 -101 -31q-72 0 -123 39q-54 42 -80 107t-26 151q0 87 26 152q26 64 80 106q51 39 123 39q64 0 107 -37t61 -92v115zM440 51q0 142 -84 142t-84 -142q0 -141 84 -141t84 141z" />
    <glyph glyph-name="r.inferior" horiz-adv-x="501" 
d="M291 156q12 79 59 135q46 55 127 55v-221h-55q-127 0 -127 -121v-237h-227v565h223v-176z" />
    <glyph glyph-name="s.inferior" horiz-adv-x="655" 
d="M125 -203l-2 2q-77 47 -92 142h233q9 -56 72 -56q31 0 47 13t16 28q0 17 -14 25q-16 10 -51 18l-127 29q-83 18 -123 55q-39 36 -39 103q0 57 37 100q39 45 98 68q62 24 135 24q116 0 195 -43q80 -44 98 -127h-233q-3 20 -19 29q-17 10 -41 10q-26 0 -39 -8
q-14 -8 -14 -25q0 -15 12 -24q14 -10 43 -19l125 -26q90 -21 133 -64t43 -112q0 -90 -83 -140q-82 -49 -213 -49q-120 0 -197 47z" />
    <glyph glyph-name="t.inferior" horiz-adv-x="491" 
d="M340 166l-2 -182v-4q0 -27 14 -35q18 -11 43 -11h43v-165h-104q-100 0 -162 47q-61 46 -61 135v4v211h-88v166h88v133h229v-133h100v-166h-100z" />
    <glyph glyph-name="u.inferior" horiz-adv-x="706" 
d="M412 332l231 2v-565h-225v110q-43 -125 -178 -125q-92 0 -136 53q-43 52 -43 160v4v361h228v-309v-5q0 -106 61 -106q62 0 62 108v312z" />
    <glyph glyph-name="v.inferior" horiz-adv-x="686" 
d="M344 -176l98 508h226l-117 -565h-416l-117 565h226z" />
    <glyph glyph-name="w.inferior" horiz-adv-x="978" 
d="M705 -176l61 508h184l-71 -565h-347l-43 514l-40 -514h-349l-71 565h184l61 -508l50 508h331z" />
    <glyph glyph-name="x.inferior" horiz-adv-x="681" 
d="M483 61l193 -294h-244l-92 161l-90 -161h-244l191 294l-179 271h242l82 -144l80 144h242z" />
    <glyph glyph-name="y.inferior" horiz-adv-x="696" 
d="M342 -111l98 443h242l-174 -766h-238l58 258h-193l-119 508h232z" />
    <glyph glyph-name="z.inferior" horiz-adv-x="634" 
d="M575 123l-251 -191h268v-165h-541v208l252 191h-248v166h520v-209z" />
    <glyph glyph-name="a.ss04.inferior" horiz-adv-x="724" 
d="M434 332l223 2v-565h-223v94q-21 -51 -67 -80q-48 -31 -101 -31q-72 0 -123 39q-54 42 -80 107t-26 151q0 87 26 152q26 64 80 106q51 39 123 39q64 0 107 -37t61 -92v115zM440 51q0 142 -84 142t-84 -142q0 -141 84 -141t84 141z" />
    <glyph glyph-name="y.ss05.inferior" horiz-adv-x="657" 
d="M324 -14l92 346h235l-245 -766h-236l53 168l-227 598h233z" />
    </font>
</defs>
</svg>
