<?xml version="1.0" standalone="no"?>
<!DOCTYPE svg PUBLIC "-//W3C//DTD SVG 1.1//EN" "http://www.w3.org/Graphics/SVG/1.1/DTD/svg11.dtd" >
<svg xmlns="http://www.w3.org/2000/svg" xmlns:xlink="http://www.w3.org/1999/xlink" version="1.1">
<metadata>
Created by FontForge 20170731 at Fri Apr 21 21:41:39 2023
 By Aleksey,,,
(c) 2014-2020. Copyright by TYPE.WELTKERN :. All rights reserved.
</metadata>
<defs>
<font id="TWKEverett-Ultralight" horiz-adv-x="1536" >
  <font-face 
    font-family="TWK Everett"
    font-weight="250"
    font-stretch="normal"
    units-per-em="2048"
    panose-1="2 11 2 4 0 0 0 0 0 0"
    ascent="1638"
    descent="-410"
    x-height="1083"
    cap-height="1556"
    bbox="-1675 -563 6722 2114"
    underline-thickness="69"
    underline-position="-492"
    unicode-range="U+000D-FEFF"
  />
<missing-glyph horiz-adv-x="1476" 
d="M1239 0h-1001v1556h1001v-1556zM332 1475v-1393h813v1393h-813z" />
    <glyph glyph-name="fi" unicode="fi" horiz-adv-x="1167" 
d="M983 1083l-4 -1081h-92v1010h-518v-1010h-93v1010h-253v73h253v209q0 129 74 197t203 68h131v-74h-123q-96 0 -141 -45q-47 -47 -47 -148v-209h610zM885 1307v252h98v-252h-98z" />
    <glyph glyph-name="fl" unicode="fl" horiz-adv-x="1167" 
d="M983 0l-96 2v1483h-328q-96 0 -141 -45q-47 -47 -47 -148v-209h313v-73h-313v-1010h-92v1010h-254v73h254v209q0 130 73 197t203 67h428v-1556z" />
    <glyph glyph-name="W_W_W" unicode="WWW" horiz-adv-x="6760" 
d="M610 0h-102l-469 1556h102zM737 0h-102l395 1556h100zM1653 0h-101l-395 1556h100zM1782 0h-103l467 1556h103zM2847 0h-103l-469 1556h103zM2974 0h-103l396 1556h100zM3889 0h-100l-395 1556h100zM4018 0h-102l467 1556h102zM5083 0h-102l-469 1556h102zM5210 0h-102
l395 1556h100zM6126 0h-101l-395 1556h100zM6255 0h-103l467 1556h103z" />
    <glyph glyph-name="f_f" unicode="ff" horiz-adv-x="1417" 
d="M1272 1483l-8 4q-97 0 -142 -45q-47 -47 -47 -148v-209h314v-73h-314v-1010h-92v1010h-616v-1010h-93v1010h-254v73h254v209q0 129 74 197t203 68h131v-74h-123q-96 0 -141 -45q-47 -47 -47 -148v-209h616v209q0 129 74 197q73 67 203 67h131v-73h-123z" />
    <glyph glyph-name="f_f_i" unicode="ffi" horiz-adv-x="1875" 
d="M1694 1083l-8 -1079h-93v1010h-520v-1010h-92v1010h-616v-1010h-93v1010h-254v73h254v209q0 129 74 197t203 68h131v-74h-123q-96 0 -141 -45q-47 -47 -47 -148v-209h616v209q0 129 74 197t203 68h131v-74h-123q-97 0 -142 -45q-47 -47 -47 -148v-209h613zM1591 1309v252
h97v-252h-97z" />
    <glyph glyph-name="f_f_l" unicode="ffl" horiz-adv-x="1875" 
d="M1602 1556l84 5v-1557h-93v1010h-520v-1010h-92v1010h-616v-1010h-93v1010h-254v73h254v209q0 129 74 197t203 68h131v-74h-123q-96 0 -141 -45q-47 -47 -47 -148v-209h616v209q0 129 74 197t203 68h131v-74h-123q-97 0 -142 -45q-47 -47 -47 -148v-209h521v473z" />
    <glyph glyph-name="f_j" unicode="fj" horiz-adv-x="1167" 
d="M983 1083l-2 -1220q0 -129 -74 -197q-73 -67 -202 -67h-52v73h45q97 0 142 45q47 47 47 148v1147h-518v-1010h-93v1010h-253v73h253v209q0 129 74 197t203 68h131v-74h-123q-96 0 -141 -45q-47 -47 -47 -148v-209h610zM887 1305v251h98v-251h-98z" />
    <glyph glyph-name="f_t" unicode="ft" horiz-adv-x="1429" 
d="M1393 74l-2 -76h-136q-126 0 -200 68t-74 194v4v746h-610v-1010h-92v1010h-254v73h254v209q0 130 73 197t203 67h131v-73h-123q-96 0 -141 -45q-47 -47 -47 -148v-209h610v256h92v-256h316v-73h-316v-746v-4q0 -97 47 -141q46 -43 142 -43h127z" />
    <glyph glyph-name="t_f" unicode="tf" horiz-adv-x="1429" 
d="M1282 1483v-2q-96 0 -141 -45t-45 -148v-209h313v-73h-313v-1010h-92v1010h-635v-746v-4q0 -97 47 -141q46 -43 141 -43h127v-74h-135q-129 0 -203 68t-74 194v4v746h-252v73h252v256h93v-256h634v209q0 129 74 197q73 67 203 67h131v-73h-125z" />
    <glyph glyph-name="t_t" unicode="tt" horiz-adv-x="1439" 
d="M1087 264l7 -12q0 -97 47 -141q46 -43 141 -43h127v-74h-133q-130 0 -203 67q-74 68 -74 195v4v746h-628v-746v-4q0 -97 47 -141q46 -43 141 -43h127v-74h-135q-129 0 -203 68t-74 194v4v746h-251v73h251v256h93v-256h628v256h92v-256h316v-73h-316v-746z" />
    <glyph glyph-name="w_w_w" unicode="www" horiz-adv-x="5251" 
d="M483 0h-92l-344 1083h90zM600 0h-92l287 1083h90zM1286 0h-90l-285 1083h90zM1405 0h-92l344 1083h92zM2212 0h-92l-344 1083h90zM2329 0h-93l287 1083h90zM3015 0h-90l-285 1083h90zM3133 0h-92l344 1083h93zM3938 0h-92l-344 1083h90zM4055 0h-92l287 1083h90zM4741 0
h-90l-285 1083h90zM4860 0h-92l344 1083h92z" />
    <glyph glyph-name=".notdef" horiz-adv-x="1476" 
d="M1239 0h-1001v1556h1001v-1556zM332 1475v-1393h813v1393h-813z" />
    <glyph glyph-name=".null" horiz-adv-x="0" 
 />
    <glyph glyph-name="nonmarkingreturn" unicode="&#xd;" horiz-adv-x="552" 
 />
    <glyph glyph-name="space" unicode=" " horiz-adv-x="552" 
 />
    <glyph glyph-name="exclam" unicode="!" horiz-adv-x="520" 
d="M301 492h-84l-6 1064h98zM313 0h-106v236h106v-236z" />
    <glyph glyph-name="quotedbl" unicode="&#x22;" horiz-adv-x="630" 
d="M231 1053h-71l-15 503h101zM471 1053h-72l-14 503h100z" />
    <glyph glyph-name="numbersign" unicode="#" horiz-adv-x="1585" 
d="M1505 1083v-71h-356l-96 -471h342v-74h-359l-96 -467h-84l96 467h-452l-97 -467h-84l97 467h-336v74h352l96 471h-338v71h353l98 473h84l-98 -473h452l99 473h84l-99 -473h342zM516 541h453l96 471h-453z" />
    <glyph glyph-name="dollar" unicode="$" horiz-adv-x="1306" 
d="M1133 213l-7 -12q-61 -104 -176 -166q-113 -61 -264 -70v-246h-88v248q-133 9 -240 70q-109 62 -176 166q-69 108 -84 239h97q15 -113 69 -196t142 -137q86 -53 194 -62v735l-68 17q-115 27 -196 67q-83 41 -139 115t-56 188q0 102 60 193q57 87 164 143q106 56 237 62
v235h88v-237q129 -9 232 -62q100 -51 165 -141q65 -89 80 -209h-96q-16 98 -67 170t-134 117q-81 44 -180 53v-631l82 -20q149 -39 236 -86q93 -50 139 -123q47 -74 47 -182q0 -134 -61 -238zM274 1030v2q44 -56 119 -90q70 -32 203 -68v611q-109 -6 -190 -49
q-84 -44 -130 -111q-45 -65 -45 -151q0 -89 43 -144zM682 47v4q125 6 215 55t141 134q49 82 49 190q0 97 -51 160q-50 61 -135 100q-83 38 -213 68l-6 2v-713z" />
    <glyph glyph-name="percent" unicode="%" horiz-adv-x="1839" 
d="M231 752v-2q-72 52 -112 149q-39 95 -39 238q0 142 39 237q42 102 112 152q71 51 175 51q103 0 174 -51q72 -51 112 -150q39 -95 39 -237q0 -143 -39 -238q-40 -97 -112 -149q-73 -52 -174 -52q-102 0 -175 52zM530 -2h-94l869 1556h94zM582 858v-2q63 92 63 277
q0 184 -63 276q-66 96 -179 96q-112 0 -178 -96q-63 -92 -63 -276q0 -185 63 -277q64 -94 178 -94q113 0 179 96zM1257 23v-3q-72 51 -112 150q-39 95 -39 238q0 142 39 237q42 102 112 152q71 51 175 51q103 0 174 -51q72 -51 112 -150q39 -95 39 -237q0 -143 -39 -238
q-40 -97 -112 -149q-73 -52 -174 -52q-102 0 -175 52zM1608 129v-2q63 92 63 276q0 185 -63 277q-66 96 -178 96q-113 0 -179 -96q-63 -92 -63 -277q0 -184 63 -276q64 -94 179 -94q112 0 178 96z" />
    <glyph glyph-name="ampersand" unicode="&#x26;" horiz-adv-x="1507" 
d="M1468 0l-131 -4l-245 276q-91 -137 -218 -217t-294 -80q-139 0 -252 52q-115 53 -181 153q-67 101 -67 240q0 130 55 221q57 94 148 158q90 64 227 129l-23 24q-40 44 -88 109q-32 44 -51 98q-18 53 -18 111q0 83 43 153q44 71 121 115q76 43 178 43q104 0 178 -39
q76 -40 119 -110t43 -160q0 -81 -43 -142q-41 -58 -111 -106q-64 -44 -172 -98l-33 -17l443 -493l227 383h94l-266 -445zM453 1137l-4 -7q45 -70 112 -145l23 -24l28 14q112 56 162 88q57 36 92 84q35 47 35 110q0 118 -67 179t-175 61q-62 0 -122 -29q-53 -26 -88 -79
q-33 -50 -33 -123q0 -71 37 -129zM842 117l-2 -6q108 76 190 208l-475 533q-134 -65 -215 -123q-82 -59 -129 -135q-45 -74 -45 -184q0 -116 57 -199q58 -84 152 -129q90 -43 200 -43q157 0 267 78z" />
    <glyph glyph-name="quotesingle" unicode="'" horiz-adv-x="391" 
d="M231 1053h-71l-15 503h101z" />
    <glyph glyph-name="parenleft" unicode="(" horiz-adv-x="575" 
d="M444 -401v2q-329 467 -329 987q0 281 90 522q88 237 239 449h99q-152 -217 -242 -451q-92 -238 -92 -522q0 -515 334 -987h-99z" />
    <glyph glyph-name="parenright" unicode=")" horiz-adv-x="575" 
d="M31 -401l2 -5q336 478 336 990q0 279 -93 520q-90 233 -243 452h98q154 -217 240 -448q90 -241 90 -522q0 -523 -332 -987h-98z" />
    <glyph glyph-name="asterisk" unicode="*" horiz-adv-x="917" 
d="M801 1573l20 -64l-307 -102l201 -272l-56 -39l-200 268l-203 -268l-55 39l202 272l-307 102l21 64l307 -103v316h68v-316z" />
    <glyph glyph-name="plus" unicode="+" horiz-adv-x="1292" 
d="M686 590h502v-76h-502v-514h-80v514h-502v76h502v493h80v-493z" />
    <glyph glyph-name="comma" unicode="," horiz-adv-x="452" 
d="M174 -2v238h105v-250l-127 -244h-74l121 256h-25z" />
    <glyph glyph-name="hyphen" unicode="-" horiz-adv-x="864" 
d="M745 535h-626v77h626v-77z" />
    <glyph glyph-name="period" unicode="." horiz-adv-x="452" 
d="M279 0h-105v236h105v-236z" />
    <glyph glyph-name="slash" unicode="/" horiz-adv-x="915" 
d="M166 0h-100l686 1556h98z" />
    <glyph glyph-name="zero" unicode="0" horiz-adv-x="1423" 
d="M403 70v-4q-126 90 -198 274q-70 180 -70 436t70 436q72 186 198 275q130 92 308 92q177 0 307 -92q128 -91 199 -273q69 -178 69 -436t-69 -436q-70 -181 -199 -272q-131 -93 -307 -93q-177 0 -308 93zM965 133l-7 -4q107 79 166 244q60 168 60 399q0 237 -58 399
q-60 166 -165 244q-109 80 -254 80t-254 -80q-108 -80 -166 -241q-58 -162 -58 -400q0 -231 60 -399q58 -163 166 -242q109 -80 254 -80q147 0 256 80z" />
    <glyph glyph-name="one" unicode="1" horiz-adv-x="710" 
d="M406 1556h77v-1556h-94v1255h-334v82h195q53 0 90 11q31 9 43 30t18 62z" />
    <glyph glyph-name="two" unicode="2" horiz-adv-x="1292" 
d="M205 82h991v-82h-1092v115l680 612q86 77 142 139q54 60 90 133q35 72 35 154q0 92 -47 172q-46 79 -140 127q-92 47 -221 47q-122 0 -215 -41q-90 -40 -147 -115q-55 -73 -64 -176h-98q9 130 80 222t186 141q116 49 258 49q154 0 268 -57q119 -60 179 -156
q61 -98 61 -211q0 -96 -37 -174q-41 -86 -98 -152q-53 -60 -158 -159z" />
    <glyph glyph-name="three" unicode="3" horiz-adv-x="1318" 
d="M961 776l-11 -16q99 -46 164 -125q68 -83 68 -209q0 -149 -78 -256q-74 -102 -207 -156q-125 -51 -283 -51q-140 0 -252 47q-109 46 -180 135t-86 215h99q21 -151 131 -233t290 -82q125 0 232 43q106 43 174 129t68 215q0 113 -68 193q-66 77 -174 118q-104 39 -227 39
h-76v80h76q113 0 206 41q92 41 148 115q55 73 55 164q0 87 -49 157q-50 71 -143 111q-96 41 -217 41q-116 0 -197 -37q-82 -37 -131 -104q-48 -65 -57 -154h-99q9 109 78 197q68 87 174 135q107 49 236 49q142 0 260 -47q115 -46 184 -133q68 -86 68 -203q0 -162 -111 -248
q-110 -85 -256 -112q99 -16 191 -58z" />
    <glyph glyph-name="four" unicode="4" horiz-adv-x="1318" 
d="M1012 582h245v-80h-245v-502h-94v502h-863v114l731 940h107l-756 -974h781v974h94v-974z" />
    <glyph glyph-name="five" unicode="5" horiz-adv-x="1316" 
d="M956 987l-6 -4q118 -65 185 -184t67 -283q0 -165 -69 -285q-70 -123 -193 -190q-124 -68 -276 -68q-137 0 -252 50q-118 51 -189 137q-73 88 -94 209h98q16 -95 76 -164q61 -71 156 -111q91 -39 209 -39q126 0 229 56q102 56 160 159q57 102 57 246q0 145 -57 244
q-58 101 -156 153q-102 54 -223 54q-155 0 -270 -74q-114 -73 -172 -199l-93 11l82 849h901v-81h-815l-67 -691q35 72 96 133q60 60 152 99q87 37 202 37q146 0 262 -64z" />
    <glyph glyph-name="six" unicode="6" horiz-adv-x="1382" 
d="M1014 954l-4 -8q120 -65 184 -180q66 -120 66 -274t-72 -273q-71 -117 -197 -182q-125 -64 -276 -64q-183 0 -314 88q-130 87 -202 269q-70 177 -70 446q0 255 74 438q74 182 205 273q133 92 305 92q199 0 327 -98q131 -101 183 -277h-99q-47 137 -147 215
q-103 80 -264 80q-159 0 -271 -92q-108 -89 -161 -254q-54 -168 -54 -375q0 -64 6 -135q26 109 103 199q72 84 178 131q102 45 217 45q164 0 283 -64zM942 106v-2q102 58 160 160q57 99 57 228q0 131 -51 227q-53 100 -154 158q-99 57 -241 57q-130 0 -238 -60
q-103 -57 -162 -153q-57 -92 -57 -193q0 -121 51 -229q52 -110 156 -180t252 -70q128 0 227 57z" />
    <glyph glyph-name="seven" unicode="7" horiz-adv-x="1060" 
d="M47 1475v81h971v-114l-756 -1442h-108l776 1475h-883z" />
    <glyph glyph-name="eight" unicode="8" horiz-adv-x="1382" 
d="M1038 778l-14 -6q91 -48 154 -131q63 -84 63 -213q0 -142 -76 -246q-75 -102 -204 -155q-133 -54 -283 -54q-146 0 -279 54q-127 52 -204 157q-76 104 -76 246q0 129 63 213q65 86 154 133t172 62q-84 15 -156 55q-74 41 -127 115q-51 71 -51 182t64 199q66 91 180 139
q116 49 268 49q154 0 270 -49q117 -50 181 -137q63 -86 63 -199q0 -111 -51 -182q-53 -74 -127 -115q-72 -40 -156 -55q83 -15 172 -62zM307 1022h4q46 -69 140 -111q93 -41 231 -41t231 41t136 111t43 160q0 88 -50 159t-141 111q-93 41 -223 41q-127 0 -223 -41
q-95 -40 -144 -111q-49 -70 -49 -159q0 -92 45 -160zM907 92l-2 -2q107 43 172 129q66 87 66 209q0 121 -64 203t-170 123t-229 41q-125 0 -229 -39q-107 -40 -172 -123q-64 -82 -64 -203q0 -122 66 -209q65 -86 172 -129t227 -43t227 43z" />
    <glyph glyph-name="nine" unicode="9" horiz-adv-x="1382" 
d="M975 1491l-4 -4q133 -89 203 -266q71 -180 71 -445q0 -255 -74 -438q-74 -182 -204 -272q-134 -93 -303 -93q-199 0 -328 99q-130 100 -182 276h98q47 -137 147 -215q103 -80 265 -80q158 0 270 92t164 254q53 165 53 375q0 66 -6 137q-26 -108 -103 -198
q-72 -84 -178 -131q-102 -45 -217 -45q-165 0 -282 63q-120 65 -185 182q-63 114 -63 275q0 156 71 274q71 117 197 182q129 66 277 66q182 0 313 -88zM897 672h-6q106 59 164 153q59 95 59 193q0 121 -51 229q-52 110 -156 180t-252 70q-128 0 -227 -57q-102 -58 -160 -160
q-57 -99 -57 -227t53 -228q51 -96 154 -155q101 -58 241 -58q130 0 238 60z" />
    <glyph glyph-name="colon" unicode=":" horiz-adv-x="452" 
d="M279 0h-105v236h105v-236zM279 680h-105v235h105v-235z" />
    <glyph glyph-name="semicolon" unicode=";" horiz-adv-x="454" 
d="M174 -2v238h105v-250l-127 -244h-74l121 256h-25zM281 680h-105v235h105v-235z" />
    <glyph glyph-name="less" unicode="&#x3c;" horiz-adv-x="1177" 
d="M106 604l934 430v-84l-880 -405l880 -406v-84l-934 430v119z" />
    <glyph glyph-name="equal" unicode="=" horiz-adv-x="1304" 
d="M1143 717h-979v76h979v-76zM1143 313h-979v78h979v-78z" />
    <glyph glyph-name="greater" unicode="&#x3e;" horiz-adv-x="1177" 
d="M137 950v84l934 -430v-119l-934 -430v84l879 406z" />
    <glyph glyph-name="question" unicode="?" horiz-adv-x="1064" 
d="M444 492q0 134 45 223q49 96 148 176l74 61q54 44 100 90q38 38 59 84q23 51 23 105q0 70 -39 129q-40 62 -123 102q-79 39 -203 39q-102 0 -180 -37q-81 -38 -129 -104q-49 -67 -55 -160h-94q9 120 73 205q65 86 166 129t221 43q136 0 240 -43q103 -43 162 -123
q57 -77 57 -180q0 -73 -26 -129t-68 -98q-45 -45 -104 -93l-76 -63q-67 -55 -107 -107t-55 -110q-16 -62 -16 -139h-93zM547 0h-107v236h107v-236z" />
    <glyph glyph-name="at" unicode="@" horiz-adv-x="2013" 
d="M1448 1239l-8 -2q204 -119 325 -326t121 -448q0 -170 -43 -277t-114 -157q-70 -49 -160 -49q-75 0 -137 30q-59 29 -101 86q-39 53 -45 133q-40 -106 -133 -178q-90 -69 -233 -69q-99 0 -172 36q-76 38 -123 105q-45 65 -45 158q0 101 61 159q62 59 154 86q98 29 217 43
l276 35v27v4q0 78 -31 145q-29 63 -96 105q-65 41 -160 41q-86 0 -153 -31q-63 -29 -98 -80q-33 -47 -39 -110h-97q9 83 60 153q49 67 133 105q79 36 194 36q124 0 209 -49q86 -50 129 -129t43 -174v-4v-367v-4q0 -100 56 -159q55 -58 145 -58q106 0 168 92q61 91 61 314
q0 221 -110 407q-110 187 -297 297q-187 111 -408 111q-219 0 -407 -111q-187 -110 -297 -297q-111 -188 -111 -407q0 -221 111 -408q110 -187 297 -297q186 -110 407 -110q199 0 398 106l43 -69q-210 -115 -441 -115q-241 0 -448 121t-326 325t-119 449q0 241 121 448
q120 206 326 326q207 121 448 121q245 0 449 -119zM1122 98l-4 4q76 46 117 127q41 80 41 183v125l-219 -27q-117 -14 -203 -37q-82 -22 -133 -67q-53 -47 -53 -125q0 -71 37 -123q38 -54 98 -80q61 -27 135 -27q107 0 184 47z" />
    <glyph glyph-name="A" unicode="A" horiz-adv-x="1499" 
d="M1485 0h-105l-206 522h-848l-207 -522h-105l621 1556h102l-377 -946h779l-377 946h102z" />
    <glyph glyph-name="B" unicode="B" horiz-adv-x="1439" 
d="M1118 748l-2 2q100 -50 152 -132q53 -83 53 -196q0 -132 -68 -227t-196 -144t-314 -49h-522v1557h522q163 0 281 -50q117 -50 178 -137q62 -89 62 -203q0 -153 -105 -245q-106 -93 -278 -119q141 -9 237 -57zM1110 1325h-2q-49 70 -143 107q-91 36 -224 36h-426v-618h426
q131 0 224 37q98 39 145 106q49 70 49 166t-49 166zM741 88v-2q238 0 357 88t119 248q0 164 -119 252t-357 88h-428v-674h428z" />
    <glyph glyph-name="C" unicode="C" horiz-adv-x="1587" 
d="M465 78l-4 -2q-162 104 -252 282q-92 182 -92 416t92 416q91 180 256 283q163 102 362 102q168 0 306 -66t225 -178q88 -114 135 -258h-102q-70 187 -211 301q-142 115 -351 115q-168 0 -307 -92q-138 -91 -217 -254q-80 -165 -80 -369q0 -203 80 -368q79 -162 215 -254
q137 -93 299 -93q222 0 369 111t217 309h102q-83 -246 -258 -375t-432 -129q-191 0 -352 103z" />
    <glyph glyph-name="D" unicode="D" horiz-adv-x="1613" 
d="M727 1556h-4q230 0 403 -92q175 -93 269 -268t94 -418t-94 -418q-95 -177 -267 -268q-173 -92 -401 -92h-504v1556h504zM725 88h-2q199 0 350 80q154 82 232 235q79 155 79 375t-79 375q-80 156 -230 236q-149 79 -350 79h-410v-1380h410z" />
    <glyph glyph-name="E" unicode="E" horiz-adv-x="1318" 
d="M319 762v-674h881v-88h-977v1556h959v-88h-863v-618h848v-88h-848z" />
    <glyph glyph-name="F" unicode="F" horiz-adv-x="1255" 
d="M1165 1556v-88h-846v-643h834v-88h-834v-737h-96v1556h942z" />
    <glyph glyph-name="G" unicode="G" horiz-adv-x="1681" 
d="M788 795h719v-795h-88v446q-29 -117 -104 -227q-72 -106 -199 -174t-295 -68q-197 0 -358 103q-162 104 -252 282q-92 182 -92 416t92 416q91 180 256 283q164 102 358 102q176 0 308 -63q138 -66 225 -175q88 -110 135 -256h-102q-68 188 -209 299t-355 111
q-168 0 -307 -92q-137 -91 -217 -256t-80 -369q0 -203 80 -368q78 -161 219 -254q140 -93 312 -93q164 0 299 78q131 76 208 221q76 143 76 345h-629v88z" />
    <glyph glyph-name="H" unicode="H" horiz-adv-x="1613" 
d="M1294 850v706h97v-1556h-97v762h-975v-762h-96v1556h96v-706h975z" />
    <glyph glyph-name="I" unicode="I" horiz-adv-x="542" 
d="M319 0h-96v1556h96v-1556z" />
    <glyph glyph-name="J" unicode="J" horiz-adv-x="706" 
d="M41 0l-2 88h121q118 0 176 43q59 44 59 158v1267h99v-1277q0 -147 -84 -213t-238 -66h-131z" />
    <glyph glyph-name="K" unicode="K" horiz-adv-x="1396" 
d="M446 821l961 -821h-133l-955 815v-815h-96v1556h96v-729l875 729h133z" />
    <glyph glyph-name="L" unicode="L" horiz-adv-x="1095" 
d="M319 1556v-1468h738v-88h-834v1556h96z" />
    <glyph glyph-name="M" unicode="M" horiz-adv-x="2115" 
d="M319 0h-96v1556h96v-1556zM1044 0h-102l-596 1556h105zM1174 0h-103l596 1556h102zM1894 0h-98v1556h98v-1556z" />
    <glyph glyph-name="N" unicode="N" horiz-adv-x="1699" 
d="M319 0h-96v1556h96v-1556zM1356 0h-109l-901 1556h107zM1479 0h-99v1556h99v-1556z" />
    <glyph glyph-name="O" unicode="O" horiz-adv-x="1695" 
d="M471 78v-4q-168 103 -258 282q-92 182 -92 416t92 416q90 179 258 282t377 103q214 0 377 -100q167 -102 258 -283q92 -182 92 -416t-92 -416q-90 -179 -258 -282q-165 -101 -377 -101q-209 0 -377 103zM1169 147l-4 -4q141 92 221 256q80 165 80 369t-80 369
q-80 164 -221 256q-142 92 -321 92q-180 0 -322 -92t-221 -254q-80 -165 -80 -369t80 -369q79 -162 221 -254t324 -92q181 0 323 92z" />
    <glyph glyph-name="P" unicode="P" horiz-adv-x="1390" 
d="M717 1556v-4q185 0 313 -51q134 -53 207 -158q74 -106 74 -256t-74 -256q-72 -103 -207 -157q-128 -51 -313 -51h-398v-623h-96v1556h494zM721 707q231 0 362 96q129 95 129 282q0 189 -129 283q-131 96 -362 96h-402v-757h402z" />
    <glyph glyph-name="Q" unicode="Q" horiz-adv-x="1703" 
d="M1747 0l-148 2l-256 174q-94 -94 -221 -147q-125 -52 -274 -52q-209 0 -377 103t-258 282q-92 182 -92 416t92 416q91 181 258 283q166 102 377 102q214 0 377 -100q167 -102 258 -283q92 -182 92 -416q0 -167 -45 -301q-46 -138 -129 -246zM1073 106l-8 -6
q107 43 190 123l-409 277h147l318 -215q73 94 114 221q41 128 41 270q0 204 -80 369q-80 164 -221 256q-142 92 -321 92q-180 0 -322 -92t-221 -254q-80 -165 -80 -369q0 -203 80 -368q79 -162 221 -254q143 -93 324 -93q120 0 227 43z" />
    <glyph glyph-name="R" unicode="R" horiz-adv-x="1421" 
d="M1348 0h-117l-449 692h-28h-437v-692h-96v1556h533q160 0 274 -51q120 -54 182 -149q66 -101 66 -234q0 -167 -102 -278q-103 -112 -283 -142zM317 780l439 4q125 0 221 41q95 41 147 117t52 184q0 109 -52 185q-52 75 -147 116q-96 41 -221 41h-439v-688z" />
    <glyph glyph-name="S" unicode="S" horiz-adv-x="1384" 
d="M401 37l-2 4q-124 58 -204 166q-80 109 -101 252h103q15 -118 84 -209q67 -87 172 -137q106 -50 229 -50q150 0 262 50t170 135q60 88 60 198q0 90 -46 148t-137 98q-88 39 -254 74l-170 39q-193 43 -307 129q-113 85 -113 250q0 108 68 200q69 94 188 146q121 53 271 53
q148 0 270 -49q123 -50 199 -143q77 -95 98 -224h-102q-18 111 -82 183q-65 74 -162 114q-95 39 -217 39q-128 0 -223 -39q-99 -41 -154 -110q-55 -70 -55 -160q0 -89 43 -147q42 -57 129 -95q83 -36 227 -67l170 -39q169 -38 266 -88q102 -53 148 -125q47 -74 47 -180
q0 -137 -74 -246q-72 -105 -209 -168q-136 -62 -313 -62q-150 0 -279 60z" />
    <glyph glyph-name="T" unicode="T" horiz-adv-x="1261" 
d="M39 1556h1184v-88h-543v-1468h-98v1468h-543v88z" />
    <glyph glyph-name="U" unicode="U" horiz-adv-x="1591" 
d="M348 143h4q-143 165 -143 478v4v931h96v-935v-5q0 -272 123 -413q124 -142 373 -142q244 0 368 142q123 141 123 415v936h97v-931q0 -313 -144 -480q-144 -166 -448 -166q-305 0 -449 166z" />
    <glyph glyph-name="V" unicode="V" horiz-adv-x="1468" 
d="M723 0h-105l-602 1556h107zM852 0h-104l598 1556h106z" />
    <glyph glyph-name="W" unicode="W" horiz-adv-x="2287" 
d="M610 0h-102l-469 1556h102zM737 0h-102l395 1556h100zM1653 0h-101l-395 1556h100zM1782 0h-103l467 1556h103z" />
    <glyph glyph-name="X" unicode="X" horiz-adv-x="1509" 
d="M819 840l682 -840h-119l-626 770l-629 -770h-119l684 842l-583 714h116l531 -645l528 645h117z" />
    <glyph glyph-name="Y" unicode="Y" horiz-adv-x="1329" 
d="M1210 1556h113l-610 -864v-692h-97v692l-610 864h111l547 -772z" />
    <glyph glyph-name="Z" unicode="Z" horiz-adv-x="1351" 
d="M1260 1434l-1090 -1346h1128v-88h-1224v123l1089 1345h-1077v88h1174v-122z" />
    <glyph glyph-name="bracketleft" unicode="[" horiz-adv-x="602" 
d="M551 1556v-73h-246v-1811h246v-73h-338v1957h338z" />
    <glyph glyph-name="backslash" unicode="\" horiz-adv-x="915" 
d="M850 0h-98l-686 1556h100z" />
    <glyph glyph-name="bracketright" unicode="]" horiz-adv-x="602" 
d="M51 1483v73h338v-1957h-338v73h246v1811h-246z" />
    <glyph glyph-name="asciicircum" unicode="^" horiz-adv-x="1095" 
d="M614 1556l390 -788h-93l-362 743l-365 -743h-92l387 788h135z" />
    <glyph glyph-name="underscore" unicode="_" horiz-adv-x="1056" 
d="M995 -74h-934v74h934v-74z" />
    <glyph glyph-name="grave" unicode="`" horiz-adv-x="501" 
d="M438 1253h-88l-289 303h125z" />
    <glyph glyph-name="a" unicode="a" horiz-adv-x="1159" 
d="M811 1049v2q95 -59 139 -148q43 -87 43 -190v-4v-709h-92v252q-115 -275 -412 -275q-105 0 -190 43t-135 121q-49 76 -49 172q0 115 67 179q68 65 166 92q106 29 236 43l311 37v22v4q0 88 -35 166q-35 77 -106 125q-73 49 -187 49q-100 0 -172 -35q-71 -35 -108 -92
q-37 -58 -43 -125h-94q9 95 61 168t145 117q90 43 215 43q148 0 240 -57zM723 100l-2 -8q87 56 133 150q45 91 45 215v135l-254 -29q-131 -14 -227 -37q-89 -21 -148 -71q-57 -48 -57 -140q0 -81 41 -143q39 -58 108 -94q65 -33 152 -33q124 0 209 55z" />
    <glyph glyph-name="b" unicode="b" horiz-adv-x="1300" 
d="M956 1034h-4q111 -71 172 -198q62 -130 62 -295t-62 -295q-61 -129 -172 -199q-110 -70 -247 -70q-104 0 -191 43q-85 42 -149 115q-63 73 -93 160v-295h-92v1556h92v-776q30 89 90 164q58 73 148 117q87 43 197 43q139 0 249 -70zM899 111l-4 -2q92 62 141 172t49 256
t-49 256t-141 172q-91 61 -217 61q-127 0 -221 -61q-95 -62 -144 -172t-49 -254q0 -146 49 -256q48 -108 146 -172q95 -62 221 -62q127 0 219 62z" />
    <glyph glyph-name="c" unicode="c" horiz-adv-x="1179" 
d="M350 47l-6 -12q-116 70 -180 198t-64 297q0 166 66 295q66 128 180 197q119 72 268 72q177 0 301 -103q122 -101 168 -276h-96q-38 144 -131 225q-96 84 -240 84q-127 0 -221 -61q-95 -62 -147 -172q-51 -108 -51 -254q0 -148 51 -256q52 -110 147 -172t221 -62
q146 0 244 82t139 227h97q-29 -113 -99 -202t-166 -134t-215 -45q-147 0 -266 72z" />
    <glyph glyph-name="d" unicode="d" horiz-adv-x="1300" 
d="M1024 1556l86 -2v-1556h-92v289q-37 -94 -94 -160q-61 -70 -148 -111t-186 -41q-137 0 -250 72q-109 69 -172 201q-62 130 -62 295t62 295q61 127 172 198q113 72 250 72q109 0 194 -43q87 -44 148 -117q62 -75 92 -162v770zM827 111l-4 -2q98 64 146 172q49 110 49 256
t-49 256t-144 172q-94 61 -221 61q-126 0 -217 -61q-92 -62 -141 -172t-49 -254q0 -146 49 -256t141 -172t219 -62q126 0 221 62z" />
    <glyph glyph-name="e" unicode="e" horiz-adv-x="1202" 
d="M1098 522l-899 4q3 -145 55 -252q50 -104 145 -161q92 -56 211 -56q146 0 238 68q93 68 133 197h94q-47 -170 -168 -254q-124 -86 -297 -86q-148 0 -264 67q-115 66 -180 197q-64 128 -64 299q0 166 66 295q64 126 178 196q116 72 258 72q137 0 252 -68q114 -67 178 -190
q66 -126 66 -287zM401 983l-4 -2q-87 -57 -139 -154q-52 -98 -61 -229h802q-3 127 -55 225q-53 100 -141 158q-86 57 -203 57q-114 0 -199 -55z" />
    <glyph glyph-name="f" unicode="f" horiz-adv-x="708" 
d="M563 1483l-4 2q-96 0 -141 -45q-47 -47 -47 -148v-209h313v-73h-313v-1010h-92v1010h-254v73h254v209q0 130 73 197t203 67h131v-73h-123z" />
    <glyph glyph-name="g" unicode="g" horiz-adv-x="1300" 
d="M1028 1083l82 2v-1116q0 -121 -61 -209t-170 -135q-105 -45 -242 -45q-134 0 -238 43q-103 43 -168 123q-64 79 -73 191h94q9 -93 63 -156q56 -66 140 -96q85 -31 184 -31q113 0 197 37q86 37 135 108q49 70 49 170v340q-30 -88 -92 -159q-61 -70 -148 -111
q-82 -39 -188 -39q-138 0 -250 68q-110 67 -172 194q-61 125 -61 291t61 291q62 127 172 194q112 68 250 68q109 0 196 -43t150 -115q63 -73 90 -160v295zM827 135h-4q98 60 146 166q49 107 49 252t-49 252t-144 166t-221 59q-125 0 -217 -59t-141 -166t-49 -252t49 -252
t141 -166t219 -59q126 0 221 59z" />
    <glyph glyph-name="h" unicode="h" horiz-adv-x="1189" 
d="M829 1053v-2q91 -54 142 -150t51 -223v-4v-674h-92v657v5q0 117 -43 202q-43 86 -117 129q-73 43 -168 43t-168 -43q-74 -43 -117 -129q-43 -85 -43 -202v-660h-92v1557h92v-703q43 114 136 182q92 68 219 68q111 0 200 -53z" />
    <glyph glyph-name="i" unicode="i" horiz-adv-x="458" 
d="M274 0h-92v1083h92v-1083zM279 1305h-99v251h99v-251z" />
    <glyph glyph-name="j" unicode="j" horiz-adv-x="458" 
d="M-53 -401l2 71h47q96 0 141 45q47 47 47 148v1220h92v-1220q0 -130 -73 -197t-203 -67h-53zM281 1303h-99v251h99v-251z" />
    <glyph glyph-name="k" unicode="k" horiz-adv-x="1034" 
d="M389 604l637 -604h-119l-633 598v-598h-92v1556h92v-944l605 471h122z" />
    <glyph glyph-name="l" unicode="l" horiz-adv-x="458" 
d="M274 0h-92v1556h92v-1556z" />
    <glyph glyph-name="m" unicode="m" horiz-adv-x="1857" 
d="M1507 1053l-2 -4q87 -53 135 -150q50 -100 50 -227v-4v-674h-93v657v4q0 121 -38 201q-41 86 -111 129t-160 43t-160 -43q-68 -42 -106 -129q-37 -84 -37 -203v-659h-92v657v4q0 119 -39 201q-40 86 -111 129q-70 43 -159 43q-90 0 -160 -43t-111 -129q-39 -82 -39 -203
v-659h-92v1083h92v-227q41 115 129 182q89 68 207 68q94 0 164 -37q72 -38 121 -102q51 -67 72 -142q22 76 67 139q46 64 117 105t164 41q109 0 192 -51z" />
    <glyph glyph-name="n" unicode="n" horiz-adv-x="1189" 
d="M829 1053v-2q91 -54 142 -150t51 -223v-4v-674h-92v657v5q0 117 -43 202q-43 86 -117 129q-73 43 -168 43t-168 -43q-74 -43 -117 -129q-43 -85 -43 -202v-660h-92v1083h92v-229q43 114 136 182q92 68 219 68q111 0 200 -53z" />
    <glyph glyph-name="o" unicode="o" horiz-adv-x="1228" 
d="M350 47l-4 -4q-115 69 -180 199q-64 128 -64 297q0 163 66 295q64 128 180 198q119 72 264 72q152 0 265 -70q114 -71 178 -198q65 -130 65 -295q0 -171 -63 -297q-64 -129 -178 -199q-113 -70 -265 -70q-145 0 -264 72zM827 106l-6 -2q93 63 142 172q49 110 49 256
t-49 256q-49 111 -142 173q-91 61 -217 61t-217 -61q-90 -60 -143 -173q-51 -108 -51 -253q0 -148 51 -256q52 -111 145 -173q91 -61 219 -61t219 61z" />
    <glyph glyph-name="p" unicode="p" horiz-adv-x="1300" 
d="M956 1034h-4q111 -71 172 -198q62 -130 62 -295t-62 -295q-61 -129 -172 -199q-110 -70 -247 -70q-104 0 -191 43q-85 42 -149 115q-63 73 -93 160v-696h-92v1484h92v-303q30 89 90 164q58 73 148 117q87 43 197 43q139 0 249 -70zM899 111l-4 -2q92 62 141 172t49 256
t-49 256t-141 172q-91 61 -217 61q-127 0 -221 -61q-95 -62 -144 -172t-49 -254q0 -146 49 -256q48 -108 146 -172q95 -62 221 -62q127 0 219 62z" />
    <glyph glyph-name="q" unicode="q" horiz-adv-x="1300" 
d="M1024 1083l86 -2v-1484h-92v690q-37 -94 -94 -160q-61 -70 -148 -111t-186 -41q-137 0 -250 72q-109 69 -172 201q-62 130 -62 295t62 295q61 127 172 198q113 72 250 72q109 0 194 -43q87 -44 148 -117q62 -75 92 -162v297zM827 111l-4 -2q98 64 146 172q49 110 49 256
t-49 256t-144 172q-94 61 -221 61q-126 0 -217 -61q-92 -62 -141 -172t-49 -254q0 -146 49 -256t141 -172t219 -62q126 0 221 62z" />
    <glyph glyph-name="r" unicode="r" horiz-adv-x="704" 
d="M274 848v-2q45 122 140 192q92 68 250 68v-90h-25q-176 0 -270 -88q-95 -89 -95 -264v-664h-92v1083h92v-235z" />
    <glyph glyph-name="s" unicode="s" horiz-adv-x="1032" 
d="M319 16l-4 2q-93 41 -151 117q-61 79 -78 180h94q26 -126 121 -196q92 -68 219 -68q100 0 170 33q75 35 111 88q37 55 37 119q0 67 -31 112q-30 44 -92 68q-73 29 -168 47l-111 23q-152 35 -237 96q-86 62 -86 182q0 83 53 148q52 65 141 102q87 37 197 37q100 0 182 -33
q85 -34 143 -98q59 -65 74 -158h-94q-15 70 -61 119q-47 50 -111 74q-65 24 -135 24q-78 0 -146 -24q-67 -24 -108 -74t-41 -113q0 -59 35 -100q34 -40 92 -61q76 -27 149 -44l111 -22q177 -38 258 -104q82 -67 82 -193q0 -90 -53 -164q-51 -72 -146 -117q-90 -43 -209 -43
q-114 0 -207 41z" />
    <glyph glyph-name="t" unicode="t" horiz-adv-x="720" 
d="M684 74l4 -78h-135q-130 0 -203 67q-74 68 -74 195v4v746h-251v73h251v256h93v-256h315v-73h-315v-746v-4q0 -97 47 -141q46 -43 141 -43h127z" />
    <glyph glyph-name="u" unicode="u" horiz-adv-x="1179" 
d="M905 1083l90 -4v-1083h-92v227q-47 -115 -135 -182q-89 -68 -215 -68q-106 0 -197 54q-89 53 -141 151q-51 96 -51 228v4v671h92v-657v-4q0 -119 43 -201q44 -84 117 -127t166 -43q90 0 163 43q73 44 117 129q43 85 43 203v659z" />
    <glyph glyph-name="v" unicode="v" horiz-adv-x="1140" 
d="M557 0h-94l-428 1083h96zM678 0h-94l426 1083h96z" />
    <glyph glyph-name="w" unicode="w" horiz-adv-x="1796" 
d="M483 0h-92l-344 1083h90zM600 0h-92l287 1083h90zM1286 0h-90l-285 1083h90zM1405 0h-92l344 1083h92z" />
    <glyph glyph-name="x" unicode="x" horiz-adv-x="1073" 
d="M594 590l455 -590h-107l-405 526l-406 -526h-106l454 590l-403 493h106l355 -432l354 432h106z" />
    <glyph glyph-name="y" unicode="y" horiz-adv-x="1114" 
d="M567 113h-96l-448 970h96zM485 -401h-96l596 1484h96z" />
    <glyph glyph-name="z" unicode="z" horiz-adv-x="997" 
d="M897 977l-731 -903h774v-74h-864v106l731 904h-715v73h805v-106z" />
    <glyph glyph-name="braceleft" unicode="{" horiz-adv-x="614" 
d="M360 899l-6 -14q0 -117 -26 -176q-27 -62 -74 -86q-49 -25 -117 -37q71 -12 117 -39q47 -28 74 -88q28 -64 28 -174v-4v-422v-4q0 -191 154 -191h25v-74h-33q-115 0 -176 64q-62 65 -62 186v4v418v4q0 111 -22 172t-64 78q-51 21 -119 29v94q72 6 119 25q45 19 66 77
q22 61 22 172v390q0 123 62 188t178 65h33v-73h-25q-154 0 -154 -193v-391z" />
    <glyph glyph-name="bar" unicode="|" horiz-adv-x="512" 
d="M301 -463h-88v2142h88v-2142z" />
    <glyph glyph-name="braceright" unicode="}" horiz-adv-x="612" 
d="M369 745h-2q20 -56 65 -75q47 -19 119 -25v-94q-75 -9 -119 -27q-42 -18 -63 -75q-23 -64 -23 -173v-423q0 -123 -61 -187q-60 -63 -179 -63h-32v73h24q154 0 154 193v426q0 110 29 176q28 64 73 90q46 27 117 39q-68 12 -117 37q-46 24 -73 86t-27 176v4v387v4
q0 191 -154 191h-24v74h33q115 0 176 -64t61 -186v-4v-383v-4q0 -109 23 -173z" />
    <glyph glyph-name="asciitilde" unicode="~" horiz-adv-x="1341" 
d="M119 522l-2 -2q151 160 299 160q58 0 110 -12t142 -50q77 -32 139 -49q52 -14 111 -14q69 0 126 31q52 28 125 98l54 -51q-151 -160 -301 -160q-54 0 -107 12q-47 11 -143 50q-78 34 -137 49q-62 16 -113 16q-68 0 -125 -31q-52 -28 -125 -98z" />
    <glyph glyph-name="uni00A0" unicode="&#xa0;" horiz-adv-x="552" 
 />
    <glyph glyph-name="exclamdown" unicode="&#xa1;" horiz-adv-x="466" 
d="M287 848h-107v235h107v-235zM283 -401h-99l9 993h83z" />
    <glyph glyph-name="cent" unicode="&#xa2;" horiz-adv-x="1241" 
d="M1128 360h-4q-43 -169 -159 -270t-281 -110v-248h-86v248q-136 9 -242 83q-101 71 -161 197q-58 122 -58 281q0 158 58 280q59 124 163 197q107 75 244 84v239h86v-239q164 -9 275 -111t151 -266h-94q-35 134 -119 215q-85 82 -215 94v-979q129 9 219 90q88 79 129 215
h94zM274 299v-2q46 -107 129 -172t197 -74v979q-115 -12 -197 -76q-83 -65 -129 -172q-45 -105 -45 -241q0 -137 45 -242z" />
    <glyph glyph-name="sterling" unicode="&#xa3;" horiz-adv-x="1204" 
d="M1118 82l-12 -94h-983v114q114 70 190 136q71 62 105 129q35 68 35 149q0 102 -54 199h-297v80h238q-85 105 -129 186q-45 83 -45 190q0 117 59 209q59 93 164 142q104 49 229 49q126 0 224 -43q97 -43 159 -123q64 -82 78 -186h-98q-27 131 -119 202q-93 72 -237 72
q-102 0 -179 -39q-82 -42 -127 -113q-47 -74 -47 -172q0 -58 23 -122q21 -58 55 -107q46 -65 88 -117q3 -3 8 -7.5t7 -6.5t4.5 -5.5t3.5 -4.5h497v-80h-446q47 -89 47 -191q0 -90 -37 -163q-40 -79 -112 -142q-78 -68 -199 -141h907z" />
    <glyph glyph-name="currency" unicode="&#xa4;" horiz-adv-x="1368" 
d="M1153 584l-8 -4q-31 -85 -88 -148l139 -143l-57 -56l-140 140q-69 -57 -149 -86q-85 -31 -172 -31t-172 31q-83 30 -150 88l-141 -142l-57 56l139 143q-56 65 -88 152q-31 85 -31 176t31 176q30 81 90 151l-139 142l57 57l141 -141q65 56 152 88q85 31 172 31t172 -31
t152 -86l139 139l57 -57l-139 -142q60 -70 90 -151q31 -85 31 -176t-31 -176zM313 545v-2q54 -93 152 -150q94 -55 209 -55t209 55t151 152q56 95 56 209t-56 209t-151 151q-94 55 -209 55t-209 -55q-97 -57 -152 -151t-55 -209t55 -209z" />
    <glyph glyph-name="yen" unicode="&#xa5;" horiz-adv-x="1441" 
d="M1270 1556h108l-567 -802h422v-82h-465v-217h465v-80h-465v-375h-94v375h-465v80h465v217h-465v82h424l-570 802h111l547 -774z" />
    <glyph glyph-name="brokenbar" unicode="&#xa6;" horiz-adv-x="526" 
d="M307 868h-88v811h88v-811zM307 -463h-88v811h88v-811z" />
    <glyph glyph-name="section" unicode="&#xa7;" horiz-adv-x="1169" 
d="M963 203l-9 -2q25 -52 25 -111q0 -77 -49 -147q-48 -68 -142 -113q-90 -43 -215 -43q-124 0 -215 39q-93 40 -155 111q-61 70 -76 165h98q24 -107 117 -170q91 -61 231 -61q94 0 164 31q67 30 105 80q37 49 37 108q0 67 -33 109q-35 44 -86 73q-74 42 -150 78l-288 135
q-226 105 -226 306q0 79 43 149q43 69 133 135q-49 43 -73 92q-25 52 -25 111q0 76 47 147q45 68 139 113q90 43 215 43t216 -39q94 -40 155 -110q62 -71 80 -166h-98q-24 107 -117 170q-91 61 -231 61q-92 0 -162 -31q-68 -30 -103 -80q-34 -49 -34 -108q0 -67 32 -107
q35 -44 86 -73q65 -37 148 -78l291 -135q225 -105 225 -305q0 -80 -43 -150q-44 -72 -131 -135q51 -45 74 -92zM686 408q75 -36 131 -68q137 104 137 227q0 83 -43 144q-43 60 -151 110l-295 140q-85 40 -131 67q-139 -106 -139 -227q0 -83 43 -144q43 -60 151 -110z" />
    <glyph glyph-name="dieresis" unicode="&#xa8;" horiz-adv-x="575" 
d="M160 1305h-99v251h99v-251zM514 1305h-98v251h98v-251z" />
    <glyph glyph-name="copyright" unicode="&#xa9;" horiz-adv-x="1943" 
d="M551 49l-4 -4q-193 114 -307 307q-113 192 -113 424q0 229 115 424q114 193 307 307q195 115 424 115q232 0 424 -113q193 -114 307 -307q115 -195 115 -424q0 -232 -113 -424q-114 -193 -307 -307q-192 -113 -424 -113q-229 0 -424 115zM1350 111l-2 -5q174 101 276 277
q102 175 102 385t-102 385q-102 176 -276 277q-176 102 -381 102q-207 0 -383 -102q-175 -102 -277 -277t-102 -383t102 -383q101 -174 277 -276q177 -103 385 -103q204 0 381 103zM733 319l-10 -4q-103 63 -166 183q-61 116 -61 266t61 266q63 119 168 182q111 66 236 66
q109 0 196 -43q90 -44 148 -117q59 -74 86 -168h-84q-44 121 -129 191q-84 69 -213 69q-106 0 -191 -55t-137 -156q-51 -99 -51 -233q0 -135 51 -234t137 -155q85 -55 187 -55q136 0 227 67q93 68 133 191h84q-47 -155 -160 -240q-115 -86 -280 -86q-126 0 -232 65z" />
    <glyph glyph-name="ordfeminine" unicode="&#xaa;" horiz-adv-x="628" 
d="M438 1540l-12 -4q51 -26 76 -74q24 -46 24 -98v-4v-352h-77v118q-23 -55 -74 -94q-49 -37 -127 -37q-48 0 -96 23q-45 22 -68 61q-25 42 -25 88q0 79 66 117t172 47l152 17v10v4q0 72 -39 108q-40 37 -105 37q-63 0 -100 -30q-38 -30 -41 -78h-82q6 76 68 123t159 47
q73 0 129 -29zM399 1100h-4q45 51 45 135v53l-114 -12q-89 -9 -144 -35q-49 -24 -49 -80q0 -55 39 -84q40 -30 98 -30q82 0 129 53z" />
    <glyph glyph-name="guillemotleft" unicode="&#xab;" horiz-adv-x="1097" 
d="M487 1008h109l-381 -449l381 -471h-109l-381 471zM881 1008h108l-381 -449l381 -471h-108l-381 471z" />
    <glyph glyph-name="logicalnot" unicode="&#xac;" horiz-adv-x="1294" 
d="M1120 242h-82v510h-913v75h995v-585z" />
    <glyph glyph-name="uni00AD" unicode="&#xad;" horiz-adv-x="864" 
d="M745 535h-626v77h626v-77z" />
    <glyph glyph-name="registered" unicode="&#xae;" horiz-adv-x="1943" 
d="M1395 1505l-4 -4q193 -114 307 -307t114 -424q0 -234 -112 -424q-114 -193 -307 -307q-192 -113 -424 -113q-229 0 -424 115q-193 114 -307 307q-113 192 -113 424q0 229 115 424q114 193 307 307q195 115 424 115q232 0 424 -113zM1350 111l-2 -5q174 101 276 277
q102 175 102 385t-102 385q-102 176 -276 277q-176 102 -381 102q-207 0 -383 -102q-175 -102 -277 -277t-102 -383t102 -383q101 -174 277 -276q177 -103 385 -103q204 0 381 103zM1272 803h2q-68 -71 -180 -92l286 -449h-94l-278 440h-11h-270v-440h-82v1006h352
q106 0 179 -33q77 -35 120 -98q43 -64 43 -154q0 -110 -67 -180zM725 1198v-428h268q121 0 191 55q71 56 71 156q0 101 -71 160q-69 57 -191 57h-268z" />
    <glyph glyph-name="macron" unicode="&#xaf;" horiz-adv-x="765" 
d="M705 1358h-644v74h644v-74z" />
    <glyph glyph-name="degree" unicode="&#xb0;" horiz-adv-x="780" 
d="M248 1049q-66 41 -105 104q-39 62 -39 141q0 80 39 142q41 64 105 102q64 37 141 37t141 -37q64 -38 105 -102q39 -62 39 -142q0 -79 -39 -141q-39 -63 -105 -104q-62 -39 -141 -39t-141 39zM496 1114h-2q45 26 73 74q29 50 29 104q0 58 -27 105q-27 46 -73 73
q-50 29 -105 29q-54 0 -104 -29q-48 -28 -74 -73q-29 -50 -29 -105q0 -54 29 -104q27 -47 74 -74q50 -29 104 -29q55 0 105 29z" />
    <glyph glyph-name="plusminus" unicode="&#xb1;" horiz-adv-x="1347" 
d="M715 1083v-397h502v-78h-502v-415h-82v415h-502v78h502v397h82zM1217 0h-1086v78h1086v-78z" />
    <glyph glyph-name="uni00B2" unicode="&#xb2;" horiz-adv-x="663" 
d="M145 1077l467 2v-67h-567v90l340 293q63 54 92 96q31 45 31 98q0 39 -21 74q-21 34 -61 55q-44 23 -96 23q-83 0 -133 -41t-56 -111h-84q3 65 41 115t99 74q62 24 137 24q80 0 141 -30q62 -30 92 -80q31 -51 31 -107q0 -70 -37 -125t-110 -119z" />
    <glyph glyph-name="uni00B3" unicode="&#xb3;" horiz-adv-x="675" 
d="M555 1364l-6 -2q65 -47 65 -135q0 -78 -39 -129q-43 -56 -106 -78q-70 -25 -152 -25q-116 0 -190 56t-86 151h84q9 -65 59 -106q48 -39 133 -39q57 0 107 18q49 18 80 60t31 94q0 50 -31 86q-31 35 -82 53q-52 18 -107 18h-41v66h41q53 0 97 18q40 17 67 50q25 31 25 71
q0 39 -23 72q-23 32 -63 49q-46 19 -99 19q-74 0 -120 -37q-48 -39 -54 -99h-84q3 59 37 105q37 49 92 72q58 24 129 24q77 0 138 -24q59 -23 98 -68q37 -43 37 -100q0 -82 -55 -125q-54 -42 -134 -58q91 -13 152 -57z" />
    <glyph glyph-name="acute" unicode="&#xb4;" horiz-adv-x="501" 
d="M152 1253h-91l254 303h123z" />
    <glyph glyph-name="uni00B5" unicode="&#xb5;" horiz-adv-x="1304" 
d="M1237 74l-4 -80h-94q-91 0 -140 43q-48 42 -57 123q-2 14 -2 63q-43 -114 -133 -182q-89 -68 -215 -68q-88 0 -168 41q-78 40 -129 115v-532h-92v1484h92v-657v-4q0 -119 43 -201q44 -84 117 -127t166 -43q90 0 163 43q74 44 117 129t43 203v659h92v-886v-4
q0 -119 119 -119h82z" />
    <glyph glyph-name="paragraph" unicode="&#xb6;" horiz-adv-x="1228" 
d="M481 727q-115 0 -209 55q-91 54 -149 152q-55 94 -55 209t55 209t149 149t209 55h516v-1746h-90v1667h-334v-1667h-92v917z" />
    <glyph glyph-name="periodcentered" unicode="&#xb7;" horiz-adv-x="415" 
d="M260 487h-104v236h104v-236z" />
    <glyph glyph-name="cedilla" unicode="&#xb8;" horiz-adv-x="376" 
d="M152 -92l-2 -4q71 -3 116 -45q47 -44 47 -107q0 -71 -49 -114q-50 -44 -129 -44h-74v60h68q49 0 86 29q33 26 33 73q0 46 -33 72q-37 29 -80 29h-47v143h64v-92z" />
    <glyph glyph-name="uni00B9" unicode="&#xb9;" horiz-adv-x="385" 
d="M201 1788l65 2v-778h-82v602h-168v67h82q49 0 72 13t29 47z" />
    <glyph glyph-name="ordmasculine" unicode="&#xba;" horiz-adv-x="653" 
d="M186 1032l-6 -2q-60 37 -94 100q-33 62 -33 148q0 82 35 147q36 68 94 103q61 37 140 37q80 0 141 -37q59 -36 94 -101t35 -147q0 -85 -33 -147q-35 -65 -94 -101q-61 -37 -141 -37q-77 0 -138 37zM455 1114q49 61 49 164t-49 164t-136 61q-86 0 -135 -61t-49 -164
t49 -164t135 -61q87 0 136 61z" />
    <glyph glyph-name="guillemotright" unicode="&#xbb;" horiz-adv-x="1097" 
d="M111 1008h108l381 -449l-381 -471h-108l378 471zM502 1008h108l383 -449l-383 -471h-108l381 471z" />
    <glyph glyph-name="onequarter" unicode="&#xbc;" horiz-adv-x="1384" 
d="M1178 303h118v-65h-118v-238h-82v238h-420v88l325 452h89l-340 -475h346v475h82v-475zM303 1556l66 3v-779h-82v602h-168v68h82q50 0 71 12q23 13 29 47zM168 2h-96l1032 1557h96z" />
    <glyph glyph-name="onehalf" unicode="&#xbd;" horiz-adv-x="1437" 
d="M877 68l466 2v-68h-567v90l340 293q63 54 92 96q31 45 31 99q0 40 -20 73q-21 35 -62 56q-42 22 -96 22q-83 0 -133 -41t-56 -110h-84q3 64 41 114t99 74q64 25 137 25q77 0 141 -31q62 -30 92 -80q31 -51 31 -107q0 -69 -37 -124t-110 -119zM297 1559l65 2v-779h-81v602
h-168v68h82q50 0 71 12q23 13 29 47zM162 4h-96l1032 1557h96z" />
    <glyph glyph-name="threequarters" unicode="&#xbe;" horiz-adv-x="1570" 
d="M594 1133l-6 -3q65 -47 65 -135q0 -78 -39 -129q-43 -56 -106 -78q-67 -24 -152 -24q-117 0 -190 55q-74 56 -86 152h84q9 -66 59 -107q48 -39 133 -39q55 0 107 19q50 18 80 59q30 40 30 94q0 51 -30 86q-32 37 -82 54q-52 18 -107 18h-41v66h41q54 0 97 18q42 17 67 49
q25 31 25 72q0 39 -23 72q-23 32 -63 49q-43 18 -99 18q-74 0 -120 -37q-48 -39 -54 -98h-84q3 58 37 104q37 49 92 72q61 25 129 25q74 0 138 -25q61 -24 98 -67t37 -101q0 -81 -56 -125q-53 -41 -133 -57q91 -13 152 -57zM356 -4h-96l1032 1556h97zM1364 299h119v-66h-119
v-237h-82v237h-420v89l326 452h88l-340 -475h346v475h82v-475z" />
    <glyph glyph-name="questiondown" unicode="&#xbf;" horiz-adv-x="1052" 
d="M618 848h-104v235h104v-235zM289 -381l-8 4q-104 43 -162 119t-58 172q0 61 29 117q27 52 68 90q39 36 104 86l78 61q65 50 104 99q40 50 54 98q16 56 16 129h92q0 -127 -43 -209q-46 -87 -143 -160l-78 -59q-52 -40 -100 -84q-42 -39 -60 -76q-20 -41 -20 -94
q0 -64 41 -123t123 -96q81 -37 202 -37q102 0 183 35q79 35 129 102q49 67 55 160h96q-9 -120 -73 -205q-65 -86 -166 -129t-222 -43q-137 0 -241 43z" />
    <glyph glyph-name="Agrave" unicode="&#xc0;" horiz-adv-x="1499" 
d="M1485 0h-105l-206 522h-848l-207 -522h-105l621 1556h102l-377 -946h779l-377 946h102zM795 1692h-95l-301 250h131z" />
    <glyph glyph-name="Aacute" unicode="&#xc1;" horiz-adv-x="1499" 
d="M1485 0h-105l-206 522h-848l-207 -522h-105l621 1556h102l-377 -946h779l-377 946h102zM799 1692h-97l265 250h131z" />
    <glyph glyph-name="Acircumflex" unicode="&#xc2;" horiz-adv-x="1499" 
d="M1485 0h-105l-206 522h-848l-207 -522h-105l621 1556h102l-377 -946h779l-377 946h102zM817 1942l275 -250h-95l-247 204l-248 -204h-96l276 250h135z" />
    <glyph glyph-name="Atilde" unicode="&#xc3;" horiz-adv-x="1499" 
d="M1485 0h-105l-206 522h-848l-207 -522h-105l621 1556h102l-377 -946h779l-377 946h102zM434 1741q12 70 64 110q53 41 112 41q40 0 74 -12t78 -33q65 -32 125 -32q94 0 131 79h45q-12 -69 -62 -110q-48 -39 -110 -39q-38 0 -80 10q-30 7 -76 31q-72 35 -123 35
q-96 0 -131 -80h-47z" />
    <glyph glyph-name="Adieresis" unicode="&#xc4;" horiz-adv-x="1499" 
d="M1485 0h-105l-206 522h-848l-207 -522h-105l621 1556h102l-377 -946h779l-377 946h102zM625 1692h-103v250h103v-250zM973 1692h-103v250h103v-250z" />
    <glyph glyph-name="Aring" unicode="&#xc5;" horiz-adv-x="1499" 
d="M1485 0h-105l-206 522h-848l-207 -522h-105l621 1556h102l-377 -946h779l-377 946h102zM643 1712h-4q-50 30 -80 80q-31 51 -31 106q0 58 31 109t80 78q53 29 109 29q55 0 108 -29q50 -28 78 -78q29 -53 29 -109q0 -53 -29 -106q-27 -49 -78 -80t-106 -31q-56 0 -107 31z
M817 1772l-2 -3q35 21 53 56q19 36 19 73q0 38 -19 74t-51 53q-36 19 -74 19q-37 0 -73 -19q-38 -20 -54 -51q-18 -35 -18 -73q0 -39 18 -74q17 -32 54 -55q35 -21 73 -21q39 0 74 21z" />
    <glyph glyph-name="AE" unicode="&#xc6;" horiz-adv-x="2039" 
d="M1182 762l268 -674h471v-88h-541l-206 522h-848l-207 -522h-105l621 1556h102l-377 -946h779l-377 946h1141v-88h-1004l248 -618h741v-88h-706z" />
    <glyph glyph-name="Ccedilla" unicode="&#xc7;" horiz-adv-x="1587" 
d="M1505 481l-8 -8q-79 -235 -242 -364q-166 -131 -405 -140v-67q70 -3 117 -47t47 -109q0 -71 -51 -113q-52 -43 -132 -43h-75v62h65q49 0 86 29q33 26 33 73q0 46 -33 72q-37 29 -80 29h-45v120q-187 9 -338 113q-153 105 -241 283q-88 177 -88 405q0 234 92 416
q91 180 256 283q163 102 362 102q167 0 305 -66q140 -67 226 -178q88 -114 135 -258h-102q-70 187 -211 301q-142 115 -351 115q-168 0 -307 -92q-138 -91 -217 -254q-80 -165 -80 -369q0 -203 80 -368q79 -162 215 -254q137 -93 299 -93q222 0 369 111t217 309h102z" />
    <glyph glyph-name="Egrave" unicode="&#xc8;" horiz-adv-x="1318" 
d="M319 762v-674h881v-88h-977v1556h959v-88h-863v-618h848v-88h-848zM799 1692h-94l-302 250h132z" />
    <glyph glyph-name="Eacute" unicode="&#xc9;" horiz-adv-x="1318" 
d="M319 762v-674h881v-88h-977v1556h959v-88h-863v-618h848v-88h-848zM711 1692h-97l265 250h131z" />
    <glyph glyph-name="Ecircumflex" unicode="&#xca;" horiz-adv-x="1318" 
d="M319 762v-674h881v-88h-977v1556h959v-88h-863v-618h848v-88h-848zM772 1942l275 -250h-95l-247 204l-248 -204h-97l277 250h135z" />
    <glyph glyph-name="Edieresis" unicode="&#xcb;" horiz-adv-x="1318" 
d="M319 762v-674h881v-88h-977v1556h959v-88h-863v-618h848v-88h-848zM580 1692h-103v250h103v-250zM928 1692h-103v250h103v-250z" />
    <glyph glyph-name="Igrave" unicode="&#xcc;" horiz-adv-x="542" 
d="M319 0h-96v1556h96v-1556zM309 1692h-94l-301 250h131z" />
    <glyph glyph-name="Iacute" unicode="&#xcd;" horiz-adv-x="542" 
d="M319 0h-96v1556h96v-1556zM328 1692h-97l265 250h131z" />
    <glyph glyph-name="Icircumflex" unicode="&#xce;" horiz-adv-x="542" 
d="M319 0h-96v1556h96v-1556zM340 1942l274 -250h-94l-248 204l-247 -204h-97l277 250h135z" />
    <glyph glyph-name="Idieresis" unicode="&#xcf;" horiz-adv-x="542" 
d="M319 0h-96v1556h96v-1556zM147 1692h-102v250h102v-250zM496 1692h-103v250h103v-250z" />
    <glyph glyph-name="Eth" unicode="&#xd0;" horiz-adv-x="1613" 
d="M727 1556h-4q230 0 403 -92q175 -93 269 -268t94 -418t-94 -418q-95 -177 -267 -268q-173 -92 -401 -92h-504v764h-190v84h190v708h504zM725 88h-2q199 0 350 80q154 82 232 235q79 155 79 375t-79 375q-80 156 -230 236q-149 79 -350 79h-410v-620h453v-84h-453v-676
h410z" />
    <glyph glyph-name="Ntilde" unicode="&#xd1;" horiz-adv-x="1699" 
d="M319 0h-96v1556h96v-1556zM1356 0h-109l-901 1556h107zM1479 0h-99v1556h99v-1556zM567 1741q12 70 64 110q53 41 112 41q39 0 74 -12t78 -33q65 -32 125 -32q94 0 131 79h45q-12 -70 -61 -110q-48 -39 -111 -39q-38 0 -80 10q-30 7 -76 31q-72 35 -123 35
q-96 0 -131 -80h-47z" />
    <glyph glyph-name="Ograve" unicode="&#xd2;" horiz-adv-x="1695" 
d="M471 78v-4q-168 103 -258 282q-92 182 -92 416t92 416q90 179 258 282t377 103q214 0 377 -100q167 -102 258 -283q92 -182 92 -416t-92 -416q-90 -179 -258 -282q-165 -101 -377 -101q-209 0 -377 103zM1169 147l-4 -4q141 92 221 256q80 165 80 369t-80 369
q-80 164 -221 256q-142 92 -321 92q-180 0 -322 -92t-221 -254q-80 -165 -80 -369t80 -369q79 -162 221 -254t324 -92q181 0 323 92zM936 1681h-94l-301 250h131z" />
    <glyph glyph-name="Oacute" unicode="&#xd3;" horiz-adv-x="1695" 
d="M471 78v-4q-168 103 -258 282q-92 182 -92 416t92 416q90 179 258 282t377 103q214 0 377 -100q167 -102 258 -283q92 -182 92 -416t-92 -416q-90 -179 -258 -282q-165 -101 -377 -101q-209 0 -377 103zM1169 147l-4 -4q141 92 221 256q80 165 80 369t-80 369
q-80 164 -221 256q-142 92 -321 92q-180 0 -322 -92t-221 -254q-80 -165 -80 -369t80 -369q79 -162 221 -254t324 -92q181 0 323 92zM850 1681h-96l264 250h131z" />
    <glyph glyph-name="Ocircumflex" unicode="&#xd4;" horiz-adv-x="1695" 
d="M471 78v-4q-168 103 -258 282q-92 182 -92 416t92 416q90 179 258 282t377 103q214 0 377 -100q167 -102 258 -283q92 -182 92 -416t-92 -416q-90 -179 -258 -282q-165 -101 -377 -101q-209 0 -377 103zM1169 147l-4 -4q141 92 221 256q80 165 80 369t-80 369
q-80 164 -221 256q-142 92 -321 92q-180 0 -322 -92t-221 -254q-80 -165 -80 -369t80 -369q79 -162 221 -254t324 -92q181 0 323 92zM911 1931l275 -250h-94l-248 205l-248 -205h-96l276 250h135z" />
    <glyph glyph-name="Otilde" unicode="&#xd5;" horiz-adv-x="1695" 
d="M471 78v-4q-168 103 -258 282q-92 182 -92 416t92 416q90 179 258 282t377 103q214 0 377 -100q167 -102 258 -283q92 -182 92 -416t-92 -416q-90 -179 -258 -282q-165 -101 -377 -101q-209 0 -377 103zM1169 147l-4 -4q141 92 221 256q80 165 80 369t-80 369
q-80 164 -221 256q-142 92 -321 92q-180 0 -322 -92t-221 -254q-80 -165 -80 -369t80 -369q79 -162 221 -254t324 -92q181 0 323 92zM526 1731q12 70 64 110q53 41 112 41q40 0 74 -12t78 -33q67 -33 125 -33q93 0 131 80h45q-12 -70 -61 -110q-48 -39 -111 -39
q-38 0 -80 10q-30 7 -76 31q-69 34 -122 34q-98 0 -132 -79h-47z" />
    <glyph glyph-name="Odieresis" unicode="&#xd6;" horiz-adv-x="1695" 
d="M471 78v-4q-168 103 -258 282q-92 182 -92 416t92 416q90 179 258 282t377 103q214 0 377 -100q167 -102 258 -283q92 -182 92 -416t-92 -416q-90 -179 -258 -282q-165 -101 -377 -101q-209 0 -377 103zM1169 147l-4 -4q141 92 221 256q80 165 80 369t-80 369
q-80 164 -221 256q-142 92 -321 92q-180 0 -322 -92t-221 -254q-80 -165 -80 -369t80 -369q79 -162 221 -254t324 -92q181 0 323 92zM717 1681h-103v250h103v-250zM1065 1681h-102v250h102v-250z" />
    <glyph glyph-name="multiply" unicode="&#xd7;" horiz-adv-x="1150" 
d="M975 993l53 -51l-401 -401l401 -400l-53 -53l-400 401l-401 -401l-51 53l399 400l-399 401l51 51l401 -399z" />
    <glyph glyph-name="Oslash" unicode="&#xd8;" horiz-adv-x="1695" 
d="M1653 1556l-242 -258q79 -106 121 -235q43 -133 43 -291q0 -234 -92 -416q-90 -179 -258 -282q-165 -101 -377 -101q-146 0 -279 54q-128 52 -227 151l-174 -182h-127l242 254q-75 100 -119 237q-43 133 -43 289q0 234 92 416q91 181 258 283q166 102 377 102
q153 0 278 -51q132 -54 228 -150l172 180h127zM254 526h-4q36 -123 94 -209l936 979q-83 92 -195 142q-110 49 -241 49q-180 0 -322 -92t-221 -254q-80 -165 -80 -369q0 -134 33 -246zM1432 1018l-5 -4q-36 123 -94 209l-936 -979q84 -93 197 -142t246 -49q181 0 323 92
q141 92 221 256q80 165 80 369q0 139 -32 248z" />
    <glyph glyph-name="Ugrave" unicode="&#xd9;" horiz-adv-x="1591" 
d="M348 143h4q-143 165 -143 478v4v931h96v-935v-5q0 -272 123 -413q124 -142 373 -142q244 0 368 142q123 141 123 415v936h97v-931q0 -313 -144 -480q-144 -166 -448 -166q-305 0 -449 166zM893 1692h-94l-301 250h131z" />
    <glyph glyph-name="Uacute" unicode="&#xda;" horiz-adv-x="1591" 
d="M348 143h4q-143 165 -143 478v4v931h96v-935v-5q0 -272 123 -413q124 -142 373 -142q244 0 368 142q123 141 123 415v936h97v-931q0 -313 -144 -480q-144 -166 -448 -166q-305 0 -449 166zM805 1692h-96l264 250h131z" />
    <glyph glyph-name="Ucircumflex" unicode="&#xdb;" horiz-adv-x="1591" 
d="M348 143h4q-143 165 -143 478v4v931h96v-935v-5q0 -272 123 -413q124 -142 373 -142q244 0 368 142q123 141 123 415v936h97v-931q0 -313 -144 -480q-144 -166 -448 -166q-305 0 -449 166zM866 1942l275 -250h-94l-248 204l-248 -204h-96l276 250h135z" />
    <glyph glyph-name="Udieresis" unicode="&#xdc;" horiz-adv-x="1591" 
d="M348 143h4q-143 165 -143 478v4v931h96v-935v-5q0 -272 123 -413q124 -142 373 -142q244 0 368 142q123 141 123 415v936h97v-931q0 -313 -144 -480q-144 -166 -448 -166q-305 0 -449 166zM674 1692h-103v250h103v-250zM1022 1692h-102v250h102v-250z" />
    <glyph glyph-name="Yacute" unicode="&#xdd;" horiz-adv-x="1329" 
d="M1210 1556h113l-610 -864v-692h-97v692l-610 864h111l547 -772zM672 1692h-97l265 250h131z" />
    <glyph glyph-name="Thorn" unicode="&#xde;" horiz-adv-x="1419" 
d="M717 1268v-4q182 0 313 -52q137 -54 207 -155q74 -106 74 -258q0 -150 -74 -256q-73 -105 -207 -158q-128 -51 -313 -51h-398v-334h-96v1556h96v-288h398zM721 418q231 0 362 96q129 94 129 283q0 187 -129 282q-132 97 -362 97h-402v-758h402z" />
    <glyph glyph-name="germandbls" unicode="&#xdf;" horiz-adv-x="1234" 
d="M930 836l-12 -11q89 -50 145 -145q55 -94 55 -234t-53 -249q-52 -107 -150 -168q-100 -62 -227 -62q-64 0 -129 10q-51 8 -119 31v78q71 -28 113 -35q58 -10 119 -10q112 0 192 53q77 51 119 146q41 93 41 213q0 189 -115 295q-113 104 -319 104h-25v74h27q178 0 264 80
t86 211q0 90 -41 155q-42 67 -113 96q-76 31 -167 31q-115 0 -195 -53q-78 -51 -119 -148q-39 -91 -39 -221v-1079h-92v1073q0 157 55 270q57 117 156 177q101 61 236 61q128 0 221 -43q94 -44 147 -123q53 -80 53 -186q0 -140 -81 -221q-84 -84 -224 -111q102 -9 191 -59z
" />
    <glyph glyph-name="agrave" unicode="&#xe0;" horiz-adv-x="1159" 
d="M811 1049v2q95 -59 139 -148q43 -87 43 -190v-4v-709h-92v252q-115 -275 -412 -275q-105 0 -190 43t-135 121q-49 76 -49 172q0 115 67 179q68 65 166 92q106 29 236 43l311 37v22v4q0 88 -35 166q-35 77 -106 125q-73 49 -187 49q-100 0 -172 -35q-71 -35 -108 -92
q-37 -58 -43 -125h-94q9 95 61 168t145 117q90 43 215 43q148 0 240 -57zM723 100l-2 -8q87 56 133 150q45 91 45 215v135l-254 -29q-131 -14 -227 -37q-89 -21 -148 -71q-57 -48 -57 -140q0 -81 41 -143q39 -58 108 -94q65 -33 152 -33q124 0 209 55zM643 1245h-88
l-289 303h125z" />
    <glyph glyph-name="aacute" unicode="&#xe1;" horiz-adv-x="1159" 
d="M811 1049v2q95 -59 139 -148q43 -87 43 -190v-4v-709h-92v252q-115 -275 -412 -275q-105 0 -190 43t-135 121q-49 76 -49 172q0 115 67 179q68 65 166 92q106 29 236 43l311 37v22v4q0 88 -35 166q-35 77 -106 125q-73 49 -187 49q-100 0 -172 -35q-71 -35 -108 -92
q-37 -58 -43 -125h-94q9 95 61 168t145 117q90 43 215 43q148 0 240 -57zM723 100l-2 -8q87 56 133 150q45 91 45 215v135l-254 -29q-131 -14 -227 -37q-89 -21 -148 -71q-57 -48 -57 -140q0 -81 41 -143q39 -58 108 -94q65 -33 152 -33q124 0 209 55zM584 1245h-90l254 303
h122z" />
    <glyph glyph-name="acircumflex" unicode="&#xe2;" horiz-adv-x="1159" 
d="M811 1049v2q95 -59 139 -148q43 -87 43 -190v-4v-709h-92v252q-115 -275 -412 -275q-105 0 -190 43t-135 121q-49 76 -49 172q0 115 67 179q68 65 166 92q106 29 236 43l311 37v22v4q0 88 -35 166q-35 77 -106 125q-73 49 -187 49q-100 0 -172 -35q-71 -35 -108 -92
q-37 -58 -43 -125h-94q9 95 61 168t145 117q90 43 215 43q148 0 240 -57zM723 100l-2 -8q87 56 133 150q45 91 45 215v135l-254 -29q-131 -14 -227 -37q-89 -21 -148 -71q-57 -48 -57 -140q0 -81 41 -143q39 -58 108 -94q65 -33 152 -33q124 0 209 55zM633 1548l278 -303
h-88l-254 254l-254 -254h-90l281 303h127z" />
    <glyph glyph-name="atilde" unicode="&#xe3;" horiz-adv-x="1159" 
d="M811 1049v2q95 -59 139 -148q43 -87 43 -190v-4v-709h-92v252q-115 -275 -412 -275q-105 0 -190 43t-135 121q-49 76 -49 172q0 115 67 179q68 65 166 92q106 29 236 43l311 37v22v4q0 88 -35 166q-35 77 -106 125q-73 49 -187 49q-100 0 -172 -35q-71 -35 -108 -92
q-37 -58 -43 -125h-94q9 95 61 168t145 117q90 43 215 43q148 0 240 -57zM723 100l-2 -8q87 56 133 150q45 91 45 215v135l-254 -29q-131 -14 -227 -37q-89 -21 -148 -71q-57 -48 -57 -140q0 -81 41 -143q39 -58 108 -94q65 -33 152 -33q124 0 209 55zM266 1309l2 -2
q12 73 62 114t108 41q38 0 72 -12q31 -11 74 -33q67 -33 116 -33q92 0 127 86h43q-12 -76 -61 -116q-48 -39 -107 -39q-34 0 -69 12q-11 4 -80 35q-65 35 -117 35q-47 0 -80 -23q-32 -23 -47 -65h-43z" />
    <glyph glyph-name="adieresis" unicode="&#xe4;" horiz-adv-x="1159" 
d="M811 1049v2q95 -59 139 -148q43 -87 43 -190v-4v-709h-92v252q-115 -275 -412 -275q-105 0 -190 43t-135 121q-49 76 -49 172q0 115 67 179q68 65 166 92q106 29 236 43l311 37v22v4q0 88 -35 166q-35 77 -106 125q-73 49 -187 49q-100 0 -172 -35q-71 -35 -108 -92
q-37 -58 -43 -125h-94q9 95 61 168t145 117q90 43 215 43q148 0 240 -57zM723 100l-2 -8q87 56 133 150q45 91 45 215v135l-254 -29q-131 -14 -227 -37q-89 -21 -148 -71q-57 -48 -57 -140q0 -81 41 -143q39 -58 108 -94q65 -33 152 -33q124 0 209 55zM440 1296h-98v252h98
v-252zM795 1296h-99v252h99v-252z" />
    <glyph glyph-name="aring" unicode="&#xe5;" horiz-adv-x="1159" 
d="M811 1049v2q95 -59 139 -148q43 -87 43 -190v-4v-709h-92v252q-115 -275 -412 -275q-105 0 -190 43t-135 121q-49 76 -49 172q0 115 67 179q68 65 166 92q106 29 236 43l311 37v22v4q0 88 -35 166q-35 77 -106 125q-73 49 -187 49q-100 0 -172 -35q-71 -35 -108 -92
q-37 -58 -43 -125h-94q9 95 61 168t145 117q90 43 215 43q148 0 240 -57zM723 100l-2 -8q87 56 133 150q45 91 45 215v135l-254 -29q-131 -14 -227 -37q-89 -21 -148 -71q-57 -48 -57 -140q0 -81 41 -143q39 -58 108 -94q65 -33 152 -33q124 0 209 55zM477 1268
q-43 24 -67 67q-25 45 -25 95q0 49 25 94q24 43 67 67q45 25 94 25q50 0 95 -25q43 -24 67 -67q25 -45 25 -94q0 -50 -25 -95q-24 -43 -67 -67q-45 -25 -95 -25q-49 0 -94 25zM657 1343v-2q35 38 35 89t-35 86q-34 34 -86 34q-53 0 -88 -32q-37 -34 -37 -86t37 -89
q36 -36 88 -36q53 0 86 36z" />
    <glyph glyph-name="ae" unicode="&#xe6;" horiz-adv-x="1994" 
d="M1890 522h-893q3 -143 56 -252q50 -104 145 -161q92 -56 211 -56q146 0 238 68q93 69 133 196h94q-47 -170 -168 -254q-124 -86 -297 -86q-113 0 -209 41q-94 40 -162 117q-65 73 -100 178q-27 -92 -88 -168q-60 -75 -156 -122q-93 -46 -215 -46q-106 0 -190 41
q-83 40 -129 111q-45 68 -45 158q0 121 67 188q68 68 178 92q116 25 269 25h268v94v4q0 88 -35 166q-35 77 -106 125q-73 49 -187 49q-100 0 -172 -35q-71 -35 -108 -92q-37 -58 -43 -125h-94q9 95 61 168t145 117q90 43 215 43q118 0 195 -39q80 -41 129 -102
q48 -60 70 -136q59 127 172 203t258 76q137 0 252 -68q114 -67 178 -190q65 -124 65 -287zM1200 979l2 -2q-89 -56 -141 -154q-53 -100 -62 -229h803q-3 127 -55 225q-53 100 -141 158q-86 57 -203 57q-115 0 -203 -55zM907 518l-256 -4q-139 0 -233 -18q-95 -18 -150 -70
t-55 -143q0 -70 35 -123q36 -55 98 -84q67 -31 154 -31q126 0 217 55t141 158q49 101 49 234v26z" />
    <glyph glyph-name="ccedilla" unicode="&#xe7;" horiz-adv-x="1179" 
d="M616 -23l-8 -86q72 -3 117 -45q47 -44 47 -106q0 -72 -49 -115t-129 -43h-74v60h68q50 0 86 28q33 26 33 74q0 46 -33 72q-36 28 -80 28h-47v125q-133 15 -234 88q-98 71 -155 197q-56 124 -56 278q0 166 66 295q66 128 180 197q119 72 268 72q178 0 302 -103
q120 -100 167 -276h-96q-38 144 -131 225q-96 84 -240 84q-127 0 -221 -61q-95 -62 -147 -172q-51 -108 -51 -254q0 -148 51 -256q52 -110 147 -172t221 -62q146 0 244 82t139 227h97q-29 -113 -99 -202q-70 -88 -165 -133q-98 -46 -216 -46h-2z" />
    <glyph glyph-name="egrave" unicode="&#xe8;" horiz-adv-x="1202" 
d="M1098 522l-899 4q3 -145 55 -252q50 -104 145 -161q92 -56 211 -56q146 0 238 68q93 68 133 197h94q-47 -170 -168 -254q-124 -86 -297 -86q-148 0 -264 67q-115 66 -180 197q-64 128 -64 299q0 166 66 295q64 126 178 196q116 72 258 72q137 0 252 -68q114 -67 178 -190
q66 -126 66 -287zM401 983l-4 -2q-87 -57 -139 -154q-52 -98 -61 -229h802q-3 127 -55 225q-53 100 -141 158q-86 57 -203 57q-114 0 -199 -55zM670 1253h-88l-289 303h125z" />
    <glyph glyph-name="eacute" unicode="&#xe9;" horiz-adv-x="1202" 
d="M1098 522l-899 4q3 -145 55 -252q50 -104 145 -161q92 -56 211 -56q146 0 238 68q93 68 133 197h94q-47 -170 -168 -254q-124 -86 -297 -86q-148 0 -264 67q-115 66 -180 197q-64 128 -64 299q0 166 66 295q64 126 178 196q116 72 258 72q137 0 252 -68q114 -67 178 -190
q66 -126 66 -287zM401 983l-4 -2q-87 -57 -139 -154q-52 -98 -61 -229h802q-3 127 -55 225q-53 100 -141 158q-86 57 -203 57q-114 0 -199 -55zM610 1253h-90l254 303h123z" />
    <glyph glyph-name="ecircumflex" unicode="&#xea;" horiz-adv-x="1202" 
d="M1098 522l-899 4q3 -145 55 -252q50 -104 145 -161q92 -56 211 -56q146 0 238 68q93 68 133 197h94q-47 -170 -168 -254q-124 -86 -297 -86q-148 0 -264 67q-115 66 -180 197q-64 128 -64 299q0 166 66 295q64 126 178 196q116 72 258 72q137 0 252 -68q114 -67 178 -190
q66 -126 66 -287zM401 983l-4 -2q-87 -57 -139 -154q-52 -98 -61 -229h802q-3 127 -55 225q-53 100 -141 158q-86 57 -203 57q-114 0 -199 -55zM662 1556l278 -303h-88l-254 254l-254 -254h-90l281 303h127z" />
    <glyph glyph-name="edieresis" unicode="&#xeb;" horiz-adv-x="1202" 
d="M1098 522l-899 4q3 -145 55 -252q50 -104 145 -161q92 -56 211 -56q146 0 238 68q93 68 133 197h94q-47 -170 -168 -254q-124 -86 -297 -86q-148 0 -264 67q-115 66 -180 197q-64 128 -64 299q0 166 66 295q64 126 178 196q116 72 258 72q137 0 252 -68q114 -67 178 -190
q66 -126 66 -287zM401 983l-4 -2q-87 -57 -139 -154q-52 -98 -61 -229h802q-3 127 -55 225q-53 100 -141 158q-86 57 -203 57q-114 0 -199 -55zM467 1305h-98v251h98v-251zM821 1305h-98v251h98v-251z" />
    <glyph glyph-name="igrave" unicode="&#xec;" horiz-adv-x="458" 
d="M274 0h-92v1083h92v-1083zM268 1253h-88l-289 303h125z" />
    <glyph glyph-name="iacute" unicode="&#xed;" horiz-adv-x="458" 
d="M274 0h-92v1083h92v-1083zM276 1253h-90l254 303h123z" />
    <glyph glyph-name="icircumflex" unicode="&#xee;" horiz-adv-x="458" 
d="M274 0h-92v1083h92v-1083zM293 1556l278 -303h-88l-254 254l-254 -254h-90l281 303h127z" />
    <glyph glyph-name="idieresis" unicode="&#xef;" horiz-adv-x="458" 
d="M274 0h-92v1083h92v-1083zM100 1305h-98v251h98v-251zM455 1305h-99v251h99v-251z" />
    <glyph glyph-name="eth" unicode="&#xf0;" horiz-adv-x="1232" 
d="M786 1348l-2 -13q166 -158 250 -352q86 -198 86 -426q0 -186 -65 -319q-66 -134 -181 -201q-118 -68 -260 -68q-145 0 -264 72q-115 69 -180 199q-64 128 -64 297q0 164 62 294q61 129 172 199q113 72 252 72q98 0 176 -37q83 -39 139 -98q57 -60 92 -138
q-26 120 -102 250q-75 129 -190 238l-252 -92l-21 61l217 80q-137 113 -301 190h156q123 -72 227 -159l256 94l21 -61zM829 100l-6 -2q93 63 142 172q49 110 49 256t-49 256q-49 109 -142 172q-92 62 -217 62t-217 -62q-90 -61 -143 -172q-51 -108 -51 -254q0 -148 51 -256
q52 -109 145 -172q91 -61 219 -61t219 61z" />
    <glyph glyph-name="ntilde" unicode="&#xf1;" horiz-adv-x="1189" 
d="M829 1053v-2q91 -54 142 -150t51 -223v-4v-674h-92v657v5q0 117 -43 202q-43 86 -117 129q-73 43 -168 43t-168 -43q-74 -43 -117 -129q-43 -85 -43 -202v-660h-92v1083h92v-229q43 114 136 182q92 68 219 68q111 0 200 -53zM299 1315l2 -2q12 74 61 114q50 41 109 41
q37 0 72 -12q28 -10 73 -33q65 -32 117 -32q92 0 127 86h43q-12 -77 -61 -117q-48 -39 -107 -39q-35 0 -69 12q-11 4 -80 35q-65 35 -117 35q-47 0 -80 -23q-32 -23 -47 -65h-43z" />
    <glyph glyph-name="ograve" unicode="&#xf2;" horiz-adv-x="1228" 
d="M350 47l-4 -4q-115 69 -180 199q-64 128 -64 297q0 163 66 295q64 128 180 198q119 72 264 72q152 0 265 -70q114 -71 178 -198q65 -130 65 -295q0 -171 -63 -297q-64 -129 -178 -199q-113 -70 -265 -70q-145 0 -264 72zM827 106l-6 -2q93 63 142 172q49 110 49 256
t-49 256q-49 111 -142 173q-91 61 -217 61t-217 -61q-90 -60 -143 -173q-51 -108 -51 -253q0 -148 51 -256q52 -111 145 -173q91 -61 219 -61t219 61zM676 1245h-88l-289 303h125z" />
    <glyph glyph-name="oacute" unicode="&#xf3;" horiz-adv-x="1228" 
d="M350 47l-4 -4q-115 69 -180 199q-64 128 -64 297q0 163 66 295q64 128 180 198q119 72 264 72q152 0 265 -70q114 -71 178 -198q65 -130 65 -295q0 -171 -63 -297q-64 -129 -178 -199q-113 -70 -265 -70q-145 0 -264 72zM827 106l-6 -2q93 63 142 172q49 110 49 256
t-49 256q-49 111 -142 173q-91 61 -217 61t-217 -61q-90 -60 -143 -173q-51 -108 -51 -253q0 -148 51 -256q52 -111 145 -173q91 -61 219 -61t219 61zM618 1245h-90l254 303h123z" />
    <glyph glyph-name="ocircumflex" unicode="&#xf4;" horiz-adv-x="1228" 
d="M350 47l-4 -4q-115 69 -180 199q-64 128 -64 297q0 163 66 295q64 128 180 198q119 72 264 72q152 0 265 -70q114 -71 178 -198q65 -130 65 -295q0 -171 -63 -297q-64 -129 -178 -199q-113 -70 -265 -70q-145 0 -264 72zM827 106l-6 -2q93 63 142 172q49 110 49 256
t-49 256q-49 111 -142 173q-91 61 -217 61t-217 -61q-90 -60 -143 -173q-51 -108 -51 -253q0 -148 51 -256q52 -111 145 -173q91 -61 219 -61t219 61zM668 1548l278 -303h-88l-254 254l-254 -254h-90l281 303h127z" />
    <glyph glyph-name="otilde" unicode="&#xf5;" horiz-adv-x="1228" 
d="M350 47l-4 -4q-115 69 -180 199q-64 128 -64 297q0 163 66 295q64 128 180 198q119 72 264 72q152 0 265 -70q114 -71 178 -198q65 -130 65 -295q0 -171 -63 -297q-64 -129 -178 -199q-113 -70 -265 -70q-145 0 -264 72zM827 106l-6 -2q93 63 142 172q49 110 49 256
t-49 256q-49 111 -142 173q-91 61 -217 61t-217 -61q-90 -60 -143 -173q-51 -108 -51 -253q0 -148 51 -256q52 -111 145 -173q91 -61 219 -61t219 61zM301 1309l2 -2q12 73 62 114t108 41q37 0 72 -12q28 -10 73 -33q67 -33 117 -33q92 0 127 86h43q-12 -76 -61 -116
q-48 -39 -107 -39q-35 0 -69 12q-11 4 -80 35q-65 35 -117 35q-47 0 -80 -23q-32 -23 -47 -65h-43z" />
    <glyph glyph-name="odieresis" unicode="&#xf6;" horiz-adv-x="1228" 
d="M350 47l-4 -4q-115 69 -180 199q-64 128 -64 297q0 163 66 295q64 128 180 198q119 72 264 72q152 0 265 -70q114 -71 178 -198q65 -130 65 -295q0 -171 -63 -297q-64 -129 -178 -199q-113 -70 -265 -70q-145 0 -264 72zM827 106l-6 -2q93 63 142 172q49 110 49 256
t-49 256q-49 111 -142 173q-91 61 -217 61t-217 -61q-90 -60 -143 -173q-51 -108 -51 -253q0 -148 51 -256q52 -111 145 -173q91 -61 219 -61t219 61zM475 1296h-98v252h98v-252zM829 1296h-98v252h98v-252z" />
    <glyph glyph-name="divide" unicode="&#xf7;" horiz-adv-x="1394" 
d="M748 844h-101v239h101v-239zM1239 514h-1083v76h1083v-76zM748 0h-101v240h101v-240z" />
    <glyph glyph-name="oslash" unicode="&#xf8;" horiz-adv-x="1228" 
d="M1180 1083l-172 -176q51 -72 79 -166q29 -98 29 -198q0 -171 -63 -297q-64 -128 -179 -199q-113 -70 -264 -70q-100 0 -190 35q-88 34 -156 99l-106 -113h-111l164 174q-53 74 -80 166t-27 201q0 163 66 295q64 128 180 198q119 72 264 72q103 0 193 -35t156 -98l106 112
h111zM268 238l627 665q-56 62 -129 92q-76 31 -162 31q-126 0 -217 -61q-90 -61 -143 -172q-51 -108 -51 -254q0 -177 75 -301zM942 836l-627 -670q58 -61 129 -90q76 -31 162 -31q128 0 219 61q93 62 142 173q49 110 49 256q0 174 -74 301z" />
    <glyph glyph-name="ugrave" unicode="&#xf9;" horiz-adv-x="1179" 
d="M905 1083l90 -4v-1083h-92v227q-47 -115 -135 -182q-89 -68 -215 -68q-106 0 -197 54q-89 53 -141 151q-51 96 -51 228v4v671h92v-657v-4q0 -119 43 -201q44 -84 117 -127t166 -43q90 0 163 43q73 44 117 129q43 85 43 203v659zM653 1249h-88l-289 303h125z" />
    <glyph glyph-name="uacute" unicode="&#xfa;" horiz-adv-x="1179" 
d="M905 1083l90 -4v-1083h-92v227q-47 -115 -135 -182q-89 -68 -215 -68q-106 0 -197 54q-89 53 -141 151q-51 96 -51 228v4v671h92v-657v-4q0 -119 43 -201q44 -84 117 -127t166 -43q90 0 163 43q73 44 117 129q43 85 43 203v659zM596 1249h-90l254 303h123z" />
    <glyph glyph-name="ucircumflex" unicode="&#xfb;" horiz-adv-x="1179" 
d="M905 1083l90 -4v-1083h-92v227q-47 -115 -135 -182q-89 -68 -215 -68q-106 0 -197 54q-89 53 -141 151q-51 96 -51 228v4v671h92v-657v-4q0 -119 43 -201q44 -84 117 -127t166 -43q90 0 163 43q73 44 117 129q43 85 43 203v659zM645 1552l279 -303h-88l-254 254
l-254 -254h-90l280 303h127z" />
    <glyph glyph-name="udieresis" unicode="&#xfc;" horiz-adv-x="1179" 
d="M905 1083l90 -4v-1083h-92v227q-47 -115 -135 -182q-89 -68 -215 -68q-106 0 -197 54q-89 53 -141 151q-51 96 -51 228v4v671h92v-657v-4q0 -119 43 -201q44 -84 117 -127t166 -43q90 0 163 43q73 44 117 129q43 85 43 203v659zM453 1300h-99v252h99v-252zM807 1300h-98
v252h98v-252z" />
    <glyph glyph-name="yacute" unicode="&#xfd;" horiz-adv-x="1114" 
d="M567 113h-96l-448 970h96zM485 -401h-96l596 1484h96zM567 1253h-90l254 303h123z" />
    <glyph glyph-name="thorn" unicode="&#xfe;" horiz-adv-x="1300" 
d="M956 1034h-4q111 -71 172 -198q62 -130 62 -295t-62 -295q-61 -129 -172 -199q-110 -70 -247 -70q-104 0 -191 43q-85 42 -149 115q-63 73 -93 160v-696h-92v1957h92v-776q30 89 90 164q58 73 148 117q87 43 197 43q139 0 249 -70zM899 111l-4 -2q92 62 141 172t49 256
t-49 256t-141 172q-91 61 -217 61q-127 0 -221 -61q-95 -62 -144 -172t-49 -254q0 -146 49 -256q48 -108 146 -172q95 -62 221 -62q127 0 219 62z" />
    <glyph glyph-name="ydieresis" unicode="&#xff;" horiz-adv-x="1114" 
d="M567 113h-96l-448 970h96zM485 -401h-96l596 1484h96zM424 1305h-98v251h98v-251zM778 1305h-98v251h98v-251z" />
    <glyph glyph-name="Amacron" unicode="&#x100;" horiz-adv-x="1499" 
d="M1485 0h-105l-206 522h-848l-207 -522h-105l621 1556h102l-377 -946h779l-377 946h102zM1096 1782h-693v78h693v-78z" />
    <glyph glyph-name="amacron" unicode="&#x101;" horiz-adv-x="1159" 
d="M811 1049v2q95 -59 139 -148q43 -87 43 -190v-4v-709h-92v252q-115 -275 -412 -275q-105 0 -190 43t-135 121q-49 76 -49 172q0 115 67 179q68 65 166 92q106 29 236 43l311 37v22v4q0 88 -35 166q-35 77 -106 125q-73 49 -187 49q-100 0 -172 -35q-71 -35 -108 -92
q-37 -58 -43 -125h-94q9 95 61 168t145 117q90 43 215 43q148 0 240 -57zM723 100l-2 -8q87 56 133 150q45 91 45 215v135l-254 -29q-131 -14 -227 -37q-89 -21 -148 -71q-57 -48 -57 -140q0 -81 41 -143q39 -58 108 -94q65 -33 152 -33q124 0 209 55zM891 1350h-643v73h643
v-73z" />
    <glyph glyph-name="Abreve" unicode="&#x102;" horiz-adv-x="1499" 
d="M1485 0h-105l-206 522h-848l-207 -522h-105l621 1556h102l-377 -946h779l-377 946h102zM600 1718q-64 34 -98 92q-33 56 -33 129h80q0 -88 53 -141q51 -51 146 -51q94 0 145 51q53 53 53 141h78q0 -73 -33 -129q-35 -59 -94 -92q-62 -35 -147 -35t-150 35z" />
    <glyph glyph-name="abreve" unicode="&#x103;" horiz-adv-x="1159" 
d="M811 1049v2q95 -59 139 -148q43 -87 43 -190v-4v-709h-92v252q-115 -275 -412 -275q-105 0 -190 43t-135 121q-49 76 -49 172q0 115 67 179q68 65 166 92q106 29 236 43l311 37v22v4q0 88 -35 166q-35 77 -106 125q-73 49 -187 49q-100 0 -172 -35q-71 -35 -108 -92
q-37 -58 -43 -125h-94q9 95 61 168t145 117q90 43 215 43q148 0 240 -57zM723 100l-2 -8q87 56 133 150q45 91 45 215v135l-254 -29q-131 -14 -227 -37q-89 -21 -148 -71q-57 -48 -57 -140q0 -81 41 -143q39 -58 108 -94q65 -33 152 -33q124 0 209 55zM420 1282l2 -4
q-63 40 -98 111q-33 67 -33 157h78q0 -110 55 -174q54 -63 147 -63q94 0 148 63q55 64 55 174h76q0 -88 -33 -155q-35 -71 -98 -111q-62 -39 -150 -39q-84 0 -149 41z" />
    <glyph glyph-name="Aogonek" unicode="&#x104;" horiz-adv-x="1499" 
d="M1346 -301l-5 4q42 -31 105 -31h37v-71h-43q-96 0 -158 47q-61 46 -61 133q0 71 43 123q44 53 118 98l-206 522h-848l-207 -522h-105l621 1557h102l-377 -947h779l-377 947h102l621 -1557q-96 -53 -137 -100q-43 -49 -43 -113q0 -61 39 -90z" />
    <glyph glyph-name="aogonek" unicode="&#x105;" horiz-adv-x="1159" 
d="M811 1049l-2 -5q96 -59 139 -147q43 -87 43 -190v-5v-708h-2q-96 -53 -137 -100q-43 -49 -43 -111q0 -60 41 -90q42 -31 104 -31h35v-70h-41q-94 0 -157 48q-62 47 -62 133q0 72 43 127q40 51 127 100h2v252q-115 -275 -412 -275q-105 0 -190 43t-135 121q-49 76 -49 172
q0 115 67 179q68 65 166 92q106 29 236 43l311 37v22v4q0 88 -35 166q-35 77 -106 125q-73 49 -187 49q-100 0 -172 -35q-71 -35 -108 -92q-37 -58 -43 -125h-94q9 95 61 168t145 117q90 43 215 43q148 0 240 -57zM721 94l-2 -8q87 56 133 150q45 91 45 215v135l-254 -29
q-131 -14 -227 -37q-89 -21 -148 -71q-57 -48 -57 -140q0 -81 41 -143q39 -58 108 -94q65 -33 152 -33q124 0 209 55z" />
    <glyph glyph-name="Cacute" unicode="&#x106;" horiz-adv-x="1587" 
d="M465 78l-4 -2q-162 104 -252 282q-92 182 -92 416t92 416q91 180 256 283q163 102 362 102q168 0 306 -66t225 -178q88 -114 135 -258h-102q-70 187 -211 301q-142 115 -351 115q-168 0 -307 -92q-138 -91 -217 -254q-80 -165 -80 -369q0 -203 80 -368q79 -162 215 -254
q137 -93 299 -93q222 0 369 111t217 309h102q-83 -246 -258 -375t-432 -129q-191 0 -352 103zM831 1688h-96l264 249h131z" />
    <glyph glyph-name="cacute" unicode="&#x107;" horiz-adv-x="1179" 
d="M350 47l-6 -12q-116 70 -180 198t-64 297q0 166 66 295q66 128 180 197q119 72 268 72q177 0 301 -103q122 -101 168 -276h-96q-38 144 -131 225q-96 84 -240 84q-127 0 -221 -61q-95 -62 -147 -172q-51 -108 -51 -254q0 -148 51 -256q52 -110 147 -172t221 -62
q146 0 244 82t139 227h97q-29 -113 -99 -202t-166 -134t-215 -45q-147 0 -266 72zM625 1239h-90l253 303h123z" />
    <glyph glyph-name="Ccircumflex" unicode="&#x108;" horiz-adv-x="1587" 
d="M465 78l-4 -2q-162 104 -252 282q-92 182 -92 416t92 416q91 180 256 283q163 102 362 102q168 0 306 -66t225 -178q88 -114 135 -258h-102q-70 187 -211 301q-142 115 -351 115q-168 0 -307 -92q-138 -91 -217 -254q-80 -165 -80 -369q0 -203 80 -368q79 -162 215 -254
q137 -93 299 -93q222 0 369 111t217 309h102q-83 -246 -258 -375t-432 -129q-191 0 -352 103zM893 1937l274 -249h-94l-248 204l-247 -204h-97l277 249h135z" />
    <glyph glyph-name="ccircumflex" unicode="&#x109;" horiz-adv-x="1179" 
d="M350 47l-6 -12q-116 70 -180 198t-64 297q0 166 66 295q66 128 180 197q119 72 268 72q177 0 301 -103q122 -101 168 -276h-96q-38 144 -131 225q-96 84 -240 84q-127 0 -221 -61q-95 -62 -147 -172q-51 -108 -51 -254q0 -148 51 -256q52 -110 147 -172t221 -62
q146 0 244 82t139 227h97q-29 -113 -99 -202t-166 -134t-215 -45q-147 0 -266 72zM674 1542l278 -303h-88l-254 254l-254 -254h-90l281 303h127z" />
    <glyph glyph-name="Cdotaccent" unicode="&#x10a;" horiz-adv-x="1587" 
d="M465 78l-4 -2q-162 104 -252 282q-92 182 -92 416t92 416q91 180 256 283q163 102 362 102q168 0 306 -66t225 -178q88 -114 135 -258h-102q-70 187 -211 301q-142 115 -351 115q-168 0 -307 -92q-138 -91 -217 -254q-80 -165 -80 -369q0 -203 80 -368q79 -162 215 -254
q137 -93 299 -93q222 0 369 111t217 309h102q-83 -246 -258 -375t-432 -129q-191 0 -352 103zM874 1688h-102v249h102v-249z" />
    <glyph glyph-name="cdotaccent" unicode="&#x10b;" horiz-adv-x="1179" 
d="M350 47l-6 -12q-116 70 -180 198t-64 297q0 166 66 295q66 128 180 197q119 72 268 72q177 0 301 -103q122 -101 168 -276h-96q-38 144 -131 225q-96 84 -240 84q-127 0 -221 -61q-95 -62 -147 -172q-51 -108 -51 -254q0 -148 51 -256q52 -110 147 -172t221 -62
q146 0 244 82t139 227h97q-29 -113 -99 -202t-166 -134t-215 -45q-147 0 -266 72zM659 1290h-98v252h98v-252z" />
    <glyph glyph-name="Ccaron" unicode="&#x10c;" horiz-adv-x="1587" 
d="M465 78l-4 -2q-162 104 -252 282q-92 182 -92 416t92 416q91 180 256 283q163 102 362 102q168 0 306 -66t225 -178q88 -114 135 -258h-102q-70 187 -211 301q-142 115 -351 115q-168 0 -307 -92q-138 -91 -217 -254q-80 -165 -80 -369q0 -203 80 -368q79 -162 215 -254
q137 -93 299 -93q222 0 369 111t217 309h102q-83 -246 -258 -375t-432 -129q-191 0 -352 103zM823 1733l248 204h94l-274 -249h-135l-277 249h96z" />
    <glyph glyph-name="ccaron" unicode="&#x10d;" horiz-adv-x="1179" 
d="M350 47l-6 -12q-116 70 -180 198t-64 297q0 166 66 295q66 128 180 197q119 72 268 72q177 0 301 -103q122 -101 168 -276h-96q-38 144 -131 225q-96 84 -240 84q-127 0 -221 -61q-95 -62 -147 -172q-51 -108 -51 -254q0 -148 51 -256q52 -110 147 -172t221 -62
q146 0 244 82t139 227h97q-29 -113 -99 -202t-166 -134t-215 -45q-147 0 -266 72zM610 1288l254 254h88l-278 -303h-127l-281 303h90z" />
    <glyph glyph-name="Dcaron" unicode="&#x10e;" horiz-adv-x="1613" 
d="M727 1556h-4q230 0 403 -92q175 -93 269 -268t94 -418t-94 -418q-95 -177 -267 -268q-173 -92 -401 -92h-504v1556h504zM725 88h-2q199 0 350 80q154 82 232 235q79 155 79 375t-79 375q-80 156 -230 236q-149 79 -350 79h-410v-1380h410zM750 1737l247 205h95l-275 -250
h-135l-276 250h96z" />
    <glyph glyph-name="dcaron" unicode="&#x10f;" horiz-adv-x="1300" 
d="M1024 1556l86 -2v-1556h-92v289q-37 -94 -94 -160q-61 -70 -148 -111t-186 -41q-137 0 -250 72q-109 69 -172 201q-62 130 -62 295t62 295q61 127 172 198q113 72 250 72q109 0 194 -43q87 -44 148 -117q62 -75 92 -162v770zM827 111l-4 -2q98 64 146 172q49 110 49 256
t-49 256t-144 172q-94 61 -221 61q-126 0 -217 -61q-92 -62 -141 -172t-49 -254q0 -146 49 -256t141 -172t219 -62q126 0 221 62zM1286 1184h-69l34 368h88z" />
    <glyph glyph-name="Dcroat" unicode="&#x110;" horiz-adv-x="1613" 
d="M727 1556h-4q230 0 403 -92q175 -93 269 -268t94 -418t-94 -418q-95 -177 -267 -268q-173 -92 -401 -92h-504v764h-190v84h190v708h504zM725 88h-2q199 0 350 80q154 82 232 235q79 155 79 375t-79 375q-80 156 -230 236q-149 79 -350 79h-410v-620h453v-84h-453v-676
h410z" />
    <glyph glyph-name="dcroat" unicode="&#x111;" horiz-adv-x="1300" 
d="M1270 1368l-6 -74h-154v-1296h-92v289q-37 -94 -94 -160q-61 -70 -148 -111t-186 -41q-137 0 -250 72q-109 69 -172 201q-62 130 -62 295t62 295q61 127 172 198q113 72 250 72q109 0 194 -43q87 -44 148 -117q62 -75 92 -162v510h-215v72h215v188h92v-188h154zM827 111
l-4 -2q98 64 146 172q49 110 49 256t-49 256t-144 172q-94 61 -221 61q-126 0 -217 -61q-92 -62 -141 -172t-49 -254q0 -146 49 -256t141 -172t219 -62q126 0 221 62z" />
    <glyph glyph-name="Emacron" unicode="&#x112;" horiz-adv-x="1318" 
d="M319 762v-674h881v-88h-977v1556h959v-88h-863v-618h848v-88h-848zM1051 1782h-693v78h693v-78z" />
    <glyph glyph-name="emacron" unicode="&#x113;" horiz-adv-x="1202" 
d="M1098 522l-899 4q3 -145 55 -252q50 -104 145 -161q92 -56 211 -56q146 0 238 68q93 68 133 197h94q-47 -170 -168 -254q-124 -86 -297 -86q-148 0 -264 67q-115 66 -180 197q-64 128 -64 299q0 166 66 295q64 126 178 196q116 72 258 72q137 0 252 -68q114 -67 178 -190
q66 -126 66 -287zM401 983l-4 -2q-87 -57 -139 -154q-52 -98 -61 -229h802q-3 127 -55 225q-53 100 -141 158q-86 57 -203 57q-114 0 -199 -55zM918 1358h-644v74h644v-74z" />
    <glyph glyph-name="Ebreve" unicode="&#x114;" horiz-adv-x="1318" 
d="M319 762v-674h881v-88h-977v1556h959v-88h-863v-618h848v-88h-848zM555 1718q-64 34 -98 92q-33 56 -33 129h80q0 -88 53 -141q51 -51 145 -51q95 0 146 51q53 53 53 141h78q0 -73 -33 -129q-35 -59 -94 -92q-62 -35 -147 -35t-150 35z" />
    <glyph glyph-name="ebreve" unicode="&#x115;" horiz-adv-x="1202" 
d="M1098 522l-899 4q3 -145 55 -252q50 -104 145 -161q92 -56 211 -56q146 0 238 68q93 68 133 197h94q-47 -170 -168 -254q-124 -86 -297 -86q-148 0 -264 67q-115 66 -180 197q-64 128 -64 299q0 166 66 295q64 126 178 196q116 72 258 72q137 0 252 -68q114 -67 178 -190
q66 -126 66 -287zM401 983l-4 -2q-87 -57 -139 -154q-52 -98 -61 -229h802q-3 127 -55 225q-53 100 -141 158q-86 57 -203 57q-114 0 -199 -55zM446 1290l3 -4q-65 40 -99 111q-33 67 -33 157h78q0 -109 56 -174q54 -63 147 -63t147 63q56 65 56 174h76q0 -88 -33 -155
q-34 -71 -99 -111q-62 -39 -149 -39q-85 0 -150 41z" />
    <glyph glyph-name="Edotaccent" unicode="&#x116;" horiz-adv-x="1318" 
d="M319 762v-674h881v-88h-977v1556h959v-88h-863v-618h848v-88h-848zM754 1692h-103v250h103v-250z" />
    <glyph glyph-name="edotaccent" unicode="&#x117;" horiz-adv-x="1202" 
d="M1098 522l-899 4q3 -145 55 -252q50 -104 145 -161q92 -56 211 -56q146 0 238 68q93 68 133 197h94q-47 -170 -168 -254q-124 -86 -297 -86q-148 0 -264 67q-115 66 -180 197q-64 128 -64 299q0 166 66 295q64 126 178 196q116 72 258 72q137 0 252 -68q114 -67 178 -190
q66 -126 66 -287zM401 983l-4 -2q-87 -57 -139 -154q-52 -98 -61 -229h802q-3 127 -55 225q-53 100 -141 158q-86 57 -203 57q-114 0 -199 -55zM645 1305h-98v251h98v-251z" />
    <glyph glyph-name="Eogonek" unicode="&#x118;" horiz-adv-x="1318" 
d="M1200 0l2 -2q-96 -53 -137 -100q-43 -49 -43 -113q0 -60 41 -90q42 -31 104 -31h35v-72h-41q-93 0 -160 48q-63 45 -63 133q0 72 43 127q41 52 123 100h-881v1556h959v-88h-863v-618h848v-88h-848v-674h881v-88z" />
    <glyph glyph-name="eogonek" unicode="&#x119;" horiz-adv-x="1202" 
d="M1098 522l-897 -6q3 -145 55 -252q51 -105 145 -162q91 -55 211 -55q146 0 238 68q93 69 133 196h94q-46 -169 -176 -258q-74 -62 -110 -100q-40 -43 -58 -80q-18 -38 -18 -82q0 -64 41 -94q42 -31 104 -31h35v-69h-43q-96 0 -158 47q-61 46 -61 133q0 60 31 114
q32 55 94 109q-68 -18 -148 -18q-148 0 -264 67q-115 66 -180 197q-64 128 -64 299q0 166 66 295q64 126 178 196q116 72 258 72q137 0 252 -68q114 -67 178 -190q66 -126 66 -287zM403 973l-4 -2q-87 -57 -139 -154q-52 -98 -61 -229h802q-3 127 -55 225q-53 100 -141 158
q-86 57 -203 57q-114 0 -199 -55z" />
    <glyph glyph-name="Ecaron" unicode="&#x11a;" horiz-adv-x="1318" 
d="M319 762v-674h881v-88h-977v1556h959v-88h-863v-618h848v-88h-848zM705 1737l247 205h95l-275 -250h-135l-277 250h97z" />
    <glyph glyph-name="ecaron" unicode="&#x11b;" horiz-adv-x="1202" 
d="M1098 522l-899 4q3 -145 55 -252q50 -104 145 -161q92 -56 211 -56q146 0 238 68q93 68 133 197h94q-47 -170 -168 -254q-124 -86 -297 -86q-148 0 -264 67q-115 66 -180 197q-64 128 -64 299q0 166 66 295q64 126 178 196q116 72 258 72q137 0 252 -68q114 -67 178 -190
q66 -126 66 -287zM401 983l-4 -2q-87 -57 -139 -154q-52 -98 -61 -229h802q-3 127 -55 225q-53 100 -141 158q-86 57 -203 57q-114 0 -199 -55zM596 1303l254 253h88l-279 -303h-127l-280 303h90z" />
    <glyph glyph-name="Gcircumflex" unicode="&#x11c;" horiz-adv-x="1681" 
d="M788 795h719v-795h-88v446q-29 -117 -104 -227q-72 -106 -199 -174t-295 -68q-197 0 -358 103q-162 104 -252 282q-92 182 -92 416t92 416q91 180 256 283q164 102 358 102q176 0 308 -63q138 -66 225 -175q88 -110 135 -256h-102q-68 188 -209 299t-355 111
q-168 0 -307 -92q-137 -91 -217 -256t-80 -369q0 -203 80 -368q78 -161 219 -254q140 -93 312 -93q164 0 299 78q131 76 208 221q76 143 76 345h-629v88zM889 1942l274 -250h-94l-248 204l-248 -204h-96l277 250h135z" />
    <glyph glyph-name="gcircumflex" unicode="&#x11d;" horiz-adv-x="1300" 
d="M1028 1083l82 2v-1116q0 -121 -61 -209t-170 -135q-105 -45 -242 -45q-134 0 -238 43q-103 43 -168 123q-64 79 -73 191h94q9 -93 63 -156q56 -66 140 -96q85 -31 184 -31q113 0 197 37q86 37 135 108q49 70 49 170v340q-30 -88 -92 -159q-61 -70 -148 -111
q-82 -39 -188 -39q-138 0 -250 68q-110 67 -172 194q-61 125 -61 291t61 291q62 127 172 194q112 68 250 68q109 0 196 -43t150 -115q63 -73 90 -160v295zM827 135h-4q98 60 146 166q49 107 49 252t-49 252t-144 166t-221 59q-125 0 -217 -59t-141 -166t-49 -252t49 -252
t141 -166t219 -59q126 0 221 59zM668 1559l278 -304h-88l-254 254l-254 -254h-90l281 304h127z" />
    <glyph glyph-name="Gbreve" unicode="&#x11e;" horiz-adv-x="1681" 
d="M788 795h719v-795h-88v446q-29 -117 -104 -227q-72 -106 -199 -174t-295 -68q-197 0 -358 103q-162 104 -252 282q-92 182 -92 416t92 416q91 180 256 283q164 102 358 102q176 0 308 -63q138 -66 225 -175q88 -110 135 -256h-102q-68 188 -209 299t-355 111
q-168 0 -307 -92q-137 -91 -217 -256t-80 -369q0 -203 80 -368q78 -161 219 -254q140 -93 312 -93q164 0 299 78q131 76 208 221q76 143 76 345h-629v88zM672 1718q-65 35 -99 92q-32 54 -32 129h80q0 -88 53 -141q51 -51 145 -51q95 0 146 51q53 53 53 141h78
q0 -73 -33 -129q-35 -59 -94 -92q-62 -35 -148 -35q-84 0 -149 35z" />
    <glyph glyph-name="gbreve" unicode="&#x11f;" horiz-adv-x="1300" 
d="M1028 1083l82 2v-1116q0 -121 -61 -209t-170 -135q-105 -45 -242 -45q-134 0 -238 43q-103 43 -168 123q-64 79 -73 191h94q9 -93 63 -156q56 -66 140 -96q85 -31 184 -31q113 0 197 37q86 37 135 108q49 70 49 170v340q-30 -88 -92 -159q-61 -70 -148 -111
q-82 -39 -188 -39q-138 0 -250 68q-110 67 -172 194q-61 125 -61 291t61 291q62 127 172 194q112 68 250 68q109 0 196 -43t150 -115q63 -73 90 -160v295zM827 135h-4q98 60 146 166q49 107 49 252t-49 252t-144 166t-221 59q-125 0 -217 -59t-141 -166t-49 -252t49 -252
t141 -166t219 -59q126 0 221 59zM455 1290l2 -4q-65 40 -99 111q-32 65 -32 157h77q0 -109 56 -174q54 -63 147 -63q94 0 148 63q55 64 55 174h76q0 -88 -33 -155q-35 -71 -98 -111q-62 -39 -150 -39q-84 0 -149 41z" />
    <glyph glyph-name="Gdotaccent" unicode="&#x120;" horiz-adv-x="1681" 
d="M788 795h719v-795h-88v446q-29 -117 -104 -227q-72 -106 -199 -174t-295 -68q-197 0 -358 103q-162 104 -252 282q-92 182 -92 416t92 416q91 180 256 283q164 102 358 102q176 0 308 -63q138 -66 225 -175q88 -110 135 -256h-102q-68 188 -209 299t-355 111
q-168 0 -307 -92q-137 -91 -217 -256t-80 -369q0 -203 80 -368q78 -161 219 -254q140 -93 312 -93q164 0 299 78q131 76 208 221q76 143 76 345h-629v88zM870 1692h-102v250h102v-250z" />
    <glyph glyph-name="gdotaccent" unicode="&#x121;" horiz-adv-x="1300" 
d="M1028 1083l82 2v-1116q0 -121 -61 -209t-170 -135q-105 -45 -242 -45q-134 0 -238 43q-103 43 -168 123q-64 79 -73 191h94q9 -93 63 -156q56 -66 140 -96q85 -31 184 -31q113 0 197 37q86 37 135 108q49 70 49 170v340q-30 -88 -92 -159q-61 -70 -148 -111
q-82 -39 -188 -39q-138 0 -250 68q-110 67 -172 194q-61 125 -61 291t61 291q62 127 172 194q112 68 250 68q109 0 196 -43t150 -115q63 -73 90 -160v295zM827 135h-4q98 60 146 166q49 107 49 252t-49 252t-144 166t-221 59q-125 0 -217 -59t-141 -166t-49 -252t49 -252
t141 -166t219 -59q126 0 221 59zM651 1307h-98v252h98v-252z" />
    <glyph glyph-name="uni0122" unicode="&#x122;" horiz-adv-x="1681" 
d="M788 795h719v-795h-88v446q-29 -117 -104 -227q-72 -106 -199 -174t-295 -68q-197 0 -358 103q-162 104 -252 282q-92 182 -92 416t92 416q91 180 256 283q164 102 358 102q176 0 308 -63q138 -66 225 -175q88 -110 135 -256h-102q-68 188 -209 299t-355 111
q-168 0 -307 -92q-137 -91 -217 -256t-80 -369q0 -203 80 -368q78 -161 219 -254q140 -93 312 -93q164 0 299 78q131 76 208 221q76 143 76 345h-629v88zM780 -397v247h103v-253l-82 -156h-76l78 162h-23z" />
    <glyph glyph-name="uni0123" unicode="&#x123;" horiz-adv-x="1300" 
d="M1028 1083l82 2v-1116q0 -121 -61 -209t-170 -135q-105 -45 -242 -45q-134 0 -238 43q-103 43 -168 123q-64 79 -73 191h94q9 -93 63 -156q56 -66 140 -96q85 -31 184 -31q113 0 197 37q86 37 135 108q49 70 49 170v340q-30 -88 -92 -159q-61 -70 -148 -111
q-82 -39 -188 -39q-138 0 -250 68q-110 67 -172 194q-61 125 -61 291t61 291q62 127 172 194q112 68 250 68q109 0 196 -43t150 -115q63 -73 90 -160v295zM827 135h-4q98 60 146 166q49 107 49 252t-49 252t-144 166t-221 59q-125 0 -217 -59t-141 -166t-49 -252t49 -252
t141 -166t219 -59q126 0 221 59zM637 1716h70l-76 -160h20v-249h-98v254z" />
    <glyph glyph-name="Hcircumflex" unicode="&#x124;" horiz-adv-x="1613" 
d="M1294 850v706h97v-1556h-97v762h-975v-762h-96v1556h96v-706h975zM877 1942l274 -250h-94l-248 204l-248 -204h-96l276 250h136z" />
    <glyph glyph-name="hcircumflex" unicode="&#x125;" horiz-adv-x="1189" 
d="M829 1053v-2q91 -54 142 -150t51 -223v-4v-674h-92v657v5q0 117 -43 202q-43 86 -117 129q-73 43 -168 43t-168 -43q-74 -43 -117 -129q-43 -85 -43 -202v-660h-92v1557h92v-703q43 114 136 182q92 68 219 68q111 0 200 -53zM295 1939l274 -249h-94l-248 204l-247 -204
h-97l277 249h135z" />
    <glyph glyph-name="Hbar" unicode="&#x126;" horiz-adv-x="1613" 
d="M1391 1229h217v-84h-217v-1145h-97v762h-975v-762h-96v1145h-217v84h217v327h96v-327h975v327h97v-327zM319 850h975v295h-975v-295z" />
    <glyph glyph-name="hbar" unicode="&#x127;" horiz-adv-x="1189" 
d="M829 1053v-2q91 -54 142 -150t51 -223v-4v-674h-92v657v5q0 117 -43 202q-43 86 -117 129q-73 43 -168 43t-168 -43q-74 -43 -117 -129q-43 -85 -43 -202v-660h-92v1296h-151v72h151v189h92v-189h215v-72h-215v-442q43 114 136 182q92 68 219 68q111 0 200 -53z" />
    <glyph glyph-name="Itilde" unicode="&#x128;" horiz-adv-x="542" 
d="M319 0h-96v1556h96v-1556zM-43 1741q12 71 63 110q53 41 113 41q39 0 74 -12t78 -33q65 -32 125 -32q94 0 131 79h45q-12 -69 -62 -110q-48 -39 -110 -39q-38 0 -80 10q-30 7 -76 31q-72 35 -123 35q-96 0 -131 -80h-47z" />
    <glyph glyph-name="itilde" unicode="&#x129;" horiz-adv-x="458" 
d="M274 0h-92v1083h92v-1083zM-74 1317l2 -2q12 74 62 115q49 40 108 40q38 0 72 -12q31 -11 74 -33q65 -32 116 -32q92 0 127 86h43q-12 -77 -61 -117q-48 -39 -107 -39q-34 0 -69 12q-11 4 -80 35q-65 35 -117 35q-47 0 -80 -23q-32 -23 -47 -65h-43z" />
    <glyph glyph-name="Imacron" unicode="&#x12a;" horiz-adv-x="542" 
d="M319 0h-96v1556h96v-1556zM618 1782h-692v78h692v-78z" />
    <glyph glyph-name="imacron" unicode="&#x12b;" horiz-adv-x="458" 
d="M274 0h-92v1083h92v-1083zM551 1358h-643v74h643v-74z" />
    <glyph glyph-name="Ibreve" unicode="&#x12c;" horiz-adv-x="542" 
d="M319 0h-96v1556h96v-1556zM123 1718q-64 34 -98 92q-33 56 -33 129h80q0 -88 53 -141q51 -51 145 -51q95 0 146 51q53 53 53 141h78q0 -73 -33 -129q-35 -59 -94 -92q-62 -35 -148 -35q-84 0 -149 35z" />
    <glyph glyph-name="ibreve" unicode="&#x12d;" horiz-adv-x="458" 
d="M274 0h-92v1083h92v-1083zM80 1288l2 -4q-63 40 -98 111q-33 67 -33 157h78q0 -110 55 -174q54 -63 147 -63q94 0 148 63q55 64 55 174h76q0 -88 -33 -155q-35 -71 -98 -111q-62 -39 -150 -39q-84 0 -149 41z" />
    <glyph glyph-name="Iogonek" unicode="&#x12e;" horiz-adv-x="542" 
d="M319 0h-96v1556h96v-1556zM279 -403l2 -3q-93 0 -160 48q-64 46 -64 133q0 72 43 127q41 52 123 100h99q-98 -54 -138 -100q-43 -49 -43 -113q0 -61 39 -90q42 -31 105 -31h37v-71h-43z" />
    <glyph glyph-name="iogonek" unicode="&#x12f;" horiz-adv-x="458" 
d="M180 1305v251h99v-251h-99zM182 1083l94 -6v-1083q-96 -53 -137 -100q-43 -49 -43 -111q0 -60 41 -90q42 -31 105 -31h34v-70h-40q-95 0 -158 48q-62 47 -62 133q0 72 43 127q41 52 123 100v1083z" />
    <glyph glyph-name="Idotaccent" unicode="&#x130;" horiz-adv-x="542" 
d="M319 0h-96v1556h96v-1556zM322 1692h-103v250h103v-250z" />
    <glyph glyph-name="dotlessi" unicode="&#x131;" horiz-adv-x="458" 
d="M274 0h-92v1083h92v-1083z" />
    <glyph glyph-name="Jcircumflex" unicode="&#x134;" horiz-adv-x="706" 
d="M41 0l-2 88h121q118 0 176 43q59 44 59 158v1267h99v-1277q0 -147 -84 -213t-238 -66h-131zM512 1942l274 -250h-94l-248 204l-247 -204h-97l277 250h135z" />
    <glyph glyph-name="jcircumflex" unicode="&#x135;" horiz-adv-x="458" 
d="M-53 -401l2 71h47q96 0 141 45q47 47 47 148v1220h92v-1220q0 -130 -73 -197t-203 -67h-53zM295 1554l278 -303h-88l-254 254l-254 -254h-90l281 303h127z" />
    <glyph glyph-name="uni0136" unicode="&#x136;" horiz-adv-x="1396" 
d="M446 821l961 -821h-133l-955 815v-815h-96v1556h96v-729l875 729h133zM694 -397v247h103v-253l-82 -156h-76l78 162h-23z" />
    <glyph glyph-name="uni0137" unicode="&#x137;" horiz-adv-x="1034" 
d="M389 604l637 -604h-119l-633 598v-598h-92v1556h92v-944l605 471h122zM520 -399v249h98v-253l-83 -156h-70l78 160h-23z" />
    <glyph glyph-name="kgreenlandic" unicode="&#x138;" horiz-adv-x="1038" 
d="M383 580l647 -580h-119l-637 571v-571h-92v1083h92v-491l607 491h125z" />
    <glyph glyph-name="Lacute" unicode="&#x139;" horiz-adv-x="1095" 
d="M319 1556v-1468h738v-88h-834v1556h96zM328 1692h-97l265 250h131z" />
    <glyph glyph-name="lacute" unicode="&#x13a;" horiz-adv-x="458" 
d="M274 0h-92v1556h92v-1556zM289 1692h-96l264 250h131z" />
    <glyph glyph-name="uni013B" unicode="&#x13b;" horiz-adv-x="1095" 
d="M319 1556v-1468h738v-88h-834v1556h96zM590 -397v247h102v-253l-82 -156h-75l77 162h-22z" />
    <glyph glyph-name="uni013C" unicode="&#x13c;" horiz-adv-x="458" 
d="M274 0h-92v1556h92v-1556zM180 -399v249h99v-253l-84 -156h-70l78 160h-23z" />
    <glyph glyph-name="Lcaron" unicode="&#x13d;" horiz-adv-x="1095" 
d="M319 1556v-1468h738v-88h-834v1556h96zM670 1071h-76l53 488h98z" />
    <glyph glyph-name="lcaron" unicode="&#x13e;" horiz-adv-x="458" 
d="M274 0h-92v1556h92v-1556zM455 1188h-70l35 368h88z" />
    <glyph glyph-name="Ldot" unicode="&#x13f;" horiz-adv-x="1118" 
d="M319 1556v-1468h738v-88h-834v1556h96zM883 737h-105v236h105v-236z" />
    <glyph glyph-name="ldot" unicode="&#x140;" horiz-adv-x="526" 
d="M274 0h-92v1556h92v-1556zM545 684h-105v236h105v-236z" />
    <glyph glyph-name="Lslash" unicode="&#x141;" horiz-adv-x="1095" 
d="M319 725v-637h738v-88h-834v668l-188 -113v90l188 113v798h96v-741l373 223v-90z" />
    <glyph glyph-name="lslash" unicode="&#x142;" horiz-adv-x="505" 
d="M299 852l190 125v-88l-190 -125v-764h-92v702l-158 -102v90l158 103v763h92v-704z" />
    <glyph glyph-name="Nacute" unicode="&#x143;" horiz-adv-x="1699" 
d="M319 0h-96v1556h96v-1556zM1356 0h-109l-901 1556h107zM1479 0h-99v1556h99v-1556zM891 1692h-96l264 250h131z" />
    <glyph glyph-name="nacute" unicode="&#x144;" horiz-adv-x="1189" 
d="M829 1053v-2q91 -54 142 -150t51 -223v-4v-674h-92v657v5q0 117 -43 202q-43 86 -117 129q-73 43 -168 43t-168 -43q-74 -43 -117 -129q-43 -85 -43 -202v-660h-92v1083h92v-229q43 114 136 182q92 68 219 68q111 0 200 -53zM614 1251h-90l254 303h123z" />
    <glyph glyph-name="uni0145" unicode="&#x145;" horiz-adv-x="1699" 
d="M319 0h-96v1556h96v-1556zM1356 0h-109l-901 1556h107zM1479 0h-99v1556h99v-1556zM784 -397v247h103v-253l-82 -156h-76l78 162h-23z" />
    <glyph glyph-name="uni0146" unicode="&#x146;" horiz-adv-x="1189" 
d="M829 1053v-2q91 -54 142 -150t51 -223v-4v-674h-92v657v5q0 117 -43 202q-43 86 -117 129q-73 43 -168 43t-168 -43q-74 -43 -117 -129q-43 -85 -43 -202v-660h-92v1083h92v-229q43 114 136 182q92 68 219 68q111 0 200 -53zM551 -401v249h98v-254l-84 -155h-69l77 160
h-22z" />
    <glyph glyph-name="Ncaron" unicode="&#x147;" horiz-adv-x="1699" 
d="M319 0h-96v1556h96v-1556zM1356 0h-109l-901 1556h107zM1479 0h-99v1556h99v-1556zM883 1737l247 205h95l-275 -250h-135l-276 250h96z" />
    <glyph glyph-name="ncaron" unicode="&#x148;" horiz-adv-x="1189" 
d="M829 1053v-2q91 -54 142 -150t51 -223v-4v-674h-92v657v5q0 117 -43 202q-43 86 -117 129q-73 43 -168 43t-168 -43q-74 -43 -117 -129q-43 -85 -43 -202v-660h-92v1083h92v-229q43 114 136 182q92 68 219 68q111 0 200 -53zM600 1300l254 254h88l-278 -303h-127
l-281 303h90z" />
    <glyph glyph-name="Eng" unicode="&#x14a;" horiz-adv-x="1699" 
d="M319 0h-96v1556h96v-1556zM453 1556l903 -1556h-109l-901 1556h107zM1479 1556l-2 -1679q0 -147 -84 -213q-83 -65 -240 -65h-129v88h121q118 0 176 43q59 44 59 157v1669h99z" />
    <glyph glyph-name="eng" unicode="&#x14b;" horiz-adv-x="1189" 
d="M829 1053v-2q91 -54 142 -150t51 -223v-4v-674h-92v657v5q0 117 -43 202q-43 86 -117 129q-73 43 -168 43t-168 -43q-74 -43 -117 -129q-43 -85 -43 -202v-660h-92v1083h92v-229q43 114 136 182q92 68 219 68q111 0 200 -53zM692 -403l2 71h47q97 0 142 45q47 47 47 148
v137h92v-137q0 -129 -74 -197q-73 -67 -203 -67h-53z" />
    <glyph glyph-name="Omacron" unicode="&#x14c;" horiz-adv-x="1695" 
d="M471 78v-4q-168 103 -258 282q-92 182 -92 416t92 416q90 179 258 282t377 103q214 0 377 -100q167 -102 258 -283q92 -182 92 -416t-92 -416q-90 -179 -258 -282q-165 -101 -377 -101q-209 0 -377 103zM1169 147l-4 -4q141 92 221 256q80 165 80 369t-80 369
q-80 164 -221 256q-142 92 -321 92q-180 0 -322 -92t-221 -254q-80 -165 -80 -369t80 -369q79 -162 221 -254t324 -92q181 0 323 92zM1188 1772h-692v77h692v-77z" />
    <glyph glyph-name="omacron" unicode="&#x14d;" horiz-adv-x="1228" 
d="M350 47l-4 -4q-115 69 -180 199q-64 128 -64 297q0 163 66 295q64 128 180 198q119 72 264 72q152 0 265 -70q114 -71 178 -198q65 -130 65 -295q0 -171 -63 -297q-64 -129 -178 -199q-113 -70 -265 -70q-145 0 -264 72zM827 106l-6 -2q93 63 142 172q49 110 49 256
t-49 256q-49 111 -142 173q-91 61 -217 61t-217 -61q-90 -60 -143 -173q-51 -108 -51 -253q0 -148 51 -256q52 -111 145 -173q91 -61 219 -61t219 61zM924 1350h-643v73h643v-73z" />
    <glyph glyph-name="Obreve" unicode="&#x14e;" horiz-adv-x="1695" 
d="M471 78v-4q-168 103 -258 282q-92 182 -92 416t92 416q90 179 258 282t377 103q214 0 377 -100q167 -102 258 -283q92 -182 92 -416t-92 -416q-90 -179 -258 -282q-165 -101 -377 -101q-209 0 -377 103zM1169 147l-4 -4q141 92 221 256q80 165 80 369t-80 369
q-80 164 -221 256q-142 92 -321 92q-180 0 -322 -92t-221 -254q-80 -165 -80 -369t80 -369q79 -162 221 -254t324 -92q181 0 323 92zM692 1708q-64 34 -98 92q-33 56 -33 129h80q0 -88 53 -141q51 -51 146 -51q94 0 145 51q53 53 53 141h78q0 -73 -33 -129q-35 -59 -94 -92
q-62 -35 -147 -35t-150 35z" />
    <glyph glyph-name="obreve" unicode="&#x14f;" horiz-adv-x="1228" 
d="M350 47l-4 -4q-115 69 -180 199q-64 128 -64 297q0 163 66 295q64 128 180 198q119 72 264 72q152 0 265 -70q114 -71 178 -198q65 -130 65 -295q0 -171 -63 -297q-64 -129 -178 -199q-113 -70 -265 -70q-145 0 -264 72zM827 106l-6 -2q93 63 142 172q49 110 49 256
t-49 256q-49 111 -142 173q-91 61 -217 61t-217 -61q-90 -60 -143 -173q-51 -108 -51 -253q0 -148 51 -256q52 -111 145 -173q91 -61 219 -61t219 61zM455 1280l2 -4q-65 41 -99 110q-32 65 -32 158h77q0 -109 56 -174q54 -63 147 -63q94 0 148 63q55 64 55 174h76
q0 -88 -33 -155q-35 -71 -98 -111q-62 -39 -150 -39q-84 0 -149 41z" />
    <glyph glyph-name="Ohungarumlaut" unicode="&#x150;" horiz-adv-x="1695" 
d="M471 78v-4q-168 103 -258 282q-92 182 -92 416t92 416q90 179 258 282t377 103q214 0 377 -100q167 -102 258 -283q92 -182 92 -416t-92 -416q-90 -179 -258 -282q-165 -101 -377 -101q-209 0 -377 103zM1169 147l-4 -4q141 92 221 256q80 165 80 369t-80 369
q-80 164 -221 256q-142 92 -321 92q-180 0 -322 -92t-221 -254q-80 -165 -80 -369t80 -369q79 -162 221 -254t324 -92q181 0 323 92zM684 1681h-98l282 250h129zM989 1681h-96l281 250h131z" />
    <glyph glyph-name="ohungarumlaut" unicode="&#x151;" horiz-adv-x="1228" 
d="M350 47l-4 -4q-115 69 -180 199q-64 128 -64 297q0 163 66 295q64 128 180 198q119 72 264 72q152 0 265 -70q114 -71 178 -198q65 -130 65 -295q0 -171 -63 -297q-64 -129 -178 -199q-113 -70 -265 -70q-145 0 -264 72zM827 106l-6 -2q93 63 142 172q49 110 49 256
t-49 256q-49 111 -142 173q-91 61 -217 61t-217 -61q-90 -60 -143 -173q-51 -108 -51 -253q0 -148 51 -256q52 -111 145 -173q91 -61 219 -61t219 61zM477 1245h-90l266 303h123zM782 1245h-88l264 303h123z" />
    <glyph glyph-name="OE" unicode="&#x152;" horiz-adv-x="2312" 
d="M1313 88l880 -4v-88h-1290q-208 0 -387 92t-287 270t-108 420t108 418q109 177 287 268q179 92 387 92h1272v-88h-862v-618h848v-88h-848v-674zM1217 84v1384h-314q-177 0 -334 -77t-252 -234q-96 -158 -96 -381t96 -381q94 -156 252 -233q159 -78 334 -78h314z" />
    <glyph glyph-name="oe" unicode="&#x153;" horiz-adv-x="2117" 
d="M2013 522h-897q3 -145 55 -252q50 -103 146 -161q92 -56 211 -56q145 0 237 68q93 69 133 196h95q-47 -170 -168 -254q-124 -86 -297 -86q-160 0 -281 86q-118 84 -178 234q-56 -149 -176 -234q-121 -86 -281 -86q-145 0 -264 72q-115 69 -180 199q-64 128 -64 297
q0 163 66 295q64 128 180 198q119 72 264 72q160 0 281 -86q119 -85 178 -233q57 148 174 231q121 86 273 86q137 0 252 -68q114 -67 178 -190q65 -124 65 -287zM831 113l-6 -2q93 63 142 172q49 110 49 256t-49 256q-49 109 -142 172q-91 61 -217 61t-217 -61
q-90 -61 -143 -172q-51 -108 -51 -254q0 -148 51 -256q52 -109 145 -172q92 -62 219 -62t219 62zM1311 977l2 -2q-90 -57 -142 -154q-52 -98 -61 -229h803q-3 127 -55 225q-52 99 -142 158q-86 57 -203 57q-114 0 -202 -55z" />
    <glyph glyph-name="Racute" unicode="&#x154;" horiz-adv-x="1421" 
d="M1348 0h-117l-449 692h-28h-437v-692h-96v1556h533q160 0 274 -51q120 -54 182 -149q66 -101 66 -234q0 -167 -102 -278q-103 -112 -283 -142zM317 780l439 4q125 0 221 41q95 41 147 117t52 184q0 109 -52 185q-52 75 -147 116q-96 41 -221 41h-439v-688zM686 1696h-96
l264 250h131z" />
    <glyph glyph-name="racute" unicode="&#x155;" horiz-adv-x="704" 
d="M274 848v-2q45 122 140 192q92 68 250 68v-90h-25q-176 0 -270 -88q-95 -89 -95 -264v-664h-92v1083h92v-235zM463 1251h-90l254 303h123z" />
    <glyph glyph-name="uni0156" unicode="&#x156;" horiz-adv-x="1421" 
d="M1348 0h-117l-449 692h-28h-437v-692h-96v1556h533q160 0 274 -51q120 -54 182 -149q66 -101 66 -234q0 -167 -102 -278q-103 -112 -283 -142zM317 780l439 4q125 0 221 41q95 41 147 117t52 184q0 109 -52 185q-52 75 -147 116q-96 41 -221 41h-439v-688zM680 -393v248
h102v-254l-82 -156h-75l77 162h-22z" />
    <glyph glyph-name="uni0157" unicode="&#x157;" horiz-adv-x="704" 
d="M274 848v-2q45 122 140 192q92 68 250 68v-90h-25q-176 0 -270 -88q-95 -89 -95 -264v-664h-92v1083h92v-235zM178 -401v249h98v-254l-83 -155h-70l78 160h-23z" />
    <glyph glyph-name="Rcaron" unicode="&#x158;" horiz-adv-x="1421" 
d="M1348 0h-117l-449 692h-28h-437v-692h-96v1556h533q160 0 274 -51q120 -54 182 -149q66 -101 66 -234q0 -167 -102 -278q-103 -112 -283 -142zM317 780l439 4q125 0 221 41q95 41 147 117t52 184q0 109 -52 185q-52 75 -147 116q-96 41 -221 41h-439v-688zM678 1741
l248 205h94l-275 -250h-135l-276 250h96z" />
    <glyph glyph-name="rcaron" unicode="&#x159;" horiz-adv-x="704" 
d="M274 848v-2q45 122 140 192q92 68 250 68v-90h-25q-176 0 -270 -88q-95 -89 -95 -264v-664h-92v1083h92v-235zM449 1300l253 254h89l-279 -303h-127l-281 303h91z" />
    <glyph glyph-name="Sacute" unicode="&#x15a;" horiz-adv-x="1384" 
d="M401 37l-2 4q-124 58 -204 166q-80 109 -101 252h103q15 -118 84 -209q67 -87 172 -137q106 -50 229 -50q150 0 262 50t170 135q60 88 60 198q0 90 -46 148t-137 98q-88 39 -254 74l-170 39q-193 43 -307 129q-113 85 -113 250q0 108 68 200q69 94 188 146q121 53 271 53
q148 0 270 -49q123 -50 199 -143q77 -95 98 -224h-102q-18 111 -82 183q-65 74 -162 114q-95 39 -217 39q-128 0 -223 -39q-99 -41 -154 -110q-55 -70 -55 -160q0 -89 43 -147q42 -57 129 -95q83 -36 227 -67l170 -39q169 -38 266 -88q102 -53 148 -125q47 -74 47 -180
q0 -137 -74 -246q-72 -105 -209 -168q-136 -62 -313 -62q-150 0 -279 60zM680 1696h-96l264 250h131z" />
    <glyph glyph-name="sacute" unicode="&#x15b;" horiz-adv-x="1032" 
d="M319 16l-4 2q-93 41 -151 117q-61 79 -78 180h94q26 -126 121 -196q92 -68 219 -68q100 0 170 33q75 35 111 88q37 55 37 119q0 67 -31 112q-30 44 -92 68q-73 29 -168 47l-111 23q-152 35 -237 96q-86 62 -86 182q0 83 53 148q52 65 141 102q87 37 197 37q100 0 182 -33
q85 -34 143 -98q59 -65 74 -158h-94q-15 70 -61 119q-47 50 -111 74q-65 24 -135 24q-78 0 -146 -24q-67 -24 -108 -74t-41 -113q0 -59 35 -100q34 -40 92 -61q76 -27 149 -44l111 -22q177 -38 258 -104q82 -67 82 -193q0 -90 -53 -164q-51 -72 -146 -117q-90 -43 -209 -43
q-114 0 -207 41zM518 1253h-90l254 303h123z" />
    <glyph glyph-name="Scircumflex" unicode="&#x15c;" horiz-adv-x="1384" 
d="M401 37l-2 4q-124 58 -204 166q-80 109 -101 252h103q15 -118 84 -209q67 -87 172 -137q106 -50 229 -50q150 0 262 50t170 135q60 88 60 198q0 90 -46 148t-137 98q-88 39 -254 74l-170 39q-193 43 -307 129q-113 85 -113 250q0 108 68 200q69 94 188 146q121 53 271 53
q148 0 270 -49q123 -50 199 -143q77 -95 98 -224h-102q-18 111 -82 183q-65 74 -162 114q-95 39 -217 39q-128 0 -223 -39q-99 -41 -154 -110q-55 -70 -55 -160q0 -89 43 -147q42 -57 129 -95q83 -36 227 -67l170 -39q169 -38 266 -88q102 -53 148 -125q47 -74 47 -180
q0 -137 -74 -246q-72 -105 -209 -168q-136 -62 -313 -62q-150 0 -279 60zM741 1946l275 -250h-94l-248 205l-248 -205h-96l276 250h135z" />
    <glyph glyph-name="scircumflex" unicode="&#x15d;" horiz-adv-x="1032" 
d="M319 16l-4 2q-93 41 -151 117q-61 79 -78 180h94q26 -126 121 -196q92 -68 219 -68q100 0 170 33q75 35 111 88q37 55 37 119q0 67 -31 112q-30 44 -92 68q-73 29 -168 47l-111 23q-152 35 -237 96q-86 62 -86 182q0 83 53 148q52 65 141 102q87 37 197 37q100 0 182 -33
q85 -34 143 -98q59 -65 74 -158h-94q-15 70 -61 119q-47 50 -111 74q-65 24 -135 24q-78 0 -146 -24q-67 -24 -108 -74t-41 -113q0 -59 35 -100q34 -40 92 -61q76 -27 149 -44l111 -22q177 -38 258 -104q82 -67 82 -193q0 -90 -53 -164q-51 -72 -146 -117q-90 -43 -209 -43
q-114 0 -207 41zM567 1556l279 -303h-88l-254 254l-254 -254h-90l280 303h127z" />
    <glyph glyph-name="Scedilla" unicode="&#x15e;" horiz-adv-x="1384" 
d="M1206 213l-10 -8q-68 -105 -192 -166q-127 -62 -295 -68v-67q69 -3 116 -47t47 -109q0 -71 -51 -113q-52 -43 -131 -43h-76v62h66q49 0 86 29q33 26 33 73q0 46 -33 72q-37 29 -80 29h-45v120q-146 6 -264 68t-191 166t-94 244h103q15 -118 84 -209q67 -87 172 -137
q106 -50 229 -50q150 0 262 50t170 135q59 86 59 198q0 91 -45 148q-46 58 -137 98q-88 39 -254 74l-170 39q-193 43 -307 129q-113 85 -113 250q0 108 68 200q69 94 188 146q121 53 271 53q148 0 270 -49t199 -144t98 -223h-102q-18 111 -82 183q-65 74 -162 114
q-95 39 -217 39q-128 0 -223 -39q-99 -41 -154 -110q-55 -70 -55 -160t43 -148q41 -56 129 -94q83 -36 227 -67l170 -39q169 -38 266 -88q102 -53 148 -125q47 -74 47 -180q0 -130 -68 -236z" />
    <glyph glyph-name="scedilla" unicode="&#x15f;" horiz-adv-x="1032" 
d="M883 135h-9q-52 -73 -145 -117q-90 -43 -209 -43v-69q72 -3 117 -45q47 -44 47 -107q0 -71 -49 -114t-129 -43h-74v59h68q49 0 86 29q32 25 32 73q0 47 -32 72q-37 29 -80 29h-47v123q-149 15 -250 102q-99 85 -123 231h94q26 -126 121 -196q92 -68 219 -68q100 0 170 33
q75 35 111 88q37 55 37 119q0 67 -31 112q-30 44 -92 68q-73 29 -168 47l-111 23q-152 35 -237 96q-86 62 -86 182q0 83 53 148q52 65 141 102q87 37 197 37q100 0 182 -33q85 -34 143 -98q59 -65 74 -158h-94q-15 70 -61 119q-47 50 -111 74q-65 24 -135 24q-78 0 -146 -24
q-67 -24 -108 -74t-41 -113q0 -59 35 -100q34 -40 92 -61q76 -27 149 -44l111 -22q177 -38 258 -104q82 -67 82 -193q0 -93 -51 -164z" />
    <glyph glyph-name="Scaron" unicode="&#x160;" horiz-adv-x="1384" 
d="M401 37l-2 4q-124 58 -204 166q-80 109 -101 252h103q15 -118 84 -209q67 -87 172 -137q106 -50 229 -50q150 0 262 50t170 135q60 88 60 198q0 90 -46 148t-137 98q-88 39 -254 74l-170 39q-193 43 -307 129q-113 85 -113 250q0 108 68 200q69 94 188 146q121 53 271 53
q148 0 270 -49q123 -50 199 -143q77 -95 98 -224h-102q-18 111 -82 183q-65 74 -162 114q-95 39 -217 39q-128 0 -223 -39q-99 -41 -154 -110q-55 -70 -55 -160q0 -89 43 -147q42 -57 129 -95q83 -36 227 -67l170 -39q169 -38 266 -88q102 -53 148 -125q47 -74 47 -180
q0 -137 -74 -246q-72 -105 -209 -168q-136 -62 -313 -62q-150 0 -279 60zM672 1741l248 205h94l-275 -250h-135l-276 250h96z" />
    <glyph glyph-name="scaron" unicode="&#x161;" horiz-adv-x="1032" 
d="M319 16l-4 2q-93 41 -151 117q-61 79 -78 180h94q26 -126 121 -196q92 -68 219 -68q100 0 170 33q75 35 111 88q37 55 37 119q0 67 -31 112q-30 44 -92 68q-73 29 -168 47l-111 23q-152 35 -237 96q-86 62 -86 182q0 83 53 148q52 65 141 102q87 37 197 37q100 0 182 -33
q85 -34 143 -98q59 -65 74 -158h-94q-15 70 -61 119q-47 50 -111 74q-65 24 -135 24q-78 0 -146 -24q-67 -24 -108 -74t-41 -113q0 -59 35 -100q34 -40 92 -61q76 -27 149 -44l111 -22q177 -38 258 -104q82 -67 82 -193q0 -90 -53 -164q-51 -72 -146 -117q-90 -43 -209 -43
q-114 0 -207 41zM504 1303l254 253h88l-279 -303h-127l-280 303h90z" />
    <glyph glyph-name="uni0162" unicode="&#x162;" horiz-adv-x="1261" 
d="M39 1556h1184v-88h-543v-1468h-98v1468h-543v88zM580 -397v247h102v-253l-82 -156h-76l78 162h-22z" />
    <glyph glyph-name="uni0163" unicode="&#x163;" horiz-adv-x="720" 
d="M684 74l4 -78h-135q-130 0 -203 67q-74 68 -74 195v4v746h-251v73h251v256h93v-256h315v-73h-315v-746v-4q0 -97 47 -141q46 -43 141 -43h127zM403 -403v249h99v-254l-84 -155h-70l78 160h-23z" />
    <glyph glyph-name="Tcaron" unicode="&#x164;" horiz-adv-x="1261" 
d="M39 1556h1184v-88h-543v-1468h-98v1468h-543v88zM631 1737l248 205h94l-275 -250h-135l-276 250h96z" />
    <glyph glyph-name="tcaron" unicode="&#x165;" horiz-adv-x="720" 
d="M684 74l4 -78h-135q-130 0 -203 67q-74 68 -74 195v4v746h-251v73h251v256h93v-256h315v-73h-315v-746v-4q0 -97 47 -141q46 -43 141 -43h127zM549 1184h-70l35 368h88z" />
    <glyph glyph-name="Tbar" unicode="&#x166;" horiz-adv-x="1320" 
d="M1251 1556v-88h-542v-634h413v-84h-413v-750h-97v750h-413v84h413v634h-542v88h1181z" />
    <glyph glyph-name="tbar" unicode="&#x167;" horiz-adv-x="720" 
d="M684 74l4 -78h-135q-130 0 -203 67q-74 68 -74 195v4v359h-182v71h182v316h-251v73h251v256h93v-256h315v-73h-315v-316h184v-71h-184v-359v-4q0 -97 47 -141q46 -43 141 -43h127z" />
    <glyph glyph-name="Utilde" unicode="&#x168;" horiz-adv-x="1591" 
d="M348 143h4q-143 165 -143 478v4v931h96v-935v-5q0 -272 123 -413q124 -142 373 -142q244 0 368 142q123 141 123 415v936h97v-931q0 -313 -144 -480q-144 -166 -448 -166q-305 0 -449 166zM483 1741q12 70 64 110q53 41 112 41q39 0 74 -12t78 -33q65 -32 125 -32
q94 0 131 79h45q-12 -70 -61 -110q-48 -39 -111 -39q-38 0 -80 10q-30 7 -76 31q-72 35 -122 35q-97 0 -132 -80h-47z" />
    <glyph glyph-name="utilde" unicode="&#x169;" horiz-adv-x="1179" 
d="M905 1083l90 -4v-1083h-92v227q-47 -115 -135 -182q-89 -68 -215 -68q-106 0 -197 54q-89 53 -141 151q-51 96 -51 228v4v671h92v-657v-4q0 -119 43 -201q44 -84 117 -127t166 -43q90 0 163 43q73 44 117 129q43 85 43 203v659zM279 1313l2 -2q12 74 61 114q50 41 109 41
q37 0 71 -12q31 -11 74 -33q65 -32 117 -32q92 0 127 86h43q-12 -76 -62 -117q-48 -39 -106 -39q-35 0 -70 12q-11 4 -80 35q-65 35 -116 35q-47 0 -80 -23q-32 -23 -47 -65h-43z" />
    <glyph glyph-name="Umacron" unicode="&#x16a;" horiz-adv-x="1591" 
d="M348 143h4q-143 165 -143 478v4v931h96v-935v-5q0 -272 123 -413q124 -142 373 -142q244 0 368 142q123 141 123 415v936h97v-931q0 -313 -144 -480q-144 -166 -448 -166q-305 0 -449 166zM1145 1782h-692v78h692v-78z" />
    <glyph glyph-name="umacron" unicode="&#x16b;" horiz-adv-x="1179" 
d="M905 1083l90 -4v-1083h-92v227q-47 -115 -135 -182q-89 -68 -215 -68q-106 0 -197 54q-89 53 -141 151q-51 96 -51 228v4v671h92v-657v-4q0 -119 43 -201q44 -84 117 -127t166 -43q90 0 163 43q73 44 117 129q43 85 43 203v659zM901 1354h-643v73h643v-73z" />
    <glyph glyph-name="Ubreve" unicode="&#x16c;" horiz-adv-x="1591" 
d="M348 143h4q-143 165 -143 478v4v931h96v-935v-5q0 -272 123 -413q124 -142 373 -142q244 0 368 142q123 141 123 415v936h97v-931q0 -313 -144 -480q-144 -166 -448 -166q-305 0 -449 166zM649 1718q-64 34 -98 92q-33 56 -33 129h80q0 -88 53 -141q51 -51 146 -51
q94 0 145 51q53 53 53 141h78q0 -73 -33 -129q-35 -59 -94 -92q-62 -35 -147 -35t-150 35z" />
    <glyph glyph-name="ubreve" unicode="&#x16d;" horiz-adv-x="1179" 
d="M905 1083l90 -4v-1083h-92v227q-47 -115 -135 -182q-89 -68 -215 -68q-106 0 -197 54q-89 53 -141 151q-51 96 -51 228v4v671h92v-657v-4q0 -119 43 -201q44 -84 117 -127t166 -43q90 0 163 43q73 44 117 129q43 85 43 203v659zM432 1284l2 -4q-63 40 -98 111
q-33 67 -33 157h78q0 -110 55 -174q54 -63 148 -63q93 0 147 63q55 64 55 174h76q0 -88 -33 -155q-35 -71 -98 -111q-62 -39 -149 -39q-85 0 -150 41z" />
    <glyph glyph-name="Uring" unicode="&#x16e;" horiz-adv-x="1591" 
d="M348 143h4q-143 165 -143 478v4v931h96v-935v-5q0 -272 123 -413q124 -142 373 -142q244 0 368 142q123 141 123 415v936h97v-931q0 -313 -144 -480q-144 -166 -448 -166q-305 0 -449 166zM694 1712h-4q-50 30 -80 80q-30 49 -30 106q0 60 30 109q31 51 80 78
q53 29 109 29q55 0 108 -29q50 -28 78 -78q29 -53 29 -109q0 -53 -29 -106q-27 -49 -78 -80t-106 -31q-56 0 -107 31zM868 1772l-2 -3q36 22 54 56q18 35 18 73q0 40 -18 74q-19 36 -52 53q-36 19 -73 19q-38 0 -74 -19t-53 -51q-19 -36 -19 -73q0 -38 19 -74q17 -33 53 -55
q35 -21 74 -21q38 0 73 21z" />
    <glyph glyph-name="uring" unicode="&#x16f;" horiz-adv-x="1179" 
d="M905 1083l90 -4v-1083h-92v227q-47 -115 -135 -182q-89 -68 -215 -68q-106 0 -197 54q-89 53 -141 151q-51 96 -51 228v4v671h92v-657v-4q0 -119 43 -201q44 -84 117 -127t166 -43q90 0 163 43q73 44 117 129q43 85 43 203v659zM487 1270q-43 24 -67 67q-25 45 -25 95
q0 49 25 94q24 43 67 67q45 25 95 25q49 0 94 -25q43 -24 67 -67q25 -45 25 -94q0 -50 -25 -95q-24 -43 -67 -67q-45 -25 -94 -25q-50 0 -95 25zM668 1346v-3q34 37 34 89t-34 86t-86 34q-53 0 -88 -32q-37 -34 -37 -86q0 -51 37 -88t88 -37q52 0 86 37z" />
    <glyph glyph-name="Uhungarumlaut" unicode="&#x170;" horiz-adv-x="1591" 
d="M348 143h4q-143 165 -143 478v4v931h96v-935v-5q0 -272 123 -413q124 -142 373 -142q244 0 368 142q123 141 123 415v936h97v-931q0 -313 -144 -480q-144 -166 -448 -166q-305 0 -449 166zM641 1692h-98l282 250h129zM946 1692h-96l280 250h132z" />
    <glyph glyph-name="uhungarumlaut" unicode="&#x171;" horiz-adv-x="1179" 
d="M905 1083l90 -4v-1083h-92v227q-47 -115 -135 -182q-89 -68 -215 -68q-106 0 -197 54q-89 53 -141 151q-51 96 -51 228v4v671h92v-657v-4q0 -119 43 -201q44 -84 117 -127t166 -43q90 0 163 43q73 44 117 129q43 85 43 203v659zM455 1249h-90l266 303h123zM760 1249h-88
l264 303h123z" />
    <glyph glyph-name="Uogonek" unicode="&#x172;" horiz-adv-x="1591" 
d="M1290 1556l96 -2v-931q0 -410 -237 -560q-105 -74 -150 -141q-43 -64 -43 -129t39 -94q42 -31 105 -31h37v-71h-43q-95 0 -160 47q-64 46 -64 133q0 115 123 223q-90 -20 -194 -20q-306 0 -449 165t-143 478v4v932h96v-936v-5q0 -272 123 -413q124 -142 373 -142
q244 0 368 142q123 141 123 416v935z" />
    <glyph glyph-name="uogonek" unicode="&#x173;" horiz-adv-x="1179" 
d="M905 1083l88 -10v-1083h-2q-94 -52 -137 -101t-43 -110q0 -60 41 -90q42 -31 104 -31h35v-70h-41q-95 0 -157 47t-62 134q0 72 43 127q40 51 127 100h2v227q-47 -115 -135 -182q-89 -68 -215 -68q-106 0 -197 54q-89 53 -141 151q-51 96 -51 228v4v671h92v-657v-4
q0 -119 43 -201q44 -84 117 -127t166 -43q90 0 163 43q73 44 117 129q43 85 43 203v659z" />
    <glyph glyph-name="Wcircumflex" unicode="&#x174;" horiz-adv-x="2287" 
d="M610 0h-102l-469 1556h102zM737 0h-102l395 1556h100zM1653 0h-101l-395 1556h100zM1782 0h-103l467 1556h103zM1212 1942l275 -250h-94l-248 204l-248 -204h-96l276 250h135z" />
    <glyph glyph-name="wcircumflex" unicode="&#x175;" horiz-adv-x="1796" 
d="M483 0h-92l-344 1083h90zM600 0h-92l287 1083h90zM1286 0h-90l-285 1083h90zM1405 0h-92l344 1083h92zM963 1556l278 -303h-88l-254 254l-254 -254h-90l281 303h127z" />
    <glyph glyph-name="Ycircumflex" unicode="&#x176;" horiz-adv-x="1329" 
d="M1210 1556h113l-610 -864v-692h-97v692l-610 864h111l547 -772zM733 1942l275 -250h-95l-247 204l-248 -204h-96l276 250h135z" />
    <glyph glyph-name="ycircumflex" unicode="&#x177;" horiz-adv-x="1114" 
d="M567 113h-96l-448 970h96zM485 -401h-96l596 1484h96zM616 1556l279 -303h-88l-254 254l-254 -254h-90l280 303h127z" />
    <glyph glyph-name="Ydieresis" unicode="&#x178;" horiz-adv-x="1329" 
d="M1210 1556h113l-610 -864v-692h-97v692l-610 864h111l547 -772zM541 1692h-103v250h103v-250zM889 1692h-103v250h103v-250z" />
    <glyph glyph-name="Zacute" unicode="&#x179;" horiz-adv-x="1351" 
d="M1260 1434l-1090 -1346h1128v-88h-1224v123l1089 1345h-1077v88h1174v-122zM682 1692h-96l264 250h131z" />
    <glyph glyph-name="zacute" unicode="&#x17a;" horiz-adv-x="997" 
d="M897 977l-731 -903h774v-74h-864v106l731 904h-715v73h805v-106zM508 1253h-90l254 303h123z" />
    <glyph glyph-name="Zdotaccent" unicode="&#x17b;" horiz-adv-x="1351" 
d="M1260 1434l-1090 -1346h1128v-88h-1224v123l1089 1345h-1077v88h1174v-122zM725 1692h-102v250h102v-250z" />
    <glyph glyph-name="zdotaccent" unicode="&#x17c;" horiz-adv-x="997" 
d="M897 977l-731 -903h774v-74h-864v106l731 904h-715v73h805v-106zM543 1305h-99v251h99v-251z" />
    <glyph glyph-name="Zcaron" unicode="&#x17d;" horiz-adv-x="1351" 
d="M1260 1434l-1090 -1346h1128v-88h-1224v123l1089 1345h-1077v88h1174v-122zM674 1737l248 205h94l-275 -250h-135l-276 250h96z" />
    <glyph glyph-name="zcaron" unicode="&#x17e;" horiz-adv-x="997" 
d="M897 977l-731 -903h774v-74h-864v106l731 904h-715v73h805v-106zM494 1303l254 253h88l-279 -303h-127l-280 303h90z" />
    <glyph glyph-name="uni018F" unicode="&#x18f;" horiz-adv-x="1679" 
d="M1192 1483v-6q165 -92 266 -277q98 -180 98 -428q0 -242 -98 -422q-99 -182 -264 -280q-166 -99 -365 -99q-205 0 -368 105q-165 106 -256 289q-92 186 -92 417v37h1341q-9 209 -94 361q-86 153 -227 233q-142 80 -316 80q-217 0 -360 -104q-145 -106 -209 -295h-101
q46 154 142 264q95 109 229 164t299 55q206 0 375 -94zM1145 139l-4 -4q138 85 221 240q83 154 92 352h-1241q9 -188 86 -342q78 -156 215 -244t320 -88q172 0 311 86z" />
    <glyph glyph-name="florin" unicode="&#x192;" horiz-adv-x="1155" 
d="M930 1475h-4q-106 0 -162 -50q-58 -51 -72 -161l-55 -367h377v-82h-389l-80 -543q-21 -141 -101 -209q-79 -67 -215 -67h-163v82h153q109 0 164 49q57 51 72 162l80 526h-359v82h371l57 383q21 141 101 209q79 67 215 67h163v-81h-153z" />
    <glyph glyph-name="uni019D" unicode="&#x19d;" horiz-adv-x="1699" 
d="M319 0h-96v1556h96v-1556zM1356 0h-109l-901 1556h107zM1479 0h-99v1556h99v-1556zM-133 -401l-2 88h121q120 0 178 43q59 44 59 157v113h96v-123q0 -148 -83 -213t-238 -65h-131z" />
    <glyph glyph-name="uni01B5" unicode="&#x1b5;" horiz-adv-x="1396" 
d="M735 760l-545 -672h1129v-88h-1225v123l516 637h-456v84h524l506 624h-1078v88h1174v-122l-477 -590h452v-84h-520z" />
    <glyph glyph-name="uni01B6" unicode="&#x1b6;" horiz-adv-x="1026" 
d="M547 530l-369 -456h774v-74h-864v106l344 424h-289v74h349l327 406h-715v73h805v-106l-301 -373h299v-74h-360z" />
    <glyph glyph-name="uni01E2" unicode="&#x1e2;" horiz-adv-x="2039" 
d="M1182 762l268 -674h471v-88h-541l-206 522h-848l-207 -522h-105l621 1556h102l-377 -946h779l-377 946h1141v-88h-1004l248 -618h741v-88h-706zM1528 1782h-692v78h692v-78z" />
    <glyph glyph-name="uni01E3" unicode="&#x1e3;" horiz-adv-x="1994" 
d="M1890 522h-893q3 -143 56 -252q50 -104 145 -161q92 -56 211 -56q146 0 238 68q93 69 133 196h94q-47 -170 -168 -254q-124 -86 -297 -86q-113 0 -209 41q-94 40 -162 117q-65 73 -100 178q-27 -92 -88 -168q-60 -75 -156 -122q-93 -46 -215 -46q-106 0 -190 41
q-83 40 -129 111q-45 68 -45 158q0 121 67 188q68 68 178 92q116 25 269 25h268v94v4q0 88 -35 166q-35 77 -106 125q-73 49 -187 49q-100 0 -172 -35q-71 -35 -108 -92q-37 -58 -43 -125h-94q9 95 61 168t145 117q90 43 215 43q118 0 195 -39q80 -41 129 -102
q48 -60 70 -136q59 127 172 203t258 76q137 0 252 -68q114 -67 178 -190q65 -124 65 -287zM1200 979l2 -2q-89 -56 -141 -154q-53 -100 -62 -229h803q-3 127 -55 225q-53 100 -141 158q-86 57 -203 57q-115 0 -203 -55zM907 518l-256 -4q-139 0 -233 -18q-95 -18 -150 -70
t-55 -143q0 -70 35 -123q36 -55 98 -84q67 -31 154 -31q126 0 217 55t141 158q49 101 49 234v26zM1321 1350h-643v73h643v-73z" />
    <glyph glyph-name="Gcaron" unicode="&#x1e6;" horiz-adv-x="1681" 
d="M788 795h719v-795h-88v446q-29 -117 -104 -227q-72 -106 -199 -174t-295 -68q-197 0 -358 103q-162 104 -252 282q-92 182 -92 416t92 416q91 180 256 283q164 102 358 102q176 0 308 -63q138 -66 225 -175q88 -110 135 -256h-102q-68 188 -209 299t-355 111
q-168 0 -307 -92q-137 -91 -217 -256t-80 -369q0 -203 80 -368q78 -161 219 -254q140 -93 312 -93q164 0 299 78q131 76 208 221q76 143 76 345h-629v88zM819 1737l248 205h94l-274 -250h-135l-277 250h96z" />
    <glyph glyph-name="gcaron" unicode="&#x1e7;" horiz-adv-x="1300" 
d="M1028 1083l82 2v-1116q0 -121 -61 -209t-170 -135q-105 -45 -242 -45q-134 0 -238 43q-103 43 -168 123q-64 79 -73 191h94q9 -93 63 -156q56 -66 140 -96q85 -31 184 -31q113 0 197 37q86 37 135 108q49 70 49 170v340q-30 -88 -92 -159q-61 -70 -148 -111
q-82 -39 -188 -39q-138 0 -250 68q-110 67 -172 194q-61 125 -61 291t61 291q62 127 172 194q112 68 250 68q109 0 196 -43t150 -115q63 -73 90 -160v295zM827 135h-4q98 60 146 166q49 107 49 252t-49 252t-144 166t-221 59q-125 0 -217 -59t-141 -166t-49 -252t49 -252
t141 -166t219 -59q126 0 221 59zM602 1305l254 254h88l-278 -304h-127l-281 304h90z" />
    <glyph glyph-name="uni01EA" unicode="&#x1ea;" horiz-adv-x="1695" 
d="M1051 -74l-2 -8q-43 -64 -43 -131q0 -66 38 -94q42 -31 105 -31h37v-72h-43q-93 0 -160 48q-63 45 -63 133q0 117 127 229q-88 -27 -199 -27q-209 0 -377 103t-258 282q-92 182 -92 416t92 416q91 181 258 283q166 102 377 102q214 0 377 -100q167 -102 258 -283
q92 -182 92 -416q0 -163 -45 -297t-129 -241q-83 -105 -197 -170q-107 -74 -153 -142zM301 399l-4 -4q79 -162 221 -254t324 -92q181 0 323 92q141 92 221 256q80 165 80 369t-80 369q-80 164 -221 256q-142 92 -321 92q-180 0 -322 -92t-221 -254q-80 -165 -80 -369
t80 -369z" />
    <glyph glyph-name="uni01EB" unicode="&#x1eb;" horiz-adv-x="1228" 
d="M750 -88l-5 -10q-38 -52 -38 -119q0 -64 41 -94q42 -31 104 -31h35v-70h-43q-96 0 -158 47q-61 46 -61 134q0 57 30 110q31 54 95 109q-80 -17 -138 -17q-145 0 -264 72q-115 69 -180 199q-64 128 -64 297q0 163 66 295q64 128 180 198q119 72 264 72q152 0 265 -70
q114 -71 178 -198q65 -130 65 -295q0 -168 -61 -293q-62 -128 -174 -197q-91 -76 -137 -139zM248 274l-6 -2q52 -109 145 -172q91 -61 219 -61t219 61q93 63 142 172q49 110 49 256t-49 256q-49 109 -142 172q-92 62 -217 62t-217 -62q-90 -61 -143 -172q-51 -108 -51 -254
q0 -148 51 -256z" />
    <glyph glyph-name="AEacute" unicode="&#x1fc;" horiz-adv-x="2039" 
d="M1182 762l268 -674h471v-88h-541l-206 522h-848l-207 -522h-105l621 1556h102l-377 -946h779l-377 946h1141v-88h-1004l248 -618h741v-88h-706zM1190 1692h-96l264 250h131z" />
    <glyph glyph-name="aeacute" unicode="&#x1fd;" horiz-adv-x="1994" 
d="M1890 522h-893q3 -143 56 -252q50 -104 145 -161q92 -56 211 -56q146 0 238 68q93 69 133 196h94q-47 -170 -168 -254q-124 -86 -297 -86q-113 0 -209 41q-94 40 -162 117q-65 73 -100 178q-27 -92 -88 -168q-60 -75 -156 -122q-93 -46 -215 -46q-106 0 -190 41
q-83 40 -129 111q-45 68 -45 158q0 121 67 188q68 68 178 92q116 25 269 25h268v94v4q0 88 -35 166q-35 77 -106 125q-73 49 -187 49q-100 0 -172 -35q-71 -35 -108 -92q-37 -58 -43 -125h-94q9 95 61 168t145 117q90 43 215 43q118 0 195 -39q80 -41 129 -102
q48 -60 70 -136q59 127 172 203t258 76q137 0 252 -68q114 -67 178 -190q65 -124 65 -287zM1200 979l2 -2q-89 -56 -141 -154q-53 -100 -62 -229h803q-3 127 -55 225q-53 100 -141 158q-86 57 -203 57q-115 0 -203 -55zM907 518l-256 -4q-139 0 -233 -18q-95 -18 -150 -70
t-55 -143q0 -70 35 -123q36 -55 98 -84q67 -31 154 -31q126 0 217 55t141 158q49 101 49 234v26zM1014 1245h-90l254 303h122z" />
    <glyph glyph-name="Oslashacute" unicode="&#x1fe;" horiz-adv-x="1695" 
d="M1653 1556l-242 -258q79 -106 121 -235q43 -133 43 -291q0 -234 -92 -416q-90 -179 -258 -282q-165 -101 -377 -101q-146 0 -279 54q-128 52 -227 151l-174 -182h-127l242 254q-75 100 -119 237q-43 133 -43 289q0 234 92 416q91 181 258 283q166 102 377 102
q153 0 278 -51q132 -54 228 -150l172 180h127zM254 526h-4q36 -123 94 -209l936 979q-83 92 -195 142q-110 49 -241 49q-180 0 -322 -92t-221 -254q-80 -165 -80 -369q0 -134 33 -246zM1432 1018l-5 -4q-36 123 -94 209l-936 -979q84 -93 197 -142t246 -49q181 0 323 92
q141 92 221 256q80 165 80 369q0 139 -32 248zM844 1679h-96l264 250h131z" />
    <glyph glyph-name="oslashacute" unicode="&#x1ff;" horiz-adv-x="1228" 
d="M1180 1083l-172 -176q51 -72 79 -166q29 -98 29 -198q0 -171 -63 -297q-64 -128 -179 -199q-113 -70 -264 -70q-100 0 -190 35q-88 34 -156 99l-106 -113h-111l164 174q-53 74 -80 166t-27 201q0 163 66 295q64 128 180 198q119 72 264 72q103 0 193 -35t156 -98l106 112
h111zM268 238l627 665q-56 62 -129 92q-76 31 -162 31q-126 0 -217 -61q-90 -61 -143 -172q-51 -108 -51 -254q0 -177 75 -301zM942 836l-627 -670q58 -61 129 -90q76 -31 162 -31q128 0 219 61q93 62 142 173q49 110 49 256q0 174 -74 301zM621 1245h-91l254 303h123z" />
    <glyph glyph-name="uni0218" unicode="&#x218;" horiz-adv-x="1384" 
d="M401 37l-2 4q-124 58 -204 166q-80 109 -101 252h103q15 -118 84 -209q67 -87 172 -137q106 -50 229 -50q150 0 262 50t170 135q60 88 60 198q0 90 -46 148t-137 98q-88 39 -254 74l-170 39q-193 43 -307 129q-113 85 -113 250q0 108 68 200q69 94 188 146q121 53 271 53
q148 0 270 -49q123 -50 199 -143q77 -95 98 -224h-102q-18 111 -82 183q-65 74 -162 114q-95 39 -217 39q-128 0 -223 -39q-99 -41 -154 -110q-55 -70 -55 -160q0 -89 43 -147q42 -57 129 -95q83 -36 227 -67l170 -39q169 -38 266 -88q102 -53 148 -125q47 -74 47 -180
q0 -137 -74 -246q-72 -105 -209 -168q-136 -62 -313 -62q-150 0 -279 60zM655 -393v248h103v-254l-82 -156h-76l78 162h-23z" />
    <glyph glyph-name="uni0219" unicode="&#x219;" horiz-adv-x="1032" 
d="M319 16l-4 2q-93 41 -151 117q-61 79 -78 180h94q26 -126 121 -196q92 -68 219 -68q100 0 170 33q75 35 111 88q37 55 37 119q0 67 -31 112q-30 44 -92 68q-73 29 -168 47l-111 23q-152 35 -237 96q-86 62 -86 182q0 83 53 148q52 65 141 102q87 37 197 37q100 0 182 -33
q85 -34 143 -98q59 -65 74 -158h-94q-15 70 -61 119q-47 50 -111 74q-65 24 -135 24q-78 0 -146 -24q-67 -24 -108 -74t-41 -113q0 -59 35 -100q34 -40 92 -61q76 -27 149 -44l111 -22q177 -38 258 -104q82 -67 82 -193q0 -90 -53 -164q-51 -72 -146 -117q-90 -43 -209 -43
q-114 0 -207 41zM481 -399v249h99v-253l-84 -156h-70l78 160h-23z" />
    <glyph glyph-name="uni021A" unicode="&#x21a;" horiz-adv-x="1261" 
d="M39 1556h1184v-88h-543v-1468h-98v1468h-543v88zM580 -397v247h102v-253l-82 -156h-76l78 162h-22z" />
    <glyph glyph-name="uni021B" unicode="&#x21b;" horiz-adv-x="720" 
d="M684 74l4 -78h-135q-130 0 -203 67q-74 68 -74 195v4v746h-251v73h251v256h93v-256h315v-73h-315v-746v-4q0 -97 47 -141q46 -43 141 -43h127zM403 -403v249h99v-254l-84 -155h-70l78 160h-23z" />
    <glyph glyph-name="uni022E" unicode="&#x22e;" horiz-adv-x="1695" 
d="M471 78v-4q-168 103 -258 282q-92 182 -92 416t92 416q90 179 258 282t377 103q214 0 377 -100q167 -102 258 -283q92 -182 92 -416t-92 -416q-90 -179 -258 -282q-165 -101 -377 -101q-209 0 -377 103zM1169 147l-4 -4q141 92 221 256q80 165 80 369t-80 369
q-80 164 -221 256q-142 92 -321 92q-180 0 -322 -92t-221 -254q-80 -165 -80 -369t80 -369q79 -162 221 -254t324 -92q181 0 323 92zM893 1681h-102v250h102v-250z" />
    <glyph glyph-name="uni022F" unicode="&#x22f;" horiz-adv-x="1228" 
d="M350 47l-4 -4q-115 69 -180 199q-64 128 -64 297q0 163 66 295q64 128 180 198q119 72 264 72q152 0 265 -70q114 -71 178 -198q65 -130 65 -295q0 -171 -63 -297q-64 -129 -178 -199q-113 -70 -265 -70q-145 0 -264 72zM827 106l-6 -2q93 63 142 172q49 110 49 256
t-49 256q-49 111 -142 173q-91 61 -217 61t-217 -61q-90 -60 -143 -173q-51 -108 -51 -253q0 -148 51 -256q52 -111 145 -173q91 -61 219 -61t219 61zM651 1296h-98v252h98v-252z" />
    <glyph glyph-name="uni0232" unicode="&#x232;" horiz-adv-x="1329" 
d="M1210 1556h113l-610 -864v-692h-97v692l-610 864h111l547 -772zM1010 1782h-693v78h693v-78z" />
    <glyph glyph-name="uni0233" unicode="&#x233;" horiz-adv-x="1114" 
d="M567 113h-96l-448 970h96zM485 -401h-96l596 1484h96zM874 1358h-643v74h643v-74z" />
    <glyph glyph-name="uni0237" unicode="&#x237;" horiz-adv-x="458" 
d="M-53 -401l2 71h47q96 0 141 45q47 47 47 148v1220h92v-1220q0 -130 -73 -197t-203 -67h-53z" />
    <glyph glyph-name="uni0259" unicode="&#x259;" horiz-adv-x="1202" 
d="M850 1036l-4 -8q115 -66 180 -197q66 -132 66 -299q0 -169 -64 -294q-65 -127 -178 -197t-258 -70q-137 0 -252 68q-114 67 -178 190q-66 126 -66 287l2 41h897q-3 145 -55 252q-52 108 -145 164q-91 55 -211 55q-147 0 -238 -67q-93 -68 -133 -197h-94q46 168 170 254
t297 86q146 0 264 -68zM793 94l-2 -4q89 56 141 154t61 231h-803q3 -123 56 -223q51 -97 141 -156q86 -57 203 -57q115 0 203 55z" />
    <glyph glyph-name="uni0272" unicode="&#x272;" horiz-adv-x="1189" 
d="M829 1053v-2q91 -54 142 -150t51 -223v-4v-674h-92v657v5q0 117 -43 202q-43 86 -117 129q-73 43 -168 43t-168 -43q-74 -43 -117 -129q-43 -85 -43 -202v-660h-92v1083h92v-229q43 114 136 182q92 68 219 68q111 0 200 -53zM-55 -403l2 71h47q96 0 141 45q47 47 47 148
v137h92v-137q0 -130 -73 -197t-203 -67h-53z" />
    <glyph glyph-name="circumflex" unicode="&#x2c6;" horiz-adv-x="811" 
d="M469 1556l279 -303h-89l-253 254l-254 -254h-91l281 303h127z" />
    <glyph glyph-name="caron" unicode="&#x2c7;" horiz-adv-x="811" 
d="M406 1303l253 253h89l-279 -303h-127l-281 303h91z" />
    <glyph glyph-name="breve" unicode="&#x2d8;" horiz-adv-x="684" 
d="M193 1288l2 -4q-65 40 -99 111q-33 67 -33 157h78q0 -109 56 -174q54 -63 147 -63q94 0 148 63q55 64 55 174h76q0 -88 -33 -155q-35 -71 -98 -111q-62 -39 -150 -39q-84 0 -149 41z" />
    <glyph glyph-name="dotaccent" unicode="&#x2d9;" horiz-adv-x="221" 
d="M160 1305h-99v251h99v-251z" />
    <glyph glyph-name="ring" unicode="&#x2da;" horiz-adv-x="497" 
d="M156 1274q-45 25 -68 67q-25 45 -25 95q0 49 25 94q23 42 68 67t94 25t94 -25t68 -67q24 -44 24 -94q0 -52 -24 -95q-23 -42 -68 -67t-94 -25t-94 25zM336 1350v-2q35 38 35 88q0 51 -35 86q-34 34 -86 34q-53 0 -88 -32q-37 -34 -37 -86q0 -51 37 -88t88 -37q52 0 86 37
z" />
    <glyph glyph-name="ogonek" unicode="&#x2db;" horiz-adv-x="387" 
d="M283 -403l-2 -7q-95 0 -158 48q-62 47 -62 133q0 72 43 127q40 51 127 100h93q-98 -54 -138 -100q-43 -49 -43 -111q0 -60 41 -90q42 -31 105 -31h35v-69h-41z" />
    <glyph glyph-name="tilde" unicode="&#x2dc;" horiz-adv-x="724" 
d="M61 1317l2 -2q12 74 62 115q49 40 108 40q37 0 72 -12q31 -11 74 -33q65 -32 117 -32q92 0 127 86h43q-12 -76 -62 -117q-48 -39 -106 -39q-35 0 -70 12q-11 4 -80 35q-65 35 -117 35q-46 0 -79 -23q-34 -24 -48 -65h-43z" />
    <glyph glyph-name="hungarumlaut" unicode="&#x2dd;" horiz-adv-x="817" 
d="M152 1253h-91l267 303h123zM457 1253h-88l264 303h123z" />
    <glyph glyph-name="gravecomb" unicode="&#x300;" horiz-adv-x="0" 
d="M-63 1253h-89l-288 303h125z" />
    <glyph glyph-name="acutecomb" unicode="&#x301;" horiz-adv-x="0" 
d="M-350 1253h-90l254 303h123z" />
    <glyph glyph-name="uni0302" unicode="&#x302;" horiz-adv-x="0" 
d="M-342 1556l279 -303h-89l-254 254l-253 -254h-91l281 303h127z" />
    <glyph glyph-name="tildecomb" unicode="&#x303;" horiz-adv-x="0" 
d="M-664 1317l2 -2q12 74 62 115q49 40 108 40q38 0 72 -12q31 -11 74 -33q65 -32 117 -32q92 0 127 86h43q-12 -76 -62 -117q-48 -39 -106 -39q-35 0 -70 12q-11 4 -80 35q-65 35 -117 35q-46 0 -79 -23q-34 -24 -48 -65h-43z" />
    <glyph glyph-name="uni0304" unicode="&#x304;" horiz-adv-x="0" 
d="M-61 1358h-644v74h644v-74z" />
    <glyph glyph-name="uni0306" unicode="&#x306;" horiz-adv-x="0" 
d="M-492 1288l3 -4q-65 40 -99 111q-33 67 -33 157h78q0 -109 56 -174q54 -63 147 -63t147 63q56 65 56 174h76q0 -88 -33 -155q-34 -71 -99 -111q-62 -39 -149 -39q-85 0 -150 41z" />
    <glyph glyph-name="uni0307" unicode="&#x307;" horiz-adv-x="0" 
d="M-61 1305h-99v251h99v-251z" />
    <glyph glyph-name="uni0308" unicode="&#x308;" horiz-adv-x="0" 
d="M-416 1305h-98v251h98v-251zM-61 1305h-99v251h99v-251z" />
    <glyph glyph-name="uni030A" unicode="&#x30a;" horiz-adv-x="0" 
d="M-342 1274q-45 25 -68 67q-24 43 -24 95q0 50 24 94q23 42 68 67t94 25t94 -25t68 -67q25 -45 25 -94q0 -50 -25 -95q-23 -42 -68 -67t-94 -25t-94 25zM-162 1350v-2q35 38 35 88q0 51 -35 86q-34 34 -86 34q-53 0 -88 -32q-37 -34 -37 -86q0 -51 37 -88t88 -37
q52 0 86 37z" />
    <glyph glyph-name="uni030B" unicode="&#x30b;" horiz-adv-x="0" 
d="M-666 1253h-90l267 303h122zM-360 1253h-89l265 303h123z" />
    <glyph glyph-name="uni030C" unicode="&#x30c;" horiz-adv-x="0" 
d="M-406 1303l254 253h89l-279 -303h-127l-281 303h91z" />
    <glyph glyph-name="uni0312" unicode="&#x312;" horiz-adv-x="0" 
d="M-76 1714h70l-76 -160h21v-249h-99v254z" />
    <glyph glyph-name="dotbelowcomb" unicode="&#x323;" horiz-adv-x="0" 
d="M-61 -401h-99v251h99v-251z" />
    <glyph glyph-name="uni0326" unicode="&#x326;" horiz-adv-x="0" 
d="M-160 -399v249h99v-253l-84 -156h-70l78 160h-23z" />
    <glyph glyph-name="uni0327" unicode="&#x327;" horiz-adv-x="0" 
d="M-225 -92l-2 -4q71 -3 116 -45q48 -45 48 -107q0 -70 -50 -114t-129 -44h-73v60h67q49 0 86 29q33 26 33 73q0 46 -33 72q-37 29 -80 29h-47v143h64v-92z" />
    <glyph glyph-name="uni0328" unicode="&#x328;" horiz-adv-x="0" 
d="M-104 -403l-2 -7q-95 0 -158 48q-62 47 -62 133q0 72 43 127q40 51 127 100h93q-98 -54 -138 -100q-43 -49 -43 -111q0 -60 41 -90q42 -31 105 -31h35v-69h-41z" />
    <glyph glyph-name="uni0335" unicode="&#x335;" horiz-adv-x="0" 
d="M-707 1296h-458v72h458v-72z" />
    <glyph glyph-name="uni0336" unicode="&#x336;" horiz-adv-x="0" 
d="M-63 1149h-1602v84h1602v-84z" />
    <glyph glyph-name="uni0337" unicode="&#x337;" horiz-adv-x="0" 
d="M-63 889l-441 -289v90l441 287v-88z" />
    <glyph glyph-name="uni0338" unicode="&#x338;" horiz-adv-x="0" 
d="M-1081 0h-111l1018 1083h111z" />
    <glyph glyph-name="uni0394" unicode="&#x394;" horiz-adv-x="1499" 
d="M762 1556h102l621 -1556h-1471l621 1556h102l-583 -1468h1192z" />
    <glyph glyph-name="uni03A9" unicode="&#x3a9;" horiz-adv-x="1718" 
d="M1530 573l-6 -4q-57 -128 -176 -247t-299 -238h536v-88h-610v123q174 118 282 229q111 114 170 238q58 122 58 268q0 205 -86 350q-85 143 -232 215t-309 72t-309 -72q-146 -71 -234 -215q-88 -143 -88 -350q0 -146 58 -268q57 -120 170 -236q108 -111 282 -229v-123
h-608v88h537q-180 117 -301 238t-177 247q-59 133 -59 285q0 231 100 391q102 163 269 246q170 84 362 84q193 0 363 -84q163 -81 266 -246q100 -160 100 -389q0 -152 -59 -285z" />
    <glyph glyph-name="uni03BC" unicode="&#x3bc;" horiz-adv-x="1249" 
d="M1212 74l-4 -80h-94q-90 0 -139 43q-48 42 -57 123q-3 21 -3 63q-43 -114 -133 -182q-89 -68 -215 -68q-88 0 -168 41q-78 40 -129 115v-532h-92v1484h92v-657v-4q0 -119 43 -201q44 -84 117 -127t166 -43q91 0 164 43q74 44 117 129t43 203v659h92v-886v-4
q0 -119 118 -119h82z" />
    <glyph glyph-name="pi" unicode="&#x3c0;" horiz-adv-x="1275" 
d="M979 1010l2 -750v-4q0 -97 47 -141q46 -43 141 -43h33v-74h-39q-128 0 -202 68t-74 194v4v746h-543v-1010h-92v1010h-221v73h1169v-73h-221z" />
    <glyph glyph-name="uni0E3F" unicode="&#xe3f;" horiz-adv-x="1370" 
d="M1184 203h4q-63 -90 -178 -142q-113 -51 -283 -57v-270h-90v268h-404v1557h404v258h90v-261q148 -9 252 -61t160 -135q55 -82 55 -191q0 -110 -51 -184q-53 -77 -142 -121q-85 -42 -202 -57q132 -6 233 -55q102 -49 158 -136q55 -85 55 -198q0 -127 -61 -215zM330 844
h307v631h-307v-631zM1053 1317v-2q-44 64 -129 106q-81 40 -197 49v-626q116 9 197 49q82 41 129 108q45 65 45 158t-45 158zM330 760v-682h307v682h-307zM727 80l-4 2q208 9 317 98t109 240q0 150 -109 239q-110 90 -313 99v-678z" />
    <glyph glyph-name="Wgrave" unicode="&#x1e80;" horiz-adv-x="2287" 
d="M610 0h-102l-469 1556h102zM737 0h-102l395 1556h100zM1653 0h-101l-395 1556h100zM1782 0h-103l467 1556h103zM1186 1692h-94l-301 250h131z" />
    <glyph glyph-name="wgrave" unicode="&#x1e81;" horiz-adv-x="1796" 
d="M483 0h-92l-344 1083h90zM600 0h-92l287 1083h90zM1286 0h-90l-285 1083h90zM1405 0h-92l344 1083h92zM930 1253h-88l-289 303h125z" />
    <glyph glyph-name="Wacute" unicode="&#x1e82;" horiz-adv-x="2287" 
d="M610 0h-102l-469 1556h102zM737 0h-102l395 1556h100zM1653 0h-101l-395 1556h100zM1782 0h-103l467 1556h103zM1196 1692h-96l264 250h131z" />
    <glyph glyph-name="wacute" unicode="&#x1e83;" horiz-adv-x="1796" 
d="M483 0h-92l-344 1083h90zM600 0h-92l287 1083h90zM1286 0h-90l-285 1083h90zM1405 0h-92l344 1083h92zM952 1253h-90l254 303h123z" />
    <glyph glyph-name="Wdieresis" unicode="&#x1e84;" horiz-adv-x="2287" 
d="M610 0h-102l-469 1556h102zM737 0h-102l395 1556h100zM1653 0h-101l-395 1556h100zM1782 0h-103l467 1556h103zM1020 1692h-102v250h102v-250zM1368 1692h-102v250h102v-250z" />
    <glyph glyph-name="wdieresis" unicode="&#x1e85;" horiz-adv-x="1796" 
d="M483 0h-92l-344 1083h90zM600 0h-92l287 1083h90zM1286 0h-90l-285 1083h90zM1405 0h-92l344 1083h92zM770 1305h-98v251h98v-251zM1124 1305h-98v251h98v-251z" />
    <glyph glyph-name="uni1E9E" unicode="&#x1e9e;" horiz-adv-x="1542" 
d="M852 963l2 2q175 -3 311 -62q139 -60 213 -168q78 -113 78 -264q0 -141 -63 -252q-64 -113 -185 -178q-123 -66 -278 -66q-78 0 -148 13q-42 8 -137 35v88q79 -27 131 -37q67 -13 144 -13q129 0 229 56q97 55 151 151q54 97 54 205q0 134 -72 227q-73 95 -192 140
t-279 45h-53v104l407 479h-846v-1468h-96v1556h1037v-114z" />
    <glyph glyph-name="uni1EA0" unicode="&#x1ea0;" horiz-adv-x="1499" 
d="M1485 0h-105l-206 522h-848l-207 -522h-105l621 1556h102l-377 -946h779l-377 946h102zM799 -401h-103v249h103v-249z" />
    <glyph glyph-name="uni1EA1" unicode="&#x1ea1;" horiz-adv-x="1159" 
d="M811 1049v2q95 -59 139 -148q43 -87 43 -190v-4v-709h-92v252q-115 -275 -412 -275q-105 0 -190 43t-135 121q-49 76 -49 172q0 115 67 179q68 65 166 92q106 29 236 43l311 37v22v4q0 88 -35 166q-35 77 -106 125q-73 49 -187 49q-100 0 -172 -35q-71 -35 -108 -92
q-37 -58 -43 -125h-94q9 95 61 168t145 117q90 43 215 43q148 0 240 -57zM723 100l-2 -8q87 56 133 150q45 91 45 215v135l-254 -29q-131 -14 -227 -37q-89 -21 -148 -71q-57 -48 -57 -140q0 -81 41 -143q39 -58 108 -94q65 -33 152 -33q124 0 209 55zM627 -410h-99v252h99
v-252z" />
    <glyph glyph-name="uni1EB8" unicode="&#x1eb8;" horiz-adv-x="1318" 
d="M319 762v-674h881v-88h-977v1556h959v-88h-863v-618h848v-88h-848zM762 -401h-103v249h103v-249z" />
    <glyph glyph-name="uni1EB9" unicode="&#x1eb9;" horiz-adv-x="1202" 
d="M1098 522l-899 4q3 -145 55 -252q50 -104 145 -161q92 -56 211 -56q146 0 238 68q93 68 133 197h94q-47 -170 -168 -254q-124 -86 -297 -86q-148 0 -264 67q-115 66 -180 197q-64 128 -64 299q0 166 66 295q64 126 178 196q116 72 258 72q137 0 252 -68q114 -67 178 -190
q66 -126 66 -287zM401 983l-4 -2q-87 -57 -139 -154q-52 -98 -61 -229h802q-3 127 -55 225q-53 100 -141 158q-86 57 -203 57q-114 0 -199 -55zM655 -401h-98v251h98v-251z" />
    <glyph glyph-name="uni1EBC" unicode="&#x1ebc;" horiz-adv-x="1318" 
d="M319 762v-674h881v-88h-977v1556h959v-88h-863v-618h848v-88h-848zM389 1741q12 70 64 110q53 41 112 41q39 0 74 -12t78 -33q65 -32 125 -32q94 0 131 79h45q-12 -69 -62 -110q-48 -39 -110 -39q-38 0 -80 10q-30 7 -76 31q-72 35 -123 35q-96 0 -131 -80h-47z" />
    <glyph glyph-name="uni1EBD" unicode="&#x1ebd;" horiz-adv-x="1202" 
d="M1098 522l-899 4q3 -145 55 -252q50 -104 145 -161q92 -56 211 -56q146 0 238 68q93 68 133 197h94q-47 -170 -168 -254q-124 -86 -297 -86q-148 0 -264 67q-115 66 -180 197q-64 128 -64 299q0 166 66 295q64 126 178 196q116 72 258 72q137 0 252 -68q114 -67 178 -190
q66 -126 66 -287zM401 983l-4 -2q-87 -57 -139 -154q-52 -98 -61 -229h802q-3 127 -55 225q-53 100 -141 158q-86 57 -203 57q-114 0 -199 -55zM295 1317l2 -2q12 75 61 115t109 40q37 0 72 -12q28 -10 73 -33q65 -32 117 -32q92 0 127 86h43q-12 -77 -61 -117
q-48 -39 -107 -39q-35 0 -69 12q-11 4 -80 35q-65 35 -117 35q-47 0 -80 -23q-32 -23 -47 -65h-43z" />
    <glyph glyph-name="uni1ECA" unicode="&#x1eca;" horiz-adv-x="542" 
d="M319 0h-96v1556h96v-1556zM322 -401h-103v249h103v-249z" />
    <glyph glyph-name="uni1ECB" unicode="&#x1ecb;" horiz-adv-x="458" 
d="M274 0h-92v1083h92v-1083zM279 1305h-99v251h99v-251zM279 -401h-99v251h99v-251z" />
    <glyph glyph-name="uni1ECC" unicode="&#x1ecc;" horiz-adv-x="1695" 
d="M471 78v-4q-168 103 -258 282q-92 182 -92 416t92 416q90 179 258 282t377 103q214 0 377 -100q167 -102 258 -283q92 -182 92 -416t-92 -416q-90 -179 -258 -282q-165 -101 -377 -101q-209 0 -377 103zM1169 147l-4 -4q141 92 221 256q80 165 80 369t-80 369
q-80 164 -221 256q-142 92 -321 92q-180 0 -322 -92t-221 -254q-80 -165 -80 -369t80 -369q79 -162 221 -254t324 -92q181 0 323 92zM893 -412h-102v250h102v-250z" />
    <glyph glyph-name="uni1ECD" unicode="&#x1ecd;" horiz-adv-x="1228" 
d="M350 47l-4 -4q-115 69 -180 199q-64 128 -64 297q0 163 66 295q64 128 180 198q119 72 264 72q152 0 265 -70q114 -71 178 -198q65 -130 65 -295q0 -171 -63 -297q-64 -129 -178 -199q-113 -70 -265 -70q-145 0 -264 72zM827 106l-6 -2q93 63 142 172q49 110 49 256
t-49 256q-49 111 -142 173q-91 61 -217 61t-217 -61q-90 -60 -143 -173q-51 -108 -51 -253q0 -148 51 -256q52 -111 145 -173q91 -61 219 -61t219 61zM651 -410h-98v252h98v-252z" />
    <glyph glyph-name="uni1EE4" unicode="&#x1ee4;" horiz-adv-x="1591" 
d="M348 143h4q-143 165 -143 478v4v931h96v-935v-5q0 -272 123 -413q124 -142 373 -142q244 0 368 142q123 141 123 415v936h97v-931q0 -313 -144 -480q-144 -166 -448 -166q-305 0 -449 166zM848 -401h-103v249h103v-249z" />
    <glyph glyph-name="uni1EE5" unicode="&#x1ee5;" horiz-adv-x="1179" 
d="M905 1083l90 -4v-1083h-92v227q-47 -115 -135 -182q-89 -68 -215 -68q-106 0 -197 54q-89 53 -141 151q-51 96 -51 228v4v671h92v-657v-4q0 -119 43 -201q44 -84 117 -127t166 -43q90 0 163 43q73 44 117 129q43 85 43 203v659zM633 -406h-98v252h98v-252z" />
    <glyph glyph-name="Ygrave" unicode="&#x1ef2;" horiz-adv-x="1329" 
d="M1210 1556h113l-610 -864v-692h-97v692l-610 864h111l547 -772zM758 1692h-94l-302 250h132z" />
    <glyph glyph-name="ygrave" unicode="&#x1ef3;" horiz-adv-x="1114" 
d="M567 113h-96l-448 970h96zM485 -401h-96l596 1484h96zM627 1253h-88l-289 303h125z" />
    <glyph glyph-name="uni1EF8" unicode="&#x1ef8;" horiz-adv-x="1329" 
d="M1210 1556h113l-610 -864v-692h-97v692l-610 864h111l547 -772zM348 1741q12 70 64 110q53 41 112 41q40 0 74 -12t78 -33q65 -32 125 -32q94 0 131 79h45q-12 -69 -62 -110q-48 -39 -110 -39q-38 0 -80 10q-30 7 -76 31q-72 35 -123 35q-96 0 -131 -80h-47z" />
    <glyph glyph-name="uni1EF9" unicode="&#x1ef9;" horiz-adv-x="1114" 
d="M567 113h-96l-448 970h96zM485 -401h-96l596 1484h96zM250 1317l2 -2q12 75 61 115t109 40q38 0 72 -12q28 -10 73 -33q65 -32 117 -32q92 0 127 86h43q-12 -77 -61 -117q-48 -39 -107 -39q-36 0 -70 12q-7 2 -79 35q-65 35 -117 35q-47 0 -80 -23q-32 -23 -47 -65h-43z
" />
    <glyph glyph-name="uni2009" unicode="&#x2009;" horiz-adv-x="256" 
 />
    <glyph glyph-name="uni2011" unicode="&#x2011;" horiz-adv-x="864" 
d="M745 535h-626v77h626v-77z" />
    <glyph glyph-name="endash" unicode="&#x2013;" horiz-adv-x="1095" 
d="M977 535h-858v77h858v-77z" />
    <glyph glyph-name="emdash" unicode="&#x2014;" horiz-adv-x="1689" 
d="M1571 535h-1452v77h1452v-77z" />
    <glyph glyph-name="quoteleft" unicode="&#x2018;" horiz-adv-x="430" 
d="M266 1556h76l-123 -258h27v-237h-107v250z" />
    <glyph glyph-name="quoteright" unicode="&#x2019;" horiz-adv-x="432" 
d="M207 1319v237h104v-249l-127 -244h-73l120 256h-24z" />
    <glyph glyph-name="quotesinglbase" unicode="&#x201a;" horiz-adv-x="452" 
d="M174 -2v238h105v-250l-127 -244h-74l121 256h-25z" />
    <glyph glyph-name="quotedblleft" unicode="&#x201c;" horiz-adv-x="724" 
d="M123 1311l127 245h76l-123 -258h26v-237h-106v250zM547 1556h74l-123 -258h26v-237h-106v250z" />
    <glyph glyph-name="quotedblright" unicode="&#x201d;" horiz-adv-x="727" 
d="M518 1319v237h105v-249l-127 -244h-74l121 256h-25zM223 1319v237h105v-249l-127 -244h-74l121 256h-25z" />
    <glyph glyph-name="quotedblbase" unicode="&#x201e;" horiz-adv-x="747" 
d="M469 -2v238h104v-250l-127 -244h-73l121 256h-25zM174 -2v238h105v-250l-127 -244h-74l121 256h-25z" />
    <glyph glyph-name="dagger" unicode="&#x2020;" horiz-adv-x="1218" 
d="M655 1092h437v-78h-437v-1014h-92v1014h-434v78h434v464h92v-464z" />
    <glyph glyph-name="daggerdbl" unicode="&#x2021;" horiz-adv-x="1218" 
d="M1092 1092v-78h-437v-389h437v-76h-437v-549h-92v549h-434v76h434v389h-434v78h434v464h92v-464h437z" />
    <glyph glyph-name="bullet" unicode="&#x2022;" horiz-adv-x="745" 
d="M287 436q-42 25 -62 64q-22 42 -22 86t22 86q20 38 62 63t86 25t86 -25q40 -23 63 -63q25 -42 25 -86t-25 -86q-24 -41 -63 -64q-41 -24 -86 -24t-86 24z" />
    <glyph glyph-name="ellipsis" unicode="&#x2026;" horiz-adv-x="1357" 
d="M279 0h-105v236h105v-236zM731 0h-104v236h104v-236zM1184 0h-105v236h105v-236z" />
    <glyph glyph-name="perthousand" unicode="&#x2030;" horiz-adv-x="2404" 
d="M690 901v-2q-40 -97 -112 -149q-73 -52 -175 -52q-101 0 -174 52q-72 52 -112 149q-39 95 -39 238q0 142 39 237q42 102 112 152q71 51 174 51q104 0 175 -51q72 -51 112 -150q39 -95 39 -237q0 -143 -39 -238zM438 -2l869 1556h94l-869 -1556h-94zM584 858v-2
q63 92 63 277q0 184 -63 276q-66 96 -178 96q-113 0 -179 -96q-63 -92 -63 -276q0 -185 63 -277q64 -94 179 -94q112 0 178 96zM2173 799l-8 -6q72 -51 112 -150q39 -95 39 -237q0 -143 -39 -238q-40 -99 -112 -150q-71 -51 -174 -51q-94 0 -168 53q-71 51 -113 148
q-42 -97 -113 -148t-167 -51q-104 0 -175 51q-72 51 -112 150q-39 95 -39 238q0 142 39 237q42 102 112 152q71 51 175 51q98 0 169 -51q74 -53 115 -148q41 95 115 148t170 53q103 0 174 -51zM1604 125v-2q63 92 63 276q0 185 -63 277q-66 96 -179 96q-112 0 -178 -96
q-63 -92 -63 -277q0 -184 63 -276q64 -94 178 -94q113 0 179 96zM2169 123v-2q63 92 63 276q0 185 -63 277q-66 96 -178 96q-115 0 -176 -94q-62 -95 -62 -279q0 -181 62 -276q61 -94 176 -94q112 0 178 96z" />
    <glyph glyph-name="minute" unicode="&#x2032;" horiz-adv-x="399" 
d="M199 1055h-70l72 501h98z" />
    <glyph glyph-name="second" unicode="&#x2033;" horiz-adv-x="636" 
d="M199 1055h-70l72 501h98zM438 1055h-69l71 501h99z" />
    <glyph glyph-name="guilsinglleft" unicode="&#x2039;" horiz-adv-x="706" 
d="M487 1008h109l-381 -449l381 -471h-109l-381 471z" />
    <glyph glyph-name="guilsinglright" unicode="&#x203a;" horiz-adv-x="706" 
d="M111 1008h108l381 -449l-381 -471h-108l378 471z" />
    <glyph glyph-name="uni2042" unicode="&#x2042;" horiz-adv-x="1763" 
d="M1225 1343l20 -63l-307 -102l201 -273l-56 -39l-200 269l-203 -269l-55 39l202 273l-307 102l21 63l307 -102v315h67v-315zM743 496l21 -64l-307 -102l200 -273l-55 -39l-201 269l-202 -269l-56 39l203 273l-307 102l20 64l308 -103v316h67v-316zM1706 496l20 -64
l-307 -102l201 -273l-55 -39l-201 269l-203 -269l-55 39l203 273l-308 102l21 64l307 -103v316h68v-316z" />
    <glyph glyph-name="fraction" unicode="&#x2044;" horiz-adv-x="294" 
d="M-322 0h-96l1032 1556h97z" />
    <glyph glyph-name="uni2070" unicode="&#x2070;" horiz-adv-x="720" 
d="M201 1044q-67 46 -105 136q-37 87 -37 215t37 215q38 88 105 135q68 47 159 47q92 0 160 -47t105 -135q37 -87 37 -215t-37 -215q-38 -90 -105 -136q-68 -47 -160 -47q-91 0 -159 47zM518 1147q55 85 55 252t-55 252q-56 86 -158 86q-101 0 -157 -86t-56 -252t56 -252
t157 -86q102 0 158 86z" />
    <glyph glyph-name="uni2074" unicode="&#x2074;" horiz-adv-x="681" 
d="M528 1313h119v-66h-119v-237h-82v237h-419v88l325 453h88l-340 -475h346v475h82v-475z" />
    <glyph glyph-name="uni2075" unicode="&#x2075;" horiz-adv-x="692" 
d="M512 1505l-4 -2q59 -35 92 -94t33 -143q0 -83 -37 -144q-37 -60 -100 -94q-62 -33 -148 -33q-71 0 -135 25q-56 22 -100 72q-41 47 -50 110h84q9 -62 66 -104q53 -39 135 -39q60 0 105 26q47 27 71 74q25 48 25 109q0 94 -55 149q-56 56 -146 56q-70 0 -123 -35t-80 -90
l-79 8l40 432h482v-68h-408l-28 -313q26 50 86 92q56 39 141 39q77 0 133 -33z" />
    <glyph glyph-name="uni2076" unicode="&#x2076;" horiz-adv-x="714" 
d="M528 1489l-2 -4q59 -29 95 -90q32 -54 32 -140q0 -76 -37 -137q-36 -59 -102 -94q-62 -33 -147 -33q-142 0 -222 103q-79 101 -79 301q0 136 36 221q38 88 105 135q65 45 158 45q108 0 176 -53q67 -52 94 -141h-84q-20 60 -68 98q-46 37 -118 37q-108 0 -164 -92
t-56 -242q0 -48 2 -62q21 79 89 129t151 50q77 0 141 -31zM469 1081l-2 -2q47 25 72 72q24 47 24 102q0 88 -53 144q-52 55 -148 55q-58 0 -104 -27q-49 -28 -74 -69q-26 -42 -26 -88q0 -52 24 -101t72 -80q46 -30 111 -30q57 0 104 24z" />
    <glyph glyph-name="uni2077" unicode="&#x2077;" horiz-adv-x="546" 
d="M25 1720v68h501v-90l-356 -688h-98l374 710h-421z" />
    <glyph glyph-name="uni2078" unicode="&#x2078;" horiz-adv-x="710" 
d="M543 1395l-4 -6q44 -20 79 -64q33 -42 33 -106q0 -72 -39 -123q-42 -54 -106 -80q-68 -27 -152 -27q-78 0 -151 29q-65 26 -107 80q-39 51 -39 123q0 61 31 106t78 66t92 30q-71 12 -123 58q-51 45 -51 123q0 54 35 98q34 43 96 67q64 25 141 25q78 0 142 -25
q62 -24 96 -67q35 -44 35 -98q0 -79 -51 -121q-52 -43 -123 -58q40 -8 88 -30zM209 1487h-4q48 -39 141 -39t141 39q50 41 50 100q0 36 -23 74q-20 32 -65 51q-46 19 -103 19q-54 0 -100 -19q-44 -18 -64 -51q-22 -36 -22 -74q0 -60 49 -100zM451 1071l-11 -2q50 18 80 59
q31 42 31 93q0 75 -62 116t-151 41q-88 0 -150 -41q-61 -40 -61 -116q0 -51 31 -93q28 -38 80 -57q49 -18 106 -18q58 0 107 18z" />
    <glyph glyph-name="uni2079" unicode="&#x2079;" horiz-adv-x="714" 
d="M567 1698v2q80 -103 80 -301q0 -134 -37 -221q-39 -91 -104 -136t-156 -45q-107 0 -176 54q-67 52 -94 141h84q21 -61 67 -98t119 -37q108 0 164 92q55 91 55 242q0 47 -2 61q-21 -80 -88 -129t-151 -49q-78 0 -142 31q-57 28 -94 90q-33 56 -33 139q0 76 37 137
q35 58 103 94q62 33 147 33q143 0 221 -100zM451 1368q46 27 73 70q27 44 27 88q0 48 -25 100t-69 80q-48 31 -111 31q-56 0 -104 -25q-47 -25 -72 -72q-25 -48 -25 -100q0 -86 54 -143q53 -56 147 -56q58 0 105 27z" />
    <glyph glyph-name="uni207A" unicode="&#x207a;" horiz-adv-x="671" 
d="M369 1415h239v-61h-239v-248h-66v248h-240v61h240v238h66v-238z" />
    <glyph glyph-name="uni207B" unicode="&#x207b;" horiz-adv-x="651" 
d="M569 1354h-489v61h489v-61z" />
    <glyph glyph-name="uni207C" unicode="&#x207c;" horiz-adv-x="667" 
d="M582 1456h-496v62h496v-62zM582 1251h-496v62h496v-62z" />
    <glyph glyph-name="uni207D" unicode="&#x207d;" horiz-adv-x="403" 
d="M258 905q-166 236 -166 494q0 145 45 258q47 117 123 225h84q-78 -111 -123 -223q-45 -113 -45 -260q0 -258 166 -494h-84z" />
    <glyph glyph-name="uni207E" unicode="&#x207e;" horiz-adv-x="403" 
d="M61 905v-4q166 233 166 494q0 144 -45 260q-46 118 -123 227h84q77 -108 123 -225q45 -113 45 -258q0 -258 -166 -494h-84z" />
    <glyph glyph-name="uni2080" unicode="&#x2080;" horiz-adv-x="720" 
d="M201 -199q-67 46 -105 136q-37 87 -37 215t37 215q38 89 105 135q68 47 159 47q92 0 160 -47q68 -46 105 -135q37 -87 37 -215t-37 -215q-38 -90 -105 -136q-68 -47 -160 -47q-91 0 -159 47zM518 -96q55 85 55 252t-55 252q-56 86 -158 86q-101 0 -157 -86t-56 -252
t56 -252t157 -86q102 0 158 86z" />
    <glyph glyph-name="uni2081" unicode="&#x2081;" horiz-adv-x="385" 
d="M201 545l65 2v-778h-82v602h-168v67h82q49 0 72 13t29 47z" />
    <glyph glyph-name="uni2082" unicode="&#x2082;" horiz-adv-x="663" 
d="M145 -166l467 2v-67h-567v90l340 293q63 54 92 96q31 45 31 98q0 40 -21 74t-61 55q-44 23 -96 23q-83 0 -133 -41t-56 -111h-84q3 65 41 115t99 74t137 24q77 0 141 -31q63 -31 92 -79q31 -51 31 -107q0 -70 -37 -125t-110 -119z" />
    <glyph glyph-name="uni2083" unicode="&#x2083;" horiz-adv-x="675" 
d="M555 121l-6 -2q65 -47 65 -135q0 -78 -39 -129q-43 -56 -106 -78q-70 -25 -152 -25q-117 0 -190 55q-74 56 -86 152h84q9 -65 59 -106q48 -39 133 -39q57 0 107 18t80 59q31 42 31 95q0 50 -31 86q-31 35 -82 53q-52 18 -107 18h-41v66h41q53 0 97 18q42 17 67 49
q25 31 25 72q0 39 -23 72q-23 32 -63 49q-44 18 -99 18q-75 0 -120 -36q-48 -39 -54 -99h-84q3 59 37 105q35 48 92 71q61 25 129 25q74 0 138 -25q61 -24 98 -67t37 -101q0 -81 -55 -124q-54 -42 -134 -58q91 -13 152 -57z" />
    <glyph glyph-name="uni2084" unicode="&#x2084;" horiz-adv-x="681" 
d="M528 70h119v-66h-119v-237h-82v237h-419v88l325 453h88l-340 -475h346v475h82v-475z" />
    <glyph glyph-name="uni2085" unicode="&#x2085;" horiz-adv-x="692" 
d="M512 262l-4 -2q59 -35 92 -94t33 -143q0 -83 -37 -144q-37 -60 -100 -94q-62 -33 -148 -33q-71 0 -135 25q-58 23 -100 71q-41 47 -50 111h84q9 -62 66 -104q53 -39 135 -39q60 0 105 26q47 27 71 74q25 48 25 109q0 94 -55 149t-146 55q-71 0 -123 -34q-53 -35 -80 -91
l-79 9l40 432h482v-68h-408l-28 -313q26 50 86 92q56 39 141 39q77 0 133 -33z" />
    <glyph glyph-name="uni2086" unicode="&#x2086;" horiz-adv-x="714" 
d="M528 246l-2 -4q59 -29 95 -90q32 -54 32 -140q0 -76 -37 -137q-36 -59 -102 -94q-62 -33 -147 -33q-142 0 -222 102q-79 101 -79 302q0 136 36 221q38 89 105 135q65 45 158 45q108 0 176 -53q66 -52 94 -142h-84q-21 61 -68 99q-46 37 -118 37q-108 0 -164 -93
q-56 -92 -56 -241q0 -48 2 -62q21 79 89 129q67 49 151 49q79 0 141 -30zM469 -162l-2 -2q47 25 72 72q24 46 24 102q0 88 -53 144q-52 55 -148 55q-58 0 -104 -27q-49 -28 -74 -69q-26 -42 -26 -88q0 -52 24 -101t72 -80q46 -30 111 -30q57 0 104 24z" />
    <glyph glyph-name="uni2087" unicode="&#x2087;" horiz-adv-x="546" 
d="M25 477v68h501v-90l-356 -688h-98l374 710h-421z" />
    <glyph glyph-name="uni2088" unicode="&#x2088;" horiz-adv-x="710" 
d="M543 152l-4 -7q45 -20 79 -63q33 -42 33 -107q0 -71 -39 -122q-42 -54 -106 -80q-68 -27 -152 -27q-78 0 -151 29q-65 26 -107 80q-39 51 -39 122q0 62 31 107t78 66t92 30q-71 12 -123 58q-51 45 -51 122q0 55 35 99q34 43 96 67q64 25 141 25q78 0 142 -25
q62 -24 96 -67q35 -44 35 -99q0 -78 -51 -120q-52 -43 -123 -58q40 -8 88 -30zM209 244h-4q48 -39 141 -39t141 39q50 41 50 100q0 36 -23 74q-20 32 -65 51q-44 18 -103 18q-56 0 -100 -18t-64 -51q-22 -36 -22 -74q0 -60 49 -100zM451 -172l-11 -2q50 18 80 59
q31 42 31 92q0 76 -62 117t-151 41q-88 0 -150 -41q-61 -40 -61 -117q0 -50 31 -92q28 -38 80 -57q50 -18 106 -18q58 0 107 18z" />
    <glyph glyph-name="uni2089" unicode="&#x2089;" horiz-adv-x="714" 
d="M567 455v2q80 -103 80 -301q0 -135 -37 -222q-38 -89 -104 -135q-65 -45 -156 -45q-108 0 -176 53q-66 52 -94 142h84q21 -62 67 -99q45 -36 119 -36q108 0 164 92q55 91 55 241q0 48 -2 62q-21 -80 -88 -129t-151 -49q-80 0 -142 30q-57 28 -94 91q-33 56 -33 139
q0 76 37 137q35 58 103 94q62 33 147 33q143 0 221 -100zM451 125q46 27 73 70t27 88q0 48 -25 100t-69 80q-48 31 -111 31q-56 0 -104 -25q-47 -25 -72 -72q-25 -48 -25 -100q0 -86 54 -143q53 -56 147 -56q58 0 105 27z" />
    <glyph glyph-name="uni208A" unicode="&#x208a;" horiz-adv-x="671" 
d="M369 172h239v-61h-239v-248h-66v248h-240v61h240v238h66v-238z" />
    <glyph glyph-name="uni208B" unicode="&#x208b;" horiz-adv-x="651" 
d="M569 111h-489v61h489v-61z" />
    <glyph glyph-name="uni208C" unicode="&#x208c;" horiz-adv-x="667" 
d="M582 213h-496v61h496v-61zM582 8h-496v62h496v-62z" />
    <glyph glyph-name="uni208D" unicode="&#x208d;" horiz-adv-x="403" 
d="M258 -338q-166 236 -166 494q0 145 45 258q47 117 123 225h84q-78 -111 -123 -223q-45 -113 -45 -260q0 -258 166 -494h-84z" />
    <glyph glyph-name="uni208E" unicode="&#x208e;" horiz-adv-x="403" 
d="M61 -338v-4q166 233 166 494q0 144 -45 260q-46 118 -123 227h84q77 -108 123 -225q45 -113 45 -258q0 -258 -166 -494h-84z" />
    <glyph glyph-name="uni20A9" unicode="&#x20a9;" horiz-adv-x="2027" 
d="M1942 995v-80h-238l-51 -278h243v-80h-258l-100 -557h-92l100 557h-231l104 -557h-90l-104 557h-404l-104 -557h-92l104 557h-231l100 -557h-92l-100 557h-275v80h260l-49 278h-256v80h242l-101 561h92l101 -561h391l107 561h92l-107 -561h240l-107 561h90l107 -561h393
l100 561h93l-101 -561h224zM434 915l49 -278h262l52 278h-363zM889 915l-51 -278h370l-51 278h-268zM1298 637h263l51 278h-365z" />
    <glyph glyph-name="Euro" unicode="&#x20ac;" horiz-adv-x="1640" 
d="M1516 412l-17 8q-42 -128 -121 -230q-74 -96 -188 -153q-110 -55 -248 -55q-154 0 -278 75q-126 77 -209 215q-84 141 -111 320h-252l29 80h213q-4 94 -4 110q0 17 4 111h-213l31 82h192q26 177 111 319q83 138 209 215q125 76 278 76q140 0 250 -55q112 -56 188 -154
q79 -103 121 -229h-98q-55 165 -176 260q-119 94 -283 94q-128 0 -231 -63q-104 -64 -172 -185q-69 -122 -95 -282h715l-28 -82h-697q-4 -94 -4 -111q0 -16 4 -110h619l-27 -80h-582q26 -159 99 -283q70 -119 176 -184q104 -64 233 -64q164 0 285 95q120 94 178 260h99z" />
    <glyph glyph-name="uni20B8" unicode="&#x20b8;" horiz-adv-x="1280" 
d="M78 1475v81h1122v-81h-1122zM592 1178h-514v79h1122v-79h-512v-1178h-96v1178z" />
    <glyph glyph-name="uni20B9" unicode="&#x20b9;" horiz-adv-x="1343" 
d="M1268 1475h-396q86 -55 134 -132q50 -81 59 -180h211v-82h-211q-9 -123 -76 -211q-68 -89 -180 -135q-110 -45 -264 -45h-281l793 -690h-144l-757 659v113h389q186 0 295 80q108 80 123 229h-809v82h809q-15 153 -125 232q-112 80 -297 80h-389v81h1116v-81z" />
    <glyph glyph-name="uni20BA" unicode="&#x20ba;" horiz-adv-x="1277" 
d="M1188 645v2q0 -336 -162 -491q-164 -156 -473 -156h-231v651l-209 -63v82l209 63v228l-209 -64v82l209 63v514h94v-487l477 143v-82l-477 -143v-227l477 143v-82l-477 -143v-596h135q267 0 405 135q140 137 140 428h92z" />
    <glyph glyph-name="uni20BD" unicode="&#x20bd;" horiz-adv-x="1406" 
d="M426 690l-4 -217h436v-82h-436v-391h-94v391h-222v82h222v217h-222v82h222v784h383q285 0 440 -104q158 -106 158 -328q0 -224 -156 -329t-438 -105h-289zM422 1475v-707h291q240 0 368 84q127 83 127 270q0 186 -127 269q-128 84 -368 84h-291z" />
    <glyph glyph-name="uni20BF" unicode="&#x20bf;" horiz-adv-x="1374" 
d="M1143 150h-2q-103 -103 -299 -138v-282h-86v272q-78 -4 -92 -4h-84v-268h-86v268h-263v1556h263v258h86v-258h86q14 0 92 -4v262h86v-274q169 -34 260 -133q92 -100 92 -240q0 -110 -51 -184q-54 -78 -141 -121t-203 -55q132 -6 233 -55q102 -49 158 -136q55 -85 55 -198
q0 -162 -104 -266zM1040 1327l-2 4q-54 72 -147 109t-227 37h-340v-631h340q134 0 227 37q95 37 147 108q54 73 54 170q0 96 -52 166zM659 84l-6 -2q157 0 269 41q109 40 165 117t56 184t-56 184t-163 117q-109 41 -265 41h-337v-682h337z" />
    <glyph glyph-name="uni2113" unicode="&#x2113;" horiz-adv-x="882" 
d="M399 90l-4 2q39 -39 117 -39q119 0 227 105v-80q-55 -52 -112 -74q-61 -24 -125 -24q-236 0 -236 245v4v217l-139 -106l-47 66l186 145v584q0 130 35 233q36 105 100 158q67 55 162 55q254 0 254 -338q0 -194 -106 -360q-109 -171 -332 -351l-19 -14v-295v-4
q0 -90 39 -129zM453 1462h-7q-47 -47 -71 -129q-25 -86 -25 -196v-512q188 160 277 307q88 146 88 313q0 142 -39 201q-40 61 -119 61q-59 0 -104 -45z" />
    <glyph glyph-name="uni2116" unicode="&#x2116;" horiz-adv-x="2457" 
d="M1847 856h-4q-81 50 -127 135q-45 83 -45 201q0 115 47 201q46 85 127 135q79 49 183 49q103 0 182 -49q81 -50 127 -135q45 -83 45 -201t-45 -201q-47 -86 -125 -135q-79 -49 -182 -49q-104 0 -183 49zM319 -2h-98v1556h98v-1556zM1354 -2h-107l-903 1556h109zM1477 -2
h-97v1556h97v-1556zM2165 913l-2 -4q59 39 94 111q33 67 33 166t-33 166q-35 71 -94 110q-62 41 -142 41q-82 0 -141 -39t-94 -110q-33 -67 -33 -166t33 -166q35 -72 94 -111t143 -39q80 0 142 41z" />
    <glyph glyph-name="uni2117" unicode="&#x2117;" horiz-adv-x="1943" 
d="M1395 1505l-4 -4q193 -114 307 -307t114 -424q0 -234 -112 -424q-114 -193 -307 -307q-192 -113 -424 -113q-229 0 -424 115q-193 114 -307 307q-113 192 -113 424q0 229 115 424q114 193 307 307q195 115 424 115q232 0 424 -113zM1350 111l-2 -5q174 101 276 277
q102 175 102 385t-102 385q-102 176 -276 277q-176 102 -381 102q-207 0 -383 -102q-175 -102 -277 -277t-102 -383t102 -383q101 -174 277 -276q177 -103 385 -103q204 0 381 103zM997 1270q118 0 205 -37t137 -105t50 -163q0 -96 -50 -164t-137 -105t-205 -37h-243v-395
h-82v1006h325zM995 729v-4q149 0 228 61q80 62 80 177q0 114 -80 176q-79 61 -228 61h-241v-471h241z" />
    <glyph glyph-name="uni2120" unicode="&#x2120;" horiz-adv-x="1687" 
d="M477 1241l-18 -10q105 -20 157 -66q50 -44 50 -118q0 -68 -33 -115q-34 -49 -96 -76q-61 -27 -144 -27q-70 0 -133 29q-57 26 -96 78q-35 47 -45 115h71q9 -76 68 -123q57 -45 141 -45q93 0 148 43t55 114q0 41 -22 66q-23 26 -60 41q-45 18 -98 31l-84 18
q-89 21 -141 61t-52 117q0 49 31 94q30 43 90 68q61 25 129 25q113 0 183 -52q71 -53 86 -141h-74q-15 64 -68 102q-52 37 -127 37q-49 0 -92 -16q-40 -15 -61 -45q-23 -33 -23 -64q0 -53 41 -77q40 -24 133 -45zM1491 1546v-712h-70v694l-229 -694h-129l-229 700v-700h-68
v712h129l231 -702l232 702h133z" />
    <glyph glyph-name="trademark" unicode="&#x2122;" horiz-adv-x="1593" 
d="M313 1497h-243v59h557v-59h-246v-653h-68v653zM1407 1556v-712h-68v694l-229 -694h-129l-229 694v-694h-70v712h131l231 -702l232 702h131z" />
    <glyph glyph-name="uni2150" unicode="&#x2150;" horiz-adv-x="1423" 
d="M844 711v67h502v-90l-357 -688h-98l375 711h-422zM303 1556l66 3v-779h-82v602h-168v68h82q50 0 71 12q23 13 29 47zM168 2h-96l1032 1557h96z" />
    <glyph glyph-name="uni2151" unicode="&#x2151;" horiz-adv-x="1466" 
d="M1294 688v2q80 -103 80 -301q0 -134 -37 -221q-38 -89 -104 -135q-65 -45 -156 -45q-108 0 -176 53q-67 52 -94 141h84q21 -61 67 -98t119 -37q108 0 164 92q55 91 55 242q0 47 -2 61q-21 -80 -88 -129t-151 -49q-78 0 -142 31q-57 28 -94 90q-33 56 -33 139q0 77 37 138
q35 58 103 94q60 32 147 32q143 0 221 -100zM1178 358q46 27 73 70q27 44 27 88q0 48 -25 100t-69 80q-48 31 -111 31q-56 0 -104 -25t-72 -71q-25 -48 -25 -101q0 -86 54 -143q52 -55 147 -55q60 0 105 26zM301 1556l66 3v-779h-82v602h-168v68h82q50 0 71 12q23 13 29 47z
M166 2h-96l1032 1557h96z" />
    <glyph glyph-name="uni2152" unicode="&#x2152;" horiz-adv-x="1867" 
d="M985 778l66 2v-778h-82v602h-168v68h82q50 0 71 12q23 13 29 47zM1323 37q-66 46 -104 135q-37 87 -37 215t37 215q38 89 104 135q68 47 160 47q91 0 159 -47t105 -135q37 -87 37 -215t-37 -215q-37 -88 -105 -135t-159 -47q-92 0 -160 47zM1640 139q56 86 56 252
t-56 252t-157 86q-102 0 -158 -86q-55 -85 -55 -252t55 -252q56 -86 158 -86q101 0 157 86zM301 1559l66 2v-779h-82v602h-168v68h82q50 0 71 12q23 13 29 47zM166 4h-96l1032 1557h96z" />
    <glyph glyph-name="uni2153" unicode="&#x2153;" horiz-adv-x="1443" 
d="M303 1556l66 3v-779h-82v602h-168v68h82q50 0 71 12q23 13 29 47zM168 2h-96l1032 1557h96zM1278 356l-6 -2q65 -47 65 -135q0 -78 -39 -129q-43 -56 -106 -78q-68 -24 -152 -24q-117 0 -190 55q-74 56 -86 152h84q9 -66 59 -107q48 -39 133 -39q55 0 107 19q50 18 80 59
t30 94q0 51 -30 86q-31 35 -82 53q-55 19 -107 19h-41v65h41q51 0 97 19q42 17 67 49q25 31 25 72q0 38 -23 71q-24 34 -63 50q-43 18 -99 18q-74 0 -120 -37q-48 -39 -54 -98h-84q3 58 37 104q37 49 92 72q59 24 129 24q76 0 138 -24q59 -23 98 -68q37 -43 37 -100
q0 -82 -55 -125q-52 -41 -134 -57q89 -12 152 -58z" />
    <glyph glyph-name="uni2154" unicode="&#x2154;" horiz-adv-x="1665" 
d="M195 846l467 2v-68h-568v90l340 293q61 52 92 97t31 98q0 41 -20 74t-62 55t-96 22q-83 0 -133 -41t-56 -110h-84q3 65 41 115q37 49 99 73q64 25 137 25q77 0 141 -31q62 -30 92 -80q31 -51 31 -106q0 -70 -37 -125t-110 -119zM393 2h-96l1032 1557h96zM1503 356l-6 -2
q66 -48 66 -135q0 -78 -39 -129q-42 -55 -107 -78q-67 -24 -151 -24q-118 0 -191 55q-74 56 -86 152h84q9 -65 60 -107q48 -39 133 -39q54 0 106 19q50 18 80 59q31 42 31 94q0 50 -31 86q-31 35 -82 53q-55 19 -106 19h-41v65h41q50 0 96 19q42 17 67 49q25 31 25 72
q0 40 -22 71q-23 33 -64 50q-44 18 -98 18q-75 0 -121 -37q-47 -38 -53 -98h-84q3 58 37 104q37 49 92 72q59 24 129 24q76 0 137 -24q59 -23 98 -68q37 -43 37 -100q0 -82 -55 -125q-53 -41 -133 -57q88 -12 151 -58z" />
    <glyph glyph-name="uni2155" unicode="&#x2155;" horiz-adv-x="1480" 
d="M1255 496l-4 -2q58 -34 92 -95q33 -59 33 -143q0 -82 -37 -143q-38 -62 -100 -95q-60 -32 -147 -32q-75 0 -136 24q-56 22 -100 72q-40 46 -49 111h84q9 -64 65 -105q53 -39 136 -39q58 0 104 27q48 28 72 74t24 108q0 95 -55 150t-145 55q-70 0 -123 -35t-80 -90l-80 8
l41 432h481v-67h-407l-29 -314q26 50 86 92q56 39 141 39q79 0 133 -32zM297 1554l65 2v-778h-81v602h-168v68h82q50 0 71 12q23 13 29 47zM162 0h-96l1032 1556h96z" />
    <glyph glyph-name="uni2156" unicode="&#x2156;" horiz-adv-x="1701" 
d="M195 846l467 2v-68h-568v90l340 293q61 52 92 97t31 98q0 41 -20 74t-62 55t-96 22q-83 0 -133 -41t-56 -110h-84q3 65 41 115q37 49 99 73q64 25 137 25q77 0 141 -31q62 -30 92 -80q31 -51 31 -106q0 -70 -37 -125t-110 -119zM393 2h-96l1032 1557h96zM1479 498l-4 -2
q58 -34 92 -95q32 -57 32 -143q0 -84 -36 -143q-37 -61 -101 -95q-60 -32 -147 -32q-73 0 -135 24q-58 23 -101 72q-40 46 -49 111h84q9 -63 66 -105q53 -39 135 -39q57 0 104 27q48 28 72 74q25 48 25 108q0 94 -56 150q-55 55 -145 55q-70 0 -123 -35t-80 -90l-80 8
l41 432h481v-67h-407l-29 -314q27 52 86 93q55 38 142 38q79 0 133 -32z" />
    <glyph glyph-name="uni2157" unicode="&#x2157;" horiz-adv-x="1667" 
d="M594 1133l-6 -3q65 -47 65 -135q0 -78 -39 -129q-43 -56 -106 -78q-67 -24 -152 -24q-117 0 -190 55q-74 56 -86 152h84q9 -66 59 -107q48 -39 133 -39q55 0 107 19q50 18 80 59q30 40 30 94q0 51 -30 86q-32 37 -82 54q-52 18 -107 18h-41v66h41q54 0 97 18q42 17 67 49
q25 31 25 72q0 39 -23 72q-23 32 -63 49q-43 18 -99 18q-74 0 -120 -37q-48 -39 -54 -98h-84q3 58 37 104q37 49 92 72q61 25 129 25q74 0 138 -25q61 -24 98 -67t37 -101q0 -81 -56 -125q-53 -41 -133 -57q91 -13 152 -57zM356 -4h-96l1032 1556h97zM1442 492l-4 -3
q59 -35 92 -94t33 -143q0 -82 -37 -143t-101 -95q-60 -32 -147 -32q-74 0 -135 24q-58 23 -101 72q-40 46 -49 110h84q9 -62 66 -104q53 -39 135 -39q58 0 104 27q49 28 72 73q25 48 25 109q0 93 -56 149t-145 56q-70 0 -123 -35t-80 -90l-80 8l41 432h482v-67h-408
l-29 -314q26 50 86 92q56 39 142 39q79 0 133 -32z" />
    <glyph glyph-name="uni2158" unicode="&#x2158;" horiz-adv-x="1714" 
d="M569 1081h119v-65h-119v-238h-82v238h-419v88l325 452h88l-340 -475h346v475h82v-475zM401 0h-96l1032 1556h97zM1487 496l-4 -2q58 -34 92 -95q33 -59 33 -143q0 -82 -37 -143t-101 -95q-60 -32 -147 -32q-73 0 -135 24q-58 23 -101 72q-40 46 -49 111h84q9 -63 66 -105
q53 -39 135 -39q57 0 104 27q48 28 72 74q25 48 25 108q0 94 -56 150q-55 55 -145 55q-70 0 -123 -35t-80 -90l-80 8l41 432h482v-67h-408l-29 -314q26 50 86 92q56 39 142 39q79 0 133 -32z" />
    <glyph glyph-name="uni2159" unicode="&#x2159;" horiz-adv-x="1464" 
d="M1239 479l-2 -4q57 -28 94 -90q33 -56 33 -139q0 -76 -37 -137q-37 -60 -102 -95q-60 -32 -148 -32q-142 0 -221 102q-80 103 -80 301q0 134 37 221q37 88 105 135q65 45 157 45q108 0 176 -53t95 -141h-84q-20 60 -68 98q-46 37 -119 37q-108 0 -164 -92
q-55 -91 -55 -242q0 -47 2 -61q21 80 88 129t152 49q77 0 141 -31zM1180 72l-2 -2q47 24 71 71q25 48 25 103q0 87 -53 143q-52 55 -148 55q-59 0 -104 -26q-48 -28 -74 -70q-27 -44 -27 -88q0 -48 25 -100q24 -49 72 -80t110 -31q57 0 105 25zM297 1548l65 2v-778h-81v602
h-168v68h82q50 0 71 12q23 13 29 47zM162 -6h-96l1032 1556h96z" />
    <glyph glyph-name="uni215A" unicode="&#x215a;" horiz-adv-x="1638" 
d="M541 1274l-4 -2q59 -35 92 -94t33 -144q0 -82 -37 -143q-36 -59 -101 -94q-62 -33 -147 -33q-73 0 -135 24q-58 23 -101 72q-40 46 -49 111h84q9 -63 66 -105q53 -39 135 -39q57 0 104 27q48 28 72 74q25 48 25 108q0 94 -56 150q-55 55 -145 55q-70 0 -123 -35t-80 -90
l-80 8l41 432h481v-67h-407l-29 -313q26 50 86 92q56 39 142 39q77 0 133 -33zM346 -2h-96l1032 1556h96zM1415 477l-2 -4q57 -28 94 -90q33 -56 33 -139q0 -77 -37 -138q-36 -59 -102 -94q-60 -32 -148 -32q-141 0 -221 102q-80 103 -80 301q0 134 37 221q37 88 105 135
q65 45 157 45q108 0 176 -53t95 -141h-84q-20 60 -68 98q-46 37 -119 37q-108 0 -164 -92q-55 -91 -55 -242q0 -47 2 -61q21 80 88 129t152 49q77 0 141 -31zM1356 70l-2 -2q47 24 71 71q25 48 25 103q0 87 -53 143q-52 55 -148 55q-59 0 -104 -26q-48 -28 -74 -70
q-27 -44 -27 -88q0 -48 25 -100q24 -49 72 -80t110 -31q57 0 105 25z" />
    <glyph glyph-name="oneeighth" unicode="&#x215b;" horiz-adv-x="1476" 
d="M1272 385l-4 -6q46 -21 80 -64q32 -40 32 -106q0 -72 -39 -123q-42 -54 -106 -80q-65 -26 -152 -26q-81 0 -151 28q-65 26 -107 80q-39 51 -39 123q0 61 31 106t78 66q51 23 92 31q-73 12 -123 57q-51 45 -51 123q0 54 35 98t96 68q62 24 141 24q81 0 142 -24t96 -68
t35 -98q0 -79 -51 -121q-50 -41 -123 -57q36 -7 88 -31zM938 477h-4q48 -39 141 -39q94 0 142 39q49 40 49 101q0 35 -23 73q-20 32 -65 51q-46 19 -103 19q-54 0 -100 -19q-44 -18 -64 -51q-22 -36 -22 -73q0 -61 49 -101zM1180 61l-11 -2q49 18 80 60t31 92q0 77 -61 117
q-62 41 -152 41q-87 0 -149 -41t-62 -117q0 -50 31 -92q29 -40 80 -58q49 -18 106 -18t107 18zM283 1544l65 2v-778h-82v602h-168v68h82q51 0 72 12q23 13 29 47zM147 -10h-96l1032 1556h97z" />
    <glyph glyph-name="threeeighths" unicode="&#x215c;" horiz-adv-x="1665" 
d="M594 1133l-6 -3q65 -47 65 -135q0 -78 -39 -129q-43 -56 -106 -78q-67 -24 -152 -24q-117 0 -190 55q-74 56 -86 152h84q9 -66 59 -107q48 -39 133 -39q55 0 107 19q50 18 80 59q30 40 30 94q0 51 -30 86q-32 37 -82 54q-52 18 -107 18h-41v66h41q54 0 97 18q42 17 67 49
q25 31 25 72q0 39 -23 72q-23 32 -63 49q-43 18 -99 18q-74 0 -120 -37q-48 -39 -54 -98h-84q3 58 37 104q37 49 92 72q61 25 129 25q74 0 138 -25q61 -24 98 -67t37 -101q0 -81 -56 -125q-53 -41 -133 -57q91 -13 152 -57zM356 -4h-96l1032 1556h97zM1458 381l-4 -6
q46 -21 80 -64q33 -42 33 -106q0 -72 -39 -123q-42 -54 -107 -80q-68 -27 -151 -27q-80 0 -152 29q-64 26 -106 80q-39 51 -39 123q0 61 31 106t77 66q50 23 93 31q-73 12 -123 57q-52 46 -52 123q0 54 35 98t96 68q62 24 142 24t141 -24t96 -68t35 -98q0 -79 -51 -121
q-50 -41 -123 -57q36 -7 88 -31zM1124 473h-4q48 -39 142 -39q93 0 141 39q49 40 49 100q0 38 -22 74q-19 32 -66 51q-46 19 -102 19q-55 0 -101 -19q-43 -18 -63 -51q-23 -38 -23 -74q0 -60 49 -100zM1366 57l-10 -2q49 18 80 60q30 41 30 92q0 77 -61 117q-62 41 -152 41
q-87 0 -149 -41t-62 -117q0 -50 31 -92q29 -40 80 -58q49 -18 107 -18q56 0 106 18z" />
    <glyph glyph-name="fiveeighths" unicode="&#x215d;" horiz-adv-x="1652" 
d="M541 1274l-4 -2q59 -35 92 -94t33 -144q0 -82 -37 -143q-36 -59 -101 -94q-62 -33 -147 -33q-73 0 -135 24q-58 23 -101 72q-40 46 -49 111h84q9 -63 66 -105q53 -39 135 -39q57 0 104 27q48 28 72 74q25 48 25 108q0 94 -56 150q-55 55 -145 55q-70 0 -123 -35t-80 -90
l-80 8l41 432h481v-67h-407l-29 -313q26 50 86 92q56 39 142 39q77 0 133 -33zM346 -2h-96l1032 1556h96zM1448 383l-4 -6q46 -21 80 -64q32 -40 32 -106q0 -74 -38 -123q-42 -54 -107 -80q-68 -27 -151 -27q-80 0 -152 29q-65 26 -107 80q-38 49 -38 123q0 63 30 106
q31 45 78 66q51 23 92 31q-73 12 -123 57q-51 45 -51 123q0 54 35 98t96 68q62 24 142 24t141 -24t96 -68t35 -98q0 -79 -51 -121q-50 -41 -123 -57q36 -7 88 -31zM1114 475h-4q48 -39 141 -39q94 0 142 39q49 40 49 100q0 36 -23 74q-20 32 -65 51q-46 19 -103 19
q-54 0 -100 -19q-44 -18 -64 -51q-22 -36 -22 -74q0 -60 49 -100zM1356 59l-10 -2q47 17 79 60q31 42 31 92q0 77 -61 117q-62 41 -152 41q-87 0 -149 -41t-62 -117q0 -50 31 -92q29 -40 80 -58q49 -18 106 -18t107 18z" />
    <glyph glyph-name="seveneighths" unicode="&#x215e;" horiz-adv-x="1486" 
d="M109 1489v67h501v-90l-356 -688h-98l374 711h-421zM186 0h-96l1032 1556h97zM1288 385l-4 -6q46 -21 80 -64q33 -42 33 -106q0 -72 -39 -123q-42 -54 -107 -80t-151 -26q-82 0 -152 28q-64 26 -106 80q-39 51 -39 123q0 61 31 106t77 66q50 23 93 31q-73 12 -123 57
q-52 46 -52 123q0 54 35 98t97 68q61 24 141 24t141 -24t96 -68t35 -98q0 -79 -51 -121q-50 -41 -123 -57q36 -7 88 -31zM954 477h-4q48 -39 142 -39q93 0 141 39q49 40 49 101q0 37 -22 73q-19 32 -66 51q-46 19 -102 19q-55 0 -101 -19q-43 -18 -63 -51q-23 -38 -23 -73
q0 -61 49 -101zM1196 61l-10 -2q49 18 80 60q30 40 30 92q0 77 -61 117q-62 41 -152 41q-87 0 -149 -41t-62 -117q0 -50 31 -92q29 -40 80 -58q49 -18 107 -18q56 0 106 18z" />
    <glyph glyph-name="uni215F" unicode="&#x215f;" horiz-adv-x="1280" 
d="M332 1556l65 3v-779h-82v602h-168v68h82q51 0 72 12q23 13 29 47zM197 2h-97l1033 1557h96z" />
    <glyph glyph-name="uni2189" unicode="&#x2189;" horiz-adv-x="1622" 
d="M227 813q-66 46 -104 135q-37 87 -37 215t37 215q38 89 104 135q70 48 160 48t160 -48q66 -46 104 -135q37 -87 37 -215t-37 -215q-38 -89 -104 -135q-68 -47 -160 -47t-160 47zM545 915q55 85 55 252t-55 252q-56 86 -158 86t-158 -86q-55 -85 -55 -252t55 -252
q56 -86 158 -86t158 86zM352 0h-96l1032 1556h96zM1462 354l-6 -2q66 -48 66 -135q0 -78 -39 -129q-42 -55 -107 -78q-68 -24 -151 -24q-118 0 -191 55q-74 56 -86 152h84q9 -65 60 -107q48 -39 133 -39q54 0 106 19q50 18 80 59q31 42 31 94q0 50 -31 86q-31 35 -82 53
q-55 19 -106 19h-41v65h41q50 0 96 19q42 17 67 49q25 31 25 72q0 40 -22 71q-22 32 -64 49q-46 19 -98 19q-75 0 -121 -37q-47 -38 -53 -98h-84q3 58 37 104q37 49 92 72q58 24 129 24q76 0 137 -24q59 -23 98 -68q37 -43 37 -100q0 -82 -55 -125q-53 -41 -133 -57
q88 -12 151 -58z" />
    <glyph glyph-name="arrowleft" unicode="&#x2190;" horiz-adv-x="1576" 
d="M301 821h1182v-88h-1180l528 -518h-122l-559 563l559 563h122z" />
    <glyph glyph-name="arrowup" unicode="&#x2191;" horiz-adv-x="1576" 
d="M788 1442l564 -559v-123l-518 528v-1182h-89v1184l-520 -530v123z" />
    <glyph glyph-name="arrowright" unicode="&#x2192;" horiz-adv-x="1576" 
d="M745 1341h123l559 -563l-559 -563h-123l529 518h-1180v88h1182z" />
    <glyph glyph-name="arrowdown" unicode="&#x2193;" horiz-adv-x="1576" 
d="M834 1450v-1182l518 529v-123l-564 -559l-563 559v123l520 -531v1184h89z" />
    <glyph glyph-name="uni2196" unicode="&#x2196;" horiz-adv-x="1576" 
d="M451 1198l917 -919l-61 -60l-920 920v-740l-82 86v795h795l86 -82h-735z" />
    <glyph glyph-name="uni2197" unicode="&#x2197;" horiz-adv-x="1576" 
d="M391 1198l86 82h795v-795l-82 -86v740l-920 -920l-61 60l917 919h-735z" />
    <glyph glyph-name="uni2198" unicode="&#x2198;" horiz-adv-x="1576" 
d="M1190 418v739l82 -86v-795h-795l-86 82h735l-917 920l61 59z" />
    <glyph glyph-name="uni2199" unicode="&#x2199;" horiz-adv-x="1576" 
d="M1307 1337l61 -59l-917 -920h735l-86 -82h-795v795l82 86v-739z" />
    <glyph glyph-name="uni21A4" unicode="&#x21a4;" horiz-adv-x="1576" 
d="M1292 821v520h84v-1126h-84v518h-1087l528 -518h-121l-561 563l561 563h121l-530 -520h1089z" />
    <glyph glyph-name="uni21A5" unicode="&#x21a5;" horiz-adv-x="1576" 
d="M1352 936v-123l-518 528v-1093h518v-84h-1127v84h520v1095l-520 -530v123l563 559z" />
    <glyph glyph-name="uni21A6" unicode="&#x21a6;" horiz-adv-x="1576" 
d="M844 1341h121l561 -563l-561 -563h-121l528 518h-1087v-518h-84v1126h84v-520h1089z" />
    <glyph glyph-name="uni21A7" unicode="&#x21a7;" horiz-adv-x="1576" 
d="M1352 1393v-84h-518v-1094l518 528v-122l-564 -560l-563 560v122l520 -530v1096h-520v84h1127z" />
    <glyph glyph-name="uni21B0" unicode="&#x21b0;" horiz-adv-x="1576" 
d="M217 821h1180v-821h-86v733h-1092l529 -518h-123l-559 563l559 563h123z" />
    <glyph glyph-name="uni21B1" unicode="&#x21b1;" horiz-adv-x="1576" 
d="M829 1341h123l559 -563l-559 -563h-123l529 518h-1092v-733h-86v821h1180z" />
    <glyph glyph-name="uni21B2" unicode="&#x21b2;" horiz-adv-x="1576" 
d="M1311 823v733h86v-821h-1180l531 -520h-123l-559 563l559 563h123l-529 -518h1092z" />
    <glyph glyph-name="uni21B3" unicode="&#x21b3;" horiz-adv-x="1576" 
d="M829 1341h123l559 -563l-559 -563h-123l531 520h-1180v821h86v-733h1092z" />
    <glyph glyph-name="partialdiff" unicode="&#x2202;" horiz-adv-x="1273" 
d="M283 1569v-4q463 -49 663 -293q201 -245 201 -608q0 -358 -148 -523q-147 -164 -397 -164q-143 0 -264 62t-191 178q-69 115 -69 272q0 158 67 271q68 114 185 176q116 61 262 61q132 0 233 -49t160 -129q59 -81 80 -162q6 383 -193 588q-200 206 -589 246v78zM834 104h4
q95 59 147 160q53 103 53 234q0 133 -55 227q-57 96 -154 145q-100 50 -223 50t-221 -52q-100 -53 -154 -149q-55 -98 -55 -232q0 -135 57 -231q58 -98 158 -154q98 -55 221 -55q130 0 222 57z" />
    <glyph glyph-name="product" unicode="&#x220f;" horiz-adv-x="1865" 
d="M1808 1556v-88h-315v-1744h-96v1744h-928v-1744h-96v1744h-316v88h1751z" />
    <glyph glyph-name="summation" unicode="&#x2211;" horiz-adv-x="1415" 
d="M948 664l-749 -852h1132v-88h-1237v122l715 818l-715 770v122h1206v-88h-1099z" />
    <glyph glyph-name="minus" unicode="&#x2212;" horiz-adv-x="1239" 
d="M1104 514h-969v76h969v-76z" />
    <glyph glyph-name="radical" unicode="&#x221a;" horiz-adv-x="1312" 
d="M653 -217l555 1773h99l-574 -1832h-155l-289 737h-271v88h338z" />
    <glyph glyph-name="infinity" unicode="&#x221e;" horiz-adv-x="2250" 
d="M1903 967l-2 -6q100 -62 161 -177q58 -110 58 -245q0 -136 -58 -246q-59 -111 -161 -174q-104 -64 -234 -64q-150 0 -270 99q-124 102 -228 247l-49 70l-49 -70q-70 -99 -137 -168q-66 -69 -162 -124q-91 -52 -199 -52q-130 0 -231 64q-102 65 -160 174q-57 108 -57 246
q0 139 57 247q60 114 160 177q103 65 231 65q156 0 277 -100q122 -101 227 -248l45 -64l45 64q101 142 226 246q123 102 276 102q131 0 234 -63zM1071 539l-63 75q-68 93 -127 158q-60 66 -142 117q-79 49 -168 49q-106 0 -186 -51q-81 -52 -129 -146q-45 -89 -45 -209
q0 -116 47 -208q46 -92 129 -144q80 -51 188 -51q89 0 168 49q82 51 142 117q49 54 125 158zM1845 176h-4q81 52 129 146q47 92 47 208q0 120 -45 209q-48 94 -129 146q-83 53 -186 53q-123 0 -230 -90q-96 -81 -202 -232l-60 -84l62 -86q72 -99 125 -157q60 -66 139 -117
q76 -49 166 -49q105 0 188 53z" />
    <glyph glyph-name="integral" unicode="&#x222b;" horiz-adv-x="735" 
d="M-12 -401l2 73h123q100 0 153 62t53 174v1352q0 140 78 221q77 80 215 80h131v-74h-125q-100 0 -153 -62t-53 -174v-1351q0 -141 -78 -222q-76 -79 -215 -79h-131z" />
    <glyph glyph-name="approxequal" unicode="&#x2248;" horiz-adv-x="1423" 
d="M160 694l-2 -2q151 160 299 160q57 0 110 -12q57 -13 142 -49q84 -35 139 -50q52 -14 110 -14q70 0 127 31q52 28 125 98l54 -51q-151 -160 -301 -160q-55 0 -107 12q-47 11 -143 50q-77 33 -138 49q-62 16 -112 16q-68 0 -125 -31q-52 -28 -125 -98zM158 301l-2 -2
q151 160 299 160q53 0 110 -13t142 -49q77 -32 139 -49q52 -14 110 -14q70 0 127 31q52 28 125 98l54 -51q-151 -160 -301 -160q-55 0 -107 12q-53 12 -143 49q-77 33 -138 49q-66 17 -112 17q-68 0 -125 -31q-52 -28 -125 -98z" />
    <glyph glyph-name="notequal" unicode="&#x2260;" horiz-adv-x="1304" 
d="M1143 793v-76h-342l-191 -326h533v-78h-578l-182 -313h-94l182 313h-307v78h352l191 326h-543v76h586l170 290h94l-170 -290h299z" />
    <glyph glyph-name="lessequal" unicode="&#x2264;" horiz-adv-x="1214" 
d="M135 702l932 361v-80l-872 -338l872 -338v-80l-932 361v114zM1067 0h-932v78h932v-78z" />
    <glyph glyph-name="greaterequal" unicode="&#x2265;" horiz-adv-x="1214" 
d="M147 983v80l932 -361v-114l-932 -361v80l875 338zM1079 0h-932v78h932v-78z" />
    <glyph glyph-name="uni2300" unicode="&#x2300;" horiz-adv-x="1368" 
d="M1106 915h-8q65 -74 104 -172q37 -93 37 -200q0 -155 -76 -283q-76 -129 -205 -205q-126 -75 -280 -75q-103 0 -193 34q-91 34 -168 99l-127 -129l-59 59l127 129q-65 74 -104 172q-37 93 -37 201q0 152 76 280q78 131 206 207t281 76q104 0 197 -37q101 -40 172 -100
l127 131l57 -58zM225 373l-4 -4q30 -78 86 -144l670 682q-68 55 -141 84q-79 31 -164 31q-126 0 -240 -66q-108 -63 -174 -176q-63 -108 -63 -239q0 -89 30 -168zM909 121l-4 -2q111 65 176 176q66 114 66 240q0 85 -31 167q-30 78 -86 144l-665 -682q62 -53 141 -80
q85 -29 164 -29q125 0 239 66z" />
    <glyph glyph-name="uni2460" unicode="&#x2460;" horiz-adv-x="1912" 
d="M1386 1522q197 -115 312 -312q114 -197 114 -430q0 -234 -114 -430t-312 -311t-430 -115t-430 115q-197 114 -311 311q-115 198 -115 430t115 430t311 312q197 114 430 114q234 0 430 -114zM1348 102q177 104 282 283t105 391t-105 391t-282 283t-392 104
q-214 0 -391 -104t-282 -283t-105 -391t105 -391t282 -283t391 -104q215 0 392 104zM932 1245l78 2v-934h-90v725h-201v76h104q52 0 78 16t29 56z" />
    <glyph glyph-name="uni2461" unicode="&#x2461;" horiz-adv-x="1912" 
d="M1386 1522q197 -115 312 -312q114 -197 114 -430q0 -234 -114 -430t-312 -311t-430 -115t-430 115q-197 114 -311 311q-115 198 -115 430t115 430t311 312q197 114 430 114q234 0 430 -114zM1348 102q177 104 282 283t105 391t-105 391t-282 283t-392 104
q-214 0 -391 -104t-282 -283t-105 -391t105 -391t282 -283t391 -104q215 0 392 104zM717 387l571 -2v-76h-676v101l412 356q73 67 109 117t36 116q0 51 -24 95q-23 42 -74 67q-52 25 -119 25q-100 0 -161 -49t-70 -136h-92q6 78 49 136q45 60 115 90q71 30 159 30
q97 0 166 -34q70 -35 111 -93q39 -56 39 -129q0 -85 -45 -147q-48 -67 -131 -141z" />
    <glyph glyph-name="uni2462" unicode="&#x2462;" horiz-adv-x="1912" 
d="M1386 1522q197 -115 312 -312q114 -197 114 -430q0 -234 -114 -430t-312 -311t-430 -115t-430 115q-197 114 -311 311q-115 198 -115 430t115 430t311 312q197 114 430 114q234 0 430 -114zM1348 102q177 104 282 283t105 391t-105 391t-282 283t-392 104
q-214 0 -391 -104t-282 -283t-105 -391t105 -391t282 -283t391 -104q215 0 392 104zM1149 774l-10 -16q56 -23 98 -74q41 -50 41 -125q0 -89 -47 -151q-48 -64 -125 -93q-80 -30 -178 -30q-137 0 -223 65t-101 185h92q9 -81 72 -129q61 -46 162 -46q65 0 129 23q55 20 94 68
q37 46 37 116q0 64 -37 107q-36 42 -98 63t-131 21h-47v76h47q65 0 120 22q54 22 84 62q31 42 31 88q0 47 -26 86q-26 40 -80 61q-57 23 -119 23q-95 0 -150 -46q-54 -45 -63 -116h-92q6 69 47 125t108 86q68 30 150 30q86 0 162 -28q71 -26 116 -80q43 -52 43 -123
q0 -98 -67 -150t-156 -67q58 -9 117 -33z" />
    <glyph glyph-name="uni2463" unicode="&#x2463;" horiz-adv-x="1912" 
d="M1386 1522q197 -115 312 -312q114 -197 114 -430q0 -234 -114 -430t-312 -311t-430 -115t-430 115q-197 114 -311 311q-115 198 -115 430t115 430t311 312q197 114 430 114q234 0 430 -114zM1348 102q177 104 282 283t105 391t-105 391t-282 283t-392 104
q-214 0 -391 -104t-282 -283t-105 -391t105 -391t282 -283t391 -104q215 0 392 104zM1114 1245v-573h143v-74h-143v-287h-90v287h-506v98l420 549h176zM1024 1235l-428 -563h428v563z" />
    <glyph glyph-name="uni2464" unicode="&#x2464;" horiz-adv-x="1912" 
d="M1386 1522q197 -115 312 -312q114 -197 114 -430q0 -234 -114 -430t-312 -311t-430 -115t-430 115q-197 114 -311 311q-115 198 -115 430t115 430t311 312q197 114 430 114q234 0 430 -114zM1348 102q177 104 282 283t105 391t-105 391t-282 283t-392 104
q-214 0 -391 -104t-282 -283t-105 -391t105 -391t282 -283t391 -104q215 0 392 104zM1141 905h-13q71 -41 111 -110q41 -71 41 -170q0 -101 -43 -174q-42 -71 -121 -113q-74 -39 -172 -39q-85 0 -158 31q-68 29 -116 86t-60 133h92q15 -80 82 -129t164 -49q72 0 127 30
q57 31 86 88q31 60 31 136t-31 133t-86 84q-58 28 -125 28q-86 0 -145 -39q-62 -41 -96 -110l-88 8l49 516h565v-76h-481l-37 -381q30 65 100 111q68 45 166 45q90 0 158 -39z" />
    <glyph glyph-name="uni2465" unicode="&#x2465;" horiz-adv-x="1912" 
d="M1386 1522q197 -115 312 -312q114 -197 114 -430q0 -234 -114 -430t-312 -311t-430 -115t-430 115q-197 114 -311 311q-115 198 -115 430t115 430t311 312q197 114 430 114q234 0 430 -114zM1348 102q177 104 282 283t105 391t-105 391t-282 283t-392 104
q-214 0 -391 -104t-282 -283t-105 -391t105 -391t282 -283t391 -104q215 0 392 104zM1145 887l-12 -8q70 -36 112 -109q41 -71 41 -166q0 -96 -45 -164q-45 -69 -123 -110q-74 -39 -172 -39q-170 0 -264 123q-94 122 -94 360q0 159 45 264q47 109 129 164t190 55
q128 0 207 -61q78 -60 113 -170h-94q-21 73 -80 117q-58 43 -148 43q-130 0 -198 -111q-68 -112 -68 -291q0 -57 2 -75q14 61 59 112q42 48 103 76q58 27 127 27q97 0 170 -37zM1071 391v-4q56 30 86 86q31 57 31 125q0 67 -29 127q-27 55 -84 86t-133 31q-75 0 -131 -33
q-59 -35 -88 -86q-31 -54 -31 -107q0 -59 29 -122q27 -58 84 -97q55 -37 139 -37q70 0 127 31z" />
    <glyph glyph-name="uni2466" unicode="&#x2466;" horiz-adv-x="1912" 
d="M1386 1522q197 -115 312 -312q114 -197 114 -430q0 -234 -114 -430t-312 -311t-430 -115t-430 115q-197 114 -311 311q-115 198 -115 430t115 430t311 312q197 114 430 114q234 0 430 -114zM1348 102q177 104 282 283t105 391t-105 391t-282 283t-392 104
q-214 0 -391 -104t-282 -283t-105 -391t105 -391t282 -283t391 -104q215 0 392 104zM1178 1169h-510v76h598v-100l-432 -834h-109z" />
    <glyph glyph-name="uni2467" unicode="&#x2467;" horiz-adv-x="1912" 
d="M524 35q-197 114 -311 311q-115 198 -115 430t115 430t311 312t430 114t430 -114q197 -115 312 -312q114 -196 114 -430t-114 -430t-312 -311t-430 -115t-430 115zM1348 102q177 104 282 283t105 391t-105 391t-282 283t-392 104q-214 0 -391 -104t-282 -283t-105 -391
t105 -391t282 -283t391 -104q215 0 392 104zM778 330l-2 -8q-83 36 -127 94q-47 62 -47 145q0 78 39 129q43 56 94 78q63 27 109 35q-85 15 -148 67q-63 51 -63 148q0 68 41 121q42 55 114 84q74 30 170 30t166 -30q69 -29 111 -84q41 -53 41 -117q0 -99 -64 -148
q-65 -50 -147 -65q54 -9 109 -33q51 -22 94 -78q39 -51 39 -129q0 -83 -47 -145q-44 -58 -127 -94q-76 -33 -177 -33q-102 0 -178 33zM1124 887l-2 -2q58 49 58 121q0 46 -27 86q-26 40 -80 61q-57 23 -123 23t-123 -23q-52 -21 -79 -61t-27 -86q0 -74 59 -121t172 -47
q114 0 172 49zM1077 383h-2q59 24 96 70t37 110q0 66 -37 109q-39 45 -94 65q-64 23 -127 23q-65 0 -129 -23q-55 -20 -94 -65q-37 -43 -37 -109q0 -64 37 -110t96 -70q61 -25 127 -25t127 25z" />
    <glyph glyph-name="uni2468" unicode="&#x2468;" horiz-adv-x="1912" 
d="M1386 1522q197 -115 312 -312q114 -197 114 -430q0 -234 -114 -430t-312 -311t-430 -115t-430 115q-197 114 -311 311q-115 198 -115 430t115 430t311 312q197 114 430 114q234 0 430 -114zM1348 102q177 104 282 283t105 391t-105 391t-282 283t-392 104
q-214 0 -391 -104t-282 -283t-105 -391t105 -391t282 -283t391 -104q215 0 392 104zM1221 1137v4q96 -125 96 -359q0 -159 -45 -264q-46 -106 -129 -162q-82 -55 -191 -55q-128 0 -207 61q-77 59 -112 170h94q21 -72 80 -116q58 -43 147 -43q134 0 201 110q68 112 68 291
q0 58 -2 76q-15 -64 -58 -113t-100 -75q-59 -27 -127 -27q-95 0 -168 37q-72 37 -113 108q-39 68 -39 166q0 94 46 164q47 71 122 111q74 39 172 39q170 0 265 -123zM1085 739l-4 2q62 36 90 86q31 54 31 107q0 62 -28 123q-26 57 -84 96q-55 37 -138 37q-70 0 -127 -31
q-56 -30 -86 -86q-30 -55 -30 -125q0 -67 28 -125q27 -55 84 -86q55 -30 133 -30q77 0 131 32z" />
    <glyph glyph-name="uni24EA" unicode="&#x24ea;" horiz-adv-x="1912" 
d="M524 35q-197 114 -311 311q-115 198 -115 430t115 430t311 312t430 114t430 -114q197 -115 312 -312q114 -196 114 -430t-114 -430t-312 -311t-430 -115t-430 115zM1348 102q177 104 282 283t105 391t-105 391t-282 283t-392 104q-214 0 -391 -104t-282 -283t-105 -391
t105 -391t282 -283t391 -104q215 0 392 104zM764 352v-4q-79 55 -123 164q-43 107 -43 262t43 262q44 109 123 164t190 55q112 0 191 -55t123 -164q43 -107 43 -260t-43 -260q-44 -109 -123 -164t-191 -55q-111 0 -190 55zM1149 469v-4q70 104 70 305t-70 305
q-71 105 -197 105q-125 0 -196 -105q-70 -104 -70 -303t70 -303t196 -104q127 0 197 104z" />
    <glyph glyph-name="uni24FF" unicode="&#x24ff;" horiz-adv-x="1912" 
d="M524 35q-197 114 -311 311q-115 198 -115 430t115 430t311 312t430 114t430 -114q197 -115 312 -312q114 -196 114 -430t-114 -430t-312 -311t-430 -115t-430 115zM1145 352v-4q79 55 123 164q43 107 43 262t-43 262q-44 109 -123 164t-191 55q-111 0 -190 -55t-123 -164
q-43 -107 -43 -260t43 -260q44 -109 123 -164t190 -55q112 0 191 55zM760 469v-4q-70 104 -70 305t70 305q71 105 196 105q126 0 197 -105q70 -104 70 -303t-70 -303t-197 -104q-126 0 -196 104z" />
    <glyph glyph-name="filledbox" unicode="&#x25a0;" horiz-adv-x="1497" 
d="M1290 0h-1083v1083h1083v-1083z" />
    <glyph glyph-name="uni25A1" unicode="&#x25a1;" horiz-adv-x="1497" 
d="M1290 0h-1083v1083h1083v-1083zM287 1004v-922h921v922h-921z" />
    <glyph glyph-name="lozenge" unicode="&#x25ca;" horiz-adv-x="1318" 
d="M600 1556h119l491 -778l-491 -778h-119l-491 778zM201 778l458 -725l459 725l-459 725z" />
    <glyph glyph-name="circle" unicode="&#x25cb;" horiz-adv-x="1409" 
d="M414 41q-132 77 -209 209q-78 135 -78 289q0 153 78 288q77 132 209 209q135 78 288 78q154 0 289 -78q132 -77 209 -209q78 -135 78 -288q0 -154 -78 -289q-77 -132 -209 -209q-135 -78 -289 -78q-153 0 -288 78zM952 113l-4 -4q115 68 178 180q66 117 66 250
q0 132 -66 249q-65 115 -178 179q-115 65 -248 65q-132 0 -247 -65q-113 -64 -181 -179q-67 -113 -67 -247q0 -135 67 -248q66 -112 181 -180t249 -68q135 0 250 68z" />
    <glyph glyph-name="uni25CF" unicode="&#x25cf;" horiz-adv-x="1409" 
d="M414 41q-132 77 -209 209q-78 135 -78 289q0 153 78 288q77 132 209 209q135 78 288 78q154 0 289 -78q132 -77 209 -209q78 -135 78 -288q0 -154 -78 -289q-77 -132 -209 -209q-135 -78 -289 -78q-153 0 -288 78z" />
    <glyph glyph-name="uni2776" unicode="&#x2776;" horiz-adv-x="1912" 
d="M524 35q-197 114 -311 311q-115 198 -115 430t115 430t311 312t430 114t430 -114q197 -115 312 -312q114 -196 114 -430t-114 -430t-312 -311t-430 -115t-430 115zM920 311l90 -2v934h-78l-2 -59q-3 -40 -29 -56t-78 -16h-104v-76h201v-725z" />
    <glyph glyph-name="uni2777" unicode="&#x2777;" horiz-adv-x="1912" 
d="M524 35q-197 114 -311 311q-115 198 -115 430t115 430t311 312t430 114t430 -114q197 -115 312 -312q114 -196 114 -430t-114 -430t-312 -311t-430 -115t-430 115zM618 311h674v76h-577l375 326q83 74 131 141q45 62 45 147q0 73 -39 129q-41 58 -111 93q-69 34 -166 34
q-88 0 -159 -30q-73 -31 -115 -88q-43 -58 -49 -135h92q9 84 72 135q61 49 163 49q69 0 121 -25q51 -25 74 -67q25 -45 25 -95q0 -64 -37 -116q-39 -55 -107 -117l-412 -356v-101z" />
    <glyph glyph-name="uni2778" unicode="&#x2778;" horiz-adv-x="1912" 
d="M524 35q-197 114 -311 311q-115 198 -115 430t115 430t311 312t430 114t430 -114q197 -115 312 -312q114 -196 114 -430t-114 -430t-312 -311t-430 -115t-430 115zM1114 328l-6 6q80 30 127 92t47 152q0 79 -39 127q-40 49 -98 73q-62 25 -117 31q94 18 160 70
q67 52 67 149q0 71 -43 123q-45 54 -116 80q-79 29 -162 29q-80 0 -150 -31q-67 -30 -108 -86t-47 -125h92q9 72 63 117q56 47 150 47q67 0 119 -21q54 -21 80 -61q28 -42 28 -86q0 -46 -31 -88t-81 -62q-55 -22 -121 -22h-47v-76h47q70 0 131 -21q62 -21 98 -63
q37 -43 37 -107q0 -70 -37 -116q-39 -48 -94 -68q-61 -22 -129 -22q-100 0 -162 47q-63 48 -72 129h-92q15 -118 103 -185q84 -63 225 -63q96 0 178 31z" />
    <glyph glyph-name="uni2779" unicode="&#x2779;" horiz-adv-x="1912" 
d="M524 35q-197 114 -311 311q-115 198 -115 430t115 430t311 312t430 114t430 -114q197 -115 312 -312q114 -196 114 -430t-114 -430t-312 -311t-430 -115t-430 115zM518 696v-98h506v-287h90v287h143v74h-143v573h-176zM1024 672h-428l428 561v-561z" />
    <glyph glyph-name="uni277A" unicode="&#x277a;" horiz-adv-x="1912" 
d="M524 35q-197 114 -311 311q-115 198 -115 430t115 430t311 312t430 114t430 -114q197 -115 312 -312q114 -196 114 -430t-114 -430t-312 -311t-430 -115t-430 115zM1126 336l2 -10q78 41 121 114t43 174q0 102 -39 170q-41 71 -110 111q-68 39 -156 39q-101 0 -166 -45
q-68 -47 -98 -111l39 383h481v76h-565l-49 -516l88 -8q34 69 96 110t145 41q67 0 125 -28q55 -27 86 -84t31 -131q0 -76 -31 -136q-29 -57 -86 -88q-55 -30 -127 -30q-94 0 -161 49t-82 129h-92q12 -77 59 -133t117 -86q73 -31 157 -31q95 0 172 41z" />
    <glyph glyph-name="uni277B" unicode="&#x277b;" horiz-adv-x="1912" 
d="M524 35q-197 114 -311 311q-115 198 -115 430t115 430t311 312t430 114t430 -114q197 -115 312 -312q114 -196 114 -430t-114 -430t-312 -311t-430 -115t-430 115zM1128 336l7 4q75 40 122 111q46 70 46 163q0 98 -39 166q-42 73 -113 109q-73 37 -168 37q-67 0 -129 -27
q-61 -27 -104 -76t-58 -112q-2 18 -2 75q0 179 68 291q68 111 200 111q90 0 148 -43q59 -44 80 -117h94q-35 110 -113 170q-80 62 -206 62q-108 0 -191 -56t-129 -162q-45 -105 -45 -264q0 -233 96 -358q94 -123 264 -123q98 0 172 39zM821 412l-4 2q-58 39 -84 96
q-28 61 -28 123q0 53 30 106q28 50 90 86q56 33 131 33q77 0 134 -31t84 -86q28 -58 28 -125t-31 -124q-30 -56 -86 -86q-57 -31 -127 -31q-82 0 -137 37z" />
    <glyph glyph-name="uni277C" unicode="&#x277c;" horiz-adv-x="1912" 
d="M524 35q-197 114 -311 311q-115 198 -115 430t115 430t311 312t430 114t430 -114q197 -115 312 -312q114 -196 114 -430t-114 -430t-312 -311t-430 -115t-430 115zM1178 1169l-453 -858h109l432 834v100h-598v-76h510z" />
    <glyph glyph-name="uni277D" unicode="&#x277d;" horiz-adv-x="1912" 
d="M524 35q-197 114 -311 311q-115 198 -115 430t115 430t311 312t430 114t430 -114q197 -115 312 -312q114 -196 114 -430t-114 -430t-312 -311t-430 -115t-430 115zM1135 330h-11q83 36 127 94q47 62 47 145q0 79 -36 129q-38 53 -93 80q-60 29 -106 37q83 15 145 68
t62 147q0 70 -39 121q-43 55 -113 84q-76 31 -168 31q-94 0 -170 -31q-71 -29 -112 -82q-39 -51 -39 -121q0 -95 61 -147q60 -51 146 -70q-50 -9 -105 -37q-52 -27 -90 -80q-37 -52 -37 -129q0 -83 47 -145q44 -58 127 -94q76 -33 178 -33q103 0 179 33zM774 895v-2
q-57 45 -57 121q0 47 26 86q26 40 80 61q58 23 123 23q66 0 123 -23q54 -21 80 -61q27 -40 27 -86q0 -45 -25 -84q-25 -40 -76 -60q-55 -22 -129 -22q-113 0 -172 47zM817 391h-4q-59 24 -96 70t-37 110q0 66 37 109q38 44 96 65q64 23 129 23t129 -23q55 -20 94 -65
q37 -43 37 -109q0 -64 -37 -110q-38 -47 -94 -70q-59 -24 -127 -24t-127 24z" />
    <glyph glyph-name="uni277E" unicode="&#x277e;" horiz-adv-x="1912" 
d="M524 35q-197 114 -311 311q-115 198 -115 430t115 430t311 312t430 114t430 -114q197 -115 312 -312q114 -196 114 -430t-114 -430t-312 -311t-430 -115t-430 115zM780 1221l-14 -11q-78 -41 -123 -110q-45 -68 -45 -164q0 -95 41 -166t113 -108q73 -37 170 -37
q65 0 129 28q61 27 104 76q42 48 57 113q2 -18 2 -76q0 -181 -67 -291t-199 -110q-89 0 -147 43q-59 44 -80 116h-94q35 -111 112 -170q79 -61 207 -61q109 0 191 55t129 164q45 105 45 264q0 239 -94 361q-95 123 -265 123q-98 0 -172 -39zM1077 1137v-4q57 -39 84 -97
q29 -63 29 -123q0 -52 -31 -106q-29 -51 -88 -86q-56 -33 -131 -33q-76 0 -133 31t-84 86q-29 60 -29 127q0 68 31 125q30 56 86 86q57 31 127 31q84 0 139 -37z" />
    <glyph glyph-name="uniF8FF" unicode="&#xf8ff;" horiz-adv-x="1728" 
d="M987 805h678v-51h-674l621 -258l-17 -45l-628 260l479 -482l-33 -32l-481 481l260 -629l-43 -20l-260 626v-678h-49v685l-262 -633l-43 20l260 629l-482 -481l-32 32l479 482l-629 -260l-16 45l620 258h-674v51h678l-624 258l18 47l627 -260l-479 479l34 35l480 -481
l-260 628l45 19l260 -629v678h49v-674l258 625l45 -19l-260 -628l479 481l35 -35l-479 -479l626 260l19 -47z" />
    <glyph glyph-name="uniFEFF" unicode="&#xfeff;" horiz-adv-x="0" 
 />
    <glyph glyph-name="NULL" horiz-adv-x="0" 
 />
    <glyph glyph-name="uni004A0301" horiz-adv-x="706" 
d="M41 0l-2 88h121q118 0 176 43q59 44 59 158v1267h99v-1277q0 -147 -84 -213t-238 -66h-131zM498 1692h-97l265 250h131z" />
    <glyph glyph-name="G.ss03" horiz-adv-x="1632" 
d="M788 795l730 -4v-68q0 -215 -86 -389q-85 -171 -242 -266t-356 -95q-204 0 -369 103q-163 102 -254 282q-92 182 -92 416t92 416q91 180 256 283q164 102 358 102q174 0 308 -64q139 -67 225 -174q88 -110 135 -256h-102q-68 188 -209 299t-355 111q-168 0 -307 -92
q-137 -91 -217 -256t-80 -369q0 -203 80 -368q78 -161 219 -254q140 -93 312 -93q170 0 301 82q132 83 206 230q73 146 76 336h-629v88z" />
    <glyph glyph-name="Gbreve.ss03" horiz-adv-x="1632" 
d="M788 795l730 -4v-68q0 -215 -86 -389q-85 -171 -242 -266t-356 -95q-204 0 -369 103q-163 102 -254 282q-92 182 -92 416t92 416q91 180 256 283q164 102 358 102q174 0 308 -64q139 -67 225 -174q88 -110 135 -256h-102q-68 188 -209 299t-355 111q-168 0 -307 -92
q-137 -91 -217 -256t-80 -369q0 -203 80 -368q78 -161 219 -254q140 -93 312 -93q170 0 301 82q132 83 206 230q73 146 76 336h-629v88zM682 1714q-64 34 -98 92q-33 56 -33 129h80q0 -88 53 -141q51 -51 145 -51q95 0 146 51q53 53 53 141h78q0 -73 -33 -129
q-35 -59 -94 -92q-62 -35 -148 -35q-84 0 -149 35z" />
    <glyph glyph-name="Gcaron.ss03" horiz-adv-x="1632" 
d="M788 795l730 -4v-68q0 -215 -86 -389q-85 -171 -242 -266t-356 -95q-204 0 -369 103q-163 102 -254 282q-92 182 -92 416t92 416q91 180 256 283q164 102 358 102q174 0 308 -64q139 -67 225 -174q88 -110 135 -256h-102q-68 188 -209 299t-355 111q-168 0 -307 -92
q-137 -91 -217 -256t-80 -369q0 -203 80 -368q78 -161 219 -254q140 -93 312 -93q170 0 301 82q132 83 206 230q73 146 76 336h-629v88zM829 1733l248 204h94l-274 -249h-135l-277 249h97z" />
    <glyph glyph-name="Gcircumflex.ss03" horiz-adv-x="1632" 
d="M788 795l730 -4v-68q0 -215 -86 -389q-85 -171 -242 -266t-356 -95q-204 0 -369 103q-163 102 -254 282q-92 182 -92 416t92 416q91 180 256 283q164 102 358 102q174 0 308 -64q139 -67 225 -174q88 -110 135 -256h-102q-68 188 -209 299t-355 111q-168 0 -307 -92
q-137 -91 -217 -256t-80 -369q0 -203 80 -368q78 -161 219 -254q140 -93 312 -93q170 0 301 82q132 83 206 230q73 146 76 336h-629v88zM899 1937l275 -249h-95l-248 204l-247 -204h-97l277 249h135z" />
    <glyph glyph-name="uni0122.ss03" horiz-adv-x="1632" 
d="M788 795l730 -4v-68q0 -215 -86 -389q-85 -171 -242 -266t-356 -95q-204 0 -369 103q-163 102 -254 282q-92 182 -92 416t92 416q91 180 256 283q164 102 358 102q174 0 308 -64q139 -67 225 -174q88 -110 135 -256h-102q-68 188 -209 299t-355 111q-168 0 -307 -92
q-137 -91 -217 -256t-80 -369q0 -203 80 -368q78 -161 219 -254q140 -93 312 -93q170 0 301 82q132 83 206 230q73 146 76 336h-629v88zM793 -401v247h102v-254l-82 -155h-76l78 162h-22z" />
    <glyph glyph-name="Gdotaccent.ss03" horiz-adv-x="1632" 
d="M788 795l730 -4v-68q0 -215 -86 -389q-85 -171 -242 -266t-356 -95q-204 0 -369 103q-163 102 -254 282q-92 182 -92 416t92 416q91 180 256 283q164 102 358 102q174 0 308 -64q139 -67 225 -174q88 -110 135 -256h-102q-68 188 -209 299t-355 111q-168 0 -307 -92
q-137 -91 -217 -256t-80 -369q0 -203 80 -368q78 -161 219 -254q140 -93 312 -93q170 0 301 82q132 83 206 230q73 146 76 336h-629v88zM881 1688h-103v249h103v-249z" />
    <glyph glyph-name="Adieresis.titl" horiz-adv-x="1499" 
d="M1485 0h-105l-206 522h-848l-207 -522h-105l621 1556h102l-377 -946h779l-377 946h102zM319 1305h-102v251h102v-251zM1298 1305h-102v251h102v-251z" />
    <glyph glyph-name="Odieresis.titl" horiz-adv-x="1695" 
d="M471 78v-4q-168 103 -258 282q-92 182 -92 416t92 416q90 179 258 282t377 103q214 0 377 -100q167 -102 258 -283q92 -182 92 -416t-92 -416q-90 -179 -258 -282q-165 -101 -377 -101q-209 0 -377 103zM1169 147l-4 -4q141 92 221 256q80 165 80 369t-80 369
q-80 164 -221 256q-142 92 -321 92q-180 0 -322 -92t-221 -254q-80 -165 -80 -369t80 -369q79 -162 221 -254t324 -92q181 0 323 92zM133 1294h-102v252h102v-252zM1651 1294h-103v252h103v-252z" />
    <glyph glyph-name="Udieresis.titl" horiz-adv-x="1591" 
d="M664 1305h-103v251h103v-251zM1026 1305h-102v251h102v-251zM348 143h4q-143 165 -143 478v4v931h96v-935v-5q0 -272 123 -413q124 -142 373 -142q244 0 368 142q123 141 123 415v936h97v-931q0 -313 -144 -480q-144 -166 -448 -166q-305 0 -449 166z" />
    <glyph glyph-name="I_J.loclNLD" horiz-adv-x="1054" 
d="M176 0l-2 88h334q120 0 178 43q59 44 59 158v1267h97v-1277q0 -147 -84 -213t-238 -66h-344zM270 463h-96v1093h96v-1093z" />
    <glyph glyph-name="A.inferior" horiz-adv-x="782" 
d="M772 -233h-88l-90 243h-404l-90 -243h-88l291 778h84l-170 -461h348l-170 461h86z" />
    <glyph glyph-name="B.inferior" horiz-adv-x="755" 
d="M633 113l-4 2q61 -52 61 -138q0 -98 -76 -153t-221 -55h-280v778h278q82 0 146 -25q63 -25 96 -69t33 -105q0 -75 -54 -123q-51 -45 -141 -57q101 -3 162 -55zM526 436v-4q-53 35 -141 35h-192v-262h192q88 0 141 35q52 34 52 98t-52 98zM391 -162h2q108 0 160 37
q53 38 53 109q0 69 -55 106t-160 37h-196v-289h196z" />
    <glyph glyph-name="C.inferior" horiz-adv-x="821" 
d="M242 -197l2 4q-80 48 -131 142q-50 92 -50 211t50 211t131 141q82 49 184 49q130 0 223 -72q90 -69 125 -188h-86q-29 87 -96 141q-66 54 -164 54q-77 0 -141 -43t-101 -119q-36 -73 -36 -174t36 -174q37 -75 99 -119q61 -43 135 -43q103 0 170 49q65 47 100 141h84
q-41 -131 -131 -194q-94 -66 -223 -66q-98 0 -180 49z" />
    <glyph glyph-name="D.inferior" horiz-adv-x="831" 
d="M379 545v4q119 0 205 -45q87 -46 137 -135q49 -88 49 -211t-49 -211q-50 -89 -137 -135q-86 -45 -205 -45h-264v778h264zM381 -154v4q139 0 219 80t80 232q0 151 -80 231t-219 80h-182v-627h182z" />
    <glyph glyph-name="E.inferior" horiz-adv-x="686" 
d="M199 131v-289h422v-75h-506v778h497v-76h-413v-262h405v-76h-405z" />
    <glyph glyph-name="F.inferior" horiz-adv-x="653" 
d="M602 545v-76h-403v-274h397v-76h-397v-352h-84v778h487z" />
    <glyph glyph-name="G.inferior" horiz-adv-x="870" 
d="M408 180l372 2v-413h-69v211q-26 -86 -99 -156q-71 -68 -194 -68q-97 0 -176 49t-129 142q-50 92 -50 211t50 211t131 141q82 49 184 49q133 0 221 -67t123 -185h-84q-36 85 -98 133q-64 49 -166 49q-77 0 -141 -43t-101 -118t-37 -172q0 -99 37 -174q36 -74 103 -119
q64 -43 145 -43q75 0 137 35t99 98q36 62 36 153h-294v74z" />
    <glyph glyph-name="H.inferior" horiz-adv-x="835" 
d="M639 207v338h82v-778h-82v364h-440v-364h-84v778h84v-338h440z" />
    <glyph glyph-name="I.inferior" horiz-adv-x="313" 
d="M199 -233h-84v778h84v-778z" />
    <glyph glyph-name="J.inferior" horiz-adv-x="393" 
d="M25 -233l2 73h61q50 0 82 19q31 19 31 78v606h82v-625q0 -78 -43 -115q-42 -36 -138 -36h-77z" />
    <glyph glyph-name="K.inferior" horiz-adv-x="741" 
d="M301 180l447 -413h-111l-436 401v-401h-84v778h84v-361l399 361h107z" />
    <glyph glyph-name="L.inferior" horiz-adv-x="579" 
d="M199 545v-703h356v-75h-440v778h84z" />
    <glyph glyph-name="M.inferior" horiz-adv-x="1101" 
d="M197 -233h-82v778h82v-778zM547 -233h-82l-260 778h82zM637 -233h-82l260 778h82zM987 -233h-80v778h80v-778z" />
    <glyph glyph-name="N.inferior" horiz-adv-x="886" 
d="M197 -233h-82v778h82v-778zM682 -233h-86l-391 778h86zM772 -233h-80v778h80v-778z" />
    <glyph glyph-name="O.inferior" horiz-adv-x="872" 
d="M244 -197h-2q-86 50 -136 142q-49 91 -49 211t49 211t136 141q85 49 194 49q108 0 193 -49q85 -50 135 -141q49 -91 49 -211t-49 -211q-50 -93 -135 -142t-193 -49q-107 0 -192 49zM582 -137q65 44 102 119t37 174t-37 174t-102 119q-64 43 -148 43q-83 0 -147 -43
q-67 -45 -103 -119q-37 -75 -37 -174t37 -174q36 -74 103 -119q64 -43 147 -43q84 0 148 43z" />
    <glyph glyph-name="P.inferior" horiz-adv-x="724" 
d="M375 545l-2 -2q144 0 227 -62q84 -63 84 -178q0 -117 -82 -178q-83 -62 -227 -62h-176v-296h-84v778h260zM373 135l-2 -4q108 0 166 43q59 44 59 125q0 83 -57 125q-58 43 -166 43h-176v-332h176z" />
    <glyph glyph-name="Q.inferior" horiz-adv-x="876" 
d="M895 -233l-115 2l-104 77q-46 -43 -111 -67q-67 -25 -135 -25q-107 0 -192 49q-86 50 -136 142q-49 91 -49 211t49 211t136 141q85 49 194 49q108 0 193 -49q85 -50 135 -141q49 -91 49 -211q0 -78 -21 -146q-21 -67 -61 -119zM530 -160l5 2q41 16 79 54l-192 143h106
l129 -96q62 89 62 215q0 99 -37 174t-102 119q-64 43 -148 43q-83 0 -147 -43q-67 -45 -103 -119q-37 -75 -37 -174t37 -174q36 -74 103 -119q64 -43 147 -43q52 0 98 18z" />
    <glyph glyph-name="R.inferior" horiz-adv-x="749" 
d="M713 -233l-97 4l-213 327h-12h-194v-327h-84v778h278q85 0 146 -27t96 -80t35 -123q0 -81 -47 -137q-46 -55 -129 -76zM197 473v-301h196q91 0 139 39q50 41 50 111q0 72 -52 112q-51 39 -137 39h-196z" />
    <glyph glyph-name="S.inferior" horiz-adv-x="720" 
d="M207 -217l-6 -2q-64 30 -105 86q-40 55 -49 129h86q12 -82 74 -129q60 -45 147 -45q103 0 160 45q59 47 59 123q0 61 -45 90q-50 32 -153 55l-92 21q-96 20 -156 65q-57 42 -57 129q0 60 36 105q37 46 101 73q69 29 141 29q126 0 203 -57q79 -58 94 -156h-86
q-12 72 -70 109q-56 36 -141 36q-84 0 -137 -36q-55 -37 -55 -97q0 -40 22 -65q20 -23 60 -39q43 -17 102 -31l94 -20q119 -27 174 -76q56 -50 56 -129q0 -72 -37 -127q-38 -57 -107 -86q-73 -31 -166 -31q-80 0 -147 31z" />
    <glyph glyph-name="T.inferior" horiz-adv-x="653" 
d="M25 545h604v-76h-260v-702h-84v702h-260v76z" />
    <glyph glyph-name="U.inferior" horiz-adv-x="823" 
d="M180 -162l2 -4q-76 82 -76 238v4v465h84v-473v-5q0 -121 58 -182t166 -61q112 0 166 63q55 64 55 187v473h84v-465q0 -157 -74 -240q-75 -84 -231 -84t-234 84z" />
    <glyph glyph-name="V.inferior" horiz-adv-x="763" 
d="M379 -233h-86l-281 778h90zM473 -233h-88l277 778h90z" />
    <glyph glyph-name="W.inferior" horiz-adv-x="1175" 
d="M319 -233h-86l-206 778h86zM414 -233h-86l172 778h84zM848 -233h-84l-172 778h86zM942 -233h-86l209 778h84z" />
    <glyph glyph-name="X.inferior" horiz-adv-x="794" 
d="M453 184l333 -417h-102l-287 360l-286 -360h-103l332 417l-287 361h101l241 -305l244 305h100z" />
    <glyph glyph-name="Y.inferior" horiz-adv-x="700" 
d="M598 545h96l-301 -443v-335h-84v331l-303 447h94l250 -367z" />
    <glyph glyph-name="Z.inferior" horiz-adv-x="700" 
d="M647 453l-504 -611h525v-75h-625v92l506 610h-500v76h598v-92z" />
    <glyph glyph-name="G.ss03.inferior" horiz-adv-x="843" 
d="M406 180l366 4v-47q0 -111 -43 -196q-44 -87 -123 -136t-184 -49q-109 0 -191 49t-129 142q-47 92 -47 211q0 120 49 211q49 90 134 141q82 49 184 49q131 0 219 -67q89 -68 127 -183h-86q-36 85 -98 133q-65 50 -162 50q-77 0 -141 -43t-101 -119q-37 -75 -37 -174
t37 -174q36 -74 103 -119q64 -43 145 -43q78 0 139 37q60 37 95 102q33 61 36 147h-292v74z" />
    <glyph glyph-name="A.superior" horiz-adv-x="782" 
d="M772 780h-88l-90 244h-404l-90 -244h-88l291 779h84l-170 -461h348l-170 461h86z" />
    <glyph glyph-name="B.superior" horiz-adv-x="755" 
d="M633 1124l-4 2q61 -52 61 -137q0 -98 -76 -153q-77 -56 -221 -56h-280v779h278q82 0 146 -25q62 -24 96 -70q33 -44 33 -104q0 -75 -54 -123q-51 -45 -141 -57q100 -3 162 -56zM526 1448v-4q-53 35 -141 35h-192v-262h192q89 0 141 34t52 99q0 64 -52 98zM391 850h2
q108 0 160 37q53 38 53 108t-55 107t-160 37h-196v-289h196z" />
    <glyph glyph-name="C.superior" horiz-adv-x="821" 
d="M242 815l2 4q-80 48 -131 142q-50 92 -50 210q0 119 50 211q51 94 131 142q82 49 184 49q130 0 223 -72q90 -69 125 -188h-86q-29 87 -96 141q-65 53 -164 53q-77 0 -141 -43t-101 -118q-36 -73 -36 -175q0 -101 36 -174t99 -118q61 -43 135 -43q103 0 170 49
q65 47 100 141h84q-41 -132 -131 -195q-92 -65 -223 -65q-98 0 -180 49z" />
    <glyph glyph-name="D.superior" horiz-adv-x="831" 
d="M379 1556v5q119 0 205 -45t137 -136q49 -88 49 -211t-49 -211q-50 -89 -137 -135q-86 -45 -205 -45h-264v778h264zM381 858v4q139 0 219 80t80 232q0 151 -80 231t-219 80h-182v-627h182z" />
    <glyph glyph-name="E.superior" horiz-adv-x="686" 
d="M199 1143v-289h422v-76h-506v778h497v-75h-413v-262h405v-76h-405z" />
    <glyph glyph-name="F.superior" horiz-adv-x="653" 
d="M602 1556v-75h-403v-275h397v-76h-397v-352h-84v778h487z" />
    <glyph glyph-name="G.superior" horiz-adv-x="870" 
d="M408 1192l372 2v-414h-69v211q-26 -85 -99 -155q-71 -68 -194 -68q-97 0 -176 49q-80 49 -129 141q-50 92 -50 211t50 211q51 94 131 142q82 49 184 49q132 0 221 -68t123 -184h-84q-36 85 -98 133q-64 49 -166 49q-77 0 -141 -43t-101 -119q-37 -75 -37 -172
q0 -99 37 -174q36 -74 103 -119q64 -43 145 -43q75 0 137 35q61 34 99 99q36 62 36 153h-294v74z" />
    <glyph glyph-name="H.superior" horiz-adv-x="835" 
d="M639 1219v337h82v-778h-82v365h-440v-365h-84v778h84v-337h440z" />
    <glyph glyph-name="I.superior" horiz-adv-x="313" 
d="M199 778h-84v778h84v-778z" />
    <glyph glyph-name="J.superior" horiz-adv-x="393" 
d="M27 778l2 74h61q52 0 82 18q31 19 31 78v606h82v-624q0 -78 -43 -115t-138 -37h-77z" />
    <glyph glyph-name="K.superior" horiz-adv-x="741" 
d="M299 1192l446 -414h-110l-436 402v-402h-84v778h84v-360l399 360h107z" />
    <glyph glyph-name="L.superior" horiz-adv-x="579" 
d="M199 1556v-702h356v-76h-440v778h84z" />
    <glyph glyph-name="M.superior" horiz-adv-x="1101" 
d="M197 778h-82v778h82v-778zM547 778h-82l-260 778h82zM637 778h-82l260 778h82zM987 778h-80v778h80v-778z" />
    <glyph glyph-name="N.superior" horiz-adv-x="886" 
d="M197 778h-82v778h82v-778zM682 778h-86l-391 778h86zM772 778h-80v778h80v-778z" />
    <glyph glyph-name="O.superior" horiz-adv-x="872" 
d="M244 815h-2q-87 50 -136 141t-49 211t49 211q50 92 136 142q85 49 194 49q108 0 193 -49t135 -142q49 -91 49 -211t-49 -211q-50 -92 -135 -141t-193 -49q-107 0 -192 49zM582 874q65 44 102 119t37 174t-37 174t-102 119q-64 43 -148 43q-83 0 -147 -43
q-67 -45 -103 -119q-37 -75 -37 -174t37 -174q36 -74 103 -119q64 -43 147 -43q84 0 148 43z" />
    <glyph glyph-name="P.superior" horiz-adv-x="724" 
d="M375 1556l-2 -2q145 0 227 -61q84 -63 84 -178q0 -117 -82 -178q-83 -62 -227 -62h-176v-297h-84v778h260zM373 1147l-2 -4q108 0 166 43q59 44 59 125q0 83 -57 125q-58 43 -166 43h-176v-332h176z" />
    <glyph glyph-name="Q.superior" horiz-adv-x="876" 
d="M895 778l-115 2l-104 78q-46 -43 -111 -67q-67 -25 -135 -25q-107 0 -192 49q-87 50 -136 141t-49 211t49 211q50 92 136 142q85 49 194 49q108 0 193 -49t135 -142q49 -91 49 -211q0 -77 -21 -145q-21 -67 -61 -119zM530 852l5 2q42 16 79 53l-192 144h106l129 -97
q62 89 62 215q0 99 -37 174t-102 119q-64 43 -148 43q-83 0 -147 -43q-67 -45 -103 -119q-37 -75 -37 -174t37 -174q36 -73 103 -118q64 -43 147 -43q52 0 98 18z" />
    <glyph glyph-name="R.superior" horiz-adv-x="749" 
d="M713 778l-97 4l-213 328h-12h-194v-328h-84v779h278q85 0 146 -27t96 -80t35 -123q0 -81 -47 -137q-46 -55 -129 -76zM197 1485v-301h196q91 0 139 39q50 41 50 110q0 73 -52 113q-51 39 -137 39h-196z" />
    <glyph glyph-name="S.superior" horiz-adv-x="720" 
d="M207 795l-6 -2q-64 30 -105 86q-40 55 -49 129h86q12 -82 74 -129q60 -45 147 -45q103 0 160 45q59 47 59 122q0 62 -45 91q-50 32 -153 55l-92 20q-94 20 -156 66q-57 42 -57 129q0 59 36 104q39 48 101 74q69 29 141 29q124 0 203 -58t94 -155h-86q-12 71 -70 108
t-141 37q-82 0 -137 -37t-55 -96q0 -40 22 -65q20 -23 60 -39q43 -17 102 -31l94 -21q120 -27 174 -75q56 -50 56 -129q0 -72 -37 -127q-38 -57 -107 -86q-73 -31 -166 -31q-80 0 -147 31z" />
    <glyph glyph-name="T.superior" horiz-adv-x="653" 
d="M25 1556h604v-75h-260v-703h-84v703h-260v75z" />
    <glyph glyph-name="U.superior" horiz-adv-x="821" 
d="M180 850l2 -4q-76 82 -76 237v4v465h84v-473v-4q0 -121 58 -182q59 -62 166 -62q111 0 166 64t55 186v473h84v-464q0 -157 -74 -240q-75 -84 -231 -84t-234 84z" />
    <glyph glyph-name="V.superior" horiz-adv-x="763" 
d="M379 778h-86l-281 778h90zM473 778h-88l277 778h90z" />
    <glyph glyph-name="W.superior" horiz-adv-x="1175" 
d="M319 778h-86l-206 778h86zM414 778h-86l172 778h84zM848 778h-84l-172 778h86zM942 778h-86l209 778h84z" />
    <glyph glyph-name="X.superior" horiz-adv-x="794" 
d="M453 1196l333 -418h-102l-287 361l-286 -361h-103l332 418l-287 360h101l241 -305l244 305h100z" />
    <glyph glyph-name="Y.superior" horiz-adv-x="700" 
d="M598 1556h96l-301 -442v-336h-84v332l-303 446h94l250 -366z" />
    <glyph glyph-name="Z.superior" horiz-adv-x="700" 
d="M647 1464l-504 -610h525v-76h-625v92l506 611h-500v75h598v-92z" />
    <glyph glyph-name="G.ss03.superior" horiz-adv-x="845" 
d="M408 1192l366 4v-47q0 -112 -43 -197q-43 -86 -123 -135q-79 -49 -184 -49q-109 0 -191 49q-83 49 -129 141q-47 92 -47 211q0 120 49 211t134 142q82 49 184 49q130 0 219 -68q90 -68 127 -182h-86q-36 85 -98 133q-64 49 -162 49q-77 0 -141 -43t-101 -119
q-37 -75 -37 -174t37 -174q36 -74 103 -119q64 -43 145 -43q78 0 139 37q59 36 95 103q33 61 36 147h-292v74z" />
    <glyph glyph-name="i.loclTRK" horiz-adv-x="458" 
d="M274 0h-92v1083h92v-1083zM279 1305h-99v251h99v-251z" />
    <glyph glyph-name="uni006A0301" horiz-adv-x="458" 
d="M-53 -401l2 71h47q96 0 141 45q47 47 47 148v1220h92v-1220q0 -130 -73 -197t-203 -67h-53zM279 1251h-91l254 303h123z" />
    </font>
</defs>
</svg>
