<?xml version="1.0" standalone="no"?>
<!DOCTYPE svg PUBLIC "-//W3C//DTD SVG 1.1//EN" "http://www.w3.org/Graphics/SVG/1.1/DTD/svg11.dtd" >
<svg xmlns="http://www.w3.org/2000/svg" xmlns:xlink="http://www.w3.org/1999/xlink" version="1.1">
<metadata>
Created by FontForge 20170731 at Fri Apr 21 21:41:32 2023
 By Aleksey,,,
(c) 2014-2020. Copyright by TYPE.WELTKERN :. All rights reserved.
</metadata>
<defs>
<font id="TWKEverett-HairlineItalic" horiz-adv-x="1536" >
  <font-face 
    font-family="TWK Everett"
    font-weight="250"
    font-style="italic"
    font-stretch="normal"
    units-per-em="2048"
    panose-1="2 11 2 4 0 0 0 0 0 0"
    ascent="1638"
    descent="-410"
    x-height="1077"
    cap-height="1556"
    bbox="-1722 -551 6947 2066"
    underline-thickness="30"
    underline-position="-437"
    slope="-12"
    unicode-range="U+000D-FEFF"
  />
<missing-glyph horiz-adv-x="1462" 
d="M1094 0h-955l332 1556h954zM502 1520l-316 -1483h877l315 1483h-876z" />
    <glyph glyph-name="fi" unicode="fi" horiz-adv-x="1095" 
d="M1014 1077l-230 -1079h-39l222 1042h-537l-221 -1042h-39l221 1042h-266l8 35h264l54 248q21 100 96 166q74 65 192 65h129l-8 -34h-117q-113 0 -174 -58t-82 -147l-51 -238h578zM1026 1313l51 241h39l-51 -241h-39z" />
    <glyph glyph-name="fl" unicode="fl" horiz-adv-x="1095" 
d="M786 0l-38 -2l321 1522h-326q-113 0 -174 -58t-82 -147l-51 -238h330l-8 -35h-328l-221 -1042h-39l221 1042h-266l8 35h264l54 248q21 100 96 166q74 65 192 65h377z" />
    <glyph glyph-name="W_W_W" unicode="WWW" horiz-adv-x="6764" 
d="M475 0h-43l-178 1556h43zM563 0h-47l770 1556h47zM1524 0h-43l-107 1556h43zM1614 0h-49l843 1556h50zM2720 0h-43l-178 1556h43zM2808 0h-47l770 1556h47zM3768 0h-43l-106 1556h43zM3858 0h-49l844 1556h49zM4964 0h-43l-178 1556h43zM5052 0h-47l770 1556h47zM6013 0
h-43l-107 1556h43zM6103 0h-49l844 1556h49z" />
    <glyph glyph-name="f_f" unicode="ff" horiz-adv-x="1347" 
d="M1425 1522v-4q-113 0 -174 -58t-82 -147l-51 -238h330l-8 -35h-328l-221 -1042h-39l221 1042h-643l-221 -1042h-39l221 1042h-266l8 35h264l54 248q21 100 96 166q74 65 192 65h129l-8 -34h-117q-113 0 -174 -58t-82 -147l-51 -238h643l54 248q21 100 96 166
q74 65 192 65h129l-8 -34h-117z" />
    <glyph glyph-name="f_f_i" unicode="ffi" horiz-adv-x="1777" 
d="M1696 1077l-230 -1081h-39l222 1042h-537l-221 -1042h-39l221 1042h-643l-221 -1042h-39l221 1042h-266l8 35h264l54 248q21 100 96 166q74 65 192 65h129l-8 -34h-117q-113 0 -174 -58t-82 -147l-51 -238h643l54 248q21 100 96 166q74 65 192 65h129l-8 -34h-117
q-113 0 -174 -58t-82 -147l-51 -238h578zM1708 1311l51 241h39l-51 -241h-39z" />
    <glyph glyph-name="f_f_l" unicode="ffl" horiz-adv-x="1777" 
d="M1759 1556l39 -4l-330 -1556h-38l221 1042h-539l-221 -1042h-39l221 1042h-643l-221 -1042h-39l221 1042h-266l8 35h264l54 248q21 100 96 166q74 65 192 65h129l-8 -34h-117q-113 0 -174 -58t-82 -147l-51 -238h643l54 248q21 100 96 166q74 65 192 65h129l-8 -34h-117
q-113 0 -174 -58t-82 -147l-51 -238h539z" />
    <glyph glyph-name="f_j" unicode="fj" horiz-adv-x="1095" 
d="M1014 1077l-266 -1249q-20 -99 -97 -166q-74 -65 -192 -65h-45l8 34h33q113 0 176 60q61 58 82 147l254 1202h-537l-221 -1042h-39l221 1042h-266l8 35h264l54 248q21 100 96 166q74 65 192 65h129l-8 -34h-117q-113 0 -174 -58t-82 -147l-51 -238h578zM1024 1313l51 241
h39l-51 -241h-39z" />
    <glyph glyph-name="f_t" unicode="ft" horiz-adv-x="1359" 
d="M1108 1042l-166 -784q-10 -52 -10 -80q0 -77 39 -110t129 -33h127l-8 -35h-127q-99 0 -148 43t-49 129q0 53 8 84l166 784h-639l-221 -1042h-39l221 1042h-266l8 35h264l54 248q21 100 96 166q74 65 192 65h129l-8 -34h-117q-113 0 -174 -58t-82 -147l-51 -238h641
l53 254h39l-53 -254h332l-8 -35h-332z" />
    <glyph glyph-name="t_f" unicode="tf" horiz-adv-x="1339" 
d="M1417 1522q-113 0 -174 -58t-82 -147l-51 -238h330l-8 -35h-328l-221 -1042h-39l221 1042h-643l-166 -784q-10 -52 -10 -80q0 -77 39 -110t129 -33h127l-9 -35h-126q-99 0 -148 43t-49 129q0 53 8 84l166 784h-262l8 35h262l53 254h39l-53 -254h641l53 248q20 99 97 166
q74 65 192 65h129l-8 -34h-117z" />
    <glyph glyph-name="t_t" unicode="tt" horiz-adv-x="1355" 
d="M1104 1042l-166 -780q-10 -52 -10 -80q0 -77 39 -110t129 -33h127l-9 -35h-127q-98 0 -147 43t-49 129q0 53 8 84l166 784h-643l-166 -784q-10 -52 -10 -80q0 -77 39 -110t129 -33h127l-9 -35h-126q-99 0 -148 43t-49 129q0 53 8 84l166 784h-262l8 35h262l53 254h39
l-53 -254h643l53 254h39l-53 -254h332l-8 -35h-332z" />
    <glyph glyph-name="w_w_w" unicode="www" horiz-adv-x="5220" 
d="M348 0h-39l-151 1077h39zM432 0h-43l547 1077h43zM1149 0h-39l-90 1077h39zM1233 0h-43l608 1077h43zM2073 0h-39l-152 1077h39zM2157 0h-43l546 1077h43zM2873 0h-39l-90 1077h39zM2957 0h-43l609 1077h43zM3797 0h-39l-151 1077h38zM3881 0h-43l547 1077h43zM4598 0
h-39l-90 1077h39zM4682 0h-43l608 1077h43z" />
    <glyph glyph-name=".notdef" horiz-adv-x="1462" 
d="M1094 0h-955l332 1556h954zM502 1520l-316 -1483h877l315 1483h-876z" />
    <glyph glyph-name=".null" horiz-adv-x="0" 
 />
    <glyph glyph-name="nonmarkingreturn" unicode="&#xd;" horiz-adv-x="573" 
 />
    <glyph glyph-name="space" unicode=" " horiz-adv-x="573" 
 />
    <glyph glyph-name="exclam" unicode="!" horiz-adv-x="495" 
d="M254 479h-39l229 1077h39zM150 0h-39l49 231h39z" />
    <glyph glyph-name="quotedbl" unicode="&#x22;" horiz-adv-x="559" 
d="M309 1085h-33l93 471h45zM508 1085h-33l92 471h45z" />
    <glyph glyph-name="numbersign" unicode="#" horiz-adv-x="1562" 
d="M1597 1077l-6 -33h-362l-219 -522h356l-6 -33h-365l-204 -489h-39l204 489h-491l-205 -489h-39l205 489h-358l6 33h366l219 522h-360l6 33h369l200 479h39l-200 -479h491l201 479h39l-201 -479h354zM479 522h492l219 522h-492z" />
    <glyph glyph-name="dollar" unicode="$" horiz-adv-x="1251" 
d="M1214 1167v-6q-9 98 -57 172q-51 78 -129 127q-82 51 -182 66l-148 -692l72 -23q115 -37 184 -76q78 -44 123 -110q47 -68 47 -170q0 -156 -75 -265t-205 -165t-287 -56q-31 0 -39 2l-53 -247h-41l53 249q-123 15 -217 78q-91 61 -141 164q-49 101 -49 227h43
q0 -186 96 -299q93 -110 274 -131l168 797l-63 20q-146 44 -234 123t-88 219q0 121 66 215q65 93 176 142q110 49 244 49q47 0 59 -2l51 237h41l-51 -243q108 -18 197 -74q87 -54 143 -141q56 -86 65 -187h-43zM659 846l152 686q-10 2 -55 2q-127 0 -228 -43
q-100 -43 -159 -123q-58 -79 -58 -192q0 -96 37 -154q38 -58 105 -96q67 -37 182 -72zM696 797l-172 -793h37q149 0 270 53q123 54 189 154q67 101 67 240q0 106 -49 170q-48 63 -120 98q-58 28 -189 67z" />
    <glyph glyph-name="percent" unicode="%" horiz-adv-x="1830" 
d="M268 776l-6 4q-67 76 -67 240q0 125 41 256q40 128 126 217q85 88 220 88q109 0 176 -76t67 -239q0 -131 -39 -258q-41 -133 -127 -222q-85 -88 -217 -88q-105 0 -174 78zM383 2h-45l1194 1557h45zM633 819q73 79 112 207q37 121 37 242q0 147 -57 213q-58 67 -154 67
q-114 0 -190 -82t-113 -204q-37 -121 -37 -242q0 -145 58 -215t153 -70q113 0 191 84zM1161 55l-6 4q-68 77 -68 240q0 125 41 256q40 127 127 217q85 88 220 88q109 0 176 -76t67 -239q0 -131 -39 -258q-40 -131 -127 -221q-86 -89 -217 -89q-105 0 -174 78zM1526 98
q73 79 112 207q37 121 37 242q0 147 -57 213q-58 67 -154 67q-114 0 -190 -82t-113 -204q-37 -121 -37 -242q0 -145 58 -215t153 -70q113 0 191 84z" />
    <glyph glyph-name="ampersand" unicode="&#x26;" horiz-adv-x="1476" 
d="M1440 791l-359 -429l252 -362h-45l-231 332l-15 -17q-132 -156 -266 -247q-137 -93 -303 -93q-111 0 -203 50q-92 49 -147 135q-55 85 -55 192q0 141 65 244q64 101 182 178q119 78 306 160l12 6l-21 31q-51 69 -82 135q-30 64 -30 135q0 90 43 166t127 123q83 47 190 47
q82 0 141 -33q64 -36 97 -92q35 -59 35 -135q0 -85 -50 -150q-48 -63 -135 -116q-81 -50 -223 -113l-35 -16l369 -529l334 398h47zM670 952l30 11q168 76 228 112q77 47 121 103q43 55 43 135q0 69 -31 123q-30 52 -84 80q-51 26 -115 26q-105 0 -176 -47q-69 -46 -104 -117
q-35 -72 -35 -137t24 -123q22 -53 78 -135zM1032 356l-370 537l-13 -6q-188 -83 -313 -164q-111 -71 -168 -166q-55 -91 -55 -219q0 -98 49 -174q48 -74 133 -119q82 -43 178 -43q118 0 209 45q97 48 172 117q82 76 160 172z" />
    <glyph glyph-name="quotesingle" unicode="'" horiz-adv-x="360" 
d="M309 1085h-33l93 471h45z" />
    <glyph glyph-name="parenleft" unicode="(" horiz-adv-x="540" 
d="M260 -401v-7q-160 343 -160 707q0 328 148 641q144 304 428 614h47q-293 -317 -436 -622q-146 -312 -146 -629q0 -365 158 -704h-39z" />
    <glyph glyph-name="parenright" unicode=")" horiz-adv-x="538" 
d="M-168 -401v2q291 315 436 624q146 312 146 631q0 366 -158 705h39q160 -343 160 -707q0 -328 -148 -641q-144 -304 -428 -614h-47z" />
    <glyph glyph-name="asterisk" unicode="*" horiz-adv-x="944" 
d="M993 1479l4 -31l-346 -41l154 -330l-31 -12l-151 328l-271 -238l-22 23l274 239l-299 178l17 27l296 -176l72 330l29 -7l-72 -331z" />
    <glyph glyph-name="plus" unicode="+" horiz-adv-x="1298" 
d="M672 569h518v-37h-518v-532h-41v532h-518v37h518v508h41v-508z" />
    <glyph glyph-name="comma" unicode="," horiz-adv-x="403" 
d="M70 6l47 225h39l-52 -239l-170 -244h-45z" />
    <glyph glyph-name="hyphen" unicode="-" horiz-adv-x="819" 
d="M721 555h-617l7 33h616z" />
    <glyph glyph-name="period" unicode="." horiz-adv-x="403" 
d="M106 0h-38l49 231h39z" />
    <glyph glyph-name="slash" unicode="/" horiz-adv-x="911" 
d="M20 0h-43l1016 1556h43z" />
    <glyph glyph-name="zero" unicode="0" horiz-adv-x="1380" 
d="M395 35l-6 -2q-98 58 -156 186q-59 130 -59 332q0 225 72 467q70 236 225 397q154 160 391 160q123 0 219 -57q100 -59 158 -187q59 -130 59 -332q0 -228 -71 -467q-70 -235 -226 -397q-154 -160 -389 -160q-115 0 -217 60zM973 166h-2q146 155 213 381t67 448
q0 187 -53 308t-141 176t-203 55q-211 0 -356 -154q-143 -152 -211 -381q-68 -230 -68 -448q0 -186 53 -307q52 -120 142 -176q89 -56 202 -56q212 0 357 154z" />
    <glyph glyph-name="one" unicode="1" horiz-adv-x="665" 
d="M596 1556h43l-330 -1556h-41l277 1305h-332l8 36h264q41 0 56 11q12 9 18 30z" />
    <glyph glyph-name="two" unicode="2" horiz-adv-x="1263" 
d="M1219 1034l-7 2q-42 -86 -118 -162q-72 -72 -222 -190l-839 -647h1034l-8 -37h-1071l12 59l834 643q132 104 215 183q75 72 116 153q41 80 41 176q0 108 -51 179q-52 72 -147 110q-93 37 -222 37q-116 0 -217 -43t-172 -123t-98 -190h-43q26 119 109 211q80 89 192 135
q115 47 240 47q135 0 237 -45q107 -47 164 -125q59 -80 59 -188t-38 -185z" />
    <glyph glyph-name="three" unicode="3" horiz-adv-x="1310" 
d="M975 774l4 -10q81 -47 129 -119q49 -73 49 -170q0 -148 -82 -264q-81 -115 -223 -180q-140 -64 -309 -64q-142 0 -246 43q-103 43 -166 127q-61 82 -70 203h43q12 -169 127 -252q116 -84 320 -84q150 0 280 62q131 62 205 167q76 107 76 240q0 106 -61 182
q-62 77 -160 117q-100 41 -211 41h-66l9 37h65q145 0 262 51q119 52 191 139q71 86 71 191q0 92 -45 160q-46 70 -137 110q-88 39 -225 39q-104 0 -199 -39q-100 -41 -168 -112q-69 -72 -104 -168h-43q40 113 121 194t184 121q106 41 217 41q135 0 236 -43q99 -42 155 -119
t56 -178q0 -111 -68 -197q-69 -88 -172 -139q-107 -53 -215 -65q90 -15 170 -62z" />
    <glyph glyph-name="four" unicode="4" horiz-adv-x="1290" 
d="M983 561h250l-8 -37h-250l-111 -524h-41l111 524h-883l12 60l992 972h57l-1014 -995h844l211 995h41z" />
    <glyph glyph-name="five" unicode="5" horiz-adv-x="1318" 
d="M1325 1520l-846 -2l-231 -742q81 118 219 193q134 73 293 73q118 0 221 -47q104 -47 166 -143q63 -97 63 -236q0 -167 -86 -315q-85 -146 -233 -235t-322 -89q-138 0 -239 46t-160 129t-74 200h43q9 -105 66 -184q56 -77 149 -117q91 -39 221 -39q158 0 295 84
q135 83 215 221q80 139 80 295q0 138 -55 226q-56 89 -149 129q-96 41 -209 41q-160 0 -301 -84q-140 -84 -228 -215l-39 6l265 841h882z" />
    <glyph glyph-name="six" unicode="6" horiz-adv-x="1357" 
d="M578 1419l2 -2q-149 -122 -248 -334q-98 -209 -119 -467q85 189 242 295q156 105 356 105q130 0 227 -60t146 -151t49 -193q0 -169 -76 -315q-77 -149 -215 -234q-139 -86 -313 -86q-117 0 -223 50t-173 163t-67 299q0 302 102 551q103 251 271 394q171 145 362 145
q121 0 209 -49q91 -51 145 -131q54 -81 82 -185h-43q-39 152 -135 238q-101 90 -262 90q-169 0 -319 -123zM496 891l-2 -2q-135 -86 -209 -209q-74 -124 -74 -229q0 -144 57 -240q59 -99 156 -148q98 -49 217 -49q156 0 283 86q124 84 196 222t72 282q0 91 -43 176
q-44 87 -129 142t-217 55q-171 0 -307 -86z" />
    <glyph glyph-name="seven" unicode="7" horiz-adv-x="1024" 
d="M242 1520l8 36h942l-12 -59l-1098 -1497h-49l1114 1520h-905z" />
    <glyph glyph-name="eight" unicode="8" horiz-adv-x="1361" 
d="M1038 776h-4q75 -47 123 -119q49 -73 49 -163q0 -137 -80 -258q-80 -120 -221 -191q-140 -70 -319 -70q-135 0 -244 50q-106 49 -172 139q-64 88 -64 213q0 138 74 241q72 99 185 156q115 57 225 66q-264 86 -264 307q0 103 61 201t188 163q129 66 302 66q133 0 229 -45
t149 -119q52 -73 52 -160q0 -114 -56 -200q-57 -88 -149 -142q-93 -55 -209 -73q71 -15 145 -62zM412 999l-2 -6q44 -65 129 -102q84 -37 206 -37q165 0 283 53q114 51 174 142t60 196q0 81 -48 148q-45 63 -135 104q-85 39 -209 39q-167 0 -278 -57t-168 -148
q-55 -88 -55 -184q0 -84 43 -148zM877 72l-7 4q134 66 209 174q76 110 76 239q0 101 -57 173q-59 74 -156 114q-100 41 -211 41q-172 0 -303 -51q-135 -52 -211 -154q-76 -101 -76 -239q0 -114 60 -199q58 -82 159 -125t228 -43q154 0 289 66z" />
    <glyph glyph-name="nine" unicode="9" horiz-adv-x="1355" 
d="M1051 1530l-9 -2q104 -49 172 -164t68 -299q0 -307 -100 -551q-102 -250 -271 -393q-169 -144 -362 -144q-120 0 -209 50q-88 49 -143 131t-82 184h43q39 -152 135 -238q101 -90 262 -90q169 0 319 123q147 121 248 336q98 209 119 467q-85 -189 -242 -295
q-155 -104 -356 -104q-132 0 -227 59q-96 59 -146 152q-49 91 -49 192q0 166 78 316q77 147 215 233q139 86 313 86q120 0 224 -49zM956 662l-2 -3q135 86 209 209q74 124 74 232q0 143 -57 239q-59 99 -156 148q-98 49 -217 49q-156 0 -283 -86q-125 -85 -196 -221
q-70 -134 -70 -283q0 -89 43 -174q43 -86 129 -141q86 -56 219 -56q170 0 307 87z" />
    <glyph glyph-name="colon" unicode=":" horiz-adv-x="403" 
d="M106 0h-38l49 231h39zM250 676h-39l49 231h39z" />
    <glyph glyph-name="semicolon" unicode=";" horiz-adv-x="405" 
d="M70 6l47 225h39l-52 -239l-170 -244h-45zM252 676h-39l49 231h39z" />
    <glyph glyph-name="less" unicode="&#x3c;" horiz-adv-x="1204" 
d="M109 565l917 459v-41l-885 -442l885 -443v-41l-917 459v49z" />
    <glyph glyph-name="equal" unicode="=" horiz-adv-x="1390" 
d="M1174 729h-955v37h955v-37zM1174 338h-955v37h955v-37z" />
    <glyph glyph-name="greater" unicode="&#x3e;" horiz-adv-x="1204" 
d="M178 983v41l918 -459v-49l-918 -459v41l885 443z" />
    <glyph glyph-name="question" unicode="?" horiz-adv-x="1040" 
d="M451 479l-9 -2q21 123 93 228q70 102 196 190l80 55q89 62 141 111q53 50 82 104q31 57 31 127q0 79 -45 133q-47 56 -127 86q-82 31 -184 31q-122 0 -215 -37q-94 -37 -156 -108q-61 -70 -82 -170h-41q18 105 88 184t176 123q104 43 232 43q102 0 190 -33
q94 -36 148 -98q55 -64 55 -154q0 -80 -35 -145t-90 -117q-52 -49 -141 -110l-80 -56q-118 -81 -187 -178q-67 -93 -82 -207h-38zM389 -2h-39l49 231h39z" />
    <glyph glyph-name="at" unicode="@" horiz-adv-x="2037" 
d="M1548 1255l-4 -20q178 -96 271 -260q94 -166 94 -365q0 -157 -49 -305t-146 -250q-94 -98 -227 -98q-67 0 -123 29q-51 26 -82 77t-31 115q0 3 4 49q-30 -66 -86 -129q-52 -58 -135 -100q-77 -39 -178 -39q-80 0 -147 33q-71 35 -113 94q-43 61 -43 143q0 102 55 166
q57 66 160 103t264 55l297 35l6 33q13 67 13 92q0 120 -64 184t-209 64q-143 0 -235 -68q-94 -69 -123 -186h-41q38 139 145 215q106 75 258 75q101 0 164 -32q68 -35 105 -95q36 -59 36 -143q0 -50 -8 -86l-84 -391q-8 -31 -8 -74q0 -84 57 -129q59 -47 148 -47
q124 0 209 94t129 240q43 142 43 289q0 193 -88 348q-89 158 -254 248q-167 92 -389 92q-275 0 -504 -131q-233 -133 -367 -359q-135 -228 -135 -499q0 -186 86 -353q83 -162 244 -264q154 -98 356 -98q114 0 219 24q103 24 222 86l14 -30q-117 -60 -227 -86
q-114 -27 -236 -27q-206 0 -371 104q-167 105 -258 277q-92 173 -92 367q0 279 141 516q141 236 383 374q243 138 529 138q229 0 405 -95zM1055 43l2 -4q84 52 147 145q62 92 86 207l33 152l-262 -31q-150 -15 -252 -45q-101 -30 -160 -86q-57 -54 -57 -148q0 -82 39 -135
q40 -55 102 -82q59 -26 133 -26q103 0 189 53z" />
    <glyph glyph-name="A" unicode="A" horiz-adv-x="1464" 
d="M1335 0h-43l-112 549h-885l-346 -549h-49l983 1556h49l-613 -968h852l-198 968h43z" />
    <glyph glyph-name="B" unicode="B" horiz-adv-x="1441" 
d="M1133 739l-7 -2q80 -53 123 -125q43 -73 43 -155q0 -109 -61 -213q-60 -103 -209 -174q-146 -70 -387 -70h-512l330 1556h479q146 0 244 -49q97 -48 147 -129q49 -79 49 -172q0 -117 -57 -200q-59 -86 -154 -136q-91 -47 -209 -63q100 -15 181 -68zM483 1516l-145 -693
h475q164 0 277 49q111 48 172 134q59 83 59 190q0 91 -43 164q-44 75 -129 115q-87 41 -203 41h-463zM637 35l-6 2q230 0 366 65q135 64 191 160q55 94 55 197q0 89 -49 162q-48 72 -147 118q-96 45 -240 45h-477l-160 -749h467z" />
    <glyph glyph-name="C" unicode="C" horiz-adv-x="1605" 
d="M463 51l-8 -6q-138 74 -215 215q-78 144 -78 338q0 256 104 479q106 228 297 361q193 135 455 135q152 0 274 -55q123 -56 203 -164q80 -109 107 -262h-46q-40 217 -184 331q-143 113 -373 113q-239 0 -419 -131q-182 -132 -277 -348q-96 -218 -96 -459q0 -186 74 -319
q73 -132 202 -199q130 -68 297 -68q140 0 271 58q133 59 239 159t178 238h45q-76 -149 -186 -256q-114 -111 -254 -172q-142 -62 -297 -62q-174 0 -313 74z" />
    <glyph glyph-name="D" unicode="D" horiz-adv-x="1628" 
d="M948 1556l-2 -4q197 0 332 -69q139 -71 213 -207t74 -332q0 -212 -99 -430q-100 -221 -311 -367q-211 -147 -534 -147h-494l330 1556h491zM623 35l-2 -4q288 0 491 135q200 133 303 344t103 430q0 284 -150 428q-151 145 -430 145h-449l-313 -1478h447z" />
    <glyph glyph-name="E" unicode="E" horiz-adv-x="1298" 
d="M1382 1556l-8 -38h-882l-146 -691h862l-8 -39h-862l-160 -749h899l-8 -39h-942l330 1556h925z" />
    <glyph glyph-name="F" unicode="F" horiz-adv-x="1243" 
d="M1364 1556l-8 -38h-864l-152 -715h848l-8 -39h-848l-162 -764h-43l330 1556h907z" />
    <glyph glyph-name="G" unicode="G" horiz-adv-x="1695" 
d="M858 733l12 37h709l-164 -772h-43l98 467q-92 -212 -264 -350q-175 -140 -426 -140q-172 0 -313 72q-136 70 -217 213q-80 142 -80 340q0 254 102 479q103 227 295 361q194 135 455 135q152 0 272 -57q125 -60 203 -168q82 -114 105 -260h-46q-40 217 -184 331
q-145 115 -362 115q-240 0 -420 -131q-182 -132 -277 -348q-96 -218 -96 -461q0 -182 74 -315q72 -130 201 -199q127 -68 288 -68q184 0 338 92q151 91 258 252q106 160 146 365l2 10h-666z" />
    <glyph glyph-name="H" unicode="H" horiz-adv-x="1615" 
d="M1395 827l153 729h43l-329 -1556h-43l167 788h-1048l-168 -788h-43l330 1556h43l-154 -729h1049z" />
    <glyph glyph-name="I" unicode="I" horiz-adv-x="524" 
d="M170 0h-43l330 1556h43z" />
    <glyph glyph-name="J" unicode="J" horiz-adv-x="684" 
d="M-61 0l10 37h88q85 0 147 18q60 18 105 72q43 52 61 141l273 1286h43l-275 -1294q-30 -143 -123 -203q-89 -57 -241 -57h-88z" />
    <glyph glyph-name="K" unicode="K" horiz-adv-x="1368" 
d="M1450 1556h74l-1116 -739l854 -817h-60l-858 821l-174 -821h-43l330 1556h43l-156 -731z" />
    <glyph glyph-name="L" unicode="L" horiz-adv-x="1052" 
d="M500 1556l-322 -1517h735l-8 -39h-778l330 1556h43z" />
    <glyph glyph-name="M" unicode="M" horiz-adv-x="2099" 
d="M170 0h-43l330 1556h43zM913 0h-43l-329 1556h43zM1004 0h-50l988 1556h49zM1745 0h-43l330 1556h43z" />
    <glyph glyph-name="N" unicode="N" horiz-adv-x="1703" 
d="M170 0h-43l330 1556h43zM1266 0h-45l-680 1556h45zM1350 0h-43l329 1556h43z" />
    <glyph glyph-name="O" unicode="O" horiz-adv-x="1716" 
d="M463 49q-136 70 -217 213q-80 142 -80 342q0 258 106 479q108 226 308 361t460 135q173 0 314 -72q136 -70 217 -213q80 -142 80 -342q0 -256 -107 -479q-108 -226 -307 -360q-201 -136 -461 -136q-172 0 -313 72zM1214 145l-4 -2q185 129 287 344t102 465q0 191 -73 322
t-203 196q-132 66 -301 66q-240 0 -424 -129q-182 -127 -285 -344q-100 -210 -100 -463q0 -188 74 -321t202 -197q132 -66 302 -66q239 0 423 129z" />
    <glyph glyph-name="P" unicode="P" horiz-adv-x="1390" 
d="M920 1556v-4q163 0 276 -43t172 -129t59 -204q0 -275 -190 -404q-191 -129 -512 -129h-418l-137 -643h-43l330 1556h463zM733 678l2 -2q212 0 355 55q146 56 219 164q73 107 73 262q0 186 -118 270q-121 86 -353 86h-419l-177 -835h418z" />
    <glyph glyph-name="Q" unicode="Q" horiz-adv-x="1722" 
d="M1651 0h-76l-260 180q-108 -94 -246 -147q-139 -53 -297 -53q-174 0 -313 71q-136 70 -217 213q-80 142 -80 342q0 258 106 479q109 227 307 361q199 135 461 135q173 0 314 -72q136 -70 217 -213q80 -142 80 -342q0 -216 -76 -411q-76 -196 -217 -334zM1055 66v-5
q120 47 227 140l-408 284h68l369 -258q135 132 209 324q73 189 73 401q0 191 -73 322t-203 196q-132 66 -301 66q-239 0 -424 -129q-182 -127 -285 -344q-100 -210 -100 -463q0 -188 74 -321t202 -197q132 -66 301 -66q144 0 271 50z" />
    <glyph glyph-name="R" unicode="R" horiz-adv-x="1415" 
d="M1337 958l2 7q-58 -101 -174 -162q-118 -62 -284 -74l338 -725h-50l-338 723h-32h-475l-154 -723h-43l330 1557h518q127 0 221 -52q95 -53 147 -137q52 -85 52 -180q0 -133 -58 -234zM813 768l-2 -4q272 0 403 113q134 116 134 307q0 96 -43 172t-129 123q-83 45 -207 45
h-475l-160 -756h479z" />
    <glyph glyph-name="S" unicode="S" horiz-adv-x="1363" 
d="M338 33l-12 -8q-115 56 -179 163t-67 252h45q9 -205 135 -319q125 -113 344 -113q149 0 277 51q133 53 215 154t82 246q0 122 -93 200q-91 76 -292 129l-152 39q-159 41 -258 123q-98 82 -98 228q0 127 73 215t197 135t264 47q141 0 252 -51q115 -53 189 -148t86 -215
h-46q-15 114 -77 197t-166 129q-106 47 -244 47t-248 -43q-109 -43 -174 -123q-63 -78 -63 -188q0 -122 90 -197t274 -121l152 -39q192 -50 286 -135q97 -88 97 -219q0 -157 -90 -270q-87 -109 -234 -166q-145 -56 -301 -56q-149 0 -264 56z" />
    <glyph glyph-name="T" unicode="T" horiz-adv-x="1212" 
d="M252 1556h1141l-9 -38h-548l-322 -1518h-43l322 1518h-551z" />
    <glyph glyph-name="U" unicode="U" horiz-adv-x="1597" 
d="M332 90v-4q-119 113 -119 313q0 97 27 226l196 927h43l-198 -938q-27 -129 -27 -211q0 -199 111 -294q114 -97 329 -97q272 0 432 148q162 150 226 456l198 938h43l-200 -946q-68 -317 -240 -473q-175 -158 -463 -158q-239 0 -358 113z" />
    <glyph glyph-name="V" unicode="V" horiz-adv-x="1433" 
d="M575 0h-43l-296 1556h43zM668 0h-52l967 1556h51z" />
    <glyph glyph-name="W" unicode="W" horiz-adv-x="2275" 
d="M475 0h-43l-178 1556h43zM563 0h-47l770 1556h47zM1524 0h-43l-107 1556h43zM1614 0h-49l843 1556h50z" />
    <glyph glyph-name="X" unicode="X" horiz-adv-x="1509" 
d="M1552 1556h60l-752 -714l531 -842h-52l-516 819l-864 -819h-61l899 852l-447 704h49l435 -684z" />
    <glyph glyph-name="Y" unicode="Y" horiz-adv-x="1304" 
d="M1466 1556h56l-820 -864l-147 -692h-43l150 705l-435 851h45l418 -819z" />
    <glyph glyph-name="Z" unicode="Z" horiz-adv-x="1312" 
d="M289 1556h1163l-12 -57l-1444 -1460h1173l-8 -39h-1214l12 59l1442 1459h-1120z" />
    <glyph glyph-name="bracketleft" unicode="[" horiz-adv-x="561" 
d="M733 1556l-8 -34h-250l-401 -1889h252l-9 -34h-288l415 1957h289z" />
    <glyph glyph-name="backslash" unicode="\" horiz-adv-x="856" 
d="M674 0h-37l-352 1556h37z" />
    <glyph glyph-name="bracketright" unicode="]" horiz-adv-x="563" 
d="M254 1522l8 34h289l-416 -1957h-289l9 34h249l402 1889h-252z" />
    <glyph glyph-name="asciicircum" unicode="^" horiz-adv-x="1083" 
d="M643 1556l412 -782h-43l-398 758l-397 -758h-41l410 782h57z" />
    <glyph glyph-name="underscore" unicode="_" horiz-adv-x="985" 
d="M834 -33h-910l6 33h910z" />
    <glyph glyph-name="grave" unicode="`" horiz-adv-x="438" 
d="M524 1257h-37l-202 299h45z" />
    <glyph glyph-name="a" unicode="a" horiz-adv-x="1120" 
d="M834 1063l8 -4q72 -37 110 -105q37 -67 37 -155q0 -55 -8 -94l-152 -713h-38l57 266q-35 -71 -98 -137q-64 -67 -150 -111q-85 -43 -182 -43q-84 0 -162 35q-76 34 -123 102t-47 158q0 107 59 178t172 111q112 40 289 61l322 37l8 37q12 56 12 100q0 134 -69 203
q-72 72 -230 72q-154 0 -254 -74q-96 -71 -137 -203h-41q27 97 90 170q62 71 152 109q87 37 196 37q106 0 179 -37zM635 63l-2 -2q95 59 162 160t94 228l35 165l-285 -32q-170 -20 -285 -56q-112 -35 -168 -94q-57 -60 -57 -156q0 -86 43 -147q44 -62 111 -92
q70 -31 145 -31q115 0 207 57z" />
    <glyph glyph-name="b" unicode="b" horiz-adv-x="1284" 
d="M975 1049l-2 -7q93 -50 147 -147q56 -100 56 -242q0 -170 -64 -325q-65 -156 -192 -254q-129 -99 -314 -99q-122 0 -213 54q-86 51 -137 139q-48 83 -57 184l-76 -356h-39l330 1556h39l-158 -739q65 121 184 203t289 82q116 0 207 -49zM897 100l-2 -2q118 93 178 240
q60 148 60 295q0 138 -50 233q-50 96 -135 142q-86 47 -196 47q-176 0 -295 -94q-118 -93 -178 -240q-58 -143 -58 -295q0 -139 49 -233q50 -95 136 -142t196 -47q173 0 295 96z" />
    <glyph glyph-name="c" unicode="c" horiz-adv-x="1144" 
d="M311 27l-10 -2q-93 50 -147 147q-56 100 -56 244q0 165 66 325q65 158 196 256q132 99 322 99q101 0 184 -47t135 -131q54 -88 66 -197h-41q-9 102 -55 178q-46 75 -123 119q-76 43 -174 43q-176 0 -295 -94q-118 -93 -178 -240q-58 -143 -58 -295q0 -138 50 -233
t133 -142t194 -47t197 45q90 47 157 123t105 176h41q-40 -107 -113 -192q-75 -87 -174 -135q-103 -50 -221 -50q-109 0 -201 50z" />
    <glyph glyph-name="d" unicode="d" horiz-adv-x="1282" 
d="M1264 1556l32 5l-329 -1557h-39l53 256q-64 -119 -182 -199q-116 -79 -287 -79q-116 0 -207 49q-93 50 -147 147q-56 100 -56 244q0 166 66 326q65 157 197 256q131 98 321 98q122 0 207 -55t135 -142t59 -174zM813 111l-2 -2q119 94 178 239q60 148 60 295
q0 139 -50 234q-49 95 -135 141q-86 47 -196 47q-176 0 -295 -94q-118 -93 -178 -240q-58 -143 -58 -295q0 -139 49 -233q50 -95 136 -142t196 -47q172 0 295 97z" />
    <glyph glyph-name="e" unicode="e" horiz-adv-x="1167" 
d="M156 539l-6 8q-9 -49 -9 -107q0 -139 49 -233q50 -95 132 -141q85 -48 190 -48q98 0 182 37q87 38 154 105t108 157h41q-45 -102 -123 -180q-76 -76 -172 -117q-93 -40 -196 -40q-110 0 -201 49q-93 50 -147 147q-56 100 -56 244q0 165 66 325q65 157 197 256t321 99
q117 0 203 -51q89 -53 139 -148q49 -94 49 -221q0 -62 -18 -141h-903zM416 1004l-2 -5q-109 -66 -174 -178q-64 -111 -88 -241h866q10 72 10 110q0 112 -43 197t-123 135q-79 49 -188 49q-148 0 -258 -67z" />
    <glyph glyph-name="f" unicode="f" horiz-adv-x="665" 
d="M743 1522v-2q-113 0 -174 -58t-82 -147l-51 -238h330l-8 -35h-328l-221 -1042h-39l221 1042h-266l8 35h264l54 248q21 100 96 166q74 65 192 65h129l-8 -34h-117z" />
    <glyph glyph-name="g" unicode="g" horiz-adv-x="1284" 
d="M1167 1077l33 6l-239 -1130q-37 -172 -164 -272q-126 -99 -336 -99q-131 0 -221 43q-94 45 -146 123q-53 80 -65 189h41q18 -156 120 -238q104 -84 277 -84q189 0 307 92q115 90 150 252l69 334q-65 -127 -184 -209t-291 -82q-114 0 -205 49q-92 50 -147 148t-55 237
q0 167 65 318t197 250q131 98 321 98q122 0 207 -55t135 -138q51 -85 60 -172zM819 133l-2 -4q118 93 178 240q60 148 60 295q0 134 -49 225q-48 89 -136 137q-83 45 -196 45q-174 0 -295 -92q-118 -90 -178 -234q-58 -140 -58 -290q0 -133 50 -228q49 -95 135 -141
q86 -47 196 -47q176 0 295 94z" />
    <glyph glyph-name="h" unicode="h" horiz-adv-x="1173" 
d="M885 1059l2 -4q69 -40 110 -111q39 -68 39 -166q0 -39 -2 -55q-4 -34 -8 -51l-143 -674h-39l141 664q12 62 12 110q0 143 -75 215q-77 74 -211 74q-93 0 -185 -47q-96 -49 -164 -137q-71 -92 -98 -218l-141 -663h-39l330 1556h39l-152 -712q73 123 184 190q112 68 234 68
q98 0 166 -39z" />
    <glyph glyph-name="i" unicode="i" horiz-adv-x="430" 
d="M119 0h-39l229 1077h39zM399 1315h-39l52 241h39z" />
    <glyph glyph-name="j" unicode="j" horiz-adv-x="430" 
d="M-250 -401l6 34h33q113 0 176 60q61 58 82 147l262 1237h39l-264 -1247q-21 -100 -96 -166q-74 -65 -193 -65h-45zM397 1315h-39l52 241h39z" />
    <glyph glyph-name="k" unicode="k" horiz-adv-x="983" 
d="M1001 1077h66l-766 -481l559 -596h-51l-561 598l-127 -598h-39l330 1556h39l-201 -950z" />
    <glyph glyph-name="l" unicode="l" horiz-adv-x="430" 
d="M121 0h-39l330 1556h39z" />
    <glyph glyph-name="m" unicode="m" horiz-adv-x="1841" 
d="M1563 1061l-19 -2q68 -41 105 -111t37 -166q0 -39 -3 -63t-6 -45l-143 -674h-39l141 664q10 45 11 53q4 32 4 61q0 138 -70 211q-71 74 -192 74q-86 0 -175 -47q-88 -46 -155 -137t-94 -217l-142 -664h-39l142 664q8 35 10 53q4 32 4 61q0 138 -70 211q-71 74 -192 74
q-85 0 -174 -47q-90 -47 -156 -137q-67 -90 -94 -218l-141 -663h-39l229 1077h39l-49 -233q70 122 176 190t219 68q88 0 152 -37q62 -36 100 -105q36 -65 39 -157q45 98 111 164q67 67 151 102t166 35q91 0 156 -39z" />
    <glyph glyph-name="n" unicode="n" horiz-adv-x="1171" 
d="M883 1059v-4q69 -40 110 -111q39 -68 39 -166q0 -39 -2 -55q-4 -34 -8 -51l-143 -674h-39l141 664q12 62 12 110q0 143 -75 215q-77 74 -211 74q-93 0 -185 -47q-96 -49 -164 -137q-71 -92 -98 -218l-141 -663h-39l229 1077h39l-49 -231q74 121 184 188q112 68 234 68
q98 0 166 -39z" />
    <glyph glyph-name="o" unicode="o" horiz-adv-x="1204" 
d="M309 27l-2 -4q-93 50 -147 147q-56 100 -56 244q0 165 66 325q65 157 197 256t321 99q115 0 207 -50q93 -50 147 -147q56 -100 56 -242q0 -170 -64 -325t-196 -254t-322 -99q-115 0 -207 50zM817 102l-2 -6q118 93 178 244t60 305q0 132 -49 223q-51 94 -136 140
q-86 47 -196 47q-176 0 -295 -94q-118 -93 -178 -244q-58 -146 -58 -305q0 -133 49 -224q48 -89 136 -137q83 -45 196 -45q173 0 295 96z" />
    <glyph glyph-name="p" unicode="p" horiz-adv-x="1282" 
d="M973 1049l-4 -9q93 -50 147 -147q55 -98 55 -242q0 -173 -63 -325q-64 -155 -193 -254t-313 -99q-120 0 -211 54q-86 51 -137 139q-50 87 -59 184l-160 -753h-39l313 1478h39l-55 -258q66 123 184 201q121 80 289 80q116 0 207 -49zM893 98l-2 -2q118 93 178 240
q59 145 59 295q0 139 -49 233q-50 96 -135 142q-86 47 -196 47q-174 0 -295 -95q-120 -95 -179 -239q-57 -140 -57 -295q0 -140 49 -234q50 -94 135 -141q86 -47 197 -47q173 0 295 96z" />
    <glyph glyph-name="q" unicode="q" horiz-adv-x="1282" 
d="M1161 1077l35 -2l-313 -1478h-39l139 655q-65 -120 -182 -197q-119 -78 -287 -78q-115 0 -207 50q-93 50 -147 147q-56 100 -56 244q0 165 66 325q65 157 197 256t321 99q119 0 205 -56t135 -137q50 -83 59 -172zM815 104l-2 -2q118 93 178 240q60 148 60 295
q0 138 -50 233q-50 96 -135 142q-86 47 -196 47q-176 0 -295 -94q-118 -93 -178 -240q-58 -143 -58 -295q0 -139 49 -233q50 -95 136 -142t196 -47q173 0 295 96z" />
    <glyph glyph-name="r" unicode="r" horiz-adv-x="673" 
d="M299 846h4q73 122 189 188q117 66 264 66l-8 -37h-19q-105 0 -203 -49t-168 -137q-71 -89 -98 -213l-141 -664h-39l229 1077h39z" />
    <glyph glyph-name="s" unicode="s" horiz-adv-x="1001" 
d="M242 14l-15 -4q-78 37 -131 111q-52 73 -67 182h41q12 -101 61 -168q50 -68 123 -98q76 -31 156 -31q109 0 196 37q91 39 142 104q51 66 51 156q0 60 -31 105q-30 44 -86 71q-68 33 -143 56l-99 28q-129 38 -194 92q-68 56 -68 156q0 96 55 160q54 63 142 94t174 31
q79 0 158 -31q77 -30 135 -94q60 -66 84 -160h-41q-21 90 -76 145q-57 57 -125 80q-73 25 -143 25q-83 0 -156 -27t-119 -82q-45 -54 -45 -131q0 -61 31 -106t82 -68q63 -29 129 -47l98 -29q144 -41 215 -98q74 -59 74 -160q0 -107 -62 -184q-63 -79 -159 -115
q-98 -37 -213 -37q-96 0 -174 37z" />
    <glyph glyph-name="t" unicode="t" horiz-adv-x="673" 
d="M422 1042l-166 -782q-10 -52 -10 -80q0 -77 39 -110t129 -33h127l-9 -35h-126q-99 0 -148 43t-49 129q0 53 8 84l166 784h-262l8 35h262l53 254h39l-53 -254h332l-8 -35h-332z" />
    <glyph glyph-name="u" unicode="u" horiz-adv-x="1163" 
d="M1042 1077l37 -2l-229 -1077h-39l49 229q-75 -121 -184 -186q-107 -64 -227 -64q-95 0 -166 41q-71 40 -111 111q-39 68 -39 166q0 39 2 55q4 34 8 51l144 674h39l-142 -663q-3 -13 -8 -54q-2 -16 -2 -57q0 -139 76 -215t209 -76q90 0 182 47q89 45 162 140q71 93 98 217
z" />
    <glyph glyph-name="v" unicode="v" horiz-adv-x="1105" 
d="M416 0h-43l-223 1077h40zM506 0h-49l682 1077h45z" />
    <glyph glyph-name="w" unicode="w" horiz-adv-x="1771" 
d="M348 0h-39l-151 1077h39zM432 0h-43l547 1077h43zM1149 0h-39l-90 1077h39zM1233 0h-43l608 1077h43z" />
    <glyph glyph-name="x" unicode="x" horiz-adv-x="1032" 
d="M1018 1077h51l-514 -487l340 -590h-41l-324 563l-565 -563h-53l596 594l-303 483h43l289 -459z" />
    <glyph glyph-name="y" unicode="y" horiz-adv-x="1091" 
d="M453 109h-39l-277 968h39zM217 -401h-45l956 1478h46z" />
    <glyph glyph-name="z" unicode="z" horiz-adv-x="950" 
d="M195 1077h774l-13 -57l-960 -985h805l-8 -35h-838l12 57l961 985h-740z" />
    <glyph glyph-name="braceleft" unicode="{" horiz-adv-x="571" 
d="M709 1556l-7 -36h-26q-72 0 -123 -45q-53 -47 -74 -150l-98 -461q-30 -151 -94 -209q-63 -57 -154 -63q71 -9 105 -49t34 -107q0 -68 -12 -121l-104 -491q-13 -54 -13 -72q0 -48 13 -74q12 -24 41 -34q33 -11 73 -11h27l-8 -34h-27q-78 0 -117 36t-39 109q0 23 11 80
l102 483q17 80 17 129q0 47 -15 74q-16 29 -51 43q-38 15 -100 18l8 39q71 3 123 23q43 17 82 74t59 167l98 461q24 111 88 166t154 55h27z" />
    <glyph glyph-name="bar" unicode="|" horiz-adv-x="491" 
d="M51 -463h-37l455 2142h37z" />
    <glyph glyph-name="braceright" unicode="}" horiz-adv-x="571" 
d="M373 678l-6 -10q16 -29 51 -43q41 -16 100 -19l-8 -39q-76 -3 -123 -18q-43 -14 -82 -68q-36 -50 -57 -166l-107 -499q-24 -111 -88 -166q-65 -56 -153 -56h-27l8 35h27q72 0 123 45q52 46 73 150l107 500q30 151 94 206q65 56 154 62q-71 9 -105 49q-35 41 -35 107
q0 27 3 57q4 42 8 61l98 461q12 49 12 72q0 50 -12 74q-13 25 -39 34q-33 11 -74 11h-26l8 34h27q77 0 116 -36t39 -107q0 -28 -10 -80l-96 -452q-15 -61 -15 -125q0 -47 15 -74z" />
    <glyph glyph-name="asciitilde" unicode="~" horiz-adv-x="1304" 
d="M121 512h-4q71 64 141 102q70 37 148 37q58 0 110 -12q55 -13 141 -49q75 -32 140 -49q55 -15 114 -15q72 0 129 31q54 29 129 98l29 -24q-73 -67 -141 -103t-148 -36q-53 0 -106 12q-55 13 -144 49q-91 36 -135 47q-62 16 -116 16q-74 0 -129 -30q-52 -28 -129 -99z" />
    <glyph glyph-name="uni00A0" unicode="&#xa0;" horiz-adv-x="573" 
 />
    <glyph glyph-name="exclamdown" unicode="&#xa1;" horiz-adv-x="438" 
d="M301 846h-39l49 231h39zM37 -401h-39l213 999h39z" />
    <glyph glyph-name="cent" unicode="&#xa2;" horiz-adv-x="1189" 
d="M1063 725l-10 4q-15 148 -103 242q-85 91 -225 100l-225 -1051q10 -2 43 -2q110 0 196 45q92 48 158 123q65 74 104 176h41q-41 -109 -112 -192q-75 -87 -174 -135q-101 -49 -221 -49q-29 0 -37 2l-54 -248h-38l53 252q-94 15 -166 67q-72 51 -117 146q-43 90 -43 219
q0 170 62 324q61 152 190 251q130 100 315 103l52 237h39l-52 -237q100 -6 176 -55q78 -51 127 -132q50 -84 62 -190h-41zM244 152q79 -105 215 -129l223 1046q-169 -3 -287 -98q-114 -92 -174 -240q-57 -140 -57 -295q0 -178 80 -284z" />
    <glyph glyph-name="sterling" unicode="&#xa3;" horiz-adv-x="1167" 
d="M987 1536h-4q84 -44 135 -119q55 -80 72 -178h-43q-21 140 -117 221q-95 80 -248 80q-123 0 -215 -53t-145 -148q-51 -92 -51 -217q0 -90 24 -161q23 -66 72 -154l10 -21h504l-8 -36h-479q30 -76 30 -179q0 -118 -55 -209q-57 -94 -154 -169q-107 -82 -247 -154h917
l-8 -37h-948l12 59q154 83 246 154q91 70 145 158q51 83 51 198q0 113 -32 181h-283l8 36h254q-46 82 -76 164q-26 71 -26 166q0 134 55 238q56 106 160 164q106 59 250 59q112 0 194 -43z" />
    <glyph glyph-name="currency" unicode="&#xa4;" horiz-adv-x="1423" 
d="M1225 571l-6 2q-38 -91 -101 -159l142 -144l-25 -22l-141 143q-65 -62 -154 -98q-87 -35 -184 -35t-187 35t-159 98l-142 -143l-24 22l143 146q-60 63 -100 157q-37 87 -37 189q0 101 37 188q39 92 102 158l-143 145l24 23l142 -143q66 61 159 100q87 37 187 37
q97 0 184 -35q91 -37 158 -98l139 141l25 -23l-142 -143q66 -72 103 -160q37 -87 37 -190q0 -104 -37 -191zM348 528q65 -109 172 -170t234 -61q126 0 233 61q108 62 170 170q62 109 62 234q0 124 -62 233q-61 107 -170 172q-107 64 -233 64q-127 0 -234 -64
q-108 -64 -172 -172q-63 -105 -63 -233q0 -129 63 -234z" />
    <glyph glyph-name="yen" unicode="&#xa5;" horiz-adv-x="1439" 
d="M1534 1556h53l-788 -831h448l-8 -37h-475l-53 -254h475l-8 -37h-476l-84 -397h-40l84 397h-474l9 37h473l53 254h-473l8 37h459l-424 831h43l418 -821z" />
    <glyph glyph-name="brokenbar" unicode="&#xa6;" horiz-adv-x="505" 
d="M344 879h-37l170 800h37zM59 -463h-36l170 801h36z" />
    <glyph glyph-name="section" unicode="&#xa7;" horiz-adv-x="1153" 
d="M580 1507v-4q-87 -36 -134 -98q-49 -64 -49 -148q0 -90 54 -159q53 -68 157 -123l254 -133q185 -95 185 -258q0 -97 -58 -170q-59 -74 -184 -138q55 -76 55 -165q0 -95 -55 -168q-54 -71 -148 -113q-88 -39 -200 -39q-105 0 -189 37q-85 37 -143 104q-59 68 -74 158h43
q18 -76 68 -135q49 -58 125 -92q73 -33 172 -33q94 0 178 35q85 36 133 98q49 64 49 148q0 91 -53 159q-52 67 -158 123l-254 133q-184 94 -184 258q0 98 57 170q61 76 185 140q-56 77 -56 166q0 93 56 167q54 72 147 113t201 41q104 0 188 -37q87 -38 144 -104t73 -158h-43
q-18 77 -67 135t-125 92q-73 33 -172 33q-94 0 -178 -35zM584 946l-2 -2q-95 50 -154 115q-112 -57 -166 -127q-51 -66 -51 -156q0 -144 166 -229l254 -133q93 -49 153 -115q112 57 166 127q54 69 54 158q0 144 -166 229z" />
    <glyph glyph-name="dieresis" unicode="&#xa8;" horiz-adv-x="491" 
d="M272 1315h-39l52 241h39zM590 1315h-39l51 241h39z" />
    <glyph glyph-name="copyright" unicode="&#xa9;" horiz-adv-x="1998" 
d="M629 49h-4q-195 115 -308 307q-112 190 -112 424q0 230 114 424q113 192 308 307q192 113 424 113t424 -113q193 -114 307 -307t114 -424q0 -234 -112 -424q-114 -193 -307 -307q-190 -112 -424 -112t-424 112zM1450 80l-4 -4q185 108 293 293t108 403q0 223 -106 404
q-107 183 -293 292t-404 109q-220 0 -403 -107q-186 -109 -293 -292q-106 -181 -106 -404q0 -218 108 -403t293 -293q183 -107 404 -107q217 0 403 109zM811 311l-12 -6q-103 66 -166 189q-62 121 -62 274t62 274q62 122 170 189q107 67 237 67q110 0 195 -43
q89 -45 145 -116q60 -76 90 -166h-36q-51 135 -148 213q-100 80 -244 80q-117 0 -215 -64q-99 -64 -157 -178q-58 -113 -58 -254q0 -137 60 -254q59 -116 155 -178q98 -64 209 -64q154 0 258 78q101 76 154 215h37q-59 -158 -168 -239q-113 -84 -279 -84q-123 0 -227 67z
" />
    <glyph glyph-name="ordfeminine" unicode="&#xaa;" horiz-adv-x="579" 
d="M621 1528l-9 -6q47 -41 47 -109q0 -31 -6 -55l-73 -348h-39l28 133q-25 -55 -84 -101q-55 -43 -127 -43q-37 0 -77 19t-62 51q-24 35 -24 80q0 83 63 123t197 55l159 19l4 16q7 35 7 49q0 125 -140 125q-71 0 -118 -35q-46 -34 -64 -96h-39q21 78 82 121t146 43
q82 0 129 -41zM508 1087h-2q61 58 82 154l14 70l-143 -17q-113 -15 -172 -45q-58 -30 -58 -100q0 -60 41 -90q42 -31 97 -31q79 0 141 59z" />
    <glyph glyph-name="guillemotleft" unicode="&#xab;" horiz-adv-x="1017" 
d="M610 1006h49l-499 -455l293 -465h-39l-297 471zM958 1006h50l-500 -455l293 -465h-39l-297 471z" />
    <glyph glyph-name="logicalnot" unicode="&#xac;" horiz-adv-x="1374" 
d="M1171 250h-41v522h-948v37h989v-559z" />
    <glyph glyph-name="uni00AD" unicode="&#xad;" horiz-adv-x="819" 
d="M721 555h-617l7 33h616z" />
    <glyph glyph-name="registered" unicode="&#xae;" horiz-adv-x="1998" 
d="M1473 1507h-5q195 -115 308 -307q114 -193 114 -424q0 -234 -112 -424q-113 -192 -308 -307q-192 -113 -423 -113q-232 0 -424 113q-195 115 -308 307q-112 190 -112 424q0 230 114 424q113 192 308 307q192 113 424 113t424 -113zM1450 80l-4 -4q185 108 293 293
t108 403q0 223 -106 404q-107 183 -293 292t-404 109q-220 0 -403 -107q-186 -109 -293 -292q-106 -181 -106 -404q0 -218 108 -403t293 -293q183 -107 404 -107q217 0 403 109zM1329 819l-2 6q-74 -71 -199 -86l320 -477h-43l-318 473h-20h-307v-473h-35v1028h342
q101 0 174 -33q76 -34 119 -98t43 -153q0 -116 -74 -187zM760 770l309 -2q137 0 215 63q80 65 80 179q0 78 -37 133q-38 57 -104 86q-70 31 -156 31h-307v-490z" />
    <glyph glyph-name="macron" unicode="&#xaf;" horiz-adv-x="741" 
d="M852 1378h-606l8 33h606z" />
    <glyph glyph-name="degree" unicode="&#xb0;" horiz-adv-x="753" 
d="M403 1092l-2 -2q-61 37 -98 98t-37 131t37 131q38 62 98 96q62 35 131 35q70 0 132 -35q63 -35 96 -94q35 -62 35 -131t-35 -131t-94 -98q-61 -37 -131 -37q-71 0 -132 37zM643 1120l2 -4q52 30 82 82q31 54 31 113q0 58 -31 112q-30 52 -82 82q-54 31 -113 31
q-58 0 -112 -31q-52 -30 -82 -82q-31 -54 -31 -110q0 -57 31 -111q29 -50 84 -82q52 -30 110 -30t111 30z" />
    <glyph glyph-name="plusminus" unicode="&#xb1;" horiz-adv-x="1378" 
d="M678 1077v-428h518v-37h-518v-448h-41v448h-518v37h518v428h41zM1196 0h-1077v37h1077v-37z" />
    <glyph glyph-name="uni00B2" unicode="&#xb2;" horiz-adv-x="630" 
d="M748 1489l-5 4q-48 -61 -143 -131l-407 -309h505l-6 -33h-545l11 49l413 313q97 72 136 123q41 53 41 117q0 70 -56 111t-143 41q-86 0 -146 -45q-59 -45 -81 -130h-41q15 65 55 111t98 70t123 24q66 0 121 -22t84 -64q31 -45 31 -98q0 -74 -45 -131z" />
    <glyph glyph-name="uni00B3" unicode="&#xb3;" horiz-adv-x="647" 
d="M686 1374l-20 -14q51 -42 51 -115q0 -70 -41 -129q-39 -57 -111 -92q-67 -33 -155 -33q-109 0 -172 51q-64 52 -70 144h41q6 -82 59 -123q51 -39 148 -39q69 0 135 29q61 27 96 77t35 115q0 49 -27 86t-73 55q-49 19 -103 19h-33l7 33h32q71 0 129 24t93 68q32 40 32 90
q0 64 -49 104q-50 41 -141 41q-74 0 -135 -43q-64 -45 -84 -112h-41q18 59 61 102t96 64q55 22 111 22q71 0 121 -20q53 -21 80 -62q28 -42 28 -88q0 -58 -32 -98q-36 -45 -86 -68q-53 -24 -107 -30q73 -15 125 -58z" />
    <glyph glyph-name="acute" unicode="&#xb4;" horiz-adv-x="448" 
d="M264 1257h-43l326 299h51z" />
    <glyph glyph-name="uni00B5" unicode="&#xb5;" horiz-adv-x="1388" 
d="M1225 35l-4 -39h-88q-75 0 -115 43q-41 44 -41 115v73q-47 -117 -137 -184q-92 -68 -215 -68q-109 0 -209 62q-99 62 -148 174v-614h-37v1478h37v-661v-4q0 -120 49 -211q50 -93 132 -142t178 -49q97 0 176 49t129 142q49 91 49 213v665h37v-917v-4q0 -52 31 -88
q29 -33 88 -33h88z" />
    <glyph glyph-name="paragraph" unicode="&#xb6;" horiz-adv-x="1171" 
d="M520 739l-2 -2q-97 0 -170 43q-75 44 -115 117t-40 166q0 125 71 240q69 112 189 184q115 69 243 69h441l-371 -1746h-43l362 1708h-356l-362 -1708h-43z" />
    <glyph glyph-name="periodcentered" unicode="&#xb7;" horiz-adv-x="364" 
d="M188 489h-38l49 232h39z" />
    <glyph glyph-name="cedilla" unicode="&#xb8;" horiz-adv-x="356" 
d="M-8 -102l-2 -4q52 -3 92 -37q39 -33 39 -86q0 -46 -25 -88q-24 -41 -71 -62q-49 -22 -107 -22h-49l6 30h49q77 0 121 41q43 40 43 105q0 42 -31 67t-75 25h-31l29 133h34z" />
    <glyph glyph-name="uni00B9" unicode="&#xb9;" horiz-adv-x="337" 
d="M449 1794l32 2l-166 -778h-39l136 637h-166l6 33h113q34 0 49 6t18 24z" />
    <glyph glyph-name="ordmasculine" unicode="&#xba;" horiz-adv-x="618" 
d="M317 1028h-2q-47 23 -75 74q-27 50 -27 121q0 90 33 163q36 80 100 127q68 50 164 50q54 0 106 -25q48 -23 76 -74q29 -53 29 -121q0 -90 -33 -163q-36 -80 -100 -127q-67 -49 -164 -49q-58 0 -107 24zM565 1079h-2q59 47 86 117q29 76 29 145q0 93 -49 142t-127 49
q-85 0 -142 -45q-59 -47 -86 -117q-26 -68 -26 -147q0 -93 49 -142t127 -49q82 0 141 47z" />
    <glyph glyph-name="guillemotright" unicode="&#xbb;" horiz-adv-x="1019" 
d="M221 1006h39l297 -471l-494 -449h-49l500 455zM569 1006h39l297 -471l-493 -449h-50l500 455z" />
    <glyph glyph-name="onequarter" unicode="&#xbc;" horiz-adv-x="1290" 
d="M1030 287h123l-6 -33h-125l-53 -254h-39l53 254h-434l10 49l471 475h49l-487 -491h399l105 491h39zM494 1556l32 3l-166 -779h-38l135 637h-166l6 33h113q34 0 49 6t18 25zM10 2h-47l1329 1557h47z" />
    <glyph glyph-name="onehalf" unicode="&#xbd;" horiz-adv-x="1361" 
d="M1221 473l-4 4q-47 -59 -144 -131l-407 -309h505l-6 -33h-544l10 49l413 314q99 74 136 122q41 53 41 117q0 70 -56 111t-143 41q-85 0 -145 -45q-61 -46 -82 -129h-41q15 64 55 110t98 70q59 24 123 24q66 0 121 -22t84 -64q31 -45 31 -98q0 -74 -45 -131zM487 1559
l33 2l-166 -779h-39l136 637h-166l6 33h112q35 0 50 6t18 25zM4 4h-47l1329 1557h47z" />
    <glyph glyph-name="threequarters" unicode="&#xbe;" horiz-adv-x="1552" 
d="M676 1137l-21 -15q52 -43 52 -114q0 -70 -41 -129q-40 -59 -111 -93q-65 -32 -156 -32q-109 0 -172 51t-69 143h41q6 -82 59 -123q51 -39 148 -39q69 0 135 29q60 26 96 78q35 50 35 115q0 48 -27 86q-26 37 -74 55q-47 18 -102 18h-33l6 33h33q68 0 129 25q58 24 92 67
q33 42 33 90q0 65 -49 105q-50 41 -141 41q-75 0 -136 -43q-64 -45 -84 -113h-40q19 61 61 103q41 41 96 63q58 23 111 23q68 0 121 -21q54 -21 80 -61q28 -42 28 -88q0 -57 -33 -99q-34 -43 -86 -67q-56 -26 -106 -31q75 -15 125 -57zM231 -16h-47l1329 1556h48zM1276 270
h123l-6 -32h-125l-54 -254h-38l53 254h-434l10 49l471 475h49l-487 -492h399l104 492h39z" />
    <glyph glyph-name="questiondown" unicode="&#xbf;" horiz-adv-x="1019" 
d="M623 846h-39l49 231h39zM117 -389l-6 -6q-90 35 -136 96q-47 62 -47 139q0 101 68 178q69 78 194 160l80 51q230 149 265 363h38q-21 -122 -88 -215q-68 -95 -190 -174l-80 -51q-86 -56 -137 -101q-54 -48 -82 -94q-31 -51 -31 -111q0 -71 45 -125q44 -53 127 -81
q85 -29 189 -29q122 0 215 37t155 108q61 70 82 170h41q-18 -105 -88 -184q-71 -80 -174 -123q-104 -43 -231 -43q-119 0 -209 35z" />
    <glyph glyph-name="Agrave" unicode="&#xc0;" horiz-adv-x="1464" 
d="M1335 0h-43l-112 549h-885l-346 -549h-49l983 1556h49l-613 -968h852l-198 968h43zM954 1694h-36l-228 241h47z" />
    <glyph glyph-name="Aacute" unicode="&#xc1;" horiz-adv-x="1464" 
d="M1335 0h-43l-112 549h-885l-346 -549h-49l983 1556h49l-613 -968h852l-198 968h43zM1014 1694h-47l323 241h56z" />
    <glyph glyph-name="Acircumflex" unicode="&#xc2;" horiz-adv-x="1464" 
d="M1335 0h-43l-112 549h-885l-346 -549h-49l983 1556h49l-613 -968h852l-198 968h43zM1044 1935l236 -241h-37l-229 219l-318 -219h-45l330 241h63z" />
    <glyph glyph-name="Atilde" unicode="&#xc3;" horiz-adv-x="1464" 
d="M1335 0h-43l-112 549h-885l-346 -549h-49l983 1556h49l-613 -968h852l-198 968h43zM676 1755l-10 -2q27 55 84 86t104 31q39 0 72 -10q25 -8 67 -31q25 -16 56 -25q27 -8 63 -8q44 0 84 19t66 61h30q-27 -56 -80 -86q-54 -31 -104 -31q-37 0 -70 10q-22 7 -69 31
q-65 35 -117 35q-44 0 -82 -18q-35 -17 -63 -62h-31z" />
    <glyph glyph-name="Adieresis" unicode="&#xc4;" horiz-adv-x="1464" 
d="M1335 0h-43l-112 549h-885l-346 -549h-49l983 1556h49l-613 -968h852l-198 968h43zM825 1694h-43l52 241h43zM1139 1694h-43l51 241h43z" />
    <glyph glyph-name="Aring" unicode="&#xc5;" horiz-adv-x="1464" 
d="M1335 0h-43l-112 549h-885l-346 -549h-49l983 1556h49l-613 -968h852l-198 968h43zM887 1708l-4 -2q-39 22 -60 59q-20 36 -20 86q0 62 31 113q30 50 81 76t111 26q48 0 84 -20q38 -21 59 -59q23 -41 23 -86q0 -62 -31 -113q-30 -49 -82 -76q-51 -26 -110 -26
q-43 0 -82 22zM1059 1741l-2 -2q43 21 67 61q25 42 25 92q0 67 -39 103q-40 37 -94 37q-40 0 -88 -23q-45 -22 -68 -61q-24 -40 -24 -93q0 -65 38 -100q40 -37 95 -37q42 0 90 23z" />
    <glyph glyph-name="AE" unicode="&#xc6;" horiz-adv-x="2017" 
d="M2101 1556l-8 -38h-1069l141 -691h762l-8 -39h-745l153 -749h469l-8 -39h-496l-112 549h-885l-346 -549h-49l983 1556h49l-613 -968h852l-198 968h1128z" />
    <glyph glyph-name="Ccedilla" unicode="&#xc7;" horiz-adv-x="1605" 
d="M588 1407l-13 -8q-181 -131 -276 -348q-96 -218 -96 -459q0 -189 73 -320q72 -130 203 -198q130 -68 297 -68q142 0 271 57q131 58 239 160q106 100 178 238h45q-75 -147 -184 -256q-108 -108 -252 -174q-140 -64 -295 -64l-18 -78q53 -3 92 -36t39 -86q0 -47 -25 -89
q-23 -40 -71 -61q-51 -23 -109 -23h-49l6 33h49q79 0 121 39q43 40 43 105q0 42 -31 67t-75 25h-31l24 110q-165 9 -297 84q-127 72 -202 213q-74 139 -74 330q0 256 104 479q106 228 297 361q193 135 455 135q152 0 274 -55q123 -56 203 -164q80 -109 107 -262h-45
q-40 216 -185 331q-143 113 -372 113q-240 0 -420 -131z" />
    <glyph glyph-name="Egrave" unicode="&#xc8;" horiz-adv-x="1298" 
d="M1382 1556l-8 -38h-882l-146 -691h862l-8 -39h-862l-160 -749h899l-8 -39h-942l330 1556h925zM1022 1694h-37l-227 241h47z" />
    <glyph glyph-name="Eacute" unicode="&#xc9;" horiz-adv-x="1298" 
d="M1382 1556l-8 -38h-882l-146 -691h862l-8 -39h-862l-160 -749h899l-8 -39h-942l330 1556h925zM918 1694h-48l324 241h55z" />
    <glyph glyph-name="Ecircumflex" unicode="&#xca;" horiz-adv-x="1298" 
d="M1382 1556l-8 -38h-882l-146 -691h862l-8 -39h-862l-160 -749h899l-8 -39h-942l330 1556h925zM1030 1935l236 -241h-37l-230 219l-317 -219h-45l330 241h63z" />
    <glyph glyph-name="Edieresis" unicode="&#xcb;" horiz-adv-x="1298" 
d="M1382 1556l-8 -38h-882l-146 -691h862l-8 -39h-862l-160 -749h899l-8 -39h-942l330 1556h925zM811 1694h-43l51 241h43zM1124 1694h-43l52 241h43z" />
    <glyph glyph-name="Igrave" unicode="&#xcc;" horiz-adv-x="524" 
d="M170 0h-43l330 1556h43zM504 1694h-37l-227 241h47z" />
    <glyph glyph-name="Iacute" unicode="&#xcd;" horiz-adv-x="524" 
d="M170 0h-43l330 1556h43zM539 1694h-47l323 241h55z" />
    <glyph glyph-name="Icircumflex" unicode="&#xce;" horiz-adv-x="524" 
d="M170 0h-43l330 1556h43zM590 1935l235 -241h-37l-229 219l-317 -219h-45l329 241h64z" />
    <glyph glyph-name="Idieresis" unicode="&#xcf;" horiz-adv-x="524" 
d="M170 0h-43l330 1556h43zM371 1694h-43l51 241h43zM684 1694h-43l51 241h43z" />
    <glyph glyph-name="Eth" unicode="&#xd0;" horiz-adv-x="1628" 
d="M948 1556l-2 -4q197 0 332 -69q139 -71 213 -207t74 -332q0 -212 -99 -430q-100 -221 -311 -367q-211 -147 -534 -147h-494l168 788h-195l9 35h192l156 733h491zM623 35l-2 -4q288 0 491 135q200 133 303 344t103 430q0 284 -150 428q-151 145 -430 145h-449l-147 -694
h477l-8 -35h-475l-160 -749h447z" />
    <glyph glyph-name="Ntilde" unicode="&#xd1;" horiz-adv-x="1703" 
d="M170 0h-43l330 1556h43zM1266 0h-45l-680 1556h45zM1350 0h-43l329 1556h43zM819 1755l-10 -2q27 55 84 86t104 31q39 0 72 -10q27 -8 68 -31q26 -16 55 -25q27 -8 63 -8q44 0 84 19t66 61h31q-27 -56 -80 -86q-54 -31 -105 -31q-36 0 -69 10q-24 7 -70 31
q-65 35 -117 35q-45 0 -82 -18q-35 -17 -63 -62h-31z" />
    <glyph glyph-name="Ograve" unicode="&#xd2;" horiz-adv-x="1716" 
d="M463 49q-136 70 -217 213q-80 142 -80 342q0 258 106 479q108 226 308 361t460 135q173 0 314 -72q136 -70 217 -213q80 -142 80 -342q0 -256 -107 -479q-108 -226 -307 -360q-201 -136 -461 -136q-172 0 -313 72zM1214 145l-4 -2q185 129 287 344t102 465q0 191 -73 322
t-203 196q-132 66 -301 66q-240 0 -424 -129q-182 -127 -285 -344q-100 -210 -100 -463q0 -188 74 -321t202 -197q132 -66 302 -66q239 0 423 129zM1141 1690h-37l-227 241h47z" />
    <glyph glyph-name="Oacute" unicode="&#xd3;" horiz-adv-x="1716" 
d="M463 49q-136 70 -217 213q-80 142 -80 342q0 258 106 479q108 226 308 361t460 135q173 0 314 -72q136 -70 217 -213q80 -142 80 -342q0 -256 -107 -479q-108 -226 -307 -360q-201 -136 -461 -136q-172 0 -313 72zM1214 145l-4 -2q185 129 287 344t102 465q0 191 -73 322
t-203 196q-132 66 -301 66q-240 0 -424 -129q-182 -127 -285 -344q-100 -210 -100 -463q0 -188 74 -321t202 -197q132 -66 302 -66q239 0 423 129zM1036 1690h-47l324 241h55z" />
    <glyph glyph-name="Ocircumflex" unicode="&#xd4;" horiz-adv-x="1716" 
d="M463 49q-136 70 -217 213q-80 142 -80 342q0 258 106 479q108 226 308 361t460 135q173 0 314 -72q136 -70 217 -213q80 -142 80 -342q0 -256 -107 -479q-108 -226 -307 -360q-201 -136 -461 -136q-172 0 -313 72zM1214 145l-4 -2q185 129 287 344t102 465q0 191 -73 322
t-203 196q-132 66 -301 66q-240 0 -424 -129q-182 -127 -285 -344q-100 -210 -100 -463q0 -188 74 -321t202 -197q132 -66 302 -66q239 0 423 129zM1149 1931l235 -241h-36l-230 219l-317 -219h-45l329 241h64z" />
    <glyph glyph-name="Otilde" unicode="&#xd5;" horiz-adv-x="1716" 
d="M463 49q-136 70 -217 213q-80 142 -80 342q0 258 106 479q108 226 308 361t460 135q173 0 314 -72q136 -70 217 -213q80 -142 80 -342q0 -256 -107 -479q-108 -226 -307 -360q-201 -136 -461 -136q-172 0 -313 72zM1214 145l-4 -2q185 129 287 344t102 465q0 191 -73 322
t-203 196q-132 66 -301 66q-240 0 -424 -129q-182 -127 -285 -344q-100 -210 -100 -463q0 -188 74 -321t202 -197q132 -66 302 -66q239 0 423 129zM780 1751l-10 -2q27 55 84 86t104 31q35 0 72 -11q31 -9 68 -30q26 -16 55 -25q27 -8 64 -8q45 0 83 18q39 19 66 62h31
q-27 -56 -80 -86q-54 -31 -105 -31q-36 0 -69 10q-24 7 -70 31q-65 35 -117 35q-42 0 -82 -19q-36 -17 -63 -61h-31z" />
    <glyph glyph-name="Odieresis" unicode="&#xd6;" horiz-adv-x="1716" 
d="M463 49q-136 70 -217 213q-80 142 -80 342q0 258 106 479q108 226 308 361t460 135q173 0 314 -72q136 -70 217 -213q80 -142 80 -342q0 -256 -107 -479q-108 -226 -307 -360q-201 -136 -461 -136q-172 0 -313 72zM1214 145l-4 -2q185 129 287 344t102 465q0 191 -73 322
t-203 196q-132 66 -301 66q-240 0 -424 -129q-182 -127 -285 -344q-100 -210 -100 -463q0 -188 74 -321t202 -197q132 -66 302 -66q239 0 423 129zM930 1690h-43l51 241h43zM1243 1690h-43l51 241h43z" />
    <glyph glyph-name="multiply" unicode="&#xd7;" horiz-adv-x="1185" 
d="M1004 973l26 -25l-412 -411l412 -410l-26 -27l-412 412l-412 -412l-24 27l411 410l-411 411l24 25l412 -410z" />
    <glyph glyph-name="Oslash" unicode="&#xd8;" horiz-adv-x="1716" 
d="M1843 1556l-284 -243q90 -153 90 -361q0 -256 -107 -479q-108 -226 -307 -360q-201 -136 -461 -136q-157 0 -289 60q-130 59 -209 172l-245 -211h-62l285 246q-88 149 -88 358q0 258 106 479q108 226 308 361t460 135q159 0 289 -59t209 -172l244 210h61zM289 272
l1212 1045q-74 109 -196 164t-283 55q-240 0 -424 -129q-182 -127 -285 -344q-100 -210 -100 -463q0 -194 76 -328zM1524 1282l-1217 -1042q73 -110 197 -166t282 -56q240 0 424 129t287 345q102 215 102 464q0 197 -75 326z" />
    <glyph glyph-name="Ugrave" unicode="&#xd9;" horiz-adv-x="1597" 
d="M332 90v-4q-119 113 -119 313q0 97 27 226l196 927h43l-198 -938q-27 -129 -27 -211q0 -199 111 -294q114 -97 329 -97q272 0 432 148q162 150 226 456l198 938h43l-200 -946q-68 -317 -240 -473q-175 -158 -463 -158q-239 0 -358 113zM1096 1690h-37l-228 241h48z" />
    <glyph glyph-name="Uacute" unicode="&#xda;" horiz-adv-x="1597" 
d="M332 90v-4q-119 113 -119 313q0 97 27 226l196 927h43l-198 -938q-27 -129 -27 -211q0 -199 111 -294q114 -97 329 -97q272 0 432 148q162 150 226 456l198 938h43l-200 -946q-68 -317 -240 -473q-175 -158 -463 -158q-239 0 -358 113zM991 1690h-47l324 241h55z" />
    <glyph glyph-name="Ucircumflex" unicode="&#xdb;" horiz-adv-x="1597" 
d="M332 90v-4q-119 113 -119 313q0 97 27 226l196 927h43l-198 -938q-27 -129 -27 -211q0 -199 111 -294q114 -97 329 -97q272 0 432 148q162 150 226 456l198 938h43l-200 -946q-68 -317 -240 -473q-175 -158 -463 -158q-239 0 -358 113zM1104 1931l235 -241h-36l-230 219
l-317 -219h-45l329 241h64z" />
    <glyph glyph-name="Udieresis" unicode="&#xdc;" horiz-adv-x="1597" 
d="M332 90v-4q-119 113 -119 313q0 97 27 226l196 927h43l-198 -938q-27 -129 -27 -211q0 -199 111 -294q114 -97 329 -97q272 0 432 148q162 150 226 456l198 938h43l-200 -946q-68 -317 -240 -473q-175 -158 -463 -158q-239 0 -358 113zM885 1690h-43l51 241h43z
M1198 1690h-43l51 241h43z" />
    <glyph glyph-name="Yacute" unicode="&#xdd;" horiz-adv-x="1304" 
d="M1466 1556h56l-820 -864l-147 -692h-43l150 705l-435 851h45l418 -819zM840 1694h-47l323 241h55z" />
    <glyph glyph-name="Thorn" unicode="&#xde;" horiz-adv-x="1419" 
d="M856 1257v-4q164 0 277 -43t172 -129t59 -204q0 -275 -190 -404t-512 -129h-418l-74 -344h-43l330 1556h43l-64 -299h420zM670 379l2 -2q211 0 354 55q146 56 219 164q74 109 74 262q0 185 -119 270q-121 86 -352 86h-420l-176 -835h418z" />
    <glyph glyph-name="germandbls" unicode="&#xdf;" horiz-adv-x="1212" 
d="M1008 770l-7 -6q74 -106 74 -264q0 -148 -55 -267q-55 -120 -172 -190q-119 -72 -295 -72q-55 0 -115 11q-52 9 -121 30l9 39q73 -29 116 -37q44 -8 119 -8q153 0 264 66q108 64 160 178q53 115 53 258q0 112 -39 194q-41 86 -122 138q-80 51 -205 51h-29l8 35h29
q153 0 254 49q99 48 147 127q47 77 47 166q0 87 -38 145q-39 59 -113 94q-70 33 -174 33q-181 0 -295 -123q-113 -122 -160 -344l-229 -1079h-39l229 1079q108 500 500 500q111 0 190 -39q85 -42 127 -107q43 -67 43 -155q0 -96 -43 -172q-44 -77 -127 -127
q-86 -51 -202 -66q140 -35 211 -137z" />
    <glyph glyph-name="agrave" unicode="&#xe0;" horiz-adv-x="1120" 
d="M834 1063l8 -4q72 -37 110 -105q37 -67 37 -155q0 -55 -8 -94l-152 -713h-38l57 266q-35 -71 -98 -137q-64 -67 -150 -111q-85 -43 -182 -43q-84 0 -162 35q-76 34 -123 102t-47 158q0 107 59 178t172 111q112 40 289 61l322 37l8 37q12 56 12 100q0 134 -69 203
q-72 72 -230 72q-154 0 -254 -74q-96 -71 -137 -203h-41q27 97 90 170q62 71 152 109q87 37 196 37q106 0 179 -37zM635 63l-2 -2q95 59 162 160t94 228l35 165l-285 -32q-170 -20 -285 -56q-112 -35 -168 -94q-57 -60 -57 -156q0 -86 43 -147q44 -62 111 -92
q70 -31 145 -31q115 0 207 57zM729 1249h-37l-203 299h46z" />
    <glyph glyph-name="aacute" unicode="&#xe1;" horiz-adv-x="1120" 
d="M834 1063l8 -4q72 -37 110 -105q37 -67 37 -155q0 -55 -8 -94l-152 -713h-38l57 266q-35 -71 -98 -137q-64 -67 -150 -111q-85 -43 -182 -43q-84 0 -162 35q-76 34 -123 102t-47 158q0 107 59 178t172 111q112 40 289 61l322 37l8 37q12 56 12 100q0 134 -69 203
q-72 72 -230 72q-154 0 -254 -74q-96 -71 -137 -203h-41q27 97 90 170q62 71 152 109q87 37 196 37q106 0 179 -37zM635 63l-2 -2q95 59 162 160t94 228l35 165l-285 -32q-170 -20 -285 -56q-112 -35 -168 -94q-57 -60 -57 -156q0 -86 43 -147q44 -62 111 -92
q70 -31 145 -31q115 0 207 57zM662 1249h-44l326 299h51z" />
    <glyph glyph-name="acircumflex" unicode="&#xe2;" horiz-adv-x="1120" 
d="M834 1063l8 -4q72 -37 110 -105q37 -67 37 -155q0 -55 -8 -94l-152 -713h-38l57 266q-35 -71 -98 -137q-64 -67 -150 -111q-85 -43 -182 -43q-84 0 -162 35q-76 34 -123 102t-47 158q0 107 59 178t172 111q112 40 289 61l322 37l8 37q12 56 12 100q0 134 -69 203
q-72 72 -230 72q-154 0 -254 -74q-96 -71 -137 -203h-41q27 97 90 170q62 71 152 109q87 37 196 37q106 0 179 -37zM635 63l-2 -2q95 59 162 160t94 228l35 165l-285 -32q-170 -20 -285 -56q-112 -35 -168 -94q-57 -60 -57 -156q0 -86 43 -147q44 -62 111 -92
q70 -31 145 -31q115 0 207 57zM766 1548l225 -299h-35l-217 275l-338 -275h-43l353 299h55z" />
    <glyph glyph-name="atilde" unicode="&#xe3;" horiz-adv-x="1120" 
d="M834 1063l8 -4q72 -37 110 -105q37 -67 37 -155q0 -55 -8 -94l-152 -713h-38l57 266q-35 -71 -98 -137q-64 -67 -150 -111q-85 -43 -182 -43q-84 0 -162 35q-76 34 -123 102t-47 158q0 107 59 178t172 111q112 40 289 61l322 37l8 37q12 56 12 100q0 134 -69 203
q-72 72 -230 72q-154 0 -254 -74q-96 -71 -137 -203h-41q27 97 90 170q62 71 152 109q87 37 196 37q106 0 179 -37zM635 63l-2 -2q95 59 162 160t94 228l35 165l-285 -32q-170 -20 -285 -56q-112 -35 -168 -94q-57 -60 -57 -156q0 -86 43 -147q44 -62 111 -92
q70 -31 145 -31q115 0 207 57zM401 1323v-6q31 61 82 90q54 31 101 31q32 0 65 -13q38 -15 68 -32q28 -16 53 -25q21 -8 53 -8q44 0 80 22q34 21 62 66h30q-30 -58 -82 -88q-54 -31 -100 -31q-35 0 -65 12q-19 8 -68 35q-28 16 -53 25q-27 10 -54 10q-43 0 -79 -22
q-34 -21 -62 -66h-31z" />
    <glyph glyph-name="adieresis" unicode="&#xe4;" horiz-adv-x="1120" 
d="M834 1063l8 -4q72 -37 110 -105q37 -67 37 -155q0 -55 -8 -94l-152 -713h-38l57 266q-35 -71 -98 -137q-64 -67 -150 -111q-85 -43 -182 -43q-84 0 -162 35q-76 34 -123 102t-47 158q0 107 59 178t172 111q112 40 289 61l322 37l8 37q12 56 12 100q0 134 -69 203
q-72 72 -230 72q-154 0 -254 -74q-96 -71 -137 -203h-41q27 97 90 170q62 71 152 109q87 37 196 37q106 0 179 -37zM635 63l-2 -2q95 59 162 160t94 228l35 165l-285 -32q-170 -20 -285 -56q-112 -35 -168 -94q-57 -60 -57 -156q0 -86 43 -147q44 -62 111 -92
q70 -31 145 -31q115 0 207 57zM547 1307h-39l51 241h39zM864 1307h-39l52 241h38z" />
    <glyph glyph-name="aring" unicode="&#xe5;" horiz-adv-x="1120" 
d="M834 1063l8 -4q72 -37 110 -105q37 -67 37 -155q0 -55 -8 -94l-152 -713h-38l57 266q-35 -71 -98 -137q-64 -67 -150 -111q-85 -43 -182 -43q-84 0 -162 35q-76 34 -123 102t-47 158q0 107 59 178t172 111q112 40 289 61l322 37l8 37q12 56 12 100q0 134 -69 203
q-72 72 -230 72q-154 0 -254 -74q-96 -71 -137 -203h-41q27 97 90 170q62 71 152 109q87 37 196 37q106 0 179 -37zM635 63l-2 -2q95 59 162 160t94 228l35 165l-285 -32q-170 -20 -285 -56q-112 -35 -168 -94q-57 -60 -57 -156q0 -86 43 -147q44 -62 111 -92
q70 -31 145 -31q115 0 207 57zM618 1262h-2q-34 15 -55 49q-20 33 -20 80q0 55 24 98q23 42 68 67t92 25q35 0 72 -16q34 -15 55 -49q20 -33 20 -80q0 -56 -24 -99q-23 -42 -68 -67t-92 -25q-31 0 -70 17zM766 1296q34 18 53 54t19 77q0 59 -37 86q-40 29 -82 29
q-39 0 -74 -18q-34 -18 -53 -54t-19 -77q0 -59 37 -86q40 -29 82 -29q40 0 74 18z" />
    <glyph glyph-name="ae" unicode="&#xe6;" horiz-adv-x="1957" 
d="M946 539l-2 -2q-8 -44 -8 -107q0 -139 49 -233q51 -97 131 -142q83 -47 191 -47q98 0 182 37q85 37 153 105q68 69 109 157h41q-45 -102 -123 -180q-76 -76 -172 -117t-197 -41q-114 0 -202 49t-142 140q-52 87 -61 209q-36 -117 -100 -203q-68 -92 -166 -144
q-96 -51 -215 -51q-89 0 -162 33q-78 35 -123 98q-45 62 -45 154q0 313 504 313h323l25 119q12 56 12 100q0 134 -69 203q-72 72 -230 72q-154 0 -254 -74q-96 -71 -137 -203h-41q27 97 90 170q62 71 152 109q87 37 196 37q114 0 185 -39q73 -40 110 -107q38 -68 35 -153
q71 140 197 219q127 80 295 80q116 0 202 -51q91 -54 140 -148t49 -221q0 -57 -19 -141h-903zM1210 993l-2 -4q-109 -66 -174 -178q-64 -110 -88 -242h866q11 79 11 111q0 112 -43 197q-44 85 -123 135q-79 49 -189 49q-146 0 -258 -68zM897 530l-309 -2q-228 0 -350 -61
q-123 -61 -123 -207q0 -89 43 -147q44 -60 110 -86q68 -27 144 -27q117 0 209 57q97 60 163 160q69 104 95 227z" />
    <glyph glyph-name="ccedilla" unicode="&#xe7;" horiz-adv-x="1144" 
d="M385 969l-12 -11q-119 -94 -178 -239q-58 -143 -58 -295q0 -140 49 -234t133 -141q83 -47 195 -47q111 0 197 45q90 47 157 123t105 176h41q-40 -107 -113 -192q-76 -88 -174 -136q-101 -49 -221 -49h-2l-19 -80q54 -3 93 -36q38 -32 38 -86q0 -49 -24 -89
q-23 -39 -72 -61q-51 -23 -106 -23h-49l6 31h49q77 0 121 41q43 40 43 105q0 42 -31 67t-76 25h-31l25 112q-101 9 -184 62q-84 53 -133 147q-50 95 -50 234q0 165 66 325q65 157 197 256t321 99q101 0 184 -47q85 -48 136 -131q53 -86 65 -197h-41q-9 102 -55 178
q-46 75 -123 119q-76 43 -174 43q-176 0 -295 -94z" />
    <glyph glyph-name="egrave" unicode="&#xe8;" horiz-adv-x="1167" 
d="M156 539l-6 8q-9 -49 -9 -107q0 -139 49 -233q50 -95 132 -141q85 -48 190 -48q98 0 182 37q87 38 154 105t108 157h41q-45 -102 -123 -180q-76 -76 -172 -117q-93 -40 -196 -40q-110 0 -201 49q-93 50 -147 147q-56 100 -56 244q0 165 66 325q65 157 197 256t321 99
q117 0 203 -51q89 -53 139 -148q49 -94 49 -221q0 -62 -18 -141h-903zM416 1004l-2 -5q-109 -66 -174 -178q-64 -111 -88 -241h866q10 72 10 110q0 112 -43 197t-123 135q-79 49 -188 49q-148 0 -258 -67zM702 1260h-36l-203 299h45z" />
    <glyph glyph-name="eacute" unicode="&#xe9;" horiz-adv-x="1167" 
d="M156 539l-6 8q-9 -49 -9 -107q0 -139 49 -233q50 -95 132 -141q85 -48 190 -48q98 0 182 37q87 38 154 105t108 157h41q-45 -102 -123 -180q-76 -76 -172 -117q-93 -40 -196 -40q-110 0 -201 49q-93 50 -147 147q-56 100 -56 244q0 165 66 325q65 157 197 256t321 99
q117 0 203 -51q89 -53 139 -148q49 -94 49 -221q0 -62 -18 -141h-903zM416 1004l-2 -5q-109 -66 -174 -178q-64 -111 -88 -241h866q10 72 10 110q0 112 -43 197t-123 135q-79 49 -188 49q-148 0 -258 -67zM682 1260h-43l326 299h51z" />
    <glyph glyph-name="ecircumflex" unicode="&#xea;" horiz-adv-x="1167" 
d="M156 539l-6 8q-9 -49 -9 -107q0 -139 49 -233q50 -95 132 -141q85 -48 190 -48q98 0 182 37q87 38 154 105t108 157h41q-45 -102 -123 -180q-76 -76 -172 -117q-93 -40 -196 -40q-110 0 -201 49q-93 50 -147 147q-56 100 -56 244q0 165 66 325q65 157 197 256t321 99
q117 0 203 -51q89 -53 139 -148q49 -94 49 -221q0 -62 -18 -141h-903zM416 1004l-2 -5q-109 -66 -174 -178q-64 -111 -88 -241h866q10 72 10 110q0 112 -43 197t-123 135q-79 49 -188 49q-148 0 -258 -67zM786 1559l226 -299h-35l-217 274l-338 -274h-43l352 299h55z" />
    <glyph glyph-name="edieresis" unicode="&#xeb;" horiz-adv-x="1167" 
d="M156 539l-6 8q-9 -49 -9 -107q0 -139 49 -233q50 -95 132 -141q85 -48 190 -48q98 0 182 37q87 38 154 105t108 157h41q-45 -102 -123 -180q-76 -76 -172 -117q-93 -40 -196 -40q-110 0 -201 49q-93 50 -147 147q-56 100 -56 244q0 165 66 325q65 157 197 256t321 99
q117 0 203 -51q89 -53 139 -148q49 -94 49 -221q0 -62 -18 -141h-903zM416 1004l-2 -5q-109 -66 -174 -178q-64 -111 -88 -241h866q10 72 10 110q0 112 -43 197t-123 135q-79 49 -188 49q-148 0 -258 -67zM567 1317h-39l52 242h38zM885 1317h-39l51 242h39z" />
    <glyph glyph-name="igrave" unicode="&#xec;" horiz-adv-x="430" 
d="M119 0h-39l229 1077h39zM348 1257h-37l-202 299h45z" />
    <glyph glyph-name="iacute" unicode="&#xed;" horiz-adv-x="430" 
d="M119 0h-39l229 1077h39zM395 1257h-43l326 299h51z" />
    <glyph glyph-name="icircumflex" unicode="&#xee;" horiz-adv-x="430" 
d="M119 0h-39l229 1077h39zM444 1556l226 -299h-35l-217 275l-338 -275h-43l352 299h55z" />
    <glyph glyph-name="idieresis" unicode="&#xef;" horiz-adv-x="430" 
d="M119 0h-39l229 1077h39zM225 1315h-39l52 241h38zM543 1315h-39l51 241h39z" />
    <glyph glyph-name="eth" unicode="&#xf0;" horiz-adv-x="1208" 
d="M1145 1442l-254 -94q213 -245 213 -584q0 -247 -70 -424q-70 -178 -203 -270q-134 -93 -315 -93q-115 0 -207 50q-93 50 -147 147q-56 100 -56 244q0 165 66 325q65 157 197 256t321 99q109 0 191 -43q80 -42 131 -115q47 -67 63 -158q-3 159 -61 299q-60 144 -160 256
l-281 -102l-4 33l260 94q-111 117 -262 194h78q134 -84 223 -180l273 99zM817 104l-2 -6q118 93 178 244t60 305q0 132 -49 223q-51 94 -136 140q-86 47 -196 47q-176 0 -295 -94q-118 -93 -178 -244q-58 -146 -58 -305q0 -133 49 -224q48 -89 136 -137q83 -45 196 -45
q173 0 295 96z" />
    <glyph glyph-name="ntilde" unicode="&#xf1;" horiz-adv-x="1171" 
d="M883 1059v-4q69 -40 110 -111q39 -68 39 -166q0 -39 -2 -55q-4 -34 -8 -51l-143 -674h-39l141 664q12 62 12 110q0 143 -75 215q-77 74 -211 74q-93 0 -185 -47q-96 -49 -164 -137q-71 -92 -98 -218l-141 -663h-39l229 1077h39l-49 -231q74 121 184 188q112 68 234 68
q98 0 166 -39zM440 1325v-6q31 61 82 90q54 31 101 31q32 0 65 -13q38 -15 68 -32q28 -16 53 -25q21 -8 53 -8q44 0 80 22q34 21 62 66h30q-30 -58 -82 -88q-54 -31 -100 -31q-36 0 -66 12q-16 6 -67 35q-28 16 -53 25q-27 10 -54 10q-44 0 -80 -22q-32 -20 -61 -66h-31z
" />
    <glyph glyph-name="ograve" unicode="&#xf2;" horiz-adv-x="1204" 
d="M309 27l-2 -4q-93 50 -147 147q-56 100 -56 244q0 165 66 325q65 157 197 256t321 99q115 0 207 -50q93 -50 147 -147q56 -100 56 -242q0 -170 -64 -325t-196 -254t-322 -99q-115 0 -207 50zM817 102l-2 -6q118 93 178 244t60 305q0 132 -49 223q-51 94 -136 140
q-86 47 -196 47q-176 0 -295 -94q-118 -93 -178 -244q-58 -146 -58 -305q0 -133 49 -224q48 -89 136 -137q83 -45 196 -45q173 0 295 96zM786 1245h-36l-203 299h45z" />
    <glyph glyph-name="oacute" unicode="&#xf3;" horiz-adv-x="1204" 
d="M309 27l-2 -4q-93 50 -147 147q-56 100 -56 244q0 165 66 325q65 157 197 256t321 99q115 0 207 -50q93 -50 147 -147q56 -100 56 -242q0 -170 -64 -325t-196 -254t-322 -99q-115 0 -207 50zM817 102l-2 -6q118 93 178 244t60 305q0 132 -49 223q-51 94 -136 140
q-86 47 -196 47q-176 0 -295 -94q-118 -93 -178 -244q-58 -146 -58 -305q0 -133 49 -224q48 -89 136 -137q83 -45 196 -45q173 0 295 96zM719 1245h-43l325 299h52z" />
    <glyph glyph-name="ocircumflex" unicode="&#xf4;" horiz-adv-x="1204" 
d="M309 27l-2 -4q-93 50 -147 147q-56 100 -56 244q0 165 66 325q65 157 197 256t321 99q115 0 207 -50q93 -50 147 -147q56 -100 56 -242q0 -170 -64 -325t-196 -254t-322 -99q-115 0 -207 50zM817 102l-2 -6q118 93 178 244t60 305q0 132 -49 223q-51 94 -136 140
q-86 47 -196 47q-176 0 -295 -94q-118 -93 -178 -244q-58 -146 -58 -305q0 -133 49 -224q48 -89 136 -137q83 -45 196 -45q173 0 295 96zM823 1544l226 -299h-35l-217 275l-338 -275h-43l352 299h55z" />
    <glyph glyph-name="otilde" unicode="&#xf5;" horiz-adv-x="1204" 
d="M309 27l-2 -4q-93 50 -147 147q-56 100 -56 244q0 165 66 325q65 157 197 256t321 99q115 0 207 -50q93 -50 147 -147q56 -100 56 -242q0 -170 -64 -325t-196 -254t-322 -99q-115 0 -207 50zM817 102l-2 -6q118 93 178 244t60 305q0 132 -49 223q-51 94 -136 140
q-86 47 -196 47q-176 0 -295 -94q-118 -93 -178 -244q-58 -146 -58 -305q0 -133 49 -224q48 -89 136 -137q83 -45 196 -45q173 0 295 96zM459 1319v-6q31 61 82 90q54 31 100 31q33 0 66 -13q35 -14 67 -32q28 -16 53 -25q21 -8 54 -8q44 0 80 22q32 20 61 66h31
q-30 -58 -82 -88q-54 -31 -101 -31q-35 0 -65 12q-19 8 -68 35q-28 16 -53 25q-27 10 -53 10q-42 0 -80 -23q-35 -21 -62 -65h-30z" />
    <glyph glyph-name="odieresis" unicode="&#xf6;" horiz-adv-x="1204" 
d="M309 27l-2 -4q-93 50 -147 147q-56 100 -56 244q0 165 66 325q65 157 197 256t321 99q115 0 207 -50q93 -50 147 -147q56 -100 56 -242q0 -170 -64 -325t-196 -254t-322 -99q-115 0 -207 50zM817 102l-2 -6q118 93 178 244t60 305q0 132 -49 223q-51 94 -136 140
q-86 47 -196 47q-176 0 -295 -94q-118 -93 -178 -244q-58 -146 -58 -305q0 -133 49 -224q48 -89 136 -137q83 -45 196 -45q173 0 295 96zM604 1303h-39l51 241h39zM922 1303h-39l51 241h39z" />
    <glyph glyph-name="divide" unicode="&#xf7;" horiz-adv-x="1421" 
d="M733 848h-41v229h41v-229zM1251 532h-1077v37h1077v-37zM733 0h-41v229h41v-229z" />
    <glyph glyph-name="oslash" unicode="&#xf8;" horiz-adv-x="1204" 
d="M1245 1077l-205 -178q56 -106 56 -244q0 -170 -64 -325t-196 -254t-322 -99q-110 0 -197 43q-89 44 -141 125l-168 -145h-53l203 176q-56 106 -56 244q0 165 66 325q65 157 197 256t321 99q110 0 197 -43q89 -44 141 -125l168 145h53zM190 201l801 702q-50 77 -131 117
q-84 41 -184 41q-176 0 -295 -94q-118 -93 -178 -244q-58 -146 -58 -305q0 -126 45 -217zM1008 872l-803 -704q50 -77 131 -117q84 -41 184 -41q173 0 295 96q118 93 178 244t60 305q0 126 -45 217z" />
    <glyph glyph-name="ugrave" unicode="&#xf9;" horiz-adv-x="1163" 
d="M1042 1077l37 -2l-229 -1077h-39l49 229q-75 -121 -184 -186q-107 -64 -227 -64q-95 0 -166 41q-71 40 -111 111q-39 68 -39 166q0 39 2 55q4 34 8 51l144 674h39l-142 -663q-3 -13 -8 -54q-2 -16 -2 -57q0 -139 76 -215t209 -76q90 0 182 47q89 45 162 140q71 93 98 217
zM739 1255h-37l-202 299h45z" />
    <glyph glyph-name="uacute" unicode="&#xfa;" horiz-adv-x="1163" 
d="M1042 1077l37 -2l-229 -1077h-39l49 229q-75 -121 -184 -186q-107 -64 -227 -64q-95 0 -166 41q-71 40 -111 111q-39 68 -39 166q0 39 2 55q4 34 8 51l144 674h39l-142 -663q-3 -13 -8 -54q-2 -16 -2 -57q0 -139 76 -215t209 -76q90 0 182 47q89 45 162 140q71 93 98 217
zM672 1255h-43l325 299h52z" />
    <glyph glyph-name="ucircumflex" unicode="&#xfb;" horiz-adv-x="1163" 
d="M1042 1077l37 -2l-229 -1077h-39l49 229q-75 -121 -184 -186q-107 -64 -227 -64q-95 0 -166 41q-71 40 -111 111q-39 68 -39 166q0 39 2 55q4 34 8 51l144 674h39l-142 -663q-3 -13 -8 -54q-2 -16 -2 -57q0 -139 76 -215t209 -76q90 0 182 47q89 45 162 140q71 93 98 217
zM776 1554l225 -299h-34l-217 275l-338 -275h-43l352 299h55z" />
    <glyph glyph-name="udieresis" unicode="&#xfc;" horiz-adv-x="1163" 
d="M1042 1077l37 -2l-229 -1077h-39l49 229q-75 -121 -184 -186q-107 -64 -227 -64q-95 0 -166 41q-71 40 -111 111q-39 68 -39 166q0 39 2 55q4 34 8 51l144 674h39l-142 -663q-3 -13 -8 -54q-2 -16 -2 -57q0 -139 76 -215t209 -76q90 0 182 47q89 45 162 140q71 93 98 217
zM557 1313h-39l51 241h39zM874 1313h-38l51 241h39z" />
    <glyph glyph-name="yacute" unicode="&#xfd;" horiz-adv-x="1091" 
d="M453 109h-39l-277 968h39zM217 -401h-45l956 1478h46zM639 1257h-43l326 299h51z" />
    <glyph glyph-name="thorn" unicode="&#xfe;" horiz-adv-x="1282" 
d="M973 1049l-4 -9q93 -50 147 -147q55 -98 55 -242q0 -173 -63 -325q-64 -155 -193 -254t-313 -99q-120 0 -211 54q-86 51 -137 139q-50 87 -59 184l-160 -753h-39l313 1478l103 479h39l-103 -479l-55 -258q66 123 184 201q121 80 289 80q116 0 207 -49zM893 98l-2 -2
q118 93 178 240q59 145 59 295q0 139 -49 233q-50 96 -135 142q-86 47 -196 47q-174 0 -295 -95q-120 -95 -179 -239q-57 -140 -57 -295q0 -140 49 -234q50 -94 135 -141q86 -47 197 -47q173 0 295 96z" />
    <glyph glyph-name="ydieresis" unicode="&#xff;" horiz-adv-x="1091" 
d="M453 109h-39l-277 968h39zM217 -401h-45l956 1478h46zM524 1315h-39l52 241h38zM842 1315h-39l51 241h39z" />
    <glyph glyph-name="Amacron" unicode="&#x100;" horiz-adv-x="1464" 
d="M1335 0h-43l-112 549h-885l-346 -549h-49l983 1556h49l-613 -968h852l-198 968h43zM1309 1802h-647l8 35h647z" />
    <glyph glyph-name="amacron" unicode="&#x101;" horiz-adv-x="1120" 
d="M834 1063l8 -4q72 -37 110 -105q37 -67 37 -155q0 -55 -8 -94l-152 -713h-38l57 266q-35 -71 -98 -137q-64 -67 -150 -111q-85 -43 -182 -43q-84 0 -162 35q-76 34 -123 102t-47 158q0 107 59 178t172 111q112 40 289 61l322 37l8 37q12 56 12 100q0 134 -69 203
q-72 72 -230 72q-154 0 -254 -74q-96 -71 -137 -203h-41q27 97 90 170q62 71 152 109q87 37 196 37q106 0 179 -37zM635 63l-2 -2q95 59 162 160t94 228l35 165l-285 -32q-170 -20 -285 -56q-112 -35 -168 -94q-57 -60 -57 -156q0 -86 43 -147q44 -62 111 -92
q70 -31 145 -31q115 0 207 57zM1001 1370h-606l8 33h607z" />
    <glyph glyph-name="Abreve" unicode="&#x102;" horiz-adv-x="1464" 
d="M1335 0h-43l-112 549h-885l-346 -549h-49l983 1556h49l-613 -968h852l-198 968h43zM805 1737h-10q-56 50 -56 133q0 35 9 65h34q-8 -27 -8 -63q0 -70 47 -111q45 -39 133 -39q95 0 166 56t92 157h35q-21 -112 -98 -180q-76 -67 -191 -67q-98 0 -153 49z" />
    <glyph glyph-name="abreve" unicode="&#x103;" horiz-adv-x="1120" 
d="M834 1063l8 -4q72 -37 110 -105q37 -67 37 -155q0 -55 -8 -94l-152 -713h-38l57 266q-35 -71 -98 -137q-64 -67 -150 -111q-85 -43 -182 -43q-84 0 -162 35q-76 34 -123 102t-47 158q0 107 59 178t172 111q112 40 289 61l322 37l8 37q12 56 12 100q0 134 -69 203
q-72 72 -230 72q-154 0 -254 -74q-96 -71 -137 -203h-41q27 97 90 170q62 71 152 109q87 37 196 37q106 0 179 -37zM635 63l-2 -2q95 59 162 160t94 228l35 165l-285 -32q-170 -20 -285 -56q-112 -35 -168 -94q-57 -60 -57 -156q0 -86 43 -147q44 -62 111 -92
q70 -31 145 -31q115 0 207 57zM520 1303l4 2q-53 59 -53 155q0 28 10 90h33q-10 -62 -10 -90q0 -87 43 -133q44 -47 133 -47q107 0 178 74t98 194h33q-27 -137 -108 -221q-79 -82 -209 -82q-100 0 -152 58z" />
    <glyph glyph-name="Aogonek" unicode="&#x104;" horiz-adv-x="1464" 
d="M1235 -367l22 5l-8 -35h-22q-65 0 -111 37q-45 36 -45 102q0 82 59 147q57 62 164 113l-112 549h-885l-346 -549h-49l983 1557h49l-612 -969h852l-199 969h43l319 -1557q-105 -54 -168 -117q-61 -61 -61 -141q0 -111 127 -111z" />
    <glyph glyph-name="aogonek" unicode="&#x105;" horiz-adv-x="1120" 
d="M834 1063h2q72 -37 110 -105q37 -67 37 -155q0 -55 -8 -94l-152 -713q-109 -56 -170 -117t-61 -141q0 -59 37 -86t96 -27h20l-6 -33h-22q-65 0 -111 37q-45 36 -45 103q0 82 62 147q61 64 168 113l57 266q-35 -71 -98 -137q-64 -67 -150 -111q-85 -43 -182 -43
q-84 0 -162 35q-76 34 -123 102t-47 158q0 107 59 178t172 111q112 40 289 61l322 37l8 37q12 56 12 100q0 134 -69 203q-72 72 -230 72q-154 0 -254 -74q-96 -71 -137 -203h-41q27 97 90 170q62 71 152 109q87 37 196 37q106 0 179 -37zM629 68l-2 -2q94 58 161 159
q68 103 95 228l35 165l-285 -32q-170 -20 -285 -56q-112 -35 -168 -94q-57 -60 -57 -155q0 -87 43 -148q44 -63 110 -92q70 -31 146 -31q113 0 207 58z" />
    <glyph glyph-name="Cacute" unicode="&#x106;" horiz-adv-x="1605" 
d="M463 51l-8 -6q-138 74 -215 215q-78 144 -78 338q0 256 104 479q106 228 297 361q193 135 455 135q152 0 274 -55q123 -56 203 -164q80 -109 107 -262h-46q-40 217 -184 331q-143 113 -373 113q-239 0 -419 -131q-182 -132 -277 -348q-96 -218 -96 -459q0 -186 74 -319
q73 -132 202 -199q130 -68 297 -68q140 0 271 58q133 59 239 159t178 238h45q-76 -149 -186 -256q-114 -111 -254 -172q-142 -62 -297 -62q-174 0 -313 74zM1006 1688h-48l324 241h55z" />
    <glyph glyph-name="cacute" unicode="&#x107;" horiz-adv-x="1144" 
d="M311 27l-10 -2q-93 50 -147 147q-56 100 -56 244q0 165 66 325q65 158 196 256q132 99 322 99q101 0 184 -47t135 -131q54 -88 66 -197h-41q-9 102 -55 178q-46 75 -123 119q-76 43 -174 43q-176 0 -295 -94q-118 -93 -178 -240q-58 -143 -58 -295q0 -138 50 -233
t133 -142t194 -47t197 45q90 47 157 123t105 176h41q-40 -107 -113 -192q-75 -87 -174 -135q-103 -50 -221 -50q-109 0 -201 50zM694 1255h-43l326 299h51z" />
    <glyph glyph-name="Ccircumflex" unicode="&#x108;" horiz-adv-x="1605" 
d="M463 51l-8 -6q-138 74 -215 215q-78 144 -78 338q0 256 104 479q106 228 297 361q193 135 455 135q152 0 274 -55q123 -56 203 -164q80 -109 107 -262h-46q-40 217 -184 331q-143 113 -373 113q-239 0 -419 -131q-182 -132 -277 -348q-96 -218 -96 -459q0 -186 74 -319
q73 -132 202 -199q130 -68 297 -68q140 0 271 58q133 59 239 159t178 238h45q-76 -149 -186 -256q-114 -111 -254 -172q-142 -62 -297 -62q-174 0 -313 74zM1118 1929l236 -241h-37l-230 219l-317 -219h-45l330 241h63z" />
    <glyph glyph-name="ccircumflex" unicode="&#x109;" horiz-adv-x="1144" 
d="M311 27l-10 -2q-93 50 -147 147q-56 100 -56 244q0 165 66 325q65 158 196 256q132 99 322 99q101 0 184 -47t135 -131q54 -88 66 -197h-41q-9 102 -55 178q-46 75 -123 119q-76 43 -174 43q-176 0 -295 -94q-118 -93 -178 -240q-58 -143 -58 -295q0 -138 50 -233
t133 -142t194 -47t197 45q90 47 157 123t105 176h41q-40 -107 -113 -192q-75 -87 -174 -135q-103 -50 -221 -50q-109 0 -201 50zM799 1554l225 -299h-35l-217 275l-338 -275h-43l352 299h56z" />
    <glyph glyph-name="Cdotaccent" unicode="&#x10a;" horiz-adv-x="1605" 
d="M463 51l-8 -6q-138 74 -215 215q-78 144 -78 338q0 256 104 479q106 228 297 361q193 135 455 135q152 0 274 -55q123 -56 203 -164q80 -109 107 -262h-46q-40 217 -184 331q-143 113 -373 113q-239 0 -419 -131q-182 -132 -277 -348q-96 -218 -96 -459q0 -186 74 -319
q73 -132 202 -199q130 -68 297 -68q140 0 271 58q133 59 239 159t178 238h45q-76 -149 -186 -256q-114 -111 -254 -172q-142 -62 -297 -62q-174 0 -313 74zM1057 1688h-43l51 241h43z" />
    <glyph glyph-name="cdotaccent" unicode="&#x10b;" horiz-adv-x="1144" 
d="M311 27l-10 -2q-93 50 -147 147q-56 100 -56 244q0 165 66 325q65 158 196 256q132 99 322 99q101 0 184 -47t135 -131q54 -88 66 -197h-41q-9 102 -55 178q-46 75 -123 119q-76 43 -174 43q-176 0 -295 -94q-118 -93 -178 -240q-58 -143 -58 -295q0 -138 50 -233
t133 -142t194 -47t197 45q90 47 157 123t105 176h41q-40 -107 -113 -192q-75 -87 -174 -135q-103 -50 -221 -50q-109 0 -201 50zM737 1313h-39l52 241h38z" />
    <glyph glyph-name="Ccaron" unicode="&#x10c;" horiz-adv-x="1605" 
d="M463 51l-8 -6q-138 74 -215 215q-78 144 -78 338q0 256 104 479q106 228 297 361q193 135 455 135q152 0 274 -55q123 -56 203 -164q80 -109 107 -262h-46q-40 217 -184 331q-143 113 -373 113q-239 0 -419 -131q-182 -132 -277 -348q-96 -218 -96 -459q0 -186 74 -319
q73 -132 202 -199q130 -68 297 -68q140 0 271 58q133 59 239 159t178 238h45q-76 -149 -186 -256q-114 -111 -254 -172q-142 -62 -297 -62q-174 0 -313 74zM1034 1710l318 219h45l-330 -241h-63l-236 241h37z" />
    <glyph glyph-name="ccaron" unicode="&#x10d;" horiz-adv-x="1144" 
d="M311 27l-10 -2q-93 50 -147 147q-56 100 -56 244q0 165 66 325q65 158 196 256q132 99 322 99q101 0 184 -47t135 -131q54 -88 66 -197h-41q-9 102 -55 178q-46 75 -123 119q-76 43 -174 43q-176 0 -295 -94q-118 -93 -178 -240q-58 -143 -58 -295q0 -138 50 -233
t133 -142t194 -47t197 45q90 47 157 123t105 176h41q-40 -107 -113 -192q-75 -87 -174 -135q-103 -50 -221 -50q-109 0 -201 50zM705 1280l337 274h43l-352 -299h-55l-225 299h34z" />
    <glyph glyph-name="Dcaron" unicode="&#x10e;" horiz-adv-x="1628" 
d="M948 1556l-2 -4q197 0 332 -69q139 -71 213 -207t74 -332q0 -212 -99 -430q-100 -221 -311 -367q-211 -147 -534 -147h-494l330 1556h491zM623 35l-2 -4q288 0 491 135q200 133 303 344t103 430q0 284 -150 428q-151 145 -430 145h-449l-313 -1478h447zM981 1708l317 219
h45l-329 -241h-64l-235 241h37z" />
    <glyph glyph-name="dcaron" unicode="&#x10f;" horiz-adv-x="1282" 
d="M1264 1556l32 5l-329 -1557h-39l53 256q-64 -119 -182 -199q-116 -79 -287 -79q-116 0 -207 49q-93 50 -147 147q-56 100 -56 244q0 166 66 326q65 157 197 256q131 98 321 98q122 0 207 -55t135 -142t59 -174zM813 111l-2 -2q119 94 178 239q60 148 60 295
q0 139 -50 234q-49 95 -135 141q-86 47 -196 47q-176 0 -295 -94q-118 -93 -178 -240q-58 -143 -58 -295q0 -139 49 -233q50 -95 136 -142t196 -47q172 0 295 97zM1354 1188h-31l117 368h37z" />
    <glyph glyph-name="Dcroat" unicode="&#x110;" horiz-adv-x="1628" 
d="M948 1556l-2 -4q197 0 332 -69q139 -71 213 -207t74 -332q0 -212 -99 -430q-100 -221 -311 -367q-211 -147 -534 -147h-494l168 788h-195l9 35h192l156 733h491zM623 35l-2 -4q288 0 491 135q200 133 303 344t103 430q0 284 -150 428q-151 145 -430 145h-449l-147 -694
h477l-8 -35h-475l-160 -749h447z" />
    <glyph glyph-name="dcroat" unicode="&#x111;" horiz-adv-x="1282" 
d="M1423 1352l-10 -29h-168l-278 -1319h-39l53 256q-64 -119 -182 -199q-116 -79 -287 -79q-116 0 -207 49q-93 50 -147 147q-56 100 -56 244q0 166 66 326q65 157 197 256q131 98 321 98q122 0 207 -55t135 -142t59 -174l125 588h-219l6 33h222l43 204h39l-43 -204h163z
M813 111l-2 -2q119 94 178 239q60 148 60 295q0 139 -50 234q-49 95 -135 141q-86 47 -196 47q-176 0 -295 -94q-118 -93 -178 -240q-58 -143 -58 -295q0 -139 49 -233q50 -95 136 -142t196 -47q172 0 295 97z" />
    <glyph glyph-name="Emacron" unicode="&#x112;" horiz-adv-x="1298" 
d="M1382 1556l-8 -38h-882l-146 -691h862l-8 -39h-862l-160 -749h899l-8 -39h-942l330 1556h925zM1294 1802h-647l8 35h648z" />
    <glyph glyph-name="emacron" unicode="&#x113;" horiz-adv-x="1167" 
d="M156 539l-6 8q-9 -49 -9 -107q0 -139 49 -233q50 -95 132 -141q85 -48 190 -48q98 0 182 37q87 38 154 105t108 157h41q-45 -102 -123 -180q-76 -76 -172 -117q-93 -40 -196 -40q-110 0 -201 49q-93 50 -147 147q-56 100 -56 244q0 165 66 325q65 157 197 256t321 99
q117 0 203 -51q89 -53 139 -148q49 -94 49 -221q0 -62 -18 -141h-903zM416 1004l-2 -5q-109 -66 -174 -178q-64 -111 -88 -241h866q10 72 10 110q0 112 -43 197t-123 135q-79 49 -188 49q-148 0 -258 -67zM1022 1380h-606l8 33h606z" />
    <glyph glyph-name="Ebreve" unicode="&#x114;" horiz-adv-x="1298" 
d="M1382 1556l-8 -38h-882l-146 -691h862l-8 -39h-862l-160 -749h899l-8 -39h-942l330 1556h925zM791 1737h-11q-55 49 -55 133q0 38 8 65h35q-8 -27 -8 -63q0 -70 47 -111q45 -39 133 -39q95 0 166 56t92 157h35q-21 -112 -98 -180q-76 -67 -191 -67q-98 0 -153 49z" />
    <glyph glyph-name="ebreve" unicode="&#x115;" horiz-adv-x="1167" 
d="M156 539l-6 8q-9 -49 -9 -107q0 -139 49 -233q50 -95 132 -141q85 -48 190 -48q98 0 182 37q87 38 154 105t108 157h41q-45 -102 -123 -180q-76 -76 -172 -117q-93 -40 -196 -40q-110 0 -201 49q-93 50 -147 147q-56 100 -56 244q0 165 66 325q65 157 197 256t321 99
q117 0 203 -51q89 -53 139 -148q49 -94 49 -221q0 -62 -18 -141h-903zM416 1004l-2 -5q-109 -66 -174 -178q-64 -111 -88 -241h866q10 72 10 110q0 112 -43 197t-123 135q-79 49 -188 49q-148 0 -258 -67zM541 1313l4 2q-53 59 -53 155q0 29 10 91h33q-11 -68 -11 -91
q0 -87 43 -133q44 -47 133 -47q108 0 179 74t98 195h33q-27 -137 -109 -222q-79 -82 -209 -82q-99 0 -151 58z" />
    <glyph glyph-name="Edotaccent" unicode="&#x116;" horiz-adv-x="1298" 
d="M1382 1556l-8 -38h-882l-146 -691h862l-8 -39h-862l-160 -749h899l-8 -39h-942l330 1556h925zM969 1694h-43l51 241h43z" />
    <glyph glyph-name="edotaccent" unicode="&#x117;" horiz-adv-x="1167" 
d="M156 539l-6 8q-9 -49 -9 -107q0 -139 49 -233q50 -95 132 -141q85 -48 190 -48q98 0 182 37q87 38 154 105t108 157h41q-45 -102 -123 -180q-76 -76 -172 -117q-93 -40 -196 -40q-110 0 -201 49q-93 50 -147 147q-56 100 -56 244q0 165 66 325q65 157 197 256t321 99
q117 0 203 -51q89 -53 139 -148q49 -94 49 -221q0 -62 -18 -141h-903zM416 1004l-2 -5q-109 -66 -174 -178q-64 -111 -88 -241h866q10 72 10 110q0 112 -43 197t-123 135q-79 49 -188 49q-148 0 -258 -67zM725 1317h-39l51 242h39z" />
    <glyph glyph-name="Eogonek" unicode="&#x118;" horiz-adv-x="1298" 
d="M1374 1518l-882 4l-146 -691h862l-8 -38h-862l-160 -750h899l-8 -39q-105 -54 -168 -117q-61 -61 -61 -141q0 -111 127 -111h22l-8 -34h-23q-64 0 -110 37q-45 36 -45 102q0 82 59 147q57 62 164 113h-899l330 1556h925z" />
    <glyph glyph-name="eogonek" unicode="&#x119;" horiz-adv-x="1167" 
d="M156 539l-9 4q-8 -44 -8 -107q0 -139 49 -233q51 -97 131 -142q83 -47 191 -47q98 0 182 37q87 38 154 105t108 157h41q-36 -79 -86 -141t-116 -106q-95 -65 -154 -111q-53 -42 -92 -96q-37 -52 -37 -113q0 -57 35 -84q37 -29 92 -29h25l-7 -32h-24q-69 0 -111 39
q-43 40 -43 100q0 77 49 141q46 59 140 125q-71 -26 -160 -26q-110 0 -201 49q-93 50 -147 147q-56 100 -56 244q0 165 66 325q65 157 197 256t321 99q117 0 203 -51q89 -53 139 -148q49 -94 49 -221q0 -62 -18 -141h-903zM414 999l-2 -4q-109 -66 -174 -178
q-64 -110 -88 -242h866q10 72 10 111q0 112 -43 197t-123 135q-79 49 -188 49q-146 0 -258 -68z" />
    <glyph glyph-name="Ecaron" unicode="&#x11a;" horiz-adv-x="1298" 
d="M1382 1556l-8 -38h-882l-146 -691h862l-8 -39h-862l-160 -749h899l-8 -39h-942l330 1556h925zM946 1716l318 219h45l-330 -241h-64l-235 241h37z" />
    <glyph glyph-name="ecaron" unicode="&#x11b;" horiz-adv-x="1167" 
d="M156 539l-6 8q-9 -49 -9 -107q0 -139 49 -233q50 -95 132 -141q85 -48 190 -48q98 0 182 37q87 38 154 105t108 157h41q-45 -102 -123 -180q-76 -76 -172 -117q-93 -40 -196 -40q-110 0 -201 49q-93 50 -147 147q-56 100 -56 244q0 165 66 325q65 157 197 256t321 99
q117 0 203 -51q89 -53 139 -148q49 -94 49 -221q0 -62 -18 -141h-903zM416 1004l-2 -5q-109 -66 -174 -178q-64 -111 -88 -241h866q10 72 10 110q0 112 -43 197t-123 135q-79 49 -188 49q-148 0 -258 -67zM692 1284l338 275h43l-352 -299h-55l-226 299h35z" />
    <glyph glyph-name="Gcircumflex" unicode="&#x11c;" horiz-adv-x="1695" 
d="M858 733l12 37h709l-164 -772h-43l98 467q-92 -212 -264 -350q-175 -140 -426 -140q-172 0 -313 72q-136 70 -217 213q-80 142 -80 340q0 254 102 479q103 227 295 361q194 135 455 135q152 0 272 -57q125 -60 203 -168q82 -114 105 -260h-46q-40 217 -184 331
q-145 115 -362 115q-240 0 -420 -131q-182 -132 -277 -348q-96 -218 -96 -461q0 -182 74 -315q72 -130 201 -199q127 -68 288 -68q184 0 338 92q151 91 258 252q106 160 146 365l2 10h-666zM1100 1933l235 -241h-37l-229 219l-317 -219h-45l329 241h64z" />
    <glyph glyph-name="gcircumflex" unicode="&#x11d;" horiz-adv-x="1284" 
d="M1167 1077l33 6l-239 -1130q-37 -172 -164 -272q-126 -99 -336 -99q-131 0 -221 43q-94 45 -146 123q-53 80 -65 189h41q18 -156 120 -238q104 -84 277 -84q189 0 307 92q115 90 150 252l69 334q-65 -127 -184 -209t-291 -82q-114 0 -205 49q-92 50 -147 148t-55 237
q0 167 65 318t197 250q131 98 321 98q122 0 207 -55t135 -138q51 -85 60 -172zM819 133l-2 -4q118 93 178 240q60 148 60 295q0 134 -49 225q-48 89 -136 137q-83 45 -196 45q-174 0 -295 -92q-118 -90 -178 -234q-58 -140 -58 -290q0 -133 50 -228q49 -95 135 -141
q86 -47 196 -47q176 0 295 94zM801 1559l225 -299h-35l-217 274l-338 -274h-43l352 299h56z" />
    <glyph glyph-name="Gbreve" unicode="&#x11e;" horiz-adv-x="1695" 
d="M858 733l12 37h709l-164 -772h-43l98 467q-92 -212 -264 -350q-175 -140 -426 -140q-172 0 -313 72q-136 70 -217 213q-80 142 -80 340q0 254 102 479q103 227 295 361q194 135 455 135q152 0 272 -57q125 -60 203 -168q82 -114 105 -260h-46q-40 217 -184 331
q-145 115 -362 115q-240 0 -420 -131q-182 -132 -277 -348q-96 -218 -96 -461q0 -182 74 -315q72 -130 201 -199q127 -68 288 -68q184 0 338 92q151 91 258 252q106 160 146 365l2 10h-666zM860 1735h-10q-55 49 -55 133q0 38 8 65h35q-9 -30 -9 -63q0 -69 48 -111
q45 -39 133 -39q95 0 166 56t92 157h35q-20 -111 -99 -180q-76 -67 -190 -67q-99 0 -154 49z" />
    <glyph glyph-name="gbreve" unicode="&#x11f;" horiz-adv-x="1284" 
d="M1167 1077l33 6l-239 -1130q-37 -172 -164 -272q-126 -99 -336 -99q-131 0 -221 43q-94 45 -146 123q-53 80 -65 189h41q18 -156 120 -238q104 -84 277 -84q189 0 307 92q115 90 150 252l69 334q-65 -127 -184 -209t-291 -82q-114 0 -205 49q-92 50 -147 148t-55 237
q0 167 65 318t197 250q131 98 321 98q122 0 207 -55t135 -138q51 -85 60 -172zM819 133l-2 -4q118 93 178 240q60 148 60 295q0 134 -49 225q-48 89 -136 137q-83 45 -196 45q-174 0 -295 -92q-118 -90 -178 -234q-58 -140 -58 -290q0 -133 50 -228q49 -95 135 -141
q86 -47 196 -47q176 0 295 94zM555 1313l4 2q-53 59 -53 155q0 29 10 91h33q-10 -62 -10 -91q0 -87 43 -133q44 -47 133 -47q107 0 178 74t98 195h33q-27 -137 -109 -222q-79 -82 -208 -82q-100 0 -152 58z" />
    <glyph glyph-name="Gdotaccent" unicode="&#x120;" horiz-adv-x="1695" 
d="M858 733l12 37h709l-164 -772h-43l98 467q-92 -212 -264 -350q-175 -140 -426 -140q-172 0 -313 72q-136 70 -217 213q-80 142 -80 340q0 254 102 479q103 227 295 361q194 135 455 135q152 0 272 -57q125 -60 203 -168q82 -114 105 -260h-46q-40 217 -184 331
q-145 115 -362 115q-240 0 -420 -131q-182 -132 -277 -348q-96 -218 -96 -461q0 -182 74 -315q72 -130 201 -199q127 -68 288 -68q184 0 338 92q151 91 258 252q106 160 146 365l2 10h-666zM1038 1692h-43l52 241h43z" />
    <glyph glyph-name="gdotaccent" unicode="&#x121;" horiz-adv-x="1284" 
d="M1167 1077l33 6l-239 -1130q-37 -172 -164 -272q-126 -99 -336 -99q-131 0 -221 43q-94 45 -146 123q-53 80 -65 189h41q18 -156 120 -238q104 -84 277 -84q189 0 307 92q115 90 150 252l69 334q-65 -127 -184 -209t-291 -82q-114 0 -205 49q-92 50 -147 148t-55 237
q0 167 65 318t197 250q131 98 321 98q122 0 207 -55t135 -138q51 -85 60 -172zM819 133l-2 -4q118 93 178 240q60 148 60 295q0 134 -49 225q-48 89 -136 137q-83 45 -196 45q-174 0 -295 -92q-118 -90 -178 -234q-58 -140 -58 -290q0 -133 50 -228q49 -95 135 -141
q86 -47 196 -47q176 0 295 94zM739 1317h-39l52 242h39z" />
    <glyph glyph-name="uni0122" unicode="&#x122;" horiz-adv-x="1695" 
d="M858 733l12 37h709l-164 -772h-43l98 467q-92 -212 -264 -350q-175 -140 -426 -140q-172 0 -313 72q-136 70 -217 213q-80 142 -80 340q0 254 102 479q103 227 295 361q194 135 455 135q152 0 272 -57q125 -60 203 -168q82 -114 105 -260h-46q-40 217 -184 331
q-145 115 -362 115q-240 0 -420 -131q-182 -132 -277 -348q-96 -218 -96 -461q0 -182 74 -315q72 -130 201 -199q127 -68 288 -68q184 0 338 92q151 91 258 252q106 160 146 365l2 10h-666zM713 -395l49 233h43l-51 -241l-99 -140h-47z" />
    <glyph glyph-name="uni0123" unicode="&#x123;" horiz-adv-x="1284" 
d="M1167 1077l33 6l-239 -1130q-37 -172 -164 -272q-126 -99 -336 -99q-131 0 -221 43q-94 45 -146 123q-53 80 -65 189h41q18 -156 120 -238q104 -84 277 -84q189 0 307 92q115 90 150 252l69 334q-65 -127 -184 -209t-291 -82q-114 0 -205 49q-92 50 -147 148t-55 237
q0 167 65 318t197 250q131 98 321 98q122 0 207 -55t135 -138q51 -85 60 -172zM819 133l-2 -4q118 93 178 240q60 148 60 295q0 134 -49 225q-48 89 -136 137q-83 45 -196 45q-174 0 -295 -92q-118 -90 -178 -234q-58 -140 -58 -290q0 -133 50 -228q49 -95 135 -141
q86 -47 196 -47q176 0 295 94zM850 1698h43l-105 -148l-49 -233h-39l52 242z" />
    <glyph glyph-name="Hcircumflex" unicode="&#x124;" horiz-adv-x="1615" 
d="M1395 827l153 729h43l-329 -1556h-43l167 788h-1048l-168 -788h-43l330 1556h43l-154 -729h1049zM1120 1935l236 -241h-37l-229 219l-318 -219h-45l330 241h63z" />
    <glyph glyph-name="hcircumflex" unicode="&#x125;" horiz-adv-x="1173" 
d="M885 1059l2 -4q69 -40 110 -111q39 -68 39 -166q0 -39 -2 -55q-4 -34 -8 -51l-143 -674h-39l141 664q12 62 12 110q0 143 -75 215q-77 74 -211 74q-93 0 -185 -47q-96 -49 -164 -137q-71 -92 -98 -218l-141 -663h-39l330 1556h39l-152 -712q73 123 184 190q112 68 234 68
q98 0 166 -39zM520 1929l236 -241h-37l-230 219l-317 -219h-45l330 241h63z" />
    <glyph glyph-name="Hbar" unicode="&#x126;" horiz-adv-x="1615" 
d="M1518 1204h227l-8 -35h-228l-247 -1169h-43l167 788h-1048l-168 -788h-43l248 1169h-230l9 35h229l74 352h43l-74 -352h1049l73 352h43zM346 827h1049l71 342h-1048z" />
    <glyph glyph-name="hbar" unicode="&#x127;" horiz-adv-x="1173" 
d="M885 1059l2 -4q69 -40 110 -111q39 -68 39 -166q0 -39 -2 -55q-4 -34 -8 -51l-143 -674h-39l141 664q12 62 12 110q0 143 -75 215q-77 74 -211 74q-93 0 -185 -47q-96 -49 -164 -137q-71 -92 -98 -218l-141 -663h-39l278 1319h-163l6 33h166l43 204h39l-43 -204h219
l-4 -33h-224l-100 -475q73 123 184 190q112 68 234 68q98 0 166 -39z" />
    <glyph glyph-name="Itilde" unicode="&#x128;" horiz-adv-x="524" 
d="M170 0h-43l330 1556h43zM221 1755l-10 -2q27 55 84 86t104 31q39 0 72 -10q27 -8 68 -31q26 -16 55 -25q27 -8 63 -8q44 0 84 19t66 61h31q-27 -56 -80 -86q-54 -31 -105 -31q-36 0 -69 10q-24 7 -70 31q-65 35 -117 35q-45 0 -82 -18q-35 -17 -63 -62h-31z" />
    <glyph glyph-name="itilde" unicode="&#x129;" horiz-adv-x="430" 
d="M119 0h-39l229 1077h39zM80 1331v-6q31 61 82 90q54 31 100 31q36 0 66 -12q28 -11 67 -33q26 -15 54 -25q21 -8 53 -8q42 0 80 23q33 20 61 65h31q-30 -58 -82 -88q-54 -31 -100 -31q-34 0 -66 13q-26 10 -68 34q-28 16 -53 25q-27 10 -53 10q-44 0 -80 -22
q-32 -20 -61 -66h-31z" />
    <glyph glyph-name="Imacron" unicode="&#x12a;" horiz-adv-x="524" 
d="M170 0h-43l330 1556h43zM854 1802h-647l8 35h647z" />
    <glyph glyph-name="imacron" unicode="&#x12b;" horiz-adv-x="430" 
d="M119 0h-39l229 1077h39zM680 1378h-606l8 33h606z" />
    <glyph glyph-name="Ibreve" unicode="&#x12c;" horiz-adv-x="524" 
d="M170 0h-43l330 1556h43zM350 1737h-10q-55 49 -55 133q0 38 8 65h35q-9 -30 -9 -63q0 -69 48 -111q45 -39 133 -39q95 0 166 56t92 157h35q-20 -111 -99 -180q-76 -67 -190 -67q-99 0 -154 49z" />
    <glyph glyph-name="ibreve" unicode="&#x12d;" horiz-adv-x="430" 
d="M119 0h-39l229 1077h39zM199 1311l4 2q-53 59 -53 155q0 29 10 91h33q-11 -68 -11 -91q0 -87 43 -133q44 -47 133 -47q108 0 179 74t98 194h33q-26 -135 -109 -221q-79 -82 -209 -82q-99 0 -151 58z" />
    <glyph glyph-name="Iogonek" unicode="&#x12e;" horiz-adv-x="524" 
d="M170 0h-43l330 1556h43zM61 -401v4q-64 0 -110 37q-45 36 -45 102q0 82 59 147q57 62 164 113h43q-105 -54 -168 -117q-61 -61 -61 -141q0 -111 127 -111h22l-8 -34h-23z" />
    <glyph glyph-name="iogonek" unicode="&#x12f;" horiz-adv-x="430" 
d="M360 1315l52 241h39l-52 -241h-39zM309 1077l33 4l-229 -1077q-109 -56 -170 -117q-62 -62 -62 -141q0 -59 37 -86q38 -27 96 -27h21l-6 -32h-23q-64 0 -110 37t-46 102q0 82 62 147q61 64 168 113z" />
    <glyph glyph-name="Idotaccent" unicode="&#x130;" horiz-adv-x="524" 
d="M170 0h-43l330 1556h43zM528 1694h-43l52 241h43z" />
    <glyph glyph-name="dotlessi" unicode="&#x131;" horiz-adv-x="430" 
d="M119 0h-39l229 1077h39z" />
    <glyph glyph-name="Jcircumflex" unicode="&#x134;" horiz-adv-x="684" 
d="M-61 0l10 37h88q85 0 147 18q60 18 105 72q43 52 61 141l273 1286h43l-275 -1294q-30 -143 -123 -203q-89 -57 -241 -57h-88zM762 1933l235 -241h-36l-230 219l-317 -219h-45l329 241h64z" />
    <glyph glyph-name="jcircumflex" unicode="&#x135;" horiz-adv-x="430" 
d="M-250 -401l6 34h33q113 0 176 60q61 58 82 147l262 1237h39l-264 -1247q-21 -100 -96 -166q-74 -65 -193 -65h-45zM442 1556l226 -299h-35l-217 275l-338 -275h-43l352 299h55z" />
    <glyph glyph-name="uni0136" unicode="&#x136;" horiz-adv-x="1368" 
d="M1450 1556h74l-1116 -739l854 -817h-60l-858 821l-174 -821h-43l330 1556h43l-156 -731zM524 -393l49 233h43l-51 -241l-98 -140h-47z" />
    <glyph glyph-name="uni0137" unicode="&#x137;" horiz-adv-x="983" 
d="M1001 1077h66l-766 -481l559 -596h-51l-561 598l-127 -598h-39l330 1556h39l-201 -950zM356 -393l50 233h38l-51 -241l-98 -140h-43z" />
    <glyph glyph-name="kgreenlandic" unicode="&#x138;" horiz-adv-x="976" 
d="M995 1077h64l-768 -504l565 -573h-51l-563 571l-123 -571h-39l229 1077h39l-104 -495z" />
    <glyph glyph-name="Lacute" unicode="&#x139;" horiz-adv-x="1052" 
d="M500 1556l-322 -1517h735l-8 -39h-778l330 1556h43zM539 1694h-47l323 241h55z" />
    <glyph glyph-name="lacute" unicode="&#x13a;" horiz-adv-x="430" 
d="M121 0h-39l330 1556h39zM494 1694h-48l324 241h55z" />
    <glyph glyph-name="uni013B" unicode="&#x13b;" horiz-adv-x="1052" 
d="M500 1556l-322 -1517h735l-8 -39h-778l330 1556h43zM414 -393l49 233h43l-51 -241l-99 -140h-47z" />
    <glyph glyph-name="uni013C" unicode="&#x13c;" horiz-adv-x="430" 
d="M121 0h-39l330 1556h39zM-2 -393l49 233h39l-51 -241l-98 -140h-43z" />
    <glyph glyph-name="Lcaron" unicode="&#x13d;" horiz-adv-x="1052" 
d="M500 1556l-322 -1517h735l-8 -39h-778l330 1556h43zM739 1085h-34l161 474h41z" />
    <glyph glyph-name="lcaron" unicode="&#x13e;" horiz-adv-x="430" 
d="M121 0h-39l330 1556h39zM510 1188h-31l117 368h37z" />
    <glyph glyph-name="Ldot" unicode="&#x13f;" horiz-adv-x="1075" 
d="M500 1556l-322 -1517h735l-8 -39h-778l330 1556h43zM854 739h-39l49 232h39z" />
    <glyph glyph-name="ldot" unicode="&#x140;" horiz-adv-x="432" 
d="M121 0h-39l330 1556h39zM481 682h-39l50 231h38z" />
    <glyph glyph-name="Lslash" unicode="&#x141;" horiz-adv-x="1052" 
d="M324 725l-146 -686h735l-8 -39h-778l147 698l-204 -110l10 45l205 110l172 813h43l-166 -788l440 238l-10 -45z" />
    <glyph glyph-name="lslash" unicode="&#x142;" horiz-adv-x="430" 
d="M293 811l229 133l-10 -45l-229 -133l-162 -766h-39l158 739l-185 -106l11 45l182 106l164 772h39z" />
    <glyph glyph-name="Nacute" unicode="&#x143;" horiz-adv-x="1703" 
d="M170 0h-43l330 1556h43zM1266 0h-45l-680 1556h45zM1350 0h-43l329 1556h43zM1075 1694h-47l324 241h55z" />
    <glyph glyph-name="nacute" unicode="&#x144;" horiz-adv-x="1171" 
d="M883 1059v-4q69 -40 110 -111q39 -68 39 -166q0 -39 -2 -55q-4 -34 -8 -51l-143 -674h-39l141 664q12 62 12 110q0 143 -75 215q-77 74 -211 74q-93 0 -185 -47q-96 -49 -164 -137q-71 -92 -98 -218l-141 -663h-39l229 1077h39l-49 -231q74 121 184 188q112 68 234 68
q98 0 166 -39zM700 1251h-43l326 299h51z" />
    <glyph glyph-name="uni0145" unicode="&#x145;" horiz-adv-x="1703" 
d="M170 0h-43l330 1556h43zM1266 0h-45l-680 1556h45zM1350 0h-43l329 1556h43zM616 -393l50 233h43l-52 -241l-98 -140h-47z" />
    <glyph glyph-name="uni0146" unicode="&#x146;" horiz-adv-x="1171" 
d="M883 1059v-4q69 -40 110 -111q39 -68 39 -166q0 -39 -2 -55q-4 -34 -8 -51l-143 -674h-39l141 664q12 62 12 110q0 143 -75 215q-77 74 -211 74q-93 0 -185 -47q-96 -49 -164 -137q-71 -92 -98 -218l-141 -663h-39l229 1077h39l-49 -231q74 121 184 188q112 68 234 68
q98 0 166 -39zM414 -399l49 233h39l-51 -242l-99 -139h-43z" />
    <glyph glyph-name="Ncaron" unicode="&#x147;" horiz-adv-x="1703" 
d="M170 0h-43l330 1556h43zM1266 0h-45l-680 1556h45zM1350 0h-43l329 1556h43zM1104 1716l317 219h45l-329 -241h-64l-235 241h36z" />
    <glyph glyph-name="ncaron" unicode="&#x148;" horiz-adv-x="1171" 
d="M883 1059v-4q69 -40 110 -111q39 -68 39 -166q0 -39 -2 -55q-4 -34 -8 -51l-143 -674h-39l141 664q12 62 12 110q0 143 -75 215q-77 74 -211 74q-93 0 -185 -47q-96 -49 -164 -137q-71 -92 -98 -218l-141 -663h-39l229 1077h39l-49 -231q74 121 184 188q112 68 234 68
q98 0 166 -39zM711 1276l338 274h43l-353 -299h-55l-225 299h35z" />
    <glyph glyph-name="Eng" unicode="&#x14a;" horiz-adv-x="1703" 
d="M170 0h-43l330 1556h43zM586 1556l680 -1556h-45l-680 1556h45zM1636 1556h43l-329 -1556l-29 -139q-30 -144 -125 -203t-246 -59h-88l8 39h88q132 0 211 49q82 51 109 182l29 131z" />
    <glyph glyph-name="eng" unicode="&#x14b;" horiz-adv-x="1171" 
d="M883 1059v-4q69 -40 110 -111q39 -68 39 -166q0 -39 -2 -55q-4 -34 -8 -51l-143 -674h-39l141 664q12 62 12 110q0 143 -75 215q-77 74 -211 74q-93 0 -185 -47q-96 -49 -164 -137q-71 -92 -98 -218l-141 -663h-39l229 1077h39l-49 -231q74 121 184 188q112 68 234 68
q98 0 166 -39zM510 -408l8 35h33q113 0 176 60q62 59 80 147l33 160h39l-35 -170q-12 -65 -49 -117q-39 -55 -99 -84q-64 -31 -141 -31h-45z" />
    <glyph glyph-name="Omacron" unicode="&#x14c;" horiz-adv-x="1716" 
d="M463 49q-136 70 -217 213q-80 142 -80 342q0 258 106 479q108 226 308 361t460 135q173 0 314 -72q136 -70 217 -213q80 -142 80 -342q0 -256 -107 -479q-108 -226 -307 -360q-201 -136 -461 -136q-172 0 -313 72zM1214 145l-4 -2q185 129 287 344t102 465q0 191 -73 322
t-203 196q-132 66 -301 66q-240 0 -424 -129q-182 -127 -285 -344q-100 -210 -100 -463q0 -188 74 -321t202 -197q132 -66 302 -66q239 0 423 129zM1413 1798h-647l8 35h647z" />
    <glyph glyph-name="omacron" unicode="&#x14d;" horiz-adv-x="1204" 
d="M309 27l-2 -4q-93 50 -147 147q-56 100 -56 244q0 165 66 325q65 157 197 256t321 99q115 0 207 -50q93 -50 147 -147q56 -100 56 -242q0 -170 -64 -325t-196 -254t-322 -99q-115 0 -207 50zM817 102l-2 -6q118 93 178 244t60 305q0 132 -49 223q-51 94 -136 140
q-86 47 -196 47q-176 0 -295 -94q-118 -93 -178 -244q-58 -146 -58 -305q0 -133 49 -224q48 -89 136 -137q83 -45 196 -45q173 0 295 96zM1059 1366h-606l8 33h606z" />
    <glyph glyph-name="Obreve" unicode="&#x14e;" horiz-adv-x="1716" 
d="M463 49q-136 70 -217 213q-80 142 -80 342q0 258 106 479q108 226 308 361t460 135q173 0 314 -72q136 -70 217 -213q80 -142 80 -342q0 -256 -107 -479q-108 -226 -307 -360q-201 -136 -461 -136q-172 0 -313 72zM1214 145l-4 -2q185 129 287 344t102 465q0 191 -73 322
t-203 196q-132 66 -301 66q-240 0 -424 -129q-182 -127 -285 -344q-100 -210 -100 -463q0 -188 74 -321t202 -197q132 -66 302 -66q239 0 423 129zM909 1733h-10q-55 49 -55 133q0 38 8 65h35q-8 -27 -8 -63q0 -70 47 -111q45 -39 133 -39q95 0 166 56t92 157h35
q-20 -111 -99 -180q-77 -68 -190 -68q-98 0 -154 50z" />
    <glyph glyph-name="obreve" unicode="&#x14f;" horiz-adv-x="1204" 
d="M309 27l-2 -4q-93 50 -147 147q-56 100 -56 244q0 165 66 325q65 157 197 256t321 99q115 0 207 -50q93 -50 147 -147q56 -100 56 -242q0 -170 -64 -325t-196 -254t-322 -99q-115 0 -207 50zM817 102l-2 -6q118 93 178 244t60 305q0 132 -49 223q-51 94 -136 140
q-86 47 -196 47q-176 0 -295 -94q-118 -93 -178 -244q-58 -146 -58 -305q0 -133 49 -224q48 -89 136 -137q83 -45 196 -45q173 0 295 96zM578 1298l4 2q-54 60 -54 156q0 22 11 90h32q-10 -62 -10 -90q0 -87 43 -133q44 -47 133 -47q107 0 178 74q72 75 99 194h33
q-26 -135 -109 -221q-79 -82 -209 -82q-100 0 -151 57z" />
    <glyph glyph-name="Ohungarumlaut" unicode="&#x150;" horiz-adv-x="1716" 
d="M463 49q-136 70 -217 213q-80 142 -80 342q0 258 106 479q108 226 308 361t460 135q173 0 314 -72q136 -70 217 -213q80 -142 80 -342q0 -256 -107 -479q-108 -226 -307 -360q-201 -136 -461 -136q-172 0 -313 72zM1214 145l-4 -2q185 129 287 344t102 465q0 191 -73 322
t-203 196q-132 66 -301 66q-240 0 -424 -129q-182 -127 -285 -344q-100 -210 -100 -463q0 -188 74 -321t202 -197q132 -66 302 -66q239 0 423 129zM897 1690h-51l340 241h57zM1167 1690h-51l340 241h57z" />
    <glyph glyph-name="ohungarumlaut" unicode="&#x151;" horiz-adv-x="1204" 
d="M309 27l-2 -4q-93 50 -147 147q-56 100 -56 244q0 165 66 325q65 157 197 256t321 99q115 0 207 -50q93 -50 147 -147q56 -100 56 -242q0 -170 -64 -325t-196 -254t-322 -99q-115 0 -207 50zM817 102l-2 -6q118 93 178 244t60 305q0 132 -49 223q-51 94 -136 140
q-86 47 -196 47q-176 0 -295 -94q-118 -93 -178 -244q-58 -146 -58 -305q0 -133 49 -224q48 -89 136 -137q83 -45 196 -45q173 0 295 96zM594 1245h-43l336 299h53zM864 1245h-43l336 299h53z" />
    <glyph glyph-name="OE" unicode="&#x152;" horiz-adv-x="2287" 
d="M1481 1518l-152 -697h862l-8 -39h-862l-160 -749h899l-8 -39h-1257q-175 0 -320 80t-227 223q-84 147 -84 332q0 255 125 465q127 213 346 338q217 124 493 124h1244l-9 -38h-882zM1118 33l312 1474h-320q-260 0 -465 -123q-208 -124 -323 -327q-117 -206 -117 -445
q0 -174 80 -307q79 -132 219 -203q135 -69 301 -69h313z" />
    <glyph glyph-name="oe" unicode="&#x153;" horiz-adv-x="2103" 
d="M1092 539l-2 6q-9 -49 -9 -107q0 -139 49 -233q50 -96 132 -142q83 -47 190 -47q98 0 182 37q87 38 154 105t108 157h41q-46 -104 -122 -180q-75 -75 -173 -117q-96 -41 -196 -41q-104 0 -191 43t-147 130q-58 85 -70 212q-64 -171 -196 -276q-131 -104 -330 -104
q-116 0 -207 49q-93 50 -147 147q-56 100 -56 244q0 166 66 326q65 157 197 256q131 98 321 98q110 0 197 -43q90 -44 145 -129q56 -86 68 -211q64 171 196 276t330 105q117 0 203 -51q89 -53 139 -148q49 -94 49 -221q0 -62 -18 -141h-903zM817 113l-2 -7q118 93 178 244
t60 305q0 133 -49 224q-50 92 -136 139t-196 47q-176 0 -295 -94q-118 -93 -178 -244q-58 -146 -58 -305q0 -132 49 -223t136 -138q83 -45 196 -45q172 0 295 97zM1354 995l-2 -4q-109 -66 -174 -178q-64 -110 -88 -242h866q10 72 10 111q0 112 -43 197t-123 135
q-79 49 -188 49q-146 0 -258 -68z" />
    <glyph glyph-name="Racute" unicode="&#x154;" horiz-adv-x="1415" 
d="M1337 958l2 7q-58 -101 -174 -162q-118 -62 -284 -74l338 -725h-50l-338 723h-32h-475l-154 -723h-43l330 1557h518q127 0 221 -52q95 -53 147 -137q52 -85 52 -180q0 -133 -58 -234zM813 768l-2 -4q272 0 403 113q134 116 134 307q0 96 -43 172t-129 123q-83 45 -207 45
h-475l-160 -756h479zM883 1696h-47l323 241h55z" />
    <glyph glyph-name="racute" unicode="&#x155;" horiz-adv-x="673" 
d="M299 846h4q73 122 189 188q117 66 264 66l-8 -37h-19q-105 0 -203 -49t-168 -137q-71 -89 -98 -213l-141 -664h-39l229 1077h39zM575 1257h-43l326 299h51z" />
    <glyph glyph-name="uni0156" unicode="&#x156;" horiz-adv-x="1415" 
d="M1337 958l2 7q-58 -101 -174 -162q-118 -62 -284 -74l338 -725h-50l-338 723h-32h-475l-154 -723h-43l330 1557h518q127 0 221 -52q95 -53 147 -137q52 -85 52 -180q0 -133 -58 -234zM813 768l-2 -4q272 0 403 113q134 116 134 307q0 96 -43 172t-129 123q-83 45 -207 45
h-475l-160 -756h479zM535 -391l49 233h43l-52 -241l-98 -140h-47z" />
    <glyph glyph-name="uni0157" unicode="&#x157;" horiz-adv-x="673" 
d="M299 846h4q73 122 189 188q117 66 264 66l-8 -37h-19q-105 0 -203 -49t-168 -137q-71 -89 -98 -213l-141 -664h-39l229 1077h39zM2 -393l49 233h39l-51 -241l-98 -140h-43z" />
    <glyph glyph-name="Rcaron" unicode="&#x158;" horiz-adv-x="1415" 
d="M1337 958l2 7q-58 -101 -174 -162q-118 -62 -284 -74l338 -725h-50l-338 723h-32h-475l-154 -723h-43l330 1557h518q127 0 221 -52q95 -53 147 -137q52 -85 52 -180q0 -133 -58 -234zM813 768l-2 -4q272 0 403 113q134 116 134 307q0 96 -43 172t-129 123q-83 45 -207 45
h-475l-160 -756h479zM911 1718l318 219h45l-330 -241h-63l-236 241h37z" />
    <glyph glyph-name="rcaron" unicode="&#x159;" horiz-adv-x="673" 
d="M299 846h4q73 122 189 188q117 66 264 66l-8 -37h-19q-105 0 -203 -49t-168 -137q-71 -89 -98 -213l-141 -664h-39l229 1077h39zM586 1282l338 274h43l-353 -299h-55l-225 299h35z" />
    <glyph glyph-name="Sacute" unicode="&#x15a;" horiz-adv-x="1363" 
d="M338 33l-12 -8q-115 56 -179 163t-67 252h45q9 -205 135 -319q125 -113 344 -113q149 0 277 51q133 53 215 154t82 246q0 122 -93 200q-91 76 -292 129l-152 39q-159 41 -258 123q-98 82 -98 228q0 127 73 215t197 135t264 47q141 0 252 -51q115 -53 189 -148t86 -215
h-46q-15 114 -77 197t-166 129q-106 47 -244 47t-248 -43q-109 -43 -174 -123q-63 -78 -63 -188q0 -122 90 -197t274 -121l152 -39q192 -50 286 -135q97 -88 97 -219q0 -157 -90 -270q-87 -109 -234 -166q-145 -56 -301 -56q-149 0 -264 56zM797 1683h-47l323 242h55z" />
    <glyph glyph-name="sacute" unicode="&#x15b;" horiz-adv-x="1001" 
d="M242 14l-15 -4q-78 37 -131 111q-52 73 -67 182h41q12 -101 61 -168q50 -68 123 -98q76 -31 156 -31q109 0 196 37q91 39 142 104q51 66 51 156q0 60 -31 105q-30 44 -86 71q-68 33 -143 56l-99 28q-129 38 -194 92q-68 56 -68 156q0 96 55 160q54 63 142 94t174 31
q79 0 158 -31q77 -30 135 -94q60 -66 84 -160h-41q-21 90 -76 145q-57 57 -125 80q-73 25 -143 25q-83 0 -156 -27t-119 -82q-45 -54 -45 -131q0 -61 31 -106t82 -68q63 -29 129 -47l98 -29q144 -41 215 -98q74 -59 74 -160q0 -107 -62 -184q-63 -79 -159 -115
q-98 -37 -213 -37q-96 0 -174 37zM575 1251h-43l326 299h51z" />
    <glyph glyph-name="Scircumflex" unicode="&#x15c;" horiz-adv-x="1363" 
d="M338 33l-12 -8q-115 56 -179 163t-67 252h45q9 -205 135 -319q125 -113 344 -113q149 0 277 51q133 53 215 154t82 246q0 122 -93 200q-91 76 -292 129l-152 39q-159 41 -258 123q-98 82 -98 228q0 127 73 215t197 135t264 47q141 0 252 -51q115 -53 189 -148t86 -215
h-46q-15 114 -77 197t-166 129q-106 47 -244 47t-248 -43q-109 -43 -174 -123q-63 -78 -63 -188q0 -122 90 -197t274 -121l152 -39q192 -50 286 -135q97 -88 97 -219q0 -157 -90 -270q-87 -109 -234 -166q-145 -56 -301 -56q-149 0 -264 56zM909 1925l236 -242h-37l-229 220
l-318 -220h-45l330 242h63z" />
    <glyph glyph-name="scircumflex" unicode="&#x15d;" horiz-adv-x="1001" 
d="M242 14l-15 -4q-78 37 -131 111q-52 73 -67 182h41q12 -101 61 -168q50 -68 123 -98q76 -31 156 -31q109 0 196 37q91 39 142 104q51 66 51 156q0 60 -31 105q-30 44 -86 71q-68 33 -143 56l-99 28q-129 38 -194 92q-68 56 -68 156q0 96 55 160q54 63 142 94t174 31
q79 0 158 -31q77 -30 135 -94q60 -66 84 -160h-41q-21 90 -76 145q-57 57 -125 80q-73 25 -143 25q-83 0 -156 -27t-119 -82q-45 -54 -45 -131q0 -61 31 -106t82 -68q63 -29 129 -47l98 -29q144 -41 215 -98q74 -59 74 -160q0 -107 -62 -184q-63 -79 -159 -115
q-98 -37 -213 -37q-96 0 -174 37zM680 1550l225 -299h-35l-217 275l-338 -275h-43l353 299h55z" />
    <glyph glyph-name="Scedilla" unicode="&#x15e;" horiz-adv-x="1363" 
d="M567 1495l-14 -14q-109 -43 -174 -123q-64 -79 -64 -189q0 -120 91 -196q90 -75 274 -121l151 -39q193 -50 287 -135q96 -87 96 -219q0 -154 -86 -266q-84 -109 -225 -166q-142 -57 -295 -60l-18 -78q53 -3 92 -36t39 -86q0 -47 -25 -89q-23 -40 -71 -61
q-51 -23 -109 -23h-49l6 33h49q79 0 121 39q43 40 43 105q0 42 -31 67t-75 25h-31l24 110q-142 3 -254 62t-172 162q-62 106 -65 247h45q9 -205 135 -319q125 -113 344 -113q149 0 277 51q133 53 215 154t82 246q0 123 -93 201q-91 76 -292 129l-152 38q-159 41 -258 123
q-98 82 -98 228q0 127 73 215t197 135t264 47q141 0 252 -51q115 -53 189 -148t86 -215h-45q-15 112 -78 197q-62 83 -166 129q-106 47 -244 47t-248 -43z" />
    <glyph glyph-name="scedilla" unicode="&#x15f;" horiz-adv-x="1001" 
d="M391 1036l-18 -10q-73 -27 -119 -82q-45 -54 -45 -131q0 -61 31 -106t82 -68q63 -29 129 -47l98 -29q144 -41 215 -98q74 -59 74 -160q0 -107 -62 -184q-63 -78 -160 -115q-98 -37 -213 -37h-8l-18 -80q53 -3 92 -36t39 -86q0 -47 -25 -89q-23 -40 -71 -61
q-51 -23 -107 -23h-49l6 31h49q77 0 121 41q43 40 43 105q0 42 -31 67t-75 25h-31l24 112q-81 9 -153 50t-117 110q-45 68 -57 170h41q12 -101 61 -168q50 -68 123 -98q76 -31 156 -31q109 0 196 37q90 38 142 105q51 66 51 155q0 60 -31 105q-30 44 -86 71q-68 33 -143 56
l-99 28q-129 38 -194 92q-68 56 -68 156q0 95 56 160q55 64 141 94q88 31 174 31q79 0 158 -31q77 -30 135 -94q60 -66 84 -160h-41q-21 90 -76 145q-57 57 -125 80q-73 25 -143 25q-83 0 -156 -27z" />
    <glyph glyph-name="Scaron" unicode="&#x160;" horiz-adv-x="1363" 
d="M338 33l-12 -8q-115 56 -179 163t-67 252h45q9 -205 135 -319q125 -113 344 -113q149 0 277 51q133 53 215 154t82 246q0 122 -93 200q-91 76 -292 129l-152 39q-159 41 -258 123q-98 82 -98 228q0 127 73 215t197 135t264 47q141 0 252 -51q115 -53 189 -148t86 -215
h-46q-15 114 -77 197t-166 129q-106 47 -244 47t-248 -43q-109 -43 -174 -123q-63 -78 -63 -188q0 -122 90 -197t274 -121l152 -39q192 -50 286 -135q97 -88 97 -219q0 -157 -90 -270q-87 -109 -234 -166q-145 -56 -301 -56q-149 0 -264 56zM825 1706l318 219h45l-330 -242
h-63l-236 242h37z" />
    <glyph glyph-name="scaron" unicode="&#x161;" horiz-adv-x="1001" 
d="M242 14l-15 -4q-78 37 -131 111q-52 73 -67 182h41q12 -101 61 -168q50 -68 123 -98q76 -31 156 -31q109 0 196 37q91 39 142 104q51 66 51 156q0 60 -31 105q-30 44 -86 71q-68 33 -143 56l-99 28q-129 38 -194 92q-68 56 -68 156q0 96 55 160q54 63 142 94t174 31
q79 0 158 -31q77 -30 135 -94q60 -66 84 -160h-41q-21 90 -76 145q-57 57 -125 80q-73 25 -143 25q-83 0 -156 -27t-119 -82q-45 -54 -45 -131q0 -61 31 -106t82 -68q63 -29 129 -47l98 -29q144 -41 215 -98q74 -59 74 -160q0 -107 -62 -184q-63 -79 -159 -115
q-98 -37 -213 -37q-96 0 -174 37zM586 1276l338 274h43l-353 -299h-55l-225 299h35z" />
    <glyph glyph-name="uni0162" unicode="&#x162;" horiz-adv-x="1212" 
d="M252 1556h1141l-9 -38h-548l-322 -1518h-43l322 1518h-551zM387 -393l49 233h43l-51 -241l-98 -140h-47z" />
    <glyph glyph-name="uni0163" unicode="&#x163;" horiz-adv-x="673" 
d="M422 1042l-166 -782q-10 -52 -10 -80q0 -77 39 -110t129 -33h127l-9 -35h-126q-99 0 -148 43t-49 129q0 53 8 84l166 784h-262l8 35h262l53 254h39l-53 -254h332l-8 -35h-332zM264 -391l49 233h39l-51 -241l-98 -140h-43z" />
    <glyph glyph-name="Tcaron" unicode="&#x164;" horiz-adv-x="1212" 
d="M252 1556h1141l-9 -38h-548l-322 -1518h-43l322 1518h-551zM850 1716l317 219h45l-329 -241h-64l-235 241h37z" />
    <glyph glyph-name="tcaron" unicode="&#x165;" horiz-adv-x="673" 
d="M422 1042l-166 -782q-10 -52 -10 -80q0 -77 39 -110t129 -33h127l-9 -35h-126q-99 0 -148 43t-49 129q0 53 8 84l166 784h-262l8 35h262l53 254h39l-53 -254h332l-8 -35h-332zM592 1190h-31l117 369h37z" />
    <glyph glyph-name="Tbar" unicode="&#x166;" horiz-adv-x="1277" 
d="M1425 1556l-8 -38h-549l-149 -705h424l-8 -35h-424l-164 -778h-43l164 778h-422l8 35h422l149 705h-551l11 38h1140z" />
    <glyph glyph-name="tbar" unicode="&#x167;" horiz-adv-x="673" 
d="M754 1042l-332 2l-78 -364h201l-4 -33h-203l-82 -387q-10 -52 -10 -80q0 -77 39 -110t129 -33h127l-9 -35h-126q-99 0 -148 43t-49 129q0 53 8 84l82 387h-184l6 33h184l78 364h-262l8 35h262l53 254h39l-53 -254h332z" />
    <glyph glyph-name="Utilde" unicode="&#x168;" horiz-adv-x="1597" 
d="M332 90v-4q-119 113 -119 313q0 97 27 226l196 927h43l-198 -938q-27 -129 -27 -211q0 -199 111 -294q114 -97 329 -97q272 0 432 148q162 150 226 456l198 938h43l-200 -946q-68 -317 -240 -473q-175 -158 -463 -158q-239 0 -358 113zM735 1751l-10 -2q27 55 84 86
t104 31q35 0 72 -11q31 -9 68 -30q26 -16 55 -25q27 -8 63 -8q47 0 84 18q39 19 66 62h31q-27 -56 -80 -86q-54 -31 -105 -31q-36 0 -69 10q-24 7 -70 31q-65 35 -117 35q-42 0 -82 -19q-36 -17 -63 -61h-31z" />
    <glyph glyph-name="utilde" unicode="&#x169;" horiz-adv-x="1163" 
d="M1042 1077l37 -2l-229 -1077h-39l49 229q-75 -121 -184 -186q-107 -64 -227 -64q-95 0 -166 41q-71 40 -111 111q-39 68 -39 166q0 39 2 55q4 34 8 51l144 674h39l-142 -663q-3 -13 -8 -54q-2 -16 -2 -57q0 -139 76 -215t209 -76q90 0 182 47q89 45 162 140q71 93 98 217
zM412 1329v-6q31 61 82 90q54 31 100 31q35 0 65 -12q32 -13 68 -33q28 -16 53 -25q21 -8 54 -8q41 0 79 23q35 21 62 65h31q-30 -58 -82 -88q-54 -31 -101 -31q-33 0 -65 13q-26 10 -68 34q-28 16 -53 25q-27 10 -53 10q-44 0 -80 -22q-34 -21 -62 -66h-30z" />
    <glyph glyph-name="Umacron" unicode="&#x16a;" horiz-adv-x="1597" 
d="M332 90v-4q-119 113 -119 313q0 97 27 226l196 927h43l-198 -938q-27 -129 -27 -211q0 -199 111 -294q114 -97 329 -97q272 0 432 148q162 150 226 456l198 938h43l-200 -946q-68 -317 -240 -473q-175 -158 -463 -158q-239 0 -358 113zM1368 1798h-647l8 35h647z" />
    <glyph glyph-name="umacron" unicode="&#x16b;" horiz-adv-x="1163" 
d="M1042 1077l37 -2l-229 -1077h-39l49 229q-75 -121 -184 -186q-107 -64 -227 -64q-95 0 -166 41q-71 40 -111 111q-39 68 -39 166q0 39 2 55q4 34 8 51l144 674h39l-142 -663q-3 -13 -8 -54q-2 -16 -2 -57q0 -139 76 -215t209 -76q90 0 182 47q89 45 162 140q71 93 98 217
zM1012 1376h-606l8 33h606z" />
    <glyph glyph-name="Ubreve" unicode="&#x16c;" horiz-adv-x="1597" 
d="M332 90v-4q-119 113 -119 313q0 97 27 226l196 927h43l-198 -938q-27 -129 -27 -211q0 -199 111 -294q114 -97 329 -97q272 0 432 148q162 150 226 456l198 938h43l-200 -946q-68 -317 -240 -473q-175 -158 -463 -158q-239 0 -358 113zM866 1733h-10q-55 49 -55 133
q0 38 8 65h35q-8 -27 -8 -63q0 -70 47 -111q45 -39 133 -39q95 0 166 56t92 157h35q-20 -111 -99 -180q-77 -68 -190 -68q-98 0 -154 50z" />
    <glyph glyph-name="ubreve" unicode="&#x16d;" horiz-adv-x="1163" 
d="M1042 1077l37 -2l-229 -1077h-39l49 229q-75 -121 -184 -186q-107 -64 -227 -64q-95 0 -166 41q-71 40 -111 111q-39 68 -39 166q0 39 2 55q4 34 8 51l144 674h39l-142 -663q-3 -13 -8 -54q-2 -16 -2 -57q0 -139 76 -215t209 -76q90 0 182 47q89 45 162 140q71 93 98 217
zM530 1309l5 2q-54 60 -54 155q0 22 11 90h32q-10 -62 -10 -90q0 -87 43 -133q44 -47 133 -47q107 0 178 74q72 75 99 194h32q-27 -137 -108 -221q-79 -82 -209 -82q-100 0 -152 58z" />
    <glyph glyph-name="Uring" unicode="&#x16e;" horiz-adv-x="1597" 
d="M332 90v-4q-119 113 -119 313q0 97 27 226l196 927h43l-198 -938q-27 -129 -27 -211q0 -199 111 -294q114 -97 329 -97q272 0 432 148q162 150 226 456l198 938h43l-200 -946q-68 -317 -240 -473q-175 -158 -463 -158q-239 0 -358 113zM948 1704l-4 -2q-38 21 -59 59
q-21 37 -21 86q0 62 31 113q30 49 82 76q51 26 110 26q48 0 84 -20q38 -22 60 -60q22 -39 22 -86q0 -62 -30 -112q-30 -49 -82 -76q-53 -27 -111 -27q-41 0 -82 23zM1120 1737l-2 -2q45 22 68 61q24 41 24 92q0 67 -39 103q-40 37 -94 37q-40 0 -88 -23q-43 -21 -67 -61
q-25 -42 -25 -93q0 -64 39 -100q40 -37 94 -37q42 0 90 23z" />
    <glyph glyph-name="uring" unicode="&#x16f;" horiz-adv-x="1163" 
d="M1042 1077l37 -2l-229 -1077h-39l49 229q-75 -121 -184 -186q-107 -64 -227 -64q-95 0 -166 41q-71 40 -111 111q-39 68 -39 166q0 39 2 55q4 34 8 51l144 674h39l-142 -663q-3 -13 -8 -54q-2 -16 -2 -57q0 -139 76 -215t209 -76q90 0 182 47q89 45 162 140q71 93 98 217
zM627 1268h-2q-36 15 -56 49q-20 33 -20 80q0 55 24 98q24 44 68 68q43 24 92 24q35 0 72 -16q34 -15 55 -49t21 -80q0 -54 -25 -99q-23 -42 -68 -67t-92 -25q-30 0 -69 17zM774 1303q35 18 53 53q19 36 19 78q0 59 -37 86q-39 28 -82 28q-39 0 -74 -18t-53 -53t-18 -78
q0 -60 36 -86q40 -29 82 -29q38 0 74 19z" />
    <glyph glyph-name="Uhungarumlaut" unicode="&#x170;" horiz-adv-x="1597" 
d="M332 90v-4q-119 113 -119 313q0 97 27 226l196 927h43l-198 -938q-27 -129 -27 -211q0 -199 111 -294q114 -97 329 -97q272 0 432 148q162 150 226 456l198 938h43l-200 -946q-68 -317 -240 -473q-175 -158 -463 -158q-239 0 -358 113zM852 1690h-51l340 241h57z
M1122 1690h-51l340 241h57z" />
    <glyph glyph-name="uhungarumlaut" unicode="&#x171;" horiz-adv-x="1163" 
d="M1042 1077l37 -2l-229 -1077h-39l49 229q-75 -121 -184 -186q-107 -64 -227 -64q-95 0 -166 41q-71 40 -111 111q-39 68 -39 166q0 39 2 55q4 34 8 51l144 674h39l-142 -663q-3 -13 -8 -54q-2 -16 -2 -57q0 -139 76 -215t209 -76q90 0 182 47q89 45 162 140q71 93 98 217
zM547 1255h-43l336 299h53zM817 1255h-43l336 299h53z" />
    <glyph glyph-name="Uogonek" unicode="&#x172;" horiz-adv-x="1597" 
d="M1552 1556l41 3l-200 -947q-82 -402 -332 -546q-136 -82 -207 -156q-74 -77 -74 -166q0 -113 125 -113h25l-8 -34h-23q-68 0 -113 36t-45 103q0 144 187 270q-112 -31 -236 -31q-239 0 -358 113t-119 313q0 97 27 226l196 927h43l-198 -938q-27 -129 -27 -210
q0 -200 111 -295q114 -97 329 -97q272 0 432 148q162 150 226 456z" />
    <glyph glyph-name="uogonek" unicode="&#x173;" horiz-adv-x="1163" 
d="M852 0l-8 2q-109 -56 -170 -117q-62 -62 -62 -141q0 -59 37 -86t96 -27h21l-6 -32h-23q-65 0 -110 36t-45 103q0 83 61 147t168 113l49 229q-75 -121 -184 -186q-107 -64 -227 -64q-95 0 -166 41q-71 40 -111 111q-39 68 -39 166q0 39 2 55q4 34 8 51l144 674h39
l-142 -663q-3 -13 -8 -54q-2 -16 -2 -57q0 -139 76 -215t209 -76q90 0 182 47q89 45 162 140q71 93 98 217l141 663h39z" />
    <glyph glyph-name="Wcircumflex" unicode="&#x174;" horiz-adv-x="2275" 
d="M475 0h-43l-178 1556h43zM563 0h-47l770 1556h47zM1524 0h-43l-107 1556h43zM1614 0h-49l843 1556h50zM1444 1935l235 -241h-37l-229 219l-317 -219h-45l329 241h64z" />
    <glyph glyph-name="wcircumflex" unicode="&#x175;" horiz-adv-x="1771" 
d="M348 0h-39l-151 1077h39zM432 0h-43l547 1077h43zM1149 0h-39l-90 1077h39zM1233 0h-43l608 1077h43zM1098 1556l225 -299h-35l-217 275l-338 -275h-43l352 299h56z" />
    <glyph glyph-name="Ycircumflex" unicode="&#x176;" horiz-adv-x="1304" 
d="M1466 1556h56l-820 -864l-147 -692h-43l150 705l-435 851h45l418 -819zM952 1935l236 -241h-37l-229 219l-318 -219h-45l330 241h63z" />
    <glyph glyph-name="ycircumflex" unicode="&#x177;" horiz-adv-x="1091" 
d="M453 109h-39l-277 968h39zM217 -401h-45l956 1478h46zM743 1556l226 -299h-35l-217 275l-338 -275h-43l352 299h55z" />
    <glyph glyph-name="Ydieresis" unicode="&#x178;" horiz-adv-x="1304" 
d="M1466 1556h56l-820 -864l-147 -692h-43l150 705l-435 851h45l418 -819zM733 1694h-43l51 241h43zM1047 1694h-43l51 241h43z" />
    <glyph glyph-name="Zacute" unicode="&#x179;" horiz-adv-x="1312" 
d="M289 1556h1163l-12 -57l-1444 -1460h1173l-8 -39h-1214l12 59l1442 1459h-1120zM834 1694h-48l324 241h55z" />
    <glyph glyph-name="zacute" unicode="&#x17a;" horiz-adv-x="950" 
d="M195 1077h774l-13 -57l-960 -985h805l-8 -35h-838l12 57l961 985h-740zM569 1257h-43l326 299h51z" />
    <glyph glyph-name="Zdotaccent" unicode="&#x17b;" horiz-adv-x="1312" 
d="M289 1556h1163l-12 -57l-1444 -1460h1173l-8 -39h-1214l12 59l1442 1459h-1120zM885 1694h-43l51 241h43z" />
    <glyph glyph-name="zdotaccent" unicode="&#x17c;" horiz-adv-x="950" 
d="M195 1077h774l-13 -57l-960 -985h805l-8 -35h-838l12 57l961 985h-740zM612 1315h-39l52 241h39z" />
    <glyph glyph-name="Zcaron" unicode="&#x17d;" horiz-adv-x="1312" 
d="M289 1556h1163l-12 -57l-1444 -1460h1173l-8 -39h-1214l12 59l1442 1459h-1120zM862 1716l318 219h45l-330 -241h-64l-235 241h37z" />
    <glyph glyph-name="zcaron" unicode="&#x17e;" horiz-adv-x="950" 
d="M195 1077h774l-13 -57l-960 -985h805l-8 -35h-838l12 57l961 985h-740zM580 1282l338 274h43l-353 -299h-55l-225 299h34z" />
    <glyph glyph-name="uni018F" unicode="&#x18f;" horiz-adv-x="1683" 
d="M1319 1505l-6 -6q139 -74 221 -211t82 -319q0 -257 -117 -488q-116 -230 -319 -368q-205 -140 -449 -140q-168 0 -301 74q-132 74 -209 209q-76 134 -76 309q0 102 27 234h1389q12 79 12 162q0 174 -74 307q-73 131 -203 202q-132 72 -292 72q-236 0 -414 -117
q-177 -116 -279 -327h-43q108 240 299 360q192 121 447 121q166 0 305 -74zM1110 111l4 -7q170 102 283 273q112 169 153 375h-1345q-19 -97 -19 -187q0 -162 68 -289q68 -126 192 -196q125 -70 295 -70q201 0 369 101z" />
    <glyph glyph-name="florin" unicode="&#x192;" horiz-adv-x="1165" 
d="M1296 1556l-8 -40h-151q-74 0 -129 -19q-54 -19 -93 -63q-40 -46 -67 -129l-156 -428h398l-9 -37h-401l-219 -607q-35 -92 -80 -143q-47 -53 -109 -74q-59 -20 -147 -20h-158l8 37h158q77 0 129 18q49 17 92 66q41 47 68 129l215 596h-383l8 37h389l158 438q35 92 80 143
q47 53 108 74q64 22 148 22h151z" />
    <glyph glyph-name="uni019D" unicode="&#x19d;" horiz-adv-x="1703" 
d="M170 0h-43l330 1556h43zM1266 0h-45l-680 1556h45zM1350 0h-43l329 1556h43zM-315 -401l8 39h88q132 0 211 49q81 50 108 182l29 131h43l-29 -139q-30 -144 -125 -203t-245 -59h-88z" />
    <glyph glyph-name="uni01B5" unicode="&#x1b5;" horiz-adv-x="1361" 
d="M311 1556h1164l-13 -57l-671 -680h493l-8 -35h-520l-738 -745h1174l-8 -39h-1215l13 59l716 725h-489l8 35h516l690 699h-1120z" />
    <glyph glyph-name="uni01B6" unicode="&#x1b6;" horiz-adv-x="980" 
d="M209 1077h774l-12 -57l-426 -436h325l-8 -35h-350l-502 -514h805l-8 -35h-838l13 57l479 492h-322l8 35h349l446 458h-739z" />
    <glyph glyph-name="uni01E2" unicode="&#x1e2;" horiz-adv-x="2017" 
d="M2101 1556l-8 -38h-1069l141 -691h762l-8 -39h-745l153 -749h469l-8 -39h-496l-112 549h-885l-346 -549h-49l983 1556h49l-613 -968h852l-198 968h1128zM1802 1802h-647l8 35h647z" />
    <glyph glyph-name="uni01E3" unicode="&#x1e3;" horiz-adv-x="1957" 
d="M946 539l-2 -2q-8 -44 -8 -107q0 -139 49 -233q51 -97 131 -142q83 -47 191 -47q98 0 182 37q85 37 153 105q68 69 109 157h41q-45 -102 -123 -180q-76 -76 -172 -117t-197 -41q-114 0 -202 49t-142 140q-52 87 -61 209q-36 -117 -100 -203q-68 -92 -166 -144
q-96 -51 -215 -51q-89 0 -162 33q-78 35 -123 98q-45 62 -45 154q0 313 504 313h323l25 119q12 56 12 100q0 134 -69 203q-72 72 -230 72q-154 0 -254 -74q-96 -71 -137 -203h-41q27 97 90 170q62 71 152 109q87 37 196 37q114 0 185 -39q73 -40 110 -107q38 -68 35 -153
q71 140 197 219q127 80 295 80q116 0 202 -51q91 -54 140 -148t49 -221q0 -57 -19 -141h-903zM1210 993l-2 -4q-109 -66 -174 -178q-64 -110 -88 -242h866q11 79 11 111q0 112 -43 197q-44 85 -123 135q-79 49 -189 49q-146 0 -258 -68zM897 530l-309 -2q-228 0 -350 -61
q-123 -61 -123 -207q0 -89 43 -147q44 -60 110 -86q68 -27 144 -27q117 0 209 57q97 60 163 160q69 104 95 227zM1405 1368h-606l8 33h606z" />
    <glyph glyph-name="Gcaron" unicode="&#x1e6;" horiz-adv-x="1695" 
d="M858 733l12 37h709l-164 -772h-43l98 467q-92 -212 -264 -350q-175 -140 -426 -140q-172 0 -313 72q-136 70 -217 213q-80 142 -80 340q0 254 102 479q103 227 295 361q194 135 455 135q152 0 272 -57q125 -60 203 -168q82 -114 105 -260h-46q-40 217 -184 331
q-145 115 -362 115q-240 0 -420 -131q-182 -132 -277 -348q-96 -218 -96 -461q0 -182 74 -315q72 -130 201 -199q127 -68 288 -68q184 0 338 92q151 91 258 252q106 160 146 365l2 10h-666zM1016 1714l317 219h45l-329 -241h-64l-235 241h36z" />
    <glyph glyph-name="gcaron" unicode="&#x1e7;" horiz-adv-x="1284" 
d="M1167 1077l33 6l-239 -1130q-37 -172 -164 -272q-126 -99 -336 -99q-131 0 -221 43q-94 45 -146 123q-53 80 -65 189h41q18 -156 120 -238q104 -84 277 -84q189 0 307 92q115 90 150 252l69 334q-65 -127 -184 -209t-291 -82q-114 0 -205 49q-92 50 -147 148t-55 237
q0 167 65 318t197 250q131 98 321 98q122 0 207 -55t135 -138q51 -85 60 -172zM819 133l-2 -4q118 93 178 240q60 148 60 295q0 134 -49 225q-48 89 -136 137q-83 45 -196 45q-174 0 -295 -92q-118 -90 -178 -234q-58 -140 -58 -290q0 -133 50 -228q49 -95 135 -141
q86 -47 196 -47q176 0 295 94zM707 1284l337 275h43l-352 -299h-55l-225 299h34z" />
    <glyph glyph-name="uni01EA" unicode="&#x1ea;" horiz-adv-x="1716" 
d="M1589 592l-6 8q-58 -174 -170 -313t-264 -215q-136 -82 -207 -156q-74 -77 -74 -166q0 -112 125 -112h25l-8 -35h-23q-67 0 -113 37q-45 36 -45 102q0 75 50 143q47 64 145 131q-112 -36 -252 -36q-174 0 -313 71q-136 70 -217 213q-80 142 -80 342q0 258 106 479
q109 227 307 361q199 135 461 135q173 0 314 -72q136 -70 217 -213q80 -142 80 -342q0 -188 -58 -362zM1208 154l-4 -2q185 129 287 344t102 465q0 190 -73 321q-74 132 -203 197q-130 65 -301 65q-239 0 -424 -129q-182 -127 -285 -344q-100 -210 -100 -463q0 -188 74 -321
t202 -197q130 -65 301 -65q240 0 424 129z" />
    <glyph glyph-name="uni01EB" unicode="&#x1eb;" horiz-adv-x="1204" 
d="M666 -49l-4 -4q-55 -46 -87 -94q-34 -52 -34 -111q0 -57 34 -84q37 -29 93 -29h24l-6 -32h-24q-70 0 -111 38q-43 40 -43 101q0 77 49 141q48 63 139 123q-92 -29 -182 -29q-116 0 -207 49q-92 50 -147 148q-56 100 -56 244q0 165 66 325q65 157 197 256t321 99
q115 0 207 -50q93 -50 147 -147q56 -100 56 -242q0 -113 -31 -231q-31 -116 -94 -209q-65 -95 -160 -154q-95 -65 -147 -108zM190 193l-2 -7q48 -89 136 -137q83 -45 196 -45q173 0 295 96q118 93 178 244t60 305q0 132 -49 223q-51 94 -136 140q-86 47 -196 47
q-176 0 -295 -94q-118 -93 -178 -244q-58 -146 -58 -305q0 -132 49 -223z" />
    <glyph glyph-name="AEacute" unicode="&#x1fc;" horiz-adv-x="2017" 
d="M2101 1556l-8 -38h-1069l141 -691h762l-8 -39h-745l153 -749h469l-8 -39h-496l-112 549h-885l-346 -549h-49l983 1556h49l-613 -968h852l-198 968h1128zM1425 1694h-47l324 241h55z" />
    <glyph glyph-name="aeacute" unicode="&#x1fd;" horiz-adv-x="1957" 
d="M946 539l-2 -2q-8 -44 -8 -107q0 -139 49 -233q51 -97 131 -142q83 -47 191 -47q98 0 182 37q85 37 153 105q68 69 109 157h41q-45 -102 -123 -180q-76 -76 -172 -117t-197 -41q-114 0 -202 49t-142 140q-52 87 -61 209q-36 -117 -100 -203q-68 -92 -166 -144
q-96 -51 -215 -51q-89 0 -162 33q-78 35 -123 98q-45 62 -45 154q0 313 504 313h323l25 119q12 56 12 100q0 134 -69 203q-72 72 -230 72q-154 0 -254 -74q-96 -71 -137 -203h-41q27 97 90 170q62 71 152 109q87 37 196 37q114 0 185 -39q73 -40 110 -107q38 -68 35 -153
q71 140 197 219q127 80 295 80q116 0 202 -51q91 -54 140 -148t49 -221q0 -57 -19 -141h-903zM1210 993l-2 -4q-109 -66 -174 -178q-64 -110 -88 -242h866q11 79 11 111q0 112 -43 197q-44 85 -123 135q-79 49 -189 49q-146 0 -258 -68zM897 530l-309 -2q-228 0 -350 -61
q-123 -61 -123 -207q0 -89 43 -147q44 -60 110 -86q68 -27 144 -27q117 0 209 57q97 60 163 160q69 104 95 227zM1065 1247h-43l326 299h51z" />
    <glyph glyph-name="Oslashacute" unicode="&#x1fe;" horiz-adv-x="1716" 
d="M1843 1556l-284 -243q90 -153 90 -361q0 -256 -107 -479q-108 -226 -307 -360q-201 -136 -461 -136q-157 0 -289 60q-130 59 -209 172l-245 -211h-62l285 246q-88 149 -88 358q0 258 106 479q108 226 308 361t460 135q159 0 289 -59t209 -172l244 210h61zM289 272
l1212 1045q-74 109 -196 164t-283 55q-240 0 -424 -129q-182 -127 -285 -344q-100 -210 -100 -463q0 -194 76 -328zM1524 1282l-1217 -1042q73 -110 197 -166t282 -56q240 0 424 129t287 345q102 215 102 464q0 197 -75 326zM1038 1694h-47l324 241h55z" />
    <glyph glyph-name="oslashacute" unicode="&#x1ff;" horiz-adv-x="1204" 
d="M1245 1077l-205 -178q56 -106 56 -244q0 -170 -64 -325t-196 -254t-322 -99q-110 0 -197 43q-89 44 -141 125l-168 -145h-53l203 176q-56 106 -56 244q0 165 66 325q65 157 197 256t321 99q110 0 197 -43q89 -44 141 -125l168 145h53zM190 201l801 702q-50 77 -131 117
q-84 41 -184 41q-176 0 -295 -94q-118 -93 -178 -244q-58 -146 -58 -305q0 -126 45 -217zM1008 872l-803 -704q50 -77 131 -117q84 -41 184 -41q173 0 295 96q118 93 178 244t60 305q0 126 -45 217zM721 1253h-43l326 299h51z" />
    <glyph glyph-name="uni0218" unicode="&#x218;" horiz-adv-x="1363" 
d="M338 33l-12 -8q-115 56 -179 163t-67 252h45q9 -205 135 -319q125 -113 344 -113q149 0 277 51q133 53 215 154t82 246q0 122 -93 200q-91 76 -292 129l-152 39q-159 41 -258 123q-98 82 -98 228q0 127 73 215t197 135t264 47q141 0 252 -51q115 -53 189 -148t86 -215
h-46q-15 114 -77 197t-166 129q-106 47 -244 47t-248 -43q-109 -43 -174 -123q-63 -78 -63 -188q0 -122 90 -197t274 -121l152 -39q192 -50 286 -135q97 -88 97 -219q0 -157 -90 -270q-87 -109 -234 -166q-145 -56 -301 -56q-149 0 -264 56zM496 -403l49 233h43l-51 -242
l-99 -139h-47z" />
    <glyph glyph-name="uni0219" unicode="&#x219;" horiz-adv-x="1001" 
d="M242 14l-15 -4q-78 37 -131 111q-52 73 -67 182h41q12 -101 61 -168q50 -68 123 -98q76 -31 156 -31q109 0 196 37q91 39 142 104q51 66 51 156q0 60 -31 105q-30 44 -86 71q-68 33 -143 56l-99 28q-129 38 -194 92q-68 56 -68 156q0 96 55 160q54 63 142 94t174 31
q79 0 158 -31q77 -30 135 -94q60 -66 84 -160h-41q-21 90 -76 145q-57 57 -125 80q-73 25 -143 25q-83 0 -156 -27t-119 -82q-45 -54 -45 -131q0 -61 31 -106t82 -68q63 -29 129 -47l98 -29q144 -41 215 -98q74 -59 74 -160q0 -107 -62 -184q-63 -79 -159 -115
q-98 -37 -213 -37q-96 0 -174 37zM309 -399l49 233h39l-51 -242l-98 -139h-43z" />
    <glyph glyph-name="uni021A" unicode="&#x21a;" horiz-adv-x="1212" 
d="M252 1556h1141l-9 -38h-548l-322 -1518h-43l322 1518h-551zM387 -393l49 233h43l-51 -241l-98 -140h-47z" />
    <glyph glyph-name="uni021B" unicode="&#x21b;" horiz-adv-x="673" 
d="M422 1042l-166 -782q-10 -52 -10 -80q0 -77 39 -110t129 -33h127l-9 -35h-126q-99 0 -148 43t-49 129q0 53 8 84l166 784h-262l8 35h262l53 254h39l-53 -254h332l-8 -35h-332zM264 -391l49 233h39l-51 -241l-98 -140h-43z" />
    <glyph glyph-name="uni022E" unicode="&#x22e;" horiz-adv-x="1716" 
d="M463 49q-136 70 -217 213q-80 142 -80 342q0 258 106 479q108 226 308 361t460 135q173 0 314 -72q136 -70 217 -213q80 -142 80 -342q0 -256 -107 -479q-108 -226 -307 -360q-201 -136 -461 -136q-172 0 -313 72zM1214 145l-4 -2q185 129 287 344t102 465q0 191 -73 322
t-203 196q-132 66 -301 66q-240 0 -424 -129q-182 -127 -285 -344q-100 -210 -100 -463q0 -188 74 -321t202 -197q132 -66 302 -66q239 0 423 129zM1087 1690h-43l52 241h43z" />
    <glyph glyph-name="uni022F" unicode="&#x22f;" horiz-adv-x="1204" 
d="M309 27l-2 -4q-93 50 -147 147q-56 100 -56 244q0 165 66 325q65 157 197 256t321 99q115 0 207 -50q93 -50 147 -147q56 -100 56 -242q0 -170 -64 -325t-196 -254t-322 -99q-115 0 -207 50zM817 102l-2 -6q118 93 178 244t60 305q0 132 -49 223q-51 94 -136 140
q-86 47 -196 47q-176 0 -295 -94q-118 -93 -178 -244q-58 -146 -58 -305q0 -133 49 -224q48 -89 136 -137q83 -45 196 -45q173 0 295 96zM762 1303h-39l51 241h39z" />
    <glyph glyph-name="uni0232" unicode="&#x232;" horiz-adv-x="1304" 
d="M1466 1556h56l-820 -864l-147 -692h-43l150 705l-435 851h45l418 -819zM1217 1802h-648l9 35h647z" />
    <glyph glyph-name="uni0233" unicode="&#x233;" horiz-adv-x="1091" 
d="M453 109h-39l-277 968h39zM217 -401h-45l956 1478h46zM979 1378h-606l8 33h606z" />
    <glyph glyph-name="uni0237" unicode="&#x237;" horiz-adv-x="430" 
d="M-250 -401l6 34h33q113 0 176 60q61 58 82 147l262 1237h39l-264 -1247q-21 -100 -96 -166q-74 -65 -193 -65h-45z" />
    <glyph glyph-name="uni0259" unicode="&#x259;" horiz-adv-x="1167" 
d="M856 1051l2 -13q94 -51 148 -147q55 -98 55 -244q0 -170 -64 -325t-196 -254t-322 -99q-112 0 -203 54q-87 52 -137 147q-49 94 -49 221q0 57 19 141h903q8 44 8 107q0 139 -49 233q-51 97 -131 142q-83 47 -191 47q-98 0 -182 -37q-89 -39 -154 -104q-66 -66 -108 -158
h-41q45 102 123 180q76 76 172 117t196 41q110 0 201 -49zM745 68v2q111 67 175 178q66 114 90 244h-867q-10 -72 -10 -111q0 -112 43 -197q44 -86 123 -135t188 -49q146 0 258 68z" />
    <glyph glyph-name="uni0272" unicode="&#x272;" horiz-adv-x="1171" 
d="M883 1059v-4q69 -40 110 -111q39 -68 39 -166q0 -39 -2 -55q-4 -34 -8 -51l-143 -674h-39l141 664q12 62 12 110q0 143 -75 215q-77 74 -211 74q-93 0 -185 -47q-96 -49 -164 -137q-71 -92 -98 -218l-141 -663h-39l229 1077h39l-49 -231q74 121 184 188q112 68 234 68
q98 0 166 -39zM-250 -408l8 35h33q113 0 176 60q62 59 80 147l33 160h39l-35 -170q-12 -65 -49 -117q-40 -56 -98 -84q-64 -31 -142 -31h-45z" />
    <glyph glyph-name="circumflex" unicode="&#x2c6;" horiz-adv-x="768" 
d="M629 1556l225 -299h-35l-217 275l-338 -275h-43l352 299h56z" />
    <glyph glyph-name="caron" unicode="&#x2c7;" horiz-adv-x="768" 
d="M537 1282l337 274h44l-353 -299h-55l-225 299h34z" />
    <glyph glyph-name="breve" unicode="&#x2d8;" horiz-adv-x="647" 
d="M328 1311l4 2q-53 59 -53 155q0 29 10 91h33q-11 -68 -11 -91q0 -87 43 -133q44 -47 133 -47q108 0 179 74t98 194h33q-26 -135 -109 -221q-79 -82 -209 -82q-99 0 -151 58z" />
    <glyph glyph-name="dotaccent" unicode="&#x2d9;" horiz-adv-x="174" 
d="M272 1315h-39l52 241h39z" />
    <glyph glyph-name="ring" unicode="&#x2da;" horiz-adv-x="464" 
d="M328 1270h-2q-36 15 -56 49q-20 33 -20 80q0 55 24 98q24 44 68 68q43 24 92 24q35 0 72 -16q34 -15 55 -49t21 -80q0 -53 -25 -98q-24 -44 -68 -68q-45 -25 -92 -25q-30 0 -69 17zM475 1305q35 18 53 53q19 36 19 78q0 59 -37 86q-39 28 -82 28q-40 0 -74 -18
q-35 -18 -53 -53t-18 -78q0 -60 36 -86q40 -29 82 -29q38 0 74 19z" />
    <glyph glyph-name="ogonek" unicode="&#x2db;" horiz-adv-x="350" 
d="M59 -401l-6 4q-64 0 -110 37q-45 36 -45 102q0 83 61 147t168 113h39q-109 -56 -170 -117q-62 -62 -62 -141q0 -59 37 -86q38 -27 97 -27h20l-6 -32h-23z" />
    <glyph glyph-name="tilde" unicode="&#x2dc;" horiz-adv-x="710" 
d="M236 1331v-6q32 62 81 90q54 31 101 31q35 0 65 -12q32 -13 68 -33q28 -16 53 -25q21 -8 53 -8q42 0 80 23q35 21 62 65h30q-30 -59 -81 -88q-54 -31 -101 -31q-33 0 -65 13q-25 10 -68 34q-28 16 -53 25q-27 10 -53 10q-44 0 -80 -22q-34 -21 -62 -66h-30z" />
    <glyph glyph-name="hungarumlaut" unicode="&#x2dd;" horiz-adv-x="731" 
d="M264 1257h-43l336 299h53zM535 1257h-43l335 299h54z" />
    <glyph glyph-name="gravecomb" unicode="&#x300;" horiz-adv-x="0" 
d="M86 1257h-37l-203 299h45z" />
    <glyph glyph-name="acutecomb" unicode="&#x301;" horiz-adv-x="0" 
d="M-184 1257h-43l325 299h52z" />
    <glyph glyph-name="uni0302" unicode="&#x302;" horiz-adv-x="0" 
d="M-139 1556l225 -299h-35l-217 275l-338 -275h-43l352 299h56z" />
    <glyph glyph-name="tildecomb" unicode="&#x303;" horiz-adv-x="0" 
d="M-475 1331v-6q31 61 82 90q54 31 100 31q36 0 66 -12q28 -11 67 -33q26 -15 54 -25q21 -8 53 -8q42 0 80 23q33 20 61 65h31q-30 -58 -82 -88q-54 -31 -100 -31q-33 0 -66 13q-26 10 -68 34q-28 16 -53 25q-27 10 -53 10q-44 0 -80 -22q-32 -20 -61 -66h-31z" />
    <glyph glyph-name="uni0304" unicode="&#x304;" horiz-adv-x="0" 
d="M111 1378h-607l9 33h606z" />
    <glyph glyph-name="uni0306" unicode="&#x306;" horiz-adv-x="0" 
d="M-319 1311l4 2q-54 60 -54 155q0 23 11 91h32q-10 -62 -10 -91q0 -87 43 -133q44 -47 133 -47q107 0 178 74q72 75 99 194h33q-26 -135 -109 -221q-79 -82 -209 -82q-99 0 -151 58z" />
    <glyph glyph-name="uni0307" unicode="&#x307;" horiz-adv-x="0" 
d="M98 1315h-39l52 241h39z" />
    <glyph glyph-name="uni0308" unicode="&#x308;" horiz-adv-x="0" 
d="M-219 1315h-39l51 241h39zM98 1315h-39l52 241h39z" />
    <glyph glyph-name="uni030A" unicode="&#x30a;" horiz-adv-x="0" 
d="M-137 1270h-2q-36 15 -56 49q-20 33 -20 80q0 53 25 98t67 68q44 24 92 24q35 0 72 -16q34 -15 55 -49t21 -80q0 -53 -25 -98t-67 -68q-45 -25 -93 -25q-30 0 -69 17zM10 1305q35 18 53 53q19 36 19 78q0 59 -37 86q-39 28 -82 28q-39 0 -74 -18t-53 -53t-18 -78
q0 -59 37 -86q40 -29 82 -29q37 0 73 19z" />
    <glyph glyph-name="uni030B" unicode="&#x30b;" horiz-adv-x="0" 
d="M-467 1257h-43l336 299h53zM-197 1257h-43l336 299h54z" />
    <glyph glyph-name="uni030C" unicode="&#x30c;" horiz-adv-x="0" 
d="M-231 1282l337 274h44l-353 -299h-55l-225 299h34z" />
    <glyph glyph-name="uni0312" unicode="&#x312;" horiz-adv-x="0" 
d="M207 1696h43l-105 -148l-49 -233h-39l52 241z" />
    <glyph glyph-name="dotbelowcomb" unicode="&#x323;" horiz-adv-x="0" 
d="M-268 -401h-39l51 241h39z" />
    <glyph glyph-name="uni0326" unicode="&#x326;" horiz-adv-x="0" 
d="M-305 -393l49 233h39l-51 -241l-99 -140h-43z" />
    <glyph glyph-name="uni0327" unicode="&#x327;" horiz-adv-x="0" 
d="M-365 -102l-2 -4q53 -3 93 -37q38 -32 38 -86q0 -47 -24 -88q-24 -40 -72 -62q-49 -22 -106 -22h-49l6 30h49q77 0 121 41q43 40 43 105q0 42 -31 67t-76 25h-31l29 133h35z" />
    <glyph glyph-name="uni0328" unicode="&#x328;" horiz-adv-x="0" 
d="M-291 -401l-6 4q-65 0 -111 37q-45 36 -45 102q0 82 62 147q61 64 168 113h39q-109 -56 -170 -117q-62 -62 -62 -141q0 -59 37 -86t96 -27h21l-6 -32h-23z" />
    <glyph glyph-name="uni0335" unicode="&#x335;" horiz-adv-x="0" 
d="M-547 1319h-426l6 33h424z" />
    <glyph glyph-name="uni0336" unicode="&#x336;" horiz-adv-x="0" 
d="M66 1171h-1592l8 35h1592z" />
    <glyph glyph-name="uni0337" unicode="&#x337;" horiz-adv-x="0" 
d="M8 899l-457 -266l11 45l456 266z" />
    <glyph glyph-name="uni0338" unicode="&#x338;" horiz-adv-x="0" 
d="M-1186 0h-53l1233 1077h53z" />
    <glyph glyph-name="uni0394" unicode="&#x394;" horiz-adv-x="1464" 
d="M973 1556h43l319 -1556h-1435l983 1556h49l-959 -1517h1311z" />
    <glyph glyph-name="uni03A9" unicode="&#x3a9;" horiz-adv-x="1708" 
d="M1567 629l-4 -4q-88 -171 -248 -316q-161 -145 -395 -276h548l-8 -39h-592l13 59q231 129 395 271q162 141 246 307q86 170 86 370q0 174 -76 293t-203 181q-125 61 -276 61q-228 0 -414 -113q-187 -114 -295 -307t-108 -426q0 -181 92 -332q92 -150 295 -301l-13 -59
h-592l9 39h555q-200 157 -295 313q-94 155 -94 344q0 246 116 447q117 202 316 319t440 117q159 0 295 -68t215 -196q80 -130 80 -309q0 -203 -88 -375z" />
    <glyph glyph-name="uni03BC" unicode="&#x3bc;" horiz-adv-x="1212" 
d="M918 53l-11 -6q24 -18 72 -18h90l-8 -35h-86q-63 0 -94 31t-31 81q0 26 6 56q8 40 14 63q-75 -121 -184 -186q-107 -64 -227 -64t-199 64q-81 66 -102 172l-131 -614h-39l313 1478h39l-141 -663q-5 -23 -9 -54q-2 -16 -2 -57q0 -139 76 -215t209 -76q90 0 182 47
q89 45 162 140q71 93 98 217l142 663h39l-197 -923q-6 -27 -6 -50q0 -32 25 -51z" />
    <glyph glyph-name="pi" unicode="&#x3c0;" horiz-adv-x="1230" 
d="M1034 1042l-166 -782q-10 -52 -10 -80q0 -77 39 -110t129 -33h27l-9 -35h-26q-99 0 -148 43t-49 129q0 53 8 84l166 784h-604l-221 -1042h-39l221 1042h-227l8 35h1141l-8 -35h-232z" />
    <glyph glyph-name="uni0E3F" unicode="&#xe3f;" horiz-adv-x="1368" 
d="M1049 739v-4q79 -52 122 -125t43 -155q0 -107 -61 -211q-60 -103 -205 -174t-377 -74l-57 -268h-41l57 268h-403l330 1556h393h10l55 258h41l-55 -260q133 -9 215 -57q86 -50 129 -125q43 -76 43 -162q0 -117 -57 -200q-59 -86 -154 -136q-91 -47 -209 -63
q100 -15 181 -68zM854 1516h-362l-148 -695h363zM1206 1354l-2 -2q-40 70 -121 114q-80 44 -190 47l-148 -694q158 3 273 53q111 48 172 134q57 80 57 188q0 89 -41 160zM336 780l-160 -751h363l159 751h-362zM580 29v-4q225 3 354 69q131 67 184 162t53 197q0 86 -49 159
t-147 119t-236 49z" />
    <glyph glyph-name="Wgrave" unicode="&#x1e80;" horiz-adv-x="2275" 
d="M475 0h-43l-178 1556h43zM563 0h-47l770 1556h47zM1524 0h-43l-107 1556h43zM1614 0h-49l843 1556h50zM1358 1694h-37l-227 241h47z" />
    <glyph glyph-name="wgrave" unicode="&#x1e81;" horiz-adv-x="1771" 
d="M348 0h-39l-151 1077h39zM432 0h-43l547 1077h43zM1149 0h-39l-90 1077h39zM1233 0h-43l608 1077h43zM1018 1257h-37l-203 299h45z" />
    <glyph glyph-name="Wacute" unicode="&#x1e82;" horiz-adv-x="2275" 
d="M475 0h-43l-178 1556h43zM563 0h-47l770 1556h47zM1524 0h-43l-107 1556h43zM1614 0h-49l843 1556h50zM1411 1694h-47l324 241h55z" />
    <glyph glyph-name="wacute" unicode="&#x1e83;" horiz-adv-x="1771" 
d="M348 0h-39l-151 1077h39zM432 0h-43l547 1077h43zM1149 0h-39l-90 1077h39zM1233 0h-43l608 1077h43zM1053 1257h-43l325 299h51z" />
    <glyph glyph-name="Wdieresis" unicode="&#x1e84;" horiz-adv-x="2275" 
d="M475 0h-43l-178 1556h43zM563 0h-47l770 1556h47zM1524 0h-43l-107 1556h43zM1614 0h-49l843 1556h50zM1225 1694h-43l51 241h43zM1538 1694h-43l51 241h43z" />
    <glyph glyph-name="wdieresis" unicode="&#x1e85;" horiz-adv-x="1771" 
d="M348 0h-39l-151 1077h39zM432 0h-43l547 1077h43zM1149 0h-39l-90 1077h39zM1233 0h-43l608 1077h43zM879 1315h-39l51 241h39zM1196 1315h-39l51 241h39z" />
    <glyph glyph-name="uni1E9E" unicode="&#x1e9e;" horiz-adv-x="1523" 
d="M1442 1556l-4 -61l-545 -526q174 0 293 -58q122 -59 182 -159q62 -103 62 -234q0 -160 -76 -282q-76 -123 -211 -193q-134 -70 -305 -70q-165 0 -295 47l8 43q60 -25 135 -38q76 -13 154 -13q158 0 282 68q125 69 191 180q67 113 67 252q0 135 -61 229q-62 95 -172 144
t-260 49h-47l12 57l545 527h-905l-322 -1518h-43l330 1556h985z" />
    <glyph glyph-name="uni1EA0" unicode="&#x1ea0;" horiz-adv-x="1464" 
d="M1335 0h-43l-112 549h-885l-346 -549h-49l983 1556h49l-613 -968h852l-198 968h43zM563 -401h-43l51 241h43z" />
    <glyph glyph-name="uni1EA1" unicode="&#x1ea1;" horiz-adv-x="1120" 
d="M834 1063l8 -4q72 -37 110 -105q37 -67 37 -155q0 -55 -8 -94l-152 -713h-38l57 266q-35 -71 -98 -137q-64 -67 -150 -111q-85 -43 -182 -43q-84 0 -162 35q-76 34 -123 102t-47 158q0 107 59 178t172 111q112 40 289 61l322 37l8 37q12 56 12 100q0 134 -69 203
q-72 72 -230 72q-154 0 -254 -74q-96 -71 -137 -203h-41q27 97 90 170q62 71 152 109q87 37 196 37q106 0 179 -37zM635 63l-2 -2q95 59 162 160t94 228l35 165l-285 -32q-170 -20 -285 -56q-112 -35 -168 -94q-57 -60 -57 -156q0 -86 43 -147q44 -62 111 -92
q70 -31 145 -31q115 0 207 57zM416 -410h-39l51 242h39z" />
    <glyph glyph-name="uni1EB8" unicode="&#x1eb8;" horiz-adv-x="1298" 
d="M1382 1556l-8 -38h-882l-146 -691h862l-8 -39h-862l-160 -749h899l-8 -39h-942l330 1556h925zM565 -401h-43l51 241h43z" />
    <glyph glyph-name="uni1EB9" unicode="&#x1eb9;" horiz-adv-x="1167" 
d="M156 539l-6 8q-9 -49 -9 -107q0 -139 49 -233q50 -95 132 -141q85 -48 190 -48q98 0 182 37q87 38 154 105t108 157h41q-45 -102 -123 -180q-76 -76 -172 -117q-93 -40 -196 -40q-110 0 -201 49q-93 50 -147 147q-56 100 -56 244q0 165 66 325q65 157 197 256t321 99
q117 0 203 -51q89 -53 139 -148q49 -94 49 -221q0 -62 -18 -141h-903zM416 1004l-2 -5q-109 -66 -174 -178q-64 -111 -88 -241h866q10 72 10 110q0 112 -43 197t-123 135q-79 49 -188 49q-148 0 -258 -67zM451 -399h-39l51 241h39z" />
    <glyph glyph-name="uni1EBC" unicode="&#x1ebc;" horiz-adv-x="1298" 
d="M1382 1556l-8 -38h-882l-146 -691h862l-8 -39h-862l-160 -749h899l-8 -39h-942l330 1556h925zM662 1755l-11 -2q27 55 84 86t105 31q38 0 71 -10q27 -8 68 -31q26 -16 55 -25q27 -8 64 -8q44 0 84 19q39 19 65 61h31q-27 -56 -80 -86q-54 -31 -104 -31q-37 0 -70 10
q-24 7 -70 31q-65 35 -116 35q-44 0 -82 -18q-36 -17 -64 -62h-30z" />
    <glyph glyph-name="uni1EBD" unicode="&#x1ebd;" horiz-adv-x="1167" 
d="M156 539l-6 8q-9 -49 -9 -107q0 -139 49 -233q50 -95 132 -141q85 -48 190 -48q98 0 182 37q87 38 154 105t108 157h41q-45 -102 -123 -180q-76 -76 -172 -117q-93 -40 -196 -40q-110 0 -201 49q-93 50 -147 147q-56 100 -56 244q0 165 66 325q65 157 197 256t321 99
q117 0 203 -51q89 -53 139 -148q49 -94 49 -221q0 -62 -18 -141h-903zM416 1004l-2 -5q-109 -66 -174 -178q-64 -111 -88 -241h866q10 72 10 110q0 112 -43 197t-123 135q-79 49 -188 49q-148 0 -258 -67zM422 1333v-6q31 61 82 90q54 31 100 31q36 0 66 -12q28 -11 67 -33
q26 -15 54 -25q21 -8 53 -8q42 0 80 23q33 20 61 65h31q-30 -58 -82 -88q-54 -31 -100 -31q-33 0 -66 13q-26 10 -68 34q-28 16 -53 25q-27 10 -53 10q-44 0 -80 -22q-32 -20 -61 -66h-31z" />
    <glyph glyph-name="uni1ECA" unicode="&#x1eca;" horiz-adv-x="524" 
d="M170 0h-43l330 1556h43zM84 -401h-43l51 241h43z" />
    <glyph glyph-name="uni1ECB" unicode="&#x1ecb;" horiz-adv-x="430" 
d="M119 0h-39l229 1077h39zM399 1315h-39l52 241h39zM33 -401h-39l51 241h39z" />
    <glyph glyph-name="uni1ECC" unicode="&#x1ecc;" horiz-adv-x="1716" 
d="M463 49q-136 70 -217 213q-80 142 -80 342q0 258 106 479q108 226 308 361t460 135q173 0 314 -72q136 -70 217 -213q80 -142 80 -342q0 -256 -107 -479q-108 -226 -307 -360q-201 -136 -461 -136q-172 0 -313 72zM1214 145l-4 -2q185 129 287 344t102 465q0 191 -73 322
t-203 196q-132 66 -301 66q-240 0 -424 -129q-182 -127 -285 -344q-100 -210 -100 -463q0 -188 74 -321t202 -197q132 -66 302 -66q239 0 423 129zM733 -406h-43l51 242h43z" />
    <glyph glyph-name="uni1ECD" unicode="&#x1ecd;" horiz-adv-x="1204" 
d="M309 27l-2 -4q-93 50 -147 147q-56 100 -56 244q0 165 66 325q65 157 197 256t321 99q115 0 207 -50q93 -50 147 -147q56 -100 56 -242q0 -170 -64 -325t-196 -254t-322 -99q-115 0 -207 50zM817 102l-2 -6q118 93 178 244t60 305q0 132 -49 223q-51 94 -136 140
q-86 47 -196 47q-176 0 -295 -94q-118 -93 -178 -244q-58 -146 -58 -305q0 -133 49 -224q48 -89 136 -137q83 -45 196 -45q173 0 295 96zM465 -414h-39l51 242h39z" />
    <glyph glyph-name="uni1EE4" unicode="&#x1ee4;" horiz-adv-x="1597" 
d="M332 90v-4q-119 113 -119 313q0 97 27 226l196 927h43l-198 -938q-27 -129 -27 -211q0 -199 111 -294q114 -97 329 -97q272 0 432 148q162 150 226 456l198 938h43l-200 -946q-68 -317 -240 -473q-175 -158 -463 -158q-239 0 -358 113zM629 -406h-43l51 242h43z" />
    <glyph glyph-name="uni1EE5" unicode="&#x1ee5;" horiz-adv-x="1163" 
d="M1042 1077l37 -2l-229 -1077h-39l49 229q-75 -121 -184 -186q-107 -64 -227 -64q-95 0 -166 41q-71 40 -111 111q-39 68 -39 166q0 39 2 55q4 34 8 51l144 674h39l-142 -663q-3 -13 -8 -54q-2 -16 -2 -57q0 -139 76 -215t209 -76q90 0 182 47q89 45 162 140q71 93 98 217
zM401 -403h-39l52 241h39z" />
    <glyph glyph-name="Ygrave" unicode="&#x1ef2;" horiz-adv-x="1304" 
d="M1466 1556h56l-820 -864l-147 -692h-43l150 705l-435 851h45l418 -819zM944 1694h-37l-227 241h47z" />
    <glyph glyph-name="ygrave" unicode="&#x1ef3;" horiz-adv-x="1091" 
d="M453 109h-39l-277 968h39zM217 -401h-45l956 1478h46zM678 1257h-37l-203 299h45z" />
    <glyph glyph-name="uni1EF8" unicode="&#x1ef8;" horiz-adv-x="1304" 
d="M1466 1556h56l-820 -864l-147 -692h-43l150 705l-435 851h45l418 -819zM584 1755l-11 -2q27 55 84 86t105 31q39 0 72 -10q25 -8 67 -31q26 -16 55 -25q27 -8 64 -8q44 0 84 19q39 19 65 61h31q-27 -56 -80 -86q-54 -31 -104 -31q-37 0 -70 10q-22 7 -69 31
q-65 35 -117 35q-44 0 -82 -18q-36 -17 -64 -62h-30z" />
    <glyph glyph-name="uni1EF9" unicode="&#x1ef9;" horiz-adv-x="1091" 
d="M453 109h-39l-277 968h39zM217 -401h-45l956 1478h46zM379 1331v-6q31 61 82 90q54 31 100 31q36 0 66 -12q28 -11 67 -33q26 -15 54 -25q21 -8 53 -8q42 0 80 23q33 20 61 65h31q-30 -58 -82 -88q-54 -31 -100 -31q-33 0 -66 13q-25 10 -68 34q-28 16 -53 25
q-27 10 -53 10q-44 0 -80 -22q-32 -20 -61 -66h-31z" />
    <glyph glyph-name="uni2009" unicode="&#x2009;" horiz-adv-x="256" 
 />
    <glyph glyph-name="uni2011" unicode="&#x2011;" horiz-adv-x="819" 
d="M721 555h-617l7 33h616z" />
    <glyph glyph-name="endash" unicode="&#x2013;" horiz-adv-x="1050" 
d="M952 555h-848l7 33h847z" />
    <glyph glyph-name="emdash" unicode="&#x2014;" horiz-adv-x="1642" 
d="M1544 555h-1440l7 33h1439z" />
    <glyph glyph-name="quoteleft" unicode="&#x2018;" horiz-adv-x="401" 
d="M483 1556h45l-180 -258l-47 -225h-39l51 240z" />
    <glyph glyph-name="quoteright" unicode="&#x2019;" horiz-adv-x="409" 
d="M403 1331l48 225h38l-51 -239l-170 -244h-45z" />
    <glyph glyph-name="quotesinglbase" unicode="&#x201a;" horiz-adv-x="403" 
d="M70 6l47 225h39l-52 -239l-170 -244h-45z" />
    <glyph glyph-name="quotedblleft" unicode="&#x201c;" horiz-adv-x="655" 
d="M471 1556h45l-180 -258l-47 -225h-39l51 240zM725 1556h45l-180 -258l-47 -225h-39l51 240z" />
    <glyph glyph-name="quotedblright" unicode="&#x201d;" horiz-adv-x="663" 
d="M670 1331l47 225h39l-51 -239l-170 -244h-46zM416 1331l47 225h39l-51 -239l-170 -244h-45z" />
    <glyph glyph-name="quotedblbase" unicode="&#x201e;" horiz-adv-x="657" 
d="M324 6l47 225h39l-52 -239l-170 -244h-45zM70 6l47 225h39l-52 -239l-170 -244h-45z" />
    <glyph glyph-name="dagger" unicode="&#x2020;" horiz-adv-x="1212" 
d="M739 1077h453l-6 -33h-453l-221 -1044h-39l221 1044h-454l6 33h454l103 479h39z" />
    <glyph glyph-name="daggerdbl" unicode="&#x2021;" horiz-adv-x="1212" 
d="M1194 1077l-6 -33h-453l-92 -436h451l-7 -33h-450l-123 -575h-39l123 575h-457l6 33h457l92 436h-454l6 33h454l103 479h39l-103 -479h453z" />
    <glyph glyph-name="bullet" unicode="&#x2022;" horiz-adv-x="694" 
d="M264 494q-37 37 -37 90t37 90t90 37t90 -37t37 -90t-37 -90t-90 -37t-90 37z" />
    <glyph glyph-name="ellipsis" unicode="&#x2026;" horiz-adv-x="1210" 
d="M106 0h-38l49 231h39zM510 0h-39l49 231h39zM913 0h-39l50 231h39z" />
    <glyph glyph-name="perthousand" unicode="&#x2030;" horiz-adv-x="2402" 
d="M788 1008l-6 4q-40 -131 -127 -221q-86 -89 -217 -89q-105 0 -174 78q-67 76 -67 240q0 125 41 256q40 127 127 217q85 88 219 88q109 0 176 -76t67 -239q0 -131 -39 -258zM338 4l1194 1557h45l-1194 -1557h-45zM291 807q58 -70 153 -70q113 0 191 84q74 80 113 207
q36 118 36 242q0 147 -57 213q-58 67 -154 67q-114 0 -190 -82t-113 -204q-37 -121 -37 -242q0 -145 58 -215zM2224 784h-6q68 -77 68 -239q0 -131 -39 -258q-40 -131 -127 -221q-86 -89 -217 -89q-95 0 -162 64q-68 65 -80 197q-47 -119 -129 -189q-84 -72 -199 -72
q-105 0 -174 78q-67 76 -67 240q0 125 41 256q40 127 127 217q85 88 219 88q99 0 163 -61q66 -63 78 -195q47 118 129 188q84 72 199 72q109 0 176 -76zM1528 98q73 79 112 207q37 121 37 242q0 147 -57 213q-58 67 -154 67q-114 0 -190 -82t-113 -204q-37 -121 -37 -242
q0 -145 58 -215t153 -70q113 0 191 84zM2097 98q74 80 113 207q37 121 37 242q0 146 -58 213t-153 67q-115 0 -191 -82q-74 -80 -112 -204q-37 -121 -37 -242q0 -146 57 -215q58 -70 154 -70q112 0 190 84z" />
    <glyph glyph-name="minute" unicode="&#x2032;" horiz-adv-x="372" 
d="M281 1077h-33l174 479h45z" />
    <glyph glyph-name="second" unicode="&#x2033;" horiz-adv-x="573" 
d="M281 1077h-33l174 479h45zM481 1077h-32l174 479h45z" />
    <glyph glyph-name="guilsinglleft" unicode="&#x2039;" horiz-adv-x="669" 
d="M610 1006h49l-499 -455l293 -465h-39l-297 471z" />
    <glyph glyph-name="guilsinglright" unicode="&#x203a;" horiz-adv-x="671" 
d="M221 1006h39l297 -471l-494 -449h-49l500 455z" />
    <glyph glyph-name="uni2042" unicode="&#x2042;" horiz-adv-x="1771" 
d="M1292 1262l4 -31l-346 -41l154 -330l-31 -12l-151 328l-271 -238l-22 23l274 239l-299 178l17 27l297 -176l71 330l29 -7l-72 -331zM735 397l4 -30l-346 -41l154 -330l-31 -12l-151 327l-271 -237l-22 22l274 240l-299 178l16 27l297 -176l72 329l29 -6l-72 -332z
M1698 397l4 -30l-346 -41l153 -330l-30 -12l-152 327l-270 -237l-23 22l275 240l-299 178l16 27l297 -176l72 329l28 -6l-71 -332z" />
    <glyph glyph-name="fraction" unicode="&#x2044;" horiz-adv-x="266" 
d="M-459 0h-47l1329 1556h47z" />
    <glyph glyph-name="uni2070" unicode="&#x2070;" horiz-adv-x="681" 
d="M299 1075q-61 70 -61 215q0 122 36 234q37 116 117 196t201 80q96 0 158 -71q61 -70 61 -216q0 -118 -37 -233q-38 -118 -117 -197t-200 -79q-96 0 -158 71zM635 1112l-2 -6q72 79 102 188q31 115 31 217q0 135 -51 195q-52 61 -135 61q-103 0 -172 -75
q-71 -77 -101 -187q-31 -115 -31 -217q0 -131 52 -192q53 -62 135 -62q100 0 172 78z" />
    <glyph glyph-name="uni2074" unicode="&#x2074;" horiz-adv-x="645" 
d="M655 1303h123l-6 -33h-125l-53 -254h-39l53 254h-434l10 49l471 475h50l-488 -491h399l105 491h39z" />
    <glyph glyph-name="uni2075" unicode="&#x2075;" horiz-adv-x="665" 
d="M823 1761l-424 -6l-106 -350q39 56 104 94q64 37 142 37q55 0 110 -25q52 -24 82 -73q31 -51 31 -119q0 -87 -43 -160t-117 -117q-73 -43 -162 -43q-105 0 -166 52q-62 53 -71 143h41q6 -76 61 -119t144 -43q76 0 141 41q61 39 100 105q37 64 37 139q0 95 -55 141
q-56 47 -140 47q-79 0 -141 -39q-63 -40 -106 -100l-37 4l131 424h450z" />
    <glyph glyph-name="uni2076" unicode="&#x2076;" horiz-adv-x="684" 
d="M453 1714l-4 -2q-71 -59 -117 -160q-47 -104 -56 -223q40 89 117 141q79 54 172 54q66 0 117 -31q50 -30 74 -80t24 -100q0 -85 -39 -156q-41 -74 -110 -117q-70 -43 -160 -43q-60 0 -115 25q-50 23 -86 84q-32 54 -32 151q0 146 49 271q50 128 135 201t188 73
q94 0 148 -51q55 -52 73 -135h-40q-15 69 -62 113q-46 43 -123 43q-83 0 -153 -58zM406 1450l-5 -6q-64 -40 -98 -98q-35 -59 -35 -111q0 -65 27 -111q26 -44 74 -69t104 -25q76 0 135 41q57 39 92 105q33 62 33 135q0 43 -18 84q-17 38 -60 67q-41 27 -102 27
q-85 0 -147 -39z" />
    <glyph glyph-name="uni2077" unicode="&#x2077;" horiz-adv-x="512" 
d="M272 1761l9 33h479l-10 -47l-533 -731h-47l545 745h-443z" />
    <glyph glyph-name="uni2078" unicode="&#x2078;" horiz-adv-x="673" 
d="M678 1403l-10 -4q35 -20 61 -60q25 -39 25 -82q0 -71 -39 -127q-38 -55 -111 -94q-70 -37 -164 -37q-67 0 -125 25q-57 24 -86 70q-30 46 -30 106q0 72 37 121q40 53 92 78q61 30 114 35q-135 40 -135 153q0 52 31 103q29 48 96 84q60 32 154 32q62 0 117 -22
q51 -21 79 -62q27 -40 27 -86q0 -82 -59 -135q-58 -52 -148 -67q33 -8 74 -31zM389 1485l-4 -2q46 -37 129 -37q82 0 137 24q54 24 82 68q27 44 27 92q0 59 -49 99q-46 38 -136 38q-77 0 -131 -28t-77 -70q-25 -45 -25 -88q0 -58 47 -96zM573 1059l2 -8q62 30 99 82t37 116
q0 47 -27 84q-27 38 -74 56t-98 18q-76 0 -143 -25q-64 -24 -101 -73t-37 -113q0 -80 60 -125q58 -43 147 -43q71 0 135 31z" />
    <glyph glyph-name="uni2079" unicode="&#x2079;" horiz-adv-x="669" 
d="M684 1780l-2 -13q50 -23 86 -84q35 -59 35 -149q0 -145 -49 -270q-49 -124 -136 -199q-86 -74 -186 -74q-91 0 -147 53t-74 136h41q15 -70 61 -113t123 -43q83 0 154 59t117 160t55 225q-40 -88 -117 -141q-74 -51 -172 -51q-66 0 -117 31q-49 30 -73 79q-25 52 -25 101
q0 84 41 158q40 72 111 116q70 43 159 43q63 0 115 -24zM629 1343h4q63 40 98 99t35 110q0 64 -27 111q-28 49 -73 72q-46 24 -105 24q-76 0 -135 -41q-58 -40 -92 -104q-33 -62 -33 -135q0 -42 18 -82t60 -68q39 -26 102 -26q84 0 148 40z" />
    <glyph glyph-name="uni207A" unicode="&#x207a;" horiz-adv-x="669" 
d="M537 1403h251l-6 -31h-252l-55 -260h-35l56 260h-254l6 31h254l53 250h35z" />
    <glyph glyph-name="uni207B" unicode="&#x207b;" horiz-adv-x="641" 
d="M735 1372h-485l6 31h485z" />
    <glyph glyph-name="uni207C" unicode="&#x207c;" horiz-adv-x="667" 
d="M772 1473h-485l6 30h485zM729 1274h-485l6 31h485z" />
    <glyph glyph-name="uni207D" unicode="&#x207d;" horiz-adv-x="393" 
d="M356 911h-2q-78 179 -78 351q0 165 74 319t215 307h43q-143 -155 -217 -309t-74 -315q0 -102 21 -187q23 -94 57 -166h-39z" />
    <glyph glyph-name="uni207E" unicode="&#x207e;" horiz-adv-x="393" 
d="M152 911l-2 -2q140 152 217 312q73 152 73 315q0 101 -20 182q-23 92 -58 170h37q41 -83 62 -170q20 -81 20 -182q0 -167 -73 -319q-75 -156 -213 -306h-43z" />
    <glyph glyph-name="uni2080" unicode="&#x2080;" horiz-adv-x="681" 
d="M35 -174q-62 71 -62 215q0 118 37 233q38 118 117 197q80 80 201 80q94 0 157 -72q62 -71 62 -215q0 -118 -37 -233q-38 -118 -117 -197q-80 -80 -200 -80q-95 0 -158 72zM371 -137l-2 -6q72 79 102 188q31 115 31 217q0 135 -51 195q-52 61 -136 61q-102 0 -172 -76
t-100 -186q-31 -115 -31 -217q0 -133 51 -193q52 -61 136 -61q100 0 172 78z" />
    <glyph glyph-name="uni2081" unicode="&#x2081;" horiz-adv-x="337" 
d="M184 545l33 2l-166 -778h-39l135 637h-165l6 32h112q35 0 50 6t18 25z" />
    <glyph glyph-name="uni2082" unicode="&#x2082;" horiz-adv-x="630" 
d="M483 240l-4 4q-48 -61 -143 -131l-408 -310h506l-6 -32h-545l11 49l413 313q95 71 135 123q41 53 41 117q0 70 -55 110q-56 41 -143 41q-86 0 -146 -45q-61 -46 -82 -129h-41q15 64 56 111q39 45 98 69q61 25 123 25q64 0 121 -23q56 -22 84 -63q30 -43 30 -98
q0 -74 -45 -131z" />
    <glyph glyph-name="uni2083" unicode="&#x2083;" horiz-adv-x="647" 
d="M422 125l-21 -14q52 -43 52 -115q0 -70 -41 -129q-39 -57 -111 -92q-67 -33 -156 -33q-109 0 -172 51t-69 144h41q6 -82 59 -123q51 -39 148 -39q71 0 135 28q60 26 96 78q35 50 35 115q0 48 -27 86q-26 37 -74 55q-49 19 -102 19h-33l6 32h33q68 0 129 25q56 23 92 68
q33 42 33 90q0 64 -49 104q-50 41 -141 41q-74 0 -135 -43q-64 -45 -84 -113h-41q19 61 61 103q41 41 96 63q58 23 111 23q69 0 121 -21q54 -21 80 -61q28 -42 28 -88q0 -56 -33 -98q-36 -45 -86 -68q-56 -26 -106 -31q75 -15 125 -57z" />
    <glyph glyph-name="uni2084" unicode="&#x2084;" horiz-adv-x="645" 
d="M391 53h123l-6 -33h-125l-53 -253h-39l53 253h-434l10 50l471 475h49l-487 -492h399l105 492h39z" />
    <glyph glyph-name="uni2085" unicode="&#x2085;" horiz-adv-x="665" 
d="M559 512l-424 -6l-106 -350q39 56 104 94q64 37 141 37q56 0 111 -25q51 -23 82 -74t31 -118q0 -87 -43 -160q-43 -74 -117 -117q-73 -43 -162 -43q-106 0 -166 51q-62 53 -71 144h41q6 -76 61 -119t143 -43q77 0 142 41q62 39 100 104q37 64 37 140q0 95 -55 141
q-56 47 -140 47q-79 0 -141 -39q-65 -41 -107 -100l-36 4l131 424h450z" />
    <glyph glyph-name="uni2086" unicode="&#x2086;" horiz-adv-x="684" 
d="M188 465l-4 -2q-69 -57 -116 -160q-47 -104 -56 -223q40 88 117 141t172 53q67 0 117 -30t74 -80t24 -101q0 -84 -39 -155q-41 -74 -110 -117q-70 -43 -160 -43q-60 0 -115 25q-50 23 -86 84q-33 56 -33 151q0 144 50 271t135 200q86 74 188 74q94 0 148 -51
q55 -52 73 -135h-41q-15 69 -61 112t-123 43q-85 0 -154 -57zM141 201l-4 -6q-63 -40 -98 -99t-35 -110q0 -64 27 -111q27 -46 73 -70t105 -24q76 0 135 41q58 40 92 104q33 62 33 135q0 43 -18 84q-18 40 -60 68q-41 27 -102 27q-86 0 -148 -39z" />
    <glyph glyph-name="uni2087" unicode="&#x2087;" horiz-adv-x="512" 
d="M8 512l8 33h480l-11 -47l-532 -731h-47l545 745h-443z" />
    <glyph glyph-name="uni2088" unicode="&#x2088;" horiz-adv-x="673" 
d="M414 154l-11 -4q37 -21 62 -60q24 -37 24 -82q0 -72 -38 -127t-111 -94q-70 -37 -164 -37q-67 0 -125 25t-86 69q-31 48 -31 107q0 72 37 121q40 53 92 78q58 28 115 34q-135 40 -135 154q0 51 31 102q29 48 96 84q62 33 154 33q61 0 116 -22q53 -21 80 -62t27 -86
q0 -81 -60 -135q-59 -53 -147 -68q36 -9 74 -30zM125 236l-4 -3q45 -36 129 -36q82 0 137 24q54 24 82 68q27 43 27 92q0 57 -50 98q-48 39 -135 39q-75 0 -131 -29t-78 -69q-24 -44 -24 -88q0 -58 47 -96zM309 -190l2 -9q62 30 99 82q36 50 36 117q0 48 -26 84
q-26 37 -74 55q-49 19 -98 19q-77 0 -144 -25q-61 -23 -100 -74q-37 -49 -37 -112q0 -80 60 -125q58 -43 147 -43q71 0 135 31z" />
    <glyph glyph-name="uni2089" unicode="&#x2089;" horiz-adv-x="669" 
d="M420 530l-2 -12q50 -23 86 -84q35 -59 35 -149q0 -144 -50 -271q-49 -124 -135 -198t-186 -74q-92 0 -148 53q-55 52 -73 135h41q15 -69 61 -112t123 -43q83 0 154 59q69 57 116 160t56 225q-40 -89 -117 -141q-74 -51 -172 -51q-67 0 -117 30t-74 80q-24 49 -24 101
q0 83 41 157t110 117q70 43 160 43q60 0 115 -25zM365 94h4q63 40 98 99t35 110q0 65 -27 111q-27 47 -74 71q-48 25 -104 25q-76 0 -135 -41q-58 -40 -92 -104q-33 -62 -33 -136q0 -41 18 -82q17 -38 60 -67q41 -27 102 -27q83 0 148 41z" />
    <glyph glyph-name="uni208A" unicode="&#x208a;" horiz-adv-x="669" 
d="M270 154h252l-6 -31h-252l-55 -260h-35l55 260h-254l7 31h254l53 249h35z" />
    <glyph glyph-name="uni208B" unicode="&#x208b;" horiz-adv-x="641" 
d="M469 123h-485l6 31h485z" />
    <glyph glyph-name="uni208C" unicode="&#x208c;" horiz-adv-x="667" 
d="M508 223h-485l6 31h485zM465 25h-485l6 30h485z" />
    <glyph glyph-name="uni208D" unicode="&#x208d;" horiz-adv-x="393" 
d="M90 -338h-2q-78 179 -78 350q0 166 74 320t215 307h43q-143 -155 -217 -309t-74 -316q0 -100 21 -186q23 -94 57 -166h-39z" />
    <glyph glyph-name="uni208E" unicode="&#x208e;" horiz-adv-x="393" 
d="M-113 -338l-2 -2q141 153 217 311q74 154 74 316q0 101 -20 182q-23 92 -58 170h37q41 -83 62 -170q20 -81 20 -182q0 -166 -74 -320t-213 -305h-43z" />
    <glyph glyph-name="uni20A9" unicode="&#x20a9;" horiz-adv-x="2029" 
d="M2001 1556h43l-246 -585h236l-9 -37h-241l-131 -313h262l-8 -37h-271l-243 -584h-43l243 584h-288l4 -584h-39l-4 584h-465l-252 -584h-43l252 584h-289l-4 -584h-39l4 584h-293l8 37h285v313h-264l8 37h256l4 585h39l-4 -585h455l252 585h43l-252 -585h297l-4 585h38
l5 -585h452zM469 934v-313h303l135 313h-438zM950 934l-135 -313h451l-2 313h-314zM1305 621h305l131 313h-438z" />
    <glyph glyph-name="Euro" unicode="&#x20ac;" horiz-adv-x="1630" 
d="M862 1460l-6 -6q-127 -78 -227 -215q-96 -132 -156 -301h748l-23 -37h-737q-41 -132 -53 -254h647l-21 -37h-628q-3 -21 -3 -61q0 -165 56 -289q56 -123 155 -186q101 -64 236 -64q172 0 319 105q148 105 248 284h43q-102 -200 -264 -313t-352 -113q-145 0 -252 70
q-108 70 -166 199q-59 130 -59 305q0 49 2 63h-246l22 37h226q13 138 51 252h-207l23 37h196q58 173 164 319q108 148 246 232q142 86 301 86q130 0 233 -53q99 -51 162 -148q61 -93 82 -221h-43q-27 180 -141 285q-113 104 -303 104q-143 0 -273 -80z" />
    <glyph glyph-name="uni20B8" unicode="&#x20b8;" horiz-adv-x="1265" 
d="M289 1520l8 36h1104l-8 -36h-1104zM760 1229h-533l9 37h1103l-8 -37h-530l-262 -1229h-41z" />
    <glyph glyph-name="uni20B9" unicode="&#x20b9;" horiz-adv-x="1323" 
d="M1452 1520l-504 -2q101 -45 162 -140q57 -89 57 -202v-29h207l-8 -37h-203q-21 -201 -174 -303q-150 -100 -409 -100h-355l670 -707h-55l-652 686l13 57h387q233 0 373 93q138 92 159 276h-841l8 37h837v29q0 96 -43 172t-127 123q-83 47 -202 47h-387l8 36h1087z" />
    <glyph glyph-name="uni20BA" unicode="&#x20ba;" horiz-adv-x="1212" 
d="M1149 643q-49 -240 -141 -381t-242 -203q-149 -61 -381 -61h-180l145 686l-235 -66l8 39l235 66l56 264l-236 -67l8 38l236 68l113 528h40l-108 -516l524 148l-8 -39l-524 -148l-58 -264l525 148l-8 -39l-525 -148l-139 -661h139q220 0 357 57q141 59 227 191
q87 134 133 360h39z" />
    <glyph glyph-name="uni20BD" unicode="&#x20bd;" horiz-adv-x="1394" 
d="M424 713l-53 -256h450l-8 -37h-448l-91 -422h-41l91 422h-234l8 37h232l55 254h-233l8 37h233l170 806h320q154 0 270 -45q119 -46 188 -127q68 -80 68 -180q0 -489 -709 -489h-276zM596 1518l-164 -773h277q657 0 657 443q0 100 -59 174q-59 75 -170 115
q-112 41 -263 41h-278z" />
    <glyph glyph-name="uni20BF" unicode="&#x20bf;" horiz-adv-x="1380" 
d="M1057 739l2 -6q80 -53 123 -125q43 -73 43 -155q0 -101 -51 -197q-52 -97 -175 -168q-124 -71 -315 -86l-57 -274h-41l57 270q-16 -2 -78 -2h-112l-58 -268h-41l58 268h-273l330 1556h272l56 258h41l-56 -258h80q70 0 109 -8l57 266h41l-59 -274q92 -20 159 -72
q69 -53 97 -116q30 -68 30 -142q0 -117 -57 -200q-59 -86 -154 -136q-91 -48 -208 -63q99 -15 180 -68zM502 1513l-148 -700h394q163 0 276 49t172 135t59 193q0 91 -43 164q-43 72 -129 116q-85 43 -202 43h-379zM571 25l-6 -2q233 0 367 67q133 66 190 164q56 95 56 197
q0 87 -50 161q-49 73 -147 119q-96 45 -240 45h-393l-160 -751h383z" />
    <glyph glyph-name="uni2113" unicode="&#x2113;" horiz-adv-x="825" 
d="M233 193l3 10q-9 -35 -9 -70q0 -60 33 -86q34 -27 98 -27q62 0 123 25q55 23 123 84l-8 -41q-57 -54 -119 -80t-129 -26q-77 0 -119 36q-43 37 -43 103q0 39 9 74l63 294l-174 -124l-21 26l205 148l125 589q95 453 350 453q79 0 127 -51q50 -53 50 -160q0 -159 -80 -307
t-215 -277q-132 -126 -322 -266zM315 582h2q273 201 416 389q148 195 148 407q0 96 -39 135q-41 41 -105 41q-110 0 -186 -110q-77 -111 -117 -307z" />
    <glyph glyph-name="uni2116" unicode="&#x2116;" horiz-adv-x="2416" 
d="M1937 848l-2 -2q-62 33 -100 102q-37 67 -37 164q0 114 43 221q42 105 133 174q89 68 221 68q80 0 142 -33q65 -34 102 -102q37 -67 37 -164q0 -114 -43 -221q-42 -105 -133 -174q-89 -68 -221 -68q-77 0 -142 35zM172 -4h-43l330 1556h43zM1268 -4h-45l-680 1556h45z
M1352 -4h-43l329 1556h43zM2279 907v-2q78 63 119 164q39 95 39 203q0 128 -67 198t-179 70q-118 0 -196 -63q-79 -64 -119 -162q-39 -95 -39 -203q0 -128 68 -199q66 -69 178 -69q118 0 196 63z" />
    <glyph glyph-name="uni2117" unicode="&#x2117;" horiz-adv-x="1998" 
d="M1473 1507h-5q195 -115 308 -307q114 -193 114 -424q0 -234 -112 -424q-113 -192 -308 -307q-192 -113 -423 -113q-232 0 -424 113q-195 115 -308 307q-112 190 -112 424q0 230 114 424q113 192 308 307q192 113 424 113t424 -113zM1450 80l-4 -4q185 108 293 293
t108 403q0 223 -106 404q-107 183 -293 292t-404 109q-220 0 -403 -107q-186 -109 -293 -292q-106 -181 -106 -404q0 -218 108 -403t293 -293q183 -107 404 -107q217 0 403 109zM1067 1286h-2q183 0 287 -76t104 -227t-104 -227t-285 -76h-272v-422h-35v1028h307zM1065 713
h-2q171 0 262 67q92 68 92 201q0 132 -92 203q-90 69 -260 69h-272v-540h272z" />
    <glyph glyph-name="uni2120" unicode="&#x2120;" horiz-adv-x="1669" 
d="M594 1235l-10 -4q107 -21 157 -62t50 -110q0 -60 -31 -111q-29 -48 -90 -76q-56 -26 -138 -26q-69 0 -122 26q-56 27 -93 76q-38 51 -47 113h37q12 -83 76 -135t154 -52q62 0 116 23q52 22 78 61q29 44 29 93q0 45 -25 73q-24 27 -67 45q-44 18 -111 33l-76 17
q-85 18 -137 55q-51 36 -51 112q0 45 31 87q30 41 86 65q58 25 122 25q102 0 170 -50q69 -51 84 -135h-36q-15 71 -74 115q-58 43 -141 43q-59 0 -105 -18t-70 -52t-24 -73q0 -60 43 -90q45 -31 139 -52zM1585 1552v-700h-35v684l-268 -684h-72l-270 690v-690h-35v700h68
l272 -694l273 694h67z" />
    <glyph glyph-name="trademark" unicode="&#x2122;" horiz-adv-x="1646" 
d="M524 1524h-245v32h526v-32h-246v-668h-35v668zM1546 1556v-700h-35v684l-268 -684h-72l-270 690v-690h-35v700h68l272 -694l273 694h67z" />
    <glyph glyph-name="uni2150" unicode="&#x2150;" horiz-adv-x="1353" 
d="M842 745l8 33h479l-10 -47l-533 -731h-47l545 745h-442zM496 1556l32 3l-166 -779h-38l135 637h-166l6 33h113q34 0 49 6t18 25zM12 2h-47l1329 1557h47z" />
    <glyph glyph-name="uni2151" unicode="&#x2151;" horiz-adv-x="1380" 
d="M1147 764l-2 -12q50 -23 86 -84q35 -59 35 -150q0 -145 -49 -270q-49 -124 -136 -199q-86 -74 -186 -74q-90 0 -147 54q-56 53 -74 135h41q15 -70 61 -113t123 -43q82 0 154 60q70 58 116 159q47 103 56 226q-41 -90 -117 -142q-74 -51 -172 -51q-66 0 -117 31
q-50 30 -74 80q-24 49 -24 100q0 84 41 158q40 73 110 116t160 43q62 0 115 -24zM1092 328h4q64 40 98 98q35 59 35 111q0 63 -27 110q-28 48 -74 72q-47 24 -104 24q-76 0 -135 -41q-58 -40 -92 -104q-33 -62 -33 -135q0 -41 18 -82q18 -40 60 -68q39 -26 102 -26
q83 0 148 41zM496 1542l32 2l-166 -778h-38l135 637h-166l6 33h113q34 0 49 6t18 24zM12 -12h-47l1329 1556h47z" />
    <glyph glyph-name="uni2152" unicode="&#x2152;" horiz-adv-x="1714" 
d="M940 778l33 2l-166 -778h-39l135 637h-166l6 33h113q34 0 49 6q16 6 19 24zM1098 61q-62 71 -62 215q0 119 37 234q38 118 117 197t201 79q95 0 157 -71t62 -215q0 -119 -37 -234q-37 -116 -117 -196t-201 -80q-95 0 -157 71zM1434 98l-2 -6q72 78 102 189q31 115 31 217
q0 133 -52 194q-53 62 -135 62q-102 0 -172 -76t-100 -186q-31 -115 -31 -218q0 -132 51 -192q53 -62 136 -62q100 0 172 78zM489 1550l33 2l-166 -778h-39l136 637h-166l6 33h113q34 0 49 6t18 25zM6 -4h-47l1329 1556h47z" />
    <glyph glyph-name="uni2153" unicode="&#x2153;" horiz-adv-x="1359" 
d="M494 1556l32 3l-166 -779h-38l135 637h-166l6 33h113q34 0 49 6t18 25zM10 2h-47l1329 1557h47zM1143 360l-21 -14q52 -43 52 -115q0 -70 -41 -129q-39 -57 -111 -92q-67 -33 -156 -33q-108 0 -172 52q-63 51 -69 143h41q6 -82 59 -123q51 -39 147 -39q70 0 136 29
q60 26 96 78q35 50 35 114q0 49 -27 86q-27 38 -74 56q-46 18 -102 18h-33l6 33h33q68 0 129 25q58 24 92 67q33 42 33 90q0 65 -49 105q-50 41 -141 41q-75 0 -136 -43q-64 -45 -84 -113h-41q18 58 62 102q43 43 96 64q55 22 111 22q71 0 121 -20q51 -21 79 -62
q29 -44 29 -88q0 -56 -33 -98q-34 -43 -86 -67q-56 -26 -106 -31q73 -15 125 -58z" />
    <glyph glyph-name="uni2154" unicode="&#x2154;" horiz-adv-x="1619" 
d="M748 1251l-5 4q-48 -61 -143 -131l-407 -309h505l-6 -33h-545l11 49l413 314q97 72 136 123q41 53 41 116q0 70 -56 111t-143 41q-86 0 -146 -45t-81 -129h-41q15 65 55 111q39 45 98 69q61 25 123 25q63 0 121 -23q56 -22 84 -63q31 -45 31 -99q0 -74 -45 -131zM244 2
h-47l1329 1557h47zM1403 360l-21 -14q52 -43 52 -115q0 -70 -41 -129q-39 -57 -111 -92q-67 -33 -156 -33q-108 0 -172 52q-63 51 -69 143h41q6 -82 59 -123q51 -39 148 -39q69 0 135 29q60 26 96 78q35 50 35 114q0 49 -27 86q-27 38 -74 56q-46 18 -102 18h-33l6 33h33
q68 0 129 25q58 24 92 67q33 42 33 90q0 65 -49 105q-50 41 -141 41q-75 0 -136 -43q-63 -44 -83 -113h-41q18 59 61 102t96 64q55 22 111 22q71 0 121 -20q53 -21 80 -62q28 -42 28 -88q0 -56 -33 -98q-34 -43 -86 -67q-56 -26 -106 -31q73 -15 125 -58z" />
    <glyph glyph-name="uni2155" unicode="&#x2155;" horiz-adv-x="1382" 
d="M1284 745l-424 -6l-106 -350q39 56 104 94q64 37 141 37q59 0 111 -24q51 -23 82 -74t31 -119q0 -87 -43 -160q-43 -72 -117 -116q-73 -43 -162 -43q-106 0 -166 51q-62 53 -71 143h41q6 -76 61 -119t143 -43q77 0 142 41q61 39 100 105q37 64 37 139q0 95 -55 141
q-56 47 -140 47q-80 0 -141 -38q-64 -40 -107 -101l-36 4l131 424h450zM485 1550l33 2l-166 -778h-39l136 637h-166l6 33h112q35 0 50 6t18 25zM2 -4h-47l1329 1556h47z" />
    <glyph glyph-name="uni2156" unicode="&#x2156;" horiz-adv-x="1644" 
d="M748 1251l-5 4q-48 -61 -143 -131l-407 -309h505l-6 -33h-545l11 49l413 314q97 72 136 123q41 53 41 116q0 70 -56 111t-143 41q-86 0 -146 -45t-81 -129h-41q15 65 55 111q39 45 98 69q61 25 123 25q63 0 121 -23q56 -22 84 -63q31 -45 31 -99q0 -74 -45 -131zM244 2
h-47l1329 1557h47zM1542 748l-424 -7l-106 -350q39 56 104 94q64 37 141 37q59 0 111 -24q51 -23 82 -74t31 -119q0 -87 -43 -160q-43 -72 -117 -116q-73 -43 -162 -43q-106 0 -166 51q-62 53 -71 143h41q6 -76 61 -119t143 -43q77 0 142 41q61 39 100 105q37 64 37 139
q0 95 -55 141q-57 48 -140 48q-79 0 -141 -39t-106 -101l-37 4l131 424h450z" />
    <glyph glyph-name="uni2157" unicode="&#x2157;" horiz-adv-x="1644" 
d="M674 1137l-21 -15q52 -43 52 -114q0 -70 -41 -129q-40 -59 -111 -93q-65 -32 -156 -32q-109 0 -172 51t-69 143h41q6 -82 59 -123q51 -39 147 -39q70 0 136 29q60 26 96 78q35 50 35 115q0 48 -27 86q-26 37 -74 55q-47 18 -102 18h-33l6 33h33q68 0 129 25q58 24 92 67
q33 42 33 90q0 65 -49 105q-50 41 -141 41q-75 0 -136 -43q-64 -45 -84 -113h-41q18 59 62 103q41 41 96 63q57 23 111 23q69 0 121 -21t79 -61q29 -43 29 -88q0 -57 -33 -99q-34 -43 -86 -67q-56 -26 -106 -31q75 -15 125 -57zM229 -16h-47l1329 1556h48zM1528 729l-424 -6
l-107 -350q38 55 105 94q64 37 141 37q56 0 111 -25q52 -24 82 -73q30 -50 30 -119q0 -87 -43 -160q-44 -74 -116 -117q-73 -43 -162 -43q-106 0 -166 51q-63 54 -72 144h41q6 -75 62 -119q55 -43 143 -43q76 0 141 41q64 40 101 104t37 140q0 94 -56 141t-139 47
q-79 0 -141 -39q-65 -41 -107 -100l-37 4l131 424h451z" />
    <glyph glyph-name="uni2158" unicode="&#x2158;" horiz-adv-x="1691" 
d="M655 1065h123l-6 -33h-125l-53 -254h-39l53 254h-434l10 49l471 475h50l-488 -491h399l105 491h39zM285 0h-47l1329 1556h47zM1583 745l-424 -6l-106 -350q39 56 104 94q64 37 141 37q58 0 111 -24q51 -23 82 -74t31 -119q0 -87 -43 -160q-43 -72 -117 -116
q-73 -43 -162 -43q-106 0 -166 51q-62 53 -71 143h41q6 -76 61 -119t143 -43q77 0 142 41q61 39 100 105q37 64 37 139q0 95 -55 141q-56 47 -140 47q-80 0 -141 -38q-64 -40 -107 -101l-36 4l131 424h450z" />
    <glyph glyph-name="uni2159" unicode="&#x2159;" horiz-adv-x="1380" 
d="M901 698l-4 -2q-72 -59 -117 -159q-46 -101 -55 -224q41 90 117 142q77 53 172 53q65 0 116 -31q50 -30 74 -80q25 -52 25 -100q0 -85 -39 -156q-40 -72 -111 -116q-70 -43 -159 -43q-62 0 -115 24q-50 23 -86 84q-33 56 -33 152q0 145 49 270q50 128 135 201t189 73
q93 0 147 -51q56 -53 74 -135h-41q-15 70 -61 113t-123 43q-84 0 -154 -58zM854 434l-4 -6q-64 -40 -98 -98q-35 -59 -35 -111q0 -65 26 -110t74 -70t105 -25q76 0 135 41q57 39 92 105q33 62 33 135q0 41 -19 84q-17 39 -59 67q-40 27 -103 27q-85 0 -147 -39zM483 1546
l33 2l-166 -778h-39l135 637h-165l6 33h112q35 0 50 6t18 24zM0 -8h-47l1329 1556h47z" />
    <glyph glyph-name="uni215A" unicode="&#x215a;" horiz-adv-x="1632" 
d="M801 1524l-424 -6l-107 -351q39 57 105 95q62 36 141 36q58 0 111 -24q51 -23 82 -74q30 -50 30 -119q0 -86 -43 -159q-44 -74 -116 -117q-73 -43 -162 -43q-106 0 -166 51q-63 54 -72 143h41q6 -74 62 -118q55 -43 143 -43q76 0 141 41q64 40 101 104t37 139
q0 95 -56 142t-139 47q-79 0 -141 -39q-64 -40 -107 -101l-37 5l131 423h451zM233 -6h-47l1330 1556h47zM1149 692l-4 -2q-71 -59 -117 -160t-55 -223q41 90 117 142q77 53 172 53q65 0 116 -31q50 -30 74 -80q25 -52 25 -100q0 -85 -39 -156q-40 -73 -111 -117
q-70 -43 -160 -43q-59 0 -114 25q-50 23 -86 84q-33 56 -33 152q0 145 49 270q50 128 135 201t189 73q93 0 147 -51q56 -53 74 -135h-41q-15 69 -62 113q-46 43 -122 43q-84 0 -154 -58zM1102 428l-4 -6q-65 -41 -99 -98q-34 -58 -34 -111q0 -66 26 -111q26 -44 74 -69
t104 -25q77 0 136 41q57 39 92 105q33 62 33 135q0 41 -19 84q-17 39 -59 67q-40 27 -103 27q-85 0 -147 -39z" />
    <glyph glyph-name="oneeighth" unicode="&#x215b;" horiz-adv-x="1392" 
d="M1147 383l-10 -4q35 -20 61 -60q25 -39 25 -81q0 -71 -39 -127q-39 -57 -111 -95q-68 -36 -164 -36q-69 0 -125 24q-57 24 -86 70q-30 47 -30 106q0 72 37 121q40 53 92 78q61 30 114 35q-135 40 -135 153q0 52 31 103q29 48 96 84q60 32 154 32q62 0 117 -22
q51 -21 79 -62q27 -40 27 -86q0 -82 -59 -135q-58 -52 -148 -67q33 -8 74 -31zM858 465l-4 -2q46 -37 129 -37q79 0 137 25q55 24 82 67q27 44 27 92q0 59 -49 99q-48 39 -136 39q-75 0 -131 -29q-54 -28 -77 -70q-25 -45 -25 -88q0 -58 47 -96zM1042 39l2 -8q62 30 99 82
t37 116q0 47 -27 84q-27 38 -74 56q-46 18 -98 18q-76 0 -143 -25q-64 -24 -101 -73t-37 -113q0 -80 60 -125q58 -43 147 -43q71 0 135 31zM479 1540l33 2l-166 -778h-39l135 637h-166l7 33h112q34 0 49 6q16 6 19 24zM-4 -14h-47l1329 1556h47z" />
    <glyph glyph-name="threeeighths" unicode="&#x215c;" horiz-adv-x="1652" 
d="M674 1137l-21 -15q52 -43 52 -114q0 -70 -41 -129q-40 -59 -111 -93q-65 -32 -156 -32q-109 0 -172 51t-69 143h41q6 -82 59 -123q51 -39 147 -39q70 0 136 29q60 26 96 78q35 50 35 115q0 48 -27 86q-26 37 -74 55q-47 18 -102 18h-33l6 33h33q68 0 129 25q58 24 92 67
q33 42 33 90q0 65 -49 105q-50 41 -141 41q-75 0 -136 -43q-64 -45 -84 -113h-41q18 59 62 103q41 41 96 63q57 23 111 23q69 0 121 -21t79 -61q29 -43 29 -88q0 -57 -33 -99q-34 -43 -86 -67q-56 -26 -106 -31q75 -15 125 -57zM229 -16h-47l1329 1556h48zM1391 367l-11 -5
q38 -21 62 -59q24 -37 24 -82q0 -71 -39 -127t-110 -94q-70 -37 -164 -37q-67 0 -125 25t-86 69q-31 48 -31 107q0 72 37 121q39 51 92 77q60 29 115 35q-135 41 -135 154q0 51 31 102q29 48 96 84q62 33 153 33q62 0 117 -22q53 -21 80 -62t27 -86q0 -81 -60 -135
q-59 -53 -147 -68q36 -9 74 -30zM1102 449l-4 -3q45 -36 129 -36q82 0 137 24q54 24 82 68q27 43 27 92q0 57 -50 98q-48 39 -135 39q-75 0 -131 -29t-78 -69q-24 -43 -24 -88q0 -58 47 -96zM1286 23l2 -9q61 30 98 82t37 117q0 48 -26 84q-26 37 -74 55q-49 19 -98 19
q-77 0 -144 -25q-61 -23 -100 -74q-37 -49 -37 -112q0 -80 60 -125q58 -43 147 -43q71 0 135 31z" />
    <glyph glyph-name="fiveeighths" unicode="&#x215d;" horiz-adv-x="1644" 
d="M801 1524l-424 -6l-107 -351q39 57 105 95q62 36 141 36q58 0 111 -24q51 -23 82 -74q30 -50 30 -119q0 -86 -43 -159q-44 -74 -116 -117q-73 -43 -162 -43q-106 0 -166 51q-63 54 -72 143h41q6 -74 62 -118q55 -43 143 -43q76 0 141 41q64 40 101 104t37 139
q0 95 -56 142t-139 47q-79 0 -141 -39q-64 -40 -107 -101l-37 5l131 423h451zM233 -6h-47l1330 1556h47zM1395 377l-11 -4q37 -21 62 -60q24 -38 24 -82q0 -72 -38 -127t-111 -94q-70 -37 -164 -37q-67 0 -125 25q-57 24 -86 70q-31 48 -31 106q0 72 37 121q40 53 92 78
q60 29 115 35q-135 40 -135 153q0 52 31 103q29 48 96 84q60 32 154 32q61 0 116 -22q53 -21 80 -62q27 -40 27 -86q0 -81 -60 -135q-58 -52 -147 -67q33 -8 74 -31zM1106 459l-4 -2q46 -37 129 -37q81 0 137 24q54 24 82 68q27 43 27 92q0 57 -50 98q-48 39 -135 39
q-77 0 -131 -28q-55 -28 -78 -70q-24 -44 -24 -88q0 -58 47 -96zM1290 33l2 -8q63 31 99 81t36 117q0 48 -26 84q-26 37 -74 55q-49 19 -98 19q-77 0 -144 -25q-62 -23 -100 -73q-37 -49 -37 -113q0 -80 60 -125q58 -43 147 -43q71 0 135 31z" />
    <glyph glyph-name="seveneighths" unicode="&#x215e;" horiz-adv-x="1466" 
d="M291 1524l8 32h479l-10 -47l-532 -731h-48l545 746h-442zM63 0h-47l1330 1556h47zM1225 383l-11 -4q37 -21 62 -60q24 -37 24 -81q0 -72 -38 -127q-39 -57 -111 -95q-68 -36 -164 -36q-69 0 -125 24q-57 24 -86 70q-31 48 -31 106q0 72 37 121q40 53 92 78q60 29 115 35
q-135 40 -135 153q0 52 31 103q29 48 96 84q60 32 154 32q61 0 116 -22q53 -21 80 -62q27 -40 27 -86q0 -81 -60 -135q-58 -52 -147 -67q33 -8 74 -31zM936 465l-4 -2q46 -37 129 -37q79 0 137 25q55 24 82 67q27 44 27 92q0 58 -50 99q-48 39 -135 39q-75 0 -131 -29
q-55 -28 -78 -70q-24 -43 -24 -88q0 -58 47 -96zM1120 39l2 -8q62 30 99 82q36 50 36 116q0 48 -26 84q-27 38 -74 56t-98 18q-77 0 -144 -25q-62 -23 -100 -73q-37 -49 -37 -113q0 -80 60 -125q58 -43 147 -43q71 0 135 31z" />
    <glyph glyph-name="uni215F" unicode="&#x215f;" horiz-adv-x="1230" 
d="M532 1556l33 3l-166 -779h-39l136 637h-166l6 33h113q34 0 49 6t18 25zM49 2h-47l1329 1557h47z" />
    <glyph glyph-name="uni2189" unicode="&#x2189;" horiz-adv-x="1611" 
d="M274 838q-61 70 -61 215q0 118 37 233q38 118 117 197q80 80 200 80q95 0 158 -72q61 -70 61 -215q0 -122 -36 -234q-37 -116 -117 -196t-201 -80q-95 0 -158 72zM610 874l-2 -6q73 80 103 189q30 111 30 217q0 134 -51 194q-53 62 -135 62q-102 0 -172 -76t-100 -186
q-31 -115 -31 -217q0 -133 51 -193q52 -61 135 -61q101 0 172 77zM238 -8h-48l1330 1556h47zM1397 350l-21 -14q51 -42 51 -115q0 -70 -41 -129q-40 -58 -110 -92q-67 -33 -156 -33q-109 0 -172 51t-69 144h41q6 -82 59 -123q51 -39 147 -39q70 0 136 29q61 27 96 77t35 115
q0 49 -27 86q-26 37 -74 55q-49 19 -102 19h-33l6 33h33q70 0 129 24q56 23 92 68q33 42 33 90q0 64 -49 104q-50 41 -141 41q-75 0 -136 -43q-64 -45 -84 -112h-41q18 58 62 102q43 43 96 64q55 22 111 22q71 0 121 -20q51 -21 79 -62q29 -44 29 -88q0 -56 -33 -98
q-36 -45 -86 -68q-53 -24 -106 -30q73 -15 125 -58z" />
    <glyph glyph-name="arrowleft" unicode="&#x2190;" horiz-adv-x="1576" 
d="M283 797h1247v-39h-1245l561 -539h-58l-581 559l581 559h58z" />
    <glyph glyph-name="arrowup" unicode="&#x2191;" horiz-adv-x="1576" 
d="M840 1434l559 -582v-57l-539 561v-1245h-39v1247l-540 -563v57z" />
    <glyph glyph-name="arrowright" unicode="&#x2192;" horiz-adv-x="1576" 
d="M834 1337h57l582 -559l-582 -559h-57l561 539h-1245v39h1247z" />
    <glyph glyph-name="arrowdown" unicode="&#x2193;" horiz-adv-x="1576" 
d="M862 1446v-1245l539 561v-57l-559 -582l-559 582v57l540 -563v1247h39z" />
    <glyph glyph-name="uni2196" unicode="&#x2196;" horiz-adv-x="1576" 
d="M424 1237l973 -975l-27 -26l-977 976v-770l-35 43v787h787l43 -35h-764z" />
    <glyph glyph-name="uni2197" unicode="&#x2197;" horiz-adv-x="1576" 
d="M479 1237l43 35h787v-787l-35 -43v770l-977 -976l-27 26l973 975h-764z" />
    <glyph glyph-name="uni2198" unicode="&#x2198;" horiz-adv-x="1576" 
d="M1286 344v770l35 -43v-786h-786l-43 34h763l-972 975l26 27z" />
    <glyph glyph-name="uni2199" unicode="&#x2199;" horiz-adv-x="1576" 
d="M1382 1321l27 -27l-973 -975h764l-43 -34h-786v786l35 43v-770z" />
    <glyph glyph-name="uni21A4" unicode="&#x21a4;" horiz-adv-x="1576" 
d="M1376 797v540h35v-1118h-35v539h-1196l561 -539h-57l-582 559l582 559h57l-563 -540h1198z" />
    <glyph glyph-name="uni21A5" unicode="&#x21a5;" horiz-adv-x="1576" 
d="M1409 891v-57l-539 561v-1184h539v-35h-1118v35h540v1186l-540 -563v57l559 582z" />
    <glyph glyph-name="uni21A6" unicode="&#x21a6;" horiz-adv-x="1576" 
d="M938 1337h57l582 -559l-582 -559h-57l561 539h-1196v-539h-35v1118h35v-540h1198z" />
    <glyph glyph-name="uni21A7" unicode="&#x21a7;" horiz-adv-x="1576" 
d="M1389 1380v-34h-539v-1184l539 561v-57l-560 -582l-559 582v57l541 -563v1186h-541v34h1119z" />
    <glyph glyph-name="uni21B0" unicode="&#x21b0;" horiz-adv-x="1576" 
d="M182 797h1241v-797h-39v758h-1200l561 -539h-57l-582 559l582 559h57z" />
    <glyph glyph-name="uni21B1" unicode="&#x21b1;" horiz-adv-x="1576" 
d="M887 1337h57l582 -559l-582 -559h-57l561 539h-1200v-758h-39v797h1241z" />
    <glyph glyph-name="uni21B2" unicode="&#x21b2;" horiz-adv-x="1576" 
d="M1434 799v757h39v-796h-1242l564 -541h-58l-581 559l581 559h58l-562 -538h1201z" />
    <glyph glyph-name="uni21B3" unicode="&#x21b3;" horiz-adv-x="1576" 
d="M932 1337h57l582 -559l-582 -559h-57l563 541h-1241v796h39v-757h1200z" />
    <glyph glyph-name="partialdiff" unicode="&#x2202;" horiz-adv-x="1298" 
d="M311 1567h-8q471 -50 664 -295q194 -247 194 -606q0 -374 -149 -529q-151 -157 -383 -157q-141 0 -260 61q-120 61 -187 178q-67 116 -67 273t67 270q68 114 185 176q116 61 262 61q149 0 256 -55q106 -54 168 -141q62 -86 77 -180q9 428 -200 643t-619 262v39zM881 74
l-2 -8q105 61 163 172q60 114 60 256q0 141 -62 247q-61 104 -170 160q-107 55 -245 55q-137 0 -244 -55q-110 -56 -170 -162q-61 -107 -61 -252q0 -142 65 -251q64 -107 176 -166q110 -58 246 -58q138 0 244 62z" />
    <glyph glyph-name="product" unicode="&#x220f;" horiz-adv-x="1980" 
d="M1995 1556v-38h-324v-1794h-41v1794h-1007v-1794h-41v1794h-324v38h1737z" />
    <glyph glyph-name="summation" unicode="&#x2211;" horiz-adv-x="1755" 
d="M1090 664l-775 -902h1201v-38h-1235v61l753 879l-753 831v61h1200v-38h-1164z" />
    <glyph glyph-name="minus" unicode="&#x2212;" horiz-adv-x="1247" 
d="M1106 532h-963v37h963v-37z" />
    <glyph glyph-name="radical" unicode="&#x221a;" horiz-adv-x="1177" 
d="M625 -254l583 1810h41l-590 -1832h-65l-315 757h-277v39h301z" />
    <glyph glyph-name="infinity" unicode="&#x221e;" horiz-adv-x="2258" 
d="M1901 952v-2q96 -60 153 -170q55 -107 55 -241q0 -133 -55 -240q-57 -110 -153 -170q-98 -61 -222 -61q-104 0 -192 55q-89 56 -154 127q-63 69 -135 170l-68 94l-69 -94q-72 -101 -135 -170q-65 -71 -154 -127q-88 -55 -192 -55q-124 0 -222 61q-96 60 -153 170
q-55 107 -55 240q0 136 55 243q57 110 153 170q100 62 222 62q103 0 194 -58q96 -61 160 -131q69 -75 133 -166l63 -86l62 86q64 91 133 166q64 70 160 131q91 58 194 58q122 0 222 -62zM1106 541l-59 94q-69 97 -138 172q-70 76 -153 127q-86 53 -181 53q-116 0 -202 -57
q-87 -58 -137 -160q-50 -103 -50 -227q0 -125 50 -228q49 -101 137 -159t202 -58q94 0 179 54t147 122q63 69 135 170zM1884 162v-10q88 58 137 159q50 103 50 228q0 124 -50 227q-50 102 -137 160q-86 57 -203 57q-98 0 -178 -51q-82 -52 -149 -125q-65 -70 -137 -172
l-66 -88l70 -96q72 -101 135 -170q64 -71 147 -123q85 -54 178 -54q115 0 203 58z" />
    <glyph glyph-name="integral" unicode="&#x222b;" horiz-adv-x="589" 
d="M-59 -401l-4 34h124q100 0 160 66t60 172v1409q0 80 30 141q30 62 90 97q58 34 136 34h125v-34h-125q-100 0 -160 -66q-58 -64 -58 -172v-1409q0 -79 -30 -141q-31 -63 -88 -97q-58 -34 -135 -34h-125z" />
    <glyph glyph-name="approxequal" unicode="&#x2248;" horiz-adv-x="1474" 
d="M205 680h-4q71 64 141 102q70 37 147 37q59 0 111 -12q55 -13 141 -49q75 -32 140 -49q55 -15 114 -15q72 0 129 31q54 29 129 98l29 -24q-73 -67 -141 -103q-70 -37 -148 -37q-49 0 -106 13q-55 13 -144 49q-91 36 -135 47q-62 16 -116 16q-74 0 -130 -30
q-52 -28 -129 -99zM201 305h-4q73 67 141 103t147 36q59 0 111 -12q55 -13 141 -49q75 -32 140 -49q55 -15 114 -15q72 0 129 31q52 28 129 99l29 -25q-70 -64 -141 -102q-70 -37 -148 -37q-53 0 -106 12q-55 13 -144 49q-91 36 -135 47q-66 17 -117 17q-72 0 -129 -31
q-54 -29 -129 -98z" />
    <glyph glyph-name="notequal" unicode="&#x2260;" horiz-adv-x="1390" 
d="M1176 766v-37h-349l-206 -354h555v-37h-576l-197 -338h-43l197 338h-336v37h357l206 354h-563v37h586l180 311h43l-180 -311h326z" />
    <glyph glyph-name="lessequal" unicode="&#x2264;" horiz-adv-x="1257" 
d="M147 651l918 396v-39l-883 -381l883 -381v-39l-918 395v49zM1065 0h-918v37h918v-37z" />
    <glyph glyph-name="greaterequal" unicode="&#x2265;" horiz-adv-x="1314" 
d="M190 1008v39l918 -396v-49l-918 -395v39l883 381zM1108 0h-918v37h918v-37z" />
    <glyph glyph-name="uni2300" unicode="&#x2300;" horiz-adv-x="1372" 
d="M1090 926h-3q75 -78 115 -176q41 -100 41 -209q0 -153 -76 -281q-77 -130 -204 -205q-126 -75 -279 -75q-112 0 -205 38q-98 40 -172 111l-125 -129l-28 29l125 127q-75 78 -115 176q-41 100 -41 209q0 152 76 280q77 130 204 205q128 76 281 76q110 0 205 -39
q96 -39 174 -111l125 129l29 -26zM201 344v-8q40 -97 104 -164l725 743q-72 66 -160 103q-87 37 -188 37q-139 0 -258 -70q-121 -71 -191 -190q-69 -117 -69 -258q0 -103 37 -193zM942 78l-2 4q120 70 190 190q72 123 72 258q0 105 -37 195q-40 97 -104 164l-725 -746
q66 -60 160 -100q87 -37 188 -37q135 0 258 72z" />
    <glyph glyph-name="uni2460" unicode="&#x2460;" horiz-adv-x="1912" 
d="M1438 1522q196 -114 311 -312t115 -430t-115 -430q-114 -197 -311 -311q-198 -115 -430 -115t-430 115t-312 311t-114 430q0 233 114 430q115 197 312 312q196 114 430 114t430 -114zM1417 68q188 111 299 299q111 187 111 411q0 225 -111 412q-111 188 -299 299
q-186 110 -411 110q-226 0 -412 -110q-188 -111 -299 -299q-111 -187 -111 -412q0 -224 111 -411q111 -188 299 -299t412 -111t411 111zM995 1245h37v-934h-37v768h-200v35h139q36 0 49 10q12 9 12 41v80z" />
    <glyph glyph-name="uni2461" unicode="&#x2461;" horiz-adv-x="1912" 
d="M1438 1522q196 -114 311 -312t115 -430t-115 -430q-114 -197 -311 -311q-198 -115 -430 -115t-430 115t-312 311t-114 430q0 233 114 430q115 197 312 312q196 114 430 114t430 -114zM1417 68q188 111 299 299q111 187 111 411q0 225 -111 412q-111 188 -299 299
q-186 110 -411 110q-226 0 -412 -110q-188 -111 -299 -299q-111 -187 -111 -412q0 -224 111 -411q111 -188 299 -299t412 -111t411 111zM723 346l610 -10v-35h-645v51l408 373q63 56 90 88q34 40 55 86q23 51 23 98q0 56 -31 107t-88 80q-59 30 -141 30q-119 0 -189 -55
q-71 -56 -80 -149h-39q6 74 49 129q44 56 111 86t152 30q90 0 157 -34q69 -35 103 -93q35 -59 35 -122q0 -57 -25 -109q-24 -49 -61 -92q-33 -39 -95 -94z" />
    <glyph glyph-name="uni2462" unicode="&#x2462;" horiz-adv-x="1912" 
d="M575 35q-197 114 -311 311q-114 196 -114 430t114 430q115 198 311 312q197 114 431 114t430 -114t311 -312t115 -430t-115 -430q-114 -197 -311 -311q-198 -115 -430 -115q-233 0 -431 115zM1417 68q188 111 299 299q111 187 111 411q0 225 -111 412q-111 188 -299 299
q-186 110 -411 110q-226 0 -412 -110q-188 -111 -299 -299q-111 -187 -111 -412q0 -224 111 -411q111 -188 299 -299t412 -111t411 111zM776 356l-14 -6q-83 59 -98 172h38q15 -90 86 -143q68 -51 183 -51q82 0 147 26q69 28 109 82q41 56 41 137q0 72 -43 121
q-44 50 -111 74q-70 25 -139 25h-41v34h41q66 0 127 25q57 23 96 72q37 46 37 102t-33 98q-37 47 -92 72q-58 27 -135 27q-68 0 -123 -25q-54 -25 -84 -68q-31 -46 -37 -94h-39q6 68 45 115q42 52 105 78q67 28 137 28q81 0 151 -28q68 -27 109 -80t41 -119q0 -71 -37 -117
t-88 -69q-54 -25 -100 -33q57 -9 116 -33q61 -25 103 -76q43 -52 43 -129q0 -93 -45 -153q-47 -62 -123 -92q-79 -31 -166 -31q-124 0 -207 59z" />
    <glyph glyph-name="uni2463" unicode="&#x2463;" horiz-adv-x="1912" 
d="M1438 1522q196 -114 311 -312t115 -430t-115 -430q-114 -197 -311 -311q-198 -115 -430 -115t-430 115t-312 311t-114 430q0 233 114 430q115 197 312 312q196 114 430 114t430 -114zM1417 68q188 111 299 299q111 187 111 411q0 225 -111 412q-111 188 -299 299
q-186 110 -411 110q-226 0 -412 -110q-188 -111 -299 -299q-111 -187 -111 -412q0 -224 111 -411q111 -188 299 -299t412 -111t411 111zM1098 1245h37v-592h149v-35h-149v-307h-37v307h-525v50l480 577h45l-492 -592h492v592z" />
    <glyph glyph-name="uni2464" unicode="&#x2464;" horiz-adv-x="1912" 
d="M1438 1522q196 -114 311 -312t115 -430t-115 -430q-114 -197 -311 -311q-198 -115 -430 -115t-430 115t-312 311t-114 430q0 233 114 430q115 197 312 312q196 114 430 114t430 -114zM1417 68q188 111 299 299q111 187 111 411q0 225 -111 412q-111 188 -299 299
q-186 110 -411 110q-226 0 -412 -110q-188 -111 -299 -299q-111 -187 -111 -412q0 -224 111 -411q111 -188 299 -299t412 -111t411 111zM1171 901l-6 -10q71 -41 111 -111q41 -71 41 -166q0 -96 -41 -170q-40 -73 -115 -114q-74 -41 -166 -41q-75 0 -145 28q-65 26 -113 80
q-45 50 -57 123h39q9 -58 49 -104q41 -47 100 -70q62 -24 131 -24q86 0 148 36q61 35 100 103q37 64 37 153q0 90 -37 154q-38 65 -100 98q-65 35 -143 35q-97 0 -168 -45q-73 -46 -113 -125l-37 4l51 508h535v-35h-500l-43 -430q35 68 109 115t174 47q91 0 159 -39z" />
    <glyph glyph-name="uni2465" unicode="&#x2465;" horiz-adv-x="1912" 
d="M1438 1522q196 -114 311 -312t115 -430t-115 -430q-114 -197 -311 -311q-198 -115 -430 -115t-430 115t-312 311t-114 430q0 233 114 430q115 197 312 312q196 114 430 114t430 -114zM1417 68q188 111 299 299q111 187 111 411q0 225 -111 412q-111 188 -299 299
q-186 110 -411 110q-226 0 -412 -110q-188 -111 -299 -299q-111 -187 -111 -412q0 -224 111 -411q111 -188 299 -299t412 -111t411 111zM1180 883h2q68 -36 110 -109q39 -68 39 -166q0 -92 -43 -162q-43 -69 -117 -110q-71 -39 -161 -39q-162 0 -254 123q-92 124 -92 360
q0 155 43 262q44 109 120 164q77 56 179 56q117 0 190 -58q75 -60 109 -166h-39q-27 85 -95 138q-66 51 -167 51q-99 0 -166 -58q-70 -60 -103 -159q-33 -98 -33 -234q0 -10 2 -40t3 -48q15 71 61 123q47 53 111 80q69 29 135 29q96 0 166 -37zM1153 367l6 -7q67 39 103 101
t36 141q0 83 -32 143q-34 63 -99 101q-64 37 -153 37q-83 0 -150 -37q-66 -37 -104 -96q-37 -58 -37 -117q0 -68 31 -141q29 -69 96 -117q62 -45 158 -45q81 0 145 37z" />
    <glyph glyph-name="uni2466" unicode="&#x2466;" horiz-adv-x="1912" 
d="M1438 1522q196 -114 311 -312t115 -430t-115 -430q-114 -197 -311 -311q-198 -115 -430 -115t-430 115t-312 311t-114 430q0 233 114 430q115 197 312 312q196 114 430 114t430 -114zM1417 68q188 111 299 299q111 187 111 411q0 225 -111 412q-111 188 -299 299
q-186 110 -411 110q-226 0 -412 -110q-188 -111 -299 -299q-111 -187 -111 -412q0 -224 111 -411q111 -188 299 -299t412 -111t411 111zM1276 1210h-539v35h574v-51l-463 -883h-45z" />
    <glyph glyph-name="uni2467" unicode="&#x2467;" horiz-adv-x="1912" 
d="M575 35q-197 114 -311 311q-114 196 -114 430t114 430q115 198 311 312q197 114 431 114t430 -114t311 -312t115 -430t-115 -430q-114 -197 -311 -311q-198 -115 -430 -115q-233 0 -431 115zM1417 68q188 111 299 299q111 187 111 411q0 225 -111 412q-111 188 -299 299
q-186 110 -411 110q-226 0 -412 -110q-188 -111 -299 -299q-111 -187 -111 -412q0 -224 111 -411q111 -188 299 -299t412 -111t411 111zM842 330l2 -4q-79 36 -123 94q-45 60 -45 145q0 80 41 133t96 80t102 33q-45 9 -92 33t-80 69q-32 43 -32 115q0 65 37 117
q40 55 104 84q70 31 158 31q87 0 157 -31q68 -30 105 -82t37 -117q0 -70 -35 -117q-34 -46 -80 -67q-51 -23 -92 -31q46 -6 102 -33q55 -27 96 -80t41 -133q0 -85 -45 -145q-45 -59 -122 -94q-73 -33 -166 -33t-166 33zM1153 854l-4 -2q59 24 86 68q29 47 29 98
q0 52 -31 100t-90 72t-139 24q-84 0 -142 -24q-61 -25 -90 -70q-31 -48 -31 -100q0 -53 31 -98q30 -43 90 -68q61 -25 146 -25q84 0 145 25zM1145 350l-4 -2q67 27 110 82t43 131t-41 129q-42 55 -108 78q-70 25 -144 25q-73 0 -143 -25q-67 -24 -110 -76t-43 -129
q0 -76 43 -131t110 -82q65 -26 143 -26q79 0 144 26z" />
    <glyph glyph-name="uni2468" unicode="&#x2468;" horiz-adv-x="1912" 
d="M1438 1522q196 -114 311 -312t115 -430t-115 -430q-114 -197 -311 -311q-198 -115 -430 -115t-430 115t-312 311t-114 430q0 233 114 430q115 197 312 312q196 114 430 114t430 -114zM1417 68q188 111 299 299q111 187 111 411q0 225 -111 412q-111 188 -299 299
q-186 110 -411 110q-226 0 -412 -110q-188 -111 -299 -299q-111 -187 -111 -412q0 -224 111 -411q111 -188 299 -299t412 -111t411 111zM1255 1137l-10 -7q92 -124 92 -358q0 -155 -43 -262q-45 -111 -118 -164q-76 -55 -179 -55q-116 0 -190 59q-75 60 -109 166h39
q27 -85 94 -137q66 -51 170 -51q100 0 166 57q69 60 103 160q35 103 35 233q0 10 -2 40t-3 48q-15 -71 -61 -123t-111 -79q-69 -29 -135 -29q-96 0 -166 37q-69 37 -110 108q-39 68 -39 166q0 94 43 164t117 111q71 39 163 39q163 0 254 -123zM1141 700l-11 5q68 37 105 96
q37 58 37 117q0 68 -31 141q-29 69 -96 117q-65 47 -158 47q-79 0 -143 -37t-101 -101q-36 -62 -36 -141q0 -83 32 -143q34 -63 99 -101q62 -36 153 -36q85 0 150 36z" />
    <glyph glyph-name="uni24EA" unicode="&#x24ea;" horiz-adv-x="1912" 
d="M575 35q-197 114 -311 311q-114 196 -114 430t114 430q115 198 311 312q197 114 431 114t430 -114t311 -312t115 -430t-115 -430q-114 -197 -311 -311q-198 -115 -430 -115q-233 0 -431 115zM1417 68q188 111 299 299q111 187 111 411q0 225 -111 412q-111 188 -299 299
q-186 110 -411 110q-226 0 -412 -110q-188 -111 -299 -299q-111 -187 -111 -412q0 -224 111 -411q111 -188 299 -299t412 -111t411 111zM823 352h-4q-76 55 -117 164q-40 107 -40 258t40 258q41 109 117 164t182 55q107 0 183 -55q75 -54 116 -164q41 -109 41 -258t-41 -258
q-41 -110 -116 -164q-76 -55 -180 -55q-105 0 -181 55zM1159 381v-4q68 50 105 151q36 98 36 246t-36 246q-37 101 -105 151t-160 50q-91 0 -159 -50q-69 -50 -105 -149q-37 -101 -37 -246t37 -246q36 -99 105 -149q67 -49 159 -49q93 0 160 49z" />
    <glyph glyph-name="uni24FF" unicode="&#x24ff;" horiz-adv-x="1912" 
d="M575 35q-197 114 -311 311q-114 196 -114 430t114 430q115 198 311 312q197 114 431 114t430 -114t311 -312t115 -430t-115 -430q-114 -197 -311 -311q-198 -115 -430 -115q-233 0 -431 115zM1188 352h-4q75 54 116 164q41 109 41 258t-41 258q-41 110 -116 164
q-76 55 -180 55q-105 0 -181 -55q-75 -54 -116 -164q-41 -109 -41 -258t41 -258q41 -110 116 -164q76 -55 183 -55q106 0 182 55zM842 381v-4q-68 50 -105 151t-37 246t37 246t105 151t159 50q92 0 160 -50q69 -50 105 -149q37 -101 37 -246t-37 -246q-36 -99 -105 -149
q-67 -49 -160 -49q-92 0 -159 49z" />
    <glyph glyph-name="filledbox" unicode="&#x25a0;" horiz-adv-x="1546" 
d="M1311 0h-1078v1077h1078v-1077z" />
    <glyph glyph-name="uni25A1" unicode="&#x25a1;" horiz-adv-x="1546" 
d="M1311 0h-1078v1077h1078v-1077zM270 1040v-1003h1004v1003h-1004z" />
    <glyph glyph-name="lozenge" unicode="&#x25ca;" horiz-adv-x="1298" 
d="M678 1556h45l510 -778l-510 -778h-45l-510 778zM209 778l491 -749l492 749l-492 752z" />
    <glyph glyph-name="circle" unicode="&#x25cb;" horiz-adv-x="1441" 
d="M432 41v-2q-132 77 -209 209q-78 135 -78 289q0 153 78 288q77 132 209 209q135 78 289 78q158 0 289 -76q132 -77 209 -209q77 -133 77 -288q0 -156 -77 -289q-77 -132 -209 -209q-135 -78 -289 -78t-289 78zM989 72v-4q125 72 195 194q71 124 71 270q0 147 -71 271
q-70 122 -195 194q-126 72 -270 72q-148 0 -270 -70q-127 -73 -195 -192q-72 -126 -72 -270q0 -145 72 -271q70 -122 195 -194q126 -72 270 -72t270 72z" />
    <glyph glyph-name="uni25CF" unicode="&#x25cf;" horiz-adv-x="1441" 
d="M432 41v-2q-132 77 -209 209q-78 135 -78 289q0 153 78 288q77 132 209 209q135 78 289 78q158 0 289 -76q132 -77 209 -209q77 -133 77 -288q0 -156 -77 -289q-77 -132 -209 -209q-135 -78 -289 -78t-289 78z" />
    <glyph glyph-name="uni2776" unicode="&#x2776;" horiz-adv-x="1912" 
d="M575 35q-197 114 -311 311q-114 196 -114 430t114 430q115 198 311 312q197 114 431 114t430 -114t311 -312t115 -430t-115 -430q-114 -197 -311 -311q-198 -115 -430 -115q-233 0 -431 115zM993 311h35v934h-35v-80q0 -32 -12 -41q-13 -10 -49 -10h-139v-35h200v-768z
" />
    <glyph glyph-name="uni2777" unicode="&#x2777;" horiz-adv-x="1912" 
d="M575 35q-197 114 -311 311q-114 196 -114 430t114 430q115 198 311 312q197 114 431 114t430 -114t311 -312t115 -430t-115 -430q-114 -197 -311 -311q-198 -115 -430 -115q-233 0 -431 115zM686 311l641 6v35h-608l399 365q50 45 94 96q40 46 62 92q24 49 24 109
q0 65 -34 123q-33 56 -103 92q-68 35 -157 35q-82 0 -152 -31q-67 -30 -111 -86q-43 -55 -49 -129h39q9 95 80 151t188 56q82 0 142 -31q57 -29 88 -80t31 -106q0 -52 -21 -99q-21 -46 -55 -86q-27 -32 -90 -88l-408 -373v-51z" />
    <glyph glyph-name="uni2778" unicode="&#x2778;" horiz-adv-x="1912" 
d="M575 35q-197 114 -311 311q-114 196 -114 430t114 430q115 198 311 312q197 114 431 114t430 -114t311 -312t115 -430t-115 -430q-114 -197 -311 -311q-198 -115 -430 -115q-233 0 -431 115zM1151 328l10 -13q75 29 123 93q47 62 47 153q0 76 -41 129q-43 55 -98 78
q-66 27 -117 35q49 9 99 33q47 23 83 71q35 47 35 115q0 70 -39 121q-41 53 -108 80q-70 28 -152 28q-75 0 -137 -26q-61 -26 -104 -78q-39 -47 -45 -115h38q6 48 37 94q30 43 84 68q55 25 123 25q77 0 135 -27q59 -27 93 -70q32 -40 32 -98q0 -54 -37 -100q-40 -50 -94 -72
q-61 -25 -127 -25h-41v-34h41q69 0 139 -25q67 -24 111 -74q43 -49 43 -119q0 -81 -41 -137q-40 -55 -108 -82q-65 -26 -148 -26q-111 0 -182 53t-86 145h-39q15 -113 98 -172t207 -59q87 0 166 31z" />
    <glyph glyph-name="uni2779" unicode="&#x2779;" horiz-adv-x="1912" 
d="M575 35q-197 114 -311 311q-114 196 -114 430t114 430q115 198 311 312q197 114 431 114t430 -114t311 -312t115 -430t-115 -430q-114 -197 -311 -311q-198 -115 -430 -115q-233 0 -431 115zM573 668v-50h525v-307h37v307h149v35h-149v592h-82zM1098 653h-492l492 592
v-592z" />
    <glyph glyph-name="uni277A" unicode="&#x277a;" horiz-adv-x="1912" 
d="M575 35q-197 114 -311 311q-114 196 -114 430t114 430q115 198 311 312q197 114 431 114t430 -114t311 -312t115 -430t-115 -430q-114 -197 -311 -311q-198 -115 -430 -115q-233 0 -431 115zM1167 338l-4 -4q74 41 115 115t41 169q0 98 -39 166q-40 70 -111 111
q-68 39 -159 39q-103 0 -174 -45q-73 -46 -107 -113l43 430h500v35h-535l-51 -508l37 -4q42 82 113 127q74 47 170 47q81 0 143 -33t100 -98q37 -64 37 -154q0 -89 -37 -153q-37 -63 -100 -100q-64 -37 -148 -37q-70 0 -131 24q-59 23 -100 70q-40 46 -49 104h-39
q12 -70 59 -123q45 -51 115 -79q68 -27 145 -27q92 0 166 41z" />
    <glyph glyph-name="uni277B" unicode="&#x277b;" horiz-adv-x="1912" 
d="M575 35q-197 114 -311 311q-114 196 -114 430t114 430q115 198 311 312q197 114 431 114t430 -114t311 -312t115 -430t-115 -430q-114 -197 -311 -311q-198 -115 -430 -115q-233 0 -431 115zM1171 336l-10 -6q74 41 117 110q43 70 43 164q0 98 -39 166q-41 72 -111 109
q-68 36 -165 36q-69 0 -136 -28q-62 -26 -110 -80q-47 -53 -62 -123q-4 82 -4 88q0 131 35 234q34 100 102 159q67 58 166 58q103 0 170 -52q69 -53 95 -137h38q-34 107 -108 166q-75 60 -191 60q-101 0 -178 -56q-73 -53 -118 -164q-43 -107 -43 -262q0 -234 92 -358
q92 -123 254 -123q92 0 163 39zM840 371l-11 4q-67 48 -96 117q-31 73 -31 141q0 59 37 117t105 96q67 37 149 37q90 0 154 -37t98 -101q33 -62 33 -143q0 -77 -37 -141q-38 -65 -100 -101t-144 -36q-92 0 -157 47z" />
    <glyph glyph-name="uni277C" unicode="&#x277c;" horiz-adv-x="1912" 
d="M575 35q-197 114 -311 311q-114 196 -114 430t114 430q115 198 311 312q197 114 431 114t430 -114t311 -312t115 -430t-115 -430q-114 -197 -311 -311q-198 -115 -430 -115q-233 0 -431 115zM1276 1210l-473 -899h45l463 883v51h-574v-35h539z" />
    <glyph glyph-name="uni277D" unicode="&#x277d;" horiz-adv-x="1912" 
d="M575 35q-197 114 -311 311q-114 196 -114 430t114 430q115 198 311 312q197 114 431 114t430 -114t311 -312t115 -430t-115 -430q-114 -197 -311 -311q-198 -115 -430 -115q-233 0 -431 115zM1174 330l-17 -6q79 36 123 94q47 62 47 145q0 82 -39 133q-42 54 -92 80
q-56 29 -102 37q45 9 92 33q43 22 80 72q32 43 32 110t-36 117q-39 55 -105 84q-70 31 -158 31q-87 0 -157 -31q-68 -30 -105 -82t-37 -117q0 -66 33 -110q35 -47 80 -70q47 -24 92 -33q-46 -8 -102 -37q-50 -26 -92 -80q-39 -51 -39 -131q0 -83 47 -145q44 -58 123 -94
q73 -33 166 -33t166 33zM846 852l4 -2q-57 24 -88 68q-31 45 -31 98q0 52 31 100t90 72q58 24 141 24t142 -24q61 -25 90 -70q30 -46 30 -100q0 -55 -30 -98q-31 -44 -88 -68q-61 -25 -146 -25q-84 0 -145 25zM852 348l-4 -2q-68 27 -111 82t-43 131q0 77 43 129
q45 55 111 78q70 25 145 25q76 0 146 -25q67 -24 110 -76t43 -129q0 -76 -43 -131t-110 -82q-65 -26 -144 -26q-78 0 -143 26z" />
    <glyph glyph-name="uni277E" unicode="&#x277e;" horiz-adv-x="1912" 
d="M575 35q-197 114 -311 311q-114 196 -114 430t114 430q115 198 311 312q197 114 431 114t430 -114t311 -312t115 -430t-115 -430q-114 -197 -311 -311q-198 -115 -430 -115q-233 0 -431 115zM842 1221h2q-74 -41 -117 -111t-43 -162q0 -98 39 -166q41 -70 111 -108
q70 -37 165 -37q67 0 136 29q64 27 110 79q47 53 62 123q4 -82 4 -88q0 -135 -33 -233q-34 -101 -102 -160q-66 -57 -166 -57q-102 0 -168 51q-67 52 -94 137h-39q34 -107 108 -166q72 -57 191 -57q102 0 178 55q78 56 121 164q43 107 43 262q0 236 -93 361
q-91 123 -253 123q-91 0 -162 -39zM1163 1178l6 -7q69 -50 97 -116q30 -70 30 -142q0 -60 -36 -116q-38 -60 -105 -97q-65 -36 -149 -36q-92 0 -154 36q-64 37 -98 101q-33 62 -33 143q0 77 37 141q37 63 102 101q64 37 146 37q95 0 157 -45z" />
    <glyph glyph-name="uniF8FF" unicode="&#xf8ff;" horiz-adv-x="1746" 
d="M985 793h741v-25h-741l684 -283l-8 -22l-684 282l522 -522l-16 -18l-522 522l282 -682l-22 -10l-283 682v-740h-25v744l-284 -686l-23 10l283 682l-522 -522l-17 18l522 522l-684 -282l-8 22l684 283h-741v25h741l-684 282l8 23l684 -283l-522 522l17 19l522 -522
l-283 682l23 10l284 -686v739h25v-735l283 682l22 -10l-282 -682l522 522l16 -19l-522 -522l684 283l8 -23z" />
    <glyph glyph-name="uniFEFF" unicode="&#xfeff;" horiz-adv-x="0" 
 />
    <glyph glyph-name="NULL" horiz-adv-x="0" 
 />
    <glyph glyph-name="uni004A0301" horiz-adv-x="684" 
d="M-61 0l10 37h88q85 0 147 18q60 18 105 72q43 52 61 141l273 1286h43l-275 -1294q-30 -143 -123 -203q-89 -57 -241 -57h-88zM709 1692h-47l323 241h55z" />
    <glyph glyph-name="G.ss03" horiz-adv-x="1648" 
d="M858 733l8 41h709l-8 -39q-49 -234 -158 -405q-106 -167 -268 -260t-363 -93q-172 0 -313 72q-136 70 -217 213q-80 142 -80 340q0 254 102 479q103 227 295 361q193 135 455 135q152 0 272 -57q125 -60 203 -168q80 -112 104 -260h-45q-40 217 -184 331
q-145 115 -362 115q-240 0 -420 -131q-182 -132 -277 -348q-96 -218 -96 -461q0 -182 74 -315q73 -131 200 -199t289 -68q285 0 477 189q191 187 267 528h-664z" />
    <glyph glyph-name="Gbreve.ss03" horiz-adv-x="1648" 
d="M858 733l8 41h709l-8 -39q-49 -234 -158 -405q-106 -167 -268 -260t-363 -93q-172 0 -313 72q-136 70 -217 213q-80 142 -80 340q0 254 102 479q103 227 295 361q193 135 455 135q152 0 272 -57q125 -60 203 -168q80 -112 104 -260h-45q-40 217 -184 331
q-145 115 -362 115q-240 0 -420 -131q-182 -132 -277 -348q-96 -218 -96 -461q0 -182 74 -315q73 -131 200 -199t289 -68q285 0 477 189q191 187 267 528h-664zM858 1739h-10q-55 49 -55 133q0 38 8 65h35q-9 -30 -9 -63q0 -70 47 -111q45 -39 134 -39q95 0 166 56t92 157
h34q-21 -112 -98 -180q-76 -67 -190 -67q-99 0 -154 49z" />
    <glyph glyph-name="Gcaron.ss03" horiz-adv-x="1648" 
d="M858 733l8 41h709l-8 -39q-49 -234 -158 -405q-106 -167 -268 -260t-363 -93q-172 0 -313 72q-136 70 -217 213q-80 142 -80 340q0 254 102 479q103 227 295 361q193 135 455 135q152 0 272 -57q125 -60 203 -168q80 -112 104 -260h-45q-40 217 -184 331
q-145 115 -362 115q-240 0 -420 -131q-182 -132 -277 -348q-96 -218 -96 -461q0 -182 74 -315q73 -131 200 -199t289 -68q285 0 477 189q191 187 267 528h-664zM1014 1718l317 219h45l-329 -241h-64l-235 241h36z" />
    <glyph glyph-name="Gcircumflex.ss03" horiz-adv-x="1648" 
d="M858 733l8 41h709l-8 -39q-49 -234 -158 -405q-106 -167 -268 -260t-363 -93q-172 0 -313 72q-136 70 -217 213q-80 142 -80 340q0 254 102 479q103 227 295 361q193 135 455 135q152 0 272 -57q125 -60 203 -168q80 -112 104 -260h-45q-40 217 -184 331
q-145 115 -362 115q-240 0 -420 -131q-182 -132 -277 -348q-96 -218 -96 -461q0 -182 74 -315q73 -131 200 -199t289 -68q285 0 477 189q191 187 267 528h-664zM1098 1937l235 -241h-37l-229 219l-317 -219h-45l329 241h64z" />
    <glyph glyph-name="uni0122.ss03" horiz-adv-x="1648" 
d="M858 733l8 41h709l-8 -39q-49 -234 -158 -405q-106 -167 -268 -260t-363 -93q-172 0 -313 72q-136 70 -217 213q-80 142 -80 340q0 254 102 479q103 227 295 361q193 135 455 135q152 0 272 -57q125 -60 203 -168q80 -112 104 -260h-45q-40 217 -184 331
q-145 115 -362 115q-240 0 -420 -131q-182 -132 -277 -348q-96 -218 -96 -461q0 -182 74 -315q73 -131 200 -199t289 -68q285 0 477 189q191 187 267 528h-664zM698 -391l50 233h43l-52 -241l-98 -140h-47z" />
    <glyph glyph-name="Gdotaccent.ss03" horiz-adv-x="1648" 
d="M858 733l8 41h709l-8 -39q-49 -234 -158 -405q-106 -167 -268 -260t-363 -93q-172 0 -313 72q-136 70 -217 213q-80 142 -80 340q0 254 102 479q103 227 295 361q193 135 455 135q152 0 272 -57q125 -60 203 -168q80 -112 104 -260h-45q-40 217 -184 331
q-145 115 -362 115q-240 0 -420 -131q-182 -132 -277 -348q-96 -218 -96 -461q0 -182 74 -315q73 -131 200 -199t289 -68q285 0 477 189q191 187 267 528h-664zM1036 1696h-43l51 241h43z" />
    <glyph glyph-name="Adieresis.titl" horiz-adv-x="1464" 
d="M1335 0h-43l-112 549h-885l-346 -549h-49l983 1556h49l-613 -968h852l-198 968h43zM455 1315h-43l51 241h43zM1403 1315h-43l51 241h43z" />
    <glyph glyph-name="Odieresis.titl" horiz-adv-x="1716" 
d="M463 49q-136 70 -217 213q-80 142 -80 342q0 258 106 479q108 226 308 361t460 135q173 0 314 -72q136 -70 217 -213q80 -142 80 -342q0 -256 -107 -479q-108 -226 -307 -360q-201 -136 -461 -136q-172 0 -313 72zM1214 145l-4 -2q185 129 287 344t102 465q0 191 -73 322
t-203 196q-132 66 -301 66q-240 0 -424 -129q-182 -127 -285 -344q-100 -210 -100 -463q0 -188 74 -321t202 -197q132 -66 302 -66q239 0 423 129zM268 1311h-43l51 241h43zM1741 1311h-43l51 241h43z" />
    <glyph glyph-name="Udieresis.titl" horiz-adv-x="1595" 
d="M799 1315h-43l51 241h43zM1169 1315h-43l52 241h43zM330 90v-4q-119 113 -119 313q0 97 27 226l196 927h43l-198 -938q-27 -129 -27 -211q0 -200 110 -294q114 -97 330 -97q272 0 432 148q162 150 226 456l198 938h43l-200 -946q-68 -317 -240 -473q-175 -158 -463 -158
q-239 0 -358 113z" />
    <glyph glyph-name="I_J.loclNLD" horiz-adv-x="993" 
d="M55 0l11 37h280q86 0 148 18q59 17 104 72q43 52 61 141l273 1286h43l-275 -1294q-30 -144 -122 -203q-89 -57 -242 -57h-281zM197 453h-43l233 1101h43z" />
    <glyph glyph-name="A.inferior" horiz-adv-x="747" 
d="M575 -233h-40l-52 266h-430l-164 -266h-45l480 778h45l-293 -477h401l-92 477h41z" />
    <glyph glyph-name="B.inferior" horiz-adv-x="733" 
d="M504 111l-2 -5q51 -48 51 -114q0 -53 -31 -107q-29 -51 -104 -86t-193 -35h-266l166 779h248q71 0 123 -25q50 -24 73 -63q25 -42 25 -86q0 -56 -31 -101q-29 -42 -80 -67q-52 -25 -108 -31q76 -9 129 -59zM154 506l-70 -322h223q77 0 135 25q56 24 82 63q27 40 27 88
q0 64 -47 105t-129 41h-221zM223 -203l-2 2q105 0 172 31t90 76q25 48 25 92q0 38 -25 74q-24 35 -69 55q-51 23 -111 23h-227l-74 -353h221z" />
    <glyph glyph-name="C.inferior" horiz-adv-x="808" 
d="M127 -209h-6q-70 37 -111 109q-39 68 -39 170q0 127 52 237q53 113 149 178q100 68 229 68q119 0 199 -68t98 -184h-41q-18 105 -88 160t-178 55q-117 0 -201 -63q-85 -64 -131 -168q-45 -102 -45 -222q0 -88 35 -153q34 -64 96 -94q64 -31 140 -31q101 0 190 59
q88 58 141 158h41q-55 -113 -153 -180q-100 -68 -217 -68q-90 0 -160 37z" />
    <glyph glyph-name="D.inferior" horiz-adv-x="819" 
d="M373 545h-2q144 0 227 -80q82 -79 82 -225q0 -113 -49 -220q-48 -105 -158 -180q-107 -73 -264 -73h-252l166 778h250zM213 -199l-2 -4q136 0 233 66q98 67 146 166q49 101 49 209q0 130 -72 202q-70 70 -202 70h-211l-150 -709h209z" />
    <glyph glyph-name="E.inferior" horiz-adv-x="663" 
d="M596 545l-8 -35h-432l-68 -322h422l-8 -34h-422l-74 -353h440l-8 -34h-481l166 778h473z" />
    <glyph glyph-name="F.inferior" horiz-adv-x="632" 
d="M586 545l-8 -35h-422l-70 -334h414l-8 -35h-414l-80 -374h-41l166 778h463z" />
    <glyph glyph-name="G.inferior" horiz-adv-x="856" 
d="M322 125l6 31h360l-84 -394h-37l47 218q-46 -94 -129 -162t-204 -68q-89 0 -156 37q-65 36 -107 109q-38 66 -38 170q0 128 51 239q54 117 149 182q100 68 230 68q118 0 198 -68q81 -69 99 -184h-41q-18 105 -88 160t-179 55q-116 0 -200 -63q-85 -64 -131 -168
q-45 -102 -45 -221q0 -89 34 -150q32 -58 97 -94q59 -33 137 -33q91 0 164 43q72 43 123 121q50 77 65 172h-321z" />
    <glyph glyph-name="H.inferior" horiz-adv-x="819" 
d="M584 188l75 357h41l-165 -778h-41l81 387h-495l-82 -387h-41l166 778h41l-76 -357h496z" />
    <glyph glyph-name="I.inferior" horiz-adv-x="282" 
d="M-2 -233h-41l166 778h41z" />
    <glyph glyph-name="J.inferior" horiz-adv-x="356" 
d="M-139 -233l8 30h51q59 0 98 25q38 24 50 86l135 635h41l-138 -643q-15 -67 -61 -101q-43 -32 -129 -32h-55z" />
    <glyph glyph-name="K.inferior" horiz-adv-x="700" 
d="M610 545h62l-531 -369l404 -409h-56l-401 407l-88 -407h-41l166 778h41l-78 -363z" />
    <glyph glyph-name="L.inferior" horiz-adv-x="546" 
d="M164 545l-158 -744h363l-9 -34h-403l166 778h41z" />
    <glyph glyph-name="M.inferior" horiz-adv-x="1069" 
d="M-2 -233h-41l166 778h41zM360 -233h-38l-142 778h39zM424 -233h-47l469 778h47zM784 -233h-41l166 778h41z" />
    <glyph glyph-name="N.inferior" horiz-adv-x="866" 
d="M-2 -233h-41l166 778h41zM524 -233h-41l-303 778h39zM582 -233h-41l166 778h41z" />
    <glyph glyph-name="O.inferior" horiz-adv-x="864" 
d="M127 -209l-2 -2q-70 37 -111 109q-39 68 -39 172q0 123 54 237q52 111 151 178q100 68 232 68q89 0 159 -37q72 -38 111 -106q41 -71 41 -172q0 -126 -53 -238q-52 -110 -152 -178t-231 -68q-90 0 -160 37zM494 -150q88 64 137 168t49 224q0 89 -35 151t-96 92
q-64 31 -141 31q-117 0 -203 -63q-88 -64 -137 -168q-50 -106 -50 -224q0 -89 35 -151t97 -92q64 -31 141 -31q117 0 203 63z" />
    <glyph glyph-name="P.inferior" horiz-adv-x="706" 
d="M365 545v2q120 0 186 -51q67 -52 67 -144q0 -135 -94 -202q-95 -68 -258 -68h-200l-68 -315h-41l166 778h242zM272 119h-2q148 0 228 59t80 166q0 168 -220 168h-202l-84 -393h200z" />
    </font>
</defs>
</svg>
