<?xml version="1.0" standalone="no"?>
<!DOCTYPE svg PUBLIC "-//W3C//DTD SVG 1.1//EN" "http://www.w3.org/Graphics/SVG/1.1/DTD/svg11.dtd" >
<svg xmlns="http://www.w3.org/2000/svg" xmlns:xlink="http://www.w3.org/1999/xlink" version="1.1">
<metadata>
Created by FontForge 20170731 at Fri Apr 21 21:41:30 2023
 By Aleksey,,,
(c) 2014-2020. Copyright by TYPE.WELTKERN :. All rights reserved.
</metadata>
<defs>
<font id="TWKEverett-ExtraboldItalic" horiz-adv-x="1536" >
  <font-face 
    font-family="TWK Everett"
    font-weight="750"
    font-style="italic"
    font-stretch="normal"
    units-per-em="2048"
    panose-1="2 11 2 4 0 0 0 0 0 0"
    ascent="1638"
    descent="-410"
    x-height="1120"
    cap-height="1556"
    bbox="-2044 -668 7092 2259"
    underline-thickness="266"
    underline-position="-763"
    slope="-12"
    unicode-range="U+000D-FEFF"
  />
<missing-glyph horiz-adv-x="1542" 
d="M1276 0h-1249l331 1556h1250zM680 1249l-199 -942h475l199 942h-475z" />
    <glyph glyph-name="fi" unicode="fi" horiz-adv-x="1482" 
d="M1487 1120l-242 -1122h-387l180 846h-374l-179 -846h-387l178 846h-184l60 274h184l22 111q70 325 473 325h218l-58 -264h-108q-71 0 -101 -24q-31 -25 -43 -84l-12 -62h760zM1120 1243l66 311h393l-66 -311h-393z" />
    <glyph glyph-name="fl" unicode="fl" horiz-adv-x="1482" 
d="M1249 0l-391 -2l275 1292h-252q-71 0 -101 -24q-31 -25 -43 -84l-12 -62h229l-59 -274h-229l-179 -846h-387l179 846h-185l60 274h184l22 111q70 325 474 325h745z" />
    <glyph glyph-name="W_W_W" unicode="WWW" horiz-adv-x="6895" 
d="M6154 98l543 1458h395l-600 -1556h-698l119 1444l-490 -1444h-698l53 1434l-553 -1434h-700l122 1452l-493 -1452h-696l53 1434l-553 -1434h-701l123 1452l-493 -1452h-697l58 1556h379l-70 -1445l500 1445h676l-113 -1452l543 1452h731l-70 -1445l502 1445h674
l-113 -1452l543 1452h731l-70 -1445l502 1445h674z" />
    <glyph glyph-name="f_f" unicode="ff" horiz-adv-x="1734" 
d="M1753 1292l-4 -4q-72 0 -102 -24q-31 -25 -43 -84l-13 -62h230l-58 -274h-231l-178 -846h-387l180 846h-481l-179 -846h-387l179 846h-185l60 274h184l22 111q70 325 474 325h217l-58 -264h-108q-71 0 -101 -24q-31 -25 -43 -84l-12 -62h479l25 111q64 325 467 325h217
l-55 -264h-109z" />
    <glyph glyph-name="f_f_i" unicode="ffi" horiz-adv-x="2349" 
d="M2353 1120l-61 -278l-181 -846h-387l181 846h-375l-178 -846h-387l180 846h-481l-179 -846h-387l178 846h-184l60 274h184l22 111q70 325 473 325h218l-58 -264h-108q-71 0 -101 -24q-31 -25 -43 -84l-12 -62h479l25 111q64 325 467 325h217l-55 -264h-109
q-72 0 -102 -24q-31 -25 -43 -84l-13 -62h760zM1987 1241l65 311h393l-65 -311h-393z" />
    <glyph glyph-name="f_f_l" unicode="ffl" horiz-adv-x="2349" 
d="M2058 1556l383 -4l-330 -1556h-387l179 846h-373l-178 -846h-387l180 846h-481l-179 -846h-387l178 846h-184l60 274h184l22 111q70 325 473 325h218l-58 -264h-108q-71 0 -101 -24q-31 -25 -43 -84l-12 -62h479l25 111q64 325 467 325h217l-55 -264h-109q-72 0 -102 -24
q-31 -25 -43 -84l-13 -62h373z" />
    <glyph glyph-name="f_j" unicode="fj" horiz-adv-x="1482" 
d="M1487 1120l-260 -1202q-35 -162 -150 -240q-116 -79 -319 -79h-160l59 274h50q68 0 104 25q32 23 45 84l182 862h-374l-179 -846h-387l178 846h-184l60 274h184l22 111q70 325 473 325h218l-58 -264h-108q-71 0 -101 -24q-31 -25 -43 -84l-12 -62h760zM1118 1243l66 311
h393l-66 -311h-393z" />
    <glyph glyph-name="f_t" unicode="ft" horiz-adv-x="1753" 
d="M1532 846l-102 -459q-7 -24 -7 -45q0 -39 29 -55q31 -17 86 -17h92l-59 -274h-199q-98 0 -180 31q-78 29 -123 90q-43 58 -43 139q0 34 10 92l105 496h-477l-179 -846h-387l178 846h-184l60 274h184l22 111q70 325 473 325h218l-58 -264h-108q-71 0 -101 -24
q-31 -25 -43 -84l-12 -62h477l56 264h387l-56 -264h224l-58 -274h-225z" />
    <glyph glyph-name="t_f" unicode="tf" horiz-adv-x="1746" 
d="M1765 1292l-8 -4q-70 0 -100 -24q-31 -25 -43 -84l-12 -62h229l-57 -274h-232l-178 -846h-387l178 846h-502l-96 -455q-4 -36 -4 -43q0 -36 29 -55q28 -19 86 -19h92l-60 -274h-196q-98 0 -180 31q-78 29 -123 90q-43 58 -43 139q0 56 8 92l106 496h-190l57 274h191
l57 264h385l-55 -264h502l22 111q70 325 473 325h217l-57 -264h-109z" />
    <glyph glyph-name="t_t" unicode="tt" horiz-adv-x="1763" 
d="M1540 846l-104 -459q-4 -36 -4 -43q0 -36 28 -55t86 -19h92l-59 -274h-197q-98 0 -180 31q-78 29 -123 90q-43 58 -43 139q0 56 8 92l107 496h-496l-96 -455q-4 -36 -4 -43q0 -36 29 -55q28 -19 86 -19h92l-60 -274h-196q-98 0 -180 31q-78 29 -123 90q-43 58 -43 139
q0 56 8 92l106 496h-190l57 274h191l57 264h385l-55 -264h493l58 264h385l-56 -264h226l-60 -274h-225z" />
    <glyph glyph-name="w_w_w" unicode="www" horiz-adv-x="5462" 
d="M4854 98l370 1022h351l-414 -1120h-627l103 1018l-328 -1018h-631l45 948l-350 -948h-627l105 1026l-328 -1026h-633l47 948l-352 -948h-627l105 1026l-328 -1026h-631l54 1120h340l-56 -1016l334 1016h596l-94 -1030l373 1030h635l-56 -1016l334 1016h594l-92 -1024
l373 1024h634l-57 -1022l336 1022h594z" />
    <glyph glyph-name=".notdef" horiz-adv-x="1542" 
d="M1276 0h-1249l331 1556h1250zM680 1249l-199 -942h475l199 942h-475z" />
    <glyph glyph-name=".null" horiz-adv-x="0" 
 />
    <glyph glyph-name="nonmarkingreturn" unicode="&#xd;" horiz-adv-x="452" 
 />
    <glyph glyph-name="space" unicode=" " horiz-adv-x="452" 
 />
    <glyph glyph-name="exclam" unicode="!" horiz-adv-x="663" 
d="M485 537h-319l153 1019h447zM420 0h-404l76 352h404z" />
    <glyph glyph-name="quotedbl" unicode="&#x22;" horiz-adv-x="1005" 
d="M479 889h-284l92 667h385zM940 889h-285l93 667h385z" />
    <glyph glyph-name="numbersign" unicode="#" horiz-adv-x="1677" 
d="M1718 1120l-51 -235h-328l-112 -273h278l-51 -235h-328l-157 -377h-285l158 377h-283l-158 -377h-286l157 377h-233l51 235h283l112 273h-233l51 235h283l182 436h287l-183 -436h283l182 436h285l-182 -436h278zM659 612h283l113 273h-283z" />
    <glyph glyph-name="dollar" unicode="$" horiz-adv-x="1435" 
d="M1022 926l-6 -11q107 -35 176 -98q70 -64 104 -143q35 -81 35 -162q0 -152 -67 -268q-68 -118 -195 -189q-129 -72 -295 -90l-51 -248h-385l59 283q-156 53 -245 176q-90 125 -99 297h398q9 -114 73 -172q63 -57 176 -57q68 0 129 22q57 20 93 66q34 43 34 100
q0 46 -24 76q-24 31 -66 49q-56 25 -110 41l-213 66q-154 48 -240 147q-88 101 -88 260q0 125 66 232q64 104 182 172q120 69 270 90l51 241h385l-57 -268q138 -47 221 -152q84 -107 111 -258h-397q-9 76 -74 123t-156 47q-63 0 -112 -18q-50 -18 -80 -53q-31 -36 -31 -80
q0 -41 24 -68t68 -45q50 -21 121 -43z" />
    <glyph glyph-name="percent" unicode="%" horiz-adv-x="2078" 
d="M256 780h-2q-86 86 -86 240q0 146 53 276t160 209q109 80 264 80q152 0 238 -86t86 -239q0 -152 -51 -277q-53 -130 -160 -209q-109 -80 -264 -80q-152 0 -238 86zM651 -2h-352l1219 1556h352zM616 958l-4 -2q42 63 64 154q22 93 22 154q0 58 -22 86t-66 28
q-58 0 -98 -63q-39 -63 -61 -154q-21 -89 -21 -153q0 -56 23 -86q23 -29 61 -29q58 0 102 65zM1284 53v-2q-86 86 -86 240q0 151 51 276q53 130 160 209q109 80 264 80q154 0 240 -86t86 -242q0 -147 -51 -272q-53 -130 -160 -209q-109 -80 -264 -80q-154 0 -240 86z
M1649 231l-4 -2q41 61 63 154q23 97 23 154q0 56 -23 86q-22 28 -66 28q-58 0 -98 -63q-39 -63 -61 -154q-21 -88 -21 -155q0 -54 23 -84q23 -29 61 -29q59 0 103 65z" />
    <glyph glyph-name="ampersand" unicode="&#x26;" horiz-adv-x="1607" 
d="M1315 412h-6q-3 -4 -23 -29q-10 -13 -31 -37l236 -346h-412l-80 119q-228 -146 -467 -146q-152 0 -270 50q-115 49 -180 141q-64 91 -64 211t56 215q57 96 153 168q95 71 246 143q-57 84 -82 150q-24 65 -24 129q0 115 73 206q76 94 203 146q130 53 289 53q145 0 246 -43
t153 -119q53 -77 53 -172q0 -94 -53 -168q-53 -73 -141 -129q-82 -51 -227 -116l-29 -13l174 -254l215 273h336zM811 1309v2q-37 -21 -55 -58q-19 -40 -19 -75q0 -31 13 -68q9 -26 34 -74l13 6q107 51 159 93q50 41 50 102q0 45 -31 70q-30 24 -78 24q-47 0 -86 -22z
M862 322l-246 358q-85 -48 -129 -92q-49 -49 -65 -88q-19 -46 -19 -94q0 -80 56 -130q55 -49 141 -49q132 0 262 95z" />
    <glyph glyph-name="quotesingle" unicode="'" horiz-adv-x="544" 
d="M479 889h-284l92 667h385z" />
    <glyph glyph-name="parenleft" unicode="(" horiz-adv-x="770" 
d="M190 -401v-7q-69 159 -110 326q-39 157 -39 350q0 359 143 670t412 612h412q-280 -315 -428 -624q-152 -318 -152 -658q0 -189 37 -350q38 -167 104 -319h-379z" />
    <glyph glyph-name="parenright" unicode=")" horiz-adv-x="768" 
d="M-229 -401l-2 6q280 315 428 624q151 316 151 658q0 189 -37 350q-38 167 -104 319h379q69 -161 110 -325q41 -166 41 -350q0 -359 -143 -670t-412 -612h-411z" />
    <glyph glyph-name="asterisk" unicode="*" horiz-adv-x="966" 
d="M1028 1569l25 -217l-228 -25l103 -215l-205 -92l-105 221l-184 -160l-151 168l180 156l-197 115l115 186l194 -115l46 211l223 -49l-45 -209z" />
    <glyph glyph-name="plus" unicode="+" horiz-adv-x="1320" 
d="M807 707h414v-285h-414v-422h-293v422h-414v285h414v413h293v-413z" />
    <glyph glyph-name="comma" unicode="," horiz-adv-x="641" 
d="M0 0l76 352h403l-86 -399l-215 -248h-252l203 295h-129z" />
    <glyph glyph-name="hyphen" unicode="-" horiz-adv-x="911" 
d="M776 432h-696l65 311h697z" />
    <glyph glyph-name="period" unicode="." horiz-adv-x="641" 
d="M403 0h-403l76 352h403z" />
    <glyph glyph-name="slash" unicode="/" horiz-adv-x="1216" 
d="M362 0h-430l1016 1556h430z" />
    <glyph glyph-name="zero" unicode="0" horiz-adv-x="1513" 
d="M369 39h-2q-124 68 -191 199t-67 319q0 258 90 496q89 234 276 381q188 147 467 147q171 0 295 -68q123 -68 190 -198q68 -133 68 -320q0 -257 -90 -495q-88 -233 -277 -381t-466 -148q-169 0 -293 68zM926 389q92 126 135 301q43 173 43 326q0 143 -49 207
q-50 65 -152 65q-136 0 -227 -125q-92 -126 -135 -301q-43 -173 -43 -325q0 -138 49 -205q50 -68 151 -68q137 0 228 125z" />
    <glyph glyph-name="one" unicode="1" horiz-adv-x="905" 
d="M637 1556h336l-330 -1556h-393l217 1024h-338l66 307h36q105 0 185 23q73 21 123 65q48 42 86 111z" />
    <glyph glyph-name="two" unicode="2" horiz-adv-x="1421" 
d="M528 307l764 -8l-65 -307h-1266l82 389l797 516q100 65 155 127q49 55 49 117q0 65 -51 104t-135 39q-100 0 -168 -53q-67 -52 -88 -148h-397q29 147 127 265q92 111 237 174q140 61 308 61q169 0 294 -49q127 -50 197 -141t70 -219q0 -161 -86 -279q-84 -115 -252 -221z
" />
    <glyph glyph-name="three" unicode="3" horiz-adv-x="1417" 
d="M1358 995l-6 -4q-64 -76 -170 -123q-100 -44 -234 -63q104 -18 185 -64q82 -46 131 -116t49 -160q0 -133 -76 -246q-75 -112 -229 -180t-377 -68q-172 0 -307 60q-132 59 -209 170q-76 110 -88 264h397q9 -100 68 -150q58 -49 159 -49q80 0 144 25q58 23 94 74
q35 50 35 114q0 83 -72 127q-70 43 -209 43h-108l61 309h109q113 0 190 25q73 24 109 66q34 40 34 90q0 65 -51 104q-53 41 -147 41q-98 0 -160 -45q-65 -47 -86 -131h-397q27 139 122 248q92 106 238 166q142 59 303 59q162 0 287 -51q130 -53 203 -144t73 -210
q0 -104 -65 -181z" />
    <glyph glyph-name="four" unicode="4" horiz-adv-x="1468" 
d="M1235 690h209l-66 -307h-207l-81 -383h-394l82 383h-766l82 389l600 784h725zM1006 1462l-586 -772h422z" />
    <glyph glyph-name="five" unicode="5" horiz-adv-x="1437" 
d="M1411 1249l-733 -6l-131 -430q64 110 170 178t237 68q120 0 209 -51q94 -54 146 -152q53 -100 53 -233q0 -186 -86 -334q-87 -149 -252 -234q-167 -86 -393 -86q-175 0 -305 62q-132 63 -201 174q-72 117 -78 264h397q6 -102 64 -154q59 -53 160 -53q85 0 155 43
q71 43 111 117q41 74 41 162q0 95 -55 147q-56 53 -150 53q-89 0 -162 -43q-72 -43 -119 -120l-385 32l275 903h1098z" />
    <glyph glyph-name="six" unicode="6" horiz-adv-x="1472" 
d="M1186 977l-2 -4q103 -60 159 -166t56 -236q0 -162 -92 -301t-258 -221q-165 -82 -371 -82q-165 0 -293 64q-129 64 -205 196q-76 131 -76 326q0 250 103 489t295 388t448 149q158 0 271 -55q115 -56 182 -154q68 -100 86 -233h-397q-9 66 -54 108q-44 41 -127 41
q-149 0 -254 -135q-103 -132 -147 -373q41 78 104 135q64 58 148 93q77 32 172 32q148 0 252 -61zM856 301v-10q72 42 111 106q39 65 39 146q0 56 -25 104q-24 47 -74 74q-49 27 -114 27q-92 0 -166 -41q-75 -41 -115 -105q-41 -65 -41 -131q0 -101 61 -156t164 -55
q89 0 160 41z" />
    <glyph glyph-name="seven" unicode="7" horiz-adv-x="1208" 
d="M184 1249l64 307h1116l-82 -389l-811 -1167h-489l909 1249h-707z" />
    <glyph glyph-name="eight" unicode="8" horiz-adv-x="1492" 
d="M1436 1004l-9 -9q-61 -80 -155 -127q-98 -49 -223 -67q97 -22 172 -70q78 -50 120 -119q43 -70 43 -155q0 -138 -88 -248q-90 -112 -254 -176q-170 -66 -391 -66q-178 0 -317 53q-138 52 -215 148q-78 96 -78 221q0 120 65 209q62 86 177 143q110 55 249 76
q-137 46 -215 121q-77 74 -77 197q0 117 84 221q82 102 237 164q152 61 350 61q179 0 310 -49q130 -49 202 -139q70 -88 70 -207q0 -107 -57 -182zM981 971l-2 -2q66 28 96 71q31 45 31 90q0 69 -55 109q-56 41 -162 41q-91 0 -152 -27q-63 -28 -92 -73q-31 -48 -31 -95
q0 -62 54 -104q51 -39 153 -39q91 0 160 29zM831 281l-2 -9q74 27 117 76t43 117q0 50 -31 92q-29 40 -86 61q-61 23 -122 23q-98 0 -172 -27t-115 -77t-41 -117q0 -80 67 -123t177 -43q92 0 165 27z" />
    <glyph glyph-name="nine" unicode="9" horiz-adv-x="1472" 
d="M1182 1520q126 -63 204 -197q76 -131 76 -326q0 -252 -102 -489q-102 -238 -295 -387q-193 -150 -449 -150q-155 0 -270 56q-116 57 -182 153q-68 100 -86 234h397q9 -66 53 -107q42 -39 127 -39q151 0 256 135q104 134 148 373q-41 -76 -105 -135q-62 -57 -147 -92
q-79 -33 -172 -33q-146 0 -252 62q-105 62 -160 165q-55 104 -55 236q0 162 92 301t258 221q165 82 371 82q167 0 293 -63zM938 840v2q76 42 115 104q41 65 41 133q0 102 -62 158q-61 55 -164 55q-91 0 -159 -39q-72 -42 -111 -106q-39 -65 -39 -143q0 -57 25 -105t73 -74
t115 -26q92 0 166 41z" />
    <glyph glyph-name="colon" unicode=":" horiz-adv-x="643" 
d="M403 0h-403l76 352h403zM553 698h-403l75 353h404z" />
    <glyph glyph-name="semicolon" unicode=";" horiz-adv-x="643" 
d="M0 0l76 352h403l-86 -399l-215 -248h-252l203 295h-129zM553 698h-403l75 353h404z" />
    <glyph glyph-name="less" unicode="&#x3c;" horiz-adv-x="1300" 
d="M125 801l1014 282v-299l-830 -221l830 -223v-297l-1014 283v475z" />
    <glyph glyph-name="equal" unicode="=" horiz-adv-x="1384" 
d="M1229 651h-1069v285h1069v-285zM1229 199h-1069v284h1069v-284z" />
    <glyph glyph-name="greater" unicode="&#x3e;" horiz-adv-x="1300" 
d="M164 784v299l1014 -282v-475l-1014 -283v297l829 223z" />
    <glyph glyph-name="question" unicode="?" horiz-adv-x="1265" 
d="M406 537v-2q21 113 73 198q51 83 146 156l139 104q66 49 106 86q34 31 52 60q16 26 16 53q0 47 -43 74q-45 28 -113 28q-81 0 -137 -39q-59 -41 -74 -110h-395q26 134 115 237q85 98 221 148q134 49 311 49q162 0 275 -39q115 -40 178 -115q61 -73 61 -172
q0 -121 -61 -209q-63 -91 -174 -174l-141 -106q-81 -60 -117 -107q-35 -47 -51 -120h-387zM694 -2h-403l76 352h403z" />
    <glyph glyph-name="at" unicode="@" horiz-adv-x="1947" 
d="M1518 1286v-4q173 -95 268 -262q96 -169 96 -375q0 -170 -61 -313q-63 -147 -181 -234q-119 -88 -288 -88q-123 0 -193 49q-71 50 -98 138q-48 -83 -135 -134q-89 -53 -205 -53q-79 0 -141 33q-67 36 -103 92q-37 58 -37 135q0 159 113 232q115 74 315 92l250 24l2 15
q6 35 6 53q0 47 -28 72q-27 24 -86 24q-66 0 -109 -30q-44 -31 -59 -88h-295q30 102 98 170q66 66 164 102q96 35 207 35q186 0 295 -74q108 -73 108 -215q0 -28 -10 -90l-47 -223q-8 -31 -8 -56q0 -88 86 -88q64 0 112 60q47 59 68 147q23 97 23 178q0 148 -66 277
q-63 123 -195 198q-130 74 -307 74q-227 0 -411 -112q-186 -113 -295 -302t-109 -401q0 -175 68 -299q68 -125 192 -188q125 -64 297 -64q178 0 344 84l82 -190q-233 -115 -463 -115q-222 0 -393 98t-266 269q-94 169 -94 372q0 293 147 539q146 244 397 389
q247 143 545 143q225 0 400 -96zM995 254q63 66 86 174l2 10l-139 -12q-94 -9 -147 -39q-54 -31 -54 -98q0 -51 33 -74q36 -25 76 -25q82 0 143 64z" />
    <glyph glyph-name="A" unicode="A" horiz-adv-x="1658" 
d="M1550 0h-399l-31 389h-626l-199 -389h-424l823 1556h697zM1032 1452l-377 -741h439z" />
    <glyph glyph-name="B" unicode="B" horiz-adv-x="1548" 
d="M1356 690l4 4q104 -85 104 -233q0 -135 -84 -242q-81 -103 -245 -162q-159 -57 -396 -57h-710l329 1556h676q170 0 283 -49q115 -50 170 -135t55 -198q0 -111 -65 -191q-63 -78 -170 -125q-103 -46 -228 -61q171 -21 277 -107zM1096 1206h2q-45 31 -119 31h-291l-59 -279
h284q115 0 170 46q56 47 56 116q0 56 -43 86zM805 324l-4 2q135 0 196 49q62 50 62 123q0 66 -45 102q-46 37 -131 37h-322l-67 -313h311z" />
    <glyph glyph-name="C" unicode="C" horiz-adv-x="1648" 
d="M428 45v-8q-156 75 -240 217q-86 145 -86 350q0 242 113 465q112 222 324 365q209 141 485 141q198 0 344 -70q151 -72 234 -198q85 -128 100 -301h-414q-15 126 -88 196q-75 72 -205 72q-142 0 -254 -92q-111 -91 -170 -246q-59 -154 -59 -334q0 -105 37 -178t104 -113
q65 -39 160 -39q120 0 229 74q106 72 166 201h414q-66 -179 -180 -305q-120 -132 -285 -201q-168 -70 -381 -70q-194 0 -348 74z" />
    <glyph glyph-name="D" unicode="D" horiz-adv-x="1632" 
d="M911 1556v-4q203 0 359 -69q162 -72 252 -211q92 -142 92 -344q0 -296 -127 -506q-125 -207 -348 -316q-216 -106 -504 -106h-610l329 1556h557zM674 317h-4q168 0 293 78q121 75 184 213q61 134 61 299q0 157 -86 240q-87 84 -241 84h-197l-195 -914h185z" />
    <glyph glyph-name="E" unicode="E" horiz-adv-x="1361" 
d="M1462 1556l-67 -321h-711l-59 -279h696l-70 -321h-694l-65 -313h727l-70 -322h-1124l329 1556h1108z" />
    <glyph glyph-name="F" unicode="F" horiz-adv-x="1306" 
d="M1434 1556l-70 -321h-680l-66 -303h668l-69 -322h-666l-129 -610h-397l329 1556h1080z" />
    <glyph glyph-name="G" unicode="G" horiz-adv-x="1753" 
d="M817 604l57 289h838l-192 -905h-326l76 356q-82 -158 -221 -270q-138 -111 -351 -111q-162 0 -301 74q-137 73 -221 219q-82 143 -82 350q0 244 113 467q113 224 325 365q211 141 498 141q200 0 350 -66q149 -65 234 -182q87 -120 108 -270h-413q-23 105 -99 162
q-73 55 -200 55q-154 0 -269 -92q-114 -92 -176 -242q-61 -149 -61 -330q0 -108 43 -184q44 -77 119 -117q74 -39 178 -39q103 0 188 43q87 44 148 117q60 72 88 170h-451z" />
    <glyph glyph-name="H" unicode="H" horiz-adv-x="1640" 
d="M1184 969l125 587h399l-330 -1556h-399l131 616h-557l-131 -616h-397l329 1556h398l-125 -587h557z" />
    <glyph glyph-name="I" unicode="I" horiz-adv-x="684" 
d="M422 0h-397l329 1556h398z" />
    <glyph glyph-name="J" unicode="J" horiz-adv-x="878" 
d="M-80 0l64 322h159q83 0 123 30q41 30 56 105l233 1099h399l-249 -1177q-27 -127 -89 -211q-60 -81 -170 -125q-107 -43 -266 -43h-260z" />
    <glyph glyph-name="K" unicode="K" horiz-adv-x="1521" 
d="M1231 1556h495l-725 -763l443 -793h-449l-411 768l-162 -768h-397l329 1556h398l-144 -675z" />
    <glyph glyph-name="L" unicode="L" horiz-adv-x="1216" 
d="M752 1556l-260 -1234h645l-70 -322h-1042l329 1556h398z" />
    <glyph glyph-name="M" unicode="M" horiz-adv-x="2273" 
d="M2343 1556l-330 -1556h-399l305 1444l-565 -1444h-670l45 1454l-307 -1454h-397l329 1556h740l-62 -1447l549 1447h762z" />
    <glyph glyph-name="N" unicode="N" horiz-adv-x="1822" 
d="M1184 111l307 1445h399l-329 -1556h-734l-98 1446l-307 -1446h-397l329 1556h731z" />
    <glyph glyph-name="O" unicode="O" horiz-adv-x="1738" 
d="M434 45l-4 -2q-159 75 -246 217q-88 143 -88 354q0 236 115 463q113 223 326 365q211 141 495 141q204 0 361 -74t245 -217q91 -148 91 -352q0 -240 -113 -463q-112 -221 -326 -364q-213 -142 -495 -142q-204 0 -361 74zM1083 365h-4q114 92 176 245q62 154 62 334
q0 111 -39 182q-41 75 -111 115q-68 39 -166 39q-151 0 -266 -92q-111 -89 -174 -246q-61 -152 -61 -334q0 -106 39 -180q41 -77 110 -117q68 -39 166 -39q152 0 268 93z" />
    <glyph glyph-name="P" unicode="P" horiz-adv-x="1478" 
d="M961 1556l-3 3q169 0 302 -56q130 -55 204 -160q74 -106 74 -247q0 -163 -84 -297q-83 -132 -250 -209q-165 -76 -409 -76h-265l-108 -514h-397l329 1556h607zM844 838v-2q96 0 160 30q67 31 96 82q30 52 30 121q0 82 -49 125t-147 43h-252l-84 -399h246z" />
    <glyph glyph-name="Q" unicode="Q" horiz-adv-x="1753" 
d="M1741 0l-447 -4l-63 82q-201 -109 -440 -109q-204 0 -361 74q-159 75 -246 217q-88 143 -88 354q0 236 115 463q113 223 326 365q211 141 495 141q204 0 361 -74t245 -217q91 -148 91 -352q0 -169 -58 -334q-59 -167 -166 -301zM1036 330l-219 282h443q59 151 59 332
q0 111 -39 182q-41 75 -111 115q-68 39 -165 39q-152 0 -267 -92q-111 -89 -174 -246q-61 -152 -61 -334q0 -106 39 -180q41 -77 110 -117q68 -39 166 -39q121 0 219 58z" />
    <glyph glyph-name="R" unicode="R" horiz-adv-x="1558" 
d="M1446 801l-2 -4q-100 -133 -279 -197l256 -604h-438l-207 547h-239l-117 -547h-397l329 1556h635q158 0 283 -55q128 -57 200 -156q74 -103 74 -239q0 -170 -98 -301zM680 1229l-76 -371h266q88 0 148 31q59 30 86 80q29 53 29 104q0 69 -50 113q-49 43 -133 43h-270z
" />
    <glyph glyph-name="S" unicode="S" horiz-adv-x="1480" 
d="M344 31l6 -2q-148 59 -229 174q-83 118 -86 280h414q3 -101 79 -153q79 -54 203 -54q129 0 209 41t80 121q0 45 -25 76q-27 34 -69 53q-50 23 -127 43l-228 64q-173 49 -272 151q-98 101 -98 262q0 139 88 252q88 114 246 179q157 65 352 65q287 0 442 -119
q158 -122 182 -331h-413q-15 70 -80 108q-64 37 -174 37q-76 0 -135 -18q-58 -18 -88 -52q-31 -36 -31 -73q0 -41 24 -68q25 -28 74 -49q50 -21 135 -45l230 -64q175 -50 262 -153q90 -107 90 -248q0 -166 -86 -287q-85 -120 -248 -184q-167 -66 -387 -66q-189 0 -340 60z
" />
    <glyph glyph-name="T" unicode="T" horiz-adv-x="1384" 
d="M244 1556h1317l-68 -321h-459l-262 -1235h-399l262 1235h-461z" />
    <glyph glyph-name="U" unicode="U" horiz-adv-x="1605" 
d="M393 33h-4q-135 59 -203 164q-67 104 -67 245q0 86 22 199l195 913h397l-209 -987q-10 -48 -10 -92q0 -96 59 -149q58 -52 170 -52q140 0 226 86t121 240l200 954h400l-201 -942q-47 -212 -137 -350q-91 -141 -246 -215q-154 -74 -383 -74q-192 0 -330 60z" />
    <glyph glyph-name="V" unicode="V" horiz-adv-x="1591" 
d="M686 100l680 1456h438l-768 -1556h-719l-108 1556h407z" />
    <glyph glyph-name="W" unicode="W" horiz-adv-x="2381" 
d="M1620 104l543 1452h395l-600 -1556h-701l123 1452l-493 -1452h-697l58 1556h379l-70 -1445l500 1445h676z" />
    <glyph glyph-name="X" unicode="X" horiz-adv-x="1622" 
d="M1313 1556h497l-677 -737l399 -819h-449l-260 549l-473 -549h-493l739 838l-348 718h438l219 -464z" />
    <glyph glyph-name="Y" unicode="Y" horiz-adv-x="1476" 
d="M1247 1556h469l-772 -956l-127 -600h-399l135 641l-379 915h414l229 -579z" />
    <glyph glyph-name="Z" unicode="Z" horiz-adv-x="1445" 
d="M299 1556h1264l-88 -413l-959 -821h819l-67 -322h-1311l88 414l959 821h-773z" />
    <glyph glyph-name="bracketleft" unicode="[" horiz-adv-x="792" 
d="M948 1556l-59 -274h-217l-297 -1409h215l-58 -274h-602l416 1957h602z" />
    <glyph glyph-name="backslash" unicode="\" horiz-adv-x="1142" 
d="M991 0h-387l-358 1556h387z" />
    <glyph glyph-name="bracketright" unicode="]" horiz-adv-x="792" 
d="M209 1282l57 274h604l-415 -1957h-605l60 274h217l297 1409h-215z" />
    <glyph glyph-name="asciicircum" unicode="^" horiz-adv-x="1245" 
d="M958 1556l271 -815h-359l-182 660l-184 -660h-359l273 815h540z" />
    <glyph glyph-name="underscore" unicode="_" horiz-adv-x="1196" 
d="M952 -274h-1056l59 274h1057z" />
    <glyph glyph-name="grave" unicode="`" horiz-adv-x="802" 
d="M909 1229h-356l-305 327h506z" />
    <glyph glyph-name="a" unicode="a" horiz-adv-x="1300" 
d="M1102 1055h-2q135 -91 135 -267q0 -48 -12 -110l-144 -678h-381l41 195q-63 -97 -157 -158q-95 -62 -226 -62q-94 0 -174 41q-78 40 -125 111q-45 68 -45 166q0 182 131 276q136 97 394 121l307 29l4 14q6 35 6 49q0 56 -35 86q-36 31 -102 31q-76 0 -123 -33
q-51 -35 -68 -92h-385q38 121 123 203q87 84 205 127q119 43 262 43q235 0 371 -92zM694 270l2 -4q72 78 99 209l2 14l-164 -16q-109 -9 -172 -47q-62 -38 -62 -111q0 -62 37 -92t92 -30q95 0 166 77z" />
    <glyph glyph-name="b" unicode="b" horiz-adv-x="1374" 
d="M1151 1094l-2 -2q84 -53 127 -152q43 -98 43 -229q0 -189 -70 -357q-70 -169 -202 -274t-310 -105q-117 0 -198 66q-80 65 -117 178l-47 -217h-379l330 1557h381l-144 -674q56 114 158 188q103 74 233 74q114 0 197 -53zM797 291v-2q67 67 102 176q35 110 35 217
q0 102 -43 154q-44 53 -123 53q-92 0 -160 -68q-67 -67 -102 -176q-35 -110 -35 -215q0 -102 43 -154q44 -53 123 -53q92 0 160 68z" />
    <glyph glyph-name="c" unicode="c" horiz-adv-x="1284" 
d="M293 31l-2 -8q-116 58 -180 165t-64 248q0 181 82 344q82 162 242 262q159 99 381 99q153 0 264 -51q113 -52 178 -152t68 -238h-385q-3 94 -41 144q-37 49 -115 49q-89 0 -154 -68q-63 -66 -98 -176q-33 -103 -33 -217q0 -100 41 -153q42 -54 117 -54q80 0 141 49
q57 46 94 140h385q-47 -134 -135 -232q-87 -97 -217 -153t-297 -56q-156 0 -272 58z" />
    <glyph glyph-name="d" unicode="d" horiz-adv-x="1378" 
d="M1094 1556l374 -4l-329 -1556h-379l43 201q-57 -96 -150 -162q-91 -64 -219 -64q-113 0 -198 49q-87 51 -136 148q-49 98 -49 240q0 186 70 354q69 167 203 276q131 107 311 107q91 0 153 -39q67 -42 105 -100q40 -60 55 -132zM762 289v-2q66 66 104 176q37 107 37 217
q0 103 -45 154q-47 53 -125 53q-92 0 -160 -68q-67 -67 -102 -176q-35 -110 -35 -215q0 -102 43 -154q44 -53 123 -53q92 0 160 68z" />
    <glyph glyph-name="e" unicode="e" horiz-adv-x="1304" 
d="M424 446l-10 -22q0 -103 45 -154q47 -53 129 -53q64 0 117 29q48 26 79 84h385q-89 -182 -245 -271q-159 -90 -363 -90q-158 0 -274 58q-117 58 -178 166q-62 109 -62 247q0 181 82 344q82 162 242 265q156 100 381 100q157 0 268 -51q115 -53 176 -154t61 -252
q0 -122 -40 -246h-793zM565 827h2q-64 -55 -104 -149h405q9 38 9 53q0 71 -43 111q-44 41 -119 41q-85 0 -150 -56z" />
    <glyph glyph-name="f" unicode="f" horiz-adv-x="866" 
d="M885 1292l-4 -2q-71 0 -101 -24q-31 -25 -43 -84l-12 -62h229l-59 -274h-229l-179 -846h-387l179 846h-185l60 274h184l22 111q70 325 474 325h217l-58 -264h-108z" />
    <glyph glyph-name="g" unicode="g" horiz-adv-x="1376" 
d="M1006 1120l368 -8l-239 -1124q-30 -144 -123 -240t-224 -139q-130 -43 -284 -43q-157 0 -273 43q-115 43 -184 127t-78 203h385q9 -59 52 -89q44 -30 108 -30q98 0 166 53t86 141l43 207q-59 -95 -150 -153q-94 -60 -213 -60q-107 0 -196 53q-90 53 -141 150
q-52 98 -52 229q0 173 68 338q66 160 201 264q133 103 313 103q92 0 154 -39q63 -39 104 -102q39 -60 55 -130zM764 322q68 65 102 163q35 100 35 201q0 98 -43 150q-42 51 -125 51q-93 0 -160 -64q-66 -63 -100 -161q-35 -100 -35 -203q0 -98 43 -150q42 -51 123 -51
q93 0 160 64z" />
    <glyph glyph-name="h" unicode="h" horiz-adv-x="1331" 
d="M1130 1108h-2q70 -40 107 -107t37 -157q0 -68 -17 -144l-149 -700h-385l133 631q14 66 14 121q0 64 -30 98q-30 35 -88 35q-87 0 -148 -70q-63 -73 -90 -209l-129 -608h-387l330 1556h381l-140 -661q64 114 166 184q101 70 221 70q108 0 176 -39z" />
    <glyph glyph-name="i" unicode="i" horiz-adv-x="616" 
d="M383 0h-387l237 1120h388zM649 1245h-393l66 311h393z" />
    <glyph glyph-name="j" unicode="j" horiz-adv-x="616" 
d="M-262 -401l57 274h51q72 0 103 25t43 84l241 1136h388l-254 -1200q-35 -162 -150 -240q-116 -79 -319 -79h-160zM649 1245h-393l66 311h393z" />
    <glyph glyph-name="k" unicode="k" horiz-adv-x="1275" 
d="M928 1120h454l-497 -526l284 -594h-421l-250 545l-115 -545h-387l330 1556h387l-185 -870z" />
    <glyph glyph-name="l" unicode="l" horiz-adv-x="616" 
d="M383 0h-387l330 1556h387z" />
    <glyph glyph-name="m" unicode="m" horiz-adv-x="2004" 
d="M1810 1108l-18 -14q69 -37 104 -105t35 -155q0 -64 -16 -146l-150 -702h-387l135 632q17 97 17 119q0 62 -29 99q-27 34 -80 34q-78 0 -135 -69q-59 -71 -86 -205l-129 -608h-385l133 633q17 80 17 118q0 62 -29 99q-27 34 -80 34q-78 0 -135 -69q-59 -71 -86 -205
l-129 -608h-387l237 1120h381l-49 -231q60 111 164 186q103 74 221 74q93 0 160 -37q68 -38 102 -101t37 -141q39 79 98 141t140 105q74 39 157 39q102 0 172 -37z" />
    <glyph glyph-name="n" unicode="n" horiz-adv-x="1331" 
d="M1130 1108l-2 2q71 -41 107 -106q37 -67 37 -158q0 -68 -17 -144l-149 -700h-385l133 631q14 66 14 121q0 64 -30 98q-30 35 -88 35q-87 0 -148 -70q-63 -73 -90 -209l-129 -608h-387l237 1120h381l-47 -223q65 115 166 182q103 68 221 68q108 0 176 -39z" />
    <glyph glyph-name="o" unicode="o" horiz-adv-x="1341" 
d="M299 29v-4q-118 56 -182 163q-66 111 -66 254q0 182 80 342q79 158 244 258q163 99 389 99q155 0 276 -56q123 -57 185 -161q65 -109 65 -254q0 -182 -82 -340q-83 -160 -245 -258q-163 -99 -390 -99q-156 0 -274 56zM764 289l2 -2q67 67 102 176q35 110 35 217
q0 103 -45 154q-47 53 -125 53q-92 0 -160 -68q-64 -64 -100 -176q-35 -110 -35 -215q0 -102 43 -154q44 -53 123 -53q92 0 160 68z" />
    <glyph glyph-name="p" unicode="p" horiz-adv-x="1374" 
d="M1151 1094l-2 -4q84 -53 127 -152q43 -98 43 -229q0 -189 -70 -357q-70 -169 -202 -274t-310 -105q-114 0 -198 66q-81 63 -119 176l-129 -616h-381l321 1521h381l-49 -235q56 114 158 188q103 74 233 74q114 0 197 -53zM797 289v-2q67 67 102 176q35 110 35 217
q0 102 -43 154q-44 53 -123 53q-92 0 -160 -68q-67 -67 -102 -176q-35 -110 -35 -215q0 -102 43 -154q44 -53 123 -53q92 0 160 68z" />
    <glyph glyph-name="q" unicode="q" horiz-adv-x="1374" 
d="M999 1120l379 -2l-321 -1521h-379l125 596q-54 -97 -148 -158q-95 -62 -221 -62q-112 0 -198 50q-88 51 -136 147q-49 98 -49 240q0 186 70 354q69 167 203 276q131 107 311 107q91 0 153 -39q67 -42 105 -100q40 -61 55 -131zM766 291v-2q66 66 104 176q37 107 37 217
q0 103 -45 154q-47 53 -125 53q-91 0 -159 -68q-69 -69 -103 -176q-35 -110 -35 -215q0 -102 43 -154q44 -53 123 -53q92 0 160 68z" />
    <glyph glyph-name="r" unicode="r" horiz-adv-x="907" 
d="M543 784h2q64 155 178 260t276 105l-79 -371h-93q-148 0 -225 -57q-79 -58 -106 -191l-113 -530h-387l237 1120h381z" />
    <glyph glyph-name="s" unicode="s" horiz-adv-x="1206" 
d="M272 16l-4 -8q-118 43 -190 127q-71 83 -80 201h385q9 -66 57 -92q50 -27 131 -27q75 0 129 23q50 21 50 65q0 34 -35 55q-43 26 -123 48l-180 53q-140 41 -215 110q-76 70 -76 191q0 105 67 190t191 135t287 50q137 0 247 -39q113 -40 185 -115q71 -74 86 -178h-385
q-9 39 -54 61q-48 23 -114 23q-64 0 -113 -19q-45 -17 -45 -57q0 -21 16 -37q13 -13 50 -26q53 -18 98 -31l180 -53q146 -44 215 -125q72 -84 72 -197q0 -112 -64 -194q-66 -84 -190 -130q-127 -47 -303 -47q-156 0 -275 43z" />
    <glyph glyph-name="t" unicode="t" horiz-adv-x="882" 
d="M659 846l-100 -457q-4 -36 -4 -43q0 -36 29 -55q28 -19 86 -19h92l-60 -274h-196q-98 0 -180 31q-78 29 -123 90q-43 58 -43 139q0 56 8 92l106 496h-190l57 274h191l57 264h385l-55 -264h225l-59 -274h-226z" />
    <glyph glyph-name="u" unicode="u" horiz-adv-x="1323" 
d="M942 1120h381l-238 -1120h-380l49 225q-60 -108 -164 -180q-101 -70 -225 -70q-102 0 -172 37q-71 38 -105 105q-35 68 -35 157q0 66 17 146l149 700h385l-133 -631q-16 -75 -16 -122q0 -65 30 -99q28 -32 88 -32q88 0 148 69q62 71 92 209z" />
    <glyph glyph-name="v" unicode="v" horiz-adv-x="1294" 
d="M543 90l458 1030h392l-512 -1120h-695l-55 1120h373z" />
    <glyph glyph-name="w" unicode="w" horiz-adv-x="1921" 
d="M1278 90l373 1030h350l-416 -1120h-627l105 1026l-328 -1026h-631l54 1120h340l-56 -1016l334 1016h596z" />
    <glyph glyph-name="x" unicode="x" horiz-adv-x="1251" 
d="M944 1120h414l-475 -534l264 -586h-404l-149 365l-297 -365h-426l514 606l-242 514h402l131 -321z" />
    <glyph glyph-name="y" unicode="y" horiz-adv-x="1269" 
d="M545 211l424 909h407l-723 -1521h-393l238 512h-297l-78 1009h373z" />
    <glyph glyph-name="z" unicode="z" horiz-adv-x="1177" 
d="M205 1120h995l-74 -354l-655 -492h586l-60 -274h-1042l76 354l655 492h-541z" />
    <glyph glyph-name="braceleft" unicode="{" horiz-adv-x="858" 
d="M1004 1556l-60 -272h-35q-63 0 -102 -31q-35 -28 -51 -102l-45 -215q-24 -121 -82 -191q-57 -69 -144 -104q-84 -34 -215 -49q143 -18 226 -80q84 -63 84 -162q0 -39 -13 -102l-51 -244q-8 -33 -8 -55q0 -42 24 -60t78 -18h33l-59 -274h-129q-109 0 -185 30
q-72 28 -118 90q-43 58 -43 142q0 45 12 98l47 227q12 62 12 103q0 49 -16 78t-51 43t-101 20l72 334q78 6 125 26q51 21 80 70q33 55 53 141l43 197q73 360 489 360h130z" />
    <glyph glyph-name="bar" unicode="|" horiz-adv-x="638" 
d="M289 -463h-373l455 2142h372z" />
    <glyph glyph-name="braceright" unicode="}" horiz-adv-x="858" 
d="M707 821l-11 -4q16 -29 54 -41t100 -18l-72 -334q-73 -6 -123 -25q-48 -18 -77 -67q-33 -54 -50 -142l-51 -235q-41 -177 -160 -268q-122 -93 -333 -93h-129l59 275h35q63 0 102 31q35 28 51 102l56 252q24 121 82 188q60 70 143 103q84 34 215 49q-140 18 -225 78
q-84 60 -84 159q0 49 10 101l47 215q6 27 6 55q0 42 -24 60t-78 18h-35l59 274h129q107 0 187 -30q78 -29 123 -90q43 -58 43 -142q0 -41 -13 -98l-43 -199q-10 -58 -10 -98q0 -45 17 -76z" />
    <glyph glyph-name="asciitilde" unicode="~" horiz-adv-x="1386" 
d="M80 557v-6q76 120 172 182q95 62 199 62q59 0 116 -13q60 -14 135 -45q76 -30 129 -45q49 -14 105 -14q64 0 115 31q47 28 102 90l174 -181q-74 -113 -172 -180q-92 -63 -197 -63q-64 0 -116 12q-50 11 -135 47q-95 37 -129 47q-60 17 -105 17q-63 0 -117 -31
q-46 -26 -100 -90z" />
    <glyph glyph-name="uni00A0" unicode="&#xa0;" horiz-adv-x="452" 
 />
    <glyph glyph-name="exclamdown" unicode="&#xa1;" horiz-adv-x="636" 
d="M561 768h-403l75 352h404zM336 -399h-442l274 995h317z" />
    <glyph glyph-name="cent" unicode="&#xa2;" horiz-adv-x="1357" 
d="M778 274l4 -6q56 47 92 140h386q-58 -167 -185 -279q-126 -111 -309 -145l-55 -256h-377l59 274q-143 49 -223 164t-80 274q0 156 62 301q61 143 184 248q122 104 295 139l53 250h375l-58 -264q144 -45 220 -149q81 -110 84 -265h-385q-3 94 -41 144q-37 49 -115 49
q-89 0 -154 -68q-63 -66 -98 -176t-35 -217q0 -101 43 -153q45 -54 119 -54q81 0 139 49z" />
    <glyph glyph-name="sterling" unicode="&#xa3;" horiz-adv-x="1335" 
d="M772 633l-4 -2q-41 -103 -154 -185q-114 -83 -280 -141h878l-65 -307h-1155l78 375q145 62 227 123q86 64 115 135h-306l54 264h200l-6 8q-90 113 -90 254q0 127 70 221t203 150q131 55 313 55q157 0 278 -53q118 -52 187 -148q68 -95 74 -217h-398q-9 67 -45 103
q-37 37 -108 37q-86 0 -136 -50q-49 -49 -49 -129q0 -81 62 -176l33 -53h423l-55 -264h-344z" />
    <glyph glyph-name="currency" unicode="&#xa4;" horiz-adv-x="1478" 
d="M1233 524l143 -143l-223 -221l-143 141q-115 -53 -228 -53q-114 0 -229 53l-141 -141l-224 221l142 141q-60 111 -60 238q0 124 60 235l-142 142l224 221l141 -141q109 53 229 53q125 0 228 -53l143 141l223 -221l-141 -142q57 -105 57 -233q0 -129 -59 -238zM895 561h-6
q52 30 82 82q30 53 30 117t-30 117q-29 51 -82 81q-54 31 -113 31q-58 0 -112 -31q-53 -30 -82 -81q-31 -54 -31 -117t31 -117q29 -50 84 -82q54 -31 114 -31q61 0 115 31z" />
    <glyph glyph-name="yen" unicode="&#xa5;" horiz-adv-x="1617" 
d="M1315 1556h454l-557 -667h263l-58 -264h-405l-23 -113h406l-58 -266h-405l-51 -246h-394l52 246h-408l57 266h408l22 113h-407l57 264h273l-281 667h424l197 -600z" />
    <glyph glyph-name="brokenbar" unicode="&#xa6;" horiz-adv-x="657" 
d="M567 813h-372l184 866h373zM297 -463h-373l187 866h370z" />
    <glyph glyph-name="section" unicode="&#xa7;" horiz-adv-x="1341" 
d="M1077 958v-4q111 -59 160 -131q49 -73 49 -159q0 -103 -61 -179q-62 -77 -178 -141q63 -78 63 -186q0 -109 -68 -195t-196 -135t-301 -49q-134 0 -246 47q-110 46 -178 129q-69 84 -78 188h397q6 -57 47 -92t103 -35q60 0 104 29q41 27 41 74q0 41 -30 71q-31 30 -101 68
l-278 145q-110 58 -160 132q-49 73 -49 159q0 102 61 178q63 79 178 142q-63 78 -63 186q0 110 67 195t197 135q128 49 301 49q134 0 246 -47q110 -46 178 -129q69 -85 78 -186h-397q-6 56 -48 92q-40 34 -102 34q-59 0 -104 -28q-43 -27 -43 -74q0 -40 30 -70
q26 -26 103 -67zM834 492h-3q35 24 54 53q18 27 18 65q0 41 -26 74q-25 31 -93 68l-227 116q-34 -27 -53 -55q-19 -29 -19 -61q0 -37 29 -74q25 -32 92 -68z" />
    <glyph glyph-name="dieresis" unicode="&#xa8;" horiz-adv-x="985" 
d="M575 1245h-393l66 311h393zM1094 1245h-394l66 311h393z" />
    <glyph glyph-name="copyright" unicode="&#xa9;" horiz-adv-x="1914" 
d="M582 49l-4 -8q-195 115 -308 307q-112 190 -112 422q0 228 114 422q113 192 308 307t424 115q231 0 423 -113q195 -115 308 -307q114 -193 114 -420q0 -230 -112 -420q-114 -193 -307 -307q-192 -113 -424 -113q-229 0 -424 115zM1323 213l-4 -2q147 86 233 233
q86 148 86 322q0 176 -86 324q-86 147 -233 233q-148 86 -322 86q-173 0 -321 -86q-149 -87 -234 -233q-86 -148 -86 -322t86 -322q85 -146 234 -233q148 -86 323 -86q176 0 324 86zM764 356l-2 4q-106 56 -164 160q-59 106 -59 250t59 250q58 104 164 160q104 55 237 55
q113 0 201 -39q96 -42 158 -119q66 -81 86 -192h-305q-16 61 -49 90q-36 31 -93 31q-68 0 -110 -60q-41 -59 -41 -178t41 -178q42 -60 117 -60q48 0 88 29q37 27 49 92h305q-20 -111 -86 -192q-63 -78 -156 -119q-88 -39 -200 -39q-136 0 -240 55z" />
    <glyph glyph-name="ordfeminine" unicode="&#xaa;" horiz-adv-x="704" 
d="M743 1524l-8 -6q74 -47 74 -140q0 -28 -8 -61l-70 -332h-229l16 82q-72 -96 -184 -96q-51 0 -90 20q-43 22 -66 58q-24 37 -24 84q0 95 69 143q70 49 199 61l151 13l2 8q1 6 2 12.5t2 11t1 7.5q0 17 -13 30t-37 13q-25 0 -43 -15q-17 -14 -26 -39h-234q27 93 115 144
q85 49 201 49q126 0 200 -47zM504 1130l2 -2q27 34 41 86l-70 -6q-43 -3 -67 -18q-25 -16 -25 -43q0 -22 16 -35q15 -12 41 -12q38 0 62 30z" />
    <glyph glyph-name="guillemotleft" unicode="&#xab;" horiz-adv-x="1527" 
d="M469 1018h455l-410 -459l203 -461h-438l-199 471zM1102 1018h454l-409 -459l203 -461h-439l-198 471z" />
    <glyph glyph-name="logicalnot" unicode="&#xac;" horiz-adv-x="1310" 
d="M1159 203h-293v440h-733v283h1026v-723z" />
    <glyph glyph-name="uni00AD" unicode="&#xad;" horiz-adv-x="911" 
d="M776 432h-696l65 311h697z" />
    <glyph glyph-name="registered" unicode="&#xae;" horiz-adv-x="1912" 
d="M1425 1505l-4 -8q195 -115 308 -307q114 -193 114 -420q0 -230 -112 -420q-113 -192 -308 -307q-192 -113 -424 -113q-229 0 -424 115q-193 114 -307 307q-112 190 -112 422q0 229 114 422q113 192 308 307t423 115q232 0 424 -113zM1323 213l-4 -2q147 86 233 233
q86 148 86 322q0 176 -86 324q-86 147 -233 233q-148 86 -322 86q-173 0 -321 -86q-149 -87 -234 -233q-86 -148 -86 -322t86 -322q85 -146 234 -233q148 -86 323 -86q176 0 324 86zM1364 762l-2 2q-44 -68 -125 -105l188 -348h-297l-151 307h-78v-307h-264v908h385
q123 0 207 -37q87 -38 133 -105q47 -68 47 -159q0 -89 -43 -156zM897 1006v-177h115q53 0 86 23q30 21 30 66q0 44 -30 65q-33 23 -86 23h-115z" />
    <glyph glyph-name="macron" unicode="&#xaf;" horiz-adv-x="894" 
d="M1008 1260h-822l56 260h821z" />
    <glyph glyph-name="degree" unicode="&#xb0;" horiz-adv-x="897" 
d="M379 848q-89 52 -141 141q-54 91 -54 197q0 105 54 196q53 90 141 142q89 53 196 53q108 0 197 -53q88 -52 141 -142q54 -91 54 -196q0 -106 -54 -197q-53 -89 -141 -141q-89 -53 -197 -53q-107 0 -196 53zM645 1069l-2 -2q31 18 49 49q19 32 19 72q0 35 -19 67t-49 50
t-68 18q-39 0 -69 -18t-49 -50t-19 -67q0 -38 19 -70q18 -31 49 -49q30 -18 72 -18q37 0 67 18z" />
    <glyph glyph-name="plusminus" unicode="&#xb1;" horiz-adv-x="1421" 
d="M836 1120v-239h413v-273h-413v-246h-293v246h-414v273h414v239h293zM1249 0h-1120v272h1120v-272z" />
    <glyph glyph-name="uni00B2" unicode="&#xb2;" horiz-adv-x="731" 
d="M453 1176l374 -5l-39 -184h-653l49 234l402 239q39 23 59 43q19 19 19 43q0 26 -21 41q-24 17 -51 17q-37 0 -64 -21t-36 -57h-236q21 118 115 188q92 68 227 68t215 -56t80 -155q0 -83 -49 -141q-50 -60 -131 -105z" />
    <glyph glyph-name="uni00B3" unicode="&#xb3;" horiz-adv-x="722" 
d="M813 1456l-10 -12q-68 -47 -170 -62q79 -12 129 -57q53 -47 53 -111q0 -63 -37 -118q-38 -56 -116 -90q-81 -35 -197 -35q-140 0 -221 69q-83 71 -86 193h235q6 -86 94 -86q43 0 70 24t27 58t-33 51q-34 18 -92 18h-60l39 181h64q68 0 102 18q35 18 35 49q0 28 -18 43
q-20 17 -52 17q-35 0 -59 -21t-33 -51h-235q12 77 59 133q48 57 119 86q76 31 164 31t155 -27t105 -74q37 -46 37 -104q0 -76 -68 -123z" />
    <glyph glyph-name="acute" unicode="&#xb4;" horiz-adv-x="817" 
d="M541 1229h-363l291 327h524z" />
    <glyph glyph-name="uni00B5" unicode="&#xb5;" horiz-adv-x="1613" 
d="M1456 274l-2 -282h-117q-127 0 -204 14q-83 15 -138 55t-82 111q-8 16 -8 41q-40 -107 -123 -172t-217 -68v-376h-379v1521h379v-624v-5q0 -129 43 -190t125 -61q87 0 127 63q41 65 41 197v622h379v-737v-4q0 -46 14 -66q15 -21 43 -30q27 -9 78 -9h41z" />
    <glyph glyph-name="paragraph" unicode="&#xb6;" horiz-adv-x="1599" 
d="M518 659v-2q-104 0 -186 48q-78 46 -125 129q-45 80 -45 184q0 131 74 258q74 126 200 203q127 77 271 77h935l-370 -1746h-354l309 1458h-223l-312 -1458h-354z" />
    <glyph glyph-name="periodcentered" unicode="&#xb7;" horiz-adv-x="620" 
d="M444 428h-321l74 354h323z" />
    <glyph glyph-name="cedilla" unicode="&#xb8;" horiz-adv-x="468" 
d="M125 -61h-6q61 -9 104 -48q39 -36 39 -94q0 -67 -33 -114q-35 -50 -94 -76q-62 -27 -137 -27h-172l35 156h86q36 0 57 12t21 41q0 22 -15 31q-13 8 -43 8h-51l37 172h184z" />
    <glyph glyph-name="uni00B9" unicode="&#xb9;" horiz-adv-x="489" 
d="M483 1769h189l-166 -778h-238l103 479h-168l39 185h20q84 0 133 24q51 25 80 76z" />
    <glyph glyph-name="ordmasculine" unicode="&#xba;" horiz-adv-x="712" 
d="M311 1006q-62 26 -98 84q-35 56 -35 129q0 91 43 170t129 129q85 49 205 49q78 0 147 -29q63 -26 99 -84q35 -56 35 -129q0 -91 -43 -170t-129 -129q-85 -49 -205 -49q-79 0 -148 29zM545 1165l-2 -2q31 39 41 82q12 49 12 96q0 74 -66 74q-41 0 -67 -33q-31 -39 -41 -82
q-12 -50 -12 -94q0 -37 18 -55t49 -18q43 0 68 32z" />
    <glyph glyph-name="guillemotright" unicode="&#xbb;" horiz-adv-x="1527" 
d="M178 1018h436l201 -471l-391 -449h-455l412 457zM811 1018h436l201 -471l-389 -449h-457l412 459z" />
    <glyph glyph-name="onequarter" unicode="&#xbc;" horiz-adv-x="1736" 
d="M1540 360h98l-39 -184h-100l-37 -176h-237l37 176h-367l49 234l252 368h432zM1376 707l-243 -347h170zM481 1556h189l-166 -778h-238l103 479h-168l39 185h20q84 0 133 24q51 25 80 76zM408 0h-320l1157 1556h320z" />
    <glyph glyph-name="onehalf" unicode="&#xbd;" horiz-adv-x="1748" 
d="M1235 184l375 -4l-39 -184h-653l49 233l401 240q39 23 59 43q19 19 19 43q0 26 -21 41q-22 16 -51 16q-37 0 -63 -20q-29 -22 -37 -57h-236q21 118 115 188q92 68 227 68t215 -56t80 -155q0 -84 -49 -142t-131 -104zM481 1552h189l-166 -778h-238l103 479h-168l39 185h20
q84 0 133 24q51 25 80 76zM408 -4h-320l1157 1556h320z" />
    <glyph glyph-name="threequarters" unicode="&#xbe;" horiz-adv-x="1910" 
d="M801 1243l-10 -12q-68 -47 -170 -62q79 -12 129 -57q53 -47 53 -111q0 -63 -37 -118q-38 -55 -117 -90q-81 -35 -196 -35q-141 0 -222 69q-83 71 -86 193h236q6 -86 94 -86q43 0 70 24q26 23 26 58q0 34 -32 51q-35 18 -93 18h-59l39 181h63q69 0 103 18q35 18 35 49
q0 27 -19 43q-20 17 -51 17q-35 0 -59 -21t-33 -51h-236q12 76 60 133t119 86q76 31 163 31q89 0 156 -27q65 -26 104 -74q37 -46 37 -104q0 -77 -67 -123zM573 -12h-319l1157 1556h320zM1704 348h98l-39 -184h-100l-37 -176h-237l36 176h-366l49 233l252 369h432zM1540 694
l-244 -346h170z" />
    <glyph glyph-name="questiondown" unicode="&#xbf;" horiz-adv-x="1255" 
d="M897 768h-403l75 352h404zM168 -389l-10 -4q-117 42 -176 112q-62 74 -62 179q0 121 57 204q59 86 175 168l141 99q82 52 119 98q38 47 53 117h387q-24 -116 -76 -197q-51 -81 -141 -143l-141 -99q-73 -52 -99 -73q-29 -22 -51 -56q-18 -27 -18 -61q0 -44 36 -70t109 -26
q81 0 143 41t80 110h396q-30 -137 -119 -237q-87 -97 -223 -150q-131 -51 -312 -51q-158 0 -268 39z" />
    <glyph glyph-name="Agrave" unicode="&#xc0;" horiz-adv-x="1658" 
d="M1550 0h-399l-31 389h-626l-199 -389h-424l823 1556h697zM1032 1452l-377 -741h439zM1247 1667h-366l-328 309h514z" />
    <glyph glyph-name="Aacute" unicode="&#xc1;" horiz-adv-x="1658" 
d="M1550 0h-399l-31 389h-626l-199 -389h-424l823 1556h697zM1032 1452l-377 -741h439zM1241 1667h-387l307 309h545z" />
    <glyph glyph-name="Acircumflex" unicode="&#xc2;" horiz-adv-x="1658" 
d="M1550 0h-399l-31 389h-626l-199 -389h-424l823 1556h697zM1032 1452l-377 -741h439zM1362 1976l203 -309h-334l-139 150l-187 -150h-350l317 309h490z" />
    <glyph glyph-name="Atilde" unicode="&#xc3;" horiz-adv-x="1658" 
d="M1550 0h-399l-31 389h-626l-199 -389h-424l823 1556h697zM1032 1452l-377 -741h439zM664 1677l2 -2q35 159 114 244q80 86 189 86q43 0 86 -12q31 -9 78 -29q67 -33 122 -33q43 0 84 23q38 21 56 59h121q-35 -160 -115 -246t-187 -86q-38 0 -88 13q-36 9 -79 28
q-59 33 -123 33q-45 0 -84 -22q-38 -21 -56 -56h-120z" />
    <glyph glyph-name="Adieresis" unicode="&#xc4;" horiz-adv-x="1658" 
d="M1550 0h-399l-31 389h-626l-199 -389h-424l823 1556h697zM1032 1452l-377 -741h439zM999 1667h-405l65 309h406zM1509 1667h-405l65 309h406z" />
    <glyph glyph-name="Aring" unicode="&#xc5;" horiz-adv-x="1658" 
d="M1550 0h-399l-31 389h-626l-199 -389h-424l823 1556h697zM1032 1452l-377 -741h439zM944 1690l-2 -4q-60 34 -98 96q-37 61 -37 143q0 90 43 166t121 123q74 45 168 45q80 0 139 -33q62 -35 98 -94q37 -61 37 -143q0 -90 -43 -166q-44 -77 -119 -123q-74 -45 -168 -45
q-77 0 -139 35zM1174 1890h-3q31 31 31 78q0 34 -24 55q-26 23 -58 23q-45 0 -76 -31q-30 -30 -30 -78q0 -34 24 -55q25 -22 60 -22q46 0 76 30z" />
    <glyph glyph-name="AE" unicode="&#xc6;" horiz-adv-x="2187" 
d="M2290 1556l-68 -321h-799l29 -279h694l-67 -321h-594l33 -313h528l-70 -322h-825l-31 389h-626l-199 -389h-424l823 1556h1596zM1032 1452l-377 -741h439z" />
    <glyph glyph-name="Ccedilla" unicode="&#xc7;" horiz-adv-x="1648" 
d="M1038 350v-12q106 72 166 201h414q-92 -259 -293 -410t-496 -166l-8 -35q64 -9 105 -47t41 -94q0 -63 -35 -113t-96 -77q-62 -27 -140 -27h-180l35 166h86q76 0 76 45q0 22 -15 31q-13 8 -43 8h-55l35 157q-159 24 -281 105q-120 79 -188 213q-68 133 -68 313
q0 242 113 465q112 222 324 365q209 141 485 141q198 0 344 -70q149 -72 233 -198q86 -130 101 -301h-414q-15 126 -88 196q-75 72 -205 72q-142 0 -254 -92q-111 -91 -170 -246q-59 -154 -59 -334q0 -105 37 -178t104 -113q65 -39 160 -39q120 0 229 74z" />
    <glyph glyph-name="Egrave" unicode="&#xc8;" horiz-adv-x="1361" 
d="M1462 1556l-67 -321h-711l-59 -279h696l-70 -321h-694l-65 -313h727l-70 -322h-1124l329 1556h1108zM1120 1667h-366l-328 309h514z" />
    <glyph glyph-name="Eacute" unicode="&#xc9;" horiz-adv-x="1361" 
d="M1462 1556l-67 -321h-711l-59 -279h696l-70 -321h-694l-65 -313h727l-70 -322h-1124l329 1556h1108zM1081 1667h-387l307 309h545z" />
    <glyph glyph-name="Ecircumflex" unicode="&#xca;" horiz-adv-x="1361" 
d="M1462 1556l-67 -321h-711l-59 -279h696l-70 -321h-694l-65 -313h727l-70 -322h-1124l329 1556h1108zM1225 1976l202 -309h-333l-140 150l-186 -150h-350l317 309h490z" />
    <glyph glyph-name="Edieresis" unicode="&#xcb;" horiz-adv-x="1361" 
d="M1462 1556l-67 -321h-711l-59 -279h696l-70 -321h-694l-65 -313h727l-70 -322h-1124l329 1556h1108zM860 1667h-405l65 309h406zM1370 1667h-405l65 309h406z" />
    <glyph glyph-name="Igrave" unicode="&#xcc;" horiz-adv-x="684" 
d="M422 0h-397l329 1556h398zM737 1667h-366l-328 309h514z" />
    <glyph glyph-name="Iacute" unicode="&#xcd;" horiz-adv-x="684" 
d="M422 0h-397l329 1556h398zM782 1667h-387l307 309h545z" />
    <glyph glyph-name="Icircumflex" unicode="&#xce;" horiz-adv-x="684" 
d="M422 0h-397l329 1556h398zM887 1976l203 -309h-334l-140 150l-186 -150h-350l317 309h490z" />
    <glyph glyph-name="Idieresis" unicode="&#xcf;" horiz-adv-x="684" 
d="M422 0h-397l329 1556h398zM524 1667h-405l65 309h406zM1034 1667h-405l65 309h406z" />
    <glyph glyph-name="Eth" unicode="&#xd0;" horiz-adv-x="1665" 
d="M944 1556v-4q203 0 359 -69q160 -71 251 -211q93 -143 93 -344q0 -296 -127 -506q-125 -206 -349 -316q-216 -106 -503 -106h-611l140 662h-160l57 272h162l131 622h557zM707 317h-5q168 0 293 78q123 76 185 213q61 134 61 299q0 157 -86 240q-87 84 -242 84h-196
l-64 -301h320l-55 -273h-322l-72 -340h183z" />
    <glyph glyph-name="Ntilde" unicode="&#xd1;" horiz-adv-x="1822" 
d="M1184 111l307 1445h399l-329 -1556h-734l-98 1446l-307 -1446h-397l329 1556h731zM754 1677l2 -2q35 159 114 244q80 86 189 86q43 0 86 -12q31 -9 78 -29q67 -33 123 -33q43 0 84 23q36 20 55 59h121q-35 -160 -115 -246t-186 -86q-38 0 -88 13q-38 10 -80 28
q-59 33 -123 33q-45 0 -84 -22q-38 -21 -56 -56h-120z" />
    <glyph glyph-name="Ograve" unicode="&#xd2;" horiz-adv-x="1738" 
d="M434 45l-4 -2q-159 75 -246 217q-88 143 -88 354q0 236 115 463q113 223 326 365q211 141 495 141q204 0 361 -74t245 -217q91 -148 91 -352q0 -240 -113 -463q-112 -221 -326 -364q-213 -142 -495 -142q-204 0 -361 74zM1083 365h-4q114 92 176 245q62 154 62 334
q0 111 -39 182q-41 75 -111 115q-68 39 -166 39q-151 0 -266 -92q-111 -89 -174 -246q-61 -152 -61 -334q0 -106 39 -180q41 -77 110 -117q68 -39 166 -39q152 0 268 93zM1290 1663h-366l-328 309h514z" />
    <glyph glyph-name="Oacute" unicode="&#xd3;" horiz-adv-x="1738" 
d="M434 45l-4 -2q-159 75 -246 217q-88 143 -88 354q0 236 115 463q113 223 326 365q211 141 495 141q204 0 361 -74t245 -217q91 -148 91 -352q0 -240 -113 -463q-112 -221 -326 -364q-213 -142 -495 -142q-204 0 -361 74zM1083 365h-4q114 92 176 245q62 154 62 334
q0 111 -39 182q-41 75 -111 115q-68 39 -166 39q-151 0 -266 -92q-111 -89 -174 -246q-61 -152 -61 -334q0 -106 39 -180q41 -77 110 -117q68 -39 166 -39q152 0 268 93zM1251 1663h-387l307 309h545z" />
    <glyph glyph-name="Ocircumflex" unicode="&#xd4;" horiz-adv-x="1738" 
d="M434 45l-4 -2q-159 75 -246 217q-88 143 -88 354q0 236 115 463q113 223 326 365q211 141 495 141q204 0 361 -74t245 -217q91 -148 91 -352q0 -240 -113 -463q-112 -221 -326 -364q-213 -142 -495 -142q-204 0 -361 74zM1083 365h-4q114 92 176 245q62 154 62 334
q0 111 -39 182q-41 75 -111 115q-68 39 -166 39q-151 0 -266 -92q-111 -89 -174 -246q-61 -152 -61 -334q0 -106 39 -180q41 -77 110 -117q68 -39 166 -39q152 0 268 93zM1395 1972l202 -309h-333l-140 149l-186 -149h-350l317 309h490z" />
    <glyph glyph-name="Otilde" unicode="&#xd5;" horiz-adv-x="1738" 
d="M434 45l-4 -2q-159 75 -246 217q-88 143 -88 354q0 236 115 463q113 223 326 365q211 141 495 141q204 0 361 -74t245 -217q91 -148 91 -352q0 -240 -113 -463q-112 -221 -326 -364q-213 -142 -495 -142q-204 0 -361 74zM1083 365h-4q114 92 176 245q62 154 62 334
q0 111 -39 182q-41 75 -111 115q-68 39 -166 39q-151 0 -266 -92q-111 -89 -174 -246q-61 -152 -61 -334q0 -106 39 -180q41 -77 110 -117q68 -39 166 -39q152 0 268 93zM694 1673l2 -2q35 158 115 244t188 86q43 0 86 -12q31 -9 78 -29q67 -33 123 -33q43 0 84 23
q36 20 55 59h121q-35 -161 -114 -246q-80 -86 -187 -86q-38 0 -88 13q-38 10 -80 28q-59 33 -123 33q-45 0 -84 -22q-36 -20 -55 -56h-121z" />
    <glyph glyph-name="Odieresis" unicode="&#xd6;" horiz-adv-x="1738" 
d="M434 45l-4 -2q-159 75 -246 217q-88 143 -88 354q0 236 115 463q113 223 326 365q211 141 495 141q204 0 361 -74t245 -217q91 -148 91 -352q0 -240 -113 -463q-112 -221 -326 -364q-213 -142 -495 -142q-204 0 -361 74zM1083 365h-4q114 92 176 245q62 154 62 334
q0 111 -39 182q-41 75 -111 115q-68 39 -166 39q-151 0 -266 -92q-111 -89 -174 -246q-61 -152 -61 -334q0 -106 39 -180q41 -77 110 -117q68 -39 166 -39q152 0 268 93zM1030 1663h-405l65 309h406zM1540 1663h-405l65 309h406z" />
    <glyph glyph-name="multiply" unicode="&#xd7;" horiz-adv-x="1306" 
d="M995 1098l195 -195l-340 -340l340 -342l-195 -194l-342 340l-340 -340l-196 194l342 342l-342 340l196 195l340 -340z" />
    <glyph glyph-name="Oslash" unicode="&#xd8;" horiz-adv-x="1738" 
d="M2044 1556l-371 -321q58 -131 58 -295q0 -240 -113 -463q-112 -221 -326 -364q-213 -142 -495 -142q-119 0 -238 29q-108 26 -197 84l-98 -86h-475l369 324q-58 125 -58 292q0 236 115 463q113 223 326 365q211 141 495 141q258 0 432 -113l99 86h477zM745 1194v2
q-111 -86 -174 -240q-62 -151 -65 -325l688 602q-73 49 -184 49q-152 0 -265 -88zM1083 369l-2 -2q114 89 176 239q63 154 66 326l-688 -600q68 -51 184 -51q151 0 264 88z" />
    <glyph glyph-name="Ugrave" unicode="&#xd9;" horiz-adv-x="1605" 
d="M393 33h-4q-135 59 -203 164q-67 104 -67 245q0 86 22 199l195 913h397l-209 -987q-10 -48 -10 -92q0 -96 59 -149q58 -52 170 -52q140 0 226 86t121 240l200 954h400l-201 -942q-47 -212 -137 -350q-91 -141 -246 -215q-154 -74 -383 -74q-192 0 -330 60zM1229 1667
h-367l-327 309h514z" />
    <glyph glyph-name="Uacute" unicode="&#xda;" horiz-adv-x="1605" 
d="M393 33h-4q-135 59 -203 164q-67 104 -67 245q0 86 22 199l195 913h397l-209 -987q-10 -48 -10 -92q0 -96 59 -149q58 -52 170 -52q140 0 226 86t121 240l200 954h400l-201 -942q-47 -212 -137 -350q-91 -141 -246 -215q-154 -74 -383 -74q-192 0 -330 60zM1188 1667
h-387l307 309h545z" />
    <glyph glyph-name="Ucircumflex" unicode="&#xdb;" horiz-adv-x="1605" 
d="M393 33h-4q-135 59 -203 164q-67 104 -67 245q0 86 22 199l195 913h397l-209 -987q-10 -48 -10 -92q0 -96 59 -149q58 -52 170 -52q140 0 226 86t121 240l200 954h400l-201 -942q-47 -212 -137 -350q-91 -141 -246 -215q-154 -74 -383 -74q-192 0 -330 60zM1331 1976
l203 -309h-334l-139 150l-187 -150h-350l318 309h489z" />
    <glyph glyph-name="Udieresis" unicode="&#xdc;" horiz-adv-x="1605" 
d="M393 33h-4q-135 59 -203 164q-67 104 -67 245q0 86 22 199l195 913h397l-209 -987q-10 -48 -10 -92q0 -96 59 -149q58 -52 170 -52q140 0 226 86t121 240l200 954h400l-201 -942q-47 -212 -137 -350q-91 -141 -246 -215q-154 -74 -383 -74q-192 0 -330 60zM969 1667h-406
l66 309h405zM1479 1667h-406l66 309h405z" />
    <glyph glyph-name="Yacute" unicode="&#xdd;" horiz-adv-x="1476" 
d="M1247 1556h469l-772 -956l-127 -600h-399l135 641l-379 915h414l229 -579zM1094 1667h-387l307 309h545z" />
    <glyph glyph-name="Thorn" unicode="&#xde;" horiz-adv-x="1492" 
d="M909 1325l2 2q170 0 301 -55q132 -55 205 -160q74 -106 74 -248q0 -166 -82 -297q-83 -133 -252 -209q-166 -75 -412 -75h-264l-59 -283h-397l329 1556h398l-50 -231h207zM799 604l-4 -2q90 0 157 31q65 30 99 82q32 49 32 121q0 84 -49 127t-147 43h-250l-86 -402h248z
" />
    <glyph glyph-name="germandbls" unicode="&#xdf;" horiz-adv-x="1361" 
d="M1102 772h-6q77 -41 123 -113q47 -74 47 -174q0 -148 -62 -266q-61 -115 -184 -180q-126 -66 -295 -66q-141 0 -248 43l51 242q43 -19 62 -25q24 -8 61 -8q73 0 125 37t76 98q25 64 25 136q0 87 -52 139q-53 53 -141 53h-27l56 252h14q86 0 141 37q56 38 80 96
q25 61 25 119q0 61 -37 98t-100 37q-92 0 -150 -67t-82 -185l-227 -1079h-387l219 1038q59 270 235 406q180 139 449 139q152 0 256 -43t160 -123q55 -79 55 -194t-55 -197t-150 -135q-93 -52 -217 -70q87 -6 160 -45z" />
    <glyph glyph-name="agrave" unicode="&#xe0;" horiz-adv-x="1300" 
d="M1102 1055h-2q135 -91 135 -267q0 -48 -12 -110l-144 -678h-381l41 195q-63 -97 -157 -158q-95 -62 -226 -62q-94 0 -174 41q-78 40 -125 111q-45 68 -45 166q0 182 131 276q136 97 394 121l307 29l4 14q6 35 6 49q0 56 -35 86q-36 31 -102 31q-76 0 -123 -33
q-51 -35 -68 -92h-385q38 121 123 203q87 84 205 127q119 43 262 43q235 0 371 -92zM694 270l2 -4q72 78 99 209l2 14l-164 -16q-109 -9 -172 -47q-62 -38 -62 -111q0 -62 37 -92t92 -30q95 0 166 77zM958 1223h-356l-305 327h506z" />
    <glyph glyph-name="aacute" unicode="&#xe1;" horiz-adv-x="1300" 
d="M1102 1055h-2q135 -91 135 -267q0 -48 -12 -110l-144 -678h-381l41 195q-63 -97 -157 -158q-95 -62 -226 -62q-94 0 -174 41q-78 40 -125 111q-45 68 -45 166q0 182 131 276q136 97 394 121l307 29l4 14q6 35 6 49q0 56 -35 86q-36 31 -102 31q-76 0 -123 -33
q-51 -35 -68 -92h-385q38 121 123 203q87 84 205 127q119 43 262 43q235 0 371 -92zM694 270l2 -4q72 78 99 209l2 14l-164 -16q-109 -9 -172 -47q-62 -38 -62 -111q0 -62 37 -92t92 -30q95 0 166 77zM926 1223h-363l291 327h524z" />
    <glyph glyph-name="acircumflex" unicode="&#xe2;" horiz-adv-x="1300" 
d="M1102 1055h-2q135 -91 135 -267q0 -48 -12 -110l-144 -678h-381l41 195q-63 -97 -157 -158q-95 -62 -226 -62q-94 0 -174 41q-78 40 -125 111q-45 68 -45 166q0 182 131 276q136 97 394 121l307 29l4 14q6 35 6 49q0 56 -35 86q-36 31 -102 31q-76 0 -123 -33
q-51 -35 -68 -92h-385q38 121 123 203q87 84 205 127q119 43 262 43q235 0 371 -92zM694 270l2 -4q72 78 99 209l2 14l-164 -16q-109 -9 -172 -47q-62 -38 -62 -111q0 -62 37 -92t92 -30q95 0 166 77zM1061 1550l199 -327h-322l-133 172l-201 -172h-334l322 327h469z" />
    <glyph glyph-name="atilde" unicode="&#xe3;" horiz-adv-x="1300" 
d="M1102 1055h-2q135 -91 135 -267q0 -48 -12 -110l-144 -678h-381l41 195q-63 -97 -157 -158q-95 -62 -226 -62q-94 0 -174 41q-78 40 -125 111q-45 68 -45 166q0 182 131 276q136 97 394 121l307 29l4 14q6 35 6 49q0 56 -35 86q-36 31 -102 31q-76 0 -123 -33
q-51 -35 -68 -92h-385q38 121 123 203q87 84 205 127q119 43 262 43q235 0 371 -92zM694 270l2 -4q72 78 99 209l2 14l-164 -16q-109 -9 -172 -47q-62 -38 -62 -111q0 -62 37 -92t92 -30q95 0 166 77zM397 1241l4 -4q35 162 111 244q78 84 180 84q74 0 154 -45
q62 -33 110 -33q46 0 80 24q36 25 54 62h114q-35 -159 -110 -240q-78 -84 -179 -84q-73 0 -153 45q-56 33 -117 33q-45 0 -80 -24t-53 -62h-115z" />
    <glyph glyph-name="adieresis" unicode="&#xe4;" horiz-adv-x="1300" 
d="M1102 1055h-2q135 -91 135 -267q0 -48 -12 -110l-144 -678h-381l41 195q-63 -97 -157 -158q-95 -62 -226 -62q-94 0 -174 41q-78 40 -125 111q-45 68 -45 166q0 182 131 276q136 97 394 121l307 29l4 14q6 35 6 49q0 56 -35 86q-36 31 -102 31q-76 0 -123 -33
q-51 -35 -68 -92h-385q38 121 123 203q87 84 205 127q119 43 262 43q235 0 371 -92zM694 270l2 -4q72 78 99 209l2 14l-164 -16q-109 -9 -172 -47q-62 -38 -62 -111q0 -62 37 -92t92 -30q95 0 166 77zM692 1239h-393l66 311h393zM1210 1239h-393l66 311h393z" />
    <glyph glyph-name="aring" unicode="&#xe5;" horiz-adv-x="1300" 
d="M1102 1055h-2q135 -91 135 -267q0 -48 -12 -110l-144 -678h-381l41 195q-63 -97 -157 -158q-95 -62 -226 -62q-94 0 -174 41q-78 40 -125 111q-45 68 -45 166q0 182 131 276q136 97 394 121l307 29l4 14q6 35 6 49q0 56 -35 86q-36 31 -102 31q-76 0 -123 -33
q-51 -35 -68 -92h-385q38 121 123 203q87 84 205 127q119 43 262 43q235 0 371 -92zM694 270l2 -4q72 78 99 209l2 14l-164 -16q-109 -9 -172 -47q-62 -38 -62 -111q0 -62 37 -92t92 -30q95 0 166 77zM666 1243v-6q-56 27 -86 80q-31 54 -31 127q0 80 39 145q41 68 106 107
q68 41 148 41q63 0 123 -29q56 -27 86 -80q30 -52 30 -123q0 -80 -39 -145q-41 -68 -106 -107t-148 -39q-62 0 -122 29zM866 1419v-4q25 25 25 66q0 30 -19 49q-18 18 -47 18q-37 0 -61 -24q-25 -25 -25 -64q0 -28 19 -47q18 -18 47 -18q37 0 61 24z" />
    <glyph glyph-name="ae" unicode="&#xe6;" horiz-adv-x="2062" 
d="M1182 449l-6 -15q0 -107 45 -158q47 -53 129 -53q63 0 116 29q49 27 80 84h385q-88 -181 -245 -273t-363 -92q-158 0 -260 60q-97 57 -156 176q-80 -109 -205 -170q-127 -62 -294 -62q-105 0 -195 41q-87 40 -141 115q-54 76 -54 176q0 122 64 207q66 87 184 133
q116 45 287 45h293l8 41q6 35 6 49q0 56 -35 86q-36 31 -102 31q-76 0 -123 -33q-51 -35 -68 -92h-385q37 119 123 205t205 129t262 43q135 0 221 -45q91 -48 136 -125q75 78 184 125q105 45 233 45q156 0 267 -51q116 -53 176 -156q61 -104 61 -254q0 -113 -41 -241h-792z
M1327 838l2 -2q-63 -54 -104 -150h405q8 21 8 51q0 75 -43 115q-44 41 -118 41q-86 0 -150 -55zM688 279v-3q68 59 98 164h-149q-117 0 -178 -28q-60 -28 -60 -90q0 -49 37 -76q38 -27 96 -27q87 0 156 60z" />
    <glyph glyph-name="ccedilla" unicode="&#xe7;" horiz-adv-x="1284" 
d="M735 274l-12 -8q57 46 94 140h385q-65 -194 -219 -312t-387 -127l-6 -35q63 -9 104 -47q39 -36 39 -94q0 -68 -33 -115q-34 -49 -94 -75q-62 -27 -137 -27h-172l35 156h86q36 0 57 12t21 41q0 22 -15 31q-13 8 -43 8h-51l35 160q-116 21 -201 84q-83 62 -129 155
q-45 91 -45 215q0 181 82 344q82 162 242 262q159 99 381 99q153 0 264 -51q113 -52 178 -152t68 -238h-385q-3 94 -41 144q-37 49 -115 49q-89 0 -154 -68q-63 -66 -98 -176q-33 -103 -33 -217q0 -100 41 -153q42 -54 117 -54q80 0 141 49z" />
    <glyph glyph-name="egrave" unicode="&#xe8;" horiz-adv-x="1304" 
d="M424 446l-10 -22q0 -103 45 -154q47 -53 129 -53q64 0 117 29q48 26 79 84h385q-89 -182 -245 -271q-159 -90 -363 -90q-158 0 -274 58q-117 58 -178 166q-62 109 -62 247q0 181 82 344q82 162 242 265q156 100 381 100q157 0 268 -51q115 -53 176 -154t61 -252
q0 -122 -40 -246h-793zM565 827h2q-64 -55 -104 -149h405q9 38 9 53q0 71 -43 111q-44 41 -119 41q-85 0 -150 -56zM940 1217h-356l-305 327h505z" />
    <glyph glyph-name="eacute" unicode="&#xe9;" horiz-adv-x="1304" 
d="M424 446l-10 -22q0 -103 45 -154q47 -53 129 -53q64 0 117 29q48 26 79 84h385q-89 -182 -245 -271q-159 -90 -363 -90q-158 0 -274 58q-117 58 -178 166q-62 109 -62 247q0 181 82 344q82 162 242 265q156 100 381 100q157 0 268 -51q115 -53 176 -154t61 -252
q0 -122 -40 -246h-793zM565 827h2q-64 -55 -104 -149h405q9 38 9 53q0 71 -43 111q-44 41 -119 41q-85 0 -150 -56zM932 1217h-363l291 327h524z" />
    <glyph glyph-name="ecircumflex" unicode="&#xea;" horiz-adv-x="1304" 
d="M424 446l-10 -22q0 -103 45 -154q47 -53 129 -53q64 0 117 29q48 26 79 84h385q-89 -182 -245 -271q-159 -90 -363 -90q-158 0 -274 58q-117 58 -178 166q-62 109 -62 247q0 181 82 344q82 162 242 265q156 100 381 100q157 0 268 -51q115 -53 176 -154t61 -252
q0 -122 -40 -246h-793zM565 827h2q-64 -55 -104 -149h405q9 38 9 53q0 71 -43 111q-44 41 -119 41q-85 0 -150 -56zM1067 1544l199 -327h-322l-133 172l-201 -172h-334l322 327h469z" />
    <glyph glyph-name="edieresis" unicode="&#xeb;" horiz-adv-x="1304" 
d="M424 446l-10 -22q0 -103 45 -154q47 -53 129 -53q64 0 117 29q48 26 79 84h385q-89 -182 -245 -271q-159 -90 -363 -90q-158 0 -274 58q-117 58 -178 166q-62 109 -62 247q0 181 82 344q82 162 242 265q156 100 381 100q157 0 268 -51q115 -53 176 -154t61 -252
q0 -122 -40 -246h-793zM565 827h2q-64 -55 -104 -149h405q9 38 9 53q0 71 -43 111q-44 41 -119 41q-85 0 -150 -56zM700 1233h-393l66 311h393zM1219 1233h-394l66 311h393z" />
    <glyph glyph-name="igrave" unicode="&#xec;" horiz-adv-x="616" 
d="M383 0h-387l237 1120h388zM621 1229h-357l-305 327h506z" />
    <glyph glyph-name="iacute" unicode="&#xed;" horiz-adv-x="616" 
d="M383 0h-387l237 1120h388zM639 1229h-363l291 327h525z" />
    <glyph glyph-name="icircumflex" unicode="&#xee;" horiz-adv-x="616" 
d="M383 0h-387l237 1120h388zM748 1556l198 -327h-321l-133 172l-201 -172h-334l322 327h469z" />
    <glyph glyph-name="idieresis" unicode="&#xef;" horiz-adv-x="616" 
d="M383 0h-387l237 1120h388zM379 1245h-393l65 311h393zM897 1245h-393l65 311h394z" />
    <glyph glyph-name="eth" unicode="&#xf0;" horiz-adv-x="1341" 
d="M1147 1333l-6 -2q82 -111 121 -227q41 -121 41 -266q0 -251 -86 -449q-85 -196 -252 -307t-394 -111q-154 0 -272 56t-182 163q-66 111 -66 254q0 170 74 324q76 157 205 250q131 94 297 94q123 0 194 -68q72 -69 99 -170q-3 97 -37 187q-37 98 -95 176l-276 -74l-10 170
l164 45q-103 96 -244 178h522l82 -79l258 69l12 -172zM760 289h-2q66 63 104 166q37 101 37 204q0 99 -45 150t-125 51q-92 0 -160 -65q-65 -62 -100 -166q-35 -103 -35 -205q0 -98 43 -150q42 -51 123 -51q91 0 160 66z" />
    <glyph glyph-name="ntilde" unicode="&#xf1;" horiz-adv-x="1331" 
d="M1130 1108l-2 2q71 -41 107 -106q37 -67 37 -158q0 -68 -17 -144l-149 -700h-385l133 631q14 66 14 121q0 64 -30 98q-30 35 -88 35q-87 0 -148 -70q-63 -73 -90 -209l-129 -608h-387l237 1120h381l-47 -223q65 115 166 182q103 68 221 68q108 0 176 -39zM434 1249l4 -4
q35 162 111 244q78 84 180 84q74 0 154 -45q62 -33 110 -33q44 0 80 25t53 61h115q-35 -158 -111 -240q-78 -84 -178 -84q-71 0 -153 46q-54 32 -117 32q-46 0 -80 -24q-35 -24 -53 -62h-115z" />
    <glyph glyph-name="ograve" unicode="&#xf2;" horiz-adv-x="1341" 
d="M299 29v-4q-118 56 -182 163q-66 111 -66 254q0 182 80 342q79 158 244 258q163 99 389 99q155 0 276 -56q123 -57 185 -161q65 -109 65 -254q0 -182 -82 -340q-83 -160 -245 -258q-163 -99 -390 -99q-156 0 -274 56zM764 289l2 -2q67 67 102 176q35 110 35 217
q0 103 -45 154q-47 53 -125 53q-92 0 -160 -68q-64 -64 -100 -176q-35 -110 -35 -215q0 -102 43 -154q44 -53 123 -53q92 0 160 68zM987 1221h-356l-305 327h505z" />
    <glyph glyph-name="oacute" unicode="&#xf3;" horiz-adv-x="1341" 
d="M299 29v-4q-118 56 -182 163q-66 111 -66 254q0 182 80 342q79 158 244 258q163 99 389 99q155 0 276 -56q123 -57 185 -161q65 -109 65 -254q0 -182 -82 -340q-83 -160 -245 -258q-163 -99 -390 -99q-156 0 -274 56zM764 289l2 -2q67 67 102 176q35 110 35 217
q0 103 -45 154q-47 53 -125 53q-92 0 -160 -68q-64 -64 -100 -176q-35 -110 -35 -215q0 -102 43 -154q44 -53 123 -53q92 0 160 68zM954 1221h-362l291 327h524z" />
    <glyph glyph-name="ocircumflex" unicode="&#xf4;" horiz-adv-x="1341" 
d="M299 29v-4q-118 56 -182 163q-66 111 -66 254q0 182 80 342q79 158 244 258q163 99 389 99q155 0 276 -56q123 -57 185 -161q65 -109 65 -254q0 -182 -82 -340q-83 -160 -245 -258q-163 -99 -390 -99q-156 0 -274 56zM764 289l2 -2q67 67 102 176q35 110 35 217
q0 103 -45 154q-47 53 -125 53q-92 0 -160 -68q-64 -64 -100 -176q-35 -110 -35 -215q0 -102 43 -154q44 -53 123 -53q92 0 160 68zM1090 1548l198 -327h-321l-133 172l-201 -172h-334l322 327h469z" />
    <glyph glyph-name="otilde" unicode="&#xf5;" horiz-adv-x="1341" 
d="M299 29v-4q-118 56 -182 163q-66 111 -66 254q0 182 80 342q79 158 244 258q163 99 389 99q155 0 276 -56q123 -57 185 -161q65 -109 65 -254q0 -182 -82 -340q-83 -160 -245 -258q-163 -99 -390 -99q-156 0 -274 56zM764 289l2 -2q67 67 102 176q35 110 35 217
q0 103 -45 154q-47 53 -125 53q-92 0 -160 -68q-64 -64 -100 -176q-35 -110 -35 -215q0 -102 43 -154q44 -53 123 -53q92 0 160 68zM426 1239l4 -4q35 162 111 244q78 84 180 84q73 0 153 -45q62 -33 111 -33q45 0 80 24t53 62h115q-35 -158 -111 -240q-78 -84 -178 -84
q-73 0 -153 45q-56 33 -117 33q-44 0 -80 -25t-53 -61h-115z" />
    <glyph glyph-name="odieresis" unicode="&#xf6;" horiz-adv-x="1341" 
d="M299 29v-4q-118 56 -182 163q-66 111 -66 254q0 182 80 342q79 158 244 258q163 99 389 99q155 0 276 -56q123 -57 185 -161q65 -109 65 -254q0 -182 -82 -340q-83 -160 -245 -258q-163 -99 -390 -99q-156 0 -274 56zM764 289l2 -2q67 67 102 176q35 110 35 217
q0 103 -45 154q-47 53 -125 53q-92 0 -160 -68q-64 -64 -100 -176q-35 -110 -35 -215q0 -102 43 -154q44 -53 123 -53q92 0 160 68zM723 1237h-393l65 311h393zM1241 1237h-393l65 311h394z" />
    <glyph glyph-name="divide" unicode="&#xf7;" horiz-adv-x="1343" 
d="M838 827h-332v293h332v-293zM1233 422h-1120v285h1120v-285zM838 0h-332v293h332v-293z" />
    <glyph glyph-name="oslash" unicode="&#xf8;" horiz-adv-x="1341" 
d="M1509 1120l-264 -227q47 -100 47 -219q0 -182 -82 -340q-83 -160 -245 -258q-163 -99 -390 -99q-185 0 -313 78l-59 -51h-371l266 229q-45 91 -45 216q0 182 80 342q79 158 244 258q162 98 389 98q182 0 313 -76l58 49h372zM596 842v-4q-59 -50 -98 -136
q-37 -81 -49 -178l391 336q-39 33 -105 33q-79 0 -139 -51zM750 272h2q59 50 98 136q37 81 49 182l-395 -338q39 -33 104 -33q80 0 142 53z" />
    <glyph glyph-name="ugrave" unicode="&#xf9;" horiz-adv-x="1323" 
d="M942 1120h381l-238 -1120h-380l49 225q-60 -108 -164 -180q-101 -70 -225 -70q-102 0 -172 37q-71 38 -105 105q-35 68 -35 157q0 66 17 146l149 700h385l-133 -631q-16 -75 -16 -122q0 -65 30 -99q28 -32 88 -32q88 0 148 69q62 71 92 209zM993 1229h-356l-305 327h506z
" />
    <glyph glyph-name="uacute" unicode="&#xfa;" horiz-adv-x="1323" 
d="M942 1120h381l-238 -1120h-380l49 225q-60 -108 -164 -180q-101 -70 -225 -70q-102 0 -172 37q-71 38 -105 105q-35 68 -35 157q0 66 17 146l149 700h385l-133 -631q-16 -75 -16 -122q0 -65 30 -99q28 -32 88 -32q88 0 148 69q62 71 92 209zM961 1229h-363l291 327h524z
" />
    <glyph glyph-name="ucircumflex" unicode="&#xfb;" horiz-adv-x="1323" 
d="M942 1120h381l-238 -1120h-380l49 225q-60 -108 -164 -180q-101 -70 -225 -70q-102 0 -172 37q-71 38 -105 105q-35 68 -35 157q0 66 17 146l149 700h385l-133 -631q-16 -75 -16 -122q0 -65 30 -99q28 -32 88 -32q88 0 148 69q62 71 92 209zM1096 1556l198 -327h-321
l-133 172l-201 -172h-334l322 327h469z" />
    <glyph glyph-name="udieresis" unicode="&#xfc;" horiz-adv-x="1323" 
d="M942 1120h381l-238 -1120h-380l49 225q-60 -108 -164 -180q-101 -70 -225 -70q-102 0 -172 37q-71 38 -105 105q-35 68 -35 157q0 66 17 146l149 700h385l-133 -631q-16 -75 -16 -122q0 -65 30 -99q28 -32 88 -32q88 0 148 69q62 71 92 209zM727 1245h-393l65 311h394z
M1245 1245h-393l66 311h393z" />
    <glyph glyph-name="yacute" unicode="&#xfd;" horiz-adv-x="1269" 
d="M545 211l424 909h407l-723 -1521h-393l238 512h-297l-78 1009h373zM913 1229h-362l291 327h524z" />
    <glyph glyph-name="thorn" unicode="&#xfe;" horiz-adv-x="1374" 
d="M1151 1094l-2 -4q84 -53 127 -152q43 -98 43 -229q0 -189 -70 -357q-70 -169 -202 -274t-310 -105q-114 0 -198 66q-81 63 -119 176l-129 -616h-381l414 1957h381l-93 -436l-49 -235q56 114 158 188q103 74 233 74q114 0 197 -53zM797 289v-2q67 67 102 176
q35 110 35 217q0 102 -43 154q-44 53 -123 53q-92 0 -160 -68q-67 -67 -102 -176q-35 -110 -35 -215q0 -102 43 -154q44 -53 123 -53q92 0 160 68z" />
    <glyph glyph-name="ydieresis" unicode="&#xff;" horiz-adv-x="1269" 
d="M545 211l424 909h407l-723 -1521h-393l238 512h-297l-78 1009h373zM680 1245h-393l65 311h393zM1198 1245h-393l65 311h394z" />
    <glyph glyph-name="Amacron" unicode="&#x100;" horiz-adv-x="1658" 
d="M1550 0h-399l-31 389h-626l-199 -389h-424l823 1556h697zM1032 1452l-377 -741h439zM1505 1690h-897l58 266h897z" />
    <glyph glyph-name="amacron" unicode="&#x101;" horiz-adv-x="1300" 
d="M1102 1055h-2q135 -91 135 -267q0 -48 -12 -110l-144 -678h-381l41 195q-63 -97 -157 -158q-95 -62 -226 -62q-94 0 -174 41q-78 40 -125 111q-45 68 -45 166q0 182 131 276q136 97 394 121l307 29l4 14q6 35 6 49q0 56 -35 86q-36 31 -102 31q-76 0 -123 -33
q-51 -35 -68 -92h-385q38 121 123 203q87 84 205 127q119 43 262 43q235 0 371 -92zM694 270l2 -4q72 78 99 209l2 14l-164 -16q-109 -9 -172 -47q-62 -38 -62 -111q0 -62 37 -92t92 -30q95 0 166 77zM1178 1253h-822l56 260h821z" />
    <glyph glyph-name="Abreve" unicode="&#x102;" horiz-adv-x="1658" 
d="M1550 0h-399l-31 389h-626l-199 -389h-424l823 1556h697zM1032 1452l-377 -741h439zM866 1694l2 -8q-84 29 -135 90q-49 58 -49 139q0 28 6 55h260q-6 -47 31 -74q39 -28 102 -28q67 0 117 30q51 31 60 76h260q-34 -147 -154 -229q-119 -82 -307 -82q-105 0 -193 31z" />
    <glyph glyph-name="abreve" unicode="&#x103;" horiz-adv-x="1300" 
d="M1102 1055h-2q135 -91 135 -267q0 -48 -12 -110l-144 -678h-381l41 195q-63 -97 -157 -158q-95 -62 -226 -62q-94 0 -174 41q-78 40 -125 111q-45 68 -45 166q0 182 131 276q136 97 394 121l307 29l4 14q6 35 6 49q0 56 -35 86q-36 31 -102 31q-76 0 -123 -33
q-51 -35 -68 -92h-385q38 121 123 203q87 84 205 127q119 43 262 43q235 0 371 -92zM694 270l2 -4q72 78 99 209l2 14l-164 -16q-109 -9 -172 -47q-62 -38 -62 -111q0 -62 37 -92t92 -30q95 0 166 77zM578 1247l-5 -2q-77 33 -124 96q-46 61 -46 146q0 26 7 61h266
q-4 -32 -4 -35q0 -44 30 -65q33 -23 86 -23q66 0 111 31q42 29 57 92h265q-21 -97 -82 -172q-63 -78 -160 -121q-98 -43 -221 -43q-99 0 -180 35z" />
    <glyph glyph-name="Aogonek" unicode="&#x104;" horiz-adv-x="1658" 
d="M1548 0h-2q-109 -29 -164 -61q-53 -30 -53 -68q0 -49 92 -49h88l-53 -244h-135q-166 0 -246 51q-82 52 -82 142q0 71 41 127q40 56 117 102l-31 389h-626l-199 -389h-424l823 1556h697l159 -1556h-2zM1030 1452l-377 -741h439z" />
    <glyph glyph-name="aogonek" unicode="&#x105;" horiz-adv-x="1300" 
d="M1102 1055l-4 2q135 -91 135 -266q0 -49 -12 -111l-144 -678h-2q-225 -59 -225 -131q0 -26 29 -39q27 -12 79 -12h80l-51 -238h-139q-158 0 -240 49t-82 140q0 127 172 229l41 195q-63 -97 -157 -158q-95 -62 -226 -62q-94 0 -174 41q-78 40 -125 111q-45 68 -45 166
q0 182 131 276q136 97 394 121l307 29l4 14q6 35 6 49q0 56 -35 86q-36 31 -102 31q-76 0 -123 -33q-51 -35 -68 -92h-385q38 121 123 203q87 84 205 127q119 43 262 43q235 0 371 -92zM692 272l2 -4q72 78 99 209l2 15l-164 -17q-109 -9 -172 -47q-62 -38 -62 -111
q0 -62 37 -92q38 -30 92 -30q95 0 166 77z" />
    <glyph glyph-name="Cacute" unicode="&#x106;" horiz-adv-x="1648" 
d="M428 45v-8q-156 75 -240 217q-86 145 -86 350q0 242 113 465q112 222 324 365q209 141 485 141q198 0 344 -70q151 -72 234 -198q85 -128 100 -301h-414q-15 126 -88 196q-75 72 -205 72q-142 0 -254 -92q-111 -91 -170 -246q-59 -154 -59 -334q0 -105 37 -178t104 -113
q65 -39 160 -39q120 0 229 74q106 72 166 201h414q-66 -179 -180 -305q-120 -132 -285 -201q-168 -70 -381 -70q-194 0 -348 74zM1223 1657h-387l307 309h545z" />
    <glyph glyph-name="cacute" unicode="&#x107;" horiz-adv-x="1284" 
d="M293 31l-2 -8q-116 58 -180 165t-64 248q0 181 82 344q82 162 242 262q159 99 381 99q153 0 264 -51q113 -52 178 -152t68 -238h-385q-3 94 -41 144q-37 49 -115 49q-89 0 -154 -68q-63 -66 -98 -176q-33 -103 -33 -217q0 -100 41 -153q42 -54 117 -54q80 0 141 49
q57 46 94 140h385q-47 -134 -135 -232q-87 -97 -217 -153t-297 -56q-156 0 -272 58zM924 1221h-363l291 327h524z" />
    <glyph glyph-name="Ccircumflex" unicode="&#x108;" horiz-adv-x="1648" 
d="M428 45v-8q-156 75 -240 217q-86 145 -86 350q0 242 113 465q112 222 324 365q209 141 485 141q198 0 344 -70q151 -72 234 -198q85 -128 100 -301h-414q-15 126 -88 196q-75 72 -205 72q-142 0 -254 -92q-111 -91 -170 -246q-59 -154 -59 -334q0 -105 37 -178t104 -113
q65 -39 160 -39q120 0 229 74q106 72 166 201h414q-66 -179 -180 -305q-120 -132 -285 -201q-168 -70 -381 -70q-194 0 -348 74zM1366 1966l203 -309h-334l-139 149l-187 -149h-350l318 309h489z" />
    <glyph glyph-name="ccircumflex" unicode="&#x109;" horiz-adv-x="1284" 
d="M293 31l-2 -8q-116 58 -180 165t-64 248q0 181 82 344q82 162 242 262q159 99 381 99q153 0 264 -51q113 -52 178 -152t68 -238h-385q-3 94 -41 144q-37 49 -115 49q-89 0 -154 -68q-63 -66 -98 -176q-33 -103 -33 -217q0 -100 41 -153q42 -54 117 -54q80 0 141 49
q57 46 94 140h385q-47 -134 -135 -232q-87 -97 -217 -153t-297 -56q-156 0 -272 58zM1061 1548l199 -327h-322l-133 172l-201 -172h-334l322 327h469z" />
    <glyph glyph-name="Cdotaccent" unicode="&#x10a;" horiz-adv-x="1648" 
d="M428 45v-8q-156 75 -240 217q-86 145 -86 350q0 242 113 465q112 222 324 365q209 141 485 141q198 0 344 -70q151 -72 234 -198q85 -128 100 -301h-414q-15 126 -88 196q-75 72 -205 72q-142 0 -254 -92q-111 -91 -170 -246q-59 -154 -59 -334q0 -105 37 -178t104 -113
q65 -39 160 -39q120 0 229 74q106 72 166 201h414q-66 -179 -180 -305q-120 -132 -285 -201q-168 -70 -381 -70q-194 0 -348 74zM1260 1657h-406l66 309h405z" />
    <glyph glyph-name="cdotaccent" unicode="&#x10b;" horiz-adv-x="1284" 
d="M293 31l-2 -8q-116 58 -180 165t-64 248q0 181 82 344q82 162 242 262q159 99 381 99q153 0 264 -51q113 -52 178 -152t68 -238h-385q-3 94 -41 144q-37 49 -115 49q-89 0 -154 -68q-63 -66 -98 -176q-33 -103 -33 -217q0 -100 41 -153q42 -54 117 -54q80 0 141 49
q57 46 94 140h385q-47 -134 -135 -232q-87 -97 -217 -153t-297 -56q-156 0 -272 58zM961 1237h-394l66 311h393z" />
    <glyph glyph-name="Ccaron" unicode="&#x10c;" horiz-adv-x="1648" 
d="M428 45v-8q-156 75 -240 217q-86 145 -86 350q0 242 113 465q112 222 324 365q209 141 485 141q198 0 344 -70q151 -72 234 -198q85 -128 100 -301h-414q-15 126 -88 196q-75 72 -205 72q-142 0 -254 -92q-111 -91 -170 -246q-59 -154 -59 -334q0 -105 37 -178t104 -113
q65 -39 160 -39q120 0 229 74q106 72 166 201h414q-66 -179 -180 -305q-120 -132 -285 -201q-168 -70 -381 -70q-194 0 -348 74zM1081 1815l187 151h352l-320 -309h-489l-201 309h332z" />
    <glyph glyph-name="ccaron" unicode="&#x10d;" horiz-adv-x="1284" 
d="M293 31l-2 -8q-116 58 -180 165t-64 248q0 181 82 344q82 162 242 262q159 99 381 99q153 0 264 -51q113 -52 178 -152t68 -238h-385q-3 94 -41 144q-37 49 -115 49q-89 0 -154 -68q-63 -66 -98 -176q-33 -103 -33 -217q0 -100 41 -153q42 -54 117 -54q80 0 141 49
q57 46 94 140h385q-47 -134 -135 -232q-87 -97 -217 -153t-297 -56q-156 0 -272 58zM788 1376l199 172h336l-322 -327h-471l-198 327h323z" />
    <glyph glyph-name="Dcaron" unicode="&#x10e;" horiz-adv-x="1632" 
d="M911 1556v-4q203 0 359 -69q162 -72 252 -211q92 -142 92 -344q0 -296 -127 -506q-125 -207 -348 -316q-216 -106 -504 -106h-610l329 1556h557zM674 317h-4q168 0 293 78q121 75 184 213q61 134 61 299q0 157 -86 240q-87 84 -241 84h-197l-195 -914h185zM958 1821
l187 151h352l-319 -309h-490l-201 309h332z" />
    <glyph glyph-name="dcaron" unicode="&#x10f;" horiz-adv-x="1378" 
d="M1094 1556l374 -4l-329 -1556h-379l43 201q-57 -96 -150 -162q-91 -64 -219 -64q-113 0 -198 49q-87 51 -136 148q-49 98 -49 240q0 186 70 354q69 167 203 276q131 107 311 107q91 0 153 -39q67 -42 105 -100q40 -60 55 -132zM762 289v-2q66 66 104 176q37 107 37 217
q0 103 -45 154q-47 53 -125 53q-92 0 -160 -68q-67 -67 -102 -176q-35 -110 -35 -215q0 -102 43 -154q44 -53 123 -53q92 0 160 68zM1751 1165h-264l108 383h336z" />
    <glyph glyph-name="Dcroat" unicode="&#x110;" horiz-adv-x="1665" 
d="M944 1556v-4q203 0 359 -69q160 -71 251 -211q93 -143 93 -344q0 -296 -127 -506q-125 -206 -349 -316q-216 -106 -503 -106h-611l140 662h-160l57 272h162l131 622h557zM707 317h-5q168 0 293 78q123 76 185 213q61 134 61 299q0 157 -86 240q-87 84 -242 84h-196
l-64 -301h320l-55 -273h-322l-72 -340h183z" />
    <glyph glyph-name="dcroat" unicode="&#x111;" horiz-adv-x="1378" 
d="M1556 1442l-47 -236h-114l-256 -1210h-379l43 201q-57 -96 -150 -162q-91 -64 -219 -64q-113 0 -198 49q-87 51 -136 148q-49 98 -49 240q0 186 70 354q69 167 203 276q131 107 311 107q91 0 153 -39q67 -42 105 -100q40 -60 55 -132l72 336h-191l43 232h197l25 114h379
l-25 -114h108zM762 289v-2q66 66 104 176q37 107 37 217q0 103 -45 154q-47 53 -125 53q-92 0 -160 -68q-67 -67 -102 -176q-35 -110 -35 -215q0 -102 43 -154q44 -53 123 -53q92 0 160 68z" />
    <glyph glyph-name="Emacron" unicode="&#x112;" horiz-adv-x="1361" 
d="M1462 1556l-67 -321h-711l-59 -279h696l-70 -321h-694l-65 -313h727l-70 -322h-1124l329 1556h1108zM1368 1690h-897l57 266h897z" />
    <glyph glyph-name="emacron" unicode="&#x113;" horiz-adv-x="1304" 
d="M424 446l-10 -22q0 -103 45 -154q47 -53 129 -53q64 0 117 29q48 26 79 84h385q-89 -182 -245 -271q-159 -90 -363 -90q-158 0 -274 58q-117 58 -178 166q-62 109 -62 247q0 181 82 344q82 162 242 265q156 100 381 100q157 0 268 -51q115 -53 176 -154t61 -252
q0 -122 -40 -246h-793zM565 827h2q-64 -55 -104 -149h405q9 38 9 53q0 71 -43 111q-44 41 -119 41q-85 0 -150 -56zM1186 1247h-821l55 260h821z" />
    <glyph glyph-name="Ebreve" unicode="&#x114;" horiz-adv-x="1361" 
d="M1462 1556l-67 -321h-711l-59 -279h696l-70 -321h-694l-65 -313h727l-70 -322h-1124l329 1556h1108zM727 1694l2 -8q-84 29 -135 90q-49 58 -49 139q0 28 6 55h260q-6 -47 31 -74q39 -28 102 -28q68 0 117 30q50 30 59 76h260q-35 -148 -153 -229q-119 -82 -307 -82
q-105 0 -193 31z" />
    <glyph glyph-name="ebreve" unicode="&#x115;" horiz-adv-x="1304" 
d="M424 446l-10 -22q0 -103 45 -154q47 -53 129 -53q64 0 117 29q48 26 79 84h385q-89 -182 -245 -271q-159 -90 -363 -90q-158 0 -274 58q-117 58 -178 166q-62 109 -62 247q0 181 82 344q82 162 242 265q156 100 381 100q157 0 268 -51q115 -53 176 -154t61 -252
q0 -122 -40 -246h-793zM565 827h2q-64 -55 -104 -149h405q9 38 9 53q0 71 -43 111q-44 41 -119 41q-85 0 -150 -56zM586 1243l-4 -2q-78 34 -125 96q-45 60 -45 146q0 31 6 61h266q-4 -32 -4 -35q0 -43 31 -65q33 -23 86 -23q65 0 110 31q43 29 58 92h264q-21 -97 -82 -172
q-63 -78 -160 -121q-98 -43 -221 -43q-99 0 -180 35z" />
    <glyph glyph-name="Edotaccent" unicode="&#x116;" horiz-adv-x="1361" 
d="M1462 1556l-67 -321h-711l-59 -279h696l-70 -321h-694l-65 -313h727l-70 -322h-1124l329 1556h1108zM1118 1667h-405l65 309h406z" />
    <glyph glyph-name="edotaccent" unicode="&#x117;" horiz-adv-x="1304" 
d="M424 446l-10 -22q0 -103 45 -154q47 -53 129 -53q64 0 117 29q48 26 79 84h385q-89 -182 -245 -271q-159 -90 -363 -90q-158 0 -274 58q-117 58 -178 166q-62 109 -62 247q0 181 82 344q82 162 242 265q156 100 381 100q157 0 268 -51q115 -53 176 -154t61 -252
q0 -122 -40 -246h-793zM565 827h2q-64 -55 -104 -149h405q9 38 9 53q0 71 -43 111q-44 41 -119 41q-85 0 -150 -56zM969 1233h-394l66 311h393z" />
    <glyph glyph-name="Eogonek" unicode="&#x118;" horiz-adv-x="1361" 
d="M1395 1235l-711 2l-59 -279h696l-70 -321h-694l-65 -313h727l-70 -322q-109 -29 -164 -61q-53 -30 -53 -68q0 -49 92 -49h88l-53 -244h-135q-166 0 -246 51q-82 52 -82 142q0 78 57 135q58 58 162 92h-790l329 1556h1108z" />
    <glyph glyph-name="eogonek" unicode="&#x119;" horiz-adv-x="1304" 
d="M424 446l-8 -26q0 -103 45 -154q47 -53 129 -53q64 0 117 29q48 26 79 84h385q-87 -178 -247 -275q-94 -62 -136 -104q-45 -45 -45 -84q0 -27 25 -39q24 -12 76 -12h74l-52 -238h-127q-159 0 -239 45q-84 47 -84 135q0 61 41 117q39 54 108 98h-4q-158 0 -274 58
q-117 58 -178 166q-62 109 -62 247q0 181 82 344q82 162 242 265q156 100 381 100q157 0 268 -51q115 -53 176 -154t61 -252q0 -122 -40 -246h-793zM567 823h2q-64 -55 -104 -149h405q9 38 9 53q0 71 -43 111q-44 41 -119 41q-85 0 -150 -56z" />
    <glyph glyph-name="Ecaron" unicode="&#x11a;" horiz-adv-x="1361" 
d="M1462 1556l-67 -321h-711l-59 -279h696l-70 -321h-694l-65 -313h727l-70 -322h-1124l329 1556h1108zM940 1825l186 151h353l-320 -309h-489l-201 309h332z" />
    <glyph glyph-name="ecaron" unicode="&#x11b;" horiz-adv-x="1304" 
d="M424 446l-10 -22q0 -103 45 -154q47 -53 129 -53q64 0 117 29q48 26 79 84h385q-89 -182 -245 -271q-159 -90 -363 -90q-158 0 -274 58q-117 58 -178 166q-62 109 -62 247q0 181 82 344q82 162 242 265q156 100 381 100q157 0 268 -51q115 -53 176 -154t61 -252
q0 -122 -40 -246h-793zM565 827h2q-64 -55 -104 -149h405q9 38 9 53q0 71 -43 111q-44 41 -119 41q-85 0 -150 -56zM797 1372l198 172h336l-321 -327h-471l-199 327h324z" />
    <glyph glyph-name="Gcircumflex" unicode="&#x11c;" horiz-adv-x="1753" 
d="M817 604l57 289h838l-192 -905h-326l76 356q-82 -158 -221 -270q-138 -111 -351 -111q-162 0 -301 74q-137 73 -221 219q-82 143 -82 350q0 244 113 467q113 224 325 365q211 141 498 141q200 0 350 -66q149 -65 234 -182q87 -120 108 -270h-413q-23 105 -99 162
q-73 55 -200 55q-154 0 -269 -92q-114 -92 -176 -242q-61 -149 -61 -330q0 -108 43 -184q44 -77 119 -117q74 -39 178 -39q103 0 188 43q87 44 148 117q60 72 88 170h-451zM1362 1964l203 -309h-334l-139 149l-187 -149h-350l317 309h490z" />
    <glyph glyph-name="gcircumflex" unicode="&#x11d;" horiz-adv-x="1376" 
d="M1006 1120l368 -8l-239 -1124q-30 -144 -123 -240t-224 -139q-130 -43 -284 -43q-157 0 -273 43q-115 43 -184 127t-78 203h385q9 -59 52 -89q44 -30 108 -30q98 0 166 53t86 141l43 207q-59 -95 -150 -153q-94 -60 -213 -60q-107 0 -196 53q-90 53 -141 150
q-52 98 -52 229q0 173 68 338q66 160 201 264q133 103 313 103q92 0 154 -39q63 -39 104 -102q39 -60 55 -130zM764 322q68 65 102 163q35 100 35 201q0 98 -43 150q-42 51 -125 51q-93 0 -160 -64q-66 -63 -100 -161q-35 -100 -35 -203q0 -98 43 -150q42 -51 123 -51
q93 0 160 64zM1090 1548l198 -327h-321l-133 172l-201 -172h-334l322 327h469z" />
    <glyph glyph-name="Gbreve" unicode="&#x11e;" horiz-adv-x="1753" 
d="M817 604l57 289h838l-192 -905h-326l76 356q-82 -158 -221 -270q-138 -111 -351 -111q-162 0 -301 74q-137 73 -221 219q-82 143 -82 350q0 244 113 467q113 224 325 365q211 141 498 141q200 0 350 -66q149 -65 234 -182q87 -120 108 -270h-413q-23 105 -99 162
q-73 55 -200 55q-154 0 -269 -92q-114 -92 -176 -242q-61 -149 -61 -330q0 -108 43 -184q44 -77 119 -117q74 -39 178 -39q103 0 188 43q87 44 148 117q60 72 88 170h-451zM864 1681l2 -8q-84 29 -135 90q-49 58 -49 140q0 28 6 55h260q-6 -47 31 -74q40 -29 102 -29
q66 0 117 31q50 30 59 76h261q-34 -147 -154 -229q-119 -82 -307 -82q-107 0 -193 30z" />
    <glyph glyph-name="gbreve" unicode="&#x11f;" horiz-adv-x="1376" 
d="M1006 1120l368 -8l-239 -1124q-30 -144 -123 -240t-224 -139q-130 -43 -284 -43q-157 0 -273 43q-115 43 -184 127t-78 203h385q9 -59 52 -89q44 -30 108 -30q98 0 166 53t86 141l43 207q-59 -95 -150 -153q-94 -60 -213 -60q-107 0 -196 53q-90 53 -141 150
q-52 98 -52 229q0 173 68 338q66 160 201 264q133 103 313 103q92 0 154 -39q63 -39 104 -102q39 -60 55 -130zM764 322q68 65 102 163q35 100 35 201q0 98 -43 150q-42 51 -125 51q-93 0 -160 -64q-66 -63 -100 -161q-35 -100 -35 -203q0 -98 43 -150q42 -51 123 -51
q93 0 160 64zM606 1245l-4 -2q-78 34 -125 96q-45 60 -45 146q0 31 6 61h267q-1 -6 -2 -14t-2 -13t-1 -8q0 -43 31 -65q33 -23 86 -23q66 0 111 31q42 29 57 92h264q-21 -97 -82 -172q-64 -79 -159 -121q-98 -43 -222 -43q-99 0 -180 35z" />
    <glyph glyph-name="Gdotaccent" unicode="&#x120;" horiz-adv-x="1753" 
d="M817 604l57 289h838l-192 -905h-326l76 356q-82 -158 -221 -270q-138 -111 -351 -111q-162 0 -301 74q-137 73 -221 219q-82 143 -82 350q0 244 113 467q113 224 325 365q211 141 498 141q200 0 350 -66q149 -65 234 -182q87 -120 108 -270h-413q-23 105 -99 162
q-73 55 -200 55q-154 0 -269 -92q-114 -92 -176 -242q-61 -149 -61 -330q0 -108 43 -184q44 -77 119 -117q74 -39 178 -39q103 0 188 43q87 44 148 117q60 72 88 170h-451zM1255 1655h-405l65 309h406z" />
    <glyph glyph-name="gdotaccent" unicode="&#x121;" horiz-adv-x="1376" 
d="M1006 1120l368 -8l-239 -1124q-30 -144 -123 -240t-224 -139q-130 -43 -284 -43q-157 0 -273 43q-115 43 -184 127t-78 203h385q9 -59 52 -89q44 -30 108 -30q98 0 166 53t86 141l43 207q-59 -95 -150 -153q-94 -60 -213 -60q-107 0 -196 53q-90 53 -141 150
q-52 98 -52 229q0 173 68 338q66 160 201 264q133 103 313 103q92 0 154 -39q63 -39 104 -102q39 -60 55 -130zM764 322q68 65 102 163q35 100 35 201q0 98 -43 150q-42 51 -125 51q-93 0 -160 -64q-66 -63 -100 -161q-35 -100 -35 -203q0 -98 43 -150q42 -51 123 -51
q93 0 160 64zM989 1237h-393l66 311h393z" />
    <glyph glyph-name="uni0122" unicode="&#x122;" horiz-adv-x="1753" 
d="M817 604l57 289h838l-192 -905h-326l76 356q-82 -158 -221 -270q-138 -111 -351 -111q-162 0 -301 74q-137 73 -221 219q-82 143 -82 350q0 244 113 467q113 224 325 365q211 141 498 141q200 0 350 -66q149 -65 234 -182q87 -120 108 -270h-413q-23 105 -99 162
q-73 55 -200 55q-154 0 -269 -92q-114 -92 -176 -242q-61 -149 -61 -330q0 -108 43 -184q44 -77 119 -117q74 -39 178 -39q103 0 188 43q87 44 148 117q60 72 88 170h-451zM481 -434l66 311h405l-73 -344l-195 -201h-250l174 234h-127z" />
    <glyph glyph-name="uni0123" unicode="&#x123;" horiz-adv-x="1376" 
d="M1006 1120l368 -8l-239 -1124q-30 -144 -123 -240t-224 -139q-130 -43 -284 -43q-157 0 -273 43q-115 43 -184 127t-78 203h385q9 -59 52 -89q44 -30 108 -30q98 0 166 53t86 141l43 207q-59 -95 -150 -153q-94 -60 -213 -60q-107 0 -196 53q-90 53 -141 150
q-52 98 -52 229q0 173 68 338q66 160 201 264q133 103 313 103q92 0 154 -39q63 -39 104 -102q39 -60 55 -130zM764 322q68 65 102 163q35 100 35 201q0 98 -43 150q-42 51 -125 51q-93 0 -160 -64q-66 -63 -100 -161q-35 -100 -35 -203q0 -98 43 -150q42 -51 123 -51
q93 0 160 64zM866 1792h236l-172 -233h127l-66 -312h-393l74 344z" />
    <glyph glyph-name="Hcircumflex" unicode="&#x124;" horiz-adv-x="1640" 
d="M1184 969l125 587h399l-330 -1556h-399l131 616h-557l-131 -616h-397l329 1556h398l-125 -587h557zM1348 1976l202 -309h-333l-140 150l-186 -150h-350l317 309h490z" />
    <glyph glyph-name="hcircumflex" unicode="&#x125;" horiz-adv-x="1331" 
d="M1130 1108h-2q70 -40 107 -107t37 -157q0 -68 -17 -144l-149 -700h-385l133 631q14 66 14 121q0 64 -30 98q-30 35 -88 35q-87 0 -148 -70q-63 -73 -90 -209l-129 -608h-387l330 1556h381l-140 -661q64 114 166 184q101 70 221 70q108 0 176 -39zM829 1976l203 -309h-334
l-139 150l-186 -150h-350l317 309h489z" />
    <glyph glyph-name="Hbar" unicode="&#x126;" horiz-adv-x="1640" 
d="M1667 1364h150l-54 -258h-151l-234 -1106h-399l131 616h-557l-131 -616h-397l233 1106h-152l54 258h153l41 192h398l-41 -192h557l41 192h399zM627 969h557l28 137h-557z" />
    <glyph glyph-name="hbar" unicode="&#x127;" horiz-adv-x="1331" 
d="M1130 1108h-2q70 -40 107 -107t37 -157q0 -68 -17 -144l-149 -700h-385l133 631q14 66 14 121q0 64 -30 98q-30 35 -88 35q-87 0 -148 -70q-63 -73 -90 -209l-129 -608h-387l256 1210h-109l45 232h113l25 114h381l-25 -114h188l-43 -232h-194l-66 -315q64 114 166 184
q101 70 221 70q108 0 176 -39z" />
    <glyph glyph-name="Itilde" unicode="&#x128;" horiz-adv-x="684" 
d="M422 0h-397l329 1556h398zM188 1677l2 -2q35 158 115 244t189 86q42 0 86 -12q28 -8 77 -29q67 -33 123 -33q43 0 84 23q38 21 56 59h120q-35 -161 -114 -246q-80 -86 -187 -86q-38 0 -88 13q-38 10 -80 28q-59 33 -122 33q-45 0 -84 -22q-38 -21 -56 -56h-121z" />
    <glyph glyph-name="itilde" unicode="&#x129;" horiz-adv-x="616" 
d="M383 0h-387l237 1120h388zM82 1247l4 -4q35 162 111 244q78 84 180 84q73 0 153 -45q62 -33 111 -33q44 0 80 25t53 61h115q-35 -158 -111 -240q-78 -84 -178 -84q-74 0 -154 45q-56 33 -116 33q-46 0 -80 -24q-35 -24 -53 -62h-115z" />
    <glyph glyph-name="Imacron" unicode="&#x12a;" horiz-adv-x="684" 
d="M422 0h-397l329 1556h398zM1030 1690h-897l57 266h897z" />
    <glyph glyph-name="imacron" unicode="&#x12b;" horiz-adv-x="616" 
d="M383 0h-387l237 1120h388zM864 1260h-821l55 260h822z" />
    <glyph glyph-name="Ibreve" unicode="&#x12c;" horiz-adv-x="684" 
d="M422 0h-397l329 1556h398zM391 1694l2 -8q-84 29 -135 90q-49 58 -49 139q0 28 6 55h260q-6 -47 31 -74q39 -28 102 -28q68 0 117 30q50 30 59 76h260q-35 -148 -153 -229q-119 -82 -307 -82q-105 0 -193 31z" />
    <glyph glyph-name="ibreve" unicode="&#x12d;" horiz-adv-x="616" 
d="M383 0h-387l237 1120h388zM264 1253l-4 -2q-77 33 -125 97q-45 60 -45 145q0 31 6 61h266q-4 -32 -4 -34q0 -44 31 -66t86 -22q67 0 111 30q42 29 57 92h264q-21 -97 -82 -172q-62 -78 -159 -120q-98 -43 -222 -43q-102 0 -180 34z" />
    <glyph glyph-name="Iogonek" unicode="&#x12e;" horiz-adv-x="684" 
d="M422 0h-397l329 1556h398zM197 -420q-166 0 -246 51q-82 52 -82 142q0 71 41 127q40 54 115 102h399q-109 -29 -164 -61q-53 -30 -53 -68q0 -24 22 -37q21 -12 68 -12h88l-51 -244h-137z" />
    <glyph glyph-name="iogonek" unicode="&#x12f;" horiz-adv-x="616" 
d="M256 1245l68 311h393l-66 -311h-395zM233 1120l385 4l-237 -1120q-225 -59 -225 -131q0 -27 26 -39q27 -12 80 -12h80l-51 -238h-139q-158 0 -240 49t-82 140q0 125 166 227z" />
    <glyph glyph-name="Idotaccent" unicode="&#x130;" horiz-adv-x="684" 
d="M422 0h-397l329 1556h398zM780 1667h-405l65 309h406z" />
    <glyph glyph-name="dotlessi" unicode="&#x131;" horiz-adv-x="616" 
d="M383 0h-387l237 1120h388z" />
    <glyph glyph-name="Jcircumflex" unicode="&#x134;" horiz-adv-x="878" 
d="M-80 0l64 322h159q83 0 123 30q41 30 56 105l233 1099h399l-249 -1177q-27 -127 -89 -211q-60 -81 -170 -125q-107 -43 -266 -43h-260zM1087 1976l203 -309h-334l-139 150l-186 -150h-350l317 309h489z" />
    <glyph glyph-name="jcircumflex" unicode="&#x135;" horiz-adv-x="616" 
d="M-262 -401l57 274h51q72 0 103 25t43 84l241 1136h388l-254 -1200q-35 -162 -150 -240q-116 -79 -319 -79h-160zM748 1556l198 -327h-321l-133 172l-201 -172h-334l322 327h469z" />
    <glyph glyph-name="uni0136" unicode="&#x136;" horiz-adv-x="1521" 
d="M1231 1556h495l-725 -763l443 -793h-449l-411 768l-162 -768h-397l329 1556h398l-144 -675zM424 -422l65 311h406l-74 -344l-194 -200h-250l174 233h-127z" />
    <glyph glyph-name="uni0137" unicode="&#x137;" horiz-adv-x="1275" 
d="M928 1120h454l-497 -526l284 -594h-421l-250 545l-115 -545h-387l330 1556h387l-185 -870zM272 -422l66 311h393l-74 -344l-194 -200h-238l174 233h-127z" />
    <glyph glyph-name="kgreenlandic" unicode="&#x138;" horiz-adv-x="1284" 
d="M944 1120h455l-527 -540l316 -580h-426l-270 528l-111 -528h-385l235 1120h385l-96 -452z" />
    <glyph glyph-name="Lacute" unicode="&#x139;" horiz-adv-x="1216" 
d="M752 1556l-260 -1234h645l-70 -322h-1042l329 1556h398zM782 1667h-387l307 309h545z" />
    <glyph glyph-name="lacute" unicode="&#x13a;" horiz-adv-x="616" 
d="M383 0h-387l330 1556h387zM750 1667h-388l308 309h544z" />
    <glyph glyph-name="uni013B" unicode="&#x13b;" horiz-adv-x="1216" 
d="M752 1556l-260 -1234h645l-70 -322h-1042l329 1556h398zM258 -422l66 311h405l-74 -344l-194 -200h-250l174 233h-127z" />
    <glyph glyph-name="uni013C" unicode="&#x13c;" horiz-adv-x="616" 
d="M383 0h-387l330 1556h387zM-98 -422l65 311h393l-73 -344l-195 -200h-237l174 233h-127z" />
    <glyph glyph-name="Lcaron" unicode="&#x13d;" horiz-adv-x="1216" 
d="M752 1556l-260 -1234h645l-70 -322h-1042l329 1556h398zM1030 1042h-268l170 514h344z" />
    <glyph glyph-name="lcaron" unicode="&#x13e;" horiz-adv-x="616" 
d="M383 0h-387l330 1556h387zM993 1174h-264l109 382h336z" />
    <glyph glyph-name="Ldot" unicode="&#x13f;" horiz-adv-x="1236" 
d="M752 1556l-260 -1234h645l-70 -322h-1042l329 1556h398zM1192 735h-404l76 352h404z" />
    <glyph glyph-name="ldot" unicode="&#x140;" horiz-adv-x="921" 
d="M383 0h-387l330 1556h387zM944 631h-321l73 354h324z" />
    <glyph glyph-name="Lslash" unicode="&#x141;" horiz-adv-x="1271" 
d="M629 707l-82 -385h645l-68 -322h-1042l106 504l-184 -86l68 315l184 84l156 739h397l-113 -534l334 154l-67 -316z" />
    <glyph glyph-name="lslash" unicode="&#x142;" horiz-adv-x="770" 
d="M684 1073l154 84l-72 -336l-154 -84l-155 -737h-387l104 498l-141 -78l71 336l142 78l153 722h387z" />
    <glyph glyph-name="Nacute" unicode="&#x143;" horiz-adv-x="1822" 
d="M1184 111l307 1445h399l-329 -1556h-734l-98 1446l-307 -1446h-397l329 1556h731zM1311 1667h-387l307 309h545z" />
    <glyph glyph-name="nacute" unicode="&#x144;" horiz-adv-x="1331" 
d="M1130 1108l-2 2q71 -41 107 -106q37 -67 37 -158q0 -68 -17 -144l-149 -700h-385l133 631q14 66 14 121q0 64 -30 98q-30 35 -88 35q-87 0 -148 -70q-63 -73 -90 -209l-129 -608h-387l237 1120h381l-47 -223q65 115 166 182q103 68 221 68q108 0 176 -39zM965 1231h-363
l291 328h524z" />
    <glyph glyph-name="uni0145" unicode="&#x145;" horiz-adv-x="1822" 
d="M1184 111l307 1445h399l-329 -1556h-734l-98 1446l-307 -1446h-397l329 1556h731zM520 -422l66 311h405l-73 -344l-195 -200h-250l174 233h-127z" />
    <glyph glyph-name="uni0146" unicode="&#x146;" horiz-adv-x="1331" 
d="M1130 1108l-2 2q71 -41 107 -106q37 -67 37 -158q0 -68 -17 -144l-149 -700h-385l133 631q14 66 14 121q0 64 -30 98q-30 35 -88 35q-87 0 -148 -70q-63 -73 -90 -209l-129 -608h-387l237 1120h381l-47 -223q65 115 166 182q103 68 221 68q108 0 176 -39zM283 -420
l65 311h393l-73 -344l-195 -200h-237l174 233h-127z" />
    <glyph glyph-name="Ncaron" unicode="&#x147;" horiz-adv-x="1822" 
d="M1184 111l307 1445h399l-329 -1556h-734l-98 1446l-307 -1446h-397l329 1556h731zM1167 1825l187 151h352l-320 -309h-489l-201 309h332z" />
    <glyph glyph-name="ncaron" unicode="&#x148;" horiz-adv-x="1331" 
d="M1130 1108l-2 2q71 -41 107 -106q37 -67 37 -158q0 -68 -17 -144l-149 -700h-385l133 631q14 66 14 121q0 64 -30 98q-30 35 -88 35q-87 0 -148 -70q-63 -73 -90 -209l-129 -608h-387l237 1120h381l-47 -223q65 115 166 182q103 68 221 68q108 0 176 -39zM827 1386
l199 173h336l-322 -328h-471l-198 328h323z" />
    <glyph glyph-name="Eng" unicode="&#x14a;" horiz-adv-x="1800" 
d="M1890 1556l-327 -1558h-21l-10 -45q-73 -356 -510 -356h-240l56 264h155q83 0 123 30q40 29 55 105v4h-344l-98 1446l-307 -1446h-397l329 1556h731l99 -1445l307 1445h399z" />
    <glyph glyph-name="eng" unicode="&#x14b;" horiz-adv-x="1331" 
d="M1257 700l-143 -649l-27 -129q-35 -162 -149 -239q-118 -80 -320 -80h-159l59 274h49q69 0 105 25q32 23 45 84l16 75l121 572q14 66 14 121q0 64 -30 98q-30 35 -88 35q-87 0 -148 -70q-63 -73 -90 -209l-129 -608h-387l237 1120h381l-47 -223q65 115 166 182
q103 68 221 68q108 0 176 -39q70 -40 107 -107t37 -157q0 -68 -17 -144z" />
    <glyph glyph-name="Omacron" unicode="&#x14c;" horiz-adv-x="1738" 
d="M434 45l-4 -2q-159 75 -246 217q-88 143 -88 354q0 236 115 463q113 223 326 365q211 141 495 141q204 0 361 -74t245 -217q91 -148 91 -352q0 -240 -113 -463q-112 -221 -326 -364q-213 -142 -495 -142q-204 0 -361 74zM1083 365h-4q114 92 176 245q62 154 62 334
q0 111 -39 182q-41 75 -111 115q-68 39 -166 39q-151 0 -266 -92q-111 -89 -174 -246q-61 -152 -61 -334q0 -106 39 -180q41 -77 110 -117q68 -39 166 -39q152 0 268 93zM1538 1686h-897l57 266h897z" />
    <glyph glyph-name="omacron" unicode="&#x14d;" horiz-adv-x="1341" 
d="M299 29v-4q-118 56 -182 163q-66 111 -66 254q0 182 80 342q79 158 244 258q163 99 389 99q155 0 276 -56q123 -57 185 -161q65 -109 65 -254q0 -182 -82 -340q-83 -160 -245 -258q-163 -99 -390 -99q-156 0 -274 56zM764 289l2 -2q67 67 102 176q35 110 35 217
q0 103 -45 154q-47 53 -125 53q-92 0 -160 -68q-64 -64 -100 -176q-35 -110 -35 -215q0 -102 43 -154q44 -53 123 -53q92 0 160 68zM1208 1251h-821l55 260h822z" />
    <glyph glyph-name="Obreve" unicode="&#x14e;" horiz-adv-x="1738" 
d="M434 45l-4 -2q-159 75 -246 217q-88 143 -88 354q0 236 115 463q113 223 326 365q211 141 495 141q204 0 361 -74t245 -217q91 -148 91 -352q0 -240 -113 -463q-112 -221 -326 -364q-213 -142 -495 -142q-204 0 -361 74zM1083 365h-4q114 92 176 245q62 154 62 334
q0 111 -39 182q-41 75 -111 115q-68 39 -166 39q-151 0 -266 -92q-111 -89 -174 -246q-61 -152 -61 -334q0 -106 39 -180q41 -77 110 -117q68 -39 166 -39q152 0 268 93zM899 1690l2 -9q-82 29 -135 91q-49 58 -49 139q0 28 6 55h260q-6 -47 31 -74q39 -28 102 -28
q68 0 117 30q50 30 59 76h260q-35 -148 -153 -229q-119 -82 -307 -82q-105 0 -193 31z" />
    <glyph glyph-name="obreve" unicode="&#x14f;" horiz-adv-x="1341" 
d="M299 29v-4q-118 56 -182 163q-66 111 -66 254q0 182 80 342q79 158 244 258q163 99 389 99q155 0 276 -56q123 -57 185 -161q65 -109 65 -254q0 -182 -82 -340q-83 -160 -245 -258q-163 -99 -390 -99q-156 0 -274 56zM764 289l2 -2q67 67 102 176q35 110 35 217
q0 103 -45 154q-47 53 -125 53q-92 0 -160 -68q-64 -64 -100 -176q-35 -110 -35 -215q0 -102 43 -154q44 -53 123 -53q92 0 160 68zM608 1247l-4 -2q-78 34 -125 96q-45 60 -45 146q0 31 6 61h267q-1 -6 -2 -14t-2 -13t-1 -8q0 -43 31 -65q33 -23 86 -23q66 0 111 31
q42 29 57 92h264q-21 -97 -82 -172q-64 -79 -159 -121q-98 -43 -222 -43q-99 0 -180 35z" />
    <glyph glyph-name="Ohungarumlaut" unicode="&#x150;" horiz-adv-x="1738" 
d="M434 45l-4 -2q-159 75 -246 217q-88 143 -88 354q0 236 115 463q113 223 326 365q211 141 495 141q204 0 361 -74t245 -217q91 -148 91 -352q0 -240 -113 -463q-112 -221 -326 -364q-213 -142 -495 -142q-204 0 -361 74zM1083 365h-4q114 92 176 245q62 154 62 334
q0 111 -39 182q-41 75 -111 115q-68 39 -166 39q-151 0 -266 -92q-111 -89 -174 -246q-61 -152 -61 -334q0 -106 39 -180q41 -77 110 -117q68 -39 166 -39q152 0 268 93zM1006 1663h-355l332 309h473zM1540 1663h-354l334 309h471z" />
    <glyph glyph-name="ohungarumlaut" unicode="&#x151;" horiz-adv-x="1341" 
d="M299 29v-4q-118 56 -182 163q-66 111 -66 254q0 182 80 342q79 158 244 258q163 99 389 99q155 0 276 -56q123 -57 185 -161q65 -109 65 -254q0 -182 -82 -340q-83 -160 -245 -258q-163 -99 -390 -99q-156 0 -274 56zM764 289l2 -2q67 67 102 176q35 110 35 217
q0 103 -45 154q-47 53 -125 53q-92 0 -160 -68q-64 -64 -100 -176q-35 -110 -35 -215q0 -102 43 -154q44 -53 123 -53q92 0 160 68zM743 1221h-327l274 327h438zM1253 1221h-327l274 327h440z" />
    <glyph glyph-name="OE" unicode="&#x152;" horiz-adv-x="2338" 
d="M2372 1235l-709 2l-59 -279h694l-70 -321h-694l-66 -313h727l-67 -322h-1329q-208 0 -363 82q-159 84 -243 229q-87 150 -87 336q0 265 140 473q138 206 372 320t510 114h1313zM1069 324l195 913h-201q-156 0 -283 -68q-126 -67 -196 -190q-72 -126 -72 -281
q0 -113 43 -198q43 -84 123 -131q77 -45 188 -45h203z" />
    <glyph glyph-name="oe" unicode="&#x153;" horiz-adv-x="2138" 
d="M1260 446l-3 -12q0 -101 46 -153q48 -54 129 -54q131 0 196 115h381q-89 -182 -246 -274q-159 -93 -362 -93q-123 0 -221 48q-93 46 -156 127q-88 -85 -199 -130q-110 -45 -254 -45q-156 0 -274 56q-117 56 -182 164q-66 111 -66 254q0 182 80 342q79 158 244 258
q162 98 389 98q127 0 223 -45q97 -45 162 -129q82 82 194 129t248 47q155 0 266 -51q114 -52 175 -154q61 -101 61 -252q0 -130 -39 -246h-792zM764 293l2 -2q67 67 102 176q35 110 35 217q0 103 -45 154q-47 53 -125 53q-92 0 -160 -68q-64 -64 -100 -176
q-35 -110 -35 -215q0 -101 43 -153q45 -54 123 -54q92 0 160 68zM1411 836h4q-63 -54 -104 -150h403q8 21 8 53q0 71 -43 111q-44 41 -118 41q-86 0 -150 -55z" />
    <glyph glyph-name="Racute" unicode="&#x154;" horiz-adv-x="1558" 
d="M1446 801l-2 -4q-100 -133 -279 -197l256 -604h-438l-207 547h-239l-117 -547h-397l329 1556h635q158 0 283 -55q128 -57 200 -156q74 -103 74 -239q0 -170 -98 -301zM680 1229l-76 -371h266q88 0 148 31q59 30 86 80q29 53 29 104q0 69 -50 113q-49 43 -133 43h-270z
M1075 1657h-387l307 309h545z" />
    <glyph glyph-name="racute" unicode="&#x155;" horiz-adv-x="907" 
d="M543 784h2q64 155 178 260t276 105l-79 -371h-93q-148 0 -225 -57q-79 -58 -106 -191l-113 -530h-387l237 1120h381zM829 1229h-362l291 327h524z" />
    <glyph glyph-name="uni0156" unicode="&#x156;" horiz-adv-x="1558" 
d="M1446 801l-2 -4q-100 -133 -279 -197l256 -604h-438l-207 547h-239l-117 -547h-397l329 1556h635q158 0 283 -55q128 -57 200 -156q74 -103 74 -239q0 -170 -98 -301zM680 1229l-76 -371h266q88 0 148 31q59 30 86 80q29 53 29 104q0 69 -50 113q-49 43 -133 43h-270z
M414 -432l65 311h406l-74 -344l-195 -201h-249l174 234h-127z" />
    <glyph glyph-name="uni0157" unicode="&#x157;" horiz-adv-x="907" 
d="M543 784h2q64 155 178 260t276 105l-79 -371h-93q-148 0 -225 -57q-79 -58 -106 -191l-113 -530h-387l237 1120h381zM-94 -422l65 311h394l-74 -344l-195 -200h-237l174 233h-127z" />
    <glyph glyph-name="Rcaron" unicode="&#x158;" horiz-adv-x="1558" 
d="M1446 801l-2 -4q-100 -133 -279 -197l256 -604h-438l-207 547h-239l-117 -547h-397l329 1556h635q158 0 283 -55q128 -57 200 -156q74 -103 74 -239q0 -170 -98 -301zM680 1229l-76 -371h266q88 0 148 31q59 30 86 80q29 53 29 104q0 69 -50 113q-49 43 -133 43h-270z
M932 1815l186 151h352l-319 -309h-489l-201 309h332z" />
    <glyph glyph-name="rcaron" unicode="&#x159;" horiz-adv-x="907" 
d="M543 784h2q64 155 178 260t276 105l-79 -371h-93q-148 0 -225 -57q-79 -58 -106 -191l-113 -530h-387l237 1120h381zM694 1384l199 172h336l-322 -327h-471l-198 327h323z" />
    <glyph glyph-name="Sacute" unicode="&#x15a;" horiz-adv-x="1480" 
d="M344 31l6 -2q-148 59 -229 174q-83 118 -86 280h414q3 -101 79 -153q79 -54 203 -54q129 0 209 41t80 121q0 45 -25 76q-27 34 -69 53q-50 23 -127 43l-228 64q-173 49 -272 151q-98 101 -98 262q0 139 88 252q88 114 246 179q157 65 352 65q287 0 442 -119
q158 -122 182 -331h-413q-15 70 -80 108q-64 37 -174 37q-76 0 -135 -18q-58 -18 -88 -52q-31 -36 -31 -73q0 -41 24 -68q25 -28 74 -49q50 -21 135 -45l230 -64q175 -50 262 -153q90 -107 90 -248q0 -166 -86 -287q-85 -120 -248 -184q-167 -66 -387 -66q-189 0 -340 60z
M1059 1663h-387l307 309h545z" />
    <glyph glyph-name="sacute" unicode="&#x15b;" horiz-adv-x="1206" 
d="M272 16l-4 -8q-118 43 -190 127q-71 83 -80 201h385q9 -66 57 -92q50 -27 131 -27q75 0 129 23q50 21 50 65q0 34 -35 55q-43 26 -123 48l-180 53q-140 41 -215 110q-76 70 -76 191q0 105 67 190t191 135t287 50q137 0 247 -39q113 -40 185 -115q71 -74 86 -178h-385
q-9 39 -54 61q-48 23 -114 23q-64 0 -113 -19q-45 -17 -45 -57q0 -21 16 -37q13 -13 50 -26q53 -18 98 -31l180 -53q146 -44 215 -125q72 -84 72 -197q0 -112 -64 -194q-66 -84 -190 -130q-127 -47 -303 -47q-156 0 -275 43zM848 1219h-363l291 327h524z" />
    <glyph glyph-name="Scircumflex" unicode="&#x15c;" horiz-adv-x="1480" 
d="M344 31l6 -2q-148 59 -229 174q-83 118 -86 280h414q3 -101 79 -153q79 -54 203 -54q129 0 209 41t80 121q0 45 -25 76q-27 34 -69 53q-50 23 -127 43l-228 64q-173 49 -272 151q-98 101 -98 262q0 139 88 252q88 114 246 179q157 65 352 65q287 0 442 -119
q158 -122 182 -331h-413q-15 70 -80 108q-64 37 -174 37q-76 0 -135 -18q-58 -18 -88 -52q-31 -36 -31 -73q0 -41 24 -68q25 -28 74 -49q50 -21 135 -45l230 -64q175 -50 262 -153q90 -107 90 -248q0 -166 -86 -287q-85 -120 -248 -184q-167 -66 -387 -66q-189 0 -340 60z
M1202 1972l203 -309h-334l-139 149l-187 -149h-350l318 309h489z" />
    <glyph glyph-name="scircumflex" unicode="&#x15d;" horiz-adv-x="1206" 
d="M272 16l-4 -8q-118 43 -190 127q-71 83 -80 201h385q9 -66 57 -92q50 -27 131 -27q75 0 129 23q50 21 50 65q0 34 -35 55q-43 26 -123 48l-180 53q-140 41 -215 110q-76 70 -76 191q0 105 67 190t191 135t287 50q137 0 247 -39q113 -40 185 -115q71 -74 86 -178h-385
q-9 39 -54 61q-48 23 -114 23q-64 0 -113 -19q-45 -17 -45 -57q0 -21 16 -37q13 -13 50 -26q53 -18 98 -31l180 -53q146 -44 215 -125q72 -84 72 -197q0 -112 -64 -194q-66 -84 -190 -130q-127 -47 -303 -47q-156 0 -275 43zM983 1546l199 -327h-322l-133 172l-201 -172
h-333l321 327h469z" />
    <glyph glyph-name="Scedilla" unicode="&#x15e;" horiz-adv-x="1480" 
d="M1053 913l2 -6q175 -50 262 -153q90 -107 90 -248q0 -156 -78 -275q-76 -117 -223 -184q-146 -67 -352 -76l-9 -34q63 -9 105 -48q41 -38 41 -94q0 -62 -35 -112q-36 -52 -96 -78q-61 -27 -139 -27h-181l35 166h86q76 0 76 45q0 23 -14 31q-13 8 -43 8h-56l35 154
q-162 18 -276 81q-116 64 -181 173q-64 107 -67 251h414q3 -101 79 -153q77 -53 203 -53q129 0 209 41t80 120q0 45 -25 76q-27 34 -69 53q-50 23 -127 43l-228 64q-173 49 -272 151q-98 101 -98 263q0 138 88 251q88 114 246 179q157 65 352 65q287 0 442 -119
q158 -122 182 -331h-413q-15 70 -80 108q-64 37 -174 37q-76 0 -135 -18q-58 -18 -88 -52q-31 -36 -31 -73q0 -41 24 -68q25 -28 74 -49q50 -21 135 -45z" />
    <glyph glyph-name="scedilla" unicode="&#x15f;" horiz-adv-x="1206" 
d="M817 668v-6q146 -44 215 -125q72 -84 72 -197q0 -107 -62 -190t-180 -132q-116 -48 -289 -51l-6 -35q64 -9 105 -47q39 -36 39 -94q0 -68 -33 -115q-34 -49 -94 -75q-62 -27 -138 -27h-172l35 156h86q37 0 58 12q20 11 20 41q0 23 -14 31q-13 8 -43 8h-51l32 158
q-172 26 -282 120q-108 91 -117 238h385q9 -66 57 -92q50 -27 131 -27q75 0 129 23q50 21 50 65q0 34 -35 55q-43 26 -123 48l-180 53q-140 41 -215 110q-76 70 -76 191q0 105 67 190q68 87 191 136q122 49 287 49q137 0 247 -39q113 -40 185 -115q71 -74 86 -178h-385
q-9 39 -54 61q-48 23 -114 23q-64 0 -113 -19q-45 -17 -45 -57q0 -21 16 -37q13 -13 50 -26q53 -18 98 -31z" />
    <glyph glyph-name="Scaron" unicode="&#x160;" horiz-adv-x="1480" 
d="M344 31l6 -2q-148 59 -229 174q-83 118 -86 280h414q3 -101 79 -153q79 -54 203 -54q129 0 209 41t80 121q0 45 -25 76q-27 34 -69 53q-50 23 -127 43l-228 64q-173 49 -272 151q-98 101 -98 262q0 139 88 252q88 114 246 179q157 65 352 65q287 0 442 -119
q158 -122 182 -331h-413q-15 70 -80 108q-64 37 -174 37q-76 0 -135 -18q-58 -18 -88 -52q-31 -36 -31 -73q0 -41 24 -68q25 -28 74 -49q50 -21 135 -45l230 -64q175 -50 262 -153q90 -107 90 -248q0 -166 -86 -287q-85 -120 -248 -184q-167 -66 -387 -66q-189 0 -340 60z
M918 1821l186 151h352l-319 -309h-490l-201 309h332z" />
    <glyph glyph-name="scaron" unicode="&#x161;" horiz-adv-x="1206" 
d="M272 16l-4 -8q-118 43 -190 127q-71 83 -80 201h385q9 -66 57 -92q50 -27 131 -27q75 0 129 23q50 21 50 65q0 34 -35 55q-43 26 -123 48l-180 53q-140 41 -215 110q-76 70 -76 191q0 105 67 190t191 135t287 50q137 0 247 -39q113 -40 185 -115q71 -74 86 -178h-385
q-9 39 -54 61q-48 23 -114 23q-64 0 -113 -19q-45 -17 -45 -57q0 -21 16 -37q13 -13 50 -26q53 -18 98 -31l180 -53q146 -44 215 -125q72 -84 72 -197q0 -112 -64 -194q-66 -84 -190 -130q-127 -47 -303 -47q-156 0 -275 43zM713 1374l198 172h336l-321 -327h-471l-199 327
h324z" />
    <glyph glyph-name="uni0162" unicode="&#x162;" horiz-adv-x="1384" 
d="M244 1556h1317l-68 -321h-459l-262 -1235h-399l262 1235h-461zM283 -422l65 311h406l-74 -344l-195 -200h-249l174 233h-127z" />
    <glyph glyph-name="uni0163" unicode="&#x163;" horiz-adv-x="882" 
d="M659 846l-100 -457q-4 -36 -4 -43q0 -36 29 -55q28 -19 86 -19h92l-60 -274h-196q-98 0 -180 31q-78 29 -123 90q-43 58 -43 139q0 56 8 92l106 496h-190l57 274h191l57 264h385l-55 -264h225l-59 -274h-226zM115 -424l65 311h393l-73 -344l-195 -200h-237l174 233h-127z
" />
    <glyph glyph-name="Tcaron" unicode="&#x164;" horiz-adv-x="1384" 
d="M244 1556h1317l-68 -321h-459l-262 -1235h-399l262 1235h-461zM932 1825l186 151h352l-319 -309h-489l-201 309h332z" />
    <glyph glyph-name="tcaron" unicode="&#x165;" horiz-adv-x="882" 
d="M834 1196l108 360h334l-178 -360h-264zM774 1384l-59 -266h225l-59 -274h-226l-96 -455q-4 -36 -4 -43q0 -36 29 -55q28 -19 86 -19h92l-60 -274h-196q-98 0 -180 31q-78 29 -123 90q-43 58 -43 139q0 56 8 92l106 496h-190l57 274h191l57 264h385z" />
    <glyph glyph-name="Tbar" unicode="&#x166;" horiz-adv-x="1441" 
d="M1587 1556l-65 -321h-461l-70 -324h355l-62 -288h-354l-131 -623h-398l131 623h-356l64 288h354l70 324h-463l69 321h1317z" />
    <glyph glyph-name="tbar" unicode="&#x167;" horiz-adv-x="882" 
d="M885 846l-230 -2l-26 -123h147l-43 -232h-153l-21 -100q-4 -36 -4 -43q0 -36 29 -55q28 -19 86 -19h92l-60 -274h-196q-98 0 -180 31q-78 29 -123 90q-43 58 -43 139q0 56 8 92l31 142h-146l45 231h150l26 123h-190l57 274h191l57 264h385l-55 -264h225z" />
    <glyph glyph-name="Utilde" unicode="&#x168;" horiz-adv-x="1605" 
d="M393 33h-4q-135 59 -203 164q-67 104 -67 245q0 86 22 199l195 913h397l-209 -987q-10 -48 -10 -92q0 -96 59 -149q58 -52 170 -52q140 0 226 86t121 240l200 954h400l-201 -942q-47 -212 -137 -350q-91 -141 -246 -215q-154 -74 -383 -74q-192 0 -330 60zM633 1677l2 -2
q35 158 115 244t188 86q42 0 86 -12q31 -9 78 -29q67 -33 123 -33q43 0 84 23q36 20 55 59h121q-35 -160 -115 -246t-186 -86q-38 0 -88 13q-38 10 -80 28q-59 33 -123 33q-45 0 -84 -22q-36 -20 -55 -56h-121z" />
    <glyph glyph-name="utilde" unicode="&#x169;" horiz-adv-x="1323" 
d="M942 1120h381l-238 -1120h-380l49 225q-60 -108 -164 -180q-101 -70 -225 -70q-102 0 -172 37q-71 38 -105 105q-35 68 -35 157q0 66 17 146l149 700h385l-133 -631q-16 -75 -16 -122q0 -65 30 -99q28 -32 88 -32q88 0 148 69q62 71 92 209zM432 1247l4 -4
q35 162 111 244q78 84 180 84q74 0 154 -45q62 -33 110 -33q44 0 80 25t53 61h115q-35 -158 -111 -240q-78 -84 -178 -84q-73 0 -153 45q-56 33 -117 33q-46 0 -80 -24q-35 -24 -53 -62h-115z" />
    <glyph glyph-name="Umacron" unicode="&#x16a;" horiz-adv-x="1605" 
d="M393 33h-4q-135 59 -203 164q-67 104 -67 245q0 86 22 199l195 913h397l-209 -987q-10 -48 -10 -92q0 -96 59 -149q58 -52 170 -52q140 0 226 86t121 240l200 954h400l-201 -942q-47 -212 -137 -350q-91 -141 -246 -215q-154 -74 -383 -74q-192 0 -330 60zM1475 1690
h-897l57 266h897z" />
    <glyph glyph-name="umacron" unicode="&#x16b;" horiz-adv-x="1323" 
d="M942 1120h381l-238 -1120h-380l49 225q-60 -108 -164 -180q-101 -70 -225 -70q-102 0 -172 37q-71 38 -105 105q-35 68 -35 157q0 66 17 146l149 700h385l-133 -631q-16 -75 -16 -122q0 -65 30 -99q28 -32 88 -32q88 0 148 69q62 71 92 209zM1214 1260h-821l56 260h821z
" />
    <glyph glyph-name="Ubreve" unicode="&#x16c;" horiz-adv-x="1605" 
d="M393 33h-4q-135 59 -203 164q-67 104 -67 245q0 86 22 199l195 913h397l-209 -987q-10 -48 -10 -92q0 -96 59 -149q58 -52 170 -52q140 0 226 86t121 240l200 954h400l-201 -942q-47 -212 -137 -350q-91 -141 -246 -215q-154 -74 -383 -74q-192 0 -330 60zM836 1694l2 -8
q-85 30 -136 90q-49 58 -49 139q0 28 6 55h261q-6 -48 30 -74q39 -28 103 -28q67 0 116 30q51 31 60 76h260q-34 -147 -154 -229q-119 -82 -307 -82q-104 0 -192 31z" />
    <glyph glyph-name="ubreve" unicode="&#x16d;" horiz-adv-x="1323" 
d="M942 1120h381l-238 -1120h-380l49 225q-60 -108 -164 -180q-101 -70 -225 -70q-102 0 -172 37q-71 38 -105 105q-35 68 -35 157q0 66 17 146l149 700h385l-133 -631q-16 -75 -16 -122q0 -65 30 -99q28 -32 88 -32q88 0 148 69q62 71 92 209zM614 1253l-4 -2
q-77 33 -125 97q-45 60 -45 145q0 31 6 61h267q-4 -32 -4 -34q0 -45 30 -66q31 -22 86 -22q67 0 111 30q42 29 57 92h264q-22 -98 -81 -172q-62 -77 -160 -120t-221 -43q-103 0 -181 34z" />
    <glyph glyph-name="Uring" unicode="&#x16e;" horiz-adv-x="1605" 
d="M393 33h-4q-135 59 -203 164q-67 104 -67 245q0 86 22 199l195 913h397l-209 -987q-10 -48 -10 -92q0 -96 59 -149q58 -52 170 -52q140 0 226 86t121 240l200 954h400l-201 -942q-47 -212 -137 -350q-91 -141 -246 -215q-154 -74 -383 -74q-192 0 -330 60zM913 1690
l-2 -4q-60 34 -98 96q-37 61 -37 143q0 90 43 166t121 123q74 45 168 45q80 0 139 -33q63 -36 99 -94q36 -59 36 -143q0 -90 -43 -166q-45 -78 -118 -123q-74 -45 -168 -45q-78 0 -140 35zM1143 1890h-2q30 30 30 78q0 34 -24 55q-26 23 -57 23q-45 0 -76 -31t-31 -78
q0 -33 25 -55t59 -22q46 0 76 30z" />
    <glyph glyph-name="uring" unicode="&#x16f;" horiz-adv-x="1323" 
d="M942 1120h381l-238 -1120h-380l49 225q-60 -108 -164 -180q-101 -70 -225 -70q-102 0 -172 37q-71 38 -105 105q-35 68 -35 157q0 66 17 146l149 700h385l-133 -631q-16 -75 -16 -122q0 -65 30 -99q28 -32 88 -32q88 0 148 69q62 71 92 209zM702 1249v-6q-56 27 -86 80
t-30 127q0 80 39 145q41 68 106 107q68 41 148 41q62 0 122 -29q56 -27 86 -80q31 -54 31 -123q0 -80 -39 -145q-40 -66 -106 -106q-65 -39 -148 -39q-65 0 -123 28zM903 1425v-4q25 25 25 66q0 30 -19 49q-18 18 -47 18q-37 0 -61 -24q-25 -25 -25 -64q0 -28 19 -47
q18 -18 47 -18q37 0 61 24z" />
    <glyph glyph-name="Uhungarumlaut" unicode="&#x170;" horiz-adv-x="1605" 
d="M393 33h-4q-135 59 -203 164q-67 104 -67 245q0 86 22 199l195 913h397l-209 -987q-10 -48 -10 -92q0 -96 59 -149q58 -52 170 -52q140 0 226 86t121 240l200 954h400l-201 -942q-47 -212 -137 -350q-91 -141 -246 -215q-154 -74 -383 -74q-192 0 -330 60zM944 1667h-354
l332 309h473zM1479 1667h-355l334 309h471z" />
    <glyph glyph-name="uhungarumlaut" unicode="&#x171;" horiz-adv-x="1323" 
d="M942 1120h381l-238 -1120h-380l49 225q-60 -108 -164 -180q-101 -70 -225 -70q-102 0 -172 37q-71 38 -105 105q-35 68 -35 157q0 66 17 146l149 700h385l-133 -631q-16 -75 -16 -122q0 -65 30 -99q28 -32 88 -32q88 0 148 69q62 71 92 209zM750 1229h-328l274 327h439z
M1260 1229h-328l274 327h441z" />
    <glyph glyph-name="Uogonek" unicode="&#x172;" horiz-adv-x="1605" 
d="M1290 1556l396 3l-201 -943q-40 -187 -117 -319q-77 -133 -199 -209q-91 -68 -137 -117q-43 -46 -43 -86q0 -27 23 -43q22 -16 67 -16h78l-53 -244h-127q-158 0 -240 43t-82 137q0 120 144 215q-18 -2 -80 -2q-192 0 -330 60q-135 59 -203 164q-67 104 -67 245
q0 86 22 199l195 913h397l-209 -987q-10 -48 -10 -92q0 -96 59 -149q58 -52 170 -52q140 0 226 86t121 240z" />
    <glyph glyph-name="uogonek" unicode="&#x173;" horiz-adv-x="1323" 
d="M1090 0l-7 2q-225 -59 -225 -131q0 -26 29 -39q27 -12 80 -12h80l-52 -238h-139q-158 0 -240 49q-81 49 -81 140q0 127 172 229h-2l49 225q-60 -108 -164 -180q-101 -70 -225 -70q-102 0 -172 37q-71 38 -105 105q-35 68 -35 157q0 66 17 146l149 700h385l-133 -631
q-16 -75 -16 -122q0 -65 30 -99q28 -32 88 -32q88 0 148 69q62 71 92 209l129 606h385z" />
    <glyph glyph-name="Wcircumflex" unicode="&#x174;" horiz-adv-x="2381" 
d="M1620 104l543 1452h395l-600 -1556h-701l123 1452l-493 -1452h-697l58 1556h379l-70 -1445l500 1445h676zM1712 1976l203 -309h-334l-139 150l-187 -150h-350l318 309h489z" />
    <glyph glyph-name="wcircumflex" unicode="&#x175;" horiz-adv-x="1921" 
d="M1278 90l373 1030h350l-416 -1120h-627l105 1026l-328 -1026h-631l54 1120h340l-56 -1016l334 1016h596zM1384 1556l199 -327h-321l-134 172l-200 -172h-334l321 327h469z" />
    <glyph glyph-name="Ycircumflex" unicode="&#x176;" horiz-adv-x="1476" 
d="M1247 1556h469l-772 -956l-127 -600h-399l135 641l-379 915h414l229 -579zM1237 1976l203 -309h-334l-139 150l-187 -150h-350l318 309h489z" />
    <glyph glyph-name="ycircumflex" unicode="&#x177;" horiz-adv-x="1269" 
d="M545 211l424 909h407l-723 -1521h-393l238 512h-297l-78 1009h373zM1049 1556l198 -327h-321l-133 172l-201 -172h-334l322 327h469z" />
    <glyph glyph-name="Ydieresis" unicode="&#x178;" horiz-adv-x="1476" 
d="M1247 1556h469l-772 -956l-127 -600h-399l135 641l-379 915h414l229 -579zM874 1667h-405l66 309h405zM1384 1667h-405l65 309h406z" />
    <glyph glyph-name="Zacute" unicode="&#x179;" horiz-adv-x="1445" 
d="M299 1556h1264l-88 -413l-959 -821h819l-67 -322h-1311l88 414l959 821h-773zM1067 1667h-387l307 309h545z" />
    <glyph glyph-name="zacute" unicode="&#x17a;" horiz-adv-x="1177" 
d="M205 1120h995l-74 -354l-655 -492h586l-60 -274h-1042l76 354l655 492h-541zM864 1229h-362l291 327h524z" />
    <glyph glyph-name="Zdotaccent" unicode="&#x17b;" horiz-adv-x="1445" 
d="M299 1556h1264l-88 -413l-959 -821h819l-67 -322h-1311l88 414l959 821h-773zM1104 1667h-406l66 309h405z" />
    <glyph glyph-name="zdotaccent" unicode="&#x17c;" horiz-adv-x="1177" 
d="M205 1120h995l-74 -354l-655 -492h586l-60 -274h-1042l76 354l655 492h-541zM899 1245h-393l65 311h394z" />
    <glyph glyph-name="Zcaron" unicode="&#x17d;" horiz-adv-x="1445" 
d="M299 1556h1264l-88 -413l-959 -821h819l-67 -322h-1311l88 414l959 821h-773zM924 1825l186 151h352l-319 -309h-490l-200 309h331z" />
    <glyph glyph-name="zcaron" unicode="&#x17e;" horiz-adv-x="1177" 
d="M205 1120h995l-74 -354l-655 -492h586l-60 -274h-1042l76 354l655 492h-541zM727 1384l199 172h336l-322 -327h-471l-199 327h324z" />
    <glyph glyph-name="uni018F" unicode="&#x18f;" horiz-adv-x="1714" 
d="M1397 1507l-4 -4q148 -73 229 -213q80 -139 80 -325q0 -274 -117 -502q-118 -230 -334 -361q-219 -133 -503 -133q-197 0 -345 80q-147 80 -227 221q-80 142 -80 326q0 78 15 164q16 91 39 170h1163v4q0 118 -43 194t-113 113t-160 37q-119 0 -211 -51q-94 -53 -159 -144
h-416q80 157 207 269q126 111 287 170q160 59 342 59q199 0 350 -74zM1075 365v-3q117 94 176 252h-766v-22q0 -101 37 -174t109 -111q70 -37 164 -37q162 0 280 95z" />
    <glyph glyph-name="florin" unicode="&#x192;" horiz-adv-x="1249" 
d="M1188 1249l-8 -2q-82 0 -125 -37q-40 -34 -76 -127l-35 -94h254l-65 -307h-302l-96 -266q-60 -159 -129 -246q-71 -89 -174 -129q-101 -39 -260 -39h-225l65 307h131q84 0 127 37t78 127l78 213h-217l67 307h263l53 148q59 157 129 245q71 90 176 130q104 40 262 40h227
l-67 -307h-131z" />
    <glyph glyph-name="uni019D" unicode="&#x19d;" horiz-adv-x="1800" 
d="M1491 1556h401l-329 -1556h-734l-98 1446l-307 -1446h-31l-8 -45q-76 -356 -512 -356h-240l58 264h155q81 0 123 28q41 27 56 105v4l14 70l8 39l307 1447h731l99 -1445z" />
    <glyph glyph-name="uni01B5" unicode="&#x1b5;" horiz-adv-x="1470" 
d="M309 1556h1262l-86 -413l-357 -305h312l-43 -201h-502l-369 -315h820l-68 -322h-1311l88 414l389 334h-297l43 200h490l334 287h-772z" />
    <glyph glyph-name="uni01B6" unicode="&#x1b6;" horiz-adv-x="1191" 
d="M211 1120h995l-76 -354l-215 -162h209l-32 -149h-375l-242 -181h586l-57 -274h-1043l76 354l248 187h-185l31 147h350l211 158h-540z" />
    <glyph glyph-name="uni01E2" unicode="&#x1e2;" horiz-adv-x="2187" 
d="M2290 1556l-68 -321h-799l29 -279h694l-67 -321h-594l33 -313h528l-70 -322h-825l-31 389h-626l-199 -389h-424l823 1556h1596zM1032 1452l-377 -741h439zM1870 1690h-897l57 266h897z" />
    <glyph glyph-name="uni01E3" unicode="&#x1e3;" horiz-adv-x="2062" 
d="M1182 449l-6 -15q0 -107 45 -158q47 -53 129 -53q63 0 116 29q49 27 80 84h385q-88 -181 -245 -273t-363 -92q-158 0 -260 60q-97 57 -156 176q-80 -109 -205 -170q-127 -62 -294 -62q-105 0 -195 41q-87 40 -141 115q-54 76 -54 176q0 122 64 207q66 87 184 133
q116 45 287 45h293l8 41q6 35 6 49q0 56 -35 86q-36 31 -102 31q-76 0 -123 -33q-51 -35 -68 -92h-385q37 119 123 205t205 129t262 43q135 0 221 -45q91 -48 136 -125q75 78 184 125q105 45 233 45q156 0 267 -51q116 -53 176 -156q61 -104 61 -254q0 -113 -41 -241h-792z
M1327 838l2 -2q-63 -54 -104 -150h405q8 21 8 51q0 75 -43 115q-44 41 -118 41q-86 0 -150 -55zM688 279v-3q68 59 98 164h-149q-117 0 -178 -28q-60 -28 -60 -90q0 -49 37 -76q38 -27 96 -27q87 0 156 60zM1569 1251h-821l55 260h821z" />
    <glyph glyph-name="Gcaron" unicode="&#x1e6;" horiz-adv-x="1753" 
d="M817 604l57 289h838l-192 -905h-326l76 356q-82 -158 -221 -270q-138 -111 -351 -111q-162 0 -301 74q-137 73 -221 219q-82 143 -82 350q0 244 113 467q113 224 325 365q211 141 498 141q200 0 350 -66q149 -65 234 -182q87 -120 108 -270h-413q-23 105 -99 162
q-73 55 -200 55q-154 0 -269 -92q-114 -92 -176 -242q-61 -149 -61 -330q0 -108 43 -184q44 -77 119 -117q74 -39 178 -39q103 0 188 43q87 44 148 117q60 72 88 170h-451zM1075 1812l187 152h352l-320 -309h-489l-201 309h332z" />
    <glyph glyph-name="gcaron" unicode="&#x1e7;" horiz-adv-x="1376" 
d="M1006 1120l368 -8l-239 -1124q-30 -144 -123 -240t-224 -139q-130 -43 -284 -43q-157 0 -273 43q-115 43 -184 127t-78 203h385q9 -59 52 -89q44 -30 108 -30q98 0 166 53t86 141l43 207q-59 -95 -150 -153q-94 -60 -213 -60q-107 0 -196 53q-90 53 -141 150
q-52 98 -52 229q0 173 68 338q66 160 201 264q133 103 313 103q92 0 154 -39q63 -39 104 -102q39 -60 55 -130zM764 322q68 65 102 163q35 100 35 201q0 98 -43 150q-42 51 -125 51q-93 0 -160 -64q-66 -63 -100 -161q-35 -100 -35 -203q0 -98 43 -150q42 -51 123 -51
q93 0 160 64zM817 1376l199 172h336l-322 -327h-471l-199 327h324z" />
    <glyph glyph-name="uni01EA" unicode="&#x1ea;" horiz-adv-x="1738" 
d="M1114 -25l-8 -4q-45 -48 -45 -92q0 -27 22 -43t68 -16h78l-53 -244h-127q-158 0 -240 43q-84 44 -84 137q0 112 145 215q-70 -4 -79 -4q-204 0 -361 74q-159 75 -246 217q-88 143 -88 354q0 236 115 463q113 223 326 365q211 141 495 141q204 0 361 -74t245 -217
q91 -148 91 -352q0 -164 -56 -324q-57 -162 -160 -295q-106 -136 -249 -221q-101 -70 -150 -123zM535 424h-5q40 -76 111 -117q68 -39 166 -39q153 0 268 92q114 91 176 246q62 154 62 334q0 111 -39 182q-41 75 -111 115q-68 39 -166 39q-151 0 -266 -92
q-111 -89 -174 -246q-61 -152 -61 -334q0 -106 39 -180z" />
    <glyph glyph-name="uni01EB" unicode="&#x1eb;" horiz-adv-x="1341" 
d="M1212 340v-8q-77 -157 -225 -252h4q-103 -67 -162 -123q-55 -52 -55 -92q0 -27 25 -39q24 -12 75 -12h74l-51 -238h-127q-160 0 -240 45q-84 47 -84 135q0 61 41 117q38 52 109 98h-23q-156 0 -274 56t-182 163q-66 111 -66 254q0 182 80 342q79 158 244 258
q163 99 389 99q155 0 276 -56q123 -57 185 -161q65 -109 65 -254q0 -173 -78 -332zM481 268l2 -2q44 -53 123 -53q92 0 160 68q67 67 102 176q35 110 35 217q0 102 -45 153q-48 54 -125 54q-92 0 -160 -68q-64 -64 -100 -176q-35 -110 -35 -215q0 -102 43 -154z" />
    <glyph glyph-name="AEacute" unicode="&#x1fc;" horiz-adv-x="2187" 
d="M2290 1556l-68 -321h-799l29 -279h694l-67 -321h-594l33 -313h528l-70 -322h-825l-31 389h-626l-199 -389h-424l823 1556h1596zM1032 1452l-377 -741h439zM1583 1667h-387l307 309h545z" />
    <glyph glyph-name="aeacute" unicode="&#x1fd;" horiz-adv-x="2062" 
d="M1182 449l-6 -15q0 -107 45 -158q47 -53 129 -53q63 0 116 29q49 27 80 84h385q-88 -181 -245 -273t-363 -92q-158 0 -260 60q-97 57 -156 176q-80 -109 -205 -170q-127 -62 -294 -62q-105 0 -195 41q-87 40 -141 115q-54 76 -54 176q0 122 64 207q66 87 184 133
q116 45 287 45h293l8 41q6 35 6 49q0 56 -35 86q-36 31 -102 31q-76 0 -123 -33q-51 -35 -68 -92h-385q37 119 123 205t205 129t262 43q135 0 221 -45q91 -48 136 -125q75 78 184 125q105 45 233 45q156 0 267 -51q116 -53 176 -156q61 -104 61 -254q0 -113 -41 -241h-792z
M1327 838l2 -2q-63 -54 -104 -150h405q8 21 8 51q0 75 -43 115q-44 41 -118 41q-86 0 -150 -55zM688 279v-3q68 59 98 164h-149q-117 0 -178 -28q-60 -28 -60 -90q0 -49 37 -76q38 -27 96 -27q87 0 156 60zM1317 1221h-363l291 327h524z" />
    <glyph glyph-name="Oslashacute" unicode="&#x1fe;" horiz-adv-x="1738" 
d="M2044 1556l-371 -321q58 -131 58 -295q0 -240 -113 -463q-112 -221 -326 -364q-213 -142 -495 -142q-119 0 -238 29q-108 26 -197 84l-98 -86h-475l369 324q-58 125 -58 292q0 236 115 463q113 223 326 365q211 141 495 141q258 0 432 -113l99 86h477zM745 1194v2
q-111 -86 -174 -240q-62 -151 -65 -325l688 602q-73 49 -184 49q-152 0 -265 -88zM1083 369l-2 -2q114 89 176 239q63 154 66 326l-688 -600q68 -51 184 -51q151 0 264 88zM1257 1669h-387l308 309h544z" />
    <glyph glyph-name="oslashacute" unicode="&#x1ff;" horiz-adv-x="1341" 
d="M1509 1120l-264 -227q47 -100 47 -219q0 -182 -82 -340q-83 -160 -245 -258q-163 -99 -390 -99q-185 0 -313 78l-59 -51h-371l266 229q-45 91 -45 216q0 182 80 342q79 158 244 258q162 98 389 98q182 0 313 -76l58 49h372zM596 842v-4q-59 -50 -98 -136
q-37 -81 -49 -178l391 336q-39 33 -105 33q-79 0 -139 -51zM750 272h2q59 50 98 136q37 81 49 182l-395 -338q39 -33 104 -33q80 0 142 53zM958 1223h-362l291 327h524z" />
    <glyph glyph-name="uni0218" unicode="&#x218;" horiz-adv-x="1480" 
d="M344 31l6 -2q-148 59 -229 174q-83 118 -86 280h414q3 -101 79 -153q79 -54 203 -54q129 0 209 41t80 121q0 45 -25 76q-27 34 -69 53q-50 23 -127 43l-228 64q-173 49 -272 151q-98 101 -98 262q0 139 88 252q88 114 246 179q157 65 352 65q287 0 442 -119
q158 -122 182 -331h-413q-15 70 -80 108q-64 37 -174 37q-76 0 -135 -18q-58 -18 -88 -52q-31 -36 -31 -73q0 -41 24 -68q25 -28 74 -49q50 -21 135 -45l230 -64q175 -50 262 -153q90 -107 90 -248q0 -166 -86 -287q-85 -120 -248 -184q-167 -66 -387 -66q-189 0 -340 60z
M414 -426l65 311h406l-74 -344l-195 -200h-249l174 233h-127z" />
    <glyph glyph-name="uni0219" unicode="&#x219;" horiz-adv-x="1206" 
d="M272 16l-4 -8q-118 43 -190 127q-71 83 -80 201h385q9 -66 57 -92q50 -27 131 -27q75 0 129 23q50 21 50 65q0 34 -35 55q-43 26 -123 48l-180 53q-140 41 -215 110q-76 70 -76 191q0 105 67 190t191 135t287 50q137 0 247 -39q113 -40 185 -115q71 -74 86 -178h-385
q-9 39 -54 61q-48 23 -114 23q-64 0 -113 -19q-45 -17 -45 -57q0 -21 16 -37q13 -13 50 -26q53 -18 98 -31l180 -53q146 -44 215 -125q72 -84 72 -197q0 -112 -64 -194q-66 -84 -190 -130q-127 -47 -303 -47q-156 0 -275 43zM258 -432l66 311h393l-74 -344l-194 -201h-238
l174 234h-127z" />
    <glyph glyph-name="uni021A" unicode="&#x21a;" horiz-adv-x="1384" 
d="M244 1556h1317l-68 -321h-459l-262 -1235h-399l262 1235h-461zM283 -422l65 311h406l-74 -344l-195 -200h-249l174 233h-127z" />
    <glyph glyph-name="uni021B" unicode="&#x21b;" horiz-adv-x="882" 
d="M659 846l-100 -457q-4 -36 -4 -43q0 -36 29 -55q28 -19 86 -19h92l-60 -274h-196q-98 0 -180 31q-78 29 -123 90q-43 58 -43 139q0 56 8 92l106 496h-190l57 274h191l57 264h385l-55 -264h225l-59 -274h-226zM115 -424l65 311h393l-73 -344l-195 -200h-237l174 233h-127z
" />
    <glyph glyph-name="uni022E" unicode="&#x22e;" horiz-adv-x="1738" 
d="M434 45l-4 -2q-159 75 -246 217q-88 143 -88 354q0 236 115 463q113 223 326 365q211 141 495 141q204 0 361 -74t245 -217q91 -148 91 -352q0 -240 -113 -463q-112 -221 -326 -364q-213 -142 -495 -142q-204 0 -361 74zM1083 365h-4q114 92 176 245q62 154 62 334
q0 111 -39 182q-41 75 -111 115q-68 39 -166 39q-151 0 -266 -92q-111 -89 -174 -246q-61 -152 -61 -334q0 -106 39 -180q41 -77 110 -117q68 -39 166 -39q152 0 268 93zM1288 1663h-405l65 309h406z" />
    <glyph glyph-name="uni022F" unicode="&#x22f;" horiz-adv-x="1341" 
d="M299 29v-4q-118 56 -182 163q-66 111 -66 254q0 182 80 342q79 158 244 258q163 99 389 99q155 0 276 -56q123 -57 185 -161q65 -109 65 -254q0 -182 -82 -340q-83 -160 -245 -258q-163 -99 -390 -99q-156 0 -274 56zM764 289l2 -2q67 67 102 176q35 110 35 217
q0 103 -45 154q-47 53 -125 53q-92 0 -160 -68q-64 -64 -100 -176q-35 -110 -35 -215q0 -102 43 -154q44 -53 123 -53q92 0 160 68zM991 1237h-393l66 311h393z" />
    <glyph glyph-name="uni0232" unicode="&#x232;" horiz-adv-x="1476" 
d="M1247 1556h469l-772 -956l-127 -600h-399l135 641l-379 915h414l229 -579zM1380 1690h-897l58 266h897z" />
    <glyph glyph-name="uni0233" unicode="&#x233;" horiz-adv-x="1269" 
d="M545 211l424 909h407l-723 -1521h-393l238 512h-297l-78 1009h373zM1167 1260h-821l55 260h822z" />
    <glyph glyph-name="uni0237" unicode="&#x237;" horiz-adv-x="616" 
d="M-262 -401l57 274h51q72 0 103 25t43 84l241 1136h388l-254 -1200q-35 -162 -150 -240q-116 -79 -319 -79h-160z" />
    <glyph glyph-name="uni0259" unicode="&#x259;" horiz-adv-x="1304" 
d="M1010 1090v6q118 -59 182 -166q63 -105 63 -248q0 -183 -81 -344t-242 -264q-157 -101 -381 -101q-153 0 -266 52t-174 153q-62 103 -62 252q0 118 41 246h793v12q0 103 -45 154q-47 53 -129 53q-67 0 -117 -27q-51 -28 -80 -82h-385q89 182 246 271q159 90 362 90
q161 0 275 -57zM727 287l-4 -2q62 54 104 151h-405q-8 -33 -8 -53q0 -71 43 -111q44 -41 121 -41q84 0 149 56z" />
    <glyph glyph-name="uni0272" unicode="&#x272;" horiz-adv-x="1331" 
d="M1130 1108l-4 2q71 -41 107 -106q37 -67 37 -158q0 -68 -17 -144l-149 -700h-385l133 631q14 66 14 121q0 64 -30 98q-30 35 -88 35q-87 0 -148 -70q-63 -73 -90 -209l-129 -608l-19 -80q-35 -162 -149 -239q-118 -80 -319 -80h-160l59 274h49q69 0 105 25q32 23 45 84
l18 84l223 1052h381l-47 -223q65 115 166 182q103 68 221 68q108 0 176 -39z" />
    <glyph glyph-name="circumflex" unicode="&#x2c6;" horiz-adv-x="1062" 
d="M969 1556l198 -327h-321l-133 172l-201 -172h-334l322 327h469z" />
    <glyph glyph-name="caron" unicode="&#x2c7;" horiz-adv-x="1062" 
d="M705 1384l198 172h336l-321 -327h-472l-198 327h323z" />
    <glyph glyph-name="breve" unicode="&#x2d8;" horiz-adv-x="882" 
d="M414 1253l-4 -2q-77 33 -125 97q-45 60 -45 145q0 31 6 61h266q-4 -32 -4 -34q0 -44 31 -66t86 -22q67 0 110 30q43 29 58 92h264q-21 -97 -82 -172q-62 -77 -160 -120t-221 -43q-102 0 -180 34z" />
    <glyph glyph-name="dotaccent" unicode="&#x2d9;" horiz-adv-x="466" 
d="M575 1245h-393l66 311h393z" />
    <glyph glyph-name="ring" unicode="&#x2da;" horiz-adv-x="600" 
d="M348 1249v-6q-56 27 -86 80q-31 54 -31 127q0 80 39 145q40 67 107 107q68 41 147 41q63 0 123 -29q56 -27 86 -80q31 -54 31 -123q0 -80 -39 -145t-107 -106q-65 -39 -147 -39q-65 0 -123 28zM549 1425v-4q24 24 24 66q0 31 -18 49t-47 18q-38 0 -62 -24t-24 -64
q0 -29 18 -47t47 -18q38 0 62 24z" />
    <glyph glyph-name="ogonek" unicode="&#x2db;" horiz-adv-x="579" 
d="M197 -420l-2 2q-158 0 -240 49t-82 140q0 127 172 229h379q-225 -58 -225 -131q0 -27 28 -39q27 -12 80 -12h80l-51 -238h-139z" />
    <glyph glyph-name="tilde" unicode="&#x2dc;" horiz-adv-x="811" 
d="M182 1247l4 -4q35 162 111 244q78 84 180 84q74 0 154 -45q62 -33 110 -33q44 0 80 25t53 61h115q-35 -159 -110 -240q-78 -84 -179 -84q-73 0 -153 45q-56 33 -117 33q-45 0 -80 -24t-53 -62h-115z" />
    <glyph glyph-name="hungarumlaut" unicode="&#x2dd;" horiz-adv-x="1224" 
d="M506 1229h-328l275 327h438zM1016 1229h-328l275 327h440z" />
    <glyph glyph-name="gravecomb" unicode="&#x300;" horiz-adv-x="0" 
d="M106 1229h-356l-305 327h506z" />
    <glyph glyph-name="acutecomb" unicode="&#x301;" horiz-adv-x="0" 
d="M-276 1229h-363l291 327h524z" />
    <glyph glyph-name="uni0302" unicode="&#x302;" horiz-adv-x="0" 
d="M-94 1556l198 -327h-321l-133 172l-201 -172h-334l322 327h469z" />
    <glyph glyph-name="tildecomb" unicode="&#x303;" horiz-adv-x="0" 
d="M-629 1247l4 -4q35 162 111 244q78 84 180 84q74 0 154 -45q62 -33 110 -33q44 0 80 25t53 61h115q-35 -159 -110 -240q-78 -84 -179 -84q-73 0 -153 45q-56 33 -117 33q-46 0 -80 -24q-35 -24 -53 -62h-115z" />
    <glyph glyph-name="uni0304" unicode="&#x304;" horiz-adv-x="0" 
d="M113 1260h-822l56 260h821z" />
    <glyph glyph-name="uni0306" unicode="&#x306;" horiz-adv-x="0" 
d="M-469 1253l-4 -2q-77 33 -125 97q-45 60 -45 145q0 31 6 61h266q-4 -32 -4 -34q0 -44 31 -66t86 -22q68 0 111 30q42 29 57 92h264q-21 -97 -82 -172q-62 -77 -160 -120t-221 -43q-102 0 -180 34z" />
    <glyph glyph-name="uni0307" unicode="&#x307;" horiz-adv-x="0" 
d="M109 1245h-394l66 311h393z" />
    <glyph glyph-name="uni0308" unicode="&#x308;" horiz-adv-x="0" 
d="M-410 1245h-393l66 311h393zM109 1245h-394l66 311h393z" />
    <glyph glyph-name="uni030A" unicode="&#x30a;" horiz-adv-x="0" 
d="M-252 1249v-6q-56 27 -86 80q-31 54 -31 127q0 80 39 145q40 67 107 107q68 41 147 41q63 0 123 -29q56 -27 86 -80q31 -54 31 -123q0 -80 -39 -145t-107 -106q-65 -39 -147 -39q-65 0 -123 28zM-51 1425v-4q24 24 24 66q0 31 -18 49t-47 18q-38 0 -62 -24t-24 -64
q0 -29 18 -47t47 -18q38 0 62 24z" />
    <glyph glyph-name="uni030B" unicode="&#x30b;" horiz-adv-x="0" 
d="M-719 1229h-328l275 327h438zM-209 1229h-328l275 327h440z" />
    <glyph glyph-name="uni030C" unicode="&#x30c;" horiz-adv-x="0" 
d="M-358 1384l198 172h336l-321 -327h-471l-199 327h323z" />
    <glyph glyph-name="uni0312" unicode="&#x312;" horiz-adv-x="0" 
d="M-12 1800h235l-172 -233h127l-65 -312h-394l74 344z" />
    <glyph glyph-name="dotbelowcomb" unicode="&#x323;" horiz-adv-x="0" 
d="M-246 -422h-393l66 311h393z" />
    <glyph glyph-name="uni0326" unicode="&#x326;" horiz-adv-x="0" 
d="M-637 -422l66 311h393l-74 -344l-194 -200h-238l174 233h-127z" />
    <glyph glyph-name="uni0327" unicode="&#x327;" horiz-adv-x="0" 
d="M-344 -61h-6q61 -9 104 -48q39 -36 39 -94q0 -67 -33 -114q-35 -50 -94 -76q-62 -27 -137 -27h-172l35 156h86q36 0 57 12t21 41q0 22 -15 31q-13 8 -43 8h-51l37 172h184z" />
    <glyph glyph-name="uni0328" unicode="&#x328;" horiz-adv-x="0" 
d="M-383 -420l-2 2q-158 0 -240 49t-82 140q0 127 172 229h379q-225 -58 -225 -131q0 -26 29 -39q27 -12 80 -12h79l-51 -238h-139z" />
    <glyph glyph-name="uni0335" unicode="&#x335;" horiz-adv-x="0" 
d="M-522 1210h-684l45 232h682z" />
    <glyph glyph-name="uni0336" unicode="&#x336;" horiz-adv-x="0" 
d="M82 1110h-1657l53 258h1657z" />
    <glyph glyph-name="uni0337" unicode="&#x337;" horiz-adv-x="0" 
d="M18 821l-731 -401l72 336l731 401z" />
    <glyph glyph-name="uni0338" unicode="&#x338;" horiz-adv-x="0" 
d="M-1190 0h-371l1307 1120h373z" />
    <glyph glyph-name="uni0394" unicode="&#x394;" horiz-adv-x="1648" 
d="M1384 1556l160 -1556h-1679l823 1556h696zM1118 322l-92 1130l-577 -1130h669z" />
    <glyph glyph-name="uni03A9" unicode="&#x3a9;" horiz-adv-x="1720" 
d="M1563 602l-9 -6q-167 -176 -462 -283h458l-69 -321h-676l88 414q206 102 313 239q109 139 109 324q0 91 -39 159q-41 72 -111 109t-166 37q-129 0 -235 -62q-104 -61 -160 -170q-55 -107 -55 -237q0 -117 49 -211q50 -96 164 -184l-86 -414h-676l68 321h456
q-177 81 -282 213q-101 128 -101 297q0 213 117 385q116 171 320 271q200 98 454 98q220 0 375 -70q159 -72 240 -198q82 -128 82 -312q0 -224 -166 -399z" />
    <glyph glyph-name="uni03BC" unicode="&#x3bc;" horiz-adv-x="1431" 
d="M1200 285l2 2q26 -13 74 -13h57l-59 -274h-150q-318 0 -356 213v8q-64 -113 -168 -180q-106 -68 -221 -68h-2l-80 -374h-387l323 1521h388l-136 -631q-14 -71 -14 -122q0 -131 115 -131q87 0 147 69q63 73 90 209l129 606h387l-157 -743q-6 -30 -6 -47q0 -33 24 -45z" />
    <glyph glyph-name="pi" unicode="&#x3c0;" horiz-adv-x="1482" 
d="M1288 846l-100 -457q-4 -36 -4 -43q0 -36 28 -55t86 -19h45l-59 -274h-149q-99 0 -181 31q-78 29 -123 90q-43 58 -43 139q0 52 9 92l104 496h-237l-181 -846h-387l180 846h-180l60 274h1372l-60 -274h-180z" />
    <glyph glyph-name="uni0E3F" unicode="&#xe3f;" horiz-adv-x="1486" 
d="M1268 686v-4q98 -85 98 -229q0 -125 -63 -217q-64 -94 -191 -156t-311 -80l-60 -274h-385l58 268h-373l332 1556h372l56 258h385l-58 -272q163 -29 248 -127q82 -94 82 -238q0 -118 -63 -196q-65 -80 -166 -123q-105 -45 -217 -59q156 -21 256 -107zM811 920l-2 -2
q85 0 143 24q59 24 86 68q29 47 29 94q0 64 -49 104q-48 39 -133 39h-185l-69 -327h180zM688 295v-2q97 0 166 29q66 27 92 73q29 50 29 99q0 70 -53 114q-52 43 -148 43h-201l-75 -356h190z" />
    <glyph glyph-name="Wgrave" unicode="&#x1e80;" horiz-adv-x="2381" 
d="M1620 104l543 1452h395l-600 -1556h-701l123 1452l-493 -1452h-697l58 1556h379l-70 -1445l500 1445h676zM1589 1667h-366l-328 309h514z" />
    <glyph glyph-name="wgrave" unicode="&#x1e81;" horiz-adv-x="1921" 
d="M1278 90l373 1030h350l-416 -1120h-627l105 1026l-328 -1026h-631l54 1120h340l-56 -1016l334 1016h596zM1257 1229h-356l-305 327h506z" />
    <glyph glyph-name="Wacute" unicode="&#x1e82;" horiz-adv-x="2381" 
d="M1620 104l543 1452h395l-600 -1556h-701l123 1452l-493 -1452h-697l58 1556h379l-70 -1445l500 1445h676zM1608 1667h-387l307 309h545z" />
    <glyph glyph-name="wacute" unicode="&#x1e83;" horiz-adv-x="1921" 
d="M1278 90l373 1030h350l-416 -1120h-627l105 1026l-328 -1026h-631l54 1120h340l-56 -1016l334 1016h596zM1278 1229h-363l291 327h525z" />
    <glyph glyph-name="Wdieresis" unicode="&#x1e84;" horiz-adv-x="2381" 
d="M1620 104l543 1452h395l-600 -1556h-701l123 1452l-493 -1452h-697l58 1556h379l-70 -1445l500 1445h676zM1350 1667h-406l66 309h405zM1860 1667h-406l66 309h405z" />
    <glyph glyph-name="wdieresis" unicode="&#x1e85;" horiz-adv-x="1921" 
d="M1278 90l373 1030h350l-416 -1120h-627l105 1026l-328 -1026h-631l54 1120h340l-56 -1016l334 1016h596zM1016 1245h-393l65 311h393zM1534 1245h-393l65 311h393z" />
    <glyph glyph-name="uni1E9E" unicode="&#x1e9e;" horiz-adv-x="1622" 
d="M1645 1556l-84 -378l-344 -295q143 -30 233 -123t90 -240q0 -173 -82 -295q-81 -121 -233 -186q-149 -64 -351 -64q-140 0 -264 48l60 276q49 -27 88 -37q47 -12 98 -12q74 0 143 29q65 27 99 79q35 53 35 123q0 92 -70 135t-197 43h-59l63 302l322 274h-508l-262 -1235
h-397l329 1556h1291z" />
    <glyph glyph-name="uni1EA0" unicode="&#x1ea0;" horiz-adv-x="1658" 
d="M1550 0h-399l-31 389h-626l-199 -389h-424l823 1556h697zM1032 1452l-377 -741h439zM848 -422h-406l66 309h405z" />
    <glyph glyph-name="uni1EA1" unicode="&#x1ea1;" horiz-adv-x="1300" 
d="M1102 1055h-2q135 -91 135 -267q0 -48 -12 -110l-144 -678h-381l41 195q-63 -97 -157 -158q-95 -62 -226 -62q-94 0 -174 41q-78 40 -125 111q-45 68 -45 166q0 182 131 276q136 97 394 121l307 29l4 14q6 35 6 49q0 56 -35 86q-36 31 -102 31q-76 0 -123 -33
q-51 -35 -68 -92h-385q38 121 123 203q87 84 205 127q119 43 262 43q235 0 371 -92zM694 270l2 -4q72 78 99 209l2 14l-164 -16q-109 -9 -172 -47q-62 -38 -62 -111q0 -62 37 -92t92 -30q95 0 166 77zM672 -428h-393l65 311h393z" />
    <glyph glyph-name="uni1EB8" unicode="&#x1eb8;" horiz-adv-x="1361" 
d="M1462 1556l-67 -321h-711l-59 -279h696l-70 -321h-694l-65 -313h727l-70 -322h-1124l329 1556h1108zM700 -422h-405l65 309h406z" />
    <glyph glyph-name="uni1EB9" unicode="&#x1eb9;" horiz-adv-x="1304" 
d="M424 446l-10 -22q0 -103 45 -154q47 -53 129 -53q64 0 117 29q48 26 79 84h385q-89 -182 -245 -271q-159 -90 -363 -90q-158 0 -274 58q-117 58 -178 166q-62 109 -62 247q0 181 82 344q82 162 242 265q156 100 381 100q157 0 268 -51q115 -53 176 -154t61 -252
q0 -122 -40 -246h-793zM565 827h2q-64 -55 -104 -149h405q9 38 9 53q0 71 -43 111q-44 41 -119 41q-85 0 -150 -56zM651 -434h-393l66 311h393z" />
    <glyph glyph-name="uni1EBC" unicode="&#x1ebc;" horiz-adv-x="1361" 
d="M1462 1556l-67 -321h-711l-59 -279h696l-70 -321h-694l-65 -313h727l-70 -322h-1124l329 1556h1108zM524 1677l2 -2q35 158 115 244t188 86q43 0 86 -12q31 -9 78 -29q67 -33 123 -33q43 0 84 23q36 20 55 59h121q-35 -161 -114 -246q-80 -86 -187 -86q-38 0 -88 13
q-38 10 -80 28q-59 33 -123 33q-45 0 -84 -22q-36 -20 -55 -56h-121z" />
    <glyph glyph-name="uni1EBD" unicode="&#x1ebd;" horiz-adv-x="1304" 
d="M424 446l-10 -22q0 -103 45 -154q47 -53 129 -53q64 0 117 29q48 26 79 84h385q-89 -182 -245 -271q-159 -90 -363 -90q-158 0 -274 58q-117 58 -178 166q-62 109 -62 247q0 181 82 344q82 162 242 265q156 100 381 100q157 0 268 -51q115 -53 176 -154t61 -252
q0 -122 -40 -246h-793zM565 827h2q-64 -55 -104 -149h405q9 38 9 53q0 71 -43 111q-44 41 -119 41q-85 0 -150 -56zM403 1235l5 -4q36 164 110 244q78 84 180 84q72 0 154 -46q60 -32 111 -32q45 0 79 24q36 25 54 62h114q-35 -159 -110 -240q-78 -84 -178 -84
q-74 0 -154 45q-56 33 -117 33q-44 0 -80 -25t-53 -61h-115z" />
    <glyph glyph-name="uni1ECA" unicode="&#x1eca;" horiz-adv-x="684" 
d="M422 0h-397l329 1556h398zM336 -422h-406l66 309h405z" />
    <glyph glyph-name="uni1ECB" unicode="&#x1ecb;" horiz-adv-x="616" 
d="M383 0h-387l237 1120h388zM649 1245h-393l66 311h393zM295 -422h-393l65 311h393z" />
    <glyph glyph-name="uni1ECC" unicode="&#x1ecc;" horiz-adv-x="1738" 
d="M434 45l-4 -2q-159 75 -246 217q-88 143 -88 354q0 236 115 463q113 223 326 365q211 141 495 141q204 0 361 -74t245 -217q91 -148 91 -352q0 -240 -113 -463q-112 -221 -326 -364q-213 -142 -495 -142q-204 0 -361 74zM1083 365h-4q114 92 176 245q62 154 62 334
q0 111 -39 182q-41 75 -111 115q-68 39 -166 39q-151 0 -266 -92q-111 -89 -174 -246q-61 -152 -61 -334q0 -106 39 -180q41 -77 110 -117q68 -39 166 -39q152 0 268 93zM879 -426h-406l66 309h405z" />
    <glyph glyph-name="uni1ECD" unicode="&#x1ecd;" horiz-adv-x="1341" 
d="M299 29v-4q-118 56 -182 163q-66 111 -66 254q0 182 80 342q79 158 244 258q163 99 389 99q155 0 276 -56q123 -57 185 -161q65 -109 65 -254q0 -182 -82 -340q-83 -160 -245 -258q-163 -99 -390 -99q-156 0 -274 56zM764 289l2 -2q67 67 102 176q35 110 35 217
q0 103 -45 154q-47 53 -125 53q-92 0 -160 -68q-64 -64 -100 -176q-35 -110 -35 -215q0 -102 43 -154q44 -53 123 -53q92 0 160 68zM678 -430h-393l65 311h393z" />
    <glyph glyph-name="uni1EE4" unicode="&#x1ee4;" horiz-adv-x="1605" 
d="M393 33h-4q-135 59 -203 164q-67 104 -67 245q0 86 22 199l195 913h397l-209 -987q-10 -48 -10 -92q0 -96 59 -149q58 -52 170 -52q140 0 226 86t121 240l200 954h400l-201 -942q-47 -212 -137 -350q-91 -141 -246 -215q-154 -74 -383 -74q-192 0 -330 60zM811 -422h-405
l65 309h406z" />
    <glyph glyph-name="uni1EE5" unicode="&#x1ee5;" horiz-adv-x="1323" 
d="M942 1120h381l-238 -1120h-380l49 225q-60 -108 -164 -180q-101 -70 -225 -70q-102 0 -172 37q-71 38 -105 105q-35 68 -35 157q0 66 17 146l149 700h385l-133 -631q-16 -75 -16 -122q0 -65 30 -99q28 -32 88 -32q88 0 148 69q62 71 92 209zM657 -422h-393l66 311h393z
" />
    <glyph glyph-name="Ygrave" unicode="&#x1ef2;" horiz-adv-x="1476" 
d="M1247 1556h469l-772 -956l-127 -600h-399l135 641l-379 915h414l229 -579zM1135 1667h-367l-328 309h514z" />
    <glyph glyph-name="ygrave" unicode="&#x1ef3;" horiz-adv-x="1269" 
d="M545 211l424 909h407l-723 -1521h-393l238 512h-297l-78 1009h373zM946 1229h-356l-305 327h506z" />
    <glyph glyph-name="uni1EF8" unicode="&#x1ef8;" horiz-adv-x="1476" 
d="M1247 1556h469l-772 -956l-127 -600h-399l135 641l-379 915h414l229 -579zM539 1677l2 -2q35 159 114 244q80 86 189 86q42 0 86 -12q31 -9 78 -29q67 -33 122 -33q43 0 84 23q38 21 56 59h121q-35 -160 -115 -246t-186 -86q-39 0 -89 13q-36 9 -79 28q-59 33 -123 33
q-45 0 -84 -22q-38 -21 -56 -56h-120z" />
    <glyph glyph-name="uni1EF9" unicode="&#x1ef9;" horiz-adv-x="1269" 
d="M545 211l424 909h407l-723 -1521h-393l238 512h-297l-78 1009h373zM385 1247l4 -4q35 162 111 244q78 84 180 84q74 0 154 -45q62 -33 110 -33q44 0 80 25t53 61h115q-35 -158 -111 -240q-78 -84 -178 -84q-73 0 -153 45q-56 33 -117 33q-45 0 -80 -24t-53 -62h-115z" />
    <glyph glyph-name="uni2009" unicode="&#x2009;" horiz-adv-x="256" 
 />
    <glyph glyph-name="uni2011" unicode="&#x2011;" horiz-adv-x="911" 
d="M776 432h-696l65 311h697z" />
    <glyph glyph-name="endash" unicode="&#x2013;" horiz-adv-x="1140" 
d="M1006 432h-926l65 311h926z" />
    <glyph glyph-name="emdash" unicode="&#x2014;" horiz-adv-x="1742" 
d="M1608 432h-1528l65 311h1528z" />
    <glyph glyph-name="quoteleft" unicode="&#x2018;" horiz-adv-x="595" 
d="M463 1556h252l-203 -294h129l-76 -353h-403l86 400z" />
    <glyph glyph-name="quoteright" unicode="&#x2019;" horiz-adv-x="583" 
d="M240 1204l75 352h404l-86 -399l-215 -248h-252l203 295h-129z" />
    <glyph glyph-name="quotesinglbase" unicode="&#x201a;" horiz-adv-x="641" 
d="M0 0l76 352h403l-86 -399l-215 -248h-252l203 295h-129z" />
    <glyph glyph-name="quotedblleft" unicode="&#x201c;" horiz-adv-x="1110" 
d="M451 1556h251l-202 -294h129l-76 -353h-403l86 400zM965 1556h252l-203 -294h129l-76 -353h-403l84 400z" />
    <glyph glyph-name="quotedblright" unicode="&#x201d;" horiz-adv-x="1097" 
d="M766 1204l76 352h403l-86 -399l-215 -248h-252l203 295h-129zM252 1204l76 352h403l-86 -399l-215 -248h-252l203 295h-129z" />
    <glyph glyph-name="quotedblbase" unicode="&#x201e;" horiz-adv-x="1155" 
d="M514 0l76 352h403l-86 -399l-215 -248h-252l203 295h-129zM0 0l76 352h403l-86 -399l-215 -248h-252l203 295h-129z" />
    <glyph glyph-name="dagger" unicode="&#x2020;" horiz-adv-x="1259" 
d="M954 1182h330l-65 -308h-330l-187 -874h-385l185 874h-330l66 308h329l80 374h387z" />
    <glyph glyph-name="daggerdbl" unicode="&#x2021;" horiz-adv-x="1259" 
d="M1284 1182l-65 -308h-330l-39 -178h332l-66 -307h-330l-84 -389h-385l82 389h-329l65 307h330l37 178h-330l66 308h329l80 374h387l-80 -374h330z" />
    <glyph glyph-name="bullet" unicode="&#x2022;" horiz-adv-x="1036" 
d="M338 266q-83 50 -133 133q-49 82 -49 185q0 102 49 184q50 83 133 133q82 49 184 49q103 0 185 -49q83 -50 133 -133q49 -82 49 -184q0 -103 -49 -185q-50 -83 -133 -133q-82 -49 -185 -49q-102 0 -184 49z" />
    <glyph glyph-name="ellipsis" unicode="&#x2026;" horiz-adv-x="1925" 
d="M403 0h-403l76 352h403zM1044 0h-403l76 352h403zM1686 0h-404l76 352h403z" />
    <glyph glyph-name="perthousand" unicode="&#x2030;" horiz-adv-x="2592" 
d="M913 983h-2q-53 -131 -159 -209q-109 -80 -265 -80q-151 0 -237 86t-86 240q0 146 53 276t160 209q109 80 264 80q152 0 238 -86t86 -239q0 -149 -52 -277zM297 -2l1219 1556h352l-1219 -1556h-352zM451 924l-5 -2q23 -29 62 -29q58 0 102 65q42 63 64 154q22 93 22 154
q0 58 -22 86t-66 28q-58 0 -98 -63q-39 -63 -61 -154q-21 -89 -21 -153q0 -56 23 -86zM2419 770h-6q86 -86 86 -242q0 -144 -52 -272q-54 -132 -155 -209q-106 -80 -256 -80q-75 0 -135 31q-58 30 -99 86q-114 -117 -284 -117q-154 0 -240 86t-86 240q0 149 51 274
q53 131 156 209q106 80 256 80q75 0 139 -31q58 -28 100 -86q114 117 285 117q154 0 240 -86zM1640 233l-4 -2q42 63 64 154q22 93 22 154q0 58 -22 86t-66 28q-58 0 -98 -63q-39 -63 -61 -154q-21 -89 -21 -155q0 -54 23 -84q23 -29 61 -29q58 0 102 65zM2146 231l-4 -2
q42 63 64 154q22 93 22 154q0 58 -22 86t-66 28q-58 0 -98 -63q-41 -65 -62 -154q-20 -84 -20 -155q0 -56 22 -84q23 -29 62 -29q58 0 102 65z" />
    <glyph glyph-name="minute" unicode="&#x2032;" horiz-adv-x="587" 
d="M457 932h-303l213 624h401z" />
    <glyph glyph-name="second" unicode="&#x2033;" horiz-adv-x="1071" 
d="M457 932h-303l213 624h401zM940 932h-303l213 624h401z" />
    <glyph glyph-name="guilsinglleft" unicode="&#x2039;" horiz-adv-x="894" 
d="M469 1018h455l-410 -459l203 -461h-438l-199 471z" />
    <glyph glyph-name="guilsinglright" unicode="&#x203a;" horiz-adv-x="892" 
d="M178 1018h436l201 -471l-391 -449h-455l412 457z" />
    <glyph glyph-name="uni2042" unicode="&#x2042;" horiz-adv-x="1753" 
d="M1288 1339l25 -217l-228 -24l103 -215l-205 -92l-104 221l-185 -160l-151 168l180 156l-197 114l115 187l195 -115l45 211l223 -49l-45 -209zM735 510l25 -217l-228 -25l103 -215l-205 -92l-104 221l-185 -159l-151 167l180 156l-197 115l115 186l195 -115l45 211
l223 -49l-45 -209zM1698 510l24 -217l-227 -25l102 -215l-204 -92l-105 221l-184 -159l-152 167l181 156l-197 115l115 186l194 -115l45 211l223 -49l-45 -209z" />
    <glyph glyph-name="fraction" unicode="&#x2044;" horiz-adv-x="454" 
d="M-145 0h-320l1157 1556h320z" />
    <glyph glyph-name="uni2070" unicode="&#x2070;" horiz-adv-x="780" 
d="M279 1053l-5 -2q-75 75 -75 221q0 134 47 252q47 119 143 190q100 74 244 74q139 0 215 -76q78 -78 78 -221q0 -132 -47 -250t-144 -190q-100 -74 -241 -74q-139 0 -215 76zM608 1210l-2 -6q42 61 60 142q18 82 18 147q0 54 -20 80q-23 29 -62 29q-52 0 -94 -60
q-38 -55 -57 -139t-19 -146q0 -52 21 -79t61 -27q53 0 94 59z" />
    <glyph glyph-name="uni2074" unicode="&#x2074;" horiz-adv-x="765" 
d="M805 1352h98l-39 -185h-100l-37 -176h-238l37 176h-366l49 234l252 368h432zM641 1698l-244 -346h170z" />
    <glyph glyph-name="uni2075" unicode="&#x2075;" horiz-adv-x="749" 
d="M877 1585l-347 -2l-51 -172q26 44 80 80q50 33 111 33q91 0 147 -62q55 -61 55 -168q0 -98 -45 -166q-46 -70 -131 -110q-82 -39 -196 -39q-93 0 -166 31q-69 29 -111 90q-40 58 -43 139h240q3 -40 26 -63q25 -25 66 -25q51 0 86 35t35 86q0 35 -25 57q-24 21 -65 21
q-37 0 -64 -15q-29 -16 -43 -39l-231 21l135 452h578z" />
    <glyph glyph-name="uni2076" unicode="&#x2076;" horiz-adv-x="765" 
d="M817 1450v-6q62 -62 62 -164q0 -89 -50 -160q-48 -69 -135 -110q-82 -39 -194 -39q-89 0 -154 33q-66 34 -106 100q-39 65 -39 168q0 119 49 235q51 121 147 195q101 78 242 78q127 0 201 -62q73 -61 82 -168h-236q-3 26 -24 41q-24 17 -50 17q-58 0 -102 -56
q-46 -59 -66 -153q26 45 86 80q54 32 117 32q109 0 170 -61zM606 1178h-2q37 30 37 77q0 34 -25 56t-65 22q-57 0 -92 -30t-35 -74q0 -38 25 -60t65 -22q53 0 92 31z" />
    <glyph glyph-name="uni2077" unicode="&#x2077;" horiz-adv-x="626" 
d="M240 1585l41 184h575l-49 -233l-379 -545h-289l441 594h-340z" />
    <glyph glyph-name="uni2078" unicode="&#x2078;" horiz-adv-x="772" 
d="M864 1454l-6 -2q-61 -46 -160 -61q76 -15 123 -62t47 -110q0 -68 -43 -123q-41 -53 -129 -88q-82 -33 -207 -33q-93 0 -167 24q-72 23 -113 74q-41 50 -41 115q0 86 68 139t182 68q-71 24 -111 61q-39 36 -39 98q0 63 43 115t123 82q82 31 180 31q93 0 166 -25
q71 -24 109 -71q37 -46 37 -109q0 -76 -62 -123zM524 1583l2 -4q-26 -20 -26 -53q0 -27 22 -43q21 -15 62 -15q50 0 80 23q28 22 28 55q0 28 -24 43q-27 17 -64 17q-50 0 -80 -23zM598 1171l-6 5q37 24 37 61q0 30 -29 49q-28 19 -68 19q-55 0 -94 -25q-37 -24 -37 -61
q0 -35 29 -54q27 -18 74 -18q56 0 94 24z" />
    <glyph glyph-name="uni2079" unicode="&#x2079;" horiz-adv-x="763" 
d="M766 1751l-2 -4q69 -35 108 -100t39 -168q0 -120 -49 -236t-147 -192t-242 -76q-128 0 -201 61t-82 170h236q3 -23 25 -39q20 -14 49 -14q59 0 102 55q46 58 66 154q-26 -45 -86 -80q-56 -33 -117 -33q-108 0 -170 62t-62 164q0 88 50 159q49 70 135 111q82 39 194 39
q89 0 154 -33zM649 1448v-2q35 30 35 74q0 37 -25 59q-26 23 -63 23q-53 0 -92 -31q-37 -30 -37 -76q0 -33 25 -55q26 -23 65 -23q56 0 92 31z" />
    <glyph glyph-name="uni207A" unicode="&#x207a;" horiz-adv-x="671" 
d="M616 1454h193l-35 -170h-194l-43 -201h-179l43 201h-194l37 170h194l41 197h178z" />
    <glyph glyph-name="uni207B" unicode="&#x207b;" horiz-adv-x="630" 
d="M721 1284h-504l35 170h506z" />
    <glyph glyph-name="uni207C" unicode="&#x207c;" horiz-adv-x="681" 
d="M795 1401h-551l37 172h550zM745 1167h-550l34 170h551z" />
    <glyph glyph-name="uni207D" unicode="&#x207d;" horiz-adv-x="503" 
d="M295 885h-4q-36 82 -53 159q-19 84 -19 173q0 175 72 337q71 160 203 310h247q-132 -152 -211 -314q-75 -153 -75 -331q0 -95 18 -175q17 -73 49 -159h-227z" />
    <glyph glyph-name="uni207E" unicode="&#x207e;" horiz-adv-x="501" 
d="M104 885v-2q137 159 213 313q78 159 78 332q0 92 -18 174q-20 91 -51 160h229q35 -87 53 -166q19 -84 19 -168q0 -177 -72 -336q-71 -157 -203 -307h-248z" />
    <glyph glyph-name="uni2080" unicode="&#x2080;" horiz-adv-x="780" 
d="M18 -172l-4 -2q-75 75 -75 221q0 134 47 252q47 119 143 190q100 74 244 74q139 0 215 -76q78 -78 78 -221q0 -129 -48 -250q-47 -119 -143 -190q-100 -74 -242 -74q-139 0 -215 76zM348 -14l-2 -6q43 62 60 141q18 83 18 147q0 53 -21 80q-23 29 -61 29q-52 0 -94 -60
q-39 -57 -58 -139q-18 -80 -18 -145q0 -53 21 -80t61 -27q52 0 94 60z" />
    <glyph glyph-name="uni2081" unicode="&#x2081;" horiz-adv-x="489" 
d="M223 545h189l-166 -778h-238l103 479h-168l39 184h20q81 0 133 25q51 25 80 75z" />
    <glyph glyph-name="uni2082" unicode="&#x2082;" horiz-adv-x="731" 
d="M193 -49l374 -4l-39 -185h-653l49 234l402 240q39 23 59 43q18 18 18 43q0 26 -20 40q-24 17 -51 17q-37 0 -64 -21q-29 -22 -37 -57h-235q21 118 115 188q92 68 227 68q136 0 215 -55q80 -56 80 -156q0 -83 -49 -141q-50 -60 -131 -105z" />
    <glyph glyph-name="uni2083" unicode="&#x2083;" horiz-adv-x="722" 
d="M553 231l-10 -12q-66 -46 -170 -61q77 -12 129 -58q53 -47 53 -110q0 -64 -37 -119q-38 -55 -117 -90q-81 -35 -196 -35q-139 0 -221 70q-83 71 -86 192h235q6 -86 94 -86q42 0 70 25q27 24 27 57q0 34 -33 51q-36 19 -92 19h-60l39 180h64q68 0 102 18q35 18 35 50
q0 27 -19 43t-51 16q-35 0 -59 -21t-33 -51h-235q12 77 59 133q48 57 119 86q76 31 164 31t155 -27q68 -27 105 -73t37 -105q0 -76 -68 -123z" />
    <glyph glyph-name="uni2084" unicode="&#x2084;" horiz-adv-x="765" 
d="M545 127h98l-39 -184h-100l-37 -176h-238l37 176h-366l49 233l252 369h432zM381 473l-244 -346h170z" />
    <glyph glyph-name="uni2085" unicode="&#x2085;" horiz-adv-x="749" 
d="M616 360l-346 -2l-51 -172q26 44 80 80q50 33 111 33q92 0 147 -61t55 -168q0 -98 -45 -166q-47 -71 -131 -111q-82 -39 -196 -39q-93 0 -166 31q-69 29 -111 90q-40 58 -43 139h240q3 -40 26 -63q25 -25 66 -25q51 0 86 35t35 86q0 35 -25 57q-24 21 -65 21
q-39 0 -64 -14q-29 -16 -43 -39l-231 20l135 453h577z" />
    <glyph glyph-name="uni2086" unicode="&#x2086;" horiz-adv-x="765" 
d="M557 225v-6q61 -61 61 -164q0 -89 -49 -159t-135 -111q-82 -39 -194 -39q-89 0 -154 33q-66 34 -106 100q-39 65 -39 168q0 120 49 236q51 119 147 194q101 78 242 78q128 0 201 -61t82 -168h-236q-3 25 -25 41t-49 16q-59 0 -102 -55q-46 -58 -66 -154q26 45 86 80
q56 33 117 33q108 0 170 -62zM346 -47h-2q37 30 37 78q0 33 -25 55q-26 23 -65 23q-56 0 -92 -31q-35 -30 -35 -74q0 -38 24 -59q26 -23 66 -23q53 0 92 31z" />
    <glyph glyph-name="uni2087" unicode="&#x2087;" horiz-adv-x="626" 
d="M-20 360l40 185h576l-49 -234l-379 -544h-289l440 593h-339z" />
    <glyph glyph-name="uni2088" unicode="&#x2088;" horiz-adv-x="772" 
d="M604 229l-6 -2q-61 -46 -160 -61q76 -15 123 -62t47 -110q0 -68 -43 -123q-41 -53 -129 -88q-82 -33 -207 -33q-91 0 -168 25q-71 23 -112 73t-41 115q0 87 67 139q68 53 183 68q-71 24 -111 61q-39 36 -39 99q0 62 43 114t123 82q82 31 180 31q93 0 166 -25
q71 -24 109 -71q37 -46 37 -109q0 -76 -62 -123zM264 358l2 -4q-26 -20 -26 -53q0 -27 22 -43q20 -14 62 -14q51 0 79 22q29 23 29 56q0 28 -24 43q-26 16 -64 16q-50 0 -80 -23zM338 -53l-6 4q37 24 37 61q0 30 -29 49t-68 19q-55 0 -94 -25q-37 -24 -37 -61q0 -34 29 -53
q28 -19 74 -19q55 0 94 25z" />
    <glyph glyph-name="uni2089" unicode="&#x2089;" horiz-adv-x="763" 
d="M506 526l-2 -4q69 -35 108 -100t39 -168q0 -120 -49 -236t-147 -192t-242 -76q-127 0 -201 62q-73 61 -82 170h236q3 -24 24 -39t50 -15q58 0 102 56q46 59 66 153q-26 -45 -86 -80q-54 -32 -117 -32q-109 0 -170 61q-62 62 -62 164q0 89 50 160q48 69 135 110
q82 39 194 39q89 0 154 -33zM389 223v-2q35 30 35 74q0 37 -25 59q-26 23 -63 23q-53 0 -92 -31q-37 -30 -37 -76q0 -34 24 -55q25 -22 66 -22q57 0 92 30z" />
    <glyph glyph-name="uni208A" unicode="&#x208a;" horiz-adv-x="671" 
d="M356 231h193l-35 -170h-195l-43 -200h-178l43 200h-194l37 170h194l41 197h178z" />
    <glyph glyph-name="uni208B" unicode="&#x208b;" horiz-adv-x="630" 
d="M461 61h-504l35 170h506z" />
    <glyph glyph-name="uni208C" unicode="&#x208c;" horiz-adv-x="681" 
d="M535 178h-551l36 172h551zM485 -55h-551l35 170h551z" />
    <glyph glyph-name="uni208D" unicode="&#x208d;" horiz-adv-x="503" 
d="M35 -338h-4q-37 86 -54 160q-18 79 -18 172q0 176 72 338q71 160 202 309h248q-133 -153 -211 -313q-75 -153 -75 -332q0 -94 18 -174q17 -75 49 -160h-227z" />
    <glyph glyph-name="uni208E" unicode="&#x208e;" horiz-adv-x="501" 
d="M-154 -338v-2q137 159 213 313q78 159 78 332q0 91 -18 174q-20 91 -51 160h229q35 -87 53 -166q19 -84 19 -168q0 -177 -72 -336q-71 -157 -203 -307h-248z" />
    <glyph glyph-name="uni20A9" unicode="&#x20a9;" horiz-adv-x="2101" 
d="M2132 1104l-57 -266h-232l-41 -140h197l-57 -266h-220l-127 -432h-548l206 1516l-430 -1516h-557l58 432h-222l58 266h198l19 140h-236l58 266h213l59 452h299l-205 -1490l436 1490h517l-195 -1490l430 1490h301l-133 -452h211z" />
    <glyph glyph-name="Euro" unicode="&#x20ac;" horiz-adv-x="1714" 
d="M1079 303l2 -2q69 49 129 139h398q-75 -144 -191 -254q-110 -104 -248 -161q-136 -56 -278 -56q-172 0 -301 66q-128 65 -197 186q-71 124 -80 291h-250l121 211h138q13 79 20 104h-186l118 211h140q71 160 188 283q116 122 264 190t318 68q160 0 274 -57
q121 -60 189 -162q71 -106 92 -244h-398q-9 86 -61 135t-143 49q-96 0 -179 -71q-84 -72 -145 -191h555l-119 -211h-514q-13 -56 -22 -102h479l-119 -211h-371q9 -122 66 -192q56 -68 158 -68q83 0 153 49z" />
    <glyph glyph-name="uni20B8" unicode="&#x20b8;" horiz-adv-x="1343" 
d="M217 1290l55 266h1217l-55 -266h-1217zM547 913h-410l56 265h1216l-55 -265h-412l-194 -913h-394z" />
    <glyph glyph-name="uni20B9" unicode="&#x20b9;" horiz-adv-x="1460" 
d="M1542 1290l-325 4q22 -68 22 -135h272l-55 -266h-293q-83 -127 -243 -201q-162 -75 -369 -78l637 -612h-529l-548 541l82 381h403q86 0 139 26q58 28 84 70q29 47 29 94q0 61 -49 98t-131 37h-406l66 307h1271z" />
    <glyph glyph-name="uni20BA" unicode="&#x20ba;" horiz-adv-x="1515" 
d="M1466 647l2 -4q-56 -339 -254 -491q-201 -154 -552 -154h-512l106 506l-162 -47l56 264l163 47l25 119l-164 -47l57 264l162 47l86 403h393l-59 -282l397 114l-55 -264l-399 -114l-25 -119l397 115l-55 -267l-397 -114l-68 -318h76q120 0 195 37t122 111t74 194h391z" />
    <glyph glyph-name="uni20BD" unicode="&#x20bd;" horiz-adv-x="1576" 
d="M690 612l-24 -112h354l-57 -267h-355l-49 -233h-395l49 233h-172l57 267h172l25 112h-172l55 267h172l146 677h559q163 0 288 -49q128 -50 197 -143q70 -94 70 -227q0 -157 -76 -273q-75 -115 -234 -184q-157 -68 -387 -68h-223zM825 1249l-75 -372h182q140 0 213 55
q74 56 74 155q0 79 -54 121q-53 41 -157 41h-183z" />
    <glyph glyph-name="uni20BF" unicode="&#x20bf;" horiz-adv-x="1478" 
d="M1264 686l-2 -8q98 -85 98 -229q0 -158 -100 -267q-99 -108 -297 -155l-64 -303h-334l58 268h-84l-58 -268h-334l58 268h-168l332 1556h166l55 258h334l-56 -258h84l56 258h333l-67 -323q88 -46 135 -127q45 -77 45 -185q0 -118 -63 -196q-65 -80 -166 -123
q-105 -45 -217 -59q156 -21 256 -107zM1012 1204l-2 -2q-48 39 -133 39h-185l-69 -328h180q82 0 143 25q59 24 86 68q29 47 29 94q0 64 -49 104zM682 291v-2q99 0 166 28q65 27 92 74q29 50 29 98q0 70 -54 115q-52 43 -147 43h-201l-75 -356h190z" />
    <glyph glyph-name="uni2113" unicode="&#x2113;" horiz-adv-x="1267" 
d="M672 559l-51 -205q-1 -10 -2 -19.5t-2 -15.5t-1 -8q0 -90 123 -90t252 72l-51 -244q-85 -42 -170 -61q-84 -19 -178 -19q-172 0 -264 74t-92 207q0 50 8 86l-117 -62l-86 230l268 139l105 500q27 127 100 225q74 100 193 158q117 57 276 57q131 0 213 -39
q87 -41 129 -106q43 -67 43 -154q0 -180 -139 -340q-137 -158 -400 -303zM850 1278l-2 2q-44 -50 -62 -135l-55 -264q139 93 215 188q74 92 74 176q0 82 -76 82q-51 0 -94 -49z" />
    <glyph glyph-name="uni2116" unicode="&#x2116;" horiz-adv-x="2746" 
d="M2654 1544l-2 -2q84 -38 127 -108t43 -170q0 -126 -61 -236q-62 -112 -174 -178q-115 -68 -269 -68q-115 0 -196 37q-83 38 -127 109q-43 70 -43 170q0 127 61 237t176 178t269 68q115 0 196 -37zM1108 1552l98 -1446l307 1446h400l-330 -1556h-733l-98 1446l-308 -1446
h-399l330 1556h733zM2433 1026v2q38 44 59 109q21 64 21 133q0 53 -25 84q-24 30 -67 30q-47 0 -84 -43t-58 -110q-20 -64 -20 -135q0 -51 25 -82t65 -31q47 0 84 43z" />
    <glyph glyph-name="uni2117" unicode="&#x2117;" horiz-adv-x="1914" 
d="M1425 1505l-4 -8q195 -115 308 -307q114 -193 114 -420q0 -230 -112 -420q-113 -192 -308 -307q-192 -113 -424 -113q-229 0 -424 115q-193 114 -307 307q-112 190 -112 422q0 229 114 422q113 192 308 307t423 115q232 0 424 -113zM1323 213l-4 -2q147 86 233 233
q86 148 86 322q0 176 -86 324q-86 147 -233 233q-148 86 -322 86q-173 0 -321 -86q-149 -87 -234 -233q-86 -148 -86 -322t86 -322q85 -146 234 -233q148 -86 323 -86q176 0 324 86zM1065 1217h-2q125 0 207 -39q86 -40 129 -111q43 -70 43 -162t-43 -162q-43 -69 -129 -110
q-82 -39 -205 -39h-131v-285h-262v908h393zM1047 809h-3q60 0 91 25q30 24 30 71q0 48 -30 72t-88 24h-115v-192h115z" />
    <glyph glyph-name="uni2120" unicode="&#x2120;" horiz-adv-x="2023" 
d="M723 1257l-8 -4q215 -47 215 -237q0 -125 -94 -189q-95 -65 -258 -65q-93 0 -172 31q-73 29 -125 90q-49 58 -58 135h246q12 -46 43 -68q29 -20 84 -20q51 0 80 16t29 43t-29 43q-32 18 -86 29l-125 24q-227 46 -227 234q0 74 43 129q45 57 118 86q79 31 172 31
q157 0 242 -64q87 -66 111 -166h-250q-9 28 -39 43q-34 17 -70 17q-40 0 -67 -15t-27 -37q0 -15 12 -24q14 -10 37 -19t78 -18zM1978 1552v-778h-225v692l-98 -692h-355l-98 692v-692h-225v778h418l84 -649l82 649h417z" />
    <glyph glyph-name="trademark" unicode="&#x2122;" horiz-adv-x="2031" 
d="M473 1352h-215v204h680v-204h-217v-574h-248v574zM1980 1556v-778h-225v692l-98 -692h-354l-99 692v-692h-225v778h418l82 -649l82 649h419z" />
    <glyph glyph-name="uni2150" unicode="&#x2150;" horiz-adv-x="1710" 
d="M1079 594l41 184h576l-49 -233l-379 -545h-289l440 594h-340zM479 1556h189l-166 -778h-238l103 479h-168l39 185h20q84 0 133 24q51 25 80 76zM406 0h-320l1157 1556h320z" />
    <glyph glyph-name="uni2151" unicode="&#x2151;" horiz-adv-x="1759" 
d="M1532 760l-2 -4q68 -35 108 -101q39 -65 39 -168q0 -119 -49 -235q-50 -118 -147 -193t-242 -75q-128 0 -201 61t-82 170h236q3 -23 25 -39q20 -14 49 -14q59 0 102 55q46 58 66 154q-26 -45 -86 -80q-56 -33 -117 -33q-109 0 -170 61q-62 62 -62 164q0 89 50 160
q49 71 135 111q82 39 194 39q89 0 154 -33zM1415 457v-2q35 30 35 73q0 38 -25 60t-63 22q-54 0 -92 -30q-37 -30 -37 -76q0 -34 24 -55q26 -23 66 -23q56 0 92 31zM475 1550h189l-166 -778h-238l102 479h-167l38 185h21q84 0 133 24q51 25 80 76zM401 -6h-319l1157 1556
h320z" />
    <glyph glyph-name="uni2152" unicode="&#x2152;" horiz-adv-x="2301" 
d="M1309 778h188l-166 -778h-237l102 479h-168l39 185h20q85 0 134 24t79 76zM1569 61l-4 -2q-76 76 -76 222q0 133 47 251q48 120 143 191q100 74 244 74q139 0 215 -76q78 -78 78 -221q0 -132 -47 -250q-47 -119 -144 -191q-98 -73 -241 -73q-140 0 -215 75zM1898 219
l-2 -6q43 62 60 141q18 83 18 148q0 54 -20 80q-22 28 -62 28q-53 0 -94 -59q-38 -55 -57 -139t-19 -146q0 -53 21 -80q20 -26 61 -26q53 0 94 59zM471 1548h188l-165 -778h-238l102 479h-168l39 185h21q84 0 133 24q51 25 80 76zM397 -8h-319l1157 1556h319z" />
    <glyph glyph-name="uni2153" unicode="&#x2153;" horiz-adv-x="1724" 
d="M479 1556h189l-166 -778h-238l103 479h-168l39 185h20q84 0 133 24q51 25 80 76zM406 0h-320l1157 1556h320zM1577 465l-10 -12q-68 -47 -170 -62q79 -12 129 -57q53 -47 53 -111t-37 -119q-38 -56 -117 -90q-78 -34 -196 -34q-140 0 -221 69q-83 71 -86 193h235
q6 -86 94 -86q43 0 70 24t27 58t-33 51q-35 18 -92 18h-60l39 180h64q66 0 102 19q35 18 35 49q0 27 -19 43t-51 16q-36 0 -59 -20q-24 -21 -33 -51h-235q12 77 59 133q48 57 119 86q76 31 164 31t155 -27t105 -74q37 -46 37 -104q0 -76 -68 -123z" />
    <glyph glyph-name="uni2154" unicode="&#x2154;" horiz-adv-x="1953" 
d="M434 963l375 -5l-39 -184h-653l49 234l401 239q42 25 60 43t18 43q0 27 -20 41q-24 17 -52 17q-36 0 -63 -21q-29 -22 -37 -57h-235q21 119 114 188q92 68 228 68q135 0 215 -56q79 -55 79 -155q0 -83 -49 -141q-50 -60 -131 -105zM641 -4h-319l1157 1556h319zM1815 461
l-11 -12q-68 -47 -170 -62q79 -12 129 -57q54 -48 54 -111q0 -64 -37 -119q-38 -56 -117 -90q-81 -35 -197 -35q-139 0 -221 70q-83 71 -86 193h236q6 -86 94 -86q43 0 70 24q26 23 26 57q0 35 -33 52q-35 18 -92 18h-59l39 180h63q67 0 103 19q34 18 34 49q0 28 -18 43
q-19 16 -51 16q-37 0 -60 -20t-32 -51h-236q12 76 60 133q48 58 118 86q73 30 164 30t156 -26t104 -74q37 -46 37 -104q0 -77 -67 -123z" />
    <glyph glyph-name="uni2155" unicode="&#x2155;" horiz-adv-x="1781" 
d="M1671 594l-346 -2l-51 -172q26 44 80 80q49 32 110 32q93 0 148 -61t55 -168q0 -98 -45 -166q-46 -70 -131 -110q-82 -39 -197 -39q-96 0 -166 30q-67 28 -110 91q-40 58 -43 139h239q3 -40 27 -64t66 -24q51 0 86 35q34 34 34 86q0 36 -24 57q-23 20 -66 20
q-38 0 -63 -14q-29 -16 -43 -39l-232 21l136 452h577zM485 1554h189l-166 -778h-238l103 479h-168l39 185h20q84 0 133 24q51 25 80 76zM412 -2h-320l1157 1556h320z" />
    <glyph glyph-name="uni2156" unicode="&#x2156;" horiz-adv-x="2011" 
d="M434 963l375 -5l-39 -184h-653l49 234l401 239q42 25 60 43t18 43q0 27 -20 41q-24 17 -52 17q-36 0 -63 -21q-29 -22 -37 -57h-235q21 119 114 188q92 68 228 68q135 0 215 -56q79 -55 79 -155q0 -83 -49 -141q-50 -60 -131 -105zM641 -4h-319l1157 1556h319zM1905 590
l-346 -2l-52 -172q26 44 80 80q49 32 111 32q92 0 147 -61q56 -62 56 -168q0 -96 -46 -166t-131 -110q-82 -39 -196 -39q-96 0 -166 30q-69 29 -111 90q-40 58 -43 140h240q3 -40 27 -64t65 -24q52 0 86 34q35 35 35 86q0 36 -25 58q-23 20 -65 20q-39 0 -64 -14
q-29 -16 -43 -39l-231 21l135 452h578z" />
    <glyph glyph-name="uni2157" unicode="&#x2157;" horiz-adv-x="1959" 
d="M801 1243l-10 -12q-68 -47 -170 -62q79 -12 129 -57q53 -47 53 -111q0 -63 -37 -118q-38 -55 -117 -90q-81 -35 -196 -35q-141 0 -222 69q-83 71 -86 193h236q6 -86 94 -86q43 0 70 24q26 23 26 58q0 34 -32 51q-35 18 -93 18h-59l39 181h63q69 0 103 18q35 18 35 49
q0 27 -19 43q-20 17 -51 17q-35 0 -59 -21t-33 -51h-236q12 76 60 133t119 86q76 31 163 31q89 0 156 -27q65 -26 104 -74q37 -46 37 -104q0 -77 -67 -123zM573 -12h-319l1157 1556h320zM1837 582l-346 -2l-51 -172q25 43 80 79q50 33 110 33q93 0 148 -61t55 -168
q0 -98 -45 -166q-47 -71 -131 -111q-82 -39 -197 -39q-93 0 -166 31q-68 29 -110 90q-40 58 -43 140h239q3 -40 27 -64q25 -25 66 -25q51 0 86 35q34 34 34 86q0 37 -24 58q-23 20 -66 20q-38 0 -63 -14q-29 -16 -43 -39l-232 20l135 453h578z" />
    <glyph glyph-name="uni2158" unicode="&#x2158;" horiz-adv-x="2011" 
d="M784 1139h99l-39 -185h-101l-36 -176h-238l37 176h-367l49 234l252 368h432zM621 1485l-244 -346h170zM635 0h-320l1158 1556h319zM1901 594l-347 -2l-51 -172q26 44 80 80q49 32 111 32q92 0 147 -61t55 -168q0 -98 -45 -166q-46 -70 -131 -110q-82 -39 -196 -39
q-96 0 -166 30q-68 29 -111 91q-40 58 -43 139h240q3 -41 26 -64q24 -24 66 -24q51 0 86 35t35 86q0 35 -25 57q-23 20 -65 20q-39 0 -64 -14q-29 -16 -43 -39l-231 21l135 452h578z" />
    <glyph glyph-name="uni2159" unicode="&#x2159;" horiz-adv-x="1744" 
d="M1565 459v-6q61 -61 61 -164q0 -90 -49 -160q-49 -71 -135 -111q-80 -38 -195 -38q-90 0 -153 32q-67 34 -107 101q-39 65 -39 168q0 119 49 235q51 120 148 195q100 77 241 77q128 0 201 -61t82 -168h-235q-3 25 -25 41t-49 16q-60 0 -103 -55q-45 -57 -65 -153
q25 43 86 79q56 33 117 33q109 0 170 -61zM1354 186h-2q37 30 37 78q0 33 -25 55q-26 23 -66 23q-56 0 -92 -31q-35 -30 -35 -73q0 -38 25 -60t66 -22q54 0 92 30zM475 1548h189l-166 -778h-238l102 479h-167l38 185h21q84 0 133 24q51 25 80 76zM401 -8h-319l1157 1556h320
z" />
    <glyph glyph-name="uni215A" unicode="&#x215a;" horiz-adv-x="1927" 
d="M852 1372l-346 -2l-51 -172q26 44 80 80q50 33 110 33q92 0 148 -62q55 -61 55 -168q0 -98 -45 -166q-46 -70 -131 -110q-82 -39 -197 -39q-93 0 -166 31q-68 29 -110 90q-40 58 -43 139h239q3 -39 27 -63q25 -25 65 -25q51 0 86 35t35 86q0 36 -24 57t-66 21
q-36 0 -63 -15q-29 -16 -43 -39l-232 21l135 452h578zM594 -2h-320l1158 1556h319zM1753 457v-6q62 -62 62 -164q0 -89 -50 -160q-49 -71 -135 -111q-82 -39 -194 -39q-89 0 -154 33t-106 101q-39 65 -39 168q0 119 49 235q51 121 147 195q100 77 242 77q128 0 201 -61
t82 -168h-236q-3 25 -25 41t-49 16q-59 0 -102 -55q-46 -59 -66 -153q25 43 86 79q56 33 117 33q109 0 170 -61zM1542 184h-2q37 30 37 78q0 33 -25 55q-26 23 -65 23q-56 0 -92 -31q-35 -30 -35 -73q0 -39 24 -60q25 -22 66 -22q54 0 92 30z" />
    <glyph glyph-name="oneeighth" unicode="&#x215b;" horiz-adv-x="1763" 
d="M1622 463l-6 -2q-62 -47 -160 -62q77 -15 123 -61q47 -47 47 -111q0 -68 -43 -123q-41 -53 -129 -88q-79 -32 -207 -32q-95 0 -168 24q-70 23 -112 74q-41 50 -41 115q0 87 67 139q66 52 183 67q-70 24 -111 62q-39 36 -39 98q0 63 43 115t123 82q82 31 180 31
q93 0 166 -25q70 -24 109 -72q36 -45 36 -108q0 -77 -61 -123zM1282 592l2 -4q-27 -21 -27 -53q0 -27 23 -43q21 -15 61 -15q50 0 80 23q29 23 29 55q0 27 -25 43q-26 16 -63 16q-52 0 -80 -22zM1356 180l-6 4q36 23 36 62q0 30 -28 49q-27 18 -68 18q-56 0 -94 -24
q-37 -24 -37 -62q0 -34 29 -53q27 -18 74 -18q56 0 94 24zM467 1552h188l-166 -778h-237l102 479h-168l39 185h21q84 0 133 24q51 25 80 76zM393 -4h-319l1157 1556h319z" />
    <glyph glyph-name="threeeighths" unicode="&#x215c;" horiz-adv-x="1939" 
d="M801 1243l-10 -12q-68 -47 -170 -62q79 -12 129 -57q53 -47 53 -111q0 -63 -37 -118q-38 -55 -117 -90q-81 -35 -196 -35q-141 0 -222 69q-83 71 -86 193h236q6 -86 94 -86q43 0 70 24q26 23 26 58q0 34 -32 51q-35 18 -93 18h-59l39 181h63q69 0 103 18q35 18 35 49
q0 27 -19 43q-20 17 -51 17q-35 0 -59 -21t-33 -51h-236q12 76 60 133t119 86q76 31 163 31q89 0 156 -27q65 -26 104 -74q37 -46 37 -104q0 -77 -67 -123zM573 -12h-319l1157 1556h320zM1788 451l-6 -2q-62 -47 -160 -62q77 -15 123 -61q47 -47 47 -111q0 -68 -43 -123
q-41 -53 -129 -88q-82 -33 -207 -33q-91 0 -168 25q-70 23 -112 74q-41 50 -41 114q0 88 67 140t182 67q-68 23 -110 62q-39 36 -39 98q0 63 43 115t123 82t180 30q95 0 166 -24q69 -23 108 -72q37 -46 37 -109q0 -76 -61 -122zM1448 580l2 -5q-27 -21 -27 -53q0 -27 23 -43
q20 -14 61 -14q52 0 80 22q29 23 29 56q0 27 -25 43q-26 16 -63 16q-52 0 -80 -22zM1522 168l-6 4q36 23 36 61q0 31 -28 50q-27 18 -68 18q-55 0 -94 -25q-37 -24 -37 -61q0 -34 29 -53q28 -19 73 -19q56 0 95 25z" />
    <glyph glyph-name="fiveeighths" unicode="&#x215d;" horiz-adv-x="1943" 
d="M852 1372l-346 -2l-51 -172q26 44 80 80q50 33 110 33q92 0 148 -62q55 -61 55 -168q0 -98 -45 -166q-46 -70 -131 -110q-82 -39 -197 -39q-93 0 -166 31q-68 29 -110 90q-40 58 -43 139h239q3 -39 27 -63q25 -25 65 -25q51 0 86 35t35 86q0 36 -24 57t-66 21
q-36 0 -63 -15q-29 -16 -43 -39l-232 21l135 452h578zM594 -2h-320l1158 1556h319zM1808 461l-6 -2q-62 -47 -160 -62q77 -15 123 -61q47 -47 47 -111q0 -68 -43 -123q-41 -53 -129 -88q-79 -32 -206 -32q-94 0 -168 24q-72 23 -113 74q-41 50 -41 115q0 86 68 139
q67 52 182 67q-70 24 -111 62q-39 36 -39 98q0 63 43 115t123 82t181 30q95 0 165 -24t109 -72q37 -46 37 -108q0 -76 -62 -123zM1468 590l2 -4q-26 -20 -26 -54q0 -27 22 -43q20 -14 62 -14q50 0 80 23q28 22 28 55q0 28 -24 43q-26 16 -64 16q-52 0 -80 -22zM1542 178
l-6 4q37 24 37 62q0 30 -29 49q-27 18 -67 18q-57 0 -95 -24q-36 -23 -36 -62q0 -34 28 -53q27 -18 74 -18q56 0 94 24z" />
    <glyph glyph-name="seveneighths" unicode="&#x215e;" horiz-adv-x="1835" 
d="M236 1372l40 184h576l-49 -233l-379 -545h-289l440 594h-339zM481 0h-319l1157 1556h319zM1696 463l-6 -2q-62 -47 -160 -62q77 -15 123 -61q47 -47 47 -111q0 -68 -43 -123q-41 -53 -129 -88q-79 -32 -207 -32q-95 0 -168 24q-72 23 -113 74q-41 50 -41 115q0 86 68 139
q67 52 182 67q-68 23 -110 62q-39 36 -39 98q0 63 43 115t123 82q82 31 180 31q93 0 166 -25q69 -23 108 -72q37 -46 37 -108q0 -77 -61 -123zM1356 592l2 -4q-27 -21 -27 -53q0 -27 23 -43q21 -15 61 -15q50 0 80 23q29 23 29 55q0 27 -25 43q-26 16 -63 16q-52 0 -80 -22z
M1430 180l-7 4q37 24 37 62q0 30 -28 49q-27 18 -68 18q-56 0 -94 -24q-37 -24 -37 -62q0 -34 29 -53q27 -18 73 -18q57 0 95 24z" />
    <glyph glyph-name="uni215F" unicode="&#x215f;" horiz-adv-x="1433" 
d="M512 1556h188l-165 -778h-238l102 479h-168l39 185h21q83 0 133 24q51 25 80 76zM438 0h-319l1157 1556h319z" />
    <glyph glyph-name="uni2189" unicode="&#x2189;" horiz-adv-x="1910" 
d="M252 840l-4 -2q-76 76 -76 221q0 134 47 252q47 119 143 190q100 74 244 74q139 0 215 -76q78 -78 78 -221q0 -132 -47 -250q-47 -119 -143 -190q-100 -74 -242 -74q-139 0 -215 76zM582 997l-2 -6q41 59 59 142t18 147q0 54 -20 80q-23 29 -62 29q-52 0 -94 -60
q-38 -55 -57 -139q-18 -79 -18 -146q0 -53 20 -79q21 -27 61 -27q54 0 95 59zM586 -8h-320l1157 1556h320zM1759 457l-10 -13q-66 -46 -170 -61q79 -12 129 -57q53 -47 53 -111t-37 -119q-38 -56 -116 -90q-81 -35 -197 -35q-139 0 -221 70q-83 71 -86 192h235q6 -86 95 -86
q41 0 69 25q27 24 27 57q0 35 -33 52q-35 18 -92 18h-59l38 180h64q66 0 102 19q35 18 35 49q0 28 -18 43q-19 16 -51 16q-37 0 -60 -20q-24 -21 -33 -51h-235q12 77 59 133q48 57 119 86q74 30 164 30q91 0 156 -26t104 -74q37 -46 37 -104q0 -76 -68 -123z" />
    <glyph glyph-name="arrowleft" unicode="&#x2190;" horiz-adv-x="1576" 
d="M651 946h895v-336h-893l371 -411h-424l-446 581l446 580h424z" />
    <glyph glyph-name="arrowup" unicode="&#x2191;" horiz-adv-x="1576" 
d="M836 1475l581 -445v-424l-413 371v-895h-336v897l-414 -373v424z" />
    <glyph glyph-name="arrowright" unicode="&#x2192;" horiz-adv-x="1576" 
d="M647 1360h424l445 -580l-445 -581h-424l371 411h-895v336h897z" />
    <glyph glyph-name="arrowdown" unicode="&#x2193;" horiz-adv-x="1576" 
d="M1004 1475v-895l413 370v-422l-581 -446l-582 446v422l414 -372v897h336z" />
    <glyph glyph-name="uni2196" unicode="&#x2196;" horiz-adv-x="1576" 
d="M834 1022l653 -653l-234 -234l-653 651v-591l-301 286v842h842l286 -301h-593z" />
    <glyph glyph-name="uni2197" unicode="&#x2197;" horiz-adv-x="1576" 
d="M221 1022l287 301h842v-842l-301 -286v591l-654 -651l-231 234l651 653h-594z" />
    <glyph glyph-name="uni2198" unicode="&#x2198;" horiz-adv-x="1576" 
d="M1071 770v592l301 -287v-842h-844l-286 302h596l-654 653l234 233z" />
    <glyph glyph-name="uni2199" unicode="&#x2199;" horiz-adv-x="1576" 
d="M1274 1421l233 -233l-653 -653h596l-287 -302h-844v842l302 287v-594z" />
    <glyph glyph-name="uni21A4" unicode="&#x21a4;" horiz-adv-x="1576" 
d="M1171 946v414h336v-1163h-336v413h-618l371 -413h-424l-447 581l447 582h424l-371 -414h618z" />
    <glyph glyph-name="uni21A5" unicode="&#x21a5;" horiz-adv-x="1576" 
d="M1432 1161v-422l-412 371v-674h412v-336h-1162v336h414v676l-414 -373v422l582 447z" />
    <glyph glyph-name="uni21A6" unicode="&#x21a6;" horiz-adv-x="1576" 
d="M748 1360h423l445 -582l-445 -581h-423l370 413h-618v-413h-336v1163h336v-414h618z" />
    <glyph glyph-name="uni21A7" unicode="&#x21a7;" horiz-adv-x="1576" 
d="M1401 1456v-336h-414v-676l414 373v-422l-582 -446l-581 446v422l413 -371v674h-413v336h1163z" />
    <glyph glyph-name="uni21B0" unicode="&#x21b0;" horiz-adv-x="1576" 
d="M528 946h924v-946h-334v610h-590l371 -413h-424l-444 581l444 582h424z" />
    <glyph glyph-name="uni21B1" unicode="&#x21b1;" horiz-adv-x="1576" 
d="M729 1360h422l446 -582l-446 -581h-422l371 413h-590v-610h-334v946h924z" />
    <glyph glyph-name="uni21B2" unicode="&#x21b2;" horiz-adv-x="1576" 
d="M1159 946v610h336v-946h-924l371 -413h-424l-446 581l446 582h424l-371 -414h588z" />
    <glyph glyph-name="uni21B3" unicode="&#x21b3;" horiz-adv-x="1576" 
d="M768 1360h424l446 -582l-446 -581h-424l373 413h-926v946h336v-610h590z" />
    <glyph glyph-name="partialdiff" unicode="&#x2202;" horiz-adv-x="1296" 
d="M309 1583v2q304 -35 504 -155q206 -123 311 -320q105 -196 105 -448q0 -340 -148 -517q-146 -174 -442 -174q-155 0 -285 62t-209 178t-79 287q0 163 65 278q63 112 176 168q110 55 242 55q152 0 244 -69q95 -71 147 -178q-12 142 -84 262q-71 117 -209 194
q-141 78 -338 99v276zM782 301l-6 2q51 71 51 201q0 118 -49 182q-51 66 -139 66t-141 -68q-52 -67 -52 -184q0 -123 54 -199q53 -74 141 -74t141 74z" />
    <glyph glyph-name="product" unicode="&#x220f;" horiz-adv-x="2086" 
d="M2087 1556v-321h-275v-1511h-391v1511h-508v-1511h-391v1511h-274v321h1839z" />
    <glyph glyph-name="summation" unicode="&#x2211;" horiz-adv-x="1720" 
d="M1313 659l-629 -614h821v-321h-1249v411l539 520l-539 490v411h1245v-321h-815z" />
    <glyph glyph-name="minus" unicode="&#x2212;" horiz-adv-x="1200" 
d="M1102 422h-1002v285h1002v-285z" />
    <glyph glyph-name="radical" unicode="&#x221a;" horiz-adv-x="1400" 
d="M723 2l393 1554h391l-469 -1832h-622l-193 655h-223v321h530z" />
    <glyph glyph-name="infinity" unicode="&#x221e;" horiz-adv-x="2373" 
d="M1985 1036h6q132 -69 207 -190q77 -124 77 -281q0 -156 -77 -280q-76 -123 -207 -191q-128 -67 -275 -67q-316 0 -522 274q-104 -135 -229 -203q-130 -71 -295 -71q-147 0 -275 67q-131 68 -207 191q-77 124 -77 280q0 157 77 281q75 121 207 190q130 68 275 68
q166 0 293 -74q122 -71 227 -207q105 136 227 207q127 74 293 74q145 0 275 -68zM985 516l31 53l-31 47q-67 95 -137 148q-73 55 -160 55q-66 0 -123 -31t-86 -88q-30 -58 -30 -135t30 -135q29 -57 86 -88t123 -31q156 0 297 205zM1825 350l2 -10q57 31 86 88q31 60 31 135
t-31 135q-29 57 -86 88t-123 31q-87 0 -160 -55q-70 -53 -137 -148l-31 -47l29 -43q141 -205 297 -205q66 0 123 31z" />
    <glyph glyph-name="integral" unicode="&#x222b;" horiz-adv-x="784" 
d="M-63 -401l-3 272h95q89 0 133 41q43 40 43 135v1088q0 154 55 245q56 93 166 133q112 41 279 41h147v-274h-94q-89 0 -131 -39q-43 -40 -43 -135v-1088q0 -153 -56 -245q-56 -93 -166 -133q-112 -41 -278 -41h-147z" />
    <glyph glyph-name="approxequal" unicode="&#x2248;" horiz-adv-x="1470" 
d="M117 772v-6q76 120 172 182q95 62 198 62q60 0 117 -13q60 -14 135 -45q77 -30 129 -45q49 -14 105 -14q63 0 114 31q49 30 103 90l174 -180q-75 -115 -172 -181q-92 -63 -197 -63q-63 0 -116 12q-52 12 -136 47q-95 37 -129 47q-59 17 -104 17q-63 0 -117 -31
q-46 -26 -100 -90zM117 287v-6q76 120 172 182q94 61 198 61q65 0 117 -12q60 -14 135 -45q77 -30 129 -45q49 -14 105 -14q65 0 114 30t103 90l174 -180q-74 -113 -172 -180q-94 -64 -197 -64q-59 0 -116 13q-52 12 -136 47q-95 37 -129 47q-56 16 -104 16q-64 0 -117 -30
q-45 -25 -100 -91z" />
    <glyph glyph-name="notequal" unicode="&#x2260;" horiz-adv-x="1384" 
d="M1229 936v-285h-309l-95 -168h404v-284h-563l-111 -199h-352l110 199h-153v284h313l94 168h-407v285h567l104 184h353l-105 -184h150z" />
    <glyph glyph-name="lessequal" unicode="&#x2264;" horiz-adv-x="1331" 
d="M154 946l1003 180v-264l-827 -131l827 -131v-262l-1003 180v428zM1157 0h-1003v272h1003v-272z" />
    <glyph glyph-name="greaterequal" unicode="&#x2265;" horiz-adv-x="1361" 
d="M176 862v264l1004 -180v-428l-1004 -180v262l828 131zM1180 0h-1004v272h1004v-272z" />
    <glyph glyph-name="uni2300" unicode="&#x2300;" horiz-adv-x="1327" 
d="M1284 1018l-131 -135q49 -74 72 -154q24 -83 24 -172q0 -159 -80 -295q-80 -135 -215 -215q-136 -80 -295 -80q-86 0 -172 25q-81 24 -153 71l-131 -131l-170 166l133 133q-96 149 -96 326q0 159 80 295q80 135 215 215q136 80 294 80q86 0 172 -25q83 -24 154 -71
l131 133zM383 446l393 392q-58 22 -110 22q-83 0 -154 -41t-111 -110q-41 -71 -41 -150q0 -52 23 -113zM946 674l-395 -400q58 -22 113 -22q79 0 149 43t113 113t43 149q0 53 -23 117z" />
    <glyph glyph-name="uni2460" unicode="&#x2460;" horiz-adv-x="1912" 
d="M1434 1522q196 -114 311 -312t115 -430t-115 -430q-114 -197 -311 -311q-198 -115 -430 -115q-233 0 -431 115q-197 114 -311 311q-115 198 -115 430t115 430t311 312q197 114 431 114t430 -114zM1346 186l-5 -4q158 92 250 250q92 157 92 344t-92 344q-93 159 -248 250
q-157 92 -344 92t-344 -92q-155 -91 -247 -248q-93 -159 -93 -344t93 -344q91 -155 249 -248q157 -92 344 -92q188 0 345 92zM932 1241l221 -2v-934h-270v580h-201v217h20q94 0 148 31q52 30 76 94z" />
    <glyph glyph-name="uni2461" unicode="&#x2461;" horiz-adv-x="1912" 
d="M1434 1522q196 -114 311 -312t115 -430t-115 -430q-114 -197 -311 -311q-198 -115 -430 -115q-233 0 -431 115q-197 114 -311 311q-115 198 -115 430t115 430t311 312q197 114 431 114t430 -114zM1346 186l-5 -4q158 92 250 250q92 157 92 344t-92 344q-93 159 -248 250
q-157 92 -344 92t-344 -92q-155 -91 -247 -248q-93 -159 -93 -344t93 -344q91 -155 249 -248q157 -92 344 -92q188 0 345 92zM926 524l467 -2v-217h-779v273l420 299q32 25 49 49t17 49q0 34 -27 55q-30 23 -74 23t-75 -25q-30 -24 -33 -67h-279q3 85 54 155q50 68 135 105
q82 36 194 36q113 0 197 -34q86 -35 135 -99t49 -147q0 -82 -43 -143q-43 -62 -135 -123z" />
    <glyph glyph-name="uni2462" unicode="&#x2462;" horiz-adv-x="1912" 
d="M1434 1522q196 -114 311 -312t115 -430t-115 -430q-114 -197 -311 -311q-198 -115 -430 -115q-233 0 -431 115q-197 114 -311 311q-115 198 -115 430t115 430t311 312q197 114 431 114t430 -114zM1346 186l-5 -4q158 92 250 250q92 157 92 344t-92 344q-93 159 -248 250
q-157 92 -344 92t-344 -92q-155 -91 -247 -248q-93 -159 -93 -344t93 -344q91 -155 249 -248q157 -92 344 -92q188 0 345 92zM1309 725l-9 -14q80 -56 80 -160q0 -87 -49 -148q-50 -63 -137 -92q-88 -30 -211 -30q-189 0 -287 79q-99 79 -108 226h278q3 -49 31 -74t84 -25
q47 0 86 25q37 24 37 68q0 53 -45 73q-51 23 -125 23h-64v217h64q149 0 149 80q0 35 -26 55q-27 21 -70 21q-47 0 -72 -25t-28 -61h-277q6 87 58 151q54 66 135 103q79 36 184 36q103 0 189 -30q83 -29 137 -86q51 -54 51 -129q0 -103 -64 -152q-65 -50 -178 -68
q110 -9 187 -63z" />
    <glyph glyph-name="uni2463" unicode="&#x2463;" horiz-adv-x="1912" 
d="M1434 1522q196 -114 311 -312t115 -430t-115 -430q-114 -197 -311 -311q-198 -115 -430 -115q-233 0 -431 115q-197 114 -311 311q-115 198 -115 430t115 430t311 312q197 114 431 114t430 -114zM1346 186l-5 -4q158 92 250 250q92 157 92 344t-92 344q-93 159 -248 250
q-157 92 -344 92t-344 -92q-155 -91 -247 -248q-93 -159 -93 -344t93 -344q91 -155 249 -248q157 -92 344 -92q188 0 345 92zM1270 1241v-504h123v-217h-123v-213h-271v213h-444v271l229 450h486zM999 1153l-215 -416h215v416z" />
    <glyph glyph-name="uni2464" unicode="&#x2464;" horiz-adv-x="1912" 
d="M1434 1522q196 -114 311 -312t115 -430t-115 -430q-114 -197 -311 -311q-198 -115 -430 -115q-233 0 -431 115q-197 114 -311 311q-115 198 -115 430t115 430t311 312q197 114 431 114t430 -114zM1346 186l-5 -4q158 92 250 250q92 157 92 344t-92 344q-93 159 -248 250
q-157 92 -344 92t-344 -92q-155 -91 -247 -248q-93 -159 -93 -344t93 -344q91 -155 249 -248q157 -92 344 -92q188 0 345 92zM1249 907l-2 -2q65 -38 105 -110q39 -71 39 -179q0 -109 -52 -182q-51 -72 -141 -110q-87 -37 -203 -37q-111 0 -198 37q-91 39 -142 104
q-53 68 -59 164h278q3 -45 35 -74t84 -29q53 0 86 33q35 35 35 92q0 60 -33 93q-32 32 -86 32q-41 0 -71 -18t-45 -53l-271 22l45 549h674v-217h-424l-18 -217q23 56 84 98q59 41 135 41q81 0 145 -37z" />
    <glyph glyph-name="uni2465" unicode="&#x2465;" horiz-adv-x="1912" 
d="M1434 1522q196 -114 311 -312t115 -430t-115 -430q-114 -197 -311 -311q-198 -115 -430 -115q-233 0 -431 115q-197 114 -311 311q-115 198 -115 430t115 430t311 312q197 114 431 114t430 -114zM1346 186l-5 -4q158 92 250 250q92 157 92 344t-92 344q-93 159 -248 250
q-157 92 -344 92t-344 -92q-155 -91 -247 -248q-93 -159 -93 -344t93 -344q91 -155 249 -248q157 -92 344 -92q188 0 345 92zM1243 891l-6 -8q73 -37 117 -109q43 -70 43 -166q0 -97 -51 -168q-52 -74 -144 -114q-93 -41 -213 -41q-126 0 -221 53t-147 160q-54 111 -54 270
q0 161 56 270q56 108 149 160q95 53 221 53q112 0 193 -37q82 -37 131 -98q47 -59 63 -139h-278q-21 70 -105 70q-80 0 -118 -74q-37 -73 -37 -191q21 58 84 103q61 43 147 43q97 0 170 -37zM1079 518v-2q37 34 37 86q0 54 -37 84q-39 31 -98 31t-98 -31q-37 -30 -37 -82
t37 -86q36 -33 100 -33q60 0 96 33z" />
    <glyph glyph-name="uni2466" unicode="&#x2466;" horiz-adv-x="1912" 
d="M1434 1522q196 -114 311 -312t115 -430t-115 -430q-114 -197 -311 -311q-198 -115 -430 -115q-233 0 -431 115q-197 114 -311 311q-115 198 -115 430t115 430t311 312q197 114 431 114t430 -114zM1346 186l-5 -4q158 92 250 250q92 157 92 344t-92 344q-93 159 -248 250
q-157 92 -344 92t-344 -92q-155 -91 -247 -248q-93 -159 -93 -344t93 -344q91 -155 249 -248q157 -92 344 -92q188 0 345 92zM1069 1024h-416v217h684v-272l-331 -662h-330z" />
    <glyph glyph-name="uni2467" unicode="&#x2467;" horiz-adv-x="1912" 
d="M1434 1522q196 -114 311 -312t115 -430t-115 -430q-114 -197 -311 -311q-198 -115 -430 -115q-233 0 -431 115q-197 114 -311 311q-115 198 -115 430t115 430t311 312q197 114 431 114t430 -114zM1346 186l-5 -4q158 92 250 250q92 157 92 344t-92 344q-93 159 -248 250
q-157 92 -344 92t-344 -92q-155 -91 -247 -248q-93 -159 -93 -344t93 -344q91 -155 249 -248q157 -92 344 -92q188 0 345 92zM1346 719l-11 -6q70 -55 70 -154q0 -82 -49 -143q-51 -63 -144 -97t-223 -34t-223 34q-92 34 -143 97q-50 62 -50 145q0 99 70 154t178 73
q-98 23 -159 78q-58 52 -58 142q0 78 49 133t140 86q88 30 202 30q115 0 203 -30q86 -29 137 -86q49 -55 49 -131q0 -91 -57 -142q-56 -51 -160 -75q108 -18 179 -74zM899 1020v-2q-31 -25 -31 -62q0 -32 31 -57t88 -25t88 25t31 59q0 37 -31 62q-30 24 -88 24t-88 -24z
M1087 510v-2q39 23 39 72q0 48 -39 71q-42 25 -100 25t-100 -25q-39 -23 -39 -69q0 -49 39 -72q42 -25 100 -25t100 25z" />
    <glyph glyph-name="uni2468" unicode="&#x2468;" horiz-adv-x="1912" 
d="M1434 1522q196 -114 311 -312t115 -430t-115 -430q-114 -197 -311 -311q-198 -115 -430 -115q-233 0 -431 115q-197 114 -311 311q-115 198 -115 430t115 430t311 312q197 114 431 114t430 -114zM1346 186l-5 -4q158 92 250 250q92 157 92 344t-92 344q-93 159 -248 250
q-157 92 -344 92t-344 -92q-155 -91 -247 -248q-93 -159 -93 -344t93 -344q91 -155 249 -248q157 -92 344 -92q188 0 345 92zM1223 1204l2 2q95 -53 147 -159q53 -109 53 -271q0 -163 -55 -270q-56 -108 -149 -160q-95 -53 -222 -53q-111 0 -192 37q-82 37 -131 98
q-49 60 -64 139h279q8 -31 35 -51q24 -18 67 -18q82 0 119 73q36 70 39 189q-20 -56 -84 -98q-62 -41 -147 -41q-99 0 -170 36q-74 38 -115 109t-41 166q0 97 51 168q53 74 143 114q93 41 213 41q130 0 222 -51zM1106 852v-4q37 30 37 84q0 52 -37 86q-38 35 -100 35
q-61 0 -97 -33q-37 -34 -37 -86t37 -82q39 -31 99 -31q59 0 98 31z" />
    <glyph glyph-name="uni24EA" unicode="&#x24ea;" horiz-adv-x="1912" 
d="M571 35q-197 114 -311 311q-115 198 -115 430t115 430t311 312q197 114 430 114q235 0 431 -114t311 -312t115 -430t-115 -430q-114 -197 -311 -311q-198 -115 -431 -115q-232 0 -430 115zM1346 186l-5 -4q158 92 250 250q92 157 92 344t-92 344q-93 159 -248 250
q-157 92 -344 92t-344 -92q-155 -91 -247 -248q-93 -159 -93 -344t93 -344q91 -155 249 -248q157 -92 344 -92q188 0 345 92zM692 414l-4 -4q-106 121 -106 360q0 237 108 360t307 123q200 0 308 -123t108 -358q0 -237 -106 -358q-108 -123 -308 -123q-199 0 -307 123z
M1098 557q30 67 30 211t-30 211q-30 68 -103 68q-72 0 -102 -68q-31 -70 -31 -211t31 -211q30 -68 102 -68q73 0 103 68z" />
    <glyph glyph-name="uni24FF" unicode="&#x24ff;" horiz-adv-x="1912" 
d="M571 35q-197 114 -311 311q-115 198 -115 430t115 430t311 312q197 114 430 114q235 0 431 -114t311 -312t115 -430t-115 -430q-114 -197 -311 -311q-198 -115 -431 -115q-232 0 -430 115zM1309 418l-4 -4q108 123 108 360q0 240 -106 361q-107 122 -308 122
q-200 0 -307 -122q-106 -121 -106 -359q0 -235 108 -358t307 -123q200 0 308 123zM895 561q-31 70 -31 211t31 211q30 68 102 68q73 0 103 -68q30 -67 30 -211t-30 -211t-103 -67q-72 0 -102 67z" />
    <glyph glyph-name="filledbox" unicode="&#x25a0;" horiz-adv-x="1480" 
d="M1300 0h-1120v1120h1120v-1120z" />
    <glyph glyph-name="uni25A1" unicode="&#x25a1;" horiz-adv-x="1480" 
d="M1300 0h-1120v1120h1120v-1120zM471 829v-538h537v538h-537z" />
    <glyph glyph-name="lozenge" unicode="&#x25ca;" horiz-adv-x="1476" 
d="M551 1556h469l420 -778l-420 -778h-469l-422 778zM467 778l319 -585l318 585l-318 586z" />
    <glyph glyph-name="circle" unicode="&#x25cb;" horiz-adv-x="1409" 
d="M403 41v-2q-136 78 -217 219q-80 139 -80 301t80 301q79 138 217 217q139 80 302 80q162 0 301 -80q138 -79 217 -217q80 -139 80 -301t-80 -301q-79 -138 -217 -217q-139 -80 -301 -80q-163 0 -302 80zM852 303l-8 -4q67 40 108 109q41 68 41 147q0 82 -39 147
q-41 68 -106 107t-148 39q-82 0 -147 -39q-67 -40 -107 -107q-38 -63 -38 -147q0 -79 41 -147q40 -66 108 -107q65 -39 148 -39q79 0 147 41z" />
    <glyph glyph-name="uni25CF" unicode="&#x25cf;" horiz-adv-x="1409" 
d="M403 41v-2q-136 78 -217 219q-80 139 -80 301t80 301q79 138 217 217q139 80 302 80q162 0 301 -80q138 -79 217 -217q80 -139 80 -301t-80 -301q-79 -138 -217 -217q-139 -80 -301 -80q-163 0 -302 80z" />
    <glyph glyph-name="uni2776" unicode="&#x2776;" horiz-adv-x="1912" 
d="M571 35q-197 114 -311 311q-115 198 -115 430t115 430t311 312q197 114 430 114q235 0 431 -114t311 -312t115 -430t-115 -430q-114 -197 -311 -311q-198 -115 -431 -115q-232 0 -430 115zM887 311l270 2v934h-221l-6 -14q-24 -64 -76 -94q-54 -31 -147 -31h-21v-217h201
v-580z" />
    <glyph glyph-name="uni2777" unicode="&#x2777;" horiz-adv-x="1912" 
d="M571 35q-197 114 -311 311q-115 198 -115 430t115 430t311 312q197 114 430 114q235 0 431 -114t311 -312t115 -430t-115 -430q-114 -197 -311 -311q-198 -115 -431 -115q-232 0 -430 115zM614 311h772v217h-460l270 187q92 61 135 123q43 61 43 143q0 83 -49 147
t-135 99q-87 35 -197 35t-194 -37q-85 -37 -135 -105q-51 -70 -54 -155h279q3 43 33 67q31 25 75 25q47 0 74 -21t27 -55q0 -28 -15 -49q-17 -24 -49 -49l-420 -299v-273z" />
    <glyph glyph-name="uni2778" unicode="&#x2778;" horiz-adv-x="1912" 
d="M571 35q-197 114 -311 311q-115 198 -115 430t115 430t311 312q197 114 430 114q235 0 431 -114t311 -312t115 -430t-115 -430q-114 -197 -311 -311q-198 -115 -431 -115q-232 0 -430 115zM1204 326l-6 4q89 30 139 92q49 61 49 147q0 106 -75 160q-79 57 -185 66
q111 18 174 69q64 52 64 154q0 75 -51 129q-54 57 -137 86q-88 31 -189 31q-103 0 -184 -37t-135 -103q-52 -64 -58 -151h277q3 36 28 61t72 25q45 0 72 -21q28 -22 28 -55q0 -80 -149 -80h-64v-217h64q83 0 127 -20q47 -21 47 -74q0 -44 -37 -68t-86 -24q-57 0 -84 24
q-28 25 -31 74h-278q9 -143 109 -223t286 -80q122 0 213 31z" />
    <glyph glyph-name="uni2779" unicode="&#x2779;" horiz-adv-x="1912" 
d="M571 35q-197 114 -311 311q-115 198 -115 430t115 430t311 312q197 114 430 114q235 0 431 -114t311 -312t115 -430t-115 -430q-114 -197 -311 -311q-198 -115 -431 -115q-232 0 -430 115zM559 795v-271h445v-213h270v213h123v217h-123v504h-488zM1004 741h-216l216 408
v-408z" />
    <glyph glyph-name="uni277A" unicode="&#x277a;" horiz-adv-x="1912" 
d="M571 35q-197 114 -311 311q-115 198 -115 430t115 430t311 312q197 114 430 114q235 0 431 -114t311 -312t115 -430t-115 -430q-114 -197 -311 -311q-198 -115 -431 -115q-232 0 -430 115zM1206 330l-4 -2q90 38 141 110q52 73 52 183q0 107 -39 178q-40 72 -105 110
q-64 37 -145 37q-79 0 -135 -39q-59 -41 -82 -94l18 215h424v217h-674l-45 -549l271 -22q15 35 45 53t71 18q54 0 86 -32q35 -35 35 -92q0 -60 -33 -93q-32 -32 -86 -32q-52 0 -83 28q-32 29 -35 74h-279q6 -95 60 -164q51 -66 141 -104q87 -37 199 -37q115 0 202 37z" />
    <glyph glyph-name="uni277B" unicode="&#x277b;" horiz-adv-x="1912" 
d="M571 35q-197 114 -311 311q-115 198 -115 430t115 430t311 312q197 114 430 114q235 0 431 -114t311 -312t115 -430t-115 -430q-114 -197 -311 -311q-198 -115 -431 -115q-232 0 -430 115zM1210 336l4 2q90 40 144 115q51 71 51 168q0 95 -43 165q-44 72 -117 109
t-170 37q-86 0 -147 -43t-82 -101q0 118 37 191q38 74 119 74q83 0 104 -70h279q-15 79 -64 139q-50 62 -131 99q-79 36 -193 36q-129 0 -221 -51q-94 -52 -149 -159q-56 -109 -56 -271q0 -159 54 -270q52 -107 147 -160q92 -51 221 -51q120 0 213 41zM897 535v-3
q-37 34 -37 86q0 54 37 84q39 31 98 31q60 0 99 -31q36 -29 36 -84q0 -53 -36 -86q-35 -32 -97 -32t-100 35z" />
    <glyph glyph-name="uni277C" unicode="&#x277c;" horiz-adv-x="1912" 
d="M571 35q-197 114 -311 311q-115 198 -115 430t115 430t311 312q197 114 430 114q235 0 431 -114t311 -312t115 -430t-115 -430q-114 -197 -311 -311q-198 -115 -431 -115q-232 0 -430 115zM1073 1028l-393 -717h330l331 662v272h-684v-217h416z" />
    <glyph glyph-name="uni277D" unicode="&#x277d;" horiz-adv-x="1912" 
d="M571 35q-197 114 -311 311q-115 198 -115 430t115 430t311 312q197 114 430 114q235 0 431 -114t311 -312t115 -430t-115 -430q-114 -197 -311 -311q-198 -115 -431 -115q-232 0 -430 115zM1225 330v-8q96 35 145 96t49 145q0 100 -69 154q-71 56 -179 74q102 27 160 79
q60 54 60 142q0 77 -50 133q-51 57 -137 86q-91 31 -203 31q-111 0 -202 -31q-86 -29 -137 -86q-50 -56 -50 -131q0 -88 60 -142q57 -51 159 -75q-107 -18 -178 -74q-69 -54 -69 -154q0 -82 49 -143t145 -96t223 -35q128 0 224 35zM913 903v-2q-30 24 -30 60q0 37 30 61
q31 25 88 25q58 0 89 -25q30 -24 30 -61q0 -34 -30 -58t-89 -24q-58 0 -88 24zM901 514v-2q-39 23 -39 72q0 48 39 71q42 25 100 25q59 0 101 -25q39 -23 39 -69q0 -49 -39 -72q-42 -25 -101 -25q-58 0 -100 25z" />
    <glyph glyph-name="uni277E" unicode="&#x277e;" horiz-adv-x="1912" 
d="M571 35q-197 114 -311 311q-115 198 -115 430t115 430t311 312q197 114 430 114q235 0 431 -114t311 -312t115 -430t-115 -430q-114 -197 -311 -311q-198 -115 -431 -115q-232 0 -430 115zM793 1221l-5 -9q-90 -40 -143 -114q-51 -71 -51 -168q0 -95 41 -166t115 -109
q73 -37 170 -37q85 0 147 44q64 45 84 102q0 -118 -37 -191t-119 -73q-43 0 -67 18q-27 20 -35 51h-279q15 -79 64 -139q49 -61 131 -98q81 -37 192 -37q127 0 222 53q93 52 149 160q55 107 55 270q0 162 -53 271q-52 106 -147 159q-97 54 -221 54q-120 0 -213 -41z
M1104 1014v-2q37 -34 37 -86t-37 -82q-39 -31 -98 -31q-60 0 -99 31q-37 30 -37 84q0 52 37 86q36 33 97 33q64 0 100 -33z" />
    <glyph glyph-name="uniF8FF" unicode="&#xf8ff;" horiz-adv-x="1740" 
d="M1313 858h411v-160h-411l379 -157l-62 -144l-383 160l293 -295l-108 -108l-295 295l159 -388l-145 -57l-154 373v-404h-159v410l-158 -381l-143 61l159 388l-297 -297l-108 108l293 293l-383 -158l-58 146l377 155h-407v160h407l-379 158l62 143l385 -160l-295 295
l110 109l291 -293l-157 385l147 57l154 -374v405h159v-403l154 372l145 -59l-155 -379l289 291l110 -111l-295 -295l387 160l58 -145z" />
    <glyph glyph-name="uniFEFF" unicode="&#xfeff;" horiz-adv-x="0" 
 />
    <glyph glyph-name="NULL" horiz-adv-x="0" 
 />
    <glyph glyph-name="uni004A0301" horiz-adv-x="878" 
d="M-80 0l64 322h159q83 0 123 30q41 30 56 105l233 1099h399l-249 -1177q-27 -127 -89 -211q-60 -81 -170 -125q-107 -43 -266 -43h-260zM981 1667h-387l307 309h545z" />
    <glyph glyph-name="G.ss03" horiz-adv-x="1718" 
d="M817 604l62 297h837l-43 -201q-76 -351 -301 -542q-226 -191 -590 -191q-195 0 -352 74q-159 75 -246 217q-88 143 -88 350q0 240 115 467q113 223 326 365q211 141 495 141q202 0 350 -65t234 -183q87 -120 108 -270h-413q-23 105 -99 162q-73 55 -200 55
q-154 0 -269 -92q-114 -92 -176 -242q-61 -149 -61 -330q0 -161 90 -251q89 -89 252 -89q104 0 188 41t140 115q55 73 79 172h-438z" />
    <glyph glyph-name="Gbreve.ss03" horiz-adv-x="1718" 
d="M817 604l62 297h837l-43 -201q-76 -351 -301 -542q-226 -191 -590 -191q-195 0 -352 74q-159 75 -246 217q-88 143 -88 350q0 240 115 467q113 223 326 365q211 141 495 141q202 0 350 -65t234 -183q87 -120 108 -270h-413q-23 105 -99 162q-73 55 -200 55
q-154 0 -269 -92q-114 -92 -176 -242q-61 -149 -61 -330q0 -161 90 -251q89 -89 252 -89q104 0 188 41t140 115q55 73 79 172h-438zM868 1690l2 -9q-82 29 -135 91q-49 58 -49 139q0 28 6 55h260q-6 -47 31 -74q39 -28 102 -28q67 0 117 30q51 31 60 76h260
q-34 -147 -154 -229q-119 -82 -307 -82q-105 0 -193 31z" />
    <glyph glyph-name="Gcaron.ss03" horiz-adv-x="1718" 
d="M817 604l62 297h837l-43 -201q-76 -351 -301 -542q-226 -191 -590 -191q-195 0 -352 74q-159 75 -246 217q-88 143 -88 350q0 240 115 467q113 223 326 365q211 141 495 141q202 0 350 -65t234 -183q87 -120 108 -270h-413q-23 105 -99 162q-73 55 -200 55
q-154 0 -269 -92q-114 -92 -176 -242q-61 -149 -61 -330q0 -161 90 -251q89 -89 252 -89q104 0 188 41t140 115q55 73 79 172h-438zM1079 1821l187 151h352l-320 -309h-489l-201 309h332z" />
    <glyph glyph-name="Gcircumflex.ss03" horiz-adv-x="1718" 
d="M817 604l62 297h837l-43 -201q-76 -351 -301 -542q-226 -191 -590 -191q-195 0 -352 74q-159 75 -246 217q-88 143 -88 350q0 240 115 467q113 223 326 365q211 141 495 141q202 0 350 -65t234 -183q87 -120 108 -270h-413q-23 105 -99 162q-73 55 -200 55
q-154 0 -269 -92q-114 -92 -176 -242q-61 -149 -61 -330q0 -161 90 -251q89 -89 252 -89q104 0 188 41t140 115q55 73 79 172h-438zM1366 1972l203 -309h-334l-139 149l-187 -149h-350l318 309h489z" />
    <glyph glyph-name="uni0122.ss03" horiz-adv-x="1718" 
d="M817 604l62 297h837l-43 -201q-76 -351 -301 -542q-226 -191 -590 -191q-195 0 -352 74q-159 75 -246 217q-88 143 -88 350q0 240 115 467q113 223 326 365q211 141 495 141q202 0 350 -65t234 -183q87 -120 108 -270h-413q-23 105 -99 162q-73 55 -200 55
q-154 0 -269 -92q-114 -92 -176 -242q-61 -149 -61 -330q0 -161 90 -251q89 -89 252 -89q104 0 188 41t140 115q55 73 79 172h-438zM518 -426l66 311h405l-74 -344l-194 -200h-250l174 233h-127z" />
    <glyph glyph-name="Gdotaccent.ss03" horiz-adv-x="1718" 
d="M817 604l62 297h837l-43 -201q-76 -351 -301 -542q-226 -191 -590 -191q-195 0 -352 74q-159 75 -246 217q-88 143 -88 350q0 240 115 467q113 223 326 365q211 141 495 141q202 0 350 -65t234 -183q87 -120 108 -270h-413q-23 105 -99 162q-73 55 -200 55
q-154 0 -269 -92q-114 -92 -176 -242q-61 -149 -61 -330q0 -161 90 -251q89 -89 252 -89q104 0 188 41t140 115q55 73 79 172h-438zM1260 1663h-406l66 309h405z" />
    <glyph glyph-name="Adieresis.titl" horiz-adv-x="1658" 
d="M1550 0h-399l-31 389h-626l-199 -389h-424l823 1556h697zM1032 1452l-377 -741h439zM473 1245h-340l66 311h340zM1823 1245h-340l65 311h340z" />
    <glyph glyph-name="Odieresis.titl" horiz-adv-x="1738" 
d="M1982 1556l-65 -309h-250q64 -131 64 -305q0 -240 -113 -463q-112 -221 -326 -364q-213 -142 -495 -142q-204 0 -361 74q-159 75 -246 217q-88 143 -88 354q0 170 58 332q59 164 166 295h-263l66 311h340l-43 -206q119 110 276 172q155 61 338 61q186 0 326 -57
q145 -59 233 -172l43 202h340zM1087 369h-4q116 93 177 245t61 334q0 111 -39 182q-41 75 -111 115q-68 39 -165 39q-152 0 -267 -92q-111 -89 -174 -246q-61 -152 -61 -334q0 -106 39 -180q41 -77 110 -117q68 -39 166 -39q152 0 268 93z" />
    <glyph glyph-name="Udieresis.titl" horiz-adv-x="1607" 
d="M395 33h-2q-135 59 -203 164q-67 104 -67 245q0 86 22 199l195 913h399l-211 -987q-10 -65 -10 -92q0 -95 60 -149q58 -52 165 -52q140 0 226 86t121 240l202 954h398l-199 -942q-47 -212 -137 -350q-91 -141 -246 -215q-154 -74 -383 -74q-192 0 -330 60zM1110 1245
h-317l65 311h318zM1026 854h-317l65 309h318z" />
    <glyph glyph-name="I_J.loclNLD" horiz-adv-x="1366" 
d="M25 0l63 322h543q83 0 123 30q40 29 55 105l233 1099h400l-250 -1177q-27 -129 -88 -211q-60 -81 -170 -125q-107 -43 -266 -43h-643zM532 532h-399l217 1024h398z" />
    <glyph glyph-name="A.inferior" horiz-adv-x="882" 
d="M707 -233h-240l-8 180h-279l-86 -180h-256l389 778h426zM432 475l-162 -340h179z" />
    <glyph glyph-name="B.inferior" horiz-adv-x="821" 
d="M666 -6q0 -108 -99 -166q-100 -59 -276 -59h-383l166 778h364q133 0 199 -51q68 -53 68 -142q0 -84 -68 -131q-65 -45 -168 -57q197 -27 197 -172zM438 348h-2q-20 14 -57 14h-105l-24 -118h102q49 0 78 16t29 49q0 24 -21 39zM299 -51h-2q60 0 90 18q31 19 31 56
q0 27 -23 43q-20 14 -65 14h-115l-29 -131h113z" />
    <glyph glyph-name="C.inferior" horiz-adv-x="864" 
d="M117 -211l-2 -4q-81 38 -127 111q-47 74 -47 178q0 114 59 229q58 114 166 184q110 72 250 72q109 0 184 -37q79 -39 121 -104q43 -67 49 -156h-246q-3 52 -35 84q-31 31 -88 31q-61 0 -110 -43t-76 -113t-27 -149q0 -65 35 -103q34 -37 92 -37q55 0 99 33q47 35 73 86
h244q-48 -141 -156 -219q-112 -80 -278 -80q-102 0 -180 37z" />
    <glyph glyph-name="D.inferior" horiz-adv-x="851" 
d="M365 545l-3 2q104 0 185 -37q82 -37 131 -107t49 -174q0 -154 -68 -260q-66 -103 -178 -153q-110 -49 -250 -49h-323l166 778h291zM252 -43l-2 2q74 0 127 35q54 35 80 92q26 56 26 133q0 66 -37 103q-36 36 -102 36h-72l-84 -401h64z" />
    <glyph glyph-name="E.inferior" horiz-adv-x="716" 
d="M649 545l-39 -189h-336l-20 -98h328l-39 -188h-330l-25 -115h344l-38 -188h-586l166 778h575z" />
    <glyph glyph-name="F.inferior" horiz-adv-x="686" 
d="M633 545l-39 -189h-320l-22 -108h309l-39 -189h-311l-61 -292h-242l166 778h559z" />
    <glyph glyph-name="G.inferior" horiz-adv-x="909" 
d="M311 59l29 170h434l-98 -465h-195l33 160q-40 -75 -108 -125q-67 -49 -164 -49q-78 0 -148 37q-68 36 -112 111q-43 73 -43 176q0 119 59 231q60 113 168 182q113 72 256 72q157 0 246 -74q90 -75 108 -192h-246q-8 38 -41 61t-81 23q-66 0 -115 -43q-52 -46 -78 -111
q-27 -67 -27 -147q0 -66 41 -107q39 -39 105 -39q61 0 110 37q52 39 66 92h-199z" />
    <glyph glyph-name="H.inferior" horiz-adv-x="856" 
d="M475 268l60 277h241l-166 -778h-241l61 288h-219l-61 -288h-242l166 778h241l-59 -277h219z" />
    <glyph glyph-name="I.inferior" horiz-adv-x="395" 
d="M150 -233h-242l166 778h241z" />
    <glyph glyph-name="J.inferior" horiz-adv-x="485" 
d="M-141 -233l39 186h67q44 0 64 14q21 15 30 51l111 525h242l-123 -580q-21 -97 -86 -147q-64 -49 -197 -49h-147z" />
    <glyph glyph-name="K.inferior" horiz-adv-x="804" 
d="M516 545h272l-321 -379l184 -399h-260l-164 366l-77 -366h-240l166 778h239l-69 -332z" />
    <glyph glyph-name="L.inferior" horiz-adv-x="653" 
d="M315 545l-127 -590h314l-39 -188h-555l166 778h241z" />
    <glyph glyph-name="M.inferior" horiz-adv-x="1185" 
d="M1104 545l-166 -778h-213l154 716l-273 -716h-364l32 716l-153 -716h-213l166 778h397l-37 -713l262 713h408z" />
    <glyph glyph-name="N.inferior" horiz-adv-x="940" 
d="M494 -172l153 717h213l-166 -778h-403l-17 716l-153 -716h-213l166 778h403z" />
    <glyph glyph-name="O.inferior" horiz-adv-x="901" 
d="M119 -211l-8 -4q-83 37 -129 111q-48 76 -48 178q0 117 60 231q60 113 168 182q110 70 256 70q105 0 186 -37q83 -38 129 -110q47 -74 47 -179q0 -121 -57 -229q-58 -109 -166 -180q-107 -70 -252 -70q-105 0 -186 37zM428 -31h-2q52 42 78 111q26 68 26 153
q0 68 -34 105t-97 37q-66 0 -116 -41q-49 -40 -76 -111t-27 -153q0 -67 35 -105q34 -37 96 -37q67 0 117 41z" />
    <glyph glyph-name="P.inferior" horiz-adv-x="784" 
d="M399 545l-2 2q81 0 154 -29q63 -25 106 -84q39 -53 39 -131q0 -82 -41 -147t-125 -105q-82 -39 -211 -39h-118l-51 -245h-242l166 778h325zM328 199h-2q58 0 92 24q35 24 35 72q0 33 -25 49q-26 16 -63 16h-93l-32 -161h88z" />
    <glyph glyph-name="Q.inferior" horiz-adv-x="913" 
d="M756 68l4 -2q-30 -81 -86 -150l104 -152h-246l-20 29q-93 -43 -203 -43q-105 0 -186 37q-83 37 -129 111q-47 74 -47 178q0 119 59 231t166 182t252 70q105 0 186 -37q83 -38 129 -110q47 -74 47 -179q0 -83 -30 -165zM403 -51l-96 137h209q25 70 25 150q0 66 -35 104
q-34 37 -96 37q-65 0 -115 -41q-49 -40 -76 -111q-26 -68 -26 -153q0 -68 34 -105t97 -37q43 0 79 19z" />
    <glyph glyph-name="R.inferior" horiz-adv-x="823" 
d="M657 162h-2q-47 -64 -135 -99l125 -296h-268l-92 260h-84l-56 -260h-241l166 778h333q83 0 150 -27q68 -27 109 -80q40 -52 40 -129q0 -85 -45 -147zM272 360l-32 -157h102q54 0 84 24q31 25 31 68q0 29 -21 47t-61 18h-103z" />
    <glyph glyph-name="S.inferior" horiz-adv-x="776" 
d="M8 -182l-12 -13q-93 69 -96 193h245q3 -46 35 -68q29 -20 86 -20q50 0 80 18q31 19 31 52q0 27 -19 43q-18 15 -67 30l-123 33q-186 52 -186 205q0 73 45 133q47 62 129 96q84 35 184 35q146 0 225 -61q82 -64 97 -166h-246q-3 25 -29 41t-65 16q-45 0 -70 -14
q-27 -15 -27 -43q0 -22 23 -35q27 -15 80 -29l123 -33q83 -21 127 -77q43 -55 43 -129q0 -127 -95 -201t-272 -74q-154 0 -246 68z" />
    <glyph glyph-name="T.inferior" horiz-adv-x="733" 
d="M23 545h679l-38 -189h-220l-125 -589h-241l125 589h-219z" />
    <glyph glyph-name="U.inferior" horiz-adv-x="835" 
d="M41 -182v2q-82 64 -82 176q0 51 10 96l97 455h241l-106 -496q-4 -32 -4 -37q0 -39 22 -61q21 -21 66 -21q60 0 90 35q31 36 43 99l102 479h242l-100 -471q-35 -158 -123 -240t-265 -82q-149 0 -233 66z" />
    <glyph glyph-name="V.inferior" horiz-adv-x="835" 
d="M258 -168l301 713h262l-350 -778h-440l-27 778h244z" />
    <glyph glyph-name="W.inferior" horiz-adv-x="1212" 
d="M721 -172l244 717h217l-271 -778h-401l84 735l-225 -735h-402l56 778h215l-58 -717l226 717h391z" />
    <glyph glyph-name="X.inferior" horiz-adv-x="845" 
d="M530 545h299l-331 -373l186 -405h-270l-99 241l-190 -241h-297l350 415l-162 363h265l84 -203z" />
    <glyph glyph-name="Y.inferior" horiz-adv-x="798" 
d="M508 545h285l-383 -494l-60 -284h-241l67 313l-182 465h250l90 -258z" />
    <glyph glyph-name="Z.inferior" horiz-adv-x="753" 
d="M49 545h643l-53 -248l-430 -342h377l-41 -188h-666l51 247l430 342h-352z" />
    <glyph glyph-name="G.ss03.inferior" horiz-adv-x="892" 
d="M309 59l31 168h434l-24 -121q-37 -175 -154 -266q-118 -92 -303 -92q-104 0 -182 37q-81 38 -127 111q-47 74 -47 178q0 119 59 231q60 113 168 182q113 72 256 72q157 0 246 -74q90 -75 108 -192h-246q-8 38 -41 61t-81 23q-66 0 -115 -43q-52 -46 -78 -111
q-27 -67 -27 -147q0 -68 39 -107t111 -39q67 0 110 37q46 39 60 92h-197z" />
    <glyph glyph-name="A.superior" horiz-adv-x="882" 
d="M922 778h-240l-8 180h-279l-86 -180h-256l389 778h426zM647 1487l-162 -340h179z" />
    <glyph glyph-name="B.superior" horiz-adv-x="821" 
d="M881 1006q0 -108 -99 -166q-102 -60 -276 -60h-383l166 779h364q132 0 199 -52q68 -53 68 -141q0 -84 -68 -131q-65 -45 -168 -57q197 -27 197 -172zM653 1360h-2q-20 14 -57 14h-105l-24 -119h102q47 0 78 17q29 16 29 49q0 24 -21 39zM514 961h-2q60 0 90 18
q31 19 31 55q0 27 -23 43q-21 15 -65 15h-115l-29 -131h113z" />
    <glyph glyph-name="C.superior" horiz-adv-x="864" 
d="M332 801l-2 -4q-82 39 -127 110q-47 74 -47 178q0 115 59 230q58 114 166 184q110 72 250 72q109 0 184 -37q79 -39 121 -104q43 -67 49 -156h-246q-3 53 -34 84t-89 31q-61 0 -110 -43t-76 -113q-27 -71 -27 -150q0 -64 35 -102q34 -37 92 -37q55 0 99 33q47 35 73 86
h244q-48 -142 -155 -219q-112 -80 -279 -80q-102 0 -180 37z" />
    <glyph glyph-name="D.superior" horiz-adv-x="851" 
d="M580 1556l-2 3q103 0 184 -37q82 -37 131 -107t49 -174q0 -154 -68 -260q-67 -105 -178 -154q-110 -49 -250 -49h-323l166 778h291zM467 969l-2 2q74 0 127 35q54 35 80 92q26 56 26 133q0 66 -36 102q-37 37 -103 37h-72l-84 -401h64z" />
    <glyph glyph-name="E.superior" horiz-adv-x="716" 
d="M864 1556l-39 -188h-336l-20 -98h328l-39 -189h-330l-25 -114h345l-39 -189h-586l166 778h575z" />
    <glyph glyph-name="F.superior" horiz-adv-x="686" 
d="M848 1556l-39 -188h-320l-22 -108h309l-39 -189h-311l-61 -293h-242l166 778h559z" />
    <glyph glyph-name="G.superior" horiz-adv-x="909" 
d="M526 1071l29 170h434l-98 -465h-195l33 160q-40 -75 -108 -125q-67 -49 -164 -49q-78 0 -148 37q-68 36 -112 110q-43 73 -43 176q0 120 59 232q60 113 168 182q113 72 256 72q157 0 246 -74q90 -75 108 -192h-246q-9 39 -40 61q-33 23 -82 23q-66 0 -115 -43
q-52 -46 -78 -111q-27 -67 -27 -148q0 -65 41 -106q39 -39 105 -39q61 0 110 37q52 39 66 92h-199z" />
    <glyph glyph-name="H.superior" horiz-adv-x="856" 
d="M690 1280l60 276h241l-166 -778h-241l61 289h-219l-61 -289h-242l166 778h241l-59 -276h219z" />
    <glyph glyph-name="I.superior" horiz-adv-x="395" 
d="M365 778h-242l166 778h241z" />
    <glyph glyph-name="J.superior" horiz-adv-x="485" 
d="M74 778l39 187h67q44 0 64 14q21 15 30 51l111 524h242l-123 -579q-21 -98 -86 -148q-64 -49 -197 -49h-147z" />
    <glyph glyph-name="K.superior" horiz-adv-x="804" 
d="M731 1556h273l-322 -378l184 -400h-260l-164 367l-77 -367h-240l166 778h239l-69 -331z" />
    <glyph glyph-name="L.superior" horiz-adv-x="653" 
d="M530 1556l-127 -589h314l-39 -189h-555l166 778h241z" />
    <glyph glyph-name="M.superior" horiz-adv-x="1185" 
d="M1319 1556l-166 -778h-213l154 717l-273 -717h-364l32 717l-153 -717h-213l166 778h397l-37 -712l262 712h408z" />
    <glyph glyph-name="N.superior" horiz-adv-x="940" 
d="M709 840l153 716h213l-166 -778h-403l-17 717l-153 -717h-213l166 778h403z" />
    <glyph glyph-name="O.superior" horiz-adv-x="901" 
d="M334 801l-8 -4q-83 38 -129 110q-47 74 -47 178q0 120 59 232q60 113 168 182q110 70 256 70q105 0 186 -37q83 -38 129 -111q47 -74 47 -178q0 -121 -57 -229q-58 -109 -166 -180q-107 -70 -252 -70q-105 0 -186 37zM643 981h-2q52 42 78 111q26 68 26 153q0 68 -34 105
q-33 36 -97 36q-67 0 -116 -40t-76 -111t-27 -154q0 -66 35 -104q34 -37 96 -37q67 0 117 41z" />
    <glyph glyph-name="P.superior" horiz-adv-x="784" 
d="M614 1556l-2 3q82 0 154 -29q63 -25 106 -84q39 -53 39 -131q0 -83 -41 -148q-40 -64 -125 -104q-82 -39 -210 -39h-119l-51 -246h-242l166 778h325zM543 1210h-2q56 0 92 25q35 24 35 72q0 33 -25 49q-26 16 -63 16h-93l-32 -162h88z" />
    <glyph glyph-name="Q.superior" horiz-adv-x="913" 
d="M969 1079l4 -2q-29 -80 -86 -149l104 -152h-246l-20 29q-93 -43 -203 -43q-105 0 -186 37q-83 38 -129 110q-47 74 -47 178q0 120 59 232t166 182t252 70q105 0 186 -37q83 -38 129 -111q47 -74 47 -178q0 -83 -30 -166zM616 961l-96 137h209q25 70 25 149q0 67 -35 105
q-34 37 -96 37q-65 0 -115 -41q-49 -40 -76 -111q-26 -68 -26 -154q0 -67 34 -104t97 -37q43 0 79 19z" />
    <glyph glyph-name="R.superior" horiz-adv-x="823" 
d="M872 1174h-2q-46 -64 -135 -99l125 -297h-268l-92 260h-84l-56 -260h-241l166 778h333q85 0 150 -26q68 -27 109 -80t41 -129q0 -83 -46 -147zM487 1372l-32 -158h102q53 0 84 25t31 68q0 29 -21 47t-61 18h-103z" />
    <glyph glyph-name="S.superior" horiz-adv-x="776" 
d="M225 829l-12 -12q-93 69 -96 193h245q3 -46 35 -68q29 -20 86 -20q50 0 80 18q31 19 31 51q0 27 -19 43q-20 17 -67 31l-123 33q-186 52 -186 205q0 73 45 133q46 62 129 96q84 35 184 35q145 0 225 -62q82 -64 97 -166h-246q-3 25 -29 41q-27 17 -65 17q-43 0 -70 -15
t-27 -43q0 -21 23 -34q27 -15 80 -29l123 -33q82 -21 127 -78q43 -55 43 -129q0 -126 -95 -200t-272 -74q-155 0 -246 67z" />
    <glyph glyph-name="T.superior" horiz-adv-x="733" 
d="M238 1556h680l-39 -188h-220l-124 -590h-242l125 590h-219z" />
    <glyph glyph-name="U.superior" horiz-adv-x="835" 
d="M256 829v2q-82 64 -82 177q0 51 10 96l97 455h241l-106 -496q-4 -32 -4 -37q0 -39 22 -61q21 -21 66 -21q60 0 90 35q32 36 43 98l102 479h242l-100 -471q-35 -157 -123 -239t-265 -82q-150 0 -233 65z" />
    <glyph glyph-name="V.superior" horiz-adv-x="835" 
d="M473 844l301 712h262l-350 -778h-440l-27 778h244z" />
    <glyph glyph-name="W.superior" horiz-adv-x="1212" 
d="M936 840l244 716h217l-271 -778h-401l84 735l-225 -735h-402l56 778h215l-58 -716l226 716h391z" />
    <glyph glyph-name="X.superior" horiz-adv-x="845" 
d="M745 1556h299l-331 -372l186 -406h-270l-99 242l-190 -242h-297l350 416l-162 362h265l84 -202z" />
    <glyph glyph-name="Y.superior" horiz-adv-x="798" 
d="M723 1556h285l-383 -493l-60 -285h-241l67 314l-182 464h250l90 -258z" />
    <glyph glyph-name="Z.superior" horiz-adv-x="753" 
d="M264 1556h643l-53 -247l-430 -342h377l-41 -189h-666l51 248l430 342h-352z" />
    <glyph glyph-name="G.ss03.superior" horiz-adv-x="892" 
d="M524 1071l31 168h434l-24 -121q-37 -175 -154 -266q-118 -92 -303 -92q-104 0 -182 37q-82 39 -127 110q-47 74 -47 178q0 120 59 232q60 113 168 182q113 72 256 72q157 0 246 -74q90 -75 108 -192h-246q-9 38 -41 61q-33 23 -81 23q-66 0 -115 -43q-52 -46 -78 -111
q-27 -67 -27 -148q0 -67 39 -106t111 -39q68 0 111 37q45 38 59 92h-197z" />
    <glyph glyph-name="i.loclTRK" horiz-adv-x="616" 
d="M383 0h-387l237 1120h388zM649 1245h-393l66 311h393z" />
    <glyph glyph-name="uni006A0301" horiz-adv-x="616" 
d="M-262 -401l57 274h51q72 0 103 25t43 84l241 1136h388l-254 -1200q-35 -162 -150 -240q-116 -79 -319 -79h-160zM639 1229h-363l291 327h525z" />
    </font>
</defs>
</svg>
