<?xml version="1.0" standalone="no"?>
<!DOCTYPE svg PUBLIC "-//W3C//DTD SVG 1.1//EN" "http://www.w3.org/Graphics/SVG/1.1/DTD/svg11.dtd" >
<svg xmlns="http://www.w3.org/2000/svg" xmlns:xlink="http://www.w3.org/1999/xlink" version="1.1">
<metadata>
Created by FontForge 20170731 at Fri Apr 21 21:41:33 2023
 By Aleksey,,,
(c) 2014-2020. Copyright by TYPE.WELTKERN :. All rights reserved.
</metadata>
<defs>
<font id="TWKEverett-Light" horiz-adv-x="1536" >
  <font-face 
    font-family="TWK Everett"
    font-weight="300"
    font-stretch="normal"
    units-per-em="2048"
    panose-1="2 11 2 4 0 0 0 0 0 0"
    ascent="1638"
    descent="-410"
    x-height="1090"
    cap-height="1556"
    bbox="-1729 -590 6734 2148"
    underline-thickness="100"
    underline-position="-532"
    unicode-range="U+000D-FEFF"
  />
<missing-glyph horiz-adv-x="1486" 
d="M1262 0h-1037v1556h1037v-1556zM362 1442v-1327h762v1327h-762z" />
    <glyph glyph-name="fi" unicode="fi" horiz-adv-x="1216" 
d="M1042 0h-135v985h-499v-985h-136v985h-243v105h243v186q0 138 80 209t219 71h136v-104h-123q-89 0 -133 -41q-43 -40 -43 -135v-186h634v-1090zM901 1298v258h146v-258h-146z" />
    <glyph glyph-name="fl" unicode="fl" horiz-adv-x="1216" 
d="M1042 0h-135v1452h-321q-89 0 -133 -41q-43 -40 -43 -135v-186h301v-105h-301v-985h-136v985h-243v105h243v186q0 138 80 209t219 71h469v-1556z" />
    <glyph glyph-name="W_W_W" unicode="WWW" horiz-adv-x="6772" 
d="M623 0h-150l-434 1556h149zM782 0h-145l360 1556h146zM1665 0h-147l-361 1556h146zM1827 0h-150l437 1556h147zM2859 0h-149l-435 1556h150zM3019 0h-146l361 1556h145zM3901 0h-147l-360 1556h145zM4063 0h-149l436 1556h147zM5095 0h-149l-434 1556h149zM5255 0h-145
l360 1556h146zM6138 0h-148l-360 1556h145zM6300 0h-150l436 1556h148z" />
    <glyph glyph-name="f_f" unicode="ff" horiz-adv-x="1466" 
d="M1319 1452q-89 0 -133 -41q-43 -40 -43 -135v-186h301v-105h-301v-985h-135v985h-598v-985h-136v985h-243v105h243v186q0 138 80 209t219 71h136v-104h-123q-89 0 -133 -41q-43 -40 -43 -135v-186h598v186q0 139 79 209q80 71 220 71h135v-104h-123z" />
    <glyph glyph-name="f_f_i" unicode="ffi" horiz-adv-x="1949" 
d="M1776 1090v-1090h-136v985h-499v-985h-135v985h-598v-985h-136v985h-243v105h243v186q0 138 80 209t219 71h136v-104h-123q-89 0 -133 -41q-43 -40 -43 -135v-186h598v186q0 139 79 209q80 71 220 71h135v-104h-123q-89 0 -133 -41q-43 -40 -43 -135v-186h635zM1634 1298
v258h146v-258h-146z" />
    <glyph glyph-name="f_f_l" unicode="ffl" horiz-adv-x="1949" 
d="M1640 1556h136v-1556h-136v985h-499v-985h-135v985h-598v-985h-136v985h-243v105h243v186q0 138 80 209t219 71h136v-104h-123q-89 0 -133 -41q-43 -40 -43 -135v-186h598v186q0 139 79 209q80 71 220 71h135v-104h-123q-89 0 -133 -41q-43 -40 -43 -135v-186h499v466z
" />
    <glyph glyph-name="f_j" unicode="fj" horiz-adv-x="1216" 
d="M1042 1090v-1213q0 -139 -79 -209q-78 -69 -220 -69h-61v104h49q89 0 133 41q43 40 43 135v1106h-499v-985h-136v985h-243v105h243v186q0 138 80 209t219 71h136v-104h-123q-89 0 -133 -41q-43 -40 -43 -135v-186h634zM901 1296v258h146v-258h-146z" />
    <glyph glyph-name="f_t" unicode="ft" horiz-adv-x="1482" 
d="M1440 104v-108h-137q-141 0 -220 70t-79 208v5v704h-594v-985h-136v985h-243v104h243v187q0 138 80 209t219 71h136v-104h-123q-89 0 -133 -41q-43 -40 -43 -135v-187h594v259h135v-259h301v-104h-301v-704v-5q0 -91 43 -131q42 -39 133 -39h125z" />
    <glyph glyph-name="t_f" unicode="tf" horiz-adv-x="1482" 
d="M1335 1452v-4q-89 0 -133 -41q-43 -40 -43 -135v-187h301v-104h-301v-985h-135v985h-618v-705v-4q0 -91 43 -131q42 -39 133 -39h125v-104h-138q-140 0 -219 70q-80 71 -80 208v5v704h-243v105h243v258h136v-258h618v186q0 138 80 209t219 71h135v-104h-123z" />
    <glyph glyph-name="t_t" unicode="tt" horiz-adv-x="1499" 
d="M1456 104v-112h-137q-141 0 -219 69q-80 71 -80 209v4v705h-614v-705v-4q0 -91 43 -131q42 -39 133 -39h125v-104h-138q-140 0 -219 70q-80 71 -80 208v5v704h-243v104h243v259h136v-259h614v259h135v-259h301v-104h-301v-704v-5q0 -91 43 -131q42 -39 133 -39h125z" />
    <glyph glyph-name="w_w_w" unicode="www" horiz-adv-x="5261" 
d="M494 0h-134l-315 1090h133zM639 0h-131l258 1090h131zM1298 0h-131l-258 1090h131zM1446 0h-133l315 1090h133zM2220 0h-133l-315 1090h133zM2365 0h-131l258 1090h131zM3025 0h-131l-258 1090h131zM3172 0h-133l316 1090h133zM3949 0h-134l-315 1090h133zM4094 0h-131
l258 1090h131zM4753 0h-131l-258 1090h131zM4901 0h-133l315 1090h133z" />
    <glyph glyph-name=".notdef" horiz-adv-x="1486" 
d="M1262 0h-1037v1556h1037v-1556zM362 1442v-1327h762v1327h-762z" />
    <glyph glyph-name=".null" horiz-adv-x="0" 
 />
    <glyph glyph-name="nonmarkingreturn" unicode="&#xd;" horiz-adv-x="536" 
 />
    <glyph glyph-name="space" unicode=" " horiz-adv-x="536" 
 />
    <glyph glyph-name="exclam" unicode="!" horiz-adv-x="540" 
d="M330 502h-119l-14 1054h147zM350 0h-160v240h160v-240z" />
    <glyph glyph-name="quotedbl" unicode="&#x22;" horiz-adv-x="688" 
d="M260 1028h-104l-21 528h146zM532 1028h-104l-20 528h145z" />
    <glyph glyph-name="numbersign" unicode="#" horiz-adv-x="1605" 
d="M1524 1090v-105h-353l-88 -430h332v-104h-354l-92 -451h-119l92 451h-424l-92 -451h-119l92 451h-317v104h340l88 430h-317v105h339l97 466h119l-97 -466h424l96 466h119l-96 -466h330zM541 555h424l88 430h-424z" />
    <glyph glyph-name="dollar" unicode="$" horiz-adv-x="1327" 
d="M1157 217v2q-59 -102 -170 -164q-112 -62 -260 -71v-248h-129v250q-133 12 -240 73q-106 60 -174 166q-69 108 -84 240h142q12 -101 61 -180q50 -81 125 -129q77 -50 172 -62v680l-59 14q-114 26 -205 72q-86 44 -141 117q-56 74 -56 188q0 106 60 197q60 90 163 145
q108 57 238 66v237h129v-239q123 -11 229 -66q103 -53 164 -141q63 -91 78 -209h-141q-21 126 -111 207t-221 96v-581l76 -21q150 -40 231 -88q88 -52 135 -129q48 -79 48 -188q0 -129 -60 -234zM315 1055q38 -50 105 -80q80 -35 178 -62v553q-96 -9 -168 -49
q-74 -41 -113 -100q-38 -58 -38 -135q0 -79 36 -127zM725 94h-4q108 9 188 56q79 46 123 120q43 73 43 170q0 83 -41 142q-39 56 -116 94q-75 37 -193 67v-649z" />
    <glyph glyph-name="percent" unicode="%" horiz-adv-x="1859" 
d="M229 752l-4 -2q-75 54 -114 149t-39 238q0 137 41 237t114 152q71 51 179 51q106 0 180 -51q76 -52 116 -150q41 -100 41 -237q0 -213 -88 -326t-247 -113q-106 0 -179 52zM555 -2h-135l872 1556h135zM563 877v-5q55 88 55 261q0 174 -55 262q-56 90 -160 90
q-101 0 -159 -88t-58 -260t58 -260q59 -89 159 -89q104 0 160 89zM1264 23l-4 -3q-76 54 -115 150q-39 95 -39 238q0 137 41 237q40 99 115 152q71 51 178 51t178 -51q76 -54 115 -150q41 -100 41 -237q0 -143 -39 -238q-39 -94 -115 -149q-73 -52 -178 -52t-178 52z
M1599 147v-4q56 89 56 260q0 174 -56 263q-56 90 -159 90q-105 0 -160 -88t-55 -260q0 -173 55 -261t160 -88q104 0 159 88z" />
    <glyph glyph-name="ampersand" unicode="&#x26;" horiz-adv-x="1527" 
d="M1493 0l-168 -8l-217 244q-96 -125 -221 -195q-129 -72 -283 -72q-148 0 -262 51q-117 52 -184 154q-68 103 -68 244q0 125 53 217t142 160q88 67 215 129l-11 10q-51 56 -92 115q-35 51 -55 100q-20 50 -20 111q0 83 47 157q47 73 129 117q82 43 190 43q109 0 191 -43
q85 -45 127 -113q43 -70 43 -159q0 -81 -43 -142q-44 -63 -113 -108q-75 -50 -174 -99l-27 -12l408 -459l217 365h133l-270 -455zM477 1167l-4 -4q16 -35 45 -76q25 -35 76 -92l20 -24l21 10q103 53 147 82q58 40 90 82q33 44 33 104q0 107 -61 162t-160 55q-60 0 -113 -24
q-51 -23 -82 -74q-30 -50 -30 -115q0 -45 18 -86zM848 133l-2 -4q100 67 178 182l-455 512q-116 -56 -192 -114q-74 -56 -115 -127t-41 -166q0 -109 53 -189t140 -121q84 -40 188 -40q145 0 246 67z" />
    <glyph glyph-name="quotesingle" unicode="'" horiz-adv-x="415" 
d="M260 1028h-104l-21 528h146z" />
    <glyph glyph-name="parenleft" unicode="(" horiz-adv-x="600" 
d="M436 -401h-2q-330 475 -330 987q0 278 91 522q88 234 239 451h139q-151 -218 -239 -455q-90 -241 -90 -518q0 -284 92 -531q90 -241 239 -456h-139z" />
    <glyph glyph-name="parenright" unicode=")" horiz-adv-x="600" 
d="M25 -401v-2q331 475 331 989q0 282 -92 520q-93 242 -241 453h141q151 -212 239 -449q91 -244 91 -522q0 -520 -328 -989h-141z" />
    <glyph glyph-name="asterisk" unicode="*" horiz-adv-x="915" 
d="M799 1585l28 -92l-290 -96l188 -256l-78 -56l-190 256l-191 -256l-78 56l191 256l-293 96l29 92l295 -96v297h96v-295z" />
    <glyph glyph-name="plus" unicode="+" horiz-adv-x="1292" 
d="M702 606h488v-108h-488v-498h-112v498h-490v108h490v484h112v-484z" />
    <glyph glyph-name="comma" unicode="," horiz-adv-x="491" 
d="M166 0v240h160v-258l-136 -246h-98l121 264h-47z" />
    <glyph glyph-name="hyphen" unicode="-" horiz-adv-x="886" 
d="M760 520h-635v113h635v-113z" />
    <glyph glyph-name="period" unicode="." horiz-adv-x="491" 
d="M326 0h-160v240h160v-240z" />
    <glyph glyph-name="slash" unicode="/" horiz-adv-x="948" 
d="M205 0h-146l684 1556h146z" />
    <glyph glyph-name="zero" unicode="0" horiz-adv-x="1433" 
d="M401 70h-4q-131 91 -202 270q-70 177 -70 434q0 252 72 434q71 180 202 271q133 92 316 92q182 0 315 -92q132 -92 203 -271q72 -182 72 -434q0 -257 -70 -434q-70 -178 -203 -270q-134 -93 -315 -93q-182 0 -316 93zM952 166v-4q101 75 154 231q53 154 53 379t-53 379
q-53 156 -154 231q-104 78 -239 78q-139 0 -240 -76q-101 -75 -154 -231q-53 -154 -53 -379t53 -379q53 -156 154 -231q101 -76 240 -76q135 0 239 78z" />
    <glyph glyph-name="one" unicode="1" horiz-adv-x="739" 
d="M416 1556h106v-1556h-137v1219h-332v114h146q73 0 116 15q42 14 64 43t31 77z" />
    <glyph glyph-name="two" unicode="2" horiz-adv-x="1312" 
d="M254 115l963 -4v-115h-1115v160l680 598q84 75 133 129q56 62 84 123q31 67 31 135q0 89 -43 162q-43 72 -129 116q-85 43 -205 43q-171 0 -278 -84q-105 -82 -117 -233h-143q9 136 84 233q76 98 192 146q119 49 264 49q155 0 271 -55q118 -56 182 -154q66 -101 66 -221
q0 -93 -33 -166q-38 -83 -94 -148q-61 -71 -156 -153z" />
    <glyph glyph-name="three" unicode="3" horiz-adv-x="1327" 
d="M975 774l-2 2q99 -44 166 -125q67 -82 67 -209q0 -148 -80 -254q-77 -102 -211 -155q-128 -51 -288 -51q-152 0 -265 49t-184 141t-86 219h141q18 -137 121 -217t271 -80q111 0 209 37t163 117q64 79 64 198q0 107 -62 181q-61 72 -163 110q-101 37 -218 37h-83v115h83
q114 0 201 37q91 39 139 104q50 68 50 150t-47 147t-134 103q-82 36 -200 36q-110 0 -183 -36q-75 -37 -122 -99t-56 -143h-141q9 118 80 207q70 88 180 137t242 49q145 0 264 -49q120 -50 190 -137q70 -88 70 -205q0 -162 -111 -248q-112 -86 -260 -113q98 -12 195 -55z
" />
    <glyph glyph-name="four" unicode="4" horiz-adv-x="1339" 
d="M1040 598h240v-115h-240v-483h-139v483h-844v158l682 915h150l-713 -958h725v958h139v-958z" />
    <glyph glyph-name="five" unicode="5" horiz-adv-x="1318" 
d="M963 991l-7 -8q117 -64 187 -184q69 -117 69 -287q0 -169 -73 -291q-72 -121 -199 -186q-125 -64 -278 -64q-143 0 -259 49q-115 49 -190 142q-74 92 -92 219h141q12 -88 68 -156q54 -66 141 -104q84 -37 195 -37q119 0 208 51q96 55 146 150q53 100 53 231
q0 133 -55 227q-57 97 -148 146t-202 49q-142 0 -248 -68q-107 -69 -158 -186l-133 14l82 856h915v-114h-790l-62 -645q35 72 95 129q58 55 147 94q84 37 193 37q138 0 254 -64z" />
    <glyph glyph-name="six" unicode="6" horiz-adv-x="1394" 
d="M1032 958l2 -2q121 -65 185 -184q65 -121 65 -276q0 -156 -74 -277q-73 -119 -200 -184q-125 -64 -283 -64q-182 0 -319 90q-135 88 -209 269q-74 180 -74 442q0 253 74 436q73 181 209 273t313 92q210 0 342 -100q135 -102 184 -285h-141q-41 128 -135 201t-248 73
q-151 0 -252 -88q-103 -89 -152 -241q-49 -151 -49 -353q0 -12 4 -110q26 104 99 186q70 79 170 123q98 43 207 43q163 0 282 -64zM940 139h-2q91 51 149 146q56 92 56 213q0 122 -49 213q-50 93 -144 145q-95 53 -227 53q-125 0 -223 -55q-99 -56 -154 -143
q-55 -88 -55 -187q0 -114 49 -215t147 -162t238 -61q120 0 215 53z" />
    <glyph glyph-name="seven" unicode="7" horiz-adv-x="1083" 
d="M49 1442v114h989v-159l-733 -1397h-160l764 1442h-860z" />
    <glyph glyph-name="eight" unicode="8" horiz-adv-x="1388" 
d="M1057 774h-4q87 -47 147 -131q62 -86 62 -209q0 -144 -76 -248q-75 -103 -209 -159q-133 -56 -289 -56t-289 56q-134 56 -209 159t-75 248q0 124 61 209q60 83 148 131q86 47 176 62q-140 30 -238 112t-98 240q0 114 65 203q65 90 185 139q119 49 276 49q158 0 277 -49
q118 -49 184 -139q66 -91 66 -203q0 -158 -99 -240q-98 -82 -237 -112q90 -15 176 -62zM348 1032h-6q40 -64 127 -102q84 -37 215 -37t215 37q87 38 127 102q41 65 41 148t-43 147q-44 66 -129 103q-82 36 -209 36q-125 0 -207 -36q-85 -37 -129 -103q-43 -64 -43 -147
t41 -148zM893 129h-2q99 41 160 119q61 79 61 196q0 110 -57 185q-58 76 -156 116q-95 39 -217 39q-120 0 -215 -39q-101 -41 -158 -116q-59 -77 -59 -185q0 -117 61 -196q61 -78 160 -119q95 -39 211 -39t211 39z" />
    <glyph glyph-name="nine" unicode="9" horiz-adv-x="1394" 
d="M987 1489l-6 -12q135 -88 209 -269q74 -180 74 -442q0 -253 -74 -436q-73 -181 -209 -273t-313 -92q-204 0 -340 103t-185 286h142q40 -124 135 -198t250 -74q151 0 252 88q100 87 151 244q49 151 49 354q0 13 -4 111q-27 -107 -98 -187q-70 -79 -170 -123
q-98 -43 -207 -43q-164 0 -283 64q-120 64 -184 184q-65 121 -65 277q0 157 73 276q72 118 201 184t283 66q185 0 319 -88zM887 686l-2 -6q98 55 153 143q56 89 56 187q0 112 -50 215q-48 100 -147 161q-100 62 -235 62q-124 0 -216 -51q-91 -51 -149 -146q-55 -91 -55 -211
q0 -122 49 -213q51 -94 143 -145t228 -51q127 0 225 55z" />
    <glyph glyph-name="colon" unicode=":" horiz-adv-x="491" 
d="M326 0h-160v240h160v-240zM326 684h-160v240h160v-240z" />
    <glyph glyph-name="semicolon" unicode=";" horiz-adv-x="493" 
d="M166 0v240h160v-258l-136 -246h-98l121 264h-47zM326 684h-160v240h160v-240z" />
    <glyph glyph-name="less" unicode="&#x3c;" horiz-adv-x="1185" 
d="M106 635l947 405v-116l-875 -377l875 -377v-117l-947 408v174z" />
    <glyph glyph-name="equal" unicode="=" horiz-adv-x="1310" 
d="M1155 707h-999v106h999v-106zM1155 295h-999v108h999v-108z" />
    <glyph glyph-name="greater" unicode="&#x3e;" horiz-adv-x="1185" 
d="M133 924v116l946 -405v-174l-946 -408v117l875 377z" />
    <glyph glyph-name="question" unicode="?" horiz-adv-x="1093" 
d="M438 502l-2 -8q0 128 43 215q45 91 142 172l79 69q72 58 99 88q34 37 55 80q20 41 20 96q0 67 -36 123q-38 59 -113 93t-184 34q-97 0 -172 -34q-77 -34 -123 -99q-45 -62 -51 -149h-138q9 127 76 215q68 89 174 135q105 45 234 45q143 0 250 -43q106 -43 165 -123
q60 -82 60 -184q0 -71 -27 -129t-67 -101q-29 -31 -99 -94l-82 -69q-65 -56 -102 -105q-36 -48 -51 -100q-15 -53 -15 -127h-135zM588 -8h-160v239h160v-239z" />
    <glyph glyph-name="at" unicode="@" horiz-adv-x="2004" 
d="M1444 1247v8q205 -120 325 -325q121 -207 121 -449q0 -175 -45 -280q-46 -106 -123 -156q-76 -49 -172 -49q-74 0 -141 31q-61 28 -104 84q-41 53 -50 120q-40 -100 -129 -168q-88 -67 -221 -67q-93 0 -168 37q-78 38 -123 104q-45 65 -45 158q0 99 58 160q61 64 149 90
q98 29 217 43l264 33v30v4q0 71 -30 127t-88 90q-56 33 -142 33q-114 0 -178 -55q-66 -57 -78 -143h-137q9 89 62 157t137 105t196 37q127 0 213 -45q91 -48 136 -125q47 -80 47 -181v-4v-348v-4q0 -91 49 -143t131 -52q94 0 154 84q57 80 57 289q0 214 -107 391
q-108 179 -288 283t-394 104t-391 -104q-178 -104 -282 -285q-105 -182 -105 -393t105 -393q104 -181 282 -285q177 -104 391 -104q104 0 195 26q95 27 184 74l60 -96q-206 -117 -441 -117q-241 0 -448 121q-206 120 -326 326q-121 207 -121 448q0 242 121 449
q119 204 326 325t448 121q242 0 449 -121zM1106 139v-8q70 43 108 117q37 73 37 166v104l-200 -22q-112 -15 -185 -33q-68 -17 -118 -60q-46 -40 -46 -110q0 -60 31 -105q29 -42 86 -67q58 -25 121 -25q96 0 166 43z" />
    <glyph glyph-name="A" unicode="A" horiz-adv-x="1521" 
d="M1509 0h-149l-191 502h-817l-190 -502h-152l596 1556h148l-353 -927h719l-354 927h147z" />
    <glyph glyph-name="B" unicode="B" horiz-adv-x="1447" 
d="M1223 696l-2 -4q114 -99 114 -272q0 -136 -67 -230q-66 -93 -197 -143q-128 -49 -313 -49h-549v1556h549q172 0 286 -51q119 -53 177 -141q59 -89 59 -203q0 -150 -104 -241q-106 -92 -277 -113q209 -9 324 -109zM1032 1352l-2 -2q-98 73 -274 73h-408v-561h408
q175 0 276 72q98 70 98 209q0 136 -98 209zM756 119h-2q210 0 319 80t109 227q0 148 -107 227q-109 80 -319 80h-410v-614h410z" />
    <glyph glyph-name="C" unicode="C" horiz-adv-x="1591" 
d="M461 78l-4 -12q-163 105 -252 284q-92 186 -92 418q0 234 92 416q90 178 256 282q165 103 366 103q169 0 310 -66q139 -65 229 -180q92 -118 135 -266h-145q-63 174 -197 284q-131 107 -330 107q-162 0 -292 -86q-129 -85 -203 -240q-74 -154 -74 -350t74 -350t201 -240
t282 -86q206 0 344 105q141 107 207 291h145q-79 -251 -258 -383t-438 -132q-199 0 -356 101z" />
    <glyph glyph-name="D" unicode="D" horiz-adv-x="1609" 
d="M725 1556h-2q232 0 405 -92q176 -93 269 -266q94 -175 94 -420t-94 -420q-94 -174 -267 -266t-405 -92h-514v1556h514zM727 127v-2q193 0 330 76q140 77 213 221q73 143 73 354q0 208 -73 354q-73 147 -213 224q-137 76 -330 76h-377v-1303h377z" />
    <glyph glyph-name="E" unicode="E" horiz-adv-x="1329" 
d="M352 741v-614h858v-127h-999v1556h981v-126h-840v-562h826v-127h-826z" />
    <glyph glyph-name="F" unicode="F" horiz-adv-x="1265" 
d="M1174 1556v-126h-822v-586h809v-127h-809v-717h-141v1556h963z" />
    <glyph glyph-name="G" unicode="G" horiz-adv-x="1685" 
d="M782 811l738 -12v-811h-125v422q-34 -116 -107 -217q-74 -102 -192 -166q-119 -64 -279 -64q-197 0 -362 103q-163 102 -254 282q-92 182 -92 416t92 416q90 178 256 282q165 103 366 103q175 0 314 -62q138 -61 229 -172q92 -112 135 -260h-145q-64 174 -197 277
q-132 102 -332 102q-160 0 -290 -86q-129 -85 -203 -240q-74 -154 -74 -350q0 -198 74 -352t207 -240t297 -86q158 0 280 70q125 72 195 203q71 133 71 317h-602v125z" />
    <glyph glyph-name="H" unicode="H" horiz-adv-x="1615" 
d="M1264 868v688h139v-1556h-139v741h-912v-741h-141v1556h141v-688h912z" />
    <glyph glyph-name="I" unicode="I" horiz-adv-x="563" 
d="M352 0h-141v1556h141v-1556z" />
    <glyph glyph-name="J" unicode="J" horiz-adv-x="731" 
d="M41 0l-2 127h139q107 0 160 41q51 39 51 141v1247h139v-1265q0 -150 -86 -221q-85 -70 -245 -70h-156z" />
    <glyph glyph-name="K" unicode="K" horiz-adv-x="1406" 
d="M528 821l897 -821h-190l-883 809v-809h-141v1556h141v-727l805 727h189z" />
    <glyph glyph-name="L" unicode="L" horiz-adv-x="1118" 
d="M352 1556v-1429h727v-127h-868v1556h141z" />
    <glyph glyph-name="M" unicode="M" horiz-adv-x="2131" 
d="M352 0h-141v1556h141v-1556zM1059 0h-148l-544 1556h149zM1221 0h-148l543 1556h147zM1919 0h-139v1556h139v-1556z" />
    <glyph glyph-name="N" unicode="N" horiz-adv-x="1710" 
d="M352 0h-141v1556h141v-1556zM1346 0h-156l-823 1556h153zM1499 0h-141v1556h141v-1556z" />
    <glyph glyph-name="O" unicode="O" horiz-adv-x="1691" 
d="M467 78q-168 103 -258 282q-92 182 -92 418t92 418q91 181 258 283q163 100 379 100t379 -100q167 -102 258 -283q92 -182 92 -418t-92 -418q-90 -179 -258 -282q-165 -101 -379 -101t-379 101zM1149 184q133 86 207 240t74 350t-74 350t-207 240t-301 86t-301 -86
t-207 -240t-74 -350t74 -350t207 -240t301 -86t301 86z" />
    <glyph glyph-name="P" unicode="P" horiz-adv-x="1404" 
d="M737 1556l-2 5q181 0 314 -56q134 -56 206 -162q74 -109 74 -260t-74 -260q-72 -105 -204 -161q-133 -56 -314 -56h-385v-606h-141v1556h526zM739 737h-2q214 0 330 88q117 89 117 260q0 173 -117 261q-116 88 -328 88h-389v-697h389z" />
    <glyph glyph-name="Q" unicode="Q" horiz-adv-x="1699" 
d="M1743 0h-201l-209 154q-92 -83 -219 -131q-122 -46 -264 -46q-214 0 -379 101q-168 103 -258 282q-92 182 -92 418t92 418q91 181 258 283q163 100 379 100t379 -100q167 -102 258 -283q92 -182 92 -418q0 -162 -43 -295q-44 -135 -125 -239zM1053 133l-4 -2
q95 35 168 102l-381 281h204l258 -188q65 89 99 202q35 116 35 246q0 196 -74 350t-207 240t-301 86t-301 -86t-207 -240t-74 -350t74 -350t207 -240t301 -86q107 0 203 35z" />
    <glyph glyph-name="R" unicode="R" horiz-adv-x="1435" 
d="M1364 0l-166 2l-420 670h-20h-408v-670h-141v1557h549q157 0 284 -54q126 -54 189 -153q65 -103 65 -240q0 -166 -98 -276q-99 -111 -266 -148zM350 1432l-2 -635h412q123 0 207 37q87 38 133 108q47 71 47 172t-47 172t-133 109q-84 37 -205 37h-412z" />
    <glyph glyph-name="S" unicode="S" horiz-adv-x="1396" 
d="M399 37l-4 -2q-129 59 -209 170q-79 110 -100 256h145q15 -112 78 -197q59 -80 158 -125q93 -43 213 -43q146 0 250 43q105 44 160 119q55 76 55 178q0 89 -43 144q-44 56 -129 90q-72 29 -240 67l-178 39q-193 43 -307 135q-113 91 -113 256q0 112 72 209q70 94 194 150
q122 55 275 55q157 0 276 -51q124 -53 201 -148t98 -221h-145q-30 148 -148 225q-119 78 -284 78q-116 0 -203 -37q-91 -39 -141 -100q-51 -63 -51 -143q0 -86 38 -135q40 -52 119 -86q81 -35 215 -62l180 -41q170 -39 265 -88q100 -51 147 -129q47 -77 47 -190
q0 -139 -73 -246q-71 -105 -213 -168q-139 -62 -320 -62q-153 0 -285 60z" />
    <glyph glyph-name="T" unicode="T" horiz-adv-x="1284" 
d="M39 1556h1206v-126h-532v-1430h-142v1430h-532v126z" />
    <glyph glyph-name="U" unicode="U" horiz-adv-x="1587" 
d="M195 621l-2 6v932h139v-941v-4q0 -256 117 -385t346 -129q228 0 342 129t114 387v940h142v-931q0 -648 -598 -648q-600 0 -600 644z" />
    <glyph glyph-name="V" unicode="V" horiz-adv-x="1488" 
d="M737 0h-149l-574 1556h154zM901 0h-149l567 1556h156z" />
    <glyph glyph-name="W" unicode="W" horiz-adv-x="2299" 
d="M623 0h-150l-434 1556h149zM782 0h-145l360 1556h146zM1665 0h-147l-361 1556h146zM1827 0h-150l437 1556h147z" />
    <glyph glyph-name="X" unicode="X" horiz-adv-x="1509" 
d="M844 838l661 -838h-170l-579 733l-582 -733h-170l662 838l-570 718h168l490 -616l491 616h168z" />
    <glyph glyph-name="Y" unicode="Y" horiz-adv-x="1349" 
d="M1186 1556h162l-603 -874v-682h-141v682l-602 874h160l512 -739z" />
    <glyph glyph-name="Z" unicode="Z" horiz-adv-x="1374" 
d="M1278 1384l-1055 -1257h1094v-127h-1239v172l1055 1258h-1043v126h1188v-172z" />
    <glyph glyph-name="bracketleft" unicode="[" horiz-adv-x="632" 
d="M580 1556v-104h-242v-1749h242v-104h-377v1957h377z" />
    <glyph glyph-name="backslash" unicode="\" horiz-adv-x="948" 
d="M889 0h-146l-684 1556h146z" />
    <glyph glyph-name="bracketright" unicode="]" horiz-adv-x="632" 
d="M53 1452v104h377v-1957h-377v104h242v1749h-242z" />
    <glyph glyph-name="asciicircum" unicode="^" horiz-adv-x="1107" 
d="M651 1556l373 -792h-133l-336 729l-338 -729h-131l371 792h194z" />
    <glyph glyph-name="underscore" unicode="_" horiz-adv-x="1099" 
d="M1026 -104h-952v104h952v-104z" />
    <glyph glyph-name="grave" unicode="`" horiz-adv-x="546" 
d="M489 1251h-127l-305 305h185z" />
    <glyph glyph-name="a" unicode="a" horiz-adv-x="1173" 
d="M825 1055l-2 -2q97 -57 144 -150q45 -89 45 -194v-4v-707h-135v240q-60 -128 -150 -195q-92 -68 -248 -68q-107 0 -190 45q-85 46 -135 123t-50 176q0 115 68 183q67 67 166 94q105 29 231 43l303 33v22v4q0 84 -30 154q-29 68 -99 113q-67 43 -168 43q-86 0 -153 -31
q-60 -28 -100 -84q-37 -52 -43 -117h-140q12 96 68 174q55 76 149 119q93 43 222 43q151 0 247 -57zM713 121l-2 -4q79 53 120 141q41 90 41 201v114l-239 -26q-125 -15 -205 -33q-77 -18 -131 -65q-51 -45 -51 -130q0 -78 37 -133q38 -57 98 -86q62 -30 139 -30
q116 0 193 51z" />
    <glyph glyph-name="b" unicode="b" horiz-adv-x="1302" 
d="M969 1040l4 -2q108 -71 170 -200q61 -128 61 -295t-61 -295q-63 -132 -172 -201q-113 -72 -248 -72q-93 0 -174 37t-143 105q-59 65 -95 151v-270h-135v1556h135v-751q27 82 86 153q56 68 142 113q82 43 184 43q136 0 246 -72zM889 135l-6 -8q84 57 131 164
q47 106 47 244q0 141 -45 243q-47 107 -131 164q-86 59 -203 59q-120 0 -203 -57q-84 -57 -131 -164q-45 -102 -45 -241q0 -136 47 -242q46 -105 133 -164q83 -57 203 -57q117 0 203 59z" />
    <glyph glyph-name="c" unicode="c" horiz-adv-x="1187" 
d="M346 47l-4 -8q-117 70 -182 201q-64 128 -64 297q0 165 66 297q65 129 182 200q119 72 274 72q126 0 224 -49q100 -50 164 -135q65 -86 92 -203h-140q-36 133 -118 207q-87 78 -219 78q-118 0 -203 -58q-87 -59 -133 -164q-45 -102 -45 -241q0 -136 47 -242
q46 -105 133 -164q83 -57 203 -57q132 0 221 74q88 73 129 206h139q-30 -119 -100 -204q-73 -89 -172 -134t-222 -45q-153 0 -272 72z" />
    <glyph glyph-name="d" unicode="d" horiz-adv-x="1302" 
d="M993 1556h140v-1556h-136v270q-35 -85 -94 -149q-62 -68 -143 -105q-79 -36 -174 -36q-136 0 -248 71q-109 69 -172 201q-62 130 -62 295t62 295q62 129 170 200q110 72 246 72q102 0 184 -43q84 -44 141 -113q59 -71 86 -153v751zM825 137l-6 -8q87 59 133 164
q47 106 47 244q0 141 -45 243q-47 107 -131 164q-88 60 -202 60q-118 0 -203 -58q-84 -57 -131 -164q-45 -102 -45 -241q0 -136 47 -242q47 -107 131 -164q83 -57 203 -57q116 0 202 59z" />
    <glyph glyph-name="e" unicode="e" horiz-adv-x="1208" 
d="M1110 530l-2 -4q-2 -8 -2 -20h-870q6 -136 55 -234t131 -147t190 -49q133 0 215 61q84 62 121 176h139q-47 -171 -169 -256q-124 -86 -304 -86q-151 0 -270 72q-114 69 -180 201q-64 128 -64 297t64 297q66 131 180 200q119 72 266 72q143 0 258 -68q116 -69 179 -192
q65 -127 65 -289q0 -23 -2 -31zM424 956l-2 -2q-80 -46 -129 -135q-48 -85 -57 -211h733q-6 111 -54 203q-46 87 -127 141q-79 52 -182 52q-100 0 -182 -48z" />
    <glyph glyph-name="f" unicode="f" horiz-adv-x="733" 
d="M586 1452q-89 0 -133 -41q-43 -40 -43 -135v-186h301v-105h-301v-985h-136v985h-243v105h243v186q0 138 80 209t219 71h136v-104h-123z" />
    <glyph glyph-name="g" unicode="g" horiz-adv-x="1302" 
d="M997 1090l140 -7v-1110q0 -127 -66 -221q-64 -91 -174 -137q-107 -45 -246 -45q-132 0 -239 43q-108 44 -172 125q-65 83 -74 196h139q9 -85 57 -141q49 -58 125 -88q79 -31 166 -31q100 0 181 35q76 33 124 103q46 67 46 161v314q-36 -86 -95 -148q-62 -65 -143 -102
t-178 -37q-136 0 -248 68q-110 67 -172 194t-62 293t62 293q62 126 170 194q109 68 246 68q101 0 188 -41q86 -41 141 -108q57 -69 84 -152v281zM829 154h-6q87 57 133 157q48 105 48 240q0 139 -46 240q-47 102 -131 157q-86 56 -202 56q-117 0 -203 -56q-84 -55 -131 -157
q-45 -99 -45 -240q0 -137 47 -240q47 -102 131 -157q86 -56 203 -56q116 0 202 56z" />
    <glyph glyph-name="h" unicode="h" horiz-adv-x="1206" 
d="M862 1057h-8q87 -55 137 -154q49 -98 49 -225v-4v-676h-135v653v4q0 117 -37 195q-37 79 -104 119q-68 41 -156 41q-90 0 -155 -39q-68 -41 -105 -119t-37 -195v-655h-135v1557h135v-693q40 110 129 178t219 68q115 0 203 -55z" />
    <glyph glyph-name="i" unicode="i" horiz-adv-x="483" 
d="M309 0h-135v1090h135v-1090zM313 1298h-145v258h145v-258z" />
    <glyph glyph-name="j" unicode="j" horiz-adv-x="483" 
d="M-53 -401v102h49q89 0 133 41q43 40 43 135v1210h135v-1210q0 -138 -80 -209q-78 -69 -219 -69h-61zM313 1296h-145v258h145v-258z" />
    <glyph glyph-name="k" unicode="k" horiz-adv-x="1071" 
d="M469 608l598 -608h-170l-588 596v-596h-135v1556h135v-938l561 472h174z" />
    <glyph glyph-name="l" unicode="l" horiz-adv-x="483" 
d="M309 0h-135v1556h135v-1556z" />
    <glyph glyph-name="m" unicode="m" horiz-adv-x="1871" 
d="M1536 1059l10 -6q82 -52 129 -152t47 -227v-4v-676h-135v653v4q0 112 -35 193q-35 82 -98 121q-65 41 -149 41q-131 0 -209 -93q-76 -91 -76 -262v-655h-135v653v4q0 171 -76 262q-78 93 -209 93t-209 -93q-76 -91 -76 -262v-655h-135v1089h135v-225q40 109 127 178
q86 68 207 68q90 0 160 -37q73 -39 117 -100q45 -63 67 -142q21 72 68 138q45 63 117 104q71 41 163 41q112 0 195 -53z" />
    <glyph glyph-name="n" unicode="n" horiz-adv-x="1206" 
d="M862 1057h-8q87 -55 137 -154q49 -98 49 -225v-4v-676h-135v653v4q0 117 -37 195q-37 79 -104 119q-68 41 -156 41q-90 0 -155 -39q-68 -41 -105 -119t-37 -195v-655h-135v1090h135v-226q40 110 129 178t219 68q115 0 203 -55z" />
    <glyph glyph-name="o" unicode="o" horiz-adv-x="1234" 
d="M346 47l-4 -8q-117 70 -182 201q-64 128 -64 297q0 165 66 297q65 129 182 200q119 72 270 72q155 0 271 -70q119 -72 182 -198q66 -132 66 -297q0 -169 -64 -297t-182 -199q-116 -70 -271 -70q-151 0 -270 72zM815 129l-6 -8q84 57 131 164q47 106 47 243q0 142 -45 244
q-47 107 -131 164q-86 59 -203 59q-119 0 -202 -57q-85 -58 -132 -164q-45 -102 -45 -242q0 -135 47 -241q46 -104 134 -164q83 -57 202 -57q117 0 203 59z" />
    <glyph glyph-name="p" unicode="p" horiz-adv-x="1302" 
d="M969 1040l4 -2q108 -71 170 -200q61 -128 61 -295t-61 -295q-63 -132 -172 -201q-113 -72 -248 -72q-93 0 -174 37t-143 105q-59 65 -95 151v-671h-135v1490h135v-284q27 82 86 153q56 68 142 113q82 43 184 43q136 0 246 -72zM889 135l-6 -8q84 57 131 164
q47 106 47 244q0 141 -45 243q-47 107 -131 164q-86 59 -203 59q-120 0 -203 -57q-84 -57 -131 -164q-45 -102 -45 -241q0 -136 47 -242q46 -105 133 -164q83 -57 203 -57q117 0 203 59z" />
    <glyph glyph-name="q" unicode="q" horiz-adv-x="1302" 
d="M993 1090h140v-1491h-136v671q-35 -85 -94 -149q-62 -68 -143 -105q-79 -36 -174 -36q-136 0 -248 71q-109 69 -172 201q-62 130 -62 295t62 295q62 129 170 200q110 72 246 72q102 0 184 -43q84 -44 141 -113q59 -71 86 -153v285zM825 137l-6 -8q87 59 133 164
q47 106 47 244q0 141 -45 243q-47 107 -131 164q-88 60 -202 60q-118 0 -203 -58q-84 -57 -131 -164q-45 -102 -45 -241q0 -136 47 -242q47 -107 131 -164q83 -57 203 -57q116 0 202 59z" />
    <glyph glyph-name="r" unicode="r" horiz-adv-x="727" 
d="M309 854q89 258 377 258v-133h-39q-338 0 -338 -315v-664h-135v1090h135v-236z" />
    <glyph glyph-name="s" unicode="s" horiz-adv-x="1052" 
d="M317 16l-12 -14q-93 40 -155 117q-63 79 -78 184h139q24 -118 111 -178q83 -57 200 -57q91 0 158 28q62 26 98 78q35 50 35 107q0 59 -27 100q-26 39 -81 63q-53 23 -152 45l-127 27q-157 35 -240 98q-86 65 -86 185q0 89 56 157q57 69 147 109q88 39 207 39
q105 0 190 -33q90 -35 150 -98q61 -64 82 -160h-139q-15 58 -56 102q-43 46 -98 66q-64 23 -123 23q-66 0 -133 -23q-58 -20 -98 -66q-37 -43 -37 -100q0 -52 31 -88q29 -33 83 -55q51 -21 142 -39l127 -27q173 -38 252 -108q80 -71 80 -197q0 -96 -56 -170
q-57 -76 -153 -115q-100 -41 -222 -41q-119 0 -215 41z" />
    <glyph glyph-name="t" unicode="t" horiz-adv-x="749" 
d="M707 104v-108h-138q-140 0 -219 70q-80 71 -80 208v5v704h-243v104h243v259h136v-259h301v-104h-301v-704v-5q0 -91 43 -131q42 -39 133 -39h125z" />
    <glyph glyph-name="u" unicode="u" horiz-adv-x="1196" 
d="M887 1090l135 -9v-1089h-135v223q-44 -110 -131 -176q-89 -68 -215 -68q-113 0 -199 56q-87 56 -135 153q-49 98 -49 226v4v675h135v-653v-4q0 -114 37 -192q37 -79 104 -119q65 -39 156 -39q87 0 155 41q67 40 105 121q37 78 37 194v656z" />
    <glyph glyph-name="v" unicode="v" horiz-adv-x="1155" 
d="M571 0h-135l-405 1090h139zM719 0h-135l401 1090h139z" />
    <glyph glyph-name="w" unicode="w" horiz-adv-x="1806" 
d="M494 0h-134l-315 1090h133zM639 0h-131l258 1090h131zM1298 0h-131l-258 1090h131zM1446 0h-133l315 1090h133z" />
    <glyph glyph-name="x" unicode="x" horiz-adv-x="1093" 
d="M631 590l442 -590h-149l-377 498l-377 -498h-150l443 590l-395 500h149l330 -412l330 412h149z" />
    <glyph glyph-name="y" unicode="y" horiz-adv-x="1126" 
d="M580 117h-142l-422 973h142zM539 -401h-144l561 1491h140z" />
    <glyph glyph-name="z" unicode="z" horiz-adv-x="1019" 
d="M918 944l-701 -840h744v-104h-881v145l700 840h-686v105h824v-146z" />
    <glyph glyph-name="braceleft" unicode="{" horiz-adv-x="649" 
d="M401 922l2 -9q0 -115 -28 -182q-27 -64 -76 -94q-53 -32 -125 -49q72 -17 125 -49q50 -30 78 -97q29 -69 29 -178v-4v-371v-4q0 -188 147 -188h25v-105h-39q-132 0 -201 72q-68 71 -68 201v4v369v4q0 111 -22 172q-21 59 -64 80q-44 21 -118 30v138q75 9 116 30t62 80
q22 61 22 172v338q0 132 68 203t201 71h38v-104h-24q-148 0 -148 -190v-340z" />
    <glyph glyph-name="bar" unicode="|" horiz-adv-x="532" 
d="M332 -463h-129v2142h129v-2142z" />
    <glyph glyph-name="braceright" unicode="}" horiz-adv-x="649" 
d="M406 770l-9 6q21 -58 66 -80q44 -21 119 -30v-138q-76 -9 -117 -30t-62 -80q-22 -61 -22 -172v-373q0 -132 -68 -203t-200 -71h-39v104h24q148 0 148 191v374q0 116 28 183q27 65 78 96q53 32 125 49q-72 17 -125 49q-48 29 -76 96t-28 179v4v336v4q0 188 -148 188h-24
v104h39q132 0 200 -71t68 -201v-4v-334v-4q0 -108 23 -172z" />
    <glyph glyph-name="asciitilde" unicode="~" horiz-adv-x="1349" 
d="M113 528l-11 -2q149 174 314 174q58 0 110 -12q57 -13 142 -49q81 -34 137 -49q55 -15 108 -15q72 0 125 33q58 36 123 101l72 -72q-72 -82 -150 -127q-80 -47 -161 -47q-54 0 -107 12q-55 13 -141 49q-72 33 -133 49q-63 17 -111 17q-72 0 -125 -33q-55 -35 -119 -98z
" />
    <glyph glyph-name="uni00A0" unicode="&#xa0;" horiz-adv-x="536" 
 />
    <glyph glyph-name="exclamdown" unicode="&#xa1;" horiz-adv-x="493" 
d="M326 850h-160v240h160v-240zM319 -401h-147l14 989h121z" />
    <glyph glyph-name="cent" unicode="&#xa2;" horiz-adv-x="1251" 
d="M1145 362l-8 -2q-40 -164 -154 -266t-276 -117v-247h-125v250q-139 15 -240 88q-103 74 -158 196t-55 279q0 156 55 278q56 123 158 197q101 73 240 88v242h125v-240q164 -15 274 -119t147 -266h-139q-27 114 -98 188q-72 75 -178 93v-922q111 15 184 88q76 76 109 192
h139zM301 319h-2q36 -95 109 -159q72 -63 170 -78v922q-95 -14 -168 -78q-72 -63 -109 -160q-37 -98 -37 -223q0 -126 37 -224z" />
    <glyph glyph-name="sterling" unicode="&#xa3;" horiz-adv-x="1228" 
d="M1143 115l-13 -121h-1007v160q116 72 182 129q69 60 103 120q34 61 34 142t-34 153h-308v115h224q-79 95 -121 174q-43 82 -43 184q0 122 63 211q66 93 172 142q107 49 240 49q132 0 231 -45q103 -47 164 -129q63 -85 78 -191h-141q-21 123 -109 189q-86 65 -219 65
q-93 0 -168 -37q-76 -37 -119 -104t-43 -158q0 -61 21 -114q22 -54 55 -99q35 -47 86 -104l25 -31h489v-115h-420q29 -76 29 -143q0 -91 -37 -164q-37 -72 -115 -141q-74 -66 -202 -137h903z" />
    <glyph glyph-name="currency" unicode="&#xa4;" horiz-adv-x="1359" 
d="M1153 594l-4 -2q-28 -82 -80 -146l139 -139l-86 -84l-137 139q-64 -52 -143 -79q-85 -29 -166 -29t-166 29q-79 27 -143 79l-140 -139l-84 84l140 139q-52 64 -80 146q-29 85 -29 168t29 168q27 80 80 145l-140 139l84 82l140 -137q65 53 145 80q85 29 166 29
q86 0 166 -27t145 -80l137 137l86 -82l-139 -139q53 -65 80 -145q29 -85 29 -168t-29 -168zM348 565l-4 -2q52 -85 139 -135q85 -49 189 -49q103 0 188 49q87 50 139 135t52 195q0 105 -52 190q-53 86 -137 135q-86 50 -188 50q-103 0 -189 -50q-84 -49 -137 -135
q-51 -83 -51 -190q0 -110 51 -193z" />
    <glyph glyph-name="yen" unicode="&#xa5;" horiz-adv-x="1464" 
d="M1247 1556h158l-541 -780h393v-117h-454v-188h454v-115h-454v-356h-139v356h-457v115h457v188h-457v117h395l-541 780h158l514 -745z" />
    <glyph glyph-name="brokenbar" unicode="&#xa6;" horiz-adv-x="546" 
d="M338 860h-129v819h129v-819zM338 -463h-129v819h129v-819z" />
    <glyph glyph-name="section" unicode="&#xa7;" horiz-adv-x="1187" 
d="M985 213v-12q25 -52 25 -111q0 -83 -49 -153q-51 -72 -144 -115t-223 -43q-123 0 -223 41q-98 40 -160 114q-63 75 -78 170h141q20 -95 109 -153q85 -55 209 -55q88 0 147 26q58 26 95 72q32 40 32 96q0 53 -30 94q-29 39 -80 70q-54 33 -138 74l-294 137
q-122 60 -177 135q-55 76 -55 178q0 84 43 154q43 69 133 135q-47 41 -71 90q-25 52 -25 111q0 83 49 153q51 72 144 115t223 43q128 0 223 -39q100 -41 160 -113q62 -74 80 -172h-144q-21 97 -108 154q-85 55 -211 55q-89 0 -148 -26q-63 -28 -92 -70q-31 -45 -31 -96
q0 -52 31 -94q29 -39 80 -70q50 -30 139 -74l293 -137q121 -59 176 -135q56 -77 56 -174q0 -80 -43 -150q-43 -69 -136 -135q49 -43 72 -90zM727 403h2q32 -15 98 -49q123 102 123 209q0 75 -41 131t-145 105l-303 145q-41 19 -99 49q-122 -94 -122 -209q0 -75 41 -131
q40 -55 141 -104z" />
    <glyph glyph-name="dieresis" unicode="&#xa8;" horiz-adv-x="643" 
d="M203 1298h-146v258h146v-258zM586 1298h-146v258h146v-258z" />
    <glyph glyph-name="copyright" unicode="&#xa9;" horiz-adv-x="1933" 
d="M545 49l-4 -4q-195 115 -308 307q-112 190 -112 424q0 229 115 424q114 193 307 307q195 115 424 115q232 0 424 -113q193 -114 307 -307q114 -194 114 -424q0 -234 -112 -424q-114 -193 -307 -307q-192 -113 -424 -113q-229 0 -424 115zM1329 139v-2q168 98 266 266
q99 169 99 369t-99 369q-100 171 -266 268q-168 98 -368 98q-201 0 -369 -98t-266 -266q-99 -169 -99 -369q0 -198 99 -368q99 -169 266 -267q168 -98 369 -98q200 0 368 98zM733 332l-4 4q-105 64 -166 178q-61 113 -61 258t61 258q61 114 166 178q104 64 236 64
q109 0 196 -43q92 -45 152 -117q63 -75 84 -170h-119q-41 110 -119 170q-80 62 -192 62q-95 0 -172 -50t-123 -141q-45 -89 -45 -215q0 -123 47 -215q46 -91 123 -141t166 -50q117 0 202 60q83 59 117 172h121q-27 -101 -88 -174q-59 -70 -152 -113q-85 -39 -196 -39
q-130 0 -234 64z" />
    <glyph glyph-name="ordfeminine" unicode="&#xaa;" horiz-adv-x="651" 
d="M459 1538l-2 2q57 -31 80 -76q24 -47 24 -100v-4v-352h-110v114q-20 -53 -72 -92q-49 -37 -127 -37q-48 0 -96 23q-45 22 -68 61q-25 42 -25 92q0 81 66 119t172 47l150 17v8v4q0 58 -37 92q-36 33 -92 33q-54 0 -89 -27q-33 -26 -36 -67h-115q9 80 74 127t166 47
q80 0 137 -31zM408 1114l-2 -4q38 46 38 127v37l-102 -10q-79 -9 -125 -31q-43 -21 -43 -68q0 -46 35 -73q34 -27 86 -27q73 0 113 49z" />
    <glyph glyph-name="guillemotleft" unicode="&#xab;" horiz-adv-x="1161" 
d="M471 1010h160l-367 -449l367 -471h-160l-369 471zM897 1010h160l-367 -449l367 -471h-160l-369 471z" />
    <glyph glyph-name="logicalnot" unicode="&#xac;" horiz-adv-x="1280" 
d="M1114 236h-113v497h-886v109h999v-606z" />
    <glyph glyph-name="uni00AD" unicode="&#xad;" horiz-adv-x="886" 
d="M760 520h-635v113h635v-113z" />
    <glyph glyph-name="registered" unicode="&#xae;" horiz-adv-x="1933" 
d="M1389 1505l-5 -4q195 -115 308 -307q114 -193 114 -424q0 -234 -112 -424q-113 -192 -308 -307q-192 -113 -423 -113q-229 0 -424 115t-308 307q-112 190 -112 424q0 231 114 424q113 192 308 307t424 115q232 0 424 -113zM1329 139v-2q168 98 266 266q99 169 99 369
t-99 369q-100 171 -266 268q-168 98 -368 98q-201 0 -369 -98t-266 -266q-99 -169 -99 -369q0 -198 99 -368q99 -169 266 -267q168 -98 369 -98q200 0 368 98zM1284 797h2q-62 -71 -172 -95l264 -426h-135l-248 414h-2h-241v-414h-117v986h358q106 0 187 -35q80 -35 123 -99
t43 -153q0 -107 -62 -178zM752 1163v-375h239q107 0 172 50q64 49 64 137q0 90 -64 139t-172 49h-239z" />
    <glyph glyph-name="macron" unicode="&#xaf;" horiz-adv-x="784" 
d="M727 1343h-670v103h670v-103z" />
    <glyph glyph-name="degree" unicode="&#xb0;" horiz-adv-x="802" 
d="M250 1014q-71 41 -111 110q-41 71 -41 154t41 154q40 69 111 110t153 41q83 0 154 -41t111 -110q41 -71 41 -154t-41 -154q-40 -69 -111 -110t-154 -41q-82 0 -153 41zM500 1106q45 26 73 74q27 46 27 98t-27 98q-28 48 -73 74q-46 27 -99 27q-51 0 -98 -27t-74 -74
q-26 -45 -26 -98t26 -98q27 -47 74 -74t98 -27q53 0 99 27z" />
    <glyph glyph-name="plusminus" unicode="&#xb1;" horiz-adv-x="1343" 
d="M729 1090v-375h488v-109h-488v-391h-113v391h-489v109h489v375h113zM1217 0h-1090v109h1090v-109z" />
    <glyph glyph-name="uni00B2" unicode="&#xb2;" horiz-adv-x="684" 
d="M188 1098l451 -2v-92h-586v120l340 283q56 50 82 86q27 37 27 84q0 55 -43 92t-117 37t-117 -37t-49 -100h-119q3 66 41 119q37 52 99 79q66 29 145 29q81 0 145 -31t97 -79q34 -49 34 -107q0 -72 -34 -127q-35 -56 -109 -115z" />
    <glyph glyph-name="uni00B3" unicode="&#xb3;" horiz-adv-x="696" 
d="M575 1358h-8q68 -47 68 -135q0 -110 -86 -172t-223 -62q-125 0 -203 60q-76 58 -88 159h119q9 -61 53 -96t121 -35q80 0 133 39q55 40 55 111q0 70 -61 104q-62 35 -144 35h-43v92h43q46 0 92 17q38 14 64 43q25 28 25 61q0 34 -21 61q-23 29 -57 43q-43 17 -84 17
q-65 0 -107 -33q-43 -34 -49 -86h-119q3 59 41 109q36 47 99 75q66 29 137 29q74 0 141 -25q66 -25 102 -69q37 -46 37 -105q0 -82 -55 -125t-137 -55q90 -12 155 -57z" />
    <glyph glyph-name="acute" unicode="&#xb4;" horiz-adv-x="546" 
d="M184 1251h-127l248 305h184z" />
    <glyph glyph-name="uni00B5" unicode="&#xb5;" horiz-adv-x="1323" 
d="M1257 104l-6 -114h-98q-107 0 -162 43q-54 42 -69 129q-4 46 -4 55q-40 -108 -130 -176q-89 -68 -215 -68q-71 0 -135 27q-62 26 -110 80v-483h-135v1490h135v-655v-4q0 -114 37 -192q37 -79 104 -119q65 -39 156 -39q87 0 155 41q67 40 105 121q37 78 37 194v656h135
v-867v-4q0 -59 30 -86q32 -29 93 -29h77z" />
    <glyph glyph-name="paragraph" unicode="&#xb6;" horiz-adv-x="1282" 
d="M483 717v2q-115 0 -209 55q-96 57 -151 154q-55 98 -55 213t55 209q56 95 151 151q94 55 209 55h576v-1746h-129v1636h-316v-1636h-131v907z" />
    <glyph glyph-name="periodcentered" unicode="&#xb7;" horiz-adv-x="454" 
d="M307 485h-160v240h160v-240z" />
    <glyph glyph-name="cedilla" unicode="&#xb8;" horiz-adv-x="391" 
d="M172 -82l-4 -4q71 -6 117 -49q45 -42 45 -111q0 -71 -51 -116q-52 -46 -138 -46h-88v82h78q48 0 78 23q29 23 29 65q0 38 -29 64q-27 24 -68 24h-55v150h86v-82z" />
    <glyph glyph-name="uni00B9" unicode="&#xb9;" horiz-adv-x="413" 
d="M211 1784l92 2v-778h-117v577h-168v92h60q59 0 90 17q30 16 41 55z" />
    <glyph glyph-name="ordmasculine" unicode="&#xba;" horiz-adv-x="669" 
d="M188 1028v-2q-63 37 -98 102t-35 148q0 86 35 151q36 67 98 103q64 37 148 37q83 0 147 -37q66 -38 99 -100q34 -64 34 -152q0 -84 -34 -148t-99 -102q-64 -37 -147 -37q-84 0 -148 37zM455 1126l-2 -6q43 55 43 152q0 95 -43 153t-119 58q-77 0 -121 -56
q-43 -55 -43 -151q0 -95 43 -150t121 -55t121 55z" />
    <glyph glyph-name="guillemotright" unicode="&#xbb;" horiz-adv-x="1161" 
d="M102 1010h160l369 -449l-369 -471h-160l369 469zM530 1010h160l369 -449l-369 -471h-160l367 471z" />
    <glyph glyph-name="onequarter" unicode="&#xbc;" horiz-adv-x="1435" 
d="M1239 315h117v-92h-117v-223h-115v223h-409v121l291 434h118l-303 -463h303v463h115v-463zM293 1556l92 3v-779h-117v578h-168v92h60q61 0 90 16t41 56zM213 2h-137l1011 1557h138z" />
    <glyph glyph-name="onehalf" unicode="&#xbd;" horiz-adv-x="1480" 
d="M948 92l451 -2v-92h-586v121l340 282q56 50 82 86q27 37 27 84q0 56 -43 93q-42 36 -117 36t-117 -36q-43 -37 -49 -101h-119q3 66 41 119q38 54 98 80q66 29 146 29q81 0 145 -31q61 -30 96 -80t35 -107q0 -71 -35 -127t-108 -114zM293 1554l92 2v-778h-117v578h-168v92
h60q61 0 90 16t41 56zM213 0h-137l1011 1556h138z" />
    <glyph glyph-name="threequarters" unicode="&#xbe;" horiz-adv-x="1630" 
d="M610 1130h-8q68 -47 68 -135q0 -110 -86 -172q-85 -61 -224 -61q-125 0 -202 59q-76 58 -88 160h118q9 -60 54 -96q44 -35 120 -35q81 0 134 39q55 40 55 110t-62 105t-143 35h-43v92h43q49 0 92 16q38 14 64 43q24 27 24 62t-20 61q-23 29 -57 43q-43 17 -84 17
q-65 0 -107 -33q-43 -34 -49 -86h-119q3 58 41 108q37 49 98 76q66 29 138 29q74 0 141 -25q66 -25 102 -69q37 -46 37 -105q0 -82 -55 -125t-137 -55q88 -12 155 -58zM403 -2h-137l1012 1556h137zM1430 313h116v-92h-116v-223h-115v223h-410v121l291 434h119l-303 -463h303
v463h115v-463z" />
    <glyph glyph-name="questiondown" unicode="&#xbf;" horiz-adv-x="1081" 
d="M657 850h-159v240h159v-240zM293 -381l-8 -4q-106 43 -166 121q-58 76 -58 178q0 68 27 121q25 49 66 90q38 37 102 90l84 68q68 56 102 92q37 40 52 90q16 53 16 119h135q0 -122 -43 -201q-44 -80 -139 -154l-84 -65q-69 -53 -98 -82q-38 -38 -54 -74q-18 -41 -18 -88
q0 -63 37 -115t110 -86q68 -32 183 -32q97 0 172 34q77 35 123 99q45 62 51 147h139q-9 -123 -76 -211q-68 -89 -174 -135q-105 -45 -233 -45q-141 0 -248 43z" />
    <glyph glyph-name="Agrave" unicode="&#xc0;" horiz-adv-x="1521" 
d="M1509 0h-149l-191 502h-817l-190 -502h-152l596 1556h148l-353 -927h719l-354 927h147zM825 1690h-135l-317 258h194z" />
    <glyph glyph-name="Aacute" unicode="&#xc1;" horiz-adv-x="1521" 
d="M1509 0h-149l-191 502h-817l-190 -502h-152l596 1556h148l-353 -927h719l-354 927h147zM829 1690h-137l260 258h193z" />
    <glyph glyph-name="Acircumflex" unicode="&#xc2;" horiz-adv-x="1521" 
d="M1509 0h-149l-191 502h-817l-190 -502h-152l596 1556h148l-353 -927h719l-354 927h147zM856 1948l266 -258h-133l-229 192l-232 -192h-133l269 258h192z" />
    <glyph glyph-name="Atilde" unicode="&#xc3;" horiz-adv-x="1521" 
d="M1509 0h-149l-191 502h-817l-190 -502h-152l596 1556h148l-353 -927h719l-354 927h147zM432 1729l4 -3q9 87 62 134t123 47q38 0 79 -13q30 -10 76 -30q30 -17 62 -25q31 -8 61 -8q45 0 80 18q33 17 49 60h59q-6 -60 -32 -99t-68 -61q-39 -20 -86 -20q-42 0 -80 12
q-22 7 -76 31q-65 32 -124 32q-45 0 -80 -18t-49 -57h-60z" />
    <glyph glyph-name="Adieresis" unicode="&#xc4;" horiz-adv-x="1521" 
d="M1509 0h-149l-191 502h-817l-190 -502h-152l596 1556h148l-353 -927h719l-354 927h147zM647 1690h-151v258h151v-258zM1026 1690h-152v258h152v-258z" />
    <glyph glyph-name="Aring" unicode="&#xc5;" horiz-adv-x="1521" 
d="M1509 0h-149l-191 502h-817l-190 -502h-152l596 1556h148l-353 -927h719l-354 927h147zM643 1710q-56 30 -86 86q-31 57 -31 119q0 63 31 117t86 84t119 30t117 -30q53 -31 84 -84q30 -52 30 -117q0 -63 -30 -119q-30 -55 -84 -86t-117 -31q-62 0 -119 31zM827 1794
q32 19 50 49t18 68q0 37 -18 67q-19 31 -50 50q-30 18 -67 18q-38 0 -68 -18t-49 -50q-18 -30 -18 -67q0 -38 18 -68q18 -31 49 -49q30 -18 68 -18q37 0 67 18z" />
    <glyph glyph-name="AE" unicode="&#xc6;" horiz-adv-x="2054" 
d="M1225 741l235 -614h477v-127h-577l-191 502h-817l-190 -502h-152l596 1556h148l-353 -927h719l-354 927h1153v-126h-956l215 -562h727v-127h-680z" />
    <glyph glyph-name="Ccedilla" unicode="&#xc7;" horiz-adv-x="1591" 
d="M1516 492v-21q-77 -238 -240 -367q-162 -128 -402 -143v-61q70 -6 117 -50q45 -42 45 -110q0 -73 -53 -117q-52 -43 -139 -43h-92v86h75q44 0 74 23q29 23 29 61q0 39 -29 62q-28 22 -67 22h-54v131q-185 9 -340 115t-239 282q-86 180 -86 406q0 234 92 416
q90 178 256 282q165 103 366 103q169 0 310 -66q139 -65 229 -180q92 -118 135 -266h-145q-63 174 -197 284q-131 107 -330 107q-162 0 -292 -86q-129 -85 -203 -240q-74 -154 -74 -350t74 -350t201 -240t282 -86q206 0 344 105q141 107 207 291h146z" />
    <glyph glyph-name="Egrave" unicode="&#xc8;" horiz-adv-x="1329" 
d="M352 741v-614h858v-127h-999v1556h981v-126h-840v-562h826v-127h-826zM815 1690h-135l-318 258h195z" />
    <glyph glyph-name="Eacute" unicode="&#xc9;" horiz-adv-x="1329" 
d="M352 741v-614h858v-127h-999v1556h981v-126h-840v-562h826v-127h-826zM733 1690h-137l260 258h193z" />
    <glyph glyph-name="Ecircumflex" unicode="&#xca;" horiz-adv-x="1329" 
d="M352 741v-614h858v-127h-999v1556h981v-126h-840v-562h826v-127h-826zM801 1948l266 -258h-133l-229 192l-232 -192h-133l268 258h193z" />
    <glyph glyph-name="Edieresis" unicode="&#xcb;" horiz-adv-x="1329" 
d="M352 741v-614h858v-127h-999v1556h981v-126h-840v-562h826v-127h-826zM590 1690h-152v258h152v-258zM969 1690h-152v258h152v-258z" />
    <glyph glyph-name="Igrave" unicode="&#xcc;" horiz-adv-x="563" 
d="M352 0h-141v1556h141v-1556zM338 1690h-135l-318 258h195z" />
    <glyph glyph-name="Iacute" unicode="&#xcd;" horiz-adv-x="563" 
d="M352 0h-141v1556h141v-1556zM358 1690h-137l260 258h193z" />
    <glyph glyph-name="Icircumflex" unicode="&#xce;" horiz-adv-x="563" 
d="M352 0h-141v1556h141v-1556zM379 1948l266 -258h-133l-229 192l-232 -192h-133l268 258h193z" />
    <glyph glyph-name="Idieresis" unicode="&#xcf;" horiz-adv-x="563" 
d="M352 0h-141v1556h141v-1556zM170 1690h-152v258h152v-258zM549 1690h-152v258h152v-258z" />
    <glyph glyph-name="Eth" unicode="&#xd0;" horiz-adv-x="1609" 
d="M725 1556h-2q232 0 405 -92q176 -93 269 -266q94 -175 94 -420t-94 -420q-94 -174 -267 -266t-405 -92h-514v743h-186v123h186v690h514zM727 127v-2q193 0 330 76q140 77 213 221q73 143 73 354q0 208 -73 354q-73 147 -213 224q-137 76 -330 76h-377v-564h434v-123h-434
v-616h377z" />
    <glyph glyph-name="Ntilde" unicode="&#xd1;" horiz-adv-x="1710" 
d="M352 0h-141v1556h141v-1556zM1346 0h-156l-823 1556h153zM1499 0h-141v1556h141v-1556zM565 1729l4 -3q9 87 62 134t123 47q39 0 80 -13q27 -9 75 -30q30 -17 62 -25q31 -8 61 -8q46 0 80 18q33 17 49 60h60q-6 -59 -33 -99q-26 -39 -68 -61q-39 -20 -86 -20
q-42 0 -80 12q-19 6 -75 31q-65 32 -125 32q-46 0 -80 -18q-35 -18 -49 -57h-60z" />
    <glyph glyph-name="Ograve" unicode="&#xd2;" horiz-adv-x="1691" 
d="M467 78q-168 103 -258 282q-92 182 -92 418t92 418q91 181 258 283q163 100 379 100t379 -100q167 -102 258 -283q92 -182 92 -418t-92 -418q-90 -179 -258 -282q-165 -101 -379 -101t-379 101zM1149 184q133 86 207 240t74 350t-74 350t-207 240t-301 86t-301 -86
t-207 -240t-74 -350t74 -350t207 -240t301 -86t301 86zM956 1688h-135l-317 258h194z" />
    <glyph glyph-name="Oacute" unicode="&#xd3;" horiz-adv-x="1691" 
d="M467 78q-168 103 -258 282q-92 182 -92 418t92 418q91 181 258 283q163 100 379 100t379 -100q167 -102 258 -283q92 -182 92 -418t-92 -418q-90 -179 -258 -282q-165 -101 -379 -101t-379 101zM1149 184q133 86 207 240t74 350t-74 350t-207 240t-301 86t-301 -86
t-207 -240t-74 -350t74 -350t207 -240t301 -86t301 86zM874 1688h-137l260 258h193z" />
    <glyph glyph-name="Ocircumflex" unicode="&#xd4;" horiz-adv-x="1691" 
d="M467 78q-168 103 -258 282q-92 182 -92 418t92 418q91 181 258 283q163 100 379 100t379 -100q167 -102 258 -283q92 -182 92 -418t-92 -418q-90 -179 -258 -282q-165 -101 -379 -101t-379 101zM1149 184q133 86 207 240t74 350t-74 350t-207 240t-301 86t-301 -86
t-207 -240t-74 -350t74 -350t207 -240t301 -86t301 86zM944 1946l266 -258h-133l-229 192l-232 -192h-133l269 258h192z" />
    <glyph glyph-name="Otilde" unicode="&#xd5;" horiz-adv-x="1691" 
d="M467 78q-168 103 -258 282q-92 182 -92 418t92 418q91 181 258 283q163 100 379 100t379 -100q167 -102 258 -283q92 -182 92 -418t-92 -418q-90 -179 -258 -282q-165 -101 -379 -101t-379 101zM1149 184q133 86 207 240t74 350t-74 350t-207 240t-301 86t-301 -86
t-207 -240t-74 -350t74 -350t207 -240t301 -86t301 86zM518 1726l4 -2q9 87 62 134t123 47q38 0 79 -13q30 -10 76 -30q30 -17 62 -25q31 -8 61 -8q45 0 80 18q33 17 49 60h60q-6 -59 -33 -99q-26 -39 -68 -61q-40 -21 -86 -21q-39 0 -80 13q-30 10 -76 30q-67 33 -124 33
q-45 0 -80 -18q-34 -18 -49 -58h-60z" />
    <glyph glyph-name="Odieresis" unicode="&#xd6;" horiz-adv-x="1691" 
d="M467 78q-168 103 -258 282q-92 182 -92 418t92 418q91 181 258 283q163 100 379 100t379 -100q167 -102 258 -283q92 -182 92 -418t-92 -418q-90 -179 -258 -282q-165 -101 -379 -101t-379 101zM1149 184q133 86 207 240t74 350t-74 350t-207 240t-301 86t-301 -86
t-207 -240t-74 -350t74 -350t207 -240t301 -86t301 86zM733 1688h-151v258h151v-258zM1112 1688h-151v258h151v-258z" />
    <glyph glyph-name="multiply" unicode="&#xd7;" horiz-adv-x="1159" 
d="M971 1010l76 -74l-392 -391l392 -391l-76 -74l-391 391l-392 -391l-75 74l391 391l-391 391l75 74l392 -392z" />
    <glyph glyph-name="Oslash" unicode="&#xd8;" horiz-adv-x="1691" 
d="M1681 1556l-254 -262q72 -100 113 -233q39 -127 39 -283q0 -236 -92 -418q-90 -179 -258 -282q-165 -101 -379 -101q-143 0 -270 50q-129 50 -222 141l-157 -166h-185l254 266q-69 102 -110 234q-39 124 -39 278q0 236 92 418q91 181 258 283q163 100 379 100
q145 0 270 -49q127 -50 221 -141l158 165h182zM287 561l-6 -4q27 -104 79 -186l881 921q-77 80 -178 123t-221 43q-168 0 -301 -86q-134 -87 -207 -239q-74 -154 -74 -351q0 -116 27 -221zM1399 997l6 2q-27 106 -80 189l-881 -922q76 -79 179 -123q101 -43 221 -43
q168 0 301 86t207 240q73 152 73 350q0 120 -26 221z" />
    <glyph glyph-name="Ugrave" unicode="&#xd9;" horiz-adv-x="1587" 
d="M195 621l-2 6v932h139v-941v-4q0 -256 117 -385t346 -129q228 0 342 129t114 387v940h142v-931q0 -648 -598 -648q-600 0 -600 644zM903 1692h-135l-317 258h194z" />
    <glyph glyph-name="Uacute" unicode="&#xda;" horiz-adv-x="1587" 
d="M195 621l-2 6v932h139v-941v-4q0 -256 117 -385t346 -129q228 0 342 129t114 387v940h142v-931q0 -648 -598 -648q-600 0 -600 644zM821 1692h-137l260 258h193z" />
    <glyph glyph-name="Ucircumflex" unicode="&#xdb;" horiz-adv-x="1587" 
d="M195 621l-2 6v932h139v-941v-4q0 -256 117 -385t346 -129q228 0 342 129t114 387v940h142v-931q0 -648 -598 -648q-600 0 -600 644zM889 1950l266 -258h-133l-229 192l-232 -192h-133l268 258h193z" />
    <glyph glyph-name="Udieresis" unicode="&#xdc;" horiz-adv-x="1587" 
d="M195 621l-2 6v932h139v-941v-4q0 -256 117 -385t346 -129q228 0 342 129t114 387v940h142v-931q0 -648 -598 -648q-600 0 -600 644zM678 1692h-152v258h152v-258zM1057 1692h-152v258h152v-258z" />
    <glyph glyph-name="Yacute" unicode="&#xdd;" horiz-adv-x="1349" 
d="M1186 1556h162l-603 -874v-682h-141v682l-602 874h160l512 -739zM705 1690h-138l260 258h193z" />
    <glyph glyph-name="Thorn" unicode="&#xde;" horiz-adv-x="1431" 
d="M737 1278l-2 4q183 0 314 -55q134 -56 206 -162q74 -109 74 -260t-74 -260q-73 -107 -204 -162t-314 -55h-385v-328h-141v1556h141v-278h385zM739 457l-2 -2q214 0 330 88q117 89 117 264q0 172 -117 260q-116 88 -328 88h-389v-698h389z" />
    <glyph glyph-name="germandbls" unicode="&#xdf;" horiz-adv-x="1253" 
d="M948 823l-10 -4q91 -49 149 -143t58 -227q0 -143 -51 -248q-53 -109 -150 -166q-102 -60 -231 -60q-57 0 -129 11q-58 9 -117 30v107q67 -28 106 -37q49 -12 111 -12q107 0 180 49q74 49 111 135q37 84 37 199q0 118 -49 200q-50 83 -142 127q-90 43 -221 43h-25v103h27
q166 0 246 74t80 202q0 88 -37 146q-39 61 -105 90q-70 31 -151 31q-164 0 -246 -107q-84 -110 -84 -289v-1079h-133v1069q0 163 57 274q60 117 162 177q104 61 246 61q129 0 225 -45q98 -46 154 -129q55 -82 55 -191q0 -138 -86 -221t-233 -110q101 -9 196 -60z" />
    <glyph glyph-name="agrave" unicode="&#xe0;" horiz-adv-x="1173" 
d="M825 1055l-2 -2q97 -57 144 -150q45 -89 45 -194v-4v-707h-135v240q-60 -128 -150 -195q-92 -68 -248 -68q-107 0 -190 45q-85 46 -135 123t-50 176q0 115 68 183q67 67 166 94q105 29 231 43l303 33v22v4q0 84 -30 154q-29 68 -99 113q-67 43 -168 43q-86 0 -153 -31
q-60 -28 -100 -84q-37 -52 -43 -117h-140q12 96 68 174q55 76 149 119q93 43 222 43q151 0 247 -57zM713 121l-2 -4q79 53 120 141q41 90 41 201v114l-239 -26q-125 -15 -205 -33q-77 -18 -131 -65q-51 -45 -51 -130q0 -78 37 -133q38 -57 98 -86q62 -30 139 -30
q116 0 193 51zM664 1245h-127l-306 305h185z" />
    <glyph glyph-name="aacute" unicode="&#xe1;" horiz-adv-x="1173" 
d="M825 1055l-2 -2q97 -57 144 -150q45 -89 45 -194v-4v-707h-135v240q-60 -128 -150 -195q-92 -68 -248 -68q-107 0 -190 45q-85 46 -135 123t-50 176q0 115 68 183q67 67 166 94q105 29 231 43l303 33v22v4q0 84 -30 154q-29 68 -99 113q-67 43 -168 43q-86 0 -153 -31
q-60 -28 -100 -84q-37 -52 -43 -117h-140q12 96 68 174q55 76 149 119q93 43 222 43q151 0 247 -57zM713 121l-2 -4q79 53 120 141q41 90 41 201v114l-239 -26q-125 -15 -205 -33q-77 -18 -131 -65q-51 -45 -51 -130q0 -78 37 -133q38 -57 98 -86q62 -30 139 -30
q116 0 193 51zM610 1245h-127l248 305h184z" />
    <glyph glyph-name="acircumflex" unicode="&#xe2;" horiz-adv-x="1173" 
d="M825 1055l-2 -2q97 -57 144 -150q45 -89 45 -194v-4v-707h-135v240q-60 -128 -150 -195q-92 -68 -248 -68q-107 0 -190 45q-85 46 -135 123t-50 176q0 115 68 183q67 67 166 94q105 29 231 43l303 33v22v4q0 84 -30 154q-29 68 -99 113q-67 43 -168 43q-86 0 -153 -31
q-60 -28 -100 -84q-37 -52 -43 -117h-140q12 96 68 174q55 76 149 119q93 43 222 43q151 0 247 -57zM713 121l-2 -4q79 53 120 141q41 90 41 201v114l-239 -26q-125 -15 -205 -33q-77 -18 -131 -65q-51 -45 -51 -130q0 -78 37 -133q38 -57 98 -86q62 -30 139 -30
q116 0 193 51zM666 1550l272 -305h-127l-236 240l-237 -240h-127l272 305h183z" />
    <glyph glyph-name="atilde" unicode="&#xe3;" horiz-adv-x="1173" 
d="M825 1055l-2 -2q97 -57 144 -150q45 -89 45 -194v-4v-707h-135v240q-60 -128 -150 -195q-92 -68 -248 -68q-107 0 -190 45q-85 46 -135 123t-50 176q0 115 68 183q67 67 166 94q105 29 231 43l303 33v22v4q0 84 -30 154q-29 68 -99 113q-67 43 -168 43q-86 0 -153 -31
q-60 -28 -100 -84q-37 -52 -43 -117h-140q12 96 68 174q55 76 149 119q93 43 222 43q151 0 247 -57zM713 121l-2 -4q79 53 120 141q41 90 41 201v114l-239 -26q-125 -15 -205 -33q-77 -18 -131 -65q-51 -45 -51 -130q0 -78 37 -133q38 -57 98 -86q62 -30 139 -30
q116 0 193 51zM262 1300q9 85 60 136q49 49 114 49q38 0 76 -12q35 -11 74 -33q65 -35 116 -35q49 0 80 22t43 62h56q-9 -84 -60 -135q-49 -49 -114 -49q-39 0 -76 12q-35 11 -74 33q-64 34 -117 34q-49 0 -80 -22t-43 -62h-55z" />
    <glyph glyph-name="adieresis" unicode="&#xe4;" horiz-adv-x="1173" 
d="M825 1055l-2 -2q97 -57 144 -150q45 -89 45 -194v-4v-707h-135v240q-60 -128 -150 -195q-92 -68 -248 -68q-107 0 -190 45q-85 46 -135 123t-50 176q0 115 68 183q67 67 166 94q105 29 231 43l303 33v22v4q0 84 -30 154q-29 68 -99 113q-67 43 -168 43q-86 0 -153 -31
q-60 -28 -100 -84q-37 -52 -43 -117h-140q12 96 68 174q55 76 149 119q93 43 222 43q151 0 247 -57zM713 121l-2 -4q79 53 120 141q41 90 41 201v114l-239 -26q-125 -15 -205 -33q-77 -18 -131 -65q-51 -45 -51 -130q0 -78 37 -133q38 -57 98 -86q62 -30 139 -30
q116 0 193 51zM455 1292h-146v258h146v-258zM838 1292h-146v258h146v-258z" />
    <glyph glyph-name="aring" unicode="&#xe5;" horiz-adv-x="1173" 
d="M825 1055l-2 -2q97 -57 144 -150q45 -89 45 -194v-4v-707h-135v240q-60 -128 -150 -195q-92 -68 -248 -68q-107 0 -190 45q-85 46 -135 123t-50 176q0 115 68 183q67 67 166 94q105 29 231 43l303 33v22v4q0 84 -30 154q-29 68 -99 113q-67 43 -168 43q-86 0 -153 -31
q-60 -28 -100 -84q-37 -52 -43 -117h-140q12 96 68 174q55 76 149 119q93 43 222 43q151 0 247 -57zM713 121l-2 -4q79 53 120 141q41 90 41 201v114l-239 -26q-125 -15 -205 -33q-77 -18 -131 -65q-51 -45 -51 -130q0 -78 37 -133q38 -57 98 -86q62 -30 139 -30
q116 0 193 51zM473 1266l-4 -4q-48 28 -74 73t-26 105q0 54 28 102q27 47 74 74q45 26 102 26q58 0 103 -26q47 -27 74 -74q28 -48 28 -100q0 -60 -26 -105t-74 -73q-46 -27 -103 -27q-52 0 -102 29zM649 1358h-4q35 35 35 80q0 47 -33 80q-32 32 -80 32t-80 -32t-32 -80
q0 -46 34 -80q35 -35 80 -35t80 35z" />
    <glyph glyph-name="ae" unicode="&#xe6;" horiz-adv-x="1984" 
d="M1886 530l-8 -8q-2 -8 -2 -20h-870q6 -136 55 -234t131 -147t190 -49q133 0 215 61q84 62 121 176h140q-47 -170 -170 -256q-124 -86 -304 -86q-163 0 -284 80q-119 79 -172 221q-26 -83 -90 -153q-62 -68 -154 -109q-88 -39 -205 -39q-111 0 -196 43q-84 43 -131 117
q-46 73 -46 162q0 175 136 246t376 71h256v82v4q0 84 -30 154q-28 66 -99 112q-67 43 -167 43q-90 0 -154 -30q-60 -28 -100 -84q-37 -52 -43 -117h-140q9 95 66 174q54 74 151 119q93 43 222 43q157 0 251 -70q96 -72 136 -172q61 113 170 178q111 66 249 66q144 0 259 -68
q114 -67 178 -190q65 -124 65 -289q0 -23 -2 -31zM1194 952l-2 2q-80 -46 -129 -135q-48 -85 -57 -211h733q-6 113 -53 203q-47 89 -127 139q-79 49 -183 49q-102 0 -182 -47zM868 502l-231 -6q-196 0 -295 -45q-100 -46 -100 -166q0 -63 30 -113q29 -48 90 -76
q56 -26 140 -26q114 0 196 49q83 50 127 145q43 93 43 221v17z" />
    <glyph glyph-name="ccedilla" unicode="&#xe7;" horiz-adv-x="1187" 
d="M1112 362l-10 -10q-26 -114 -96 -202q-70 -89 -166 -134q-98 -46 -215 -49v-59q70 -6 116 -49q45 -42 45 -111q0 -72 -51 -117t-137 -45h-88v82h78q48 0 78 23q28 22 28 65q0 39 -28 64q-27 24 -68 24h-55v131q-130 14 -236 91q-99 71 -155 196q-56 124 -56 279
q0 165 66 297q65 129 182 200q119 72 274 72q126 0 224 -49q100 -50 164 -135q65 -86 92 -203h-140q-36 133 -118 207q-87 78 -219 78q-118 0 -203 -58q-87 -59 -133 -164q-45 -102 -45 -241q0 -136 47 -242q46 -105 133 -164q83 -57 203 -57q132 0 221 74q88 73 129 206
h139z" />
    <glyph glyph-name="egrave" unicode="&#xe8;" horiz-adv-x="1208" 
d="M1110 530l-2 -4q-2 -8 -2 -20h-870q6 -136 55 -234t131 -147t190 -49q133 0 215 61q84 62 121 176h139q-47 -171 -169 -256q-124 -86 -304 -86q-151 0 -270 72q-114 69 -180 201q-64 128 -64 297t64 297q66 131 180 200q119 72 266 72q143 0 258 -68q116 -69 179 -192
q65 -127 65 -289q0 -23 -2 -31zM424 956l-2 -2q-80 -46 -129 -135q-48 -85 -57 -211h733q-6 111 -54 203q-46 87 -127 141q-79 52 -182 52q-100 0 -182 -48zM694 1243h-127l-305 305h184z" />
    <glyph glyph-name="eacute" unicode="&#xe9;" horiz-adv-x="1208" 
d="M1110 530l-2 -4q-2 -8 -2 -20h-870q6 -136 55 -234t131 -147t190 -49q133 0 215 61q84 62 121 176h139q-47 -171 -169 -256q-124 -86 -304 -86q-151 0 -270 72q-114 69 -180 201q-64 128 -64 297t64 297q66 131 180 200q119 72 266 72q143 0 258 -68q116 -69 179 -192
q65 -127 65 -289q0 -23 -2 -31zM424 956l-2 -2q-80 -46 -129 -135q-48 -85 -57 -211h733q-6 111 -54 203q-46 87 -127 141q-79 52 -182 52q-100 0 -182 -48zM641 1243h-127l248 305h184z" />
    <glyph glyph-name="ecircumflex" unicode="&#xea;" horiz-adv-x="1208" 
d="M1110 530l-2 -4q-2 -8 -2 -20h-870q6 -136 55 -234t131 -147t190 -49q133 0 215 61q84 62 121 176h139q-47 -171 -169 -256q-124 -86 -304 -86q-151 0 -270 72q-114 69 -180 201q-64 128 -64 297t64 297q66 131 180 200q119 72 266 72q143 0 258 -68q116 -69 179 -192
q65 -127 65 -289q0 -23 -2 -31zM424 956l-2 -2q-80 -46 -129 -135q-48 -85 -57 -211h733q-6 111 -54 203q-46 87 -127 141q-79 52 -182 52q-100 0 -182 -48zM694 1548l273 -305h-127l-236 240l-237 -240h-127l272 305h182z" />
    <glyph glyph-name="edieresis" unicode="&#xeb;" horiz-adv-x="1208" 
d="M1110 530l-2 -4q-2 -8 -2 -20h-870q6 -136 55 -234t131 -147t190 -49q133 0 215 61q84 62 121 176h139q-47 -171 -169 -256q-124 -86 -304 -86q-151 0 -270 72q-114 69 -180 201q-64 128 -64 297t64 297q66 131 180 200q119 72 266 72q143 0 258 -68q116 -69 179 -192
q65 -127 65 -289q0 -23 -2 -31zM424 956l-2 -2q-80 -46 -129 -135q-48 -85 -57 -211h733q-6 111 -54 203q-46 87 -127 141q-79 52 -182 52q-100 0 -182 -48zM483 1290h-145v258h145v-258zM866 1290h-145v258h145v-258z" />
    <glyph glyph-name="igrave" unicode="&#xec;" horiz-adv-x="483" 
d="M309 0h-135v1090h135v-1090zM299 1251h-127l-305 305h184z" />
    <glyph glyph-name="iacute" unicode="&#xed;" horiz-adv-x="483" 
d="M309 0h-135v1090h135v-1090zM309 1251h-127l248 305h184z" />
    <glyph glyph-name="icircumflex" unicode="&#xee;" horiz-adv-x="483" 
d="M309 0h-135v1090h135v-1090zM332 1556l272 -305h-127l-235 240l-238 -240h-127l273 305h182z" />
    <glyph glyph-name="idieresis" unicode="&#xef;" horiz-adv-x="483" 
d="M309 0h-135v1090h135v-1090zM121 1298h-146v258h146v-258zM504 1298h-146v258h146v-258z" />
    <glyph glyph-name="eth" unicode="&#xf0;" horiz-adv-x="1243" 
d="M819 1343l-8 -4q317 -314 317 -772q0 -183 -65 -319q-64 -134 -182 -205q-116 -70 -269 -70q-151 0 -270 72q-117 70 -182 201q-64 128 -64 297q0 167 62 297t172 200q113 72 252 72q95 0 170 -37q80 -39 133 -98q59 -65 84 -137q-20 110 -90 235q-67 119 -179 228
l-249 -89l-29 84l201 72q-129 108 -295 186h217q123 -77 200 -143l254 90l29 -86zM811 133l-6 -8q84 57 131 164q47 106 47 243q0 142 -45 244q-47 107 -131 164q-86 59 -203 59q-120 0 -203 -57q-84 -57 -131 -164q-45 -102 -45 -241q0 -136 47 -242q46 -104 134 -164
q83 -57 202 -57q117 0 203 59z" />
    <glyph glyph-name="ntilde" unicode="&#xf1;" horiz-adv-x="1206" 
d="M862 1057h-8q87 -55 137 -154q49 -98 49 -225v-4v-676h-135v653v4q0 117 -37 195q-37 79 -104 119q-68 41 -156 41q-90 0 -155 -39q-68 -41 -105 -119t-37 -195v-655h-135v1090h135v-226q40 110 129 178t219 68q115 0 203 -55zM295 1305q9 85 59 135q49 49 115 49
q39 0 76 -12q33 -11 73 -33q65 -35 117 -35q47 0 80 23q31 22 43 61h55q-9 -85 -59 -135q-49 -49 -115 -49q-37 0 -75 12q-35 11 -74 33q-65 35 -117 35q-47 0 -80 -23q-31 -22 -43 -61h-55z" />
    <glyph glyph-name="ograve" unicode="&#xf2;" horiz-adv-x="1234" 
d="M346 47l-4 -8q-117 70 -182 201q-64 128 -64 297q0 165 66 297q65 129 182 200q119 72 270 72q155 0 271 -70q119 -72 182 -198q66 -132 66 -297q0 -169 -64 -297t-182 -199q-116 -70 -271 -70q-151 0 -270 72zM815 129l-6 -8q84 57 131 164q47 106 47 243q0 142 -45 244
q-47 107 -131 164q-86 59 -203 59q-119 0 -202 -57q-85 -58 -132 -164q-45 -102 -45 -242q0 -135 47 -241q46 -104 134 -164q83 -57 202 -57q117 0 203 59zM696 1233h-127l-305 305h185z" />
    <glyph glyph-name="oacute" unicode="&#xf3;" horiz-adv-x="1234" 
d="M346 47l-4 -8q-117 70 -182 201q-64 128 -64 297q0 165 66 297q65 129 182 200q119 72 270 72q155 0 271 -70q119 -72 182 -198q66 -132 66 -297q0 -169 -64 -297t-182 -199q-116 -70 -271 -70q-151 0 -270 72zM815 129l-6 -8q84 57 131 164q47 106 47 243q0 142 -45 244
q-47 107 -131 164q-86 59 -203 59q-119 0 -202 -57q-85 -58 -132 -164q-45 -102 -45 -242q0 -135 47 -241q46 -104 134 -164q83 -57 202 -57q117 0 203 59zM643 1233h-127l248 305h184z" />
    <glyph glyph-name="ocircumflex" unicode="&#xf4;" horiz-adv-x="1234" 
d="M346 47l-4 -8q-117 70 -182 201q-64 128 -64 297q0 165 66 297q65 129 182 200q119 72 270 72q155 0 271 -70q119 -72 182 -198q66 -132 66 -297q0 -169 -64 -297t-182 -199q-116 -70 -271 -70q-151 0 -270 72zM815 129l-6 -8q84 57 131 164q47 106 47 243q0 142 -45 244
q-47 107 -131 164q-86 59 -203 59q-119 0 -202 -57q-85 -58 -132 -164q-45 -102 -45 -242q0 -135 47 -241q46 -104 134 -164q83 -57 202 -57q117 0 203 59zM698 1538l273 -305h-127l-236 240l-237 -240h-127l272 305h182z" />
    <glyph glyph-name="otilde" unicode="&#xf5;" horiz-adv-x="1234" 
d="M346 47l-4 -8q-117 70 -182 201q-64 128 -64 297q0 165 66 297q65 129 182 200q119 72 270 72q155 0 271 -70q119 -72 182 -198q66 -132 66 -297q0 -169 -64 -297t-182 -199q-116 -70 -271 -70q-151 0 -270 72zM815 129l-6 -8q84 57 131 164q47 106 47 243q0 142 -45 244
q-47 107 -131 164q-86 59 -203 59q-119 0 -202 -57q-85 -58 -132 -164q-45 -102 -45 -242q0 -135 47 -241q46 -104 134 -164q83 -57 202 -57q117 0 203 59zM293 1288q9 85 59 135t115 50q35 0 76 -13q33 -11 73 -33q64 -34 117 -34q49 0 80 22t43 62h55q-9 -86 -59 -136
q-49 -49 -115 -49q-34 0 -75 13q-39 13 -74 32q-65 35 -117 35q-49 0 -80 -22t-43 -62h-55z" />
    <glyph glyph-name="odieresis" unicode="&#xf6;" horiz-adv-x="1234" 
d="M346 47l-4 -8q-117 70 -182 201q-64 128 -64 297q0 165 66 297q65 129 182 200q119 72 270 72q155 0 271 -70q119 -72 182 -198q66 -132 66 -297q0 -169 -64 -297t-182 -199q-116 -70 -271 -70q-151 0 -270 72zM815 129l-6 -8q84 57 131 164q47 106 47 243q0 142 -45 244
q-47 107 -131 164q-86 59 -203 59q-119 0 -202 -57q-85 -58 -132 -164q-45 -102 -45 -242q0 -135 47 -241q46 -104 134 -164q83 -57 202 -57q117 0 203 59zM487 1280h-145v258h145v-258zM870 1280h-145v258h145v-258z" />
    <glyph glyph-name="divide" unicode="&#xf7;" horiz-adv-x="1372" 
d="M760 842h-148v248h148v-248zM1231 498h-1090v108h1090v-108zM760 0h-148v248h148v-248z" />
    <glyph glyph-name="oslash" unicode="&#xf8;" horiz-adv-x="1234" 
d="M1212 1090l-176 -193q50 -72 74 -162q25 -95 25 -196q0 -169 -64 -297t-182 -199q-116 -70 -271 -70q-98 0 -186 31q-83 29 -153 90l-93 -98h-159l176 186q-48 68 -76 164q-27 92 -27 197q0 165 66 297q65 129 182 200q119 72 270 72q101 0 189 -31q84 -30 151 -90l95 99
h159zM293 276l579 617q-50 53 -114 80q-67 28 -142 28q-119 0 -202 -57q-84 -57 -131 -164q-45 -102 -45 -241q0 -156 55 -263zM940 795l-586 -623q104 -104 258 -104q117 0 203 59q84 57 131 164q47 106 47 244q0 148 -53 260z" />
    <glyph glyph-name="ugrave" unicode="&#xf9;" horiz-adv-x="1196" 
d="M887 1090l135 -9v-1089h-135v223q-44 -110 -131 -176q-89 -68 -215 -68q-113 0 -199 56q-87 56 -135 153q-49 98 -49 226v4v675h135v-653v-4q0 -114 37 -192q37 -79 104 -119q65 -39 156 -39q87 0 155 41q67 40 105 121q37 78 37 194v656zM682 1243h-127l-305 305h184z
" />
    <glyph glyph-name="uacute" unicode="&#xfa;" horiz-adv-x="1196" 
d="M887 1090l135 -9v-1089h-135v223q-44 -110 -131 -176q-89 -68 -215 -68q-113 0 -199 56q-87 56 -135 153q-49 98 -49 226v4v675h135v-653v-4q0 -114 37 -192q37 -79 104 -119q65 -39 156 -39q87 0 155 41q67 40 105 121q37 78 37 194v656zM629 1243h-127l248 305h184z
" />
    <glyph glyph-name="ucircumflex" unicode="&#xfb;" horiz-adv-x="1196" 
d="M887 1090l135 -9v-1089h-135v223q-44 -110 -131 -176q-89 -68 -215 -68q-113 0 -199 56q-87 56 -135 153q-49 98 -49 226v4v675h135v-653v-4q0 -114 37 -192q37 -79 104 -119q65 -39 156 -39q87 0 155 41q67 40 105 121q37 78 37 194v656zM682 1548l272 -305h-127
l-235 240l-238 -240h-127l273 305h182z" />
    <glyph glyph-name="udieresis" unicode="&#xfc;" horiz-adv-x="1196" 
d="M887 1090l135 -9v-1089h-135v223q-44 -110 -131 -176q-89 -68 -215 -68q-113 0 -199 56q-87 56 -135 153q-49 98 -49 226v4v675h135v-653v-4q0 -114 37 -192q37 -79 104 -119q65 -39 156 -39q87 0 155 41q67 40 105 121q37 78 37 194v656zM471 1290h-145v258h145v-258z
M854 1290h-145v258h145v-258z" />
    <glyph glyph-name="yacute" unicode="&#xfd;" horiz-adv-x="1126" 
d="M580 117h-142l-422 973h142zM539 -401h-144l561 1491h140zM594 1251h-127l248 305h184z" />
    <glyph glyph-name="thorn" unicode="&#xfe;" horiz-adv-x="1302" 
d="M969 1040l4 -2q108 -71 170 -200q61 -128 61 -295t-61 -295q-63 -132 -172 -201q-113 -72 -248 -72q-93 0 -174 37t-143 105q-59 65 -95 151v-671h-135v1957h135v-751q27 82 86 153q56 68 142 113q82 43 184 43q136 0 246 -72zM889 135l-6 -8q84 57 131 164
q47 106 47 244q0 141 -45 243q-47 107 -131 164q-86 59 -203 59q-120 0 -203 -57q-84 -57 -131 -164q-45 -102 -45 -241q0 -136 47 -242q46 -105 133 -164q83 -57 203 -57q117 0 203 59z" />
    <glyph glyph-name="ydieresis" unicode="&#xff;" horiz-adv-x="1126" 
d="M580 117h-142l-422 973h142zM539 -401h-144l561 1491h140zM436 1298h-145v258h145v-258zM819 1298h-145v258h145v-258z" />
    <glyph glyph-name="Amacron" unicode="&#x100;" horiz-adv-x="1521" 
d="M1509 0h-149l-191 502h-817l-190 -502h-152l596 1556h148l-353 -927h719l-354 927h147zM1122 1763h-725v115h725v-115z" />
    <glyph glyph-name="amacron" unicode="&#x101;" horiz-adv-x="1173" 
d="M825 1055l-2 -2q97 -57 144 -150q45 -89 45 -194v-4v-707h-135v240q-60 -128 -150 -195q-92 -68 -248 -68q-107 0 -190 45q-85 46 -135 123t-50 176q0 115 68 183q67 67 166 94q105 29 231 43l303 33v22v4q0 84 -30 154q-29 68 -99 113q-67 43 -168 43q-86 0 -153 -31
q-60 -28 -100 -84q-37 -52 -43 -117h-140q12 96 68 174q55 76 149 119q93 43 222 43q151 0 247 -57zM713 121l-2 -4q79 53 120 141q41 90 41 201v114l-239 -26q-125 -15 -205 -33q-77 -18 -131 -65q-51 -45 -51 -130q0 -78 37 -133q38 -57 98 -86q62 -30 139 -30
q116 0 193 51zM909 1337h-669v103h669v-103z" />
    <glyph glyph-name="Abreve" unicode="&#x102;" horiz-adv-x="1521" 
d="M1509 0h-149l-191 502h-817l-190 -502h-152l596 1556h148l-353 -927h719l-354 927h147zM598 1716h4q-66 37 -104 99q-37 61 -37 133h114q0 -81 50 -131t135 -50t135 50q49 49 49 131h115q0 -72 -37 -133q-38 -62 -104 -99q-67 -37 -160 -37t-160 37z" />
    <glyph glyph-name="abreve" unicode="&#x103;" horiz-adv-x="1173" 
d="M825 1055l-2 -2q97 -57 144 -150q45 -89 45 -194v-4v-707h-135v240q-60 -128 -150 -195q-92 -68 -248 -68q-107 0 -190 45q-85 46 -135 123t-50 176q0 115 68 183q67 67 166 94q105 29 231 43l303 33v22v4q0 84 -30 154q-29 68 -99 113q-67 43 -168 43q-86 0 -153 -31
q-60 -28 -100 -84q-37 -52 -43 -117h-140q12 96 68 174q55 76 149 119q93 43 222 43q151 0 247 -57zM713 121l-2 -4q79 53 120 141q41 90 41 201v114l-239 -26q-125 -15 -205 -33q-77 -18 -131 -65q-51 -45 -51 -130q0 -78 37 -133q38 -57 98 -86q62 -30 139 -30
q116 0 193 51zM416 1280h8q-68 40 -105 111q-36 68 -36 157h110q0 -102 49 -157q50 -56 140 -56q85 0 135 56q49 55 49 157h111q0 -87 -37 -157q-38 -71 -105 -111q-68 -41 -160 -41q-91 0 -159 41z" />
    <glyph glyph-name="Aogonek" unicode="&#x104;" horiz-adv-x="1521" 
d="M1368 -279h-4q36 -26 98 -26h43v-101h-55q-106 0 -176 48q-68 47 -68 135q0 70 41 123q39 50 111 98l-191 502h-817l-190 -502h-152l596 1556h148l-353 -927h719l-354 927h147l596 -1556q-92 -48 -133 -92q-43 -46 -43 -105q0 -53 37 -80z" />
    <glyph glyph-name="aogonek" unicode="&#x105;" horiz-adv-x="1173" 
d="M825 1055h-2q97 -57 144 -150q45 -89 45 -194v-4v-707q-95 -48 -135 -94q-43 -49 -43 -107q0 -54 36 -80q39 -28 99 -28h43v-97h-54q-108 0 -178 48q-67 46 -67 135q0 71 43 123q41 49 121 98v240q-60 -128 -150 -195q-92 -68 -248 -68q-107 0 -190 45q-85 46 -135 123
t-50 176q0 115 68 183q67 67 166 94q105 29 231 43l303 33v22v4q0 84 -30 154q-29 68 -99 113q-67 43 -168 43q-86 0 -153 -31q-60 -28 -100 -84q-37 -52 -43 -117h-140q12 96 68 174q55 76 149 119q93 43 222 43q151 0 247 -57zM713 123l-2 -4q79 53 120 141q41 90 41 201
v114l-239 -26q-125 -15 -205 -33q-77 -18 -131 -65q-51 -45 -51 -129q0 -79 37 -134q38 -57 98 -86q62 -30 139 -30q116 0 193 51z" />
    <glyph glyph-name="Cacute" unicode="&#x106;" horiz-adv-x="1591" 
d="M461 78l-4 -12q-163 105 -252 284q-92 186 -92 418q0 234 92 416q90 178 256 282q165 103 366 103q169 0 310 -66q139 -65 229 -180q92 -118 135 -266h-145q-63 174 -197 284q-131 107 -330 107q-162 0 -292 -86q-129 -85 -203 -240q-74 -154 -74 -350t74 -350t201 -240
t282 -86q206 0 344 105q141 107 207 291h145q-79 -251 -258 -383t-438 -132q-199 0 -356 101zM852 1677h-137l260 258h192z" />
    <glyph glyph-name="cacute" unicode="&#x107;" horiz-adv-x="1187" 
d="M346 47l-4 -8q-117 70 -182 201q-64 128 -64 297q0 165 66 297q65 129 182 200q119 72 274 72q126 0 224 -49q100 -50 164 -135q65 -86 92 -203h-140q-36 133 -118 207q-87 78 -219 78q-118 0 -203 -58q-87 -59 -133 -164q-45 -102 -45 -241q0 -136 47 -242
q46 -105 133 -164q83 -57 203 -57q132 0 221 74q88 73 129 206h139q-30 -119 -100 -204q-73 -89 -172 -134t-222 -45q-153 0 -272 72zM651 1241h-127l248 305h184z" />
    <glyph glyph-name="Ccircumflex" unicode="&#x108;" horiz-adv-x="1591" 
d="M461 78l-4 -12q-163 105 -252 284q-92 186 -92 418q0 234 92 416q90 178 256 282q165 103 366 103q169 0 310 -66q139 -65 229 -180q92 -118 135 -266h-145q-63 174 -197 284q-131 107 -330 107q-162 0 -292 -86q-129 -85 -203 -240q-74 -154 -74 -350t74 -350t201 -240
t282 -86q206 0 344 105q141 107 207 291h145q-79 -251 -258 -383t-438 -132q-199 0 -356 101zM920 1935l266 -258h-133l-230 193l-231 -193h-133l268 258h193z" />
    <glyph glyph-name="ccircumflex" unicode="&#x109;" horiz-adv-x="1187" 
d="M346 47l-4 -8q-117 70 -182 201q-64 128 -64 297q0 165 66 297q65 129 182 200q119 72 274 72q126 0 224 -49q100 -50 164 -135q65 -86 92 -203h-140q-36 133 -118 207q-87 78 -219 78q-118 0 -203 -58q-87 -59 -133 -164q-45 -102 -45 -241q0 -136 47 -242
q46 -105 133 -164q83 -57 203 -57q132 0 221 74q88 73 129 206h139q-30 -119 -100 -204q-73 -89 -172 -134t-222 -45q-153 0 -272 72zM705 1546l272 -305h-127l-236 240l-237 -240h-127l272 305h183z" />
    <glyph glyph-name="Cdotaccent" unicode="&#x10a;" horiz-adv-x="1591" 
d="M461 78l-4 -12q-163 105 -252 284q-92 186 -92 418q0 234 92 416q90 178 256 282q165 103 366 103q169 0 310 -66q139 -65 229 -180q92 -118 135 -266h-145q-63 174 -197 284q-131 107 -330 107q-162 0 -292 -86q-129 -85 -203 -240q-74 -154 -74 -350t74 -350t201 -240
t282 -86q206 0 344 105q141 107 207 291h145q-79 -251 -258 -383t-438 -132q-199 0 -356 101zM899 1677h-151v258h151v-258z" />
    <glyph glyph-name="cdotaccent" unicode="&#x10b;" horiz-adv-x="1187" 
d="M346 47l-4 -8q-117 70 -182 201q-64 128 -64 297q0 165 66 297q65 129 182 200q119 72 274 72q126 0 224 -49q100 -50 164 -135q65 -86 92 -203h-140q-36 133 -118 207q-87 78 -219 78q-118 0 -203 -58q-87 -59 -133 -164q-45 -102 -45 -241q0 -136 47 -242
q46 -105 133 -164q83 -57 203 -57q132 0 221 74q88 73 129 206h139q-30 -119 -100 -204q-73 -89 -172 -134t-222 -45q-153 0 -272 72zM686 1288h-145v258h145v-258z" />
    <glyph glyph-name="Ccaron" unicode="&#x10c;" horiz-adv-x="1591" 
d="M461 78l-4 -12q-163 105 -252 284q-92 186 -92 418q0 234 92 416q90 178 256 282q165 103 366 103q169 0 310 -66q139 -65 229 -180q92 -118 135 -266h-145q-63 174 -197 284q-131 107 -330 107q-162 0 -292 -86q-129 -85 -203 -240q-74 -154 -74 -350t74 -350t201 -240
t282 -86q206 0 344 105q141 107 207 291h145q-79 -251 -258 -383t-438 -132q-199 0 -356 101zM823 1743l230 192h133l-266 -258h-193l-268 258h133z" />
    <glyph glyph-name="ccaron" unicode="&#x10d;" horiz-adv-x="1187" 
d="M346 47l-4 -8q-117 70 -182 201q-64 128 -64 297q0 165 66 297q65 129 182 200q119 72 274 72q126 0 224 -49q100 -50 164 -135q65 -86 92 -203h-140q-36 133 -118 207q-87 78 -219 78q-118 0 -203 -58q-87 -59 -133 -164q-45 -102 -45 -241q0 -136 47 -242
q46 -105 133 -164q83 -57 203 -57q132 0 221 74q88 73 129 206h139q-30 -119 -100 -204q-73 -89 -172 -134t-222 -45q-153 0 -272 72zM614 1307l236 239h127l-272 -305h-183l-272 305h127z" />
    <glyph glyph-name="Dcaron" unicode="&#x10e;" horiz-adv-x="1609" 
d="M725 1556h-2q232 0 405 -92q176 -93 269 -266q94 -175 94 -420t-94 -420q-94 -174 -267 -266t-405 -92h-514v1556h514zM727 127v-2q193 0 330 76q140 77 213 221q73 143 73 354q0 208 -73 354q-73 147 -213 224q-137 76 -330 76h-377v-1303h377zM748 1753l229 193h133
l-266 -258h-193l-268 258h133z" />
    <glyph glyph-name="dcaron" unicode="&#x10f;" horiz-adv-x="1302" 
d="M993 1556h140v-1556h-136v270q-35 -85 -94 -149q-62 -68 -143 -105q-79 -36 -174 -36q-136 0 -248 71q-109 69 -172 201q-62 130 -62 295t62 295q62 129 170 200q110 72 246 72q102 0 184 -43q84 -44 141 -113q59 -71 86 -153v751zM825 137l-6 -8q87 59 133 164
q47 106 47 244q0 141 -45 243q-47 107 -131 164q-88 60 -202 60q-118 0 -203 -58q-84 -57 -131 -164q-45 -102 -45 -241q0 -136 47 -242q47 -107 131 -164q83 -57 203 -57q116 0 202 59zM1341 1178h-102l33 368h127z" />
    <glyph glyph-name="Dcroat" unicode="&#x110;" horiz-adv-x="1609" 
d="M725 1556h-2q232 0 405 -92q176 -93 269 -266q94 -175 94 -420t-94 -420q-94 -174 -267 -266t-405 -92h-514v743h-186v123h186v690h514zM727 127v-2q193 0 330 76q140 77 213 221q73 143 73 354q0 208 -73 354q-73 147 -213 224q-137 76 -330 76h-377v-564h434v-123h-434
v-616h377z" />
    <glyph glyph-name="dcroat" unicode="&#x111;" horiz-adv-x="1302" 
d="M1274 1382l4 -104h-145v-1278h-136v270q-35 -85 -94 -149q-62 -68 -143 -105q-79 -36 -174 -36q-136 0 -248 71q-109 69 -172 201q-62 130 -62 295t62 295q62 129 170 200q110 72 246 72q102 0 184 -43q84 -44 141 -113q59 -71 86 -153v473h-205v104h205v174h135v-174
h146zM825 137l-6 -8q87 59 133 164q47 106 47 244q0 141 -45 243q-47 107 -131 164q-88 60 -202 60q-118 0 -203 -58q-84 -57 -131 -164q-45 -102 -45 -241q0 -136 47 -242q47 -107 131 -164q83 -57 203 -57q116 0 202 59z" />
    <glyph glyph-name="Emacron" unicode="&#x112;" horiz-adv-x="1329" 
d="M352 741v-614h858v-127h-999v1556h981v-126h-840v-562h826v-127h-826zM1065 1763h-725v115h725v-115z" />
    <glyph glyph-name="emacron" unicode="&#x113;" horiz-adv-x="1208" 
d="M1110 530l-2 -4q-2 -8 -2 -20h-870q6 -136 55 -234t131 -147t190 -49q133 0 215 61q84 62 121 176h139q-47 -171 -169 -256q-124 -86 -304 -86q-151 0 -270 72q-114 69 -180 201q-64 128 -64 297t64 297q66 131 180 200q119 72 266 72q143 0 258 -68q116 -69 179 -192
q65 -127 65 -289q0 -23 -2 -31zM424 956l-2 -2q-80 -46 -129 -135q-48 -85 -57 -211h733q-6 111 -54 203q-46 87 -127 141q-79 52 -182 52q-100 0 -182 -48zM938 1335h-670v103h670v-103z" />
    <glyph glyph-name="Ebreve" unicode="&#x114;" horiz-adv-x="1329" 
d="M352 741v-614h858v-127h-999v1556h981v-126h-840v-562h826v-127h-826zM541 1716h4q-67 38 -105 99q-37 61 -37 133h115q0 -82 49 -131q50 -50 135 -50q86 0 136 50q49 49 49 131h114q0 -74 -36 -133q-37 -61 -105 -99q-67 -37 -160 -37q-92 0 -159 37z" />
    <glyph glyph-name="ebreve" unicode="&#x115;" horiz-adv-x="1208" 
d="M1110 530l-2 -4q-2 -8 -2 -20h-870q6 -136 55 -234t131 -147t190 -49q133 0 215 61q84 62 121 176h139q-47 -171 -169 -256q-124 -86 -304 -86q-151 0 -270 72q-114 69 -180 201q-64 128 -64 297t64 297q66 131 180 200q119 72 266 72q143 0 258 -68q116 -69 179 -192
q65 -127 65 -289q0 -23 -2 -31zM424 956l-2 -2q-80 -46 -129 -135q-48 -85 -57 -211h733q-6 111 -54 203q-46 87 -127 141q-79 52 -182 52q-100 0 -182 -48zM444 1278h9q-67 40 -105 111q-37 70 -37 157h111q0 -102 49 -157q50 -56 139 -56q85 0 135 56t50 157h110
q0 -87 -37 -157q-38 -71 -104 -111q-68 -41 -160 -41t-160 41z" />
    <glyph glyph-name="Edotaccent" unicode="&#x116;" horiz-adv-x="1329" 
d="M352 741v-614h858v-127h-999v1556h981v-126h-840v-562h826v-127h-826zM778 1690h-151v258h151v-258z" />
    <glyph glyph-name="edotaccent" unicode="&#x117;" horiz-adv-x="1208" 
d="M1110 530l-2 -4q-2 -8 -2 -20h-870q6 -136 55 -234t131 -147t190 -49q133 0 215 61q84 62 121 176h139q-47 -171 -169 -256q-124 -86 -304 -86q-151 0 -270 72q-114 69 -180 201q-64 128 -64 297t64 297q66 131 180 200q119 72 266 72q143 0 258 -68q116 -69 179 -192
q65 -127 65 -289q0 -23 -2 -31zM424 956l-2 -2q-80 -46 -129 -135q-48 -85 -57 -211h733q-6 111 -54 203q-46 87 -127 141q-79 52 -182 52q-100 0 -182 -48zM676 1290h-146v258h146v-258z" />
    <glyph glyph-name="Eogonek" unicode="&#x118;" horiz-adv-x="1329" 
d="M1210 0h-2q-92 -48 -133 -92q-43 -46 -43 -105q0 -52 37 -79t96 -27h43v-100h-53q-110 0 -178 47t-68 135q0 71 43 123t119 98h-860v1556h981v-126h-840v-562h826v-127h-826v-614h858v-127z" />
    <glyph glyph-name="eogonek" unicode="&#x119;" horiz-adv-x="1208" 
d="M1110 530v-6q-2 -8 -2 -20h-870q6 -136 55 -234t131 -147t190 -49q133 0 215 61q84 62 121 176h140q-24 -87 -70 -153q-46 -67 -107 -107q-97 -81 -133 -135q-37 -55 -37 -117q0 -59 37 -86q39 -28 99 -28h43v-97h-56q-108 0 -176 47q-67 46 -67 136q0 60 26 108
q28 51 86 103q-79 -11 -121 -11q-151 0 -270 72q-114 69 -180 201q-64 128 -64 297t64 297q66 131 180 200q119 72 266 72q143 0 258 -68q116 -69 179 -192q65 -127 65 -289q0 -23 -2 -31zM426 954l-2 -2q-80 -46 -129 -135q-48 -85 -57 -211h733q-6 113 -53 203
q-46 87 -127 141q-77 51 -183 51q-102 0 -182 -47z" />
    <glyph glyph-name="Ecaron" unicode="&#x11a;" horiz-adv-x="1329" 
d="M352 741v-614h858v-127h-999v1556h981v-126h-840v-562h826v-127h-826zM702 1755l230 193h133l-266 -258h-193l-268 258h133z" />
    <glyph glyph-name="ecaron" unicode="&#x11b;" horiz-adv-x="1208" 
d="M1110 530l-2 -4q-2 -8 -2 -20h-870q6 -136 55 -234t131 -147t190 -49q133 0 215 61q84 62 121 176h139q-47 -171 -169 -256q-124 -86 -304 -86q-151 0 -270 72q-114 69 -180 201q-64 128 -64 297t64 297q66 131 180 200q119 72 266 72q143 0 258 -68q116 -69 179 -192
q65 -127 65 -289q0 -23 -2 -31zM424 956l-2 -2q-80 -46 -129 -135q-48 -85 -57 -211h733q-6 111 -54 203q-46 87 -127 141q-79 52 -182 52q-100 0 -182 -48zM604 1309l236 239h127l-273 -305h-182l-272 305h127z" />
    <glyph glyph-name="Gcircumflex" unicode="&#x11c;" horiz-adv-x="1685" 
d="M782 811l738 -12v-811h-125v422q-34 -116 -107 -217q-74 -102 -192 -166q-119 -64 -279 -64q-197 0 -362 103q-163 102 -254 282q-92 182 -92 416t92 416q90 178 256 282q165 103 366 103q175 0 314 -62q138 -61 229 -172q92 -112 135 -260h-145q-64 174 -197 277
q-132 102 -332 102q-160 0 -290 -86q-129 -85 -203 -240q-74 -154 -74 -350q0 -198 74 -352t207 -240t297 -86q158 0 280 70q125 72 195 203q71 133 71 317h-602v125zM922 1935l266 -258h-133l-230 193l-231 -193h-133l268 258h193z" />
    <glyph glyph-name="gcircumflex" unicode="&#x11d;" horiz-adv-x="1302" 
d="M997 1090l140 -7v-1110q0 -127 -66 -221q-64 -91 -174 -137q-107 -45 -246 -45q-132 0 -239 43q-108 44 -172 125q-65 83 -74 196h139q9 -85 57 -141q49 -58 125 -88q79 -31 166 -31q100 0 181 35q76 33 124 103q46 67 46 161v314q-36 -86 -95 -148q-62 -65 -143 -102
t-178 -37q-136 0 -248 68q-110 67 -172 194t-62 293t62 293q62 126 170 194q109 68 246 68q101 0 188 -41q86 -41 141 -108q57 -69 84 -152v281zM829 154h-6q87 57 133 157q48 105 48 240q0 139 -46 240q-47 102 -131 157q-86 56 -202 56q-117 0 -203 -56q-84 -55 -131 -157
q-45 -99 -45 -240q0 -137 47 -240q47 -102 131 -157q86 -56 203 -56q116 0 202 56zM711 1550l272 -305h-127l-235 240l-238 -240h-127l272 305h183z" />
    <glyph glyph-name="Gbreve" unicode="&#x11e;" horiz-adv-x="1685" 
d="M782 811l738 -12v-811h-125v422q-34 -116 -107 -217q-74 -102 -192 -166q-119 -64 -279 -64q-197 0 -362 103q-163 102 -254 282q-92 182 -92 416t92 416q90 178 256 282q165 103 366 103q175 0 314 -62q138 -61 229 -172q92 -112 135 -260h-145q-64 174 -197 277
q-132 102 -332 102q-160 0 -290 -86q-129 -85 -203 -240q-74 -154 -74 -350q0 -198 74 -352t207 -240t297 -86q158 0 280 70q125 72 195 203q71 133 71 317h-602v125zM662 1704h4q-68 38 -105 98q-37 61 -37 133h115q0 -82 49 -131t135 -49t135 49q50 50 50 131h114
q0 -72 -37 -133t-104 -98t-160 -37q-92 0 -159 37z" />
    <glyph glyph-name="gbreve" unicode="&#x11f;" horiz-adv-x="1302" 
d="M997 1090l140 -7v-1110q0 -127 -66 -221q-64 -91 -174 -137q-107 -45 -246 -45q-132 0 -239 43q-108 44 -172 125q-65 83 -74 196h139q9 -85 57 -141q49 -58 125 -88q79 -31 166 -31q100 0 181 35q76 33 124 103q46 67 46 161v314q-36 -86 -95 -148q-62 -65 -143 -102
t-178 -37q-136 0 -248 68q-110 67 -172 194t-62 293t62 293q62 126 170 194q109 68 246 68q101 0 188 -41q86 -41 141 -108q57 -69 84 -152v281zM829 154h-6q87 57 133 157q48 105 48 240q0 139 -46 240q-47 102 -131 157q-86 56 -202 56q-117 0 -203 -56q-84 -55 -131 -157
q-45 -99 -45 -240q0 -137 47 -240q47 -102 131 -157q86 -56 203 -56q116 0 202 56zM461 1280h8q-66 40 -104 111q-37 70 -37 157h110q0 -102 49 -157q50 -56 140 -56q85 0 135 56q49 55 49 157h111q0 -87 -37 -157q-37 -71 -105 -111q-68 -41 -159 -41q-92 0 -160 41z" />
    <glyph glyph-name="Gdotaccent" unicode="&#x120;" horiz-adv-x="1685" 
d="M782 811l738 -12v-811h-125v422q-34 -116 -107 -217q-74 -102 -192 -166q-119 -64 -279 -64q-197 0 -362 103q-163 102 -254 282q-92 182 -92 416t92 416q90 178 256 282q165 103 366 103q175 0 314 -62q138 -61 229 -172q92 -112 135 -260h-145q-64 174 -197 277
q-132 102 -332 102q-160 0 -290 -86q-129 -85 -203 -240q-74 -154 -74 -350q0 -198 74 -352t207 -240t297 -86q158 0 280 70q125 72 195 203q71 133 71 317h-602v125zM899 1677h-151v258h151v-258z" />
    <glyph glyph-name="gdotaccent" unicode="&#x121;" horiz-adv-x="1302" 
d="M997 1090l140 -7v-1110q0 -127 -66 -221q-64 -91 -174 -137q-107 -45 -246 -45q-132 0 -239 43q-108 44 -172 125q-65 83 -74 196h139q9 -85 57 -141q49 -58 125 -88q79 -31 166 -31q100 0 181 35q76 33 124 103q46 67 46 161v314q-36 -86 -95 -148q-62 -65 -143 -102
t-178 -37q-136 0 -248 68q-110 67 -172 194t-62 293t62 293q62 126 170 194q109 68 246 68q101 0 188 -41q86 -41 141 -108q57 -69 84 -152v281zM829 154h-6q87 57 133 157q48 105 48 240q0 139 -46 240q-47 102 -131 157q-86 56 -202 56q-117 0 -203 -56q-84 -55 -131 -157
q-45 -99 -45 -240q0 -137 47 -240q47 -102 131 -157q86 -56 203 -56q116 0 202 56zM692 1292h-145v258h145v-258z" />
    <glyph glyph-name="uni0122" unicode="&#x122;" horiz-adv-x="1685" 
d="M782 811l738 -12v-811h-125v422q-34 -116 -107 -217q-74 -102 -192 -166q-119 -64 -279 -64q-197 0 -362 103q-163 102 -254 282q-92 182 -92 416t92 416q90 178 256 282q165 103 366 103q175 0 314 -62q138 -61 229 -172q92 -112 135 -260h-145q-64 174 -197 277
q-132 102 -332 102q-160 0 -290 -86q-129 -85 -203 -240q-74 -154 -74 -350q0 -198 74 -352t207 -240t297 -86q158 0 280 70q125 72 195 203q71 133 71 317h-602v125zM756 -412v256h151v-266l-96 -164h-98l84 174h-41z" />
    <glyph glyph-name="uni0123" unicode="&#x123;" horiz-adv-x="1302" 
d="M997 1090l140 -7v-1110q0 -127 -66 -221q-64 -91 -174 -137q-107 -45 -246 -45q-132 0 -239 43q-108 44 -172 125q-65 83 -74 196h139q9 -85 57 -141q49 -58 125 -88q79 -31 166 -31q100 0 181 35q76 33 124 103q46 67 46 161v314q-36 -86 -95 -148q-62 -65 -143 -102
t-178 -37q-136 0 -248 68q-110 67 -172 194t-62 293t62 293q62 126 170 194q109 68 246 68q101 0 188 -41q86 -41 141 -108q57 -69 84 -152v281zM829 154h-6q87 57 133 157q48 105 48 240q0 139 -46 240q-47 102 -131 157q-86 56 -202 56q-117 0 -203 -56q-84 -55 -131 -157
q-45 -99 -45 -240q0 -137 47 -240q47 -102 131 -157q86 -56 203 -56q116 0 202 56zM643 1722h92l-82 -174h39v-256h-145v267z" />
    <glyph glyph-name="Hcircumflex" unicode="&#x124;" horiz-adv-x="1615" 
d="M1264 868v688h139v-1556h-139v741h-912v-741h-141v1556h141v-688h912zM905 1948l266 -258h-133l-229 192l-231 -192h-134l269 258h192z" />
    <glyph glyph-name="hcircumflex" unicode="&#x125;" horiz-adv-x="1206" 
d="M862 1057h-8q87 -55 137 -154q49 -98 49 -225v-4v-676h-135v653v4q0 117 -37 195q-37 79 -104 119q-68 41 -156 41q-90 0 -155 -39q-68 -41 -105 -119t-37 -195v-655h-135v1557h135v-693q40 110 129 178t219 68q115 0 203 -55zM330 1946l266 -258h-133l-230 192
l-231 -192h-133l268 258h193z" />
    <glyph glyph-name="Hbar" unicode="&#x126;" horiz-adv-x="1615" 
d="M1403 1249h209v-123h-209v-1126h-139v741h-912v-741h-141v1126h-209v123h209v307h141v-307h912v307h139v-307zM352 868h912v258h-912v-258z" />
    <glyph glyph-name="hbar" unicode="&#x127;" horiz-adv-x="1206" 
d="M862 1057h-8q87 -55 137 -154q49 -98 49 -225v-4v-676h-135v653v4q0 117 -37 195q-37 79 -104 119q-68 41 -156 41q-90 0 -155 -39q-68 -41 -105 -119t-37 -195v-655h-135v1278h-143v104h143v175h135v-175h207v-104h-207v-414q40 110 129 178t219 68q115 0 203 -55z" />
    <glyph glyph-name="Itilde" unicode="&#x128;" horiz-adv-x="563" 
d="M352 0h-141v1556h141v-1556zM-45 1729l4 -3q9 88 61 134q53 47 123 47q39 0 80 -13q30 -10 76 -30q31 -17 61 -25q31 -8 62 -8q46 0 80 18q33 17 49 60h59q-6 -60 -32 -99t-68 -61q-39 -20 -86 -20q-42 0 -80 12q-22 7 -76 31q-65 32 -125 32q-45 0 -80 -18t-49 -57h-59z
" />
    <glyph glyph-name="itilde" unicode="&#x129;" horiz-adv-x="483" 
d="M309 0h-135v1090h135v-1090zM-72 1307q9 84 60 135q49 49 114 49q38 0 76 -12q35 -11 74 -33q65 -35 117 -35q47 0 80 23q31 22 43 61h55q-9 -84 -60 -135q-49 -49 -114 -49q-39 0 -76 12q-35 11 -74 33q-65 35 -117 35q-46 0 -79 -23q-31 -22 -43 -61h-56z" />
    <glyph glyph-name="Imacron" unicode="&#x12a;" horiz-adv-x="563" 
d="M352 0h-141v1556h141v-1556zM645 1763h-725v115h725v-115z" />
    <glyph glyph-name="imacron" unicode="&#x12b;" horiz-adv-x="483" 
d="M309 0h-135v1090h135v-1090zM575 1343h-669v103h669v-103z" />
    <glyph glyph-name="Ibreve" unicode="&#x12c;" horiz-adv-x="563" 
d="M352 0h-141v1556h141v-1556zM121 1716h4q-67 38 -105 99q-36 59 -36 133h114q0 -82 49 -131q50 -50 136 -50q85 0 135 50q49 49 49 131h115q0 -72 -37 -133t-105 -99q-67 -37 -159 -37q-93 0 -160 37z" />
    <glyph glyph-name="ibreve" unicode="&#x12d;" horiz-adv-x="483" 
d="M309 0h-135v1090h135v-1090zM82 1286h8q-66 40 -104 111q-37 70 -37 157h110q0 -101 50 -157t139 -56q85 0 135 56q49 55 49 157h111q0 -87 -37 -157q-38 -71 -105 -111q-68 -41 -159 -41q-92 0 -160 41z" />
    <glyph glyph-name="Iogonek" unicode="&#x12e;" horiz-adv-x="563" 
d="M352 0h-141v1556h141v-1556zM297 -406h-2q-108 0 -178 48q-68 47 -68 135q0 71 43 123t119 98h141q-93 -47 -135 -92q-43 -46 -43 -105q0 -53 37 -80q36 -26 96 -26h45v-101h-55z" />
    <glyph glyph-name="iogonek" unicode="&#x12f;" horiz-adv-x="483" 
d="M168 1298v258h145v-258h-145zM174 1090l135 2v-1090q-95 -48 -135 -94q-43 -49 -43 -107q0 -53 37 -80q39 -28 98 -28h43v-96h-53q-110 0 -178 47t-68 135q0 71 43 123q41 49 121 98v1090z" />
    <glyph glyph-name="Idotaccent" unicode="&#x130;" horiz-adv-x="563" 
d="M352 0h-141v1556h141v-1556zM358 1690h-151v258h151v-258z" />
    <glyph glyph-name="dotlessi" unicode="&#x131;" horiz-adv-x="483" 
d="M309 0h-135v1090h135v-1090z" />
    <glyph glyph-name="Jcircumflex" unicode="&#x134;" horiz-adv-x="731" 
d="M41 0l-2 127h139q107 0 160 41q51 39 51 141v1247h139v-1265q0 -150 -86 -221q-85 -70 -245 -70h-156zM555 1948l266 -258h-133l-229 192l-232 -192h-133l268 258h193z" />
    <glyph glyph-name="jcircumflex" unicode="&#x135;" horiz-adv-x="483" 
d="M-53 -401v102h49q89 0 133 41q43 40 43 135v1210h135v-1210q0 -138 -80 -209q-78 -69 -219 -69h-61zM332 1554l272 -305h-127l-235 240l-238 -240h-127l273 305h182z" />
    <glyph glyph-name="uni0136" unicode="&#x136;" horiz-adv-x="1406" 
d="M528 821l897 -821h-190l-883 809v-809h-141v1556h141v-727l805 727h189zM678 -399v256h151v-267l-96 -163h-98l84 174h-41z" />
    <glyph glyph-name="uni0137" unicode="&#x137;" horiz-adv-x="1071" 
d="M469 608l598 -608h-170l-588 596v-596h-135v1556h135v-938l561 472h174zM510 -399v256h145v-267l-96 -163h-92l84 174h-41z" />
    <glyph glyph-name="kgreenlandic" unicode="&#x138;" horiz-adv-x="1079" 
d="M461 584l614 -584h-170l-598 567v-567h-133v1090h133v-488l570 488h174z" />
    <glyph glyph-name="Lacute" unicode="&#x139;" horiz-adv-x="1118" 
d="M352 1556v-1429h727v-127h-868v1556h141zM358 1690h-137l260 258h193z" />
    <glyph glyph-name="lacute" unicode="&#x13a;" horiz-adv-x="483" 
d="M309 0h-135v1556h135v-1556zM324 1690h-138l260 258h193z" />
    <glyph glyph-name="uni013B" unicode="&#x13b;" horiz-adv-x="1118" 
d="M352 1556v-1429h727v-127h-868v1556h141zM571 -399v256h152v-267l-96 -163h-99l84 174h-41z" />
    <glyph glyph-name="uni013C" unicode="&#x13c;" horiz-adv-x="483" 
d="M309 0h-135v1556h135v-1556zM168 -399v256h145v-267l-96 -163h-92l84 174h-41z" />
    <glyph glyph-name="Lcaron" unicode="&#x13d;" horiz-adv-x="1118" 
d="M352 1556v-1429h727v-127h-868v1556h141zM709 1061h-109l49 495h146z" />
    <glyph glyph-name="lcaron" unicode="&#x13e;" horiz-adv-x="483" 
d="M309 0h-135v1556h135v-1556zM524 1188h-102l33 368h127z" />
    <glyph glyph-name="Ldot" unicode="&#x13f;" horiz-adv-x="1138" 
d="M352 1556v-1429h727v-127h-868v1556h141zM932 733h-160v240h160v-240z" />
    <glyph glyph-name="ldot" unicode="&#x140;" horiz-adv-x="602" 
d="M309 0h-135v1556h135v-1556zM623 686h-160v240h160v-240z" />
    <glyph glyph-name="Lslash" unicode="&#x141;" horiz-adv-x="1118" 
d="M352 723v-596h727v-127h-868v639l-184 -111v127l184 111v790h141v-706l363 215v-127z" />
    <glyph glyph-name="lslash" unicode="&#x142;" horiz-adv-x="569" 
d="M352 889l180 117v-127l-180 -117v-762h-135v674l-156 -103v127l156 103v755h135v-667z" />
    <glyph glyph-name="Nacute" unicode="&#x143;" horiz-adv-x="1710" 
d="M352 0h-141v1556h141v-1556zM1346 0h-156l-823 1556h153zM1499 0h-141v1556h141v-1556zM924 1690h-138l261 258h192z" />
    <glyph glyph-name="nacute" unicode="&#x144;" horiz-adv-x="1206" 
d="M862 1057h-8q87 -55 137 -154q49 -98 49 -225v-4v-676h-135v653v4q0 117 -37 195q-37 79 -104 119q-68 41 -156 41q-90 0 -155 -39q-68 -41 -105 -119t-37 -195v-655h-135v1090h135v-226q40 110 129 178t219 68q115 0 203 -55zM645 1249h-127l248 305h184z" />
    <glyph glyph-name="uni0145" unicode="&#x145;" horiz-adv-x="1710" 
d="M352 0h-141v1556h141v-1556zM1346 0h-156l-823 1556h153zM1499 0h-141v1556h141v-1556zM762 -399v256h151v-267l-96 -163h-98l84 174h-41z" />
    <glyph glyph-name="uni0146" unicode="&#x146;" horiz-adv-x="1206" 
d="M862 1057h-8q87 -55 137 -154q49 -98 49 -225v-4v-676h-135v653v4q0 117 -37 195q-37 79 -104 119q-68 41 -156 41q-90 0 -155 -39q-68 -41 -105 -119t-37 -195v-655h-135v1090h135v-226q40 110 129 178t219 68q115 0 203 -55zM528 -401v256h146v-267l-96 -163h-93
l84 174h-41z" />
    <glyph glyph-name="Ncaron" unicode="&#x147;" horiz-adv-x="1710" 
d="M352 0h-141v1556h141v-1556zM1346 0h-156l-823 1556h153zM1499 0h-141v1556h141v-1556zM893 1755l229 193h133l-266 -258h-192l-269 258h134z" />
    <glyph glyph-name="ncaron" unicode="&#x148;" horiz-adv-x="1206" 
d="M862 1057h-8q87 -55 137 -154q49 -98 49 -225v-4v-676h-135v653v4q0 117 -37 195q-37 79 -104 119q-68 41 -156 41q-90 0 -155 -39q-68 -41 -105 -119t-37 -195v-655h-135v1090h135v-226q40 110 129 178t219 68q115 0 203 -55zM608 1315l236 239h127l-273 -305h-182
l-272 305h127z" />
    <glyph glyph-name="Eng" unicode="&#x14a;" horiz-adv-x="1710" 
d="M352 0h-141v1556h141v-1556zM520 1556l826 -1556h-156l-823 1556h153zM1499 1556l-2 -1667q0 -150 -86 -221q-84 -69 -246 -69h-153v127h139q108 0 158 41q49 40 49 141v1648h141z" />
    <glyph glyph-name="eng" unicode="&#x14b;" horiz-adv-x="1206" 
d="M862 1057h-8q87 -55 137 -154q49 -98 49 -225v-4v-676h-135v653v4q0 117 -37 195q-37 79 -104 119q-68 41 -156 41q-90 0 -155 -39q-68 -41 -105 -119t-37 -195v-655h-135v1090h135v-226q40 110 129 178t219 68q115 0 203 -55zM676 -403v102h49q89 0 133 41q43 40 43 135
v121h135v-121q0 -138 -80 -209q-78 -69 -219 -69h-61z" />
    <glyph glyph-name="Omacron" unicode="&#x14c;" horiz-adv-x="1691" 
d="M467 78q-168 103 -258 282q-92 182 -92 418t92 418q91 181 258 283q163 100 379 100t379 -100q167 -102 258 -283q92 -182 92 -418t-92 -418q-90 -179 -258 -282q-165 -101 -379 -101t-379 101zM1149 184q133 86 207 240t74 350t-74 350t-207 240t-301 86t-301 -86
t-207 -240t-74 -350t74 -350t207 -240t301 -86t301 86zM1208 1761h-725v115h725v-115z" />
    <glyph glyph-name="omacron" unicode="&#x14d;" horiz-adv-x="1234" 
d="M346 47l-4 -8q-117 70 -182 201q-64 128 -64 297q0 165 66 297q65 129 182 200q119 72 270 72q155 0 271 -70q119 -72 182 -198q66 -132 66 -297q0 -169 -64 -297t-182 -199q-116 -70 -271 -70q-151 0 -270 72zM815 129l-6 -8q84 57 131 164q47 106 47 243q0 142 -45 244
q-47 107 -131 164q-86 59 -203 59q-119 0 -202 -57q-85 -58 -132 -164q-45 -102 -45 -242q0 -135 47 -241q46 -104 134 -164q83 -57 202 -57q117 0 203 59zM940 1325h-670v102h670v-102z" />
    <glyph glyph-name="Obreve" unicode="&#x14e;" horiz-adv-x="1691" 
d="M467 78q-168 103 -258 282q-92 182 -92 418t92 418q91 181 258 283q163 100 379 100t379 -100q167 -102 258 -283q92 -182 92 -418t-92 -418q-90 -179 -258 -282q-165 -101 -379 -101t-379 101zM1149 184q133 86 207 240t74 350t-74 350t-207 240t-301 86t-301 -86
t-207 -240t-74 -350t74 -350t207 -240t301 -86t301 86zM684 1716h4q-66 37 -104 99q-37 61 -37 133h115q0 -82 49 -131q50 -50 135 -50t135 50q49 49 49 131h115q0 -72 -37 -133q-38 -62 -104 -99q-67 -37 -160 -37t-160 37z" />
    <glyph glyph-name="obreve" unicode="&#x14f;" horiz-adv-x="1234" 
d="M346 47l-4 -8q-117 70 -182 201q-64 128 -64 297q0 165 66 297q65 129 182 200q119 72 270 72q155 0 271 -70q119 -72 182 -198q66 -132 66 -297q0 -169 -64 -297t-182 -199q-116 -70 -271 -70q-151 0 -270 72zM815 129l-6 -8q84 57 131 164q47 106 47 243q0 142 -45 244
q-47 107 -131 164q-86 59 -203 59q-119 0 -202 -57q-85 -58 -132 -164q-45 -102 -45 -242q0 -135 47 -241q46 -104 134 -164q83 -57 202 -57q117 0 203 59zM449 1268h8q-68 41 -105 110q-37 70 -37 158h111q0 -103 49 -158t139 -55q87 0 136 55t49 158h110q0 -88 -37 -158
t-104 -110q-68 -41 -160 -41q-91 0 -159 41z" />
    <glyph glyph-name="Ohungarumlaut" unicode="&#x150;" horiz-adv-x="1691" 
d="M467 78q-168 103 -258 282q-92 182 -92 418t92 418q91 181 258 283q163 100 379 100t379 -100q167 -102 258 -283q92 -182 92 -418t-92 -418q-90 -179 -258 -282q-165 -101 -379 -101t-379 101zM1149 184q133 86 207 240t74 350t-74 350t-207 240t-301 86t-301 -86
t-207 -240t-74 -350t74 -350t207 -240t301 -86t301 86zM700 1688h-137l279 258h190zM1038 1688h-137l279 258h190z" />
    <glyph glyph-name="ohungarumlaut" unicode="&#x151;" horiz-adv-x="1234" 
d="M346 47l-4 -8q-117 70 -182 201q-64 128 -64 297q0 165 66 297q65 129 182 200q119 72 270 72q155 0 271 -70q119 -72 182 -198q66 -132 66 -297q0 -169 -64 -297t-182 -199q-116 -70 -271 -70q-151 0 -270 72zM815 129l-6 -8q84 57 131 164q47 106 47 243q0 142 -45 244
q-47 107 -131 164q-86 59 -203 59q-119 0 -202 -57q-85 -58 -132 -164q-45 -102 -45 -242q0 -135 47 -241q46 -104 134 -164q83 -57 202 -57q117 0 203 59zM492 1233h-127l260 305h182zM829 1233h-129l263 305h180z" />
    <glyph glyph-name="OE" unicode="&#x152;" horiz-adv-x="2326" 
d="M1350 127h858v-127h-1305q-211 0 -393 92q-180 91 -289 268q-108 176 -108 418t108 418q109 177 289 268q182 92 393 92h1286v-126h-839v-562h825v-127h-825v-614zM1208 127l-2 1305h-305q-169 0 -317 -74q-150 -75 -238 -221q-90 -149 -90 -357q0 -209 90 -358
q88 -146 238 -221q148 -74 319 -74h305z" />
    <glyph glyph-name="oe" unicode="&#x153;" horiz-adv-x="2097" 
d="M1997 510l-879 -4q6 -134 56 -234q49 -98 131 -147t190 -49q262 0 338 239h137q-47 -170 -170 -256q-124 -86 -303 -86q-151 0 -264 76q-114 76 -172 205q-64 -129 -178 -205q-113 -76 -265 -76q-151 0 -270 72q-117 70 -182 201q-64 128 -64 297q0 165 66 297
q65 129 182 200q119 72 271 72t268 -76q117 -76 178 -205q61 129 172 205q110 76 258 76q143 0 258 -68q114 -68 178 -192q66 -129 66 -289zM813 133l-6 -8q84 57 131 164q47 106 47 243q0 142 -45 244q-47 107 -131 164q-86 59 -203 59q-120 0 -203 -57q-84 -57 -131 -164
q-45 -102 -45 -241q0 -136 47 -242q46 -104 134 -164q83 -57 202 -57q117 0 203 59zM1298 948l-2 -2q-80 -46 -129 -135q-48 -85 -57 -211h735q-6 113 -53 203q-46 87 -127 141q-77 51 -184 51q-103 0 -183 -47z" />
    <glyph glyph-name="Racute" unicode="&#x154;" horiz-adv-x="1435" 
d="M1364 0l-166 2l-420 670h-20h-408v-670h-141v1557h549q157 0 284 -54q126 -54 189 -153q65 -103 65 -240q0 -166 -98 -276q-99 -111 -266 -148zM350 1432l-2 -635h412q123 0 207 37q87 38 133 108q47 71 47 172t-47 172t-133 109q-84 37 -205 37h-412zM709 1690h-138
l260 258h193z" />
    <glyph glyph-name="racute" unicode="&#x155;" horiz-adv-x="727" 
d="M309 854q89 258 377 258v-133h-39q-338 0 -338 -315v-664h-135v1090h135v-236zM494 1251h-127l247 305h185z" />
    <glyph glyph-name="uni0156" unicode="&#x156;" horiz-adv-x="1435" 
d="M1364 0l-166 2l-420 670h-20h-408v-670h-141v1557h549q157 0 284 -54q126 -54 189 -153q65 -103 65 -240q0 -166 -98 -276q-99 -111 -266 -148zM350 1432l-2 -635h412q123 0 207 37q87 38 133 108q47 71 47 172t-47 172t-133 109q-84 37 -205 37h-412zM657 -399v256h152
v-267l-96 -163h-99l84 174h-41z" />
    <glyph glyph-name="uni0157" unicode="&#x157;" horiz-adv-x="727" 
d="M309 854q89 258 377 258v-133h-39q-338 0 -338 -315v-664h-135v1090h135v-236zM168 -399v256h145v-267l-96 -163h-92l84 174h-41z" />
    <glyph glyph-name="Rcaron" unicode="&#x158;" horiz-adv-x="1435" 
d="M1364 0l-166 2l-420 670h-20h-408v-670h-141v1557h549q157 0 284 -54q126 -54 189 -153q65 -103 65 -240q0 -166 -98 -276q-99 -111 -266 -148zM350 1432l-2 -635h412q123 0 207 37q87 38 133 108q47 71 47 172t-47 172t-133 109q-84 37 -205 37h-412zM680 1755l229 193
h133l-266 -258h-192l-269 258h134z" />
    <glyph glyph-name="rcaron" unicode="&#x159;" horiz-adv-x="727" 
d="M309 854q89 258 377 258v-133h-39q-338 0 -338 -315v-664h-135v1090h135v-236zM457 1317l235 239h127l-272 -305h-182l-273 305h127z" />
    <glyph glyph-name="Sacute" unicode="&#x15a;" horiz-adv-x="1396" 
d="M399 37l-4 -2q-129 59 -209 170q-79 110 -100 256h145q15 -112 78 -197q59 -80 158 -125q93 -43 213 -43q146 0 250 43q105 44 160 119q55 76 55 178q0 89 -43 144q-44 56 -129 90q-72 29 -240 67l-178 39q-193 43 -307 135q-113 91 -113 256q0 112 72 209q70 94 194 150
q122 55 275 55q157 0 276 -51q124 -53 201 -148t98 -221h-145q-30 148 -148 225q-119 78 -284 78q-116 0 -203 -37q-91 -39 -141 -100q-51 -63 -51 -143q0 -86 38 -135q40 -52 119 -86q81 -35 215 -62l180 -41q170 -39 265 -88q100 -51 147 -129q47 -77 47 -190
q0 -139 -73 -246q-71 -105 -213 -168q-139 -62 -320 -62q-153 0 -285 60zM705 1688h-138l260 258h193z" />
    <glyph glyph-name="sacute" unicode="&#x15b;" horiz-adv-x="1052" 
d="M317 16l-12 -14q-93 40 -155 117q-63 79 -78 184h139q24 -118 111 -178q83 -57 200 -57q91 0 158 28q62 26 98 78q35 50 35 107q0 59 -27 100q-26 39 -81 63q-53 23 -152 45l-127 27q-157 35 -240 98q-86 65 -86 185q0 89 56 157q57 69 147 109q88 39 207 39
q105 0 190 -33q90 -35 150 -98q61 -64 82 -160h-139q-15 58 -56 102q-43 46 -98 66q-64 23 -123 23q-66 0 -133 -23q-58 -20 -98 -66q-37 -43 -37 -100q0 -52 31 -88q29 -33 83 -55q51 -21 142 -39l127 -27q173 -38 252 -108q80 -71 80 -197q0 -96 -56 -170
q-57 -76 -153 -115q-100 -41 -222 -41q-119 0 -215 41zM539 1235h-127l247 305h185z" />
    <glyph glyph-name="Scircumflex" unicode="&#x15c;" horiz-adv-x="1396" 
d="M399 37l-4 -2q-129 59 -209 170q-79 110 -100 256h145q15 -112 78 -197q59 -80 158 -125q93 -43 213 -43q146 0 250 43q105 44 160 119q55 76 55 178q0 89 -43 144q-44 56 -129 90q-72 29 -240 67l-178 39q-193 43 -307 135q-113 91 -113 256q0 112 72 209q70 94 194 150
q122 55 275 55q157 0 276 -51q124 -53 201 -148t98 -221h-145q-30 148 -148 225q-119 78 -284 78q-116 0 -203 -37q-91 -39 -141 -100q-51 -63 -51 -143q0 -86 38 -135q40 -52 119 -86q81 -35 215 -62l180 -41q170 -39 265 -88q100 -51 147 -129q47 -77 47 -190
q0 -139 -73 -246q-71 -105 -213 -168q-139 -62 -320 -62q-153 0 -285 60zM772 1946l266 -258h-133l-229 192l-232 -192h-133l269 258h192z" />
    <glyph glyph-name="scircumflex" unicode="&#x15d;" horiz-adv-x="1052" 
d="M317 16l-12 -14q-93 40 -155 117q-63 79 -78 184h139q24 -118 111 -178q83 -57 200 -57q91 0 158 28q62 26 98 78q35 50 35 107q0 59 -27 100q-26 39 -81 63q-53 23 -152 45l-127 27q-157 35 -240 98q-86 65 -86 185q0 89 56 157q57 69 147 109q88 39 207 39
q105 0 190 -33q90 -35 150 -98q61 -64 82 -160h-139q-15 58 -56 102q-43 46 -98 66q-64 23 -123 23q-66 0 -133 -23q-58 -20 -98 -66q-37 -43 -37 -100q0 -52 31 -88q29 -33 83 -55q51 -21 142 -39l127 -27q173 -38 252 -108q80 -71 80 -197q0 -96 -56 -170
q-57 -76 -153 -115q-100 -41 -222 -41q-119 0 -215 41zM594 1540l272 -305h-127l-235 240l-238 -240h-127l273 305h182z" />
    <glyph glyph-name="Scedilla" unicode="&#x15e;" horiz-adv-x="1396" 
d="M1227 215l-4 -6q-67 -105 -193 -166q-125 -61 -295 -70v-61q71 -6 117 -49q45 -42 45 -111q0 -73 -53 -117q-52 -43 -139 -43h-93v86h76q44 0 74 23q29 23 29 61q0 39 -29 62q-28 22 -68 22h-53v131q-148 6 -266 68q-119 63 -191 168q-73 107 -94 246h146
q15 -114 77 -197q59 -80 158 -125q93 -43 213 -43q146 0 250 43q105 44 160 119q55 76 55 178q0 89 -43 144q-44 56 -129 90q-72 29 -240 67l-178 39q-193 43 -307 135q-113 91 -113 256q0 112 72 209q70 93 195 150q122 55 274 55q157 0 276 -51q124 -53 201 -148t98 -221
h-145q-30 149 -147 225q-119 78 -285 78q-116 0 -203 -37q-91 -39 -141 -100q-51 -63 -51 -143q0 -84 39 -135q40 -52 118 -86q81 -35 215 -62l181 -41q168 -38 264 -88q100 -51 147 -129q47 -77 47 -190q0 -132 -67 -236z" />
    <glyph glyph-name="scedilla" unicode="&#x15f;" horiz-adv-x="1052" 
d="M907 137l-20 -10q-51 -72 -146 -117q-88 -42 -211 -45v-59q71 -6 117 -49q45 -42 45 -111q0 -72 -51 -117t-137 -45h-88v82h78q47 0 77 23q29 23 29 65q0 38 -29 64q-27 24 -67 24h-55v131q-154 15 -259 103q-101 84 -122 231h139q24 -119 110 -178q83 -57 201 -57
q91 0 158 28q62 26 98 78q35 50 35 107q0 59 -27 100q-27 40 -82 64q-54 24 -151 45l-127 26q-157 35 -240 98q-86 65 -86 185q0 90 56 158q56 67 147 108q88 39 207 39q105 0 190 -33q90 -35 150 -98q61 -64 82 -160h-140q-16 61 -55 103q-42 45 -98 65q-64 23 -123 23
q-66 0 -133 -23q-59 -20 -98 -65q-37 -43 -37 -101q0 -53 30 -88q29 -33 84 -55q51 -21 142 -39l127 -27q173 -38 252 -108t79 -197q0 -97 -51 -168z" />
    <glyph glyph-name="Scaron" unicode="&#x160;" horiz-adv-x="1396" 
d="M399 37l-4 -2q-129 59 -209 170q-79 110 -100 256h145q15 -112 78 -197q59 -80 158 -125q93 -43 213 -43q146 0 250 43q105 44 160 119q55 76 55 178q0 89 -43 144q-44 56 -129 90q-72 29 -240 67l-178 39q-193 43 -307 135q-113 91 -113 256q0 112 72 209q70 94 194 150
q122 55 275 55q157 0 276 -51q124 -53 201 -148t98 -221h-145q-30 148 -148 225q-119 78 -284 78q-116 0 -203 -37q-91 -39 -141 -100q-51 -63 -51 -143q0 -86 38 -135q40 -52 119 -86q81 -35 215 -62l180 -41q170 -39 265 -88q100 -51 147 -129q47 -77 47 -190
q0 -139 -73 -246q-71 -105 -213 -168q-139 -62 -320 -62q-153 0 -285 60zM674 1753l229 193h133l-266 -258h-192l-269 258h133z" />
    <glyph glyph-name="scaron" unicode="&#x161;" horiz-adv-x="1052" 
d="M317 16l-12 -14q-93 40 -155 117q-63 79 -78 184h139q24 -118 111 -178q83 -57 200 -57q91 0 158 28q62 26 98 78q35 50 35 107q0 59 -27 100q-26 39 -81 63q-53 23 -152 45l-127 27q-157 35 -240 98q-86 65 -86 185q0 89 56 157q57 69 147 109q88 39 207 39
q105 0 190 -33q90 -35 150 -98q61 -64 82 -160h-139q-15 58 -56 102q-43 46 -98 66q-64 23 -123 23q-66 0 -133 -23q-58 -20 -98 -66q-37 -43 -37 -100q0 -52 31 -88q29 -33 83 -55q51 -21 142 -39l127 -27q173 -38 252 -108q80 -71 80 -197q0 -96 -56 -170
q-57 -76 -153 -115q-100 -41 -222 -41q-119 0 -215 41zM502 1300l235 240h127l-272 -305h-182l-273 305h127z" />
    <glyph glyph-name="uni0162" unicode="&#x162;" horiz-adv-x="1284" 
d="M39 1556h1206v-126h-532v-1430h-142v1430h-532v126zM565 -399v256h152v-267l-96 -163h-99l84 174h-41z" />
    <glyph glyph-name="uni0163" unicode="&#x163;" horiz-adv-x="749" 
d="M707 104v-108h-138q-140 0 -219 70q-80 71 -80 208v5v704h-243v104h243v259h136v-259h301v-104h-301v-704v-5q0 -91 43 -131q42 -39 133 -39h125zM381 -403v256h145v-267l-96 -164h-92l84 175h-41z" />
    <glyph glyph-name="Tcaron" unicode="&#x164;" horiz-adv-x="1284" 
d="M39 1556h1206v-126h-532v-1430h-142v1430h-532v126zM641 1755l229 193h134l-267 -258h-192l-269 258h134z" />
    <glyph glyph-name="tcaron" unicode="&#x165;" horiz-adv-x="749" 
d="M707 104v-108h-138q-140 0 -219 70q-80 71 -80 208v5v704h-243v104h243v259h136v-259h301v-104h-301v-704v-5q0 -91 43 -131q42 -39 133 -39h125zM618 1184h-102l33 368h127z" />
    <glyph glyph-name="Tbar" unicode="&#x166;" horiz-adv-x="1345" 
d="M1276 1556v-126h-533v-582h406v-121h-406v-727h-141v727h-405v121h405v582h-532v126h1206z" />
    <glyph glyph-name="tbar" unicode="&#x167;" horiz-adv-x="749" 
d="M707 104v-108h-138q-140 0 -219 70q-80 71 -80 208v5v325h-172v105h172v274h-243v104h243v259h136v-259h301v-104h-301v-274h178v-105h-178v-325v-5q0 -91 43 -131q42 -39 133 -39h125z" />
    <glyph glyph-name="Utilde" unicode="&#x168;" horiz-adv-x="1587" 
d="M195 621l-2 6v932h139v-941v-4q0 -256 117 -385t346 -129q228 0 342 129t114 387v940h142v-931q0 -648 -598 -648q-600 0 -600 644zM465 1731l4 -2q9 87 61 133q53 47 123 47q39 0 80 -13q30 -10 76 -30q31 -17 61 -25q31 -8 62 -8q46 0 80 18q33 17 49 60h59
q-6 -59 -33 -99t-67 -61q-39 -20 -86 -20q-42 0 -80 12q-22 7 -76 31q-65 32 -125 32q-45 0 -80 -18t-49 -57h-59z" />
    <glyph glyph-name="utilde" unicode="&#x169;" horiz-adv-x="1196" 
d="M887 1090l135 -9v-1089h-135v223q-44 -110 -131 -176q-89 -68 -215 -68q-113 0 -199 56q-87 56 -135 153q-49 98 -49 226v4v675h135v-653v-4q0 -114 37 -192q37 -79 104 -119q65 -39 156 -39q87 0 155 41q67 40 105 121q37 78 37 194v656zM279 1298q9 86 59 136
q49 49 115 49q34 0 75 -13q39 -13 74 -32q65 -35 117 -35q49 0 80 22t43 62h55q-9 -85 -59 -135q-49 -49 -115 -49q-39 0 -76 12q-35 11 -74 33q-64 34 -116 34q-49 0 -80 -22t-43 -62h-55z" />
    <glyph glyph-name="Umacron" unicode="&#x16a;" horiz-adv-x="1587" 
d="M195 621l-2 6v932h139v-941v-4q0 -256 117 -385t346 -129q228 0 342 129t114 387v940h142v-931q0 -648 -598 -648q-600 0 -600 644zM1153 1765h-725v115h725v-115z" />
    <glyph glyph-name="umacron" unicode="&#x16b;" horiz-adv-x="1196" 
d="M887 1090l135 -9v-1089h-135v223q-44 -110 -131 -176q-89 -68 -215 -68q-113 0 -199 56q-87 56 -135 153q-49 98 -49 226v4v675h135v-653v-4q0 -114 37 -192q37 -79 104 -119q65 -39 156 -39q87 0 155 41q67 40 105 121q37 78 37 194v656zM926 1335h-670v103h670v-103z
" />
    <glyph glyph-name="Ubreve" unicode="&#x16c;" horiz-adv-x="1587" 
d="M195 621l-2 6v932h139v-941v-4q0 -256 117 -385t346 -129q228 0 342 129t114 387v940h142v-931q0 -648 -598 -648q-600 0 -600 644zM631 1718h4q-67 38 -105 99q-36 59 -36 133h114q0 -82 49 -131q50 -50 136 -50q85 0 135 50q49 49 49 131h115q0 -72 -37 -133t-105 -99
q-67 -37 -159 -37q-93 0 -160 37z" />
    <glyph glyph-name="ubreve" unicode="&#x16d;" horiz-adv-x="1196" 
d="M887 1090l135 -9v-1089h-135v223q-44 -110 -131 -176q-89 -68 -215 -68q-113 0 -199 56q-87 56 -135 153q-49 98 -49 226v4v675h135v-653v-4q0 -114 37 -192q37 -79 104 -119q65 -39 156 -39q87 0 155 41q67 40 105 121q37 78 37 194v656zM432 1278h8q-66 40 -104 111
q-37 70 -37 157h111q0 -102 49 -157q50 -56 139 -56q85 0 135 56q49 55 49 157h111q0 -87 -37 -157q-38 -71 -104 -111q-68 -41 -160 -41t-160 41z" />
    <glyph glyph-name="Uring" unicode="&#x16e;" horiz-adv-x="1587" 
d="M195 621l-2 6v932h139v-941v-4q0 -256 117 -385t346 -129q228 0 342 129t114 387v940h142v-931q0 -648 -598 -648q-600 0 -600 644zM674 1712q-56 30 -86 86q-31 57 -31 119q0 63 31 117t86 84q56 30 119 30q64 0 116 -30q53 -31 84 -84q31 -54 31 -117q0 -62 -31 -119
q-30 -55 -84 -86t-116 -31t-119 31zM858 1796q31 18 49 49q19 32 19 68q0 35 -19 67t-49 50t-67 18q-38 0 -68 -18t-49 -50t-19 -67q0 -36 19 -68q18 -31 49 -49q30 -18 68 -18q37 0 67 18z" />
    <glyph glyph-name="uring" unicode="&#x16f;" horiz-adv-x="1196" 
d="M887 1090l135 -9v-1089h-135v223q-44 -110 -131 -176q-89 -68 -215 -68q-113 0 -199 56q-87 56 -135 153q-49 98 -49 226v4v675h135v-653v-4q0 -114 37 -192q37 -79 104 -119q65 -39 156 -39q87 0 155 41q67 40 105 121q37 78 37 194v656zM489 1264l-4 -4q-46 27 -73 73
q-27 47 -27 105q0 52 29 102q28 48 73 74t103 26q57 0 102 -26q47 -27 74 -74q29 -50 29 -100q0 -58 -27 -105q-26 -45 -74 -73q-46 -27 -102 -27q-53 0 -103 29zM666 1356h-4q34 34 34 80q0 48 -32 80t-80 32t-80 -32q-33 -33 -33 -80q0 -45 35 -80t80 -35t80 35z" />
    <glyph glyph-name="Uhungarumlaut" unicode="&#x170;" horiz-adv-x="1587" 
d="M195 621l-2 6v932h139v-941v-4q0 -256 117 -385t346 -129q228 0 342 129t114 387v940h142v-931q0 -648 -598 -648q-600 0 -600 644zM645 1692h-137l278 258h191zM983 1692h-137l278 258h191z" />
    <glyph glyph-name="uhungarumlaut" unicode="&#x171;" horiz-adv-x="1196" 
d="M887 1090l135 -9v-1089h-135v223q-44 -110 -131 -176q-89 -68 -215 -68q-113 0 -199 56q-87 56 -135 153q-49 98 -49 226v4v675h135v-653v-4q0 -114 37 -192q37 -79 104 -119q65 -39 156 -39q87 0 155 41q67 40 105 121q37 78 37 194v656zM475 1243h-127l260 305h183z
M813 1243h-129l262 305h180z" />
    <glyph glyph-name="Uogonek" unicode="&#x172;" horiz-adv-x="1587" 
d="M1251 1556h135v-931q0 -418 -245 -564q-96 -72 -133 -129q-37 -58 -37 -120q0 -59 37 -86q40 -29 96 -29h45v-100h-55q-111 0 -179 47q-67 46 -67 135q0 112 115 215q-83 -14 -170 -14q-600 0 -600 643v4v932h139v-941v-4q0 -256 117 -385t346 -129q228 0 342 129
t114 387v940z" />
    <glyph glyph-name="uogonek" unicode="&#x173;" horiz-adv-x="1196" 
d="M1022 0v-6q-95 -48 -135 -94q-43 -49 -43 -107q0 -53 37 -80q39 -28 98 -28h43v-97h-53q-110 0 -178 47t-68 136q0 71 43 123q41 49 121 98v223q-44 -110 -131 -176q-89 -68 -215 -68q-113 0 -199 56q-87 56 -135 153q-49 98 -49 226v4v675h135v-653v-4q0 -114 37 -192
q37 -79 104 -119q65 -39 156 -39q87 0 155 41q67 40 105 121q37 78 37 194v656h135v-1090z" />
    <glyph glyph-name="Wcircumflex" unicode="&#x174;" horiz-adv-x="2299" 
d="M623 0h-150l-434 1556h149zM782 0h-145l360 1556h146zM1665 0h-147l-361 1556h146zM1827 0h-150l437 1556h147zM1247 1948l266 -258h-133l-229 192l-231 -192h-134l269 258h192z" />
    <glyph glyph-name="wcircumflex" unicode="&#x175;" horiz-adv-x="1806" 
d="M494 0h-134l-315 1090h133zM639 0h-131l258 1090h131zM1298 0h-131l-258 1090h131zM1446 0h-133l315 1090h133zM993 1556l273 -305h-127l-236 240l-237 -240h-127l272 305h182z" />
    <glyph glyph-name="Ycircumflex" unicode="&#x176;" horiz-adv-x="1349" 
d="M1186 1556h162l-603 -874v-682h-141v682l-602 874h160l512 -739zM772 1948l266 -258h-133l-229 192l-232 -192h-133l269 258h192z" />
    <glyph glyph-name="ycircumflex" unicode="&#x177;" horiz-adv-x="1126" 
d="M580 117h-142l-422 973h142zM539 -401h-144l561 1491h140zM647 1556l273 -305h-127l-236 240l-238 -240h-126l272 305h182z" />
    <glyph glyph-name="Ydieresis" unicode="&#x178;" horiz-adv-x="1349" 
d="M1186 1556h162l-603 -874v-682h-141v682l-602 874h160l512 -739zM561 1690h-151v258h151v-258zM940 1690h-152v258h152v-258z" />
    <glyph glyph-name="Zacute" unicode="&#x179;" horiz-adv-x="1374" 
d="M1278 1384l-1055 -1257h1094v-127h-1239v172l1055 1258h-1043v126h1188v-172zM715 1690h-137l260 258h192z" />
    <glyph glyph-name="zacute" unicode="&#x17a;" horiz-adv-x="1019" 
d="M918 944l-701 -840h744v-104h-881v145l700 840h-686v105h824v-146zM543 1251h-127l248 305h184z" />
    <glyph glyph-name="Zdotaccent" unicode="&#x17b;" horiz-adv-x="1374" 
d="M1278 1384l-1055 -1257h1094v-127h-1239v172l1055 1258h-1043v126h1188v-172zM760 1690h-152v258h152v-258z" />
    <glyph glyph-name="zdotaccent" unicode="&#x17c;" horiz-adv-x="1019" 
d="M918 944l-701 -840h744v-104h-881v145l700 840h-686v105h824v-146zM578 1298h-146v258h146v-258z" />
    <glyph glyph-name="Zcaron" unicode="&#x17d;" horiz-adv-x="1374" 
d="M1278 1384l-1055 -1257h1094v-127h-1239v172l1055 1258h-1043v126h1188v-172zM686 1755l229 193h134l-267 -258h-192l-268 258h133z" />
    <glyph glyph-name="zcaron" unicode="&#x17e;" horiz-adv-x="1019" 
d="M918 944l-701 -840h744v-104h-881v145l700 840h-686v105h824v-146zM506 1317l235 239h127l-272 -305h-182l-273 305h127z" />
    <glyph glyph-name="uni018F" unicode="&#x18f;" horiz-adv-x="1677" 
d="M1196 1483l-4 4q168 -94 268 -277q99 -182 99 -426q0 -242 -99 -424q-98 -179 -264 -278q-165 -98 -369 -98q-212 0 -374 104t-254 293q-93 191 -93 424v39h1307q-12 197 -92 336t-211 209q-133 71 -289 71q-200 0 -334 -94q-136 -95 -194 -270h-146q46 154 142 264
q94 108 231 164q134 55 301 55q203 0 375 -96zM1108 176v-2q128 73 209 213q80 139 92 332h-1159q9 -167 84 -311q73 -140 201 -224q125 -82 288 -82q155 0 285 74z" />
    <glyph glyph-name="florin" unicode="&#x192;" horiz-adv-x="1163" 
d="M952 1442h-6q-107 0 -162 -49q-56 -50 -71 -160l-47 -318h358v-116h-375l-74 -494q-46 -303 -358 -303h-156v115h142q108 0 166 49t73 160l72 471h-336v116h352l52 340q46 303 356 303h156v-114h-142z" />
    <glyph glyph-name="uni019D" unicode="&#x19d;" horiz-adv-x="1710" 
d="M352 0h-141v1556h141v-1556zM1346 0h-156l-823 1556h153zM1499 0h-141v1556h141v-1556zM-135 -401l-2 127h139q107 0 160 41q51 39 51 141v92h139v-111q0 -150 -86 -221q-84 -69 -246 -69h-155z" />
    <glyph glyph-name="uni01B5" unicode="&#x1b5;" horiz-adv-x="1417" 
d="M756 739l-514 -612h1093v-127h-1239v172l475 567h-421v123h526l475 568h-1040v126h1187v-172l-438 -522h420v-123h-524z" />
    <glyph glyph-name="uni01B6" unicode="&#x1b6;" horiz-adv-x="1048" 
d="M571 516l-344 -412h744v-104h-881v145l309 371h-258v105h346l306 364h-687v105h822v-146l-271 -323h281v-105h-367z" />
    <glyph glyph-name="uni01E2" unicode="&#x1e2;" horiz-adv-x="2054" 
d="M1225 741l235 -614h477v-127h-577l-191 502h-817l-190 -502h-152l596 1556h148l-353 -927h719l-354 927h1153v-126h-956l215 -562h727v-127h-680zM1526 1763h-725v115h725v-115z" />
    <glyph glyph-name="uni01E3" unicode="&#x1e3;" horiz-adv-x="1984" 
d="M1886 530l-8 -8q-2 -8 -2 -20h-870q6 -136 55 -234t131 -147t190 -49q133 0 215 61q84 62 121 176h140q-47 -170 -170 -256q-124 -86 -304 -86q-163 0 -284 80q-119 79 -172 221q-26 -83 -90 -153q-62 -68 -154 -109q-88 -39 -205 -39q-111 0 -196 43q-84 43 -131 117
q-46 73 -46 162q0 175 136 246t376 71h256v82v4q0 84 -30 154q-28 66 -99 112q-67 43 -167 43q-90 0 -154 -30q-60 -28 -100 -84q-37 -52 -43 -117h-140q9 95 66 174q54 74 151 119q93 43 222 43q157 0 251 -70q96 -72 136 -172q61 113 170 178q111 66 249 66q144 0 259 -68
q114 -67 178 -190q65 -124 65 -289q0 -23 -2 -31zM1194 952l-2 2q-80 -46 -129 -135q-48 -85 -57 -211h733q-6 113 -53 203q-47 89 -127 139q-79 49 -183 49q-102 0 -182 -47zM868 502l-231 -6q-196 0 -295 -45q-100 -46 -100 -166q0 -63 30 -113q29 -48 90 -76
q56 -26 140 -26q114 0 196 49q83 50 127 145q43 93 43 221v17zM1319 1329h-670v103h670v-103z" />
    <glyph glyph-name="Gcaron" unicode="&#x1e6;" horiz-adv-x="1685" 
d="M782 811l738 -12v-811h-125v422q-34 -116 -107 -217q-74 -102 -192 -166q-119 -64 -279 -64q-197 0 -362 103q-163 102 -254 282q-92 182 -92 416t92 416q90 178 256 282q165 103 366 103q175 0 314 -62q138 -61 229 -172q92 -112 135 -260h-145q-64 174 -197 277
q-132 102 -332 102q-160 0 -290 -86q-129 -85 -203 -240q-74 -154 -74 -350q0 -198 74 -352t207 -240t297 -86q158 0 280 70q125 72 195 203q71 133 71 317h-602v125zM823 1743l230 192h133l-266 -258h-193l-268 258h133z" />
    <glyph glyph-name="gcaron" unicode="&#x1e7;" horiz-adv-x="1302" 
d="M997 1090l140 -7v-1110q0 -127 -66 -221q-64 -91 -174 -137q-107 -45 -246 -45q-132 0 -239 43q-108 44 -172 125q-65 83 -74 196h139q9 -85 57 -141q49 -58 125 -88q79 -31 166 -31q100 0 181 35q76 33 124 103q46 67 46 161v314q-36 -86 -95 -148q-62 -65 -143 -102
t-178 -37q-136 0 -248 68q-110 67 -172 194t-62 293t62 293q62 126 170 194q109 68 246 68q101 0 188 -41q86 -41 141 -108q57 -69 84 -152v281zM829 154h-6q87 57 133 157q48 105 48 240q0 139 -46 240q-47 102 -131 157q-86 56 -202 56q-117 0 -203 -56q-84 -55 -131 -157
q-45 -99 -45 -240q0 -137 47 -240q47 -102 131 -157q86 -56 203 -56q116 0 202 56zM618 1311l236 239h127l-272 -305h-183l-272 305h127z" />
    <glyph glyph-name="uni01EA" unicode="&#x1ea;" horiz-adv-x="1691" 
d="M1065 -68q-39 -56 -39 -122q0 -59 37 -86q40 -29 96 -29h45v-101h-55q-108 0 -178 48q-68 47 -68 135q0 115 119 219q-87 -19 -174 -19q-214 0 -379 101q-168 103 -258 282q-92 182 -92 418t92 418q91 181 258 283q163 100 379 100t379 -100q167 -102 258 -283
q92 -182 92 -418q0 -167 -45 -301t-129 -241q-80 -102 -197 -168q-97 -73 -141 -136zM334 426q74 -154 207 -240t301 -86t301 86t207 240q73 152 73 350t-73 350q-74 154 -207 240t-301 86t-301 -86t-207 -240t-74 -350t74 -350z" />
    <glyph glyph-name="uni01EB" unicode="&#x1eb;" horiz-adv-x="1234" 
d="M774 -78v-10q-37 -55 -37 -115q0 -59 37 -86q39 -28 98 -28h43v-97h-55q-108 0 -176 47t-68 136q0 59 27 108q28 51 86 103q-71 -11 -111 -11q-151 0 -270 72q-117 70 -182 201q-64 128 -64 297q0 165 66 297q65 129 182 200q119 72 271 72q154 0 270 -70
q119 -72 182 -198q66 -132 66 -297q0 -162 -62 -289t-172 -197q-92 -78 -131 -135zM283 291l-7 -8q46 -104 134 -164q85 -58 202 -58q115 0 203 60q84 57 131 164q47 106 47 243q0 142 -45 244q-47 107 -131 164q-86 59 -203 59q-119 0 -202 -57q-84 -57 -131 -164
q-45 -102 -45 -242q0 -135 47 -241z" />
    <glyph glyph-name="AEacute" unicode="&#x1fc;" horiz-adv-x="2054" 
d="M1225 741l235 -614h477v-127h-577l-191 502h-817l-190 -502h-152l596 1556h148l-353 -927h719l-354 927h1153v-126h-956l215 -562h727v-127h-680zM1192 1690h-137l260 258h192z" />
    <glyph glyph-name="aeacute" unicode="&#x1fd;" horiz-adv-x="1984" 
d="M1886 530l-8 -8q-2 -8 -2 -20h-870q6 -136 55 -234t131 -147t190 -49q133 0 215 61q84 62 121 176h140q-47 -170 -170 -256q-124 -86 -304 -86q-163 0 -284 80q-119 79 -172 221q-26 -83 -90 -153q-62 -68 -154 -109q-88 -39 -205 -39q-111 0 -196 43q-84 43 -131 117
q-46 73 -46 162q0 175 136 246t376 71h256v82v4q0 84 -30 154q-28 66 -99 112q-67 43 -167 43q-90 0 -154 -30q-60 -28 -100 -84q-37 -52 -43 -117h-140q9 95 66 174q54 74 151 119q93 43 222 43q157 0 251 -70q96 -72 136 -172q61 113 170 178q111 66 249 66q144 0 259 -68
q114 -67 178 -190q65 -124 65 -289q0 -23 -2 -31zM1194 952l-2 2q-80 -46 -129 -135q-48 -85 -57 -211h733q-6 113 -53 203q-47 89 -127 139q-79 49 -183 49q-102 0 -182 -47zM868 502l-231 -6q-196 0 -295 -45q-100 -46 -100 -166q0 -63 30 -113q29 -48 90 -76
q56 -26 140 -26q114 0 196 49q83 50 127 145q43 93 43 221v17zM1022 1237h-127l248 305h184z" />
    <glyph glyph-name="Oslashacute" unicode="&#x1fe;" horiz-adv-x="1691" 
d="M1681 1556l-254 -262q72 -100 113 -233q39 -127 39 -283q0 -236 -92 -418q-90 -179 -258 -282q-165 -101 -379 -101q-143 0 -270 50q-129 50 -222 141l-157 -166h-185l254 266q-69 102 -110 234q-39 124 -39 278q0 236 92 418q91 181 258 283q163 100 379 100
q145 0 270 -49q127 -50 221 -141l158 165h182zM287 561l-6 -4q27 -104 79 -186l881 921q-77 80 -178 123t-221 43q-168 0 -301 -86q-134 -87 -207 -239q-74 -154 -74 -351q0 -116 27 -221zM1399 997l6 2q-27 106 -80 189l-881 -922q76 -79 179 -123q101 -43 221 -43
q168 0 301 86t207 240q73 152 73 350q0 120 -26 221zM874 1690h-137l260 258h193z" />
    <glyph glyph-name="oslashacute" unicode="&#x1ff;" horiz-adv-x="1234" 
d="M1212 1090l-176 -193q50 -72 74 -162q25 -95 25 -196q0 -169 -64 -297t-182 -199q-116 -70 -271 -70q-98 0 -186 31q-83 29 -153 90l-93 -98h-159l176 186q-48 68 -76 164q-27 92 -27 197q0 165 66 297q65 129 182 200q119 72 270 72q101 0 189 -31q84 -30 151 -90l95 99
h159zM293 276l579 617q-50 53 -114 80q-67 28 -142 28q-119 0 -202 -57q-84 -57 -131 -164q-45 -102 -45 -241q0 -156 55 -263zM940 795l-586 -623q104 -104 258 -104q117 0 203 59q84 57 131 164q47 106 47 244q0 148 -53 260zM649 1239h-127l248 305h184z" />
    <glyph glyph-name="uni0218" unicode="&#x218;" horiz-adv-x="1396" 
d="M399 37l-4 -2q-129 59 -209 170q-79 110 -100 256h145q15 -112 78 -197q59 -80 158 -125q93 -43 213 -43q146 0 250 43q105 44 160 119q55 76 55 178q0 89 -43 144q-44 56 -129 90q-72 29 -240 67l-178 39q-193 43 -307 135q-113 91 -113 256q0 112 72 209q70 94 194 150
q122 55 275 55q157 0 276 -51q124 -53 201 -148t98 -221h-145q-30 148 -148 225q-119 78 -284 78q-116 0 -203 -37q-91 -39 -141 -100q-51 -63 -51 -143q0 -86 38 -135q40 -52 119 -86q81 -35 215 -62l180 -41q170 -39 265 -88q100 -51 147 -129q47 -77 47 -190
q0 -139 -73 -246q-71 -105 -213 -168q-139 -62 -320 -62q-153 0 -285 60zM643 -401v256h152v-267l-97 -163h-98l84 174h-41z" />
    <glyph glyph-name="uni0219" unicode="&#x219;" horiz-adv-x="1052" 
d="M317 16l-12 -14q-93 40 -155 117q-63 79 -78 184h139q24 -118 111 -178q83 -57 200 -57q91 0 158 28q62 26 98 78q35 50 35 107q0 59 -27 100q-26 39 -81 63q-53 23 -152 45l-127 27q-157 35 -240 98q-86 65 -86 185q0 89 56 157q57 69 147 109q88 39 207 39
q105 0 190 -33q90 -35 150 -98q61 -64 82 -160h-139q-15 58 -56 102q-43 46 -98 66q-64 23 -123 23q-66 0 -133 -23q-58 -20 -98 -66q-37 -43 -37 -100q0 -52 31 -88q29 -33 83 -55q51 -21 142 -39l127 -27q173 -38 252 -108q80 -71 80 -197q0 -96 -56 -170
q-57 -76 -153 -115q-100 -41 -222 -41q-119 0 -215 41zM459 -416v256h145v-266l-96 -164h-92l84 174h-41z" />
    <glyph glyph-name="uni021A" unicode="&#x21a;" horiz-adv-x="1284" 
d="M39 1556h1206v-126h-532v-1430h-142v1430h-532v126zM565 -399v256h152v-267l-96 -163h-99l84 174h-41z" />
    <glyph glyph-name="uni021B" unicode="&#x21b;" horiz-adv-x="749" 
d="M707 104v-108h-138q-140 0 -219 70q-80 71 -80 208v5v704h-243v104h243v259h136v-259h301v-104h-301v-704v-5q0 -91 43 -131q42 -39 133 -39h125zM381 -403v256h145v-267l-96 -164h-92l84 175h-41z" />
    <glyph glyph-name="uni022E" unicode="&#x22e;" horiz-adv-x="1691" 
d="M467 78q-168 103 -258 282q-92 182 -92 418t92 418q91 181 258 283q163 100 379 100t379 -100q167 -102 258 -283q92 -182 92 -418t-92 -418q-90 -179 -258 -282q-165 -101 -379 -101t-379 101zM1149 184q133 86 207 240t74 350t-74 350t-207 240t-301 86t-301 -86
t-207 -240t-74 -350t74 -350t207 -240t301 -86t301 86zM922 1688h-152v258h152v-258z" />
    <glyph glyph-name="uni022F" unicode="&#x22f;" horiz-adv-x="1234" 
d="M346 47l-4 -8q-117 70 -182 201q-64 128 -64 297q0 165 66 297q65 129 182 200q119 72 270 72q155 0 271 -70q119 -72 182 -198q66 -132 66 -297q0 -169 -64 -297t-182 -199q-116 -70 -271 -70q-151 0 -270 72zM815 129l-6 -8q84 57 131 164q47 106 47 243q0 142 -45 244
q-47 107 -131 164q-86 59 -203 59q-119 0 -202 -57q-85 -58 -132 -164q-45 -102 -45 -242q0 -135 47 -241q46 -104 134 -164q83 -57 202 -57q117 0 203 59zM680 1280h-145v258h145v-258z" />
    <glyph glyph-name="uni0232" unicode="&#x232;" horiz-adv-x="1349" 
d="M1186 1556h162l-603 -874v-682h-141v682l-602 874h160l512 -739zM1036 1763h-725v115h725v-115z" />
    <glyph glyph-name="uni0233" unicode="&#x233;" horiz-adv-x="1126" 
d="M580 117h-142l-422 973h142zM539 -401h-144l561 1491h140zM891 1343h-670v103h670v-103z" />
    <glyph glyph-name="uni0237" unicode="&#x237;" horiz-adv-x="483" 
d="M-53 -401v102h49q89 0 133 41q43 40 43 135v1210h135v-1210q0 -138 -80 -209q-78 -69 -219 -69h-61z" />
    <glyph glyph-name="uni0259" unicode="&#x259;" horiz-adv-x="1208" 
d="M864 1040l-4 -2q116 -70 180 -198t64 -297t-64 -297q-64 -129 -178 -199q-116 -72 -264 -72q-143 0 -258 68q-114 67 -178 193q-64 125 -64 288q0 40 2 54h871q-6 133 -56 233q-49 98 -131 147q-83 50 -190 50q-259 0 -336 -240h-139q47 170 170 256q124 86 305 86
q154 0 270 -70zM778 123h-2q80 47 129 135q51 91 60 213h-734q6 -111 54 -203q46 -87 127 -141q77 -51 184 -51q102 0 182 47z" />
    <glyph glyph-name="uni0272" unicode="&#x272;" horiz-adv-x="1206" 
d="M862 1057h-8q87 -55 137 -154q49 -98 49 -225v-4v-676h-135v653v4q0 117 -37 195q-37 79 -104 119q-68 41 -156 41q-90 0 -155 -39q-68 -41 -105 -119t-37 -195v-655h-135v1090h135v-226q40 110 129 178t219 68q115 0 203 -55zM-61 -403v102h49q89 0 133 41q43 40 43 135
v121h135v-121q0 -138 -80 -209q-78 -69 -219 -69h-61z" />
    <glyph glyph-name="circumflex" unicode="&#x2c6;" horiz-adv-x="843" 
d="M512 1556l272 -305h-127l-235 240l-238 -240h-127l273 305h182z" />
    <glyph glyph-name="caron" unicode="&#x2c7;" horiz-adv-x="843" 
d="M422 1317l235 239h127l-272 -305h-182l-273 305h127z" />
    <glyph glyph-name="breve" unicode="&#x2d8;" horiz-adv-x="710" 
d="M197 1286h8q-67 40 -105 111q-37 70 -37 157h111q0 -102 49 -157q50 -56 139 -56q86 0 136 56q49 55 49 157h110q0 -89 -36 -157q-37 -71 -105 -111q-68 -41 -160 -41q-91 0 -159 41z" />
    <glyph glyph-name="dotaccent" unicode="&#x2d9;" horiz-adv-x="260" 
d="M203 1298h-146v258h146v-258z" />
    <glyph glyph-name="ring" unicode="&#x2da;" horiz-adv-x="524" 
d="M160 1272l-4 -4q-48 28 -74 73q-27 47 -27 105q0 52 29 102q27 47 74 74q46 27 102 27t102 -27q47 -27 74 -74q29 -50 29 -100q0 -58 -27 -105q-27 -46 -73 -73t-103 -27q-52 0 -102 29zM336 1364h-4q35 35 35 80q0 47 -33 80q-32 32 -80 32t-80 -32q-33 -33 -33 -80
q0 -45 35 -80t80 -35t80 35z" />
    <glyph glyph-name="ogonek" unicode="&#x2db;" horiz-adv-x="413" 
d="M303 -406v3q-110 0 -178 47t-68 135q0 71 43 123q41 49 121 98h135q-95 -48 -135 -94q-43 -49 -43 -107q0 -53 37 -80q39 -28 98 -28h43v-97h-53z" />
    <glyph glyph-name="tilde" unicode="&#x2dc;" horiz-adv-x="739" 
d="M57 1307q9 84 60 135q49 49 114 49q39 0 76 -12q35 -11 74 -33q65 -35 117 -35q47 0 80 23q31 22 43 61h55q-9 -84 -60 -135q-49 -49 -114 -49q-39 0 -76 12q-35 11 -74 33q-65 35 -116 35q-47 0 -80 -23q-31 -22 -43 -61h-56z" />
    <glyph glyph-name="hungarumlaut" unicode="&#x2dd;" horiz-adv-x="892" 
d="M184 1251h-127l260 305h183zM522 1251h-129l262 305h181z" />
    <glyph glyph-name="gravecomb" unicode="&#x300;" horiz-adv-x="0" 
d="M-57 1251h-127l-305 305h184z" />
    <glyph glyph-name="acutecomb" unicode="&#x301;" horiz-adv-x="0" 
d="M-362 1251h-127l247 305h185z" />
    <glyph glyph-name="uni0302" unicode="&#x302;" horiz-adv-x="0" 
d="M-332 1556l273 -305h-127l-236 240l-237 -240h-127l272 305h182z" />
    <glyph glyph-name="tildecomb" unicode="&#x303;" horiz-adv-x="0" 
d="M-682 1307q9 85 59 135q49 49 115 49q38 0 76 -12q35 -11 74 -33q65 -35 116 -35q47 0 80 23q31 22 43 61h56q-9 -84 -60 -135q-49 -49 -115 -49q-38 0 -75 12q-35 11 -74 33q-65 35 -117 35q-47 0 -80 -23q-31 -22 -43 -61h-55z" />
    <glyph glyph-name="uni0304" unicode="&#x304;" horiz-adv-x="0" 
d="M-57 1343h-670v103h670v-103z" />
    <glyph glyph-name="uni0306" unicode="&#x306;" horiz-adv-x="0" 
d="M-514 1286h8q-66 40 -104 111q-37 70 -37 157h110q0 -101 50 -157t139 -56q85 0 135 56q49 55 49 157h111q0 -87 -37 -157q-38 -71 -105 -111q-68 -41 -159 -41q-92 0 -160 41z" />
    <glyph glyph-name="uni0307" unicode="&#x307;" horiz-adv-x="0" 
d="M-57 1298h-146v258h146v-258z" />
    <glyph glyph-name="uni0308" unicode="&#x308;" horiz-adv-x="0" 
d="M-440 1298h-146v258h146v-258zM-57 1298h-146v258h146v-258z" />
    <glyph glyph-name="uni030A" unicode="&#x30a;" horiz-adv-x="0" 
d="M-365 1272l-4 -4q-46 27 -73 73q-27 47 -27 105q0 52 29 102q28 48 73 74q47 27 103 27t102 -27q47 -27 74 -74q29 -50 29 -100q0 -58 -27 -105q-26 -45 -74 -73q-46 -27 -102 -27q-53 0 -103 29zM-188 1364h-5q35 35 35 80q0 48 -32 80t-80 32t-80 -32q-33 -33 -33 -80
q0 -45 35 -80t80 -35t80 35z" />
    <glyph glyph-name="uni030B" unicode="&#x30b;" horiz-adv-x="0" 
d="M-709 1251h-127l261 305h182zM-371 1251h-129l262 305h181z" />
    <glyph glyph-name="uni030C" unicode="&#x30c;" horiz-adv-x="0" 
d="M-422 1317l236 239h127l-273 -305h-182l-272 305h127z" />
    <glyph glyph-name="uni0312" unicode="&#x312;" horiz-adv-x="0" 
d="M-106 1729h92l-82 -175h39v-256h-146v267z" />
    <glyph glyph-name="dotbelowcomb" unicode="&#x323;" horiz-adv-x="0" 
d="M-57 -401h-146v258h146v-258z" />
    <glyph glyph-name="uni0326" unicode="&#x326;" horiz-adv-x="0" 
d="M-203 -399v256h146v-267l-97 -163h-92l84 174h-41z" />
    <glyph glyph-name="uni0327" unicode="&#x327;" horiz-adv-x="0" 
d="M-219 -82l-4 -4q71 -6 117 -49q45 -42 45 -111q0 -70 -52 -116t-137 -46h-88v82h78q48 0 78 23q28 22 28 65q0 39 -28 64q-27 24 -68 24h-55v150h86v-82z" />
    <glyph glyph-name="uni0328" unicode="&#x328;" horiz-adv-x="0" 
d="M-111 -406v3q-110 0 -178 47q-67 46 -67 135q0 71 43 123q42 50 120 98h136q-96 -49 -136 -94q-43 -49 -43 -107q0 -53 37 -80q39 -28 99 -28h43v-97h-54z" />
    <glyph glyph-name="uni0335" unicode="&#x335;" horiz-adv-x="0" 
d="M-702 1278h-486v104h486v-104z" />
    <glyph glyph-name="uni0336" unicode="&#x336;" horiz-adv-x="0" 
d="M-57 1130h-1610v123h1610v-123z" />
    <glyph glyph-name="uni0337" unicode="&#x337;" horiz-adv-x="0" 
d="M-57 879l-471 -308v127l471 308v-127z" />
    <glyph glyph-name="uni0338" unicode="&#x338;" horiz-adv-x="0" 
d="M-1083 0h-160l1026 1090h160z" />
    <glyph glyph-name="uni0394" unicode="&#x394;" horiz-adv-x="1521" 
d="M766 1556h147l596 -1556h-1499l596 1556h148l-545 -1429h1102z" />
    <glyph glyph-name="uni03A9" unicode="&#x3a9;" horiz-adv-x="1724" 
d="M1540 588l-8 -2q-58 -125 -172 -236q-115 -112 -295 -225h524v-127h-622v172q243 166 360 330t117 360q0 194 -80 330q-80 135 -215 203q-134 67 -295 67t-295 -67q-135 -68 -215 -203q-80 -136 -80 -328q0 -196 117 -360t360 -330v-172h-622v127h524q-180 113 -295 225
q-114 111 -172 236q-57 123 -57 276q0 227 100 387q103 165 270 246q173 84 369 84t369 -84q167 -81 270 -246q100 -160 100 -387q0 -153 -57 -276z" />
    <glyph glyph-name="uni03BC" unicode="&#x3bc;" horiz-adv-x="1271" 
d="M1233 104l-6 -114h-97q-106 0 -161 43t-70 129q-4 46 -4 55q-41 -109 -129 -176q-89 -68 -215 -68q-71 0 -135 27t-111 80v-483h-135v1490h135v-655v-4q0 -114 37 -192q37 -79 104 -119q65 -39 156 -39q88 0 156 41q65 39 104 121q37 78 37 194v656h135v-867v-4
q0 -58 31 -86q32 -29 92 -29h76z" />
    <glyph glyph-name="pi" unicode="&#x3c0;" horiz-adv-x="1304" 
d="M1012 985l-2 -709v-4q0 -91 43 -131q42 -39 133 -39h37v-104h-49q-139 0 -218 70t-79 208v5v704h-494v-985h-135v985h-215v105h1192v-105h-213z" />
    <glyph glyph-name="uni0E3F" unicode="&#xe3f;" horiz-adv-x="1386" 
d="M1204 205h4q-62 -92 -178 -144t-278 -61v-270h-129v268h-402v1556h402v258h129v-260q150 -9 254 -61q105 -53 157 -137q54 -88 54 -193q0 -108 -52 -184q-51 -75 -141 -119q-87 -43 -199 -55q130 -6 228 -51q102 -47 157 -131q56 -86 56 -199q0 -125 -62 -217zM360 858
h265v582h-265v-582zM989 1346v-3q-87 78 -235 93v-578q149 15 235 92t86 199q0 120 -86 197zM360 739v-628h265v628h-265zM754 113l-2 -2q181 15 276 98q96 84 96 217q0 136 -94 215q-96 81 -276 96v-624z" />
    <glyph glyph-name="Wgrave" unicode="&#x1e80;" horiz-adv-x="2299" 
d="M623 0h-150l-434 1556h149zM782 0h-145l360 1556h146zM1665 0h-147l-361 1556h146zM1827 0h-150l437 1556h147zM1219 1690h-136l-317 258h195z" />
    <glyph glyph-name="wgrave" unicode="&#x1e81;" horiz-adv-x="1806" 
d="M494 0h-134l-315 1090h133zM639 0h-131l258 1090h131zM1298 0h-131l-258 1090h131zM1446 0h-133l315 1090h133zM958 1251h-127l-305 305h185z" />
    <glyph glyph-name="Wacute" unicode="&#x1e82;" horiz-adv-x="2299" 
d="M623 0h-150l-434 1556h149zM782 0h-145l360 1556h146zM1665 0h-147l-361 1556h146zM1827 0h-150l437 1556h147zM1217 1690h-138l260 258h193z" />
    <glyph glyph-name="wacute" unicode="&#x1e83;" horiz-adv-x="1806" 
d="M494 0h-134l-315 1090h133zM639 0h-131l258 1090h131zM1298 0h-131l-258 1090h131zM1446 0h-133l315 1090h133zM975 1251h-127l248 305h184z" />
    <glyph glyph-name="Wdieresis" unicode="&#x1e84;" horiz-adv-x="2299" 
d="M623 0h-150l-434 1556h149zM782 0h-145l360 1556h146zM1665 0h-147l-361 1556h146zM1827 0h-150l437 1556h147zM1036 1690h-151v258h151v-258zM1415 1690h-151v258h151v-258z" />
    <glyph glyph-name="wdieresis" unicode="&#x1e85;" horiz-adv-x="1806" 
d="M494 0h-134l-315 1090h133zM639 0h-131l258 1090h131zM1298 0h-131l-258 1090h131zM1446 0h-133l315 1090h133zM784 1298h-145v258h145v-258zM1167 1298h-145v258h145v-258z" />
    <glyph glyph-name="uni1E9E" unicode="&#x1e9e;" horiz-adv-x="1556" 
d="M901 956l-2 -8q161 -6 289 -61q129 -56 203 -164q73 -107 73 -258q0 -145 -67 -258q-66 -112 -187 -174t-276 -62q-76 0 -143 13q-58 11 -134 34v125q71 -27 125 -37q62 -12 144 -12q121 0 209 49q89 50 139 136q49 85 49 192q0 123 -68 209q-69 88 -180 127
q-115 41 -258 41h-55v141l385 441h-795v-1430h-141v1556h1075v-159z" />
    <glyph glyph-name="uni1EA0" unicode="&#x1ea0;" horiz-adv-x="1521" 
d="M1509 0h-149l-191 502h-817l-190 -502h-152l596 1556h148l-353 -927h719l-354 927h147zM836 -401h-152v258h152v-258z" />
    <glyph glyph-name="uni1EA1" unicode="&#x1ea1;" horiz-adv-x="1173" 
d="M825 1055l-2 -2q97 -57 144 -150q45 -89 45 -194v-4v-707h-135v240q-60 -128 -150 -195q-92 -68 -248 -68q-107 0 -190 45q-85 46 -135 123t-50 176q0 115 68 183q67 67 166 94q105 29 231 43l303 33v22v4q0 84 -30 154q-29 68 -99 113q-67 43 -168 43q-86 0 -153 -31
q-60 -28 -100 -84q-37 -52 -43 -117h-140q12 96 68 174q55 76 149 119q93 43 222 43q151 0 247 -57zM713 121l-2 -4q79 53 120 141q41 90 41 201v114l-239 -26q-125 -15 -205 -33q-77 -18 -131 -65q-51 -45 -51 -130q0 -78 37 -133q38 -57 98 -86q62 -30 139 -30
q116 0 193 51zM662 -408h-146v258h146v-258z" />
    <glyph glyph-name="uni1EB8" unicode="&#x1eb8;" horiz-adv-x="1329" 
d="M352 741v-614h858v-127h-999v1556h981v-126h-840v-562h826v-127h-826zM786 -401h-151v258h151v-258z" />
    <glyph glyph-name="uni1EB9" unicode="&#x1eb9;" horiz-adv-x="1208" 
d="M1110 530l-2 -4q-2 -8 -2 -20h-870q6 -136 55 -234t131 -147t190 -49q133 0 215 61q84 62 121 176h139q-47 -171 -169 -256q-124 -86 -304 -86q-151 0 -270 72q-114 69 -180 201q-64 128 -64 297t64 297q66 131 180 200q119 72 266 72q143 0 258 -68q116 -69 179 -192
q65 -127 65 -289q0 -23 -2 -31zM424 956l-2 -2q-80 -46 -129 -135q-48 -85 -57 -211h733q-6 111 -54 203q-46 87 -127 141q-79 52 -182 52q-100 0 -182 -48zM682 -410h-145v258h145v-258z" />
    <glyph glyph-name="uni1EBC" unicode="&#x1ebc;" horiz-adv-x="1329" 
d="M352 741v-614h858v-127h-999v1556h981v-126h-840v-562h826v-127h-826zM375 1729l4 -3q9 88 61 134q53 47 123 47q39 0 80 -13q30 -10 76 -30q31 -17 61 -25q31 -8 62 -8q46 0 80 18q33 17 49 60h59q-6 -59 -33 -99t-67 -61q-39 -20 -86 -20q-42 0 -80 12q-22 7 -76 31
q-65 32 -125 32q-45 0 -80 -18t-49 -57h-59z" />
    <glyph glyph-name="uni1EBD" unicode="&#x1ebd;" horiz-adv-x="1208" 
d="M1110 530l-2 -4q-2 -8 -2 -20h-870q6 -136 55 -234t131 -147t190 -49q133 0 215 61q84 62 121 176h139q-47 -171 -169 -256q-124 -86 -304 -86q-151 0 -270 72q-114 69 -180 201q-64 128 -64 297t64 297q66 131 180 200q119 72 266 72q143 0 258 -68q116 -69 179 -192
q65 -127 65 -289q0 -23 -2 -31zM424 956l-2 -2q-80 -46 -129 -135q-48 -85 -57 -211h733q-6 111 -54 203q-46 87 -127 141q-79 52 -182 52q-100 0 -182 -48zM291 1298q9 86 59 136q49 49 115 49q35 0 76 -13q37 -12 73 -32q65 -35 117 -35q49 0 80 22t43 62h55
q-9 -85 -59 -135q-49 -49 -115 -49q-39 0 -76 12q-33 11 -73 33q-64 34 -117 34q-49 0 -80 -22t-43 -62h-55z" />
    <glyph glyph-name="uni1ECA" unicode="&#x1eca;" horiz-adv-x="563" 
d="M352 0h-141v1556h141v-1556zM358 -401h-151v258h151v-258z" />
    <glyph glyph-name="uni1ECB" unicode="&#x1ecb;" horiz-adv-x="483" 
d="M309 0h-135v1090h135v-1090zM313 1298h-145v258h145v-258zM313 -401h-145v258h145v-258z" />
    <glyph glyph-name="uni1ECC" unicode="&#x1ecc;" horiz-adv-x="1691" 
d="M467 78q-168 103 -258 282q-92 182 -92 418t92 418q91 181 258 283q163 100 379 100t379 -100q167 -102 258 -283q92 -182 92 -418t-92 -418q-90 -179 -258 -282q-165 -101 -379 -101t-379 101zM1149 184q133 86 207 240t74 350t-74 350t-207 240t-301 86t-301 -86
t-207 -240t-74 -350t74 -350t207 -240t301 -86t301 86zM922 -403h-152v258h152v-258z" />
    <glyph glyph-name="uni1ECD" unicode="&#x1ecd;" horiz-adv-x="1234" 
d="M346 47l-4 -8q-117 70 -182 201q-64 128 -64 297q0 165 66 297q65 129 182 200q119 72 270 72q155 0 271 -70q119 -72 182 -198q66 -132 66 -297q0 -169 -64 -297t-182 -199q-116 -70 -271 -70q-151 0 -270 72zM815 129l-6 -8q84 57 131 164q47 106 47 243q0 142 -45 244
q-47 107 -131 164q-86 59 -203 59q-119 0 -202 -57q-85 -58 -132 -164q-45 -102 -45 -242q0 -135 47 -241q46 -104 134 -164q83 -57 202 -57q117 0 203 59zM680 -420h-145v258h145v-258z" />
    <glyph glyph-name="uni1EE4" unicode="&#x1ee4;" horiz-adv-x="1587" 
d="M195 621l-2 6v932h139v-941v-4q0 -256 117 -385t346 -129q228 0 342 129t114 387v940h142v-931q0 -648 -598 -648q-600 0 -600 644zM866 -399h-151v258h151v-258z" />
    <glyph glyph-name="uni1EE5" unicode="&#x1ee5;" horiz-adv-x="1196" 
d="M887 1090l135 -9v-1089h-135v223q-44 -110 -131 -176q-89 -68 -215 -68q-113 0 -199 56q-87 56 -135 153q-49 98 -49 226v4v675h135v-653v-4q0 -114 37 -192q37 -79 104 -119q65 -39 156 -39q87 0 155 41q67 40 105 121q37 78 37 194v656zM672 -410h-146v258h146v-258z
" />
    <glyph glyph-name="Ygrave" unicode="&#x1ef2;" horiz-adv-x="1349" 
d="M1186 1556h162l-603 -874v-682h-141v682l-602 874h160l512 -739zM786 1690h-135l-317 258h194z" />
    <glyph glyph-name="ygrave" unicode="&#x1ef3;" horiz-adv-x="1126" 
d="M580 117h-142l-422 973h142zM539 -401h-144l561 1491h140zM647 1251h-127l-305 305h184z" />
    <glyph glyph-name="uni1EF8" unicode="&#x1ef8;" horiz-adv-x="1349" 
d="M1186 1556h162l-603 -874v-682h-141v682l-602 874h160l512 -739zM346 1729l4 -3q9 87 62 134t123 47q38 0 79 -13q30 -10 76 -30q30 -17 62 -25q31 -8 61 -8q45 0 80 18q33 17 49 60h59q-6 -60 -32 -99t-68 -61q-39 -20 -86 -20q-43 0 -80 12q-22 7 -76 31
q-65 32 -124 32q-45 0 -80 -18t-49 -57h-60z" />
    <glyph glyph-name="uni1EF9" unicode="&#x1ef9;" horiz-adv-x="1126" 
d="M580 117h-142l-422 973h142zM539 -401h-144l561 1491h140zM244 1307q9 85 59 135q49 49 115 49q39 0 76 -12q33 -11 73 -33q65 -35 117 -35q47 0 80 23q31 22 43 61h55q-9 -85 -59 -135q-49 -49 -115 -49q-38 0 -76 12q-33 11 -73 33q-65 35 -117 35q-47 0 -80 -23
q-31 -22 -43 -61h-55z" />
    <glyph glyph-name="uni2009" unicode="&#x2009;" horiz-adv-x="256" 
 />
    <glyph glyph-name="uni2011" unicode="&#x2011;" horiz-adv-x="886" 
d="M760 520h-635v113h635v-113z" />
    <glyph glyph-name="endash" unicode="&#x2013;" horiz-adv-x="1118" 
d="M991 520h-866v113h866v-113z" />
    <glyph glyph-name="emdash" unicode="&#x2014;" horiz-adv-x="1716" 
d="M1589 520h-1464v113h1464v-113z" />
    <glyph glyph-name="quoteleft" unicode="&#x2018;" horiz-adv-x="456" 
d="M266 1556h101l-123 -264h47v-239h-160v258z" />
    <glyph glyph-name="quoteright" unicode="&#x2019;" horiz-adv-x="454" 
d="M184 1317v239h160v-258l-135 -245h-98l120 264h-47z" />
    <glyph glyph-name="quotesinglbase" unicode="&#x201a;" horiz-adv-x="491" 
d="M166 0v240h160v-258l-136 -246h-98l121 264h-47z" />
    <glyph glyph-name="quotedblleft" unicode="&#x201c;" horiz-adv-x="786" 
d="M113 1311l135 245h100l-121 -264h45v-239h-159v258zM578 1556h100l-123 -264h47v-239h-160v258z" />
    <glyph glyph-name="quotedblright" unicode="&#x201d;" horiz-adv-x="784" 
d="M530 1317v239h160v-258l-135 -245h-98l121 264h-48zM201 1317v239h159v-258l-135 -245h-98l121 264h-47z" />
    <glyph glyph-name="quotedblbase" unicode="&#x201e;" horiz-adv-x="821" 
d="M496 0v240h159v-258l-135 -246h-98l121 264h-47zM166 0v240h160v-258l-136 -246h-98l121 264h-47z" />
    <glyph glyph-name="dagger" unicode="&#x2020;" horiz-adv-x="1224" 
d="M680 1104h420v-113h-420v-991h-135v991h-420v113h420v452h135v-452z" />
    <glyph glyph-name="daggerdbl" unicode="&#x2021;" horiz-adv-x="1224" 
d="M1100 1104v-113h-420v-354h420v-111h-420v-526h-135v526h-420v111h420v354h-420v113h420v452h135v-452h420z" />
    <glyph glyph-name="bullet" unicode="&#x2022;" horiz-adv-x="790" 
d="M293 408l-2 -5q-47 27 -74 74t-27 103t27 102q27 47 74 74q48 28 102 28q58 0 103 -26t73 -74q29 -50 29 -102q0 -56 -27 -103q-27 -46 -73 -73t-103 -27q-52 0 -102 29z" />
    <glyph glyph-name="ellipsis" unicode="&#x2026;" horiz-adv-x="1476" 
d="M326 0h-160v240h160v-240zM817 0h-160v240h160v-240zM1311 0h-160v240h160v-240z" />
    <glyph glyph-name="perthousand" unicode="&#x2030;" horiz-adv-x="2412" 
d="M657 813l-4 -2q-88 -113 -247 -113q-106 0 -179 52q-75 54 -114 149t-39 238q0 137 41 237t114 152q71 51 179 51q106 0 180 -51q77 -53 117 -150q40 -98 40 -237q0 -213 -88 -326zM422 -4l872 1556h136l-873 -1556h-135zM565 874v-4q56 89 56 260q0 174 -56 263
q-56 90 -159 90q-102 0 -160 -88t-58 -260q0 -173 58 -261t160 -88q104 0 159 88zM2175 797l-6 -6q77 -53 117 -150q41 -100 41 -238q0 -210 -89 -325q-88 -113 -247 -113q-92 0 -160 45q-69 45 -113 129q-48 -85 -116 -127q-70 -43 -160 -43q-107 0 -178 51
q-76 54 -115 150q-39 95 -39 238q0 137 41 237q40 99 115 152q71 51 178 51q92 0 160 -45q69 -45 116 -129q43 81 115 129q68 45 160 45q106 0 180 -51zM1597 141v-4q56 89 56 260q0 173 -56 262q-57 91 -159 91q-105 0 -160 -88t-55 -261q0 -172 55 -260t160 -88
q104 0 159 88zM2148 137v-4q56 89 56 260q0 173 -56 262q-56 90 -159 90q-102 0 -160 -88q-57 -86 -57 -260t57 -260q58 -88 160 -88q104 0 159 88z" />
    <glyph glyph-name="minute" unicode="&#x2032;" horiz-adv-x="425" 
d="M225 1036h-102l70 520h145z" />
    <glyph glyph-name="second" unicode="&#x2033;" horiz-adv-x="698" 
d="M225 1036h-102l70 520h145zM498 1036h-103l70 520h145z" />
    <glyph glyph-name="guilsinglleft" unicode="&#x2039;" horiz-adv-x="733" 
d="M471 1010h160l-367 -449l367 -471h-160l-369 471z" />
    <glyph glyph-name="guilsinglright" unicode="&#x203a;" horiz-adv-x="733" 
d="M102 1010h160l369 -449l-369 -471h-160l369 469z" />
    <glyph glyph-name="uni2042" unicode="&#x2042;" horiz-adv-x="1763" 
d="M1223 1356l28 -92l-290 -97l188 -256l-78 -55l-190 256l-191 -256l-78 55l191 256l-293 97l29 92l295 -96v296h96v-294zM741 512l29 -92l-291 -96l189 -256l-78 -56l-191 256l-190 -256l-78 56l191 256l-293 96l28 92l295 -96v297h97v-295zM1704 512l29 -92l-291 -96
l188 -256l-78 -56l-190 256l-191 -256l-77 56l190 256l-293 96l29 92l295 -96v297h96v-295z" />
    <glyph glyph-name="fraction" unicode="&#x2044;" horiz-adv-x="315" 
d="M-281 0h-137l1012 1556h137z" />
    <glyph glyph-name="uni2070" unicode="&#x2070;" horiz-adv-x="737" 
d="M139 1096q-82 104 -82 299t82 299t230 104q147 0 229 -104t82 -299t-82 -299q-82 -105 -229 -105q-148 0 -230 105zM510 1161q49 79 49 234q0 154 -49 233q-50 80 -141 80q-92 0 -142 -80q-49 -79 -49 -233q0 -155 49 -234q50 -80 142 -80q91 0 141 80z" />
    <glyph glyph-name="uni2074" unicode="&#x2074;" horiz-adv-x="706" 
d="M553 1321h117v-92h-117v-223h-115v223h-409v121l290 434h119l-303 -463h303v463h115v-463z" />
    <glyph glyph-name="uni2075" unicode="&#x2075;" horiz-adv-x="712" 
d="M537 1503l-11 -6q59 -35 92 -94t33 -143q0 -85 -37 -146q-38 -62 -104 -96q-65 -33 -156 -33q-76 0 -141 27q-62 26 -107 80q-42 51 -51 118h119q9 -58 59 -96q49 -37 121 -37q50 0 92 25q43 26 66 67q25 45 25 99q0 81 -50 131q-49 49 -129 49q-62 0 -110 -31
q-47 -30 -68 -80l-114 11l40 438h506v-92h-399l-27 -285q26 51 84 90q55 37 133 37t134 -33z" />
    <glyph glyph-name="uni2076" unicode="&#x2076;" horiz-adv-x="733" 
d="M549 1489h-10q59 -33 94 -92q33 -56 33 -140q0 -78 -39 -137t-107 -94q-65 -33 -153 -33q-145 0 -228 103q-84 104 -84 301q0 131 41 221q40 88 111 135q68 45 164 45q115 0 184 -57q72 -60 96 -148h-119q-19 56 -57 84q-42 31 -104 31q-70 0 -117 -47t-68 -127
q-21 -79 -12 -180q21 74 86 121t148 47q82 0 141 -33zM459 1104h4q45 21 65 61q23 44 23 90q0 78 -49 127q-50 50 -135 50q-50 0 -95 -25q-43 -24 -67 -61q-25 -39 -25 -78q0 -42 23 -90q21 -43 61 -70t98 -27q49 0 97 23z" />
    <glyph glyph-name="uni2077" unicode="&#x2077;" horiz-adv-x="567" 
d="M27 1692v92h518v-121l-336 -657h-141l362 686h-403z" />
    <glyph glyph-name="uni2078" unicode="&#x2078;" horiz-adv-x="733" 
d="M614 1358l-12 -8q62 -47 62 -140q0 -67 -39 -118q-41 -53 -111 -80q-71 -27 -160 -27q-83 0 -159 29q-70 27 -111 80q-39 51 -39 120q0 91 61 140q60 48 140 61q-70 15 -123 62q-51 45 -51 122q0 55 37 101q39 49 102 72q64 24 151 24q84 0 148 -24q65 -24 102 -70
t37 -100q0 -78 -51 -123q-53 -47 -123 -62q77 -12 139 -59zM225 1485v-2q44 -35 127 -35q81 0 125 35q43 34 43 90q0 54 -45 90q-46 37 -123 37q-79 0 -125 -37q-45 -36 -45 -88q0 -56 43 -90zM489 1110h-4q56 41 56 111q0 66 -56 104q-55 37 -135 37q-82 0 -137 -37
t-55 -104q0 -71 55 -111q53 -39 139 -39q84 0 137 39z" />
    <glyph glyph-name="uni2079" unicode="&#x2079;" horiz-adv-x="733" 
d="M588 1696l2 -6q84 -104 84 -301q0 -137 -39 -222q-41 -89 -111 -135q-68 -45 -162 -45q-115 0 -184 57q-72 60 -96 148h119q19 -54 59 -84q42 -31 105 -31q69 0 116 47t68 127q21 79 12 181q-21 -74 -86 -121t-147 -47q-85 0 -142 32q-59 33 -94 93q-33 56 -33 139
q0 80 39 139q38 58 109 94q68 35 153 35q147 0 228 -100zM455 1374l-13 -2q44 24 68 62q25 39 25 77q0 47 -21 91q-20 42 -61 69t-99 27q-46 0 -94 -23q-42 -20 -63 -61q-23 -44 -23 -90q0 -76 49 -125t135 -49q54 0 97 24z" />
    <glyph glyph-name="uni207A" unicode="&#x207a;" horiz-adv-x="671" 
d="M381 1425h229v-86h-229v-237h-90v237h-230v86h230v228h90v-228z" />
    <glyph glyph-name="uni207B" unicode="&#x207b;" horiz-adv-x="651" 
d="M571 1339h-491v86h491v-86z" />
    <glyph glyph-name="uni207C" unicode="&#x207c;" horiz-adv-x="669" 
d="M588 1446h-506v86h506v-86zM588 1233h-506v86h506v-86z" />
    <glyph glyph-name="uni207D" unicode="&#x207d;" horiz-adv-x="423" 
d="M250 901l-2 -4q-164 235 -164 494q0 144 45 260q47 121 119 227h119q-74 -105 -119 -225q-43 -116 -43 -260q0 -260 164 -492h-119z" />
    <glyph glyph-name="uni207E" unicode="&#x207e;" horiz-adv-x="423" 
d="M55 901v2q166 233 166 494q0 145 -45 258q-46 117 -123 225h119q76 -108 123 -225q45 -113 45 -260q0 -258 -166 -494h-119z" />
    <glyph glyph-name="uni2080" unicode="&#x2080;" horiz-adv-x="737" 
d="M139 -143q-82 104 -82 299t82 299t230 104q147 0 229 -104t82 -299t-82 -299q-82 -105 -229 -105q-148 0 -230 105zM510 -78q49 79 49 234q0 154 -49 233q-50 80 -141 80q-92 0 -142 -80q-49 -79 -49 -233q0 -155 49 -234q50 -80 142 -80q91 0 141 80z" />
    <glyph glyph-name="uni2081" unicode="&#x2081;" horiz-adv-x="413" 
d="M211 545l92 2v-778h-117v577h-168v92h60q59 0 90 17q30 16 41 55z" />
    <glyph glyph-name="uni2082" unicode="&#x2082;" horiz-adv-x="684" 
d="M188 -141l451 -2v-93h-586v121l340 283q56 50 82 86q27 38 27 84q0 55 -43 92t-117 37t-117 -37t-49 -100h-119q3 66 41 119q37 52 99 79q66 29 145 29q81 0 145 -31q62 -30 97 -80q34 -49 34 -106q0 -72 -34 -127q-35 -56 -109 -115z" />
    <glyph glyph-name="uni2083" unicode="&#x2083;" horiz-adv-x="696" 
d="M575 119h-8q68 -47 68 -135q0 -110 -86 -172t-223 -62q-125 0 -203 60q-76 58 -88 159h119q9 -61 53 -96t121 -35q80 0 133 39q55 40 55 111q0 70 -61 104q-62 35 -144 35h-43v92h43q46 0 92 17q38 14 64 43q25 28 25 61q0 34 -21 61q-23 29 -57 43q-42 17 -84 17
q-65 0 -107 -33q-43 -34 -49 -86h-119q3 59 41 109q36 47 99 75q66 29 137 29q74 0 141 -25q66 -25 102 -69q37 -46 37 -105q0 -82 -55 -125t-137 -55q90 -12 155 -57z" />
    <glyph glyph-name="uni2084" unicode="&#x2084;" horiz-adv-x="706" 
d="M553 82h117v-92h-117v-223h-115v223h-409v121l290 434h119l-303 -463h303v463h115v-463z" />
    <glyph glyph-name="uni2085" unicode="&#x2085;" horiz-adv-x="712" 
d="M537 264l-11 -6q59 -35 92 -94t33 -144q0 -84 -37 -145q-38 -62 -104 -96q-65 -33 -156 -33q-76 0 -141 27q-62 26 -107 80q-42 51 -51 118h119q9 -58 59 -96q49 -37 121 -37q50 0 92 25q43 26 66 67q25 45 25 99q0 81 -50 131q-49 49 -129 49q-62 0 -110 -31
q-47 -30 -68 -80l-114 11l40 438h506v-92h-399l-27 -285q26 51 84 90q55 37 133 37t134 -33z" />
    <glyph glyph-name="uni2086" unicode="&#x2086;" horiz-adv-x="733" 
d="M549 250h-10q59 -33 94 -92q33 -56 33 -140q0 -78 -39 -137t-107 -94q-65 -33 -153 -33q-145 0 -228 103q-84 104 -84 301q0 131 41 221q40 89 111 135q68 45 164 45q115 0 184 -57q72 -60 96 -148h-119q-19 56 -57 84q-42 31 -104 31q-70 0 -117 -47t-68 -127
q-21 -79 -12 -180q21 74 86 121t148 47q82 0 141 -33zM459 -135h4q45 21 65 61q23 44 23 90q0 78 -49 127q-50 50 -135 50q-50 0 -95 -25q-42 -23 -67 -62t-25 -77q0 -42 23 -90q21 -43 61 -70t98 -27q49 0 97 23z" />
    <glyph glyph-name="uni2087" unicode="&#x2087;" horiz-adv-x="567" 
d="M27 453v92h518v-121l-336 -657h-141l362 686h-403z" />
    <glyph glyph-name="uni2088" unicode="&#x2088;" horiz-adv-x="733" 
d="M614 119l-12 -8q62 -47 62 -140q0 -67 -39 -118q-41 -53 -111 -80q-71 -27 -160 -27q-83 0 -159 29q-70 27 -111 80q-39 51 -39 120q0 91 61 140q60 48 140 61q-70 15 -123 62q-51 45 -51 122q0 55 37 101q38 47 102 71q67 25 151 25q81 0 148 -25q66 -25 102 -69
q37 -46 37 -101q0 -77 -51 -122q-53 -47 -123 -62q77 -12 139 -59zM225 246v-2q44 -35 127 -35q81 0 125 35q43 34 43 90q0 54 -45 90q-46 37 -123 37q-79 0 -125 -37q-45 -36 -45 -88q0 -56 43 -90zM489 -129h-4q56 41 56 111q0 66 -56 104q-55 37 -135 37q-82 0 -137 -37
t-55 -104q0 -71 55 -111q53 -39 139 -39q84 0 137 39z" />
    <glyph glyph-name="uni2089" unicode="&#x2089;" horiz-adv-x="733" 
d="M588 457l2 -6q84 -104 84 -301q0 -137 -39 -222q-41 -88 -111 -135q-68 -45 -162 -45q-115 0 -184 57q-72 60 -96 148h119q19 -54 59 -84q42 -31 105 -31q69 0 116 47t68 127q21 79 12 181q-21 -74 -86 -121t-147 -47q-85 0 -142 32q-59 33 -94 93q-33 56 -33 139
q0 80 39 139q38 58 109 94q68 35 153 35q147 0 228 -100zM455 135l-13 -2q44 24 68 62q25 39 25 77q0 46 -21 90q-21 43 -61 70q-41 27 -99 27q-46 0 -94 -23q-42 -20 -63 -61q-23 -44 -23 -90q0 -76 49 -125t135 -49q54 0 97 24z" />
    <glyph glyph-name="uni208A" unicode="&#x208a;" horiz-adv-x="671" 
d="M381 186h229v-86h-229v-237h-90v237h-230v86h230v228h90v-228z" />
    <glyph glyph-name="uni208B" unicode="&#x208b;" horiz-adv-x="651" 
d="M571 100h-491v86h491v-86z" />
    <glyph glyph-name="uni208C" unicode="&#x208c;" horiz-adv-x="669" 
d="M588 207h-506v86h506v-86zM588 -6h-506v86h506v-86z" />
    <glyph glyph-name="uni208D" unicode="&#x208d;" horiz-adv-x="423" 
d="M248 -338l-2 -4q-164 235 -164 494q0 144 45 260q47 121 119 227h119q-74 -105 -119 -225q-43 -116 -43 -260q0 -260 164 -492h-119z" />
    <glyph glyph-name="uni208E" unicode="&#x208e;" horiz-adv-x="423" 
d="M55 -338v2q166 233 166 494q0 145 -45 258q-46 117 -123 225h119q76 -108 123 -225q45 -113 45 -260q0 -258 -166 -494h-119z" />
    <glyph glyph-name="uni20A9" unicode="&#x20a9;" horiz-adv-x="2025" 
d="M1939 1016v-115h-235l-39 -252h229v-114h-247l-84 -535h-133l83 535h-188l88 -535h-131l-88 535h-348l-88 -535h-133l88 535h-187l84 -535h-135l-84 535h-260v114h242l-39 252h-248v115h229l-84 540h134l86 -540h340l88 540h133l-88 -540h190l-88 540h133l88 -540h342
l84 540h135l-86 -540h217zM469 901l39 -252h223l41 252h-303zM905 901l-41 -252h312l-41 252h-230zM1307 649h225l39 252h-305z" />
    <glyph glyph-name="Euro" unicode="&#x20ac;" horiz-adv-x="1650" 
d="M1532 422l-2 -4q-44 -132 -123 -234q-77 -98 -193 -155q-115 -56 -251 -56q-153 0 -283 74q-129 74 -215 209q-84 132 -119 311h-254l41 115h199q-4 82 -4 94t4 94h-213l43 117h184q35 177 119 307q87 135 211 207q127 74 276 74q139 0 252 -55q118 -58 195 -156
q78 -100 125 -234h-142q-57 160 -168 246q-113 88 -260 88q-119 0 -211 -57q-95 -59 -159 -166q-65 -110 -92 -254h690l-41 -117h-664q-4 -82 -4 -94t4 -94h598l-41 -115h-542q27 -150 94 -256q66 -105 164 -166q92 -57 215 -57q147 0 260 88q113 87 166 246h141z" />
    <glyph glyph-name="uni20B8" unicode="&#x20b8;" horiz-adv-x="1286" 
d="M74 1442v114h1136v-114h-1136zM573 1137h-499v114h1136v-114h-497v-1137h-140v1137z" />
    <glyph glyph-name="uni20B9" unicode="&#x20b9;" horiz-adv-x="1357" 
d="M1282 1442l-371 2q65 -50 105 -117t49 -149h217v-117h-217q-12 -120 -82 -205q-70 -84 -184 -131q-110 -45 -262 -45h-228l781 -678h-207l-738 639v156h392q167 0 268 67q103 68 121 195h-779v117h779q-21 125 -123 196q-101 70 -266 70h-392v114h1137v-114z" />
    <glyph glyph-name="uni20BA" unicode="&#x20ba;" horiz-adv-x="1320" 
d="M1231 647q0 -335 -164 -491q-163 -156 -477 -156h-275v621l-196 -60v119l196 59v195l-196 -60v119l196 60v503h140v-462l463 139v-117l-463 -139v-197l463 138v-117l-463 -139v-547h129q252 0 381 129t129 403h137z" />
    <glyph glyph-name="uni20BD" unicode="&#x20bd;" horiz-adv-x="1435" 
d="M465 674v-193h426v-116h-426v-369h-137v369h-213v116h213v189h-213v114h213v768h405q293 0 449 -106q159 -108 159 -334q0 -224 -159 -332q-156 -106 -449 -106h-268zM465 1438l-4 -652h272q222 0 344 78q119 76 119 246q0 174 -117 250q-119 78 -342 78h-272z" />
    <glyph glyph-name="uni20BF" unicode="&#x20bf;" horiz-adv-x="1390" 
d="M1165 154v-7q-99 -102 -288 -137v-284h-121v270q-16 -2 -74 -2h-90v-268h-121v268h-248v1556h248v258h121v-258h94q54 0 68 -2v260h120v-278q168 -38 252 -135q86 -100 86 -236q0 -110 -51 -184t-139 -119q-84 -43 -197 -55q130 -6 228 -51q101 -46 157 -132t56 -198
q0 -162 -101 -266zM1026 1298v9q-49 64 -137 98q-90 35 -205 35h-326v-582h326q115 0 205 35q88 34 137 98t49 154q0 89 -49 153zM680 115l-2 -2q146 0 244 37t151 108q51 68 51 170q0 152 -114 234q-112 81 -330 81h-322v-628h322z" />
    <glyph glyph-name="uni2113" unicode="&#x2113;" horiz-adv-x="935" 
d="M442 119l4 10q36 -39 109 -39q121 0 233 100v-108q-62 -52 -122 -72q-68 -22 -129 -22q-132 0 -199 67q-68 68 -68 201v4v164l-131 -96l-67 94l198 145v582q0 127 37 225q37 97 109 154q70 55 172 55q286 0 286 -348q0 -190 -106 -356q-107 -168 -322 -332l-40 -31v-270
v-4q0 -84 36 -123zM498 1446v-2q-44 -41 -68 -115q-24 -73 -24 -176v-481q166 138 249 276q84 141 84 295q0 126 -37 184t-110 58q-52 0 -94 -39z" />
    <glyph glyph-name="uni2116" unicode="&#x2116;" horiz-adv-x="2498" 
d="M1874 852h-4q-82 50 -129 135q-45 83 -45 203q0 114 47 203q46 87 129 137q82 49 190 49q109 0 191 -49q83 -50 129 -137q47 -89 47 -203q0 -120 -45 -203q-46 -85 -129 -135q-82 -49 -191 -49q-108 0 -190 49zM354 -2h-139v1556h139v-1556zM1348 -2h-154l-825 1556h153z
M1501 -2h-139v1556h139v-1556zM2187 932h-6q55 40 84 104q31 70 31 156t-31 156q-30 67 -82 104t-127 37q-70 0 -125 -37t-82 -104q-28 -70 -28 -156t28 -156q26 -65 84 -104q55 -37 127 -37q75 0 127 37z" />
    <glyph glyph-name="uni2117" unicode="&#x2117;" horiz-adv-x="1933" 
d="M1389 1505l-5 -4q195 -115 308 -307q114 -193 114 -424q0 -234 -112 -424q-113 -192 -308 -307q-192 -113 -423 -113q-229 0 -424 115t-308 307q-112 190 -112 424q0 231 114 424q113 192 308 307t424 115q232 0 424 -113zM1329 139v-2q168 98 266 266q99 169 99 369
t-99 369q-100 171 -266 268q-168 98 -368 98q-201 0 -369 -98t-266 -266q-99 -169 -99 -369q0 -198 99 -368q99 -169 266 -267q168 -98 369 -98q200 0 368 98zM1001 1262h-4q120 0 207 -37q91 -39 139 -107q50 -71 50 -166q0 -93 -50 -161t-137 -105t-205 -37h-221v-373
h-118v986h339zM993 745v5q132 0 203 53q72 54 72 153q0 100 -72 154q-71 53 -203 53h-217v-418h217z" />
    <glyph glyph-name="uni2120" unicode="&#x2120;" horiz-adv-x="1714" 
d="M489 1245l-4 -2q111 -21 160 -67t49 -125q0 -67 -35 -117q-36 -52 -98 -78q-64 -27 -149 -27q-74 0 -140 29q-58 25 -100 80q-40 52 -49 117h102q9 -70 62 -111t129 -41q84 0 133 37t49 98q0 53 -43 80t-127 45l-88 19q-97 22 -147 63q-52 43 -52 123q0 53 35 100
q37 49 92 72q61 25 135 25q115 0 191 -54q73 -52 88 -141h-100q-16 61 -64 90q-51 31 -119 31q-72 0 -116 -33q-45 -33 -45 -82q0 -47 36 -67q41 -23 125 -43zM1540 1554v-723h-94v701l-199 -701h-174l-199 701v-701h-94v723h181l198 -704l199 704h182z" />
    <glyph glyph-name="trademark" unicode="&#x2122;" horiz-adv-x="1638" 
d="M309 1477h-241v79h579v-79h-244v-643h-94v643zM1460 1556v-722h-92v708l-201 -708h-174l-198 708v-708h-95v722h181l200 -704l199 704h180z" />
    <glyph glyph-name="uni2150" unicode="&#x2150;" horiz-adv-x="1462" 
d="M870 686v92h519v-121l-336 -657h-142l363 686h-404zM295 1556l92 3v-779h-117v578h-168v92h60q61 0 90 16t41 56zM215 2h-137l1012 1557h137z" />
    <glyph glyph-name="uni2151" unicode="&#x2151;" horiz-adv-x="1503" 
d="M1339 690l2 -6q84 -104 84 -301q0 -136 -39 -221q-41 -89 -110 -135q-68 -45 -162 -45q-115 0 -184 57q-72 60 -96 147h118q18 -53 60 -84q40 -30 104 -30q70 0 117 47q45 45 67 127t13 180q-21 -74 -86 -121t-148 -47q-82 0 -141 33t-94 92q-33 56 -33 139q0 81 39 140
q39 58 108 94q68 35 154 35q145 0 227 -101zM1206 369l-12 -2q45 25 68 61q24 38 24 78q0 49 -20 90q-20 42 -62 70q-39 26 -98 26q-48 0 -94 -22q-42 -21 -64 -62q-22 -42 -22 -90q0 -76 49 -125t135 -49q51 0 96 25zM281 1546l92 2v-778h-117v578h-168v92h59q62 0 91 16
q30 16 41 55zM201 -8h-138l1012 1556h137z" />
    <glyph glyph-name="uni2152" unicode="&#x2152;" horiz-adv-x="1933" 
d="M1028 778l92 2v-778h-116v578h-168v92h59q61 0 90 16q30 16 41 55zM1315 92q-82 104 -82 299t82 299q83 105 229 105q148 0 230 -105q81 -103 81 -299t-81 -299q-82 -104 -230 -104q-147 0 -229 104zM1686 158q49 79 49 233q0 155 -49 234q-50 80 -142 80q-91 0 -141 -80
q-49 -79 -49 -234q0 -154 49 -233q50 -80 141 -80q92 0 142 80zM293 1559l92 2v-779h-117v578h-168v92h60q61 0 90 16t41 56zM213 4h-137l1011 1557h138z" />
    <glyph glyph-name="uni2153" unicode="&#x2153;" horiz-adv-x="1474" 
d="M293 1556l92 3v-779h-117v578h-168v92h60q61 0 90 16t41 56zM213 2h-137l1011 1557h138zM1319 354h-8q67 -46 67 -135q0 -110 -86 -172q-85 -61 -223 -61q-126 0 -203 59q-76 58 -88 160h119q9 -61 53 -96t121 -35q80 0 133 39q56 41 56 110q0 70 -62 105q-61 34 -143 34
h-43v93h43q49 0 92 16q37 14 63 43q25 28 25 61q0 35 -21 62q-23 29 -57 43q-40 16 -84 16q-66 0 -106 -32q-43 -34 -49 -86h-119q3 58 41 108q37 49 98 76q66 29 137 29q75 0 142 -25q65 -24 102 -70t37 -104q0 -81 -56 -125q-55 -43 -137 -55q89 -12 156 -58z" />
    <glyph glyph-name="uni2154" unicode="&#x2154;" horiz-adv-x="1705" 
d="M231 870l451 -2v-92h-586v121l340 283q56 50 82 86q27 38 27 84q0 55 -43 92t-117 37t-117 -37t-49 -101h-119q3 66 41 119t99 80q66 29 145 29q81 0 145 -31q62 -30 97 -80t35 -106q0 -71 -35 -127t-109 -115zM453 -2h-138l1012 1556h137zM1559 350h-9q68 -47 68 -135
q0 -110 -86 -172q-85 -61 -223 -61q-126 0 -203 59q-76 58 -88 160h119q9 -62 53 -97q43 -34 121 -34q80 0 133 39q55 40 55 110q0 71 -61 105t-144 34h-43v93h43q49 0 92 16q38 14 64 43q25 28 25 61q0 35 -21 62q-23 29 -57 43q-40 16 -84 16q-65 0 -107 -33
q-43 -34 -49 -86h-119q3 59 41 109q37 49 99 76q64 28 137 28q77 0 141 -24q67 -25 103 -70t36 -104q0 -82 -55 -125t-137 -55q89 -12 156 -58z" />
    <glyph glyph-name="uni2155" unicode="&#x2155;" horiz-adv-x="1525" 
d="M1313 498l-10 -6q58 -34 92 -95q32 -57 32 -143t-36 -145q-38 -63 -105 -97q-63 -32 -156 -32q-79 0 -141 26q-61 25 -106 80q-43 52 -52 119h119q9 -57 60 -96q49 -37 120 -37q52 0 93 24t65 68q25 45 25 98q0 82 -49 131t-129 49q-65 0 -111 -30q-47 -30 -68 -80
l-114 10l41 438h506v-92h-400l-26 -285q27 52 84 91q53 36 133 36q79 0 133 -32zM281 1550l92 2v-778h-117v578h-168v92h59q62 0 91 16t41 56zM201 -4h-138l1012 1556h137z" />
    <glyph glyph-name="uni2156" unicode="&#x2156;" horiz-adv-x="1757" 
d="M231 870l451 -2v-92h-586v121l340 283q56 50 82 86q27 38 27 84q0 55 -43 92t-117 37t-117 -37t-49 -101h-119q3 66 41 119t99 80q66 29 145 29q81 0 145 -31q62 -30 97 -80t35 -106q0 -71 -35 -127t-109 -115zM453 -2h-138l1012 1556h137zM1550 496l-10 -7
q59 -35 92 -94t33 -143q0 -85 -37 -146q-38 -62 -104 -96q-65 -33 -156 -33q-76 0 -141 27q-62 26 -107 80q-42 51 -51 119h119q9 -59 59 -97q48 -36 121 -36q52 0 92 24q42 25 66 68q24 44 24 98q0 82 -49 131t-129 49q-64 0 -110 -30q-47 -30 -68 -80l-115 10l41 438h506
v-92h-399l-27 -285q27 52 84 91q53 36 133 36q79 0 133 -32z" />
    <glyph glyph-name="uni2157" unicode="&#x2157;" horiz-adv-x="1722" 
d="M610 1130h-8q68 -47 68 -135q0 -110 -86 -172q-85 -61 -224 -61q-125 0 -202 59q-76 58 -88 160h118q9 -60 54 -96q44 -35 120 -35q81 0 134 39q55 40 55 110t-62 105t-143 35h-43v92h43q49 0 92 16q38 14 64 43q24 27 24 62t-20 61q-23 29 -57 43q-43 17 -84 17
q-65 0 -107 -33q-43 -34 -49 -86h-119q3 58 41 108q37 49 98 76q66 29 138 29q74 0 141 -25q66 -25 102 -69q37 -46 37 -105q0 -82 -55 -125t-137 -55q88 -12 155 -58zM403 -2h-137l1012 1556h137zM1501 496l-10 -7q59 -35 92 -94t33 -143q0 -85 -37 -146q-38 -62 -104 -96
q-65 -33 -156 -33q-77 0 -141 27q-62 26 -107 80q-42 51 -51 119h119q9 -59 59 -97q48 -36 121 -36q51 0 92 24q42 25 66 68q24 44 24 98q0 82 -49 131t-129 49q-65 0 -111 -30q-46 -29 -67 -80l-115 10l41 438h506v-92h-399l-27 -285q27 52 84 91q53 36 133 36
q79 0 133 -32z" />
    <glyph glyph-name="uni2158" unicode="&#x2158;" horiz-adv-x="1763" 
d="M590 1094h117v-93h-117v-223h-115v223h-409v121l290 434h119l-303 -462h303v462h115v-462zM446 0h-137l1012 1556h137zM1544 498l-10 -6q58 -34 92 -95q33 -59 33 -143t-37 -145q-39 -64 -104 -97q-63 -32 -156 -32q-79 0 -141 26t-107 80q-42 51 -51 119h119
q9 -58 59 -96q49 -37 121 -37q52 0 92 24q42 25 66 68q24 44 24 98q0 82 -49 131t-129 49q-64 0 -111 -30q-46 -29 -67 -80l-115 10l41 438h506v-92h-399l-27 -285q27 52 84 91q53 36 133 36q79 0 133 -32z" />
    <glyph glyph-name="uni2159" unicode="&#x2159;" horiz-adv-x="1507" 
d="M1292 483h-10q59 -33 94 -92q33 -56 33 -139q0 -78 -39 -137q-41 -62 -106 -95q-63 -32 -154 -32q-144 0 -227 102q-84 104 -84 301q0 131 41 221q42 91 110 136t164 45q114 0 184 -58q74 -61 97 -147h-119q-19 56 -57 84q-41 30 -105 30q-70 0 -117 -47
q-45 -45 -67 -127q-21 -79 -12 -180q21 74 86 121t147 47t141 -33zM1202 98h4q45 22 66 62q22 42 22 90q0 78 -49 127t-135 49q-49 0 -94 -25t-68 -61q-24 -38 -24 -78q0 -44 22 -90q20 -42 62 -70q39 -26 98 -26q50 0 96 22zM285 1556l92 3v-779h-117v578h-168v92h60
q61 0 90 16t41 56zM205 2h-137l1011 1557h138z" />
    <glyph glyph-name="uni215A" unicode="&#x215a;" horiz-adv-x="1689" 
d="M559 1276l-10 -6q59 -35 92 -94t33 -144q0 -84 -37 -145t-105 -96q-65 -33 -155 -33q-79 0 -141 26t-107 80q-42 51 -51 119h119q9 -58 59 -96q49 -37 121 -37q51 0 92 24q42 25 66 68t24 98q0 82 -49 131q-50 50 -129 50q-63 0 -111 -31q-46 -29 -67 -80l-115 10l41 439
h506v-93h-399l-27 -284q26 51 84 90q55 37 133 37q77 0 133 -33zM389 -6h-137l1012 1556h137zM1466 477h-10q59 -33 94 -92q33 -56 33 -139q0 -78 -39 -137q-41 -62 -106 -95q-63 -32 -154 -32q-144 0 -227 102q-84 104 -84 301q0 131 41 221q41 89 110 135q68 45 164 45
q116 0 185 -57q72 -60 96 -147h-119q-19 56 -57 84q-41 30 -105 30q-70 0 -117 -47q-45 -45 -67 -127q-21 -79 -12 -180q21 74 86 121t147 47t141 -33zM1376 92h4q45 22 66 62q22 42 22 90q0 78 -49 127t-135 49q-49 0 -94 -25t-68 -61q-24 -38 -24 -78q0 -44 22 -90
q20 -42 62 -70q39 -26 98 -26q50 0 96 22z" />
    <glyph glyph-name="oneeighth" unicode="&#x215b;" horiz-adv-x="1515" 
d="M1368 352l-12 -8q61 -46 61 -139q0 -68 -39 -119q-41 -54 -110 -80q-68 -26 -160 -26q-87 0 -160 28q-69 26 -110 80q-39 51 -39 121q0 90 61 139q62 50 139 62q-70 15 -122 61t-52 123q0 54 37 100q39 48 103 72q67 25 151 25q81 0 148 -25q65 -24 102 -70t37 -100
q0 -78 -51 -123q-52 -46 -123 -61q75 -12 139 -60zM979 479v-2q44 -35 127 -35q81 0 125 35q43 34 43 90q0 54 -45 90q-46 37 -123 37q-79 0 -125 -37q-45 -36 -45 -88q0 -56 43 -90zM1243 104h-4q55 40 55 111q0 67 -55 104t-135 37q-82 0 -137 -37q-56 -38 -56 -104
q0 -70 56 -111q52 -38 139 -38q85 0 137 38zM274 1546l93 2v-778h-117v578h-168v92h59q61 0 90 16q30 16 41 55zM195 -8h-138l1012 1556h137z" />
    <glyph glyph-name="threeeighths" unicode="&#x215c;" horiz-adv-x="1712" 
d="M610 1130h-8q68 -47 68 -135q0 -110 -86 -172q-85 -61 -224 -61q-125 0 -202 59q-76 58 -88 160h118q9 -60 54 -96q44 -35 120 -35q81 0 134 39q55 40 55 110t-62 105t-143 35h-43v92h43q49 0 92 16q38 14 64 43q24 27 24 62t-20 61q-23 29 -57 43q-43 17 -84 17
q-65 0 -107 -33q-43 -34 -49 -86h-119q3 58 41 108q37 49 98 76q66 29 138 29q74 0 141 -25q66 -25 102 -69q37 -46 37 -105q0 -82 -55 -125t-137 -55q88 -12 155 -58zM403 -2h-137l1012 1556h137zM1556 350l-12 -8q62 -47 62 -139q0 -68 -39 -119q-41 -53 -111 -80
t-160 -27q-83 0 -159 29q-70 27 -111 80q-39 51 -39 121q0 89 62 139t139 62q-71 15 -123 61q-51 45 -51 123q0 54 37 100q39 49 102 72q65 24 152 24q83 0 147 -24q65 -24 102 -70t37 -100q0 -78 -51 -123q-52 -46 -123 -61q75 -12 139 -60zM1167 477v-2q44 -35 127 -35
q81 0 125 35q43 34 43 90q0 54 -45 90q-46 37 -123 37q-79 0 -125 -37q-45 -36 -45 -88q0 -56 43 -90zM1432 102h-5q56 41 56 111q0 66 -56 104q-55 37 -135 37q-82 0 -137 -37t-55 -104q0 -71 55 -111q53 -39 139 -39q85 0 138 39z" />
    <glyph glyph-name="fiveeighths" unicode="&#x215d;" horiz-adv-x="1699" 
d="M559 1276l-10 -6q59 -35 92 -94t33 -144q0 -84 -37 -145t-105 -96q-65 -33 -155 -33q-79 0 -141 26t-107 80q-42 51 -51 119h119q9 -58 59 -96q49 -37 121 -37q51 0 92 24q42 25 66 68t24 98q0 82 -49 131q-50 50 -129 50q-63 0 -111 -31q-46 -29 -67 -80l-115 10l41 439
h506v-93h-399l-27 -284q26 51 84 90q55 37 133 37q77 0 133 -33zM389 -6h-137l1012 1556h137zM1544 346l-12 -8q61 -46 61 -139q0 -68 -39 -119q-41 -54 -110 -80q-70 -27 -160 -27q-84 0 -160 29q-69 26 -110 80q-39 51 -39 121q0 90 61 139q60 48 140 61q-70 15 -123 62
q-52 46 -52 123q0 54 37 100q39 48 103 72q65 24 151 24q84 0 148 -24q65 -24 102 -70t37 -100q0 -78 -51 -123q-52 -46 -123 -61q75 -12 139 -60zM1155 473v-2q44 -35 127 -35q81 0 125 35q43 34 43 90q0 54 -45 90q-46 37 -123 37q-79 0 -125 -37q-45 -36 -45 -88
q0 -56 43 -90zM1419 98h-4q55 40 55 111q0 67 -55 104t-135 37q-82 0 -137 -37q-56 -38 -56 -104q0 -70 56 -111q53 -39 139 -39q84 0 137 39z" />
    <glyph glyph-name="seveneighths" unicode="&#x215e;" 
d="M98 1464v92h518v-120l-335 -658h-142l363 686h-404zM238 0h-138l1012 1556h137zM1391 352l-13 -8q62 -47 62 -139q0 -68 -39 -119q-41 -53 -111 -80q-68 -26 -160 -26q-86 0 -159 28q-70 27 -111 80q-39 51 -39 121q0 89 62 139t139 62q-71 15 -123 61q-51 45 -51 123
q0 54 37 100q39 49 102 72q67 25 152 25q80 0 147 -25t103 -70t36 -100q0 -78 -51 -123q-52 -46 -123 -61q77 -12 140 -60zM1001 479v-2q44 -35 127 -35q81 0 125 35q43 34 43 90q0 54 -45 90q-46 37 -123 37q-78 0 -124 -37t-46 -88q0 -56 43 -90zM1266 104h-4
q55 40 55 111q0 67 -55 104t-136 37q-82 0 -137 -37t-55 -104q0 -71 55 -111q52 -38 139 -38q86 0 138 38z" />
    <glyph glyph-name="uni215F" unicode="&#x215f;" horiz-adv-x="1304" 
d="M326 1556l92 3v-779h-117v578h-168v92h60q61 0 90 16t41 56zM246 2h-137l1011 1557h137z" />
    <glyph glyph-name="uni2189" unicode="&#x2189;" horiz-adv-x="1654" 
d="M162 868q-82 104 -82 299t82 299q83 105 229 105q147 0 230 -105q81 -103 81 -299t-81 -299q-82 -104 -230 -104q-147 0 -229 104zM532 934q50 80 50 233q0 154 -50 234t-141 80t-141 -80q-49 -79 -49 -234q0 -154 49 -233q50 -80 141 -80t141 80zM395 0h-137l1012 1556
h137zM1503 352h-8q68 -47 68 -135q0 -110 -86 -172q-85 -61 -224 -61q-125 0 -202 59q-76 58 -88 160h118q9 -61 54 -97q43 -34 120 -34q81 0 134 39q55 40 55 110t-62 105q-61 34 -143 34h-43v93h43q49 0 92 16q38 14 64 43q24 27 24 61q0 36 -20 62q-22 29 -58 43
q-40 16 -84 16q-66 0 -106 -32q-43 -34 -49 -87h-119q3 59 41 109q37 49 98 76q64 28 138 28q76 0 141 -24t102 -70t37 -104q0 -82 -55 -125t-137 -55q88 -12 155 -58z" />
    <glyph glyph-name="arrowleft" unicode="&#x2190;" horiz-adv-x="1576" 
d="M352 840h1135v-125h-1133l504 -502h-172l-541 565l541 565h172z" />
    <glyph glyph-name="arrowup" unicode="&#x2191;" horiz-adv-x="1576" 
d="M788 1448l566 -543v-172l-502 504v-1133h-125v1135l-504 -506v172z" />
    <glyph glyph-name="arrowright" unicode="&#x2192;" horiz-adv-x="1576" 
d="M719 1343h172l541 -565l-541 -565h-172l504 502h-1133v125h1135z" />
    <glyph glyph-name="arrowdown" unicode="&#x2193;" horiz-adv-x="1576" 
d="M852 1452v-1133l502 504v-172l-566 -542l-565 542v172l504 -506v1135h125z" />
    <glyph glyph-name="uni2196" unicode="&#x2196;" horiz-adv-x="1576" 
d="M504 1169l876 -878l-88 -86l-876 876v-716l-117 118v803h803l119 -117h-717z" />
    <glyph glyph-name="uni2197" unicode="&#x2197;" horiz-adv-x="1576" 
d="M356 1169l119 117h803v-803l-117 -118v716l-876 -876l-88 86l876 878h-717z" />
    <glyph glyph-name="uni2198" unicode="&#x2198;" horiz-adv-x="1576" 
d="M1161 475v717l117 -119v-803h-803l-119 117h717l-876 879l88 86z" />
    <glyph glyph-name="uni2199" unicode="&#x2199;" horiz-adv-x="1576" 
d="M1292 1352l88 -86l-876 -879h717l-119 -117h-803v803l117 119v-717z" />
    <glyph glyph-name="uni21A4" unicode="&#x21a4;" horiz-adv-x="1576" 
d="M1266 840v503h123v-1130h-123v502h-1004l504 -502h-172l-541 565l541 565h172l-506 -503h1006z" />
    <glyph glyph-name="uni21A5" unicode="&#x21a5;" horiz-adv-x="1576" 
d="M1354 969v-170l-502 501v-1024h502v-122h-1131v122h504v1027l-504 -504v170l565 542z" />
    <glyph glyph-name="uni21A6" unicode="&#x21a6;" horiz-adv-x="1576" 
d="M811 1343h172l541 -565l-541 -565h-172l504 502h-1004v-502h-123v1130h123v-503h1006z" />
    <glyph glyph-name="uni21A7" unicode="&#x21a7;" horiz-adv-x="1576" 
d="M1354 1403v-123h-502v-1024l502 502v-170l-566 -543l-565 543v170l504 -504v1026h-504v123h1131z" />
    <glyph glyph-name="uni21B0" unicode="&#x21b0;" horiz-adv-x="1576" 
d="M264 840h1131v-840h-121v715h-1008l504 -502h-172l-543 565l543 565h172z" />
    <glyph glyph-name="uni21B1" unicode="&#x21b1;" horiz-adv-x="1576" 
d="M807 1343h172l543 -565l-543 -565h-172l504 502h-1008v-715h-121v840h1131z" />
    <glyph glyph-name="uni21B2" unicode="&#x21b2;" horiz-adv-x="1576" 
d="M1274 842v714h121v-839h-1131l506 -504h-172l-543 565l543 565h172l-504 -501h1008z" />
    <glyph glyph-name="uni21B3" unicode="&#x21b3;" horiz-adv-x="1576" 
d="M807 1343h172l543 -565l-543 -565h-172l506 504h-1131v839h121v-714h1008z" />
    <glyph glyph-name="partialdiff" unicode="&#x2202;" horiz-adv-x="1269" 
d="M283 1571l-7 -4q467 -50 668 -291q203 -244 203 -614q0 -351 -143 -519t-406 -168q-143 0 -264 62t-191 178q-69 115 -69 274q0 158 67 271t185 172t260 59q127 0 219 -47q93 -47 151 -117q59 -71 80 -147q3 349 -186 547q-189 197 -567 235v109zM807 129v4
q86 51 137 148q49 94 49 219q0 123 -49 211t-139 135q-89 47 -203 47q-115 0 -203 -49t-141 -142q-51 -89 -51 -215q0 -125 53 -217q52 -90 141 -143q86 -51 203 -51q114 0 203 53z" />
    <glyph glyph-name="product" unicode="&#x220f;" horiz-adv-x="1878" 
d="M1821 1556v-126h-310v-1706h-139v1706h-866v-1706h-141v1706h-310v126h1766z" />
    <glyph glyph-name="summation" unicode="&#x2211;" horiz-adv-x="1406" 
d="M981 664l-727 -814h1075v-126h-1237v172l686 766l-686 722v172h1213v-126h-1051z" />
    <glyph glyph-name="minus" unicode="&#x2212;" horiz-adv-x="1222" 
d="M1100 498h-975v108h975v-108z" />
    <glyph glyph-name="radical" unicode="&#x221a;" horiz-adv-x="1337" 
d="M662 -184l532 1740h143l-561 -1832h-225l-268 722h-265v125h367z" />
    <glyph glyph-name="infinity" unicode="&#x221e;" horiz-adv-x="2269" 
d="M1915 979l4 -2q106 -63 168 -178q61 -113 61 -252t-61 -252q-62 -115 -168 -178q-107 -64 -240 -64q-152 0 -278 97q-120 92 -230 245l-32 49l-35 -49q-107 -153 -227 -245q-126 -97 -279 -97q-131 0 -242 66q-106 63 -168 178q-61 113 -61 252t61 252q62 115 168 178
q109 65 242 65q159 0 281 -98q121 -97 227 -246l31 -43l30 43q105 147 228 246q122 98 280 98q131 0 240 -65zM1063 549l-55 74q-93 135 -191 219q-100 86 -217 86q-99 0 -178 -49t-123 -136q-43 -85 -43 -196q0 -112 43 -197q43 -86 123 -135q79 -49 178 -49q117 0 217 86
q103 89 189 217zM1847 211v2q79 49 123 135q43 85 43 197q0 111 -43 196q-44 87 -123 136t-178 49q-117 0 -217 -86q-96 -83 -192 -217l-54 -78l56 -80q91 -132 190 -217q100 -86 217 -86q99 0 178 49z" />
    <glyph glyph-name="integral" unicode="&#x222b;" horiz-adv-x="763" 
d="M-10 -401l2 106h123q102 0 151 55t49 170v1307q0 157 84 238q82 79 238 79h135v-104h-123q-100 0 -149 -55t-49 -172v-1307q0 -158 -86 -238q-85 -79 -240 -79h-135z" />
    <glyph glyph-name="approxequal" unicode="&#x2248;" horiz-adv-x="1423" 
d="M150 705l-11 -3q150 175 314 175q53 0 110 -13t142 -49q81 -34 137 -49q52 -14 108 -14q74 0 125 32q58 36 123 101l72 -72q-72 -82 -150 -127q-80 -47 -162 -47q-54 0 -106 12q-55 13 -141 49q-78 35 -133 50q-59 16 -111 16q-72 0 -125 -33q-56 -35 -119 -98zM139 297
l-10 -2q149 174 313 174q58 0 111 -12q55 -13 141 -49q88 -37 137 -50q52 -14 109 -14q72 0 125 33q61 38 123 100l72 -71q-72 -82 -150 -127q-82 -48 -162 -48q-49 0 -106 13t-142 49q-72 33 -133 49q-59 16 -110 16q-74 0 -125 -32q-53 -33 -119 -99z" />
    <glyph glyph-name="notequal" unicode="&#x2260;" horiz-adv-x="1310" 
d="M1155 813v-106h-340l-176 -304h516v-108h-580l-172 -295h-133l172 295h-286v108h350l176 304h-526v106h587l162 277h133l-161 -277h278z" />
    <glyph glyph-name="lessequal" unicode="&#x2264;" horiz-adv-x="1218" 
d="M131 741l944 334v-112l-860 -304l860 -305v-110l-944 331v166zM1075 0h-944v109h944v-109z" />
    <glyph glyph-name="greaterequal" unicode="&#x2265;" horiz-adv-x="1218" 
d="M143 963v112l944 -334v-166l-944 -331v110l861 305zM1087 0h-944v109h944v-109z" />
    <glyph glyph-name="uni2300" unicode="&#x2300;" horiz-adv-x="1366" 
d="M1122 905h-2q63 -79 97 -168q34 -90 34 -192q0 -156 -75 -285q-76 -131 -207 -209q-128 -76 -283 -76q-102 0 -190 33q-98 37 -166 94l-129 -131l-82 82l129 131q-63 74 -98 168q-33 88 -33 193q0 150 78 282q78 131 206 207q132 78 283 78q103 0 188 -33q93 -36 166 -92
l127 129l84 -82zM258 397h4q23 -67 72 -129l622 635q-60 44 -129 68q-71 24 -143 24q-119 0 -223 -61q-105 -61 -166 -166q-62 -106 -62 -223q0 -75 25 -148zM909 154l-6 -4q106 62 166 165q61 104 61 226q0 77 -24 147q-24 72 -70 129l-624 -633q57 -43 129 -67
q73 -25 143 -25q119 0 225 62z" />
    <glyph glyph-name="uni2460" unicode="&#x2460;" horiz-adv-x="1912" 
d="M1386 1522q197 -115 312 -312q114 -197 114 -430q0 -234 -114 -430t-312 -311t-430 -115t-430 115q-197 114 -311 311q-115 198 -115 430t115 430t311 312q197 114 430 114q234 0 430 -114zM1331 129q172 102 273 272q100 169 100 377t-100 377q-101 170 -273 272
q-171 101 -377 101q-205 0 -376 -101q-172 -102 -273 -272q-100 -169 -100 -377t100 -377q101 -170 273 -272q169 -100 376 -100q208 0 377 100zM922 1245l108 -2v-934h-131v692h-201v109h78q60 0 98 23q35 21 44 71z" />
    <glyph glyph-name="uni2461" unicode="&#x2461;" horiz-adv-x="1912" 
d="M1386 1522q197 -115 312 -312q114 -197 114 -430q0 -234 -114 -430t-312 -311t-430 -115t-430 115q-197 114 -311 311q-115 198 -115 430t115 430t311 312q197 114 430 114q234 0 430 -114zM1331 129q172 102 273 272q100 169 100 377t-100 377q-101 170 -273 272
q-171 101 -377 101q-205 0 -376 -101q-172 -102 -273 -272q-100 -169 -100 -377t100 -377q101 -170 273 -272q169 -100 376 -100q208 0 377 100zM752 418l555 2v-107h-701v140l414 344q58 50 94 98q33 44 33 98q0 41 -23 82q-22 40 -67 60q-49 22 -105 22q-88 0 -143 -43
t-61 -123h-136q6 83 52 144q44 58 120 94q70 33 170 33q99 0 172 -37q75 -38 115 -99q41 -62 41 -131q0 -85 -45 -147q-48 -67 -131 -135z" />
    <glyph glyph-name="uni2462" unicode="&#x2462;" horiz-adv-x="1912" 
d="M1386 1522q197 -115 312 -312q114 -197 114 -430q0 -234 -114 -430t-312 -311t-430 -115t-430 115q-197 114 -311 311q-115 198 -115 430t115 430t311 312q197 114 430 114q234 0 430 -114zM1331 129q172 102 273 272q100 169 100 377t-100 377q-101 170 -273 272
q-171 101 -377 101q-205 0 -376 -101q-172 -102 -273 -272q-100 -169 -100 -377t100 -377q101 -170 273 -272q169 -100 376 -100q208 0 377 100zM1163 772h-4q56 -23 98 -74q41 -50 41 -123q0 -89 -47 -151t-129 -92q-85 -31 -186 -31q-148 0 -236 70q-89 71 -104 196h135
q9 -73 64 -116t145 -43q58 0 111 18q54 19 84 59q30 41 30 103q0 84 -69 127q-70 43 -174 43h-54v108h54q62 0 114 19q50 18 74 53q25 36 25 78t-25 78q-24 35 -68 53t-102 18q-84 0 -133 -43t-55 -106h-134q6 70 50 129q45 61 114 90q73 31 158 31q89 0 168 -31
q77 -30 121 -86q43 -55 43 -125q0 -101 -68 -154q-67 -52 -162 -67q60 -6 121 -31z" />
    <glyph glyph-name="uni2463" unicode="&#x2463;" horiz-adv-x="1912" 
d="M1386 1522q197 -115 312 -312q114 -197 114 -430q0 -234 -114 -430t-312 -311t-430 -115t-430 115q-197 114 -311 311q-115 198 -115 430t115 430t311 312q197 114 430 114q234 0 430 -114zM1331 129q172 102 273 272q100 169 100 377t-100 377q-101 170 -273 272
q-171 101 -377 101q-205 0 -376 -101q-172 -102 -273 -272q-100 -169 -100 -377t100 -377q101 -170 273 -272q169 -100 376 -100q208 0 377 100zM1139 1245v-557h139v-108h-139v-269h-131v269h-494v137l375 528h250zM1008 1227l-379 -539h379v539z" />
    <glyph glyph-name="uni2464" unicode="&#x2464;" horiz-adv-x="1912" 
d="M1386 1522q197 -115 312 -312q114 -197 114 -430q0 -234 -114 -430t-312 -311t-430 -115t-430 115q-197 114 -311 311q-115 198 -115 430t115 430t311 312q197 114 430 114q234 0 430 -114zM1331 129q172 102 273 272q100 169 100 377t-100 377q-101 170 -273 272
q-171 101 -377 101q-205 0 -376 -101q-172 -102 -273 -272q-100 -169 -100 -377t100 -377q101 -170 273 -272q169 -100 376 -100q208 0 377 100zM1155 909l-2 -4q72 -41 111 -112q41 -74 41 -175q0 -105 -45 -176t-125 -112q-77 -39 -181 -39q-89 0 -168 31q-73 29 -124 92
q-49 61 -58 143h133q9 -73 68 -117q58 -43 147 -43q62 0 111 27q51 28 78 80q28 54 28 123q0 70 -26 118q-27 49 -76 76t-109 27q-73 0 -131 -37q-60 -39 -86 -100l-129 10l50 524h589v-106h-469l-32 -348q26 63 92 110q65 47 157 47q88 0 156 -39z" />
    <glyph glyph-name="uni2465" unicode="&#x2465;" horiz-adv-x="1912" 
d="M1386 1522q197 -115 312 -312q114 -197 114 -430q0 -234 -114 -430t-312 -311t-430 -115t-430 115q-197 114 -311 311q-115 198 -115 430t115 430t311 312q197 114 430 114q234 0 430 -114zM1331 129q172 102 273 272q100 169 100 377t-100 377q-101 170 -273 272
q-171 101 -377 101q-205 0 -376 -101q-172 -102 -273 -272q-100 -169 -100 -377t100 -377q101 -170 273 -272q169 -100 376 -100q208 0 377 100zM1157 891l-8 4q75 -41 115 -111q41 -71 41 -166q0 -89 -48 -165q-45 -71 -127 -113q-77 -39 -182 -39q-112 0 -198 53t-132 160
q-45 105 -45 268q0 156 50 265q49 106 133 163q83 56 194 56q135 0 221 -68q88 -69 117 -180h-135q-21 64 -74 102q-52 37 -129 37q-120 0 -180 -100q-61 -101 -61 -264q0 -50 2 -64q15 59 55 105q42 48 98 71q61 25 123 25q99 0 170 -39zM1057 430l-4 2q51 28 80 76
q30 50 30 110q0 95 -59 154t-164 59q-63 0 -117 -28q-53 -27 -80 -74q-26 -45 -26 -98q0 -59 24 -111q23 -50 78 -86q50 -33 123 -33q62 0 115 29z" />
    <glyph glyph-name="uni2466" unicode="&#x2466;" horiz-adv-x="1912" 
d="M1386 1522q197 -115 312 -312q114 -197 114 -430q0 -234 -114 -430t-312 -311t-430 -115t-430 115q-197 114 -311 311q-115 198 -115 430t115 430t311 312q197 114 430 114q234 0 430 -114zM1331 129q172 102 273 272q100 169 100 377t-100 377q-101 170 -273 272
q-171 101 -377 101q-205 0 -376 -101q-172 -102 -273 -272q-100 -169 -100 -377t100 -377q101 -170 273 -272q169 -100 376 -100q208 0 377 100zM1143 1139h-490v106h619v-139l-410 -795h-160z" />
    <glyph glyph-name="uni2467" unicode="&#x2467;" horiz-adv-x="1912" 
d="M524 35q-197 114 -311 311q-115 198 -115 430t115 430t311 312t430 114t430 -114q197 -115 312 -312q114 -196 114 -430t-114 -430t-312 -311t-430 -115t-430 115zM1331 129q172 102 273 272q100 169 100 377t-100 377q-101 170 -273 272q-171 101 -377 101
q-205 0 -376 -101q-172 -102 -273 -272q-100 -169 -100 -377t100 -377q101 -170 273 -272q169 -100 376 -100q208 0 377 100zM766 328l2 -4q-81 34 -131 96q-49 61 -49 145q0 78 37 127q40 53 92 78q56 27 110 33h2q-89 15 -153 67t-64 148q0 70 43 125q45 57 119 86
q79 31 176 31q99 0 178 -31q74 -29 119 -86q43 -55 43 -125q0 -97 -63 -148q-62 -50 -150 -69q55 -6 111 -33q55 -27 92 -76t37 -125q0 -83 -47 -145q-46 -62 -129 -96q-79 -33 -189 -33q-102 0 -186 35zM1106 895q51 42 51 106q0 39 -24 74q-24 34 -70 55q-47 21 -111 21
t-110 -21t-70 -55q-24 -35 -24 -74q0 -62 53 -106q52 -43 151 -43q102 0 154 43zM1069 414l-4 -2q55 22 84 61q31 42 31 98q0 55 -31 97q-30 40 -84 59q-53 18 -115 18t-114 -18q-54 -19 -84 -59q-31 -42 -31 -95q0 -59 33 -98q34 -40 86 -61t114 -21t115 21z" />
    <glyph glyph-name="uni2468" unicode="&#x2468;" horiz-adv-x="1912" 
d="M1386 1522q197 -115 312 -312q114 -197 114 -430q0 -234 -114 -430t-312 -311t-430 -115t-430 115q-197 114 -311 311q-115 198 -115 430t115 430t311 312q197 114 430 114q234 0 430 -114zM1331 129q172 102 273 272q100 169 100 377t-100 377q-101 170 -273 272
q-171 101 -377 101q-205 0 -376 -101q-172 -102 -273 -272q-100 -169 -100 -377t100 -377q101 -170 273 -272q169 -100 376 -100q208 0 377 100zM1153 1208v-8q84 -52 131 -160q47 -109 47 -268q0 -157 -49 -264t-131 -162t-195 -55q-136 0 -221 67q-88 69 -117 181h136
q22 -66 73 -103q52 -37 129 -37q120 0 181 101t61 264q0 49 -2 63q-15 -58 -55 -104q-43 -49 -99 -72q-59 -24 -122 -24q-99 0 -170 39q-73 40 -113 110q-39 68 -39 166q0 92 47 166q45 71 127 113q80 41 182 41q111 0 199 -54zM1073 750l-2 -5q53 27 80 74q29 50 29 99
q0 55 -25 110q-24 52 -76 86q-50 33 -123 33q-62 0 -112 -27q-51 -28 -80 -76q-31 -51 -31 -110q0 -94 60 -154q59 -59 163 -59q61 0 117 29z" />
    <glyph glyph-name="uni24EA" unicode="&#x24ea;" horiz-adv-x="1912" 
d="M524 35q-197 114 -311 311q-115 198 -115 430t115 430t311 312t430 114t430 -114q197 -115 312 -312q114 -196 114 -430t-114 -430t-312 -311t-430 -115t-430 115zM1331 129q172 102 273 272q100 169 100 377t-100 377q-101 170 -273 272q-171 101 -377 101
q-205 0 -376 -101q-172 -102 -273 -272q-100 -169 -100 -377t100 -377q101 -170 273 -272q169 -100 376 -100q208 0 377 100zM756 350q-84 56 -127 164q-43 107 -43 262t43 262q43 108 127 164q82 55 196 55q115 0 197 -55q84 -56 127 -164q43 -107 43 -262t-43 -262
q-43 -108 -127 -164q-82 -55 -197 -55q-114 0 -196 55zM1126 494q62 95 62 282q0 188 -62 283q-62 96 -174 96t-174 -96q-61 -94 -61 -283q0 -188 61 -282q63 -97 174 -97t174 97z" />
    <glyph glyph-name="uni24FF" unicode="&#x24ff;" horiz-adv-x="1912" 
d="M524 35q-197 114 -311 311q-115 198 -115 430t115 430t311 312t430 114t430 -114q197 -115 312 -312q114 -196 114 -430t-114 -430t-312 -311t-430 -115t-430 115zM1153 350q84 56 127 164q43 107 43 262t-43 262q-43 108 -127 164q-82 55 -197 55q-114 0 -196 -55
q-84 -56 -127 -164q-43 -107 -43 -262t43 -262q43 -108 127 -164q82 -55 196 -55q115 0 197 55zM780 494q-61 94 -61 282q0 189 61 283q62 96 174 96t174 -96q62 -95 62 -283q0 -187 -62 -282q-63 -97 -174 -97t-174 97z" />
    <glyph glyph-name="filledbox" unicode="&#x25a0;" horiz-adv-x="1480" 
d="M1286 0h-1089v1090h1089v-1090z" />
    <glyph glyph-name="uni25A1" unicode="&#x25a1;" horiz-adv-x="1480" 
d="M1286 0h-1089v1090h1089v-1090zM311 975v-860h858v860h-858z" />
    <glyph glyph-name="lozenge" unicode="&#x25ca;" horiz-adv-x="1341" 
d="M582 1556h176l477 -778l-477 -778h-176l-478 778zM240 778l430 -702l432 702l-430 703z" />
    <glyph glyph-name="circle" unicode="&#x25cb;" horiz-adv-x="1404" 
d="M410 41l-7 -6q-131 77 -210 213q-78 135 -78 289t78 292q77 136 213 213q138 78 292 78t289 -78t213 -211q80 -136 80 -290q0 -156 -80 -289q-79 -132 -211 -211q-133 -80 -289 -80q-154 0 -290 80zM928 137v-8q106 62 166 168q61 107 61 233q0 127 -61 234
q-60 106 -166 168q-104 61 -232 61q-126 0 -233 -61q-106 -60 -168 -166t-62 -231q0 -126 62 -232t168 -166q107 -61 233 -61q128 0 232 61z" />
    <glyph glyph-name="uni25CF" unicode="&#x25cf;" horiz-adv-x="1404" 
d="M410 41l-7 -6q-131 77 -210 213q-78 135 -78 289t78 292q77 136 213 213q138 78 292 78t289 -78t213 -211q80 -136 80 -290q0 -156 -80 -289q-79 -132 -211 -211q-133 -80 -289 -80q-154 0 -290 80z" />
    <glyph glyph-name="uni2776" unicode="&#x2776;" horiz-adv-x="1912" 
d="M524 35q-197 114 -311 311q-115 198 -115 430t115 430t311 312t430 114t430 -114q197 -115 312 -312q114 -196 114 -430t-114 -430t-312 -311t-430 -115t-430 115zM901 311l133 -2v934h-110l-4 -41q-9 -48 -43 -69q-35 -21 -99 -21h-78v-108h201v-693z" />
    <glyph glyph-name="uni2777" unicode="&#x2777;" horiz-adv-x="1912" 
d="M524 35q-197 114 -311 311q-115 198 -115 430t115 430t311 312t430 114t430 -114q197 -115 312 -312q114 -196 114 -430t-114 -430t-312 -311t-430 -115t-430 115zM606 311l697 -4v107h-553l352 295q83 68 131 135q45 62 45 147q0 71 -41 133q-40 61 -115 99
q-73 37 -172 37q-98 0 -168 -33q-73 -34 -118 -94q-46 -61 -52 -144h136q6 80 61 123t143 43q56 0 105 -22q45 -20 67 -60q23 -41 23 -82q0 -54 -33 -98q-36 -48 -94 -98l-414 -344v-140z" />
    <glyph glyph-name="uni2778" unicode="&#x2778;" horiz-adv-x="1912" 
d="M524 35q-197 114 -311 311q-115 198 -115 430t115 430t311 312t430 114t430 -114q197 -115 312 -312q114 -196 114 -430t-114 -430t-312 -311t-430 -115t-430 115zM1126 326l-6 -9q81 29 129 93q47 62 47 151q0 107 -79 162t-181 70q95 15 162 67q68 53 68 152
q0 70 -43 125q-45 57 -119 86q-76 30 -168 30q-88 0 -158 -30q-69 -29 -114 -90q-44 -59 -50 -129h134q6 63 55 106t133 43q58 0 102 -18q45 -18 68 -52q24 -35 24 -75q0 -44 -24 -78q-24 -35 -74 -53q-52 -19 -114 -19h-54v-108h54q106 0 176 -43q71 -44 71 -125
q0 -62 -30 -103q-30 -40 -84 -59q-55 -19 -111 -19q-88 0 -143 43t-64 117h-135q15 -125 104 -196q88 -70 238 -70q101 0 186 31z" />
    <glyph glyph-name="uni2779" unicode="&#x2779;" horiz-adv-x="1912" 
d="M524 35q-197 114 -311 311q-115 198 -115 430t115 430t311 312t430 114t430 -114q197 -115 312 -312q114 -196 114 -430t-114 -430t-312 -311t-430 -115t-430 115zM514 717v-137h494v-269h131v269h139v108h-139v557h-250zM1008 688h-381l381 535v-535z" />
    <glyph glyph-name="uni277A" unicode="&#x277a;" horiz-adv-x="1912" 
d="M524 35q-197 114 -311 311q-115 198 -115 430t115 430t311 312t430 114t430 -114q197 -115 312 -312q114 -196 114 -430t-114 -430t-312 -311t-430 -115t-430 115zM1135 334l-7 2q77 39 125 115q45 71 45 176t-38 174q-39 71 -111 112q-68 39 -156 39q-94 0 -159 -45
q-69 -47 -95 -110l33 346h469v106h-590l-49 -524l129 -10q26 61 86 100q58 37 131 37q60 0 109 -27q53 -29 78 -75q28 -51 28 -119q0 -72 -26 -123q-28 -54 -76 -80q-49 -27 -111 -27q-89 0 -147 43q-59 44 -68 117h-133q9 -79 60 -143q51 -63 124 -92q79 -31 168 -31
q104 0 181 39z" />
    <glyph glyph-name="uni277B" unicode="&#x277b;" horiz-adv-x="1912" 
d="M524 35q-197 114 -311 311q-115 198 -115 430t115 430t311 312t430 114t430 -114q197 -115 312 -312q114 -196 114 -430t-114 -430t-312 -311t-430 -115t-430 115zM1137 334v-8q83 42 127 112q47 74 47 166q0 98 -39 166q-41 71 -113 111q-71 39 -170 39q-62 0 -123 -25
q-55 -23 -98 -72q-40 -46 -55 -104q-2 14 -2 61q0 163 61 264q62 103 180 103q77 0 129 -37q53 -38 74 -102h135q-29 112 -116 180q-85 67 -222 67q-112 0 -194 -55t-131 -162t-49 -264q0 -159 47 -268q47 -108 131 -160q86 -53 198 -53q103 0 183 41zM829 422l-2 -4
q-51 34 -75 86q-25 55 -25 110q0 49 29 99q26 45 80 73q56 29 116 29q105 0 164 -59q60 -60 60 -154q0 -59 -31 -110q-29 -48 -80 -76q-49 -27 -113 -27q-73 0 -123 33z" />
    <glyph glyph-name="uni277C" unicode="&#x277c;" horiz-adv-x="1912" 
d="M524 35q-197 114 -311 311q-115 198 -115 430t115 430t311 312t430 114t430 -114q197 -115 312 -312q114 -196 114 -430t-114 -430t-312 -311t-430 -115t-430 115zM1143 1139l-441 -828h160l410 795v139h-619v-106h490z" />
    <glyph glyph-name="uni277D" unicode="&#x277d;" horiz-adv-x="1912" 
d="M524 35q-197 114 -311 311q-115 198 -115 430t115 430t311 312t430 114t430 -114q197 -115 312 -312q114 -196 114 -430t-114 -430t-312 -311t-430 -115t-430 115zM1143 328l-4 -4q84 35 133 96t49 145q0 74 -37 123q-40 53 -92 78q-59 28 -111 37q86 21 148 74
q61 52 61 143q0 70 -43 125q-45 57 -119 86q-79 31 -178 31q-95 0 -174 -31q-74 -29 -119 -86q-43 -55 -43 -125q0 -90 62 -143q63 -54 149 -74q-51 -8 -110 -37q-55 -27 -92 -76t-37 -123q0 -84 49 -145q50 -62 131 -96q79 -33 188 -33q105 0 189 35zM799 895v2
q-51 42 -51 107q0 38 24 73q25 36 70 56q44 20 110 20q67 0 111 -20q45 -20 67 -56q23 -38 23 -76q0 -64 -51 -106q-52 -43 -154 -43q-97 0 -149 43zM836 416l4 -2q-52 21 -86 61q-33 39 -33 98q0 55 31 97q30 40 84 59q55 19 114 19q62 0 117 -19q54 -19 84 -59
q31 -42 31 -95q0 -59 -33 -98q-34 -40 -86 -61t-115 -21q-60 0 -112 21z" />
    <glyph glyph-name="uni277E" unicode="&#x277e;" horiz-adv-x="1912" 
d="M524 35q-197 114 -311 311q-115 198 -115 430t115 430t311 312t430 114t430 -114q197 -115 312 -312q114 -196 114 -430t-114 -430t-312 -311t-430 -115t-430 115zM774 1221l-8 2q-82 -42 -127 -113q-47 -74 -47 -166q0 -95 41 -166q39 -68 115 -110q71 -39 170 -39
q63 0 122 24q56 23 99 72q40 46 55 104q2 -14 2 -61q0 -163 -61 -264t-181 -101q-77 0 -129 37q-51 37 -73 103h-136q29 -112 117 -181q85 -67 221 -67q113 0 195 55q84 56 133 164q49 107 49 264q0 164 -45 269q-46 107 -131 159q-88 54 -199 54q-105 0 -182 -39z
M1071 1124l-4 2q55 -36 78 -86q24 -53 24 -110q0 -54 -26 -99t-80 -73q-56 -29 -117 -29q-105 0 -164 59t-59 154q0 60 31 111q28 47 80 75q53 29 114 29q73 0 123 -33z" />
    <glyph glyph-name="uniF8FF" unicode="&#xf8ff;" horiz-adv-x="1722" 
d="M1030 813h633v-70h-627l578 -239l-25 -64l-583 242l444 -446l-45 -48l-449 449l242 -586l-61 -26l-240 577v-625h-70v635l-243 -587l-62 26l242 586l-449 -449l-45 48l445 446l-584 -242l-25 64l578 239h-625v70h631l-584 242l27 63l584 -241l-447 446l49 49l445 -446
l-242 581l64 25l241 -584v631h70v-621l238 574l63 -25l-242 -581l445 446l49 -49l-446 -446l583 241l27 -63z" />
    <glyph glyph-name="uniFEFF" unicode="&#xfeff;" horiz-adv-x="0" 
 />
    <glyph glyph-name="NULL" horiz-adv-x="0" 
 />
    <glyph glyph-name="uni004A0301" horiz-adv-x="731" 
d="M41 0l-2 127h139q107 0 160 41q51 39 51 141v1247h139v-1265q0 -150 -86 -221q-85 -70 -245 -70h-156zM535 1690h-138l260 258h193z" />
    <glyph glyph-name="G.ss03" horiz-adv-x="1638" 
d="M782 811l734 -16v-93q0 -217 -86 -387q-84 -166 -244 -260q-157 -92 -363 -92q-207 0 -372 103q-163 102 -254 282q-93 184 -93 416t93 416q90 178 256 282q165 103 366 103q175 0 314 -62q138 -61 229 -172q92 -112 135 -260h-145q-64 174 -197 277q-132 102 -332 102
q-161 0 -291 -86q-127 -84 -202 -240q-74 -154 -74 -350t74 -350q75 -156 205 -240q133 -86 294 -86q158 0 285 74q126 73 197 207q70 131 73 307h-602v125z" />
    <glyph glyph-name="Gbreve.ss03" horiz-adv-x="1638" 
d="M782 811l734 -16v-93q0 -217 -86 -387q-84 -166 -244 -260q-157 -92 -363 -92q-207 0 -372 103q-163 102 -254 282q-93 184 -93 416t93 416q90 178 256 282q165 103 366 103q175 0 314 -62q138 -61 229 -172q92 -112 135 -260h-145q-64 174 -197 277q-132 102 -332 102
q-161 0 -291 -86q-127 -84 -202 -240q-74 -154 -74 -350t74 -350q75 -156 205 -240q133 -86 294 -86q158 0 285 74q126 73 197 207q70 131 73 307h-602v125zM657 1700h5q-68 38 -105 98q-37 61 -37 133h115q0 -82 49 -131t135 -49t135 49q50 50 50 131h114q0 -72 -37 -133
t-104 -98t-160 -37t-160 37z" />
    <glyph glyph-name="Gcaron.ss03" horiz-adv-x="1638" 
d="M782 811l734 -16v-93q0 -217 -86 -387q-84 -166 -244 -260q-157 -92 -363 -92q-207 0 -372 103q-163 102 -254 282q-93 184 -93 416t93 416q90 178 256 282q165 103 366 103q175 0 314 -62q138 -61 229 -172q92 -112 135 -260h-145q-64 174 -197 277q-132 102 -332 102
q-161 0 -291 -86q-127 -84 -202 -240q-74 -154 -74 -350t74 -350q75 -156 205 -240q133 -86 294 -86q158 0 285 74q126 73 197 207q70 131 73 307h-602v125zM819 1739l230 192h133l-267 -258h-192l-268 258h133z" />
    <glyph glyph-name="Gcircumflex.ss03" horiz-adv-x="1638" 
d="M782 811l734 -16v-93q0 -217 -86 -387q-84 -166 -244 -260q-157 -92 -363 -92q-207 0 -372 103q-163 102 -254 282q-93 184 -93 416t93 416q90 178 256 282q165 103 366 103q175 0 314 -62q138 -61 229 -172q92 -112 135 -260h-145q-64 174 -197 277q-132 102 -332 102
q-161 0 -291 -86q-127 -84 -202 -240q-74 -154 -74 -350t74 -350q75 -156 205 -240q133 -86 294 -86q158 0 285 74q126 73 197 207q70 131 73 307h-602v125zM918 1931l266 -258h-133l-230 193l-231 -193h-133l268 258h193z" />
    <glyph glyph-name="uni0122.ss03" horiz-adv-x="1638" 
d="M782 811l734 -16v-93q0 -217 -86 -387q-84 -166 -244 -260q-157 -92 -363 -92q-207 0 -372 103q-163 102 -254 282q-93 184 -93 416t93 416q90 178 256 282q165 103 366 103q175 0 314 -62q138 -61 229 -172q92 -112 135 -260h-145q-64 174 -197 277q-132 102 -332 102
q-161 0 -291 -86q-127 -84 -202 -240q-74 -154 -74 -350t74 -350q75 -156 205 -240q133 -86 294 -86q158 0 285 74q126 73 197 207q70 131 73 307h-602v125zM756 -416v256h151v-266l-96 -164h-98l84 174h-41z" />
    <glyph glyph-name="Gdotaccent.ss03" horiz-adv-x="1638" 
d="M782 811l734 -16v-93q0 -217 -86 -387q-84 -166 -244 -260q-157 -92 -363 -92q-207 0 -372 103q-163 102 -254 282q-93 184 -93 416t93 416q90 178 256 282q165 103 366 103q175 0 314 -62q138 -61 229 -172q92 -112 135 -260h-145q-64 174 -197 277q-132 102 -332 102
q-161 0 -291 -86q-127 -84 -202 -240q-74 -154 -74 -350t74 -350q75 -156 205 -240q133 -86 294 -86q158 0 285 74q126 73 197 207q70 131 73 307h-602v125zM895 1673h-152v258h152v-258z" />
    <glyph glyph-name="Adieresis.titl" horiz-adv-x="1521" 
d="M1509 0h-149l-191 502h-817l-190 -502h-152l596 1556h148l-353 -927h719l-354 927h147zM344 1298h-151v258h151v-258zM1350 1298h-152v258h152v-258z" />
    <glyph glyph-name="Odieresis.titl" horiz-adv-x="1691" 
d="M467 78q-168 103 -258 282q-92 182 -92 418t92 418q91 181 258 283q163 100 379 100t379 -100q167 -102 258 -283q92 -182 92 -418t-92 -418q-90 -179 -258 -282q-165 -101 -379 -101t-379 101zM1149 184q133 86 207 240t74 350t-74 350t-207 240t-301 86t-301 -86
t-207 -240t-74 -350t74 -350t207 -240t301 -86t301 86zM156 1296h-152v258h152v-258zM1688 1296h-152v258h152v-258z" />
    <glyph glyph-name="Udieresis.titl" horiz-adv-x="1585" 
d="M690 1298h-151v258h151v-258zM1047 1298h-152v258h152v-258zM195 621l-2 6v932h139v-941v-4q0 -256 117 -385t346 -129q228 0 342 129t114 387v940h142v-931q0 -648 -598 -648q-600 0 -600 644z" />
    <glyph glyph-name="I_J.loclNLD" horiz-adv-x="1112" 
d="M182 0l-2 127h379q107 0 160 41q51 39 51 141v1247h139v-1265q0 -150 -86 -221q-85 -70 -245 -70h-396zM322 471h-142v1085h142v-1085z" />
    <glyph glyph-name="A.inferior" horiz-adv-x="804" 
d="M795 -233h-123l-78 225h-383l-78 -225h-123l275 778h237zM403 543l-155 -445h309z" />
    <glyph glyph-name="B.inferior" horiz-adv-x="774" 
d="M653 113v-9q62 -50 62 -135q0 -97 -80 -153t-229 -56h-300v779h295q87 0 154 -25q63 -23 98 -68q35 -44 35 -102q0 -77 -53 -121q-50 -41 -146 -57q102 -3 164 -53zM524 401v-2q-47 29 -123 29h-176v-217h176q79 0 123 27q43 27 43 79q0 57 -43 84zM408 -139l-2 -2
q94 0 141 30t47 93q0 120 -186 120h-183v-241h183z" />
    <glyph glyph-name="C.inferior" horiz-adv-x="835" 
d="M242 -199h-9q-85 49 -135 142q-49 91 -49 211q0 122 49 213q50 91 135 141q85 49 191 49q134 0 229 -74t129 -196h-120q-27 76 -87 127q-58 49 -147 49q-71 0 -129 -37q-56 -36 -92 -109q-33 -67 -33 -161q0 -90 35 -162t92 -111q56 -39 125 -39q92 0 154 47t92 129h121
q-40 -132 -136 -200q-95 -68 -229 -68q-101 0 -186 49z" />
    <glyph glyph-name="D.inferior" horiz-adv-x="839" 
d="M387 545q122 0 209 -43q88 -43 137 -131t49 -215t-49 -215t-137 -131q-87 -43 -209 -43h-276v778h276zM387 -127l-2 4q126 0 201 72q73 70 73 209t-73 209q-74 71 -199 71h-160v-565h160z" />
    <glyph glyph-name="E.inferior" horiz-adv-x="698" 
d="M227 115v-242h406v-106h-522v778h514v-107h-398v-217h389v-106h-389z" />
    <glyph glyph-name="F.inferior" horiz-adv-x="665" 
d="M612 545v-107h-385v-229h379v-107h-379v-335h-116v778h501z" />
    <glyph glyph-name="G.inferior" horiz-adv-x="884" 
d="M412 199l383 2v-432h-97v202q-27 -88 -98 -153q-70 -64 -190 -64q-97 0 -179 49q-80 48 -131 142q-49 91 -49 213q0 120 49 211t136 141q85 49 192 49q136 0 227 -67t129 -189h-120q-26 75 -86 119q-58 43 -148 43q-73 0 -129 -39q-57 -39 -92 -111q-33 -67 -33 -159
q0 -90 35 -162t94 -111t137 -39q66 0 123 31q56 30 86 86q32 60 35 131h-274v107z" />
    <glyph glyph-name="H.inferior" horiz-adv-x="847" 
d="M621 221v324h118v-778h-118v348h-394v-348h-116v778h116v-324h394z" />
    <glyph glyph-name="I.inferior" horiz-adv-x="337" 
d="M227 -233h-116v778h116v-778z" />
    <glyph glyph-name="J.inferior" horiz-adv-x="417" 
d="M27 -233v106h63q51 0 78 18q29 19 29 76v580h116v-613q0 -82 -45 -124q-46 -43 -147 -43h-94z" />
    <glyph glyph-name="K.inferior" horiz-adv-x="768" 
d="M367 178l407 -411h-151l-394 397v-397h-116v778h116v-357l361 357h145z" />
    <glyph glyph-name="L.inferior" horiz-adv-x="600" 
d="M227 545v-672h346v-106h-462v778h116z" />
    <glyph glyph-name="M.inferior" horiz-adv-x="1128" 
d="M223 -233h-112v778h112v-778zM563 -233h-112l-224 778h115zM678 -233h-113l221 778h115zM1018 -233h-113v778h113v-778z" />
    <glyph glyph-name="N.inferior" horiz-adv-x="907" 
d="M223 -233h-112v778h112v-778zM680 -233h-119l-334 778h119zM797 -233h-115v778h115v-778z" />
    <glyph glyph-name="O.inferior" horiz-adv-x="884" 
d="M246 -199v-4q-86 48 -137 142q-50 92 -50 213t50 213t137 141q88 49 198 49q112 0 197 -49q85 -50 135 -141q49 -91 49 -211t-49 -211q-50 -93 -135 -142t-197 -49q-110 0 -198 49zM580 -121l-2 -8q57 39 92 111q32 65 32 161q0 97 -32 162q-35 72 -92 111
q-56 39 -136 39q-76 0 -137 -37q-58 -35 -94 -109q-33 -67 -33 -162q0 -89 35 -161q36 -74 94 -109q61 -37 137 -37q80 0 136 39z" />
    <glyph glyph-name="P.inferior" horiz-adv-x="741" 
d="M385 545q151 0 236 -64q86 -65 86 -180q0 -118 -86 -186t-236 -68h-158v-280h-116v778h274zM385 154l-2 -4q97 0 147 36q54 39 54 109q0 69 -52 106t-147 37h-158v-284h158z" />
    <glyph glyph-name="Q.inferior" horiz-adv-x="888" 
d="M907 -233l-143 -5l-80 66q-103 -80 -240 -80q-110 0 -198 49q-86 48 -137 142q-50 92 -50 213t50 213t137 141q88 49 198 49q112 0 197 -49q85 -50 135 -141q49 -91 49 -211q0 -81 -20 -142q-22 -68 -57 -114zM600 -102l-186 143h141l98 -80q45 74 45 184q0 97 -32 162
q-34 71 -93 111q-56 39 -135 39q-76 0 -137 -37q-58 -35 -94 -109q-33 -67 -33 -161q0 -90 35 -162q36 -74 94 -109q61 -37 137 -37q95 0 160 56z" />
    <glyph glyph-name="R.inferior" horiz-adv-x="772" 
d="M741 -233l-135 -3l-196 308h-9h-176v-308h-116v779h292q87 0 152 -27q64 -27 102 -80q37 -52 37 -123q0 -77 -43 -135q-44 -59 -121 -86zM225 436v-262h174q81 0 125 33q45 33 45 98t-45 98q-44 33 -125 33h-174z" />
    <glyph glyph-name="S.inferior" horiz-adv-x="741" 
d="M209 -217l-4 2q-67 30 -111 86q-42 53 -51 133h121q9 -76 65 -117q53 -39 136 -39q91 0 143 37q51 36 51 103q0 53 -41 80q-43 28 -135 49l-102 22q-100 21 -160 68q-58 46 -58 135q0 62 37 111q38 50 105 77q73 29 149 29q136 0 213 -57q82 -61 97 -160h-121
q-9 60 -62 90q-54 31 -125 31q-75 0 -123 -31q-47 -30 -47 -82q0 -33 19 -55q21 -24 55 -35q41 -13 98 -27l101 -22q113 -24 168 -76t55 -135q0 -78 -39 -131q-41 -57 -113 -86q-76 -31 -168 -31q-83 0 -153 31z" />
    <glyph glyph-name="T.inferior" horiz-adv-x="671" 
d="M27 545h620v-107h-252v-671h-116v671h-252v107z" />
    <glyph glyph-name="U.inferior" horiz-adv-x="835" 
d="M178 -164l4 -4q-80 83 -80 240v4v465h119v-478v-4q0 -105 51 -159q53 -56 148 -56q98 0 147 58t49 166v477h117v-465q0 -157 -76 -242q-77 -86 -239 -86q-159 0 -240 84z" />
    <glyph glyph-name="V.inferior" horiz-adv-x="784" 
d="M393 -233h-121l-258 778h125zM514 -233h-121l254 778h125z" />
    <glyph glyph-name="W.inferior" horiz-adv-x="1196" 
d="M330 -233h-121l-180 778h118zM451 -233h-119l145 778h119zM862 -233h-117l-145 778h119zM985 -233h-119l181 778h120z" />
    <glyph glyph-name="X.inferior" horiz-adv-x="815" 
d="M487 184l322 -417h-143l-258 333l-258 -333h-144l320 415l-279 363h141l220 -285l219 285h141z" />
    <glyph glyph-name="Y.inferior" horiz-adv-x="724" 
d="M586 545h133l-297 -453v-325h-117v319l-299 459h131l225 -346z" />
    <glyph glyph-name="Z.inferior" horiz-adv-x="720" 
d="M664 420l-469 -547h487v-106h-635v124l469 547h-463v107h611v-125z" />
    <glyph glyph-name="G.ss03.inferior" horiz-adv-x="860" 
d="M412 199l383 8v-66q0 -115 -45 -198q-47 -87 -129 -136t-191 -49t-194 49q-86 50 -136 142q-49 91 -49 213q0 120 49 211t136 141q85 49 192 49q136 0 227 -67q92 -68 129 -187h-120q-30 73 -89 117q-58 43 -147 43q-73 0 -129 -39q-57 -39 -92 -111q-33 -67 -33 -159
q0 -90 35 -162t94 -111t135 -39q68 0 125 31q56 30 86 86q32 59 35 127h-272v107z" />
    <glyph glyph-name="A.superior" horiz-adv-x="804" 
d="M795 778h-123l-78 226h-383l-78 -226h-123l275 778h237zM403 1554l-155 -444h309z" />
    <glyph glyph-name="B.superior" horiz-adv-x="774" 
d="M653 1124v-8q62 -50 62 -135q0 -98 -80 -154q-79 -55 -229 -55h-300v778h295q89 0 154 -24q63 -23 98 -68q35 -44 35 -102q0 -77 -53 -121q-50 -41 -146 -57q101 -3 164 -54zM524 1413v-2q-47 29 -123 29h-176v-217h176q81 0 123 26q43 27 43 80q0 57 -43 84zM408 872
l-2 -2q93 0 141 31q47 30 47 92q0 121 -186 121h-183v-242h183z" />
    <glyph glyph-name="C.superior" horiz-adv-x="835" 
d="M242 813h-9q-85 49 -135 141q-49 91 -49 211q0 122 49 213q50 93 135 142t191 49q134 0 229 -74q94 -73 129 -197h-120q-27 76 -87 127q-59 50 -147 50q-71 0 -129 -37q-56 -36 -92 -109q-33 -67 -33 -162q0 -89 35 -161t92 -111q56 -39 125 -39q92 0 154 47t92 129h121
q-41 -133 -136 -201q-94 -67 -229 -67q-101 0 -186 49z" />
    <glyph glyph-name="D.superior" horiz-adv-x="839" 
d="M387 1556q122 0 209 -43q88 -43 137 -131t49 -215t-49 -215t-137 -131q-87 -43 -209 -43h-276v778h276zM387 885l-2 4q126 0 201 72q73 70 73 208q0 139 -73 209q-75 72 -199 72h-160v-565h160z" />
    <glyph glyph-name="E.superior" horiz-adv-x="698" 
d="M227 1126v-241h406v-107h-522v778h514v-106h-398v-217h389v-107h-389z" />
    <glyph glyph-name="F.superior" horiz-adv-x="665" 
d="M612 1556v-106h-385v-229h379v-107h-379v-336h-116v778h501z" />
    <glyph glyph-name="G.superior" horiz-adv-x="884" 
d="M412 1210l383 2v-432h-97v203q-27 -89 -98 -154q-69 -63 -190 -63q-97 0 -179 49q-81 49 -131 141q-49 91 -49 213q0 120 49 211q50 92 136 142q85 49 192 49q135 0 227 -68q91 -67 129 -188h-120q-26 75 -86 119q-58 43 -148 43q-73 0 -129 -39q-57 -39 -92 -111
q-33 -67 -33 -160q0 -89 35 -161t94 -111t137 -39q66 0 123 31q56 30 86 86q32 60 35 131h-274v106z" />
    <glyph glyph-name="H.superior" horiz-adv-x="847" 
d="M621 1233v323h118v-778h-118v348h-394v-348h-116v778h116v-323h394z" />
    <glyph glyph-name="I.superior" horiz-adv-x="337" 
d="M227 778h-116v778h116v-778z" />
    <glyph glyph-name="J.superior" horiz-adv-x="417" 
d="M27 778v107h63q51 0 78 18q29 19 29 76v580h116v-613q0 -83 -45 -125q-46 -43 -147 -43h-94z" />
    <glyph glyph-name="K.superior" horiz-adv-x="768" 
d="M365 1190l407 -412h-151l-394 398v-398h-116v778h116v-356l361 356h145z" />
    <glyph glyph-name="L.superior" horiz-adv-x="600" 
d="M227 1556v-671h346v-107h-462v778h116z" />
    <glyph glyph-name="M.superior" horiz-adv-x="1128" 
d="M223 778h-112v778h112v-778zM563 778h-112l-224 778h115zM678 778h-113l221 778h115zM1018 778h-113v778h113v-778z" />
    <glyph glyph-name="N.superior" horiz-adv-x="907" 
d="M223 778h-112v778h112v-778zM680 778h-119l-334 778h119zM797 778h-115v778h115v-778z" />
    <glyph glyph-name="O.superior" horiz-adv-x="884" 
d="M246 813v-4q-87 49 -137 141t-50 213t50 213q51 94 137 142q88 49 198 49q112 0 197 -49t135 -142q49 -91 49 -211t-49 -211q-50 -92 -135 -141t-197 -49q-110 0 -198 49zM580 891l-2 -8q58 40 92 110q32 65 32 162t-32 162q-34 70 -92 110q-56 39 -136 39
q-78 0 -137 -36q-58 -35 -94 -109q-33 -67 -33 -162q0 -90 35 -162t94 -108q61 -37 137 -37q80 0 136 39z" />
    <glyph glyph-name="P.superior" horiz-adv-x="741" 
d="M385 1556q152 0 236 -63q86 -65 86 -180q0 -119 -86 -187q-85 -67 -236 -67h-158v-281h-116v778h274zM385 1165l-2 -4q95 0 147 37q54 39 54 109q0 69 -52 106t-147 37h-158v-285h158z" />
    <glyph glyph-name="Q.superior" horiz-adv-x="888" 
d="M907 778l-143 -4l-80 66q-103 -80 -240 -80q-110 0 -198 49q-87 49 -137 141t-50 213t50 213q51 94 137 142q88 49 198 49q112 0 197 -49t135 -142q49 -91 49 -211q0 -80 -20 -141q-23 -70 -57 -115zM600 909l-186 144h141l98 -80q45 74 45 184q0 97 -32 162
q-34 71 -93 111q-55 38 -135 38q-78 0 -137 -36q-58 -35 -94 -109q-33 -67 -33 -162q0 -90 35 -162t94 -108q61 -37 137 -37q96 0 160 55z" />
    <glyph glyph-name="R.superior" horiz-adv-x="772" 
d="M741 778l-135 -2l-196 307h-9h-176v-307h-116v778h292q90 0 152 -26q64 -27 102 -80q37 -52 37 -123q0 -77 -43 -135q-44 -59 -121 -86zM225 1448v-262h174q81 0 125 33q45 33 45 98t-45 98q-44 33 -125 33h-174z" />
    <glyph glyph-name="S.superior" horiz-adv-x="741" 
d="M209 795l-4 2q-67 30 -111 86q-42 53 -51 133h121q9 -76 65 -117q53 -39 136 -39q91 0 143 37q51 36 51 102q0 53 -41 80q-43 29 -135 49l-102 23q-100 21 -160 68q-58 46 -58 135q0 61 37 110q39 52 105 78q73 29 149 29q134 0 213 -58q83 -61 97 -159h-121
q-9 60 -62 90q-54 31 -125 31q-75 0 -123 -31q-47 -30 -47 -82q0 -33 19 -55q21 -24 55 -35q41 -13 98 -27l101 -22q113 -24 168 -76t55 -135q0 -78 -39 -131q-41 -57 -113 -86q-76 -31 -168 -31q-83 0 -153 31z" />
    <glyph glyph-name="T.superior" horiz-adv-x="671" 
d="M27 1556h620v-106h-252v-672h-116v672h-252v106z" />
    <glyph glyph-name="U.superior" horiz-adv-x="833" 
d="M178 848l4 -4q-80 83 -80 239v4v465h119v-477v-4q0 -106 51 -160q52 -55 148 -55q99 0 147 57q49 58 49 166v477h117v-464q0 -157 -76 -242q-77 -86 -239 -86q-159 0 -240 84z" />
    <glyph glyph-name="V.superior" horiz-adv-x="784" 
d="M393 778h-121l-258 778h125zM514 778h-121l254 778h125z" />
    <glyph glyph-name="W.superior" horiz-adv-x="1196" 
d="M330 778h-121l-180 778h118zM451 778h-119l145 778h119zM862 778h-117l-145 778h119zM985 778h-119l181 778h120z" />
    <glyph glyph-name="X.superior" horiz-adv-x="815" 
d="M487 1196l322 -418h-143l-258 334l-258 -334h-144l320 416l-279 362h141l220 -284l219 284h141z" />
    <glyph glyph-name="Y.superior" horiz-adv-x="724" 
d="M586 1556h133l-297 -452v-326h-117v320l-299 458h131l225 -346z" />
    <glyph glyph-name="Z.superior" horiz-adv-x="720" 
d="M664 1432l-469 -547h487v-107h-635v125l469 547h-463v106h611v-124z" />
    </font>
</defs>
</svg>
