<?xml version="1.0" standalone="no"?>
<!DOCTYPE svg PUBLIC "-//W3C//DTD SVG 1.1//EN" "http://www.w3.org/Graphics/SVG/1.1/DTD/svg11.dtd" >
<svg xmlns="http://www.w3.org/2000/svg" xmlns:xlink="http://www.w3.org/1999/xlink" version="1.1">
<metadata>
Created by FontForge 20170731 at Fri Apr 21 21:41:31 2023
 By Aleksey,,,
(c) 2014-2020. Copyright by TYPE.WELTKERN :. All rights reserved.
</metadata>
<defs>
<font id="TWKEverett-Hairline" horiz-adv-x="1536" >
  <font-face 
    font-family="TWK Everett"
    font-weight="250"
    font-stretch="normal"
    units-per-em="2048"
    panose-1="2 11 2 4 0 0 0 0 0 0"
    ascent="1638"
    descent="-410"
    x-height="1077"
    cap-height="1556"
    bbox="-1659 -543 6707 2064"
    underline-thickness="30"
    underline-position="-437"
    unicode-range="U+000D-FEFF"
  />
<missing-glyph horiz-adv-x="1462" 
d="M1208 0h-954v1556h954v-1556zM293 1520v-1483h876v1483h-876z" />
    <glyph glyph-name="fi" unicode="fi" horiz-adv-x="1103" 
d="M909 1077l-2 -1075h-37v1042h-544v-1042h-37v1042h-266v35h266v236q0 121 61 182q62 62 180 62h125v-35h-125q-105 0 -153 -51q-49 -52 -49 -160v-236h581zM870 1317v242h37v-242h-37z" />
    <glyph glyph-name="fl" unicode="fl" horiz-adv-x="1103" 
d="M909 0l-39 2v1522h-340q-105 0 -153 -51q-49 -52 -49 -160v-236h329v-35h-329v-1042h-37v1042h-266v35h266v236q0 121 61 182t180 61h377v-1556z" />
    <glyph glyph-name="W_W_W" unicode="WWW" horiz-adv-x="6746" 
d="M594 0h-43l-512 1556h43zM678 0h-43l438 1556h43zM1638 0h-43l-438 1556h43zM1722 0h-43l512 1556h43zM2830 0h-43l-512 1556h43zM2914 0h-43l439 1556h43zM3875 0h-43l-438 1556h43zM3959 0h-43l512 1556h43zM5067 0h-43l-512 1556h43zM5151 0h-43l438 1556h43zM6111 0
h-43l-438 1556h43zM6195 0h-43l512 1556h43z" />
    <glyph glyph-name="f_f" unicode="ff" horiz-adv-x="1355" 
d="M1210 1522l-4 4q-105 0 -153 -51q-49 -52 -49 -160v-236h329v-35h-329v-1042h-37v1042h-641v-1042h-37v1042h-266v35h266v236q0 121 61 182q62 62 180 62h125v-35h-125q-105 0 -153 -51q-49 -52 -49 -160v-236h641v236q0 121 61 182t180 61h125v-34h-125z" />
    <glyph glyph-name="f_f_i" unicode="ffi" horiz-adv-x="1781" 
d="M1587 1077l-4 -1073h-37v1043h-545v-1043h-36v1043h-641v-1043h-37v1043h-267v34h267v236q0 121 61 182q62 62 180 62h125v-35h-125q-105 0 -153 -51q-49 -52 -49 -160v-236h641v236q0 121 61 182q62 62 180 62h125v-35h-125q-105 0 -153 -51q-49 -52 -49 -160v-236h581z
M1546 1319v242h37v-242h-37z" />
    <glyph glyph-name="f_f_l" unicode="ffl" horiz-adv-x="1781" 
d="M1550 1556l33 5v-1557h-37v1043h-545v-1043h-36v1043h-641v-1043h-37v1043h-267v34h267v236q0 121 61 182q62 62 180 62h125v-35h-125q-105 0 -153 -51q-49 -52 -49 -160v-236h641v236q0 121 61 182q62 62 180 62h125v-35h-125q-105 0 -153 -51q-49 -52 -49 -160v-236
h544v479z" />
    <glyph glyph-name="f_j" unicode="fj" horiz-adv-x="1103" 
d="M909 1077v-1237q0 -119 -61 -180t-180 -61h-41v34h41q104 0 153 52t49 159v1200h-544v-1042h-37v1042h-266v35h266v236q0 121 61 182q62 62 180 62h125v-35h-125q-105 0 -153 -51q-49 -52 -49 -160v-236h581zM872 1313v241h37v-241h-37z" />
    <glyph glyph-name="f_t" unicode="ft" horiz-adv-x="1359" 
d="M997 1042l-4 -798v-4q0 -106 51 -154q52 -49 154 -49h129v-35h-129q-117 0 -178 61q-62 62 -62 179v4v798h-632v-1042h-37v1042h-266v35h266v236q0 121 61 182q62 62 180 62h125v-35h-125q-105 0 -153 -51q-49 -52 -49 -160v-236h633v254h36v-254h334v-35h-334z" />
    <glyph glyph-name="t_f" unicode="tf" horiz-adv-x="1359" 
d="M1214 1522h-4q-104 0 -153 -52t-49 -159v-236h329v-35h-329v-1042h-37v1042h-654v-798v-4q0 -105 52 -154t153 -49h129v-35h-129q-117 0 -178 61t-61 179v4v798h-263v35h263v254h36v-254h654v236q0 121 61 182t180 61h125v-34h-125z" />
    <glyph glyph-name="t_t" unicode="tt" horiz-adv-x="1363" 
d="M1001 1042l-4 -802v-4q0 -105 52 -154t153 -49h129v-35h-129q-117 0 -178 61t-61 179v4v798h-646v-798v-4q0 -105 52 -154t153 -49h129v-35h-129q-117 0 -178 61t-61 179v4v798h-263v35h263v254h36v-254h646v254h36v-254h334v-35h-334z" />
    <glyph glyph-name="w_w_w" unicode="www" horiz-adv-x="5238" 
d="M469 0h-39l-383 1077h39zM549 0h-39l321 1077h39zM1272 0h-39l-322 1077h39zM1352 0h-39l383 1077h39zM2198 0h-39l-383 1077h39zM2277 0h-39l322 1077h39zM3000 0h-39l-321 1077h39zM3080 0h-39l383 1077h39zM3926 0h-39l-383 1077h39zM4006 0h-39l322 1077h38zM4729 0
h-39l-322 1077h39zM4809 0h-39l383 1077h39z" />
    <glyph glyph-name=".notdef" horiz-adv-x="1462" 
d="M1208 0h-954v1556h954v-1556zM293 1520v-1483h876v1483h-876z" />
    <glyph glyph-name=".null" horiz-adv-x="0" 
 />
    <glyph glyph-name="nonmarkingreturn" unicode="&#xd;" horiz-adv-x="573" 
 />
    <glyph glyph-name="space" unicode=" " horiz-adv-x="573" 
 />
    <glyph glyph-name="exclam" unicode="!" horiz-adv-x="491" 
d="M264 479h-37v1077h37v-1077zM264 0h-37v231h37v-231z" />
    <glyph glyph-name="quotedbl" unicode="&#x22;" horiz-adv-x="557" 
d="M195 1085h-31l-6 471h43zM393 1085h-31l-6 471h43z" />
    <glyph glyph-name="numbersign" unicode="#" horiz-adv-x="1560" 
d="M1483 1077v-33h-365l-106 -522h358v-33h-366l-101 -489h-37l101 489h-494l-100 -489h-37l100 489h-358v33h366l107 522h-361v33h369l98 479h37l-98 -479h494l98 479h37l-99 -479h357zM481 522h494l106 522h-493z" />
    <glyph glyph-name="dollar" unicode="$" horiz-adv-x="1282" 
d="M1100 209l-6 -2q-60 -105 -179 -168q-116 -61 -274 -64v-245h-39v245q-126 3 -240 66q-109 60 -180 166t-86 242h41q15 -125 80 -220q66 -97 166 -151q103 -56 221 -62v807l-74 17q-109 24 -190 61q-84 38 -139 111q-56 74 -56 190q0 99 60 187q59 87 164 139
q104 52 237 55v236h39v-236q126 -3 232 -53q104 -49 172 -141q69 -94 84 -218h-41q-15 114 -76 195q-62 83 -160 129t-211 49v-692l88 -21q157 -38 240 -81q95 -50 141 -123q47 -74 47 -178q0 -133 -61 -240zM600 856l-2 684q-124 -3 -217 -49q-96 -47 -148 -123
q-53 -77 -53 -172q0 -104 45 -166t131 -100t222 -68zM637 12l-2 2q141 3 252 60q109 56 166 153q59 100 59 224q0 110 -59 178q-56 65 -152 104q-94 38 -227 68l-37 8v-797z" />
    <glyph glyph-name="percent" unicode="%" horiz-adv-x="1812" 
d="M233 752l-4 -9q-67 50 -106 152q-37 98 -37 238q0 139 37 237q38 100 108 152q71 53 166 53q98 0 166 -51q72 -53 109 -152q37 -98 37 -235q0 -138 -37 -236q-37 -97 -107 -149t-166 -52t-166 52zM492 -8h-41l862 1556h41zM594 829l-4 -4q74 106 74 301q0 136 -33 224
q-36 95 -94 139q-62 47 -146 47q-85 0 -145 -45q-59 -45 -94 -137q-33 -88 -33 -224q0 -195 74 -301q73 -104 200 -104q128 0 201 104zM1237 16l-4 -8q-69 51 -107 152q-36 95 -36 237q0 143 36 238q37 97 109 151q73 54 166 54q96 0 166 -52q71 -53 108 -151t37 -236
q0 -137 -37 -235q-37 -99 -106 -150q-68 -51 -166 -51t-166 51zM1597 94l-4 -4q74 106 74 301q0 135 -33 223q-36 96 -94 140q-62 47 -145 47q-86 0 -146 -45q-59 -44 -94 -138q-33 -88 -33 -223q0 -195 74 -301q73 -104 201 -104q127 0 200 104z" />
    <glyph glyph-name="ampersand" unicode="&#x26;" horiz-adv-x="1478" 
d="M1434 0l-54 -6l-288 321l-2 -4q-88 -149 -213 -245q-124 -95 -304 -95q-131 0 -241 52q-114 54 -176 149q-66 101 -66 236t57 227q60 96 150 160q95 67 233 133l9 4l-39 43q-74 83 -113 153q-37 67 -37 152q0 82 39 147q41 69 111 109q71 41 159 41q94 0 162 -39
q71 -40 111 -111q39 -68 39 -159q0 -78 -45 -135q-46 -59 -111 -99q-59 -37 -172 -92l-39 -18l486 -541l241 408h43l-258 -437zM573 946l39 19q138 69 179 94q61 37 98 86t37 121q0 132 -74 200t-195 68q-78 0 -137 -33q-62 -35 -96 -92q-35 -59 -35 -135q0 -53 19 -105
q17 -46 53 -92q42 -54 88 -104zM1065 340l-504 561l-10 -4q-149 -73 -234 -135q-89 -64 -141 -150q-51 -83 -51 -202q0 -126 63 -215q66 -93 166 -142q101 -49 215 -49q121 0 211 43t156 115q64 70 123 170z" />
    <glyph glyph-name="quotesingle" unicode="'" horiz-adv-x="358" 
d="M195 1085h-31l-6 471h43z" />
    <glyph glyph-name="parenleft" unicode="(" horiz-adv-x="540" 
d="M457 -401l-4 -2q-334 463 -334 989q0 284 92 522q88 228 244 448h45q-157 -217 -246 -448q-92 -238 -92 -522q0 -518 340 -987h-45z" />
    <glyph glyph-name="parenright" unicode=")" horiz-adv-x="540" 
d="M39 -401l-4 2q340 469 340 987q0 284 -92 522q-90 234 -246 449h45q155 -219 244 -449q92 -238 92 -522q0 -526 -334 -989h-45z" />
    <glyph glyph-name="asterisk" unicode="*" horiz-adv-x="919" 
d="M803 1559l10 -29l-330 -111l219 -293l-26 -18l-215 289l-217 -289l-27 18l219 293l-330 111l11 29l327 -111v338h31v-338z" />
    <glyph glyph-name="plus" unicode="+" horiz-adv-x="1294" 
d="M668 569h518v-37h-518v-532h-41v532h-518v37h518v508h41v-508z" />
    <glyph glyph-name="comma" unicode="," horiz-adv-x="401" 
d="M182 0v231h37v-239l-119 -244h-41z" />
    <glyph glyph-name="hyphen" unicode="-" horiz-adv-x="833" 
d="M725 555h-616v33h616v-33z" />
    <glyph glyph-name="period" unicode="." horiz-adv-x="401" 
d="M219 0h-37v231h37v-231z" />
    <glyph glyph-name="slash" unicode="/" horiz-adv-x="874" 
d="M115 0h-39l684 1556h39z" />
    <glyph glyph-name="zero" unicode="0" horiz-adv-x="1409" 
d="M406 72l-9 -9q-123 92 -192 275q-68 180 -68 434t68 434q68 181 194 275q125 94 299 94t299 -94q128 -96 195 -273q68 -180 68 -432t-68 -432q-67 -178 -193 -272q-127 -95 -297 -95q-169 0 -296 95zM969 92v-4q115 84 180 258q63 168 63 422t-63 422q-65 174 -180 258
q-118 86 -275 86q-156 0 -274 -86q-115 -84 -180 -258q-64 -171 -64 -420t64 -420q65 -174 180 -258q118 -86 274 -86q157 0 275 86z" />
    <glyph glyph-name="one" unicode="1" horiz-adv-x="673" 
d="M393 1556l39 -2v-1556h-39v1305h-334v36h258q37 0 54 7q15 6 18 18q4 16 4 41v151z" />
    <glyph glyph-name="two" unicode="2" horiz-adv-x="1265" 
d="M137 37l1020 -6v-37h-1063v59l680 629q100 93 154 156q58 68 96 147q37 78 37 176q0 100 -49 185q-51 88 -150 139q-103 53 -241 53q-137 0 -236 -45q-102 -47 -160 -125q-58 -79 -67 -184h-41q12 120 80 209q67 87 178 137q110 49 252 49q152 0 260 -57t168 -154
q57 -92 57 -203q0 -103 -39 -182q-43 -88 -100 -156q-63 -76 -160 -165z" />
    <glyph glyph-name="three" unicode="3" horiz-adv-x="1308" 
d="M938 782l-6 -2q95 -44 166 -127q69 -81 69 -213q0 -157 -75 -260t-203 -153q-127 -50 -277 -50q-132 0 -239 43q-108 43 -176 130t-86 204h41q15 -107 77 -184t160 -117q95 -39 225 -39q138 0 256 47t189 142t71 237q0 124 -73 209t-189 129q-113 43 -237 43h-66v37h66
q114 0 215 43q103 44 164 123t61 178q0 96 -55 172t-158 123t-240 47q-122 0 -212 -43q-93 -44 -148 -117q-54 -71 -63 -165h-41q9 101 71 184q61 82 164 129t227 47q144 0 254 -45q116 -47 179 -131q65 -86 65 -201q0 -113 -59 -190q-58 -76 -142 -117q-81 -40 -165 -55
q98 -16 190 -58z" />
    <glyph glyph-name="four" unicode="4" horiz-adv-x="1294" 
d="M977 561h252v-37h-252v-524h-39v524h-883v60l793 972h49l-811 -995h852v995h39v-995z" />
    <glyph glyph-name="five" unicode="5" horiz-adv-x="1314" 
d="M948 979h-8q118 -64 186 -184q68 -121 68 -279q0 -159 -68 -283q-67 -122 -188 -190t-276 -68q-127 0 -242 48q-109 46 -184 133q-74 86 -95 196h41q18 -101 86 -178q66 -75 172 -119q104 -43 228 -43q144 0 256 62q110 61 172 176q61 113 61 264q0 150 -61 260
q-62 112 -172 170q-114 60 -252 60q-170 0 -295 -82q-127 -83 -191 -217l-39 6l86 841h883v-36h-848l-75 -750q59 117 182 197q122 79 301 79q155 0 272 -63z" />
    <glyph glyph-name="six" unicode="6" horiz-adv-x="1366" 
d="M991 950l-6 -14q120 -65 184 -180q64 -116 64 -275q0 -156 -70 -272q-69 -115 -190 -180q-119 -64 -264 -64q-176 0 -301 88q-127 89 -195 269t-68 446q0 253 72 438q70 181 197 273t293 92q186 0 311 -96q123 -94 182 -269h-41q-53 153 -166 240q-116 90 -288 90
q-166 0 -285 -96q-118 -95 -176 -264q-58 -168 -58 -394q0 -92 9 -172q27 125 104 217q79 95 184 140q109 47 226 47q163 0 282 -64zM954 63l2 -2q111 64 172 175q62 112 62 245q0 138 -55 248q-55 111 -166 172q-112 62 -264 62q-139 0 -254 -68q-118 -70 -177 -168
q-61 -101 -61 -199q0 -123 55 -245q56 -124 166 -203q112 -80 271 -80q141 0 249 63z" />
    <glyph glyph-name="seven" unicode="7" horiz-adv-x="1032" 
d="M47 1520v36h942v-59l-782 -1497h-45l794 1520h-909z" />
    <glyph glyph-name="eight" unicode="8" horiz-adv-x="1372" 
d="M1008 784l-13 -2q92 -44 160 -133t68 -223q0 -139 -76 -240q-75 -100 -203 -153q-127 -53 -270 -53q-144 0 -271 53t-202 153q-76 101 -76 240q0 136 68 225q69 90 159 133q92 44 170 56q-78 15 -153 55q-78 41 -133 117q-56 77 -56 190q0 105 62 191t174 135
q113 49 264 49t264 -49q112 -49 174 -135t62 -191q0 -113 -56 -190q-55 -76 -133 -117q-75 -40 -153 -55q78 -12 170 -56zM268 1022h8q49 -76 152 -123q99 -45 252 -45t252 45q101 46 151 123t50 172t-56 172t-159 123q-102 45 -242 45t-242 -45q-104 -46 -160 -123
q-55 -76 -55 -172t49 -172zM930 57h-8q117 46 188 142q72 97 72 227q0 131 -72 221q-70 88 -186 131t-248 43t-248 -43t-186 -131q-72 -90 -72 -221q0 -130 72 -227q71 -96 188 -142q118 -47 250 -47t250 47z" />
    <glyph glyph-name="nine" unicode="9" horiz-adv-x="1366" 
d="M958 1491v2q129 -90 195 -266q68 -180 68 -445q0 -258 -70 -438t-197 -272t-292 -92q-187 0 -312 96q-123 95 -182 268h41q53 -153 166 -240q113 -88 289 -88q166 0 286 97q118 95 176 264q60 174 60 393q0 101 -8 172q-26 -123 -105 -217q-75 -90 -184 -137t-225 -47
q-166 0 -283 63q-120 65 -184 180q-64 116 -64 275q0 158 70 274q72 120 190 183q117 63 264 63q176 0 301 -88zM909 647h-4q116 69 176 168q62 103 62 201q0 122 -56 246t-165 202q-112 80 -271 80q-142 0 -250 -63q-111 -65 -172 -174q-61 -110 -61 -246q0 -138 55 -248
q55 -111 166 -172q110 -61 264 -61q143 0 256 67z" />
    <glyph glyph-name="colon" unicode=":" horiz-adv-x="401" 
d="M219 0h-37v231h37v-231zM219 676h-37v231h37v-231z" />
    <glyph glyph-name="semicolon" unicode=";" horiz-adv-x="403" 
d="M182 0v231h37v-239l-119 -244h-41zM221 676h-37v231h37v-231z" />
    <glyph glyph-name="less" unicode="&#x3c;" horiz-adv-x="1165" 
d="M106 565l918 459v-41l-885 -442l885 -443v-41l-918 459v49z" />
    <glyph glyph-name="equal" unicode="=" horiz-adv-x="1298" 
d="M1126 729h-954v37h954v-37zM1126 338h-954v37h954v-37z" />
    <glyph glyph-name="greater" unicode="&#x3e;" horiz-adv-x="1165" 
d="M141 983v41l918 -459v-49l-918 -459v41l885 443z" />
    <glyph glyph-name="question" unicode="?" horiz-adv-x="1028" 
d="M453 479l-2 -2q0 140 47 232q48 95 153 178l68 55q63 52 104 96q40 43 60 90q22 52 22 115q0 74 -43 141t-133 111q-87 43 -225 43q-109 0 -193 -37q-85 -37 -141 -108q-55 -70 -64 -172h-38q9 114 71 194t158 121t207 41q128 0 229 -43t156 -119t55 -174q0 -66 -29 -129
q-27 -58 -67 -98q-35 -35 -105 -92l-67 -56q-74 -62 -111 -112q-38 -52 -57 -121q-19 -68 -19 -154h-36zM487 -2h-36v231h36v-231z" />
    <glyph glyph-name="at" unicode="@" horiz-adv-x="2025" 
d="M1452 1231l-16 -17q206 -120 325 -321q121 -204 121 -444q0 -248 -80 -369q-79 -119 -213 -119q-67 0 -131 31q-59 29 -98 90q-36 56 -39 141q-43 -113 -141 -186q-100 -74 -248 -74q-102 0 -176 39q-78 41 -121 111t-43 155q0 106 67 164q68 59 156 80q107 25 219 41
l291 39v20v4q0 92 -33 168q-34 80 -108 129q-74 50 -189 50q-105 0 -178 -37t-110 -95t-43 -124h-39q9 82 53 147q42 63 123 104q77 39 194 39q127 0 207 -51q82 -52 123 -133q39 -77 39 -166v-4v-389v-4q0 -121 63 -184q64 -64 166 -64q254 0 254 453q0 231 -114 428
q-115 198 -310 311q-198 115 -426 115t-426 -115q-196 -113 -309 -309q-115 -198 -115 -426q0 -230 115 -428t311 -312q197 -114 428 -114q204 0 418 112l21 -32q-210 -115 -439 -115q-241 0 -448 121q-206 120 -326 323q-118 199 -118 447q0 241 120 444q121 204 326 324
q207 121 449 121q244 0 448 -119zM1143 47v2q85 52 133 146q45 89 45 206v150l-246 -31q-145 -18 -233 -39q-92 -22 -152 -73q-61 -52 -61 -144q0 -81 41 -143q39 -59 110 -94q67 -33 154 -33q123 0 209 53z" />
    <glyph glyph-name="A" unicode="A" horiz-adv-x="1470" 
d="M1452 0h-45l-229 549h-885l-230 -549h-45l652 1556h45l-406 -968h852l-405 968h45z" />
    <glyph glyph-name="B" unicode="B" horiz-adv-x="1431" 
d="M1096 750l-2 -5q99 -51 155 -137t56 -198q0 -130 -68 -222q-67 -91 -197 -141q-128 -49 -315 -49h-489v1556h489q157 0 270 -45q118 -47 183 -133t65 -202q0 -158 -104 -246q-108 -91 -279 -117q135 -9 236 -61zM1143 1352v-6q-59 77 -166 120t-252 43h-449v-690h449
q145 0 252 43t166 123q57 77 57 184q0 108 -57 183zM725 29q265 0 399 98q136 100 136 276q0 177 -136 277q-134 98 -399 98h-449v-749h449z" />
    <glyph glyph-name="C" unicode="C" horiz-adv-x="1581" 
d="M471 78l-6 -2q-159 104 -248 284q-92 186 -92 416q0 234 92 416q90 179 252 283q159 102 354 102q166 0 297 -64q135 -66 221 -174q90 -113 136 -249h-43q-73 200 -228 325q-153 123 -379 123q-179 0 -327 -98q-153 -101 -240 -273q-88 -175 -88 -393t88 -393
q86 -171 236 -272q147 -99 315 -99q242 0 399 121q158 121 234 332h43q-83 -237 -252 -363q-168 -125 -424 -125q-182 0 -340 103z" />
    <glyph glyph-name="D" unicode="D" horiz-adv-x="1619" 
d="M727 1556v-4q228 0 401 -92t265 -268t92 -416t-92 -416t-265 -268t-401 -92h-489v1556h489zM727 35q211 0 375 86q164 85 252 252q90 169 90 401q0 233 -90 402q-88 165 -252 251t-375 86h-448v-1478h448z" />
    <glyph glyph-name="E" unicode="E" horiz-adv-x="1306" 
d="M279 788v-749h909v-39h-950v1556h931v-38h-890v-691h876v-39h-876z" />
    <glyph glyph-name="F" unicode="F" horiz-adv-x="1245" 
d="M1153 1556v-38h-874v-715h862v-39h-862v-764h-41v1556h915z" />
    <glyph glyph-name="G" unicode="G" horiz-adv-x="1675" 
d="M797 772l706 -2v-772h-41v471q-26 -120 -104 -233q-77 -111 -209 -185q-133 -74 -313 -74q-198 0 -359 103q-162 104 -252 285q-92 186 -92 415q0 230 92 416q90 181 252 285q159 102 350 102q172 0 301 -63q138 -67 220 -174q87 -113 133 -250h-43q-73 200 -228 325
q-153 123 -383 123q-177 0 -325 -98q-154 -102 -240 -272q-88 -175 -88 -394q0 -218 88 -393q86 -170 240 -272q150 -99 332 -99q173 0 317 84q143 84 225 246q84 166 84 381v6h-663v39z" />
    <glyph glyph-name="H" unicode="H" horiz-adv-x="1611" 
d="M1333 827v729h41v-1556h-41v788h-1054v-788h-41v1556h41v-729h1054z" />
    <glyph glyph-name="I" unicode="I" horiz-adv-x="516" 
d="M279 0h-41v1556h41v-1556z" />
    <glyph glyph-name="J" unicode="J" horiz-adv-x="675" 
d="M41 0l2 37h98q87 0 146 18q60 18 90 68q31 51 31 137v1294h41v-1294q0 -144 -80 -203q-77 -57 -230 -57h-98z" />
    <glyph glyph-name="K" unicode="K" horiz-adv-x="1384" 
d="M342 823l1044 -823h-63l-1044 821v-821h-41v1556h41v-731l960 731h66z" />
    <glyph glyph-name="L" unicode="L" horiz-adv-x="1067" 
d="M279 1556v-1517h747v-39h-788v1556h41z" />
    <glyph glyph-name="M" unicode="M" horiz-adv-x="2097" 
d="M279 0h-41v1556h41v-1556zM1028 0h-45l-664 1556h46zM1114 0h-45l664 1556h45zM1860 0h-41v1556h41v-1556z" />
    <glyph glyph-name="N" unicode="N" horiz-adv-x="1687" 
d="M279 0h-41v1556h41v-1556zM1368 0h-47l-1002 1556h48zM1450 0h-41v1556h41v-1556z" />
    <glyph glyph-name="O" unicode="O" horiz-adv-x="1699" 
d="M479 78v-4q-166 104 -256 282q-92 182 -92 416t92 416q90 178 256 282q165 103 369 103q209 0 369 -100q165 -103 256 -283q92 -182 92 -416t-92 -416q-90 -178 -256 -282q-162 -101 -369 -101q-204 0 -369 103zM1196 109q156 101 242 272q88 175 88 393t-88 393
q-87 173 -242 273q-151 98 -346 98t-346 -98q-155 -100 -242 -273q-88 -175 -88 -393t88 -393q86 -171 242 -272q153 -99 346 -99t346 99z" />
    <glyph glyph-name="P" unicode="P" horiz-adv-x="1374" 
d="M692 1556v-8q183 0 314 -49q133 -50 206 -151q74 -103 74 -252t-74 -252q-74 -102 -206 -152q-131 -49 -314 -49h-413v-643h-41v1556h454zM692 674v-4q264 0 408 106q147 108 147 314q0 205 -147 313q-144 106 -408 106h-413v-835h413z" />
    <glyph glyph-name="Q" unicode="Q" horiz-adv-x="1708" 
d="M1753 0l-70 -4l-319 194q-98 -104 -229 -159q-133 -56 -283 -56q-204 0 -369 103q-166 104 -256 282q-92 182 -92 416t92 416q91 180 256 283q163 102 369 102q209 0 369 -100q165 -103 256 -283q92 -182 92 -416q0 -164 -47 -307q-45 -137 -136 -248zM1112 63
q122 53 213 152l-444 270h71l398 -241q87 104 133 237q47 136 47 293q0 218 -88 393q-87 173 -242 273q-151 98 -346 98t-346 -98q-155 -100 -242 -273q-88 -175 -88 -393t88 -393q86 -171 242 -272q153 -99 346 -99q137 0 258 53z" />
    <glyph glyph-name="R" unicode="R" horiz-adv-x="1402" 
d="M1325 0l-49 4l-492 723h-34h-471v-723h-41v1557h512q149 0 264 -50q116 -50 176 -143q61 -94 61 -227q0 -123 -51 -209q-52 -88 -147 -141q-93 -52 -222 -64zM279 766l471 2q137 0 241 43q102 42 162 127q57 80 57 203q0 122 -57 205q-58 85 -162 131q-102 45 -241 45
h-471v-756z" />
    <glyph glyph-name="S" unicode="S" horiz-adv-x="1368" 
d="M406 37l-5 2q-123 58 -202 166q-81 110 -99 246h43q18 -127 93 -228q73 -98 188 -151q117 -54 246 -54q159 0 280 56q122 56 185 153t63 226q0 95 -49 159q-51 67 -150 109q-105 45 -272 84l-158 35q-129 28 -215 67q-88 41 -147 111q-57 69 -57 184q0 105 65 191
q65 87 182 139q114 51 267 51q141 0 260 -49t196 -141q76 -90 94 -222h-43q-15 114 -86 197t-180 129q-107 45 -241 45q-139 0 -246 -43q-106 -43 -166 -121q-57 -75 -57 -176q0 -98 47 -160q44 -58 139 -100q86 -38 242 -74l157 -34q172 -38 271 -89q101 -52 147 -122
q47 -71 47 -170q0 -139 -67 -246q-66 -106 -197 -168q-130 -62 -303 -62q-146 0 -272 60z" />
    <glyph glyph-name="T" unicode="T" horiz-adv-x="1232" 
d="M41 1556h1151v-38h-555v-1518h-41v1518h-555v38z" />
    <glyph glyph-name="U" unicode="U" horiz-adv-x="1597" 
d="M358 143v-2q-141 167 -141 477v5v931h41v-931v-5q0 -292 135 -448t404 -156q266 0 403 158q135 156 135 453v931h41v-931q0 -311 -141 -480q-140 -168 -438 -168t-439 166z" />
    <glyph glyph-name="V" unicode="V" horiz-adv-x="1443" 
d="M702 0h-45l-637 1556h46zM788 0h-45l635 1556h45z" />
    <glyph glyph-name="W" unicode="W" horiz-adv-x="2273" 
d="M594 0h-43l-512 1556h43zM678 0h-43l438 1556h43zM1638 0h-43l-438 1556h43zM1722 0h-43l512 1556h43z" />
    <glyph glyph-name="X" unicode="X" horiz-adv-x="1511" 
d="M784 846l713 -846h-53l-688 817l-688 -817h-54l713 846l-602 710h51l580 -684l579 684h51z" />
    <glyph glyph-name="Y" unicode="Y" horiz-adv-x="1302" 
d="M1243 1556h47l-618 -849v-707h-41v707l-619 849h47l592 -813z" />
    <glyph glyph-name="Z" unicode="Z" horiz-adv-x="1320" 
d="M1237 1495l-1135 -1456h1172v-39h-1206v61l1134 1457h-1122v38h1157v-61z" />
    <glyph glyph-name="bracketleft" unicode="[" horiz-adv-x="563" 
d="M514 1556v-34h-252v-1889h252v-34h-289v1957h289z" />
    <glyph glyph-name="backslash" unicode="\" horiz-adv-x="874" 
d="M799 0h-39l-684 1556h39z" />
    <glyph glyph-name="bracketright" unicode="]" horiz-adv-x="563" 
d="M49 1522v34h289v-1957h-289v34h252v1889h-252z" />
    <glyph glyph-name="asciicircum" unicode="^" horiz-adv-x="1079" 
d="M567 1556l412 -782h-43l-397 758l-398 -758h-41l410 782h57z" />
    <glyph glyph-name="underscore" unicode="_" horiz-adv-x="999" 
d="M954 -33h-909v33h909v-33z" />
    <glyph glyph-name="grave" unicode="`" horiz-adv-x="442" 
d="M375 1257h-39l-268 299h47z" />
    <glyph glyph-name="a" unicode="a" horiz-adv-x="1142" 
d="M788 1042l-4 -4q92 -58 134 -143q43 -87 43 -184v-4v-713h-37v262q-49 -126 -154 -205q-106 -80 -270 -80q-108 0 -193 43q-84 43 -131 117t-47 170q0 108 70 172q71 65 172 92q118 31 241 47l318 41v25v4q0 100 -37 184q-39 88 -119 142q-82 55 -209 55q-117 0 -194 -39
q-81 -41 -123 -104q-43 -64 -49 -138h-39q9 92 57 160q49 70 137 113q87 43 209 43q136 0 225 -56zM729 66h2q98 61 146 159q49 101 49 228v163l-271 -34q-160 -21 -264 -45q-101 -24 -166 -80q-63 -54 -63 -154q0 -91 45 -156q45 -66 123 -104q75 -37 168 -37q134 0 231 60
z" />
    <glyph glyph-name="b" unicode="b" horiz-adv-x="1296" 
d="M944 1030l-4 4q116 -72 176 -198q62 -130 62 -295t-62 -295t-174 -199q-113 -70 -258 -70q-113 0 -207 48q-93 47 -153 122q-59 73 -95 172v-319h-36v1556h36v-798q34 94 97 172q62 76 153 123q92 47 207 47q145 0 258 -70zM922 84v-4q103 66 159 188q56 121 56 271
q0 149 -56 270q-56 122 -159 188q-106 68 -240 68t-240 -68q-104 -67 -159 -186q-56 -121 -56 -270q0 -150 56 -271q55 -119 159 -186q106 -68 240 -68t240 68z" />
    <glyph glyph-name="c" unicode="c" horiz-adv-x="1169" 
d="M354 47l-4 -8q-114 70 -178 199q-63 126 -63 294q0 169 63 295q64 129 178 199q113 70 258 70q171 0 287 -101q117 -102 166 -276h-39q-48 161 -150 250q-106 92 -262 92q-137 0 -243 -68q-105 -68 -160 -186q-55 -119 -55 -270q0 -152 55 -271q55 -118 160 -186
q106 -68 243 -68q157 0 269 92q109 90 157 250h39q-34 -114 -98 -198q-62 -82 -158 -131q-94 -48 -207 -48q-145 0 -258 70z" />
    <glyph glyph-name="d" unicode="d" horiz-adv-x="1296" 
d="M1065 1556l33 -8v-1556h-37v319q-37 -101 -94 -172q-61 -76 -154 -123q-89 -45 -207 -45q-145 0 -258 70q-112 69 -174 199q-61 128 -61 295q0 166 61 294t176 199q113 70 258 70q118 0 207 -45q93 -47 154 -123t96 -172v798zM844 72v-4q104 67 160 188q55 119 55 270
q0 152 -55 271q-56 121 -160 188q-106 68 -240 68q-133 0 -239 -68q-105 -68 -160 -186q-55 -119 -55 -271q0 -151 55 -270q55 -118 160 -186q106 -68 239 -68q134 0 240 68z" />
    <glyph glyph-name="e" unicode="e" horiz-adv-x="1193" 
d="M1085 539l-929 -2q0 -156 59 -277q58 -119 164 -184q104 -64 237 -64q157 0 263 80q104 79 151 225h39q-46 -166 -166 -251q-121 -86 -289 -86q-139 0 -252 67q-111 66 -180 195q-67 125 -67 301q0 168 65 295q64 125 176 196q110 70 244 70q132 0 244 -68t176 -190
q65 -124 65 -285v-22zM377 999l-2 -4q-101 -66 -158 -174t-63 -252h895v6q-3 134 -62 246t-160 176q-104 66 -227 66q-125 0 -223 -64z" />
    <glyph glyph-name="f" unicode="f" horiz-adv-x="677" 
d="M532 1522l-2 2q-105 0 -153 -51q-49 -52 -49 -160v-236h329v-35h-329v-1042h-37v1042h-266v35h266v236q0 121 61 182t180 61h125v-34h-125z" />
    <glyph glyph-name="g" unicode="g" horiz-adv-x="1296" 
d="M1069 1077l29 -6v-1124q0 -114 -58 -199q-58 -84 -163 -131q-102 -45 -240 -45q-134 0 -238 43t-166 123q-61 79 -67 188h39q9 -108 67 -178q56 -67 154 -106q93 -37 209 -37q123 0 221 43q97 43 154 121q55 76 55 182v385q-27 -95 -92 -172q-65 -76 -156 -123
q-89 -45 -207 -45q-145 0 -258 67q-112 66 -174 193q-61 125 -61 291t61 291q60 123 176 192q115 68 258 68q118 0 207 -45q95 -48 158 -123q65 -77 92 -172v319zM844 92q104 64 160 182q55 116 55 269q0 152 -55 268q-56 118 -160 182q-107 66 -242 66q-136 0 -240 -66
q-101 -64 -157 -182q-55 -116 -55 -268q0 -153 55 -269q56 -118 157 -182q103 -65 240 -65q136 0 242 65z" />
    <glyph glyph-name="h" unicode="h" horiz-adv-x="1167" 
d="M786 1049l-2 -2q92 -53 148 -148q55 -94 55 -227v-4v-670h-37v661v5q0 122 -49 213q-50 92 -131 141q-82 49 -180 49t-180 -49q-81 -49 -131 -141t-50 -211v-666h-36v1556h36v-708q46 115 142 184q95 68 219 68q107 0 196 -51z" />
    <glyph glyph-name="i" unicode="i" horiz-adv-x="425" 
d="M231 0h-36v1077h36v-1077zM231 1315h-36v241h36v-241z" />
    <glyph glyph-name="j" unicode="j" horiz-adv-x="425" 
d="M-51 -401l2 30h41q104 0 153 52q50 53 50 159v1235h36v-1235q0 -119 -61 -180t-180 -61h-41zM233 1311h-36v241h36v-241z" />
    <glyph glyph-name="k" unicode="k" horiz-adv-x="987" 
d="M283 600l690 -600h-53l-689 598v-598h-36v1556h36v-952l656 473h59z" />
    <glyph glyph-name="l" unicode="l" horiz-adv-x="425" 
d="M231 0h-36v1556h36v-1556z" />
    <glyph glyph-name="m" unicode="m" horiz-adv-x="1839" 
d="M1470 1049l-8 -2q88 -54 140 -148q53 -95 53 -227v-4v-670h-37v661v5q0 122 -45 208q-48 92 -123 140q-76 49 -172 49t-172 -49q-77 -50 -121 -140q-43 -87 -43 -208v-666h-37v661v5q0 122 -45 208q-48 92 -123 140q-76 49 -172 49t-172 -49q-77 -50 -121 -140
q-43 -87 -43 -208v-666h-36v1077h36v-231q27 76 80 135q52 58 119 88q70 31 141 31q95 0 166 -39q73 -41 123 -105q51 -67 72 -145q18 75 67 141q51 69 123 109q74 41 164 41q103 0 186 -51z" />
    <glyph glyph-name="n" unicode="n" horiz-adv-x="1167" 
d="M786 1049l-2 -2q92 -53 148 -148q55 -94 55 -227v-4v-670h-37v661v5q0 122 -49 213q-50 92 -131 141q-82 49 -180 49t-180 -49q-81 -49 -131 -141t-50 -211v-666h-36v1077h36v-229q46 115 142 184q95 68 219 68q107 0 196 -51z" />
    <glyph glyph-name="o" unicode="o" horiz-adv-x="1218" 
d="M354 47h-4q-114 70 -178 199q-63 126 -63 295t63 295q64 127 178 198q113 70 258 70q146 0 256 -70q113 -72 176 -198q64 -128 64 -295t-64 -295q-65 -130 -174 -199q-110 -70 -254 -70q-145 0 -258 70zM844 80v-4q104 67 160 188q55 119 55 271q0 151 -55 270
q-56 121 -160 188q-106 68 -240 68q-133 0 -239 -68q-105 -68 -160 -186q-55 -119 -55 -270q0 -152 55 -271q55 -118 160 -186q106 -68 239 -68q134 0 240 68z" />
    <glyph glyph-name="p" unicode="p" horiz-adv-x="1296" 
d="M944 1030l-4 4q116 -72 176 -198q62 -130 62 -295t-62 -295t-174 -199q-113 -70 -258 -70q-113 0 -207 48q-93 47 -153 122q-59 73 -95 172v-720h-36v1478h36v-319q34 94 97 172q62 76 153 123q92 47 207 47q145 0 258 -70zM922 84v-4q103 66 159 188q56 121 56 271
q0 149 -56 270q-56 122 -159 188q-106 68 -240 68t-240 -68q-104 -67 -159 -186q-56 -121 -56 -270q0 -150 56 -271q55 -119 159 -186q106 -68 240 -68t240 68z" />
    <glyph glyph-name="q" unicode="q" horiz-adv-x="1296" 
d="M1065 1077l33 -8v-1479h-37v721q-37 -101 -94 -172q-61 -76 -154 -123q-89 -45 -207 -45q-145 0 -258 70q-112 69 -174 199q-61 128 -61 295q0 166 61 294t176 199q113 70 258 70q118 0 207 -45q93 -47 154 -123t96 -172v319zM844 72v-4q104 67 160 188q55 119 55 270
q0 152 -55 271q-56 121 -160 188q-106 68 -240 68q-133 0 -239 -68q-105 -68 -160 -186q-55 -119 -55 -271q0 -151 55 -270q55 -118 160 -186q106 -68 239 -68q134 0 240 68z" />
    <glyph glyph-name="r" unicode="r" horiz-adv-x="673" 
d="M231 846l-2 -2q49 122 146 188t258 66v-35h-6q-120 0 -209 -47q-87 -46 -137 -135t-50 -215v-666h-36v1077h36v-231z" />
    <glyph glyph-name="s" unicode="s" horiz-adv-x="1005" 
d="M319 18h5q-89 41 -148 115t-80 176h39q21 -95 76 -162q53 -64 135 -100q81 -35 174 -35q102 0 182 41t123 105t43 135q0 77 -34 123t-101 73q-74 30 -186 52l-88 18q-149 30 -240 90q-88 58 -88 176q0 79 49 140q48 60 135 98q84 37 187 37q94 0 170 -33q81 -35 135 -98
q55 -64 67 -156h-38q-12 83 -62 139q-51 58 -123 84q-79 29 -155 29q-80 0 -162 -29q-77 -27 -123 -82q-45 -54 -45 -129q0 -69 41 -116q40 -46 104 -70q66 -25 162 -45l88 -19q124 -25 191 -57q76 -36 114 -88q39 -53 39 -139q0 -88 -49 -158t-137 -113q-87 -43 -197 -43
q-113 0 -203 41z" />
    <glyph glyph-name="t" unicode="t" horiz-adv-x="681" 
d="M319 1042l-2 -800v-4q0 -105 52 -154t153 -49h129v-35h-129q-117 0 -178 61t-61 179v4v798h-263v35h263v254h36v-254h334v-35h-334z" />
    <glyph glyph-name="u" unicode="u" horiz-adv-x="1157" 
d="M926 1077l30 -2v-1077h-36v229q-46 -116 -138 -184t-215 -68q-102 0 -190 52q-92 54 -146 147q-55 94 -55 227v5v669h37v-661v-4q0 -120 49 -211q51 -94 131 -142q82 -49 178 -49q98 0 177 49t129 142q49 91 49 213v665z" />
    <glyph glyph-name="v" unicode="v" horiz-adv-x="1122" 
d="M541 0h-41l-461 1077h41zM623 0h-41l460 1077h41z" />
    <glyph glyph-name="w" unicode="w" horiz-adv-x="1781" 
d="M469 0h-39l-383 1077h39zM549 0h-39l321 1077h39zM1272 0h-39l-322 1077h39zM1352 0h-39l383 1077h39z" />
    <glyph glyph-name="x" unicode="x" horiz-adv-x="1044" 
d="M549 590l465 -590h-49l-443 561l-442 -561h-49l465 590l-410 487h49l387 -461l387 461h49z" />
    <glyph glyph-name="y" unicode="y" horiz-adv-x="1097" 
d="M553 109h-41l-483 968h41zM420 -401h-41l643 1478h39z" />
    <glyph glyph-name="z" unicode="z" horiz-adv-x="968" 
d="M870 1020l-770 -985h815v-35h-843v57l770 985h-752v35h780v-57z" />
    <glyph glyph-name="braceleft" unicode="{" horiz-adv-x="569" 
d="M309 868v-12q0 -104 -24 -162t-66 -80q-43 -22 -98 -28q54 -8 98 -31q42 -22 66 -80q24 -59 24 -162v-4v-485v-4q0 -107 43 -150t117 -43h27v-35h-27q-90 0 -143 56q-52 55 -52 168v4v483v4q0 111 -24 166q-24 56 -68 74t-116 24v39q69 6 116 25q44 18 68 74t24 165v457
q0 113 52 168t143 55h27v-34h-27q-74 0 -117 -43t-43 -150v-459z" />
    <glyph glyph-name="bar" unicode="|" horiz-adv-x="485" 
d="M260 -463h-35v2142h35v-2142z" />
    <glyph glyph-name="braceright" unicode="}" horiz-adv-x="567" 
d="M319 713v4q24 -56 68 -74q47 -19 117 -25v-38q-70 -6 -117 -25q-44 -18 -68 -74q-24 -55 -24 -166v-491q0 -114 -51 -168q-52 -55 -144 -55h-26v34h26q74 0 117 43t43 152v494q0 102 25 163q24 59 65 80q43 22 99 31q-54 6 -99 29q-41 21 -65 80q-25 61 -25 163v4v451v4
q0 109 -43 152t-117 43h-26v35h26q91 0 144 -56q51 -54 51 -168v-4v-448v-4q0 -111 24 -166z" />
    <glyph glyph-name="asciitilde" unicode="~" horiz-adv-x="1329" 
d="M127 512h-4q71 64 141 102q70 37 148 37q58 0 110 -12q57 -13 142 -49q77 -32 139 -49q56 -15 115 -15q72 0 129 31q54 29 129 98l28 -24q-73 -67 -141 -103t-148 -36q-53 0 -106 12t-143 49q-89 35 -136 47q-62 16 -116 16q-74 0 -129 -30q-52 -28 -129 -99z" />
    <glyph glyph-name="uni00A0" unicode="&#xa0;" horiz-adv-x="573" 
 />
    <glyph glyph-name="exclamdown" unicode="&#xa1;" horiz-adv-x="434" 
d="M236 846h-37v231h37v-231zM236 -401h-37v999h37v-999z" />
    <glyph glyph-name="cent" unicode="&#xa2;" horiz-adv-x="1228" 
d="M1110 356l-2 -4q-30 -114 -94 -196q-63 -81 -156 -131q-91 -49 -203 -52v-245h-37v245q-134 6 -245 78q-105 69 -168 197q-62 127 -62 289q0 161 62 288q63 128 168 197q111 72 245 78v237h37v-237q167 -3 281 -105t160 -270h-39q-44 156 -148 246q-107 93 -254 96v-1053
q152 3 263 97q106 90 153 245h39zM236 268l-3 -8q52 -116 152 -184t231 -74v1053q-129 -6 -229 -74q-99 -67 -151 -184q-54 -120 -54 -265q0 -144 54 -264z" />
    <glyph glyph-name="sterling" unicode="&#xa3;" horiz-adv-x="1169" 
d="M1083 37l-12 -37h-948v59q117 73 196 142q73 65 111 135q37 70 37 158q0 143 -82 256h-279v36h252q-48 61 -94 132q-38 59 -61 124q-25 70 -25 144q0 119 55 207t152 139q94 49 215 49t211 -43q93 -44 150 -119q58 -76 73 -178h-41q-27 149 -129 225q-104 78 -264 78
q-107 0 -192 -43q-88 -45 -136 -125q-49 -82 -49 -190q0 -68 25 -135q23 -63 59 -117q41 -62 92 -129q10 -10 11 -12q3 -6 6 -9h506v-36h-482q76 -119 76 -256q0 -89 -37 -162q-41 -81 -112 -146q-78 -71 -199 -147h915z" />
    <glyph glyph-name="currency" unicode="&#xa4;" horiz-adv-x="1378" 
d="M1155 571l-6 2q-39 -93 -100 -159l141 -144l-25 -22l-141 143q-65 -62 -154 -98q-87 -35 -184 -35q-96 0 -186 35q-92 36 -160 98l-141 -143l-25 22l143 146q-60 63 -100 157q-37 87 -37 189q0 101 37 188q39 92 102 158l-143 145l25 23l141 -143q66 60 160 100
q87 37 186 37q97 0 184 -35q91 -37 158 -98l139 141l25 -23l-141 -143q64 -70 102 -160q37 -87 37 -190q0 -104 -37 -191zM279 528q65 -109 172 -170t233 -61q127 0 234 61t169 170t62 234q0 124 -62 233q-61 108 -169 172q-107 64 -234 64q-126 0 -233 -64
q-108 -64 -172 -172q-64 -107 -64 -233q0 -127 64 -234z" />
    <glyph glyph-name="yen" unicode="&#xa5;" horiz-adv-x="1411" 
d="M1296 1556h47l-606 -831h463v-37h-475v-254h475v-37h-475v-397h-39v397h-475v37h475v254h-475v37h463l-606 831h47l592 -811z" />
    <glyph glyph-name="brokenbar" unicode="&#xa6;" horiz-adv-x="501" 
d="M268 879h-35v800h35v-800zM268 -463h-35v801h35v-801z" />
    <glyph glyph-name="section" unicode="&#xa7;" horiz-adv-x="1144" 
d="M932 193l-8 -9q26 -48 26 -112q0 -77 -45 -142t-133 -110q-85 -43 -201 -43q-114 0 -204 37q-93 38 -150 104q-59 68 -74 160h41q27 -120 127 -191q97 -69 258 -69q110 0 185 37q77 38 116 94q41 59 41 123q0 71 -37 123q-38 53 -94 86q-60 36 -166 84l-284 133
q-106 51 -162 129q-55 76 -55 172q0 77 41 145q42 69 129 133q-49 40 -76 90q-27 49 -27 115q0 73 47 141q46 67 133 111q85 43 201 43q117 0 207 -37q93 -38 150 -104q58 -67 73 -160h-41q-27 119 -127 190q-101 72 -258 72q-109 0 -184 -37q-79 -39 -117 -94
q-39 -56 -39 -123q0 -71 37 -123q38 -53 94 -86q60 -36 166 -84l285 -133q109 -53 164 -129t55 -172q0 -75 -41 -143q-39 -66 -129 -131q49 -40 76 -90zM645 389l-2 -4q117 -54 172 -92q84 64 123 127q37 61 37 129q0 91 -45 156q-47 68 -160 120l-285 133q-113 52 -172 93
q-87 -65 -123 -125q-36 -59 -36 -129q0 -88 47 -156q46 -67 159 -119z" />
    <glyph glyph-name="dieresis" unicode="&#xa8;" horiz-adv-x="487" 
d="M104 1315h-36v241h36v-241zM420 1315h-37v241h37v-241z" />
    <glyph glyph-name="copyright" unicode="&#xa9;" horiz-adv-x="1957" 
d="M557 49h-4q-193 114 -307 307q-113 192 -113 424q0 229 115 424q114 193 307 307q192 113 424 113t424 -113q193 -114 307 -307q115 -195 115 -424q0 -232 -113 -424q-114 -193 -307 -307q-190 -112 -424 -112t-424 112zM1378 80l-4 -4q185 108 293 293q109 186 109 403
q0 221 -107 404t-293 292t-403 109q-221 0 -404 -107q-186 -109 -293 -292q-106 -181 -106 -404q0 -217 109 -403t292 -293t404 -107q217 0 403 109zM739 311l-12 -6q-103 66 -166 189q-61 119 -61 274t61 274q62 122 170 189q107 67 238 67q109 0 194 -43q90 -46 146 -116
q60 -76 90 -166h-37q-51 135 -148 213q-100 80 -243 80q-117 0 -215 -64q-100 -65 -158 -178q-57 -111 -57 -254q0 -139 59 -254t156 -178q98 -64 209 -64q154 0 258 78q100 75 153 215h37q-59 -158 -168 -239q-113 -84 -278 -84q-124 0 -228 67z" />
    <glyph glyph-name="ordfeminine" unicode="&#xaa;" horiz-adv-x="598" 
d="M410 1540l-4 -10q45 -26 67 -72q23 -48 23 -92v-4v-354h-37v127q-24 -64 -76 -101t-131 -37q-46 0 -94 23q-45 22 -68 61q-24 41 -24 86q0 81 67 115q69 35 172 47l156 19v10v4q0 82 -45 127q-47 47 -123 47t-119 -37t-49 -94h-39q6 71 61 117q56 47 146 47q67 0 117 -29
zM408 1083v-2q53 59 53 152v74l-129 -17q-79 -10 -119 -20q-44 -11 -76 -37q-31 -25 -31 -72q0 -62 44 -100q43 -37 110 -37q95 0 148 59z" />
    <glyph glyph-name="guillemotleft" unicode="&#xab;" horiz-adv-x="1017" 
d="M508 1006h43l-397 -449l397 -471h-43l-397 471zM856 1006h43l-397 -449l397 -471h-43l-397 471z" />
    <glyph glyph-name="logicalnot" unicode="&#xac;" horiz-adv-x="1310" 
d="M1126 250h-41v522h-948v37h989v-559z" />
    <glyph glyph-name="uni00AD" unicode="&#xad;" horiz-adv-x="833" 
d="M725 555h-616v33h616v-33z" />
    <glyph glyph-name="registered" unicode="&#xae;" horiz-adv-x="1957" 
d="M1401 1507h-4q193 -114 307 -307q115 -195 115 -424q0 -232 -113 -424q-114 -193 -307 -307q-192 -113 -424 -113t-424 113q-193 114 -307 307q-113 192 -113 424q0 229 115 424q114 193 307 307q192 113 424 113t424 -113zM1378 80l-4 -4q185 108 293 293
q109 186 109 403q0 221 -107 404t-293 292t-403 109q-221 0 -404 -107q-186 -109 -293 -292q-106 -181 -106 -404q0 -217 109 -403t292 -293t404 -107q217 0 403 109zM1257 819l-2 6q-74 -71 -198 -86l319 -477h-43l-317 473h-21h-307v-473h-35v1028h342q101 0 174 -33
q76 -34 119 -98t43 -153q0 -116 -74 -187zM688 770l309 -2q137 0 215 63q80 65 80 179q0 78 -37 133q-38 57 -104 86q-70 31 -156 31h-307v-490z" />
    <glyph glyph-name="macron" unicode="&#xaf;" horiz-adv-x="741" 
d="M674 1378h-606v33h606v-33z" />
    <glyph glyph-name="degree" unicode="&#xb0;" horiz-adv-x="751" 
d="M246 1092l-2 -2q-62 38 -99 98q-36 59 -36 131t36 131q37 62 99 96q62 35 131 35t131 -35q63 -35 96 -94q35 -62 35 -131t-35 -131t-94 -98q-61 -37 -131 -37t-131 37zM485 1120l2 -4q52 30 82 82q31 54 31 113q0 58 -31 112q-30 52 -82 82q-54 31 -112 31
q-59 0 -113 -31q-52 -30 -82 -82q-30 -53 -30 -110q0 -59 30 -111q29 -50 84 -82q52 -30 111 -30q57 0 110 30z" />
    <glyph glyph-name="plusminus" unicode="&#xb1;" horiz-adv-x="1351" 
d="M696 1077v-428h518v-37h-518v-448h-41v448h-518v37h518v428h41zM1214 0h-1077v37h1077v-37z" />
    <glyph glyph-name="uni00B2" unicode="&#xb2;" horiz-adv-x="634" 
d="M84 1049h500v-33h-541v49l340 307q67 58 102 111t35 112q0 45 -24 86q-25 42 -72 66q-48 25 -111 25q-95 0 -153 -46q-59 -47 -68 -124h-39q9 96 82 151t180 55q79 0 134 -30q56 -30 86 -80t30 -105q0 -68 -37 -123q-39 -58 -110 -120z" />
    <glyph glyph-name="uni00B3" unicode="&#xb3;" horiz-adv-x="651" 
d="M526 1374l-4 -12q66 -48 66 -137q0 -78 -39 -129q-42 -55 -105 -78q-67 -25 -141 -25q-105 0 -178 54q-70 52 -82 141h39q9 -73 68 -117q58 -43 153 -43q58 0 119 23q56 21 90 67q35 47 35 111q0 57 -35 98t-90 62q-53 20 -115 20h-37v33h37q58 0 105 20q49 21 77 60
q29 40 29 84q0 46 -26 82q-28 39 -76 59q-52 22 -113 22q-82 0 -137 -43t-64 -112h-39q3 53 37 96q36 45 86 68q52 24 117 24q71 0 129 -24q56 -23 92 -68q35 -44 35 -100q0 -80 -55 -123t-125 -55q83 -12 147 -58z" />
    <glyph glyph-name="acute" unicode="&#xb4;" horiz-adv-x="442" 
d="M106 1257h-38l260 299h47z" />
    <glyph glyph-name="uni00B5" unicode="&#xb5;" horiz-adv-x="1280" 
d="M1212 35l-4 -39h-88q-74 0 -114 43q-41 44 -41 115v73q-46 -116 -138 -184t-215 -68q-109 0 -209 62q-98 61 -147 174v-614h-37v1478h37v-661v-4q0 -120 49 -211q51 -94 131 -142q82 -49 178 -49q98 0 177 49t129 142q49 91 49 213v665h37v-917v-4q0 -54 30 -88
q29 -33 88 -33h88z" />
    <glyph glyph-name="paragraph" unicode="&#xb6;" horiz-adv-x="1161" 
d="M479 739l-2 -2q-113 0 -205 56t-147 149q-55 94 -55 209q0 112 55 203q55 92 147 147q91 55 207 55h439v-1746h-41v1708h-357v-1708h-41v929z" />
    <glyph glyph-name="periodcentered" unicode="&#xb7;" horiz-adv-x="364" 
d="M201 489h-37v232h37v-232z" />
    <glyph glyph-name="cedilla" unicode="&#xb8;" horiz-adv-x="356" 
d="M125 -102l2 -2q40 0 80 -19q39 -19 59 -51q23 -38 23 -76q0 -66 -47 -110q-46 -43 -121 -43h-53v30h53q58 0 96 35q37 34 37 86t-37 86q-36 33 -90 33h-35v133h33v-102z" />
    <glyph glyph-name="uni00B9" unicode="&#xb9;" horiz-adv-x="346" 
d="M188 1794l33 -2v-778h-39v637h-166v32h109q31 0 49 11q14 8 14 37v63z" />
    <glyph glyph-name="ordmasculine" unicode="&#xba;" horiz-adv-x="630" 
d="M184 1038h-4q-58 37 -88 101q-31 67 -31 147q0 81 31 148q28 60 90 100q58 37 131 37t131 -37q63 -41 91 -100q30 -64 30 -148q0 -82 -30 -147q-29 -63 -89 -101q-58 -37 -131 -37t-131 37zM424 1065v-8q51 35 74 92q24 59 24 129t-24 129q-23 57 -74 92q-47 33 -113 33
q-61 0 -112 -31q-49 -30 -76 -88q-27 -59 -27 -131t27 -131q27 -58 76 -88q51 -31 112 -31q66 0 113 33z" />
    <glyph glyph-name="guillemotright" unicode="&#xbb;" horiz-adv-x="1017" 
d="M119 1006h43l397 -449l-397 -471h-43l397 471zM467 1006h43l397 -449l-397 -471h-43l397 471z" />
    <glyph glyph-name="onequarter" unicode="&#xbc;" horiz-adv-x="1320" 
d="M1096 287h125v-33h-125v-254h-37v254h-434v49l372 475h45l-385 -491h402v491h37v-491zM315 1556l33 -2v-778h-39v637h-166v33h109q32 0 49 10q14 8 14 37v63zM111 -2h-43l1058 1556h43z" />
    <glyph glyph-name="onehalf" unicode="&#xbd;" horiz-adv-x="1384" 
d="M776 33h500v-33h-541v49l340 307q70 61 103 111q34 52 34 113q0 46 -24 86t-72 65t-110 25q-97 0 -154 -45q-59 -47 -68 -125h-39q9 96 82 151q74 56 181 56q76 0 133 -31q56 -30 86 -80q30 -49 30 -104q0 -70 -36 -123q-39 -58 -111 -121zM309 1556l33 -2v-778h-39v637
h-166v33h109q32 0 49 10q14 8 14 37v63zM104 -2h-43l1059 1556h43z" />
    <glyph glyph-name="threequarters" unicode="&#xbe;" horiz-adv-x="1495" 
d="M571 1137l-4 -13q66 -48 66 -137q0 -78 -39 -129q-42 -55 -105 -78q-65 -24 -141 -24q-107 0 -178 53q-70 52 -82 141h39q9 -72 68 -116q58 -43 153 -43q61 0 119 22q55 21 90 68t35 110q0 58 -35 99q-34 40 -90 61q-53 20 -115 20h-37v33h37q56 0 105 21q51 22 78 59
q28 39 28 84q0 46 -26 82q-28 39 -76 59q-54 23 -113 23q-82 0 -137 -43t-64 -113h-38q3 56 36 97q34 43 86 67q55 25 117 25q68 0 129 -25q58 -24 92 -67q35 -44 35 -101q0 -80 -55 -123t-125 -55q85 -12 147 -57zM293 -14h-43l1059 1556h43zM1276 272h125v-32h-125v-254
h-37v254h-434v49l373 475h45l-385 -492h401v492h37v-492z" />
    <glyph glyph-name="questiondown" unicode="&#xbf;" horiz-adv-x="1015" 
d="M569 846h-37v231h37v-231zM285 -383l-11 -8q-98 42 -155 117q-56 74 -56 163q0 61 29 117q25 48 72 92q46 42 106 86l68 52q70 52 111 102q38 47 57 108q18 58 18 142h37q0 -90 -18 -154q-17 -61 -60 -117q-40 -52 -110 -104l-68 -51q-63 -46 -106 -86q-42 -38 -64 -82
q-24 -46 -24 -100q0 -70 43 -134q44 -64 135 -108q90 -43 225 -43q111 0 195 37q85 38 141 108q54 68 63 172h39q-9 -114 -71 -194q-59 -77 -158 -119q-91 -39 -205 -39q-132 0 -233 43z" />
    <glyph glyph-name="Agrave" unicode="&#xc0;" horiz-adv-x="1470" 
d="M1452 0h-45l-229 549h-885l-230 -549h-45l652 1556h45l-406 -968h852l-405 968h45zM754 1694h-43l-279 241h51z" />
    <glyph glyph-name="Aacute" unicode="&#xc1;" horiz-adv-x="1470" 
d="M1452 0h-45l-229 549h-885l-230 -549h-45l652 1556h45l-406 -968h852l-405 968h45zM760 1694h-43l270 241h51z" />
    <glyph glyph-name="Acircumflex" unicode="&#xc2;" horiz-adv-x="1470" 
d="M1452 0h-45l-229 549h-885l-230 -549h-45l652 1556h45l-406 -968h852l-405 968h45zM768 1935l285 -241h-45l-271 219l-272 -219h-45l285 241h63z" />
    <glyph glyph-name="Atilde" unicode="&#xc3;" horiz-adv-x="1470" 
d="M1452 0h-45l-229 549h-885l-230 -549h-45l652 1556h45l-406 -968h852l-405 968h45zM436 1755l4 -2q15 56 62 86q48 31 98 31q39 0 72 -10q23 -7 73 -31q62 -33 123 -33q96 0 136 82h28q-15 -56 -61 -86q-48 -31 -99 -31q-31 0 -73 11q-32 8 -74 30q-72 35 -125 35
q-95 0 -135 -82h-29z" />
    <glyph glyph-name="Adieresis" unicode="&#xc4;" horiz-adv-x="1470" 
d="M1452 0h-45l-229 549h-885l-230 -549h-45l652 1556h45l-406 -968h852l-405 968h45zM600 1694h-41v241h41v-241zM911 1694h-41v241h41v-241z" />
    <glyph glyph-name="Aring" unicode="&#xc5;" horiz-adv-x="1470" 
d="M1452 0h-45l-229 549h-885l-230 -549h-45l652 1556h45l-406 -968h852l-405 968h45zM641 1714l-6 -6q-41 26 -70 72q-26 42 -26 96t26 96q27 43 72 68q43 24 96 24t96 -24q44 -24 68 -68q25 -45 25 -94t-25 -94q-23 -42 -68 -70q-42 -26 -94 -26t-94 26zM809 1737l-2 -2
q37 20 57 57q21 37 21 80q0 42 -21 80q-20 37 -57 57q-37 21 -80 21t-80 -21q-37 -20 -57 -57q-21 -38 -21 -80q0 -39 23 -80q20 -37 57 -57q37 -21 80 -21q39 0 80 23z" />
    <glyph glyph-name="AE" unicode="&#xc6;" horiz-adv-x="2019" 
d="M1122 788l314 -749h465v-39h-494l-229 549h-885l-230 -549h-45l652 1556h45l-406 -968h852l-405 968h1126v-38h-1065l289 -691h762v-39h-746z" />
    <glyph glyph-name="Ccedilla" unicode="&#xc7;" horiz-adv-x="1581" 
d="M1491 467l-2 4q-82 -231 -246 -358q-162 -125 -407 -131v-78q39 0 79 -19q39 -19 60 -53q22 -36 22 -78q0 -66 -47 -110q-46 -43 -121 -43h-55v32h53q61 0 97 33q37 34 37 86t-37 86q-36 33 -90 33h-35v111q-185 3 -336 104q-157 105 -244 283q-90 185 -90 411
q0 234 92 416q90 179 252 283q159 102 354 102q168 0 297 -63q135 -66 222 -175q88 -111 135 -249h-43q-73 200 -228 325q-153 123 -379 123q-179 0 -327 -98q-153 -101 -240 -273q-88 -175 -88 -393t88 -393q86 -171 236 -272q147 -99 315 -99q242 0 399 121
q158 121 234 332h43z" />
    <glyph glyph-name="Egrave" unicode="&#xc8;" horiz-adv-x="1306" 
d="M279 788v-749h909v-39h-950v1556h931v-38h-890v-691h876v-39h-876zM778 1694h-43l-278 241h51z" />
    <glyph glyph-name="Eacute" unicode="&#xc9;" horiz-adv-x="1306" 
d="M279 788v-749h909v-39h-950v1556h931v-38h-890v-691h876v-39h-876zM684 1694h-43l270 241h52z" />
    <glyph glyph-name="Ecircumflex" unicode="&#xca;" horiz-adv-x="1306" 
d="M279 788v-749h909v-39h-950v1556h931v-38h-890v-691h876v-39h-876zM737 1935l285 -241h-45l-270 219l-273 -219h-45l285 241h63z" />
    <glyph glyph-name="Edieresis" unicode="&#xcb;" horiz-adv-x="1306" 
d="M279 788v-749h909v-39h-950v1556h931v-38h-890v-691h876v-39h-876zM569 1694h-41v241h41v-241zM881 1694h-41v241h41v-241z" />
    <glyph glyph-name="Igrave" unicode="&#xcc;" horiz-adv-x="516" 
d="M279 0h-41v1556h41v-1556zM272 1694h-43l-278 241h51z" />
    <glyph glyph-name="Iacute" unicode="&#xcd;" horiz-adv-x="516" 
d="M279 0h-41v1556h41v-1556zM287 1694h-43l270 241h51z" />
    <glyph glyph-name="Icircumflex" unicode="&#xce;" horiz-adv-x="516" 
d="M279 0h-41v1556h41v-1556zM291 1935l284 -241h-45l-270 219l-272 -219h-45l284 241h64z" />
    <glyph glyph-name="Idieresis" unicode="&#xcf;" horiz-adv-x="516" 
d="M279 0h-41v1556h41v-1556zM123 1694h-41v241h41v-241zM434 1694h-41v241h41v-241z" />
    <glyph glyph-name="Eth" unicode="&#xd0;" horiz-adv-x="1619" 
d="M727 1556v-4q228 0 401 -92t265 -268t92 -416t-92 -416t-265 -268t-401 -92h-489v788h-193v35h193v733h489zM727 35q211 0 375 86q164 85 252 252q90 169 90 401q0 233 -90 402q-88 165 -252 251t-375 86h-448v-694h479v-35h-479v-749h448z" />
    <glyph glyph-name="Ntilde" unicode="&#xd1;" horiz-adv-x="1687" 
d="M279 0h-41v1556h41v-1556zM1368 0h-47l-1002 1556h48zM1450 0h-41v1556h41v-1556zM571 1755l4 -2q15 56 62 86q48 31 98 31q39 0 72 -10q26 -8 74 -31q62 -33 123 -33q95 0 135 82h28q-15 -56 -61 -86q-48 -31 -98 -31q-32 0 -74 11q-32 8 -74 30q-72 35 -125 35
q-95 0 -135 -82h-29z" />
    <glyph glyph-name="Ograve" unicode="&#xd2;" horiz-adv-x="1699" 
d="M479 78v-4q-166 104 -256 282q-92 182 -92 416t92 416q90 178 256 282q165 103 369 103q209 0 369 -100q165 -103 256 -283q92 -182 92 -416t-92 -416q-90 -178 -256 -282q-162 -101 -369 -101q-204 0 -369 103zM1196 109q156 101 242 272q88 175 88 393t-88 393
q-87 173 -242 273q-151 98 -346 98t-346 -98q-155 -100 -242 -273q-88 -175 -88 -393t88 -393q86 -171 242 -272q153 -99 346 -99t346 99zM924 1688h-43l-279 241h51z" />
    <glyph glyph-name="Oacute" unicode="&#xd3;" horiz-adv-x="1699" 
d="M479 78v-4q-166 104 -256 282q-92 182 -92 416t92 416q90 178 256 282q165 103 369 103q209 0 369 -100q165 -103 256 -283q92 -182 92 -416t-92 -416q-90 -178 -256 -282q-162 -101 -369 -101q-204 0 -369 103zM1196 109q156 101 242 272q88 175 88 393t-88 393
q-87 173 -242 273q-151 98 -346 98t-346 -98q-155 -100 -242 -273q-88 -175 -88 -393t88 -393q86 -171 242 -272q153 -99 346 -99t346 99zM829 1688h-43l271 241h51z" />
    <glyph glyph-name="Ocircumflex" unicode="&#xd4;" horiz-adv-x="1699" 
d="M479 78v-4q-166 104 -256 282q-92 182 -92 416t92 416q90 178 256 282q165 103 369 103q209 0 369 -100q165 -103 256 -283q92 -182 92 -416t-92 -416q-90 -178 -256 -282q-162 -101 -369 -101q-204 0 -369 103zM1196 109q156 101 242 272q88 175 88 393t-88 393
q-87 173 -242 273q-151 98 -346 98t-346 -98q-155 -100 -242 -273q-88 -175 -88 -393t88 -393q86 -171 242 -272q153 -99 346 -99t346 99zM883 1929l284 -241h-45l-270 219l-272 -219h-45l284 241h64z" />
    <glyph glyph-name="Otilde" unicode="&#xd5;" horiz-adv-x="1699" 
d="M479 78v-4q-166 104 -256 282q-92 182 -92 416t92 416q90 178 256 282q165 103 369 103q209 0 369 -100q165 -103 256 -283q92 -182 92 -416t-92 -416q-90 -178 -256 -282q-162 -101 -369 -101q-204 0 -369 103zM1196 109q156 101 242 272q88 175 88 393t-88 393
q-87 173 -242 273q-151 98 -346 98t-346 -98q-155 -100 -242 -273q-88 -175 -88 -393t88 -393q86 -171 242 -272q153 -99 346 -99t346 99zM551 1749l4 -2q15 56 61 86q48 31 99 31q34 0 71 -11q31 -9 74 -30q62 -33 123 -33q95 0 135 82h29q-15 -56 -62 -86q-48 -31 -98 -31
q-36 0 -74 10q-27 7 -73 31q-72 35 -125 35q-95 0 -135 -82h-29z" />
    <glyph glyph-name="Odieresis" unicode="&#xd6;" horiz-adv-x="1699" 
d="M479 78v-4q-166 104 -256 282q-92 182 -92 416t92 416q90 178 256 282q165 103 369 103q209 0 369 -100q165 -103 256 -283q92 -182 92 -416t-92 -416q-90 -178 -256 -282q-162 -101 -369 -101q-204 0 -369 103zM1196 109q156 101 242 272q88 175 88 393t-88 393
q-87 173 -242 273q-151 98 -346 98t-346 -98q-155 -100 -242 -273q-88 -175 -88 -393t88 -393q86 -171 242 -272q153 -99 346 -99t346 99zM715 1688h-41v241h41v-241zM1026 1688h-41v241h41v-241z" />
    <glyph glyph-name="multiply" unicode="&#xd7;" horiz-adv-x="1140" 
d="M981 973l27 -25l-412 -411l412 -410l-27 -27l-412 412l-411 -412l-25 27l412 410l-412 411l25 25l411 -410z" />
    <glyph glyph-name="Oslash" unicode="&#xd8;" horiz-adv-x="1699" 
d="M1618 1556l-221 -235q83 -108 129 -246q45 -134 45 -301q0 -234 -92 -416q-90 -178 -256 -282q-162 -101 -369 -101q-154 0 -289 60q-133 59 -231 166l-195 -205h-55l225 235q-82 104 -129 244q-45 134 -45 301q0 234 92 416q91 180 256 283q163 102 369 102
q160 0 289 -57q134 -59 227 -166l195 202h55zM217 496h-2q42 -125 121 -230l1001 1053q-90 103 -217 162q-123 57 -270 57q-195 0 -346 -98q-155 -100 -242 -273q-88 -175 -88 -393q0 -150 43 -278zM1483 1055q-44 131 -119 231l-1004 -1053q88 -104 220 -165
q125 -58 270 -58q193 0 346 99q156 101 242 272q88 175 88 393q0 153 -43 281z" />
    <glyph glyph-name="Ugrave" unicode="&#xd9;" horiz-adv-x="1597" 
d="M358 143v-2q-141 167 -141 477v5v931h41v-931v-5q0 -292 135 -448t404 -156q266 0 403 158q135 156 135 453v931h41v-931q0 -311 -141 -480q-140 -168 -438 -168t-439 166zM870 1690h-43l-278 241h51z" />
    <glyph glyph-name="Uacute" unicode="&#xda;" horiz-adv-x="1597" 
d="M358 143v-2q-141 167 -141 477v5v931h41v-931v-5q0 -292 135 -448t404 -156q266 0 403 158q135 156 135 453v931h41v-931q0 -311 -141 -480q-140 -168 -438 -168t-439 166zM776 1690h-43l271 241h51z" />
    <glyph glyph-name="Ucircumflex" unicode="&#xdb;" horiz-adv-x="1597" 
d="M358 143v-2q-141 167 -141 477v5v931h41v-931v-5q0 -292 135 -448t404 -156q266 0 403 158q135 156 135 453v931h41v-931q0 -311 -141 -480q-140 -168 -438 -168t-439 166zM829 1931l285 -241h-45l-270 219l-273 -219h-45l285 241h63z" />
    <glyph glyph-name="Udieresis" unicode="&#xdc;" horiz-adv-x="1597" 
d="M358 143v-2q-141 167 -141 477v5v931h41v-931v-5q0 -292 135 -448t404 -156q266 0 403 158q135 156 135 453v931h41v-931q0 -311 -141 -480q-140 -168 -438 -168t-439 166zM662 1690h-41v241h41v-241zM973 1690h-41v241h41v-241z" />
    <glyph glyph-name="Yacute" unicode="&#xdd;" horiz-adv-x="1302" 
d="M1243 1556h47l-618 -849v-707h-41v707l-619 849h47l592 -813zM631 1694h-43l270 241h51z" />
    <glyph glyph-name="Thorn" unicode="&#xde;" horiz-adv-x="1404" 
d="M692 1257v-8q183 0 314 -49q133 -50 206 -151q74 -103 74 -252t-74 -252q-74 -102 -206 -152q-131 -49 -314 -49h-413v-344h-41v1556h41v-299h413zM692 375v-4q264 0 408 106q147 108 147 314q0 205 -147 313q-144 106 -408 106h-413v-835h413z" />
    <glyph glyph-name="germandbls" unicode="&#xdf;" horiz-adv-x="1214" 
d="M901 852l-12 -8q91 -54 145 -150q56 -100 56 -239q0 -140 -54 -254q-52 -110 -147 -172t-221 -62q-71 0 -136 10q-52 8 -116 31v39q77 -28 121 -35q58 -10 129 -10q120 0 206 59q89 61 134 160q47 103 47 232q0 212 -123 323t-346 111h-29v35h29q130 0 217 41
q84 40 125 108q39 65 39 158q0 100 -45 168t-125 106q-78 37 -187 37q-121 0 -207 -59q-84 -57 -131 -164q-45 -102 -45 -242v-1077h-37v1077q0 151 54 268q52 113 147 175q94 61 221 61q122 0 209 -43q91 -45 139 -119q50 -77 50 -182q0 -135 -82 -217q-84 -84 -215 -105
q102 -9 190 -61z" />
    <glyph glyph-name="agrave" unicode="&#xe0;" horiz-adv-x="1142" 
d="M788 1042l-4 -4q92 -58 134 -143q43 -87 43 -184v-4v-713h-37v262q-49 -126 -154 -205q-106 -80 -270 -80q-108 0 -193 43q-84 43 -131 117t-47 170q0 108 70 172q71 65 172 92q118 31 241 47l318 41v25v4q0 100 -37 184q-39 88 -119 142q-82 55 -209 55q-117 0 -194 -39
q-81 -41 -123 -104q-43 -64 -49 -138h-39q9 92 57 160q49 70 137 113q87 43 209 43q136 0 225 -56zM729 66h2q98 61 146 159q49 101 49 228v163l-271 -34q-160 -21 -264 -45q-101 -24 -166 -80q-63 -54 -63 -154q0 -91 45 -156q45 -66 123 -104q75 -37 168 -37q134 0 231 60
zM616 1251h-38l-269 299h47z" />
    <glyph glyph-name="aacute" unicode="&#xe1;" horiz-adv-x="1142" 
d="M788 1042l-4 -4q92 -58 134 -143q43 -87 43 -184v-4v-713h-37v262q-49 -126 -154 -205q-106 -80 -270 -80q-108 0 -193 43q-84 43 -131 117t-47 170q0 108 70 172q71 65 172 92q118 31 241 47l318 41v25v4q0 100 -37 184q-39 88 -119 142q-82 55 -209 55q-117 0 -194 -39
q-81 -41 -123 -104q-43 -64 -49 -138h-39q9 92 57 160q49 70 137 113q87 43 209 43q136 0 225 -56zM729 66h2q98 61 146 159q49 101 49 228v163l-271 -34q-160 -21 -264 -45q-101 -24 -166 -80q-63 -54 -63 -154q0 -91 45 -156q45 -66 123 -104q75 -37 168 -37q134 0 231 60
zM545 1251h-39l260 299h47z" />
    <glyph glyph-name="acircumflex" unicode="&#xe2;" horiz-adv-x="1142" 
d="M788 1042l-4 -4q92 -58 134 -143q43 -87 43 -184v-4v-713h-37v262q-49 -126 -154 -205q-106 -80 -270 -80q-108 0 -193 43q-84 43 -131 117t-47 170q0 108 70 172q71 65 172 92q118 31 241 47l318 41v25v4q0 100 -37 184q-39 88 -119 142q-82 55 -209 55q-117 0 -194 -39
q-81 -41 -123 -104q-43 -64 -49 -138h-39q9 92 57 160q49 70 137 113q87 43 209 43q136 0 225 -56zM729 66h2q98 61 146 159q49 101 49 228v163l-271 -34q-160 -21 -264 -45q-101 -24 -166 -80q-63 -54 -63 -154q0 -91 45 -156q45 -66 123 -104q75 -37 168 -37q134 0 231 60
zM590 1550l289 -299h-41l-275 275l-276 -275h-41l289 299h55z" />
    <glyph glyph-name="atilde" unicode="&#xe3;" horiz-adv-x="1142" 
d="M788 1042l-4 -4q92 -58 134 -143q43 -87 43 -184v-4v-713h-37v262q-49 -126 -154 -205q-106 -80 -270 -80q-108 0 -193 43q-84 43 -131 117t-47 170q0 108 70 172q71 65 172 92q118 31 241 47l318 41v25v4q0 100 -37 184q-39 88 -119 142q-82 55 -209 55q-117 0 -194 -39
q-81 -41 -123 -104q-43 -64 -49 -138h-39q9 92 57 160q49 70 137 113q87 43 209 43q136 0 225 -56zM729 66h2q98 61 146 159q49 101 49 228v163l-271 -34q-160 -21 -264 -45q-101 -24 -166 -80q-63 -54 -63 -154q0 -91 45 -156q45 -66 123 -104q75 -37 168 -37q134 0 231 60
zM274 1325v-6q18 60 62 90q45 31 92 31q31 0 68 -13q34 -12 73 -32q43 -19 62 -25q24 -8 55 -8q49 0 80 22q31 21 49 66h29q-18 -57 -62 -88q-45 -31 -92 -31q-32 0 -67 12q-20 7 -74 35q-43 19 -62 25q-30 10 -55 10q-49 0 -80 -22q-31 -21 -49 -66h-29z" />
    <glyph glyph-name="adieresis" unicode="&#xe4;" horiz-adv-x="1142" 
d="M788 1042l-4 -4q92 -58 134 -143q43 -87 43 -184v-4v-713h-37v262q-49 -126 -154 -205q-106 -80 -270 -80q-108 0 -193 43q-84 43 -131 117t-47 170q0 108 70 172q71 65 172 92q118 31 241 47l318 41v25v4q0 100 -37 184q-39 88 -119 142q-82 55 -209 55q-117 0 -194 -39
q-81 -41 -123 -104q-43 -64 -49 -138h-39q9 92 57 160q49 70 137 113q87 43 209 43q136 0 225 -56zM729 66h2q98 61 146 159q49 101 49 228v163l-271 -34q-160 -21 -264 -45q-101 -24 -166 -80q-63 -54 -63 -154q0 -91 45 -156q45 -66 123 -104q75 -37 168 -37q134 0 231 60
zM422 1309h-37v241h37v-241zM737 1309h-37v241h37v-241z" />
    <glyph glyph-name="aring" unicode="&#xe5;" horiz-adv-x="1142" 
d="M788 1042l-4 -4q92 -58 134 -143q43 -87 43 -184v-4v-713h-37v262q-49 -126 -154 -205q-106 -80 -270 -80q-108 0 -193 43q-84 43 -131 117t-47 170q0 108 70 172q71 65 172 92q118 31 241 47l318 41v25v4q0 100 -37 184q-39 88 -119 142q-82 55 -209 55q-117 0 -194 -39
q-81 -41 -123 -104q-43 -64 -49 -138h-39q9 92 57 160q49 70 137 113q87 43 209 43q136 0 225 -56zM729 66h2q98 61 146 159q49 101 49 228v163l-271 -34q-160 -21 -264 -45q-101 -24 -166 -80q-63 -54 -63 -154q0 -91 45 -156q45 -66 123 -104q75 -37 168 -37q134 0 231 60
zM479 1270l-6 -6q-38 21 -59 59q-23 41 -23 84t23 84q21 38 59 59q41 23 84 23q47 0 84 -21q38 -21 59 -59q23 -41 23 -82q0 -45 -21 -82q-21 -38 -59 -59q-41 -23 -82 -23t-82 23zM649 1313l-2 2q37 40 37 94q0 55 -37 92t-92 37q-54 0 -94 -37q-39 -36 -39 -92
q0 -38 18 -68q18 -31 49 -49q30 -18 68 -18q56 0 92 39z" />
    <glyph glyph-name="ae" unicode="&#xe6;" horiz-adv-x="2007" 
d="M1898 539l-937 -13q0 -155 59 -276q58 -119 164 -184q104 -64 237 -64q156 0 262 80q105 80 152 225h39q-47 -167 -166 -252q-121 -86 -289 -86q-115 0 -215 47q-96 45 -166 134q-67 84 -94 200q-24 -101 -82 -186q-61 -89 -155 -139q-102 -54 -230 -54q-107 0 -184 39
q-79 40 -123 109q-43 67 -43 157q0 120 68 185t178 86q116 22 268 22h283v109v4q0 100 -37 184q-39 88 -119 142q-82 55 -209 55q-117 0 -194 -39q-81 -41 -123 -104q-43 -64 -49 -138h-39q9 92 57 160q49 70 137 113q87 43 209 43q128 0 213 -49q86 -50 133 -127
q46 -75 55 -160q29 99 99 178q68 77 160 121q90 43 196 43q132 0 244 -68t176 -190q65 -124 65 -285v-22zM1182 989l-2 -4q-101 -66 -158 -174q-58 -110 -64 -252h895v6q-3 136 -61 246q-59 112 -160 176q-104 66 -227 66q-125 0 -223 -64zM918 522l-277 -4q-155 0 -260 -18
q-104 -18 -166 -74q-61 -55 -61 -162q0 -78 36 -137q37 -61 109 -96t170 -35q137 0 238 61q99 60 155 172t56 252v41z" />
    <glyph glyph-name="ccedilla" unicode="&#xe7;" horiz-adv-x="1169" 
d="M596 -23l-4 -90q42 0 80 -18q39 -19 59 -51q23 -38 23 -76q0 -67 -47 -111q-46 -43 -121 -43h-54v31h54q58 0 96 35q37 34 37 86t-37 86q-36 33 -90 33h-35v112q-130 12 -233 86q-102 74 -158 197q-55 122 -55 278q0 169 63 295q64 129 178 199q113 70 258 70
q171 0 287 -101q117 -102 166 -276h-39q-48 161 -150 250q-106 92 -262 92q-137 0 -243 -68q-105 -68 -160 -186q-55 -119 -55 -270q0 -152 55 -271q55 -118 160 -186q106 -68 243 -68q157 0 269 92q109 90 157 250h39q-34 -114 -98 -198q-62 -82 -158 -131
q-94 -48 -207 -48h-18z" />
    <glyph glyph-name="egrave" unicode="&#xe8;" horiz-adv-x="1193" 
d="M1085 539l-929 -2q0 -156 59 -277q58 -119 164 -184q104 -64 237 -64q157 0 263 80q104 79 151 225h39q-46 -166 -166 -251q-121 -86 -289 -86q-139 0 -252 67q-111 66 -180 195q-67 125 -67 301q0 168 65 295q64 125 176 196q110 70 244 70q132 0 244 -68t176 -190
q65 -124 65 -285v-22zM377 999l-2 -4q-101 -66 -158 -174t-63 -252h895v6q-3 134 -62 246t-160 176q-104 66 -227 66q-125 0 -223 -64zM653 1251h-39l-268 299h47z" />
    <glyph glyph-name="eacute" unicode="&#xe9;" horiz-adv-x="1193" 
d="M1085 539l-929 -2q0 -156 59 -277q58 -119 164 -184q104 -64 237 -64q157 0 263 80q104 79 151 225h39q-46 -166 -166 -251q-121 -86 -289 -86q-139 0 -252 67q-111 66 -180 195q-67 125 -67 301q0 168 65 295q64 125 176 196q110 70 244 70q132 0 244 -68t176 -190
q65 -124 65 -285v-22zM377 999l-2 -4q-101 -66 -158 -174t-63 -252h895v6q-3 134 -62 246t-160 176q-104 66 -227 66q-125 0 -223 -64zM582 1251h-39l260 299h47z" />
    <glyph glyph-name="ecircumflex" unicode="&#xea;" horiz-adv-x="1193" 
d="M1085 539l-929 -2q0 -156 59 -277q58 -119 164 -184q104 -64 237 -64q157 0 263 80q104 79 151 225h39q-46 -166 -166 -251q-121 -86 -289 -86q-139 0 -252 67q-111 66 -180 195q-67 125 -67 301q0 168 65 295q64 125 176 196q110 70 244 70q132 0 244 -68t176 -190
q65 -124 65 -285v-22zM377 999l-2 -4q-101 -66 -158 -174t-63 -252h895v6q-3 134 -62 246t-160 176q-104 66 -227 66q-125 0 -223 -64zM627 1550l288 -299h-41l-274 275l-276 -275h-41l288 299h56z" />
    <glyph glyph-name="edieresis" unicode="&#xeb;" horiz-adv-x="1193" 
d="M1085 539l-929 -2q0 -156 59 -277q58 -119 164 -184q104 -64 237 -64q157 0 263 80q104 79 151 225h39q-46 -166 -166 -251q-121 -86 -289 -86q-139 0 -252 67q-111 66 -180 195q-67 125 -67 301q0 168 65 295q64 125 176 196q110 70 244 70q132 0 244 -68t176 -190
q65 -124 65 -285v-22zM377 999l-2 -4q-101 -66 -158 -174t-63 -252h895v6q-3 134 -62 246t-160 176q-104 66 -227 66q-125 0 -223 -64zM459 1309h-37v241h37v-241zM774 1309h-37v241h37v-241z" />
    <glyph glyph-name="igrave" unicode="&#xec;" horiz-adv-x="425" 
d="M231 0h-36v1077h36v-1077zM231 1257h-38l-269 299h47z" />
    <glyph glyph-name="iacute" unicode="&#xed;" horiz-adv-x="425" 
d="M231 0h-36v1077h36v-1077zM233 1257h-38l260 299h47z" />
    <glyph glyph-name="icircumflex" unicode="&#xee;" horiz-adv-x="425" 
d="M231 0h-36v1077h36v-1077zM242 1556l288 -299h-41l-274 275l-276 -275h-41l288 299h56z" />
    <glyph glyph-name="idieresis" unicode="&#xef;" horiz-adv-x="425" 
d="M231 0h-36v1077h36v-1077zM74 1315h-37v241h37v-241zM389 1315h-37v241h37v-241z" />
    <glyph glyph-name="eth" unicode="&#xf0;" horiz-adv-x="1222" 
d="M745 1350v-11q174 -157 265 -356q92 -201 92 -430q0 -180 -66 -315q-64 -132 -178 -199q-115 -68 -252 -68q-145 0 -258 70q-114 70 -178 199q-64 128 -64 295q0 166 64 294q64 129 178 199q113 70 258 70q151 0 258 -76t166 -197q-35 134 -117 265q-84 135 -204 243
l-254 -98l-11 33l236 92q-143 119 -305 194h78q146 -81 264 -178l258 101l10 -33zM848 70v-4q104 67 160 188q55 119 55 270q0 152 -55 271q-56 121 -160 188q-106 68 -240 68q-133 0 -239 -68q-105 -68 -160 -186q-55 -119 -55 -271q0 -151 55 -270q55 -118 160 -186
q106 -68 239 -68q134 0 240 68z" />
    <glyph glyph-name="ntilde" unicode="&#xf1;" horiz-adv-x="1167" 
d="M786 1049l-2 -2q92 -53 148 -148q55 -94 55 -227v-4v-670h-37v661v5q0 122 -49 213q-50 92 -131 141q-82 49 -180 49t-180 -49q-81 -49 -131 -141t-50 -211v-666h-36v1077h36v-229q46 115 142 184q95 68 219 68q107 0 196 -51zM293 1329v-6q19 61 61 90q45 31 92 31
q33 0 68 -12q31 -11 74 -33q46 -20 61 -25q24 -8 56 -8q46 0 79 23t50 65h28q-18 -58 -61 -88q-45 -31 -92 -31q-31 0 -68 13q-26 9 -74 34q-46 20 -61 25q-30 10 -55 10q-49 0 -80 -22q-31 -21 -49 -66h-29z" />
    <glyph glyph-name="ograve" unicode="&#xf2;" horiz-adv-x="1218" 
d="M354 47h-4q-114 70 -178 199q-63 126 -63 295t63 295q64 127 178 198q113 70 258 70q146 0 256 -70q113 -72 176 -198q64 -128 64 -295t-64 -295q-65 -130 -174 -199q-110 -70 -254 -70q-145 0 -258 70zM844 80v-4q104 67 160 188q55 119 55 271q0 151 -55 270
q-56 121 -160 188q-106 68 -240 68q-133 0 -239 -68q-105 -68 -160 -186q-55 -119 -55 -270q0 -152 55 -271q55 -118 160 -186q106 -68 239 -68q134 0 240 68zM659 1253h-38l-269 299h47z" />
    <glyph glyph-name="oacute" unicode="&#xf3;" horiz-adv-x="1218" 
d="M354 47h-4q-114 70 -178 199q-63 126 -63 295t63 295q64 127 178 198q113 70 258 70q146 0 256 -70q113 -72 176 -198q64 -128 64 -295t-64 -295q-65 -130 -174 -199q-110 -70 -254 -70q-145 0 -258 70zM844 80v-4q104 67 160 188q55 119 55 271q0 151 -55 270
q-56 121 -160 188q-106 68 -240 68q-133 0 -239 -68q-105 -68 -160 -186q-55 -119 -55 -270q0 -152 55 -271q55 -118 160 -186q106 -68 239 -68q134 0 240 68zM588 1253h-39l260 299h47z" />
    <glyph glyph-name="ocircumflex" unicode="&#xf4;" horiz-adv-x="1218" 
d="M354 47h-4q-114 70 -178 199q-63 126 -63 295t63 295q64 127 178 198q113 70 258 70q146 0 256 -70q113 -72 176 -198q64 -128 64 -295t-64 -295q-65 -130 -174 -199q-110 -70 -254 -70q-145 0 -258 70zM844 80v-4q104 67 160 188q55 119 55 271q0 151 -55 270
q-56 121 -160 188q-106 68 -240 68q-133 0 -239 -68q-105 -68 -160 -186q-55 -119 -55 -270q0 -152 55 -271q55 -118 160 -186q106 -68 239 -68q134 0 240 68zM633 1552l289 -299h-41l-275 275l-276 -275h-41l289 299h55z" />
    <glyph glyph-name="otilde" unicode="&#xf5;" horiz-adv-x="1218" 
d="M354 47h-4q-114 70 -178 199q-63 126 -63 295t63 295q64 127 178 198q113 70 258 70q146 0 256 -70q113 -72 176 -198q64 -128 64 -295t-64 -295q-65 -130 -174 -199q-110 -70 -254 -70q-145 0 -258 70zM844 80v-4q104 67 160 188q55 119 55 271q0 151 -55 270
q-56 121 -160 188q-106 68 -240 68q-133 0 -239 -68q-105 -68 -160 -186q-55 -119 -55 -270q0 -152 55 -271q55 -118 160 -186q106 -68 239 -68q134 0 240 68zM317 1327v-6q18 60 62 90q45 31 92 31q33 0 68 -12q28 -10 73 -33q43 -19 62 -25q24 -8 55 -8q49 0 80 22
q31 21 49 66h29q-18 -57 -62 -88q-45 -31 -92 -31q-30 0 -67 13q-26 9 -74 34q-43 19 -62 25q-30 10 -55 10q-49 0 -80 -22q-31 -21 -49 -66h-29z" />
    <glyph glyph-name="odieresis" unicode="&#xf6;" horiz-adv-x="1218" 
d="M354 47h-4q-114 70 -178 199q-63 126 -63 295t63 295q64 127 178 198q113 70 258 70q146 0 256 -70q113 -72 176 -198q64 -128 64 -295t-64 -295q-65 -130 -174 -199q-110 -70 -254 -70q-145 0 -258 70zM844 80v-4q104 67 160 188q55 119 55 271q0 151 -55 270
q-56 121 -160 188q-106 68 -240 68q-133 0 -239 -68q-105 -68 -160 -186q-55 -119 -55 -270q0 -152 55 -271q55 -118 160 -186q106 -68 239 -68q134 0 240 68zM465 1311h-37v241h37v-241zM780 1311h-37v241h37v-241z" />
    <glyph glyph-name="divide" unicode="&#xf7;" horiz-adv-x="1421" 
d="M731 848h-41v229h41v-229zM1249 532h-1077v37h1077v-37zM731 0h-41v229h41v-229z" />
    <glyph glyph-name="oslash" unicode="&#xf8;" horiz-adv-x="1218" 
d="M1139 1077l-158 -162q55 -73 86 -170q31 -98 31 -208q0 -167 -64 -295q-65 -130 -174 -199q-110 -70 -254 -70q-105 0 -198 41t-158 115l-123 -131h-49l149 160q-57 71 -88 170q-30 94 -30 209q0 168 63 294q64 129 178 199q113 70 258 70q111 0 199 -39q95 -42 158 -117
l125 133h49zM172 342l-4 -6q27 -87 80 -156l682 729q-60 69 -146 111q-79 39 -184 39q-134 0 -240 -68q-104 -67 -159 -186q-56 -121 -56 -270q0 -105 27 -193zM1026 723q-28 93 -76 158l-682 -729q60 -69 146 -111q79 -39 184 -39q134 0 240 68q103 66 159 188
q56 121 56 270q0 106 -27 195z" />
    <glyph glyph-name="ugrave" unicode="&#xf9;" horiz-adv-x="1157" 
d="M926 1077l30 -2v-1077h-36v229q-46 -116 -138 -184t-215 -68q-102 0 -190 52q-92 54 -146 147q-55 94 -55 227v5v669h37v-661v-4q0 -120 49 -211q51 -94 131 -142q82 -49 178 -49q98 0 177 49t129 142q49 91 49 213v665zM621 1255h-39l-269 299h47z" />
    <glyph glyph-name="uacute" unicode="&#xfa;" horiz-adv-x="1157" 
d="M926 1077l30 -2v-1077h-36v229q-46 -116 -138 -184t-215 -68q-102 0 -190 52q-92 54 -146 147q-55 94 -55 227v5v669h37v-661v-4q0 -120 49 -211q51 -94 131 -142q82 -49 178 -49q98 0 177 49t129 142q49 91 49 213v665zM549 1255h-39l260 299h47z" />
    <glyph glyph-name="ucircumflex" unicode="&#xfb;" horiz-adv-x="1157" 
d="M926 1077l30 -2v-1077h-36v229q-46 -116 -138 -184t-215 -68q-102 0 -190 52q-92 54 -146 147q-55 94 -55 227v5v669h37v-661v-4q0 -120 49 -211q51 -94 131 -142q82 -49 178 -49q98 0 177 49t129 142q49 91 49 213v665zM594 1554l289 -299h-41l-275 275l-276 -275h-41
l289 299h55z" />
    <glyph glyph-name="udieresis" unicode="&#xfc;" horiz-adv-x="1157" 
d="M926 1077l30 -2v-1077h-36v229q-46 -116 -138 -184t-215 -68q-102 0 -190 52q-92 54 -146 147q-55 94 -55 227v5v669h37v-661v-4q0 -120 49 -211q51 -94 131 -142q82 -49 178 -49q98 0 177 49t129 142q49 91 49 213v665zM426 1313h-37v241h37v-241zM741 1313h-36v241h36
v-241z" />
    <glyph glyph-name="yacute" unicode="&#xfd;" horiz-adv-x="1097" 
d="M553 109h-41l-483 968h41zM420 -401h-41l643 1478h39zM530 1257h-38l260 299h47z" />
    <glyph glyph-name="thorn" unicode="&#xfe;" horiz-adv-x="1296" 
d="M944 1030l-4 4q116 -72 176 -198q62 -130 62 -295t-62 -295t-174 -199q-113 -70 -258 -70q-113 0 -207 48q-93 47 -153 122q-59 73 -95 172v-720h-36v1957h36v-798q34 94 97 172q62 76 153 123q92 47 207 47q145 0 258 -70zM922 84v-4q103 66 159 188q56 121 56 271
q0 149 -56 270q-56 122 -159 188q-106 68 -240 68t-240 -68q-104 -67 -159 -186q-56 -121 -56 -270q0 -150 56 -271q55 -119 159 -186q106 -68 240 -68t240 68z" />
    <glyph glyph-name="ydieresis" unicode="&#xff;" horiz-adv-x="1097" 
d="M553 109h-41l-483 968h41zM420 -401h-41l643 1478h39zM408 1315h-37v241h37v-241zM723 1315h-37v241h37v-241z" />
    <glyph glyph-name="Amacron" unicode="&#x100;" horiz-adv-x="1470" 
d="M1452 0h-45l-229 549h-885l-230 -549h-45l652 1556h45l-406 -968h852l-405 968h45zM1059 1802h-647v35h647v-35z" />
    <glyph glyph-name="amacron" unicode="&#x101;" horiz-adv-x="1142" 
d="M788 1042l-4 -4q92 -58 134 -143q43 -87 43 -184v-4v-713h-37v262q-49 -126 -154 -205q-106 -80 -270 -80q-108 0 -193 43q-84 43 -131 117t-47 170q0 108 70 172q71 65 172 92q118 31 241 47l318 41v25v4q0 100 -37 184q-39 88 -119 142q-82 55 -209 55q-117 0 -194 -39
q-81 -41 -123 -104q-43 -64 -49 -138h-39q9 92 57 160q49 70 137 113q87 43 209 43q136 0 225 -56zM729 66h2q98 61 146 159q49 101 49 228v163l-271 -34q-160 -21 -264 -45q-101 -24 -166 -80q-63 -54 -63 -154q0 -91 45 -156q45 -66 123 -104q75 -37 168 -37q134 0 231 60
zM864 1372h-606v33h606v-33z" />
    <glyph glyph-name="Abreve" unicode="&#x102;" horiz-adv-x="1470" 
d="M1452 0h-45l-229 549h-885l-230 -549h-45l652 1556h45l-406 -968h852l-405 968h45zM600 1720h-4q-59 37 -84 88q-29 60 -29 127h35q0 -102 55 -157q56 -56 158 -56t158 56q55 55 55 157h35q0 -67 -29 -127q-25 -51 -84 -88q-51 -32 -133 -32t-133 32z" />
    <glyph glyph-name="abreve" unicode="&#x103;" horiz-adv-x="1142" 
d="M788 1042l-4 -4q92 -58 134 -143q43 -87 43 -184v-4v-713h-37v262q-49 -126 -154 -205q-106 -80 -270 -80q-108 0 -193 43q-84 43 -131 117t-47 170q0 108 70 172q71 65 172 92q118 31 241 47l318 41v25v4q0 100 -37 184q-39 88 -119 142q-82 55 -209 55q-117 0 -194 -39
q-81 -41 -123 -104q-43 -64 -49 -138h-39q9 92 57 160q49 70 137 113q87 43 209 43q136 0 225 -56zM729 66h2q98 61 146 159q49 101 49 228v163l-271 -34q-160 -21 -264 -45q-101 -24 -166 -80q-63 -54 -63 -154q0 -91 45 -156q45 -66 123 -104q75 -37 168 -37q134 0 231 60
zM424 1288l-4 -2q-57 40 -88 109q-31 70 -31 153h33q0 -79 28 -143q26 -58 80 -94q50 -33 117 -33t117 33q54 36 80 94q28 64 28 143h33q0 -83 -31 -153q-31 -69 -88 -109q-56 -39 -137 -39q-78 0 -137 41z" />
    <glyph glyph-name="Aogonek" unicode="&#x104;" horiz-adv-x="1470" 
d="M1315 -330h4q43 -37 108 -37h27v-34h-27q-53 0 -94 20t-69 62q-27 41 -27 96q0 71 43 123q41 50 127 98l-229 549h-885l-230 -549h-45l652 1556h45l-406 -968h852l-405 968h45l651 -1556q-94 -58 -137 -107t-43 -116q0 -68 43 -105z" />
    <glyph glyph-name="aogonek" unicode="&#x105;" horiz-adv-x="1142" 
d="M788 1042l-8 -2q91 -57 133 -143q43 -87 43 -184v-4v-713q-97 -60 -139 -111q-43 -52 -43 -116q0 -69 45 -105q46 -37 111 -37h26v-33h-26q-50 0 -94 21q-45 22 -68 61q-25 42 -25 97q0 69 48 123q44 50 133 98v262q-49 -126 -154 -205q-106 -80 -270 -80q-108 0 -193 43
q-84 43 -131 117t-47 170q0 108 70 172q71 65 172 92q118 31 241 47l318 41v25v4q0 100 -37 184q-39 88 -119 142q-82 55 -209 55q-117 0 -194 -39q-81 -41 -123 -104q-43 -64 -49 -138h-39q9 92 57 160q49 70 137 113q87 43 209 43q136 0 225 -56zM725 68h2q97 60 145 159
q50 103 50 228v163l-271 -34q-160 -21 -264 -45q-101 -24 -166 -80q-63 -54 -63 -154q0 -90 45 -155q47 -68 123 -105q75 -37 168 -37q134 0 231 60z" />
    <glyph glyph-name="Cacute" unicode="&#x106;" horiz-adv-x="1581" 
d="M471 78l-6 -2q-159 104 -248 284q-92 186 -92 416q0 234 92 416q90 179 252 283q159 102 354 102q166 0 297 -64q135 -66 221 -174q90 -113 136 -249h-43q-73 200 -228 325q-153 123 -379 123q-179 0 -327 -98q-153 -101 -240 -273q-88 -175 -88 -393t88 -393
q86 -171 236 -272q147 -99 315 -99q242 0 399 121q158 121 234 332h43q-83 -237 -252 -363q-168 -125 -424 -125q-182 0 -340 103zM801 1690h-43l270 241h51z" />
    <glyph glyph-name="cacute" unicode="&#x107;" horiz-adv-x="1169" 
d="M354 47l-4 -8q-114 70 -178 199q-63 126 -63 294q0 169 63 295q64 129 178 199q113 70 258 70q171 0 287 -101q117 -102 166 -276h-39q-48 161 -150 250q-106 92 -262 92q-137 0 -243 -68q-105 -68 -160 -186q-55 -119 -55 -270q0 -152 55 -271q55 -118 160 -186
q106 -68 243 -68q157 0 269 92q109 90 157 250h39q-34 -114 -98 -198q-62 -82 -158 -131q-94 -48 -207 -48q-145 0 -258 70zM592 1249h-39l260 299h47z" />
    <glyph glyph-name="Ccircumflex" unicode="&#x108;" horiz-adv-x="1581" 
d="M471 78l-6 -2q-159 104 -248 284q-92 186 -92 416q0 234 92 416q90 179 252 283q159 102 354 102q166 0 297 -64q135 -66 221 -174q90 -113 136 -249h-43q-73 200 -228 325q-153 123 -379 123q-179 0 -327 -98q-153 -101 -240 -273q-88 -175 -88 -393t88 -393
q86 -171 236 -272q147 -99 315 -99q242 0 399 121q158 121 234 332h43q-83 -237 -252 -363q-168 -125 -424 -125q-182 0 -340 103zM854 1931l285 -241h-45l-271 219l-272 -219h-45l285 241h63z" />
    <glyph glyph-name="ccircumflex" unicode="&#x109;" horiz-adv-x="1169" 
d="M354 47l-4 -8q-114 70 -178 199q-63 126 -63 294q0 169 63 295q64 129 178 199q113 70 258 70q171 0 287 -101q117 -102 166 -276h-39q-48 161 -150 250q-106 92 -262 92q-137 0 -243 -68q-105 -68 -160 -186q-55 -119 -55 -270q0 -152 55 -271q55 -118 160 -186
q106 -68 243 -68q157 0 269 92q109 90 157 250h39q-34 -114 -98 -198q-62 -82 -158 -131q-94 -48 -207 -48q-145 0 -258 70zM637 1548l289 -299h-41l-275 275l-276 -275h-41l289 299h55z" />
    <glyph glyph-name="Cdotaccent" unicode="&#x10a;" horiz-adv-x="1581" 
d="M471 78l-6 -2q-159 104 -248 284q-92 186 -92 416q0 234 92 416q90 179 252 283q159 102 354 102q166 0 297 -64q135 -66 221 -174q90 -113 136 -249h-43q-73 200 -228 325q-153 123 -379 123q-179 0 -327 -98q-153 -101 -240 -273q-88 -175 -88 -393t88 -393
q86 -171 236 -272q147 -99 315 -99q242 0 399 121q158 121 234 332h43q-83 -237 -252 -363q-168 -125 -424 -125q-182 0 -340 103zM842 1690h-41v241h41v-241z" />
    <glyph glyph-name="cdotaccent" unicode="&#x10b;" horiz-adv-x="1169" 
d="M354 47l-4 -8q-114 70 -178 199q-63 126 -63 294q0 169 63 295q64 129 178 199q113 70 258 70q171 0 287 -101q117 -102 166 -276h-39q-48 161 -150 250q-106 92 -262 92q-137 0 -243 -68q-105 -68 -160 -186q-55 -119 -55 -270q0 -152 55 -271q55 -118 160 -186
q106 -68 243 -68q157 0 269 92q109 90 157 250h39q-34 -114 -98 -198q-62 -82 -158 -131q-94 -48 -207 -48q-145 0 -258 70zM627 1307h-37v241h37v-241z" />
    <glyph glyph-name="Ccaron" unicode="&#x10c;" horiz-adv-x="1581" 
d="M471 78l-6 -2q-159 104 -248 284q-92 186 -92 416q0 234 92 416q90 179 252 283q159 102 354 102q166 0 297 -64q135 -66 221 -174q90 -113 136 -249h-43q-73 200 -228 325q-153 123 -379 123q-179 0 -327 -98q-153 -101 -240 -273q-88 -175 -88 -393t88 -393
q86 -171 236 -272q147 -99 315 -99q242 0 399 121q158 121 234 332h43q-83 -237 -252 -363q-168 -125 -424 -125q-182 0 -340 103zM821 1712l271 219h45l-285 -241h-64l-284 241h45z" />
    <glyph glyph-name="ccaron" unicode="&#x10d;" horiz-adv-x="1169" 
d="M354 47l-4 -8q-114 70 -178 199q-63 126 -63 294q0 169 63 295q64 129 178 199q113 70 258 70q171 0 287 -101q117 -102 166 -276h-39q-48 161 -150 250q-106 92 -262 92q-137 0 -243 -68q-105 -68 -160 -186q-55 -119 -55 -270q0 -152 55 -271q55 -118 160 -186
q106 -68 243 -68q157 0 269 92q109 90 157 250h39q-34 -114 -98 -198q-62 -82 -158 -131q-94 -48 -207 -48q-145 0 -258 70zM608 1274l275 274h41l-289 -299h-55l-289 299h41z" />
    <glyph glyph-name="Dcaron" unicode="&#x10e;" horiz-adv-x="1619" 
d="M727 1556v-4q228 0 401 -92t265 -268t92 -416t-92 -416t-265 -268t-401 -92h-489v1556h489zM727 35q211 0 375 86q164 85 252 252q90 169 90 401q0 233 -90 402q-88 165 -252 251t-375 86h-448v-1478h448zM766 1712l270 219h45l-284 -241h-64l-284 241h45z" />
    <glyph glyph-name="dcaron" unicode="&#x10f;" horiz-adv-x="1296" 
d="M1065 1556l33 -8v-1556h-37v319q-37 -101 -94 -172q-61 -76 -154 -123q-89 -45 -207 -45q-145 0 -258 70q-112 69 -174 199q-61 128 -61 295q0 166 61 294t176 199q113 70 258 70q118 0 207 -45q93 -47 154 -123t96 -172v798zM844 72v-4q104 67 160 188q55 119 55 270
q0 152 -55 271q-56 121 -160 188q-106 68 -240 68q-133 0 -239 -68q-105 -68 -160 -186q-55 -119 -55 -271q0 -151 55 -270q55 -118 160 -186q106 -68 239 -68q134 0 240 68zM1233 1176h-31l39 368h37z" />
    <glyph glyph-name="Dcroat" unicode="&#x110;" horiz-adv-x="1619" 
d="M727 1556v-4q228 0 401 -92t265 -268t92 -416t-92 -416t-265 -268t-401 -92h-489v788h-193v35h193v733h489zM727 35q211 0 375 86q164 85 252 252q90 169 90 401q0 233 -90 402q-88 165 -252 251t-375 86h-448v-694h479v-35h-479v-749h448z" />
    <glyph glyph-name="dcroat" unicode="&#x111;" horiz-adv-x="1296" 
d="M1266 1352l-4 -41h-164v-1319h-37v319q-37 -101 -94 -172q-61 -76 -154 -123q-89 -45 -207 -45q-145 0 -258 70q-112 69 -174 199q-61 128 -61 295q0 166 61 294t176 199q113 70 258 70q118 0 207 -45q93 -47 154 -123t96 -172v561h-227v33h227v204h37v-204h164zM844 72
v-4q104 67 160 188q55 119 55 270q0 152 -55 271q-56 121 -160 188q-106 68 -240 68q-133 0 -239 -68q-105 -68 -160 -186q-55 -119 -55 -271q0 -151 55 -270q55 -118 160 -186q106 -68 239 -68q134 0 240 68z" />
    <glyph glyph-name="Emacron" unicode="&#x112;" horiz-adv-x="1306" 
d="M279 788v-749h909v-39h-950v1556h931v-38h-890v-691h876v-39h-876zM1028 1802h-647v35h647v-35z" />
    <glyph glyph-name="emacron" unicode="&#x113;" horiz-adv-x="1193" 
d="M1085 539l-929 -2q0 -156 59 -277q58 -119 164 -184q104 -64 237 -64q157 0 263 80q104 79 151 225h39q-46 -166 -166 -251q-121 -86 -289 -86q-139 0 -252 67q-111 66 -180 195q-67 125 -67 301q0 168 65 295q64 125 176 196q110 70 244 70q132 0 244 -68t176 -190
q65 -124 65 -285v-22zM377 999l-2 -4q-101 -66 -158 -174t-63 -252h895v6q-3 134 -62 246t-160 176q-104 66 -227 66q-125 0 -223 -64zM901 1372h-606v33h606v-33z" />
    <glyph glyph-name="Ebreve" unicode="&#x114;" horiz-adv-x="1306" 
d="M279 788v-749h909v-39h-950v1556h931v-38h-890v-691h876v-39h-876zM569 1720h-4q-59 37 -84 88q-28 58 -28 127h34q0 -101 56 -157t157 -56q102 0 158 56q55 55 55 157h35q0 -69 -28 -127q-25 -51 -84 -88q-51 -32 -134 -32q-82 0 -133 32z" />
    <glyph glyph-name="ebreve" unicode="&#x115;" horiz-adv-x="1193" 
d="M1085 539l-929 -2q0 -156 59 -277q58 -119 164 -184q104 -64 237 -64q157 0 263 80q104 79 151 225h39q-46 -166 -166 -251q-121 -86 -289 -86q-139 0 -252 67q-111 66 -180 195q-67 125 -67 301q0 168 65 295q64 125 176 196q110 70 244 70q132 0 244 -68t176 -190
q65 -124 65 -285v-22zM377 999l-2 -4q-101 -66 -158 -174t-63 -252h895v6q-3 134 -62 246t-160 176q-104 66 -227 66q-125 0 -223 -64zM461 1286l-4 -2q-57 40 -88 109q-31 70 -31 153h33q0 -79 28 -143q26 -58 80 -94q50 -33 117 -33t117 33q54 36 80 94q28 64 28 143h33
q0 -83 -31 -153q-31 -69 -88 -109q-56 -39 -137 -39q-78 0 -137 41z" />
    <glyph glyph-name="Edotaccent" unicode="&#x116;" horiz-adv-x="1306" 
d="M279 788v-749h909v-39h-950v1556h931v-38h-890v-691h876v-39h-876zM725 1694h-41v241h41v-241z" />
    <glyph glyph-name="edotaccent" unicode="&#x117;" horiz-adv-x="1193" 
d="M1085 539l-929 -2q0 -156 59 -277q58 -119 164 -184q104 -64 237 -64q157 0 263 80q104 79 151 225h39q-46 -166 -166 -251q-121 -86 -289 -86q-139 0 -252 67q-111 66 -180 195q-67 125 -67 301q0 168 65 295q64 125 176 196q110 70 244 70q132 0 244 -68t176 -190
q65 -124 65 -285v-22zM377 999l-2 -4q-101 -66 -158 -174t-63 -252h895v6q-3 134 -62 246t-160 176q-104 66 -227 66q-125 0 -223 -64zM616 1309h-36v241h36v-241z" />
    <glyph glyph-name="Eogonek" unicode="&#x118;" horiz-adv-x="1306" 
d="M1188 0h2q-96 -60 -137 -106q-43 -49 -43 -117t43 -105t108 -37h27v-34h-27q-53 0 -94 20q-42 20 -70 62q-26 39 -26 96q0 72 45 123q46 52 131 98h-909v1556h931v-38h-890v-691h876v-39h-876v-749h909v-39z" />
    <glyph glyph-name="eogonek" unicode="&#x119;" horiz-adv-x="1193" 
d="M1085 539l-940 -9q0 -153 60 -276q58 -119 164 -184q104 -64 237 -64q156 0 262 80q105 80 152 225h39q-47 -170 -172 -258q-90 -73 -123 -106q-44 -44 -62 -84q-18 -41 -18 -90q0 -69 45 -105q46 -37 111 -37h26v-32h-26q-54 0 -95 20q-42 20 -67 62t-25 96q0 64 37 119
t113 116q-77 -32 -189 -32q-139 0 -252 67q-111 66 -180 195q-67 125 -67 301q0 168 65 295q64 125 176 196q110 70 244 70q132 0 244 -68t176 -190q65 -124 65 -285v-22zM367 993l-2 -4q-101 -66 -158 -174q-58 -110 -64 -252h895v6q-3 136 -61 246q-59 112 -160 176
q-104 66 -227 66q-125 0 -223 -64z" />
    <glyph glyph-name="Ecaron" unicode="&#x11a;" horiz-adv-x="1306" 
d="M279 788v-749h909v-39h-950v1556h931v-38h-890v-691h876v-39h-876zM705 1716l270 219h45l-285 -241h-63l-285 241h45z" />
    <glyph glyph-name="ecaron" unicode="&#x11b;" horiz-adv-x="1193" 
d="M1085 539l-929 -2q0 -156 59 -277q58 -119 164 -184q104 -64 237 -64q157 0 263 80q104 79 151 225h39q-46 -166 -166 -251q-121 -86 -289 -86q-139 0 -252 67q-111 66 -180 195q-67 125 -67 301q0 168 65 295q64 125 176 196q110 70 244 70q132 0 244 -68t176 -190
q65 -124 65 -285v-22zM377 999l-2 -4q-101 -66 -158 -174t-63 -252h895v6q-3 134 -62 246t-160 176q-104 66 -227 66q-125 0 -223 -64zM598 1276l274 274h41l-288 -299h-56l-288 299h41z" />
    <glyph glyph-name="Gcircumflex" unicode="&#x11c;" horiz-adv-x="1675" 
d="M797 772l706 -2v-772h-41v471q-26 -120 -104 -233q-77 -111 -209 -185q-133 -74 -313 -74q-198 0 -359 103q-162 104 -252 285q-92 186 -92 415q0 230 92 416q90 181 252 285q159 102 350 102q172 0 301 -63q138 -67 220 -174q87 -113 133 -250h-43q-73 200 -228 325
q-153 123 -383 123q-177 0 -325 -98q-154 -102 -240 -272q-88 -175 -88 -394q0 -218 88 -393q86 -170 240 -272q150 -99 332 -99q173 0 317 84q143 84 225 246q84 166 84 381v6h-663v39zM860 1933l285 -241h-45l-271 219l-272 -219h-45l285 241h63z" />
    <glyph glyph-name="gcircumflex" unicode="&#x11d;" horiz-adv-x="1296" 
d="M1069 1077l29 -6v-1124q0 -114 -58 -199q-58 -84 -163 -131q-102 -45 -240 -45q-134 0 -238 43t-166 123q-61 79 -67 188h39q9 -108 67 -178q56 -67 154 -106q93 -37 209 -37q123 0 221 43q97 43 154 121q55 76 55 182v385q-27 -95 -92 -172q-65 -76 -156 -123
q-89 -45 -207 -45q-145 0 -258 67q-112 66 -174 193q-61 125 -61 291t61 291q60 123 176 192q115 68 258 68q118 0 207 -45q95 -48 158 -123q65 -77 92 -172v319zM844 92q104 64 160 182q55 116 55 269q0 152 -55 268q-56 118 -160 182q-107 66 -242 66q-136 0 -240 -66
q-101 -64 -157 -182q-55 -116 -55 -268q0 -153 55 -269q56 -118 157 -182q103 -65 240 -65q136 0 242 65zM631 1550l289 -299h-41l-275 275l-276 -275h-41l288 299h56z" />
    <glyph glyph-name="Gbreve" unicode="&#x11e;" horiz-adv-x="1675" 
d="M797 772l706 -2v-772h-41v471q-26 -120 -104 -233q-77 -111 -209 -185q-133 -74 -313 -74q-198 0 -359 103q-162 104 -252 285q-92 186 -92 415q0 230 92 416q90 181 252 285q159 102 350 102q172 0 301 -63q138 -67 220 -174q87 -113 133 -250h-43q-73 200 -228 325
q-153 123 -383 123q-177 0 -325 -98q-154 -102 -240 -272q-88 -175 -88 -394q0 -218 88 -393q86 -170 240 -272q150 -99 332 -99q173 0 317 84q143 84 225 246q84 166 84 381v6h-663v39zM692 1718h-4q-59 37 -84 88q-29 60 -29 127h35q0 -101 56 -157t157 -56q102 0 158 56
q55 55 55 157h35q0 -67 -29 -127q-25 -51 -84 -88q-51 -32 -133 -32t-133 32z" />
    <glyph glyph-name="gbreve" unicode="&#x11f;" horiz-adv-x="1296" 
d="M1069 1077l29 -6v-1124q0 -114 -58 -199q-58 -84 -163 -131q-102 -45 -240 -45q-134 0 -238 43t-166 123q-61 79 -67 188h39q9 -108 67 -178q56 -67 154 -106q93 -37 209 -37q123 0 221 43q97 43 154 121q55 76 55 182v385q-27 -95 -92 -172q-65 -76 -156 -123
q-89 -45 -207 -45q-145 0 -258 67q-112 66 -174 193q-61 125 -61 291t61 291q60 123 176 192q115 68 258 68q118 0 207 -45q95 -48 158 -123q65 -77 92 -172v319zM844 92q104 64 160 182q55 116 55 269q0 152 -55 268q-56 118 -160 182q-107 66 -242 66q-136 0 -240 -66
q-101 -64 -157 -182q-55 -116 -55 -268q0 -153 55 -269q56 -118 157 -182q103 -65 240 -65q136 0 242 65zM465 1286l-4 -2q-57 40 -88 109q-31 70 -31 153h33q0 -79 28 -143q26 -58 80 -94q50 -33 117 -33t117 33q54 36 80 94q28 64 28 143h33q0 -83 -31 -153
q-31 -69 -88 -109q-56 -39 -137 -39q-78 0 -137 41z" />
    <glyph glyph-name="Gdotaccent" unicode="&#x120;" horiz-adv-x="1675" 
d="M797 772l706 -2v-772h-41v471q-26 -120 -104 -233q-77 -111 -209 -185q-133 -74 -313 -74q-198 0 -359 103q-162 104 -252 285q-92 186 -92 415q0 230 92 416q90 181 252 285q159 102 350 102q172 0 301 -63q138 -67 220 -174q87 -113 133 -250h-43q-73 200 -228 325
q-153 123 -383 123q-177 0 -325 -98q-154 -102 -240 -272q-88 -175 -88 -394q0 -218 88 -393q86 -170 240 -272q150 -99 332 -99q173 0 317 84q143 84 225 246q84 166 84 381v6h-663v39zM848 1692h-41v241h41v-241z" />
    <glyph glyph-name="gdotaccent" unicode="&#x121;" horiz-adv-x="1296" 
d="M1069 1077l29 -6v-1124q0 -114 -58 -199q-58 -84 -163 -131q-102 -45 -240 -45q-134 0 -238 43t-166 123q-61 79 -67 188h39q9 -108 67 -178q56 -67 154 -106q93 -37 209 -37q123 0 221 43q97 43 154 121q55 76 55 182v385q-27 -95 -92 -172q-65 -76 -156 -123
q-89 -45 -207 -45q-145 0 -258 67q-112 66 -174 193q-61 125 -61 291t61 291q60 123 176 192q115 68 258 68q118 0 207 -45q95 -48 158 -123q65 -77 92 -172v319zM844 92q104 64 160 182q55 116 55 269q0 152 -55 268q-56 118 -160 182q-107 66 -242 66q-136 0 -240 -66
q-101 -64 -157 -182q-55 -116 -55 -268q0 -153 55 -269q56 -118 157 -182q103 -65 240 -65q136 0 242 65zM621 1309h-37v241h37v-241z" />
    <glyph glyph-name="uni0122" unicode="&#x122;" horiz-adv-x="1675" 
d="M797 772l706 -2v-772h-41v471q-26 -120 -104 -233q-77 -111 -209 -185q-133 -74 -313 -74q-198 0 -359 103q-162 104 -252 285q-92 186 -92 415q0 230 92 416q90 181 252 285q159 102 350 102q172 0 301 -63q138 -67 220 -174q87 -113 133 -250h-43q-73 200 -228 325
q-153 123 -383 123q-177 0 -325 -98q-154 -102 -240 -272q-88 -175 -88 -394q0 -218 88 -393q86 -170 240 -272q150 -99 332 -99q173 0 317 84q143 84 225 246q84 166 84 381v6h-663v39zM825 -395v233h41v-237l-67 -144h-43z" />
    <glyph glyph-name="uni0123" unicode="&#x123;" horiz-adv-x="1296" 
d="M1069 1077l29 -6v-1124q0 -114 -58 -199q-58 -84 -163 -131q-102 -45 -240 -45q-134 0 -238 43t-166 123q-61 79 -67 188h39q9 -108 67 -178q56 -67 154 -106q93 -37 209 -37q123 0 221 43q97 43 154 121q55 76 55 182v385q-27 -95 -92 -172q-65 -76 -156 -123
q-89 -45 -207 -45q-145 0 -258 67q-112 66 -174 193q-61 125 -61 291t61 291q60 123 176 192q115 68 258 68q118 0 207 -45q95 -48 158 -123q65 -77 92 -172v319zM844 92q104 64 160 182q55 116 55 269q0 152 -55 268q-56 118 -160 182q-107 66 -242 66q-136 0 -240 -66
q-101 -64 -157 -182q-55 -116 -55 -268q0 -153 55 -269q56 -118 157 -182q103 -65 240 -65q136 0 242 65zM651 1690h39l-69 -148v-233h-37v237z" />
    <glyph glyph-name="Hcircumflex" unicode="&#x124;" horiz-adv-x="1611" 
d="M1333 827v729h41v-1556h-41v788h-1054v-788h-41v1556h41v-729h1054zM840 1935l284 -241h-45l-270 219l-272 -219h-45l284 241h64z" />
    <glyph glyph-name="hcircumflex" unicode="&#x125;" horiz-adv-x="1167" 
d="M786 1049l-2 -2q92 -53 148 -148q55 -94 55 -227v-4v-670h-37v661v5q0 122 -49 213q-50 92 -131 141q-82 49 -180 49t-180 -49q-81 -49 -131 -141t-50 -211v-666h-36v1556h36v-708q46 115 142 184q95 68 219 68q107 0 196 -51zM242 1933l284 -241h-45l-270 219l-272 -219
h-45l284 241h64z" />
    <glyph glyph-name="Hbar" unicode="&#x126;" horiz-adv-x="1611" 
d="M1374 1204h228v-35h-228v-1169h-41v788h-1054v-788h-41v1169h-228v35h228v352h41v-352h1054v352h41v-352zM279 827h1054v342h-1054v-342z" />
    <glyph glyph-name="hbar" unicode="&#x127;" horiz-adv-x="1167" 
d="M786 1049l-2 -2q92 -53 148 -148q55 -94 55 -227v-4v-670h-37v661v5q0 122 -49 213q-50 92 -131 141q-82 49 -180 49t-180 -49q-81 -49 -131 -141t-50 -211v-666h-36v1319h-164v33h164v204h36v-204h228v-33h-228v-471q46 115 142 184q95 68 219 68q107 0 196 -51z" />
    <glyph glyph-name="Itilde" unicode="&#x128;" horiz-adv-x="516" 
d="M279 0h-41v1556h41v-1556zM-41 1755l4 -2q15 56 62 86q48 31 98 31q39 0 72 -10q23 -7 73 -31q62 -33 123 -33q95 0 135 82h29q-15 -56 -61 -86q-48 -31 -99 -31q-31 0 -73 11q-32 8 -74 30q-72 35 -125 35q-95 0 -135 -82h-29z" />
    <glyph glyph-name="itilde" unicode="&#x129;" horiz-adv-x="425" 
d="M231 0h-36v1077h36v-1077zM-74 1331v-6q18 60 62 90q45 31 92 31q32 0 67 -12q31 -11 74 -33q43 -19 62 -25q24 -8 55 -8q47 0 80 23q31 22 49 65h29q-18 -57 -62 -88q-45 -31 -92 -31q-31 0 -68 13q-23 8 -73 34q-43 19 -62 25q-30 10 -55 10q-49 0 -80 -22
q-31 -21 -49 -66h-29z" />
    <glyph glyph-name="Imacron" unicode="&#x12a;" horiz-adv-x="516" 
d="M279 0h-41v1556h41v-1556zM582 1802h-648v35h648v-35z" />
    <glyph glyph-name="imacron" unicode="&#x12b;" horiz-adv-x="425" 
d="M231 0h-36v1077h36v-1077zM516 1378h-606v33h606v-33z" />
    <glyph glyph-name="Ibreve" unicode="&#x12c;" horiz-adv-x="516" 
d="M279 0h-41v1556h41v-1556zM123 1720h-4q-59 37 -84 88q-29 60 -29 127h35q0 -102 55 -157q56 -56 158 -56t158 56q55 55 55 157h35q0 -67 -29 -127q-25 -51 -84 -88q-51 -32 -133 -32t-133 32z" />
    <glyph glyph-name="ibreve" unicode="&#x12d;" horiz-adv-x="425" 
d="M231 0h-36v1077h36v-1077zM76 1292l-4 -2q-57 40 -88 109q-31 70 -31 153h33q0 -79 28 -143q26 -58 80 -94q50 -33 117 -33t117 33q54 36 80 94q28 64 28 143h33q0 -83 -31 -153q-31 -69 -88 -109q-56 -39 -137 -39q-78 0 -137 41z" />
    <glyph glyph-name="Iogonek" unicode="&#x12e;" horiz-adv-x="516" 
d="M279 0h-41v1556h41v-1556zM252 -401h2q-53 0 -94 20q-42 20 -70 62q-27 41 -27 96q0 71 46 123t131 98h41q-96 -60 -138 -107q-43 -49 -43 -116q0 -68 43 -105t109 -37h27v-34h-27z" />
    <glyph glyph-name="iogonek" unicode="&#x12f;" horiz-adv-x="425" 
d="M195 1315v241h36v-241h-36zM195 1077l32 2v-1077q-97 -60 -139 -111q-43 -52 -43 -116q0 -69 45 -105q46 -37 111 -37h26v-32h-26q-54 0 -95 20q-42 20 -67 62t-25 96q0 70 47 123q43 48 134 98v1077z" />
    <glyph glyph-name="Idotaccent" unicode="&#x130;" horiz-adv-x="516" 
d="M279 0h-41v1556h41v-1556zM279 1694h-41v241h41v-241z" />
    <glyph glyph-name="dotlessi" unicode="&#x131;" horiz-adv-x="425" 
d="M231 0h-36v1077h36v-1077z" />
    <glyph glyph-name="Jcircumflex" unicode="&#x134;" horiz-adv-x="675" 
d="M41 0l2 37h98q87 0 146 18q60 18 90 68q31 51 31 137v1294h41v-1294q0 -144 -80 -203q-77 -57 -230 -57h-98zM461 1933l284 -241h-45l-270 219l-272 -219h-45l284 241h64z" />
    <glyph glyph-name="jcircumflex" unicode="&#x135;" horiz-adv-x="425" 
d="M-51 -401l2 30h41q104 0 153 52q50 53 50 159v1235h36v-1235q0 -119 -61 -180t-180 -61h-41zM244 1552l288 -299h-40l-275 275l-276 -275h-41l288 299h56z" />
    <glyph glyph-name="uni0136" unicode="&#x136;" horiz-adv-x="1384" 
d="M342 823l1044 -823h-63l-1044 821v-821h-41v1556h41v-731l960 731h66zM715 -393v233h41v-237l-68 -144h-43z" />
    <glyph glyph-name="uni0137" unicode="&#x137;" horiz-adv-x="987" 
d="M283 600l690 -600h-53l-689 598v-598h-36v1556h36v-952l656 473h59zM535 -393v233h36v-237l-67 -144h-39z" />
    <glyph glyph-name="kgreenlandic" unicode="&#x138;" horiz-adv-x="987" 
d="M283 575l690 -575h-53l-689 573v-573h-36v1077h36v-495l656 495h59z" />
    <glyph glyph-name="Lacute" unicode="&#x139;" horiz-adv-x="1067" 
d="M279 1556v-1517h747v-39h-788v1556h41zM287 1694h-43l270 241h51z" />
    <glyph glyph-name="lacute" unicode="&#x13a;" horiz-adv-x="425" 
d="M231 0h-36v1556h36v-1556zM244 1694h-43l270 241h51z" />
    <glyph glyph-name="uni013B" unicode="&#x13b;" horiz-adv-x="1067" 
d="M279 1556v-1517h747v-39h-788v1556h41zM612 -393v233h41v-237l-67 -144h-43z" />
    <glyph glyph-name="uni013C" unicode="&#x13c;" horiz-adv-x="425" 
d="M231 0h-36v1556h36v-1556zM195 -393v233h36v-237l-67 -144h-39z" />
    <glyph glyph-name="Lcaron" unicode="&#x13d;" horiz-adv-x="1067" 
d="M279 1556v-1517h747v-39h-788v1556h41zM616 1085h-34l59 474h41z" />
    <glyph glyph-name="lcaron" unicode="&#x13e;" horiz-adv-x="425" 
d="M231 0h-36v1556h36v-1556zM367 1188h-31l39 368h37z" />
    <glyph glyph-name="Ldot" unicode="&#x13f;" horiz-adv-x="1089" 
d="M279 1556v-1517h747v-39h-788v1556h41zM821 739h-37v232h37v-232z" />
    <glyph glyph-name="ldot" unicode="&#x140;" horiz-adv-x="425" 
d="M231 0h-36v1556h36v-1556zM444 682h-36v231h36v-231z" />
    <glyph glyph-name="Lslash" unicode="&#x141;" horiz-adv-x="1067" 
d="M279 729v-690h747v-39h-788v705l-191 -115v41l191 114v811h41v-786l385 234v-41z" />
    <glyph glyph-name="lslash" unicode="&#x142;" horiz-adv-x="425" 
d="M231 807l205 133v-39l-205 -135v-766h-36v741l-160 -104v41l160 104v774h36v-749z" />
    <glyph glyph-name="Nacute" unicode="&#x143;" horiz-adv-x="1687" 
d="M279 0h-41v1556h41v-1556zM1368 0h-47l-1002 1556h48zM1450 0h-41v1556h41v-1556zM850 1694h-43l270 241h51z" />
    <glyph glyph-name="nacute" unicode="&#x144;" horiz-adv-x="1167" 
d="M786 1049l-2 -2q92 -53 148 -148q55 -94 55 -227v-4v-670h-37v661v5q0 122 -49 213q-50 92 -131 141q-82 49 -180 49t-180 -49q-81 -49 -131 -141t-50 -211v-666h-36v1077h36v-229q46 115 142 184q95 68 219 68q107 0 196 -51zM563 1255h-39l260 299h47z" />
    <glyph glyph-name="uni0145" unicode="&#x145;" horiz-adv-x="1687" 
d="M279 0h-41v1556h41v-1556zM1368 0h-47l-1002 1556h48zM1450 0h-41v1556h41v-1556zM813 -393v233h41v-237l-68 -144h-43z" />
    <glyph glyph-name="uni0146" unicode="&#x146;" horiz-adv-x="1167" 
d="M786 1049l-2 -2q92 -53 148 -148q55 -94 55 -227v-4v-670h-37v661v5q0 122 -49 213q-50 92 -131 141q-82 49 -180 49t-180 -49q-81 -49 -131 -141t-50 -211v-666h-36v1077h36v-229q46 115 142 184q95 68 219 68q107 0 196 -51zM569 -395v233h37v-237l-67 -144h-39z" />
    <glyph glyph-name="Ncaron" unicode="&#x147;" horiz-adv-x="1687" 
d="M279 0h-41v1556h41v-1556zM1368 0h-47l-1002 1556h48zM1450 0h-41v1556h41v-1556zM870 1716l271 219h45l-285 -241h-63l-285 241h45z" />
    <glyph glyph-name="ncaron" unicode="&#x148;" horiz-adv-x="1167" 
d="M786 1049l-2 -2q92 -53 148 -148q55 -94 55 -227v-4v-670h-37v661v5q0 122 -49 213q-50 92 -131 141q-82 49 -180 49t-180 -49q-81 -49 -131 -141t-50 -211v-666h-36v1077h36v-229q46 115 142 184q95 68 219 68q107 0 196 -51zM580 1280l274 274h41l-289 -299h-55
l-289 299h41z" />
    <glyph glyph-name="Eng" unicode="&#x14a;" horiz-adv-x="1687" 
d="M279 0h-41v1556h41v-1556zM367 1556l1001 -1556h-47l-1002 1556h48zM1450 1556l2 -1697q0 -144 -80 -203q-77 -57 -229 -57h-99v39h99q87 0 145 18q60 18 90 68q31 51 31 137v1695h41z" />
    <glyph glyph-name="eng" unicode="&#x14b;" horiz-adv-x="1167" 
d="M786 1049l-2 -2q92 -53 148 -148q55 -94 55 -227v-4v-670h-37v661v5q0 122 -49 213q-50 92 -131 141q-82 49 -180 49t-180 -49q-81 -49 -131 -141t-50 -211v-666h-36v1077h36v-229q46 115 142 184q95 68 219 68q107 0 196 -51zM702 -403l3 30h40q106 0 154 51
q49 52 49 160v158h37v-158q0 -119 -61 -180t-181 -61h-41z" />
    <glyph glyph-name="Omacron" unicode="&#x14c;" horiz-adv-x="1699" 
d="M479 78v-4q-166 104 -256 282q-92 182 -92 416t92 416q90 178 256 282q165 103 369 103q209 0 369 -100q165 -103 256 -283q92 -182 92 -416t-92 -416q-90 -178 -256 -282q-162 -101 -369 -101q-204 0 -369 103zM1196 109q156 101 242 272q88 175 88 393t-88 393
q-87 173 -242 273q-151 98 -346 98t-346 -98q-155 -100 -242 -273q-88 -175 -88 -393t88 -393q86 -171 242 -272q153 -99 346 -99t346 99zM1174 1796h-648v35h648v-35z" />
    <glyph glyph-name="omacron" unicode="&#x14d;" horiz-adv-x="1218" 
d="M354 47h-4q-114 70 -178 199q-63 126 -63 295t63 295q64 127 178 198q113 70 258 70q146 0 256 -70q113 -72 176 -198q64 -128 64 -295t-64 -295q-65 -130 -174 -199q-110 -70 -254 -70q-145 0 -258 70zM844 80v-4q104 67 160 188q55 119 55 271q0 151 -55 270
q-56 121 -160 188q-106 68 -240 68q-133 0 -239 -68q-105 -68 -160 -186q-55 -119 -55 -270q0 -152 55 -271q55 -118 160 -186q106 -68 239 -68q134 0 240 68zM907 1374h-606v33h606v-33z" />
    <glyph glyph-name="Obreve" unicode="&#x14e;" horiz-adv-x="1699" 
d="M479 78v-4q-166 104 -256 282q-92 182 -92 416t92 416q90 178 256 282q165 103 369 103q209 0 369 -100q165 -103 256 -283q92 -182 92 -416t-92 -416q-90 -178 -256 -282q-162 -101 -369 -101q-204 0 -369 103zM1196 109q156 101 242 272q88 175 88 393t-88 393
q-87 173 -242 273q-151 98 -346 98t-346 -98q-155 -100 -242 -273q-88 -175 -88 -393t88 -393q86 -171 242 -272q153 -99 346 -99t346 99zM715 1714h-4q-59 37 -84 88q-29 60 -29 127h35q0 -102 55 -157q56 -56 158 -56t158 56q55 55 55 157h35q0 -67 -29 -127
q-25 -51 -84 -88q-53 -33 -133 -33t-133 33z" />
    <glyph glyph-name="obreve" unicode="&#x14f;" horiz-adv-x="1218" 
d="M354 47h-4q-114 70 -178 199q-63 126 -63 295t63 295q64 127 178 198q113 70 258 70q146 0 256 -70q113 -72 176 -198q64 -128 64 -295t-64 -295q-65 -130 -174 -199q-110 -70 -254 -70q-145 0 -258 70zM844 80v-4q104 67 160 188q55 119 55 271q0 151 -55 270
q-56 121 -160 188q-106 68 -240 68q-133 0 -239 -68q-105 -68 -160 -186q-55 -119 -55 -270q0 -152 55 -271q55 -118 160 -186q106 -68 239 -68q134 0 240 68zM467 1288l-4 -2q-57 40 -88 109q-31 70 -31 153h33q0 -77 29 -143q26 -59 79 -94q50 -33 117 -33t117 33
q54 36 80 94q28 64 28 143h33q0 -83 -31 -153q-31 -69 -88 -109q-56 -39 -137 -39q-78 0 -137 41z" />
    <glyph glyph-name="Ohungarumlaut" unicode="&#x150;" horiz-adv-x="1699" 
d="M479 78v-4q-166 104 -256 282q-92 182 -92 416t92 416q90 178 256 282q165 103 369 103q209 0 369 -100q165 -103 256 -283q92 -182 92 -416t-92 -416q-90 -178 -256 -282q-162 -101 -369 -101q-204 0 -369 103zM1196 109q156 101 242 272q88 175 88 393t-88 393
q-87 173 -242 273q-151 98 -346 98t-346 -98q-155 -100 -242 -273q-88 -175 -88 -393t88 -393q86 -171 242 -272q153 -99 346 -99t346 99zM676 1688h-45l284 241h54zM942 1688h-45l285 241h53z" />
    <glyph glyph-name="ohungarumlaut" unicode="&#x151;" horiz-adv-x="1218" 
d="M354 47h-4q-114 70 -178 199q-63 126 -63 295t63 295q64 127 178 198q113 70 258 70q146 0 256 -70q113 -72 176 -198q64 -128 64 -295t-64 -295q-65 -130 -174 -199q-110 -70 -254 -70q-145 0 -258 70zM844 80v-4q104 67 160 188q55 119 55 271q0 151 -55 270
q-56 121 -160 188q-106 68 -240 68q-133 0 -239 -68q-105 -68 -160 -186q-55 -119 -55 -270q0 -152 55 -271q55 -118 160 -186q106 -68 239 -68q134 0 240 68zM463 1253h-39l270 299h49zM729 1253h-39l271 299h49z" />
    <glyph glyph-name="OE" unicode="&#x152;" horiz-adv-x="2293" 
d="M2175 39v-39h-1274q-201 0 -379 90q-172 87 -282 268q-109 180 -109 422q0 245 109 422t282 264q178 90 379 90h1256v-38h-891v-691h876v-39h-876v-749h909zM1225 39v1474h-324q-191 0 -354 -81q-165 -82 -271 -250q-104 -165 -104 -406q0 -240 104 -405
q106 -168 271 -250t354 -82h324z" />
    <glyph glyph-name="oe" unicode="&#x153;" horiz-adv-x="2144" 
d="M2036 539l-928 -4q0 -156 59 -277q58 -119 164 -184q104 -64 238 -64q156 0 262 80q104 79 151 225h39q-47 -167 -166 -252q-121 -86 -288 -86q-115 0 -213 46q-97 45 -168 135t-101 211q-27 -122 -94 -209q-68 -89 -166 -135q-102 -48 -215 -48q-145 0 -258 70
q-114 70 -178 199q-63 126 -63 295t63 295q64 127 178 198q113 70 258 70q115 0 215 -47q98 -46 166 -135q69 -91 96 -209q26 116 97 209q66 87 164 135q96 47 202 47q132 0 244 -68t176 -190q66 -126 66 -285v-22zM852 76v-4q104 67 160 188q55 119 55 270q0 152 -55 271
q-56 121 -160 188q-106 68 -240 68q-133 0 -239 -68q-105 -68 -160 -186q-55 -119 -55 -271q0 -151 55 -270q55 -118 160 -186q106 -68 239 -68q134 0 240 68zM1329 993l-2 -4q-101 -66 -158 -174t-63 -252h895v6q-3 134 -62 246q-60 113 -159 176q-104 66 -228 66
q-125 0 -223 -64z" />
    <glyph glyph-name="Racute" unicode="&#x154;" horiz-adv-x="1402" 
d="M1325 0l-49 4l-492 723h-34h-471v-723h-41v1557h512q149 0 264 -50q116 -50 176 -143q61 -94 61 -227q0 -123 -51 -209q-52 -88 -147 -141q-93 -52 -222 -64zM279 766l471 2q137 0 241 43q102 42 162 127q57 80 57 203q0 122 -57 205q-58 85 -162 131q-102 45 -241 45
h-471v-756zM655 1700h-43l271 242h51z" />
    <glyph glyph-name="racute" unicode="&#x155;" horiz-adv-x="673" 
d="M231 846l-2 -2q49 122 146 188t258 66v-35h-6q-120 0 -209 -47q-87 -46 -137 -135t-50 -215v-666h-36v1077h36v-231zM420 1255h-39l260 299h47z" />
    <glyph glyph-name="uni0156" unicode="&#x156;" horiz-adv-x="1402" 
d="M1325 0l-49 4l-492 723h-34h-471v-723h-41v1557h512q149 0 264 -50q116 -50 176 -143q61 -94 61 -227q0 -123 -51 -209q-52 -88 -147 -141q-93 -52 -222 -64zM279 766l471 2q137 0 241 43q102 42 162 127q57 80 57 203q0 122 -57 205q-58 85 -162 131q-102 45 -241 45
h-471v-756zM707 -387v233h41v-237l-68 -144h-43z" />
    <glyph glyph-name="uni0157" unicode="&#x157;" horiz-adv-x="673" 
d="M231 846l-2 -2q49 122 146 188t258 66v-35h-6q-120 0 -209 -47q-87 -46 -137 -135t-50 -215v-666h-36v1077h36v-231zM193 -395v233h36v-237l-67 -144h-39z" />
    <glyph glyph-name="Rcaron" unicode="&#x158;" horiz-adv-x="1402" 
d="M1325 0l-49 4l-492 723h-34h-471v-723h-41v1557h512q149 0 264 -50q116 -50 176 -143q61 -94 61 -227q0 -123 -51 -209q-52 -88 -147 -141q-93 -52 -222 -64zM279 766l471 2q137 0 241 43q102 42 162 127q57 80 57 203q0 122 -57 205q-58 85 -162 131q-102 45 -241 45
h-471v-756zM676 1722l270 220h45l-284 -242h-64l-285 242h45z" />
    <glyph glyph-name="rcaron" unicode="&#x159;" horiz-adv-x="673" 
d="M231 846l-2 -2q49 122 146 188t258 66v-35h-6q-120 0 -209 -47q-87 -46 -137 -135t-50 -215v-666h-36v1077h36v-231zM436 1280l275 274h41l-289 -299h-55l-289 299h41z" />
    <glyph glyph-name="Sacute" unicode="&#x15a;" horiz-adv-x="1368" 
d="M406 37l-5 2q-123 58 -202 166q-81 110 -99 246h43q18 -127 93 -228q73 -98 188 -151q117 -54 246 -54q159 0 280 56q122 56 185 153t63 226q0 95 -49 159q-51 67 -150 109q-105 45 -272 84l-158 35q-129 28 -215 67q-88 41 -147 111q-57 69 -57 184q0 105 65 191
q65 87 182 139q114 51 267 51q141 0 260 -49t196 -141q76 -90 94 -222h-43q-15 114 -86 197t-180 129q-107 45 -241 45q-139 0 -246 -43q-106 -43 -166 -121q-57 -75 -57 -176q0 -98 47 -160q44 -58 139 -100q86 -38 242 -74l157 -34q172 -38 271 -89q101 -52 147 -122
q47 -71 47 -170q0 -139 -67 -246q-66 -106 -197 -168q-130 -62 -303 -62q-146 0 -272 60zM645 1696h-43l270 241h52z" />
    <glyph glyph-name="sacute" unicode="&#x15b;" horiz-adv-x="1005" 
d="M319 18h5q-89 41 -148 115t-80 176h39q21 -95 76 -162q53 -64 135 -100q81 -35 174 -35q102 0 182 41t123 105t43 135q0 77 -34 123t-101 73q-74 30 -186 52l-88 18q-149 30 -240 90q-88 58 -88 176q0 79 49 140q48 60 135 98q84 37 187 37q94 0 170 -33q81 -35 135 -98
q55 -64 67 -156h-38q-12 83 -62 139q-51 58 -123 84q-79 29 -155 29q-80 0 -162 -29q-77 -27 -123 -82q-45 -54 -45 -129q0 -69 41 -116q40 -46 104 -70q66 -25 162 -45l88 -19q124 -25 191 -57q76 -36 114 -88q39 -53 39 -139q0 -88 -49 -158t-137 -113q-87 -43 -197 -43
q-113 0 -203 41zM483 1257h-39l261 299h47z" />
    <glyph glyph-name="Scircumflex" unicode="&#x15c;" horiz-adv-x="1368" 
d="M406 37l-5 2q-123 58 -202 166q-81 110 -99 246h43q18 -127 93 -228q73 -98 188 -151q117 -54 246 -54q159 0 280 56q122 56 185 153t63 226q0 95 -49 159q-51 67 -150 109q-105 45 -272 84l-158 35q-129 28 -215 67q-88 41 -147 111q-57 69 -57 184q0 105 65 191
q65 87 182 139q114 51 267 51q141 0 260 -49t196 -141q76 -90 94 -222h-43q-15 114 -86 197t-180 129q-107 45 -241 45q-139 0 -246 -43q-106 -43 -166 -121q-57 -75 -57 -176q0 -98 47 -160q44 -58 139 -100q86 -38 242 -74l157 -34q172 -38 271 -89q101 -52 147 -122
q47 -71 47 -170q0 -139 -67 -246q-66 -106 -197 -168q-130 -62 -303 -62q-146 0 -272 60zM698 1937l285 -241h-45l-270 219l-273 -219h-45l285 241h63z" />
    <glyph glyph-name="scircumflex" unicode="&#x15d;" horiz-adv-x="1005" 
d="M319 18h5q-89 41 -148 115t-80 176h39q21 -95 76 -162q53 -64 135 -100q81 -35 174 -35q102 0 182 41t123 105t43 135q0 77 -34 123t-101 73q-74 30 -186 52l-88 18q-149 30 -240 90q-88 58 -88 176q0 79 49 140q48 60 135 98q84 37 187 37q94 0 170 -33q81 -35 135 -98
q55 -64 67 -156h-38q-12 83 -62 139q-51 58 -123 84q-79 29 -155 29q-80 0 -162 -29q-77 -27 -123 -82q-45 -54 -45 -129q0 -69 41 -116q40 -46 104 -70q66 -25 162 -45l88 -19q124 -25 191 -57q76 -36 114 -88q39 -53 39 -139q0 -88 -49 -158t-137 -113q-87 -43 -197 -43
q-113 0 -203 41zM528 1556l289 -299h-41l-274 275l-277 -275h-41l289 299h55z" />
    <glyph glyph-name="Scedilla" unicode="&#x15e;" horiz-adv-x="1368" 
d="M1180 207l-4 -4q-67 -105 -193 -166q-125 -61 -295 -64v-77q40 0 80 -19q38 -18 59 -53q23 -38 23 -78q0 -67 -47 -111q-46 -43 -121 -43h-55v33h53q60 0 96 33q37 34 37 86t-37 86q-36 33 -90 33h-35v110q-142 3 -262 66q-115 61 -192 166q-77 106 -95 239h43
q17 -125 93 -227q73 -98 188 -151q117 -54 246 -54q159 0 280 56q122 56 185 153t63 225q0 96 -49 160q-51 67 -150 109q-105 45 -272 84l-158 35q-129 28 -215 67q-88 41 -147 111q-57 69 -57 184q0 104 65 190q67 88 182 140q114 51 267 51q141 0 260 -49
q118 -49 196 -142q77 -92 95 -221h-43q-15 113 -87 197q-71 83 -180 129q-107 45 -241 45q-139 0 -246 -43q-106 -43 -166 -121q-57 -75 -57 -176q0 -98 47 -160q44 -58 139 -100q86 -38 242 -74l157 -35q175 -39 271 -88q100 -51 147 -123q47 -71 47 -170q0 -135 -67 -239z
" />
    <glyph glyph-name="scedilla" unicode="&#x15f;" horiz-adv-x="1005" 
d="M500 -23v-81q40 0 80 -19q39 -19 59 -51q23 -38 23 -76q0 -65 -48 -110q-46 -43 -120 -43h-54v30h54q58 0 96 35q37 34 37 86t-37 86q-36 33 -90 33h-35v113q-145 15 -246 102q-98 84 -125 227h39q21 -95 76 -162q53 -64 135 -100q81 -35 174 -35q102 0 182 41t123 105
t43 135q0 76 -35 123t-100 73q-74 30 -186 52l-88 18q-149 30 -240 90q-88 58 -88 176q0 79 49 140q48 60 135 98q84 37 187 37q94 0 170 -33q81 -35 135 -98q55 -64 67 -156h-38q-12 83 -62 139q-51 58 -123 84q-79 29 -155 29q-80 0 -162 -29q-77 -27 -123 -82
q-45 -54 -45 -129q0 -69 41 -116q40 -46 104 -70q66 -25 162 -45l88 -19q124 -25 191 -57q76 -36 114 -88q39 -53 39 -139q0 -88 -49 -158t-137 -113q-87 -43 -197 -43h-20z" />
    <glyph glyph-name="Scaron" unicode="&#x160;" horiz-adv-x="1368" 
d="M406 37l-5 2q-123 58 -202 166q-81 110 -99 246h43q18 -127 93 -228q73 -98 188 -151q117 -54 246 -54q159 0 280 56q122 56 185 153t63 226q0 95 -49 159q-51 67 -150 109q-105 45 -272 84l-158 35q-129 28 -215 67q-88 41 -147 111q-57 69 -57 184q0 105 65 191
q65 87 182 139q114 51 267 51q141 0 260 -49t196 -141q76 -90 94 -222h-43q-15 114 -86 197t-180 129q-107 45 -241 45q-139 0 -246 -43q-106 -43 -166 -121q-57 -75 -57 -176q0 -98 47 -160q44 -58 139 -100q86 -38 242 -74l157 -34q172 -38 271 -89q101 -52 147 -122
q47 -71 47 -170q0 -139 -67 -246q-66 -106 -197 -168q-130 -62 -303 -62q-146 0 -272 60zM666 1718l270 219h45l-285 -241h-63l-285 241h45z" />
    <glyph glyph-name="scaron" unicode="&#x161;" horiz-adv-x="1005" 
d="M319 18h5q-89 41 -148 115t-80 176h39q21 -95 76 -162q53 -64 135 -100q81 -35 174 -35q102 0 182 41t123 105t43 135q0 77 -34 123t-101 73q-74 30 -186 52l-88 18q-149 30 -240 90q-88 58 -88 176q0 79 49 140q48 60 135 98q84 37 187 37q94 0 170 -33q81 -35 135 -98
q55 -64 67 -156h-38q-12 83 -62 139q-51 58 -123 84q-79 29 -155 29q-80 0 -162 -29q-77 -27 -123 -82q-45 -54 -45 -129q0 -69 41 -116q40 -46 104 -70q66 -25 162 -45l88 -19q124 -25 191 -57q76 -36 114 -88q39 -53 39 -139q0 -88 -49 -158t-137 -113q-87 -43 -197 -43
q-113 0 -203 41zM500 1282l274 274h41l-289 -299h-55l-289 299h41z" />
    <glyph glyph-name="uni0162" unicode="&#x162;" horiz-adv-x="1232" 
d="M41 1556h1151v-38h-555v-1518h-41v1518h-555v38zM596 -393v233h41v-237l-68 -144h-43z" />
    <glyph glyph-name="uni0163" unicode="&#x163;" horiz-adv-x="681" 
d="M319 1042l-2 -800v-4q0 -105 52 -154t153 -49h129v-35h-129q-117 0 -178 61t-61 179v4v798h-263v35h263v254h36v-254h334v-35h-334zM424 -395v233h37v-237l-68 -144h-39z" />
    <glyph glyph-name="Tcaron" unicode="&#x164;" horiz-adv-x="1232" 
d="M41 1556h1151v-38h-555v-1518h-41v1518h-555v38zM616 1716l271 219h45l-285 -241h-63l-285 241h45z" />
    <glyph glyph-name="tcaron" unicode="&#x165;" horiz-adv-x="681" 
d="M319 1042l-2 -800v-4q0 -105 52 -154t153 -49h129v-35h-129q-117 0 -178 61t-61 179v4v798h-263v35h263v254h36v-254h334v-35h-334zM453 1186h-31l39 368h37z" />
    <glyph glyph-name="Tbar" unicode="&#x166;" horiz-adv-x="1290" 
d="M1221 1556v-38h-555v-705h424v-35h-424v-778h-41v778h-424v35h424v705h-555v38h1151z" />
    <glyph glyph-name="tbar" unicode="&#x167;" horiz-adv-x="681" 
d="M653 1042l-336 -2v-364h193v-33h-193v-401v-4q0 -105 52 -154t153 -49h129v-35h-129q-117 0 -178 61t-61 179v4v401h-199v33h199v364h-263v35h263v254h36v-254h334v-35z" />
    <glyph glyph-name="Utilde" unicode="&#x168;" horiz-adv-x="1597" 
d="M358 143v-2q-141 167 -141 477v5v931h41v-931v-5q0 -292 135 -448t404 -156q266 0 403 158q135 156 135 453v931h41v-931q0 -311 -141 -480q-140 -168 -438 -168t-439 166zM498 1751l4 -2q15 56 61 86q48 31 99 31q34 0 71 -11q31 -9 74 -30q62 -33 123 -33q95 0 135 82
h29q-15 -56 -62 -86q-48 -31 -98 -31q-36 0 -74 10q-29 7 -74 31q-72 35 -124 35q-96 0 -136 -82h-28z" />
    <glyph glyph-name="utilde" unicode="&#x169;" horiz-adv-x="1157" 
d="M926 1077l30 -2v-1077h-36v229q-46 -116 -138 -184t-215 -68q-102 0 -190 52q-92 54 -146 147q-55 94 -55 227v5v669h37v-661v-4q0 -120 49 -211q51 -94 131 -142q82 -49 178 -49q98 0 177 49t129 142q49 91 49 213v665zM279 1329v-6q19 61 61 90q45 31 92 31
q34 0 68 -12q28 -10 73 -33q43 -19 62 -25q24 -8 55 -8q47 0 80 23q31 22 49 65h29q-18 -57 -62 -88q-45 -31 -92 -31q-30 0 -67 13q-26 9 -74 34q-46 20 -61 25q-30 10 -56 10q-49 0 -80 -22q-31 -21 -49 -66h-28z" />
    <glyph glyph-name="Umacron" unicode="&#x16a;" horiz-adv-x="1597" 
d="M358 143v-2q-141 167 -141 477v5v931h41v-931v-5q0 -292 135 -448t404 -156q266 0 403 158q135 156 135 453v931h41v-931q0 -311 -141 -480q-140 -168 -438 -168t-439 166zM1120 1798h-647v35h647v-35z" />
    <glyph glyph-name="umacron" unicode="&#x16b;" horiz-adv-x="1157" 
d="M926 1077l30 -2v-1077h-36v229q-46 -116 -138 -184t-215 -68q-102 0 -190 52q-92 54 -146 147q-55 94 -55 227v5v669h37v-661v-4q0 -120 49 -211q51 -94 131 -142q82 -49 178 -49q98 0 177 49t129 142q49 91 49 213v665zM868 1376h-606v33h606v-33z" />
    <glyph glyph-name="Ubreve" unicode="&#x16c;" horiz-adv-x="1597" 
d="M358 143v-2q-141 167 -141 477v5v931h41v-931v-5q0 -292 135 -448t404 -156q266 0 403 158q135 156 135 453v931h41v-931q0 -311 -141 -480q-140 -168 -438 -168t-439 166zM664 1716h-5q-59 37 -84 88q-28 58 -28 127h35q0 -102 55 -157q56 -56 158 -56q101 0 157 56
t56 157h34q0 -69 -28 -127q-25 -51 -84 -88q-53 -33 -133 -33t-133 33z" />
    <glyph glyph-name="ubreve" unicode="&#x16d;" horiz-adv-x="1157" 
d="M926 1077l30 -2v-1077h-36v229q-46 -116 -138 -184t-215 -68q-102 0 -190 52q-92 54 -146 147q-55 94 -55 227v5v669h37v-661v-4q0 -120 49 -211q51 -94 131 -142q82 -49 178 -49q98 0 177 49t129 142q49 91 49 213v665zM428 1290l-4 -2q-57 40 -88 109q-31 70 -31 153
h33q0 -77 29 -143q26 -59 79 -94q50 -33 117 -33t117 33q54 36 80 94q28 64 28 143h33q0 -86 -30 -153q-30 -68 -89 -109q-56 -39 -137 -39q-78 0 -137 41z" />
    <glyph glyph-name="Uring" unicode="&#x16e;" horiz-adv-x="1597" 
d="M358 143v-2q-141 167 -141 477v5v931h41v-931v-5q0 -292 135 -448t404 -156q266 0 403 158q135 156 135 453v931h41v-931q0 -311 -141 -480q-140 -168 -438 -168t-439 166zM705 1710l-7 -6q-40 25 -69 72q-27 44 -27 96t27 96t71 68t97 24t96 -24q44 -24 68 -68t24 -94
t-24 -94q-23 -42 -68 -70q-43 -27 -94 -27t-94 27zM872 1733l-2 -2q38 21 58 57t20 80t-20 80t-58 57q-36 20 -79 20q-44 0 -80 -20q-38 -21 -58 -57t-20 -80q0 -41 22 -80q20 -36 58 -57t80 -21q38 0 79 23z" />
    <glyph glyph-name="uring" unicode="&#x16f;" horiz-adv-x="1157" 
d="M926 1077l30 -2v-1077h-36v229q-46 -116 -138 -184t-215 -68q-102 0 -190 52q-92 54 -146 147q-55 94 -55 227v5v669h37v-661v-4q0 -120 49 -211q51 -94 131 -142q82 -49 178 -49q98 0 177 49t129 142q49 91 49 213v665zM483 1274l-6 -6q-38 21 -59 59q-23 41 -23 84
t23 84q21 38 59 59q41 23 84 23q47 0 84 -21q39 -22 60 -59q22 -39 22 -82q0 -46 -20 -82q-21 -37 -60 -59q-41 -23 -82 -23t-82 23zM653 1317l-2 2q37 40 37 94q0 55 -37 92t-92 37q-54 0 -94 -37q-39 -36 -39 -92q0 -37 18 -67q19 -31 50 -50q30 -18 67 -18q56 0 92 39z
" />
    <glyph glyph-name="Uhungarumlaut" unicode="&#x170;" horiz-adv-x="1597" 
d="M358 143v-2q-141 167 -141 477v5v931h41v-931v-5q0 -292 135 -448t404 -156q266 0 403 158q135 156 135 453v931h41v-931q0 -311 -141 -480q-140 -168 -438 -168t-439 166zM623 1690h-45l284 241h53zM889 1690h-45l284 241h54z" />
    <glyph glyph-name="uhungarumlaut" unicode="&#x171;" horiz-adv-x="1157" 
d="M926 1077l30 -2v-1077h-36v229q-46 -116 -138 -184t-215 -68q-102 0 -190 52q-92 54 -146 147q-55 94 -55 227v5v669h37v-661v-4q0 -120 49 -211q51 -94 131 -142q82 -49 178 -49q98 0 177 49t129 142q49 91 49 213v665zM424 1255h-39l270 299h50zM690 1255h-39l271 299
h49z" />
    <glyph glyph-name="Uogonek" unicode="&#x172;" horiz-adv-x="1597" 
d="M1339 1556l45 -2v-931q0 -203 -57 -340q-60 -145 -178 -220q-118 -81 -168 -149q-49 -67 -49 -141q0 -68 43 -105t108 -37h27v-34h-27q-53 0 -94 20q-42 20 -69 61t-27 97q0 120 137 233q-100 -33 -229 -33q-298 0 -439 166q-141 167 -141 477v5v931h41v-931v-5
q0 -292 135 -448t404 -156q266 0 403 158q135 156 135 453v931z" />
    <glyph glyph-name="uogonek" unicode="&#x173;" horiz-adv-x="1157" 
d="M963 0h-11q-97 -60 -139 -111q-43 -52 -43 -116q0 -69 45 -105q46 -37 111 -37h26v-32h-26q-54 0 -95 20q-42 20 -67 62t-25 96q0 70 47 123q43 48 134 98v229q-46 -116 -138 -184t-215 -68q-102 0 -190 52q-92 54 -146 147q-55 94 -55 227v5v669h37v-661v-4
q0 -120 49 -211q51 -94 131 -142q82 -49 178 -49q98 0 177 49t129 142q49 91 49 213v665h37v-1077z" />
    <glyph glyph-name="Wcircumflex" unicode="&#x174;" horiz-adv-x="2273" 
d="M594 0h-43l-512 1556h43zM678 0h-43l438 1556h43zM1638 0h-43l-438 1556h43zM1722 0h-43l512 1556h43zM1169 1935l285 -241h-45l-270 219l-273 -219h-45l285 241h63z" />
    <glyph glyph-name="wcircumflex" unicode="&#x175;" horiz-adv-x="1781" 
d="M469 0h-39l-383 1077h39zM549 0h-39l321 1077h39zM1272 0h-39l-322 1077h39zM1352 0h-39l383 1077h39zM920 1556l288 -299h-41l-274 275l-277 -275h-41l289 299h56z" />
    <glyph glyph-name="Ycircumflex" unicode="&#x176;" horiz-adv-x="1302" 
d="M1243 1556h47l-618 -849v-707h-41v707l-619 849h47l592 -813zM684 1935l285 -241h-45l-271 219l-272 -219h-45l285 241h63z" />
    <glyph glyph-name="ycircumflex" unicode="&#x177;" horiz-adv-x="1097" 
d="M553 109h-41l-483 968h41zM420 -401h-41l643 1478h39zM575 1556l289 -299h-41l-274 275l-277 -275h-41l289 299h55z" />
    <glyph glyph-name="Ydieresis" unicode="&#x178;" horiz-adv-x="1302" 
d="M1243 1556h47l-618 -849v-707h-41v707l-619 849h47l592 -813zM516 1694h-41v241h41v-241zM827 1694h-41v241h41v-241z" />
    <glyph glyph-name="Zacute" unicode="&#x179;" horiz-adv-x="1320" 
d="M1237 1495l-1135 -1456h1172v-39h-1206v61l1134 1457h-1122v38h1157v-61zM639 1694h-43l270 241h52z" />
    <glyph glyph-name="zacute" unicode="&#x17a;" horiz-adv-x="968" 
d="M870 1020l-770 -985h815v-35h-843v57l770 985h-752v35h780v-57zM463 1257h-39l260 299h47z" />
    <glyph glyph-name="Zdotaccent" unicode="&#x17b;" horiz-adv-x="1320" 
d="M1237 1495l-1135 -1456h1172v-39h-1206v61l1134 1457h-1122v38h1157v-61zM680 1694h-41v241h41v-241z" />
    <glyph glyph-name="zdotaccent" unicode="&#x17c;" horiz-adv-x="968" 
d="M870 1020l-770 -985h815v-35h-843v57l770 985h-752v35h780v-57zM498 1315h-37v241h37v-241z" />
    <glyph glyph-name="Zcaron" unicode="&#x17d;" horiz-adv-x="1320" 
d="M1237 1495l-1135 -1456h1172v-39h-1206v61l1134 1457h-1122v38h1157v-61zM659 1716l271 219h45l-285 -241h-63l-285 241h45z" />
    <glyph glyph-name="zcaron" unicode="&#x17e;" horiz-adv-x="968" 
d="M870 1020l-770 -985h815v-35h-843v57l770 985h-752v35h780v-57zM479 1282l275 274h41l-289 -299h-55l-289 299h41z" />
    <glyph glyph-name="uni018F" unicode="&#x18f;" horiz-adv-x="1681" 
d="M1186 1483l-4 -2q164 -93 264 -277q98 -180 98 -430q0 -241 -94 -422t-258 -280t-356 -99q-201 0 -363 101q-165 103 -258 282q-94 181 -94 408v35h1382q-3 224 -92 391q-88 165 -246 258q-157 92 -350 92q-237 0 -393 -117t-223 -327h-43q46 156 141 264q92 105 227 162
q131 55 293 55q203 0 369 -94zM1178 111h-2q153 101 237 268q85 168 88 379h-1341v-21q9 -202 92 -370q82 -166 233 -261q149 -94 349 -94q194 0 344 99z" />
    <glyph glyph-name="florin" unicode="&#x192;" horiz-adv-x="1142" 
d="M901 1520l-2 -2q-106 0 -162 -50q-54 -48 -69 -161l-64 -428h397v-37h-403l-90 -606q-18 -127 -86 -183q-67 -55 -178 -55h-174v37h168q106 0 161 49q57 51 72 164l88 596h-383v37h389l66 438q18 126 86 182q67 55 178 55h174v-36h-168z" />
    <glyph glyph-name="uni019D" unicode="&#x19d;" horiz-adv-x="1687" 
d="M279 0h-41v1556h41v-1556zM1368 0h-47l-1002 1556h48zM1450 0h-41v1556h41v-1556zM-127 -401l2 36h98q84 0 146 19q61 19 90 67q31 51 31 138v139h41v-139q0 -144 -80 -203q-77 -57 -230 -57h-98z" />
    <glyph glyph-name="uni01B5" unicode="&#x1b5;" horiz-adv-x="1370" 
d="M707 784l-582 -745h1171v-39h-1206v61l563 723h-495v35h522l545 699h-1123v38h1158v-61l-527 -676h492v-35h-518z" />
    <glyph glyph-name="uni01B6" unicode="&#x1b6;" horiz-adv-x="997" 
d="M516 549l-401 -514h815v-35h-844v57l385 492h-326v35h353l358 458h-752v35h781v-57l-342 -436h325v-35h-352z" />
    <glyph glyph-name="uni01E2" unicode="&#x1e2;" horiz-adv-x="2019" 
d="M1122 788l314 -749h465v-39h-494l-229 549h-885l-230 -549h-45l652 1556h45l-406 -968h852l-405 968h1126v-38h-1065l289 -691h762v-39h-746zM1530 1802h-647v35h647v-35z" />
    <glyph glyph-name="uni01E3" unicode="&#x1e3;" horiz-adv-x="2007" 
d="M1898 539l-937 -13q0 -155 59 -276q58 -119 164 -184q104 -64 237 -64q156 0 262 80q105 80 152 225h39q-47 -167 -166 -252q-121 -86 -289 -86q-115 0 -215 47q-96 45 -166 134q-67 84 -94 200q-24 -101 -82 -186q-61 -89 -155 -139q-102 -54 -230 -54q-107 0 -184 39
q-79 40 -123 109q-43 67 -43 157q0 120 68 185t178 86q116 22 268 22h283v109v4q0 100 -37 184q-39 88 -119 142q-82 55 -209 55q-117 0 -194 -39q-81 -41 -123 -104q-43 -64 -49 -138h-39q9 92 57 160q49 70 137 113q87 43 209 43q128 0 213 -49q86 -50 133 -127
q46 -75 55 -160q29 99 99 178q68 77 160 121q90 43 196 43q132 0 244 -68t176 -190q65 -124 65 -285v-22zM1182 989l-2 -4q-101 -66 -158 -174q-58 -110 -64 -252h895v6q-3 136 -61 246q-59 112 -160 176q-104 66 -227 66q-125 0 -223 -64zM918 522l-277 -4q-155 0 -260 -18
q-104 -18 -166 -74q-61 -55 -61 -162q0 -78 36 -137q37 -61 109 -96t170 -35q137 0 238 61q99 60 155 172t56 252v41zM1290 1358h-606v33h606v-33z" />
    <glyph glyph-name="Gcaron" unicode="&#x1e6;" horiz-adv-x="1675" 
d="M797 772l706 -2v-772h-41v471q-26 -120 -104 -233q-77 -111 -209 -185q-133 -74 -313 -74q-198 0 -359 103q-162 104 -252 285q-92 186 -92 415q0 230 92 416q90 181 252 285q159 102 350 102q172 0 301 -63q138 -67 220 -174q87 -113 133 -250h-43q-73 200 -228 325
q-153 123 -383 123q-177 0 -325 -98q-154 -102 -240 -272q-88 -175 -88 -394q0 -218 88 -393q86 -170 240 -272q150 -99 332 -99q173 0 317 84q143 84 225 246q84 166 84 381v6h-663v39zM827 1714l271 219h45l-285 -241h-63l-285 241h45z" />
    <glyph glyph-name="gcaron" unicode="&#x1e7;" horiz-adv-x="1296" 
d="M1069 1077l29 -6v-1124q0 -114 -58 -199q-58 -84 -163 -131q-102 -45 -240 -45q-134 0 -238 43t-166 123q-61 79 -67 188h39q9 -108 67 -178q56 -67 154 -106q93 -37 209 -37q123 0 221 43q97 43 154 121q55 76 55 182v385q-27 -95 -92 -172q-65 -76 -156 -123
q-89 -45 -207 -45q-145 0 -258 67q-112 66 -174 193q-61 125 -61 291t61 291q60 123 176 192q115 68 258 68q118 0 207 -45q95 -48 158 -123q65 -77 92 -172v319zM844 92q104 64 160 182q55 116 55 269q0 152 -55 268q-56 118 -160 182q-107 66 -242 66q-136 0 -240 -66
q-101 -64 -157 -182q-55 -116 -55 -268q0 -153 55 -269q56 -118 157 -182q103 -65 240 -65q136 0 242 65zM602 1276l275 274h41l-289 -299h-56l-288 299h41z" />
    <glyph glyph-name="uni01EA" unicode="&#x1ea;" horiz-adv-x="1699" 
d="M1026 -88l4 -8q-47 -68 -47 -137q0 -68 43 -105t109 -37h26v-35h-26q-51 0 -95 21q-42 20 -69 61t-27 97q0 122 143 241q-101 -39 -235 -39q-204 0 -369 103q-166 104 -256 282q-92 182 -92 416t92 416q90 178 256 282q165 103 369 103q209 0 369 -100q165 -103 256 -283
q92 -182 92 -416q0 -167 -45 -301q-48 -142 -131 -244t-203 -168q-119 -84 -164 -149zM266 375q87 -173 242 -273q151 -98 346 -98t346 98q155 100 242 273q88 175 88 393t-88 393q-87 173 -242 273q-151 98 -346 98t-346 -98q-155 -100 -242 -273q-88 -175 -88 -393
t88 -393z" />
    <glyph glyph-name="uni01EB" unicode="&#x1eb;" horiz-adv-x="1218" 
d="M758 -49l-13 -6q-43 -46 -61 -86q-18 -41 -18 -90q0 -69 45 -105q46 -37 110 -37h27v-33h-27q-51 0 -94 21q-45 22 -68 61q-24 40 -24 97q0 63 37 118q40 59 112 117q-76 -33 -180 -33q-145 0 -258 70q-114 70 -178 199q-64 128 -64 295t64 295q64 127 178 198
q113 70 258 70q146 0 256 -70q113 -72 176 -198q64 -128 64 -295q0 -161 -58 -283q-61 -128 -161 -195q-83 -68 -123 -110zM197 260v-4q55 -119 159 -186q106 -68 240 -68t240 68q103 66 159 188q56 121 56 270q0 150 -56 271q-56 122 -159 188q-106 68 -240 68t-240 -68
q-104 -67 -159 -186q-56 -121 -56 -271q0 -149 56 -270z" />
    <glyph glyph-name="AEacute" unicode="&#x1fc;" horiz-adv-x="2019" 
d="M1122 788l314 -749h465v-39h-494l-229 549h-885l-230 -549h-45l652 1556h45l-406 -968h852l-405 968h1126v-38h-1065l289 -691h762v-39h-746zM1186 1694h-43l270 241h51z" />
    <glyph glyph-name="aeacute" unicode="&#x1fd;" horiz-adv-x="2007" 
d="M1898 539l-937 -13q0 -155 59 -276q58 -119 164 -184q104 -64 237 -64q156 0 262 80q105 80 152 225h39q-47 -167 -166 -252q-121 -86 -289 -86q-115 0 -215 47q-96 45 -166 134q-67 84 -94 200q-24 -101 -82 -186q-61 -89 -155 -139q-102 -54 -230 -54q-107 0 -184 39
q-79 40 -123 109q-43 67 -43 157q0 120 68 185t178 86q116 22 268 22h283v109v4q0 100 -37 184q-39 88 -119 142q-82 55 -209 55q-117 0 -194 -39q-81 -41 -123 -104q-43 -64 -49 -138h-39q9 92 57 160q49 70 137 113q87 43 209 43q128 0 213 -49q86 -50 133 -127
q46 -75 55 -160q29 99 99 178q68 77 160 121q90 43 196 43q132 0 244 -68t176 -190q65 -124 65 -285v-22zM1182 989l-2 -4q-101 -66 -158 -174q-58 -110 -64 -252h895v6q-3 136 -61 246q-59 112 -160 176q-104 66 -227 66q-125 0 -223 -64zM918 522l-277 -4q-155 0 -260 -18
q-104 -18 -166 -74q-61 -55 -61 -162q0 -78 36 -137q37 -61 109 -96t170 -35q137 0 238 61q99 60 155 172t56 252v41zM971 1237h-39l260 299h47z" />
    <glyph glyph-name="Oslashacute" unicode="&#x1fe;" horiz-adv-x="1699" 
d="M1618 1556l-221 -235q83 -108 129 -246q45 -134 45 -301q0 -234 -92 -416q-90 -178 -256 -282q-162 -101 -369 -101q-154 0 -289 60q-133 59 -231 166l-195 -205h-55l225 235q-82 104 -129 244q-45 134 -45 301q0 234 92 416q91 180 256 283q163 102 369 102
q160 0 289 -57q134 -59 227 -166l195 202h55zM217 496h-2q42 -125 121 -230l1001 1053q-90 103 -217 162q-123 57 -270 57q-195 0 -346 -98q-155 -100 -242 -273q-88 -175 -88 -393q0 -150 43 -278zM1483 1055q-44 131 -119 231l-1004 -1053q88 -104 220 -165
q125 -58 270 -58q193 0 346 99q156 101 242 272q88 175 88 393q0 153 -43 281zM827 1690h-43l271 241h51z" />
    <glyph glyph-name="oslashacute" unicode="&#x1ff;" horiz-adv-x="1218" 
d="M1139 1077l-158 -162q55 -73 86 -170q31 -98 31 -208q0 -167 -64 -295q-65 -130 -174 -199q-110 -70 -254 -70q-105 0 -198 41t-158 115l-123 -131h-49l149 160q-57 71 -88 170q-30 94 -30 209q0 168 63 294q64 129 178 199q113 70 258 70q111 0 199 -39q95 -42 158 -117
l125 133h49zM172 342l-4 -6q27 -87 80 -156l682 729q-60 69 -146 111q-79 39 -184 39q-134 0 -240 -68q-104 -67 -159 -186q-56 -121 -56 -270q0 -105 27 -193zM1026 723q-28 93 -76 158l-682 -729q60 -69 146 -111q79 -39 184 -39q134 0 240 68q103 66 159 188
q56 121 56 270q0 106 -27 195zM582 1247h-39l260 299h47z" />
    <glyph glyph-name="uni0218" unicode="&#x218;" horiz-adv-x="1368" 
d="M406 37l-5 2q-123 58 -202 166q-81 110 -99 246h43q18 -127 93 -228q73 -98 188 -151q117 -54 246 -54q159 0 280 56q122 56 185 153t63 226q0 95 -49 159q-51 67 -150 109q-105 45 -272 84l-158 35q-129 28 -215 67q-88 41 -147 111q-57 69 -57 184q0 105 65 191
q65 87 182 139q114 51 267 51q141 0 260 -49t196 -141q76 -90 94 -222h-43q-15 114 -86 197t-180 129q-107 45 -241 45q-139 0 -246 -43q-106 -43 -166 -121q-57 -75 -57 -176q0 -98 47 -160q44 -58 139 -100q86 -38 242 -74l157 -34q172 -38 271 -89q101 -52 147 -122
q47 -71 47 -170q0 -139 -67 -246q-66 -106 -197 -168q-130 -62 -303 -62q-146 0 -272 60zM672 -391v233h41v-237l-68 -144h-43z" />
    <glyph glyph-name="uni0219" unicode="&#x219;" horiz-adv-x="1005" 
d="M319 18h5q-89 41 -148 115t-80 176h39q21 -95 76 -162q53 -64 135 -100q81 -35 174 -35q102 0 182 41t123 105t43 135q0 77 -34 123t-101 73q-74 30 -186 52l-88 18q-149 30 -240 90q-88 58 -88 176q0 79 49 140q48 60 135 98q84 37 187 37q94 0 170 -33q81 -35 135 -98
q55 -64 67 -156h-38q-12 83 -62 139q-51 58 -123 84q-79 29 -155 29q-80 0 -162 -29q-77 -27 -123 -82q-45 -54 -45 -129q0 -69 41 -116q40 -46 104 -70q66 -25 162 -45l88 -19q124 -25 191 -57q76 -36 114 -88q39 -53 39 -139q0 -88 -49 -158t-137 -113q-87 -43 -197 -43
q-113 0 -203 41zM508 -393v233h37v-237l-68 -144h-39z" />
    <glyph glyph-name="uni021A" unicode="&#x21a;" horiz-adv-x="1232" 
d="M41 1556h1151v-38h-555v-1518h-41v1518h-555v38zM596 -393v233h41v-237l-68 -144h-43z" />
    <glyph glyph-name="uni021B" unicode="&#x21b;" horiz-adv-x="681" 
d="M319 1042l-2 -800v-4q0 -105 52 -154t153 -49h129v-35h-129q-117 0 -178 61t-61 179v4v798h-263v35h263v254h36v-254h334v-35h-334zM424 -395v233h37v-237l-68 -144h-39z" />
    <glyph glyph-name="uni022E" unicode="&#x22e;" horiz-adv-x="1699" 
d="M479 78v-4q-166 104 -256 282q-92 182 -92 416t92 416q90 178 256 282q165 103 369 103q209 0 369 -100q165 -103 256 -283q92 -182 92 -416t-92 -416q-90 -178 -256 -282q-162 -101 -369 -101q-204 0 -369 103zM1196 109q156 101 242 272q88 175 88 393t-88 393
q-87 173 -242 273q-151 98 -346 98t-346 -98q-155 -100 -242 -273q-88 -175 -88 -393t88 -393q86 -171 242 -272q153 -99 346 -99t346 99zM870 1688h-41v241h41v-241z" />
    <glyph glyph-name="uni022F" unicode="&#x22f;" horiz-adv-x="1218" 
d="M354 47h-4q-114 70 -178 199q-63 126 -63 295t63 295q64 127 178 198q113 70 258 70q146 0 256 -70q113 -72 176 -198q64 -128 64 -295t-64 -295q-65 -130 -174 -199q-110 -70 -254 -70q-145 0 -258 70zM844 80v-4q104 67 160 188q55 119 55 271q0 151 -55 270
q-56 121 -160 188q-106 68 -240 68q-133 0 -239 -68q-105 -68 -160 -186q-55 -119 -55 -270q0 -152 55 -271q55 -118 160 -186q106 -68 239 -68q134 0 240 68zM623 1311h-37v241h37v-241z" />
    <glyph glyph-name="uni0232" unicode="&#x232;" horiz-adv-x="1302" 
d="M1243 1556h47l-618 -849v-707h-41v707l-619 849h47l592 -813zM975 1802h-647v35h647v-35z" />
    <glyph glyph-name="uni0233" unicode="&#x233;" horiz-adv-x="1097" 
d="M553 109h-41l-483 968h41zM420 -401h-41l643 1478h39zM850 1378h-606v33h606v-33z" />
    <glyph glyph-name="uni0237" unicode="&#x237;" horiz-adv-x="425" 
d="M-51 -401l2 30h41q104 0 153 52q50 53 50 159v1235h36v-1235q0 -119 -61 -180t-180 -61h-41z" />
    <glyph glyph-name="uni0259" unicode="&#x259;" horiz-adv-x="1193" 
d="M831 1032l-10 -4q113 -67 180 -192q68 -127 68 -301q0 -172 -63 -295q-64 -125 -177 -197q-110 -70 -243 -70q-130 0 -242 68t-176 190q-66 126 -66 285v23h932q0 155 -59 276q-58 119 -164 184q-107 66 -236 66q-156 0 -262 -80q-102 -77 -149 -223h-39q47 167 166 252
q121 86 289 86q136 0 251 -68zM807 70l-2 -2q99 65 158 176q59 112 65 252h-895v-7q3 -133 62 -245q58 -110 159 -174t228 -64t225 64z" />
    <glyph glyph-name="uni0272" unicode="&#x272;" horiz-adv-x="1167" 
d="M786 1049l-2 -2q92 -53 148 -148q55 -94 55 -227v-4v-670h-37v661v5q0 122 -49 213q-50 92 -131 141q-82 49 -180 49t-180 -49q-81 -49 -131 -141t-50 -211v-666h-36v1077h36v-229q46 115 142 184q95 68 219 68q107 0 196 -51zM-55 -403l2 30h41q105 0 153 51
q49 52 49 160v158h37v-158q0 -119 -61 -180t-180 -61h-41z" />
    <glyph glyph-name="circumflex" unicode="&#x2c6;" horiz-adv-x="768" 
d="M412 1556l288 -299h-41l-274 275l-276 -275h-41l288 299h56z" />
    <glyph glyph-name="caron" unicode="&#x2c7;" horiz-adv-x="768" 
d="M385 1282l274 274h41l-288 -299h-56l-288 299h41z" />
    <glyph glyph-name="breve" unicode="&#x2d8;" horiz-adv-x="647" 
d="M186 1292l-4 -2q-57 40 -88 109q-31 70 -31 153h33q0 -77 29 -143q26 -58 80 -94q50 -33 117 -33q66 0 116 33q54 36 80 94q29 66 29 143h33q0 -83 -31 -153q-31 -69 -88 -109q-56 -39 -137 -39q-79 0 -138 41z" />
    <glyph glyph-name="dotaccent" unicode="&#x2d9;" horiz-adv-x="172" 
d="M104 1315h-36v241h36v-241z" />
    <glyph glyph-name="ring" unicode="&#x2da;" horiz-adv-x="464" 
d="M150 1276l-7 -6q-38 21 -59 59q-23 41 -23 84t23 84q21 38 59 59q41 23 84 23q48 0 84 -20q38 -22 60 -60q22 -39 22 -82q0 -46 -20 -82q-21 -37 -60 -59q-41 -23 -82 -23q-40 0 -81 23zM319 1319l-2 2q37 40 37 94q0 55 -37 92t-92 37q-54 0 -94 -37q-39 -36 -39 -92
q0 -35 19 -67t49 -50t67 -18q56 0 92 39z" />
    <glyph glyph-name="ogonek" unicode="&#x2db;" horiz-adv-x="350" 
d="M256 -401l-4 2q-53 0 -94 20q-44 21 -68 62t-24 96q0 70 47 123q44 50 133 98h37q-99 -61 -140 -111q-43 -52 -43 -116q0 -69 45 -105q46 -37 111 -37h27v-32h-27z" />
    <glyph glyph-name="tilde" unicode="&#x2dc;" horiz-adv-x="708" 
d="M68 1331v-6q19 61 61 90q45 31 92 31q33 0 68 -12q28 -10 73 -33q43 -19 62 -25q24 -8 55 -8q47 0 80 23q31 22 49 65h29q-18 -57 -62 -88q-45 -31 -92 -31q-30 0 -67 13q-26 9 -74 34q-46 20 -61 25q-30 10 -56 10q-49 0 -80 -22q-31 -21 -49 -66h-28z" />
    <glyph glyph-name="hungarumlaut" unicode="&#x2dd;" horiz-adv-x="720" 
d="M106 1257h-38l270 299h49zM373 1257h-39l270 299h49z" />
    <glyph glyph-name="gravecomb" unicode="&#x300;" horiz-adv-x="0" 
d="M-68 1257h-38l-269 299h47z" />
    <glyph glyph-name="acutecomb" unicode="&#x301;" horiz-adv-x="0" 
d="M-336 1257h-39l260 299h47z" />
    <glyph glyph-name="uni0302" unicode="&#x302;" horiz-adv-x="0" 
d="M-356 1556l288 -299h-41l-274 275l-276 -275h-41l288 299h56z" />
    <glyph glyph-name="tildecomb" unicode="&#x303;" horiz-adv-x="0" 
d="M-641 1331v-6q19 61 61 90q45 31 93 31q33 0 67 -12q31 -11 74 -33q46 -20 61 -25q24 -8 56 -8q46 0 79 23t50 65h28q-18 -58 -61 -88q-45 -31 -92 -31q-31 0 -68 13q-26 9 -74 34q-46 20 -61 25q-30 10 -55 10q-49 0 -80 -22q-31 -21 -49 -66h-29z" />
    <glyph glyph-name="uni0304" unicode="&#x304;" horiz-adv-x="0" 
d="M-68 1378h-606v33h606v-33z" />
    <glyph glyph-name="uni0306" unicode="&#x306;" horiz-adv-x="0" 
d="M-461 1292l-4 -2q-57 40 -88 109q-31 70 -31 153h33q0 -77 29 -143q26 -58 80 -94q50 -33 116 -33q67 0 117 33q54 36 80 94q29 66 29 143h32q0 -86 -30 -153q-31 -69 -88 -109q-56 -39 -138 -39q-78 0 -137 41z" />
    <glyph glyph-name="uni0307" unicode="&#x307;" horiz-adv-x="0" 
d="M-68 1315h-36v241h36v-241z" />
    <glyph glyph-name="uni0308" unicode="&#x308;" horiz-adv-x="0" 
d="M-383 1315h-37v241h37v-241zM-68 1315h-36v241h36v-241z" />
    <glyph glyph-name="uni030A" unicode="&#x30a;" horiz-adv-x="0" 
d="M-315 1276l-7 -6q-38 21 -59 59q-22 39 -22 84t22 84q21 38 59 59q41 23 84 23q48 0 84 -20q38 -22 60 -60q22 -39 22 -82q0 -46 -20 -82q-21 -37 -60 -59q-41 -23 -81 -23q-41 0 -82 23zM-145 1319l-2 2q36 39 36 94q0 56 -36 92q-37 37 -93 37q-54 0 -94 -37
q-39 -36 -39 -92q0 -35 19 -67t49 -50t67 -18q57 0 93 39z" />
    <glyph glyph-name="uni030B" unicode="&#x30b;" horiz-adv-x="0" 
d="M-614 1257h-39l270 299h49zM-348 1257h-39l270 299h49z" />
    <glyph glyph-name="uni030C" unicode="&#x30c;" horiz-adv-x="0" 
d="M-383 1282l274 274h41l-288 -299h-56l-288 299h41z" />
    <glyph glyph-name="uni0312" unicode="&#x312;" horiz-adv-x="0" 
d="M-37 1696h39l-70 -148v-233h-36v237z" />
    <glyph glyph-name="dotbelowcomb" unicode="&#x323;" horiz-adv-x="0" 
d="M-68 -401h-36v241h36v-241z" />
    <glyph glyph-name="uni0326" unicode="&#x326;" horiz-adv-x="0" 
d="M-104 -393v233h36v-237l-67 -144h-39z" />
    <glyph glyph-name="uni0327" unicode="&#x327;" horiz-adv-x="0" 
d="M-231 -102l2 -2q39 0 79 -19q41 -20 60 -51q22 -36 22 -76q0 -66 -47 -110q-46 -43 -121 -43h-53v30h53q59 0 97 35q37 34 37 86t-37 86q-36 33 -90 33h-35v133h33v-102z" />
    <glyph glyph-name="uni0328" unicode="&#x328;" horiz-adv-x="0" 
d="M-94 -401l-4 2q-54 0 -95 20q-42 20 -67 62t-25 96q0 70 47 123q43 48 134 98h36q-97 -60 -139 -111q-43 -52 -43 -116q0 -69 45 -105q46 -37 111 -37h26v-32h-26z" />
    <glyph glyph-name="uni0335" unicode="&#x335;" horiz-adv-x="0" 
d="M-709 1319h-428v33h428v-33z" />
    <glyph glyph-name="uni0336" unicode="&#x336;" horiz-adv-x="0" 
d="M-68 1171h-1591v35h1591v-35z" />
    <glyph glyph-name="uni0337" unicode="&#x337;" horiz-adv-x="0" 
d="M-68 901l-401 -264v41l401 262v-39z" />
    <glyph glyph-name="uni0338" unicode="&#x338;" horiz-adv-x="0" 
d="M-1075 0h-49l1007 1077h49z" />
    <glyph glyph-name="uni0394" unicode="&#x394;" horiz-adv-x="1470" 
d="M756 1556h45l651 -1556h-1434l652 1556h45l-635 -1517h1311z" />
    <glyph glyph-name="uni03A9" unicode="&#x3a9;" horiz-adv-x="1712" 
d="M1516 553v-6q-62 -139 -181 -264q-121 -127 -307 -252h549v-39h-592v61q186 125 307 246q124 124 183 254q61 134 61 293q0 219 -96 377q-94 156 -252 233q-159 78 -332 78t-332 -78q-158 -77 -252 -233q-96 -158 -96 -377q0 -155 62 -291q60 -132 182 -254
q121 -121 307 -246v-61h-592v39h549q-186 125 -307 252q-117 123 -180 264q-62 139 -62 299q0 230 101 395q104 169 264 250q166 84 356 84t356 -84q164 -83 265 -248q100 -163 100 -395q0 -160 -61 -297z" />
    <glyph glyph-name="uni03BC" unicode="&#x3bc;" horiz-adv-x="1220" 
d="M1186 35l-4 -39h-88q-75 0 -115 43q-41 44 -41 115v73q-47 -117 -137 -184q-92 -68 -215 -68q-109 0 -209 62q-99 62 -148 174v-614h-36v1478h36v-661v-4q0 -119 50 -211q51 -94 131 -142q82 -49 178 -49q97 0 176 49t129 142q49 91 49 213v665h37v-917v-4q0 -52 31 -88
q29 -33 88 -33h88z" />
    <glyph glyph-name="pi" unicode="&#x3c0;" horiz-adv-x="1239" 
d="M936 1042l-2 -800v-4q0 -106 51 -154q52 -49 154 -49h24v-35h-24q-117 0 -178 61q-62 62 -62 179v4v798h-604v-1042h-37v1042h-229v35h1136v-35h-229z" />
    <glyph glyph-name="uni0E3F" unicode="&#xe3f;" horiz-adv-x="1347" 
d="M1157 199l-6 2q-63 -91 -180 -142q-116 -51 -291 -57v-268h-39v268h-6h-399v1557h399h6v258h39v-261q143 -6 250 -55q108 -50 166 -131q59 -83 59 -194q0 -157 -104 -248q-106 -92 -279 -119q135 -9 236 -61q96 -50 155 -140q56 -86 56 -194q0 -126 -62 -215zM641 827
v695h-6h-361v-695h361h6zM1059 1350h-4q-52 73 -150 116q-101 44 -229 50v-691q133 6 231 49q96 42 150 121q53 77 53 179q0 105 -51 176zM268 37h361h6v751h-6h-361v-751zM674 37q242 9 368 108q125 98 125 269q0 170 -125 268q-123 97 -368 106v-751z" />
    <glyph glyph-name="Wgrave" unicode="&#x1e80;" horiz-adv-x="2273" 
d="M594 0h-43l-512 1556h43zM678 0h-43l438 1556h43zM1638 0h-43l-438 1556h43zM1722 0h-43l512 1556h43zM1147 1694h-43l-279 241h52z" />
    <glyph glyph-name="wgrave" unicode="&#x1e81;" horiz-adv-x="1781" 
d="M469 0h-39l-383 1077h39zM549 0h-39l321 1077h39zM1272 0h-39l-322 1077h39zM1352 0h-39l383 1077h39zM897 1257h-39l-268 299h47z" />
    <glyph glyph-name="Wacute" unicode="&#x1e82;" horiz-adv-x="2273" 
d="M594 0h-43l-512 1556h43zM678 0h-43l438 1556h43zM1638 0h-43l-438 1556h43zM1722 0h-43l512 1556h43zM1169 1694h-43l271 241h51z" />
    <glyph glyph-name="wacute" unicode="&#x1e83;" horiz-adv-x="1781" 
d="M469 0h-39l-383 1077h39zM549 0h-39l321 1077h39zM1272 0h-39l-322 1077h39zM1352 0h-39l383 1077h39zM924 1257h-39l260 299h47z" />
    <glyph glyph-name="Wdieresis" unicode="&#x1e84;" horiz-adv-x="2273" 
d="M594 0h-43l-512 1556h43zM678 0h-43l438 1556h43zM1638 0h-43l-438 1556h43zM1722 0h-43l512 1556h43zM1001 1694h-40v241h40v-241zM1313 1694h-41v241h41v-241z" />
    <glyph glyph-name="wdieresis" unicode="&#x1e85;" horiz-adv-x="1781" 
d="M469 0h-39l-383 1077h39zM549 0h-39l321 1077h39zM1272 0h-39l-322 1077h39zM1352 0h-39l383 1077h39zM752 1315h-37v241h37v-241zM1067 1315h-37v241h37v-241z" />
    <glyph glyph-name="uni1E9E" unicode="&#x1e9e;" horiz-adv-x="1525" 
d="M788 973l5 -2q189 3 337 -56t230 -172t82 -270q0 -131 -62 -246t-178 -182q-118 -68 -278 -68q-78 0 -148 13q-42 8 -141 35v43q73 -27 135 -39q67 -13 148 -13q140 0 251 66q107 64 166 170q58 104 58 225q0 148 -78 252q-76 102 -211 154q-131 51 -303 51h-47v55
l434 529h-909v-1518h-41v1556h985v-55z" />
    <glyph glyph-name="uni1EA0" unicode="&#x1ea0;" horiz-adv-x="1470" 
d="M1452 0h-45l-229 549h-885l-230 -549h-45l652 1556h45l-406 -968h852l-405 968h45zM756 -401h-41v241h41v-241z" />
    <glyph glyph-name="uni1EA1" unicode="&#x1ea1;" horiz-adv-x="1142" 
d="M788 1042l-4 -4q92 -58 134 -143q43 -87 43 -184v-4v-713h-37v262q-49 -126 -154 -205q-106 -80 -270 -80q-108 0 -193 43q-84 43 -131 117t-47 170q0 108 70 172q71 65 172 92q118 31 241 47l318 41v25v4q0 100 -37 184q-39 88 -119 142q-82 55 -209 55q-117 0 -194 -39
q-81 -41 -123 -104q-43 -64 -49 -138h-39q9 92 57 160q49 70 137 113q87 43 209 43q136 0 225 -56zM729 66h2q98 61 146 159q49 101 49 228v163l-271 -34q-160 -21 -264 -45q-101 -24 -166 -80q-63 -54 -63 -154q0 -91 45 -156q45 -66 123 -104q75 -37 168 -37q134 0 231 60
zM584 -408h-37v242h37v-242z" />
    <glyph glyph-name="uni1EB8" unicode="&#x1eb8;" horiz-adv-x="1306" 
d="M279 788v-749h909v-39h-950v1556h931v-38h-890v-691h876v-39h-876zM733 -401h-41v241h41v-241z" />
    <glyph glyph-name="uni1EB9" unicode="&#x1eb9;" horiz-adv-x="1193" 
d="M1085 539l-929 -2q0 -156 59 -277q58 -119 164 -184q104 -64 237 -64q157 0 263 80q104 79 151 225h39q-46 -166 -166 -251q-121 -86 -289 -86q-139 0 -252 67q-111 66 -180 195q-67 125 -67 301q0 168 65 295q64 125 176 196q110 70 244 70q132 0 244 -68t176 -190
q65 -124 65 -285v-22zM377 999l-2 -4q-101 -66 -158 -174t-63 -252h895v6q-3 134 -62 246t-160 176q-104 66 -227 66q-125 0 -223 -64zM631 -408h-37v242h37v-242z" />
    <glyph glyph-name="uni1EBC" unicode="&#x1ebc;" horiz-adv-x="1306" 
d="M279 788v-749h909v-39h-950v1556h931v-38h-890v-691h876v-39h-876zM406 1755l4 -2q15 56 61 86q48 31 98 31q39 0 72 -10q26 -8 74 -31q62 -33 123 -33q95 0 135 82h28q-15 -56 -61 -86q-48 -31 -98 -31q-32 0 -74 11q-32 8 -74 30q-72 35 -125 35q-95 0 -135 -82h-28z
" />
    <glyph glyph-name="uni1EBD" unicode="&#x1ebd;" horiz-adv-x="1193" 
d="M1085 539l-929 -2q0 -156 59 -277q58 -119 164 -184q104 -64 237 -64q157 0 263 80q104 79 151 225h39q-46 -166 -166 -251q-121 -86 -289 -86q-139 0 -252 67q-111 66 -180 195q-67 125 -67 301q0 168 65 295q64 125 176 196q110 70 244 70q132 0 244 -68t176 -190
q65 -124 65 -285v-22zM377 999l-2 -4q-101 -66 -158 -174t-63 -252h895v6q-3 134 -62 246t-160 176q-104 66 -227 66q-125 0 -223 -64zM311 1325v-6q18 60 62 90q45 31 92 31q30 0 67 -13t74 -32q43 -19 62 -25q24 -8 55 -8q49 0 80 22q31 21 49 66h29q-18 -57 -62 -88
q-45 -31 -92 -31q-33 0 -68 12q-17 6 -73 35q-43 19 -62 25q-30 10 -55 10q-49 0 -80 -22q-31 -21 -49 -66h-29z" />
    <glyph glyph-name="uni1ECA" unicode="&#x1eca;" horiz-adv-x="516" 
d="M279 0h-41v1556h41v-1556zM279 -401h-41v241h41v-241z" />
    <glyph glyph-name="uni1ECB" unicode="&#x1ecb;" horiz-adv-x="425" 
d="M231 0h-36v1077h36v-1077zM231 1315h-36v241h36v-241zM231 -401h-36v241h36v-241z" />
    <glyph glyph-name="uni1ECC" unicode="&#x1ecc;" horiz-adv-x="1699" 
d="M479 78v-4q-166 104 -256 282q-92 182 -92 416t92 416q90 178 256 282q165 103 369 103q209 0 369 -100q165 -103 256 -283q92 -182 92 -416t-92 -416q-90 -178 -256 -282q-162 -101 -369 -101q-204 0 -369 103zM1196 109q156 101 242 272q88 175 88 393t-88 393
q-87 173 -242 273q-151 98 -346 98t-346 -98q-155 -100 -242 -273q-88 -175 -88 -393t88 -393q86 -171 242 -272q153 -99 346 -99t346 99zM870 -408h-41v242h41v-242z" />
    <glyph glyph-name="uni1ECD" unicode="&#x1ecd;" horiz-adv-x="1218" 
d="M354 47h-4q-114 70 -178 199q-63 126 -63 295t63 295q64 127 178 198q113 70 258 70q146 0 256 -70q113 -72 176 -198q64 -128 64 -295t-64 -295q-65 -130 -174 -199q-110 -70 -254 -70q-145 0 -258 70zM844 80v-4q104 67 160 188q55 119 55 271q0 151 -55 270
q-56 121 -160 188q-106 68 -240 68q-133 0 -239 -68q-105 -68 -160 -186q-55 -119 -55 -270q0 -152 55 -271q55 -118 160 -186q106 -68 239 -68q134 0 240 68zM623 -406h-37v242h37v-242z" />
    <glyph glyph-name="uni1EE4" unicode="&#x1ee4;" horiz-adv-x="1597" 
d="M358 143v-2q-141 167 -141 477v5v931h41v-931v-5q0 -292 135 -448t404 -156q266 0 403 158q135 156 135 453v931h41v-931q0 -311 -141 -480q-140 -168 -438 -168t-439 166zM817 -406h-41v242h41v-242z" />
    <glyph glyph-name="uni1EE5" unicode="&#x1ee5;" horiz-adv-x="1157" 
d="M926 1077l30 -2v-1077h-36v229q-46 -116 -138 -184t-215 -68q-102 0 -190 52q-92 54 -146 147q-55 94 -55 227v5v669h37v-661v-4q0 -120 49 -211q51 -94 131 -142q82 -49 178 -49q98 0 177 49t129 142q49 91 49 213v665zM584 -403h-37v241h37v-241z" />
    <glyph glyph-name="Ygrave" unicode="&#x1ef2;" horiz-adv-x="1302" 
d="M1243 1556h47l-618 -849v-707h-41v707l-619 849h47l592 -813zM725 1694h-43l-279 241h52z" />
    <glyph glyph-name="ygrave" unicode="&#x1ef3;" horiz-adv-x="1097" 
d="M553 109h-41l-483 968h41zM420 -401h-41l643 1478h39zM602 1257h-39l-268 299h47z" />
    <glyph glyph-name="uni1EF8" unicode="&#x1ef8;" horiz-adv-x="1302" 
d="M1243 1556h47l-618 -849v-707h-41v707l-619 849h47l592 -813zM352 1755l4 -2q15 56 62 86q48 31 98 31q39 0 72 -10q26 -8 74 -31q62 -33 122 -33q96 0 136 82h28q-15 -56 -61 -86q-48 -31 -99 -31q-31 0 -73 11q-32 8 -74 30q-72 35 -125 35q-95 0 -135 -82h-29z" />
    <glyph glyph-name="uni1EF9" unicode="&#x1ef9;" horiz-adv-x="1097" 
d="M553 109h-41l-483 968h41zM420 -401h-41l643 1478h39zM260 1331v-6q18 60 62 90q45 31 92 31q32 0 67 -12q31 -11 74 -33q46 -20 61 -25q24 -8 56 -8q47 0 80 23q31 22 49 65h28q-18 -58 -61 -88q-45 -31 -92 -31q-31 0 -68 13q-23 8 -73 34q-43 19 -62 25q-30 10 -55 10
q-49 0 -80 -22q-31 -21 -49 -66h-29z" />
    <glyph glyph-name="uni2009" unicode="&#x2009;" horiz-adv-x="256" 
 />
    <glyph glyph-name="uni2011" unicode="&#x2011;" horiz-adv-x="833" 
d="M725 555h-616v33h616v-33z" />
    <glyph glyph-name="endash" unicode="&#x2013;" horiz-adv-x="1064" 
d="M956 555h-847v33h847v-33z" />
    <glyph glyph-name="emdash" unicode="&#x2014;" horiz-adv-x="1656" 
d="M1548 555h-1439v33h1439v-33z" />
    <glyph glyph-name="quoteleft" unicode="&#x2018;" horiz-adv-x="393" 
d="M268 1556h41l-123 -251v-232h-36v240z" />
    <glyph glyph-name="quoteright" unicode="&#x2019;" horiz-adv-x="401" 
d="M236 1325v231h36v-239l-118 -244h-41z" />
    <glyph glyph-name="quotesinglbase" unicode="&#x201a;" horiz-adv-x="401" 
d="M182 0v231h37v-239l-119 -244h-41z" />
    <glyph glyph-name="quotedblleft" unicode="&#x201c;" horiz-adv-x="645" 
d="M135 1313l119 243h41l-123 -251v-232h-37v240zM506 1556h41l-123 -251v-232h-37v240z" />
    <glyph glyph-name="quotedblright" unicode="&#x201d;" horiz-adv-x="653" 
d="M502 1325v231h37v-239l-119 -244h-41zM250 1325v231h37v-239l-119 -244h-41z" />
    <glyph glyph-name="quotedblbase" unicode="&#x201e;" horiz-adv-x="653" 
d="M434 0v231h37v-239l-119 -244h-41zM182 0v231h37v-239l-119 -244h-41z" />
    <glyph glyph-name="dagger" unicode="&#x2020;" horiz-adv-x="1212" 
d="M625 1077h454v-33h-454v-1044h-37v1044h-455v33h455v479h37v-479z" />
    <glyph glyph-name="daggerdbl" unicode="&#x2021;" horiz-adv-x="1212" 
d="M1079 1077v-33h-454v-436h454v-33h-454v-575h-37v575h-455v33h455v436h-455v33h455v479h37v-479h454z" />
    <glyph glyph-name="bullet" unicode="&#x2022;" horiz-adv-x="688" 
d="M252 494q-37 37 -37 90t37 90t90 37t90 -37t37 -90t-37 -90t-90 -37t-90 37z" />
    <glyph glyph-name="ellipsis" unicode="&#x2026;" horiz-adv-x="1204" 
d="M219 0h-37v231h37v-231zM621 0h-37v231h37v-231zM1022 0h-37v231h37v-231z" />
    <glyph glyph-name="perthousand" unicode="&#x2030;" horiz-adv-x="2396" 
d="M672 901l-4 -8q-37 -98 -107 -150q-68 -51 -166 -51t-166 51q-67 50 -106 152q-37 98 -37 238q0 139 37 237q38 100 108 152q71 53 166 53q98 0 166 -51q72 -53 109 -152q37 -98 37 -235q0 -138 -37 -236zM449 -10l862 1556h41l-863 -1556h-40zM592 827l-4 -4
q74 106 74 301q0 136 -33 224q-36 95 -94 139q-62 47 -146 47q-85 0 -145 -45q-59 -45 -94 -137q-33 -88 -33 -224q0 -197 73 -301t201 -104t201 104zM2150 788l-6 -10q72 -54 109 -151q37 -98 37 -236q0 -137 -37 -235t-107 -150q-68 -51 -166 -51q-110 0 -184 68t-104 194
q-34 -125 -107 -192q-74 -68 -184 -68q-98 0 -166 51q-69 51 -107 152q-36 95 -36 237q0 143 36 238q37 97 109 151q73 54 166 54q110 0 184 -68q75 -69 109 -194q30 126 104 194t185 68q95 0 165 -52zM1593 88l-4 -4q74 106 74 301q0 135 -33 223q-36 96 -94 140
q-62 47 -145 47q-86 0 -146 -45q-59 -44 -94 -138q-33 -88 -33 -223q0 -195 74 -301q73 -104 201 -104q127 0 200 104zM2173 84l-4 -4q74 106 74 301q0 135 -33 223q-36 95 -94 139q-63 48 -146 48q-84 0 -145 -46q-59 -45 -94 -137q-33 -88 -33 -223q0 -195 74 -301
q73 -104 200 -104q128 0 201 104z" />
    <glyph glyph-name="minute" unicode="&#x2032;" horiz-adv-x="364" 
d="M166 1077h-29l72 479h41z" />
    <glyph glyph-name="second" unicode="&#x2033;" horiz-adv-x="561" 
d="M166 1077h-29l72 479h41zM362 1077h-28l72 479h40z" />
    <glyph glyph-name="guilsinglleft" unicode="&#x2039;" horiz-adv-x="669" 
d="M508 1006h43l-397 -449l397 -471h-43l-397 471z" />
    <glyph glyph-name="guilsinglright" unicode="&#x203a;" horiz-adv-x="669" 
d="M119 1006h43l397 -449l-397 -471h-43l397 471z" />
    <glyph glyph-name="uni2042" unicode="&#x2042;" horiz-adv-x="1763" 
d="M1225 1329l10 -29l-330 -110l219 -293l-26 -18l-215 288l-217 -288l-27 18l219 293l-330 110l11 29l327 -110v337h31v-337zM743 477l11 -28l-330 -111l219 -293l-27 -18l-215 288l-217 -288l-26 18l219 293l-330 111l10 28l328 -110v338h31v-338zM1706 477l10 -28
l-330 -111l220 -293l-27 -18l-215 288l-217 -288l-27 18l219 293l-329 111l10 28l328 -110v338h30v-338z" />
    <glyph glyph-name="fraction" unicode="&#x2044;" horiz-adv-x="266" 
d="M-375 0h-43l1059 1556h43z" />
    <glyph glyph-name="uni2070" unicode="&#x2070;" horiz-adv-x="700" 
d="M199 1051q-65 47 -99 135q-34 87 -34 215t34 215q34 88 99 135t153 47q89 0 154 -47q63 -45 98 -135t35 -215t-35 -215t-98 -135q-65 -47 -154 -47q-88 0 -153 47zM530 1130q66 97 66 277q0 179 -66 276q-65 95 -178 95t-178 -95t-65 -276q0 -182 65 -277q64 -94 178 -94
t178 94z" />
    <glyph glyph-name="uni2074" unicode="&#x2074;" horiz-adv-x="649" 
d="M494 1303h124v-33h-124v-254h-37v254h-434v49l372 475h45l-385 -491h402v491h37v-491z" />
    <glyph glyph-name="uni2075" unicode="&#x2075;" horiz-adv-x="665" 
d="M479 1507l-4 -12q57 -29 92 -92q35 -62 35 -141q0 -82 -35 -144q-33 -59 -96 -94q-59 -33 -137 -33q-62 0 -123 25q-57 24 -94 69q-38 47 -47 105h39q12 -72 75 -117q62 -45 154 -45q63 0 117 31q51 29 82 86q30 55 30 127q0 70 -30 123q-31 54 -82 80q-54 28 -117 28
q-85 0 -141 -39q-60 -42 -86 -100l-37 4l41 424h448v-33h-413l-35 -354q25 52 86 94q56 39 145 39q73 0 133 -31z" />
    <glyph glyph-name="uni2076" unicode="&#x2076;" horiz-adv-x="692" 
d="M557 1454l-6 -6q72 -72 72 -191q0 -77 -37 -135q-36 -57 -99 -92q-59 -33 -135 -33q-134 0 -211 103q-75 100 -75 301q0 134 36 219q37 87 103 135q65 47 147 47q96 0 160 -49q66 -50 92 -137h-39q-22 72 -73 115q-52 43 -136 43q-78 0 -135 -48q-58 -48 -84 -129
q-28 -86 -28 -190q0 -8 4 -78q12 61 49 103q37 43 90 67q55 25 110 25q125 0 195 -70zM471 1059l6 -2q52 30 82 82q31 54 31 116q0 65 -27 117q-26 51 -80 82t-125 31q-65 0 -122 -31q-56 -30 -86 -80q-31 -51 -31 -98q0 -61 26 -117q25 -55 80 -94q52 -37 129 -37
q63 0 117 31z" />
    <glyph glyph-name="uni2077" unicode="&#x2077;" horiz-adv-x="518" 
d="M23 1761v33h479v-49l-381 -729h-45l391 745h-444z" />
    <glyph glyph-name="uni2078" unicode="&#x2078;" horiz-adv-x="681" 
d="M510 1405h2q42 -20 78 -66q33 -42 33 -106q0 -72 -39 -123q-41 -53 -105 -80q-62 -26 -141 -26t-141 26q-63 26 -101 80q-37 52 -37 123q0 63 31 108t78 66q52 23 86 31q-65 12 -117 55q-51 42 -51 121q0 51 31 96q30 43 90 68q58 24 131 24q76 0 135 -24q60 -25 90 -68
q31 -45 31 -96q0 -79 -51 -121q-50 -41 -117 -57q37 -8 84 -31zM182 1497l-6 -4q54 -45 160 -45q108 0 162 45q55 46 55 117q0 43 -25 82q-25 38 -73 59q-54 23 -115 23q-66 0 -115 -21q-50 -21 -73 -57q-25 -39 -25 -82q0 -71 55 -117zM453 1055l-9 -2q56 21 91 65
q34 43 34 109q0 64 -32 104q-35 44 -88 64t-119 20q-64 0 -117 -20t-88 -64q-33 -42 -33 -104q0 -63 35 -107q36 -45 88 -65q61 -23 119 -23t119 23z" />
    <glyph glyph-name="uni2079" unicode="&#x2079;" horiz-adv-x="692" 
d="M543 1704l-4 -2q77 -103 77 -301q0 -134 -36 -219q-38 -90 -101 -135q-64 -46 -147 -46q-95 0 -160 50t-92 139h39q20 -69 74 -113q52 -43 135 -43q79 0 135 47q58 48 84 129q28 86 28 191q0 8 -4 78q-12 -61 -49 -103q-37 -43 -90 -67q-55 -25 -110 -25q-123 0 -193 70
t-70 190q0 77 37 135q38 59 99 93q57 32 135 32q138 0 213 -100zM449 1346l-7 2q57 31 86 79q31 51 31 99q0 58 -27 116t-79 95t-129 37q-63 0 -117 -31q-52 -30 -82 -82q-31 -54 -31 -117q0 -64 27 -117q26 -50 80 -81t125 -31q66 0 123 31z" />
    <glyph glyph-name="uni207A" unicode="&#x207a;" horiz-adv-x="671" 
d="M352 1403h254v-31h-254v-260h-33v260h-253v31h253v250h33v-250z" />
    <glyph glyph-name="uni207B" unicode="&#x207b;" horiz-adv-x="649" 
d="M567 1372h-485v31h485v-31z" />
    <glyph glyph-name="uni207C" unicode="&#x207c;" horiz-adv-x="665" 
d="M575 1473h-485v30h485v-30zM575 1274h-485v31h485v-31z" />
    <glyph glyph-name="uni207D" unicode="&#x207d;" horiz-adv-x="378" 
d="M268 911h-2q-166 233 -166 494q0 145 45 258q47 117 123 225h41q-78 -111 -123 -223q-45 -113 -45 -260q0 -262 168 -494h-41z" />
    <glyph glyph-name="uni207E" unicode="&#x207e;" horiz-adv-x="376" 
d="M70 911l-2 -2q168 235 168 492q0 141 -46 260q-47 121 -122 227h41q74 -105 122 -225q45 -113 45 -258q0 -259 -165 -494h-41z" />
    <glyph glyph-name="uni2080" unicode="&#x2080;" horiz-adv-x="700" 
d="M199 -199q-64 46 -99 136q-34 87 -34 215t34 215q34 89 99 135q65 47 153 47q89 0 154 -47q63 -45 98 -135t35 -215t-35 -215q-35 -91 -98 -136q-65 -47 -154 -47q-88 0 -153 47zM530 -119q66 97 66 277q0 179 -66 276q-64 94 -178 94t-178 -94q-65 -95 -65 -276
q0 -182 65 -277q64 -94 178 -94t178 94z" />
    <glyph glyph-name="uni2081" unicode="&#x2081;" horiz-adv-x="346" 
d="M188 545l33 -2v-779h-39v637h-166v33h109q32 0 49 10q14 8 14 37v64z" />
    <glyph glyph-name="uni2082" unicode="&#x2082;" horiz-adv-x="634" 
d="M84 -201h500v-32h-541v49l340 307q69 60 102 110q35 53 35 113q0 46 -24 86q-25 42 -72 66q-46 24 -111 24q-96 0 -153 -45q-59 -47 -68 -125h-39q9 97 82 152t180 55q77 0 134 -31t86 -79q30 -49 30 -105q0 -68 -37 -123q-41 -60 -110 -121z" />
    <glyph glyph-name="uni2083" unicode="&#x2083;" horiz-adv-x="651" 
d="M526 125l-4 -12q66 -48 66 -138q0 -78 -39 -129q-41 -53 -105 -77q-67 -25 -141 -25q-107 0 -178 53q-70 52 -82 142h39q9 -73 68 -117q58 -43 153 -43q61 0 119 22q55 21 90 68t35 111q0 57 -35 98q-34 40 -90 61t-115 21h-37v33h37q58 0 105 20q50 21 77 59
q29 40 29 84q0 46 -26 82q-29 40 -76 60q-52 22 -113 22q-82 0 -137 -43t-64 -112h-39q3 53 37 96t86 67q55 25 117 25q68 0 129 -25q58 -24 92 -67q35 -44 35 -101q0 -79 -55 -122q-57 -44 -125 -56q85 -12 147 -57z" />
    <glyph glyph-name="uni2084" unicode="&#x2084;" horiz-adv-x="649" 
d="M494 53h124v-33h-124v-253h-37v253h-434v50l372 475h45l-385 -492h402v492h37v-492z" />
    <glyph glyph-name="uni2085" unicode="&#x2085;" horiz-adv-x="665" 
d="M479 258l-4 -12q57 -29 92 -92q35 -62 35 -142q0 -81 -35 -143q-33 -59 -96 -94q-59 -33 -137 -33q-62 0 -123 25q-57 24 -94 69q-38 47 -47 105h39q12 -72 75 -117q62 -45 154 -45q63 0 117 31q51 29 82 86q30 55 30 127q0 69 -30 122q-31 54 -82 80q-56 29 -117 29
q-85 0 -141 -39q-60 -42 -86 -100l-37 4l41 424h448v-33h-413l-35 -354q25 52 86 94q56 39 145 39q73 0 133 -31z" />
    <glyph glyph-name="uni2086" unicode="&#x2086;" horiz-adv-x="692" 
d="M557 205l-6 -6q72 -72 72 -191q0 -77 -37 -135q-36 -57 -99 -92q-59 -33 -135 -33q-134 0 -211 102q-75 100 -75 302q0 134 36 219q37 87 103 135q65 47 147 47q96 0 160 -49q66 -50 92 -137h-39q-21 71 -73 114t-136 43q-79 0 -135 -47q-58 -48 -84 -129
q-28 -86 -28 -190q0 -8 4 -78q12 59 49 102q38 44 90 68t110 24q126 0 195 -69zM471 -190l6 -3q52 30 82 82q31 54 31 117q0 64 -27 117q-26 51 -80 82t-125 31q-65 0 -122 -31q-56 -30 -86 -80q-31 -51 -31 -98q0 -61 26 -117q25 -55 80 -94q52 -37 129 -37q63 0 117 31z
" />
    <glyph glyph-name="uni2087" unicode="&#x2087;" horiz-adv-x="518" 
d="M23 512v33h479v-49l-381 -729h-45l391 745h-444z" />
    <glyph glyph-name="uni2088" unicode="&#x2088;" horiz-adv-x="681" 
d="M510 156h2q42 -20 78 -66q33 -42 33 -106q0 -72 -39 -123q-41 -53 -105 -80q-65 -27 -141 -27t-141 27q-63 26 -101 80q-37 52 -37 123q0 63 31 108t78 66t86 30q-64 12 -117 56q-51 42 -51 121q0 51 31 96q29 42 90 67t131 25q74 0 135 -25t90 -67q31 -45 31 -96
q0 -79 -51 -121q-52 -43 -117 -58q40 -9 84 -30zM182 248l-6 -4q54 -45 160 -45q108 0 162 45q55 46 55 116q0 43 -25 82q-26 40 -73 60q-52 22 -115 22q-68 0 -115 -20q-49 -21 -73 -58q-25 -39 -25 -81q0 -71 55 -117zM453 -195l-9 -2q55 21 91 66q34 43 34 108t-32 105
q-34 42 -88 63q-56 21 -119 21q-62 0 -117 -21q-54 -21 -88 -63q-33 -42 -33 -105q0 -62 35 -106q37 -47 88 -66q58 -22 119 -22t119 22z" />
    <glyph glyph-name="uni2089" unicode="&#x2089;" horiz-adv-x="692" 
d="M543 455l-4 -2q77 -103 77 -301q0 -135 -36 -220q-38 -90 -101 -135q-62 -45 -147 -45q-96 0 -160 49t-92 140h39q20 -69 74 -113q52 -43 135 -43q79 0 135 47q58 48 84 129q28 86 28 191q0 7 -4 77q-12 -59 -49 -102q-38 -44 -90 -68q-53 -24 -110 -24q-124 0 -193 69
q-70 70 -70 191q0 77 37 135q36 57 99 92q59 33 135 33q138 0 213 -100zM449 96l-7 2q56 30 86 80q31 51 31 98q0 58 -27 117q-26 56 -79 94q-52 37 -129 37q-64 0 -117 -30q-52 -30 -82 -82q-31 -54 -31 -117q0 -65 27 -117q26 -51 80 -82q52 -30 125 -30q68 0 123 30z" />
    <glyph glyph-name="uni208A" unicode="&#x208a;" horiz-adv-x="671" 
d="M352 154h254v-31h-254v-260h-33v260h-253v31h253v249h33v-249z" />
    <glyph glyph-name="uni208B" unicode="&#x208b;" horiz-adv-x="649" 
d="M567 123h-485v31h485v-31z" />
    <glyph glyph-name="uni208C" unicode="&#x208c;" horiz-adv-x="665" 
d="M575 223h-485v31h485v-31zM575 25h-485v30h485v-30z" />
    <glyph glyph-name="uni208D" unicode="&#x208d;" horiz-adv-x="378" 
d="M268 -338h-2q-166 233 -166 494q0 145 45 258q47 117 123 225h41q-78 -111 -123 -223q-45 -113 -45 -260q0 -262 168 -494h-41z" />
    <glyph glyph-name="uni208E" unicode="&#x208e;" horiz-adv-x="376" 
d="M70 -338l-2 -2q168 235 168 492q0 141 -46 260q-47 121 -122 227h41q74 -105 122 -225q45 -113 45 -258q0 -259 -165 -494h-41z" />
    <glyph glyph-name="uni20A9" unicode="&#x20a9;" horiz-adv-x="2031" 
d="M1946 971v-37h-244l-66 -313h265v-37h-273l-121 -584h-39l121 584h-291l129 -584h-38l-129 584h-467l-129 -584h-39l129 584h-291l121 -584h-39l-121 584h-293v37h285l-66 313h-264v37h256l-121 585h39l121 -585h457l129 585h39l-129 -585h299l-129 585h38l129 -585h457
l121 585h39l-121 -585h236zM389 934l66 -313h307l67 313h-440zM868 934l-67 -313h450l-67 313h-316zM1290 621h307l66 313h-440z" />
    <glyph glyph-name="Euro" unicode="&#x20ac;" horiz-adv-x="1628" 
d="M1493 401l-2 -12q-64 -195 -205 -309q-140 -113 -340 -113q-151 0 -278 80t-209 223q-83 145 -107 336h-248l15 37h229q-6 62 -6 127q0 66 6 127h-213l15 37h202q24 189 105 336q79 144 202 223q124 80 277 80q202 0 342 -113q141 -114 205 -309h-41q-57 178 -189 285
q-128 104 -315 104q-143 0 -258 -74q-114 -74 -188 -209q-77 -141 -97 -317h746l-15 -37h-735q-6 -61 -6 -127t6 -127h645l-12 -37h-629q24 -181 101 -317q78 -137 192 -209q118 -74 260 -74q187 0 316 105q131 106 188 284h41z" />
    <glyph glyph-name="uni20B8" unicode="&#x20b8;" horiz-adv-x="1271" 
d="M84 1520v36h1104v-36h-1104zM616 1229h-532v37h1104v-37h-533v-1229h-39v1229z" />
    <glyph glyph-name="uni20B9" unicode="&#x20b9;" horiz-adv-x="1323" 
d="M1247 1520l-471 -2q124 -47 195 -142q72 -97 78 -227h200v-37h-200q-3 -126 -64 -217q-62 -92 -172 -141t-264 -49h-346l805 -707h-62l-782 686v57h385q218 0 336 95q117 94 123 276h-846v37h846q-9 180 -129 274q-123 97 -334 97h-385v36h1087v-36z" />
    <glyph glyph-name="uni20BA" unicode="&#x20ba;" horiz-adv-x="1224" 
d="M1135 643v-2q0 -330 -160 -487q-159 -156 -465 -156h-180v688l-224 -65v36l224 66v266l-224 -67v36l224 68v528h39v-516l493 148v-37l-493 -148v-266l493 148v-37l-493 -148v-663h141q286 0 436 147q152 149 152 461h37z" />
    <glyph glyph-name="uni20BD" unicode="&#x20bd;" horiz-adv-x="1370" 
d="M375 713l-2 -254h452v-37h-452v-422h-39v422h-232v37h232v254h-232v37h232v806h356q278 0 428 -100q154 -103 154 -321q0 -219 -154 -322q-150 -100 -426 -100h-317zM373 1520l-2 -770h317q259 0 399 90t140 295q0 207 -137 295q-140 90 -400 90h-317z" />
    <glyph glyph-name="uni20BF" unicode="&#x20bf;" horiz-adv-x="1355" 
d="M1114 143l-6 4q-109 -106 -313 -133v-278h-39v274q-56 -6 -117 -6h-78v-268h-39v268h-282v1557h282v258h39v-258h78q67 0 117 -9v267h39v-273q166 -29 266 -129q98 -98 98 -241q0 -157 -104 -248q-106 -92 -279 -119q135 -9 236 -61q96 -50 155 -140q56 -86 56 -194
q0 -165 -109 -271zM1059 1360l-2 -6q-59 80 -166 123t-252 43h-360v-695h360q145 0 252 43t166 123t59 185q0 107 -57 184zM637 33v4q265 0 399 98q135 99 135 277q0 175 -135 274q-134 98 -399 98h-361v-751h361z" />
    <glyph glyph-name="uni2113" unicode="&#x2113;" horiz-adv-x="815" 
d="M580 39l-9 -8q55 27 109 84v-41q-46 -49 -105 -76t-120 -27q-95 0 -146 54q-49 52 -49 157v4v297l-149 -127l-25 27l174 147v588q0 134 31 242q29 102 90 160q58 55 141 55q106 0 162 -80q55 -79 55 -242q0 -136 -45 -252t-141 -235q-89 -110 -252 -248v-328v-4
q0 -95 43 -135q44 -41 119 -41q57 0 117 29zM399 1483l-6 2q-51 -54 -78 -148q-26 -91 -26 -221v-555q216 188 307 346q96 166 96 340q0 152 -43 219q-44 68 -131 68q-71 0 -119 -51z" />
    <glyph glyph-name="uni2116" unicode="&#x2116;" horiz-adv-x="2402" 
d="M1812 862v-4q-76 46 -120 133q-43 85 -43 201t43 201q44 85 120 135q76 49 173 49q96 0 172 -49q77 -50 120 -135t43 -199t-43 -199q-44 -87 -120 -133q-77 -47 -172 -47q-96 0 -173 47zM281 -4h-41v1556h41v-1556zM1370 -4h-47l-1001 1556h47zM1452 -4h-41v1556h41
v-1556zM2144 887q68 43 105 123q37 78 37 180t-37 180t-105 125q-65 45 -157 45q-93 0 -158 -45q-68 -47 -105 -125q-36 -76 -36 -180t36 -180q38 -80 105 -123t158 -43q90 0 157 43z" />
    <glyph glyph-name="uni2117" unicode="&#x2117;" horiz-adv-x="1957" 
d="M1401 1507h-4q193 -114 307 -307q115 -195 115 -424q0 -232 -113 -424q-114 -193 -307 -307q-192 -113 -424 -113t-424 113q-193 114 -307 307q-113 192 -113 424q0 229 115 424q114 193 307 307q192 113 424 113t424 -113zM1378 80l-4 -4q185 108 293 293
q109 186 109 403q0 221 -107 404t-293 292t-403 109q-221 0 -404 -107q-186 -109 -293 -292q-106 -181 -106 -404q0 -217 109 -403t292 -293t404 -107q217 0 403 109zM995 1286h-2q183 0 287 -76t104 -227t-104 -227t-285 -76h-272v-422h-35v1028h307zM993 713l-2 -4
q172 0 262 69q93 72 93 203t-93 203q-90 69 -260 69h-272v-540h272z" />
    <glyph glyph-name="uni2120" unicode="&#x2120;" horiz-adv-x="1650" 
d="M461 1235l-10 -4q107 -21 157 -62q49 -40 49 -110q0 -61 -30 -111q-29 -48 -90 -76q-56 -26 -138 -26q-70 0 -123 26q-55 27 -92 76q-38 51 -47 113h37q12 -83 76 -135t153 -52q63 0 117 23q52 22 78 61q29 44 29 93q0 45 -25 73q-24 27 -67 45t-111 33l-76 17
q-85 18 -137 55q-51 36 -51 112q0 46 30 87t86 65q58 25 123 25q102 0 170 -50q69 -51 84 -135h-37q-15 72 -73 115t-142 43q-57 0 -104 -18q-46 -18 -70 -52t-24 -73q0 -60 43 -90q45 -31 139 -52zM1452 1552v-700h-35v684l-268 -684h-72l-270 690v-690h-35v700h68
l272 -694l272 694h68z" />
    <glyph glyph-name="trademark" unicode="&#x2122;" 
d="M317 1524h-245v32h526v-32h-246v-668h-35v668zM1339 1556v-700h-34v684l-269 -684h-71l-271 690v-690h-35v700h68l272 -694l273 694h67z" />
    <glyph glyph-name="uni2150" unicode="&#x2150;" horiz-adv-x="1372" 
d="M811 745v33h479v-49l-381 -729h-45l391 745h-444zM315 1556l33 -2v-778h-39v637h-166v33h109q32 0 49 10q14 8 14 37v63zM111 -2h-43l1058 1556h43z" />
    <glyph glyph-name="uni2151" unicode="&#x2151;" horiz-adv-x="1417" 
d="M1237 688l-4 -2q78 -104 78 -301q0 -132 -37 -219q-38 -91 -100 -135q-62 -45 -148 -45q-96 0 -160 49q-65 50 -92 139h39q20 -69 74 -113q52 -43 135 -43q78 0 135 48q58 48 84 129q29 89 29 190q0 8 -4 78q-12 -61 -49 -103q-36 -42 -91 -67t-110 -25q-123 0 -193 70
q-69 69 -69 190q0 78 37 136t98 92q57 32 135 32q138 0 213 -100zM1143 330l-6 2q56 30 86 80t30 98q0 61 -26 117q-25 55 -80 94q-52 37 -129 37q-63 0 -117 -31q-52 -30 -82 -82q-31 -54 -31 -117q0 -64 27 -116q26 -51 80 -82t125 -31q66 0 123 31zM303 1554l33 -2v-778
h-39v637h-166v33h109q32 0 49 10q14 8 14 37v63zM98 -4h-43l1059 1556h43z" />
    <glyph glyph-name="uni2152" unicode="&#x2152;" horiz-adv-x="1783" 
d="M932 778l33 -2v-778h-39v637h-166v33h108q33 0 50 10q14 8 14 37v63zM1253 33q-63 45 -98 135t-35 215t35 215t98 135q65 47 154 47t154 -47q63 -45 98 -135t35 -215t-35 -215t-98 -135q-65 -47 -154 -47t-154 47zM1585 113q66 97 66 276q0 180 -66 277q-64 94 -178 94
t-178 -94q-66 -97 -66 -277q0 -179 66 -276q65 -95 178 -95t178 95zM313 1554l33 -2v-778h-39v637h-166v33h109q32 0 49 10q14 8 14 37v63zM109 -4h-43l1058 1556h43z" />
    <glyph glyph-name="uni2153" unicode="&#x2153;" horiz-adv-x="1402" 
d="M315 1556l33 -2v-778h-39v637h-166v33h109q32 0 49 10q14 8 14 37v63zM111 -2h-43l1058 1556h43zM1223 356l-4 -12q65 -47 65 -137q0 -78 -39 -129q-43 -55 -104 -78q-67 -25 -142 -25q-105 0 -178 54q-70 52 -82 141h39q9 -73 68 -117q58 -43 153 -43q58 0 119 23
q56 21 90 67q35 47 35 111q0 57 -35 98t-90 62q-53 20 -114 20h-37v33h37q57 0 104 20q50 21 78 60t28 84q0 46 -26 82q-28 39 -76 59q-54 23 -113 23q-82 0 -137 -43q-54 -42 -63 -113h-39q3 53 37 96q36 45 86 68q53 24 116 24q71 0 129 -24t93 -68q34 -43 34 -100
q0 -80 -55 -123t-125 -55q85 -12 148 -58z" />
    <glyph glyph-name="uni2154" unicode="&#x2154;" horiz-adv-x="1609" 
d="M141 811h500v-33h-541v49l340 308q71 62 103 110q35 53 35 113q0 44 -25 86q-24 40 -72 65t-110 25q-97 0 -154 -45q-58 -46 -67 -125h-39q9 97 82 152t180 55q76 0 133 -31q56 -30 86 -80q31 -51 31 -104q0 -68 -37 -123q-39 -58 -111 -121zM324 0h-43l1058 1556h43z
M1436 358l-4 -12q65 -47 65 -137q0 -78 -39 -129q-43 -55 -104 -78q-67 -25 -142 -25q-105 0 -178 54q-70 52 -82 141h39q9 -73 68 -117q58 -43 153 -43q58 0 119 23q56 21 90 67q35 47 35 111q0 57 -35 98t-90 62q-53 20 -114 20h-37v33h37q57 0 104 20q50 21 78 60t28 84
q0 46 -26 82q-28 39 -76 59q-54 23 -113 23q-82 0 -137 -43q-54 -42 -63 -113h-39q3 53 37 96q36 45 86 68q53 24 116 24q70 0 129 -24q58 -24 93 -68q34 -43 34 -100q0 -80 -55 -123t-125 -55q85 -12 148 -58z" />
    <glyph glyph-name="uni2155" unicode="&#x2155;" horiz-adv-x="1421" 
d="M1180 492l-4 -13q57 -29 92 -92q35 -62 35 -141q0 -82 -35 -144q-32 -58 -97 -94q-59 -33 -137 -33q-62 0 -123 25q-56 23 -94 70q-38 48 -47 104h39q12 -71 76 -117q62 -45 153 -45q63 0 117 31q51 29 82 86t31 127q0 69 -31 123t-82 80q-54 28 -117 28q-86 0 -141 -38
q-60 -41 -86 -101l-37 4l41 424h449v-33h-414l-35 -354q25 52 86 94q56 39 146 39q75 0 133 -30zM309 1542l33 -2v-778h-39v637h-166v33h109q32 0 49 10q14 8 14 37v63zM104 -16h-43l1059 1556h43z" />
    <glyph glyph-name="uni2156" unicode="&#x2156;" horiz-adv-x="1630" 
d="M141 811h500v-33h-541v49l340 308q71 62 103 110q35 53 35 113q0 44 -25 86q-24 40 -72 65t-110 25q-97 0 -154 -45q-58 -46 -67 -125h-39q9 97 82 152t180 55q76 0 133 -31q56 -30 86 -80q31 -51 31 -104q0 -68 -37 -123q-39 -58 -111 -121zM324 0h-43l1058 1556h43z
M1391 492l-5 -13q58 -30 93 -92q34 -61 34 -141q0 -83 -34 -144q-32 -58 -97 -94q-59 -33 -137 -33q-62 0 -123 25q-56 23 -94 70q-38 48 -47 104h39q12 -71 76 -117q62 -45 153 -45q63 0 117 31q51 29 82 86t31 127q0 69 -31 123t-82 80q-54 28 -117 28q-86 0 -141 -38
q-60 -41 -86 -101l-37 4l41 424h449v-33h-414l-35 -354q25 52 86 94q56 39 145 39q75 0 134 -30z" />
    <glyph glyph-name="uni2157" unicode="&#x2157;" horiz-adv-x="1597" 
d="M571 1137l-4 -13q66 -48 66 -137q0 -78 -39 -129q-42 -55 -105 -78q-65 -24 -141 -24q-107 0 -178 53q-70 52 -82 141h39q9 -72 68 -116q58 -43 153 -43q61 0 119 22q55 21 90 68t35 110q0 58 -35 99q-34 40 -90 61q-53 20 -115 20h-37v33h37q56 0 105 21q51 22 78 59
q28 39 28 84q0 46 -26 82q-28 39 -76 59q-54 23 -113 23q-82 0 -137 -43t-64 -113h-38q3 56 36 97q34 43 86 67q55 25 117 25q68 0 129 -25q58 -24 92 -67q35 -44 35 -101q0 -80 -55 -123t-125 -55q85 -12 147 -57zM293 -14h-43l1059 1556h43zM1360 477l-4 -12
q57 -29 92 -92q35 -62 35 -142q0 -81 -35 -143q-33 -59 -96 -94q-59 -33 -138 -33q-61 0 -122 25q-59 24 -95 69q-38 47 -47 105h39q12 -71 76 -117q62 -45 154 -45q62 0 116 31q51 29 82 86t31 127q0 69 -31 123q-30 52 -82 79q-56 29 -116 29q-86 0 -142 -39
q-60 -42 -86 -100l-37 4l41 424h449v-33h-414l-35 -354q25 52 86 94q56 39 146 39q73 0 133 -31z" />
    <glyph glyph-name="uni2158" unicode="&#x2158;" horiz-adv-x="1652" 
d="M541 1065h125v-33h-125v-254h-37v254h-434v49l372 475h45l-385 -491h402v491h37v-491zM342 0h-43l1059 1556h43zM1409 492l-4 -13q57 -29 92 -92q35 -62 35 -141q0 -82 -35 -144q-33 -59 -96 -94q-59 -33 -137 -33q-62 0 -123 25q-56 23 -94 70q-40 49 -48 104h39
q12 -71 76 -117q62 -45 154 -45q62 0 116 31q51 29 82 86t31 127q0 69 -31 123t-82 80q-54 28 -116 28q-87 0 -142 -38q-60 -41 -86 -101l-36 4l40 424h449v-33h-414l-35 -354q25 52 86 94q56 39 146 39q74 0 133 -30z" />
    <glyph glyph-name="uni2159" unicode="&#x2159;" horiz-adv-x="1411" 
d="M1227 438l-6 -6q71 -71 71 -190q0 -78 -37 -136t-98 -92q-57 -32 -135 -32q-134 0 -211 102q-76 101 -76 301q0 132 37 219q38 88 102 135q65 47 148 47q96 0 160 -49q66 -50 92 -137h-39q-21 71 -74 115q-52 43 -135 43q-79 0 -135 -47q-58 -48 -84 -129
q-29 -89 -29 -191q0 -8 4 -78q12 61 49 103q36 42 91 67t110 25q125 0 195 -70zM1141 43l6 -2q52 30 82 82q31 54 31 117q0 64 -27 116q-26 51 -80 82t-125 31q-66 0 -123 -31q-56 -30 -86 -80q-31 -51 -31 -98q0 -58 27 -117q25 -55 80 -94q52 -37 129 -37q63 0 117 31z
M313 1546l33 -2v-778h-39v637h-166v33h109q32 0 49 10q14 8 14 37v63zM109 -12h-43l1058 1556h43z" />
    <glyph glyph-name="uni215A" unicode="&#x215a;" horiz-adv-x="1574" 
d="M514 1270l-4 -13q57 -29 92 -92q35 -62 35 -141q0 -81 -35 -143q-34 -60 -96 -95q-57 -32 -137 -32q-65 0 -123 24q-56 23 -94 70q-40 49 -48 104h39q12 -70 76 -116q62 -45 154 -45q63 0 116 30q51 29 82 86t31 127q0 69 -31 123t-82 80q-56 29 -116 29q-86 0 -142 -39
q-60 -41 -86 -101l-36 4l41 424h448v-32h-414l-34 -355q26 53 86 95q55 38 145 38q75 0 133 -30zM281 -14h-43l1058 1556h43zM1395 424l-6 -6q71 -71 71 -191q0 -77 -37 -135t-98 -92q-59 -33 -135 -33q-134 0 -211 103q-76 101 -76 301q0 132 37 219q38 88 102 135
q65 47 148 47q96 0 160 -49q66 -50 92 -137h-39q-21 70 -74 114q-52 43 -135 43q-79 0 -135 -47q-58 -48 -84 -129q-29 -89 -29 -190q0 -8 4 -78q12 59 49 102q38 44 91 68q55 25 110 25q125 0 195 -70zM1309 29l6 -2q52 30 82 82t30 116q0 66 -26 117t-80 82t-125 31
q-66 0 -123 -31q-56 -30 -86 -80q-31 -51 -31 -98q0 -58 27 -117q25 -55 80 -94q52 -37 129 -37q63 0 117 31z" />
    <glyph glyph-name="oneeighth" unicode="&#x215b;" horiz-adv-x="1427" 
d="M1208 389h2q43 -21 78 -65q33 -42 33 -107q0 -72 -39 -123q-42 -54 -104 -80t-142 -26q-79 0 -141 26q-61 26 -100 80q-37 52 -37 123q0 65 30 109q30 43 78 65q52 23 86 31q-64 12 -116 55t-52 121q0 51 31 96q30 43 90 68q59 24 131 24q76 0 135 -24q62 -25 91 -68
q30 -44 30 -96q0 -79 -51 -121q-50 -41 -117 -57q37 -8 84 -31zM881 481l-7 -4q54 -45 160 -45q108 0 162 45q55 46 55 117q0 44 -24 82t-74 59q-54 23 -115 23q-64 0 -114 -21q-52 -22 -74 -57q-25 -39 -25 -82q0 -70 56 -117zM1151 39l-8 -2q55 21 90 65t35 109
q0 62 -33 104q-35 44 -88 64t-119 20q-64 0 -117 -20t-88 -64q-32 -40 -32 -104t34 -107q36 -45 88 -65q61 -23 119 -23t119 23zM301 1550l33 -2v-778h-39v637h-166v33h109q32 0 49 10q14 8 14 37v63zM96 -8h-43l1059 1556h43z" />
    <glyph glyph-name="threeeighths" unicode="&#x215c;" horiz-adv-x="1603" 
d="M571 1137l-4 -13q66 -48 66 -137q0 -78 -39 -129q-42 -55 -105 -78q-65 -24 -141 -24q-107 0 -178 53q-70 52 -82 141h39q9 -72 68 -116q58 -43 153 -43q61 0 119 22q55 21 90 68t35 110q0 58 -35 99q-34 40 -90 61q-53 20 -115 20h-37v33h37q56 0 105 21q51 22 78 59
q28 39 28 84q0 46 -26 82q-28 39 -76 59q-54 23 -113 23q-82 0 -137 -43t-64 -113h-38q3 56 36 97q34 43 86 67q55 25 117 25q68 0 129 -25q58 -24 92 -67q35 -44 35 -101q0 -80 -55 -123t-125 -55q85 -12 147 -57zM293 -14h-43l1059 1556h43zM1389 375h2q40 -19 77 -66
q33 -42 33 -106q0 -72 -39 -123q-42 -54 -104 -80q-64 -27 -141 -27t-142 27q-61 26 -100 80q-37 52 -37 123q0 63 31 108t78 66q52 23 86 31q-65 12 -117 55q-51 42 -51 121q0 52 30 96q30 43 90 68q59 24 132 24q77 0 135 -24q60 -25 90 -68q31 -45 31 -96q0 -78 -52 -121
q-50 -42 -116 -57q37 -8 84 -31zM1061 467l-6 -4q54 -45 159 -45q108 0 162 45q56 47 56 117q0 43 -25 82q-24 38 -74 59q-52 22 -114 22q-68 0 -115 -20q-52 -22 -74 -57q-24 -38 -24 -82q0 -71 55 -117zM1331 25l-8 -2q55 21 90 65t35 109q0 62 -33 104q-35 44 -88 64
t-119 20q-63 0 -116 -20t-88 -64q-33 -42 -33 -104q0 -63 35 -107q36 -45 88 -65q61 -23 118 -23q58 0 119 23z" />
    <glyph glyph-name="fiveeighths" unicode="&#x215d;" horiz-adv-x="1593" 
d="M514 1270l-4 -13q57 -29 92 -92q35 -62 35 -141q0 -81 -35 -143q-34 -60 -96 -95q-57 -32 -137 -32q-65 0 -123 24q-56 23 -94 70q-40 49 -48 104h39q12 -70 76 -116q62 -45 154 -45q63 0 116 30q51 29 82 86t31 127q0 69 -31 123t-82 80q-56 29 -116 29q-86 0 -142 -39
q-60 -41 -86 -101l-36 4l41 424h448v-32h-414l-34 -355q26 53 86 95q55 38 145 38q75 0 133 -30zM281 -14h-43l1058 1556h43zM1376 375h2q42 -20 78 -66q33 -42 33 -106q0 -72 -39 -123q-42 -54 -104 -80q-64 -27 -142 -27q-76 0 -141 27q-61 26 -100 80q-37 52 -37 123
q0 65 30 108q31 45 78 66q52 23 86 31q-64 12 -116 55t-52 121q0 51 31 96q30 43 90 68q59 24 131 24q76 0 135 -24q62 -25 91 -68q30 -44 30 -96q0 -79 -51 -121q-50 -41 -117 -57q37 -8 84 -31zM1049 467l-7 -4q54 -45 160 -45q108 0 162 45q55 46 55 117q0 44 -24 82
t-74 59q-52 22 -115 22q-67 0 -114 -20q-52 -22 -74 -57q-25 -39 -25 -82q0 -70 56 -117zM1319 25l-8 -2q55 21 90 65t35 109q0 62 -33 104q-35 44 -88 64t-119 20q-64 0 -117 -20t-88 -64q-33 -42 -33 -104q0 -63 35 -107q36 -45 88 -65q61 -23 119 -23t119 23z" />
    <glyph glyph-name="seveneighths" unicode="&#x215e;" horiz-adv-x="1425" 
d="M121 1524v32h479v-49l-381 -729h-45l391 746h-444zM119 0h-43l1059 1556h43zM1214 389h3q41 -20 77 -65q33 -42 33 -107q0 -72 -39 -123q-42 -54 -104 -80t-142 -26q-79 0 -141 26q-61 26 -100 80q-37 52 -37 123q0 64 31 109q30 44 77 65q52 23 86 31q-64 12 -116 55
q-51 42 -51 121q0 52 30 96q30 43 90 68q59 24 131 24q78 0 136 -24q60 -25 90 -68q30 -44 30 -96q0 -79 -51 -121q-50 -41 -117 -57q37 -8 84 -31zM887 481l-6 -4q54 -45 159 -45q108 0 162 45q55 46 55 117q0 44 -24 82t-74 59q-54 23 -115 23q-64 0 -114 -21
q-52 -22 -74 -57q-25 -39 -25 -82q0 -70 56 -117zM1157 39l-8 -2q55 21 90 65t35 109q0 62 -33 104q-35 44 -88 64t-119 20q-63 0 -116 -20q-55 -21 -89 -64q-32 -40 -32 -104t34 -107q35 -45 89 -65q61 -23 118 -23q58 0 119 23z" />
    <glyph glyph-name="uni215F" unicode="&#x215f;" horiz-adv-x="1247" 
d="M340 1556l33 -2v-778h-39v637h-166v33h108q33 0 50 10q14 8 14 37v63zM135 -2h-43l1059 1556h43z" />
    <glyph glyph-name="uni2189" unicode="&#x2189;" horiz-adv-x="1576" 
d="M231 813q-63 45 -98 135t-35 215t35 215t98 135q67 48 154 48t154 -48q63 -45 98 -135t35 -215t-35 -215t-98 -135q-65 -47 -154 -47t-154 47zM563 893q66 97 66 276q0 180 -66 277q-64 94 -178 94t-178 -94q-66 -97 -66 -277q0 -179 66 -276q64 -94 178 -94t178 94z
M297 0h-43l1059 1556h43zM1409 358l-4 -12q65 -47 65 -137q0 -80 -38 -129q-42 -55 -105 -78q-67 -25 -141 -25q-105 0 -178 54q-70 52 -82 141h39q9 -74 67 -117t154 -43q58 0 119 23q56 21 90 67q35 47 35 111q0 57 -35 98t-90 62q-53 20 -115 20h-37v33h37q57 0 104 20
q50 21 78 60q29 40 29 84t-27 82q-28 39 -76 59q-54 23 -112 23q-82 0 -137 -43t-64 -113h-39q3 53 37 96q36 45 86 68q53 24 117 24q70 0 129 -24q56 -23 92 -68q35 -44 35 -100q0 -79 -56 -123q-55 -43 -124 -55q83 -12 147 -58z" />
    <glyph glyph-name="arrowleft" unicode="&#x2190;" horiz-adv-x="1576" 
d="M231 797h1248v-39h-1246l562 -539h-58l-581 559l581 559h58z" />
    <glyph glyph-name="arrowup" unicode="&#x2191;" horiz-adv-x="1576" 
d="M788 1434l560 -582v-57l-539 561v-1245h-39v1247l-541 -563v57z" />
    <glyph glyph-name="arrowright" unicode="&#x2192;" horiz-adv-x="1576" 
d="M782 1337h58l581 -559l-581 -559h-58l561 539h-1245v39h1248z" />
    <glyph glyph-name="arrowdown" unicode="&#x2193;" horiz-adv-x="1576" 
d="M809 1446v-1245l539 561v-57l-560 -582l-559 582v57l541 -563v1247h39z" />
    <glyph glyph-name="uni2196" unicode="&#x2196;" horiz-adv-x="1576" 
d="M379 1237l973 -975l-27 -26l-977 976v-770l-35 43v787h787l43 -35h-764z" />
    <glyph glyph-name="uni2197" unicode="&#x2197;" horiz-adv-x="1576" 
d="M434 1237l43 35h787v-787l-35 -43v770l-977 -976l-27 26l973 975h-764z" />
    <glyph glyph-name="uni2198" unicode="&#x2198;" horiz-adv-x="1576" 
d="M1229 344v770l35 -43v-786h-787l-43 34h764l-973 975l27 27z" />
    <glyph glyph-name="uni2199" unicode="&#x2199;" horiz-adv-x="1576" 
d="M1325 1321l27 -27l-973 -975h764l-43 -34h-787v786l35 43v-770z" />
    <glyph glyph-name="uni21A4" unicode="&#x21a4;" horiz-adv-x="1576" 
d="M1325 797v540h35v-1118h-35v539h-1196l561 -539h-57l-582 559l582 559h57l-563 -540h1198z" />
    <glyph glyph-name="uni21A5" unicode="&#x21a5;" horiz-adv-x="1576" 
d="M1348 891v-57l-539 561v-1184h539v-35h-1119v35h541v1186l-541 -563v57l559 582z" />
    <glyph glyph-name="uni21A6" unicode="&#x21a6;" horiz-adv-x="1576" 
d="M887 1337h57l582 -559l-582 -559h-57l561 539h-1196v-539h-35v1118h35v-540h1198z" />
    <glyph glyph-name="uni21A7" unicode="&#x21a7;" horiz-adv-x="1576" 
d="M1348 1380v-34h-539v-1184l539 561v-57l-560 -582l-559 582v57l541 -563v1186h-541v34h1119z" />
    <glyph glyph-name="uni21B0" unicode="&#x21b0;" horiz-adv-x="1576" 
d="M156 797h1241v-797h-39v758h-1200l561 -539h-57l-582 559l582 559h57z" />
    <glyph glyph-name="uni21B1" unicode="&#x21b1;" horiz-adv-x="1576" 
d="M858 1337h57l582 -559l-582 -559h-57l561 539h-1200v-758h-39v797h1241z" />
    <glyph glyph-name="uni21B2" unicode="&#x21b2;" horiz-adv-x="1576" 
d="M1358 799v757h39v-796h-1241l563 -541h-57l-582 559l582 559h57l-561 -538h1200z" />
    <glyph glyph-name="uni21B3" unicode="&#x21b3;" horiz-adv-x="1576" 
d="M858 1337h57l582 -559l-582 -559h-57l563 541h-1241v796h39v-757h1200z" />
    <glyph glyph-name="partialdiff" unicode="&#x2202;" horiz-adv-x="1277" 
d="M285 1567h-9q471 -50 664 -295q195 -248 195 -606q0 -373 -150 -529q-151 -157 -383 -157q-141 0 -260 61q-118 61 -186 178q-68 118 -68 273t68 270t184 176t262 61q149 0 256 -55q106 -54 168 -141q63 -88 78 -180q9 427 -201 643q-209 215 -618 262v39zM854 74l-2 -8
q106 62 164 172q59 112 59 256q0 143 -61 247t-170 160q-107 55 -246 55q-137 0 -244 -55q-110 -56 -170 -162q-61 -107 -61 -252q0 -142 65 -251q63 -106 177 -166q110 -58 245 -58q138 0 244 62z" />
    <glyph glyph-name="product" unicode="&#x220f;" horiz-adv-x="1851" 
d="M1794 1556v-38h-324v-1794h-40v1794h-1008v-1794h-41v1794h-324v38h1737z" />
    <glyph glyph-name="summation" unicode="&#x2211;" horiz-adv-x="1423" 
d="M905 664l-774 -902h1200v-38h-1235v61l754 879l-754 831v61h1200v-38h-1163z" />
    <glyph glyph-name="minus" unicode="&#x2212;" horiz-adv-x="1257" 
d="M1110 532h-963v37h963v-37z" />
    <glyph glyph-name="radical" unicode="&#x221a;" horiz-adv-x="1280" 
d="M643 -254l584 1810h41l-590 -1832h-66l-315 757h-277v39h302z" />
    <glyph glyph-name="infinity" unicode="&#x221e;" horiz-adv-x="2230" 
d="M1886 952v-2q98 -61 154 -170q55 -107 55 -241q0 -133 -55 -240q-56 -109 -154 -170t-221 -61q-104 0 -192 55q-89 56 -154 127q-63 69 -135 170l-68 94l-69 -94q-69 -96 -136 -170q-67 -73 -153 -127q-88 -55 -193 -55q-123 0 -221 61t-154 170q-55 107 -55 240
q0 136 55 243q56 109 154 170q100 62 221 62q104 0 195 -58q96 -61 160 -131q69 -75 133 -166l63 -86l62 86q64 91 133 166q65 71 159 131q91 58 195 58q121 0 221 -62zM1092 541l-60 94q-72 102 -137 172q-68 74 -154 127t-180 53q-117 0 -203 -57q-87 -58 -137 -160
q-49 -101 -49 -227q0 -127 49 -228t137 -159t203 -58q93 0 178 54q87 55 148 122q63 69 135 170zM1870 162v-10q88 58 137 159t49 228q0 126 -49 227q-50 102 -137 160q-86 57 -203 57q-98 0 -178 -51q-85 -54 -150 -125q-65 -70 -137 -172l-65 -88l69 -96q72 -101 135 -170
t148 -123t178 -54q115 0 203 58z" />
    <glyph glyph-name="integral" unicode="&#x222b;" horiz-adv-x="698" 
d="M-16 -401l-4 34h124q100 0 160 66t60 172v1409q0 80 30 141q30 62 90 97q58 34 136 34h125v-34h-125q-100 0 -160 -66q-58 -64 -58 -172v-1409q0 -79 -30 -141q-31 -63 -88 -97q-58 -34 -135 -34h-125z" />
    <glyph glyph-name="approxequal" unicode="&#x2248;" horiz-adv-x="1421" 
d="M174 680h-4q70 64 141 102q70 37 148 37q57 0 110 -12q57 -13 142 -49q77 -32 139 -49q56 -15 115 -15q72 0 129 31q54 29 129 98l28 -24q-73 -67 -141 -103q-70 -37 -147 -37q-50 0 -107 13q-53 12 -143 49q-91 36 -135 47q-62 16 -117 16q-73 0 -129 -30
q-52 -28 -129 -99zM170 305h-4q73 67 141 103t148 36q57 0 110 -12q57 -13 142 -49q77 -32 139 -49q55 -15 115 -15q72 0 129 31q52 28 129 99l28 -25q-71 -64 -141 -102q-70 -37 -148 -37q-54 0 -106 12q-53 12 -143 49q-89 35 -136 47q-66 17 -116 17q-72 0 -129 -31
q-54 -29 -129 -98z" />
    <glyph glyph-name="notequal" unicode="&#x2260;" horiz-adv-x="1298" 
d="M1126 766v-37h-346l-207 -354h553v-37h-573l-197 -338h-43l197 338h-338v37h358l207 354h-565v37h588l180 311h43l-180 -311h323z" />
    <glyph glyph-name="lessequal" unicode="&#x2264;" horiz-adv-x="1210" 
d="M139 651l918 396v-39l-883 -381l883 -381v-39l-918 395v49zM1057 0h-918v37h918v-37z" />
    <glyph glyph-name="greaterequal" unicode="&#x2265;" horiz-adv-x="1210" 
d="M154 1008v39l917 -396v-49l-917 -395v39l882 381zM1071 0h-917v37h917v-37z" />
    <glyph glyph-name="uni2300" unicode="&#x2300;" horiz-adv-x="1368" 
d="M1087 926h-2q75 -78 115 -176q41 -100 41 -209q0 -153 -76 -281q-77 -130 -204 -205q-126 -75 -279 -75q-112 0 -205 38q-98 40 -172 111l-125 -129l-28 29l124 127q-73 76 -114 176t-41 209q0 152 76 280q77 130 204 205q128 76 281 76q110 0 205 -39q96 -39 174 -111
l125 129l28 -26zM199 344v-8q40 -97 104 -164l725 743q-72 66 -160 103q-87 37 -188 37q-139 0 -258 -70q-121 -71 -191 -190q-69 -117 -69 -258q0 -103 37 -193zM940 78l-2 4q120 70 190 190q72 123 72 258q0 105 -37 195q-40 97 -104 164l-725 -746q66 -60 160 -100
q87 -37 188 -37q135 0 258 72z" />
    <glyph glyph-name="uni2460" unicode="&#x2460;" horiz-adv-x="1912" 
d="M1386 1522q197 -115 312 -312q114 -197 114 -430q0 -234 -114 -430t-312 -311t-430 -115t-430 115q-197 114 -311 311q-115 198 -115 430t115 430t311 312q197 114 430 114q234 0 430 -114zM1366 68q188 111 299 299q111 187 111 411q0 225 -111 412q-111 188 -299 299
q-186 110 -412 110q-225 0 -411 -110q-188 -111 -299 -299q-111 -187 -111 -412q0 -224 111 -411q111 -188 299 -299q187 -111 411 -111t412 111zM944 1245h37v-934h-37v768h-201v35h140q36 0 49 10q12 9 12 41v80z" />
    <glyph glyph-name="uni2461" unicode="&#x2461;" horiz-adv-x="1912" 
d="M1386 1522q197 -115 312 -312q114 -197 114 -430q0 -234 -114 -430t-312 -311t-430 -115t-430 115q-197 114 -311 311q-115 198 -115 430t115 430t311 312q197 114 430 114q234 0 430 -114zM1366 68q188 111 299 299q111 187 111 411q0 225 -111 412q-111 188 -299 299
q-186 110 -412 110q-225 0 -411 -110q-188 -111 -299 -299q-111 -187 -111 -412q0 -224 111 -411q111 -188 299 -299q187 -111 411 -111t412 111zM672 346l610 -10v-35h-645v51l407 373q67 60 91 88q34 40 55 86q22 49 22 98q0 57 -30 107q-31 51 -88 80q-58 30 -142 30
q-118 0 -188 -55q-71 -56 -80 -149h-39q6 74 49 129q44 56 111 86q68 30 151 30q91 0 158 -34q69 -35 103 -93t34 -122q0 -60 -24 -109q-22 -46 -62 -92q-37 -43 -94 -94z" />
    <glyph glyph-name="uni2462" unicode="&#x2462;" horiz-adv-x="1912" 
d="M524 35q-197 114 -311 311q-115 198 -115 430t115 430t311 312t430 114t430 -114q197 -115 312 -312q114 -196 114 -430t-114 -430t-312 -311t-430 -115t-430 115zM1366 68q188 111 299 299q111 187 111 411q0 225 -111 412q-111 188 -299 299q-186 110 -412 110
q-225 0 -411 -110q-188 -111 -299 -299q-111 -187 -111 -412q0 -224 111 -411q111 -188 299 -299q187 -111 411 -111t412 111zM725 356l-14 -6q-84 60 -99 172h39q15 -90 86 -143q68 -51 183 -51q82 0 147 26q69 28 109 82q41 56 41 137q0 72 -43 121q-44 50 -111 74
q-70 25 -139 25h-41v34h41q66 0 127 25q57 23 96 72q37 46 37 102t-33 98q-37 47 -92 72q-59 27 -135 27q-68 0 -123 -25q-54 -25 -84 -68q-31 -46 -37 -94h-39q6 68 45 115q42 52 105 78q67 28 137 28q81 0 151 -28q68 -27 109 -80t41 -119q0 -71 -37 -117t-88 -69
q-54 -25 -100 -33q57 -9 116 -33q61 -25 103 -76q43 -52 43 -129q0 -93 -45 -153q-47 -62 -123 -92q-79 -31 -166 -31q-124 0 -207 59z" />
    <glyph glyph-name="uni2463" unicode="&#x2463;" horiz-adv-x="1912" 
d="M1386 1522q197 -115 312 -312q114 -197 114 -430q0 -234 -114 -430t-312 -311t-430 -115t-430 115q-197 114 -311 311q-115 198 -115 430t115 430t311 312q197 114 430 114q234 0 430 -114zM1366 68q188 111 299 299q111 187 111 411q0 225 -111 412q-111 188 -299 299
q-186 110 -412 110q-225 0 -411 -110q-188 -111 -299 -299q-111 -187 -111 -412q0 -224 111 -411q111 -188 299 -299q187 -111 411 -111t412 111zM1047 1245h36v-592h150v-35h-150v-307h-36v307h-525v50l479 577h46l-492 -592h492v592z" />
    <glyph glyph-name="uni2464" unicode="&#x2464;" horiz-adv-x="1912" 
d="M1386 1522q197 -115 312 -312q114 -197 114 -430q0 -234 -114 -430t-312 -311t-430 -115t-430 115q-197 114 -311 311q-115 198 -115 430t115 430t311 312q197 114 430 114q234 0 430 -114zM1366 68q188 111 299 299q111 187 111 411q0 225 -111 412q-111 188 -299 299
q-186 110 -412 110q-225 0 -411 -110q-188 -111 -299 -299q-111 -187 -111 -412q0 -224 111 -411q111 -188 299 -299q187 -111 411 -111t412 111zM1120 901l-6 -10q70 -41 111 -111q41 -71 41 -166q0 -96 -41 -170q-40 -73 -115 -114q-74 -41 -166 -41q-75 0 -145 28
q-65 26 -113 80q-45 50 -57 123h39q9 -58 49 -104q41 -47 100 -70q61 -24 131 -24q86 0 148 36q61 35 100 103q37 64 37 153q0 90 -37 154q-38 65 -100 98q-65 35 -144 35q-97 0 -168 -45t-112 -125l-37 4l51 508h535v-35h-500l-43 -430q35 69 108 115q74 47 175 47
q91 0 159 -39z" />
    <glyph glyph-name="uni2465" unicode="&#x2465;" horiz-adv-x="1912" 
d="M1386 1522q197 -115 312 -312q114 -197 114 -430q0 -234 -114 -430t-312 -311t-430 -115t-430 115q-197 114 -311 311q-115 198 -115 430t115 430t311 312q197 114 430 114q234 0 430 -114zM1366 68q188 111 299 299q111 187 111 411q0 225 -111 412q-111 188 -299 299
q-186 110 -412 110q-225 0 -411 -110q-188 -111 -299 -299q-111 -187 -111 -412q0 -224 111 -411q111 -188 299 -299q187 -111 411 -111t412 111zM1128 883h2q70 -37 111 -109q39 -68 39 -166q0 -92 -43 -162q-43 -69 -117 -110q-71 -39 -162 -39q-162 0 -253 123
q-93 125 -93 360q0 155 43 262q43 108 121 164q77 56 178 56q118 0 191 -58q74 -59 108 -166h-39q-27 86 -94 138q-66 51 -168 51q-99 0 -166 -58q-68 -59 -102 -159q-33 -98 -33 -234q0 -6 4 -88q15 70 62 123q48 54 110 80q69 29 136 29q95 0 165 -37zM1102 367l6 -7
q65 38 102 101q37 64 37 141q0 81 -33 143q-34 64 -98 101t-153 37q-83 0 -150 -37q-66 -37 -104 -96q-37 -58 -37 -117q0 -71 30 -141q29 -68 97 -117q62 -45 157 -45q82 0 146 37z" />
    <glyph glyph-name="uni2466" unicode="&#x2466;" horiz-adv-x="1912" 
d="M1386 1522q197 -115 312 -312q114 -197 114 -430q0 -234 -114 -430t-312 -311t-430 -115t-430 115q-197 114 -311 311q-115 198 -115 430t115 430t311 312q197 114 430 114q234 0 430 -114zM1366 68q188 111 299 299q111 187 111 411q0 225 -111 412q-111 188 -299 299
q-186 110 -412 110q-225 0 -411 -110q-188 -111 -299 -299q-111 -187 -111 -412q0 -224 111 -411q111 -188 299 -299q187 -111 411 -111t412 111zM1225 1210h-539v35h574v-51l-463 -883h-45z" />
    <glyph glyph-name="uni2467" unicode="&#x2467;" horiz-adv-x="1912" 
d="M524 35q-197 114 -311 311q-115 198 -115 430t115 430t311 312t430 114t430 -114q197 -115 312 -312q114 -196 114 -430t-114 -430t-312 -311t-430 -115t-430 115zM1366 68q188 111 299 299q111 187 111 411q0 225 -111 412q-111 188 -299 299q-186 110 -412 110
q-225 0 -411 -110q-188 -111 -299 -299q-111 -187 -111 -412q0 -224 111 -411q111 -188 299 -299q187 -111 411 -111t412 111zM791 330l2 -4q-79 36 -123 94q-45 60 -45 145q0 80 41 133t96 80q56 27 102 33q-45 9 -92 33t-80 69q-33 44 -33 115q0 65 37 117q39 55 105 84
q70 31 157 31q88 0 158 -31q68 -30 105 -82q36 -50 36 -117q0 -71 -34 -117t-80 -67q-51 -23 -92 -31q47 -6 102 -33t96 -80t41 -133q0 -85 -45 -145q-44 -58 -123 -94q-73 -33 -166 -33q-92 0 -165 33zM1102 854l-4 -2q59 24 86 68q28 45 28 98q0 54 -30 100q-31 48 -90 72
q-58 24 -140 24t-141 -24q-61 -25 -90 -70q-31 -48 -31 -100q0 -53 31 -98q30 -43 90 -68q61 -25 145 -25q85 0 146 25zM1094 350l-4 -2q67 27 110 82t43 131t-41 129q-42 55 -108 78q-70 25 -144 25q-73 0 -143 -25q-68 -24 -111 -76t-43 -129q0 -76 43 -131t111 -82
q65 -26 143 -26q79 0 144 26z" />
    <glyph glyph-name="uni2468" unicode="&#x2468;" horiz-adv-x="1912" 
d="M1386 1522q197 -115 312 -312q114 -197 114 -430q0 -234 -114 -430t-312 -311t-430 -115t-430 115q-197 114 -311 311q-115 198 -115 430t115 430t311 312q197 114 430 114q234 0 430 -114zM1366 68q188 111 299 299q111 187 111 411q0 225 -111 412q-111 188 -299 299
q-186 110 -412 110q-225 0 -411 -110q-188 -111 -299 -299q-111 -187 -111 -412q0 -224 111 -411q111 -188 299 -299q187 -111 411 -111t412 111zM1204 1137l-10 -7q92 -124 92 -358q0 -155 -43 -262q-44 -110 -119 -164q-76 -55 -178 -55q-116 0 -190 59q-75 60 -109 166
h39q27 -85 94 -137q66 -51 170 -51q100 0 166 57q69 60 103 160q34 101 34 233q0 6 -4 88q-15 -71 -61 -123t-111 -79q-69 -29 -135 -29q-96 0 -166 37q-69 37 -110 108q-39 68 -39 166q0 94 43 164q44 71 116 111q71 39 164 39q162 0 254 -123zM1090 700l-11 5
q67 37 105 96q37 58 37 117q0 68 -31 141q-29 69 -96 117q-65 47 -158 47q-79 0 -143 -37t-101 -101t-37 -141q0 -81 33 -143q34 -64 98 -101q62 -36 154 -36q85 0 150 36z" />
    <glyph glyph-name="uni24EA" unicode="&#x24ea;" horiz-adv-x="1912" 
d="M524 35q-197 114 -311 311q-115 198 -115 430t115 430t311 312t430 114t430 -114q197 -115 312 -312q114 -196 114 -430t-114 -430t-312 -311t-430 -115t-430 115zM1366 68q188 111 299 299q111 187 111 411q0 225 -111 412q-111 188 -299 299q-186 110 -412 110
q-225 0 -411 -110q-188 -111 -299 -299q-111 -187 -111 -412q0 -224 111 -411q111 -188 299 -299q187 -111 411 -111t412 111zM772 352h-4q-76 55 -117 164t-41 258t41 258t117 164t182 55q107 0 183 -55q75 -54 116 -164q41 -109 41 -258t-41 -258q-41 -110 -116 -164
q-76 -55 -181 -55q-104 0 -180 55zM1108 381v-4q66 49 104 151q37 101 37 246t-37 246q-38 102 -104 151q-68 50 -160 50t-160 -50q-67 -49 -104 -149q-37 -101 -37 -246t37 -246q37 -100 104 -149t160 -49t160 49z" />
    <glyph glyph-name="uni24FF" unicode="&#x24ff;" horiz-adv-x="1912" 
d="M524 35q-197 114 -311 311q-115 198 -115 430t115 430t311 312t430 114t430 -114q197 -115 312 -312q114 -196 114 -430t-114 -430t-312 -311t-430 -115t-430 115zM1137 352h-4q75 54 116 164q41 109 41 258t-41 258q-41 110 -116 164q-76 55 -181 55q-104 0 -180 -55
t-117 -164t-41 -258t41 -258t117 -164t182 -55q107 0 183 55zM791 381v-4q-68 50 -105 151t-37 246t37 246t105 151t159 50q92 0 160 -50q67 -49 104 -149q37 -101 37 -246t-37 -246q-37 -100 -104 -149t-160 -49q-92 0 -159 49z" />
    <glyph glyph-name="filledbox" unicode="&#x25a0;" horiz-adv-x="1515" 
d="M1296 0h-1077v1077h1077v-1077z" />
    <glyph glyph-name="uni25A1" unicode="&#x25a1;" horiz-adv-x="1515" 
d="M1296 0h-1077v1077h1077v-1077zM256 1040v-1003h1004v1003h-1004z" />
    <glyph glyph-name="lozenge" unicode="&#x25ca;" horiz-adv-x="1290" 
d="M623 1556h45l510 -778l-510 -778h-45l-510 778zM154 778l491 -749l492 749l-492 752z" />
    <glyph glyph-name="circle" unicode="&#x25cb;" horiz-adv-x="1413" 
d="M418 41v-2q-132 77 -209 209q-78 135 -78 289q0 153 78 288q77 132 209 209q135 78 289 78q157 0 288 -76q132 -77 209 -209q78 -135 78 -288q0 -154 -78 -289q-77 -132 -209 -209q-135 -78 -288 -78q-154 0 -289 78zM975 72v-4q123 71 194 194q72 126 72 270
q0 145 -72 271q-71 123 -194 194q-126 72 -270 72q-149 0 -271 -70q-125 -72 -194 -192q-72 -126 -72 -270q0 -145 72 -271q71 -123 194 -194q126 -72 271 -72q144 0 270 72z" />
    <glyph glyph-name="uni25CF" unicode="&#x25cf;" horiz-adv-x="1413" 
d="M418 41v-2q-132 77 -209 209q-78 135 -78 289q0 153 78 288q77 132 209 209q135 78 289 78q157 0 288 -76q132 -77 209 -209q78 -135 78 -288q0 -154 -78 -289q-77 -132 -209 -209q-135 -78 -288 -78q-154 0 -289 78z" />
    <glyph glyph-name="uni2776" unicode="&#x2776;" horiz-adv-x="1912" 
d="M524 35q-197 114 -311 311q-115 198 -115 430t115 430t311 312t430 114t430 -114q197 -115 312 -312q114 -196 114 -430t-114 -430t-312 -311t-430 -115t-430 115zM942 311h35v934h-35v-80q0 -32 -12 -41q-13 -10 -49 -10h-140v-35h201v-768z" />
    <glyph glyph-name="uni2777" unicode="&#x2777;" horiz-adv-x="1912" 
d="M524 35q-197 114 -311 311q-115 198 -115 430t115 430t311 312t430 114t430 -114q197 -115 312 -312q114 -196 114 -430t-114 -430t-312 -311t-430 -115t-430 115zM635 311l641 6v35h-608l399 365q50 45 94 96q40 46 62 92q24 49 24 109q0 64 -35 123q-34 57 -102 92
t-158 35q-81 0 -151 -31q-67 -30 -111 -86q-43 -55 -49 -129h39q9 95 80 151t188 56q82 0 142 -31q57 -29 88 -80q30 -50 30 -106q0 -55 -20 -99q-21 -46 -55 -86q-24 -28 -91 -88l-407 -373v-51z" />
    <glyph glyph-name="uni2778" unicode="&#x2778;" horiz-adv-x="1912" 
d="M524 35q-197 114 -311 311q-115 198 -115 430t115 430t311 312t430 114t430 -114q197 -115 312 -312q114 -196 114 -430t-114 -430t-312 -311t-430 -115t-430 115zM1100 328l10 -13q75 29 123 93q47 62 47 153q0 76 -41 129q-43 55 -98 78q-66 27 -117 35q48 9 98 33
q49 24 84 71t35 115q0 70 -39 121q-41 53 -108 80q-70 28 -152 28q-75 0 -137 -26q-63 -26 -105 -78q-39 -47 -45 -115h39q6 48 37 94q30 43 84 68q55 25 123 25q76 0 135 -27q58 -27 92 -70q33 -42 33 -98q0 -54 -37 -100q-40 -50 -94 -72q-61 -25 -127 -25h-41v-34h41
q69 0 139 -25q67 -24 111 -74q43 -49 43 -119q0 -81 -41 -137q-40 -54 -109 -82q-65 -26 -147 -26q-111 0 -182 53t-86 145h-39q15 -113 98 -172t207 -59q87 0 166 31z" />
    <glyph glyph-name="uni2779" unicode="&#x2779;" horiz-adv-x="1912" 
d="M524 35q-197 114 -311 311q-115 198 -115 430t115 430t311 312t430 114t430 -114q197 -115 312 -312q114 -196 114 -430t-114 -430t-312 -311t-430 -115t-430 115zM522 668v-50h525v-307h36v307h150v35h-150v592h-82zM1047 653h-492l492 592v-592z" />
    <glyph glyph-name="uni277A" unicode="&#x277a;" horiz-adv-x="1912" 
d="M524 35q-197 114 -311 311q-115 198 -115 430t115 430t311 312t430 114t430 -114q197 -115 312 -312q114 -196 114 -430t-114 -430t-312 -311t-430 -115t-430 115zM1116 338l-4 -4q74 41 115 115t41 169q0 98 -39 166q-41 70 -111 111q-68 39 -160 39q-103 0 -174 -45
t-106 -113l43 430h500v35h-535l-51 -508l37 -4q42 83 112 127q74 47 170 47q82 0 144 -33t100 -98q37 -64 37 -154q0 -89 -37 -153q-37 -63 -100 -100q-64 -37 -148 -37q-70 0 -131 24q-59 23 -100 70q-40 46 -49 104h-39q12 -70 59 -123q45 -51 115 -79q67 -27 145 -27
q92 0 166 41z" />
    <glyph glyph-name="uni277B" unicode="&#x277b;" horiz-adv-x="1912" 
d="M524 35q-197 114 -311 311q-115 198 -115 430t115 430t311 312t430 114t430 -114q197 -115 312 -312q114 -196 114 -430t-114 -430t-312 -311t-430 -115t-430 115zM1120 336l-10 -6q74 41 117 110q43 70 43 164q0 98 -39 166q-41 72 -111 109q-68 36 -166 36
q-68 0 -135 -28q-62 -26 -110 -80q-47 -53 -62 -123q-4 82 -4 88q0 131 35 234q34 100 102 159q67 58 166 58q103 0 170 -52t94 -137h39q-34 107 -108 166q-75 60 -191 60q-101 0 -178 -56q-75 -54 -119 -164q-43 -107 -43 -262q0 -234 92 -358q92 -123 254 -123
q93 0 164 39zM788 371l-10 4q-67 48 -96 117q-31 73 -31 141q0 59 37 117q38 58 105 96q67 37 149 37q90 0 154 -37t98 -101q33 -62 33 -143q0 -77 -37 -141q-38 -65 -100 -101t-144 -36q-93 0 -158 47z" />
    <glyph glyph-name="uni277C" unicode="&#x277c;" horiz-adv-x="1912" 
d="M524 35q-197 114 -311 311q-115 198 -115 430t115 430t311 312t430 114t430 -114q197 -115 312 -312q114 -196 114 -430t-114 -430t-312 -311t-430 -115t-430 115zM1225 1210l-473 -899h45l463 883v51h-574v-35h539z" />
    <glyph glyph-name="uni277D" unicode="&#x277d;" horiz-adv-x="1912" 
d="M524 35q-197 114 -311 311q-115 198 -115 430t115 430t311 312t430 114t430 -114q197 -115 312 -312q114 -196 114 -430t-114 -430t-312 -311t-430 -115t-430 115zM1122 330l-16 -6q79 36 123 94q47 62 47 145q0 82 -39 133q-42 54 -92 80q-55 28 -103 37q46 9 93 33
q41 21 79 72q33 44 33 110q0 65 -37 117q-40 55 -104 84q-70 31 -158 31q-87 0 -157 -31q-68 -30 -105 -82t-37 -117q0 -66 33 -110q35 -47 80 -70q47 -24 92 -33q-46 -8 -102 -37q-52 -27 -93 -80q-38 -49 -38 -131q0 -83 47 -145q44 -58 123 -94q73 -33 165 -33
q93 0 166 33zM795 852l4 -2q-57 24 -88 68q-31 45 -31 98q0 52 31 100t90 72t141 24t141 -24q62 -26 91 -70q30 -46 30 -100q0 -55 -30 -98q-30 -44 -89 -68q-61 -25 -145 -25t-145 25zM801 348l-4 -2q-68 27 -111 82t-43 131q0 77 43 129q45 55 111 78q70 25 145 25
t145 -25q68 -24 111 -76t43 -129q0 -76 -43 -131t-111 -82q-65 -26 -143 -26t-143 26z" />
    <glyph glyph-name="uni277E" unicode="&#x277e;" horiz-adv-x="1912" 
d="M524 35q-197 114 -311 311q-115 198 -115 430t115 430t311 312t430 114t430 -114q197 -115 312 -312q114 -196 114 -430t-114 -430t-312 -311t-430 -115t-430 115zM791 1221h2q-73 -41 -117 -111q-43 -70 -43 -162q0 -98 39 -166q41 -71 110 -108q70 -37 166 -37
q66 0 135 29q65 27 111 79t61 123q1 -18 3 -48t2 -40q0 -135 -33 -233q-34 -100 -103 -160q-66 -57 -166 -57q-101 0 -167 51q-69 53 -95 137h-39q34 -106 109 -166q72 -57 190 -57q103 0 179 55t120 164q43 107 43 262q0 237 -92 361q-92 123 -254 123q-90 0 -161 -39z
M1112 1178l6 -7q67 -49 96 -116q31 -73 31 -142q0 -58 -37 -116q-39 -61 -104 -97t-150 -36q-91 0 -153 36q-65 38 -99 101q-32 60 -32 143q0 77 37 141q37 63 102 101q64 37 145 37q96 0 158 -45z" />
    <glyph glyph-name="uniF8FF" unicode="&#xf8ff;" horiz-adv-x="1734" 
d="M928 793h741v-25h-741l684 -283l-8 -22l-684 282l522 -522l-17 -18l-522 522l283 -682l-23 -10l-282 682v-740h-25v744l-285 -686l-22 10l282 682l-522 -522l-16 18l522 522l-684 -282l-8 22l684 283h-741v25h741l-684 282l8 23l684 -283l-522 522l16 19l522 -522
l-282 682l22 10l285 -686v739h25v-735l282 682l23 -10l-283 -682l522 522l17 -19l-522 -522l684 283l8 -23z" />
    <glyph glyph-name="uniFEFF" unicode="&#xfeff;" horiz-adv-x="0" 
 />
    <glyph glyph-name="NULL" horiz-adv-x="0" 
 />
    <glyph glyph-name="uni004A0301" horiz-adv-x="675" 
d="M41 0l2 37h98q87 0 146 18q60 18 90 68q31 51 31 137v1294h41v-1294q0 -144 -80 -203q-77 -57 -230 -57h-98zM457 1692h-43l270 241h51z" />
    <glyph glyph-name="G.ss03" horiz-adv-x="1626" 
d="M797 772h704v-33q0 -217 -84 -393q-81 -170 -233 -270q-150 -99 -348 -99t-359 103q-162 104 -252 285q-92 186 -92 415q0 230 92 416q90 181 252 285q159 102 350 102q172 0 301 -63q138 -67 220 -174q87 -113 133 -250h-43q-73 200 -228 325q-153 123 -383 123
q-177 0 -325 -98q-154 -102 -240 -272q-88 -175 -88 -394q0 -218 88 -393q86 -170 240 -272q150 -99 332 -99q180 0 323 93q141 92 221 256q80 165 80 368h-661v39z" />
    <glyph glyph-name="Gbreve.ss03" horiz-adv-x="1626" 
d="M797 772h704v-33q0 -217 -84 -393q-81 -170 -233 -270q-150 -99 -348 -99t-359 103q-162 104 -252 285q-92 186 -92 415q0 230 92 416q90 181 252 285q159 102 350 102q172 0 301 -63q138 -67 220 -174q87 -113 133 -250h-43q-73 200 -228 325q-153 123 -383 123
q-177 0 -325 -98q-154 -102 -240 -272q-88 -175 -88 -394q0 -218 88 -393q86 -170 240 -272q150 -99 332 -99q180 0 323 93q141 92 221 256q80 165 80 368h-661v39zM690 1720h-4q-59 37 -84 88q-29 60 -29 127h35q0 -101 56 -157t157 -56q102 0 158 56q55 55 55 157h35
q0 -67 -29 -127q-25 -51 -84 -88q-51 -32 -133 -32t-133 32z" />
    <glyph glyph-name="Gcaron.ss03" horiz-adv-x="1626" 
d="M797 772h704v-33q0 -217 -84 -393q-81 -170 -233 -270q-150 -99 -348 -99t-359 103q-162 104 -252 285q-92 186 -92 415q0 230 92 416q90 181 252 285q159 102 350 102q172 0 301 -63q138 -67 220 -174q87 -113 133 -250h-43q-73 200 -228 325q-153 123 -383 123
q-177 0 -325 -98q-154 -102 -240 -272q-88 -175 -88 -394q0 -218 88 -393q86 -170 240 -272q150 -99 332 -99q180 0 323 93q141 92 221 256q80 165 80 368h-661v39zM825 1716l271 219h45l-285 -241h-63l-285 241h45z" />
    <glyph glyph-name="Gcircumflex.ss03" horiz-adv-x="1626" 
d="M797 772h704v-33q0 -217 -84 -393q-81 -170 -233 -270q-150 -99 -348 -99t-359 103q-162 104 -252 285q-92 186 -92 415q0 230 92 416q90 181 252 285q159 102 350 102q172 0 301 -63q138 -67 220 -174q87 -113 133 -250h-43q-73 200 -228 325q-153 123 -383 123
q-177 0 -325 -98q-154 -102 -240 -272q-88 -175 -88 -394q0 -218 88 -393q86 -170 240 -272q150 -99 332 -99q180 0 323 93q141 92 221 256q80 165 80 368h-661v39zM858 1935l285 -241h-45l-271 219l-272 -219h-45l285 241h63z" />
    <glyph glyph-name="uni0122.ss03" horiz-adv-x="1626" 
d="M797 772h704v-33q0 -217 -84 -393q-81 -170 -233 -270q-150 -99 -348 -99t-359 103q-162 104 -252 285q-92 186 -92 415q0 230 92 416q90 181 252 285q159 102 350 102q172 0 301 -63q138 -67 220 -174q87 -113 133 -250h-43q-73 200 -228 325q-153 123 -383 123
q-177 0 -325 -98q-154 -102 -240 -272q-88 -175 -88 -394q0 -218 88 -393q86 -170 240 -272q150 -99 332 -99q180 0 323 93q141 92 221 256q80 165 80 368h-661v39zM821 -393v233h41v-237l-67 -144h-43z" />
    <glyph glyph-name="Gdotaccent.ss03" horiz-adv-x="1626" 
d="M797 772h704v-33q0 -217 -84 -393q-81 -170 -233 -270q-150 -99 -348 -99t-359 103q-162 104 -252 285q-92 186 -92 415q0 230 92 416q90 181 252 285q159 102 350 102q172 0 301 -63q138 -67 220 -174q87 -113 133 -250h-43q-73 200 -228 325q-153 123 -383 123
q-177 0 -325 -98q-154 -102 -240 -272q-88 -175 -88 -394q0 -218 88 -393q86 -170 240 -272q150 -99 332 -99q180 0 323 93q141 92 221 256q80 165 80 368h-661v39zM846 1694h-41v241h41v-241z" />
    <glyph glyph-name="Adieresis.titl" horiz-adv-x="1470" 
d="M1452 0h-45l-229 549h-885l-230 -549h-45l652 1556h45l-406 -968h852l-405 968h45zM293 1315h-41v241h41v-241zM1239 1315h-41v241h41v-241z" />
    <glyph glyph-name="Odieresis.titl" horiz-adv-x="1699" 
d="M479 78v-4q-166 104 -256 282q-92 182 -92 416t92 416q90 178 256 282q165 103 369 103q209 0 369 -100q165 -103 256 -283q92 -182 92 -416t-92 -416q-90 -178 -256 -282q-162 -101 -369 -101q-204 0 -369 103zM1196 109q156 101 242 272q88 175 88 393t-88 393
q-87 173 -242 273q-151 98 -346 98t-346 -98q-155 -100 -242 -273q-88 -175 -88 -393t88 -393q86 -171 242 -272q153 -99 346 -99t346 99zM123 1309h-41v241h41v-241zM1618 1309h-41v241h41v-241z" />
    <glyph glyph-name="Udieresis.titl" horiz-adv-x="1597" 
d="M633 1315h-41v241h41v-241zM1006 1315h-41v241h41v-241zM358 143v-2q-141 167 -141 477v5v931h41v-931v-5q0 -292 135 -448t404 -156q266 0 403 158q135 156 135 453v931h41v-931q0 -311 -141 -480q-140 -168 -438 -168t-439 166z" />
    <glyph glyph-name="I_J.loclNLD" horiz-adv-x="983" 
d="M166 0l2 37h281q87 0 145 18q60 18 90 68q31 51 31 137v1294h41v-1294q0 -144 -80 -203q-77 -57 -230 -57h-280zM209 453h-41v1101h41v-1101z" />
    <glyph glyph-name="A.inferior" horiz-adv-x="753" 
d="M741 -233h-43l-106 266h-430l-107 -266h-43l314 778h43l-193 -477h402l-193 477h43z" />
    <glyph glyph-name="B.inferior" horiz-adv-x="731" 
d="M606 113v-4q60 -51 60 -138q0 -97 -74 -153t-213 -56h-256v779h256q78 0 139 -25t90 -67q31 -45 31 -101q0 -78 -51 -123q-50 -45 -142 -57q102 -6 160 -55zM537 461h-2q-58 43 -160 43h-217v-322h217q102 0 160 43q59 44 59 117q0 77 -57 119zM373 -205q122 0 184 47
q61 46 61 129t-61 129q-62 47 -184 47h-217v-352h217z" />
    <glyph glyph-name="C.inferior" horiz-adv-x="802" 
d="M240 -195l-11 -14q-79 52 -125 143q-45 89 -45 209q0 117 47 209q46 91 127 144q77 51 179 51q126 0 211 -70q86 -71 120 -180h-41q-35 100 -108 158q-74 59 -180 59q-85 0 -156 -47q-69 -45 -113 -129q-43 -82 -43 -188q0 -107 43 -189q44 -84 113 -129q71 -47 154 -47
q115 0 190 57q75 58 113 160h41q-43 -119 -129 -184q-85 -64 -213 -64q-97 0 -174 51z" />
    <glyph glyph-name="D.inferior" horiz-adv-x="819" 
d="M371 545q117 0 200 -45q88 -48 134 -135q47 -89 47 -209t-47 -209q-46 -87 -134 -135q-83 -45 -200 -45h-250v778h250zM371 -199v-8q102 0 178 43q75 43 119 123q43 79 43 193q0 113 -43 192q-44 80 -119 123q-76 43 -178 43h-211v-709h211z" />
    <glyph glyph-name="E.inferior" horiz-adv-x="669" 
d="M160 154v-353h446v-34h-485v778h475v-35h-436v-322h430v-34h-430z" />
    <glyph glyph-name="F.inferior" horiz-adv-x="636" 
d="M588 545v-35h-428v-334h422v-35h-422v-374h-39v778h467z" />
    <glyph glyph-name="G.inferior" horiz-adv-x="849" 
d="M401 160l349 -15v-393h-37v221q-14 -56 -56 -110q-41 -53 -100 -86q-62 -35 -145 -35q-102 0 -179 51q-81 53 -127 144q-45 89 -45 208q0 115 48 209q46 91 127 144q77 51 178 51q126 0 211 -70q86 -71 120 -180h-40q-35 95 -105 156t-182 61q-85 0 -156 -47
q-67 -44 -112 -129q-44 -83 -44 -188q0 -106 44 -189t114 -129q71 -47 160 -47q83 0 151 41q66 40 107 117q39 74 39 178v2h-320v35z" />
    <glyph glyph-name="H.inferior" horiz-adv-x="821" 
d="M662 188v357h38v-778h-38v387h-502v-387h-39v778h39v-357h502z" />
    <glyph glyph-name="I.inferior" horiz-adv-x="280" 
d="M160 -233h-39v778h39v-778z" />
    <glyph glyph-name="J.inferior" horiz-adv-x="360" 
d="M23 -233v32h57q52 0 90 23q35 21 35 84v639h39v-641q0 -72 -39 -105q-38 -32 -123 -32h-59z" />
    <glyph glyph-name="K.inferior" horiz-adv-x="708" 
d="M217 178l494 -411h-58l-491 409v-409h-39v778h39v-365l450 365h58z" />
    <glyph glyph-name="L.inferior" horiz-adv-x="552" 
d="M160 545v-744h370v-34h-409v778h39z" />
    <glyph glyph-name="M.inferior" horiz-adv-x="1069" 
d="M160 -233h-39v778h39v-778zM526 -233h-41l-309 778h41zM584 -233h-41l309 778h41zM948 -233h-39v778h39v-778z" />
    <glyph glyph-name="N.inferior" horiz-adv-x="862" 
d="M160 -233h-39v778h39v-778zM686 -233h-43l-467 778h43zM741 -233h-39v778h39v-778z" />
    <glyph glyph-name="O.inferior" horiz-adv-x="858" 
d="M242 -195h-6q-84 53 -130 144q-45 89 -45 209q0 115 48 209q46 90 129 143q80 51 188 51q106 0 186 -51q83 -53 129 -143q47 -92 47 -209q0 -120 -45 -209q-47 -91 -129 -144q-80 -51 -186 -51t-186 51zM586 -164v4q74 46 114 129q41 84 41 189q0 104 -41 188
q-40 82 -114 129t-164 47q-92 0 -166 -47t-117 -129t-43 -190q0 -109 43 -191q43 -83 117 -129q74 -47 166 -47q90 0 164 47z" />
    <glyph glyph-name="P.inferior" horiz-adv-x="702" 
d="M362 545q136 0 218 -60q79 -58 79 -172t-79 -172q-80 -59 -218 -59h-202v-315h-39v778h241zM362 117v4q122 0 189 49t67 145q0 97 -67 146t-189 49h-202v-393h202z" />
    <glyph glyph-name="Q.inferior" horiz-adv-x="860" 
d="M881 -233l-70 -5l-139 91q-46 -49 -111 -76q-64 -27 -137 -27q-106 0 -186 51q-82 53 -129 144q-46 91 -46 209q0 114 48 208q47 92 129 144q80 51 188 51q106 0 186 -51q82 -52 129 -144q48 -94 48 -208q0 -76 -23 -150q-21 -66 -66 -121zM639 -125l-211 137h61
l173 -112q40 52 61 116q20 61 20 138q0 104 -41 188q-40 82 -114 129t-164 47q-92 0 -166 -47t-117 -129t-43 -190q0 -109 43 -191q43 -83 117 -129q74 -47 166 -47q125 0 215 90z" />
    <glyph glyph-name="R.inferior" horiz-adv-x="718" 
d="M676 -233l-47 4l-232 352h-16h-223v-352h-39v778h262q119 0 188 -57q72 -60 72 -160q0 -86 -53 -142q-52 -55 -148 -67zM158 158l221 -2q99 0 158 47t59 129q0 83 -59 133q-58 49 -154 49h-225v-356z" />
    <glyph glyph-name="S.inferior" horiz-adv-x="696" 
d="M203 -217l-2 -10q-59 29 -101 86q-40 54 -49 127h41q9 -67 45 -111q37 -46 90 -70t117 -24q76 0 135 24q57 23 88 72q31 48 31 105q0 46 -25 77q-28 35 -73 54q-54 23 -129 37l-84 18q-97 22 -154 61t-57 123q0 52 35 99q34 46 92 73q59 27 135 27q112 0 188 -55
q77 -56 92 -152h-40q-15 83 -82 129q-68 47 -160 47q-67 0 -117 -20q-54 -21 -80 -58q-26 -36 -26 -82q0 -49 24 -79t68 -45q54 -19 112 -31l84 -19q127 -27 179 -73q53 -47 53 -123q0 -71 -37 -123q-40 -56 -100 -84q-67 -31 -154 -31q-75 0 -139 31z" />
    <glyph glyph-name="T.inferior" horiz-adv-x="630" 
d="M23 545h585v-35h-274v-743h-39v743h-272v35z" />
    <glyph glyph-name="U.inferior" horiz-adv-x="808" 
d="M182 -162l2 -2q-73 82 -73 238v4v465h39v-467v-4q0 -137 65 -211t191 -74q125 0 190 74q63 72 63 215v467h39v-465q0 -157 -71 -240q-72 -84 -221 -84t-224 84z" />
    <glyph glyph-name="V.inferior" horiz-adv-x="737" 
d="M360 -233h-43l-305 778h43zM420 -233h-43l305 778h43z" />
    <glyph glyph-name="W.inferior" horiz-adv-x="1150" 
d="M307 -233h-41l-241 778h41zM365 -233h-41l202 778h41zM827 -233h-41l-202 778h41zM885 -233h-41l241 778h41z" />
    <glyph glyph-name="X.inferior" horiz-adv-x="765" 
d="M408 188l348 -421h-49l-324 393l-324 -393h-49l346 419l-295 359h50l272 -330l272 330h47z" />
    <glyph glyph-name="Y.inferior" horiz-adv-x="667" 
d="M614 545h45l-305 -426v-352h-39v348l-307 430h45l281 -393z" />
    <glyph glyph-name="Z.inferior" horiz-adv-x="675" 
d="M629 494l-555 -693h575v-34h-610v51l555 692h-549v35h584v-51z" />
    <glyph glyph-name="G.ss03.inferior" horiz-adv-x="823" 
d="M399 160l361 -8v-27q0 -112 -43 -197q-44 -86 -119 -135q-76 -49 -178 -49q-103 0 -180 51q-81 53 -127 144q-45 89 -45 208q0 117 47 209q46 91 127 144q77 51 178 51q125 0 211 -68q87 -69 121 -178h-41q-35 96 -105 154q-71 59 -182 59q-85 0 -156 -47
q-67 -44 -112 -129q-43 -82 -43 -188q0 -105 41 -189q41 -83 110 -129q71 -47 160 -47q87 0 154 43q65 42 104 121q37 75 37 172h-320v35z" />
    <glyph glyph-name="A.superior" horiz-adv-x="753" 
d="M741 780h-43l-106 267h-430l-107 -267h-43l314 779h43l-193 -478h402l-193 478h43z" />
    <glyph glyph-name="B.superior" horiz-adv-x="731" 
d="M606 1124v-4q60 -51 60 -137q0 -98 -74 -154q-73 -55 -213 -55h-256v778h256q81 0 139 -24q60 -25 90 -68q31 -45 31 -100q0 -78 -51 -123q-50 -45 -142 -57q101 -6 160 -56zM537 1473h-2q-58 43 -160 43h-217v-322h217q102 0 160 43q59 44 59 117q0 77 -57 119zM373 807
q122 0 184 47q61 46 61 129t-61 129q-62 47 -184 47h-217v-352h217z" />
    <glyph glyph-name="C.superior" horiz-adv-x="802" 
d="M240 817l-11 -14q-79 52 -125 143q-45 89 -45 209q0 117 47 209q45 89 127 143q79 52 179 52q126 0 211 -70q86 -71 120 -180h-41q-34 98 -108 157q-75 60 -180 60q-85 0 -156 -47q-69 -45 -113 -129q-43 -82 -43 -189q0 -106 43 -188q44 -84 113 -129q71 -47 154 -47
q115 0 190 57q75 58 113 160h41q-44 -121 -129 -185q-84 -63 -213 -63q-97 0 -174 51z" />
    <glyph glyph-name="D.superior" horiz-adv-x="819" 
d="M371 1556q117 0 200 -45q88 -48 134 -135q47 -89 47 -209t-47 -209q-46 -87 -134 -135q-83 -45 -200 -45h-250v778h250zM371 813v-8q102 0 178 43q75 43 119 123q43 79 43 192q0 114 -43 193q-44 80 -119 123q-76 43 -178 43h-211v-709h211z" />
    <glyph glyph-name="E.superior" horiz-adv-x="669" 
d="M160 1165v-352h446v-35h-485v778h475v-34h-436v-322h430v-35h-430z" />
    <glyph glyph-name="F.superior" horiz-adv-x="636" 
d="M588 1556v-34h-428v-334h422v-35h-422v-375h-39v778h467z" />
    <glyph glyph-name="G.superior" horiz-adv-x="849" 
d="M401 1171l349 -14v-393h-37v221q-15 -58 -56 -111t-100 -86q-61 -34 -145 -34q-102 0 -179 51q-82 54 -127 143t-45 209q0 115 48 209q45 89 127 143q79 52 178 52q126 0 211 -70q86 -71 120 -180h-40q-34 93 -105 155t-182 62q-85 0 -156 -47q-67 -44 -112 -129
q-44 -83 -44 -189q0 -105 44 -188t114 -129q71 -47 160 -47q83 0 151 41q67 40 107 116q39 74 39 179v2h-320v34z" />
    <glyph glyph-name="H.superior" horiz-adv-x="821" 
d="M662 1200v356h38v-778h-38v387h-502v-387h-39v778h39v-356h502z" />
    <glyph glyph-name="I.superior" horiz-adv-x="280" 
d="M160 778h-39v778h39v-778z" />
    <glyph glyph-name="J.superior" horiz-adv-x="360" 
d="M25 778v33h57q52 0 90 23q35 21 35 84v638h39v-641q0 -71 -39 -104t-123 -33h-59z" />
    <glyph glyph-name="K.superior" horiz-adv-x="708" 
d="M215 1190l494 -412h-58l-491 410v-410h-39v778h39v-364l450 364h58z" />
    </font>
</defs>
</svg>
